g 07
v 0.08546387 2.462222 -0.2503851
v 0.08438233 3.196721 -0.1045441
v 0.04086914 2.504857 -0.498891
v 0.03283569 3.246143 -0.3931183
v 0.03987671 2.528058 -0.7124054
v 0.03196289 3.275031 -0.6601776
v 0.07885742 2.533254 -0.8920471
v 0.08540039 3.281958 -0.9046106
v 0.1658545 2.522041 -1.058185
v 0.191499 3.268475 -1.112377
v 0.3057458 2.50043 -1.205907
v 0.3651904 3.240802 -1.301173
v 0.4670056 2.462463 -1.305715
v 0.6043018 3.17985 -1.470833
v 0.6243616 2.405252 -1.347592
v 0.893706 3.057212 -1.598908
v 0.7614648 2.327608 -1.363066
v 1.118325 2.927412 -1.634439
v 0.9283569 2.217792 -1.361992
v 1.336287 2.784333 -1.632885
v 1.112152 2.086534 -1.339075
v 1.558457 2.626202 -1.604268
v 1.298993 1.944744 -1.293986
v 1.778396 2.460234 -1.54933
v 1.476533 1.802819 -1.227619
v 1.988149 2.294165 -1.467588
v 1.628613 1.676184 -1.146111
v 2.16483 2.14752 -1.372101
v 1.781759 1.54384 -1.043796
v 2.337811 1.997999 -1.256642
v 1.9328 1.40746 -0.9237189
v 2.508042 1.844173 -1.12155
v 2.073939 1.272833 -0.7910516
v 2.669407 1.689998 -0.9703522
v 2.197505 1.145895 -0.6514868
v 2.815657 1.539284 -0.8060547
v 2.295958 1.033033 -0.5117749
v 2.940423 1.395388 -0.6306036
v 2.382534 0.9185446 -0.3466473
v 3.04566 1.256176 -0.430473
v 2.451977 0.8117224 -0.1646216
v 3.130402 1.125566 -0.2093695
v 2.501608 0.7132228 0.02488098
v 3.192882 1.001141 0.02527099
v 2.530225 0.6223866 0.2138983
v 3.231443 0.8797004 0.2671997
v 2.537159 0.5390465 0.3941412
v 3.243894 0.7575507 0.5104992
v 2.522947 0.4554542 0.56992
v 3.226477 0.6367494 0.751405
v 2.487174 0.370892 0.7547033
v 3.179114 0.5241126 0.9965729
v 2.430114 0.291057 0.9383472
v 3.103032 0.4157257 1.242316
v 2.353135 0.2160524 1.113901
v 2.99803 0.3094622 1.482877
v 2.258199 0.1460407 1.27475
v 2.863314 0.203135 1.712167
v 2.148481 0.08078358 1.415001
v 2.704005 0.1017848 1.916707
v 2.014789 0.02005619 1.551435
v 2.524861 0.01964483 2.09969
v 1.857823 -0.03691347 1.684788
v 2.321161 -0.05682779 2.272732
v 1.686636 -0.09280096 1.805751
v 2.098761 -0.1351427 2.429543
v 1.510544 -0.1502344 1.906137
v 1.863247 -0.2228578 2.562708
v 1.338614 -0.2110693 1.979393
v 1.62046 -0.3283037 2.66319
v 1.175518 -0.2831475 2.022066
v 1.381951 -0.4407023 2.724434
v 1.000464 -0.3650313 2.04459
v 1.140832 -0.5538887 2.755496
v 0.8143799 -0.4548376 2.047902
v 0.897749 -0.6723895 2.759575
v 0.6214551 -0.5526787 2.031819
v 0.6560266 -0.7973326 2.738719
v 0.4258594 -0.6587389 1.996548
v 0.419021 -0.9297711 2.694584
v 0.2316248 -0.7732884 1.942557
v 0.1902173 -1.070678 2.628563
v 0.06675537 -0.8817565 1.879719
v -0.004326172 -1.199803 2.553923
v -0.09954102 -0.9985626 1.801554
v -0.196189 -1.334505 2.463793
v -0.267793 -1.122924 1.708369
v -0.3878638 -1.476044 2.357712
v -0.433208 -1.251099 1.602294
v -0.576112 -1.621649 2.23714
v -0.5911633 -1.379374 1.485614
v -0.7575219 -1.768523 2.10339
v -0.7371069 -1.504004 1.360833
v -0.9286108 -1.913902 1.957548
v -0.8665137 -1.62115 1.230834
v -1.085874 -2.055116 1.800319
v -0.9844336 -1.735062 1.089659
v -1.228229 -2.192199 1.630351
v -1.098926 -1.853254 0.9298236
v -1.361865 -2.33016 1.443809
v -1.2055 -1.971574 0.7570575
v -1.485161 -2.467103 1.243884
v -1.300475 -2.086319 0.5766864
v -1.595497 -2.600553 1.034163
v -1.380396 -2.193823 0.3942621
v -1.690016 -2.727987 0.8180109
v -1.442072 -2.290386 0.2157837
v -1.765607 -2.846925 0.5983368
v -1.482778 -2.372235 0.04806457
v -1.818688 -2.954953 0.3772492
v -1.50515 -2.45072 -0.1356757
v -1.848811 -3.060868 0.1296051
v -1.506515 -2.520866 -0.3262811
v -1.85062 -3.156087 -0.1291876
v -1.485889 -2.579214 -0.5158539
v -1.822289 -3.236192 -0.3894733
v -1.443201 -2.626298 -0.7059698
v -1.763892 -3.300647 -0.6496698
v -1.377859 -2.662362 -0.8981366
v -1.676016 -3.349208 -0.9082745
v -1.288925 -2.68733 -1.093491
v -1.559606 -3.381951 -1.164147
vt 1 0
vt 0 0
vt 1 0.01666667
vt 0 0.01666667
vt 1 0.03333334
vt 0 0.03333334
vt 1 0.05
vt 0 0.05
vt 1 0.06666667
vt 0 0.06666667
vt 1 0.08333334
vt 0 0.08333334
vt 1 0.1
vt 0 0.1
vt 1 0.1166667
vt 0 0.1166667
vt 1 0.1333333
vt 0 0.1333333
vt 1 0.15
vt 0 0.15
vt 1 0.1666667
vt 0 0.1666667
vt 1 0.1833333
vt 0 0.1833333
vt 1 0.2
vt 0 0.2
vt 1 0.2166667
vt 0 0.2166667
vt 1 0.2333333
vt 0 0.2333333
vt 1 0.25
vt 0 0.25
vt 1 0.2666667
vt 0 0.2666667
vt 1 0.2833334
vt 0 0.2833334
vt 1 0.3
vt 0 0.3
vt 1 0.3166667
vt 0 0.3166667
vt 1 0.3333334
vt 0 0.3333334
vt 1 0.3500001
vt 0 0.3500001
vt 1 0.3666668
vt 0 0.3666668
vt 1 0.3833334
vt 0 0.3833334
vt 1 0.4000001
vt 0 0.4000001
vt 1 0.4166668
vt 0 0.4166668
vt 1 0.4333335
vt 0 0.4333335
vt 1 0.4500002
vt 0 0.4500002
vt 1 0.4666668
vt 0 0.4666668
vt 1 0.4833335
vt 0 0.4833335
vt 1 0.5000002
vt 0 0.5000002
vt 1 0.5166668
vt 0 0.5166668
vt 1 0.5333335
vt 0 0.5333335
vt 1 0.5500001
vt 0 0.5500001
vt 1 0.5666668
vt 0 0.5666668
vt 1 0.5833334
vt 0 0.5833334
vt 1 0.6000001
vt 0 0.6000001
vt 1 0.6166667
vt 0 0.6166667
vt 1 0.6333334
vt 0 0.6333334
vt 1 0.65
vt 0 0.65
vt 1 0.6666667
vt 0 0.6666667
vt 1 0.6833333
vt 0 0.6833333
vt 1 0.7
vt 0 0.7
vt 1 0.7166666
vt 0 0.7166666
vt 1 0.7333333
vt 0 0.7333333
vt 1 0.7499999
vt 0 0.7499999
vt 1 0.7666666
vt 0 0.7666666
vt 1 0.7833332
vt 0 0.7833332
vt 1 0.7999999
vt 0 0.7999999
vt 1 0.8166665
vt 0 0.8166665
vt 1 0.8333332
vt 0 0.8333332
vt 1 0.8499998
vt 0 0.8499998
vt 1 0.8666665
vt 0 0.8666665
vt 1 0.8833331
vt 0 0.8833331
vt 1 0.8999998
vt 0 0.8999998
vt 1 0.9166664
vt 0 0.9166664
vt 1 0.9333331
vt 0 0.9333331
vt 1 0.9499997
vt 0 0.9499997
vt 1 0.9666664
vt 0 0.9666664
vt 1 0.9833331
vt 0 0.9833331
vt 1 0.9999997
vt 0 0.9999997
vn 0.9846991 0.03533278 -0.1706439
vn 0.9848073 0.03500779 -0.1700856
vn 0.9959207 0.02334891 -0.08715979
vn 0.9959799 0.02298459 -0.08657806
vn 0.9944513 0.003377587 0.1051428
vn 0.994361 0.002960627 0.1060058
vn 0.9400936 -0.002285339 0.3409085
vn 0.941184 -0.00146507 0.337891
vn 0.8147684 0.0127878 0.5796456
vn 0.8211254 0.01485557 0.5705544
vn 0.6375103 0.04578697 0.7690801
vn 0.6636193 0.04950512 0.7464306
vn 0.4315436 0.1134786 0.8949261
vn 0.5138152 0.1126449 0.8504734
vn 0.2995612 0.2061619 0.9315366
vn 0.3689961 0.2014563 0.9073352
vn 0.2271653 0.2801129 0.9327018
vn 0.2416887 0.2768492 0.930022
vn 0.1640312 0.3270601 0.9306586
vn 0.1620371 0.3277598 0.9307618
vn 0.1032008 0.3692493 0.9235824
vn 0.0987443 0.3708081 0.9234452
vn 0.04202305 0.4130972 0.9097168
vn 0.03398432 0.4160684 0.9086981
vn -0.02586338 0.4626472 0.8861651
vn -0.03237887 0.4651093 0.884661
vn -0.08446562 0.5079035 0.8572629
vn -0.08570023 0.5084085 0.8568408
vn -0.1260357 0.5432358 0.8300661
vn -0.1255198 0.5430115 0.830291
vn -0.1606893 0.574872 0.80231
vn -0.159643 0.5744032 0.8028543
vn -0.1935668 0.6070642 0.7707171
vn -0.1916755 0.6061614 0.7718995
vn -0.2272447 0.6433629 0.7310568
vn -0.224002 0.6416363 0.7335707
vn -0.2632593 0.6880909 0.6761844
vn -0.2609966 0.6869786 0.6781896
vn -0.2992558 0.7375671 0.6053435
vn -0.2981073 0.7368999 0.6067212
vn -0.3257104 0.7794192 0.5351807
vn -0.3231643 0.7778385 0.5390104
vn -0.3394019 0.8111129 0.4763424
vn -0.3343585 0.8075677 0.4858381
vn -0.3421493 0.8361157 0.4287709
vn -0.3342945 0.8290161 0.4483072
vn -0.3347122 0.8541864 0.3979112
vn -0.3281556 0.8464523 0.4193238
vn -0.3227147 0.872887 0.3659555
vn -0.3206977 0.8697582 0.3750649
vn -0.310624 0.8946072 0.3212331
vn -0.3104906 0.8936419 0.3240365
vn -0.2974937 0.9119178 0.2826717
vn -0.2978578 0.9096147 0.2896236
vn -0.2822621 0.9246162 0.2557598
vn -0.2844888 0.9201133 0.2691793
vn -0.266445 0.9331586 0.2412923
vn -0.2711319 0.9273388 0.2579345
vn -0.2410311 0.9446204 0.222702
vn -0.2441875 0.9417164 0.2313927
vn -0.2088394 0.95841 0.1945155
vn -0.2111499 0.9570708 0.1985728
vn -0.1918347 0.9643621 0.1822232
vn -0.1983802 0.9611633 0.1918598
vn -0.1953377 0.9619768 0.1909028
vn -0.2100944 0.9551147 0.208845
vn -0.2209088 0.9507203 0.2175554
vn -0.2511864 0.9359261 0.246876
vn -0.2853538 0.9211442 0.264701
vn -0.3123826 0.905629 0.286798
vn -0.3491796 0.8883437 0.2981933
vn -0.3571525 0.8834352 0.3032891
vn -0.3900715 0.8679535 0.3074104
vn -0.3919652 0.8668334 0.3081609
vn -0.4302079 0.8481716 0.3090729
vn -0.4344483 0.8455334 0.3103673
vn -0.4741032 0.8250225 0.3075126
vn -0.4814547 0.8201573 0.3091005
vn -0.5218952 0.7975545 0.302543
vn -0.5330154 0.789612 0.3039861
vn -0.5748624 0.7638484 0.2933748
vn -0.5825621 0.7578062 0.2938557
vn -0.6185187 0.7340128 0.2804633
vn -0.6197591 0.7329884 0.2804047
vn -0.6493331 0.7122501 0.2665831
vn -0.6491212 0.712433 0.2666096
vn -0.6750402 0.6933091 0.252276
vn -0.674652 0.6936594 0.2523513
vn -0.6985643 0.6751685 0.2369713
vn -0.6979148 0.6757793 0.2371436
vn -0.7213132 0.6568286 0.2197347
vn -0.720302 0.6578186 0.2200905
vn -0.7444008 0.6373117 0.1992517
vn -0.74287 0.6388739 0.1999609
vn -0.7674699 0.6167496 0.1749567
vn -0.7662632 0.6180594 0.1756227
vn -0.7883052 0.596863 0.1494312
vn -0.7879958 0.5972217 0.1496287
vn -0.8060197 0.5786347 0.1245557
vn -0.8060573 0.5785896 0.124522
vn -0.8219243 0.5609627 0.09879927
vn -0.8220312 0.5608242 0.09869607
vn -0.8368728 0.5428483 0.07042469
vn -0.8370731 0.5425689 0.07019678
vn -0.851409 0.5231788 0.03723767
vn -0.8517422 0.5226694 0.03676979
vn -0.8655884 0.5007408 -0.003902108
vn -0.8661102 0.4998294 -0.004864992
vn -0.8785608 0.4741021 -0.05794879
vn -0.878862 0.473461 -0.05861953
vn -0.8864504 0.4467161 -0.1210387
vn -0.8864835 0.4466274 -0.1211235
vn -0.8868439 0.4221073 -0.1879712
vn -0.8868505 0.4220795 -0.1880028
vn -0.8792373 0.4006257 -0.2577613
vn -0.8792379 0.4006318 -0.2577498
vn -0.863754 0.3834583 -0.3269382
vn -0.8637597 0.3834928 -0.326883
vn -0.8415436 0.3710832 -0.3925579
vn -0.8415608 0.3711323 -0.3924747
vn -0.8285015 0.3659175 -0.4238981
vn -0.8285387 0.365973 -0.4237775
g 07_0
f 3/3/3 2/2/2 1/1/1
f 2/2/2 3/3/3 4/4/4
f 5/5/5 4/4/4 3/3/3
f 4/4/4 5/5/5 6/6/6
f 7/7/7 6/6/6 5/5/5
f 6/6/6 7/7/7 8/8/8
f 9/9/9 8/8/8 7/7/7
f 8/8/8 9/9/9 10/10/10
f 11/11/11 10/10/10 9/9/9
f 10/10/10 11/11/11 12/12/12
f 13/13/13 12/12/12 11/11/11
f 12/12/12 13/13/13 14/14/14
f 15/15/15 14/14/14 13/13/13
f 14/14/14 15/15/15 16/16/16
f 17/17/17 16/16/16 15/15/15
f 16/16/16 17/17/17 18/18/18
f 19/19/19 18/18/18 17/17/17
f 18/18/18 19/19/19 20/20/20
f 21/21/21 20/20/20 19/19/19
f 20/20/20 21/21/21 22/22/22
f 23/23/23 22/22/22 21/21/21
f 22/22/22 23/23/23 24/24/24
f 25/25/25 24/24/24 23/23/23
f 24/24/24 25/25/25 26/26/26
f 27/27/27 26/26/26 25/25/25
f 26/26/26 27/27/27 28/28/28
f 29/29/29 28/28/28 27/27/27
f 28/28/28 29/29/29 30/30/30
f 31/31/31 30/30/30 29/29/29
f 30/30/30 31/31/31 32/32/32
f 33/33/33 32/32/32 31/31/31
f 32/32/32 33/33/33 34/34/34
f 35/35/35 34/34/34 33/33/33
f 34/34/34 35/35/35 36/36/36
f 37/37/37 36/36/36 35/35/35
f 36/36/36 37/37/37 38/38/38
f 39/39/39 38/38/38 37/37/37
f 38/38/38 39/39/39 40/40/40
f 41/41/41 40/40/40 39/39/39
f 40/40/40 41/41/41 42/42/42
f 43/43/43 42/42/42 41/41/41
f 42/42/42 43/43/43 44/44/44
f 45/45/45 44/44/44 43/43/43
f 44/44/44 45/45/45 46/46/46
f 47/47/47 46/46/46 45/45/45
f 46/46/46 47/47/47 48/48/48
f 49/49/49 48/48/48 47/47/47
f 48/48/48 49/49/49 50/50/50
f 51/51/51 50/50/50 49/49/49
f 50/50/50 51/51/51 52/52/52
f 53/53/53 52/52/52 51/51/51
f 52/52/52 53/53/53 54/54/54
f 55/55/55 54/54/54 53/53/53
f 54/54/54 55/55/55 56/56/56
f 57/57/57 56/56/56 55/55/55
f 56/56/56 57/57/57 58/58/58
f 59/59/59 58/58/58 57/57/57
f 58/58/58 59/59/59 60/60/60
f 61/61/61 60/60/60 59/59/59
f 60/60/60 61/61/61 62/62/62
f 63/63/63 62/62/62 61/61/61
f 62/62/62 63/63/63 64/64/64
f 65/65/65 64/64/64 63/63/63
f 64/64/64 65/65/65 66/66/66
f 67/67/67 66/66/66 65/65/65
f 66/66/66 67/67/67 68/68/68
f 69/69/69 68/68/68 67/67/67
f 68/68/68 69/69/69 70/70/70
f 71/71/71 70/70/70 69/69/69
f 70/70/70 71/71/71 72/72/72
f 73/73/73 72/72/72 71/71/71
f 72/72/72 73/73/73 74/74/74
f 75/75/75 74/74/74 73/73/73
f 74/74/74 75/75/75 76/76/76
f 77/77/77 76/76/76 75/75/75
f 76/76/76 77/77/77 78/78/78
f 79/79/79 78/78/78 77/77/77
f 78/78/78 79/79/79 80/80/80
f 81/81/81 80/80/80 79/79/79
f 80/80/80 81/81/81 82/82/82
f 83/83/83 82/82/82 81/81/81
f 82/82/82 83/83/83 84/84/84
f 85/85/85 84/84/84 83/83/83
f 84/84/84 85/85/85 86/86/86
f 87/87/87 86/86/86 85/85/85
f 86/86/86 87/87/87 88/88/88
f 89/89/89 88/88/88 87/87/87
f 88/88/88 89/89/89 90/90/90
f 91/91/91 90/90/90 89/89/89
f 90/90/90 91/91/91 92/92/92
f 93/93/93 92/92/92 91/91/91
f 92/92/92 93/93/93 94/94/94
f 95/95/95 94/94/94 93/93/93
f 94/94/94 95/95/95 96/96/96
f 97/97/97 96/96/96 95/95/95
f 96/96/96 97/97/97 98/98/98
f 99/99/99 98/98/98 97/97/97
f 98/98/98 99/99/99 100/100/100
f 101/101/101 100/100/100 99/99/99
f 100/100/100 101/101/101 102/102/102
f 103/103/103 102/102/102 101/101/101
f 102/102/102 103/103/103 104/104/104
f 105/105/105 104/104/104 103/103/103
f 104/104/104 105/105/105 106/106/106
f 107/107/107 106/106/106 105/105/105
f 106/106/106 107/107/107 108/108/108
f 109/109/109 108/108/108 107/107/107
f 108/108/108 109/109/109 110/110/110
f 111/111/111 110/110/110 109/109/109
f 110/110/110 111/111/111 112/112/112
f 113/113/113 112/112/112 111/111/111
f 112/112/112 113/113/113 114/114/114
f 115/115/115 114/114/114 113/113/113
f 114/114/114 115/115/115 116/116/116
f 117/117/117 116/116/116 115/115/115
f 116/116/116 117/117/117 118/118/118
f 119/119/119 118/118/118 117/117/117
f 118/118/118 119/119/119 120/120/120
f 121/121/121 120/120/120 119/119/119
f 120/120/120 121/121/121 122/122/122
