g 085
v 0.4597224 0.446794 0.1222294
v 0.4666318 0.4545161 0.2159927
v 0.3943337 0.7770523 -0.03949929
v 0.4869887 0.2831503 0.3496185
v 0.4580867 0.3040349 0.1671311
v 0.4803002 0.1697602 0.4389733
v 0.4428284 0.1925264 0.1958723
v 0.447303 0.0809804 0.497953
v 0.4187034 0.07986268 0.2364345
v 0.3586074 -0.0467305 0.2981223
v 0.3562225 -0.002828446 0.5344495
v 0.2223959 -0.02410848 0.4618941
v 0.2454855 -0.09366766 0.3054492
v 0.1344616 0.01072125 0.3115614
v 0.1539648 -0.06594671 0.2328968
v 0.09368387 0.03613582 0.2063612
v 0.1082455 -0.0385836 0.1544548
v 0.06637169 0.04940003 0.1243838
v 0.07377269 -0.0203655 0.08659172
v -0.0008843665 0.0001222124 0.001236819
v 0.4932133 0.3306442 0.1196995
v 0.4597224 0.446794 0.1222294
v 0.3943337 0.7770523 -0.03949929
v 0.509985 0.06396191 0.1795441
v 0.4580867 0.3040349 0.1671311
v 0.4864554 -0.1250609 0.211034
v 0.4428284 0.1925264 0.1958723
v 0.4187034 0.07986268 0.2364345
v 0.4363798 -0.23847 0.2480931
v 0.3586074 -0.0467305 0.2981223
v 0.3295411 -0.2901987 0.2982576
v 0.1919335 -0.2241082 0.290239
v 0.2454855 -0.09366766 0.3054492
v 0.1539648 -0.06594671 0.2328968
v 0.106624 -0.1472447 0.2073414
v 0.06909353 -0.1106746 0.1408656
v 0.1082455 -0.0385836 0.1544548
v 0.07377269 -0.0203655 0.08659172
v 0.04671997 -0.08479498 0.08730258
v -0.0008843665 0.0001222124 0.001236819
vt 0.5014863 0.8731471
vt 0.9375 1
vt 0.5021096 0.9783797
vt 0.9921875 0.9414063
vt 0.5012502 0.79974
vt 1 0.8125
vt 0.5009392 0.7066445
vt 1 0.6738281
vt 0.5009341 0.613654
vt 0.5009781 0.485508
vt 1 0.4980469
vt 1 0.3388672
vt 0.5013233 0.3398438
vt 1 0.21875
vt 0.5019948 0.21875
vt 1 0.1347656
vt 0.5024884 0.1328125
vt 1 0.06640625
vt 0.5028929 0.0625
vt 0.7846366 0
vt 0.9375 1
vt 0.5014863 0.8731471
vt 0.5021096 0.9783797
vt 0.9921875 0.9414063
vt 0.5012502 0.79974
vt 1 0.8125
vt 0.5009392 0.7066445
vt 0.5009341 0.613654
vt 1 0.6738281
vt 0.5009781 0.485508
vt 1 0.4980469
vt 1 0.3388672
vt 0.5013233 0.3398438
vt 0.5019948 0.21875
vt 1 0.21875
vt 1 0.1347656
vt 0.5024884 0.1328125
vt 0.5028929 0.0625
vt 1 0.06640625
vt 0.7846366 0
vn 0.9826964 0.1743054 0.06265283
vn 0.9925368 0.03815316 -0.1158237
vn 0.9805982 0.1959923 0.003759807
vn 0.9769671 -0.1411778 -0.160013
vn 0.9512921 0.05933953 0.3025263
vn 0.9453676 -0.2914283 -0.1461147
vn 0.8798054 -0.07157182 0.4699147
vn 0.8686661 -0.4933043 -0.04549671
vn 0.8638301 -0.1995352 0.4625834
vn 0.5807238 -0.4627973 0.6697601
vn 0.5871223 -0.7975054 0.138825
vn -0.08282311 -0.9431869 0.3217744
vn -0.3255457 -0.4903312 0.8084524
vn -0.729388 -0.6105163 0.3086473
vn -0.8077424 -0.1980702 0.555266
vn -0.8740935 -0.3908176 0.2884826
vn -0.8954742 -0.03860202 0.4434364
vn -0.8550703 -0.3450415 0.3870417
vn -0.8353398 -0.02581546 0.5491276
vn -0.7571335 -0.04342839 0.6518151
vn 0.7688453 0.2054597 0.6055272
vn 0.9826964 0.1743054 0.06265283
vn 0.9805982 0.1959923 0.003759807
vn 0.4696823 0.1263687 0.8737445
vn 0.9512921 0.05933953 0.3025263
vn 0.5637192 0.0929561 0.8207191
vn 0.8798054 -0.07157182 0.4699147
vn 0.8638301 -0.1995352 0.4625834
vn 0.557507 0.02414489 0.8298212
vn 0.5807238 -0.4627973 0.6697601
vn 0.2610699 -0.01907092 0.9651316
vn -0.2962856 0.04430133 0.9540714
vn -0.3255457 -0.4903312 0.8084524
vn -0.8077424 -0.1980702 0.555266
vn -0.6977804 0.2173227 0.6825491
vn -0.7843668 0.3140366 0.5349298
vn -0.8954742 -0.03860202 0.4434364
vn -0.8353398 -0.02581546 0.5491276
vn -0.7592518 0.3247296 0.5639923
vn -0.7571335 -0.04342839 0.6518151
g 085_0
f 3/3/3 2/2/2 1/1/1
f 1/1/1 2/2/2 4/4/4
f 5/5/5 1/1/1 4/4/4
f 5/5/5 4/4/4 6/6/6
f 7/7/7 5/5/5 6/6/6
f 7/7/7 6/6/6 8/8/8
f 9/9/9 7/7/7 8/8/8
f 9/9/9 8/8/8 10/10/10
f 8/8/8 11/11/11 10/10/10
f 10/10/10 11/11/11 12/12/12
f 13/13/13 10/10/10 12/12/12
f 13/13/13 12/12/12 14/14/14
f 15/15/15 13/13/13 14/14/14
f 15/15/15 14/14/14 16/16/16
f 17/17/17 15/15/15 16/16/16
f 17/17/17 16/16/16 18/18/18
f 19/19/19 17/17/17 18/18/18
f 18/18/18 20/20/20 19/19/19
f 23/23/23 22/22/22 21/21/21
f 21/21/21 22/22/22 24/24/24
f 22/22/22 25/25/25 24/24/24
f 26/26/26 24/24/24 25/25/25
f 27/27/27 26/26/26 25/25/25
f 26/26/26 27/27/27 28/28/28
f 29/29/29 26/26/26 28/28/28
f 28/28/28 30/30/30 29/29/29
f 30/30/30 31/31/31 29/29/29
f 31/31/31 30/30/30 32/32/32
f 30/30/30 33/33/33 32/32/32
f 32/32/32 33/33/33 34/34/34
f 35/35/35 32/32/32 34/34/34
f 36/36/36 35/35/35 34/34/34
f 37/37/37 36/36/36 34/34/34
f 37/37/37 38/38/38 36/36/36
f 38/38/38 39/39/39 36/36/36
f 38/38/38 40/40/40 39/39/39
