g 093
v 0.06463812 -0.5025468 0.7223438
v 0.04194782 -0.5358503 0.7393884
v 0.04084548 -0.5211121 0.7193516
v 0.08799846 -0.4712487 0.7017025
v 0.04070035 -0.5089055 0.6935881
v 0.1087941 -0.4445876 0.6795564
v 0.04156041 -0.4957953 0.6432986
v 0.1238217 -0.4278463 0.6576674
v 0.15609 -0.3756631 0.6376449
v 0.04105904 -0.4770592 0.566554
v 0.1783984 -0.3441239 0.6097592
v 0.1996384 -0.2898049 0.5514961
v 0.03779199 -0.4369723 0.4848265
v 0.03293576 -0.3793146 0.4143425
v 0.204802 -0.2397251 0.4820326
v 0.02450879 -0.2810837 0.3334782
v 0.1722873 -0.1791926 0.3774708
v 0.1258716 -0.1269268 0.2762227
v 0.0169527 -0.1944446 0.2496117
v 0.01212884 -0.1393082 0.1589622
v 0.09396143 -0.08525482 0.182593
v 0.06076207 -0.04240377 0.0798848
v 0.006284763 -0.07427956 0.05963522
v 0.0008412137 0.0004594408 -0.001127148
v 0.01526758 -0.5037342 0.7253247
v 0.04084548 -0.5211121 0.7193516
v 0.04194782 -0.5358503 0.7393884
v -0.007977434 -0.4798611 0.7062302
v 0.04070035 -0.5089055 0.6935881
v -0.04678364 -0.4463551 0.6661975
v 0.04156041 -0.4957953 0.6432986
v -0.07773662 -0.4087062 0.6470602
v 0.04105904 -0.4770592 0.566554
v -0.1056276 -0.3790573 0.615985
v -0.1188269 -0.3574361 0.5793669
v 0.03779199 -0.4369723 0.4848265
v -0.1308782 -0.3464404 0.5435404
v -0.1480996 -0.3124777 0.5206442
v 0.03293576 -0.3793146 0.4143425
v -0.1589058 -0.2747589 0.4813198
v -0.1411397 -0.2008649 0.3803177
v 0.02450879 -0.2810837 0.3334782
v -0.1078834 -0.1359973 0.28052
v 0.0169527 -0.1944446 0.2496117
v -0.08120061 -0.09438436 0.1831911
v 0.01212884 -0.1393082 0.1589622
v -0.05589766 -0.0500381 0.07931076
v 0.006284763 -0.07427956 0.05963522
v 0.0008412137 0.0004594408 -0.001127148
vt 0.8440346 0.9999632
vt 0.5022762 0.9997051
vt 0.5016188 0.9155225
vt 0.9375 1
vt 0.5014863 0.8731471
vt 0.9639069 0.9717069
vt 0.8116563 0.8884059
vt 0.9921875 0.9414063
vt 0.9960374 0.8778822
vt 0.816561 0.7735919
vt 1 0.8125
vt 1 0.6738281
vt 0.5009341 0.613654
vt 0.5009486 0.5257035
vt 1 0.546875
vt 0.5010716 0.4101563
vt 1 0.4121094
vt 1 0.3027344
vt 0.501511 0.3046875
vt 0.5022416 0.1757813
vt 1 0.1767578
vt 1 0.07275391
vt 0.5032142 0.0703125
vt 0.7732948 0
vt 0.8440346 0.9999632
vt 0.7266245 0.9677422
vt 0.5022762 0.9997051
vt 0.9375 1
vt 0.5014863 0.8731471
vt 0.9921875 0.9414063
vt 0.5012502 0.79974
vt 0.9955462 0.8859884
vt 0.5009392 0.7066445
vt 1 0.8125
vt 1 0.7491931
vt 0.5009341 0.613654
vt 1 0.6738281
vt 1 0.618371
vt 0.5009486 0.5257035
vt 1 0.546875
vt 1 0.4121094
vt 0.5010716 0.4101563
vt 1 0.3027344
vt 0.501511 0.3046875
vt 1 0.1767578
vt 0.5022416 0.1757813
vt 1 0.07275391
vt 0.5032142 0.0703125
vt 0.7732949 0
vn -0.6063539 0.6961221 0.3843814
vn 0.01739021 0.8058855 0.5918161
vn -0.008086544 0.8553458 0.5179943
vn -0.6239208 0.7214535 0.3003793
vn -0.05315736 0.9396736 0.3379169
vn -0.6451205 0.7459819 0.1653195
vn -0.08006691 0.9569947 0.2788376
vn -0.6811058 0.6946869 0.2313114
vn -0.7074596 0.6739612 0.2127842
vn -0.07949654 0.9279528 0.3641207
vn -0.7102931 0.64116 0.2905126
vn -0.6918641 0.600271 0.4012464
vn -0.08624 0.8529651 0.5147945
vn -0.07420122 0.7480769 0.6594507
vn -0.6458907 0.5587268 0.52024
vn -0.0537395 0.70179 0.710354
vn -0.5830496 0.5546005 0.593693
vn -0.5553479 0.6274998 0.5457405
vn -0.04741855 0.7785762 0.625756
vn -0.05694861 0.8409725 0.5380726
vn -0.565439 0.6779049 0.4698124
vn -0.5679542 0.6164584 0.5453504
vn -0.05940662 0.7458895 0.6634152
vn -0.0460163 0.6281353 0.7767422
vn 0.5618747 0.7485701 0.3520508
vn -0.008086544 0.8553458 0.5179943
vn 0.01739021 0.8058855 0.5918161
vn 0.535359 0.810994 0.2359649
vn -0.05315736 0.9396736 0.3379169
vn 0.5251084 0.7316658 0.4346566
vn -0.08006691 0.9569947 0.2788376
vn 0.5820394 0.7710682 0.2582323
vn -0.07949654 0.9279528 0.3641207
vn 0.5930426 0.7715943 0.2300927
vn 0.5477461 0.8156984 0.1860386
vn -0.08624 0.8529651 0.5147945
vn 0.5364882 0.7549694 0.3770962
vn 0.5409423 0.6645668 0.5154924
vn -0.07420122 0.7480769 0.6594507
vn 0.5257361 0.6430488 0.556857
vn 0.4914219 0.628306 0.6031053
vn -0.0537395 0.70179 0.710354
vn 0.473141 0.6985916 0.5367563
vn -0.04741855 0.7785762 0.625756
vn 0.4699154 0.7598453 0.4492379
vn -0.05694861 0.8409725 0.5380726
vn 0.4621667 0.7042714 0.5388912
vn -0.05940662 0.7458895 0.6634152
vn -0.0460163 0.6281353 0.7767422
g 093_0
f 3/3/3 2/2/2 1/1/1
f 1/1/1 4/4/4 3/3/3
f 4/4/4 5/5/5 3/3/3
f 4/4/4 6/6/6 5/5/5
f 7/7/7 5/5/5 6/6/6
f 7/7/7 6/6/6 8/8/8
f 8/8/8 9/9/9 7/7/7
f 9/9/9 10/10/10 7/7/7
f 10/10/10 9/9/9 11/11/11
f 11/11/11 12/12/12 10/10/10
f 12/12/12 13/13/13 10/10/10
f 14/14/14 13/13/13 12/12/12
f 15/15/15 14/14/14 12/12/12
f 16/16/16 14/14/14 15/15/15
f 17/17/17 16/16/16 15/15/15
f 17/17/17 18/18/18 16/16/16
f 18/18/18 19/19/19 16/16/16
f 20/20/20 19/19/19 18/18/18
f 21/21/21 20/20/20 18/18/18
f 21/21/21 22/22/22 20/20/20
f 22/22/22 23/23/23 20/20/20
f 22/22/22 24/24/24 23/23/23
f 27/27/27 26/26/26 25/25/25
f 25/25/25 26/26/26 28/28/28
f 26/26/26 29/29/29 28/28/28
f 28/28/28 29/29/29 30/30/30
f 29/29/29 31/31/31 30/30/30
f 30/30/30 31/31/31 32/32/32
f 31/31/31 33/33/33 32/32/32
f 34/34/34 32/32/32 33/33/33
f 34/34/34 33/33/33 35/35/35
f 33/33/33 36/36/36 35/35/35
f 37/37/37 35/35/35 36/36/36
f 36/36/36 38/38/38 37/37/37
f 36/36/36 39/39/39 38/38/38
f 40/40/40 38/38/38 39/39/39
f 40/40/40 39/39/39 41/41/41
f 39/39/39 42/42/42 41/41/41
f 43/43/43 41/41/41 42/42/42
f 44/44/44 43/43/43 42/42/42
f 45/45/45 43/43/43 44/44/44
f 46/46/46 45/45/45 44/44/44
f 45/45/45 46/46/46 47/47/47
f 46/46/46 48/48/48 47/47/47
f 48/48/48 49/49/49 47/47/47
