g 094
v 0.06933313 -6.937124E-06 0.03743099
v -0.0009593391 2.2167E-05 -0.00112999
v 0.05777822 0.07320613 0.05623089
v 0.1724252 -5.070554E-05 0.105268
v 0.1276715 0.1270498 0.1565951
v 0.2473759 -4.001281E-05 0.1409457
v 0.1964341 0.1723188 0.2318686
v 0.3293657 -0.0001150341 0.1645514
v 0.2958343 0.2063409 0.2825118
v 0.4095976 0.1996962 0.2999812
v 0.4268182 -9.38954E-05 0.1735439
v 0.5366598 -0.0001380621 0.1982487
v 0.5305129 0.1642538 0.2932386
v 0.6252193 -0.0001390691 0.2215926
v 0.6266338 0.0891255 0.2641919
v 0.6752195 -0.0001390953 0.2261616
v 0.6742881 0.02891596 0.2396078
v 0.694038 -0.003768112 0.2208422
v 0.05777086 -0.0734846 0.05625131
v -0.0009593391 2.2167E-05 -0.00112999
v 0.06933313 -6.937124E-06 0.03743099
v 0.1724252 -5.070554E-05 0.105268
v 0.1276636 -0.1273216 0.1566149
v 0.1964706 -0.1725896 0.2317594
v 0.2473759 -4.001281E-05 0.1409457
v 0.3293657 -0.0001150341 0.1645514
v 0.2958344 -0.2066194 0.2825117
v 0.4095978 -0.1999747 0.2999811
v 0.4268182 -9.38954E-05 0.1735439
v 0.5366598 -0.0001380621 0.1982487
v 0.530513 -0.1645321 0.2932386
v 0.6266338 -0.08940368 0.2641919
v 0.6252193 -0.0001390691 0.2215926
v 0.6752195 -0.0001390953 0.2261616
v 0.674288 -0.02919417 0.2396078
v 0.694038 -0.003768112 0.2208422
vt 0.5034374 0.05273438
vt 0.7846366 0
vt 1 0.05517578
vt 0.5019948 0.21875
vt 1 0.21875
vt 0.5013233 0.3398438
vt 1 0.3388672
vt 0.5010076 0.4453125
vt 1 0.4492188
vt 1 0.6103516
vt 0.5009413 0.5696788
vt 0.5009392 0.7066445
vt 1 0.8125
vt 0.5013683 0.8364435
vt 0.9648438 0.9707031
vt 0.501798 0.9257634
vt 0.7198048 0.9891899
vt 0.5021096 0.9783797
vt 1 0.05517578
vt 0.7846366 0
vt 0.5034374 0.05273438
vt 0.5019948 0.21875
vt 1 0.21875
vt 1 0.3388672
vt 0.5013233 0.3398438
vt 0.5010076 0.4453125
vt 1 0.4492188
vt 1 0.6103516
vt 0.5009413 0.5696788
vt 0.5009392 0.7066445
vt 1 0.8125
vt 0.9648438 0.9707031
vt 0.5013683 0.8364435
vt 0.501798 0.9257634
vt 0.7198048 0.9891899
vt 0.5021096 0.9783797
vn -0.5517989 -0.0003554365 0.8339772
vn -0.480962 -0.0001027535 0.8767413
vn -0.5395516 -0.3770245 0.7528191
vn -0.5563615 -0.0002940885 0.8309404
vn -0.4786106 -0.4667184 0.7437109
vn -0.3850561 -0.0004847401 0.922893
vn -0.3121608 -0.5066565 0.8036509
vn -0.2115564 1.404078E-05 0.9773657
vn -0.1773056 -0.5176525 0.8370176
vn -0.1322644 -0.5219669 0.8426487
vn -0.1567596 -0.0001638782 0.9876368
vn -0.1787663 3.54816E-05 0.9838915
vn -0.1518513 -0.5059317 0.8491021
vn -0.1395079 4.789737E-07 0.9902209
vn -0.1461501 -0.4627336 0.8743671
vn 0.09731854 -0.02838012 0.9948486
vn -0.03957489 -0.4255866 0.9040519
vn 0.2797996 0.04520873 0.9589933
vn -0.5397145 0.3764702 0.7529796
vn -0.480962 -0.0001027535 0.8767413
vn -0.5517989 -0.0003554365 0.8339772
vn -0.5563615 -0.0002940885 0.8309404
vn -0.4785981 0.4660838 0.7441168
vn -0.3122775 0.5061308 0.8039368
vn -0.3850561 -0.0004847401 0.922893
vn -0.2115564 1.404078E-05 0.9773657
vn -0.1774702 0.5173937 0.8371428
vn -0.132237 0.5218542 0.8427227
vn -0.1567596 -0.0001638782 0.9876368
vn -0.1787663 3.54816E-05 0.9838915
vn -0.1517077 0.5058684 0.8491655
vn -0.1461451 0.462731 0.8743693
vn -0.1395079 4.789737E-07 0.9902209
vn 0.09731854 -0.02838012 0.9948486
vn -0.00616125 0.4249046 0.9052172
vn 0.2797996 0.04520873 0.9589933
g 094_0
f 3/3/3 2/2/2 1/1/1
f 1/1/1 4/4/4 3/3/3
f 4/4/4 5/5/5 3/3/3
f 4/4/4 6/6/6 5/5/5
f 6/6/6 7/7/7 5/5/5
f 6/6/6 8/8/8 7/7/7
f 8/8/8 9/9/9 7/7/7
f 9/9/9 8/8/8 10/10/10
f 8/8/8 11/11/11 10/10/10
f 11/11/11 12/12/12 10/10/10
f 12/12/12 13/13/13 10/10/10
f 12/12/12 14/14/14 13/13/13
f 14/14/14 15/15/15 13/13/13
f 15/15/15 14/14/14 16/16/16
f 17/17/17 15/15/15 16/16/16
f 18/18/18 17/17/17 16/16/16
f 21/21/21 20/20/20 19/19/19
f 21/21/21 19/19/19 22/22/22
f 19/19/19 23/23/23 22/22/22
f 23/23/23 24/24/24 22/22/22
f 24/24/24 25/25/25 22/22/22
f 26/26/26 25/25/25 24/24/24
f 27/27/27 26/26/26 24/24/24
f 27/27/27 28/28/28 26/26/26
f 28/28/28 29/29/29 26/26/26
f 29/29/29 28/28/28 30/30/30
f 28/28/28 31/31/31 30/30/30
f 31/31/31 32/32/32 30/30/30
f 32/32/32 33/33/33 30/30/30
f 34/34/34 33/33/33 32/32/32
f 35/35/35 34/34/34 32/32/32
f 36/36/36 34/34/34 35/35/35
