g 1
v -0.383026 -0.0743206 0.6270835
v -0.4380928 -0.03501369 0.6424019
v -0.4135802 -0.03413007 0.6136298
v -0.3498041 -0.09722875 0.614231
v -0.3989722 -0.03356875 0.5922002
v -0.3057989 -0.1291291 0.5819982
v -0.3890575 -0.03338279 0.5441253
v -0.2897517 -0.13919 0.5636057
v -0.3828447 -0.03303469 0.4827379
v -0.2804381 -0.1474875 0.5280166
v -0.2534859 -0.1596555 0.5135307
v -0.3621537 -0.03100003 0.4127654
v -0.2274943 -0.1695819 0.4811356
v -0.2968435 -0.02499331 0.3327295
v -0.1796253 -0.158395 0.3903001
v -0.1117065 -0.1173745 0.2857608
v -0.1959361 -0.01614554 0.2489285
v -0.07335789 -0.08628549 0.1858046
v -0.1345903 -0.01109313 0.1605967
v -0.03594004 -0.05516213 0.08079464
v -0.06929861 -0.005697877 0.05895166
v 0.000844161 0.0004610118 -0.001125355
v -0.390694 0.01154459 0.6271922
v -0.4135802 -0.03413007 0.6136298
v -0.4380928 -0.03501369 0.6424019
v -0.3615511 0.03878837 0.6144955
v -0.3989722 -0.03356875 0.5922002
v -0.344536 0.0550396 0.6011048
v -0.3890575 -0.03338279 0.5441253
v -0.3316001 0.06699337 0.5771741
v -0.3026665 0.09427675 0.5663022
v -0.3828447 -0.03303469 0.4827379
v -0.2793219 0.1146282 0.5394184
v -0.2638046 0.1234501 0.5120528
v -0.3621537 -0.03100003 0.4127654
v -0.2497359 0.1304143 0.4797631
v -0.2968435 -0.02499331 0.3327295
v -0.2029386 0.1270386 0.3904148
v -0.1305287 0.09819274 0.2857623
v -0.1959361 -0.01614554 0.2489285
v -0.08782385 0.07387282 0.1870844
v -0.1345903 -0.01109313 0.1605967
v -0.06929861 -0.005697877 0.05895166
v -0.04554798 0.04933342 0.08171041
v 0.000844161 0.0004610118 -0.001125355
vt 0.8440346 0.9999632
vt 0.5022762 0.9997051
vt 0.5016188 0.9155225
vt 0.9375 1
vt 0.5014863 0.8731471
vt 0.9921875 0.9414063
vt 0.8116563 0.8884059
vt 0.9960327 0.8779611
vt 0.816561 0.7735919
vt 1 0.8125
vt 1 0.7479028
vt 0.8165526 0.6519407
vt 1 0.6738281
vt 0.5009781 0.485508
vt 1 0.4980469
vt 1 0.3388672
vt 0.5013233 0.3398438
vt 1 0.1925964
vt 0.5021636 0.1920166
vt 1 0.07671356
vt 0.5031948 0.07437134
vt 0.7732948 0
vt 0.8440346 0.9999632
vt 0.7266245 0.9677422
vt 0.5022762 0.9997051
vt 0.9375 1
vt 0.5014863 0.8731471
vt 0.9634371 0.9722102
vt 0.5012502 0.79974
vt 0.9921875 0.9414063
vt 0.9953752 0.8888103
vt 0.5009392 0.7066445
vt 1 0.8125
vt 1 0.7404612
vt 0.5009341 0.613654
vt 1 0.6738281
vt 0.5009781 0.485508
vt 1 0.4980469
vt 1 0.3388672
vt 0.5013233 0.3398438
vt 1 0.1925964
vt 0.5021636 0.1920166
vt 0.5031948 0.07437134
vt 1 0.07671356
vt 0.7732949 0
vn 0.617174 0.632308 0.4682764
vn 0.759129 0.05654355 0.6484797
vn 0.7839528 0.0758495 0.6161695
vn 0.695684 0.6664563 0.2680668
vn 0.9032134 0.08656926 0.4203704
vn 0.6958368 0.6832559 0.2212973
vn 0.9799256 0.08471943 0.1804672
vn 0.7214091 0.6841376 0.1073532
vn 0.9739784 0.07431271 0.2141115
vn 0.6477655 0.6992354 0.3024395
vn 0.6124243 0.7248728 0.3154298
vn 0.8940058 0.07205681 0.4422233
vn 0.5844055 0.7258683 0.362747
vn 0.7488121 0.06269623 0.6598103
vn 0.5172471 0.6847399 0.5134069
vn 0.5350837 0.6549544 0.5335917
vn 0.7403604 0.06324994 0.6692278
vn 0.6184402 0.6514199 0.4395269
vn 0.8339664 0.07337282 0.5469154
vn 0.5862287 0.6346619 0.5035279
vn 0.7556226 0.06699932 0.6515716
vn 0.6466048 0.05647663 0.7607316
vn 0.6994513 -0.508086 0.5026097
vn 0.7839528 0.0758495 0.6161695
vn 0.759129 0.05654355 0.6484797
vn 0.7625493 -0.5139579 0.3928942
vn 0.9032134 0.08656926 0.4203704
vn 0.8185558 -0.5293325 0.2230998
vn 0.9799256 0.08471943 0.1804672
vn 0.7456818 -0.5504575 0.3754399
vn 0.7655064 -0.6006035 0.2308145
vn 0.9739784 0.07431271 0.2141115
vn 0.7577518 -0.6149885 0.2181775
vn 0.7590796 -0.6154718 0.2121142
vn 0.8940058 0.07205681 0.4422233
vn 0.7197895 -0.6168409 0.3184501
vn 0.7488121 0.06269623 0.6598103
vn 0.6288552 -0.5880681 0.5086424
vn 0.6398249 -0.5535072 0.5331548
vn 0.7403604 0.06324994 0.6692278
vn 0.7206346 -0.5339521 0.4422452
vn 0.8339664 0.07337282 0.5469154
vn 0.7556226 0.06699932 0.6515716
vn 0.6881027 -0.5225596 0.5034343
vn 0.6466048 0.05647663 0.7607316
g 1_0
f 3/3/3 2/2/2 1/1/1
f 1/1/1 4/4/4 3/3/3
f 4/4/4 5/5/5 3/3/3
f 5/5/5 4/4/4 6/6/6
f 7/7/7 5/5/5 6/6/6
f 6/6/6 8/8/8 7/7/7
f 9/9/9 7/7/7 8/8/8
f 9/9/9 8/8/8 10/10/10
f 10/10/10 11/11/11 9/9/9
f 12/12/12 9/9/9 11/11/11
f 13/13/13 12/12/12 11/11/11
f 14/14/14 12/12/12 13/13/13
f 15/15/15 14/14/14 13/13/13
f 14/14/14 15/15/15 16/16/16
f 17/17/17 14/14/14 16/16/16
f 16/16/16 18/18/18 17/17/17
f 18/18/18 19/19/19 17/17/17
f 18/18/18 20/20/20 19/19/19
f 20/20/20 21/21/21 19/19/19
f 20/20/20 22/22/22 21/21/21
f 25/25/25 24/24/24 23/23/23
f 23/23/23 24/24/24 26/26/26
f 24/24/24 27/27/27 26/26/26
f 26/26/26 27/27/27 28/28/28
f 27/27/27 29/29/29 28/28/28
f 30/30/30 28/28/28 29/29/29
f 30/30/30 29/29/29 31/31/31
f 29/29/29 32/32/32 31/31/31
f 33/33/33 31/31/31 32/32/32
f 33/33/33 32/32/32 34/34/34
f 32/32/32 35/35/35 34/34/34
f 36/36/36 34/34/34 35/35/35
f 35/35/35 37/37/37 36/36/36
f 37/37/37 38/38/38 36/36/36
f 38/38/38 37/37/37 39/39/39
f 37/37/37 40/40/40 39/39/39
f 41/41/41 39/39/39 40/40/40
f 42/42/42 41/41/41 40/40/40
f 41/41/41 42/42/42 43/43/43
f 44/44/44 41/41/41 43/43/43
f 43/43/43 45/45/45 44/44/44
