g 102
v 0.0748813 3.597314E-05 0.07365862
v 0.00027066 0.0009216846 -0.001130022
v 0.06079539 0.07678604 0.08289751
v 0.1508749 3.779231E-05 0.140773
v 0.1116908 0.1151472 0.1709611
v 0.1678518 0.158159 0.2676269
v 0.2243969 3.740034E-05 0.1924625
v 0.3022633 3.754708E-05 0.2129461
v 0.2600335 0.1966692 0.3393044
v 0.3700651 0.2085159 0.3639857
v 0.3880474 3.717514E-05 0.2010716
v 0.4897633 0.177828 0.3160631
v 0.4987254 3.585293E-05 0.1705898
v 0.6014626 3.597256E-05 0.1250149
v 0.604515 0.1226356 0.205667
v 0.6549202 3.61845E-05 0.08031819
v 0.6573547 0.06775856 0.121593
v 0.6866224 3.619299E-05 0.04239455
v 0.6878397 0.02909128 0.0622957
v 0.7094309 -0.003592776 0.007826173
v 0.06016184 -0.07704008 0.1020817
v 0.00027066 0.0009216846 -0.001130022
v 0.0748813 3.597314E-05 0.07365862
v 0.1076575 -0.1168909 0.1948131
v 0.1508749 3.779231E-05 0.140773
v 0.2243969 3.740034E-05 0.1924625
v 0.1678518 -0.1580869 0.2828766
v 0.3022633 3.754708E-05 0.2129461
v 0.2600336 -0.1965973 0.3334505
v 0.3880474 3.717514E-05 0.2010716
v 0.3700653 -0.2084438 0.3263711
v 0.4897633 -0.177756 0.2548475
v 0.4987254 3.585293E-05 0.1705898
v 0.6014626 3.597256E-05 0.1250149
v 0.6045149 -0.1225633 0.1441927
v 0.6549202 3.61845E-05 0.08031819
v 0.6573544 -0.0676861 0.08273611
v 0.6878396 -0.02901893 0.04441217
v 0.6866224 3.619299E-05 0.04239455
v 0.7094309 -0.003592776 0.007826173
vt 0.6605303 0.03710938
vt 0.7846366 0
vt 1 0.03808594
vt 0.5022416 0.1757813
vt 1 0.1767578
vt 1 0.3027344
vt 0.501511 0.3046875
vt 0.5010716 0.4101563
vt 1 0.4121094
vt 1 0.546875
vt 0.5009486 0.5257035
vt 1 0.7431641
vt 0.5009366 0.6601492
vt 0.5012502 0.79974
vt 0.9921875 0.9414063
vt 0.5014863 0.8731471
vt 0.9375 1
vt 0.501798 0.9257634
vt 0.7198048 0.9891899
vt 0.5021096 0.9783797
vt 1 0.03808594
vt 0.7846366 0
vt 0.5035385 0.03515625
vt 1 0.1767578
vt 0.5022416 0.1757813
vt 0.501511 0.3046875
vt 1 0.3027344
vt 0.5010716 0.4101563
vt 1 0.4121094
vt 0.5009486 0.5257035
vt 1 0.546875
vt 1 0.7431641
vt 0.5009366 0.6601492
vt 0.5012502 0.79974
vt 0.9921875 0.9414063
vt 0.5014863 0.8731471
vt 0.9375 1
vt 0.7198048 0.9891899
vt 0.501798 0.9257634
vt 0.5021096 0.9783797
vn -0.7156618 0.07533747 0.6943719
vn -0.7055915 0.07361996 0.7047841
vn -0.6931547 -0.2870241 0.661176
vn -0.6887307 0.05611711 0.7228422
vn -0.6347132 -0.4114769 0.654084
vn -0.4171099 -0.5138143 0.749676
vn -0.4819742 0.02576325 0.8758065
vn -0.1133324 -0.02435183 0.9932587
vn -0.1381431 -0.568371 0.8110923
vn 0.06952552 -0.5957599 0.8001477
vn 0.1906687 -0.07888941 0.9784793
vn 0.2430365 -0.5923121 0.7681794
vn 0.4155104 -0.1333141 0.8997658
vn 0.5908974 -0.1704731 0.7885298
vn 0.4361141 -0.5289069 0.7280536
vn 0.7073246 -0.1802631 0.6835182
vn 0.6068268 -0.441231 0.6611174
vn 0.7837151 -0.1803229 0.5943686
vn 0.6987145 -0.4048237 0.5898438
vn 0.8211841 -0.130551 0.5555295
vn -0.6500803 0.4303007 0.6262882
vn -0.7055915 0.07361996 0.7047841
vn -0.7156618 0.07533747 0.6943719
vn -0.5676826 0.5102525 0.6460487
vn -0.6887307 0.05611711 0.7228422
vn -0.4819742 0.02576325 0.8758065
vn -0.3325113 0.5482379 0.7673796
vn -0.1133324 -0.02435183 0.9932587
vn -0.03573493 0.5283163 0.8482953
vn 0.1906687 -0.07888941 0.9784793
vn 0.1946169 0.4788058 0.8560778
vn 0.3804716 0.3867658 0.8400319
vn 0.4155104 -0.1333141 0.8997658
vn 0.5908974 -0.1704731 0.7885298
vn 0.5684659 0.2199409 0.7927627
vn 0.7073246 -0.1802631 0.6835182
vn 0.7013849 0.0895744 0.707132
vn 0.7838485 0.06287696 0.6177605
vn 0.7837151 -0.1803229 0.5943686
vn 0.8211841 -0.130551 0.5555295
g 102_0
f 3/3/3 2/2/2 1/1/1
f 3/3/3 1/1/1 4/4/4
f 5/5/5 3/3/3 4/4/4
f 5/5/5 4/4/4 6/6/6
f 4/4/4 7/7/7 6/6/6
f 7/7/7 8/8/8 6/6/6
f 8/8/8 9/9/9 6/6/6
f 9/9/9 8/8/8 10/10/10
f 8/8/8 11/11/11 10/10/10
f 12/12/12 10/10/10 11/11/11
f 13/13/13 12/12/12 11/11/11
f 13/13/13 14/14/14 12/12/12
f 14/14/14 15/15/15 12/12/12
f 14/14/14 16/16/16 15/15/15
f 16/16/16 17/17/17 15/15/15
f 17/17/17 16/16/16 18/18/18
f 19/19/19 17/17/17 18/18/18
f 20/20/20 19/19/19 18/18/18
f 23/23/23 22/22/22 21/21/21
f 23/23/23 21/21/21 24/24/24
f 25/25/25 23/23/23 24/24/24
f 25/25/25 24/24/24 26/26/26
f 24/24/24 27/27/27 26/26/26
f 26/26/26 27/27/27 28/28/28
f 27/27/27 29/29/29 28/28/28
f 28/28/28 29/29/29 30/30/30
f 29/29/29 31/31/31 30/30/30
f 30/30/30 31/31/31 32/32/32
f 33/33/33 30/30/30 32/32/32
f 33/33/33 32/32/32 34/34/34
f 32/32/32 35/35/35 34/34/34
f 36/36/36 34/34/34 35/35/35
f 37/37/37 36/36/36 35/35/35
f 37/37/37 38/38/38 36/36/36
f 38/38/38 39/39/39 36/36/36
f 40/40/40 39/39/39 38/38/38
