g A1
v -0.1887576 0.135833 0.06513815
v -0.2906359 -0.1037567 -0.1315531
v -0.221602 0.0919098 0.02729288
v -0.0455003 -0.1886265 -0.1266021
v -0.0645382 0.1593256 0.1185322
v -0.1285901 0.2077582 0.09147942
v 0.1276071 0.05190429 0.09006052
v 0.1031116 0.1806429 0.1791762
v -1.140902 0.8048887 -0.02120065
v -1.012319 0.9848942 0.04817749
v -0.8438048 1.004842 0.09880536
v -1.011164 0.6392995 -0.01583881
v -0.8011549 0.8697511 0.08566251
v -0.798726 0.7490636 0.06397121
v -0.8666244 0.620333 0.02105195
v 0.6404215 -0.268998 0.03660202
v 0.9154432 -0.2684372 0.01114945
v 0.7938849 -0.3173657 0.003365429
v 0.6254891 -0.1040474 0.102491
v 0.871051 -0.1326364 0.06839092
v 0.8131505 -0.03728103 0.1110792
v 0.6003703 0.09361816 0.1779267
v 1.445819 -0.0275459 0.01444754
v 0.8888097 0.1928448 0.1687668
v 1.074469 0.2478601 0.2072889
v 0.9458264 0.02986641 0.05464808
v 1.226803 -0.2847413 -0.1656426
v 1.827487 0.2094871 -0.001721562
v 1.870637 0.4156631 0.04857833
v 1.92767 0.3087755 0.009237609
v 1.659426 0.204868 0.02506385
v 1.738411 0.4421429 0.07805186
v 1.398055 0.3829771 0.1184036
v 1.64515 0.5278008 0.1175229
v 1.514229 0.4965309 0.1306706
v 1.486469 0.2029809 0.05342905
v 1.453425 0.2409152 0.06952979
v -0.625445 0.1879092 -0.09307468
v -0.3134275 0.2710664 0.09767723
v -0.3866335 0.1714403 0.007571864
v -0.3178365 0.2733624 0.09694663
v -0.5183476 0.4906691 0.1276247
v -0.403883 0.4069006 0.1329152
v -0.6930148 0.4946326 0.04943664
v -0.674975 0.232757 -0.09049556
v -0.6030813 0.5685869 0.1327128
v 0.3949775 0.1153661 0.1784829
v 0.4935497 0.0332718 0.1475776
v 0.2371016 -0.06400742 0.1135685
v 0.5104955 -0.07269179 0.1088938
v 0.1485318 -0.3252089 0.01805194
v 0.5305429 -0.2012194 0.06144841
v 0.334172 -0.4251534 -0.0200325
v 0.5510373 -0.3214389 0.0166218
v -0.0008307617 -0.1887275 -0.244638
v -0.2906359 -0.1037567 -0.1315531
v -0.0455003 -0.1886265 -0.1266021
v -0.330619 -0.04466721 -0.2443095
v 0.1276071 0.05190429 0.09006052
v -0.0008307617 -0.1887275 -0.244638
v -0.0455003 -0.1886265 -0.1266021
v 0.2170525 0.08097972 -0.005943311
v 0.1031116 0.1806429 0.1791762
v 0.2140265 0.2538246 0.1060334
v -0.0645382 0.1593256 0.1185322
v 0.2140265 0.2538246 0.1060334
v 0.1031116 0.1806429 0.1791762
v -0.01008985 0.2525857 0.04082396
v -0.1285901 0.2077582 0.09147942
v -0.1173038 0.2771397 0.02604643
v -0.1887576 0.135833 0.06513815
v -0.1173038 0.2771397 0.02604643
v -0.1285901 0.2077582 0.09147942
v -0.1836591 0.2350316 -0.01999192
v -0.2906359 -0.1037567 -0.1315531
v -0.2308609 0.1892761 -0.06290776
v -0.221602 0.0919098 0.02729288
v -0.330619 -0.04466721 -0.2443095
v -0.221602 0.0919098 0.02729288
v -0.1836591 0.2350316 -0.01999192
v -0.1887576 0.135833 0.06513815
v -0.2308609 0.1892761 -0.06290776
v -1.011164 0.6392995 -0.01583881
v -1.151116 0.8224919 -0.109246
v -1.140902 0.8048887 -0.02120065
v -1.002715 0.6406665 -0.1185838
v -0.7647566 0.9008458 -0.02053389
v -0.8438048 1.004842 0.09880536
v -0.8139357 1.050353 0.0007196246
v -0.8011549 0.8697511 0.08566251
v -0.7614354 0.7666407 -0.04728745
v -0.798726 0.7490636 0.06397121
v -0.8381302 0.6222201 -0.09130251
v -0.8666244 0.620333 0.02105195
v -1.012319 0.9848942 0.04817749
v -0.8139357 1.050353 0.0007196246
v -0.8438048 1.004842 0.09880536
v -1.005622 1.025097 -0.0403939
v -1.140902 0.8048887 -0.02120065
v -1.005622 1.025097 -0.0403939
v -1.012319 0.9848942 0.04817749
v -1.151116 0.8224919 -0.109246
v -0.8666244 0.620333 0.02105195
v -1.002715 0.6406665 -0.1185838
v -1.011164 0.6392995 -0.01583881
v -0.8381302 0.6222201 -0.09130251
v 0.8244799 0.02824775 0.05925591
v 0.6003703 0.09361816 0.1779267
v 0.5763085 0.1712696 0.1473476
v 0.8131505 -0.03728103 0.1110792
v 0.8956612 -0.08168794 -0.008453337
v 0.871051 -0.1326364 0.06839092
v 0.9498962 -0.2373696 -0.1028612
v 0.9154432 -0.2684372 0.01114945
v 0.6254891 -0.1040474 0.102491
v 0.5763085 0.1712696 0.1473476
v 0.6003703 0.09361816 0.1779267
v 0.5917295 -0.04344163 0.02395222
v 0.6404215 -0.268998 0.03660202
v 0.6093248 -0.2316382 -0.08865268
v 0.7938849 -0.3173657 0.003365429
v 0.6093248 -0.2316382 -0.08865268
v 0.6404215 -0.268998 0.03660202
v 0.7991008 -0.2902754 -0.1295796
v 0.9154432 -0.2684372 0.01114945
v 0.9498962 -0.2373696 -0.1028612
v 0.2371016 -0.06400742 0.1135685
v 0.3954421 0.194262 0.1233388
v 0.3949775 0.1153661 0.1784829
v 0.2086936 -0.01818188 0.04645486
v 0.1485318 -0.3252089 0.01805194
v 0.103818 -0.3272538 -0.06656659
v 0.5122287 0.09686121 0.08667259
v 0.3949775 0.1153661 0.1784829
v 0.3954421 0.194262 0.1233388
v 0.4935497 0.0332718 0.1475776
v 0.5323545 -0.02854783 0.04088954
v 0.5104955 -0.07269179 0.1088938
v 0.555962 -0.1803962 -0.01516423
v 0.5305429 -0.2012194 0.06144841
v 0.5800007 -0.3224968 -0.06814858
v 0.5510373 -0.3214389 0.0166218
v 0.5510373 -0.3214389 0.0166218
v 0.3234892 -0.4454451 -0.111605
v 0.334172 -0.4251534 -0.0200325
v 0.5800007 -0.3224968 -0.06814858
v 0.334172 -0.4251534 -0.0200325
v 0.103818 -0.3272538 -0.06656659
v 0.1485318 -0.3252089 0.01805194
v 0.3234892 -0.4454451 -0.111605
v 0.8814538 0.3023301 0.06346149
v 0.9458264 0.02986641 0.05464808
v 0.918101 0.1128015 -0.06924784
v 0.8888097 0.1928448 0.1687668
v 1.226803 -0.2847413 -0.1656426
v 1.086029 0.3639793 0.1066287
v 1.229623 -0.2254948 -0.3061255
v 1.074469 0.2478601 0.2072889
v 1.445819 -0.0275459 0.01444754
v 1.470033 0.0463327 -0.1157898
v 1.738411 0.4421429 0.07805186
v 1.906417 0.4383075 -0.003032818
v 1.870637 0.4156631 0.04857833
v 1.749565 0.4724497 0.01931132
v 1.974888 0.3099338 -0.03768688
v 1.64515 0.5278008 0.1175229
v 1.92767 0.3087755 0.009237609
v 1.638362 0.5762687 0.05262302
v 1.857066 0.1937222 -0.05203268
v 1.514229 0.4965309 0.1306706
v 1.827487 0.2094871 -0.001721562
v 1.483548 0.5416381 0.05968241
v 1.65803 0.1915539 -0.03366252
v 1.398055 0.3829771 0.1184036
v 1.659426 0.204868 0.02506385
v 1.346906 0.4087608 0.04346139
v 1.453173 0.1927343 -0.01400626
v 1.453425 0.2409152 0.06952979
v 1.486469 0.2029809 0.05342905
v 1.413706 0.2385479 -0.0002158296
v -0.7221358 0.580725 -0.01857121
v -0.674975 0.232757 -0.09049556
v -0.698351 0.2354527 -0.2030661
v -0.6930148 0.4946326 0.04943664
v -0.625445 0.1879092 -0.09307468
v -0.6035621 0.6782307 0.09122504
v -0.6330484 0.1763227 -0.2064667
v -0.6030813 0.5685869 0.1327128
v -0.3866335 0.1714403 0.007571864
v -0.4918442 0.5754992 0.08451651
v -0.3181849 0.1546093 -0.0737683
v -0.5183476 0.4906691 0.1276247
v -0.3134275 0.2710664 0.09767723
v -0.3409275 0.4650539 0.09149182
v -0.2216655 0.285962 0.04503198
v -0.403883 0.4069006 0.1329152
v -0.3178365 0.2733624 0.09694663
v -0.2274786 0.2889891 0.04406872
vt 0.7715788 0.3
vt 0.567305 0.384595
vt 0.7276362 0.3260408
vt 0.6387829 0.2
vt 0.7971889 0.2
vt 0.8501778 0.3
vt 0.6773515 0.1465769
vt 0.7586341 0.1
vt 0.6350908 0.9000001
vt 0.7761887 0.9372594
vt 0.8140512 0.9000001
vt 0.6585429 0.8698214
vt 0.7504476 0.8709295
vt 0.7002761 0.8479983
vt 0.5952607 0.8000001
vt 0.1917887 1.379649
vt 0.4430377 0.9379343
vt 0.3800786 1.096525
vt 0.4334377 0.77823
vt 0.374136 0.9263741
vt 0.3239606 0.8697569
vt 0.3955204 0.7214445
vt 0.4967217 0.3
vt 0.5620292 0.2776857
vt 0.5501752 0.2413865
vt 0.5636038 0.3
vt 0.4968786 0.332045
vt 0.8959951 0.2697585
vt 0.8379507 0.4491185
vt 0.9082219 0.4034016
vt 0.7890846 0.2037929
vt 0.7474576 0.449418
vt 0.6580513 0.242157
vt 0.6482687 0.34344
vt 1.237024 0.6427772
vt 0.7466697 0.1145863
vt 0.6952162 0.06600198
vt 0.2391721 0.05427026
vt 0.4387091 0.418023
vt 0.3759039 0.1250719
vt 0.4349038 0.4191553
vt 0.2536814 0.5586215
vt 0.3699104 0.4998269
vt 0.09800389 0.4150831
vt 0.1323126 0.143812
vt 0.1683092 0.5845386
vt 0.5405281 0.5
vt 0.5204152 0.4771378
vt 0.4778116 0.5
vt 0.5063034 0.4610969
vt 0.3580828 0.5
vt 0.4984952 0.4306251
vt 0.4287025 0.4
vt 0.4966926 0.4
vt 0.6387829 0.2
vt 0.5647699 0.3857909
vt 0.6387829 0.2
vt 0.5557935 0.408324
vt 0.6773515 0.1465769
vt 0.6387829 0.2
vt 0.6387829 0.2
vt 0.6773515 0.1465769
vt 0.7586341 0.1
vt 0.7586341 0.1
vt 0.7971889 0.2
vt 0.7586341 0.1
vt 0.7586341 0.1
vt 0.7971889 0.2
vt 0.8501778 0.3
vt 0.8501778 0.3
vt 0.7715788 0.3
vt 0.8501778 0.3
vt 0.8501778 0.3
vt 0.7715788 0.3
vt 0.8803048 0.5888702
vt 0.9102719 0.780519
vt 0.9102719 0.780519
vt 0.8803048 0.5888702
vt 0.9102719 0.780519
vt 0.9412301 0.7803792
vt 0.9412301 0.7803792
vt 0.9102719 0.780519
vt 0.6585429 0.8698214
vt 0.6350908 0.9000001
vt 0.6350908 0.9000001
vt 0.6585429 0.8698214
vt 0.7504476 0.8709295
vt 0.8140512 0.9000001
vt 0.8140512 0.9000001
vt 0.7504476 0.8709295
vt 0.7002761 0.8479983
vt 0.7002761 0.8479983
vt 0.5952607 0.8000001
vt 0.5952607 0.8000001
vt 0.7761887 0.9372594
vt 0.8140512 0.9000001
vt 0.8140512 0.9000001
vt 0.7761887 0.9372594
vt 0.6350908 0.9000001
vt 0.7761887 0.9372594
vt 0.7761887 0.9372594
vt 0.6350908 0.9000001
vt 0.5952607 0.8000001
vt 0.6585429 0.8698214
vt 0.6585429 0.8698214
vt 0.5952607 0.8000001
vt 0.3239606 0.8697569
vt 0.3955204 0.7214445
vt 0.3955204 0.7214445
vt 0.3239606 0.8697569
vt 0.374136 0.9263741
vt 0.374136 0.9263741
vt 0.4430377 0.9379343
vt 0.4430377 0.9379343
vt 0.4334377 0.77823
vt 0.3955204 0.7214445
vt 0.3955204 0.7214445
vt 0.4334377 0.77823
vt 0.1917887 1.379649
vt 0.1917887 1.379649
vt 0.3800786 1.096525
vt 0.1917887 1.379649
vt 0.1917887 1.379649
vt 0.3800786 1.096525
vt 0.4430377 0.9379343
vt 0.4430377 0.9379343
vt 0.4778116 0.5
vt 0.5405281 0.5
vt 0.5405281 0.5
vt 0.4778116 0.5
vt 0.3580828 0.5
vt 0.3580828 0.5
vt 0.5204152 0.4771378
vt 0.5405281 0.5
vt 0.5405281 0.5
vt 0.5204152 0.4771378
vt 0.5063034 0.4610969
vt 0.5063034 0.4610969
vt 0.4984952 0.4306251
vt 0.4984952 0.4306251
vt 0.4966926 0.4
vt 0.4966926 0.4
vt 0.4966926 0.4
vt 0.4287025 0.4
vt 0.4287025 0.4
vt 0.4966926 0.4
vt 0.4287025 0.4
vt 0.3580828 0.5
vt 0.3580828 0.5
vt 0.4287025 0.4
vt 0.5620292 0.2776857
vt 0.5636038 0.3
vt 0.5636038 0.3
vt 0.5620292 0.2776857
vt 0.4968786 0.332045
vt 0.5501752 0.2413865
vt 0.4968786 0.332045
vt 0.5501752 0.2413865
vt 0.4967217 0.3
vt 0.4967217 0.3
vt 0.7474576 0.449418
vt 0.8379507 0.4491185
vt 0.8379507 0.4491185
vt 0.7474576 0.449418
vt 0.9082219 0.4034016
vt 0.6482687 0.34344
vt 0.9082219 0.4034016
vt 0.6482687 0.34344
vt 0.8959951 0.2697585
vt 1.237024 0.6427772
vt 0.8959951 0.2697585
vt 0.6197091 0.2817965
vt 0.7890846 0.2037929
vt 0.6580513 0.242157
vt 0.7890846 0.2037929
vt 0.6580513 0.242157
vt 0.7466697 0.1145863
vt 0.6952162 0.06600198
vt 0.7466697 0.1145863
vt 0.6952162 0.06600198
vt 0.09800389 0.4150831
vt 0.1323126 0.143812
vt 0.1323126 0.143812
vt 0.09800389 0.4150831
vt 0.2391721 0.05427026
vt 0.1683092 0.5845386
vt 0.2391721 0.05427026
vt 0.1683092 0.5845386
vt 0.3759039 0.1250719
vt 0.2536814 0.5586215
vt 0.3759039 0.1250719
vt 0.2536814 0.5586215
vt 0.4387091 0.418023
vt 0.3699104 0.4998269
vt 0.4387091 0.418023
vt 0.3699104 0.4998269
vt 0.4349038 0.4191553
vt 0.4349038 0.4191553
vn -0.3499982 -0.6074901 0.7130617
vn -0.2672105 -0.7132287 0.6479996
vn -0.1270298 -0.7593177 0.6382007
vn -0.2717925 -0.7139083 0.6453402
vn -0.3456684 -0.6143733 0.7092664
vn -0.5599862 -0.01010874 0.8284402
vn -0.2613071 -0.7223139 0.6402978
vn -0.2665324 -0.7279814 0.6316674
vn -0.3891162 -0.254833 0.8852394
vn -0.3891017 -0.2571123 0.8845864
vn -0.3891162 -0.254833 0.8852394
vn -0.3898785 -0.2548325 0.884904
vn -0.3913957 -0.2540639 0.8844551
vn -0.3913792 -0.2540532 0.8844655
vn -0.3891112 -0.2552112 0.8851326
vn 0.1251197 -0.514402 0.8483723
vn 0.1243572 -0.5144041 0.8484831
vn 0.1243576 -0.5144054 0.8484823
vn 0.1209268 -0.5063095 0.853831
vn 0.1243585 -0.5144094 0.8484797
vn 0.1213084 -0.507502 0.8530686
vn 0.1171124 -0.4949622 0.8609862
vn 0 -0.7355667 0.6774523
vn 0 -0.7356877 0.677321
vn 0 -0.735505 0.6775192
vn 0 -0.7355726 0.6774459
vn 0 -0.7356877 0.677321
vn 0.2349788 -0.3860367 0.8920541
vn 0.2349859 -0.3856668 0.8922122
vn 0.2349788 -0.3860367 0.8920541
vn 0.2349809 -0.3856587 0.8922171
vn 0.2349813 -0.3860407 0.8920517
vn 0.2349813 -0.3860407 0.8920517
vn 0.2349759 -0.3856505 0.8922219
vn 0.2349759 -0.3856505 0.8922219
vn 0.2349813 -0.3860407 0.8920517
vn 0.2349859 -0.3856668 0.8922122
vn -0.4791485 -0.5790983 0.6595922
vn -0.4795255 -0.5789021 0.6594905
vn -0.479874 -0.5786716 0.6594393
vn -0.4795255 -0.5789021 0.6594905
vn -0.4798721 -0.5786693 0.6594427
vn -0.4794879 -0.578666 0.659725
vn -0.4791488 -0.5787171 0.6599264
vn -0.4791184 -0.5790619 0.659646
vn -0.4794879 -0.578666 0.659725
vn 0.009537312 -0.4956541 0.8684676
vn 0.00877404 -0.4935398 0.869679
vn 0.008011061 -0.4947307 0.8690093
vn 0.007629227 -0.4938017 0.869541
vn 0.008201422 -0.4962814 0.868123
vn 0.009155148 -0.4968575 0.867784
vn 0.00915532 -0.4970576 0.8676692
vn 0.01144384 -0.499333 0.8663346
vn -0.3536767 -0.9269614 -0.1251207
vn -0.3818417 -0.9063495 -0.1809075
vn -0.329011 -0.9410667 -0.07839043
vn -0.3971114 -0.8928808 -0.2122887
vn 0.7803832 -0.5170767 0.3516159
vn 0.6614756 -0.728781 0.1769979
vn 0.6825312 -0.7121899 0.1641241
vn 0.7108794 -0.6286715 0.3153132
vn 0.7994458 -0.398054 0.4499326
vn 0.7716859 -0.4442057 0.4551726
vn -0.08292536 0.8309702 0.5501017
vn -0.2725534 0.8722091 0.4061599
vn -0.291437 0.9067352 0.3047881
vn -0.08775325 0.8182833 0.5680774
vn 0.1146272 0.7800753 0.615096
vn 0.06751955 0.8201528 0.5681465
vn -0.7877849 0.5277014 0.317689
vn -0.7787827 0.5306327 0.3345543
vn -0.8134265 0.5176784 0.2652291
vn -0.7564427 0.5363382 0.3743471
vn -0.9672589 0.1110126 0.2282243
vn -0.9741755 0.1276138 0.1862703
vn -0.9774869 0.1379925 0.1596165
vn -0.9626738 0.1018359 0.2507758
vn -0.8918243 0.3675247 0.263771
vn -0.8735816 0.382049 0.3014858
vn -0.9055469 0.3549332 0.2323944
vn -0.8588893 0.392537 0.3289739
vn -0.7843166 -0.619137 -0.03894641
vn -0.788057 -0.6148828 -0.0297524
vn -0.7912357 -0.6111667 -0.02052959
vn -0.7812294 -0.6225423 -0.04606126
vn 0.9673809 0.1045199 0.2307591
vn 0.9351568 0.2486632 0.2522864
vn 0.9352438 0.2463979 0.254179
vn 0.9674327 0.1060514 0.2298415
vn 0.9392816 -0.2983421 0.1695342
vn 0.9483026 -0.2647313 0.1750412
vn 0.851715 -0.5075184 0.1304093
vn 0.8509169 -0.5086422 0.1312387
vn -0.2204806 0.9414293 0.2551453
vn -0.2227281 0.9427806 0.2481065
vn -0.2265483 0.9443325 0.2385622
vn -0.2158826 0.9398142 0.2648472
vn -0.8423325 0.5241688 0.1253914
vn -0.8433379 0.5243196 0.1177716
vn -0.8439994 0.5242563 0.1132264
vn -0.8410767 0.5251005 0.1298441
vn -0.1136682 -0.9932618 -0.02260014
vn -0.1167703 -0.992929 -0.02136972
vn -0.1258986 -0.9919281 -0.01510544
vn -0.1068289 -0.9938899 -0.02775643
vn 0.7874815 0.4174911 0.4534027
vn 0.6283091 0.5398041 0.5602136
vn 0.6297715 0.535363 0.5628272
vn 0.7958014 0.4185015 0.4376717
vn 0.9428959 0.1843262 0.277437
vn 0.9333625 0.2282846 0.2769847
vn 0.9638857 0.1427131 0.2248494
vn 0.9620481 0.1691786 0.2141077
vn -0.966373 -0.1989592 0.1629062
vn -0.966607 -0.2077022 0.1501025
vn -0.9677173 -0.2064553 0.1445664
vn -0.9677636 -0.2010293 0.1517256
vn -0.9719794 -0.1947392 0.131654
vn -0.9737192 -0.196422 0.1152787
vn -0.003051786 -0.9916399 -0.1290006
vn -0.3398738 -0.9316967 -0.1281679
vn -0.3410039 -0.9316576 -0.125421
vn 0.03357222 -0.9917156 -0.1239883
vn 0.3723104 -0.9223837 -0.1029242
vn 0.3585797 -0.9286833 -0.09469938
vn -0.8779394 0.3041699 0.369734
vn -0.7908611 0.4520841 0.4125029
vn -0.7907055 0.4519952 0.4128986
vn -0.8844197 0.2905668 0.3652022
vn -0.9401233 0.1358019 0.3126115
vn -0.9400635 0.1361886 0.3126233
vn 0.8697329 0.3139431 0.3807943
vn 0.6920174 0.529027 0.4911644
vn 0.6923257 0.5284944 0.4913033
vn 0.8956262 0.2682253 0.3548366
vn 0.9768262 0.030943 0.2117855
vn 0.9768276 0.03089537 0.2117858
vn 0.9767267 0.03510111 0.2115963
vn 0.9768787 0.03394854 0.2110817
vn 0.9764923 0.04081433 0.2116528
vn 0.9765952 0.04120011 0.2111029
vn 0.4146169 -0.9047574 0.09750362
vn 0.414731 -0.9046248 0.09824584
vn 0.4139355 -0.9049354 0.09873886
vn 0.4150893 -0.9045743 0.09719118
vn -0.4344964 -0.8865405 0.1589307
vn -0.4342543 -0.8866305 0.1590899
vn -0.4343202 -0.8865702 0.159246
vn -0.4337336 -0.8869224 0.1588831
vn -0.9088952 0.3031558 0.2863669
vn -0.9179835 -0.390577 -0.06896322
vn -0.9045981 -0.4222665 -0.05825352
vn -0.9040105 0.3343313 0.2664352
vn 0.009918869 -0.9663267 -0.2571276
vn 0.2693609 0.7642066 0.5860316
vn 0.0175475 -0.9668292 -0.2548203
vn 0.2205051 0.7862649 0.5772046
vn 0.9785407 0.1319064 0.1582997
vn 0.9888364 -0.1180729 0.0908913
vn 0.5782653 0.7483882 0.3248451
vn 0.7109576 0.5351253 0.4562677
vn 0.558408 0.6938142 0.4547553
vn 0.508058 0.7998481 0.3195626
vn 0.8115371 -0.3172927 0.4906453
vn 0.3265022 0.8566867 0.3993548
vn 0.8088463 -0.2928253 0.5099225
vn 0.3158194 0.865452 0.3889099
vn 0.4165589 -0.8476135 0.3286791
vn -0.4317975 0.7842541 0.4455296
vn 0.299049 -0.9106883 0.2849849
vn -0.4532394 0.7748562 0.4406494
vn 0.03814857 -0.9876664 0.1518551
vn -0.9028542 0.1101879 0.4155875
vn 0.0411961 -0.9898506 0.1360091
vn -0.9092007 0.04614651 0.4137931
vn -0.3631296 -0.907824 0.2097436
vn -0.7646229 -0.5809073 0.2791027
vn -0.3357241 -0.9230505 0.1877957
vn -0.7538639 -0.5884793 0.292201
vn -0.9569523 0.03472195 0.2881612
vn -0.89026 -0.4418878 0.1103289
vn -0.840064 -0.5327654 0.1022421
vn -0.9551207 0.04195818 0.2932304
vn -0.3784361 -0.922438 0.07677446
vn -0.4813949 0.4424866 0.7566139
vn -0.4673117 -0.880644 0.07801244
vn -0.1834861 0.4970528 0.8480987
vn 0.1979843 -0.9521559 0.2328116
vn 0.4261002 0.4756911 0.7695171
vn 0.1396121 -0.9689884 0.2038871
vn 0.3933146 0.4913571 0.7770919
vn 0.6439458 0.1779625 0.7440854
vn 0.5237804 0.3166335 0.7908207
vn 0.6660841 -0.3061469 0.6801515
vn 0.5100499 0.3338023 0.7927327
vn 0.5874536 0.3883297 0.7099987
vn 0.4583492 0.6387897 0.6179512
g A1_0
f 3/3/3 2/2/2 1/1/1
f 2/2/2 4/4/4 1/1/1
f 4/4/4 5/5/5 1/1/1
f 1/1/1 5/5/5 6/6/6
f 4/4/4 7/7/7 5/5/5
f 7/7/7 8/8/8 5/5/5
f 11/11/11 10/10/10 9/9/9
f 9/9/9 12/12/12 11/11/11
f 13/13/13 11/11/11 12/12/12
f 14/14/14 13/13/13 12/12/12
f 15/15/15 14/14/14 12/12/12
f 18/18/18 17/17/17 16/16/16
f 16/16/16 17/17/17 19/19/19
f 20/20/20 19/19/19 17/17/17
f 21/21/21 19/19/19 20/20/20
f 22/22/22 19/19/19 21/21/21
f 25/25/25 24/24/24 23/23/23
f 26/26/26 23/23/23 24/24/24
f 26/26/26 27/27/27 23/23/23
f 30/30/30 29/29/29 28/28/28
f 31/31/31 28/28/28 29/29/29
f 31/31/31 29/29/29 32/32/32
f 31/31/31 32/32/32 33/33/33
f 34/34/34 33/33/33 32/32/32
f 35/35/35 33/33/33 34/34/34
f 31/31/31 33/33/33 36/36/36
f 37/37/37 36/36/36 33/33/33
f 40/40/40 39/39/39 38/38/38
f 39/39/39 41/41/41 38/38/38
f 41/41/41 42/42/42 38/38/38
f 43/43/43 42/42/42 41/41/41
f 42/42/42 44/44/44 38/38/38
f 44/44/44 45/45/45 38/38/38
f 46/46/46 44/44/44 42/42/42
f 49/49/49 48/48/48 47/47/47
f 48/48/48 49/49/49 50/50/50
f 51/51/51 50/50/50 49/49/49
f 50/50/50 51/51/51 52/52/52
f 53/53/53 52/52/52 51/51/51
f 53/53/53 54/54/54 52/52/52
g A1_1
f 57/57/57 56/56/56 55/55/55
f 58/58/58 55/55/55 56/56/56
f 61/61/61 60/60/60 59/59/59
f 62/62/62 59/59/59 60/60/60
f 59/59/59 62/62/62 63/63/63
f 64/64/64 63/63/63 62/62/62
f 67/67/67 66/66/66 65/65/65
f 68/68/68 65/65/65 66/66/66
f 65/65/65 68/68/68 69/69/69
f 70/70/70 69/69/69 68/68/68
f 73/73/73 72/72/72 71/71/71
f 74/74/74 71/71/71 72/72/72
f 77/77/77 76/76/76 75/75/75
f 78/78/78 75/75/75 76/76/76
f 81/81/81 80/80/80 79/79/79
f 82/82/82 79/79/79 80/80/80
f 85/85/85 84/84/84 83/83/83
f 86/86/86 83/83/83 84/84/84
f 89/89/89 88/88/88 87/87/87
f 90/90/90 87/87/87 88/88/88
f 87/87/87 90/90/90 91/91/91
f 92/92/92 91/91/91 90/90/90
f 91/91/91 92/92/92 93/93/93
f 94/94/94 93/93/93 92/92/92
f 97/97/97 96/96/96 95/95/95
f 98/98/98 95/95/95 96/96/96
f 101/101/101 100/100/100 99/99/99
f 102/102/102 99/99/99 100/100/100
f 105/105/105 104/104/104 103/103/103
f 106/106/106 103/103/103 104/104/104
f 109/109/109 108/108/108 107/107/107
f 110/110/110 107/107/107 108/108/108
f 107/107/107 110/110/110 111/111/111
f 112/112/112 111/111/111 110/110/110
f 111/111/111 112/112/112 113/113/113
f 114/114/114 113/113/113 112/112/112
f 117/117/117 116/116/116 115/115/115
f 118/118/118 115/115/115 116/116/116
f 115/115/115 118/118/118 119/119/119
f 120/120/120 119/119/119 118/118/118
f 123/123/123 122/122/122 121/121/121
f 124/124/124 121/121/121 122/122/122
f 121/121/121 124/124/124 125/125/125
f 126/126/126 125/125/125 124/124/124
f 129/129/129 128/128/128 127/127/127
f 130/130/130 127/127/127 128/128/128
f 127/127/127 130/130/130 131/131/131
f 132/132/132 131/131/131 130/130/130
f 135/135/135 134/134/134 133/133/133
f 136/136/136 133/133/133 134/134/134
f 133/133/133 136/136/136 137/137/137
f 138/138/138 137/137/137 136/136/136
f 137/137/137 138/138/138 139/139/139
f 140/140/140 139/139/139 138/138/138
f 139/139/139 140/140/140 141/141/141
f 142/142/142 141/141/141 140/140/140
f 145/145/145 144/144/144 143/143/143
f 146/146/146 143/143/143 144/144/144
f 149/149/149 148/148/148 147/147/147
f 150/150/150 147/147/147 148/148/148
f 153/153/153 152/152/152 151/151/151
f 154/154/154 151/151/151 152/152/152
f 152/152/152 153/153/153 155/155/155
f 151/151/151 154/154/154 156/156/156
f 157/157/157 155/155/155 153/153/153
f 158/158/158 156/156/156 154/154/154
f 155/155/155 157/157/157 159/159/159
f 156/156/156 158/158/158 160/160/160
f 159/159/159 160/160/160 158/158/158
f 160/160/160 159/159/159 157/157/157
f 163/163/163 162/162/162 161/161/161
f 164/164/164 161/161/161 162/162/162
f 162/162/162 163/163/163 165/165/165
f 161/161/161 164/164/164 166/166/166
f 167/167/167 165/165/165 163/163/163
f 168/168/168 166/166/166 164/164/164
f 165/165/165 167/167/167 169/169/169
f 166/166/166 168/168/168 170/170/170
f 171/171/171 169/169/169 167/167/167
f 172/172/172 170/170/170 168/168/168
f 169/169/169 171/171/171 173/173/173
f 170/170/170 172/172/172 174/174/174
f 175/175/175 173/173/173 171/171/171
f 176/176/176 174/174/174 172/172/172
f 173/173/173 175/175/175 177/177/177
f 174/174/174 176/176/176 178/178/178
f 179/179/179 177/177/177 175/175/175
f 180/180/180 178/178/178 176/176/176
f 177/177/177 179/179/179 180/180/180
f 178/178/178 180/180/180 179/179/179
f 183/183/183 182/182/182 181/181/181
f 184/184/184 181/181/181 182/182/182
f 182/182/182 183/183/183 185/185/185
f 181/181/181 184/184/184 186/186/186
f 187/187/187 185/185/185 183/183/183
f 188/188/188 186/186/186 184/184/184
f 185/185/185 187/187/187 189/189/189
f 186/186/186 188/188/188 190/190/190
f 191/191/191 189/189/189 187/187/187
f 192/192/192 190/190/190 188/188/188
f 189/189/189 191/191/191 193/193/193
f 190/190/190 192/192/192 194/194/194
f 195/195/195 193/193/193 191/191/191
f 196/196/196 194/194/194 192/192/192
f 193/193/193 195/195/195 197/197/197
f 194/194/194 196/196/196 198/198/198
f 198/198/198 197/197/197 195/195/195
f 197/197/197 198/198/198 196/196/196
