g AllPass.008
v 9.253625E-08 0.1010107 1.907349E-08
v 0.1050031 0.101014 4.768371E-09
v 0.1050031 2.90021E-06 1.430511E-08
v 9.819867E-08 9.536743E-09 1.907349E-08
v 9.819867E-08 9.536743E-09 1.907349E-08
v 0.1050031 2.90021E-06 1.430511E-08
v 0.1050031 2.896417E-06 -0.02999998
v 7.354551E-10 1.792325E-09 -0.03
v 1.856794E-07 0.1010107 -0.03000001
v 7.354551E-10 1.792325E-09 -0.03
v 0.1050031 2.896417E-06 -0.02999998
v 0.1050031 0.101014 -0.02999999
v 9.253625E-08 0.1010107 1.907349E-08
v 9.819867E-08 9.536743E-09 1.907349E-08
v 7.354551E-10 1.792325E-09 -0.03
v 1.856794E-07 0.1010107 -0.03000001
v 0.1050031 2.90021E-06 1.430511E-08
v 0.1050031 0.101014 4.768371E-09
v 0.1050031 0.101014 -0.02999999
v 0.1050031 2.896417E-06 -0.02999998
v 0.1050031 0.101014 4.768371E-09
v 9.253625E-08 0.1010107 1.907349E-08
v 1.856794E-07 0.1010107 -0.03000001
v 0.1050031 0.101014 -0.02999999
vt -6.26445 -1.824943
vt -3.580762 -1.828006
vt -3.374781 -2.751647
vt -6.26445 -2.748021
vt -6.26445 -2.748021
vt -3.374781 -2.751647
vt -3.374781 -2.751647
vt -6.26445 -2.748021
vt -6.26445 -1.824943
vt -6.26445 -2.748021
vt -3.374781 -2.751647
vt -3.580762 -1.828006
vt -6.26445 -1.824943
vt -6.26445 -2.748021
vt -6.26445 -2.748021
vt -6.26445 -1.824943
vt -3.374781 -2.751647
vt -3.580762 -1.828006
vt -3.580762 -1.828006
vt -3.374781 -2.751647
vt -3.580762 -1.828006
vt -6.26445 -1.824943
vt -6.26445 -1.824943
vt -3.580762 -1.828006
vn 0 0 1
vn 0 0 1
vn 0 0 1
vn 0 0 1
vn 2.754825E-05 -1 1.922497E-07
vn 2.754825E-05 -1 1.922497E-07
vn 2.754825E-05 -1 1.922497E-07
vn 2.754825E-05 -1 1.922497E-07
vn 1.926864E-07 0 -1
vn 1.926864E-07 0 -1
vn 1.926864E-07 0 -1
vn 1.926864E-07 0 -1
vn -1 8.874383E-07 0
vn -1 8.874383E-07 0
vn -1 8.874383E-07 0
vn -1 8.874383E-07 0
vn 1 -3.147094E-07 0
vn 1 -3.147094E-07 0
vn 1 -3.147094E-07 0
vn 1 -3.147094E-07 0
vn -3.16066E-05 1 3.225677E-07
vn -3.16066E-05 1 3.225677E-07
vn -3.16066E-05 1 3.225677E-07
vn -3.16066E-05 1 3.225677E-07
g AllPass.008_0
f 3/3/3 2/2/2 1/1/1
f 4/4/4 3/3/3 1/1/1
f 7/7/7 6/6/6 5/5/5
f 8/8/8 7/7/7 5/5/5
f 11/11/11 10/10/10 9/9/9
f 12/12/12 11/11/11 9/9/9
f 15/15/15 14/14/14 13/13/13
f 16/16/16 15/15/15 13/13/13
f 19/19/19 18/18/18 17/17/17
f 20/20/20 19/19/19 17/17/17
f 23/23/23 22/22/22 21/21/21
f 24/24/24 23/23/23 21/21/21
