g badge
v -0.001734849 1.077915 0.04893303
v -0.03357439 1.076699 0.04477615
v -0.03448797 1.065662 0.05510483
v 0.004944292 1.067168 0.06025673
v 0.005394012 1.072601 0.05516884
v 0.004500951 1.069681 0.06292213
v 0.004944292 1.067168 0.06025673
v -0.03448797 1.065662 0.05510483
v -0.03493128 1.068175 0.05777069
v -0.002178188 1.080428 0.05159821
v 0.004950767 1.075113 0.05783401
v 0.004944292 1.067168 0.06025673
v 0.005394012 1.072601 0.05516884
v -0.002178188 1.080428 0.05159821
v -0.001734849 1.077915 0.04893303
v -0.03401775 1.079211 0.04744156
v -0.001734849 1.077915 0.04893303
v -0.03357439 1.076699 0.04477615
v -0.03448797 1.065662 0.05510483
v -0.03357439 1.076699 0.04477615
v -0.03401775 1.079211 0.04744156
vt 0.4650443 0.8139584
vt 0.45321 0.8139584
vt 0.45321 0.8084021
vt 0.4679184 0.8084021
vt 0.4679185 0.811223
vt 0.4492401 0.777746
vt 0.4491903 0.7703074
vt 0.3707069 0.7703074
vt 0.3707069 0.777746
vt 0.4352217 0.8060443
vt 0.4492401 0.7900108
vt 0.454026 0.777746
vt 0.454026 0.7922426
vt 0.4352217 0.8060443
vt 0.4378256 0.8105443
vt 0.3706062 0.8060443
vt 0.4378256 0.8105443
vt 0.3703885 0.8114743
vt 0.3656 0.777746
vt 0.3656 0.8060806
vt 0.3706062 0.8060443
vn 0.3845218 -0.03425517 -0.9224801
vn -0.4684542 0.005389662 -0.8834713
vn -0.5370603 -0.8378829 -0.09756291
vn 0.477061 -0.8402789 -0.2575733
vn 0.8832961 -0.04874444 -0.4662745
vn 0.2822946 0.2758351 0.918817
vn 0.477061 -0.8402789 -0.2575733
vn -0.5370603 -0.8378829 -0.09756291
vn -0.6771905 -0.04974069 0.7341245
vn 0.2073503 0.9687123 0.1363898
vn 0.7682241 0.6016569 0.2187254
vn 0.477061 -0.8402789 -0.2575733
vn 0.8832961 -0.04874444 -0.4662745
vn 0.2073503 0.9687123 0.1363898
vn 0.3845218 -0.03425517 -0.9224801
vn -0.6057798 0.7940081 -0.05081263
vn 0.3845218 -0.03425517 -0.9224801
vn -0.4684542 0.005389662 -0.8834713
vn -0.5370603 -0.8378829 -0.09756291
vn -0.4684542 0.005389662 -0.8834713
vn -0.6057798 0.7940081 -0.05081263
g badge_0
f 3/3/3 2/2/2 1/1/1
f 4/4/4 3/3/3 1/1/1
f 5/5/5 4/4/4 1/1/1
f 8/8/8 7/7/7 6/6/6
f 9/9/9 8/8/8 6/6/6
f 6/6/6 10/10/10 9/9/9
f 11/11/11 10/10/10 6/6/6
f 6/6/6 12/12/12 11/11/11
f 12/12/12 13/13/13 11/11/11
f 11/11/11 13/13/13 14/14/14
f 13/13/13 15/15/15 14/14/14
f 10/10/10 16/16/16 9/9/9
f 10/10/10 17/17/17 16/16/16
f 17/17/17 18/18/18 16/16/16
f 20/20/20 19/19/19 9/9/9
f 21/21/21 20/20/20 9/9/9
