g Box023_frag_041
v -0.07848855 0.07123864 -0.007177053
v -0.09878528 -0.01578124 0.007177053
v -0.09950915 -0.01562192 -0.007177053
v -0.07757827 0.07184963 0.007177053
v 0.01684423 -0.07153313 0.007177051
v 0.06041025 0.04566547 0.007177053
v 0.09950915 -0.003149676 0.007177053
v -0.09878528 -0.01578124 0.007177053
v -0.07757827 0.07184963 0.007177053
v -0.07757827 0.07184963 0.007177053
v 0.06048723 0.04486717 -0.007177053
v 0.06041025 0.04566547 0.007177053
v -0.07848855 0.07123864 -0.007177053
v -0.09950915 -0.01562192 -0.007177053
v 0.06048723 0.04486717 -0.007177053
v -0.07848855 0.07123864 -0.007177053
v 0.01710723 -0.07184962 -0.007177053
v 0.09942811 -0.003750751 -0.007177053
v 0.06048723 0.04486717 -0.007177053
v 0.09950915 -0.003149676 0.007177053
v 0.06041025 0.04566547 0.007177053
v 0.09942811 -0.003750751 -0.007177053
v 0.09942811 -0.003750751 -0.007177053
v 0.01684423 -0.07153313 0.007177051
v 0.09950915 -0.003149676 0.007177053
v 0.01710723 -0.07184962 -0.007177053
v -0.09878528 -0.01578124 0.007177053
v 0.01710723 -0.07184962 -0.007177053
v -0.09950915 -0.01562192 -0.007177053
v 0.01684423 -0.07153313 0.007177051
vt 0.8772613 0.7849649
vt 0.8853556 0.7295769
vt 0.8772615 0.7296783
vt 0.8853555 0.7853538
vt 0.2372952 0.3471633
vt 0.3158627 0.3363228
vt 0.2904975 0.3062146
vt 0.2571403 0.4244774
vt 0.3144248 0.4232475
vt 0.3560057 0.7197313
vt 0.4413774 0.7278254
vt 0.4413298 0.7197313
vt 0.3554428 0.7278254
vt 0.5256703 0.3611928
vt 0.5632572 0.2619093
vt 0.4932817 0.3145395
vt 0.6005169 0.331553
vt 0.6023658 0.2647217
vt 0.6128376 0.1339161
vt 0.582275 0.1420102
vt 0.6133457 0.1420102
vt 0.5818924 0.1339161
vt 0.7344406 0.04530535
vt 0.6833755 0.05339945
vt 0.7344907 0.05339945
vt 0.6835381 0.04530535
vt 0.6118769 0.05339945
vt 0.6835381 0.04530535
vt 0.6114293 0.04530535
vt 0.6833755 0.05339945
vn -0.9718982 0.2284941 0.05660801
vn -0.9718982 0.2284941 0.05660801
vn -0.9718981 0.2284941 0.05660801
vn -0.9718982 0.2284941 0.05660779
vn 0 0 1
vn 0 0 1
vn 0 0 1
vn 0 0 1
vn 0 0 1
vn 0.1913552 0.9796623 -0.06037467
vn 0.1913552 0.9796623 -0.06037467
vn 0.1913552 0.9796623 -0.06037466
vn 0.191355 0.9796622 -0.06037647
vn 0 0 -1
vn 0 0 -1
vn 0 0 -1
vn 0 0 -1
vn 0 0 -1
vn 0.7887714 0.6137517 -0.03389083
vn 0.7887714 0.6137517 -0.03389083
vn 0.7887714 0.6137517 -0.03389083
vn 0.7887716 0.6137512 -0.03389343
vn 0.6479917 -0.7609767 0.03195732
vn 0.6479917 -0.7609767 0.03195732
vn 0.6479917 -0.7609767 0.03195732
vn 0.6479917 -0.7609766 0.03195868
vn -0.4445328 -0.895663 0.01336059
vn -0.4445328 -0.895663 0.01336059
vn -0.4445328 -0.895663 0.01336059
vn -0.4445328 -0.895663 0.01336034
g Box023_frag_041_0
f 3/3/3 2/2/2 1/1/1
f 4/4/4 1/1/1 2/2/2
f 7/7/7 6/6/6 5/5/5
f 5/5/5 6/6/6 8/8/8
f 8/8/8 6/6/6 9/9/9
f 12/12/12 11/11/11 10/10/10
f 13/13/13 10/10/10 11/11/11
f 16/16/16 15/15/15 14/14/14
f 14/14/14 15/15/15 17/17/17
f 17/17/17 15/15/15 18/18/18
f 21/21/21 20/20/20 19/19/19
f 22/22/22 19/19/19 20/20/20
f 25/25/25 24/24/24 23/23/23
f 26/26/26 23/23/23 24/24/24
f 29/29/29 28/28/28 27/27/27
f 30/30/30 27/27/27 28/28/28
