g Box023_frag_047
v -0.0438874 -0.04848161 0.003729679
v -0.04416706 -0.04805839 0.007177051
v -0.04245122 -0.04845889 0.007177051
v 0.05468492 -0.02902903 0.007177051
v 0.05280606 0.04716886 0.007177053
v 0.07914248 0.01680906 0.007177051
v -0.04416706 -0.04805839 0.007177051
v -0.04245122 -0.04845889 0.007177051
v -0.07890053 0.04123208 0.007177053
v -0.07349479 0.0484816 0.007177053
v -0.07661984 0.04646835 -0.007177053
v 0.05280606 0.04716886 0.007177053
v -0.07349479 0.0484816 0.007177053
v 0.0554473 0.0450957 -0.007177053
v 0.05326219 -0.02821206 -0.007177053
v -0.04245122 -0.04845889 0.007177051
v 0.05468492 -0.02902903 0.007177051
v -0.0438874 -0.04848161 0.003729679
v -0.04385182 -0.04763747 -0.007177053
v -0.04385182 -0.04763747 -0.007177053
v -0.04416706 -0.04805839 0.007177051
v -0.0438874 -0.04848161 0.003729679
v -0.07890053 0.04123208 0.007177053
v -0.07914248 0.04308531 -0.007177053
v -0.07661984 0.04646835 -0.007177053
v -0.07890053 0.04123208 0.007177053
v -0.07914248 0.04308531 -0.007177053
v -0.07349479 0.0484816 0.007177053
v -0.04385182 -0.04763747 -0.007177053
v -0.07661984 0.04646835 -0.007177053
v -0.07914248 0.04308531 -0.007177053
v 0.0554473 0.0450957 -0.007177053
v 0.07831267 0.01873721 -0.007177053
v 0.05326219 -0.02821206 -0.007177053
v 0.0554473 0.0450957 -0.007177053
v 0.07914248 0.01680906 0.007177051
v 0.05280606 0.04716886 0.007177053
v 0.07831267 0.01873721 -0.007177053
v 0.05326219 -0.02821206 -0.007177053
v 0.07914248 0.01680906 0.007177051
v 0.07831267 0.01873721 -0.007177053
v 0.05468492 -0.02902903 0.007177051
vt 0.8489518 0.8003739
vt 0.8508956 0.8005468
vt 0.8508956 0.7994859
vt 0.5032345 0.4774269
vt 0.4547347 0.4762651
vt 0.4740586 0.49255
vt 0.5153467 0.4163026
vt 0.5156015 0.4173635
vt 0.4585135 0.3948254
vt 0.4538991 0.3981679
vt 0.5622011 0.7229025
vt 0.6422306 0.7148085
vt 0.5641335 0.7148085
vt 0.6438638 0.7229025
vt 0.8428017 0.7403023
vt 0.8508956 0.7994859
vt 0.8508958 0.7394225
vt 0.8489518 0.8003739
vt 0.8428017 0.800352
vt 0.8280333 0.7547284
vt 0.8361274 0.7544604
vt 0.8341835 0.754191
vt 0.8361273 0.8112936
vt 0.8280332 0.8124732
vt 0.8280332 0.8146265
vt 0.8361273 0.8112936
vt 0.8280332 0.8124732
vt 0.8361273 0.8159079
vt 0.5363924 0.6399508
vt 0.4735905 0.6473163
vt 0.4753724 0.6492898
vt 0.4914237 0.5676198
vt 0.5107738 0.5572783
vt 0.5367834 0.5786427
vt 0.9835155 0.8772613
vt 0.9655111 0.8853554
vt 0.984835 0.8853554
vt 0.9667383 0.8772613
vt 0.9368553 0.8772613
vt 0.9655111 0.8853554
vt 0.9667383 0.8772613
vt 0.9363353 0.8853554
vn -0.2321102 -0.9660771 0.1132248
vn -0.2321103 -0.9660771 0.1132248
vn -0.2321103 -0.9660771 0.1132248
vn 0 0 1
vn 0 0 1
vn 0 0 1
vn 0 0 1
vn 0 0 1
vn 0 0 1
vn 0 0 1
vn 0.01056255 0.987251 -0.15882
vn 0.01056255 0.987251 -0.15882
vn 0.01056255 0.987251 -0.15882
vn 0.01056236 0.9872513 -0.1588182
vn 0.2009478 -0.9759472 -0.08453999
vn 0.2009478 -0.9759472 -0.08453999
vn 0.2009478 -0.9759472 -0.08454
vn 0.2009482 -0.9759473 -0.08453739
vn 0.2009476 -0.975947 -0.08454268
vn -0.9348905 -0.3532839 -0.03420812
vn -0.9348905 -0.3532839 -0.03420813
vn -0.9348905 -0.3532839 -0.03420812
vn -0.9348874 -0.3532923 -0.03420832
vn -0.9348874 -0.3532925 -0.0342062
vn -0.8057849 0.5837113 0.0999592
vn -0.8057849 0.5837112 0.09995919
vn -0.8057849 0.5837113 0.0999592
vn -0.8057857 0.5837103 0.0999587
vn 0 0 -1
vn 0 0 -1
vn 0 0 -1
vn 0 0 -1
vn 0 0 -1
vn 0 0 -1
vn 0.7637499 0.6436365 0.04917514
vn 0.7637499 0.6436365 0.04917513
vn 0.7637499 0.6436365 0.04917514
vn 0.76375 0.6436364 0.04917494
vn 0.8808464 -0.4565822 -0.1250687
vn 0.8808464 -0.4565822 -0.1250687
vn 0.8808464 -0.4565822 -0.1250687
vn 0.8808465 -0.4565817 -0.1250706
g Box023_frag_047_0
f 3/3/3 2/2/2 1/1/1
f 6/6/6 5/5/5 4/4/4
f 5/5/5 7/7/7 4/4/4
f 4/4/4 7/7/7 8/8/8
f 9/9/9 7/7/7 5/5/5
f 10/10/10 9/9/9 5/5/5
f 13/13/13 12/12/12 11/11/11
f 14/14/14 11/11/11 12/12/12
f 17/17/17 16/16/16 15/15/15
f 16/16/16 18/18/18 15/15/15
f 15/15/15 18/18/18 19/19/19
f 22/22/22 21/21/21 20/20/20
f 21/21/21 23/23/23 20/20/20
f 20/20/20 23/23/23 24/24/24
f 27/27/27 26/26/26 25/25/25
f 28/28/28 25/25/25 26/26/26
f 31/31/31 30/30/30 29/29/29
f 30/30/30 32/32/32 29/29/29
f 32/32/32 33/33/33 29/29/29
f 29/29/29 33/33/33 34/34/34
f 37/37/37 36/36/36 35/35/35
f 38/38/38 35/35/35 36/36/36
f 41/41/41 40/40/40 39/39/39
f 42/42/42 39/39/39 40/40/40
