g Box023_frag_070
v 0.07658013 0.005933604 -0.007177053
v 0.07560117 0.001566064 -0.007177053
v 0.07654454 0.005089535 0.003729474
v 0.04153141 0.09480314 0.007177053
v -0.0744281 0.02690729 0.007177053
v 0.0002750457 0.08960977 0.007177053
v -0.006364368 -0.09322753 0.007177051
v 0.07626487 0.005512752 0.007177053
v -0.006364368 -0.09322753 0.007177051
v 0.07560117 0.001566064 -0.007177053
v -0.006594761 -0.09665643 -0.007177053
v 0.07654454 0.005089535 0.003729474
v 0.07626487 0.005512752 0.007177053
v 0.0002750457 0.08960977 0.007177053
v -0.07658011 0.02687023 -0.007177053
v 0.0004354776 0.09151366 -0.007177053
v -0.0744281 0.02690729 0.007177053
v -0.07658011 0.02687023 -0.007177053
v -0.006364368 -0.09322753 0.007177051
v -0.006594761 -0.09665643 -0.007177053
v -0.0744281 0.02690729 0.007177053
v 0.07626487 0.005512752 0.007177053
v 0.07658013 0.005933604 -0.007177053
v 0.07654454 0.005089535 0.003729474
v 0.04128947 0.0966564 -0.007177053
v 0.04153141 0.09480314 0.007177053
v 0.07658013 0.005933604 -0.007177053
v -0.006594761 -0.09665643 -0.007177053
v 0.07560117 0.001566064 -0.007177053
v -0.07658011 0.02687023 -0.007177053
v 0.0004354776 0.09151366 -0.007177053
v 0.04128947 0.0966564 -0.007177053
v 0.04153141 0.09480314 0.007177053
v 0.0004354776 0.09151366 -0.007177053
v 0.04128947 0.0966564 -0.007177053
v 0.0002750457 0.08960977 0.007177053
vt 0.8710097 0.1567786
vt 0.8737896 0.1567786
vt 0.8715469 0.1506286
vt 0.521181 0.9637091
vt 0.4402854 0.9852676
vt 0.5010821 0.9797636
vt 0.4145166 0.9018754
vt 0.4952179 0.90878
vt 0.9341255 0.1486845
vt 0.8737896 0.1567786
vt 0.9363081 0.1567786
vt 0.8715469 0.1506286
vt 0.8712776 0.1486845
vt 0.6566311 0.7868991
vt 0.7041539 0.7788051
vt 0.6565319 0.7788051
vt 0.7028232 0.7868991
vt 0.4734498 0.8016676
vt 0.3970078 0.7935735
vt 0.3948253 0.8016676
vt 0.4734734 0.7935735
vt 0.8712776 0.1486845
vt 0.8710097 0.1567786
vt 0.8715469 0.1506286
vt 0.8132648 0.1567786
vt 0.8144444 0.1486845
vt 0.2402146 0.5563285
vt 0.3162808 0.5228186
vt 0.2420541 0.5541581
vt 0.3175782 0.6125563
vt 0.2562139 0.6265283
vt 0.2323724 0.6175589
vt 0.6311206 0.7868991
vt 0.6565319 0.7788051
vt 0.6312702 0.7788051
vt 0.6566311 0.7868991
vn 0.9769924 -0.2127398 -0.01508884
vn 0.9769924 -0.2127398 -0.01508884
vn 0.9769924 -0.2127398 -0.01508884
vn 0 0 1
vn 0 0 1
vn 0 0 1
vn 0 0 1
vn 0 0 1
vn 0.7666145 -0.6232296 0.1545543
vn 0.7666145 -0.6232296 0.1545543
vn 0.7666145 -0.6232296 0.1545543
vn 0.7666145 -0.6232295 0.154555
vn 0.7666148 -0.6232299 0.1545519
vn -0.6501847 0.752528 0.1046969
vn -0.6501847 0.752528 0.1046969
vn -0.6501847 0.752528 0.1046969
vn -0.6501848 0.7525279 0.1046977
vn -0.8669473 -0.4771675 0.1439217
vn -0.8669473 -0.4771675 0.1439217
vn -0.8669473 -0.4771675 0.1439217
vn -0.8669475 -0.4771681 0.1439185
vn 0.9348847 0.3532994 0.03420777
vn 0.9348847 0.3532994 0.03420777
vn 0.9348847 0.3532994 0.03420777
vn 0.9348874 0.3532924 0.0342076
vn 0.9348873 0.3532924 0.03420794
vn 0 0 -1
vn 0 0 -1
vn 0 0 -1
vn 0 0 -1
vn 0 0 -1
vn 0 0 -1
vn -0.1271383 0.9811786 0.1453421
vn -0.1271382 0.9811786 0.1453421
vn -0.1271382 0.9811786 0.1453421
vn -0.1271376 0.9811791 0.1453401
g Box023_frag_070_0
f 3/3/3 2/2/2 1/1/1
f 6/6/6 5/5/5 4/4/4
f 5/5/5 7/7/7 4/4/4
f 4/4/4 7/7/7 8/8/8
f 11/11/11 10/10/10 9/9/9
f 10/10/10 12/12/12 9/9/9
f 9/9/9 12/12/12 13/13/13
f 16/16/16 15/15/15 14/14/14
f 17/17/17 14/14/14 15/15/15
f 20/20/20 19/19/19 18/18/18
f 21/21/21 18/18/18 19/19/19
f 24/24/24 23/23/23 22/22/22
f 23/23/23 25/25/25 22/22/22
f 22/22/22 25/25/25 26/26/26
f 29/29/29 28/28/28 27/27/27
f 28/28/28 30/30/30 27/27/27
f 30/30/30 31/31/31 27/27/27
f 27/27/27 31/31/31 32/32/32
f 35/35/35 34/34/34 33/33/33
f 36/36/36 33/33/33 34/34/34
