g Box023_frag_063
v -0.0384919 0.03273989 -0.003833319
v -0.03748802 0.04562453 -0.003833319
v -0.03735086 0.04515246 -0.0001881593
v 0.03288547 -0.02901744 0.003833319
v 0.03849191 -0.02078199 -0.003833319
v 0.02302806 -0.04562454 -0.003833319
v -0.03748802 0.04562453 -0.003833319
v 0.03849191 -0.02078199 -0.003833319
v -0.02733698 0.04286874 -0.003833319
v -0.0384919 0.03273989 -0.003833319
v 0.02302806 -0.04562454 -0.003833319
v -0.0384919 0.03273989 -0.003833319
v 0.03288547 -0.02901744 0.003833319
v 0.02302806 -0.04562454 -0.003833319
v -0.03735086 0.04515246 -0.0001881593
v -0.03654215 0.04490825 1.845819E-05
v 0.03288547 -0.02901744 0.003833319
v -0.02733698 0.04286874 -0.003833319
v 0.03849191 -0.02078199 -0.003833319
v -0.03654215 0.04490825 1.845819E-05
v -0.03654215 0.04490825 1.845819E-05
v -0.03748802 0.04562453 -0.003833319
v -0.02733698 0.04286874 -0.003833319
v -0.03735086 0.04515246 -0.0001881593
vt 0.08796613 0.001
vt 0.07976507 0.001
vt 0.08006555 0.003055461
vt 0.07484226 0.1247952
vt 0.07916538 0.130037
vt 0.07916538 0.1142248
vt 0.7405764 0.8082279
vt 0.7295769 0.7459958
vt 0.7367101 0.8029813
vt 0.7461146 0.8021476
vt 0.7468468 0.7394225
vt 0.6996491 0.9786566
vt 0.7020321 0.9196022
vt 0.6901943 0.9166439
vt 0.7058224 0.9836374
vt 0.706058 0.9831697
vt 0.7020321 0.9196022
vt 0.7090781 0.9781734
vt 0.708211 0.9207498
vt 0.706058 0.9831697
vt 0.06499662 0.1543764
vt 0.06716859 0.1549613
vt 0.06716859 0.1486845
vt 0.06511313 0.1548765
vn -0.9957932 0.07537252 0.0521044
vn -0.9957932 0.07537252 0.0521044
vn -0.9957932 0.07537252 0.0521044
vn 0.8542331 -0.5165706 0.05865794
vn 0.8542331 -0.5165706 0.05865794
vn 0.8542331 -0.5165706 0.05865793
vn 0 0 -1
vn 0 0 -1
vn 0 0 -1
vn 0 0 -1
vn 0 0 -1
vn -0.2850733 -0.2174129 0.9335228
vn -0.2850733 -0.2174129 0.9335228
vn -0.2850733 -0.2174129 0.9335228
vn -0.2850728 -0.2174125 0.933523
vn -0.2850837 -0.2174227 0.9335174
vn 0.4052072 0.4071196 0.8185724
vn 0.4052072 0.4071196 0.8185724
vn 0.4052072 0.4071196 0.8185724
vn 0.4052068 0.4071193 0.8185727
vn 0.2669033 0.9551032 0.1286104
vn 0.2669033 0.9551032 0.1286104
vn 0.2669033 0.9551032 0.1286104
vn 0.2669228 0.9550985 0.1286041
g Box023_frag_063_0
f 3/3/3 2/2/2 1/1/1
f 6/6/6 5/5/5 4/4/4
f 9/9/9 8/8/8 7/7/7
f 7/7/7 8/8/8 10/10/10
f 10/10/10 8/8/8 11/11/11
f 14/14/14 13/13/13 12/12/12
f 12/12/12 13/13/13 15/15/15
f 13/13/13 16/16/16 15/15/15
f 19/19/19 18/18/18 17/17/17
f 20/20/20 17/17/17 18/18/18
f 23/23/23 22/22/22 21/21/21
f 24/24/24 21/21/21 22/22/22
