g Box023_frag_106
v 0.01722258 -0.06948325 0.007177052
v 0.04997932 0.04125271 0.007177052
v 0.05506371 0.01713038 0.007177052
v -0.05442263 -0.0743199 0.007177052
v -0.02377855 0.07291962 0.007177052
v -0.02377855 0.07291962 0.007177052
v 0.05077729 0.04181555 -0.007177052
v 0.04997932 0.04125271 0.007177052
v -0.02539237 0.07451791 -0.007177052
v 0.05077729 0.04181555 -0.007177052
v 0.01949989 -0.06939337 -0.007177052
v 0.05641035 0.01509007 -0.007177052
v -0.05641035 -0.07451791 -0.007177052
v -0.02539237 0.07451791 -0.007177052
v 0.01949989 -0.06939337 -0.007177052
v -0.05442263 -0.0743199 0.007177052
v 0.01722258 -0.06948325 0.007177052
v -0.05641035 -0.07451791 -0.007177052
v -0.02539237 0.07451791 -0.007177052
v -0.05442263 -0.0743199 0.007177052
v -0.05641035 -0.07451791 -0.007177052
v -0.02377855 0.07291962 0.007177052
v 0.05077729 0.04181555 -0.007177052
v 0.05506371 0.01713038 0.007177052
v 0.04997932 0.04125271 0.007177052
v 0.05641035 0.01509007 -0.007177052
v 0.01949989 -0.06939337 -0.007177052
v 0.05506371 0.01713038 0.007177052
v 0.05641035 0.01509007 -0.007177052
v 0.01722258 -0.06948325 0.007177052
vt 0.5372865 0.546771
vt 0.4641322 0.5519289
vt 0.4784969 0.5581964
vt 0.5495085 0.5040779
vt 0.4538991 0.5031273
vt 0.7788051 0.6821443
vt 0.7868991 0.6360434
vt 0.7788051 0.6365368
vt 0.7868991 0.6831423
vt 0.3467209 0.8216707
vt 0.4175052 0.8410109
vt 0.3637316 0.8181876
vt 0.420767 0.8879493
vt 0.3259059 0.8687697
vt 0.9198152 0.8503577
vt 0.9117212 0.8046482
vt 0.9117212 0.8489495
vt 0.9198152 0.8034192
vt 0.2927737 0.737671
vt 0.1980387 0.7295769
vt 0.1979127 0.737671
vt 0.2917564 0.7295769
vt 0.6675023 0.8674157
vt 0.6517903 0.8755098
vt 0.6671441 0.8755098
vt 0.6504916 0.8674157
vt 0.5967181 0.8674157
vt 0.6517903 0.8755098
vt 0.6504916 0.8674157
vt 0.5966609 0.8755098
vn 0 0 1
vn 0 0 1
vn 0 0 1
vn 0 0 1
vn 0 0 1
vn 0.403372 0.9127255 0.0649868
vn 0.403372 0.9127255 0.0649868
vn 0.403372 0.9127255 0.0649868
vn 0.4033718 0.9127256 0.06498577
vn 0 0 -1
vn 0 0 -1
vn 0 0 -1
vn 0 0 -1
vn 0 0 -1
vn 0.06932253 -0.9975817 0.005009216
vn 0.06932253 -0.9975817 0.005009216
vn 0.06932253 -0.9975817 0.005009216
vn 0.06932214 -0.9975817 0.005007015
vn -0.969918 0.1961054 0.1442282
vn -0.9699181 0.1961054 0.1442282
vn -0.9699181 0.1961054 0.1442282
vn -0.9699184 0.1961052 0.1442251
vn 0.9773761 0.2001303 0.06843811
vn 0.9773761 0.2001303 0.0684381
vn 0.9773761 0.2001303 0.06843811
vn 0.9773761 0.2001302 0.06843784
vn 0.9093256 -0.3859481 0.1554701
vn 0.9093256 -0.3859481 0.1554701
vn 0.9093256 -0.3859481 0.1554701
vn 0.9093255 -0.3859482 0.1554705
g Box023_frag_106_0
f 3/3/3 2/2/2 1/1/1
f 1/1/1 2/2/2 4/4/4
f 2/2/2 5/5/5 4/4/4
f 8/8/8 7/7/7 6/6/6
f 9/9/9 6/6/6 7/7/7
f 12/12/12 11/11/11 10/10/10
f 11/11/11 13/13/13 10/10/10
f 10/10/10 13/13/13 14/14/14
f 17/17/17 16/16/16 15/15/15
f 18/18/18 15/15/15 16/16/16
f 21/21/21 20/20/20 19/19/19
f 22/22/22 19/19/19 20/20/20
f 25/25/25 24/24/24 23/23/23
f 26/26/26 23/23/23 24/24/24
f 29/29/29 28/28/28 27/27/27
f 30/30/30 27/27/27 28/28/28
