g Box023_frag_050
v -0.05732596 0.03773105 -0.007177053
v -0.05736156 0.03688695 0.003729209
v -0.05830489 0.03336359 -0.007177053
v 0.0505938 -0.02365331 -0.007177053
v 0.05628166 0.02503243 0.007177053
v 0.05830489 0.01869101 -0.007177053
v 0.04492925 -0.03730766 0.007177053
v 0.04492925 -0.03730766 0.007177053
v 0.04121077 0.05633947 0.007177053
v 0.05628166 0.02503243 0.007177053
v -0.05592518 0.03690967 0.007177053
v 0.03806328 -0.05319601 0.007177053
v 0.03611581 -0.05715646 -0.007177053
v 0.04492925 -0.03730766 0.007177053
v 0.0505938 -0.02365331 -0.007177053
v 0.03806328 -0.05319601 0.007177053
v 0.03978804 0.05715646 -0.007177053
v 0.0505938 -0.02365331 -0.007177053
v 0.05830489 0.01869101 -0.007177053
v 0.03611581 -0.05715646 -0.007177053
v -0.05830489 0.03336359 -0.007177053
v -0.05732596 0.03773105 -0.007177053
v 0.03611581 -0.05715646 -0.007177053
v -0.05592518 0.03690967 0.007177053
v 0.03806328 -0.05319601 0.007177053
v -0.05736156 0.03688695 0.003729209
v -0.05830489 0.03336359 -0.007177053
v -0.05732596 0.03773105 -0.007177053
v -0.05592518 0.03690967 0.007177053
v -0.05736156 0.03688695 0.003729209
v 0.04121077 0.05633947 0.007177053
v 0.03978804 0.05715646 -0.007177053
v 0.03978804 0.05715646 -0.007177053
v 0.05628166 0.02503243 0.007177053
v 0.04121077 0.05633947 0.007177053
v 0.05830489 0.01869101 -0.007177053
vt 0.2569865 0.03331679
vt 0.2631364 0.03277951
vt 0.2569865 0.0305369
vt 0.6677874 0.8164361
vt 0.636799 0.808342
vt 0.6408353 0.8164361
vt 0.6764784 0.808342
vt 0.7433935 0.5050247
vt 0.7864535 0.4637448
vt 0.7659076 0.4716054
vt 0.8210685 0.5143643
vt 0.7394225 0.5152485
vt 0.6891121 0.8164361
vt 0.6764784 0.808342
vt 0.6677874 0.8164361
vt 0.6865913 0.808342
vt 0.8132648 0.4997382
vt 0.8441883 0.4580972
vt 0.822036 0.4741728
vt 0.8654415 0.4489764
vt 0.8674163 0.5309789
vt 0.8650499 0.5325581
vt 0.4090923 0.9904861
vt 0.3265279 0.999
vt 0.4081787 0.999
vt 0.3259059 0.996955
vt 0.3270659 0.9904861
vt 0.8674157 0.59176
vt 0.8755099 0.5926262
vt 0.8735656 0.591738
vt 0.8755098 0.6526894
vt 0.8674157 0.6518097
vt 0.6163521 0.8164361
vt 0.636799 0.808342
vt 0.6168721 0.808342
vt 0.6408353 0.8164361
vn -0.9769927 0.2127383 0.01508895
vn -0.9769927 0.2127383 0.01508895
vn -0.9769927 0.2127383 0.01508895
vn 0.9577204 -0.1694303 0.232519
vn 0.9577204 -0.1694303 0.232519
vn 0.9577204 -0.1694303 0.232519
vn 0.9577204 -0.1694303 0.2325187
vn 0 0 1
vn 0 0 1
vn 0 0 1
vn 0 0 1
vn 0 0 1
vn 0.9219167 -0.3870312 -0.01662201
vn 0.9219167 -0.3870312 -0.01662201
vn 0.9219167 -0.3870312 -0.01662201
vn 0.9219167 -0.3870314 -0.01662156
vn 0 0 -1
vn 0 0 -1
vn 0 0 -1
vn 0 0 -1
vn 0 0 -1
vn 0 0 -1
vn -0.6677819 -0.6766884 0.3100969
vn -0.6677819 -0.6766884 0.3100969
vn -0.6677819 -0.6766884 0.3100969
vn -0.6677816 -0.6766882 0.3100981
vn -0.6677818 -0.6766884 0.3100973
vn -0.2009572 0.9759451 0.084542
vn -0.2009572 0.9759451 0.08454199
vn -0.2009572 0.9759452 0.08454199
vn -0.2009476 0.9759472 0.08454111
vn -0.2009476 0.9759471 0.08454151
vn 0.903549 0.4225519 -0.07105812
vn 0.903549 0.4225519 -0.07105811
vn 0.903549 0.4225519 -0.07105812
vn 0.903549 0.4225516 -0.07105879
g Box023_frag_050_0
f 3/3/3 2/2/2 1/1/1
f 6/6/6 5/5/5 4/4/4
f 7/7/7 4/4/4 5/5/5
f 10/10/10 9/9/9 8/8/8
f 9/9/9 11/11/11 8/8/8
f 8/8/8 11/11/11 12/12/12
f 15/15/15 14/14/14 13/13/13
f 16/16/16 13/13/13 14/14/14
f 19/19/19 18/18/18 17/17/17
f 18/18/18 20/20/20 17/17/17
f 20/20/20 21/21/21 17/17/17
f 17/17/17 21/21/21 22/22/22
f 25/25/25 24/24/24 23/23/23
f 24/24/24 26/26/26 23/23/23
f 23/23/23 26/26/26 27/27/27
f 30/30/30 29/29/29 28/28/28
f 29/29/29 31/31/31 28/28/28
f 28/28/28 31/31/31 32/32/32
f 35/35/35 34/34/34 33/33/33
f 36/36/36 33/33/33 34/34/34
