g Box023_frag_100
v -0.05113202 -0.04911489 0.007177051
v 0.02605534 -0.06107273 -0.007177053
v -0.05340707 -0.04731436 -0.007177053
v 0.02336469 -0.06201347 0.007177051
v -0.03307062 0.05703705 -0.007177053
v -0.05918902 0.01691913 0.007177051
v -0.06078178 0.01312774 -0.007177053
v -0.03504572 0.05517503 0.007177051
v -0.05918902 0.01691913 0.007177051
v 0.02336469 -0.06201347 0.007177051
v -0.05113202 -0.04911489 0.007177051
v 0.007835521 0.06076235 0.007177051
v -0.03504572 0.05517503 0.007177051
v 0.06078178 -0.03651534 0.007177053
v -0.03504572 0.05517503 0.007177051
v 0.005122267 0.06201349 -0.007177053
v 0.007835521 0.06076235 0.007177051
v -0.03307062 0.05703705 -0.007177053
v 0.06078178 -0.03651534 0.007177053
v 0.02605534 -0.06107273 -0.007177053
v 0.02336469 -0.06201347 0.007177051
v 0.0596538 -0.03817684 -0.007177053
v 0.02605534 -0.06107273 -0.007177053
v -0.06078178 0.01312774 -0.007177053
v -0.05340707 -0.04731436 -0.007177053
v -0.03307062 0.05703705 -0.007177053
v 0.005122267 0.06201349 -0.007177053
v 0.0596538 -0.03817684 -0.007177053
v 0.0596538 -0.03817684 -0.007177053
v 0.007835521 0.06076235 0.007177051
v 0.005122267 0.06201349 -0.007177053
v 0.06078178 -0.03651534 0.007177053
v -0.05113202 -0.04911489 0.007177051
v -0.06078178 0.01312774 -0.007177053
v -0.05918902 0.01691913 0.007177051
v -0.05340707 -0.04731436 -0.007177053
vt 0.5685307 0.9050467
vt 0.6162589 0.8969527
vt 0.5671239 0.8969527
vt 0.6145951 0.9050467
vt 0.7868991 0.70004
vt 0.7788051 0.725575
vt 0.7868991 0.7279882
vt 0.7788051 0.7012252
vt 0.5622011 0.7945858
vt 0.6132476 0.7443453
vt 0.5671831 0.7525553
vt 0.6036452 0.8224919
vt 0.57713 0.8189356
vt 0.6363842 0.7605748
vt 0.116126 0.8902782
vt 0.09128843 0.8821842
vt 0.0896107 0.8902782
vt 0.1149047 0.8821842
vt 0.6377317 0.9050467
vt 0.6162589 0.8969527
vt 0.6145951 0.9050467
vt 0.6370342 0.8969527
vt 0.4538991 0.6900842
vt 0.5208077 0.6648467
vt 0.4846987 0.6508119
vt 0.5374401 0.6930969
vt 0.5291497 0.7154359
vt 0.4570131 0.7152694
vt 0.7524394 0.9215668
vt 0.7443453 0.9845414
vt 0.7524394 0.9853377
vt 0.7443453 0.9226243
vt 0.7788051 0.7676056
vt 0.7868991 0.7279882
vt 0.7788051 0.725575
vt 0.7868991 0.7664595
vn -0.1744309 -0.9787003 -0.1082568
vn -0.1744309 -0.9787003 -0.1082568
vn -0.1744309 -0.9787003 -0.1082568
vn -0.1744307 -0.9787005 -0.1082557
vn -0.8513725 0.5219747 -0.05203105
vn -0.8513725 0.5219747 -0.05203106
vn -0.8513725 0.5219747 -0.05203106
vn -0.8513725 0.5219747 -0.05203088
vn 0 0 1
vn 0 0 1
vn 0 0 1
vn 0 0 1
vn 0 0 1
vn 0 0 1
vn -0.1319055 0.9834632 0.1241003
vn -0.1319054 0.9834632 0.1241003
vn -0.1319055 0.9834632 0.1241003
vn -0.1319055 0.9834633 0.1241001
vn 0.5733214 -0.8173186 0.05738324
vn 0.5733214 -0.8173186 0.05738325
vn 0.5733214 -0.8173187 0.05738325
vn 0.5733212 -0.8173187 0.05738376
vn 0 0 -1
vn 0 0 -1
vn 0 0 -1
vn 0 0 -1
vn 0 0 -1
vn 0 0 -1
vn 0.8758177 0.463092 -0.1359746
vn 0.8758177 0.463092 -0.1359746
vn 0.8758177 0.463092 -0.1359746
vn 0.8758175 0.463092 -0.1359757
vn -0.9811921 -0.116303 0.1540645
vn -0.9811921 -0.116303 0.1540645
vn -0.9811921 -0.116303 0.1540645
vn -0.9811921 -0.1163031 0.1540642
g Box023_frag_100_0
f 3/3/3 2/2/2 1/1/1
f 4/4/4 1/1/1 2/2/2
f 7/7/7 6/6/6 5/5/5
f 8/8/8 5/5/5 6/6/6
f 11/11/11 10/10/10 9/9/9
f 10/10/10 12/12/12 9/9/9
f 9/9/9 12/12/12 13/13/13
f 14/14/14 12/12/12 10/10/10
f 17/17/17 16/16/16 15/15/15
f 18/18/18 15/15/15 16/16/16
f 21/21/21 20/20/20 19/19/19
f 22/22/22 19/19/19 20/20/20
f 25/25/25 24/24/24 23/23/23
f 24/24/24 26/26/26 23/23/23
f 26/26/26 27/27/27 23/23/23
f 23/23/23 27/27/27 28/28/28
f 31/31/31 30/30/30 29/29/29
f 32/32/32 29/29/29 30/30/30
f 35/35/35 34/34/34 33/33/33
f 36/36/36 33/33/33 34/34/34
