g Box023_frag_038
v -0.04622824 0.003288411 -0.007177053
v 0.0361737 0.0719884 0.007177053
v -0.04649122 0.003604946 0.007177053
v 0.03609269 0.0713873 -0.007177053
v 0.04693035 0.06610223 0.007177053
v 0.03609269 0.0713873 -0.007177053
v 0.0493722 0.06412061 -0.007177053
v 0.0361737 0.0719884 0.007177053
v 0.03609269 0.0713873 -0.007177053
v 0.07306149 0.03312981 -0.007177053
v 0.0493722 0.06412061 -0.007177053
v 0.04697384 -0.01021527 -0.007177053
v -0.07293093 -0.0719884 -0.007177053
v -0.04622824 0.003288411 -0.007177053
v 0.04697384 -0.01021527 -0.007177053
v -0.07306147 -0.07129849 0.007177053
v 0.04595625 -0.009982364 0.007177053
v -0.07293093 -0.0719884 -0.007177053
v -0.07306147 -0.07129849 0.007177053
v -0.04622824 0.003288411 -0.007177053
v -0.04649122 0.003604946 0.007177053
v -0.07293093 -0.0719884 -0.007177053
v 0.0361737 0.0719884 0.007177053
v -0.07306147 -0.07129849 0.007177053
v -0.04649122 0.003604946 0.007177053
v 0.04595625 -0.009982364 0.007177053
v 0.07200533 0.03329862 0.007177053
v 0.04693035 0.06610223 0.007177053
v 0.0493722 0.06412061 -0.007177053
v 0.07200533 0.03329862 0.007177053
v 0.04693035 0.06610223 0.007177053
v 0.07306149 0.03312981 -0.007177053
v 0.07200533 0.03329862 0.007177053
v 0.04697384 -0.01021527 -0.007177053
v 0.04595625 -0.009982364 0.007177053
v 0.07306149 0.03312981 -0.007177053
vt 0.9099694 0.7345397
vt 0.9018754 0.6835871
vt 0.9018754 0.7347023
vt 0.9099694 0.6836372
vt 0.9018754 0.6769358
vt 0.9099694 0.6836372
vt 0.9099694 0.6754259
vt 0.9018754 0.6835871
vt 0.383374 0.3650962
vt 0.3815151 0.3317487
vt 0.3800569 0.3562749
vt 0.4116062 0.3209831
vt 0.4936758 0.338521
vt 0.4502291 0.3646117
vt 0.7250348 0.7492682
vt 0.6508119 0.7573623
vt 0.7244055 0.7573623
vt 0.6508926 0.7492682
vt 0.9367744 0.9067983
vt 0.9842488 0.9148923
vt 0.9844504 0.9067983
vt 0.9363353 0.9148923
vt 0.3967507 0.2782885
vt 0.5092763 0.293055
vt 0.4635683 0.2717549
vt 0.4300798 0.318883
vt 0.3990741 0.3113329
vt 0.3948253 0.2856756
vt 0.9375965 0.870587
vt 0.9572147 0.862493
vt 0.9363353 0.862493
vt 0.9573221 0.870587
vt 0.9572147 0.862493
vt 0.9849112 0.870587
vt 0.9847629 0.862493
vt 0.9573221 0.870587
vn -0.6479916 0.7609767 -0.03195999
vn -0.6479916 0.7609766 -0.03195999
vn -0.6479916 0.7609767 -0.03195999
vn -0.6479916 0.7609767 -0.03195992
vn 0.4902971 0.8704349 -0.0441774
vn 0.4902971 0.8704349 -0.0441774
vn 0.4902971 0.8704349 -0.0441774
vn 0.4902981 0.8704344 -0.04417841
vn 0 0 -1
vn 0 0 -1
vn 0 0 -1
vn 0 0 -1
vn 0 0 -1
vn 0 0 -1
vn 0.467862 -0.8822392 0.05252915
vn 0.467862 -0.8822392 0.05252915
vn 0.467862 -0.8822392 0.05252915
vn 0.467862 -0.8822392 0.05252928
vn -0.9450898 0.3256857 -0.02709362
vn -0.9450898 0.3256857 -0.02709362
vn -0.9450898 0.3256857 -0.02709362
vn -0.9450898 0.3256857 -0.02709379
vn 0 0 1
vn 0 0 1
vn 0 0 1
vn 0 0 1
vn 0 0 1
vn 0 0 1
vn 0.8015506 0.5952258 0.05677056
vn 0.8015506 0.5952257 0.05677056
vn 0.8015506 0.5952258 0.05677056
vn 0.8015506 0.5952259 0.05677115
vn 0.8607625 -0.503281 0.07613187
vn 0.8607625 -0.503281 0.07613187
vn 0.8607625 -0.503281 0.07613187
vn 0.8607629 -0.5032807 0.07613034
g Box023_frag_038_0
f 3/3/3 2/2/2 1/1/1
f 4/4/4 1/1/1 2/2/2
f 7/7/7 6/6/6 5/5/5
f 8/8/8 5/5/5 6/6/6
f 11/11/11 10/10/10 9/9/9
f 10/10/10 12/12/12 9/9/9
f 12/12/12 13/13/13 9/9/9
f 9/9/9 13/13/13 14/14/14
f 17/17/17 16/16/16 15/15/15
f 18/18/18 15/15/15 16/16/16
f 21/21/21 20/20/20 19/19/19
f 22/22/22 19/19/19 20/20/20
f 25/25/25 24/24/24 23/23/23
f 24/24/24 26/26/26 23/23/23
f 26/26/26 27/27/27 23/23/23
f 23/23/23 27/27/27 28/28/28
f 31/31/31 30/30/30 29/29/29
f 32/32/32 29/29/29 30/30/30
f 35/35/35 34/34/34 33/33/33
f 36/36/36 33/33/33 34/34/34
