g Box023_frag_110
v 0.06780948 -0.02918588 -0.007177053
v 0.07026825 -0.02791005 -0.005022799
v 0.07055608 -0.02778364 -0.007177053
v 0.06780948 -0.02918588 -0.007177053
v 0.06716114 -0.02268311 0.007177053
v 0.07026825 -0.02791005 -0.005022799
v -0.05203922 -0.04324911 -0.007177053
v -0.0540625 -0.03690765 0.007177053
v 0.05125931 0.04129373 0.007177053
v -0.06913335 -0.005600589 0.007177053
v -0.04467579 0.0402375 0.007177053
v 0.06716114 -0.02268311 0.007177053
v -0.0540625 -0.03690765 0.007177053
v -0.04467579 0.0402375 0.007177053
v -0.07055607 -0.004783615 -0.007177053
v -0.04550563 0.04216563 -0.007177053
v -0.06913335 -0.005600589 0.007177053
v -0.0540625 -0.03690765 0.007177053
v -0.07055607 -0.004783615 -0.007177053
v -0.06913335 -0.005600589 0.007177053
v -0.05203922 -0.04324911 -0.007177053
v 0.07026825 -0.02791005 -0.005022799
v 0.05290047 0.04324909 -0.007177053
v 0.07055608 -0.02778364 -0.007177053
v 0.06716114 -0.02268311 0.007177053
v 0.05125931 0.04129373 0.007177053
v 0.05125931 0.04129373 0.007177053
v -0.04550563 0.04216563 -0.007177053
v 0.05290047 0.04324909 -0.007177053
v -0.04467579 0.0402375 0.007177053
v -0.05203922 -0.04324911 -0.007177053
v -0.04550563 0.04216563 -0.007177053
v -0.07055607 -0.004783615 -0.007177053
v 0.05290047 0.04324909 -0.007177053
v 0.06780948 -0.02918588 -0.007177053
v 0.07055608 -0.02778364 -0.007177053
vt 0.8590865 0.5425099
vt 0.8606068 0.5437246
vt 0.8607848 0.5425099
vt 0.8590865 0.5425099
vt 0.8586856 0.550604
vt 0.8606068 0.5437246
vt 0.7849789 0.5425099
vt 0.7837279 0.550604
vt 0.9314124 0.7892523
vt 0.9612605 0.7148085
vt 0.9320847 0.7299315
vt 0.9721335 0.799085
vt 0.9811874 0.7241274
vt 0.3062146 0.464972
vt 0.3143087 0.4936279
vt 0.3143087 0.4637448
vt 0.3062146 0.4941479
vt 0.3062146 0.5140748
vt 0.3143087 0.4936279
vt 0.3062146 0.4941479
vt 0.3143087 0.5181111
vt 0.09059803 0.9727514
vt 0.04530535 0.9739661
vt 0.09051756 0.9739661
vt 0.08727109 0.9658721
vt 0.04654993 0.9658721
vt 0.8821842 0.5927529
vt 0.8902782 0.6525867
vt 0.8902782 0.591738
vt 0.8821842 0.6520735
vt 0.6202571 0.9850587
vt 0.6299579 0.9314124
vt 0.6114293 0.9595127
vt 0.6905452 0.9370871
vt 0.6948943 0.9839028
vt 0.6966766 0.9831926
vn 0.4651798 -0.885165 0.00952332
vn 0.4651798 -0.885165 0.00952332
vn 0.4651798 -0.885165 0.00952332
vn 0.1066558 -0.8831151 0.4568722
vn 0.1066558 -0.8831151 0.4568722
vn 0.1066558 -0.8831151 0.4568722
vn 0.1066686 -0.8831136 0.4568721
vn 0.1066683 -0.883113 0.4568736
vn 0 0 1
vn 0 0 1
vn 0 0 1
vn 0 0 1
vn 0 0 1
vn -0.8808464 0.4565819 0.1250699
vn -0.8808464 0.4565819 0.1250699
vn -0.8808464 0.4565819 0.1250699
vn -0.8808465 0.4565818 0.1250702
vn -0.9035494 -0.4225508 0.07105825
vn -0.9035494 -0.4225507 0.07105824
vn -0.9035494 -0.4225507 0.07105824
vn -0.9035493 -0.4225512 0.07105706
vn 0.960157 0.2318452 0.1560329
vn 0.960157 0.2318452 0.1560329
vn 0.960157 0.2318452 0.1560329
vn 0.9601578 0.2318453 0.1560284
vn 0.9601576 0.2318455 0.1560293
vn -0.01120337 0.9885318 0.1505965
vn -0.01120337 0.9885318 0.1505965
vn -0.01120337 0.9885318 0.1505965
vn -0.01120314 0.9885321 0.1505948
vn 0 0 -1
vn 0 0 -1
vn 0 0 -1
vn 0 0 -1
vn 0 0 -1
vn 0 0 -1
g Box023_frag_110_0
f 3/3/3 2/2/2 1/1/1
f 6/6/6 5/5/5 4/4/4
f 4/4/4 5/5/5 7/7/7
f 5/5/5 8/8/8 7/7/7
f 11/11/11 10/10/10 9/9/9
f 9/9/9 10/10/10 12/12/12
f 12/12/12 10/10/10 13/13/13
f 16/16/16 15/15/15 14/14/14
f 17/17/17 14/14/14 15/15/15
f 20/20/20 19/19/19 18/18/18
f 21/21/21 18/18/18 19/19/19
f 24/24/24 23/23/23 22/22/22
f 22/22/22 23/23/23 25/25/25
f 25/25/25 23/23/23 26/26/26
f 29/29/29 28/28/28 27/27/27
f 30/30/30 27/27/27 28/28/28
f 33/33/33 32/32/32 31/31/31
f 32/32/32 34/34/34 31/31/31
f 31/31/31 34/34/34 35/35/35
f 34/34/34 36/36/36 35/35/35
