g Box023_frag_059
v -0.05156345 0.01919376 0.007177053
v 0.01375203 -0.01609728 0.007177053
v -0.02171264 -0.01919376 0.007177053
v 0.05063222 0.01919376 0.007177053
v 0.01556309 -0.01525539 -0.007177053
v 0.05063222 0.01919376 0.007177053
v 0.05156345 0.01919376 -0.007177053
v 0.01375203 -0.01609728 0.007177053
v 0.05063222 0.01919376 0.007177053
v -0.05042005 0.01919376 -0.007177053
v 0.05156345 0.01919376 -0.007177053
v -0.05156345 0.01919376 0.007177053
v -0.05042005 0.01919376 -0.007177053
v 0.01556309 -0.01525539 -0.007177053
v 0.05156345 0.01919376 -0.007177053
v -0.02113983 -0.01845998 -0.007177053
v -0.02113983 -0.01845998 -0.007177053
v 0.01375203 -0.01609728 0.007177053
v 0.01556309 -0.01525539 -0.007177053
v -0.02171264 -0.01919376 0.007177053
v -0.05042005 0.01919376 -0.007177053
v -0.02171264 -0.01919376 0.007177053
v -0.02113983 -0.01845998 -0.007177053
v -0.05156345 0.01919376 0.007177053
vt 0.1240704 0.2420375
vt 0.1644578 0.2195749
vt 0.1425285 0.2176039
vt 0.1872624 0.2420375
vt 0.7477033 0.9018754
vt 0.769388 0.9099694
vt 0.7699638 0.9018754
vt 0.7465834 0.9099694
vt 0.7819764 0.9847587
vt 0.7738823 0.9222738
vt 0.7738823 0.9853346
vt 0.7819764 0.9215668
vt 0.9157081 0.9652245
vt 0.8749079 0.9432977
vt 0.8526473 0.9652245
vt 0.8976028 0.941258
vt 0.7250083 0.9018754
vt 0.7465834 0.9099694
vt 0.7477033 0.9018754
vt 0.7246541 0.9099694
vt 0.146933 0.1831442
vt 0.1388389 0.2075778
vt 0.146933 0.2071108
vt 0.1388389 0.1831442
vn 0 0 1
vn 0 0 1
vn 0 0 1
vn 0 0 1
vn 0.7008736 -0.7115406 0.04986082
vn 0.7008736 -0.7115407 0.04986082
vn 0.7008736 -0.7115406 0.04986081
vn 0.7008733 -0.7115409 0.04986189
vn 0 1 0
vn 0 1 0
vn 0 1 0
vn 0 1 0
vn 0 0 -1
vn 0 0 -1
vn 0 0 -1
vn 0 0 -1
vn 0.08938641 -0.9945603 -0.05347716
vn 0.08938641 -0.9945603 -0.05347716
vn 0.08938642 -0.9945603 -0.05347717
vn 0.08938649 -0.9945603 -0.05347736
vn -0.7959822 -0.6013137 -0.06952884
vn -0.7959821 -0.6013137 -0.06952884
vn -0.7959822 -0.6013137 -0.06952884
vn -0.7959822 -0.6013137 -0.06952894
g Box023_frag_059_0
f 3/3/3 2/2/2 1/1/1
f 4/4/4 1/1/1 2/2/2
f 7/7/7 6/6/6 5/5/5
f 8/8/8 5/5/5 6/6/6
f 11/11/11 10/10/10 9/9/9
f 12/12/12 9/9/9 10/10/10
f 15/15/15 14/14/14 13/13/13
f 16/16/16 13/13/13 14/14/14
f 19/19/19 18/18/18 17/17/17
f 20/20/20 17/17/17 18/18/18
f 23/23/23 22/22/22 21/21/21
f 24/24/24 21/21/21 22/22/22
