g Box023_frag_108
v -0.07440686 -0.03911892 -0.007177053
v 0.05507679 -0.01124643 0.009393306
v 0.05508425 -0.01124899 0.009360528
v 0.05507679 -0.01124643 0.009393306
v -0.07440686 -0.03911892 -0.007177053
v -0.07405619 -0.03817352 0.007177053
v 0.05512162 -0.01107959 0.009393306
v -0.03801311 0.04409362 -0.007177053
v 0.05512978 -0.0110696 0.009360529
v -0.03801311 0.04409362 -0.007177053
v -0.03995495 0.03953956 0.007177051
v 0.05516753 -0.01119861 0.00936053
v 0.05512162 -0.01107959 0.009393306
v 0.05512978 -0.0110696 0.009360529
v 0.05515635 -0.01119831 0.009393306
v 0.05515635 -0.01119831 0.009393306
v -0.03995495 0.03953956 0.007177051
v 0.05512162 -0.01107959 0.009393306
v -0.07405619 -0.03817352 0.007177053
v 0.05507679 -0.01124643 0.009393306
v -0.07512284 -0.03672952 0.007177053
v -0.07405619 -0.03817352 0.007177053
v -0.07562328 -0.03747219 -0.007177053
v -0.07512284 -0.03672952 0.007177053
v -0.07440686 -0.03911892 -0.007177053
v -0.07562328 -0.03747219 -0.007177053
v 0.05512978 -0.0110696 0.009360529
v -0.03801311 0.04409362 -0.007177053
v 0.05508425 -0.01124899 0.009360528
v -0.07440686 -0.03911892 -0.007177053
v 0.05516753 -0.01119861 0.00936053
v 0.05508425 -0.01124899 0.009360528
v 0.05515635 -0.01119831 0.009393306
v 0.05516753 -0.01119861 0.00936053
v 0.05507679 -0.01124643 0.009393306
v -0.07562328 -0.03747219 -0.007177053
v -0.03995495 0.03953956 0.007177051
v -0.07512284 -0.03672952 0.007177053
v -0.03801311 0.04409362 -0.007177053
vt 0.814621 0.5370852
vt 0.7345558 0.5277414
vt 0.7345511 0.5277599
vt 0.7345558 0.5277414
vt 0.814621 0.5370852
vt 0.8144041 0.5289912
vt 0.9166464 0.01208366
vt 0.9749755 0.01084563
vt 0.9166439 0.01206466
vt 0.9749755 0.01084563
vt 0.975038 0.01902807
vt 0.2176039 0.06499662
vt 0.2176797 0.06501511
vt 0.2176861 0.06499662
vt 0.2176041 0.06501511
vt 0.1517766 0.08320647
vt 0.0846879 0.08411063
vt 0.1517222 0.08326311
vt 0.08929191 0.0305369
vt 0.1517475 0.08315632
vt 0.08827806 0.03103878
vt 0.9904861 0.3241178
vt 0.9985802 0.3236714
vt 0.9904861 0.3231987
vt 0.9985802 0.3247195
vt 0.5906333 0.6470706
vt 0.5080559 0.6466989
vt 0.5570915 0.6930175
vt 0.5081071 0.646593
vt 0.5901155 0.645889
vt 0.5080501 0.6466138
vt 0.7345511 0.5277599
vt 0.7345066 0.5277414
vt 0.7344997 0.5277599
vt 0.7345558 0.5277414
vt 0.9985802 0.3236714
vt 0.9904861 0.2746536
vt 0.9904861 0.3231987
vt 0.9985802 0.2717549
vn 0.1992997 -0.9705757 0.1351385
vn 0.1992997 -0.9705757 0.1351385
vn 0.1992997 -0.9705757 0.1351385
vn 0.208392 -0.9757507 0.06695737
vn 0.208392 -0.9757507 0.06695737
vn 0.208392 -0.9757507 0.06695737
vn 0.430188 0.8109745 0.3965584
vn 0.430188 0.8109745 0.3965584
vn 0.430188 0.8109745 0.3965584
vn 0.4425156 0.8214123 0.359808
vn 0.4425155 0.8214123 0.359808
vn 0.9059539 0.257489 0.3360756
vn 0.9059539 0.257489 0.3360756
vn 0.9059539 0.257489 0.3360756
vn 0.9060212 0.2575743 0.3358291
vn -0.02186426 0.006930565 0.999737
vn -0.01701005 0.007242005 0.9998291
vn -0.02517195 -0.007156176 0.9996575
vn -0.008307816 0.003541574 0.9999592
vn -0.02386978 0.03836392 0.9989787
vn 0 0 1
vn -0.8107376 -0.581793 0.06497274
vn -0.8107376 -0.5817931 0.06497274
vn -0.8107376 -0.5817931 0.06497274
vn -0.8107337 -0.5817984 0.06497198
vn 0.111808 0.01382372 -0.9936336
vn 0.09629183 -0.03166685 -0.9948493
vn 0.1259656 -0.05642619 -0.9904286
vn 0.08739892 -0.02105164 -0.9959509
vn 0.09972885 0.07156736 -0.9924375
vn 2.991754E-05 -7.34343E-07 -1
vn 0.5176595 -0.8313606 0.2021588
vn 0.5176595 -0.8313606 0.2021588
vn 0.5176595 -0.8313606 0.2021588
vn 0.5176049 -0.8313619 0.2022931
vn -0.9125649 0.4087835 0.01101457
vn -0.9125649 0.4087834 0.01101457
vn -0.9125649 0.4087835 0.01101457
vn -0.9125651 0.4087829 0.01101836
g Box023_frag_108_0
f 3/3/3 2/2/2 1/1/1
f 6/6/6 5/5/5 4/4/4
f 9/9/9 8/8/8 7/7/7
f 11/11/11 7/7/7 10/10/10
f 14/14/14 13/13/13 12/12/12
f 15/15/15 12/12/12 13/13/13
f 18/18/18 17/17/17 16/16/16
f 17/17/17 19/19/19 16/16/16
f 16/16/16 19/19/19 20/20/20
f 21/21/21 19/19/19 17/17/17
f 24/24/24 23/23/23 22/22/22
f 25/25/25 22/22/22 23/23/23
f 28/28/28 27/27/27 26/26/26
f 27/27/27 29/29/29 26/26/26
f 26/26/26 29/29/29 30/30/30
f 31/31/31 29/29/29 27/27/27
f 34/34/34 33/33/33 32/32/32
f 35/35/35 32/32/32 33/33/33
f 38/38/38 37/37/37 36/36/36
f 39/39/39 36/36/36 37/37/37
