g Box023_frag_052
v -0.03629757 -0.0625734 0.007177053
v -0.03853847 -0.05849836 -0.005022672
v -0.04164552 -0.05327149 0.007177053
v -0.04228472 0.04033145 0.007177053
v 0.04354961 0.09584651 -0.007177053
v 0.04637554 0.09940533 0.007177053
v -0.04263432 0.0384226 -0.007177053
v 0.02762246 -0.09728424 -0.007177053
v -0.03825062 -0.05837194 -0.007177053
v 0.008113478 -0.09860902 -0.007177053
v -0.04263432 0.0384226 -0.007177053
v -0.05590621 0.01266073 -0.007177053
v 0.04354961 0.09584651 -0.007177053
v 0.0543626 -0.05173715 -0.007177053
v -0.04228472 0.04033145 0.007177053
v -0.04164552 -0.05327149 0.007177053
v -0.05754737 0.01070537 0.007177053
v -0.03629757 -0.0625734 0.007177053
v 0.05754735 -0.05307578 0.007177053
v 0.04637554 0.09940533 0.007177053
v 0.006142879 -0.09940536 0.007177053
v 0.03135292 -0.09769341 0.007177053
v 0.04354961 0.09584651 -0.007177053
v 0.05754735 -0.05307578 0.007177053
v 0.04637554 0.09940533 0.007177053
v 0.0543626 -0.05173715 -0.007177053
v 0.0543626 -0.05173715 -0.007177053
v 0.03135292 -0.09769341 0.007177053
v 0.05754735 -0.05307578 0.007177053
v 0.02762246 -0.09728424 -0.007177053
v 0.02762246 -0.09728424 -0.007177053
v 0.006142879 -0.09940536 0.007177053
v 0.03135292 -0.09769341 0.007177053
v 0.008113478 -0.09860902 -0.007177053
v -0.04228472 0.04033145 0.007177053
v -0.05590621 0.01266073 -0.007177053
v -0.04263432 0.0384226 -0.007177053
v -0.05754737 0.01070537 0.007177053
v 0.008113478 -0.09860902 -0.007177053
v -0.03629757 -0.0625734 0.007177053
v 0.006142879 -0.09940536 0.007177053
v -0.03853847 -0.05849836 -0.005022672
v -0.03825062 -0.05837194 -0.007177053
v -0.03825062 -0.05837194 -0.007177053
v -0.04164552 -0.05327149 0.007177053
v -0.03853847 -0.05849836 -0.005022672
v -0.05754737 0.01070537 0.007177053
v -0.05590621 0.01266073 -0.007177053
vt 0.7394226 0.8132648
vt 0.7420163 0.820144
vt 0.7453432 0.8132648
vt 0.8969527 0.7942449
vt 0.9050467 0.7411699
vt 0.8969527 0.7394225
vt 0.9050467 0.7944611
vt 0.1953265 0.4773838
vt 0.1564213 0.4498352
vt 0.1832338 0.4773835
vt 0.1580149 0.3881866
vt 0.1486845 0.4039716
vt 0.2137259 0.3554428
vt 0.213843 0.4496171
vt 0.133508 0.8628246
vt 0.1339032 0.8032464
vt 0.1240704 0.8439676
vt 0.1372101 0.7973258
vt 0.1952384 0.803371
vt 0.1883304 0.9004249
vt 0.1634528 0.7738823
vt 0.1790412 0.774972
vt 0.7296943 0.01576845
vt 0.6349055 0.02386256
vt 0.7319595 0.02386256
vt 0.6357576 0.01576845
vt 0.6357576 0.01576845
vt 0.6065065 0.02386256
vt 0.6349055 0.02386256
vt 0.6067669 0.01576845
vt 0.01893974 0.2683597
vt 0.01084564 0.255078
vt 0.01084564 0.2706664
vt 0.01893974 0.2562964
vt 0.8049213 0.8132648
vt 0.7873089 0.8213589
vt 0.8037063 0.8213589
vt 0.7860643 0.8132648
vt 0.01893974 0.2562964
vt 0.01084564 0.2288353
vt 0.01084564 0.255078
vt 0.01772491 0.2274496
vt 0.01893974 0.2276276
vt 0.7420967 0.8213589
vt 0.7453432 0.8132648
vt 0.7420163 0.820144
vt 0.7860643 0.8132648
vt 0.7873089 0.8213589
vn -0.8730244 -0.4876108 -0.008001407
vn -0.8730244 -0.4876108 -0.008001407
vn -0.8730244 -0.4876108 -0.008001407
vn -0.5622985 0.8198453 -0.1080474
vn -0.5622984 0.8198453 -0.1080474
vn -0.5622984 0.8198453 -0.1080474
vn -0.5622984 0.8198455 -0.1080465
vn 0 0 -1
vn 0 0 -1
vn 0 0 -1
vn 0 0 -1
vn 0 0 -1
vn 0 0 -1
vn 0 0 -1
vn 0 0 1
vn 0 0 1
vn 0 0 1
vn 0 0 1
vn 0 0 1
vn 0 0 1
vn 0 0 1
vn 0 0 1
vn 0.9709792 0.06911136 -0.2289606
vn 0.9709792 0.06911137 -0.2289606
vn 0.9709792 0.06911138 -0.2289606
vn 0.9709792 0.06911135 -0.2289606
vn 0.8399802 -0.4790749 -0.2547947
vn 0.8399803 -0.4790748 -0.2547947
vn 0.8399803 -0.4790748 -0.2547947
vn 0.8399794 -0.4790751 -0.2547973
vn 0.06963655 -0.9962213 -0.05190085
vn 0.06963655 -0.9962213 -0.05190086
vn 0.06963655 -0.9962213 -0.05190086
vn 0.06963655 -0.9962213 -0.05190089
vn -0.8934182 0.4471385 -0.04325745
vn -0.8934181 0.4471385 -0.04325745
vn -0.8934182 0.4471385 -0.04325745
vn -0.8934179 0.4471388 -0.04325816
vn -0.65913 -0.7378331 -0.1454306
vn -0.65913 -0.7378331 -0.1454306
vn -0.65913 -0.7378331 -0.1454306
vn -0.6591299 -0.7378336 -0.1454285
vn -0.6591288 -0.7378318 -0.145442
vn -0.9601599 -0.2318333 -0.156033
vn -0.9601599 -0.2318333 -0.156033
vn -0.9601599 -0.2318333 -0.156033
vn -0.9601578 -0.2318458 -0.1560275
vn -0.9601576 -0.2318453 -0.1560293
g Box023_frag_052_0
f 3/3/3 2/2/2 1/1/1
f 6/6/6 5/5/5 4/4/4
f 7/7/7 4/4/4 5/5/5
f 10/10/10 9/9/9 8/8/8
f 9/9/9 11/11/11 8/8/8
f 12/12/12 11/11/11 9/9/9
f 11/11/11 13/13/13 8/8/8
f 8/8/8 13/13/13 14/14/14
f 17/17/17 16/16/16 15/15/15
f 16/16/16 18/18/18 15/15/15
f 18/18/18 19/19/19 15/15/15
f 15/15/15 19/19/19 20/20/20
f 21/21/21 19/19/19 18/18/18
f 22/22/22 19/19/19 21/21/21
f 25/25/25 24/24/24 23/23/23
f 26/26/26 23/23/23 24/24/24
f 29/29/29 28/28/28 27/27/27
f 30/30/30 27/27/27 28/28/28
f 33/33/33 32/32/32 31/31/31
f 34/34/34 31/31/31 32/32/32
f 37/37/37 36/36/36 35/35/35
f 38/38/38 35/35/35 36/36/36
f 41/41/41 40/40/40 39/39/39
f 40/40/40 42/42/42 39/39/39
f 39/39/39 42/42/42 43/43/43
f 46/46/46 45/45/45 44/44/44
f 45/45/45 47/47/47 44/44/44
f 44/44/44 47/47/47 48/48/48
