g Box023_frag_058
v 0.02399392 0.0481759 -0.007177053
v 0.01359755 0.05184501 0.007177053
v 0.01755404 0.05233226 -0.007177053
v 0.02792868 0.04259561 0.007177053
v 0.02399392 0.0481759 -0.007177053
v -0.03087491 -0.04330036 -0.007177053
v 0.07494523 -0.05233232 -0.007177053
v -0.07299293 -0.02138724 -0.007177053
v 0.01755404 0.05233226 -0.007177053
v -0.07299293 -0.02138724 -0.007177053
v -0.03635119 -0.04032245 0.007177053
v -0.03087491 -0.04330036 -0.007177053
v -0.07494526 -0.0202427 0.007177053
v 0.01359755 0.05184501 0.007177053
v -0.07299293 -0.02138724 -0.007177053
v 0.01755404 0.05233226 -0.007177053
v -0.07494526 -0.0202427 0.007177053
v 0.07494523 -0.05233232 -0.007177053
v 0.02792868 0.04259561 0.007177053
v 0.02399392 0.0481759 -0.007177053
v 0.07477086 -0.04980691 0.007177051
v 0.01359755 0.05184501 0.007177053
v -0.03635119 -0.04032245 0.007177053
v -0.07494526 -0.0202427 0.007177053
v 0.02792868 0.04259561 0.007177053
v 0.07477086 -0.04980691 0.007177051
v 0.07477086 -0.04980691 0.007177051
v -0.03087491 -0.04330036 -0.007177053
v -0.03635119 -0.04032245 0.007177053
v 0.07494523 -0.05233232 -0.007177053
vt 0.8744431 0.9838119
vt 0.8680146 0.9757178
vt 0.870461 0.9838119
vt 0.8768761 0.9757178
vt 0.719439 0.6705031
vt 0.7422333 0.7339192
vt 0.7886967 0.6874898
vt 0.7148084 0.7449042
vt 0.7148528 0.6718531
vt 0.4255695 0.9904861
vt 0.4482266 0.9985802
vt 0.4516128 0.9904861
vt 0.4243622 0.9985802
vt 0.8680146 0.9757178
vt 0.814472 0.9838119
vt 0.870461 0.9838119
vt 0.8132648 0.9757177
vt 0.9936575 0.5622011
vt 0.9855635 0.6226225
vt 0.9936575 0.6261744
vt 0.9855635 0.5638086
vt 0.2180295 0.8059168
vt 0.1934454 0.7443453
vt 0.1683758 0.7545615
vt 0.2274579 0.8009881
vt 0.2624114 0.7455239
vt 0.5169381 0.9985802
vt 0.4516128 0.9904861
vt 0.4482266 0.9985802
vt 0.5170459 0.9904861
vn 0.5427088 0.8168913 0.1953348
vn 0.5427088 0.8168914 0.1953348
vn 0.5427088 0.8168914 0.1953348
vn 0.5427078 0.8168922 0.1953338
vn 0 0 -1
vn 0 0 -1
vn 0 0 -1
vn 0 0 -1
vn 0 0 -1
vn -0.4720942 -0.881503 0.008923392
vn -0.4720942 -0.881503 0.008923391
vn -0.4720942 -0.881503 0.008923392
vn -0.472095 -0.8815024 0.008926391
vn -0.633775 0.7562377 -0.1625845
vn -0.6337749 0.7562378 -0.1625845
vn -0.6337749 0.7562377 -0.1625845
vn -0.6337743 0.7562376 -0.1625885
vn 0.8945451 0.4405423 -0.07557539
vn 0.8945451 0.4405423 -0.07557539
vn 0.8945451 0.4405423 -0.07557539
vn 0.8945454 0.4405421 -0.07557244
vn 0 0 1
vn 0 0 1
vn 0 0 1
vn 0 0 1
vn 0 0 1
vn -0.08587582 -0.9774402 0.192966
vn -0.08587583 -0.9774402 0.192966
vn -0.08587583 -0.9774402 0.192966
vn -0.085876 -0.9774399 0.1929677
g Box023_frag_058_0
f 3/3/3 2/2/2 1/1/1
f 4/4/4 1/1/1 2/2/2
f 7/7/7 6/6/6 5/5/5
f 6/6/6 8/8/8 5/5/5
f 5/5/5 8/8/8 9/9/9
f 12/12/12 11/11/11 10/10/10
f 13/13/13 10/10/10 11/11/11
f 16/16/16 15/15/15 14/14/14
f 17/17/17 14/14/14 15/15/15
f 20/20/20 19/19/19 18/18/18
f 21/21/21 18/18/18 19/19/19
f 24/24/24 23/23/23 22/22/22
f 22/22/22 23/23/23 25/25/25
f 25/25/25 23/23/23 26/26/26
f 29/29/29 28/28/28 27/27/27
f 30/30/30 27/27/27 28/28/28
