g Box001
v -0.5 -0.15 -0.09
v 0.5 -0.15 -0.09
v 0.5 0.15 -0.09
v -0.5 0.15 -0.09
v -0.5 -0.15 0.09
v -0.5 0.15 0.09
v 0.5 0.15 0.09
v 0.5 -0.15 0.09
v -0.5 -0.15 -0.09
v -0.5 -0.15 0.09
v 0.5 -0.15 0.09
v 0.5 -0.15 -0.09
v 0.5 -0.15 -0.09
v 0.5 -0.15 0.09
v 0.5 0.15 0.09
v 0.5 0.15 -0.09
v 0.5 0.15 -0.09
v 0.5 0.15 0.09
v -0.5 0.15 0.09
v -0.5 0.15 -0.09
v -0.5 0.15 -0.09
v -0.5 0.15 0.09
v -0.5 -0.15 0.09
v -0.5 -0.15 -0.09
vt 0.7853085 0.2666296
vt 0.01 0.2666296
vt 0.01 0.4992222
vt 0.7853085 0.4992222
vt 0.7853085 0.2425926
vt 0.7853085 0.01
vt 0.01 0.01
vt 0.01 0.2425926
vt 0.7853085 0.6628148
vt 0.7853085 0.5232592
vt 0.01 0.5232592
vt 0.01 0.6628148
vt 0.4992222 0.99
vt 0.4992222 0.8504446
vt 0.2666296 0.8504446
vt 0.2666296 0.99
vt 0.7853085 0.8264074
vt 0.7853085 0.6868519
vt 0.01 0.6868519
vt 0.01 0.8264074
vt 0.2425926 0.99
vt 0.2425926 0.8504446
vt 0.01 0.8504446
vt 0.01 0.99
vn 0 0 -1
vn 0 0 -1
vn 0 0 -1
vn 0 0 -1
vn 0 0 1
vn 0 0 1
vn 0 0 1
vn 0 0 1
vn 0 -1 0
vn 0 -1 0
vn 0 -1 0
vn 0 -1 0
vn 1 0 0
vn 1 0 0
vn 1 0 0
vn 1 0 0
vn 0 1 0
vn 0 1 0
vn 0 1 0
vn 0 1 0
vn -1 0 0
vn -1 0 0
vn -1 0 0
vn -1 0 0
g Box001_0
f 3/3/3 2/2/2 1/1/1
f 4/4/4 3/3/3 1/1/1
f 7/7/7 6/6/6 5/5/5
f 8/8/8 7/7/7 5/5/5
f 11/11/11 10/10/10 9/9/9
f 12/12/12 11/11/11 9/9/9
f 15/15/15 14/14/14 13/13/13
f 16/16/16 15/15/15 13/13/13
f 19/19/19 18/18/18 17/17/17
f 20/20/20 19/19/19 17/17/17
f 23/23/23 22/22/22 21/21/21
f 24/24/24 23/23/23 21/21/21
