g Box023_frag_061
v 0.005189363 0.0620078 -0.007177053
v -0.06443226 -0.04397149 0.007177053
v -0.07149608 -0.04705315 -0.007177053
v 0.006222052 0.05651207 0.007177053
v 0.006222052 0.05651207 0.007177053
v 0.04537769 -0.05821641 0.007177051
v -0.06443226 -0.04397149 0.007177053
v 0.06952098 -0.01996049 0.007177051
v 0.005189363 0.0620078 -0.007177053
v 0.04378492 -0.0620078 -0.007177053
v 0.07149608 -0.01809849 -0.007177053
v -0.07149608 -0.04705315 -0.007177053
v 0.04378492 -0.0620078 -0.007177053
v -0.06443226 -0.04397149 0.007177053
v 0.04537769 -0.05821641 0.007177051
v -0.07149608 -0.04705315 -0.007177053
v 0.07149608 -0.01809849 -0.007177053
v 0.006222052 0.05651207 0.007177053
v 0.005189363 0.0620078 -0.007177053
v 0.06952098 -0.01996049 0.007177051
v 0.04537769 -0.05821641 0.007177051
v 0.07149608 -0.01809849 -0.007177053
v 0.04378492 -0.0620078 -0.007177053
v 0.06952098 -0.01996049 0.007177051
vt 0.6705031 0.9122187
vt 0.6785972 0.8447632
vt 0.6705031 0.8428017
vt 0.6785972 0.9087207
vt 0.7103404 0.6002722
vt 0.7712474 0.5532711
vt 0.7098856 0.5228186
vt 0.7700078 0.5818061
vt 0.7148085 0.4095938
vt 0.7881683 0.4472599
vt 0.779967 0.4155196
vt 0.7318037 0.4919245
vt 0.3071995 0.1026276
vt 0.3741148 0.09453353
vt 0.3062146 0.09453353
vt 0.3784826 0.1026276
vt 0.4227736 0.7788051
vt 0.4702631 0.7868991
vt 0.4737611 0.7788051
vt 0.4215884 0.7868991
vt 0.3972386 0.7868991
vt 0.4227736 0.7788051
vt 0.3948254 0.7788051
vt 0.4215884 0.7868991
vn -0.7889544 0.5389237 0.2951477
vn -0.7889544 0.5389237 0.2951477
vn -0.7889544 0.5389236 0.2951477
vn -0.7889544 0.5389236 0.2951477
vn 0 0 1
vn 0 0 1
vn 0 0 1
vn 0 0 1
vn 0 0 -1
vn 0 0 -1
vn 0 0 -1
vn 0 0 -1
vn -0.1263641 -0.9463174 0.2975153
vn -0.1263641 -0.9463174 0.2975153
vn -0.1263641 -0.9463174 0.2975153
vn -0.1263641 -0.9463175 0.2975152
vn 0.7627646 0.6133568 0.2048986
vn 0.7627647 0.6133568 0.2048987
vn 0.7627647 0.6133568 0.2048986
vn 0.7627646 0.6133565 0.2048998
vn 0.8513727 -0.5219746 0.05203065
vn 0.8513727 -0.5219746 0.05203064
vn 0.8513727 -0.5219746 0.05203064
vn 0.8513727 -0.5219744 0.05203135
g Box023_frag_061_0
f 3/3/3 2/2/2 1/1/1
f 4/4/4 1/1/1 2/2/2
f 7/7/7 6/6/6 5/5/5
f 8/8/8 5/5/5 6/6/6
f 11/11/11 10/10/10 9/9/9
f 12/12/12 9/9/9 10/10/10
f 15/15/15 14/14/14 13/13/13
f 16/16/16 13/13/13 14/14/14
f 19/19/19 18/18/18 17/17/17
f 20/20/20 17/17/17 18/18/18
f 23/23/23 22/22/22 21/21/21
f 24/24/24 21/21/21 22/22/22
