g Box023_frag_084
v 0.01961088 0.06877799 -0.005022626
v 0.01715194 0.06750204 -0.007177052
v 0.01989872 0.06890436 -0.007177052
v 0.02185175 0.06470298 0.007177052
v 0.01715194 0.06750204 -0.007177052
v 0.01961088 0.06877799 -0.005022626
v -0.02550458 0.02624368 -0.007177052
v -0.03222227 0.01240133 0.007177052
v 0.02185175 0.06470298 0.007177052
v 0.06626274 0.02866739 -0.007177052
v 0.06429216 0.02787107 0.007177052
v 0.01961088 0.06877799 -0.005022626
v 0.01989872 0.06890436 -0.007177052
v -0.0653825 -0.04593876 0.007177052
v 0.03823446 -0.04027884 0.007177052
v -0.04255811 -0.06753843 0.007177052
v -0.03222227 0.01240133 0.007177052
v 0.02185175 0.06470298 0.007177052
v 0.06429216 0.02787107 0.007177052
v 0.03823446 -0.04027884 0.007177052
v -0.04149305 -0.06890433 -0.007177052
v -0.04255811 -0.06753843 0.007177052
v 0.03938995 -0.04161416 -0.007177052
v -0.04149305 -0.06890433 -0.007177052
v -0.02550458 0.02624368 -0.007177052
v -0.06626273 -0.04546376 -0.007177052
v 0.06626274 0.02866739 -0.007177052
v 0.03938995 -0.04161416 -0.007177052
v 0.01715194 0.06750204 -0.007177052
v 0.01989872 0.06890436 -0.007177052
v 0.06429216 0.02787107 0.007177052
v 0.03938995 -0.04161416 -0.007177052
v 0.03823446 -0.04027884 0.007177052
v 0.06626274 0.02866739 -0.007177052
v -0.03222227 0.01240133 0.007177052
v -0.06626273 -0.04546376 -0.007177052
v -0.02550458 0.02624368 -0.007177052
v -0.0653825 -0.04593876 0.007177052
v -0.06626273 -0.04546376 -0.007177052
v -0.04255811 -0.06753843 0.007177052
v -0.04149305 -0.06890433 -0.007177052
v -0.0653825 -0.04593876 0.007177052
vt 0.1824541 0.09082556
vt 0.1839746 0.0896107
vt 0.1822762 0.0896107
vt 0.109302 0.2578346
vt 0.1180479 0.258637
vt 0.1167352 0.2569865
vt 0.1180478 0.2958572
vt 0.109302 0.3050172
vt 0.1810685 0.0977048
vt 0.1536073 0.0896107
vt 0.1548258 0.0977048
vt 0.1824541 0.09082556
vt 0.1822762 0.0896107
vt 0.5634008 0.503213
vt 0.606987 0.5503117
vt 0.5831034 0.5031273
vt 0.5523555 0.5441681
vt 0.5532824 0.5913416
vt 0.5884449 0.5927075
vt 0.740137 0.8280332
vt 0.7894359 0.8361272
vt 0.7900945 0.8280332
vt 0.7394225 0.8361272
vt 0.7991496 0.43209
vt 0.8483309 0.3953933
vt 0.7984964 0.4107181
vt 0.8902205 0.4337009
vt 0.8471926 0.4543371
vt 0.8855467 0.3948253
vt 0.8873886 0.3953631
vt 0.8920298 0.8427236
vt 0.9001238 0.7984964
vt 0.8920298 0.7993463
vt 0.9001238 0.8432304
vt 0.3138111 0.188067
vt 0.2769801 0.1961612
vt 0.3226217 0.1961612
vt 0.2766778 0.188067
vt 0.804752 0.8361272
vt 0.7900945 0.8280332
vt 0.7894359 0.8361272
vt 0.8042077 0.8280332
vn -0.4651761 0.8851667 -0.009539575
vn -0.4651761 0.8851667 -0.009539576
vn -0.4651761 0.8851667 -0.009539575
vn -0.6529733 0.6558471 0.3788013
vn -0.6529733 0.6558471 0.3788013
vn -0.6529733 0.6558471 0.3788013
vn -0.6529747 0.6558455 0.3788016
vn -0.6529747 0.6558451 0.3788024
vn 0.65913 0.7378331 0.1454297
vn 0.65913 0.7378331 0.1454297
vn 0.65913 0.7378331 0.1454297
vn 0.6591308 0.7378348 0.1454178
vn 0.6591308 0.7378348 0.1454178
vn 0 0 1
vn 0 0 1
vn 0 0 1
vn 0 0 1
vn 0 0 1
vn 0 0 1
vn 0.3254232 -0.9369847 0.1271202
vn 0.3254232 -0.9369847 0.1271202
vn 0.3254232 -0.9369847 0.1271202
vn 0.3254243 -0.9369851 0.1271147
vn 0 0 -1
vn 0 0 -1
vn 0 0 -1
vn 0 0 -1
vn 0 0 -1
vn 0 0 -1
vn 0 0 -1
vn 0.9308164 -0.3457534 0.1184715
vn 0.9308164 -0.3457533 0.1184715
vn 0.9308164 -0.3457533 0.1184715
vn 0.9308159 -0.3457537 0.1184744
vn -0.8728297 0.4819605 0.07669685
vn -0.8728297 0.4819605 0.07669685
vn -0.8728297 0.4819605 0.07669684
vn -0.8728297 0.4819607 0.07669599
vn -0.697638 -0.7161667 0.02016087
vn -0.697638 -0.7161667 0.02016087
vn -0.6976379 -0.7161667 0.02016087
vn -0.6976382 -0.7161665 0.02016161
g Box023_frag_084_0
f 3/3/3 2/2/2 1/1/1
f 6/6/6 5/5/5 4/4/4
f 5/5/5 7/7/7 4/4/4
f 4/4/4 7/7/7 8/8/8
f 11/11/11 10/10/10 9/9/9
f 10/10/10 12/12/12 9/9/9
f 13/13/13 12/12/12 10/10/10
f 16/16/16 15/15/15 14/14/14
f 14/14/14 15/15/15 17/17/17
f 17/17/17 15/15/15 18/18/18
f 18/18/18 15/15/15 19/19/19
f 22/22/22 21/21/21 20/20/20
f 23/23/23 20/20/20 21/21/21
f 26/26/26 25/25/25 24/24/24
f 25/25/25 27/27/27 24/24/24
f 24/24/24 27/27/27 28/28/28
f 29/29/29 27/27/27 25/25/25
f 30/30/30 27/27/27 29/29/29
f 33/33/33 32/32/32 31/31/31
f 34/34/34 31/31/31 32/32/32
f 37/37/37 36/36/36 35/35/35
f 38/38/38 35/35/35 36/36/36
f 41/41/41 40/40/40 39/39/39
f 42/42/42 39/39/39 40/40/40
