g Box023_frag_089
v -0.04150528 0.03752869 0.007177053
v 0.0253583 -0.03752875 0.0004896122
v -0.04406941 0.03639694 -0.003325253
v 0.02686391 -0.03667019 0.007177053
v 0.03096473 -0.02929327 -0.007177053
v 0.04406939 -0.01503651 0.007177053
v 0.04278888 -0.01442597 -0.007177053
v 0.02686391 -0.03667019 0.007177053
v 0.0253583 -0.03752875 0.0004896122
v 0.03901422 0.02252831 -0.007177053
v 0.03096473 -0.02929327 -0.007177053
v 0.04278888 -0.01442597 -0.007177053
v -0.03486416 0.03435743 -0.007177053
v -0.03486416 0.03435743 -0.007177053
v 0.0253583 -0.03752875 0.0004896122
v 0.03096473 -0.02929327 -0.007177053
v -0.04406941 0.03639694 -0.003325253
v 0.02686391 -0.03667019 0.007177053
v 0.04003371 0.02447301 0.007177053
v 0.04406939 -0.01503651 0.007177053
v -0.04150528 0.03752869 0.007177053
v 0.04406939 -0.01503651 0.007177053
v 0.03901422 0.02252831 -0.007177053
v 0.04278888 -0.01442597 -0.007177053
v 0.04003371 0.02447301 0.007177053
v -0.04150528 0.03752869 0.007177053
v 0.03901422 0.02252831 -0.007177053
v 0.04003371 0.02447301 0.007177053
v -0.04406941 0.03639694 -0.003325253
v -0.03486416 0.03435743 -0.007177053
vt 0.5277414 0.1831442
vt 0.5315124 0.2309182
vt 0.5336635 0.1838646
vt 0.5277414 0.2303717
vt 0.2060068 0.8185067
vt 0.1979127 0.8275811
vt 0.2060068 0.8279697
vt 0.1979127 0.8138113
vt 0.2016836 0.8132648
vt 0.8209224 0.9625028
vt 0.7951527 0.9836844
vt 0.8069181 0.9815444
vt 0.792012 0.9263402
vt 0.792012 0.9263402
vt 0.7890689 0.9852603
vt 0.7951527 0.9836844
vt 0.7886507 0.9215668
vt 0.8666366 0.9314124
vt 0.8454601 0.9650642
vt 0.8647243 0.9487079
vt 0.8034192 0.9360179
vt 0.1979127 0.8275811
vt 0.2060068 0.851491
vt 0.2060068 0.8279697
vt 0.1979127 0.8527288
vt 0.8833751 0.5801409
vt 0.8335865 0.5720468
vt 0.8329561 0.5801409
vt 0.8849606 0.5742188
vt 0.8792686 0.5720468
vn -0.7173803 -0.6421619 0.2701732
vn -0.7173803 -0.6421619 0.2701731
vn -0.7173803 -0.6421619 0.2701732
vn -0.7173815 -0.6421626 0.2701682
vn 0.7868519 -0.6079426 -0.1061604
vn 0.7868519 -0.6079426 -0.1061604
vn 0.7868519 -0.6079426 -0.1061604
vn 0.7868526 -0.6079411 -0.1061627
vn 0.7868547 -0.6079388 -0.1061607
vn 0 0 -1
vn 0 0 -1
vn 0 0 -1
vn 0 0 -1
vn -0.4052072 -0.4071198 -0.8185722
vn -0.4052072 -0.4071198 -0.8185722
vn -0.4052072 -0.4071199 -0.8185722
vn -0.4052054 -0.4071185 -0.8185738
vn 0 0 1
vn 0 0 1
vn 0 0 1
vn 0 0 1
vn 0.9908731 0.09832483 -0.0922101
vn 0.9908731 0.09832482 -0.09221009
vn 0.9908731 0.09832481 -0.09221009
vn 0.9908732 0.09832527 -0.09220879
vn 0.1604907 0.97375 -0.1614115
vn 0.1604907 0.97375 -0.1614115
vn 0.1604907 0.97375 -0.1614115
vn 0.1604904 0.9737498 -0.1614132
vn 0.1604914 0.9737521 -0.161398
g Box023_frag_089_0
f 3/3/3 2/2/2 1/1/1
f 4/4/4 1/1/1 2/2/2
f 7/7/7 6/6/6 5/5/5
f 6/6/6 8/8/8 5/5/5
f 5/5/5 8/8/8 9/9/9
f 12/12/12 11/11/11 10/10/10
f 13/13/13 10/10/10 11/11/11
f 16/16/16 15/15/15 14/14/14
f 17/17/17 14/14/14 15/15/15
f 20/20/20 19/19/19 18/18/18
f 21/21/21 18/18/18 19/19/19
f 24/24/24 23/23/23 22/22/22
f 25/25/25 22/22/22 23/23/23
f 28/28/28 27/27/27 26/26/26
f 26/26/26 27/27/27 29/29/29
f 29/29/29 27/27/27 30/30/30
