g Box023_frag_072
v -0.08556432 -0.08007514 0.007177053
v -0.1029043 -0.05582014 -0.007177053
v -0.1028411 -0.05392722 0.007177053
v -0.08647458 -0.08068614 -0.007177053
v 0.1093845 0.01601386 0.007177051
v -0.00131556 0.1070575 -0.007177053
v 0.1104893 0.01742198 -0.007177053
v -0.003126616 0.1062156 0.007177053
v -0.003126616 0.1062156 0.007177053
v -0.03801845 0.1038529 -0.007177053
v -0.00131556 0.1070575 -0.007177053
v -0.03859127 0.1031191 0.007177053
v -0.08556432 -0.08007514 0.007177053
v 0.05250117 -0.1070576 -0.007177053
v -0.08647458 -0.08068614 -0.007177053
v 0.05242421 -0.1062593 0.007177053
v -0.1029043 -0.05582014 -0.007177053
v -0.03801845 0.1038529 -0.007177053
v -0.1104893 -0.01437248 -0.007177053
v -0.08647458 -0.08068614 -0.007177053
v 0.1104893 0.01742198 -0.007177053
v 0.05250117 -0.1070576 -0.007177053
v -0.00131556 0.1070575 -0.007177053
v 0.05250117 -0.1070576 -0.007177053
v 0.1093845 0.01601386 0.007177051
v 0.1104893 0.01742198 -0.007177053
v 0.05242421 -0.1062593 0.007177053
v -0.08556432 -0.08007514 0.007177053
v 0.1093845 0.01601386 0.007177051
v 0.05242421 -0.1062593 0.007177053
v -0.03859127 0.1031191 0.007177053
v -0.003126616 0.1062156 0.007177053
v -0.1028411 -0.05392722 0.007177053
v -0.1102021 -0.01370326 0.007177053
v -0.03859127 0.1031191 0.007177053
v -0.1104893 -0.01437248 -0.007177053
v -0.03801845 0.1038529 -0.007177053
v -0.1102021 -0.01370326 0.007177053
v -0.1028411 -0.05392722 0.007177053
v -0.1104893 -0.01437248 -0.007177053
v -0.1102021 -0.01370326 0.007177053
v -0.1029043 -0.05582014 -0.007177053
vt 0.4099827 0.2569865
vt 0.4254209 0.2650806
vt 0.4266258 0.2569865
vt 0.4095937 0.2650806
vt 0.4469424 0.6901943
vt 0.378492 0.6982884
vt 0.4476256 0.6982884
vt 0.3773721 0.6901943
vt 0.3773721 0.6901943
vt 0.355797 0.6982884
vt 0.378492 0.6982884
vt 0.3554428 0.6901943
vt 0.6918782 0.5178958
vt 0.6065064 0.5259899
vt 0.692441 0.5259899
vt 0.6065541 0.5178958
vt 0.7895821 0.1430695
vt 0.7443453 0.04360909
vt 0.7673469 0.1281172
vt 0.8080244 0.146756
vt 0.847708 0.01576845
vt 0.8797939 0.09659999
vt 0.7586433 0.0258668
vt 0.5622011 0.7295769
vt 0.6405359 0.737671
vt 0.6414322 0.7295769
vt 0.5627093 0.737671
vt 0.08814877 0.8577521
vt 0.01433393 0.744513
vt 0.00592282 0.8295234
vt 0.1212961 0.7422484
vt 0.1032903 0.7295769
vt 0.105722 0.8486803
vt 0.1224651 0.8287837
vt 0.5265855 0.2569865
vt 0.4518023 0.2650806
vt 0.5270525 0.2650806
vt 0.4522282 0.2569865
vt 0.4266258 0.2569865
vt 0.4518023 0.2650806
vt 0.4522282 0.2569865
vt 0.4254209 0.2650806
vn -0.838564 -0.5382613 0.08417284
vn -0.8385641 -0.5382613 0.08417282
vn -0.838564 -0.5382613 0.08417282
vn -0.8385642 -0.5382609 0.08417383
vn 0.6304275 0.7639192 0.1377992
vn 0.6304275 0.7639192 0.1377992
vn 0.6304275 0.7639192 0.1377992
vn 0.6304278 0.7639193 0.137797
vn -0.08938649 0.9945603 0.05347719
vn -0.08938649 0.9945603 0.05347718
vn -0.08938648 0.9945603 0.05347718
vn -0.08938652 0.9945603 0.0534773
vn -0.1913551 -0.9796622 0.06037595
vn -0.1913551 -0.9796622 0.06037595
vn -0.1913551 -0.9796622 0.06037595
vn -0.1913552 -0.9796623 0.06037488
vn 0 0 -1
vn 0 0 -1
vn 0 0 -1
vn 0 0 -1
vn 0 0 -1
vn 0 0 -1
vn 0 0 -1
vn 0.9106036 -0.4120995 0.03122631
vn 0.9106036 -0.4120995 0.03122631
vn 0.9106036 -0.4120995 0.03122631
vn 0.9106038 -0.4120993 0.0312245
vn 0 0 1
vn 0 0 1
vn 0 0 1
vn 0 0 1
vn 0 0 1
vn 0 0 1
vn 0 0 1
vn -0.8591646 0.5116356 -0.008074146
vn -0.8591647 0.5116355 -0.008074146
vn -0.8591647 0.5116355 -0.008074146
vn -0.8591645 0.5116358 -0.008076533
vn -0.9840949 -0.1749537 0.03079652
vn -0.9840949 -0.1749537 0.03079653
vn -0.9840949 -0.1749537 0.03079653
vn -0.9840949 -0.1749539 0.03079604
g Box023_frag_072_0
f 3/3/3 2/2/2 1/1/1
f 4/4/4 1/1/1 2/2/2
f 7/7/7 6/6/6 5/5/5
f 8/8/8 5/5/5 6/6/6
f 11/11/11 10/10/10 9/9/9
f 12/12/12 9/9/9 10/10/10
f 15/15/15 14/14/14 13/13/13
f 16/16/16 13/13/13 14/14/14
f 19/19/19 18/18/18 17/17/17
f 17/17/17 18/18/18 20/20/20
f 18/18/18 21/21/21 20/20/20
f 20/20/20 21/21/21 22/22/22
f 23/23/23 21/21/21 18/18/18
f 26/26/26 25/25/25 24/24/24
f 27/27/27 24/24/24 25/25/25
f 30/30/30 29/29/29 28/28/28
f 29/29/29 31/31/31 28/28/28
f 32/32/32 31/31/31 29/29/29
f 28/28/28 31/31/31 33/33/33
f 31/31/31 34/34/34 33/33/33
f 37/37/37 36/36/36 35/35/35
f 38/38/38 35/35/35 36/36/36
f 41/41/41 40/40/40 39/39/39
f 42/42/42 39/39/39 40/40/40
