g Box002
v 0.05352326 0.08058855 0.01049066
v 0.04958215 0.06572396 0.01049066
v 0.0514204 0.08689713 0.01049066
v 0.0514204 0.08689713 0.01049066
v 0.04958215 0.06572396 0.01049066
v 0.04511182 0.08899999 0.01049066
v 0.04511182 0.08899999 0.01049066
v -0.04958215 0.06572396 0.01049066
v -0.04511182 0.08899999 0.01049066
v -0.04958215 0.06572396 0.01049066
v 0.04511182 0.08899999 0.01049066
v 0.04958215 0.06572396 0.01049066
v -0.04511182 0.08899999 0.01049066
v -0.04958215 0.06572396 0.01049066
v -0.0514204 0.08689713 0.01049066
v -0.0514204 0.08689713 0.01049066
v -0.04958215 0.06572396 0.01049066
v -0.05352326 0.08058855 0.01049066
v -0.05352326 0.08058855 0.01049066
v -0.04958215 -0.0794591 0.01049066
v -0.05352326 -0.08058855 0.01049066
v -0.04958215 -0.0794591 0.01049066
v -0.05352326 0.08058855 0.01049066
v -0.04958215 0.06572396 0.01049066
v -0.05352326 -0.08058855 0.01049066
v -0.04958215 -0.0794591 0.01049066
v -0.0514204 -0.08689713 0.01049066
v -0.0514204 -0.08689713 0.01049066
v -0.04958215 -0.0794591 0.01049066
v -0.04511182 -0.08899999 0.01049066
v -0.05352326 -0.08058855 0
v -0.0514204 0.08689713 0
v -0.05352326 0.08058855 0
v -0.04511182 0.08899999 0
v 0.05352326 0.08058855 0
v 0.0514204 0.08689713 0
v 0.04511182 0.08899999 0
v 0.04511182 -0.08899999 0
v -0.0514204 -0.08689713 0
v -0.04511182 -0.08899999 0
v 0.0514204 -0.08689713 0
v 0.05352326 -0.08058855 0
v -0.04511182 -0.08899999 0
v 0.04511182 -0.08899999 0.01049066
v 0.04511182 -0.08899999 0
v -0.04511182 -0.08899999 0.01049066
v 0.05352326 -0.08058855 0
v 0.05352326 0.08058855 0.01049066
v 0.05352326 0.08058855 0
v 0.05352326 -0.08058855 0.01049066
v 0.04511182 0.08899999 0
v -0.04511182 0.08899999 0.01049066
v -0.04511182 0.08899999 0
v 0.04511182 0.08899999 0.01049066
v -0.05352326 0.08058855 0
v -0.05352326 -0.08058855 0.01049066
v -0.05352326 -0.08058855 0
v -0.05352326 0.08058855 0.01049066
v 0.0514204 -0.08689713 0.01049066
v 0.04511182 -0.08899999 0
v 0.04511182 -0.08899999 0.01049066
v 0.0514204 -0.08689713 0
v -0.0514204 -0.08689713 0
v -0.04511182 -0.08899999 0.01049066
v -0.04511182 -0.08899999 0
v -0.0514204 -0.08689713 0.01049066
v 0.0514204 0.08689713 0.01049066
v 0.05352326 0.08058855 0
v 0.05352326 0.08058855 0.01049066
v 0.0514204 0.08689713 0
v -0.0514204 0.08689713 0.01049066
v -0.04511182 0.08899999 0
v -0.04511182 0.08899999 0.01049066
v -0.0514204 0.08689713 0
v 0.05352326 -0.08058855 0.01049066
v 0.0514204 -0.08689713 0
v 0.0514204 -0.08689713 0.01049066
v 0.05352326 -0.08058855 0
v -0.05352326 -0.08058855 0
v -0.0514204 -0.08689713 0.01049066
v -0.0514204 -0.08689713 0
v -0.05352326 -0.08058855 0.01049066
v 0.04511182 0.08899999 0.01049066
v 0.0514204 0.08689713 0
v 0.0514204 0.08689713 0.01049066
v 0.04511182 0.08899999 0
v -0.05352326 0.08058855 0.01049066
v -0.0514204 0.08689713 0
v -0.0514204 0.08689713 0.01049066
v -0.05352326 0.08058855 0
v -0.04511182 -0.08899999 0.01049066
v 0.04958215 -0.07945912 0.01049066
v 0.04511182 -0.08899999 0.01049066
v -0.04958215 -0.0794591 0.01049066
v 0.04511182 -0.08899999 0.01049066
v 0.04958215 -0.07945912 0.01049066
v 0.0514204 -0.08689713 0.01049066
v 0.05352326 -0.08058855 0.01049066
v 0.04958215 0.06572396 0.01049066
v 0.05352326 0.08058855 0.01049066
v -0.04958215 -0.0794591 0.01049066
v 0.04958215 -0.07945912 0.01049066
vt -0.8883719 0.9999983
vt 0.9672594 0.9803103
vt -0.4048972 0.9999992
vt -0.4048972 0.9999992
vt 0.9672594 0.9803103
vt 0.07857747 1
vt 0.07857747 1
vt 0.03274062 0.9803103
vt 0.9214225 1
vt 0.03274062 0.9803103
vt 0.07857747 1
vt 0.9672594 0.9803103
vt -1.47721 0.9999973
vt 0.03274062 0.9803103
vt -0.7149774 0.9999986
vt -0.7149774 0.9999986
vt 0.03274062 0.9803103
vt 0.04725531 1
vt 0.04725531 1
vt 0.03274062 0.01968971
vt 0.9527447 1
vt 0.03274062 0.01968971
vt 0.04725531 1
vt 0.03274062 0.9803103
vt 0.9527447 1
vt 0.03274062 0.01968971
vt 1.714977 1.000001
vt 1.714977 1.000001
vt 0.03274062 0.01968971
vt 2.47721 1.000002
vt 1 0.04725531
vt 0.9803556 0.9881862
vt 1 0.9527447
vt 0.9214225 1
vt 0 0.9527447
vt 0.01964437 0.9881862
vt 0.07857747 1
vt 0.07857747 0
vt 0.9803556 0.01181383
vt 0.9214225 0
vt 0.01964437 0.01181383
vt 0 0.04725531
vt 0.07857747 0
vt 0.9214225 1
vt 0.9214225 0
vt 0.07857747 1
vt 0.04725531 0
vt 0.9527447 1
vt 0.9527447 0
vt 0.04725531 1
vt 0.07857747 0
vt 0.9214225 1
vt 0.9214225 0
vt 0.07857747 1
vt 0.04725531 0
vt 0.9527447 1
vt 0.9527447 0
vt 0.04725531 1
vt -0.7149774 0.9999986
vt -1.47721 -2.723503E-06
vt -1.47721 0.9999973
vt -0.7149774 -1.361752E-06
vt 1.714977 1.146307E-06
vt 2.47721 1.000002
vt 2.47721 2.292614E-06
vt 1.714977 1.000001
vt -0.4048972 0.9999992
vt -0.8883719 -1.637874E-06
vt -0.8883719 0.9999983
vt -0.4048972 -8.18937E-07
vt -0.7149774 0.9999986
vt -1.47721 -2.723503E-06
vt -1.47721 0.9999973
vt -0.7149774 -1.361752E-06
vt 0.04725531 1
vt -0.7149774 -1.361752E-06
vt -0.7149774 0.9999986
vt 0.04725531 0
vt 0.9527447 0
vt 1.714977 1.000001
vt 1.714977 1.146307E-06
vt 0.9527447 1
vt 0.07857747 1
vt -0.4048972 -8.18937E-07
vt -0.4048972 0.9999992
vt 0.07857747 0
vt 0.04725531 1
vt -0.7149774 -1.361752E-06
vt -0.7149774 0.9999986
vt 0.04725531 0
vt 0.07857747 1
vt 0.9672594 0.01968971
vt 0.9214225 1
vt 0.03274062 0.01968971
vt -1.47721 0.9999973
vt 0.9672594 0.01968971
vt -0.7149774 0.9999986
vt 0.04725531 1
vt 0.9672594 0.9803103
vt 0.9527447 1
vt 0.03274062 0.01968971
vt 0.9672594 0.01968971
vn 0 0 1
vn 0 0 1
vn 0 0 1
vn 0 0 1
vn 0 0 1
vn 0 0 1
vn 0 0 1
vn 0 0 1
vn 0 0 1
vn 0 0 1
vn 0 0 1
vn 0 0 1
vn 0 0 1
vn 0 0 1
vn 0 0 1
vn 0 0 1
vn 0 0 1
vn 0 0 1
vn 0 0 1
vn 0 0 1
vn 0 0 1
vn 0 0 1
vn 0 0 1
vn 0 0 1
vn 0 0 1
vn 0 0 1
vn 0 0 1
vn 0 0 1
vn 0 0 1
vn 0 0 1
vn 0 0 -1
vn 0 0 -1
vn 0 0 -1
vn 0 0 -1
vn 0 0 -1
vn 0 0 -1
vn 0 0 -1
vn 0 0 -1
vn 0 0 -1
vn 0 0 -1
vn 0 0 -1
vn 0 0 -1
vn 0 -1 0
vn 0 -1 0
vn 0 -1 0
vn 0 -1 0
vn 1 0 0
vn 1 0 0
vn 1 0 0
vn 1 0 0
vn 0 1 0
vn 0 1 0
vn 0 1 0
vn 0 1 0
vn -1 0 0
vn -1 0 0
vn -1 0 0
vn -1 0 0
vn 0.3162278 -0.9486833 0
vn 0.3162278 -0.9486833 0
vn 0.3162278 -0.9486833 0
vn 0.3162278 -0.9486833 0
vn -0.3162278 -0.9486833 0
vn -0.3162278 -0.9486833 0
vn -0.3162278 -0.9486833 0
vn -0.3162278 -0.9486833 0
vn 0.9486833 0.3162278 0
vn 0.9486833 0.3162278 0
vn 0.9486833 0.3162278 0
vn 0.9486833 0.3162278 0
vn -0.3162278 0.9486833 0
vn -0.3162278 0.9486833 0
vn -0.3162278 0.9486833 0
vn -0.3162278 0.9486833 0
vn 0.9486833 -0.3162278 0
vn 0.9486833 -0.3162278 0
vn 0.9486833 -0.3162278 0
vn 0.9486833 -0.3162278 0
vn -0.9486833 -0.3162278 0
vn -0.9486833 -0.3162278 0
vn -0.9486833 -0.3162278 0
vn -0.9486833 -0.3162278 0
vn 0.3162278 0.9486833 0
vn 0.3162278 0.9486833 0
vn 0.3162278 0.9486833 0
vn 0.3162278 0.9486833 0
vn -0.9486833 0.3162278 0
vn -0.9486833 0.3162278 0
vn -0.9486833 0.3162278 0
vn -0.9486833 0.3162278 0
vn 0 0 1
vn 0 0 1
vn 0 0 1
vn 0 0 1
vn 0 0 1
vn 0 0 1
vn 0 0 1
vn 0 0 1
vn 0 0 1
vn 0 0 1
vn 0 0 1
vn 0 0 1
g Box002_0
f 3/3/3 2/2/2 1/1/1
f 6/6/6 5/5/5 4/4/4
f 9/9/9 8/8/8 7/7/7
f 12/12/12 11/11/11 10/10/10
f 15/15/15 14/14/14 13/13/13
f 18/18/18 17/17/17 16/16/16
f 21/21/21 20/20/20 19/19/19
f 24/24/24 23/23/23 22/22/22
f 27/27/27 26/26/26 25/25/25
f 30/30/30 29/29/29 28/28/28
f 33/33/33 32/32/32 31/31/31
f 32/32/32 34/34/34 31/31/31
f 34/34/34 35/35/35 31/31/31
f 36/36/36 35/35/35 34/34/34
f 37/37/37 36/36/36 34/34/34
f 35/35/35 38/38/38 31/31/31
f 31/31/31 38/38/38 39/39/39
f 39/39/39 38/38/38 40/40/40
f 41/41/41 38/38/38 35/35/35
f 42/42/42 41/41/41 35/35/35
f 45/45/45 44/44/44 43/43/43
f 46/46/46 43/43/43 44/44/44
f 49/49/49 48/48/48 47/47/47
f 50/50/50 47/47/47 48/48/48
f 53/53/53 52/52/52 51/51/51
f 54/54/54 51/51/51 52/52/52
f 57/57/57 56/56/56 55/55/55
f 58/58/58 55/55/55 56/56/56
f 61/61/61 60/60/60 59/59/59
f 62/62/62 59/59/59 60/60/60
f 65/65/65 64/64/64 63/63/63
f 66/66/66 63/63/63 64/64/64
f 69/69/69 68/68/68 67/67/67
f 70/70/70 67/67/67 68/68/68
f 73/73/73 72/72/72 71/71/71
f 74/74/74 71/71/71 72/72/72
f 77/77/77 76/76/76 75/75/75
f 78/78/78 75/75/75 76/76/76
f 81/81/81 80/80/80 79/79/79
f 82/82/82 79/79/79 80/80/80
f 85/85/85 84/84/84 83/83/83
f 86/86/86 83/83/83 84/84/84
f 89/89/89 88/88/88 87/87/87
f 90/90/90 87/87/87 88/88/88
f 93/93/93 92/92/92 91/91/91
f 94/94/94 91/91/91 92/92/92
f 97/97/97 96/96/96 95/95/95
f 98/98/98 96/96/96 97/97/97
f 96/96/96 98/98/98 99/99/99
f 100/100/100 99/99/99 98/98/98
g Box002_1
f 102/102/102 12/12/12 101/101/101
f 10/10/10 101/101/101 12/12/12
