g Capsule001
v 0 0 15
v 0.1120719 0.06470476 14.98296
v 0.1294095 0 14.98296
v 0.06470475 0.1120719 14.98296
v 0.1120719 -0.06470484 14.98296
v -5.65667E-09 0.1294095 14.98296
v 0.06470469 -0.112072 14.98296
v 0.2165063 0.125 14.93301
v 0.125 0.2165064 14.93301
v 0.25 0 14.93301
v -1.092785E-08 0.25 14.93301
v 0.2165063 -0.1250001 14.93301
v 0.3061862 0.1767767 14.85355
v 0.1767767 0.3061862 14.85355
v -1.545431E-08 0.3535534 14.85355
v 0.3535534 0 14.85355
v -0.125 0.2165063 14.93301
v -0.1767767 0.3061862 14.85355
v -0.06470477 0.1120719 14.98296
v 0.1249999 -0.2165064 14.93301
v 0.3061861 -0.1767769 14.85355
v -6.016408E-08 -0.1294095 14.98296
v 0.2165063 0.375 14.75
v -1.892759E-08 0.4330127 14.75
v 0.375 0.2165064 14.75
v 0.4330127 0 14.75
v -0.2165064 0.375 14.75
v -1.162281E-07 -0.25 14.93301
v 0.1767765 -0.3061863 14.85355
v 0.3749999 -0.2165066 14.75
v -0.0647048 -0.1120719 14.98296
v 0.2414814 0.4182582 14.62941
v -2.111098E-08 0.4829629 14.62941
v 0.4182581 0.2414815 14.62941
v -0.2414815 0.4182581 14.62941
v 0.4829629 0 14.62941
v -0.1250001 -0.2165063 14.93301
v -0.1120719 -0.06470473 14.98296
v -1.643713E-07 -0.3535534 14.85355
v 0.2165061 -0.3750001 14.75
v 0.418258 -0.2414817 14.62941
v 0.4330127 0.25 14.5
v 0.5 0 14.5
v 0.25 0.4330127 14.5
v -2.185569E-08 0.5 14.5
v -0.25 0.4330127 14.5
v -2.013129E-07 -0.4330127 14.75
v 0.2414812 -0.4182583 14.62941
v 0.4330125 -0.2500003 14.5
v -0.1767768 -0.3061861 14.85355
v -0.2165064 -0.1249999 14.93301
v -0.1294095 1.954029E-08 14.98296
v -0.1120719 0.06470477 14.98296
v -0.25 3.774895E-08 14.93301
v -0.2165063 0.125 14.93301
v -0.3061863 -0.1767766 14.85355
v -0.2165065 -0.3749999 14.75
v -0.3061862 0.1767767 14.85355
v -0.3535534 5.338508E-08 14.85355
v -0.375 0.2165064 14.75
v -0.3750001 -0.2165063 14.75
v -0.4330127 6.538311E-08 14.75
v -2.245354E-07 -0.4829629 14.62941
v -0.4182581 0.2414815 14.62941
v -0.2414816 -0.418258 14.62941
v -0.4829629 7.292537E-08 14.62941
v -0.4182582 -0.2414813 14.62941
v 0.2499997 -0.4330128 14.5
v -0.4330127 0.25 14.5
v -2.324561E-07 -0.5 14.5
v -0.2500001 -0.4330126 14.5
v -0.5 7.54979E-08 14.5
v -0.4330128 -0.2499999 14.5
v 0.4330125 -0.2500003 0.5
v 0.2499997 -0.4330128 0.5
v -2.324561E-07 -0.5 0.5
v -0.2500001 -0.4330126 0.5
v -0.4330128 -0.2499999 0.5
v -0.5 7.54979E-08 0.5
v 0.5 0 0.5
v -0.4330127 0.25 0.5
v 0.4330127 0.25 0.5
v -0.25 0.4330127 0.5
v 0.25 0.4330127 0.5
v -2.185569E-08 0.5 0.5
v -0.4182582 -0.2414813 0.3705908
v -0.4829629 7.292537E-08 0.3705908
v -0.4182581 0.2414815 0.3705908
v -0.2414815 0.4182581 0.3705908
v -2.111098E-08 0.4829629 0.3705908
v 0.2414814 0.4182582 0.3705908
v -0.2414816 -0.418258 0.3705908
v 0.4182581 0.2414815 0.3705908
v -2.245354E-07 -0.4829629 0.3705908
v 0.4829629 0 0.3705908
v 0.2414812 -0.4182583 0.3705908
v 0.418258 -0.2414817 0.3705908
v -1.892759E-08 0.4330127 0.25
v 0.2165063 0.375 0.25
v 0.375 0.2165064 0.25
v 0.4330127 0 0.25
v 0.3749999 -0.2165066 0.25
v 0.2165061 -0.3750001 0.25
v -0.2165064 0.375 0.25
v -2.013129E-07 -0.4330127 0.25
v -0.375 0.2165064 0.25
v -0.2165065 -0.3749999 0.25
v -0.4330127 6.538311E-08 0.25
v -0.3750001 -0.2165063 0.25
v 0.3061861 -0.1767769 0.1464465
v 0.1767765 -0.3061863 0.1464465
v -1.643713E-07 -0.3535534 0.1464465
v -0.1767768 -0.3061861 0.1464465
v -0.3061863 -0.1767766 0.1464465
v -0.3535534 5.338508E-08 0.1464465
v 0.3535534 0 0.1464465
v -0.3061862 0.1767767 0.1464465
v 0.3061862 0.1767767 0.1464465
v -0.1767767 0.3061862 0.1464465
v 0.1767767 0.3061862 0.1464465
v -1.545431E-08 0.3535534 0.1464465
v -0.2165064 -0.1249999 0.06698731
v -0.25 3.774895E-08 0.06698731
v -0.2165063 0.125 0.06698731
v -0.125 0.2165063 0.06698731
v -1.092785E-08 0.25 0.06698731
v 0.125 0.2165064 0.06698731
v -0.1250001 -0.2165063 0.06698731
v 0.2165063 0.125 0.06698731
v -1.162281E-07 -0.25 0.06698731
v 0.25 0 0.06698731
v 0.1249999 -0.2165064 0.06698731
v 0.2165063 -0.1250001 0.06698731
v -5.65667E-09 0.1294095 0.01703735
v 0.06470475 0.1120719 0.01703735
v 0.1120719 0.06470476 0.01703735
v 0.1294095 0 0.01703735
v 0 0 0
v -0.06470477 0.1120719 0.01703735
v 0.1120719 -0.06470484 0.01703735
v 0.06470469 -0.112072 0.01703735
v -0.1120719 0.06470477 0.01703735
v -6.016408E-08 -0.1294095 0.01703735
v -0.1294095 1.954029E-08 0.01703735
v -0.0647048 -0.1120719 0.01703735
v -0.1120719 -0.06470473 0.01703735
vt 0.5 0.5
vt 0.6120719 0.5647047
vt 0.6294096 0.5
vt 0.5647048 0.6120719
vt 0.6120719 0.4352951
vt 0.5 0.6294096
vt 0.5647047 0.387928
vt 0.7165064 0.6249999
vt 0.625 0.7165064
vt 0.75 0.4999999
vt 0.5000001 0.75
vt 0.7165062 0.3749998
vt 0.8061862 0.6767766
vt 0.6767768 0.8061862
vt 0.5000001 0.8535534
vt 0.8535534 0.4999999
vt 0.375 0.7165064
vt 0.3232234 0.8061862
vt 0.4352953 0.6120719
vt 0.6249998 0.2834935
vt 0.8061861 0.323223
vt 0.4999999 0.3705905
vt 0.7165064 0.875
vt 0.5000001 0.9330127
vt 0.8750001 0.7165062
vt 0.9330127 0.4999999
vt 0.2834937 0.8750001
vt 0.4999998 0.25
vt 0.6767764 0.1938137
vt 0.8749998 0.2834933
vt 0.4352952 0.3879281
vt 0.7414815 0.9182581
vt 0.5000001 0.9829629
vt 0.9182582 0.7414814
vt 0.2585186 0.9182582
vt 0.9829629 0.4999999
vt 0.3749999 0.2834937
vt 0.387928 0.4352953
vt 0.4999998 0.1464466
vt 0.7165061 0.1249998
vt 0.918258 0.2585182
vt 0.9330127 0.7499999
vt 1 0.4999999
vt 0.7500001 0.9330127
vt 0.5000001 1
vt 0.2500001 0.9330127
vt 0.4999997 0.06698728
vt 0.7414811 0.08174166
vt 0.9330125 0.2499996
vt 0.3232231 0.1938139
vt 0.2834936 0.3750001
vt 0.3705905 0.5000001
vt 0.3879281 0.5647048
vt 0.25 0.5000001
vt 0.2834937 0.6250001
vt 0.1938137 0.3232235
vt 0.2834934 0.1250001
vt 0.1938138 0.6767768
vt 0.1464466 0.5000001
vt 0.125 0.7165065
vt 0.1249999 0.2834938
vt 0.06698728 0.5000002
vt 0.4999997 0.01703709
vt 0.08174193 0.7414816
vt 0.2585183 0.08174202
vt 0.01703709 0.5000002
vt 0.08174175 0.2585188
vt 0.7499996 0.0669871
vt 0.06698737 0.7500001
vt 0.4999996 0
vt 0.2499998 0.06698745
vt 0 0.5000002
vt 0.06698719 0.2500002
vt 0.9330125 0.2499996
vt 0.7499996 0.0669871
vt 0.4999996 0
vt 0.2499998 0.06698745
vt 0.06698719 0.2500002
vt 0 0.5000002
vt 1 0.4999999
vt 0.06698737 0.7500001
vt 0.9330127 0.7499999
vt 0.2500001 0.9330127
vt 0.7500001 0.9330127
vt 0.5000001 1
vt 0.08174175 0.2585188
vt 0.01703709 0.5000002
vt 0.08174193 0.7414816
vt 0.2585186 0.9182582
vt 0.5000001 0.9829629
vt 0.7414815 0.9182581
vt 0.2585183 0.08174202
vt 0.9182582 0.7414814
vt 0.4999997 0.01703709
vt 0.9829629 0.4999999
vt 0.7414811 0.08174166
vt 0.918258 0.2585182
vt 0.5000001 0.9330127
vt 0.7165064 0.875
vt 0.8750001 0.7165062
vt 0.9330127 0.4999999
vt 0.8749998 0.2834933
vt 0.7165061 0.1249998
vt 0.2834937 0.8750001
vt 0.4999997 0.06698728
vt 0.125 0.7165065
vt 0.2834934 0.1250001
vt 0.06698728 0.5000002
vt 0.1249999 0.2834938
vt 0.8061861 0.323223
vt 0.6767764 0.1938137
vt 0.4999998 0.1464466
vt 0.3232231 0.1938139
vt 0.1938137 0.3232235
vt 0.1464466 0.5000001
vt 0.8535534 0.4999999
vt 0.1938138 0.6767768
vt 0.8061862 0.6767766
vt 0.3232234 0.8061862
vt 0.6767768 0.8061862
vt 0.5000001 0.8535534
vt 0.2834936 0.3750001
vt 0.25 0.5000001
vt 0.2834937 0.6250001
vt 0.375 0.7165064
vt 0.5000001 0.75
vt 0.625 0.7165064
vt 0.3749999 0.2834937
vt 0.7165064 0.6249999
vt 0.4999998 0.25
vt 0.75 0.4999999
vt 0.6249998 0.2834935
vt 0.7165062 0.3749998
vt 0.5 0.6294096
vt 0.5647048 0.6120719
vt 0.6120719 0.5647047
vt 0.6294096 0.5
vt 0.5 0.5
vt 0.4352953 0.6120719
vt 0.6120719 0.4352951
vt 0.5647047 0.387928
vt 0.3879281 0.5647048
vt 0.4999999 0.3705905
vt 0.3705905 0.5000001
vt 0.4352952 0.3879281
vt 0.387928 0.4352953
vn 0 0 1
vn 0.2415065 0.1394338 0.9603295
vn 0.2788676 0 0.9603295
vn 0.1394338 0.2415065 0.9603295
vn 0.2415064 -0.1394339 0.9603295
vn 0 0.2788676 0.9603295
vn 0.1394337 -0.2415065 0.9603295
vn 0.4467993 0.2579597 0.8566371
vn 0.2579597 0.4467994 0.8566371
vn 0.5159194 0 0.8566371
vn 0 0.5159194 0.8566371
vn 0.4467992 -0.2579599 0.8566371
vn 0.6214607 0.3588005 0.6964545
vn 0.3588004 0.6214607 0.6964545
vn 0 0.717601 0.6964545
vn 0.717601 -1.137956E-07 0.6964545
vn -0.2579597 0.4467994 0.8566371
vn -0.3588005 0.6214606 0.6964546
vn -0.1394338 0.2415065 0.9603295
vn 0.2579595 -0.4467995 0.8566371
vn 0.6214606 -0.3588008 0.6964545
vn -1.327305E-07 -0.2788676 0.9603295
vn 0.4356126 0.7545032 0.4908836
vn 0 0.8712252 0.4908836
vn 0.7545031 0.4356126 0.4908835
vn 0.8712252 -1.051052E-07 0.4908835
vn -0.4356126 0.7545032 0.4908835
vn -2.441998E-07 -0.5159196 0.8566371
vn 0.3588001 -0.6214609 0.6964546
vn 0.7545028 -0.4356129 0.4908836
vn -0.1394339 -0.2415064 0.9603295
vn 0.4836554 0.8377158 0.2535936
vn 0 0.9673109 0.2535936
vn 0.8377157 0.4836555 0.2535935
vn -0.4836555 0.8377157 0.2535935
vn 0.9673109 0 0.2535935
vn -0.2579599 -0.4467994 0.8566371
vn -0.2415065 -0.1394338 0.9603295
vn -3.314916E-07 -0.7176009 0.6964545
vn 0.4356121 -0.7545034 0.4908836
vn 0.8377156 -0.4836558 0.2535936
vn 0.8642102 0.498952 0.06471089
vn 0.9979041 -1.094091E-07 0.06471086
vn 0.498952 0.8642103 0.06471089
vn 0 0.9979041 0.06471089
vn -0.4989521 0.8642102 0.06471089
vn -4.004007E-07 -0.8712252 0.4908836
vn 0.4836549 -0.837716 0.2535935
vn 0.8642101 -0.4989525 0.06471086
vn -0.3588008 -0.6214606 0.6964545
vn -0.4467994 -0.2579596 0.8566371
vn -0.2788676 0 0.9603295
vn -0.2415065 0.1394338 0.9603295
vn -0.5159194 0 0.8566371
vn -0.4467993 0.2579597 0.8566371
vn -0.6214608 -0.3588003 0.6964545
vn -0.4356129 -0.7545029 0.4908836
vn -0.6214606 0.3588005 0.6964546
vn -0.7176009 0 0.6964545
vn -0.7545031 0.4356126 0.4908836
vn -0.7545032 -0.4356124 0.4908836
vn -0.8712252 0 0.4908836
vn -4.439343E-07 -0.9673109 0.2535936
vn -0.8377157 0.4836555 0.2535936
vn -0.4836558 -0.8377156 0.2535936
vn -0.9673109 1.362071E-07 0.2535935
vn -0.8377159 -0.4836552 0.2535936
vn 0.4989515 -0.8642105 0.06471088
vn -0.8642102 0.4989521 0.06471089
vn -4.475828E-07 -0.9979041 0.06471089
vn -0.4989522 -0.8642101 0.06471088
vn -0.9979041 1.491943E-07 0.06471089
vn -0.8642103 -0.4989518 0.06471088
vn 0.8642101 -0.4989525 -0.06471086
vn 0.4989515 -0.8642105 -0.06471088
vn -4.475827E-07 -0.9979041 -0.06471089
vn -0.4989523 -0.8642101 -0.06471089
vn -0.8642103 -0.4989518 -0.06471089
vn -0.9979041 1.442211E-07 -0.06471089
vn 0.9979041 -1.094091E-07 -0.06471086
vn -0.8642102 0.4989521 -0.06471089
vn 0.8642102 0.498952 -0.06471089
vn -0.4989521 0.8642102 -0.06471089
vn 0.498952 0.8642103 -0.06471089
vn 0 0.9979041 -0.06471089
vn -0.8377159 -0.4836552 -0.2535936
vn -0.9673109 1.462965E-07 -0.2535936
vn -0.8377157 0.4836555 -0.2535936
vn -0.4836555 0.8377157 -0.2535935
vn 0 0.9673109 -0.2535935
vn 0.4836554 0.8377158 -0.2535936
vn -0.4836557 -0.8377156 -0.2535936
vn 0.8377157 0.4836555 -0.2535935
vn -4.439343E-07 -0.9673109 -0.2535936
vn 0.9673109 0 -0.2535935
vn 0.4836549 -0.837716 -0.2535935
vn 0.8377156 -0.4836559 -0.2535935
vn 0 0.8712252 -0.4908836
vn 0.4356126 0.7545032 -0.4908836
vn 0.7545031 0.4356126 -0.4908835
vn 0.8712252 -1.101102E-07 -0.4908835
vn 0.7545028 -0.4356129 -0.4908836
vn 0.4356121 -0.7545034 -0.4908836
vn -0.4356126 0.7545031 -0.4908835
vn -4.054058E-07 -0.8712252 -0.4908836
vn -0.7545031 0.4356126 -0.4908836
vn -0.4356129 -0.7545029 -0.4908836
vn -0.8712252 1.051052E-07 -0.4908836
vn -0.7545032 -0.4356124 -0.4908836
vn 0.6214606 -0.3588008 -0.6964545
vn 0.3588001 -0.6214609 -0.6964545
vn -3.314917E-07 -0.717601 -0.6964545
vn -0.3588007 -0.6214605 -0.6964545
vn -0.6214608 -0.3588003 -0.6964545
vn -0.7176009 0 -0.6964545
vn 0.7176009 -1.212171E-07 -0.6964545
vn -0.6214607 0.3588005 -0.6964545
vn 0.6214607 0.3588005 -0.6964545
vn -0.3588005 0.6214607 -0.6964545
vn 0.3588004 0.6214607 -0.6964545
vn 0 0.7176009 -0.6964545
vn -0.4467994 -0.2579596 -0.8566371
vn -0.5159194 0 -0.8566371
vn -0.4467994 0.2579597 -0.8566371
vn -0.2579597 0.4467994 -0.8566371
vn 0 0.5159194 -0.8566371
vn 0.2579597 0.4467994 -0.8566371
vn -0.2579599 -0.4467994 -0.8566371
vn 0.4467994 0.2579597 -0.8566371
vn -2.417577E-07 -0.5159194 -0.8566371
vn 0.5159194 0 -0.8566371
vn 0.2579595 -0.4467995 -0.8566371
vn 0.4467992 -0.2579599 -0.8566371
vn 0 0.2788676 -0.9603295
vn 0.1394338 0.2415065 -0.9603295
vn 0.2415065 0.1394338 -0.9603295
vn 0.2788677 0 -0.9603295
vn 0 0 -1
vn -0.1394338 0.2415065 -0.9603295
vn 0.2415064 -0.1394339 -0.9603295
vn 0.1394337 -0.2415065 -0.9603295
vn -0.2415064 0.1394338 -0.9603295
vn -1.369537E-07 -0.2788676 -0.9603295
vn -0.2788676 0 -0.9603295
vn -0.1394339 -0.2415064 -0.9603295
vn -0.2415065 -0.1394338 -0.9603295
g Capsule001_0
f 3/3/3 2/2/2 1/1/1
f 2/2/2 4/4/4 1/1/1
f 5/5/5 3/3/3 1/1/1
f 4/4/4 6/6/6 1/1/1
f 7/7/7 5/5/5 1/1/1
f 8/8/8 2/2/2 3/3/3
f 9/9/9 4/4/4 2/2/2
f 8/8/8 9/9/9 2/2/2
f 10/10/10 3/3/3 5/5/5
f 10/10/10 8/8/8 3/3/3
f 11/11/11 6/6/6 4/4/4
f 9/9/9 11/11/11 4/4/4
f 12/12/12 5/5/5 7/7/7
f 12/12/12 10/10/10 5/5/5
f 13/13/13 8/8/8 10/10/10
f 14/14/14 9/9/9 8/8/8
f 13/13/13 14/14/14 8/8/8
f 15/15/15 11/11/11 9/9/9
f 14/14/14 15/15/15 9/9/9
f 16/16/16 10/10/10 12/12/12
f 16/16/16 13/13/13 10/10/10
f 11/11/11 17/17/17 6/6/6
f 15/15/15 18/18/18 11/11/11
f 18/18/18 17/17/17 11/11/11
f 17/17/17 19/19/19 6/6/6
f 6/6/6 19/19/19 1/1/1
f 20/20/20 12/12/12 7/7/7
f 21/21/21 16/16/16 12/12/12
f 21/21/21 12/12/12 20/20/20
f 22/22/22 7/7/7 1/1/1
f 20/20/20 7/7/7 22/22/22
f 23/23/23 14/14/14 13/13/13
f 24/24/24 15/15/15 14/14/14
f 23/23/23 24/24/24 14/14/14
f 25/25/25 13/13/13 16/16/16
f 25/25/25 23/23/23 13/13/13
f 26/26/26 16/16/16 21/21/21
f 26/26/26 25/25/25 16/16/16
f 24/24/24 27/27/27 15/15/15
f 27/27/27 18/18/18 15/15/15
f 28/28/28 20/20/20 22/22/22
f 29/29/29 21/21/21 20/20/20
f 29/29/29 20/20/20 28/28/28
f 30/30/30 26/26/26 21/21/21
f 30/30/30 21/21/21 29/29/29
f 28/28/28 22/22/22 31/31/31
f 31/31/31 22/22/22 1/1/1
f 32/32/32 23/23/23 25/25/25
f 33/33/33 24/24/24 23/23/23
f 32/32/32 33/33/33 23/23/23
f 34/34/34 25/25/25 26/26/26
f 34/34/34 32/32/32 25/25/25
f 35/35/35 27/27/27 24/24/24
f 33/33/33 35/35/35 24/24/24
f 36/36/36 26/26/26 30/30/30
f 36/36/36 34/34/34 26/26/26
f 37/37/37 28/28/28 31/31/31
f 38/38/38 31/31/31 1/1/1
f 37/37/37 31/31/31 38/38/38
f 39/39/39 28/28/28 37/37/37
f 39/39/39 29/29/29 28/28/28
f 40/40/40 30/30/30 29/29/29
f 40/40/40 29/29/29 39/39/39
f 41/41/41 36/36/36 30/30/30
f 41/41/41 30/30/30 40/40/40
f 42/42/42 34/34/34 36/36/36
f 43/43/43 36/36/36 41/41/41
f 43/43/43 42/42/42 36/36/36
f 42/42/42 44/44/44 34/34/34
f 44/44/44 32/32/32 34/34/34
f 44/44/44 45/45/45 32/32/32
f 45/45/45 33/33/33 32/32/32
f 45/45/45 46/46/46 33/33/33
f 46/46/46 35/35/35 33/33/33
f 47/47/47 40/40/40 39/39/39
f 48/48/48 41/41/41 40/40/40
f 48/48/48 40/40/40 47/47/47
f 49/49/49 43/43/43 41/41/41
f 49/49/49 41/41/41 48/48/48
f 47/47/47 39/39/39 50/50/50
f 50/50/50 39/39/39 37/37/37
f 50/50/50 37/37/37 51/51/51
f 51/51/51 37/37/37 38/38/38
f 51/51/51 38/38/38 52/52/52
f 52/52/52 38/38/38 1/1/1
f 53/53/53 52/52/52 1/1/1
f 19/19/19 53/53/53 1/1/1
f 54/54/54 51/51/51 52/52/52
f 54/54/54 52/52/52 53/53/53
f 55/55/55 53/53/53 19/19/19
f 55/55/55 54/54/54 53/53/53
f 17/17/17 55/55/55 19/19/19
f 56/56/56 50/50/50 51/51/51
f 56/56/56 51/51/51 54/54/54
f 57/57/57 47/47/47 50/50/50
f 57/57/57 50/50/50 56/56/56
f 58/58/58 55/55/55 17/17/17
f 18/18/18 58/58/58 17/17/17
f 59/59/59 54/54/54 55/55/55
f 59/59/59 56/56/56 54/54/54
f 58/58/58 59/59/59 55/55/55
f 60/60/60 58/58/58 18/18/18
f 27/27/27 60/60/60 18/18/18
f 61/61/61 56/56/56 59/59/59
f 61/61/61 57/57/57 56/56/56
f 62/62/62 59/59/59 58/58/58
f 60/60/60 62/62/62 58/58/58
f 62/62/62 61/61/61 59/59/59
f 63/63/63 47/47/47 57/57/57
f 63/63/63 48/48/48 47/47/47
f 64/64/64 60/60/60 27/27/27
f 35/35/35 64/64/64 27/27/27
f 65/65/65 57/57/57 61/61/61
f 65/65/65 63/63/63 57/57/57
f 66/66/66 62/62/62 60/60/60
f 64/64/64 66/66/66 60/60/60
f 67/67/67 61/61/61 62/62/62
f 67/67/67 65/65/65 61/61/61
f 66/66/66 67/67/67 62/62/62
f 68/68/68 48/48/48 63/63/63
f 68/68/68 49/49/49 48/48/48
f 69/69/69 64/64/64 35/35/35
f 46/46/46 69/69/69 35/35/35
f 70/70/70 63/63/63 65/65/65
f 70/70/70 68/68/68 63/63/63
f 71/71/71 65/65/65 67/67/67
f 71/71/71 70/70/70 65/65/65
f 72/72/72 66/66/66 64/64/64
f 69/69/69 72/72/72 64/64/64
f 73/73/73 67/67/67 66/66/66
f 73/73/73 71/71/71 67/67/67
f 72/72/72 73/73/73 66/66/66
f 74/74/74 49/49/49 68/68/68
f 75/75/75 68/68/68 70/70/70
f 75/75/75 74/74/74 68/68/68
f 76/76/76 70/70/70 71/71/71
f 76/76/76 75/75/75 70/70/70
f 77/77/77 71/71/71 73/73/73
f 77/77/77 76/76/76 71/71/71
f 78/78/78 73/73/73 72/72/72
f 78/78/78 77/77/77 73/73/73
f 79/79/79 72/72/72 69/69/69
f 79/79/79 78/78/78 72/72/72
f 74/74/74 80/80/80 49/49/49
f 80/80/80 43/43/43 49/49/49
f 81/81/81 79/79/79 69/69/69
f 81/81/81 69/69/69 46/46/46
f 80/80/80 82/82/82 43/43/43
f 82/82/82 42/42/42 43/43/43
f 83/83/83 81/81/81 46/46/46
f 83/83/83 46/46/46 45/45/45
f 82/82/82 84/84/84 42/42/42
f 84/84/84 44/44/44 42/42/42
f 85/85/85 45/45/45 44/44/44
f 85/85/85 83/83/83 45/45/45
f 84/84/84 85/85/85 44/44/44
f 86/86/86 78/78/78 79/79/79
f 87/87/87 79/79/79 81/81/81
f 87/87/87 86/86/86 79/79/79
f 88/88/88 81/81/81 83/83/83
f 88/88/88 87/87/87 81/81/81
f 89/89/89 83/83/83 85/85/85
f 89/89/89 88/88/88 83/83/83
f 90/90/90 85/85/85 84/84/84
f 90/90/90 89/89/89 85/85/85
f 91/91/91 84/84/84 82/82/82
f 91/91/91 90/90/90 84/84/84
f 86/86/86 92/92/92 78/78/78
f 92/92/92 77/77/77 78/78/78
f 93/93/93 91/91/91 82/82/82
f 93/93/93 82/82/82 80/80/80
f 92/92/92 94/94/94 77/77/77
f 94/94/94 76/76/76 77/77/77
f 95/95/95 93/93/93 80/80/80
f 95/95/95 80/80/80 74/74/74
f 94/94/94 96/96/96 76/76/76
f 96/96/96 75/75/75 76/76/76
f 97/97/97 74/74/74 75/75/75
f 97/97/97 95/95/95 74/74/74
f 96/96/96 97/97/97 75/75/75
f 98/98/98 90/90/90 91/91/91
f 99/99/99 91/91/91 93/93/93
f 99/99/99 98/98/98 91/91/91
f 100/100/100 93/93/93 95/95/95
f 100/100/100 99/99/99 93/93/93
f 101/101/101 95/95/95 97/97/97
f 101/101/101 100/100/100 95/95/95
f 102/102/102 97/97/97 96/96/96
f 102/102/102 101/101/101 97/97/97
f 103/103/103 96/96/96 94/94/94
f 103/103/103 102/102/102 96/96/96
f 98/98/98 104/104/104 90/90/90
f 104/104/104 89/89/89 90/90/90
f 105/105/105 103/103/103 94/94/94
f 105/105/105 94/94/94 92/92/92
f 104/104/104 106/106/106 89/89/89
f 106/106/106 88/88/88 89/89/89
f 107/107/107 105/105/105 92/92/92
f 107/107/107 92/92/92 86/86/86
f 106/106/106 108/108/108 88/88/88
f 108/108/108 87/87/87 88/88/88
f 109/109/109 86/86/86 87/87/87
f 109/109/109 107/107/107 86/86/86
f 108/108/108 109/109/109 87/87/87
f 110/110/110 102/102/102 103/103/103
f 111/111/111 103/103/103 105/105/105
f 111/111/111 110/110/110 103/103/103
f 112/112/112 105/105/105 107/107/107
f 112/112/112 111/111/111 105/105/105
f 113/113/113 107/107/107 109/109/109
f 113/113/113 112/112/112 107/107/107
f 114/114/114 109/109/109 108/108/108
f 114/114/114 113/113/113 109/109/109
f 115/115/115 108/108/108 106/106/106
f 115/115/115 114/114/114 108/108/108
f 110/110/110 116/116/116 102/102/102
f 116/116/116 101/101/101 102/102/102
f 117/117/117 115/115/115 106/106/106
f 117/117/117 106/106/106 104/104/104
f 116/116/116 118/118/118 101/101/101
f 118/118/118 100/100/100 101/101/101
f 119/119/119 117/117/117 104/104/104
f 119/119/119 104/104/104 98/98/98
f 118/118/118 120/120/120 100/100/100
f 120/120/120 99/99/99 100/100/100
f 121/121/121 98/98/98 99/99/99
f 121/121/121 119/119/119 98/98/98
f 120/120/120 121/121/121 99/99/99
f 122/122/122 114/114/114 115/115/115
f 123/123/123 115/115/115 117/117/117
f 123/123/123 122/122/122 115/115/115
f 124/124/124 117/117/117 119/119/119
f 124/124/124 123/123/123 117/117/117
f 125/125/125 119/119/119 121/121/121
f 125/125/125 124/124/124 119/119/119
f 126/126/126 121/121/121 120/120/120
f 126/126/126 125/125/125 121/121/121
f 127/127/127 120/120/120 118/118/118
f 127/127/127 126/126/126 120/120/120
f 122/122/122 128/128/128 114/114/114
f 128/128/128 113/113/113 114/114/114
f 129/129/129 127/127/127 118/118/118
f 129/129/129 118/118/118 116/116/116
f 128/128/128 130/130/130 113/113/113
f 130/130/130 112/112/112 113/113/113
f 131/131/131 129/129/129 116/116/116
f 131/131/131 116/116/116 110/110/110
f 130/130/130 132/132/132 112/112/112
f 132/132/132 111/111/111 112/112/112
f 133/133/133 110/110/110 111/111/111
f 133/133/133 131/131/131 110/110/110
f 132/132/132 133/133/133 111/111/111
f 134/134/134 126/126/126 127/127/127
f 135/135/135 127/127/127 129/129/129
f 135/135/135 134/134/134 127/127/127
f 136/136/136 129/129/129 131/131/131
f 136/136/136 135/135/135 129/129/129
f 137/137/137 131/131/131 133/133/133
f 137/137/137 136/136/136 131/131/131
f 138/138/138 135/135/135 136/136/136
f 138/138/138 134/134/134 135/135/135
f 138/138/138 136/136/136 137/137/137
f 138/138/138 139/139/139 134/134/134
f 134/134/134 139/139/139 126/126/126
f 138/138/138 137/137/137 140/140/140
f 140/140/140 137/137/137 133/133/133
f 140/140/140 133/133/133 132/132/132
f 139/139/139 125/125/125 126/126/126
f 141/141/141 140/140/140 132/132/132
f 138/138/138 140/140/140 141/141/141
f 141/141/141 132/132/132 130/130/130
f 139/139/139 142/142/142 125/125/125
f 138/138/138 142/142/142 139/139/139
f 142/142/142 124/124/124 125/125/125
f 143/143/143 141/141/141 130/130/130
f 138/138/138 141/141/141 143/143/143
f 143/143/143 130/130/130 128/128/128
f 142/142/142 144/144/144 124/124/124
f 138/138/138 144/144/144 142/142/142
f 144/144/144 123/123/123 124/124/124
f 145/145/145 143/143/143 128/128/128
f 138/138/138 143/143/143 145/145/145
f 145/145/145 128/128/128 122/122/122
f 146/146/146 122/122/122 123/123/123
f 144/144/144 146/146/146 123/123/123
f 138/138/138 146/146/146 144/144/144
f 146/146/146 145/145/145 122/122/122
f 138/138/138 145/145/145 146/146/146
