g Chap01_CloseView_MAZ_M301_P1_Camera_Collider
v -12.37205 -5.130397 5.300169
v -12.37205 -5.130397 -12.63626
v -10.06201 -5.130397 -12.63626
v -10.06201 -5.130397 5.300169
v 1.030211 -5.130397 5.300169
v 1.030211 -5.130397 -12.63626
v 9.64799 -5.130397 5.300169
v 9.64799 -5.130397 -12.63626
v -10.06201 -5.130397 -12.63626
v -10.06201 -5.130397 -29.39214
v 1.030211 -5.130397 -29.39214
v 1.030211 -5.130397 -12.63626
v -2.667834 -5.152314 -26.68357
v -0.5216797 1.847679 -26.68357
v -0.5216797 -5.152314 -26.68357
v -2.667834 -2.109442 -26.68357
v -2.755802 -1.561063 -26.68357
v -2.979912 -1.0507 -26.68357
v -3.351008 -0.6417011 -26.68357
v -3.986001 -0.2914032 -26.68357
v -4.521679 -0.2001808 -26.68357
v -8.52168 1.847679 -26.68357
v -5.057359 -0.2914035 -26.68356
v -5.692359 -0.6417024 -26.68357
v -6.063447 -1.050702 -26.68357
v -6.287557 -1.561065 -26.68357
v -6.375525 -2.109444 -26.68357
v -8.52168 -5.152314 -26.68357
v -6.375525 -5.152314 -26.68357
v -6.287557 -1.561065 -26.68357
v -6.287557 -1.561065 -28.94923
v -6.375525 -2.109444 -28.94923
v -6.375525 -2.109444 -26.68357
v -6.375525 -5.152314 -28.94923
v -6.375525 -5.152314 -26.68357
v -6.063447 -1.050702 -28.94923
v -6.287557 -1.561065 -28.94923
v -6.063447 -1.050702 -26.68357
v -5.692359 -0.6417024 -28.94923
v -5.692359 -0.6417024 -26.68357
v -5.057359 -0.2914035 -26.68356
v -5.057359 -0.2914035 -28.94923
v -4.521679 -0.2001808 -26.68357
v -4.521679 -0.2001808 -28.94923
v -2.667834 -5.152314 -28.94923
v -2.667834 -2.109442 -26.68357
v -2.667834 -5.152314 -26.68357
v -2.667834 -2.109442 -28.94923
v -2.755802 -1.561063 -28.94923
v -2.755802 -1.561063 -26.68357
v -2.979912 -1.0507 -26.68357
v -2.755802 -1.561063 -26.68357
v -2.979912 -1.0507 -28.94923
v -3.351008 -0.6417011 -26.68357
v -3.351008 -0.6417011 -28.94923
v -3.986001 -0.2914032 -28.94923
v -3.986001 -0.2914032 -26.68357
v -4.521679 -0.2001808 -28.94923
v -4.521679 -0.2001808 -26.68357
v -6.375525 -5.152314 -28.94923
v -8.52168 1.847679 -28.94923
v -8.52168 -5.152314 -28.94923
v -6.375525 -2.109444 -28.94923
v -6.287557 -1.561065 -28.94923
v -6.063447 -1.050702 -28.94923
v -5.692359 -0.6417024 -28.94923
v -5.057359 -0.2914035 -28.94923
v -4.521679 -0.2001808 -28.94923
v -0.5216797 1.847679 -28.94923
v -3.986001 -0.2914032 -28.94923
v -3.351008 -0.6417011 -28.94923
v -2.979912 -1.0507 -28.94923
v -2.755802 -1.561063 -28.94923
v -2.667834 -2.109442 -28.94923
v -0.5216797 -5.152314 -28.94923
v -2.667834 -5.152314 -28.94923
v -9.326671 -5.199666 -23.29964
v -9.32667 2.982652 -23.29964
v -7.574797 2.982652 -23.29964
v -7.574798 -5.199666 -23.29964
v -7.455226 2.982652 -29.8528
v -7.455227 -5.199666 -29.8528
v -7.574798 -5.199666 -23.29964
v -7.574797 2.982652 -23.29964
v -7.455226 2.982652 -29.8528
v -9.526557 2.982652 -29.8528
v -9.526558 -5.199666 -29.8528
v -7.455227 -5.199666 -29.8528
v 0.2853967 -5.199666 -23.29964
v -1.466476 -5.199666 -23.29964
v -1.466478 2.982652 -23.29964
v 0.2853955 2.982652 -23.29964
v -1.466478 2.982652 -23.29964
v -1.466476 -5.199666 -23.29964
v -1.601861 -5.199666 -29.85632
v -1.601863 2.982652 -29.85632
v -1.601863 2.982652 -29.85632
v -1.601861 -5.199666 -29.85632
v 0.4224536 -5.199666 -29.85632
v 0.4224524 2.982652 -29.85632
v -12.03623 5.150008 -10.28379
v -12.03623 5.150008 -12.41087
v -12.03623 -5.199666 -12.41087
v -12.03623 -5.199666 -10.28379
v -12.03623 -5.199666 -10.28379
v -12.45514 -5.199666 -10.28379
v -12.45514 5.150008 -10.28379
v -12.03623 5.150008 -10.28379
v -12.45514 -5.199666 -10.28379
v -12.45514 -5.199666 4.712257
v -12.45514 5.150008 4.712257
v -12.45514 5.150008 -10.28379
v -12.45514 -5.199666 4.712257
v -12.03944 -5.199666 4.712257
v -12.03944 5.150008 4.712257
v -12.45514 5.150008 4.712257
v -12.03944 -5.199666 4.712257
v -12.03944 -5.199666 5.168666
v -12.03944 5.150008 5.168666
v -12.03944 5.150008 4.712257
v -12.03944 -5.199666 5.168666
v -2.571893 -5.199666 5.168666
v -2.571893 5.150008 5.168666
v -12.03944 5.150008 5.168666
v -2.571893 -5.199666 5.168666
v -2.571893 -5.199666 4.691218
v -2.571893 5.150008 4.691218
v -2.571893 5.150008 5.168666
v -2.571893 -5.199666 4.691218
v -0.6827292 -5.199666 4.691218
v -0.6827292 5.150008 4.691218
v -2.571893 5.150008 4.691218
v -0.6827292 -5.199666 4.691218
v -0.6827292 -5.199666 5.131693
v -0.6827292 5.150008 5.131693
v -0.6827292 5.150008 4.691218
v -0.6827292 -5.199666 5.131693
v 8.99726 -5.199666 5.131693
v 8.99726 5.150008 5.131693
v -0.6827292 5.150008 5.131693
v 8.99726 -5.199666 5.131693
v 8.99726 -5.199666 4.699874
v 8.99726 5.150008 4.699874
v 8.99726 5.150008 5.131693
v 8.99726 -5.199666 4.699874
v 9.405116 -5.199666 4.699874
v 9.405116 5.150008 4.699874
v 8.99726 5.150008 4.699874
v 9.405116 -5.199666 4.699874
v 9.405116 -5.199666 -10.30139
v 9.405116 5.150008 -10.30139
v 9.405116 5.150008 4.699874
v 9.405116 -5.199666 -10.30139
v 8.975226 -5.199666 -10.30139
v 8.975226 5.150008 -10.30139
v 9.405116 5.150008 -10.30139
v 8.975226 -5.199666 -10.30139
v 8.975226 -5.199666 -12.03327
v 8.975226 5.150008 -12.03327
v 8.975226 5.150008 -10.30139
v 8.975226 -5.199666 -12.03327
v -0.2823539 -5.199666 -12.03327
v -0.2823539 5.150008 -12.03327
v 8.975226 5.150008 -12.03327
v -0.2823539 -5.199666 -12.03327
v -0.2823539 -5.199666 -23.38715
v -0.2823539 5.150008 -23.38715
v -0.2823539 5.150008 -12.03327
v -12.03623 5.150008 -12.41087
v -8.908616 5.150008 -12.41087
v -8.908616 -5.199666 -12.41087
v -12.03623 -5.199666 -12.41087
v -8.908616 5.150008 -12.41087
v -8.908616 5.150008 -23.51963
v -8.908616 -5.199666 -23.51963
v -8.908616 -5.199666 -12.41087
vt 0.05971765 9.041963E-05
vt 0.05975612 0.829185
vt 0.1536046 0.8292754
vt 0.15357 0
vt 0.6065751 0
vt 0.6065645 0.8292754
vt 0.9584163 6.028005E-05
vt 0.9583861 0.8292152
vt 0 0
vt 0.0003652323 0.4672621
vt 0.9996347 0.4672621
vt 1 0
vt 0.924206 -0.7098156
vt 1.395379 0.8138699
vt 1.390949 -0.70935
vt 0.9256846 -0.0478372
vt 0.9059874 0.07124738
vt 0.8567683 0.1821322
vt 0.7757805 0.2709817
vt 0.6375895 0.3470243
vt 0.5212079 0.3667498
vt -0.3464902 0.8135942
vt 0.4048164 0.3467995
vt 0.2664841 0.270481
vt 0.1856729 0.1816253
vt 0.1369128 0.07073902
vt 0.1179036 -0.04844258
vt -0.3484887 -0.7101562
vt 0.1173031 -0.7106869
vt 1.426926 -0.09836772
vt 1.884269 -0.05690005
vt 1.883291 -0.1846628
vt 1.425969 -0.2259055
vt 1.878788 -0.8474833
vt 1.421476 -0.8885444
vt 1.88462 0.06944001
vt 1.884269 -0.05690005
vt 1.427262 0.02812959
vt 1.885086 0.1963013
vt 1.427719 0.1555705
vt 1.42794 0.315565
vt 1.885314 0.3556114
vt 1.428062 0.4329153
vt 1.885437 0.4726562
vt 1.429014 -0.883513
vt 1.883911 -0.1903878
vt 1.884622 -0.8509715
vt 1.428311 -0.2221826
vt 1.428179 -0.09671992
vt 1.883753 -0.06631701
vt 1.883885 0.06188043
vt 1.883753 -0.06631701
vt 1.42835 0.03245911
vt 1.884027 0.1867984
vt 1.428542 0.1577298
vt 1.428951 0.316584
vt 1.884393 0.3457287
vt 1.429255 0.4333704
vt 1.884682 0.4626071
vt 0.9250383 -0.7110014
vt 1.389695 0.8158854
vt 1.390046 -0.7102022
vt 0.9250751 -0.04790413
vt 0.9060354 0.07125055
vt 0.8570957 0.1821295
vt 0.7760963 0.2710387
vt 0.6377419 0.3471946
vt 0.5210389 0.3669904
vt -0.3484891 0.8136035
vt 0.4044972 0.3472959
vt 0.2662216 0.2713635
vt 0.1854109 0.1826385
vt 0.1365946 0.0717731
vt 0.1174054 -0.04749037
vt -0.3495223 -0.7092525
vt 0.1169808 -0.7094615
vt -0.005262907 3.353082E-06
vt -0.005262907 0.4617055
vt 0.09353685 0.4617016
vt 0.09353685 -5.280733E-07
vt -1.531385E-05 0.5000069
vt 0.9999847 0.5000069
vt 1 0
vt 0 0
vt 0 0
vt 3.233338E-05 0.500024
vt 1.000032 0.500024
vt 1 0
vt -0.005262907 3.353082E-06
vt 0.09353685 -5.280733E-07
vt 0.09353685 0.4617016
vt -0.005262907 0.4617055
vt 0 0
vt 1 0
vt 1.00001 0.4793891
vt 1.005324E-05 0.4793891
vt 0 0
vt 1 0
vt 1.000003 0.4999947
vt 3.028589E-06 0.4999947
vt -0.2648809 -0.049039
vt -0.2648979 0.4566565
vt 0.999985 0.4566563
vt 1.000002 -0.04903913
vt 1.043931E-05 4.876588E-06
vt 3.740165E-05 0.4572932
vt 1.264941 0.4572986
vt 1.264914 1.031138E-05
vt 1.377842E-06 5.170162E-07
vt 1.729199E-05 0.7712151
vt 1.000017 0.7712151
vt 1.000001 5.170162E-07
vt -1.90094E-06 3.769265E-06
vt -5.60178E-06 0.556104
vt 0.9999944 0.556104
vt 0.9999981 3.769265E-06
vt 1.863314E-07 -0.02628661
vt 7.257543E-07 0.5000032
vt 1.000001 0.5000032
vt 1 -0.02628661
vt 0 0
vt -4.122093E-06 0.4993186
vt 0.9999959 0.4993186
vt 1 0
vt 0 0
vt 5.745989E-07 0.5000001
vt 1 0.5000001
vt 1 0
vt 0 0
vt -4.506933E-06 0.531548
vt 0.9999955 0.531548
vt 1 0
vt 0 0
vt 1.184332E-06 0.5000045
vt 1.000001 0.5000045
vt 1 0
vt 0 0
vt 7.193597E-06 0.4986201
vt 1.000007 0.4986201
vt 1 0
vt 1.082659E-05 -3.247035E-06
vt 1.600337E-05 0.5235064
vt 1.000016 0.5235064
vt 1.000011 -3.247035E-06
vt -1.379747E-07 -0.03541273
vt 6.895289E-06 0.499988
vt 1.000007 0.499988
vt 0.9999998 -0.03541273
vt 0 0
vt -1.871734E-05 0.5030752
vt 0.9999813 0.5030752
vt 1 0
vt 0 0
vt 6.992165E-06 0.4999951
vt 1.000007 0.4999951
vt 1 0
vt 0 0
vt 1.82428E-06 0.4733899
vt 1.000002 0.4733899
vt 1 0
vt -1.582617E-05 1.726723E-05
vt -3.794871E-05 0.5137734
vt 0.999962 0.5137734
vt 0.9999841 1.726723E-05
vt -4.345098E-07 -0.001269861
vt 1.049152E-05 0.4999996
vt 1.00001 0.4999996
vt 0.9999996 -0.001269861
vt 7.895657E-06 3.030481E-06
vt -2.629443E-05 0.4999808
vt 0.9999737 0.4999808
vt 1.000008 3.030481E-06
vt 3.192977E-07 -0.008344165
vt 1.845783E-05 0.4999999
vt 1.000018 0.4999999
vt 1 -0.008344165
vn 0 1 0
vn 0 1 0
vn 0 1 0
vn 0 1 0
vn 0 1 0
vn 0 1 0
vn 0 1 0
vn 0 1 0
vn 0 1 0
vn 0 1 0
vn 0 1 0
vn 0 1 0
vn 0 0 1
vn 1.520416E-07 2.037391E-07 1
vn 0 0 1
vn -2.474107E-07 0 1
vn -4.985998E-06 1.191882E-06 1
vn 3.116621E-06 -5.116486E-07 1
vn -3.503341E-06 7.79639E-07 1
vn 2.530189E-06 -4.038888E-06 1
vn 5.457537E-07 4.157413E-07 1
vn 1.245183E-06 0 1
vn 1.651213E-07 0 1
vn -2.933303E-06 -5.935662E-06 1
vn -3.69316E-06 1.068995E-06 1
vn 3.168585E-06 -1.573354E-06 1
vn 2.42117E-06 0 1
vn 2.319804E-06 0 1
vn 2.319804E-06 0 1
vn 0.9591978 -0.2827359 0
vn 0.9591978 -0.2827359 0
vn 0.9997002 -0.02448775 0
vn 0.9997002 -0.02448775 0
vn 1 0 0
vn 1 0 0
vn 0.8394387 -0.5434543 0
vn 0.9591978 -0.2827359 0
vn 0.8394387 -0.5434543 0
vn 0.6023995 -0.7981947 0
vn 0.6023994 -0.7981948 0
vn 0.3528858 -0.9356664 0
vn 0.3528857 -0.9356664 0
vn 1.062914E-06 -1 0
vn 8.260006E-07 -1 0
vn -1 0 0
vn -0.9997002 -0.02448764 0
vn -1 0 0
vn -0.9997002 -0.02448764 0
vn -0.9591977 -0.2827361 0
vn -0.9591977 -0.2827361 0
vn -0.8394342 -0.5434613 0
vn -0.9591977 -0.2827361 0
vn -0.8394342 -0.5434613 0
vn -0.6023991 -0.798195 0
vn -0.6023991 -0.798195 0
vn -0.3528873 -0.9356659 0
vn -0.3528873 -0.9356659 0
vn 8.260006E-07 -1 0
vn 1.062914E-06 -1 0
vn 2.899756E-06 0 -1
vn 1.348524E-06 1.117137E-07 -1
vn 2.899756E-06 0 -1
vn 2.60233E-06 0 -1
vn -6.663071E-06 -1.573355E-06 -1
vn 2.974283E-06 1.068995E-06 -1
vn -2.588459E-06 -4.314714E-06 -1
vn -1.079747E-07 1.25189E-07 -1
vn 0 4.320199E-07 -1
vn 5.727139E-07 2.323645E-07 -1
vn 2.112333E-06 -3.271109E-06 -1
vn 5.517716E-07 1.316048E-06 -1
vn -2.627469E-06 -1.59557E-07 -1
vn -5.404675E-06 1.382618E-06 -1
vn 9.985185E-07 0 -1
vn 1.159902E-06 0 -1
vn 1.159902E-06 0 -1
vn 0 0 1
vn 0 0 1
vn 0 0 1
vn 0 0 1
vn 0.9998336 -1.165415E-07 0.01824318
vn 0.9998336 -1.165415E-07 0.01824318
vn 0.9998336 -1.165415E-07 0.01824318
vn 0.9998336 -1.165415E-07 0.01824318
vn 0 0 -1
vn 0 0 -1
vn 0 0 -1
vn 0 0 -1
vn 0 0 1
vn 0 0 1
vn 0 0 1
vn 0 0 1
vn -0.9997869 -1.45592E-07 0.02064404
vn -0.9997869 -1.45592E-07 0.02064404
vn -0.9997869 -1.45592E-07 0.02064404
vn -0.9997869 -1.45592E-07 0.02064404
vn 0 0 -1
vn 0 0 -1
vn 0 0 -1
vn 0 0 -1
vn 1 0 0
vn 1 0 0
vn 1 0 0
vn 1 0 0
vn 0 0 1
vn 0 0 1
vn 0 0 1
vn 0 0 1
vn 1 0 0
vn 1 0 0
vn 1 0 0
vn 1 0 0
vn 0 0 -1
vn 0 0 -1
vn 0 0 -1
vn 0 0 -1
vn 1 0 0
vn 1 0 0
vn 1 0 0
vn 1 0 0
vn 0 0 -1
vn 0 0 -1
vn 0 0 -1
vn 0 0 -1
vn -1 0 0
vn -1 0 0
vn -1 0 0
vn -1 0 0
vn 0 0 -1
vn 0 0 -1
vn 0 0 -1
vn 0 0 -1
vn 1 0 0
vn 1 0 0
vn 1 0 0
vn 1 0 0
vn 0 0 -1
vn 0 0 -1
vn 0 0 -1
vn 0 0 -1
vn -1 0 0
vn -1 0 0
vn -1 0 0
vn -1 0 0
vn 0 0 -1
vn 0 0 -1
vn 0 0 -1
vn 0 0 -1
vn -1 0 0
vn -1 0 0
vn -1 0 0
vn -1 0 0
vn 0 0 1
vn 0 0 1
vn 0 0 1
vn 0 0 1
vn -1 0 0
vn -1 0 0
vn -1 0 0
vn -1 0 0
vn 0 0 1
vn 0 0 1
vn 0 0 1
vn 0 0 1
vn -1 0 0
vn -1 0 0
vn -1 0 0
vn -1 0 0
vn 0 0 1
vn 0 0 1
vn 0 0 1
vn 0 0 1
vn 1 0 0
vn 1 0 0
vn 1 0 0
vn 1 0 0
g Chap01_CloseView_MAZ_M301_P1_Camera_Collider_0
f 3/3/3 2/2/2 1/1/1
f 4/4/4 3/3/3 1/1/1
f 4/4/4 5/5/5 3/3/3
f 5/5/5 6/6/6 3/3/3
f 5/5/5 7/7/7 6/6/6
f 7/7/7 8/8/8 6/6/6
f 11/11/11 10/10/10 9/9/9
f 12/12/12 11/11/11 9/9/9
f 15/15/15 14/14/14 13/13/13
f 14/14/14 16/16/16 13/13/13
f 14/14/14 17/17/17 16/16/16
f 14/14/14 18/18/18 17/17/17
f 14/14/14 19/19/19 18/18/18
f 14/14/14 20/20/20 19/19/19
f 14/14/14 21/21/21 20/20/20
f 14/14/14 22/22/22 21/21/21
f 22/22/22 23/23/23 21/21/21
f 24/24/24 23/23/23 22/22/22
f 25/25/25 24/24/24 22/22/22
f 26/26/26 25/25/25 22/22/22
f 27/27/27 26/26/26 22/22/22
f 22/22/22 28/28/28 27/27/27
f 28/28/28 29/29/29 27/27/27
f 32/32/32 31/31/31 30/30/30
f 33/33/33 32/32/32 30/30/30
f 34/34/34 32/32/32 33/33/33
f 35/35/35 34/34/34 33/33/33
f 37/37/37 36/36/36 30/30/30
f 36/36/36 38/38/38 30/30/30
f 36/36/36 39/39/39 38/38/38
f 39/39/39 40/40/40 38/38/38
f 40/40/40 39/39/39 41/41/41
f 39/39/39 42/42/42 41/41/41
f 41/41/41 42/42/42 43/43/43
f 42/42/42 44/44/44 43/43/43
f 47/47/47 46/46/46 45/45/45
f 46/46/46 48/48/48 45/45/45
f 49/49/49 48/48/48 46/46/46
f 50/50/50 49/49/49 46/46/46
f 49/49/49 52/52/52 51/51/51
f 53/53/53 49/49/49 51/51/51
f 53/53/53 51/51/51 54/54/54
f 55/55/55 53/53/53 54/54/54
f 56/56/56 55/55/55 54/54/54
f 57/57/57 56/56/56 54/54/54
f 58/58/58 56/56/56 57/57/57
f 59/59/59 58/58/58 57/57/57
f 62/62/62 61/61/61 60/60/60
f 61/61/61 63/63/63 60/60/60
f 61/61/61 64/64/64 63/63/63
f 61/61/61 65/65/65 64/64/64
f 61/61/61 66/66/66 65/65/65
f 61/61/61 67/67/67 66/66/66
f 67/67/67 61/61/61 68/68/68
f 61/61/61 69/69/69 68/68/68
f 70/70/70 68/68/68 69/69/69
f 71/71/71 70/70/70 69/69/69
f 72/72/72 71/71/71 69/69/69
f 73/73/73 72/72/72 69/69/69
f 74/74/74 73/73/73 69/69/69
f 69/69/69 75/75/75 74/74/74
f 75/75/75 76/76/76 74/74/74
f 79/79/79 78/78/78 77/77/77
f 80/80/80 79/79/79 77/77/77
f 83/83/83 82/82/82 81/81/81
f 84/84/84 83/83/83 81/81/81
f 87/87/87 86/86/86 85/85/85
f 88/88/88 87/87/87 85/85/85
f 91/91/91 90/90/90 89/89/89
f 92/92/92 91/91/91 89/89/89
f 95/95/95 94/94/94 93/93/93
f 96/96/96 95/95/95 93/93/93
f 99/99/99 98/98/98 97/97/97
f 100/100/100 99/99/99 97/97/97
f 103/103/103 102/102/102 101/101/101
f 104/104/104 103/103/103 101/101/101
f 107/107/107 106/106/106 105/105/105
f 108/108/108 107/107/107 105/105/105
f 111/111/111 110/110/110 109/109/109
f 112/112/112 111/111/111 109/109/109
f 115/115/115 114/114/114 113/113/113
f 116/116/116 115/115/115 113/113/113
f 119/119/119 118/118/118 117/117/117
f 120/120/120 119/119/119 117/117/117
f 123/123/123 122/122/122 121/121/121
f 124/124/124 123/123/123 121/121/121
f 127/127/127 126/126/126 125/125/125
f 128/128/128 127/127/127 125/125/125
f 131/131/131 130/130/130 129/129/129
f 132/132/132 131/131/131 129/129/129
f 135/135/135 134/134/134 133/133/133
f 136/136/136 135/135/135 133/133/133
f 139/139/139 138/138/138 137/137/137
f 140/140/140 139/139/139 137/137/137
f 143/143/143 142/142/142 141/141/141
f 144/144/144 143/143/143 141/141/141
f 147/147/147 146/146/146 145/145/145
f 148/148/148 147/147/147 145/145/145
f 151/151/151 150/150/150 149/149/149
f 152/152/152 151/151/151 149/149/149
f 155/155/155 154/154/154 153/153/153
f 156/156/156 155/155/155 153/153/153
f 159/159/159 158/158/158 157/157/157
f 160/160/160 159/159/159 157/157/157
f 163/163/163 162/162/162 161/161/161
f 164/164/164 163/163/163 161/161/161
f 167/167/167 166/166/166 165/165/165
f 168/168/168 167/167/167 165/165/165
f 171/171/171 170/170/170 169/169/169
f 172/172/172 171/171/171 169/169/169
f 175/175/175 174/174/174 173/173/173
f 176/176/176 175/175/175 173/173/173
