g Chap01_Grd_M201_L2_Airwall_Collider
v 2.209069 3.015734 -8.664794
v 3.056128 3.015734 -9.172506
v 2.209069 -2.537437 -8.664794
v 3.056129 -2.537437 -9.172507
v 6.834802 3.015735 -13.22458
v 6.834802 -2.537436 -13.22458
v 5.988814 3.015735 -14.98305
v 5.988814 -2.537436 -14.98305
v -0.9482357 3.015732 -0.5150687
v -0.9482349 -2.537439 -0.5150695
v -1.982769 3.015733 -1.623173
v -1.982768 -2.537439 -1.623174
v -1.40144 3.015733 -4.532608
v -1.401439 -2.537438 -4.532609
v 2.663872 -2.537438 -5.52354
v 2.663871 3.015733 -5.52354
v 4.059994 -2.537437 -5.224082
v 4.059994 3.015734 -5.224082
v 9.278085 -2.537436 -10.96979
v 9.278083 3.015735 -10.96979
v -5.503722 3.015732 -6.726397
v -5.503722 -2.537439 -6.726397
v -3.058262 3.015733 -7.421487
v -3.058261 -2.537438 -7.421486
v -1.159152 3.015733 -7.979455
v -1.159151 -2.537438 -7.979455
v 1.63519 3.015733 -8.813003
v 1.635192 -2.537438 -8.813003
v 3.441349 3.015734 -9.511135
v 3.441349 -2.537437 -9.511136
v 6.009289 3.015735 -13.99322
v 6.009291 -2.537436 -13.99322
v -0.622672 3.015733 -2.85202
v -0.6226714 -2.537438 -2.852021
v -1.70155 -2.537438 -4.217124
v -1.701551 3.015733 -4.217124
v 9.940384 3.015735 -10.43616
v 9.940382 -2.537436 -10.43616
v 2.065947 3.015734 -9.654499
v 2.466545 3.015734 -9.980215
v 2.065948 -2.537437 -9.654499
v 2.466545 -2.537437 -9.980215
v 5.835615 3.015735 -13.18427
v 5.835615 -2.537436 -13.18427
v 4.989028 3.015735 -14.96237
v 4.989028 -2.537436 -14.96237
v -0.2172799 3.015733 -1.197494
v -0.2172792 -2.537439 -1.197494
v -0.9836712 3.015733 -1.580698
v -0.9836707 -2.537438 -1.580698
v -0.3504545 3.015733 -3.899303
v 2.677771 -2.537438 -4.523636
v 2.677771 3.015733 -4.523636
v 4.366097 -2.537437 -4.272084
v 4.366097 3.015734 -4.272084
v -5.777129 3.015732 -7.688295
v -5.777129 -2.537439 -7.688294
v -3.335913 3.015733 -8.382169
v -3.335913 -2.537438 -8.382168
v -1.443023 3.015733 -8.938317
v -1.443023 -2.537438 -8.938317
v 1.616612 3.015733 -9.81283
v 1.616614 -2.537438 -9.81283
v 2.741093 3.015734 -10.22503
v 2.741092 -2.537437 -10.22503
v 5.096555 3.015735 -13.58467
v 5.096558 -2.537436 -13.58466
v 0.3738341 3.015733 -2.7685
v 0.3738347 -2.537438 -2.7685
v -0.3504539 -2.537438 -3.899304
v 9.312976 3.015735 -9.657469
v 9.312971 -2.537436 -9.657468
v 3.056128 3.015734 -9.172506
v 3.056129 -2.537437 -9.172507
v -1.982769 3.015733 -1.623173
v -1.982768 -2.537439 -1.623174
v 2.663871 3.015733 -5.52354
v 2.663872 -2.537438 -5.52354
v 4.059994 3.015734 -5.224082
v 4.059994 -2.537437 -5.224082
v 9.278085 -2.537436 -10.96979
v 9.278083 3.015735 -10.96979
v 2.209069 -2.537437 -8.664794
v 2.209069 3.015734 -8.664794
v 1.63519 3.015733 -8.813003
v 1.635192 -2.537438 -8.813003
v 3.441349 -2.537437 -9.511136
v 3.441349 3.015734 -9.511135
v 6.009291 -2.537436 -13.99322
v 6.834802 3.015735 -13.22458
v 6.009289 3.015735 -13.99322
v 6.834802 -2.537436 -13.22458
v -0.6226714 -2.537438 -2.852021
v -0.622672 3.015733 -2.85202
v -1.70155 -2.537438 -4.217124
v -1.40144 3.015733 -4.532608
v -1.701551 3.015733 -4.217124
v -1.401439 -2.537438 -4.532609
v 2.466545 3.015734 -9.980215
v 2.466545 -2.537437 -9.980215
v -0.9836712 3.015733 -1.580698
v -0.9836707 -2.537438 -1.580698
v 2.677771 3.015733 -4.523636
v 2.677771 -2.537438 -4.523636
v 4.366097 3.015734 -4.272084
v 4.366097 -2.537437 -4.272084
v 2.065947 3.015734 -9.654499
v 2.065948 -2.537437 -9.654499
v 1.616612 3.015733 -9.81283
v 1.616614 -2.537438 -9.81283
v 5.096555 3.015735 -13.58467
v 5.835615 3.015735 -13.18427
v 5.096558 -2.537436 -13.58466
v 5.835615 -2.537436 -13.18427
v 0.3738341 3.015733 -2.7685
v -0.3504545 3.015733 -3.899303
v 0.3738347 -2.537438 -2.7685
v -0.3504539 -2.537438 -3.899304
v 2.466545 -2.537437 -9.980215
v 2.065948 -2.537437 -9.654499
v 3.056129 -2.537437 -9.172507
v 2.209069 -2.537437 -8.664794
v 2.065947 3.015734 -9.654499
v 2.466545 3.015734 -9.980215
v 3.056128 3.015734 -9.172506
v 2.209069 3.015734 -8.664794
v 2.741092 -2.537437 -10.22503
v 2.466545 -2.537437 -9.980215
v 3.441349 -2.537437 -9.511136
v 3.056129 -2.537437 -9.172507
v 3.441349 3.015734 -9.511135
v 3.056128 3.015734 -9.172506
v 2.466545 3.015734 -9.980215
v 2.741093 3.015734 -10.22503
v 6.009291 -2.537436 -13.99322
v 5.988814 -2.537436 -14.98305
v 4.989028 -2.537436 -14.96237
v 5.096558 -2.537436 -13.58466
v 4.989028 3.015735 -14.96237
v 4.989028 -2.537436 -14.96237
v 5.988814 -2.537436 -14.98305
v 5.988814 3.015735 -14.98305
v 4.989028 3.015735 -14.96237
v 5.988814 3.015735 -14.98305
v 6.009289 3.015735 -13.99322
v 5.096555 3.015735 -13.58467
v -0.9482349 -2.537439 -0.5150695
v -0.9836707 -2.537438 -1.580698
v -1.982768 -2.537439 -1.623174
v -0.2172792 -2.537439 -1.197494
v -0.2172792 -2.537439 -1.197494
v -0.9482357 3.015732 -0.5150687
v -0.2172799 3.015733 -1.197494
v -0.9482349 -2.537439 -0.5150695
v -0.9482357 3.015732 -0.5150687
v -1.982769 3.015733 -1.623173
v -0.9836712 3.015733 -1.580698
v -0.2172799 3.015733 -1.197494
v -0.6226714 -2.537438 -2.852021
v -1.982768 -2.537439 -1.623174
v -0.9836707 -2.537438 -1.580698
v 0.3738347 -2.537438 -2.7685
v -0.9836712 3.015733 -1.580698
v -0.622672 3.015733 -2.85202
v 0.3738341 3.015733 -2.7685
v -1.982769 3.015733 -1.623173
v -0.3504545 3.015733 -3.899303
v -1.40144 3.015733 -4.532608
v 2.663871 3.015733 -5.52354
v 2.677771 3.015733 -4.523636
v -0.3504539 -2.537438 -3.899304
v 2.677771 -2.537438 -4.523636
v 2.663872 -2.537438 -5.52354
v -1.401439 -2.537438 -4.532609
v 4.059994 3.015734 -5.224082
v 2.677771 3.015733 -4.523636
v 2.663871 3.015733 -5.52354
v 4.366097 3.015734 -4.272084
v 2.677771 -2.537438 -4.523636
v 4.366097 -2.537437 -4.272084
v 4.059994 -2.537437 -5.224082
v 2.663872 -2.537438 -5.52354
v 9.278083 3.015735 -10.96979
v 9.940384 3.015735 -10.43616
v 9.312976 3.015735 -9.657469
v 9.312971 -2.537436 -9.657468
v 9.278085 -2.537436 -10.96979
v 4.059994 -2.537437 -5.224082
v 4.366097 -2.537437 -4.272084
v 9.940384 3.015735 -10.43616
v 9.940382 -2.537436 -10.43616
v 9.312971 -2.537436 -9.657468
v 9.312976 3.015735 -9.657469
v 1.635192 -2.537438 -8.813003
v 2.209069 -2.537437 -8.664794
v 2.065948 -2.537437 -9.654499
v 1.616614 -2.537438 -9.81283
v 1.616612 3.015733 -9.81283
v 2.065947 3.015734 -9.654499
v 1.63519 3.015733 -8.813003
v 2.209069 3.015734 -8.664794
v -5.503722 3.015732 -6.726397
v -5.503722 -2.537439 -6.726397
v -5.777129 -2.537439 -7.688294
v -5.777129 3.015732 -7.688295
v -5.503722 -2.537439 -6.726397
v -3.058261 -2.537438 -7.421486
v -3.335913 -2.537438 -8.382168
v -5.777129 -2.537439 -7.688294
v -3.335913 3.015733 -8.382169
v -5.503722 3.015732 -6.726397
v -5.777129 3.015732 -7.688295
v -3.058262 3.015733 -7.421487
v -1.159151 -2.537438 -7.979455
v -1.443023 -2.537438 -8.938317
v -1.443023 3.015733 -8.938317
v -1.159152 3.015733 -7.979455
v 1.635192 -2.537438 -8.813003
v -1.443023 -2.537438 -8.938317
v -1.159151 -2.537438 -7.979455
v 1.616614 -2.537438 -9.81283
v -1.443023 3.015733 -8.938317
v 1.616612 3.015733 -9.81283
v 1.63519 3.015733 -8.813003
v -1.159152 3.015733 -7.979455
v 5.835615 3.015735 -13.18427
v 3.441349 3.015734 -9.511135
v 2.741093 3.015734 -10.22503
v 6.834802 3.015735 -13.22458
v 6.834802 -2.537436 -13.22458
v 5.835615 -2.537436 -13.18427
v 6.834802 -2.537436 -13.22458
v 5.835615 -2.537436 -13.18427
v 5.835615 3.015735 -13.18427
v 6.834802 3.015735 -13.22458
v -0.3504539 -2.537438 -3.899304
v -0.6226714 -2.537438 -2.852021
v 0.3738347 -2.537438 -2.7685
v -1.70155 -2.537438 -4.217124
v -1.701551 3.015733 -4.217124
v -0.3504545 3.015733 -3.899303
v -1.401439 -2.537438 -4.532609
v -1.40144 3.015733 -4.532608
v -1.701551 3.015733 -4.217124
v 9.312976 3.015735 -9.657469
v 4.366097 3.015734 -4.272084
v 4.059994 3.015734 -5.224082
v 9.278083 3.015735 -10.96979
v 9.278085 -2.537436 -10.96979
v 9.312971 -2.537436 -9.657468
v 9.940382 -2.537436 -10.43616
vt 0 0
vt 0 1
vt 1 0
vt 1 1
vt 0 1
vt 1 1
vt 0 1
vt 1 1
vt 1 0
vt 0 0
vt 1 1
vt 0 1
vt 1 0
vt 0 0
vt 0 1
vt 1 1
vt 0 1
vt 1 1
vt 0 1
vt 1 1
vt 1 1
vt 0 1
vt 0.5 1
vt 0.5 1
vt 0.25 1
vt 0.75 1
vt 0.125 1
vt 0.875 1
vt 0 0.5
vt 1 0.5
vt 0 0.5
vt 1 0.5
vt 1 0.5
vt 0 0.5
vt 0 0.875
vt 1 0.75
vt 1 0.5
vt 0 0.5
vt 0 0
vt 0 1
vt 1 0
vt 1 1
vt 0 1
vt 1 1
vt 0 1
vt 1 1
vt 1 0
vt 0 0
vt 1 1
vt 0 1
vt 1 0
vt 0 1
vt 1 1
vt 0 1
vt 1 1
vt 1 1
vt 0 1
vt 0.5 1
vt 0.5 1
vt 0.25 1
vt 0.75 1
vt 0.125 1
vt 0.875 1
vt 0 0.5
vt 1 0.5
vt 0 0.5
vt 1 0.5
vt 1 0.5
vt 0 0.5
vt 0 0
vt 1 0.9649703
vt 4.042704E-08 0.96497
vt 0 0
vt 1 0
vt 1 0
vt 0 0
vt 1 0
vt 0 0
vt 1 0
vt 0 0
vt 0 0
vt 1 0
vt 1 1
vt 0 1
vt 0.125 1
vt 0.875 1
vt 1 0.5
vt 0 0.5
vt 1 0.5
vt 0 0
vt 0 0.5
vt 1 0
vt 0 0.5
vt 1 0.5
vt 0 0.875
vt 1 0.875
vt 1 0.75
vt 0 1
vt 0 0
vt 1 0
vt 1 0
vt 0 0
vt 1 0
vt 0 0
vt 1 0
vt 0 0
vt 0 1
vt 1 1
vt 0.125 1
vt 0.875 1
vt 0 0.5
vt 0 0
vt 1 0.5
vt 1 0
vt 1 0.5
vt 1 0.875
vt 0 0.5
vt 0 0.875
vt 1 1
vt 1 0
vt 1 1
vt 1 0
vt 0 0
vt 0 1
vt 0 1
vt 0 0
vt 1 0.5
vt 1 0
vt 1 0.5
vt 1 0
vt 0 0.5
vt 0 0
vt 0 0
vt 0 0.5
vt 1 0.5
vt 1 1
vt 1 1
vt 1 0.5
vt 0 1
vt 1 1
vt 1 1
vt 0 1
vt 0 1
vt 0 1
vt 0 0.5
vt 0 0.5
vt 0 0
vt 0 1
vt 0 1
vt 0 0
vt 0 0
vt 1 0
vt 1 0
vt 0 0
vt 1 0
vt 1 1
vt 1 1
vt 1 0
vt 0 0.5
vt 0 0
vt 0 0
vt 0 0.5
vt 1 0
vt 1 0.5
vt 1 0.5
vt 1 0
vt 1 0
vt 1 0
vt 1 1
vt 1 1
vt 0 0
vt 0 1
vt 0 1
vt 0 0
vt 1 1
vt 1 0
vt 1 0
vt 1 1
vt 0 0
vt 0 1
vt 0 1
vt 0 0
vt 1 1
vt 1 1.114263
vt 1 0.9876326
vt 0 0.9881387
vt 0 1
vt 0 0
vt 0 0
vt 1 0.5
vt 0 0.5
vt 0 0.5
vt 1 0.5
vt 0.875 1
vt 1 1
vt 1 1
vt 0.875 1
vt 0.125 1
vt 0 1
vt 0.125 1
vt 0 1
vt 1 1
vt 0 1
vt 0 1
vt 1 1
vt 0 1
vt 0.5 1
vt 0.5 1
vt 0 1
vt 0.5 1
vt 1 1
vt 1 1
vt 0.5 1
vt 0.75 1
vt 0.75 1
vt 0.25 1
vt 0.25 1
vt 0.875 1
vt 0.75 1
vt 0.75 1
vt 0.875 1
vt 0.25 1
vt 0.125 1
vt 0.125 1
vt 0.25 1
vt 0 1
vt 0 0.5
vt 0 0.5
vt 0 1
vt 1 1
vt 1 1
vt 1 0
vt 1 0
vt 0 0
vt 0 0
vt 0 0.875
vt 0 0.5
vt 0 0.5
vt 0 0.875
vt 1 0.75
vt 1 0.875
vt 0 0.875
vt 1 0.875
vt 1 0.875
vt 1 0.9876326
vt 1 0
vt 1 0
vt 1 1
vt 0 1
vt 0 0.9881387
vt 0 1.109583
vn 0.5141067 0 0.8577262
vn 0.5141067 0 0.8577263
vn 0.5141067 0 0.8577263
vn 0.5141067 0 0.8577262
vn 0.738197 -1.74793E-07 0.6745852
vn 0.738197 -1.74793E-07 0.6745853
vn 0.9997862 1.647891E-07 -0.02068108
vn 0.9997862 1.647891E-07 -0.02068108
vn -0.7309557 -1.740046E-07 0.6824248
vn -0.7309558 -1.740046E-07 0.6824248
vn -0.7309558 -1.740046E-07 0.6824248
vn -0.7309557 -1.740046E-07 0.6824248
vn -0.236819 0 -0.9715537
vn -0.236819 0 -0.9715537
vn -0.236819 0 -0.9715537
vn -0.236819 0 -0.9715537
vn 0.2097221 1.30857E-07 -0.977761
vn 0.2097221 1.30857E-07 -0.977761
vn -0.7402785 0 -0.6723003
vn -0.7402785 0 -0.6723003
vn 0.2734069 1.245088E-07 0.9618985
vn 0.2734069 1.245088E-07 0.9618985
vn 0.2734069 1.245088E-07 0.9618985
vn 0.2734069 1.245088E-07 0.9618985
vn 0.2818905 0 0.9594465
vn 0.2818905 0 0.9594465
vn -0.2500548 0 0.9682317
vn -0.2500548 0 0.9682317
vn 0.6602265 -1.050036E-07 0.7510664
vn 0.6602265 -1.050036E-07 0.7510665
vn 0.9997862 1.647891E-07 -0.02068108
vn 0.9997862 1.647891E-07 -0.02068108
vn -0.6703982 0 -0.7420015
vn -0.6703982 0 -0.7420014
vn -0.7845568 -1.566569E-07 0.6200568
vn -0.7845568 -1.566569E-07 0.6200568
vn 0.6274095 -2.565131E-07 -0.7786895
vn 0.6274095 -2.565131E-07 -0.7786895
vn -0.6308613 0 -0.7758955
vn -0.6308613 0 -0.7758955
vn -0.6308613 0 -0.7758955
vn -0.6308613 0 -0.7758955
vn -0.6911324 1.766073E-07 -0.7227282
vn -0.6911324 1.766073E-07 -0.7227282
vn -0.9969681 -1.745814E-07 0.07781209
vn -0.9969681 -1.745814E-07 0.07781209
vn 0.4472214 1.930492E-07 -0.8944232
vn 0.4472214 1.930492E-07 -0.8944232
vn 0.4472213 1.930491E-07 -0.8944232
vn 0.4472214 1.930492E-07 -0.8944232
vn 0.2019241 0 0.9794012
vn 0.2019241 0 0.9794012
vn 0.2019241 0 0.9794012
vn -0.1473682 -1.197644E-07 0.9890817
vn -0.1473682 -1.197644E-07 0.9890817
vn -0.2734033 -1.16064E-07 -0.9618996
vn -0.2734033 -1.16064E-07 -0.9618996
vn -0.2734033 -1.16064E-07 -0.9618996
vn -0.2734033 -1.160639E-07 -0.9618995
vn -0.2818942 0 -0.9594454
vn -0.2818943 0 -0.9594454
vn 0.3323399 0 -0.9431598
vn 0.3323398 0 -0.9431598
vn -0.6655328 1.053257E-07 -0.7463687
vn -0.6655327 1.053257E-07 -0.7463687
vn -0.9969681 -1.745814E-07 0.07781209
vn -0.9969681 -1.745814E-07 0.07781209
vn 0.6584999 0 0.7525808
vn 0.6584998 0 0.7525809
vn 0.2019241 0 0.9794012
vn 0.736454 -3.078207E-07 0.6764877
vn 0.736454 -3.078207E-07 0.6764877
vn 0.6602265 -1.050036E-07 0.7510665
vn 0.6602265 -1.050036E-07 0.7510664
vn -0.6703982 0 -0.7420015
vn -0.6703982 0 -0.7420015
vn 0.2097221 1.30857E-07 -0.977761
vn 0.2097221 1.30857E-07 -0.977761
vn -0.7402785 0 -0.6723003
vn -0.7402785 0 -0.6723003
vn 0.6274095 -2.565131E-07 -0.7786895
vn 0.6274095 -2.565131E-07 -0.7786895
vn -0.2500548 0 0.9682317
vn -0.2500548 0 0.9682317
vn 0.2858515 0 0.9582739
vn 0.2858515 0 0.9582739
vn 0.738197 -1.74793E-07 0.6745852
vn 0.738197 -1.74793E-07 0.6745852
vn 0.6814457 1.120589E-07 -0.7318687
vn 0.6814457 1.120589E-07 -0.7318687
vn 0.6814457 1.120589E-07 -0.7318687
vn 0.6814457 1.120589E-07 -0.7318687
vn -0.7845568 -1.566569E-07 0.6200568
vn -0.7845568 -1.566569E-07 0.6200568
vn -0.7245392 0 -0.6892336
vn -0.7245392 0 -0.6892336
vn -0.7245392 0 -0.6892336
vn -0.7245392 0 -0.6892336
vn -0.6655327 1.053257E-07 -0.7463687
vn -0.6655327 1.053257E-07 -0.7463687
vn 0.6584998 0 0.7525809
vn 0.6584999 0 0.7525808
vn -0.1473682 -1.197644E-07 0.9890817
vn -0.1473682 -1.197644E-07 0.9890817
vn 0.736454 -3.078207E-07 0.6764877
vn 0.736454 -3.078207E-07 0.6764877
vn 0.3323399 0 -0.9431598
vn 0.3323398 0 -0.9431598
vn -0.2748173 0 -0.9614965
vn -0.2748173 0 -0.9614965
vn -0.4763528 0 0.8792542
vn -0.4763528 0 0.8792542
vn -0.4763528 0 0.8792543
vn -0.4763528 0 0.8792543
vn 0.8420772 1.505988E-07 -0.5393569
vn 0.8420772 1.505988E-07 -0.539357
vn 0.8420772 1.505988E-07 -0.5393569
vn 0.8420772 1.505988E-07 -0.539357
vn 4.360508E-07 -1 -2.626467E-07
vn 4.360508E-07 -1 -2.626467E-07
vn 4.360508E-07 -1 -2.626468E-07
vn 4.360508E-07 -1 -2.626467E-07
vn -3.844978E-07 1 1.567382E-07
vn -3.844978E-07 1 1.567382E-07
vn -3.844978E-07 1 1.567382E-07
vn -3.844978E-07 1 1.567382E-07
vn 4.273726E-07 -1 -5.628414E-07
vn 4.273727E-07 -1 -5.628414E-07
vn 4.273727E-07 -1 -5.628414E-07
vn 4.273726E-07 -1 -5.628414E-07
vn -5.287436E-07 1 4.482087E-07
vn -5.287436E-07 1 4.482088E-07
vn -5.287436E-07 1 4.482088E-07
vn -5.287436E-07 1 4.482087E-07
vn 3.153087E-07 -1 0
vn 3.153087E-07 -1 0
vn 3.153087E-07 -1 0
vn 3.153087E-07 -1 0
vn -0.02068115 0 -0.9997862
vn -0.02068115 0 -0.9997862
vn -0.02068115 0 -0.9997862
vn -0.02068115 0 -0.9997862
vn 0 1 0
vn 0 1 0
vn 0 1 0
vn 0 1 0
vn 0 -1 -4.301461E-07
vn 0 -1 -4.301461E-07
vn 0 -1 -4.301461E-07
vn 0 -1 -4.301461E-07
vn 0.6824249 0 0.7309557
vn 0.6824249 0 0.7309557
vn 0.6824249 0 0.7309557
vn 0.6824249 0 0.7309557
vn 0 1 2.886956E-07
vn 0 1 2.886956E-07
vn 0 1 2.886956E-07
vn 0 1 2.886956E-07
vn 1.502307E-07 -1 0
vn 1.502307E-07 -1 0
vn 1.502307E-07 -1 0
vn 1.502307E-07 -1 0
vn 0 1 2.358181E-07
vn 0 1 2.358181E-07
vn 0 1 2.358181E-07
vn 0 1 2.358181E-07
vn -1.498398E-07 1 0
vn -1.498398E-07 1 0
vn -1.498398E-07 1 0
vn -1.498398E-07 1 0
vn 1.123799E-07 -1 0
vn 1.123799E-07 -1 0
vn 1.123799E-07 -1 0
vn 1.123799E-07 -1 0
vn -2.038505E-07 1 0
vn -2.038505E-07 1 0
vn -2.038505E-07 1 0
vn -2.038505E-07 1 0
vn 2.691995E-07 -1 -1.223076E-07
vn 2.691995E-07 -1 -1.223076E-07
vn 2.691995E-07 -1 -1.223076E-07
vn 2.691995E-07 -1 -1.223076E-07
vn 0 1 0
vn 0 1 0
vn 0 1 0
vn 5.111098E-07 -1 1.925826E-07
vn 5.111097E-07 -1 1.925826E-07
vn 5.111098E-07 -1 1.925827E-07
vn 5.111098E-07 -1 1.925827E-07
vn 0.7786893 -1.868478E-07 0.6274097
vn 0.7786893 -1.868478E-07 0.6274097
vn 0.7786893 -1.868478E-07 0.6274097
vn 0.7786893 -1.868478E-07 0.6274098
vn 9.170897E-07 -1 0
vn 9.170897E-07 -1 0
vn 9.170897E-07 -1 0
vn 9.170896E-07 -1 0
vn -6.113914E-07 1 0
vn -6.113914E-07 1 0
vn -6.113914E-07 1 0
vn -6.113914E-07 1 0
vn -0.9618984 0 0.273407
vn -0.9618984 0 0.273407
vn -0.9618984 0 0.273407
vn -0.9618984 0 0.273407
vn 2.727029E-07 -1 0
vn 2.727029E-07 -1 0
vn 2.727029E-07 -1 0
vn 2.727029E-07 -1 0
vn -3.464766E-07 1 0
vn -3.464766E-07 1 0
vn -3.464766E-07 1 0
vn -3.464766E-07 1 0
vn 1.326708E-07 -1 0
vn 1.326708E-07 -1 0
vn -1.482187E-07 1 0
vn -1.482187E-07 1 0
vn 0 -1 0
vn 0 -1 0
vn 0 -1 0
vn 0 -1 0
vn 0 1 0
vn 0 1 0
vn 0 1 0
vn 0 1 0
vn 0 1 1.320508E-07
vn 0 1 1.320508E-07
vn 0 1 1.320508E-07
vn 0 1 1.320508E-07
vn 0 -1 -1.785609E-07
vn 0 -1 -1.785609E-07
vn 1.680899E-07 -1 0
vn 1.680899E-07 -1 0
vn 0 1 3.972702E-07
vn 0 1 3.972702E-07
vn 1.721611E-07 -1 -2.466482E-07
vn 1.721611E-07 -1 -2.466482E-07
vn 1.721611E-07 -1 -2.466482E-07
vn 1.721611E-07 -1 -2.466482E-07
vn 0 1 0
vn 0 1 0
vn 0 -1 0
vn 0 1 0
vn 0 1 0
vn -2.061779E-07 1 0
vn -2.061779E-07 1 0
vn -2.061779E-07 1 0
vn -2.06178E-07 1 0
vn -3.829416E-07 -1 4.752734E-07
vn -3.829417E-07 -1 4.752734E-07
vn -3.829417E-07 -1 4.752734E-07
g Chap01_Grd_M201_L2_Airwall_Collider_0
f 4/4/4 2/2/2 1/1/1
f 1/1/1 3/3/3 4/4/4
f 30/30/30 29/29/29 73/73/73
f 73/73/73 74/74/74 30/30/30
f 7/7/7 31/31/31 8/8/8
f 32/32/32 8/8/8 31/31/31
f 12/12/12 10/10/10 9/9/9
f 9/9/9 11/11/11 12/12/12
f 34/34/34 76/76/76 75/75/75
f 75/75/75 33/33/33 34/34/34
f 15/15/15 13/13/13 16/16/16
f 15/15/15 14/14/14 13/13/13
f 17/17/17 77/77/77 18/18/18
f 17/17/17 78/78/78 77/77/77
f 19/19/19 79/79/79 20/20/20
f 19/19/19 80/80/80 79/79/79
f 82/82/82 37/37/37 81/81/81
f 38/38/38 81/81/81 37/37/37
f 84/84/84 27/27/27 83/83/83
f 28/28/28 83/83/83 27/27/27
f 23/23/23 21/21/21 24/24/24
f 22/22/22 24/24/24 21/21/21
f 25/25/25 23/23/23 26/26/26
f 24/24/24 26/26/26 23/23/23
f 26/26/26 86/86/86 85/85/85
f 85/85/85 25/25/25 26/26/26
f 87/87/87 6/6/6 5/5/5
f 5/5/5 88/88/88 87/87/87
f 91/91/91 90/90/90 89/89/89
f 92/92/92 89/89/89 90/90/90
f 94/94/94 36/36/36 93/93/93
f 35/35/35 93/93/93 36/36/36
f 97/97/97 96/96/96 95/95/95
f 98/98/98 95/95/95 96/96/96
f 42/42/42 41/41/41 39/39/39
f 39/39/39 40/40/40 42/42/42
f 65/65/65 100/100/100 99/99/99
f 99/99/99 64/64/64 65/65/65
f 46/46/46 66/66/66 45/45/45
f 46/46/46 67/67/67 66/66/66
f 50/50/50 49/49/49 47/47/47
f 47/47/47 48/48/48 50/50/50
f 69/69/69 68/68/68 101/101/101
f 101/101/101 102/102/102 69/69/69
f 52/52/52 53/53/53 51/51/51
f 51/51/51 70/70/70 52/52/52
f 54/54/54 55/55/55 103/103/103
f 103/103/103 104/104/104 54/54/54
f 72/72/72 71/71/71 105/105/105
f 105/105/105 106/106/106 72/72/72
f 108/108/108 62/62/62 107/107/107
f 108/108/108 63/63/63 62/62/62
f 59/59/59 56/56/56 58/58/58
f 59/59/59 57/57/57 56/56/56
f 61/61/61 58/58/58 60/60/60
f 61/61/61 59/59/59 58/58/58
f 61/61/61 60/60/60 109/109/109
f 109/109/109 110/110/110 61/61/61
f 44/44/44 64/64/64 43/43/43
f 44/44/44 65/65/65 64/64/64
f 113/113/113 112/112/112 111/111/111
f 113/113/113 114/114/114 112/112/112
f 117/117/117 116/116/116 115/115/115
f 117/117/117 118/118/118 116/116/116
f 121/121/121 120/120/120 119/119/119
f 122/122/122 120/120/120 121/121/121
f 125/125/125 124/124/124 123/123/123
f 123/123/123 126/126/126 125/125/125
f 129/129/129 128/128/128 127/127/127
f 130/130/130 128/128/128 129/129/129
f 133/133/133 132/132/132 131/131/131
f 131/131/131 134/134/134 133/133/133
f 137/137/137 136/136/136 135/135/135
f 135/135/135 138/138/138 137/137/137
f 141/141/141 140/140/140 139/139/139
f 139/139/139 142/142/142 141/141/141
f 145/145/145 144/144/144 143/143/143
f 146/146/146 145/145/145 143/143/143
f 149/149/149 148/148/148 147/147/147
f 148/148/148 150/150/150 147/147/147
f 153/153/153 152/152/152 151/151/151
f 154/154/154 151/151/151 152/152/152
f 157/157/157 156/156/156 155/155/155
f 155/155/155 158/158/158 157/157/157
f 161/161/161 160/160/160 159/159/159
f 159/159/159 162/162/162 161/161/161
f 165/165/165 164/164/164 163/163/163
f 166/166/166 163/163/163 164/164/164
f 169/169/169 168/168/168 167/167/167
f 167/167/167 170/170/170 169/169/169
f 173/173/173 172/172/172 171/171/171
f 171/171/171 174/174/174 173/173/173
f 177/177/177 176/176/176 175/175/175
f 176/176/176 178/178/178 175/175/175
f 181/181/181 180/180/180 179/179/179
f 179/179/179 182/182/182 181/181/181
f 185/185/185 184/184/184 183/183/183
f 188/188/188 187/187/187 186/186/186
f 186/186/186 189/189/189 188/188/188
f 192/192/192 191/191/191 190/190/190
f 190/190/190 193/193/193 192/192/192
f 196/196/196 195/195/195 194/194/194
f 194/194/194 197/197/197 196/196/196
f 200/200/200 199/199/199 198/198/198
f 201/201/201 199/199/199 200/200/200
f 204/204/204 203/203/203 202/202/202
f 202/202/202 205/205/205 204/204/204
f 208/208/208 207/207/207 206/206/206
f 206/206/206 209/209/209 208/208/208
f 212/212/212 211/211/211 210/210/210
f 213/213/213 210/210/210 211/211/211
f 207/207/207 208/208/208 214/214/214
f 208/208/208 215/215/215 214/214/214
f 217/217/217 216/216/216 210/210/210
f 210/210/210 213/213/213 217/217/217
f 220/220/220 219/219/219 218/218/218
f 219/219/219 221/221/221 218/218/218
f 224/224/224 223/223/223 222/222/222
f 222/222/222 225/225/225 224/224/224
f 228/228/228 227/227/227 226/226/226
f 229/229/229 226/226/226 227/227/227
f 231/231/231 230/230/230 129/129/129
f 129/129/129 127/127/127 231/231/231
f 233/233/233 135/135/135 232/232/232
f 135/135/135 233/233/233 138/138/138
f 145/145/145 146/146/146 234/234/234
f 234/234/234 235/235/235 145/145/145
f 238/238/238 237/237/237 236/236/236
f 239/239/239 236/236/236 237/237/237
f 241/241/241 240/240/240 164/164/164
f 164/164/164 165/165/165 241/241/241
f 242/242/242 236/236/236 239/239/239
f 244/244/244 241/241/241 243/243/243
f 247/247/247 246/246/246 245/245/245
f 245/245/245 248/248/248 247/247/247
f 251/251/251 250/250/250 249/249/249
