g Chap01_INT_Orphanage_01_Room_Ground_Collider
v 3.017217 4.153677E-08 -2.021978
v 2.006368 1.914725E-07 -2.429702
v 2.006368 3.411247 -2.429701
v 3.017217 3.411247 -2.021978
v -0.9704231 -5.032342E-07 3.89462
v -0.8179654 3.411246 3.35798
v -0.9704228 3.411246 3.89462
v -0.8179657 -4.355321E-07 3.35798
v -0.02254063 3.411246 2.576298
v -0.02254097 -3.870394E-07 2.576297
v -3.18852 -3.093219E-07 3.89462
v -0.9704231 -5.032342E-07 3.89462
v -0.9704228 3.411246 3.89462
v -3.18852 3.411246 3.89462
v -4.090001 -9.599567E-08 3.003759
v -4.090001 3.411247 3.003759
v 1.875687 -1.781268E-07 0.09370449
v 1.557859 -2.708739E-08 -0.7225693
v 1.557859 3.411246 -0.7225688
v 1.875687 3.411246 0.09370501
v 2.73491 -6.405598E-08 -1.159221
v 3.017217 -5.097768E-08 -1.409283
v 3.017217 3.411247 -1.409282
v 2.73491 3.411247 -1.15922
v 1.557859 -2.708739E-08 -0.7225693
v 1.557859 3.411246 -0.7225688
v 3.017217 -5.097768E-08 -1.409283
v 3.017217 4.153677E-08 -2.021978
v 3.017217 3.411247 -2.021978
v 3.017217 3.411247 -1.409282
v -0.3747867 6.134463E-07 -3.845679
v -0.3144136 5.274109E-07 -3.310847
v -0.3144133 3.411247 -3.310847
v -0.3747864 3.411247 -3.845679
v -4.08921 8.64152E-07 -3.35547
v -4.08921 7.431796E-07 -2.554306
v -4.08921 3.411247 -2.554306
v -4.08921 3.411247 -3.35547
v -2.737509 7.459826E-07 -3.35547
v -4.08921 8.64152E-07 -3.35547
v -4.08921 3.411247 -3.35547
v -2.737509 3.411247 -3.35547
v -4.08921 7.431796E-07 -2.554306
v -3.469368 6.889913E-07 -2.554306
v -3.469368 3.411247 -2.554306
v -4.08921 3.411247 -2.554306
v -3.469368 5.787819E-07 -1.824422
v -1.448125 4.020793E-07 -1.824423
v -1.448125 3.411247 -1.824422
v -3.469368 3.411247 -1.824422
v -3.469368 6.889913E-07 -2.554306
v -3.469368 5.787819E-07 -1.824422
v -3.469368 3.411247 -1.824422
v -3.469368 3.411247 -2.554306
v -2.6443 6.934358E-07 -3.061434
v -2.737509 7.459826E-07 -3.35547
v -2.737509 3.411247 -3.35547
v -2.6443 3.411247 -3.061434
v -0.3144133 3.411247 -3.310847
v -0.3144136 5.274109E-07 -3.310847
v -0.8558782 5.216525E-07 -2.959216
v -0.8558779 3.411247 -2.959215
v -2.6443 6.934358E-07 -3.061434
v -2.6443 3.411247 -3.061434
v -3.587943 2.935704E-07 0.1330998
v -3.587942 4.854004E-08 1.755862
v -3.587942 3.411247 1.755863
v -3.587942 3.411247 0.1331003
v -1.448125 3.411246 0.1331003
v -1.448125 1.065016E-07 0.1330997
v -3.587943 2.935704E-07 0.1330998
v -3.587942 3.411247 0.1331003
v 2.006368 1.914725E-07 -2.429702
v 2.586156 3.545925E-07 -3.84568
v 2.586156 3.411247 -3.845679
v 2.006368 3.411247 -2.429701
v 1.587338 -5.501529E-07 2.72447
v 1.394378 3.411246 1.37476
v 1.587338 3.411246 2.72447
v 1.394378 -3.294833E-07 1.37476
v 1.52619 3.411246 0.3971524
v 1.52619 -1.93392E-07 0.3971518
v 1.875687 3.411246 0.09370501
v 1.875687 -1.781268E-07 0.09370449
v 2.586156 3.545925E-07 -3.84568
v -0.3747867 6.134463E-07 -3.845679
v -0.3747864 3.411247 -3.845679
v 2.586156 3.411247 -3.845679
v -1.448125 3.411247 -1.824422
v -1.448125 4.020793E-07 -1.824423
v -1.448125 1.065016E-07 0.1330997
v -1.448125 3.411246 0.1331003
v -0.02254097 -3.870394E-07 2.576297
v 0.3268386 3.411246 2.930058
v -0.02254063 3.411246 2.576298
v 0.3268383 -4.709995E-07 2.930058
v 0.7035264 3.411246 2.72447
v 0.7035261 -4.728876E-07 2.724469
v 1.587338 3.411246 2.72447
v 1.587338 -5.501529E-07 2.72447
v -3.469368 6.889913E-07 -2.554306
v -4.08921 7.431796E-07 -2.554306
v -4.08921 8.64152E-07 -3.35547
v -2.737509 7.459826E-07 -3.35547
v -3.469368 5.787819E-07 -1.824422
v -2.6443 6.934358E-07 -3.061434
v -1.448125 4.020793E-07 -1.824423
v -0.8558782 5.216525E-07 -2.959216
v -0.3144136 5.274109E-07 -3.310847
v 2.006368 1.914725E-07 -2.429702
v -0.3747867 6.134463E-07 -3.845679
v 2.586156 3.545925E-07 -3.84568
v 1.557859 -2.708739E-08 -0.7225693
v 2.73491 -6.405598E-08 -1.159221
v 3.017217 4.153677E-08 -2.021978
v 3.017217 -5.097768E-08 -1.409283
v 1.875687 -1.781268E-07 0.09370449
v -1.448125 1.065016E-07 0.1330997
v 1.52619 -1.93392E-07 0.3971518
v 1.394378 -3.294833E-07 1.37476
v 0.7035261 -4.728876E-07 2.724469
v 1.587338 -5.501529E-07 2.72447
v -0.02254097 -3.870394E-07 2.576297
v 0.3268383 -4.709995E-07 2.930058
v -3.141493 -1.526886E-08 2.067269
v -0.8179657 -4.355321E-07 3.35798
v -3.587942 4.854004E-08 1.755862
v -3.587943 2.935704E-07 0.1330998
v -3.309912 -7.907042E-09 2.484694
v -0.9704231 -5.032342E-07 3.89462
v -3.18852 -3.093219E-07 3.89462
v -4.090001 -9.599567E-08 3.003759
v -3.141493 -1.526886E-08 2.067269
v -3.141493 3.411246 2.067269
v -3.587942 3.411247 1.755863
v -3.587942 4.854004E-08 1.755862
v -4.090001 -9.599567E-08 3.003759
v -4.090001 3.411247 3.003759
v -3.309912 3.411246 2.484694
v -3.309912 -7.907042E-09 2.484694
v -3.309912 -7.907042E-09 2.484694
v -3.309912 3.411246 2.484694
v -3.141493 3.411246 2.067269
v -3.141493 -1.526886E-08 2.067269
vt 0 0
vt 0 0
vt 0 0
vt 0 0
vt 0 0
vt 0 0
vt 0 0
vt 0 0
vt 0 0
vt 0 0
vt 0 0
vt 0 0
vt 0 0
vt 0 0
vt 0 0
vt 0 0
vt 0 0
vt 0 0
vt 0 0
vt 0 0
vt 0 0
vt 0 0
vt 0 0
vt 0 0
vt 0 0
vt 0 0
vt 0 0
vt 0 0
vt 0 0
vt 0 0
vt 0 0
vt 0 0
vt 0 0
vt 0 0
vt 0 0
vt 0 0
vt 0 0
vt 0 0
vt 0 0
vt 0 0
vt 0 0
vt 0 0
vt 0 0
vt 0 0
vt 0 0
vt 0 0
vt 0 0
vt 0 0
vt 0 0
vt 0 0
vt 0 0
vt 0 0
vt 0 0
vt 0 0
vt 0 0
vt 0 0
vt 0 0
vt 0 0
vt 0 0
vt 0 0
vt 0 0
vt 0 0
vt 0 0
vt 0 0
vt 0 0
vt 0 0
vt 0 0
vt 0 0
vt 0 0
vt 0 0
vt 0 0
vt 0 0
vt 0 0
vt 0 0
vt 0 0
vt 0 0
vt 0 0
vt 0 0
vt 0 0
vt 0 0
vt 0 0
vt 0 0
vt 0 0
vt 0 0
vt 0 0
vt 0 0
vt 0 0
vt 0 0
vt 0 0
vt 0 0
vt 0 0
vt 0 0
vt 0 0
vt 0 0
vt 0 0
vt 0 0
vt 0 0
vt 0 0
vt 0 0
vt 0 0
vt 0 0
vt 0 0
vt 0 0
vt 0 0
vt 0 0
vt 0 0
vt 0 0
vt 0 0
vt 0 0
vt 0 0
vt 0 0
vt 0 0
vt 0 0
vt 0 0
vt 0 0
vt 0 0
vt 0 0
vt 0 0
vt 0 0
vt 0 0
vt 0 0
vt 0 0
vt 0 0
vt 0 0
vt 0 0
vt 0 0
vt 0 0
vt 0 0
vt 0 0
vt 0 0
vt 0 0
vt 0 0
vt 0 0
vt 0 0
vt 0 0
vt 0 0
vt 0 0
vt 0 0
vt 0 0
vt 0 0
vt 0 0
vt 0 0
vt 0 0
vt 0 0
vn -0.3740655 -1.084054E-07 0.9274023
vn -0.3740655 -1.084054E-07 0.9274023
vn -0.3740655 -1.084054E-07 0.9274023
vn -0.3740655 -1.084054E-07 0.9274023
vn -0.961934 1.334534E-07 -0.273282
vn -0.8600354 1.695072E-07 -0.5102344
vn -0.961934 1.334534E-07 -0.273282
vn -0.8600354 1.695072E-07 -0.5102344
vn -0.7009189 1.942837E-07 -0.713241
vn -0.700919 1.942838E-07 -0.713241
vn 0.3799448 1.487848E-07 -0.9250093
vn 0 1.789233E-07 -1
vn 0 1.789233E-07 -1
vn 0.3799448 1.487848E-07 -0.9250093
vn 0.7029047 0 -0.711284
vn 0.7029047 0 -0.711284
vn -0.9318547 0 0.3628317
vn -0.9318547 0 0.3628317
vn -0.9318547 0 0.3628317
vn -0.9318547 0 0.3628317
vn -0.5141951 1.568786E-07 -0.8576733
vn -0.6630638 1.392889E-07 -0.7485629
vn -0.6630639 1.39289E-07 -0.7485629
vn -0.514195 1.568786E-07 -0.8576733
vn -0.3478091 1.691238E-07 -0.9375653
vn -0.3478091 1.691238E-07 -0.9375653
vn -1 0 0
vn -1 0 0
vn -1 0 0
vn -1 0 0
vn 0.9936891 0 -0.1121699
vn 0.9936891 0 -0.1121699
vn 0.9936891 0 -0.1121699
vn 0.9936891 0 -0.1121699
vn 1 0 0
vn 1 0 0
vn 1 0 0
vn 1 0 0
vn 0 -1.789233E-07 1
vn 0 -1.789233E-07 1
vn 0 -1.789233E-07 1
vn 0 -1.789233E-07 1
vn 0 1.341925E-07 -1
vn 0 1.341925E-07 -1
vn 0 1.341925E-07 -1
vn 0 1.341925E-07 -1
vn -1.192035E-07 1.341925E-07 -1
vn -1.192035E-07 1.341925E-07 -1
vn -1.192035E-07 1.341925E-07 -1
vn -1.192035E-07 1.341925E-07 -1
vn 1 0 0
vn 1 0 0
vn 1 0 0
vn 1 0 0
vn -0.9532512 0 0.3021788
vn -0.9532512 0 0.3021788
vn -0.9532512 0 0.3021789
vn -0.9532512 0 0.3021789
vn 0.5446393 -1.97015E-07 0.8386703
vn 0.5446393 -1.970151E-07 0.8386703
vn 0.2565323 -1.956241E-07 0.9665356
vn 0.2565324 -1.956241E-07 0.9665356
vn -0.05706242 -1.747969E-07 0.9983706
vn -0.05706241 -1.747969E-07 0.9983706
vn 1 0 -2.317708E-07
vn 1 0 -2.317708E-07
vn 1 0 -2.317708E-07
vn 1 0 -2.317708E-07
vn 0 -1.509666E-07 1
vn 0 -1.509666E-07 1
vn 0 -1.509666E-07 1
vn 0 -1.509666E-07 1
vn -0.9254269 0 -0.3789262
vn -0.9254269 0 -0.3789261
vn -0.9254269 0 -0.3789261
vn -0.9254269 0 -0.3789262
vn -0.9899346 0 0.1415254
vn -0.999992 0 0.003989484
vn -0.9899346 0 0.1415254
vn -0.999992 0 0.003989484
vn -0.8800088 1.524166E-07 -0.4749574
vn -0.8800088 1.524166E-07 -0.4749574
vn -0.6556086 1.77487E-07 -0.7551009
vn -0.6556086 1.77487E-07 -0.7551009
vn 1.467785E-07 -1.789233E-07 1
vn 1.467785E-07 -1.789233E-07 1
vn 1.467785E-07 -1.789233E-07 1
vn 1.467785E-07 -1.789233E-07 1
vn 1 0 0
vn 1 0 0
vn 1 0 0
vn 1 0 0
vn 0.7114987 0 -0.7026874
vn 0.1454975 1.62482E-07 -0.9893585
vn 0.7114987 0 -0.7026874
vn 0.1454976 1.62482E-07 -0.9893585
vn -0.2472086 1.940321E-07 -0.9689623
vn -0.2472086 1.940321E-07 -0.9689623
vn 3.015835E-07 1.789233E-07 -1
vn 3.015835E-07 1.789233E-07 -1
vn 0 1 1.509958E-07
vn 0 1 1.509957E-07
vn 0 1 1.509957E-07
vn 0 1 1.509958E-07
vn 0 1 1.509958E-07
vn 0 1 1.509958E-07
vn 0 1 1.509958E-07
vn 0 1 1.509958E-07
vn 0 1 1.509958E-07
vn 0 1 1.509958E-07
vn 0 1 1.509958E-07
vn 0 1 1.509958E-07
vn 0 1 1.509958E-07
vn 0 1 1.509958E-07
vn 0 1 1.509958E-07
vn 0 1 1.509958E-07
vn 0 1 1.509958E-07
vn 0 1 1.491418E-07
vn 0 1 1.509958E-07
vn 0 1 1.509958E-07
vn 0 1 1.509958E-07
vn 0 1 1.509958E-07
vn 0 1 1.504398E-07
vn 0 1 1.509959E-07
vn 0 1 1.239387E-07
vn 1.139339E-07 1 1.292024E-07
vn 0 1 1.312492E-07
vn 0 1 1.509958E-07
vn 0 1 1.623992E-07
vn 1.201027E-07 1 1.369889E-07
vn 0 1 2.077884E-07
vn 0 1 2.113926E-07
vn 0.5720957 0 -0.8201869
vn 0.5720957 0 -0.8201869
vn 0.5720957 0 -0.8201869
vn 0.5720957 0 -0.8201869
vn 0.553965 0 0.8325398
vn 0.553965 0 0.8325398
vn 0.553965 0 0.8325398
vn 0.553965 0 0.8325398
vn 0.9273625 0 0.374164
vn 0.9273625 0 0.3741639
vn 0.9273625 0 0.3741639
vn 0.9273625 0 0.374164
g Chap01_INT_Orphanage_01_Room_Ground_Collider_0
f 3/3/3 2/2/2 1/1/1
f 4/4/4 3/3/3 1/1/1
f 7/7/7 6/6/6 5/5/5
f 6/6/6 8/8/8 5/5/5
f 6/6/6 9/9/9 8/8/8
f 9/9/9 10/10/10 8/8/8
f 13/13/13 12/12/12 11/11/11
f 14/14/14 13/13/13 11/11/11
f 14/14/14 11/11/11 15/15/15
f 16/16/16 14/14/14 15/15/15
f 19/19/19 18/18/18 17/17/17
f 20/20/20 19/19/19 17/17/17
f 23/23/23 22/22/22 21/21/21
f 24/24/24 23/23/23 21/21/21
f 24/24/24 21/21/21 25/25/25
f 26/26/26 24/24/24 25/25/25
f 29/29/29 28/28/28 27/27/27
f 30/30/30 29/29/29 27/27/27
f 33/33/33 32/32/32 31/31/31
f 34/34/34 33/33/33 31/31/31
f 37/37/37 36/36/36 35/35/35
f 38/38/38 37/37/37 35/35/35
f 41/41/41 40/40/40 39/39/39
f 42/42/42 41/41/41 39/39/39
f 45/45/45 44/44/44 43/43/43
f 46/46/46 45/45/45 43/43/43
f 49/49/49 48/48/48 47/47/47
f 50/50/50 49/49/49 47/47/47
f 53/53/53 52/52/52 51/51/51
f 54/54/54 53/53/53 51/51/51
f 57/57/57 56/56/56 55/55/55
f 58/58/58 57/57/57 55/55/55
f 61/61/61 60/60/60 59/59/59
f 62/62/62 61/61/61 59/59/59
f 63/63/63 61/61/61 62/62/62
f 64/64/64 63/63/63 62/62/62
f 67/67/67 66/66/66 65/65/65
f 68/68/68 67/67/67 65/65/65
f 71/71/71 70/70/70 69/69/69
f 72/72/72 71/71/71 69/69/69
f 75/75/75 74/74/74 73/73/73
f 76/76/76 75/75/75 73/73/73
f 79/79/79 78/78/78 77/77/77
f 78/78/78 80/80/80 77/77/77
f 78/78/78 81/81/81 80/80/80
f 81/81/81 82/82/82 80/80/80
f 81/81/81 83/83/83 82/82/82
f 83/83/83 84/84/84 82/82/82
f 87/87/87 86/86/86 85/85/85
f 88/88/88 87/87/87 85/85/85
f 91/91/91 90/90/90 89/89/89
f 92/92/92 91/91/91 89/89/89
f 95/95/95 94/94/94 93/93/93
f 94/94/94 96/96/96 93/93/93
f 94/94/94 97/97/97 96/96/96
f 97/97/97 98/98/98 96/96/96
f 97/97/97 99/99/99 98/98/98
f 99/99/99 100/100/100 98/98/98
f 103/103/103 102/102/102 101/101/101
f 104/104/104 103/103/103 101/101/101
f 104/104/104 101/101/101 105/105/105
f 106/106/106 104/104/104 105/105/105
f 106/106/106 105/105/105 107/107/107
f 108/108/108 106/106/106 107/107/107
f 107/107/107 109/109/109 108/108/108
f 107/107/107 110/110/110 109/109/109
f 111/111/111 109/109/109 110/110/110
f 112/112/112 111/111/111 110/110/110
f 107/107/107 113/113/113 110/110/110
f 113/113/113 114/114/114 110/110/110
f 114/114/114 115/115/115 110/110/110
f 114/114/114 116/116/116 115/115/115
f 117/117/117 113/113/113 107/107/107
f 118/118/118 117/117/117 107/107/107
f 118/118/118 119/119/119 117/117/117
f 118/118/118 120/120/120 119/119/119
f 118/118/118 121/121/121 120/120/120
f 121/121/121 122/122/122 120/120/120
f 118/118/118 123/123/123 121/121/121
f 123/123/123 124/124/124 121/121/121
f 118/118/118 125/125/125 123/123/123
f 125/125/125 126/126/126 123/123/123
f 127/127/127 125/125/125 118/118/118
f 118/118/118 128/128/128 127/127/127
f 125/125/125 129/129/129 126/126/126
f 129/129/129 130/130/130 126/126/126
f 130/130/130 129/129/129 131/131/131
f 131/131/131 129/129/129 132/132/132
f 135/135/135 134/134/134 133/133/133
f 136/136/136 135/135/135 133/133/133
f 139/139/139 138/138/138 137/137/137
f 140/140/140 139/139/139 137/137/137
f 143/143/143 142/142/142 141/141/141
f 144/144/144 143/143/143 141/141/141
