g Chap01_Prop_RecoveryDoor_01a_part03
v 0.290386 1.00653 -0.122557
v 0.27159 0.989992 -0.07688896
v 0.312476 1.025288 -0.07268097
v -0.1998949 0.9009431 0.1241583
v -0.1885211 0.9006128 0.1155654
v -0.1907805 0.8934709 0.109405
v -0.1998949 0.9009431 0.1241583
v -0.1982148 0.9024572 0.1245663
v 0.112228 0.798581 -0.145931
v 0.140553 0.7922609 -0.155634
v 0.131935 0.807146 -0.121889
v 0.112228 0.798581 -0.145931
v 0.126591 0.7919 -0.159408
v 0.103262 0.782873 -0.14595
v 0.112228 0.798581 -0.145931
v 0.111038 0.79633 -0.116335
v 0.13473 0.7891409 -0.109529
v 0.131935 0.807146 -0.121889
v 0.135124 0.7957629 -0.113951
v 0.131935 0.807146 -0.121889
v 0.13473 0.7891409 -0.109529
v 0.111038 0.79633 -0.116335
v 0.12701 0.7708619 -0.156554
v 0.143679 0.782893 -0.154116
v 0.130856 0.774716 -0.157223
v 0.143679 0.782893 -0.154116
v 0.141118 0.769559 -0.135974
v 0.111038 0.79633 -0.116335
v 0.112228 0.798581 -0.145931
v 0.131935 0.807146 -0.121889
v 0.208695 0.871529 0.09038398
v 0.238324 0.843233 0.09235901
v 0.234593 0.862465 0.09034798
v 0.238324 0.843233 0.09235901
v 0.178192 0.847852 0.09874801
v 0.199821 0.8201 0.102732
v 0.230034 0.826578 0.09740303
v 0.238324 0.843233 0.09235901
v 0.226591 0.8668069 0.139613
v 0.234593 0.862465 0.09034798
v 0.273661 1.039936 -0.113989
v 0.312476 1.025288 -0.07268097
v 0.291545 1.04928 -0.07906799
v 0.290386 1.00653 -0.122557
v 0.273661 1.039936 -0.113989
v 0.2504 1.008435 -0.108207
v 0.290386 1.00653 -0.122557
v 0.242768 1.02338 -0.104321
v 0.27159 0.989992 -0.07688896
v 0.2504 1.008435 -0.108207
v 0.252748 0.990779 -0.069654
v 0.290386 1.00653 -0.122557
v 0.27222 1.023479 -0.05929596
v 0.237623 1.02049 -0.06437897
v 0.256763 1.030843 -0.059049
v 0.252748 0.990779 -0.069654
v 0.27222 1.023479 -0.05929596
v 0.27159 0.989992 -0.07688896
v 0.252748 0.990779 -0.069654
v 0.312476 1.025288 -0.07268097
v 0.27222 1.023479 -0.05929596
v 0.291545 1.04928 -0.07906799
v 0.312476 1.025288 -0.07268097
v 0.256763 1.030843 -0.059049
v 0.291545 1.04928 -0.07906799
v 0.256763 1.030843 -0.059049
v 0.273661 1.039936 -0.113989
v 0.242768 1.02338 -0.104321
v 0.237623 1.02049 -0.06437897
v 0.2504 1.008435 -0.108207
v 0.237623 1.02049 -0.06437897
v 0.252748 0.990779 -0.069654
v 0.242768 1.02338 -0.104321
v -0.1939088 0.9146615 0.1010755
v -0.2161291 0.9059154 0.09107284
v -0.1960254 0.893383 0.08587456
v -0.1987049 0.9177251 0.1023669
v -0.1907805 0.8934709 0.109405
v -0.2041264 0.9033389 0.1239246
v -0.1998949 0.9009431 0.1241583
v -0.2161291 0.9059154 0.09107284
v -0.1960254 0.893383 0.08587456
v -0.1885234 0.8904731 0.09756432
v -0.1939088 0.9146615 0.1010755
v -0.1885234 0.8904731 0.09756432
v -0.1853025 0.9037684 0.106944
v -0.1960254 0.893383 0.08587456
v -0.1987049 0.9177251 0.1023669
v -0.2041264 0.9033389 0.1239246
v -0.2161291 0.9059154 0.09107284
v -0.2016881 0.9055266 0.1241904
v -0.1998949 0.9009431 0.1241583
v -0.2016881 0.9055266 0.1241904
v -0.1982148 0.9024572 0.1245663
v -0.2041264 0.9033389 0.1239246
v -0.1853025 0.9037684 0.106944
v -0.1907805 0.8934709 0.109405
v -0.1885211 0.9006128 0.1155654
v -0.1885234 0.8904731 0.09756432
v -0.2016881 0.9055266 0.1241904
v -0.1885211 0.9006128 0.1155654
v -0.1982148 0.9024572 0.1245663
v -0.1987049 0.9177251 0.1023669
v -0.1853025 0.9037684 0.106944
v -0.1939088 0.9146615 0.1010755
v 0.111449 0.776714 -0.156774
v 0.112228 0.798581 -0.145931
v 0.103262 0.782873 -0.14595
v 0.126591 0.7919 -0.159408
v 0.111449 0.776714 -0.156774
v 0.130856 0.774716 -0.157223
v 0.126591 0.7919 -0.159408
v 0.12701 0.7708619 -0.156554
v 0.12701 0.7708619 -0.156554
v 0.103262 0.782873 -0.14595
v 0.141118 0.769559 -0.135974
v 0.111449 0.776714 -0.156774
v 0.111038 0.79633 -0.116335
v 0.141118 0.769559 -0.135974
v 0.103262 0.782873 -0.14595
v 0.13473 0.7891409 -0.109529
v 0.143679 0.782893 -0.154116
v 0.126591 0.7919 -0.159408
v 0.130856 0.774716 -0.157223
v 0.140553 0.7922609 -0.155634
v 0.141118 0.769559 -0.135974
v 0.135124 0.7957629 -0.113951
v 0.143679 0.782893 -0.154116
v 0.13473 0.7891409 -0.109529
v 0.135124 0.7957629 -0.113951
v 0.140553 0.7922609 -0.155634
v 0.143679 0.782893 -0.154116
v 0.131935 0.807146 -0.121889
v -0.3465436 0.9420848 0.224106
v -0.3322985 0.9250549 0.182907
v -0.3354965 0.9597539 0.190114
v -0.3443436 0.9146669 0.211951
v -0.3354965 0.9597539 0.190114
v -0.3086706 0.9209049 0.171837
v -0.3008205 0.9734639 0.186283
v -0.3322985 0.9250549 0.182907
v -0.2639625 0.9363979 0.192898
v -0.3008205 0.9734639 0.186283
v -0.3086706 0.9209049 0.171837
v -0.2585055 0.9741129 0.205058
v -0.2865675 0.9191298 0.215413
v -0.2985176 0.9540109 0.230643
v -0.2802315 0.9582079 0.232979
v -0.3219835 0.9011659 0.206509
v -0.3465436 0.9420848 0.224106
v -0.3443436 0.9146669 0.211951
v -0.2985176 0.9540109 0.230643
v -0.2585055 0.9741129 0.205058
v -0.2802315 0.9582079 0.232979
v -0.3008205 0.9734639 0.186283
v -0.3354965 0.9597539 0.190114
v -0.3465436 0.9420848 0.224106
v -0.2639625 0.9363979 0.192898
v -0.2802315 0.9582079 0.232979
v -0.2585055 0.9741129 0.205058
v -0.2865675 0.9191298 0.215413
v -0.3219835 0.9011659 0.206509
v -0.3322985 0.9250549 0.182907
v -0.3443436 0.9146669 0.211951
v -0.3086706 0.9209049 0.171837
v -0.2865675 0.9191298 0.215413
v -0.3086706 0.9209049 0.171837
v -0.3219835 0.9011659 0.206509
v -0.2639625 0.9363979 0.192898
v -0.478157 0.9426877 -0.108626
v -0.49162 0.9675677 -0.1109
v -0.496485 0.9537107 -0.101165
v -0.461448 0.9622287 -0.125452
v -0.496485 0.9537107 -0.101165
v -0.487503 0.9793518 -0.06600197
v -0.489449 0.9737508 -0.06261597
v -0.49162 0.9675677 -0.1109
v -0.456884 0.9675897 -0.053312
v -0.427521 0.9751987 -0.06899902
v -0.426812 0.9509618 -0.06342499
v -0.448734 0.9788217 -0.059888
v -0.461448 0.9622287 -0.125452
v -0.487503 0.9793518 -0.06600197
v -0.49162 0.9675677 -0.1109
v -0.448734 0.9788217 -0.059888
v -0.425239 0.9652168 -0.104929
v -0.427521 0.9751987 -0.06899902
v -0.478157 0.9426877 -0.108626
v -0.425239 0.9652168 -0.104929
v -0.461448 0.9622287 -0.125452
v -0.427123 0.9440757 -0.07561203
v -0.489449 0.9737508 -0.06261597
v -0.478157 0.9426877 -0.108626
v -0.496485 0.9537107 -0.101165
v -0.456884 0.9675897 -0.053312
v -0.427123 0.9440757 -0.07561203
v -0.426812 0.9509618 -0.06342499
v -0.427521 0.9751987 -0.06899902
v -0.427123 0.9440757 -0.07561203
v -0.426812 0.9509618 -0.06342499
v -0.425239 0.9652168 -0.104929
v -0.487503 0.9793518 -0.06600197
v -0.456884 0.9675897 -0.053312
v -0.489449 0.9737508 -0.06261597
v -0.448734 0.9788217 -0.059888
v 0.178192 0.847852 0.09874801
v 0.200179 0.838554 0.148532
v 0.199821 0.8201 0.102732
v 0.186567 0.8607469 0.153325
v 0.226591 0.8668069 0.139613
v 0.208695 0.871529 0.09038398
v 0.234593 0.862465 0.09034798
v 0.205122 0.870355 0.147004
v 0.178192 0.847852 0.09874801
v 0.205122 0.870355 0.147004
v 0.186567 0.8607469 0.153325
v 0.208695 0.871529 0.09038398
v 0.200179 0.838554 0.148532
v 0.226591 0.8668069 0.139613
v 0.225008 0.841922 0.140024
v 0.186567 0.8607469 0.153325
v 0.205122 0.870355 0.147004
v 0.225008 0.841922 0.140024
v 0.238324 0.843233 0.09235901
v 0.230034 0.826578 0.09740303
v 0.226591 0.8668069 0.139613
v 0.225008 0.841922 0.140024
v 0.199821 0.8201 0.102732
v 0.200179 0.838554 0.148532
v 0.230034 0.826578 0.09740303
vt 0.7983 0.1866
vt 0.8072 0.2224
vt 0.8346 0.1976
vt 0.8155 0.3207
vt 0.8053 0.3068
vt 0.7942 0.3129
vt 0.8155 0.3207
vt 0.8163 0.3185
vt 0.5202 0.4638
vt 0.5282 0.4409
vt 0.5028 0.4405
vt 0.5202 0.4638
vt 0.5272 0.4509
vt 0.5254 0.4474
vt 0.5202 0.4638
vt 0.5062 0.5095
vt 0.3861 0.8904
vt 0.3713 0.9014
vt 0.382 0.8934
vt 0.3713 0.9014
vt 0.3861 0.8904
vt 0.3686 0.8791
vt 0.3083 0.8528
vt 0.325 0.8464
vt 0.3114 0.8485
vt 0.325 0.8464
vt 0.3233 0.8669
vt 0.5062 0.5095
vt 0.5202 0.4638
vt 0.4998 0.5287
vt 0.1331 0.2758
vt 0.161 0.2914
vt 0.1544 0.2776
vt 0.161 0.2914
vt 0.1211 0.2883
vt 0.1392 0.3121
vt 0.1579 0.306
vt 0.5984 0.1499
vt 0.6112 0.1918
vt 0.6143 0.1513
vt 0.3534 0.8634
vt 0.349 0.8995
vt 0.3621 0.893
vt 0.3291 0.8662
vt 0.3834 0.8678
vt 0.3735 0.8407
vt 0.3588 0.8664
vt 0.3894 0.8429
vt 0.7725 0.2229
vt 0.7756 0.1997
vt 0.7619 0.219
vt 0.7975 0.2085
vt 0.3327 0.7683
vt 0.3107 0.7814
vt 0.3241 0.7811
vt 0.3015 0.7677
vt 0.8293 0.2411
vt 0.8028 0.2337
vt 0.7993 0.2482
vt 0.8362 0.2119
vt 0.3567 0.7865
vt 0.3342 0.7983
vt 0.3409 0.8111
vt 0.3487 0.7734
vt 0.6130427 0.3514535
vt 0.5980731 0.3831646
vt 0.6412295 0.3666528
vt 0.6343743 0.3946962
vt 0.602811 0.4003111
vt 0.3339 0.8574
vt 0.3512 0.8347
vt 0.3371 0.8262
vt 0.3498 0.8597
vt 0.7727 0.2767
vt 0.7473 0.2681
vt 0.7516 0.2954
vt 0.7709 0.2701
vt 0.9367 0.0942
vt 0.9469 0.1186
vt 0.9489 0.1128
vt 0.9045 0.1186
vt 0.9093 0.0902
vt 0.9246 0.0856
vt 0.7927 0.2784
vt 0.7808 0.3059
vt 0.798 0.2971
vt 0.7662 0.2983
vt 0.7653 0.2591
vt 0.7714 0.229
vt 0.7357 0.2555
vt 0.7746 0.2308
vt 0.7498 0.2228
vt 0.744 0.2362
vt 0.7538 0.2268
vt 0.7364 0.2309
vt 0.798 0.2971
vt 0.7942 0.3129
vt 0.8053 0.3068
vt 0.7808 0.3059
vt 0.7869 0.5085
vt 0.7828 0.5272
vt 0.7896 0.513
vt 0.7591 0.5139
vt 0.7724 0.533
vt 0.7578 0.5213
vt 0.27 0.7709
vt 0.27 0.7832
vt 0.2771 0.7787
vt 0.2643 0.7733
vt 0.2771 0.7684
vt 0.2877 0.7798
vt 0.2961 0.7681
vt 0.283 0.7813
vt 0.7428 0.1472
vt 0.7464 0.1279
vt 0.7266 0.1478
vt 0.7501 0.1378
vt 0.732 0.1172
vt 0.7114 0.127
vt 0.7312 0.1342
vt 0.7199 0.1122
vt 0.3016 0.7933
vt 0.2976 0.7781
vt 0.2892 0.7898
vt 0.3039 0.786
vt 0.3177 0.8429
vt 0.3253 0.8175
vt 0.3008 0.8394
vt 0.3304 0.8208
vt 0.2882 0.7944
vt 0.2979 0.8269
vt 0.3055 0.8244
vt 0.2799 0.8023
vt 0.0104 0.7535
vt 0.0316 0.7312
vt 0.0073 0.7283
vt 0.0311 0.7527
vt 0.0062 0.7022
vt 0.0405 0.7083
vt 0.0168 0.6788
vt 0.025 0.7179
vt 0.074 0.7569
vt 0.0378 0.757
vt 0.0582 0.7888
vt 0.0594 0.7336
vt 0.0337 0.8154
vt 0.0064 0.81
vt 0.005 0.8236
vt 0.0442 0.7894
vt 0.0118 0.7759
vt 0.0325 0.7751
vt 0.0421 0.1407
vt 0.0719 0.1622
vt 0.0554 0.1436
vt 0.0432 0.176
vt 0.0178 0.1717
vt 0.0083 0.1482
vt 0.0328 0.8429
vt 0.005 0.8267
vt 0.0066 0.8515
vt 0.0337 0.8185
vt 0.0262 0.2081
vt 0.0159 0.1852
vt 0.0079 0.2052
vt 0.0329 0.1789
vt 0.0636 0.2044
vt 0.0425 0.1789
vt 0.0358 0.2081
vt 0.0777 0.1844
vt 0.7125 0.0231
vt 0.6967 0.0135
vt 0.7 0.0243
vt 0.7185 0.0025
vt 0.6129 0.0262
vt 0.5814 0.0286
vt 0.5821 0.0324
vt 0.6098 0.0151
vt 0.8203 0.021
vt 0.8016 0.007
vt 0.7955 0.0244
vt 0.8171 0.0115
vt 0.0504 0.1118
vt 0.0082 0.1341
vt 0.0394 0.1341
vt 0.0019 0.1083
vt 0.0312 0.0898
vt 0.007 0.0931
vt 0.723 0.0237
vt 0.7579 0.0056
vt 0.7291 0.0023
vt 0.7634 0.0286
vt 0.5379 0.1347
vt 0.5305 0.0993
vt 0.5219 0.1087
vt 0.5603 0.1293
vt 0.5716 0.0993
vt 0.5754 0.1097
vt 0.8016 0.007
vt 0.7721 0.0257
vt 0.7831 0.0277
vt 0.7645 0.0028
vt 0.8504 0.0082
vt 0.8287 0.0169
vt 0.8513 0.0119
vt 0.8237 0.0082
vt 0.6839 0.1262
vt 0.6985 0.1776
vt 0.7179 0.1535
vt 0.6773 0.1719
vt 0.6264 0.1511
vt 0.6529 0.116
vt 0.6299 0.1109
vt 0.6433 0.164
vt 0.6839 0.1262
vt 0.6512 0.1656
vt 0.671 0.1719
vt 0.6608 0.1176
vt 0.7772 0.3662
vt 0.7391 0.3802
vt 0.7514 0.3569
vt 0.7797 0.3942
vt 0.7578 0.3937
vt 0.5983 0.1402
vt 0.6141 0.1034
vt 0.5985 0.1033
vt 0.6173 0.1471
vt 0.5926 0.1431
vt 0.5652 0.1288
vt 0.577 0.1572
vt 0.5847 0.1086
vn 0.6537481 -0.7566959 -0.004954814
vn 0.6537481 -0.7566959 -0.004954814
vn 0.6537481 -0.7566959 -0.004954813
vn 0.4403265 -0.6604353 0.608225
vn 0.4392997 -0.6622986 0.60694
vn 0.4392356 -0.6624148 0.6068598
vn 0.4403265 -0.6604353 0.608225
vn 0.4427549 -0.6559924 0.6112627
vn 0.07297002 0.9196188 -0.3859751
vn 0.07332681 0.9199392 -0.3851428
vn 0.07255298 0.9192432 -0.3869471
vn 0.07297002 0.9196188 -0.3859751
vn 0.07755134 0.9236735 -0.3752505
vn -0.8684793 0.4957176 0.002781859
vn -0.8684793 0.4957176 0.002781859
vn -0.8684793 0.4957176 0.002781859
vn -0.06860676 0.5573596 0.8274318
vn -0.06858851 0.5573622 0.8274315
vn -0.07206465 0.5568519 0.8274797
vn -0.06858851 0.5573622 0.8274315
vn -0.06860676 0.5573596 0.8274318
vn -0.06857011 0.5573649 0.8274313
vn 0.5676866 -0.6981119 -0.4363162
vn 0.5680302 -0.6989524 -0.4345198
vn 0.5386934 -0.633888 -0.5549732
vn 0.5680302 -0.6989524 -0.4345198
vn 0.5681737 -0.6993039 -0.4337657
vn -0.4486154 0.8923348 0.04982822
vn -0.4486154 0.8923348 0.04982821
vn -0.4486155 0.8923348 0.04982822
vn -0.1129957 -0.1864388 -0.975947
vn -0.1110049 -0.202546 -0.972961
vn -0.04046659 -0.111678 -0.9929202
vn -0.1110049 -0.202546 -0.972961
vn -0.1194398 -0.2138541 -0.9695362
vn -0.1203975 -0.232385 -0.9651433
vn -0.1204116 -0.2323613 -0.9651472
vn 0.9751499 -0.06716897 0.2111186
vn 0.9701198 -0.003458928 0.2426021
vn 0.9692573 0.2026316 0.1395732
vn 0.7158313 0.4877727 -0.4996631
vn 0.7156286 0.4885455 -0.4991984
vn 0.7149151 0.4912425 -0.4975713
vn 0.7160819 0.4868142 -0.5002387
vn -0.3337321 0.07394171 -0.9397636
vn -0.3337303 0.07394011 -0.9397643
vn -0.3337334 0.0739429 -0.9397629
vn -0.3337244 0.07393495 -0.9397668
vn -0.1884323 -0.8966873 -0.4005562
vn -0.1874027 -0.8966123 -0.4012065
vn -0.1907093 -0.8968482 -0.3991154
vn -0.186828 -0.8965698 -0.4015689
vn -0.1208558 -0.239403 0.9633691
vn -0.1211479 -0.2369789 0.9639316
vn -0.1163137 -0.2761392 0.9540536
vn -0.1216015 -0.2331982 0.9647961
vn 0.3007205 -0.4479896 0.8419457
vn 0.3018502 -0.4478402 0.8416208
vn 0.3042112 -0.4475259 0.8409377
vn 0.3001352 -0.4480667 0.8421134
vn 0.2496159 0.464261 0.8497962
vn 0.2590309 0.457754 0.8505082
vn 0.2624029 0.4554031 0.8507366
vn 0.2383884 0.4719118 0.8488051
vn -0.4671495 0.8841743 0.002656005
vn -0.4712583 0.8819932 0.00187295
vn -0.4697948 0.8827742 0.001609928
vn -0.4727781 0.881181 0.0008883834
vn -0.4762534 0.8793051 0.002273704
vn -0.8935903 -0.4253225 -0.1435172
vn -0.8926564 -0.4275776 -0.1426249
vn -0.8920998 -0.4289137 -0.1420953
vn -0.89592 -0.4196189 -0.1457646
vn 0.1428018 0.5658843 -0.8120238
vn 0.1427988 0.5658858 -0.8120232
vn 0.142798 0.5658864 -0.812023
vn 0.1428158 0.5658771 -0.8120263
vn -0.5046901 -0.8553524 0.1168762
vn -0.5040436 -0.8555567 0.1181639
vn -0.4939287 -0.859689 0.1302662
vn -0.5042648 -0.8556663 0.1164135
vn -0.5043252 -0.8557398 0.1156087
vn -0.5129334 -0.8503479 0.1175068
vn 0.7990456 0.2568206 -0.543663
vn 0.8201334 0.2568173 -0.5112984
vn 0.7440964 0.2552873 -0.6173726
vn 0.8412199 0.256393 -0.4760375
vn -0.6597131 0.6910824 0.2952688
vn -0.6590581 0.6915138 0.2957212
vn -0.6597552 0.6910546 0.2952398
vn -0.655215 0.6940264 0.2983629
vn -0.1291118 -0.05743342 0.9899653
vn -0.09672129 -0.04479055 0.9943032
vn -0.1717628 -0.07406792 0.98235
vn -0.07575805 -0.03660346 0.9964542
vn 0.8808102 -0.4134119 0.2307901
vn 0.8793009 -0.4097449 0.2427737
vn 0.8860574 -0.4299124 0.1734294
vn 0.8755561 -0.4015878 0.2685681
vn 0.5592547 0.688742 0.4613768
vn 0.5593733 0.6887008 0.4612945
vn 0.5591193 0.689144 0.4609406
vn 0.5596651 0.6887954 0.4607992
vn 0.5597939 0.6886913 0.4607984
vn 0.5631498 0.6899347 0.4548103
vn -0.5653195 0.382523 -0.7308147
vn -0.558212 0.3844665 -0.7352448
vn -0.6327322 0.3619865 -0.6845552
vn -0.5253707 0.3929459 -0.7547047
vn -0.03681058 -0.1350429 -0.9901558
vn -0.03681122 -0.1350498 -0.9901547
vn -0.03681007 -0.1350373 -0.9901565
vn -0.03681744 -0.1351177 -0.9901453
vn -0.3694955 -0.9073907 0.2002878
vn -0.3667232 -0.9071781 0.2062571
vn -0.3710579 -0.9074935 0.1969046
vn -0.3435588 -0.903982 0.2545267
vn -0.3931779 -0.7886007 0.4727789
vn -0.3932587 -0.7886193 0.4726807
vn -0.4002219 -0.7901829 0.464148
vn -0.3789596 -0.7851417 0.4898389
vn 0.266698 -0.05920664 -0.9619598
vn 0.2669755 -0.05865397 -0.9619167
vn 0.2684869 -0.05563927 -0.961675
vn 0.2619796 -0.06857111 -0.9626343
vn 0.9800227 0.06670527 0.187366
vn 0.9800264 0.0667297 0.1873378
vn 0.9800222 0.0667025 0.1873692
vn 0.9800315 0.06676365 0.1872988
vn 0.9395019 0.3291904 0.0947085
vn 0.9395778 0.3289661 0.09473599
vn 0.9396039 0.3288887 0.09474545
vn 0.9394848 0.3292411 0.09470229
vn -0.94218 0.02099366 -0.3344492
vn -0.9431749 0.01421804 -0.3319922
vn -0.947551 -0.02109427 -0.3189078
vn -0.9306926 0.08323477 -0.3562067
vn -0.2467826 0.2677548 -0.9313462
vn -0.278105 0.2449277 -0.9287992
vn -0.2171703 0.288725 -0.9324564
vn -0.3974487 0.1513485 -0.905057
vn 0.3735534 0.2102187 -0.9034744
vn 0.3727911 0.2093693 -0.9039862
vn 0.3612725 0.1965729 -0.911505
vn 0.3916851 0.2305196 -0.8907545
vn -0.02329872 -0.4067312 0.9132507
vn -0.023305 -0.4067298 0.9132512
vn -0.02331116 -0.4067341 0.9132491
vn -0.0233045 -0.4067289 0.9132515
vn -0.02330684 -0.4067276 0.9132521
vn -0.02332137 -0.4067362 0.9132479
vn -0.2469167 0.8885664 0.3866289
vn -0.1972542 0.8967667 0.3961066
vn -0.25078 0.9120678 0.3244096
vn -0.2472578 0.8825887 0.3998761
vn -0.2846395 0.8782948 0.3841597
vn -0.2711208 0.8872935 0.3731003
vn 0.8041742 -0.3203038 0.5007088
vn 0.8076245 -0.3143977 0.4988956
vn 0.828418 -0.2768514 0.4869057
vn 0.7818272 -0.3566513 0.5114159
vn -0.4800298 -0.712668 -0.5115424
vn -0.4410104 -0.7199193 -0.5359347
vn -0.5369564 -0.6987914 -0.4726185
vn -0.3919661 -0.7266662 -0.5641975
vn 0.449335 -0.853866 -0.2626992
vn 0.458119 -0.8478712 -0.2669108
vn 0.4894407 -0.8252231 -0.2818768
vn 0.4195624 -0.8730837 -0.2483794
vn -0.4722745 -0.3302481 -0.8172472
vn -0.4791992 -0.3335047 -0.8118761
vn -0.5280486 -0.3561957 -0.7709015
vn -0.4568886 -0.3229792 -0.8288167
vn -0.943644 0.3309623 -0.0002919036
vn -0.9440486 0.3298058 0.0006551926
vn -0.9443507 0.3289374 0.00136596
vn -0.9436159 0.3310424 -0.0003575816
vn 0.416169 0.2153166 0.8834263
vn 0.4161642 0.2153314 0.883425
vn 0.4161606 0.2153423 0.883424
vn 0.4161954 0.2152356 0.8834336
vn 0.05722497 0.9649041 -0.2562915
vn 0.05217694 0.9654755 -0.2552151
vn 0.04655266 0.9651349 -0.2575797
vn 0.0566516 0.9649391 -0.2562872
vn 0.06479029 0.9641245 -0.2574223
vn 0.05095724 0.9630863 -0.2643256
vn 0.3633519 -0.7665873 -0.5294519
vn 0.3633519 -0.7665878 -0.529451
vn 0.3633519 -0.7665859 -0.5294539
vn 0.363352 -0.7665883 -0.5294504
vn -0.2947034 -0.8239713 0.483964
vn -0.2931541 -0.8248171 0.483464
vn -0.2987425 -0.8233469 0.4825483
vn -0.2920683 -0.8251726 0.4835145
vn -0.2910246 -0.8260571 0.4826329
vn -0.2978813 -0.8278322 0.4753532
vn 0.99863 0.001660281 0.05229959
vn 0.9989977 0.003292621 0.04463833
vn 0.9990948 0.02067542 -0.03717645
vn 0.9979758 -0.0007471128 0.06359178
vn -0.1281282 0.5539722 0.8226165
vn -0.1215331 0.5644785 0.816452
vn -0.1329622 0.5461787 0.8270489
vn -0.1209352 0.5654237 0.8158865
vn -0.7872064 -0.5673485 0.2417058
vn -0.793521 -0.5563623 0.246547
vn -0.7823479 -0.5755656 0.2380251
vn -0.799882 -0.5449219 0.2514935
vn 0.2182207 0.9757951 0.01426959
vn 0.2941631 0.9556333 -0.01527076
vn 0.330161 0.9434628 -0.02952402
vn 0.1734708 0.9843397 0.03135658
vn -0.5983618 0.8002637 -0.03925844
vn -0.5546731 0.8285152 -0.07681324
vn -0.4901768 0.8621035 -0.1284685
vn -0.6168783 0.7867336 -0.02261585
vn 0.3247803 -0.005050611 0.9457759
vn 0.324777 -0.005043271 0.9457772
vn 0.3247685 -0.005038929 0.9457801
vn 0.3247829 -0.005048992 0.9457751
vn 0.3247692 -0.004981294 0.9457802
vn 0.958277 -0.1077723 0.2647458
vn 0.9751499 -0.06716897 0.2111186
vn 0.8961001 -0.3733232 0.2400717
vn 0.9701198 -0.003458928 0.2426021
vn 0.2491717 -0.8997716 0.358224
vn 0.2523777 -0.8997442 0.3560422
vn 0.2456275 -0.8997863 0.3606268
vn 0.2553471 -0.8997065 0.3540142
g Chap01_Prop_RecoveryDoor_01a_part03_0
f 3/3/3 2/2/2 1/1/1
f 6/6/6 5/5/5 4/4/4
f 8/8/8 7/7/7 5/5/5
f 11/11/11 10/10/10 9/9/9
f 13/13/13 12/12/12 10/10/10
f 16/16/16 15/15/15 14/14/14
f 19/19/19 18/18/18 17/17/17
f 22/22/22 21/21/21 20/20/20
f 25/25/25 24/24/24 23/23/23
f 27/27/27 23/23/23 26/26/26
f 30/30/30 29/29/29 28/28/28
f 33/33/33 32/32/32 31/31/31
f 35/35/35 31/31/31 34/34/34
f 35/35/35 34/34/34 36/36/36
f 37/37/37 36/36/36 34/34/34
f 40/40/40 39/39/39 38/38/38
f 43/43/43 42/42/42 41/41/41
f 44/44/44 41/41/41 42/42/42
f 47/47/47 46/46/46 45/45/45
f 48/48/48 45/45/45 46/46/46
f 51/51/51 50/50/50 49/49/49
f 52/52/52 49/49/49 50/50/50
f 55/55/55 54/54/54 53/53/53
f 56/56/56 53/53/53 54/54/54
f 59/59/59 58/58/58 57/57/57
f 60/60/60 57/57/57 58/58/58
f 63/63/63 62/62/62 61/61/61
f 64/64/64 61/61/61 62/62/62
f 67/67/67 66/66/66 65/65/65
f 67/67/67 68/68/68 66/66/66
f 69/69/69 66/66/66 68/68/68
f 72/72/72 71/71/71 70/70/70
f 73/73/73 70/70/70 71/71/71
f 76/76/76 75/75/75 74/74/74
f 77/77/77 74/74/74 75/75/75
f 80/80/80 79/79/79 78/78/78
f 81/81/81 78/78/78 79/79/79
f 81/81/81 82/82/82 78/78/78
f 83/83/83 78/78/78 82/82/82
f 86/86/86 85/85/85 84/84/84
f 87/87/87 84/84/84 85/85/85
f 90/90/90 89/89/89 88/88/88
f 91/91/91 88/88/88 89/89/89
f 94/94/94 93/93/93 92/92/92
f 95/95/95 92/92/92 93/93/93
f 98/98/98 97/97/97 96/96/96
f 99/99/99 96/96/96 97/97/97
f 102/102/102 101/101/101 100/100/100
f 103/103/103 100/100/100 101/101/101
f 101/101/101 104/104/104 103/103/103
f 105/105/105 103/103/103 104/104/104
f 108/108/108 107/107/107 106/106/106
f 109/109/109 106/106/106 107/107/107
f 112/112/112 111/111/111 110/110/110
f 113/113/113 110/110/110 111/111/111
f 116/116/116 115/115/115 114/114/114
f 117/117/117 114/114/114 115/115/115
f 120/120/120 119/119/119 118/118/118
f 121/121/121 118/118/118 119/119/119
f 124/124/124 123/123/123 122/122/122
f 125/125/125 122/122/122 123/123/123
f 128/128/128 127/127/127 126/126/126
f 129/129/129 126/126/126 127/127/127
f 132/132/132 131/131/131 130/130/130
f 133/133/133 130/130/130 131/131/131
f 136/136/136 135/135/135 134/134/134
f 137/137/137 134/134/134 135/135/135
f 140/140/140 139/139/139 138/138/138
f 141/141/141 138/138/138 139/139/139
f 144/144/144 143/143/143 142/142/142
f 145/145/145 142/142/142 143/143/143
f 148/148/148 147/147/147 146/146/146
f 149/149/149 146/146/146 147/147/147
f 147/147/147 150/150/150 149/149/149
f 151/151/151 149/149/149 150/150/150
f 154/154/154 153/153/153 152/152/152
f 155/155/155 152/152/152 153/153/153
f 155/155/155 156/156/156 152/152/152
f 157/157/157 152/152/152 156/156/156
f 160/160/160 159/159/159 158/158/158
f 161/161/161 158/158/158 159/159/159
f 164/164/164 163/163/163 162/162/162
f 165/165/165 162/162/162 163/163/163
f 168/168/168 167/167/167 166/166/166
f 169/169/169 166/166/166 167/167/167
f 172/172/172 171/171/171 170/170/170
f 173/173/173 170/170/170 171/171/171
f 176/176/176 175/175/175 174/174/174
f 177/177/177 174/174/174 175/175/175
f 180/180/180 179/179/179 178/178/178
f 181/181/181 178/178/178 179/179/179
f 184/184/184 183/183/183 182/182/182
f 185/185/185 182/182/182 183/183/183
f 182/182/182 185/185/185 186/186/186
f 187/187/187 186/186/186 185/185/185
f 190/190/190 189/189/189 188/188/188
f 191/191/191 188/188/188 189/189/189
f 194/194/194 193/193/193 192/192/192
f 195/195/195 192/192/192 193/193/193
f 193/193/193 196/196/196 195/195/195
f 197/197/197 195/195/195 196/196/196
f 200/200/200 199/199/199 198/198/198
f 201/201/201 198/198/198 199/199/199
f 204/204/204 203/203/203 202/202/202
f 205/205/205 202/202/202 203/203/203
f 208/208/208 207/207/207 206/206/206
f 209/209/209 206/206/206 207/207/207
f 212/212/212 211/211/211 210/210/210
f 213/213/213 210/210/210 211/211/211
f 216/216/216 215/215/215 214/214/214
f 217/217/217 214/214/214 215/215/215
f 220/220/220 219/219/219 218/218/218
f 221/221/221 218/218/218 219/219/219
f 219/219/219 222/222/222 221/221/221
f 225/225/225 224/224/224 223/223/223
f 226/226/226 223/223/223 224/224/224
f 229/229/229 228/228/228 227/227/227
f 230/230/230 227/227/227 228/228/228
