g Chap01_Prop_Car_02_Camera_Collider
v -1.862456 -0.8096845 0.7504147
v 1.862456 -0.8096845 0.3252909
v -1.004907 0.239044 0.6045008
v -1.004907 -0.8096845 0.7504147
v -1.862456 -0.1482829 0.6670353
v -0.2292046 0.8096845 0.4350877
v -0.2292046 -0.8096845 0.6810067
v 0.6366891 0.7308746 0.4350877
v 0.6366891 -0.8096845 0.6810067
v 1.505349 -0.8096845 0.5595428
v 1.505349 0.1318318 0.5595428
v -1.862456 -0.8096845 -0.7504147
v 1.862456 -0.8096845 -0.3252909
v -1.004907 0.239044 -0.6045008
v -1.004907 -0.8096845 -0.7504147
v -1.862456 -0.1482829 -0.6670353
v -0.2292046 0.8096845 -0.4350877
v -0.2292046 -0.8096845 -0.6810067
v 0.6366891 0.7308746 -0.4350877
v 0.6366891 -0.8096845 -0.6810067
v 1.505349 -0.8096845 -0.5595428
v 1.505349 0.1318318 -0.5595428
v 1.505349 -0.8096845 0.5595428
v 0.6366891 -0.0394049 0.6708361
v -0.2292046 8.477236E-09 0.6708361
v -1.004907 -0.2853203 0.6774577
v -1.862456 -0.4789837 0.708725
v -1.862456 -0.4789837 -0.708725
v -1.004907 -0.2853203 -0.6774577
v -0.2292046 8.477236E-09 -0.6708361
v 0.6366891 -0.0394049 -0.6708361
v 1.505349 -0.8096845 -0.5595428
v -0.2292046 -0.8096845 0.6810067
v -1.004907 -0.8096845 0.7504147
v 0.6366891 -0.0394049 0.6708361
v 1.505349 -0.8096845 0.5595428
v 1.505349 -0.8096845 0.5595428
v 0.6366891 -0.8096845 0.6810067
v -1.862456 -0.4789837 0.708725
v -1.862456 -0.8096845 0.7504147
v -1.004907 0.239044 0.6045008
v -1.004907 0.239044 -0.6045008
v -0.2292046 0.8096845 0.4350877
v -0.2292046 0.8096845 -0.4350877
v 1.862456 -0.8096845 0.3252909
v 1.505349 0.1318318 0.5595428
v 1.862456 -0.8096845 -0.3252909
v 1.505349 0.1318318 -0.5595428
v -0.2292046 -0.8096845 -0.6810067
v -1.862456 -0.4789837 -0.708725
v -1.862456 -0.8096845 -0.7504147
v -1.004907 -0.8096845 -0.7504147
v 0.6366891 -0.0394049 -0.6708361
v 0.6366891 -0.8096845 -0.6810067
v 1.505349 -0.8096845 -0.5595428
v 1.505349 -0.8096845 -0.5595428
v 1.505349 0.1318318 0.5595428
v 0.6366891 0.7308746 0.4350877
v 0.6366891 0.7308746 -0.4350877
v 1.505349 0.1318318 -0.5595428
v 0.6366891 0.7308746 0.4350877
v 1.505349 0.1318318 0.5595428
v -0.2292046 0.8096845 0.4350877
v 0.6366891 0.7308746 0.4350877
v -1.004907 0.239044 0.6045008
v -0.2292046 0.8096845 0.4350877
v -1.862456 -0.1482829 0.6670353
v -1.004907 0.239044 0.6045008
v -1.862456 -0.1482829 0.6670353
v -1.862456 -0.1482829 -0.6670353
v -1.862456 -0.1482829 -0.6670353
v -1.004907 0.239044 -0.6045008
v -1.004907 0.239044 -0.6045008
v -0.2292046 0.8096845 -0.4350877
v -0.2292046 0.8096845 -0.4350877
v 0.6366891 0.7308746 -0.4350877
v 0.6366891 0.7308746 -0.4350877
v 1.505349 0.1318318 -0.5595428
vt 0.2680528 0.06908467
vt 0.7347471 0.08400419
vt 0.4029318 0.2237805
vt 0.4023415 0.1219236
vt 0.2953339 0.1702127
vt 0.4899078 0.2815382
vt 0.4856869 0.1265944
vt 0.5440392 0.2786461
vt 0.5364649 0.1272668
vt 0.6502669 0.1145383
vt 0.6691988 0.2088495
vt 0.2680528 0.06908467
vt 0.7347471 0.08400419
vt 0.4029318 0.2237805
vt 0.4023415 0.1219236
vt 0.2953339 0.1702127
vt 0.4899078 0.2815382
vt 0.4856869 0.1265944
vt 0.5440392 0.2786461
vt 0.5364649 0.1272668
vt 0.6502669 0.1145383
vt 0.6691988 0.2088495
vt 0.65861 0.1101599
vt 0.5402521 0.2029565
vt 0.4877973 0.2040663
vt 0.4026366 0.1728521
vt 0.2816933 0.1196487
vt 0.2816933 0.1196487
vt 0.4026366 0.1728521
vt 0.4877973 0.2040663
vt 0.5402521 0.2029565
vt 0.65861 0.1101599
vt 0.4856869 0.1265944
vt 0.4023415 0.1219236
vt 0.5402521 0.2029565
vt 0.65861 0.1101599
vt 0.6502669 0.1145383
vt 0.5364649 0.1272668
vt 0.2816933 0.1196487
vt 0.2680528 0.06908467
vt 0.4029318 0.2237805
vt 0.4029318 0.2237805
vt 0.4899078 0.2815382
vt 0.4899078 0.2815382
vt 0.7347471 0.08400419
vt 0.6691988 0.2088495
vt 0.7347471 0.08400419
vt 0.6691988 0.2088495
vt 0.4856869 0.1265944
vt 0.2816933 0.1196487
vt 0.2680528 0.06908467
vt 0.4023415 0.1219236
vt 0.5402521 0.2029565
vt 0.5364649 0.1272668
vt 0.6502669 0.1145383
vt 0.65861 0.1101599
vt 0.6691988 0.2088495
vt 0.5440392 0.2786461
vt 0.5440392 0.2786461
vt 0.6691988 0.2088495
vt 0.5440392 0.2786461
vt 0.6691988 0.2088495
vt 0.4899078 0.2815382
vt 0.5440392 0.2786461
vt 0.4029318 0.2237805
vt 0.4899078 0.2815382
vt 0.2953339 0.1702127
vt 0.4029318 0.2237805
vt 0.2953339 0.1702127
vt 0.2953339 0.1702127
vt 0.2953339 0.1702127
vt 0.4029318 0.2237805
vt 0.4029318 0.2237805
vt 0.4899078 0.2815382
vt 0.4899078 0.2815382
vt 0.5440392 0.2786461
vt 0.5440392 0.2786461
vt 0.6691988 0.2088495
vn 0.003063367 0.1328898 0.9911261
vn 0.548493 2.428623E-07 0.8361551
vn -0.4116278 0.911352 0
vn 0.03744806 0.06214801 0.9973641
vn -0.4116278 0.911352 0
vn -0.5925732 0.8055166 0
vn 0.0002929182 0.0128734 0.9999171
vn 0.09064094 0.9958836 0
vn 0.0002929182 0.0128734 0.9999171
vn 0.548493 2.428623E-07 0.8361551
vn 0.5484931 2.428624E-07 0.8361551
vn -1 2.150289E-07 0
vn 0.9350038 0.3546376 0
vn -0.4116278 0.911352 0
vn 0.03744806 0.06214801 -0.9973641
vn -0.4116278 0.911352 0
vn -0.5925732 0.8055166 0
vn 0.0002929272 0.0128734 -0.9999171
vn 0.09064094 0.9958836 0
vn 0.0002929272 0.0128734 -0.9999171
vn 0.548493 2.428624E-07 -0.8361552
vn 0.9350038 0.3546376 0
vn 0.548493 2.428623E-07 0.8361551
vn 0.009933816 0.149888 0.988653
vn 0.01048348 0.1576946 0.9874322
vn 0.0172946 0.1269586 0.9917572
vn 0.005688275 0.1328882 0.9911147
vn -1 1.670453E-07 0
vn 0.0172946 0.1269586 -0.9917572
vn 0.01048349 0.1576946 -0.9874322
vn 0.009933833 0.149888 -0.988653
vn 0.548493 2.428624E-07 -0.8361552
vn 0.03744806 0.06214801 0.9973641
vn 0.003063367 0.1328898 0.9911261
vn 0.1053504 0.1178889 0.9874227
vn 0.12109 0.06875896 0.9902573
vn 0.1384701 0.0130754 0.9902803
vn 0.1384701 0.0130754 0.9902803
vn -1 1.670453E-07 0
vn -1 2.150289E-07 0
vn -0.5925732 0.8055165 0
vn -0.5925732 0.8055165 0
vn 0.09064094 0.9958836 0
vn 0.09064094 0.9958836 0
vn 0.9350038 0.3546376 0
vn 0.9350038 0.3546376 0
vn 0.548493 2.428624E-07 -0.8361552
vn 0.548493 2.428624E-07 -0.8361551
vn 0.03744806 0.06214802 -0.9973641
vn 0.005688275 0.1328882 -0.9911147
vn 0.003063367 0.1328898 -0.9911261
vn 0.003063367 0.1328898 -0.9911261
vn 0.1053504 0.1178888 -0.9874227
vn 0.1384701 0.01307542 -0.9902803
vn 0.1384701 0.01307542 -0.9902803
vn 0.12109 0.06875896 -0.9902573
vn 0.5677119 0.8232273 0
vn 0.5677118 0.8232273 0
vn 0.5677118 0.8232273 0
vn 0.5677119 0.8232273 0
vn 0.0995315 0.1357548 0.9857303
vn 0.0995315 0.1357548 0.9857303
vn 0.0195165 0.2859063 0.9580588
vn 0.0195165 0.2859063 0.9580588
vn -0.01383859 0.2254259 0.9741621
vn -0.0138386 0.2254259 0.9741621
vn 0.009189556 0.1328846 0.9910889
vn 0.009189557 0.1328846 0.9910889
vn -1 1.073228E-07 0
vn -1 1.073228E-07 0
vn 0.009189556 0.1328846 -0.9910889
vn 0.009189557 0.1328846 -0.9910889
vn -0.01383859 0.2254259 -0.9741621
vn -0.0138386 0.2254259 -0.9741621
vn 0.01951652 0.2859063 -0.9580588
vn 0.01951652 0.2859063 -0.9580588
vn 0.09953146 0.1357547 -0.9857303
vn 0.09953147 0.1357547 -0.9857303
g Chap01_Prop_Car_02_Camera_Collider_0
f 11/11/11 23/23/23 10/10/10
f 2/2/2 11/11/11 10/10/10
f 9/9/9 24/24/24 25/25/25
f 7/7/7 9/9/9 25/25/25
f 33/33/33 25/25/25 26/26/26
f 4/4/4 33/33/33 26/26/26
f 34/34/34 26/26/26 27/27/27
f 1/1/1 34/34/34 27/27/27
f 37/37/37 36/36/36 35/35/35
f 38/38/38 37/37/37 35/35/35
f 12/12/12 40/40/40 39/39/39
f 28/28/28 12/12/12 39/39/39
f 16/16/16 5/5/5 3/3/3
f 14/14/14 16/16/16 3/3/3
f 42/42/42 41/41/41 6/6/6
f 17/17/17 42/42/42 6/6/6
f 44/44/44 43/43/43 8/8/8
f 19/19/19 44/44/44 8/8/8
f 22/22/22 46/46/46 45/45/45
f 13/13/13 22/22/22 45/45/45
f 48/48/48 47/47/47 21/21/21
f 32/32/32 48/48/48 21/21/21
f 20/20/20 18/18/18 30/30/30
f 31/31/31 20/20/20 30/30/30
f 49/49/49 15/15/15 29/29/29
f 30/30/30 49/49/49 29/29/29
f 52/52/52 51/51/51 50/50/50
f 29/29/29 52/52/52 50/50/50
f 55/55/55 54/54/54 53/53/53
f 56/56/56 55/55/55 53/53/53
f 59/59/59 58/58/58 57/57/57
f 60/60/60 59/59/59 57/57/57
f 36/36/36 62/62/62 61/61/61
f 35/35/35 36/36/36 61/61/61
f 24/24/24 64/64/64 63/63/63
f 25/25/25 24/24/24 63/63/63
f 25/25/25 66/66/66 65/65/65
f 26/26/26 25/25/25 65/65/65
f 26/26/26 68/68/68 67/67/67
f 27/27/27 26/26/26 67/67/67
f 28/28/28 39/39/39 69/69/69
f 70/70/70 28/28/28 69/69/69
f 29/29/29 50/50/50 71/71/71
f 72/72/72 29/29/29 71/71/71
f 30/30/30 29/29/29 73/73/73
f 74/74/74 30/30/30 73/73/73
f 31/31/31 30/30/30 75/75/75
f 76/76/76 31/31/31 75/75/75
f 56/56/56 53/53/53 77/77/77
f 78/78/78 56/56/56 77/77/77
