g Chap01_Prop_Grp_14_Collider
v -1.203541 -1.264486E-07 -2.380096
v -0.5876095 -4.214953E-08 -2.822331
v -1.203541 2.381175 -2.380096
v -0.5876095 2.381175 -2.822331
v -1.88578 6.32243E-08 2.767623
v -1.88578 2.381175 2.767623
v 1.789964 -1.264486E-07 2.94655
v 1.789964 2.381175 2.94655
v 1.755439 -1.475234E-07 0.3339856
v 1.789964 -1.264486E-07 2.94655
v 1.755439 2.381175 0.3339856
v 1.789964 2.381175 2.94655
v -1.88578 6.32243E-08 2.767623
v -1.203541 -1.264486E-07 -2.380096
v -1.88578 2.381175 2.767623
v -1.203541 2.381175 -2.380096
v -0.5876095 -4.214953E-08 -2.822331
v 0.8020992 -7.540815E-08 -2.952196
v -0.5876095 2.381175 -2.822331
v 0.8020992 2.381175 -2.952196
v 0.8020992 -7.540815E-08 -2.952196
v 1.600873 5.268691E-08 -1.652538
v 0.8020992 2.381175 -2.952196
v 1.600873 2.381175 -1.652538
v -1.88578 6.32243E-08 2.767623
v 1.789964 -1.264486E-07 2.94655
v 1.755439 -1.475234E-07 0.3339856
v 1.600873 5.268691E-08 -1.652538
v -1.203541 -1.264486E-07 -2.380096
v 0.8020992 -7.540815E-08 -2.952196
v -0.5876095 -4.214953E-08 -2.822331
v -1.203541 2.381175 -2.380096
v -0.5876095 2.381175 -2.822331
v 0.8020992 2.381175 -2.952196
v 1.600873 2.381175 -1.652538
v -1.88578 2.381175 2.767623
v 1.755439 2.381175 0.3339856
v 1.789964 2.381175 2.94655
v 1.600873 5.268691E-08 -1.652538
v 1.755439 -1.475234E-07 0.3339856
v 1.600873 2.381175 -1.652538
v 1.755439 2.381175 0.3339856
vt 0.4375 0
vt 0.4622089 0.2369177
vt 0.4375 0.25
vt 0.4622089 0.3289726
vt 0.4687531 1.898222E-10
vt 0.4687531 0.25
vt 0.5604103 1.496747E-07
vt 0.5604103 0.25
vt 0.59375 0
vt 0.5604103 1.496747E-07
vt 0.59375 0.25
vt 0.5604103 0.25
vt 0.4687531 1.898222E-10
vt 0.4375 0
vt 0.4687531 0.25
vt 0.4375 0.25
vt 0.4622089 0.2369177
vt 0.5403339 0.2369177
vt 0.4622089 0.3289726
vt 0.5403339 0.3289726
vt 0.5403339 0.2369177
vt 0.5670419 0.1184589
vt 0.5403339 0.3289726
vt 0.5670419 0.2894863
vt 0.4687531 1
vt 0.5604103 1
vt 0.59375 1
vt 0.5785488 0.9490069
vt 0.4375 1
vt 0.5633476 0.8980137
vt 0.4852226 0.8980137
vt 0.4375 0.25
vt 0.4852226 0.3519863
vt 0.5633476 0.3519863
vt 0.5785488 0.3009931
vt 0.4687531 0.25
vt 0.59375 0.25
vt 0.5604103 0.25
vt 0.5670419 0.1184589
vt 0.59375 0
vt 0.5670419 0.2894863
vt 0.59375 0.25
vn -0.5832309 0 -0.8123065
vn -0.5832309 0 -0.8123065
vn -0.5832308 0 -0.8123065
vn -0.5832308 0 -0.8123065
vn -0.04862005 0 0.9988173
vn -0.04862005 0 0.9988173
vn -0.04862006 0 0.9988173
vn -0.04862005 0 0.9988173
vn 0.9999127 0 -0.01321377
vn 0.9999127 0 -0.01321377
vn 0.9999127 0 -0.01321377
vn 0.9999127 0 -0.01321377
vn -0.9913317 0 -0.1313835
vn -0.9913317 0 -0.1313835
vn -0.9913317 0 -0.1313835
vn -0.9913317 0 -0.1313835
vn -0.09304227 0 -0.9956622
vn -0.09304228 0 -0.9956622
vn -0.09304227 0 -0.9956622
vn -0.09304227 0 -0.9956622
vn 0.8519555 0 -0.5236141
vn 0.8519555 0 -0.5236142
vn 0.8519555 0 -0.5236142
vn 0.8519555 0 -0.5236142
vn 0 -1 0
vn 0 -1 0
vn 0 -1 0
vn 0 -1 0
vn 0 -1 0
vn 0 -1 0
vn 0 -1 0
vn 0 1 -2.171216E-07
vn 0 1 -2.171216E-07
vn 0 1 -2.171216E-07
vn 0 1 -2.171216E-07
vn 0 1 0
vn 0 1 0
vn 0 1 0
vn 0.9969867 0 -0.07757301
vn 0.9969867 0 -0.07757301
vn 0.9969867 0 -0.07757301
vn 0.9969867 0 -0.07757301
g Chap01_Prop_Grp_14_Collider_0
f 3/3/3 2/2/2 1/1/1
f 3/3/3 4/4/4 2/2/2
f 7/7/7 6/6/6 5/5/5
f 7/7/7 8/8/8 6/6/6
f 11/11/11 10/10/10 9/9/9
f 11/11/11 12/12/12 10/10/10
f 15/15/15 14/14/14 13/13/13
f 15/15/15 16/16/16 14/14/14
f 19/19/19 18/18/18 17/17/17
f 19/19/19 20/20/20 18/18/18
f 23/23/23 22/22/22 21/21/21
f 23/23/23 24/24/24 22/22/22
f 27/27/27 26/26/26 25/25/25
f 27/27/27 25/25/25 28/28/28
f 28/28/28 25/25/25 29/29/29
f 29/29/29 30/30/30 28/28/28
f 29/29/29 31/31/31 30/30/30
f 34/34/34 33/33/33 32/32/32
f 34/34/34 32/32/32 35/35/35
f 36/36/36 35/35/35 32/32/32
f 36/36/36 37/37/37 35/35/35
f 37/37/37 36/36/36 38/38/38
f 41/41/41 40/40/40 39/39/39
f 41/41/41 42/42/42 40/40/40
