g Chap01_Prop_Grp_02_Collider
v -1.412467 0 0.7313374
v -1.412467 2.381176 0.7313374
v -0.7592785 0 0.9208069
v -0.7592785 2.381176 0.9208069
v -1.412467 2.381176 -0.716136
v -1.412467 0 -0.716136
v -0.2132425 2.381176 -1.014728
v -0.2132425 0 -1.014728
v 1.105422 0 0.04679137
v 1.105422 2.381176 0.04679137
v -1.412467 0 -0.716136
v -1.412467 0 0.7313374
v -0.7592785 0 0.9208069
v -0.2132425 0 -1.014728
v 0.8779126 0 0.9344372
v 1.105422 0 0.04679137
v 1.432907 0 0.6140112
v 1.432907 0 0.6140112
v 1.432907 2.381176 0.6140112
v 1.105422 0 0.04679137
v 1.105422 2.381176 0.04679137
v -1.412467 0 -0.716136
v -1.412467 2.381176 -0.716136
v -1.412467 0 0.7313374
v -1.412467 2.381176 0.7313374
v 0.8779126 2.381176 0.9344372
v 1.432907 2.381176 0.6140112
v 1.432907 0 0.6140112
v 0.8779126 0 0.9344372
v -0.7592785 0 0.9208069
v -0.7592785 2.381176 0.9208069
v 1.105422 2.381176 0.04679137
v 1.432907 2.381176 0.6140112
v 0.8779126 2.381176 0.9344372
v -0.2132425 2.381176 -1.014728
v -0.7592785 2.381176 0.9208069
v -1.412467 2.381176 -0.716136
v -1.412467 2.381176 0.7313374
vt 0.375 0
vt 0.375 0.25
vt 0.4375 0
vt 0.4375 0.25
vt 0.375 0.5
vt 0.375 0.75
vt 0.5 0.5
vt 0.5 0.75
vt 0.625 0.75
vt 0.625 0.5
vt 0.375 0.75
vt 0.375 1
vt 0.4375 1
vt 0.5 0.75
vt 0.5 1
vt 0.625 0.75
vt 0.625 1
vt 0.625 0
vt 0.625 0.25
vt 0.875 0
vt 0.875 0.25
vt 0.125 0
vt 0.125 0.25
vt 0.375 0
vt 0.375 0.25
vt 0.5 0.25
vt 0.625 0.25
vt 0.625 0
vt 0.5 0
vt 0.4375 0
vt 0.4375 0.25
vt 0.625 0.5
vt 0.625 0.25
vt 0.5 0.25
vt 0.5 0.5
vt 0.4375 0.25
vt 0.375 0.5
vt 0.375 0.25
vn -0.2785854 0 0.9604114
vn -0.2785854 0 0.9604114
vn -0.2785854 0 0.9604114
vn -0.2785854 0 0.9604114
vn -0.2416108 0 -0.9703733
vn -0.2416108 0 -0.9703733
vn 0.2899833 0 -0.9570317
vn 0.2899833 0 -0.9570317
vn 0.6270649 0 -0.778967
vn 0.6270649 0 -0.778967
vn 0 -1 0
vn 0 -1 0
vn 0 -1 0
vn 0 -1 0
vn 0 -1 0
vn 0 -1 0
vn 0 -1 0
vn 0.8660256 0 -0.4999996
vn 0.8660256 0 -0.4999996
vn 0.8660256 0 -0.4999996
vn 0.8660256 0 -0.4999996
vn -1 0 0
vn -1 0 0
vn -1 0 0
vn -1 0 0
vn 0.138599 0 0.9903486
vn 0.5000002 0 0.8660253
vn 0.5000002 0 0.8660253
vn 0.138599 0 0.9903486
vn -0.008325133 0 0.9999654
vn -0.008325133 0 0.9999654
vn 0 1 0
vn 0 1 0
vn 0 1 0
vn 0 1 0
vn 0 1 0
vn 0 1 0
vn 0 1 0
g Chap01_Prop_Grp_02_Collider_0
f 3/3/3 2/2/2 1/1/1
f 3/3/3 4/4/4 2/2/2
f 7/7/7 6/6/6 5/5/5
f 7/7/7 8/8/8 6/6/6
f 7/7/7 9/9/9 8/8/8
f 7/7/7 10/10/10 9/9/9
f 13/13/13 12/12/12 11/11/11
f 13/13/13 11/11/11 14/14/14
f 14/14/14 15/15/15 13/13/13
f 16/16/16 15/15/15 14/14/14
f 16/16/16 17/17/17 15/15/15
f 20/20/20 19/19/19 18/18/18
f 20/20/20 21/21/21 19/19/19
f 24/24/24 23/23/23 22/22/22
f 24/24/24 25/25/25 23/23/23
f 28/28/28 27/27/27 26/26/26
f 28/28/28 26/26/26 29/29/29
f 30/30/30 29/29/29 26/26/26
f 30/30/30 26/26/26 31/31/31
f 34/34/34 33/33/33 32/32/32
f 34/34/34 32/32/32 35/35/35
f 36/36/36 34/34/34 35/35/35
f 36/36/36 35/35/35 37/37/37
f 36/36/36 37/37/37 38/38/38
