g Chap01_Grd_UnderCity_03_Airwall_Collider
v 54.07041 8.970634 -0.007929687
v 54.62049 8.975073 -0.3322705
v 54.07041 6.125099 -0.007929687
v 54.60513 6.125099 -0.3232117
v 47.09293 8.970635 -3.416423
v 47.09293 6.125099 -3.416423
v 43.4255 8.970634 -3.416422
v 43.4255 6.125099 -3.416422
v 54.11488 8.970635 1.126735
v 55.1284 8.975074 0.5291394
v 55.11304 6.125099 0.5381982
v 54.11488 6.125099 1.126735
v 46.86173 6.125099 -2.416423
v 46.86173 8.970635 -2.416423
v 43.4255 6.125099 -2.416422
v 43.4255 8.970634 -2.416422
v 53.78069 6.031867 27.11189
v 67.01888 6.031867 20.43953
v 53.78069 10.64158 27.11189
v 67.01888 10.64158 20.43953
v 53.7278 6.031867 27.46944
v 53.7278 10.64158 27.46944
v 57.22695 6.031867 34.40425
v 57.22695 10.64158 34.40425
v 57.53326 6.031867 34.58709
v 57.53326 10.64158 34.58709
v 63.24453 6.031869 34.5657
v 63.24453 10.64158 34.5657
v 52.86738 6.031867 26.45239
v 66.56879 6.031867 19.54654
v 66.56879 10.64158 19.54654
v 52.86737 10.64158 26.45239
v 52.69216 10.64158 27.6368
v 52.69216 6.031867 27.6368
v 56.46501 10.64158 35.11404
v 56.46501 6.031867 35.11404
v 57.25924 10.64158 35.58812
v 57.25924 6.031867 35.58812
v 63.24827 10.64158 35.56569
v 63.24827 6.031869 35.56569
v 66.41119 8.317719 34.46614
v 72.35217 8.317719 34.17549
v 66.41119 5.741849 34.46614
v 72.35217 5.741849 34.17549
v 63.45995 8.317719 34.2553
v 63.45995 5.741849 34.2553
v 66.39996 8.317719 35.46789
v 72.40103 8.317719 35.17429
v 72.40103 5.741849 35.17429
v 66.39995 5.741849 35.46789
v 63.38869 5.741849 35.25275
v 63.38869 8.317719 35.25275
v 87.26508 9.68012 59.11253
v 93.06972 9.68012 59.11253
v 87.26508 6.870944 59.11253
v 93.06972 6.870944 59.11253
v 87.07681 9.68012 59.34112
v 87.07681 6.870944 59.34112
v 87.73697 9.68012 60.11253
v 93.06972 9.68012 60.11253
v 93.06972 6.870944 60.11253
v 87.73697 6.870944 60.11253
v 87.5659 6.870944 60.37885
v 87.5659 9.68012 60.37885
v 54.11488 8.970635 1.126735
v 54.11488 6.125099 1.126735
v 46.86173 8.970635 -2.416423
v 46.86173 6.125099 -2.416423
v 54.07041 8.970634 -0.007929687
v 54.07041 6.125099 -0.007929687
v 47.09293 8.970635 -3.416423
v 47.09293 6.125099 -3.416423
v 54.07041 8.970634 -0.007929687
v 54.62049 8.975073 -0.3322705
v 55.1284 8.975074 0.5291394
v 54.11488 8.970635 1.126735
v 54.62049 8.975073 -0.3322705
v 54.60513 6.125099 -0.3232117
v 55.11304 6.125099 0.5381982
v 55.1284 8.975074 0.5291394
v 54.60513 6.125099 -0.3232117
v 54.07041 6.125099 -0.007929687
v 54.11488 6.125099 1.126735
v 55.11304 6.125099 0.5381982
v 54.07041 6.125099 -0.007929687
v 47.09293 6.125099 -3.416423
v 46.86173 6.125099 -2.416423
v 54.11488 6.125099 1.126735
v 47.09293 8.970635 -3.416423
v 54.07041 8.970634 -0.007929687
v 54.11488 8.970635 1.126735
v 46.86173 8.970635 -2.416423
v 47.09293 6.125099 -3.416423
v 43.4255 6.125099 -3.416422
v 43.4255 6.125099 -2.416422
v 46.86173 6.125099 -2.416423
v 43.4255 6.125099 -3.416422
v 43.4255 8.970634 -3.416422
v 43.4255 8.970634 -2.416422
v 43.4255 6.125099 -2.416422
v 43.4255 8.970634 -3.416422
v 47.09293 8.970635 -3.416423
v 46.86173 8.970635 -2.416423
v 43.4255 8.970634 -2.416422
v 52.86738 6.031867 26.45239
v 52.86737 10.64158 26.45239
v 52.69216 6.031867 27.6368
v 52.69216 10.64158 27.6368
v 56.46501 6.031867 35.11404
v 56.46501 10.64158 35.11404
v 57.25924 6.031867 35.58812
v 57.25924 10.64158 35.58812
v 53.78069 6.031867 27.11189
v 53.78069 10.64158 27.11189
v 53.7278 6.031867 27.46944
v 53.7278 10.64158 27.46944
v 57.22695 6.031867 34.40425
v 57.22695 10.64158 34.40425
v 57.53326 6.031867 34.58709
v 57.53326 10.64158 34.58709
v 53.78069 6.031867 27.11189
v 67.01888 6.031867 20.43953
v 66.56879 6.031867 19.54654
v 52.86738 6.031867 26.45239
v 67.01888 6.031867 20.43953
v 67.01888 10.64158 20.43953
v 66.56879 10.64158 19.54654
v 66.56879 6.031867 19.54654
v 67.01888 10.64158 20.43953
v 53.78069 10.64158 27.11189
v 52.86737 10.64158 26.45239
v 66.56879 10.64158 19.54654
v 53.78069 10.64158 27.11189
v 53.7278 10.64158 27.46944
v 52.69216 10.64158 27.6368
v 52.86737 10.64158 26.45239
v 53.7278 6.031867 27.46944
v 53.78069 6.031867 27.11189
v 52.86738 6.031867 26.45239
v 52.69216 6.031867 27.6368
v 53.7278 10.64158 27.46944
v 57.22695 10.64158 34.40425
v 56.46501 10.64158 35.11404
v 52.69216 10.64158 27.6368
v 57.22695 6.031867 34.40425
v 53.7278 6.031867 27.46944
v 52.69216 6.031867 27.6368
v 56.46501 6.031867 35.11404
v 57.22695 10.64158 34.40425
v 57.53326 10.64158 34.58709
v 57.25924 10.64158 35.58812
v 56.46501 10.64158 35.11404
v 57.53326 6.031867 34.58709
v 57.22695 6.031867 34.40425
v 56.46501 6.031867 35.11404
v 57.25924 6.031867 35.58812
v 57.53326 10.64158 34.58709
v 63.24453 10.64158 34.5657
v 63.24827 10.64158 35.56569
v 57.25924 10.64158 35.58812
v 63.24453 10.64158 34.5657
v 63.24453 6.031869 34.5657
v 63.24827 6.031869 35.56569
v 63.24827 10.64158 35.56569
v 63.24453 6.031869 34.5657
v 57.53326 6.031867 34.58709
v 57.25924 6.031867 35.58812
v 63.24827 6.031869 35.56569
v 66.39996 8.317719 35.46789
v 66.39995 5.741849 35.46789
v 66.41119 8.317719 34.46614
v 66.41119 5.741849 34.46614
v 66.41119 8.317719 34.46614
v 72.35217 8.317719 34.17549
v 72.40103 8.317719 35.17429
v 66.39996 8.317719 35.46789
v 72.35217 8.317719 34.17549
v 72.35217 5.741849 34.17549
v 72.40103 5.741849 35.17429
v 72.40103 8.317719 35.17429
v 72.35217 5.741849 34.17549
v 66.41119 5.741849 34.46614
v 66.39995 5.741849 35.46789
v 72.40103 5.741849 35.17429
v 66.41119 5.741849 34.46614
v 63.45995 5.741849 34.2553
v 63.38869 5.741849 35.25275
v 66.39995 5.741849 35.46789
v 63.45995 5.741849 34.2553
v 63.45995 8.317719 34.2553
v 63.38869 8.317719 35.25275
v 63.38869 5.741849 35.25275
v 63.45995 8.317719 34.2553
v 66.41119 8.317719 34.46614
v 66.39996 8.317719 35.46789
v 63.38869 8.317719 35.25275
v 87.73697 9.68012 60.11253
v 87.73697 6.870944 60.11253
v 87.26508 9.68012 59.11253
v 87.26508 6.870944 59.11253
v 87.26508 9.68012 59.11253
v 93.06972 9.68012 59.11253
v 93.06972 9.68012 60.11253
v 87.73697 9.68012 60.11253
v 93.06972 9.68012 59.11253
v 93.06972 6.870944 59.11253
v 93.06972 6.870944 60.11253
v 93.06972 9.68012 60.11253
v 93.06972 6.870944 59.11253
v 87.26508 6.870944 59.11253
v 87.73697 6.870944 60.11253
v 93.06972 6.870944 60.11253
v 87.26508 6.870944 59.11253
v 87.07681 6.870944 59.34112
v 87.5659 6.870944 60.37885
v 87.73697 6.870944 60.11253
v 87.07681 6.870944 59.34112
v 87.07681 9.68012 59.34112
v 87.5659 9.68012 60.37885
v 87.5659 6.870944 60.37885
v 87.07681 9.68012 59.34112
v 87.26508 9.68012 59.11253
v 87.73697 9.68012 60.11253
v 87.5659 9.68012 60.37885
vt 0.375 0.5
vt 0.625 0.5
vt 0.375 0.75
vt 0.625 0.75
vt 0 1
vt 1 1
vt 0 1
vt 1 1
vt 0.375 0.5
vt 0.625 0.5
vt 0.625 0.75
vt 0.375 0.75
vt 1 1
vt 0 1
vt 1 1
vt 0 1
vt 0.375 0
vt 0.625 0
vt 0.375 0.25
vt 0.625 0.25
vt 0 1
vt 1 1
vt 0 1
vt 1 1
vt 0 1
vt 1 1
vt 0 1
vt 1 1
vt 0.375 0
vt 0.625 0
vt 0.625 0.25
vt 0.375 0.25
vt 1 1
vt 0 1
vt 1 1
vt 0 1
vt 1 1
vt 0 1
vt 1 1
vt 0 1
vt 0.375 0.5
vt 0.625 0.5
vt 0.375 0.75
vt 0.625 0.75
vt 0 1
vt 1 1
vt 0.375 0.5
vt 0.625 0.5
vt 0.625 0.75
vt 0.375 0.75
vt 1 1
vt 0 1
vt 0.375 0.5
vt 0.625 0.5
vt 0.375 0.75
vt 0.625 0.75
vt 0 1
vt 1 1
vt 0.375 0.5
vt 0.625 0.5
vt 0.625 0.75
vt 0.375 0.75
vt 1 1
vt 0 1
vt 0 0
vt 1 0
vt 0 0
vt 1 0
vt 0 0
vt 1 0
vt 0 0
vt 1 0
vt 0.375 0.5
vt 0.625 0.5
vt 0.625 0.5
vt 0.375 0.5
vt 0.625 0.5
vt 0.625 0.75
vt 0.625 0.75
vt 0.625 0.5
vt 0.625 0.75
vt 0.375 0.75
vt 0.375 0.75
vt 0.625 0.75
vt 1 0
vt 1 1
vt 1 1
vt 1 0
vt 0 1
vt 0 0
vt 0 0
vt 0 1
vt 1 0
vt 1 1
vt 1 1
vt 1 0
vt 1 1
vt 0 1
vt 0 1
vt 1 1
vt 0 1
vt 0 0
vt 0 0
vt 0 1
vt 0 0
vt 1 0
vt 0 0
vt 1 0
vt 0 0
vt 1 0
vt 0 0
vt 1 0
vt 0 0
vt 1 0
vt 0 0
vt 1 0
vt 0 0
vt 1 0
vt 0 0
vt 1 0
vt 0.375 0
vt 0.625 0
vt 0.625 0
vt 0.375 0
vt 0.625 0
vt 0.625 0.25
vt 0.625 0.25
vt 0.625 0
vt 0.625 0.25
vt 0.375 0.25
vt 0.375 0.25
vt 0.625 0.25
vt 1 0
vt 1 1
vt 1 1
vt 1 0
vt 0 1
vt 0 0
vt 0 0
vt 0 1
vt 1 0
vt 1 1
vt 1 1
vt 1 0
vt 0 1
vt 0 0
vt 0 0
vt 0 1
vt 1 0
vt 1 1
vt 1 1
vt 1 0
vt 0 1
vt 0 0
vt 0 0
vt 0 1
vt 1 0
vt 1 1
vt 1 1
vt 1 0
vt 1 1
vt 0 1
vt 0 1
vt 1 1
vt 0 1
vt 0 0
vt 0 0
vt 0 1
vt 0 0
vt 1 0
vt 0 0
vt 1 0
vt 0.375 0.5
vt 0.625 0.5
vt 0.625 0.5
vt 0.375 0.5
vt 0.625 0.5
vt 0.625 0.75
vt 0.625 0.75
vt 0.625 0.5
vt 0.625 0.75
vt 0.375 0.75
vt 0.375 0.75
vt 0.625 0.75
vt 1 0
vt 1 1
vt 1 1
vt 1 0
vt 1 1
vt 0 1
vt 0 1
vt 1 1
vt 0 1
vt 0 0
vt 0 0
vt 0 1
vt 0 0
vt 1 0
vt 0 0
vt 1 0
vt 0.375 0.5
vt 0.625 0.5
vt 0.625 0.5
vt 0.375 0.5
vt 0.625 0.5
vt 0.625 0.75
vt 0.625 0.75
vt 0.625 0.5
vt 0.625 0.75
vt 0.375 0.75
vt 0.375 0.75
vt 0.625 0.75
vt 1 0
vt 1 1
vt 1 1
vt 1 0
vt 1 1
vt 0 1
vt 0 1
vt 1 1
vt 0 1
vt 0 0
vt 0 0
vt 0 1
vn -0.5079095 0 -0.8614104
vn -0.5079095 0 -0.8614104
vn -0.5079095 0 -0.8614104
vn -0.5079095 0 -0.8614104
vn 0.4389275 0 -0.8985225
vn 0.4389275 0 -0.8985225
vn -3.242232E-07 0 -1
vn -3.242232E-07 0 -1
vn 0.5079094 0 0.8614104
vn 0.5079095 0 0.8614104
vn 0.5079094 0 0.8614104
vn 0.5079094 0 0.8614104
vn -0.4389273 0 0.8985225
vn -0.4389273 0 0.8985225
vn 3.994972E-07 0 1
vn 3.994971E-07 0 1
vn 0.4500863 0 0.892985
vn 0.4500863 0 0.892985
vn 0.4500863 0 0.892985
vn 0.4500863 0 0.892985
vn 0.9892353 0 0.1463331
vn 0.9892353 0 0.1463331
vn 0.8927863 0 -0.4504805
vn 0.8927863 0 -0.4504805
vn 0.512545 0 -0.8586603
vn 0.512545 0 -0.8586603
vn -0.003744774 0 -0.999993
vn -0.003744774 0 -0.999993
vn -0.4500866 -7.069276E-07 -0.892985
vn -0.4500866 -7.069275E-07 -0.892985
vn -0.4500866 -7.069275E-07 -0.892985
vn -0.4500865 -7.069274E-07 -0.892985
vn -0.9892342 -2.264808E-06 -0.1463411
vn -0.9892342 -2.264808E-06 -0.1463411
vn -0.8927864 0 0.4504801
vn -0.8927864 0 0.4504801
vn -0.5125371 0 0.858665
vn -0.5125371 0 0.858665
vn 0.00374349 0 0.999993
vn 0.00374349 0 0.999993
vn -0.04886558 0 -0.9988054
vn -0.04886558 0 -0.9988054
vn -0.04886558 0 -0.9988054
vn -0.04886558 0 -0.9988054
vn 0.07126164 0 -0.9974577
vn 0.07126164 0 -0.9974577
vn 0.04886606 0 0.9988054
vn 0.04886606 0 0.9988054
vn 0.04886606 0 0.9988054
vn 0.04886606 0 0.9988054
vn -0.07126214 2.009286E-07 0.9974577
vn -0.07126214 2.009286E-07 0.9974577
vn 0 0 -1
vn 0 0 -1
vn 0 0 -1
vn 0 0 -1
vn -0.771912 0 -0.6357296
vn -0.771912 0 -0.6357296
vn 0 0 1
vn 0 0 1
vn 0 0 1
vn 0 0 1
vn 0.8413764 0 0.5404494
vn 0.8413764 0 0.5404494
vn -0.4389273 0 0.8985225
vn -0.4389273 0 0.8985225
vn 3.994972E-07 0 1
vn 3.994972E-07 0 1
vn 0.4389275 0 -0.8985225
vn 0.4389275 0 -0.8985225
vn -3.242232E-07 0 -1
vn -3.242232E-07 0 -1
vn -0.0005017446 0.9999999 0.0001388748
vn -0.004881094 0.9999872 0.001350585
vn -0.004881094 0.9999872 0.001350585
vn -0.000501747 0.9999999 0.0001388754
vn 0.8613932 -0.006257455 -0.5079002
vn 0.8613932 -0.006257456 -0.5079002
vn 0.8613932 -0.006257455 -0.5079002
vn 0.8613932 -0.006257457 -0.5079002
vn 0 -1 0
vn 0 -1 0
vn 0 -1 0
vn 0 -1 0
vn 0 -1 0
vn 0 -1 0
vn 0 -1 0
vn 0 -1 0
vn 0 1 0
vn -0.0005017446 0.9999999 0.0001388748
vn -0.000501747 0.9999999 0.0001388754
vn 0 1 0
vn 0 -1 0
vn 0 -1 0
vn 0 -1 0
vn 0 -1 0
vn -1 0 0
vn -1 0 0
vn -1 0 0
vn -1 0 0
vn -1.718413E-07 1 0
vn 0 1 0
vn 0 1 0
vn -1.718413E-07 1 0
vn -0.9892342 -2.264808E-06 -0.1463411
vn -0.9892342 -2.264808E-06 -0.1463411
vn -0.8927864 0 0.4504801
vn -0.8927864 0 0.4504801
vn -0.5125371 0 0.858665
vn -0.5125371 0 0.858665
vn 0.00374349 0 0.999993
vn 0.003743491 0 0.999993
vn 0.9892353 0 0.1463331
vn 0.9892353 0 0.1463331
vn 0.8927863 0 -0.4504805
vn 0.8927863 0 -0.4504805
vn 0.512545 0 -0.8586603
vn 0.512545 0 -0.8586603
vn -0.003744774 0 -0.999993
vn -0.003744774 0 -0.999993
vn 0 -1 4.109193E-07
vn 0 -1 4.14347E-07
vn 0 -1 4.143471E-07
vn 0 -1 4.109194E-07
vn 0.8929847 0 -0.4500869
vn 0.8929847 0 -0.4500869
vn 0.8929847 0 -0.4500869
vn 0.8929847 0 -0.4500869
vn 0 1 0
vn 0 1 0
vn 0 1 0
vn 0 1 0
vn 0 1 0
vn 0 1 0
vn 0 1 0
vn 0 1 0
vn 0 -1 2.068814E-07
vn 0 -1 4.109193E-07
vn 0 -1 4.109194E-07
vn 0 -1 2.068815E-07
vn 0 1 0
vn 0 1 0
vn 0 1 0
vn 0 1 0
vn 0 -1 1.793459E-07
vn 0 -1 2.068814E-07
vn 0 -1 2.068815E-07
vn 0 -1 1.79346E-07
vn 0 1 0
vn -1.881564E-07 1 0
vn -1.881565E-07 1 0
vn 0 1 0
vn 3.763128E-07 -1 4.814336E-07
vn 0 -1 1.793459E-07
vn 0 -1 1.79346E-07
vn 3.76313E-07 -1 4.814337E-07
vn -1.881564E-07 1 0
vn -2.087673E-07 1 0
vn -2.087673E-07 1 0
vn -1.881565E-07 1 0
vn 0.9999931 0 -0.003740219
vn 0.9999931 0 -0.003740219
vn 0.9999931 0 -0.003740219
vn 0.9999931 0 -0.003740219
vn 4.175346E-07 -1 5.341705E-07
vn 3.763128E-07 -1 4.814336E-07
vn 3.76313E-07 -1 4.814337E-07
vn 4.175346E-07 -1 5.341705E-07
vn -0.07126213 2.009286E-07 0.9974577
vn -0.07126213 2.009286E-07 0.9974577
vn 0.07126164 0 -0.9974577
vn 0.07126164 0 -0.9974577
vn 0 1 0
vn 0 1 0
vn 0 1 0
vn 0 1 0
vn 0.9988055 0 -0.04886241
vn 0.9988055 0 -0.04886241
vn 0.9988055 0 -0.04886241
vn 0.9988055 0 -0.04886241
vn 0 -1 -5.227351E-07
vn 0 -1 -3.484996E-07
vn 0 -1 -3.484991E-07
vn 0 -1 -5.227351E-07
vn 0 -1 -3.484996E-07
vn 0 -1 0
vn 0 -1 0
vn 0 -1 -3.484991E-07
vn -0.9974578 0 -0.07125983
vn -0.9974578 0 -0.07125983
vn -0.9974578 0 -0.07125983
vn -0.9974578 0 -0.07125983
vn 0 1 0
vn 0 1 0
vn 0 1 0
vn 0 1 0
vn 0.8413764 0 0.5404494
vn 0.8413764 0 0.5404494
vn -0.771912 0 -0.6357296
vn -0.771912 0 -0.6357296
vn 0 1 1.06462E-06
vn 0 1 1.122346E-06
vn 0 1 1.122346E-06
vn 0 1 1.061417E-06
vn 1 0 0
vn 1 0 0
vn 1 0 0
vn 1 0 0
vn 0 -1 0
vn 0 -1 0
vn 0 -1 0
vn 0 -1 0
vn 0 -1 0
vn 0 -1 3.234203E-07
vn 0 -1 3.234203E-07
vn 0 -1 0
vn -0.9045663 0 0.426333
vn -0.9045663 0 0.426333
vn -0.9045663 0 0.426333
vn -0.9045663 0 0.426333
vn 0 1 0
vn 0 1 1.06462E-06
vn 0 1 1.061417E-06
vn 0 1 0
g Chap01_Grd_UnderCity_03_Airwall_Collider_0
f 11/11/11 10/10/10 9/9/9
f 12/12/12 11/11/11 9/9/9
f 13/13/13 66/66/66 65/65/65
f 14/14/14 13/13/13 65/65/65
f 15/15/15 68/68/68 67/67/67
f 16/16/16 15/15/15 67/67/67
f 4/4/4 3/3/3 1/1/1
f 2/2/2 4/4/4 1/1/1
f 6/6/6 5/5/5 69/69/69
f 70/70/70 6/6/6 69/69/69
f 8/8/8 7/7/7 71/71/71
f 72/72/72 8/8/8 71/71/71
f 75/75/75 74/74/74 73/73/73
f 76/76/76 75/75/75 73/73/73
f 79/79/79 78/78/78 77/77/77
f 80/80/80 79/79/79 77/77/77
f 83/83/83 82/82/82 81/81/81
f 84/84/84 83/83/83 81/81/81
f 87/87/87 86/86/86 85/85/85
f 88/88/88 87/87/87 85/85/85
f 91/91/91 90/90/90 89/89/89
f 92/92/92 91/91/91 89/89/89
f 95/95/95 94/94/94 93/93/93
f 96/96/96 95/95/95 93/93/93
f 99/99/99 98/98/98 97/97/97
f 100/100/100 99/99/99 97/97/97
f 103/103/103 102/102/102 101/101/101
f 104/104/104 103/103/103 101/101/101
f 31/31/31 30/30/30 29/29/29
f 32/32/32 31/31/31 29/29/29
f 33/33/33 106/106/106 105/105/105
f 34/34/34 33/33/33 105/105/105
f 35/35/35 108/108/108 107/107/107
f 36/36/36 35/35/35 107/107/107
f 37/37/37 110/110/110 109/109/109
f 38/38/38 37/37/37 109/109/109
f 39/39/39 112/112/112 111/111/111
f 40/40/40 39/39/39 111/111/111
f 20/20/20 19/19/19 17/17/17
f 18/18/18 20/20/20 17/17/17
f 22/22/22 21/21/21 113/113/113
f 114/114/114 22/22/22 113/113/113
f 24/24/24 23/23/23 115/115/115
f 116/116/116 24/24/24 115/115/115
f 26/26/26 25/25/25 117/117/117
f 118/118/118 26/26/26 117/117/117
f 28/28/28 27/27/27 119/119/119
f 120/120/120 28/28/28 119/119/119
f 123/123/123 122/122/122 121/121/121
f 124/124/124 123/123/123 121/121/121
f 127/127/127 126/126/126 125/125/125
f 128/128/128 127/127/127 125/125/125
f 131/131/131 130/130/130 129/129/129
f 132/132/132 131/131/131 129/129/129
f 135/135/135 134/134/134 133/133/133
f 136/136/136 135/135/135 133/133/133
f 139/139/139 138/138/138 137/137/137
f 140/140/140 139/139/139 137/137/137
f 143/143/143 142/142/142 141/141/141
f 144/144/144 143/143/143 141/141/141
f 147/147/147 146/146/146 145/145/145
f 148/148/148 147/147/147 145/145/145
f 151/151/151 150/150/150 149/149/149
f 152/152/152 151/151/151 149/149/149
f 155/155/155 154/154/154 153/153/153
f 156/156/156 155/155/155 153/153/153
f 159/159/159 158/158/158 157/157/157
f 160/160/160 159/159/159 157/157/157
f 163/163/163 162/162/162 161/161/161
f 164/164/164 163/163/163 161/161/161
f 167/167/167 166/166/166 165/165/165
f 168/168/168 167/167/167 165/165/165
f 49/49/49 48/48/48 47/47/47
f 50/50/50 49/49/49 47/47/47
f 51/51/51 170/170/170 169/169/169
f 52/52/52 51/51/51 169/169/169
f 44/44/44 43/43/43 41/41/41
f 42/42/42 44/44/44 41/41/41
f 46/46/46 45/45/45 171/171/171
f 172/172/172 46/46/46 171/171/171
f 175/175/175 174/174/174 173/173/173
f 176/176/176 175/175/175 173/173/173
f 179/179/179 178/178/178 177/177/177
f 180/180/180 179/179/179 177/177/177
f 183/183/183 182/182/182 181/181/181
f 184/184/184 183/183/183 181/181/181
f 187/187/187 186/186/186 185/185/185
f 188/188/188 187/187/187 185/185/185
f 191/191/191 190/190/190 189/189/189
f 192/192/192 191/191/191 189/189/189
f 195/195/195 194/194/194 193/193/193
f 196/196/196 195/195/195 193/193/193
f 61/61/61 60/60/60 59/59/59
f 62/62/62 61/61/61 59/59/59
f 63/63/63 198/198/198 197/197/197
f 64/64/64 63/63/63 197/197/197
f 56/56/56 55/55/55 53/53/53
f 54/54/54 56/56/56 53/53/53
f 58/58/58 57/57/57 199/199/199
f 200/200/200 58/58/58 199/199/199
f 203/203/203 202/202/202 201/201/201
f 204/204/204 203/203/203 201/201/201
f 207/207/207 206/206/206 205/205/205
f 208/208/208 207/207/207 205/205/205
f 211/211/211 210/210/210 209/209/209
f 212/212/212 211/211/211 209/209/209
f 215/215/215 214/214/214 213/213/213
f 216/216/216 215/215/215 213/213/213
f 219/219/219 218/218/218 217/217/217
f 220/220/220 219/219/219 217/217/217
f 223/223/223 222/222/222 221/221/221
f 224/224/224 223/223/223 221/221/221
