g Chap01_Prop_Grp_15_Collider
v 0.3902935 -7.540815E-08 -0.9496667
v 0.3902935 2.381175 -0.9496667
v -2.627028 -1.264486E-07 -0.9496656
v -2.627028 2.381175 -0.9496656
v -2.545224 6.32243E-08 0.5600061
v -2.545224 2.381175 0.5600061
v -1.156669 -3.161215E-08 0.8928705
v -1.156669 2.381175 0.8928705
v 2.627028 -1.475234E-07 -0.094707
v 2.22308 -1.264486E-07 0.9496657
v 2.627028 2.381175 -0.094707
v 2.22308 2.381175 0.9496657
v -2.545224 6.32243E-08 0.5600061
v -2.627028 -1.264486E-07 -0.9496656
v -2.545224 2.381175 0.5600061
v -2.627028 2.381175 -0.9496656
v 0.3902935 -7.540815E-08 -0.9496667
v 2.627028 5.268691E-08 -0.6607629
v 0.3902935 2.381175 -0.9496667
v 2.627028 2.381175 -0.6607629
v -2.545224 6.32243E-08 0.5600061
v -1.156669 -3.161215E-08 0.8928705
v -2.627028 -1.264486E-07 -0.9496656
v 0.3902935 -7.540815E-08 -0.9496667
v 2.22308 -1.264486E-07 0.9496657
v 2.627028 -1.475234E-07 -0.094707
v 2.627028 5.268691E-08 -0.6607629
v 2.627028 5.268691E-08 -0.6607629
v 2.627028 -1.475234E-07 -0.094707
v 2.627028 2.381175 -0.6607629
v 2.627028 2.381175 -0.094707
v -1.156669 2.381175 0.8928705
v 2.22308 2.381175 0.9496657
v -1.156669 -3.161215E-08 0.8928705
v 2.22308 -1.264486E-07 0.9496657
v -2.545224 2.381175 0.5600061
v -2.627028 2.381175 -0.9496656
v -1.156669 2.381175 0.8928705
v 0.3902935 2.381175 -0.9496667
v 2.22308 2.381175 0.9496657
v 2.627028 2.381175 -0.094707
v 2.627028 2.381175 -0.6607629
vt 0.5403339 0.2369177
vt 0.5403339 0.3289726
vt 0.4375 0
vt 0.4375 0.25
vt 0.4687531 1.898222E-10
vt 0.4687531 0.25
vt 0.5145817 7.493226E-08
vt 0.5145817 0.25
vt 0.59375 0
vt 0.5604103 1.496747E-07
vt 0.59375 0.25
vt 0.5604103 0.25
vt 0.4687531 1.898222E-10
vt 0.4375 0
vt 0.4687531 0.25
vt 0.4375 0.25
vt 0.5403339 0.2369177
vt 0.5670419 0.1184589
vt 0.5403339 0.3289726
vt 0.5670419 0.2894863
vt 0.4687531 1
vt 0.5145817 1
vt 0.4375 1
vt 0.5633476 0.8980137
vt 0.5604103 1
vt 0.59375 1
vt 0.5785488 0.9490069
vt 0.5670419 0.1184589
vt 0.59375 0
vt 0.5670419 0.2894863
vt 0.59375 0.25
vt 0.5145817 0.25
vt 0.5604103 0.25
vt 0.5145817 7.493226E-08
vt 0.5604103 1.496747E-07
vt 0.4687531 0.25
vt 0.4375 0.25
vt 0.5145817 0.25
vt 0.5633476 0.3519863
vt 0.5604103 0.25
vt 0.59375 0.25
vt 0.5785488 0.3009931
vn -3.53395E-07 0 -1
vn -3.53395E-07 0 -1
vn -3.53395E-07 0 -1
vn -3.53395E-07 0 -1
vn -0.2331156 0 0.9724491
vn -0.2331156 0 0.9724491
vn -0.2331156 0 0.9724491
vn -0.2331156 0 0.9724491
vn 0.9326658 0 0.3607416
vn 0.9326658 0 0.3607416
vn 0.9326658 0 0.3607416
vn 0.9326658 0 0.3607416
vn -0.9985352 0 0.05410747
vn -0.9985352 0 0.05410747
vn -0.9985352 0 0.05410748
vn -0.9985352 0 0.05410748
vn 0.128099 0 -0.9917613
vn 0.128099 0 -0.9917613
vn 0.128099 0 -0.9917613
vn 0.128099 0 -0.9917613
vn 0 -1 0
vn 0 -1 0
vn 0 -1 0
vn 0 -1 0
vn 0 -1 0
vn 1.029529E-07 -1 -3.536934E-07
vn 1.029529E-07 -1 -3.536934E-07
vn 1 0 5.391265E-07
vn 1 0 5.391265E-07
vn 1 0 5.391265E-07
vn 1 0 5.391265E-07
vn -0.0168022 0 0.9998589
vn -0.0168022 0 0.9998589
vn -0.0168022 0 0.9998589
vn -0.0168022 0 0.9998589
vn 0 1 2.36826E-07
vn 0 1 2.36826E-07
vn 0 1 0
vn 0 1 0
vn 0 1 0
vn 0 1 0
vn 0 1 0
g Chap01_Prop_Grp_15_Collider_0
f 3/3/3 2/2/2 1/1/1
f 3/3/3 4/4/4 2/2/2
f 7/7/7 6/6/6 5/5/5
f 7/7/7 8/8/8 6/6/6
f 11/11/11 10/10/10 9/9/9
f 11/11/11 12/12/12 10/10/10
f 15/15/15 14/14/14 13/13/13
f 15/15/15 16/16/16 14/14/14
f 19/19/19 18/18/18 17/17/17
f 19/19/19 20/20/20 18/18/18
f 23/23/23 22/22/22 21/21/21
f 23/23/23 24/24/24 22/22/22
f 24/24/24 25/25/25 22/22/22
f 24/24/24 26/26/26 25/25/25
f 24/24/24 27/27/27 26/26/26
f 30/30/30 29/29/29 28/28/28
f 30/30/30 31/31/31 29/29/29
f 34/34/34 33/33/33 32/32/32
f 34/34/34 35/35/35 33/33/33
f 38/38/38 37/37/37 36/36/36
f 38/38/38 39/39/39 37/37/37
f 40/40/40 39/39/39 38/38/38
f 40/40/40 41/41/41 39/39/39
f 41/41/41 42/42/42 39/39/39
