g Chap01_Prop_Lode_02a_Collider
v 0.7229898 -0.5903986 1.096108
v 0.7229898 1.680932 1.096108
v 1.357718 1.680932 0.06145748
v 1.357718 -0.5903986 0.06145748
v 1.512692 1.680932 -0.7125667
v 1.512692 -0.5903986 -0.7125667
v 0.728734 1.680932 -0.857821
v 0.728734 -0.5903986 -0.857821
v -0.2168826 1.680932 -1.354687
v -0.2168826 -0.5903986 -1.354687
v -1.317803 1.680932 -0.6029532
v -1.317803 -0.5903986 -0.6029532
v -0.5615726 1.680932 0.4705327
v -0.5615726 -0.5903986 0.4705327
v -0.147636 1.680932 0.6825682
v -0.147636 -0.5903986 0.6825682
v 1.357718 1.680932 0.06145748
v 1.357718 -0.5903986 0.06145748
v 1.512692 1.680932 -0.7125667
v 1.512692 -0.5903986 -0.7125667
v 0.728734 1.680932 -0.857821
v 0.728734 -0.5903986 -0.857821
v -0.2168826 1.680932 -1.354687
v -0.2168826 -0.5903986 -1.354687
v -1.317803 1.680932 -0.6029532
v -1.317803 -0.5903986 -0.6029532
v -0.5615726 1.680932 0.4705327
v -0.5615726 -0.5903986 0.4705327
v -0.147636 1.680932 0.6825682
v 0.7229898 1.680932 1.096108
v 0.7229898 -0.5903986 1.096108
v -0.147636 -0.5903986 0.6825682
v -1.317803 1.680932 -0.6029532
v -0.2168826 1.680932 -1.354687
v 0.728734 1.680932 -0.857821
v -0.5615726 1.680932 0.4705327
v -0.5615726 1.680932 0.4705327
v 0.728734 1.680932 -0.857821
v -0.147636 1.680932 0.6825682
v 1.512692 1.680932 -0.7125667
v 0.7229898 1.680932 1.096108
v -0.147636 1.680932 0.6825682
v 0.728734 1.680932 -0.857821
v 0.7229898 1.680932 1.096108
v 1.512692 1.680932 -0.7125667
v 1.357718 1.680932 0.06145748
v -0.2168826 -0.5903986 -1.354687
v -1.317803 -0.5903986 -0.6029532
v -0.5615726 -0.5903986 0.4705327
v 0.728734 -0.5903986 -0.857821
v -0.147636 -0.5903986 0.6825682
v 0.728734 -0.5903986 -0.857821
v -0.5615726 -0.5903986 0.4705327
v 0.728734 -0.5903986 -0.857821
v -0.147636 -0.5903986 0.6825682
v 0.7229898 -0.5903986 1.096108
v 1.512692 -0.5903986 -0.7125667
v 1.512692 -0.5903986 -0.7125667
v 0.7229898 -0.5903986 1.096108
v 1.357718 -0.5903986 0.06145748
vt 0.625 0
vt 0.625 0.25
vt 0.875 0.25
vt 0.875 0
vt 0 1
vt 1 1
vt 0 1
vt 1 1
vt 0 1
vt 1 1
vt 0 1
vt 1 1
vt 0 1
vt 1 1
vt 0 1
vt 1 1
vt 0 0
vt 1 0
vt 0 0
vt 1 0
vt 0 0
vt 1 0
vt 0 0
vt 1 0
vt 0 0
vt 1 0
vt 0 0
vt 1 0
vt 0 1.203497E-16
vt 1.203497E-16 0.8162697
vt 1 0.8162697
vt 1 0
vt 0 1.561758E-16
vt 0.01070152 0.7324476
vt 0.5331519 1
vt 0.7215465 0
vt 0 0
vt 0.3065741 1
vt 0.26268 0
vt 0 7.392724E-17
vt 0.2325249 1
vt 0.7170523 0.870983
vt 0.4147692 0
vt 0 0
vt 1 0.1394896
vt 0.6210009 0
vt 0.3518496 0
vt 0 0.6630017
vt 0.6580579 1
vt 0.9532901 6.000931E-17
vt 0.04389406 1.605264E-16
vt 0 1
vt 0.3065741 0
vt 0.3022832 1.848181E-17
vt 0 0.870983
vt 0.4845274 1
vt 0.7170523 0
vt 0 7.368815E-17
vt 0.9999999 0.2173968
vt 0.4093237 0
vn 0.8523854 0 0.5229141
vn 0.8523854 0 0.5229141
vn 0.8523854 0 0.5229141
vn 0.8523854 0 0.5229141
vn 0.9805397 0 0.1963213
vn 0.9805397 0 0.1963213
vn 0.1821825 0 -0.9832647
vn 0.1821825 0 -0.9832647
vn 0.4651402 0 -0.885237
vn 0.4651402 0 -0.885237
vn -0.5639035 0 -0.8258407
vn -0.5639035 0 -0.8258407
vn -0.8175145 0 0.5759079
vn -0.8175145 0 0.5759079
vn -0.4559086 0 0.8900266
vn -0.4559086 0 0.8900266
vn 0.9805397 0 0.1963213
vn 0.9805397 0 0.1963213
vn 0.1821825 0 -0.9832647
vn 0.1821825 0 -0.9832647
vn 0.4651402 0 -0.885237
vn 0.4651402 0 -0.885237
vn -0.5639035 0 -0.8258407
vn -0.5639035 0 -0.8258407
vn -0.8175145 0 0.5759079
vn -0.8175145 0 0.5759079
vn -0.4559086 0 0.8900266
vn -0.4559086 0 0.8900266
vn -0.4290506 0 0.9032805
vn -0.4290506 0 0.9032805
vn -0.4290506 0 0.9032805
vn -0.4290506 0 0.9032805
vn 0 1 0
vn 0 1 0
vn 0 1 0
vn 0 1 0
vn 0 1 0
vn 0 1 0
vn 0 1 0
vn 0 1 0
vn 0 1 0
vn 0 1 0
vn 0 1 0
vn 0 1 0
vn 0 1 0
vn 0 1 0
vn 0 -1 0
vn 0 -1 0
vn 0 -1 0
vn 0 -1 0
vn 0 -1 1.185947E-07
vn 0 -1 1.185947E-07
vn 0 -1 1.185947E-07
vn 0 -1 0
vn 0 -1 0
vn 0 -1 0
vn 0 -1 0
vn 0 -1 0
vn 0 -1 0
vn 0 -1 0
g Chap01_Prop_Lode_02a_Collider_0
f 3/3/3 2/2/2 1/1/1
f 4/4/4 3/3/3 1/1/1
f 6/6/6 5/5/5 17/17/17
f 18/18/18 6/6/6 17/17/17
f 8/8/8 7/7/7 19/19/19
f 20/20/20 8/8/8 19/19/19
f 10/10/10 9/9/9 21/21/21
f 22/22/22 10/10/10 21/21/21
f 12/12/12 11/11/11 23/23/23
f 24/24/24 12/12/12 23/23/23
f 14/14/14 13/13/13 25/25/25
f 26/26/26 14/14/14 25/25/25
f 16/16/16 15/15/15 27/27/27
f 28/28/28 16/16/16 27/27/27
f 31/31/31 30/30/30 29/29/29
f 32/32/32 31/31/31 29/29/29
f 35/35/35 34/34/34 33/33/33
f 36/36/36 35/35/35 33/33/33
f 39/39/39 38/38/38 37/37/37
f 42/42/42 41/41/41 40/40/40
f 43/43/43 42/42/42 40/40/40
f 46/46/46 45/45/45 44/44/44
f 49/49/49 48/48/48 47/47/47
f 50/50/50 49/49/49 47/47/47
f 53/53/53 52/52/52 51/51/51
f 56/56/56 55/55/55 54/54/54
f 57/57/57 56/56/56 54/54/54
f 60/60/60 59/59/59 58/58/58
