g Chap01_CloseView_MAZ_M301_L1_Ground_Collider
v -4.361627 3.448777 -16.57357
v -4.361627 -0.765083 -16.57357
v -4.361627 -0.765083 -5.817555
v -4.361627 3.448777 -5.817555
v -4.361627 3.448777 -16.57357
v -6.876588 3.448777 -16.57357
v -6.876588 -0.765083 -16.57357
v -4.361627 -0.765083 -16.57357
v -4.361627 -0.765083 -5.817555
v -4.00046 -0.765083 -5.817555
v -4.00046 3.448777 -5.817555
v -4.361627 3.448777 -5.817555
v -4.00046 -0.765083 -5.817555
v -4.00046 -0.765083 -4.451129
v -4.00046 3.448777 -4.451129
v -4.00046 3.448777 -5.817555
v -4.00046 -0.765083 -4.451129
v -4.357799 -0.765083 -4.451129
v -4.357799 3.448777 -4.451129
v -4.00046 3.448777 -4.451129
v -4.357799 -0.765083 -4.451129
v -4.357799 -0.765083 4.88287
v -4.357799 3.448777 4.88287
v -4.357799 3.448777 -4.451129
v -4.357799 -0.765083 4.88287
v -3.998851 -0.765083 4.88287
v -3.998851 3.448777 4.88287
v -4.357799 3.448777 4.88287
v -3.998851 -0.765083 4.88287
v -3.998851 -0.765083 6.252897
v -3.998851 3.448777 6.252897
v -3.998851 3.448777 4.88287
v -3.998851 -0.765083 6.252897
v -4.355392 -0.765083 6.252897
v -4.355392 3.448777 6.252897
v -3.998851 3.448777 6.252897
v -4.355392 -0.765083 6.252897
v -4.355392 -0.765083 16.57681
v -4.355392 3.448777 16.57681
v -4.355392 3.448777 6.252897
v -4.355392 -0.765083 16.57681
v -6.088425 -0.765083 16.57681
v -6.088425 3.448777 16.57681
v -4.355392 3.448777 16.57681
v -4.375048 -0.63341 -5.534365
v -4.375048 -0.7076874 -5.57835
v -3.848456 -0.7076874 -5.57835
v -3.848456 -0.63341 -5.534365
v -4.375048 -0.63341 -4.735566
v -4.375048 -0.63341 -5.534365
v -3.848456 -0.63341 -5.534365
v -3.848456 -0.63341 -4.735566
v -4.375048 -0.7076874 -4.691592
v -4.375048 -0.63341 -4.735566
v -3.848456 -0.63341 -4.735566
v -3.848456 -0.7076874 -4.691592
v -4.375048 -0.63341 -4.735566
v -4.375048 -0.7076874 -4.691592
v -4.375048 -0.7076874 -5.57835
v -4.375048 -0.63341 -5.534365
v -3.848456 -0.63341 -5.534365
v -3.848456 -0.7076874 -5.57835
v -3.848456 -0.7076874 -4.691592
v -3.848456 -0.63341 -4.735566
v 3.84822 -0.63341 -5.534365
v 3.84822 -0.7076874 -5.57835
v 4.374812 -0.7076874 -5.57835
v 4.374812 -0.63341 -5.534365
v 3.84822 -0.63341 -4.735566
v 3.84822 -0.63341 -5.534365
v 4.374812 -0.63341 -5.534365
v 4.374813 -0.63341 -4.735566
v 3.84822 -0.7076874 -4.691592
v 3.84822 -0.63341 -4.735566
v 4.374813 -0.63341 -4.735566
v 4.374813 -0.7076874 -4.691592
v 3.84822 -0.63341 -4.735566
v 3.84822 -0.7076874 -4.691592
v 3.84822 -0.7076874 -5.57835
v 3.84822 -0.63341 -5.534365
v 4.374812 -0.63341 -5.534365
v 4.374812 -0.7076874 -5.57835
v 4.374813 -0.7076874 -4.691592
v 4.374813 -0.63341 -4.735566
v -4.375048 -0.63341 5.147412
v -4.375048 -0.7076874 5.103437
v -3.848456 -0.7076874 5.103437
v -3.848456 -0.63341 5.147412
v -4.375048 -0.63341 5.946211
v -4.375048 -0.63341 5.147412
v -3.848456 -0.63341 5.147412
v -3.848456 -0.63341 5.946211
v -4.375048 -0.7076874 5.990195
v -4.375048 -0.63341 5.946211
v -3.848456 -0.63341 5.946211
v -3.848456 -0.7076874 5.990195
v -4.375048 -0.63341 5.946211
v -4.375048 -0.7076874 5.990195
v -4.375048 -0.7076874 5.103437
v -4.375048 -0.63341 5.147412
v -3.848456 -0.63341 5.147412
v -3.848456 -0.7076874 5.103437
v -3.848456 -0.7076874 5.990195
v -3.848456 -0.63341 5.946211
v -3.854201 -0.665246 5.183125
v -3.854201 -0.7085858 5.15248
v 3.865295 -0.7085858 5.15248
v 3.865294 -0.665246 5.183125
v 3.865295 -0.665246 5.907929
v -3.854192 -0.665246 5.907949
v -3.854201 -0.665246 5.183125
v 3.865294 -0.665246 5.183125
v 3.865295 -0.665246 5.907929
v 3.865285 -0.7085858 5.938593
v -3.854201 -0.7085858 5.938593
v -3.854192 -0.665246 5.907949
v -3.854201 -0.665246 -5.498662
v -3.854201 -0.7085858 -5.529306
v 3.855686 -0.7085858 -5.529306
v 3.855685 -0.665246 -5.498662
v 3.855687 -0.665246 -4.773857
v -3.854192 -0.665246 -4.773838
v -3.854201 -0.665246 -5.498662
v 3.855685 -0.665246 -5.498662
v 3.855687 -0.665246 -4.773857
v 3.855676 -0.7085858 -4.743193
v -3.854201 -0.7085858 -4.743193
v -3.854192 -0.665246 -4.773838
v -4.373173 -0.6451923 16.56471
v -4.373173 -0.6451923 -16.56859
v -3.909736 -0.6451923 -16.56859
v -3.909736 -0.6451923 16.56471
v -3.88037 -0.7034833 16.56471
v -3.909736 -0.6451923 16.56471
v -3.909736 -0.6451923 -16.56859
v -3.88037 -0.7034833 -16.56859
v -3.903996 -0.6963055 16.55898
v -3.903996 -0.6963055 -16.56426
v 3.895204 -0.6963055 -16.56426
v 3.895204 -0.6963055 16.55898
v 4.371905 -0.6451923 16.56471
v 3.908468 -0.6451923 16.56471
v 3.908468 -0.6451923 -16.56859
v 4.371905 -0.6451923 -16.56859
v 3.879103 -0.7034833 16.56471
v 3.879103 -0.7034833 -16.56859
v 3.908468 -0.6451923 -16.56859
v 3.908468 -0.6451923 16.56471
v 3.857829 -0.63341 5.147412
v 3.857829 -0.7076874 5.103437
v 4.384421 -0.7076874 5.103437
v 4.384421 -0.63341 5.147412
v 3.857829 -0.63341 5.946211
v 3.857829 -0.63341 5.147412
v 4.384421 -0.63341 5.147412
v 4.384421 -0.63341 5.946211
v 3.857829 -0.7076874 5.990195
v 3.857829 -0.63341 5.946211
v 4.384421 -0.63341 5.946211
v 4.384421 -0.7076874 5.990195
v 3.857829 -0.63341 5.946211
v 3.857829 -0.7076874 5.990195
v 3.857829 -0.7076874 5.103437
v 3.857829 -0.63341 5.147412
v 4.384421 -0.63341 5.147412
v 4.384421 -0.7076874 5.103437
v 4.384421 -0.7076874 5.990195
v 4.384421 -0.63341 5.946211
v 4.360341 3.448777 -16.57357
v 4.360341 3.448777 -5.817555
v 4.360341 -0.765083 -5.817555
v 4.360341 -0.765083 -16.57357
v 4.360341 3.448777 -16.57357
v 4.360341 -0.765083 -16.57357
v 6.875302 -0.765083 -16.57357
v 6.875302 3.448777 -16.57357
v 4.360341 -0.765083 -5.817555
v 4.360341 3.448777 -5.817555
v 3.999174 3.448777 -5.817555
v 3.999174 -0.765083 -5.817555
v 3.999174 -0.765083 -5.817555
v 3.999174 3.448777 -5.817555
v 3.999174 3.448777 -4.451129
v 3.999174 -0.765083 -4.451129
v 3.999174 -0.765083 -4.451129
v 3.999174 3.448777 -4.451129
v 4.356513 3.448777 -4.451129
v 4.356513 -0.765083 -4.451129
v 4.356513 -0.765083 -4.451129
v 4.356513 3.448777 -4.451129
v 4.356513 3.448777 4.88287
v 4.356513 -0.765083 4.88287
v 4.356513 -0.765083 4.88287
v 4.356513 3.448777 4.88287
v 3.997565 3.448777 4.88287
v 3.997565 -0.765083 4.88287
v 3.997565 -0.765083 4.88287
v 3.997565 3.448777 4.88287
v 3.997565 3.448777 6.252897
v 3.997565 -0.765083 6.252897
v 3.997565 -0.765083 6.252897
v 3.997565 3.448777 6.252897
v 4.354106 3.448777 6.252897
v 4.354106 -0.765083 6.252897
v 4.354106 -0.765083 6.252897
v 4.354106 3.448777 6.252897
v 4.354106 3.448777 16.57681
v 4.354106 -0.765083 16.57681
v 4.354106 -0.765083 16.57681
v 4.354106 3.448777 16.57681
v 6.08714 3.448777 16.57681
v 6.08714 -0.765083 16.57681
vt 0 0
vt 0 1
vt 1 1
vt 1 0
vt 0 0
vt 0 1
vt 1 1
vt 1 0
vt 0 0
vt 0 1
vt 1 1
vt 1 0
vt 0 0
vt 0 1
vt 1 1
vt 1 0
vt 0 0
vt 0 1
vt 1 1
vt 1 0
vt 0 0
vt 0 1
vt 1 1
vt 1 0
vt 0 0
vt 0 1
vt 1 1
vt 1 0
vt 0 0
vt 0 1
vt 1 1
vt 1 0
vt 0 0
vt 0 1
vt 1 1
vt 1 0
vt 0 0
vt 0 1
vt 1 1
vt 1 0
vt 0 0
vt 0 1
vt 1 1
vt 1 0
vt 0.7055544 0.006034426
vt 0.6999331 0.008115167
vt 0.6999314 0.1162921
vt 0.7055535 0.1183735
vt 0.8744243 0.00603449
vt 0.7055544 0.006034426
vt 0.7055535 0.1183735
vt 0.8744228 0.1183736
vt 0.8802213 0.00811618
vt 0.8744243 0.00603449
vt 0.8744228 0.1183736
vt 0.8802182 0.1162931
vt 0.8744243 0.00603449
vt 0.8721144 0.002246876
vt 0.7078631 0.002246757
vt 0.7055544 0.006034426
vt 0.7055535 0.1183735
vt 0.7078631 0.1226651
vt 0.8721145 0.1226651
vt 0.8744228 0.1183736
vt 0.7055544 0.006034426
vt 0.6999331 0.008115167
vt 0.6999314 0.1162921
vt 0.7055535 0.1183735
vt 0.8744243 0.00603449
vt 0.7055544 0.006034426
vt 0.7055535 0.1183735
vt 0.8744228 0.1183736
vt 0.8802213 0.00811618
vt 0.8744243 0.00603449
vt 0.8744228 0.1183736
vt 0.8802182 0.1162931
vt 0.8744243 0.00603449
vt 0.8721144 0.002246876
vt 0.7078631 0.002246757
vt 0.7055544 0.006034426
vt 0.7055535 0.1183735
vt 0.7078631 0.1226651
vt 0.8721145 0.1226651
vt 0.8744228 0.1183736
vt 0.7055544 0.006034426
vt 0.6999331 0.008115167
vt 0.6999314 0.1162921
vt 0.7055535 0.1183735
vt 0.8744243 0.00603449
vt 0.7055544 0.006034426
vt 0.7055535 0.1183735
vt 0.8744228 0.1183736
vt 0.8802213 0.00811618
vt 0.8744243 0.00603449
vt 0.8744228 0.1183736
vt 0.8802182 0.1162931
vt 0.8744243 0.00603449
vt 0.8721144 0.002246876
vt 0.7078631 0.002246757
vt 0.7055544 0.006034426
vt 0.7055535 0.1183735
vt 0.7078631 0.1226651
vt 0.8721145 0.1226651
vt 0.8744228 0.1183736
vt 0.3171968 0.6123732
vt 0.3171967 0.6196691
vt 0.919024 0.6196692
vt 0.919024 0.6123732
vt 0.919024 0.5620106
vt 0.3171967 0.5620106
vt 0.3171968 0.6123732
vt 0.919024 0.6123732
vt 0.919024 0.5620106
vt 0.919024 0.5522281
vt 0.3171967 0.5522281
vt 0.3171967 0.5620106
vt 0.3171968 0.6123732
vt 0.3171967 0.6196691
vt 0.919024 0.6196692
vt 0.919024 0.6123732
vt 0.919024 0.5620106
vt 0.3171967 0.5620106
vt 0.3171968 0.6123732
vt 0.919024 0.6123732
vt 0.919024 0.5620106
vt 0.919024 0.5522281
vt 0.3171967 0.5522281
vt 0.3171967 0.5620106
vt -2.298561 2.612623
vt 2.967485 2.612623
vt 2.967485 2.562362
vt -2.298561 2.562362
vt -2.298561 2.547086
vt -2.298561 2.562362
vt 2.967485 2.562362
vt 2.967485 2.547086
vt 0.2087505 -3.763352
vt 0.208851 1.457814
vt 1.059446 1.457782
vt 1.059346 -3.76336
vt -2.298561 2.612623
vt -2.298561 2.562362
vt 2.967485 2.562362
vt 2.967485 2.612623
vt -2.298561 2.547086
vt 2.967485 2.547086
vt 2.967485 2.562362
vt -2.298561 2.562362
vt 0.7055544 0.006034426
vt 0.6999331 0.008115167
vt 0.6999314 0.1162921
vt 0.7055535 0.1183735
vt 0.8744243 0.00603449
vt 0.7055544 0.006034426
vt 0.7055535 0.1183735
vt 0.8744228 0.1183736
vt 0.8802213 0.00811618
vt 0.8744243 0.00603449
vt 0.8744228 0.1183736
vt 0.8802182 0.1162931
vt 0.8744243 0.00603449
vt 0.8721144 0.002246876
vt 0.7078631 0.002246757
vt 0.7055544 0.006034426
vt 0.7055535 0.1183735
vt 0.7078631 0.1226651
vt 0.8721145 0.1226651
vt 0.8744228 0.1183736
vt 0 0
vt 1 0
vt 1 1
vt 0 1
vt 0 0
vt 1 0
vt 1 1
vt 0 1
vt 0 0
vt 1 0
vt 1 1
vt 0 1
vt 0 0
vt 1 0
vt 1 1
vt 0 1
vt 0 0
vt 1 0
vt 1 1
vt 0 1
vt 0 0
vt 1 0
vt 1 1
vt 0 1
vt 0 0
vt 1 0
vt 1 1
vt 0 1
vt 0 0
vt 1 0
vt 1 1
vt 0 1
vt 0 0
vt 1 0
vt 1 1
vt 0 1
vt 0 0
vt 1 0
vt 1 1
vt 0 1
vt 0 0
vt 1 0
vt 1 1
vt 0 1
vn 1 0 0
vn 1 0 0
vn 1 0 0
vn 1 0 0
vn 0 0 -1
vn 0 0 -1
vn 0 0 -1
vn 0 0 -1
vn 0 0 -1
vn 0 0 -1
vn 0 0 -1
vn 0 0 -1
vn 1 0 0
vn 1 0 0
vn 1 0 0
vn 1 0 0
vn 0 0 1
vn 0 0 1
vn 0 0 1
vn 0 0 1
vn 1 0 0
vn 1 0 0
vn 1 0 0
vn 1 0 0
vn 0 0 -1
vn 0 0 -1
vn 0 0 -1
vn 0 0 -1
vn 1 0 0
vn 1 0 0
vn 1 0 0
vn 1 0 0
vn 0 0 1
vn 0 0 1
vn 0 0 1
vn 0 0 1
vn 1 0 0
vn 1 0 0
vn 1 0 0
vn 1 0 0
vn 0 0 1
vn 0 0 1
vn 0 0 1
vn 0 0 1
vn 0 0.5094876 -0.8604781
vn 0 0.5094876 -0.8604781
vn 0 0.5094876 -0.8604781
vn 0 0.5094876 -0.8604781
vn 0 1 0
vn 0 1 0
vn 0 1 0
vn 0 1 0
vn 0 0.5094876 0.8604781
vn 0 0.5094876 0.8604781
vn 0 0.5094876 0.8604781
vn 0 0.5094876 0.8604781
vn -1 -1.950023E-07 0
vn -1 -1.950023E-07 0
vn -1 -1.950023E-07 0
vn -1 -1.950023E-07 0
vn 1 -9.750116E-07 -3.621064E-07
vn 1 -9.750116E-07 -3.621064E-07
vn 1 -9.750116E-07 -3.621064E-07
vn 1 -9.750116E-07 -3.621064E-07
vn 0 0.5094876 -0.8604781
vn 0 0.5094876 -0.8604781
vn 0 0.5094876 -0.8604781
vn 0 0.5094876 -0.8604781
vn 0 1 0
vn 0 1 0
vn 0 1 0
vn 0 1 0
vn 0 0.5094876 0.8604781
vn 0 0.5094876 0.8604781
vn 0 0.5094876 0.8604781
vn 0 0.5094876 0.8604781
vn -1 3.900046E-07 0
vn -1 3.900046E-07 0
vn -1 3.900046E-07 0
vn -1 3.900046E-07 0
vn 1 -1.560019E-06 -3.621064E-07
vn 1 -1.560019E-06 -3.621064E-07
vn 1 -1.560019E-06 -3.621064E-07
vn 1 -1.560019E-06 -3.621064E-07
vn 0 0.5094876 -0.8604781
vn 0 0.5094876 -0.8604781
vn 0 0.5094876 -0.8604781
vn 0 0.5094876 -0.8604781
vn 0 1 0
vn 0 1 0
vn 0 1 0
vn 0 1 0
vn 0 0.5094876 0.8604781
vn 0 0.5094876 0.8604781
vn 0 0.5094876 0.8604781
vn 0 0.5094876 0.8604781
vn -1 -1.950023E-07 0
vn -1 -1.950023E-07 0
vn -1 -1.950023E-07 0
vn -1 -1.950023E-07 0
vn 1 -9.750116E-07 -3.621064E-07
vn 1 -9.750116E-07 -3.621064E-07
vn 1 -9.750116E-07 -3.621064E-07
vn 1 -9.750116E-07 -3.621064E-07
vn 0 0.5773306 -0.8165104
vn 0 0.5773306 -0.8165104
vn 0 0.5773306 -0.8165104
vn 0 0.5773306 -0.8165104
vn 0 1 0
vn 0 1 0
vn 0 1 0
vn 0 1 0
vn 1.353383E-06 0.5774564 0.8164215
vn 1.353383E-06 0.5774564 0.8164216
vn 1.353383E-06 0.5774564 0.8164215
vn 1.353383E-06 0.5774564 0.8164215
vn 0 0.5773306 -0.8165104
vn 0 0.5773306 -0.8165104
vn 0 0.5773306 -0.8165104
vn 0 0.5773306 -0.8165104
vn 0 1 0
vn 0 1 0
vn 0 1 0
vn 0 1 0
vn 1.353383E-06 0.5774564 0.8164215
vn 1.353383E-06 0.5774564 0.8164216
vn 1.353383E-06 0.5774564 0.8164215
vn 1.353383E-06 0.5774564 0.8164215
vn 0 1 0
vn 0 1 0
vn 0 1 0
vn 0 1 0
vn 0.8930756 0.4499065 0
vn 0.8930756 0.4499065 0
vn 0.8930756 0.4499065 0
vn 0.8930756 0.4499065 0
vn 0 1 0
vn 0 1 0
vn 0 1 0
vn 0 1 0
vn 0 1 0
vn 0 1 0
vn 0 1 0
vn 0 1 0
vn -0.8930756 0.4499065 0
vn -0.8930756 0.4499065 0
vn -0.8930756 0.4499065 0
vn -0.8930756 0.4499065 0
vn 0 0.5094876 -0.8604781
vn 0 0.5094876 -0.8604781
vn 0 0.5094876 -0.8604781
vn 0 0.5094876 -0.8604781
vn 0 1 0
vn 0 1 0
vn 0 1 0
vn 0 1 0
vn 0 0.5094876 0.8604781
vn 0 0.5094876 0.8604781
vn 0 0.5094876 0.8604781
vn 0 0.5094876 0.8604781
vn -1 3.900046E-07 0
vn -1 3.900046E-07 0
vn -1 3.900046E-07 0
vn -1 3.900046E-07 0
vn 1 -1.560019E-06 -3.621064E-07
vn 1 -1.560019E-06 -3.621064E-07
vn 1 -1.560019E-06 -3.621064E-07
vn 1 -1.560019E-06 -3.621064E-07
vn -1 0 0
vn -1 0 0
vn -1 0 0
vn -1 0 0
vn 0 0 -1
vn 0 0 -1
vn 0 0 -1
vn 0 0 -1
vn 0 0 -1
vn 0 0 -1
vn 0 0 -1
vn 0 0 -1
vn -1 0 0
vn -1 0 0
vn -1 0 0
vn -1 0 0
vn 0 0 1
vn 0 0 1
vn 0 0 1
vn 0 0 1
vn -1 0 0
vn -1 0 0
vn -1 0 0
vn -1 0 0
vn 0 0 -1
vn 0 0 -1
vn 0 0 -1
vn 0 0 -1
vn -1 0 0
vn -1 0 0
vn -1 0 0
vn -1 0 0
vn 0 0 1
vn 0 0 1
vn 0 0 1
vn 0 0 1
vn -1 0 0
vn -1 0 0
vn -1 0 0
vn -1 0 0
vn 0 0 1
vn 0 0 1
vn 0 0 1
vn 0 0 1
g Chap01_CloseView_MAZ_M301_L1_Ground_Collider_0
f 3/3/3 2/2/2 1/1/1
f 4/4/4 3/3/3 1/1/1
f 7/7/7 6/6/6 5/5/5
f 8/8/8 7/7/7 5/5/5
f 11/11/11 10/10/10 9/9/9
f 12/12/12 11/11/11 9/9/9
f 15/15/15 14/14/14 13/13/13
f 16/16/16 15/15/15 13/13/13
f 19/19/19 18/18/18 17/17/17
f 20/20/20 19/19/19 17/17/17
f 23/23/23 22/22/22 21/21/21
f 24/24/24 23/23/23 21/21/21
f 27/27/27 26/26/26 25/25/25
f 28/28/28 27/27/27 25/25/25
f 31/31/31 30/30/30 29/29/29
f 32/32/32 31/31/31 29/29/29
f 35/35/35 34/34/34 33/33/33
f 36/36/36 35/35/35 33/33/33
f 39/39/39 38/38/38 37/37/37
f 40/40/40 39/39/39 37/37/37
f 43/43/43 42/42/42 41/41/41
f 44/44/44 43/43/43 41/41/41
f 47/47/47 46/46/46 45/45/45
f 48/48/48 47/47/47 45/45/45
f 51/51/51 50/50/50 49/49/49
f 52/52/52 51/51/51 49/49/49
f 55/55/55 54/54/54 53/53/53
f 56/56/56 55/55/55 53/53/53
f 59/59/59 58/58/58 57/57/57
f 60/60/60 59/59/59 57/57/57
f 63/63/63 62/62/62 61/61/61
f 64/64/64 63/63/63 61/61/61
f 67/67/67 66/66/66 65/65/65
f 68/68/68 67/67/67 65/65/65
f 71/71/71 70/70/70 69/69/69
f 72/72/72 71/71/71 69/69/69
f 75/75/75 74/74/74 73/73/73
f 76/76/76 75/75/75 73/73/73
f 79/79/79 78/78/78 77/77/77
f 80/80/80 79/79/79 77/77/77
f 83/83/83 82/82/82 81/81/81
f 84/84/84 83/83/83 81/81/81
f 87/87/87 86/86/86 85/85/85
f 88/88/88 87/87/87 85/85/85
f 91/91/91 90/90/90 89/89/89
f 92/92/92 91/91/91 89/89/89
f 95/95/95 94/94/94 93/93/93
f 96/96/96 95/95/95 93/93/93
f 99/99/99 98/98/98 97/97/97
f 100/100/100 99/99/99 97/97/97
f 103/103/103 102/102/102 101/101/101
f 104/104/104 103/103/103 101/101/101
f 107/107/107 106/106/106 105/105/105
f 108/108/108 107/107/107 105/105/105
f 111/111/111 110/110/110 109/109/109
f 112/112/112 111/111/111 109/109/109
f 115/115/115 114/114/114 113/113/113
f 116/116/116 115/115/115 113/113/113
f 119/119/119 118/118/118 117/117/117
f 120/120/120 119/119/119 117/117/117
f 123/123/123 122/122/122 121/121/121
f 124/124/124 123/123/123 121/121/121
f 127/127/127 126/126/126 125/125/125
f 128/128/128 127/127/127 125/125/125
f 131/131/131 130/130/130 129/129/129
f 132/132/132 131/131/131 129/129/129
f 135/135/135 134/134/134 133/133/133
f 136/136/136 135/135/135 133/133/133
f 139/139/139 138/138/138 137/137/137
f 140/140/140 139/139/139 137/137/137
f 143/143/143 142/142/142 141/141/141
f 144/144/144 143/143/143 141/141/141
f 147/147/147 146/146/146 145/145/145
f 148/148/148 147/147/147 145/145/145
f 151/151/151 150/150/150 149/149/149
f 152/152/152 151/151/151 149/149/149
f 155/155/155 154/154/154 153/153/153
f 156/156/156 155/155/155 153/153/153
f 159/159/159 158/158/158 157/157/157
f 160/160/160 159/159/159 157/157/157
f 163/163/163 162/162/162 161/161/161
f 164/164/164 163/163/163 161/161/161
f 167/167/167 166/166/166 165/165/165
f 168/168/168 167/167/167 165/165/165
f 171/171/171 170/170/170 169/169/169
f 172/172/172 171/171/171 169/169/169
f 175/175/175 174/174/174 173/173/173
f 176/176/176 175/175/175 173/173/173
f 179/179/179 178/178/178 177/177/177
f 180/180/180 179/179/179 177/177/177
f 183/183/183 182/182/182 181/181/181
f 184/184/184 183/183/183 181/181/181
f 187/187/187 186/186/186 185/185/185
f 188/188/188 187/187/187 185/185/185
f 191/191/191 190/190/190 189/189/189
f 192/192/192 191/191/191 189/189/189
f 195/195/195 194/194/194 193/193/193
f 196/196/196 195/195/195 193/193/193
f 199/199/199 198/198/198 197/197/197
f 200/200/200 199/199/199 197/197/197
f 203/203/203 202/202/202 201/201/201
f 204/204/204 203/203/203 201/201/201
f 207/207/207 206/206/206 205/205/205
f 208/208/208 207/207/207 205/205/205
f 211/211/211 210/210/210 209/209/209
f 212/212/212 211/211/211 209/209/209
