g Chap01_Prop_Car_01_Collider
v 1.629592 -2.913938E-07 0.4109788
v 1.276236 -2.913938E-07 0.7378432
v 1.629592 1.58 0.4109788
v 1.276236 1.58 0.7378432
v 1.276236 1.58 -0.7378432
v 1.629592 1.58 -0.4109788
v 1.629592 -2.913938E-07 -0.4109788
v 1.276236 -2.913938E-07 -0.7378432
v -1.552185 -2.913938E-07 0.559555
v -1.408261 -2.913938E-07 0.7378432
v -1.552185 1.58 0.559555
v -1.408261 1.58 0.7378432
v -1.552185 1.58 -0.559555
v -1.408261 1.58 -0.7378432
v -1.552185 -2.913938E-07 -0.559555
v -1.408261 -2.913938E-07 -0.7378432
v -1.629592 1.58 0
v -1.629592 -2.913938E-07 0
v 1.276236 -2.913938E-07 0.7378432
v 1.276236 1.58 0.7378432
v 1.629592 1.58 0.4109788
v 1.629592 -2.913938E-07 0.4109788
v 1.276236 1.58 -0.7378432
v 1.276236 -2.913938E-07 -0.7378432
v 1.629592 -2.913938E-07 -0.4109788
v 1.629592 1.58 -0.4109788
v -1.552185 1.58 0.559555
v -1.629592 1.58 0
v 1.276236 -2.913938E-07 0.7378432
v 1.629592 -2.913938E-07 0.4109788
v 1.629592 -2.913938E-07 -0.4109788
v 1.276236 -2.913938E-07 -0.7378432
v -1.552185 -2.913938E-07 0.559555
v -1.552185 1.58 0.559555
v -1.408261 1.58 0.7378432
v -1.408261 -2.913938E-07 0.7378432
v -1.552185 1.58 -0.559555
v -1.408261 -2.913938E-07 -0.7378432
v -1.408261 1.58 -0.7378432
v -1.552185 1.58 -0.559555
v -1.629592 1.58 0
v -1.629592 -2.913938E-07 0
v -1.552185 -2.913938E-07 -0.559555
v -1.408261 -2.913938E-07 0.7378432
v -1.408261 -2.913938E-07 -0.7378432
v 1.276236 1.58 -0.7378432
v 1.629592 1.58 -0.4109788
v 1.629592 1.58 0.4109788
v 1.276236 1.58 0.7378432
v -1.552185 -2.913938E-07 -0.559555
v -1.552185 -2.913938E-07 0.559555
v -1.408261 1.58 -0.7378432
v -1.408261 1.58 0.7378432
v -1.629592 -2.913938E-07 0
vt 0.6874937 1.117587E-08
vt 0.5967042 -5.587935E-09
vt 0.6874937 0.25
vt 0.5967042 0.25
vt 0.5967042 0.5
vt 0.8125063 0.25
vt 0.8125063 3.72529E-09
vt 0.5967042 0.7499999
vt 0.3375038 5.572469E-09
vt 0.3918867 1.340486E-08
vt 0.3375038 0.25
vt 0.3918868 0.25
vt 0.375 0.4625038
vt 0.3918867 0.5
vt 0.375 0.7874963
vt 0.3918868 0.75
vt 0.25 0.25
vt 0.25 5.469174E-09
vt 0.5967042 -5.587935E-09
vt 0.5967042 0.25
vt 0.6874937 0.25
vt 0.6874937 1.117587E-08
vt 0.5967042 0.5
vt 0.5967042 0.7499999
vt 0.625 0.8124937
vt 0.625 0.4375063
vt 0.375 0.2874963
vt 0.375 0.375
vt 0.5967042 1
vt 0.625 0.9375063
vt 0.625 0.8124937
vt 0.5967042 0.7499999
vt 0.3375038 5.572469E-09
vt 0.3375038 0.25
vt 0.3918868 0.25
vt 0.3918867 1.340486E-08
vt 0.375 0.4625038
vt 0.3918868 0.75
vt 0.3918867 0.5
vt 0.1624963 0.25
vt 0.25 0.25
vt 0.25 5.469174E-09
vt 0.1624963 5.365878E-09
vt 0.3918868 1
vt 0.3918868 0.75
vt 0.5967042 0.5
vt 0.625 0.4375063
vt 0.625 0.3124937
vt 0.5967042 0.25
vt 0.375 0.7874963
vt 0.375 0.9625037
vt 0.3918867 0.5
vt 0.3918868 0.25
vt 0.375 0.875
vn 1 0 0
vn 0 0 1
vn 1 0 0
vn 0 0 1
vn 0 0 -1
vn 1 0 0
vn 1 0 0
vn 0 0 -1
vn -0.9905666 0 0.1370324
vn 0 0 1
vn -0.9905666 0 0.1370324
vn 0 0 1
vn 0 1 0
vn 0 0 -1
vn -0.7781087 0 -0.6281297
vn 0 0 -1
vn -0.9905666 0 0.1370324
vn -0.9905666 0 0.1370324
vn 0.6790529 0 0.7340893
vn 0.6790529 0 0.7340893
vn 0.6790529 0 0.7340893
vn 0.6790529 0 0.7340893
vn 0.6790529 0 -0.7340893
vn 0.6790529 0 -0.7340893
vn 0.6790529 0 -0.7340893
vn 0.6790529 0 -0.7340893
vn 0 1 0
vn 0 1 0
vn 0 -1 0
vn 0 -1 0
vn 0 -1 0
vn 0 -1 0
vn -0.7781087 0 0.6281297
vn -0.7781087 0 0.6281297
vn -0.7781087 0 0.6281297
vn -0.7781087 0 0.6281297
vn -0.7781087 0 -0.6281297
vn -0.7781087 0 -0.6281297
vn -0.7781087 0 -0.6281297
vn -0.9905666 0 -0.1370324
vn -0.9905666 0 -0.1370324
vn -0.9905666 0 -0.1370324
vn -0.9905666 0 -0.1370324
vn 0 -1 0
vn 0 -1 0
vn 0 1 0
vn 0 1 0
vn 0 1 0
vn 0 1 0
vn 0 -1 0
vn 0 -1 0
vn 0 1 0
vn 0 1 0
vn 0 -1 0
g Chap01_Prop_Car_01_Collider_0
f 2/2/2 4/4/4 12/12/12
f 10/10/10 2/2/2 12/12/12
f 5/5/5 8/8/8 16/16/16
f 14/14/14 5/5/5 16/16/16
f 7/7/7 6/6/6 3/3/3
f 1/1/1 7/7/7 3/3/3
f 9/9/9 11/11/11 17/17/17
f 18/18/18 9/9/9 17/17/17
f 21/21/21 20/20/20 19/19/19
f 22/22/22 21/21/21 19/19/19
f 25/25/25 24/24/24 23/23/23
f 26/26/26 25/25/25 23/23/23
f 13/13/13 28/28/28 27/27/27
f 31/31/31 30/30/30 29/29/29
f 32/32/32 31/31/31 29/29/29
f 35/35/35 34/34/34 33/33/33
f 36/36/36 35/35/35 33/33/33
f 38/38/38 15/15/15 37/37/37
f 39/39/39 38/38/38 37/37/37
f 42/42/42 41/41/41 40/40/40
f 43/43/43 42/42/42 40/40/40
f 32/32/32 29/29/29 44/44/44
f 45/45/45 32/32/32 44/44/44
f 48/48/48 47/47/47 46/46/46
f 49/49/49 48/48/48 46/46/46
f 44/44/44 51/51/51 50/50/50
f 45/45/45 44/44/44 50/50/50
f 49/49/49 46/46/46 52/52/52
f 53/53/53 49/49/49 52/52/52
f 51/51/51 54/54/54 50/50/50
f 52/52/52 13/13/13 27/27/27
f 53/53/53 52/52/52 27/27/27
