g Chap01_BD_statir01
v 0 -0.004166679 0.01666667
v 0 -0.004166641 0.01833333
v 0 0 0
v 0 -0.004166641 0.01833333
v 0 0 0.01833333
v 0 0 0
v -0.08000007 1.144409E-07 -1.525879E-07
v -0.08000007 -0.004166527 0.01833318
v -0.08000007 -0.004166565 0.01666651
v -0.08000007 1.144409E-07 -1.525879E-07
v -0.08000007 1.144409E-07 0.01833318
v -0.08000007 -0.004166527 0.01833318
v 0 -0.008333321 0.01666667
v 0 -0.004166679 0.01666667
v 0 0 0
v 0 -0.008333321 0.015
v 0 -0.01249996 0.015
v 0 -0.0125 0.01333333
v 0 -0.01666664 0.01333333
v 0 -0.01666664 0.01166667
v 0 -0.02083332 0.01166667
v 0 -0.02083332 0.01
v 0 -0.02499996 0.01
v 0 -0.02499996 0.008333333
v 0 -0.0291666 0.008333333
v 0 -0.02916664 0.006666667
v 0 -0.03333328 0.006666667
v 0 -0.03333328 0.005
v 0 -0.03749996 0.005
v 0 -0.03749996 0.003333333
v 0 -0.0416666 0.003333333
v 0 -0.0416666 0.001666667
v 0 -0.04583324 0.001666667
v 0 -0.04583328 0
v 0 -0.04583328 -0.01000008
v 0 0 -0.01000008
v -0.08000015 -0.03749985 0.003333181
v -0.08000015 -0.04166649 0.003333181
v -0.08000015 -0.04166649 0.001666514
v -0.08000007 1.144409E-07 -1.525879E-07
v -0.08000015 -0.03749981 0.004999847
v -0.08000007 -0.03333317 0.004999847
v -0.08000015 -0.04583317 -1.525879E-07
v -0.08000015 -0.04583317 0.001666514
v -0.08000007 -0.02916653 0.006666514
v -0.08000015 -0.03333317 0.006666514
v -0.08000007 -0.02499985 0.00833318
v -0.08000015 -0.02916653 0.00833318
v -0.08000007 -0.02083321 0.009999847
v -0.08000007 -0.02499985 0.009999847
v -0.08000007 -0.01666653 0.01166651
v -0.08000007 -0.02083321 0.01166651
v -0.08000007 -0.01249989 0.01333318
v -0.08000007 -0.01666653 0.01333318
v -0.08000007 -0.008333206 0.01499985
v -0.08000007 -0.01249989 0.01499985
v -0.08000007 -0.004166565 0.01666651
v -0.08000007 -0.008333206 0.01666651
v -0.08000015 -0.04583317 -1.525879E-07
v -0.08000015 -0.04583317 0.001666514
v 0 -0.04583324 0.001666667
v 0 -0.04583328 0
v -0.08000015 -0.04583317 0.001666514
v -0.08000015 -0.04166649 0.001666514
v 0 -0.0416666 0.001666667
v 0 -0.04583324 0.001666667
v -0.08000015 -0.04166649 0.001666514
v -0.08000015 -0.04166649 0.003333181
v 0 -0.0416666 0.003333333
v 0 -0.0416666 0.001666667
v -0.08000015 -0.04166649 0.003333181
v -0.08000015 -0.03749985 0.003333181
v 0 -0.03749996 0.003333333
v 0 -0.0416666 0.003333333
v -0.08000015 -0.03749985 0.003333181
v -0.08000015 -0.03749981 0.004999847
v 0 -0.03749996 0.005
v 0 -0.03749996 0.003333333
v -0.08000015 -0.03749981 0.004999847
v -0.08000007 -0.03333317 0.004999847
v 0 -0.03333328 0.005
v 0 -0.03749996 0.005
v -0.08000007 -0.03333317 0.004999847
v -0.08000015 -0.03333317 0.006666514
v 0 -0.03333328 0.006666667
v 0 -0.03333328 0.005
v -0.08000015 -0.03333317 0.006666514
v -0.08000007 -0.02916653 0.006666514
v 0 -0.02916664 0.006666667
v 0 -0.03333328 0.006666667
v -0.08000007 -0.02916653 0.006666514
v -0.08000015 -0.02916653 0.00833318
v 0 -0.0291666 0.008333333
v 0 -0.02916664 0.006666667
v -0.08000015 -0.02916653 0.00833318
v -0.08000007 -0.02499985 0.00833318
v 0 -0.02499996 0.008333333
v 0 -0.0291666 0.008333333
v -0.08000007 -0.02499985 0.00833318
v -0.08000007 -0.02499985 0.009999847
v 0 -0.02499996 0.01
v 0 -0.02499996 0.008333333
v -0.08000007 -0.02499985 0.009999847
v -0.08000007 -0.02083321 0.009999847
v 0 -0.02083332 0.01
v 0 -0.02499996 0.01
v -0.08000007 -0.02083321 0.009999847
v -0.08000007 -0.02083321 0.01166651
v 0 -0.02083332 0.01166667
v 0 -0.02083332 0.01
v -0.08000007 -0.02083321 0.01166651
v -0.08000007 -0.01666653 0.01166651
v 0 -0.01666664 0.01166667
v 0 -0.02083332 0.01166667
v -0.08000007 -0.01666653 0.01166651
v -0.08000007 -0.01666653 0.01333318
v 0 -0.01666664 0.01333333
v 0 -0.01666664 0.01166667
v -0.08000007 -0.01666653 0.01333318
v -0.08000007 -0.01249989 0.01333318
v 0 -0.0125 0.01333333
v 0 -0.01666664 0.01333333
v -0.08000007 -0.01249989 0.01333318
v -0.08000007 -0.01249989 0.01499985
v 0 -0.01249996 0.015
v 0 -0.0125 0.01333333
v -0.08000007 -0.01249989 0.01499985
v -0.08000007 -0.008333206 0.01499985
v 0 -0.008333321 0.015
v 0 -0.01249996 0.015
v -0.08000007 -0.008333206 0.01499985
v -0.08000007 -0.008333206 0.01666651
v 0 -0.008333321 0.01666667
v 0 -0.008333321 0.015
v -0.08000007 -0.008333206 0.01666651
v -0.08000007 -0.004166565 0.01666651
v 0 -0.004166679 0.01666667
v 0 -0.008333321 0.01666667
v -0.08000007 -0.004166565 0.01666651
v -0.08000007 -0.004166527 0.01833318
v 0 -0.004166641 0.01833333
v 0 -0.004166679 0.01666667
v -0.08000007 -0.004166527 0.01833318
v -0.08000007 1.144409E-07 0.01833318
v 0 0 0.01833333
v 0 -0.004166641 0.01833333
v -0.08000007 1.144409E-07 -1.525879E-07
v 0 0 0.01833333
v -0.08000007 1.144409E-07 0.01833318
v 0 0 0
v 0 0 -0.01000008
v -0.08000007 1.144409E-07 -0.01000023
v -0.08000007 1.144409E-07 -0.01000023
v -0.08000015 -0.04583317 -0.01000023
v 0 -0.04583328 -0.01000008
v 0 0 -0.01000008
v -0.08000015 -0.04583317 -1.525879E-07
v -0.08000015 -0.04583317 -0.01000023
v -0.08000007 1.144409E-07 -0.01000023
v -0.08000007 1.144409E-07 -1.525879E-07
v 0 -0.04583328 0
v 0 -0.04583328 -0.01000008
v -0.08000015 -0.04583317 -0.01000023
v -0.08000015 -0.04583317 -1.525879E-07
vt 0.194621 0.8231558
vt 0.1886595 0.8204574
vt 0.375 0.90625
vt 0.1886595 0.8204574
vt 0.1927083 0.8151042
vt 0.375 0.90625
vt 0.375 0.90625
vt 0.1886595 0.8204574
vt 0.194621 0.8231558
vt 0.375 0.90625
vt 0.28125 0.859375
vt 0.1886595 0.8204574
vt 0.1904814 0.8284976
vt 0.194621 0.8231558
vt 0.375 0.90625
vt 0.1968446 0.8312463
vt 0.1932009 0.8366501
vt 0.2000434 0.8394586
vt 0.1970112 0.8449389
vt 0.2044209 0.8478183
vt 0.202035 0.8533794
vt 0.2100694 0.8563368
vt 0.1875 0.8828125
vt 0.3663188 0.9344616
vt 0.3687011 0.9367126
vt 0.402321 0.9467744
vt 0.4053441 0.9491054
vt 0.4395516 0.9592408
vt 0.4432006 0.9616501
vt 0.4779135 0.9718485
vt 0.4821479 0.974331
vt 0.5172463 0.9845776
vt 0.5219927 0.9871241
vt 0.46875 0.953125
vt 0.46875 0.953125
vt 0.375 0.90625
vt 0.4779135 0.9718485
vt 0.4821479 0.974331
vt 0.5172462 0.9845777
vt 0.375 0.90625
vt 0.4432006 0.9616501
vt 0.4395516 0.9592408
vt 0.5572916 0.9973959
vt 0.5219927 0.9871241
vt 0.402321 0.9467744
vt 0.4053441 0.9491054
vt 0.3663188 0.9344616
vt 0.3687011 0.9367126
vt 0.2100694 0.856337
vt 0.1875 0.8828125
vt 0.2044209 0.8478183
vt 0.202035 0.8533794
vt 0.2000433 0.8394586
vt 0.1970112 0.8449389
vt 0.1968446 0.8312463
vt 0.1932009 0.8366501
vt 0.194621 0.8231558
vt 0.1904814 0.8284976
vt 0.5572916 0.9973959
vt 0.5219927 0.9871241
vt 0.5219927 0.9871241
vt 0.5572917 0.9973959
vt 0.5219927 0.9871241
vt 0.5172462 0.9845777
vt 0.5172463 0.9845776
vt 0.5219927 0.9871241
vt 0.5172462 0.9845777
vt 0.4821479 0.974331
vt 0.4821479 0.974331
vt 0.5172463 0.9845776
vt 0.4821479 0.974331
vt 0.4779135 0.9718485
vt 0.4779135 0.9718485
vt 0.4821479 0.974331
vt 0.4779135 0.9718485
vt 0.4432006 0.9616501
vt 0.4432006 0.9616501
vt 0.4779135 0.9718485
vt 0.4432006 0.9616501
vt 0.4395516 0.9592408
vt 0.4395516 0.9592408
vt 0.4432006 0.9616501
vt 0.4395516 0.9592408
vt 0.4053441 0.9491054
vt 0.4053441 0.9491054
vt 0.4395516 0.9592408
vt 0.4053441 0.9491054
vt 0.402321 0.9467744
vt 0.402321 0.9467744
vt 0.4053441 0.9491054
vt 0.402321 0.9467744
vt 0.3687011 0.9367126
vt 0.3687011 0.9367126
vt 0.402321 0.9467744
vt 0.3687011 0.9367126
vt 0.3663188 0.9344616
vt 0.3663188 0.9344616
vt 0.3687011 0.9367126
vt 0.3663188 0.9344616
vt 0.1875 0.8828125
vt 0.1875 0.8828125
vt 0.3663188 0.9344616
vt 0.1875 0.8828125
vt 0.2100694 0.856337
vt 0.2100694 0.8563368
vt 0.1875 0.8828125
vt 0.2100694 0.856337
vt 0.202035 0.8533794
vt 0.202035 0.8533794
vt 0.2100694 0.8563368
vt 0.202035 0.8533794
vt 0.2044209 0.8478183
vt 0.2044209 0.8478183
vt 0.202035 0.8533794
vt 0.2044209 0.8478183
vt 0.1970112 0.8449389
vt 0.1970112 0.8449389
vt 0.2044209 0.8478183
vt 0.1970112 0.8449389
vt 0.2000433 0.8394586
vt 0.2000434 0.8394586
vt 0.1970112 0.8449389
vt 0.2000433 0.8394586
vt 0.1932009 0.8366501
vt 0.1932009 0.8366501
vt 0.2000434 0.8394586
vt 0.1932009 0.8366501
vt 0.1968446 0.8312463
vt 0.1968446 0.8312463
vt 0.1932009 0.8366501
vt 0.1968446 0.8312463
vt 0.1904814 0.8284976
vt 0.1904814 0.8284976
vt 0.1968446 0.8312463
vt 0.1904814 0.8284976
vt 0.194621 0.8231558
vt 0.194621 0.8231558
vt 0.1904814 0.8284976
vt 0.194621 0.8231558
vt 0.1886595 0.8204574
vt 0.1886595 0.8204574
vt 0.194621 0.8231558
vt 0.1886595 0.8204574
vt 0.1927083 0.8151042
vt 0.1927083 0.8151042
vt 0.1886595 0.8204574
vt 0.375 0.90625
vt 0.28125 0.859375
vt 0.28125 0.859375
vt 0.375 0.90625
vt 0.375 0.90625
vt 0.375 0.90625
vt 0.375 0.90625
vt 0.5572916 0.9973959
vt 0.5572917 0.9973959
vt 0.375 0.90625
vt 0 0
vt 0 0
vt 0 0
vt 0 0
vt 0.5572917 0.9973959
vt 0.5572917 0.9973959
vt 0.5572916 0.9973959
vt 0.5572916 0.9973959
vn 1 0 0
vn 1 0 0
vn 1 0 0
vn 1 0 0
vn 1 0 0
vn 1 0 0
vn -1 1.092392E-06 1.387159E-06
vn -1 1.092392E-06 1.387159E-06
vn -1 1.092392E-06 1.387159E-06
vn -1 1.092392E-06 1.387159E-06
vn -1 1.092392E-06 1.387159E-06
vn -1 1.092392E-06 1.387159E-06
vn 1 0 0
vn 1 0 0
vn 1 0 0
vn 1 0 0
vn 1 0 0
vn 1 0 0
vn 1 0 0
vn 1 0 0
vn 1 0 0
vn 1 0 0
vn 1 0 0
vn 1 0 0
vn 1 0 0
vn 1 0 0
vn 1 0 0
vn 1 0 0
vn 1 0 0
vn 1 0 0
vn 1 0 0
vn 1 0 0
vn 1 0 0
vn 1 0 0
vn 1 0 0
vn 1 0 0
vn -1 1.092392E-06 1.387159E-06
vn -1 1.092392E-06 1.387159E-06
vn -1 1.092392E-06 1.387159E-06
vn -1 1.092392E-06 1.387159E-06
vn -1 1.092392E-06 1.387159E-06
vn -1 1.092392E-06 1.387159E-06
vn -1 1.092392E-06 1.387159E-06
vn -1 1.092392E-06 1.387159E-06
vn -1 1.092392E-06 1.387159E-06
vn -1 1.092392E-06 1.387159E-06
vn -1 1.092392E-06 1.387159E-06
vn -1 1.092392E-06 1.387159E-06
vn -1 1.092392E-06 1.387159E-06
vn -1 1.092392E-06 1.387159E-06
vn -1 1.092392E-06 1.387159E-06
vn -1 1.092392E-06 1.387159E-06
vn -1 1.092392E-06 1.387159E-06
vn -1 1.092392E-06 1.387159E-06
vn -1 1.092392E-06 1.387159E-06
vn -1 1.092392E-06 1.387159E-06
vn -1 1.092392E-06 1.387159E-06
vn -1 1.092392E-06 1.387159E-06
vn -1.192112E-06 -1 1.144407E-05
vn -1.192112E-06 -1 1.144407E-05
vn -1.192112E-06 -1 1.144407E-05
vn -1.192112E-06 -1 1.144407E-05
vn -1.904343E-06 0 1
vn -1.904343E-06 0 1
vn -1.904343E-06 0 1
vn -1.904343E-06 0 1
vn -1.430509E-06 -1 0
vn -1.430509E-06 -1 0
vn -1.430509E-06 -1 0
vn -1.430509E-06 -1 0
vn -1.90882E-06 0 1
vn -1.90882E-06 0 1
vn -1.90882E-06 0 1
vn -1.90882E-06 0 1
vn -1.668949E-06 -1 1.144407E-05
vn -1.668949E-06 -1 1.144407E-05
vn -1.668949E-06 -1 1.144407E-05
vn -1.668949E-06 -1 1.144407E-05
vn -1.908812E-06 0 1
vn -1.908812E-06 0 1
vn -1.908812E-06 0 1
vn -1.908812E-06 0 1
vn -1.430509E-06 -1 -1.430509E-06
vn -1.430509E-06 -1 -1.430509E-06
vn -1.430509E-06 -1 -1.430509E-06
vn -1.430509E-06 -1 -1.430509E-06
vn -1.904351E-06 0 1
vn -1.904351E-06 0 1
vn -1.904351E-06 0 1
vn -1.904351E-06 0 1
vn -1.192113E-06 -1 1.287459E-05
vn -1.192113E-06 -1 1.287459E-05
vn -1.192113E-06 -1 1.287459E-05
vn -1.192113E-06 -1 1.287459E-05
vn -1.913284E-06 0 1
vn -1.913284E-06 0 1
vn -1.913284E-06 0 1
vn -1.913284E-06 0 1
vn -1.43051E-06 -1 0
vn -1.43051E-06 -1 0
vn -1.43051E-06 -1 0
vn -1.43051E-06 -1 0
vn -1.904352E-06 0 1
vn -1.904352E-06 0 1
vn -1.904352E-06 0 1
vn -1.904352E-06 0 1
vn -1.43051E-06 -1 0
vn -1.43051E-06 -1 0
vn -1.43051E-06 -1 0
vn -1.43051E-06 -1 0
vn -1.904335E-06 0 1
vn -1.904335E-06 0 1
vn -1.904335E-06 0 1
vn -1.904335E-06 0 1
vn -1.430509E-06 -1 0
vn -1.430509E-06 -1 0
vn -1.430509E-06 -1 0
vn -1.430509E-06 -1 0
vn -1.913293E-06 0 1
vn -1.913293E-06 0 1
vn -1.913293E-06 0 1
vn -1.913293E-06 0 1
vn -1.192114E-06 -1 1.144408E-05
vn -1.192114E-06 -1 1.144408E-05
vn -1.192114E-06 -1 1.144408E-05
vn -1.192114E-06 -1 1.144408E-05
vn -1.913284E-06 0 1
vn -1.913284E-06 0 1
vn -1.913284E-06 0 1
vn -1.913284E-06 0 1
vn -1.430509E-06 -1 0
vn -1.430509E-06 -1 0
vn -1.430509E-06 -1 0
vn -1.430509E-06 -1 0
vn -1.913293E-06 0 1
vn -1.913293E-06 0 1
vn -1.913293E-06 0 1
vn -1.913293E-06 0 1
vn -1.430554E-06 -1 2.288815E-05
vn -1.430554E-06 -1 2.288815E-05
vn -1.430554E-06 -1 2.288815E-05
vn -1.430554E-06 -1 2.288815E-05
vn -1.913293E-06 0 1
vn -1.913293E-06 0 1
vn -1.913293E-06 0 1
vn -1.913293E-06 0 1
vn 1.43051E-06 1 0
vn 1.43051E-06 1 0
vn 1.43051E-06 1 0
vn 1.43051E-06 1 0
vn 1.43051E-06 1 0
vn 1.43051E-06 1 0
vn 1.911688E-06 0 -1
vn 1.911688E-06 0 -1
vn 1.911688E-06 0 -1
vn 1.911688E-06 0 -1
vn -1 1.664584E-06 0
vn -1 1.664584E-06 0
vn -1 1.664584E-06 0
vn -1 1.664584E-06 0
vn -1.430509E-06 -1 0
vn -1.430509E-06 -1 0
vn -1.430509E-06 -1 0
vn -1.430509E-06 -1 0
g Chap01_BD_statir01_0
f 3/3/3 2/2/2 1/1/1
f 6/6/6 5/5/5 4/4/4
f 9/9/9 8/8/8 7/7/7
f 12/12/12 11/11/11 10/10/10
f 15/15/15 14/14/14 13/13/13
f 15/15/15 13/13/13 16/16/16
f 15/15/15 16/16/16 17/17/17
f 15/15/15 17/17/17 18/18/18
f 15/15/15 18/18/18 19/19/19
f 15/15/15 19/19/19 20/20/20
f 15/15/15 20/20/20 21/21/21
f 15/15/15 21/21/21 22/22/22
f 15/15/15 22/22/22 23/23/23
f 15/15/15 23/23/23 24/24/24
f 15/15/15 24/24/24 25/25/25
f 15/15/15 25/25/25 26/26/26
f 15/15/15 26/26/26 27/27/27
f 15/15/15 27/27/27 28/28/28
f 15/15/15 28/28/28 29/29/29
f 15/15/15 29/29/29 30/30/30
f 15/15/15 30/30/30 31/31/31
f 15/15/15 31/31/31 32/32/32
f 15/15/15 32/32/32 33/33/33
f 33/33/33 34/34/34 15/15/15
f 34/34/34 35/35/35 15/15/15
f 35/35/35 36/36/36 15/15/15
f 39/39/39 38/38/38 37/37/37
f 39/39/39 37/37/37 40/40/40
f 37/37/37 41/41/41 40/40/40
f 41/41/41 42/42/42 40/40/40
f 39/39/39 40/40/40 43/43/43
f 43/43/43 44/44/44 39/39/39
f 42/42/42 45/45/45 40/40/40
f 42/42/42 46/46/46 45/45/45
f 45/45/45 47/47/47 40/40/40
f 45/45/45 48/48/48 47/47/47
f 47/47/47 49/49/49 40/40/40
f 47/47/47 50/50/50 49/49/49
f 49/49/49 51/51/51 40/40/40
f 49/49/49 52/52/52 51/51/51
f 51/51/51 53/53/53 40/40/40
f 51/51/51 54/54/54 53/53/53
f 53/53/53 55/55/55 40/40/40
f 53/53/53 56/56/56 55/55/55
f 55/55/55 57/57/57 40/40/40
f 55/55/55 58/58/58 57/57/57
f 61/61/61 60/60/60 59/59/59
f 62/62/62 61/61/61 59/59/59
f 65/65/65 64/64/64 63/63/63
f 66/66/66 65/65/65 63/63/63
f 69/69/69 68/68/68 67/67/67
f 70/70/70 69/69/69 67/67/67
f 73/73/73 72/72/72 71/71/71
f 74/74/74 73/73/73 71/71/71
f 77/77/77 76/76/76 75/75/75
f 78/78/78 77/77/77 75/75/75
f 81/81/81 80/80/80 79/79/79
f 82/82/82 81/81/81 79/79/79
f 85/85/85 84/84/84 83/83/83
f 86/86/86 85/85/85 83/83/83
f 89/89/89 88/88/88 87/87/87
f 90/90/90 89/89/89 87/87/87
f 93/93/93 92/92/92 91/91/91
f 94/94/94 93/93/93 91/91/91
f 97/97/97 96/96/96 95/95/95
f 98/98/98 97/97/97 95/95/95
f 101/101/101 100/100/100 99/99/99
f 102/102/102 101/101/101 99/99/99
f 105/105/105 104/104/104 103/103/103
f 106/106/106 105/105/105 103/103/103
f 109/109/109 108/108/108 107/107/107
f 110/110/110 109/109/109 107/107/107
f 113/113/113 112/112/112 111/111/111
f 114/114/114 113/113/113 111/111/111
f 117/117/117 116/116/116 115/115/115
f 118/118/118 117/117/117 115/115/115
f 121/121/121 120/120/120 119/119/119
f 122/122/122 121/121/121 119/119/119
f 125/125/125 124/124/124 123/123/123
f 126/126/126 125/125/125 123/123/123
f 129/129/129 128/128/128 127/127/127
f 130/130/130 129/129/129 127/127/127
f 133/133/133 132/132/132 131/131/131
f 134/134/134 133/133/133 131/131/131
f 137/137/137 136/136/136 135/135/135
f 138/138/138 137/137/137 135/135/135
f 141/141/141 140/140/140 139/139/139
f 142/142/142 141/141/141 139/139/139
f 145/145/145 144/144/144 143/143/143
f 146/146/146 145/145/145 143/143/143
f 149/149/149 148/148/148 147/147/147
f 148/148/148 150/150/150 147/147/147
f 150/150/150 151/151/151 147/147/147
f 151/151/151 152/152/152 147/147/147
f 155/155/155 154/154/154 153/153/153
f 156/156/156 155/155/155 153/153/153
f 159/159/159 158/158/158 157/157/157
f 160/160/160 159/159/159 157/157/157
f 163/163/163 162/162/162 161/161/161
f 164/164/164 163/163/163 161/161/161
