g Chap01_Prop_Car_02_Collider
v 1.796253 -2.913938E-07 0.3108337
v 1.442897 -2.913938E-07 0.6191395
v 1.796253 1.58 0.3108337
v 1.442897 1.58 0.6191395
v 1.442897 1.58 -0.6191395
v 1.796253 1.58 -0.3108337
v 1.796253 -2.913938E-07 -0.3108337
v 1.442897 -2.913938E-07 -0.6191395
v -1.790124 -2.913938E-07 0.3586072
v -1.597144 -2.913938E-07 0.7378432
v -1.790124 1.58 0.3586072
v -1.597144 1.58 0.7378432
v -1.790124 1.58 -0.3586072
v -1.597144 1.58 -0.7378432
v -1.790124 -2.913938E-07 -0.3586072
v -1.597144 -2.913938E-07 -0.7378432
v 1.442897 -2.913938E-07 0.6191395
v 1.442897 1.58 0.6191395
v 1.796253 1.58 0.3108337
v 1.796253 -2.913938E-07 0.3108337
v 1.442897 1.58 -0.6191395
v 1.442897 -2.913938E-07 -0.6191395
v 1.796253 -2.913938E-07 -0.3108337
v 1.796253 1.58 -0.3108337
v 1.442897 -2.913938E-07 0.6191395
v 1.796253 -2.913938E-07 0.3108337
v 1.796253 -2.913938E-07 -0.3108337
v 1.442897 -2.913938E-07 -0.6191395
v -1.790124 -2.913938E-07 0.3586072
v -1.790124 1.58 0.3586072
v -1.597144 1.58 0.7378432
v -1.597144 -2.913938E-07 0.7378432
v -1.790124 1.58 -0.3586072
v -1.790124 -2.913938E-07 -0.3586072
v -1.597144 -2.913938E-07 -0.7378432
v -1.597144 1.58 -0.7378432
v -1.597144 -2.913938E-07 0.7378432
v -1.597144 -2.913938E-07 -0.7378432
v 1.442897 1.58 -0.6191395
v 1.796253 1.58 -0.3108337
v 1.796253 1.58 0.3108337
v 1.442897 1.58 0.6191395
v -1.790124 -2.913938E-07 -0.3586072
v -1.790124 -2.913938E-07 0.3586072
v -1.597144 1.58 -0.7378432
v -1.597144 1.58 0.7378432
v -1.790124 1.58 0.3586072
v -1.790124 1.58 -0.3586072
vt 0.6874937 1.117587E-08
vt 0.5967042 -5.587935E-09
vt 0.6874937 0.25
vt 0.5967042 0.25
vt 0.5967042 0.5
vt 0.8125063 0.25
vt 0.8125063 3.72529E-09
vt 0.5967042 0.7499999
vt 0.3375038 5.572469E-09
vt 0.3918867 1.340486E-08
vt 0.375 0.2874963
vt 0.3918868 0.25
vt 0.1624963 0.25
vt 0.3918867 0.5
vt 0.375 0.7874963
vt 0.3918868 0.75
vt 0.5967042 -5.587935E-09
vt 0.5967042 0.25
vt 0.6874937 0.25
vt 0.6874937 1.117587E-08
vt 0.5967042 0.5
vt 0.5967042 0.7499999
vt 0.625 0.8124937
vt 0.625 0.4375063
vt 0.5967042 1
vt 0.625 0.9375063
vt 0.625 0.8124937
vt 0.5967042 0.7499999
vt 0.3375038 5.572469E-09
vt 0.3375038 0.25
vt 0.3918868 0.25
vt 0.3918867 1.340486E-08
vt 0.375 0.4625038
vt 0.375 0.7874963
vt 0.3918868 0.75
vt 0.3918867 0.5
vt 0.3918868 1
vt 0.3918868 0.75
vt 0.5967042 0.5
vt 0.625 0.4375063
vt 0.625 0.3124937
vt 0.5967042 0.25
vt 0.375 0.7874963
vt 0.375 0.9625037
vt 0.3918867 0.5
vt 0.3918868 0.25
vt 0.375 0.2874963
vt 0.375 0.4625038
vn 1 0 0
vn 0.03901701 0 0.9992385
vn 1 0 0
vn 0.03901701 0 0.9992385
vn 0.03901701 0 -0.9992385
vn 1 0 0
vn 1 0 0
vn 0.03901701 0 -0.9992385
vn -1 0 0
vn 0.03901701 0 0.9992385
vn -1 0 0
vn 0.03901701 0 0.9992385
vn -1 0 0
vn 0.03901701 0 -0.9992385
vn -1 0 0
vn 0.03901701 0 -0.9992385
vn 0.6574399 0 0.753507
vn 0.6574399 0 0.753507
vn 0.6574399 0 0.753507
vn 0.6574399 0 0.753507
vn 0.6574399 0 -0.753507
vn 0.6574399 0 -0.753507
vn 0.6574399 0 -0.753507
vn 0.6574399 0 -0.753507
vn 0 -1 0
vn 0 -1 0
vn 0 -1 0
vn 0 -1 0
vn -0.8912438 0 0.4535245
vn -0.8912438 0 0.4535245
vn -0.8912438 0 0.4535245
vn -0.8912438 0 0.4535245
vn -0.8912438 0 -0.4535245
vn -0.8912438 0 -0.4535245
vn -0.8912438 0 -0.4535245
vn -0.8912438 0 -0.4535245
vn 0 -1 0
vn 0 -1 0
vn 0 1 0
vn 0 1 0
vn 0 1 0
vn 0 1 0
vn 0 -1 0
vn 0 -1 0
vn 0 1 0
vn 0 1 0
vn 0 1 0
vn 0 1 0
g Chap01_Prop_Car_02_Collider_0
f 2/2/2 4/4/4 12/12/12
f 10/10/10 2/2/2 12/12/12
f 5/5/5 8/8/8 16/16/16
f 14/14/14 5/5/5 16/16/16
f 7/7/7 6/6/6 3/3/3
f 1/1/1 7/7/7 3/3/3
f 13/13/13 15/15/15 9/9/9
f 11/11/11 13/13/13 9/9/9
f 19/19/19 18/18/18 17/17/17
f 20/20/20 19/19/19 17/17/17
f 23/23/23 22/22/22 21/21/21
f 24/24/24 23/23/23 21/21/21
f 27/27/27 26/26/26 25/25/25
f 28/28/28 27/27/27 25/25/25
f 31/31/31 30/30/30 29/29/29
f 32/32/32 31/31/31 29/29/29
f 35/35/35 34/34/34 33/33/33
f 36/36/36 35/35/35 33/33/33
f 28/28/28 25/25/25 37/37/37
f 38/38/38 28/28/28 37/37/37
f 41/41/41 40/40/40 39/39/39
f 42/42/42 41/41/41 39/39/39
f 37/37/37 44/44/44 43/43/43
f 38/38/38 37/37/37 43/43/43
f 42/42/42 39/39/39 45/45/45
f 46/46/46 42/42/42 45/45/45
f 45/45/45 48/48/48 47/47/47
f 46/46/46 45/45/45 47/47/47
