g Chap01_BD_AirFortress_11_SC
v 3.866875 75.8979 -14.43146
v -10.56455 75.89793 -10.56445
v -14.43131 75.89793 3.866934
v -3.866875 75.89793 14.43138
v 10.56451 75.8979 10.56463
v 14.43152 75.8979 -3.866826
v 14.67205 80.54289 -3.931367
v 3.931348 80.54289 -14.67204
v -10.74066 80.5429 -10.74068
v -14.67203 80.54291 3.931357
v -3.931348 80.5429 14.67204
v 10.74066 80.54289 10.74069
v 19.64715 68.91656 10.86728
v 19.64715 77.01594 10.86728
v 10.86723 77.01604 19.64721
v 10.86723 68.91656 19.6472
v 22.44853 68.91656 0.4121777
v 27.06848 68.69187 4.04208
v 25.46297 68.69187 10.03363
v -22.44863 68.91656 -0.412168
v -19.64719 68.9166 -10.8673
v -10.86734 68.9166 -19.64725
v 19.23492 68.91656 -11.58125
v -27.06848 68.69187 -4.04208
v -25.46307 68.69187 -10.03363
v -19.23498 68.9166 11.58123
v -0.4122266 68.91656 -22.44857
v 11.58121 68.91656 -19.23496
v 17.03486 68.69193 -21.4209
v 21.42086 68.69193 -17.0349
v -10.03367 68.69193 -25.46309
v -4.042187 68.69193 -27.06848
v 0.412207 68.9166 22.44865
v -11.58129 68.91663 19.23508
v -17.03473 68.69193 21.42094
v -21.42098 68.69193 17.03477
v 10.03359 68.69187 25.46302
v 4.042051 68.69187 27.06843
v 0.412207 77.01599 22.44865
v -11.58129 77.01595 19.23508
v -19.23488 77.01598 11.5813
v -22.44863 77.01594 -0.412168
v -21.421 77.24067 17.03478
v -17.03473 77.24067 21.42094
v 4.042051 77.24072 27.06843
v 10.03359 77.24072 25.46302
v 22.44857 77.01591 0.4121484
v -19.64719 77.0159 -10.8673
v 25.46297 77.24062 10.03363
v 27.06848 77.24062 4.04208
v 19.23492 77.01594 -11.58125
v -10.86734 77.0159 -19.64725
v -25.46307 77.24062 -10.03363
v -27.06848 77.24062 -4.04208
v 11.58121 77.01594 -19.23496
v -0.4122266 77.01594 -22.44857
v 21.42086 77.24058 -17.0349
v 17.03486 77.24058 -21.4209
v -4.042187 77.24058 -27.06848
v -10.03367 77.24058 -25.46309
v 1.953125E-05 69.17125 -9.765625E-06
v 9.487773 69.41521 8.959961
v -3.015547 69.41521 12.69669
v -12.50348 69.41521 3.73668
v -9.487773 69.41521 -8.95998
v 3.015527 69.41521 -12.69667
v 12.5034 69.41521 -3.736826
v 9.668945 62.16321 9.130957
v -3.073105 62.16316 12.939
v -12.74203 62.16311 3.808057
v -9.669003 62.16326 -9.130957
v 3.073164 62.16321 -12.93902
v 12.74209 62.16321 -3.808076
v 0 62.63122 -9.765625E-06
v 4.492363 64.03246 -1.240166
v 3.288125 64.03246 3.254141
v 3.288164 -81.2749 3.254131
v 4.492383 -81.2749 -1.240166
v 1.202422 64.03246 -4.530234
v 1.202422 -81.2749 -4.530234
v -3.291875 64.03246 -3.326025
v -3.291875 -81.2749 -3.326015
v -4.496172 64.03246 1.168281
v -4.496152 -81.2749 1.168359
v -1.206133 64.03246 4.45835
v -1.206191 -81.2749 4.45832
v 3.866875 75.8979 -14.43146
v 3.931348 80.54289 -14.67204
v -10.56455 75.89793 -10.56445
v -10.74066 80.5429 -10.74068
v -14.43131 75.89793 3.866934
v -14.67203 80.54291 3.931357
v -3.866875 75.89793 14.43138
v -3.931348 80.5429 14.67204
v 10.56451 75.8979 10.56463
v 10.74066 80.54289 10.74069
v 14.67205 80.54289 -3.931367
v 14.43152 75.8979 -3.866826
v 14.67205 80.54289 -3.931367
v 10.74066 80.54289 10.74069
v 3.931348 80.54289 -14.67204
v -10.74066 80.5429 -10.74068
v -14.67203 80.54291 3.931357
v -3.931348 80.5429 14.67204
v 19.64715 68.91656 10.86728
v 10.86723 68.91656 19.6472
v 0.412207 68.9166 22.44865
v -11.58129 68.91663 19.23508
v -19.23498 68.9166 11.58123
v -22.44863 68.91656 -0.412168
v -11.58129 77.01595 19.23508
v -19.23488 77.01598 11.5813
v 10.86723 77.01604 19.64721
v 0.412207 77.01599 22.44865
v 19.64715 77.01594 10.86728
v -22.44863 77.01594 -0.412168
v -19.64719 68.9166 -10.8673
v -10.86734 68.9166 -19.64725
v -10.86734 77.0159 -19.64725
v -19.64719 77.0159 -10.8673
v 22.44853 68.91656 0.4121777
v 27.06848 68.69187 4.04208
v 27.06848 77.24062 4.04208
v 22.44857 77.01591 0.4121484
v -0.4122266 68.91656 -22.44857
v 11.58121 68.91656 -19.23496
v 11.58121 77.01594 -19.23496
v -0.4122266 77.01594 -22.44857
v -19.64719 77.0159 -10.8673
v -25.46307 77.24062 -10.03363
v -25.46307 68.69187 -10.03363
v -19.64719 68.9166 -10.8673
v 19.23492 68.91656 -11.58125
v 22.44853 68.91656 0.4121777
v 22.44857 77.01591 0.4121484
v 19.23492 77.01594 -11.58125
v 10.86723 68.91656 19.6472
v 10.03359 68.69187 25.46302
v 10.03359 77.24072 25.46302
v 10.86723 77.01604 19.64721
v 10.03359 68.69187 25.46302
v 4.042051 68.69187 27.06843
v 4.042051 77.24072 27.06843
v 10.03359 77.24072 25.46302
v -17.03473 68.69193 21.42094
v -21.42098 68.69193 17.03477
v -21.421 77.24067 17.03478
v -17.03473 77.24067 21.42094
v -27.06848 68.69187 -4.04208
v -25.46307 68.69187 -10.03363
v -25.46307 77.24062 -10.03363
v -27.06848 77.24062 -4.04208
v -10.03367 68.69193 -25.46309
v -4.042187 68.69193 -27.06848
v -4.042187 77.24058 -27.06848
v -10.03367 77.24058 -25.46309
v 17.03486 68.69193 -21.4209
v 21.42086 68.69193 -17.0349
v 21.42086 77.24058 -17.0349
v 17.03486 77.24058 -21.4209
v 27.06848 68.69187 4.04208
v 25.46297 68.69187 10.03363
v 25.46297 77.24062 10.03363
v 27.06848 77.24062 4.04208
v -19.23488 77.01598 11.5813
v -21.421 77.24067 17.03478
v -21.42098 68.69193 17.03477
v -19.23498 68.9166 11.58123
v 11.58121 68.91656 -19.23496
v 17.03486 68.69193 -21.4209
v 17.03486 77.24058 -21.4209
v 11.58121 77.01594 -19.23496
v 0.412207 77.01599 22.44865
v 4.042051 77.24072 27.06843
v 4.042051 68.69187 27.06843
v 0.412207 68.9166 22.44865
v -10.86734 68.9166 -19.64725
v -10.03367 68.69193 -25.46309
v -10.03367 77.24058 -25.46309
v -10.86734 77.0159 -19.64725
v -22.44863 68.91656 -0.412168
v -27.06848 68.69187 -4.04208
v -27.06848 77.24062 -4.04208
v -22.44863 77.01594 -0.412168
v 19.23492 77.01594 -11.58125
v 21.42086 77.24058 -17.0349
v 21.42086 68.69193 -17.0349
v 19.23492 68.91656 -11.58125
v -11.58129 68.91663 19.23508
v -17.03473 68.69193 21.42094
v -17.03473 77.24067 21.42094
v -11.58129 77.01595 19.23508
v -0.4122266 77.01594 -22.44857
v -4.042187 77.24058 -27.06848
v -4.042187 68.69193 -27.06848
v -0.4122266 68.91656 -22.44857
v 19.64715 77.01594 10.86728
v 25.46297 77.24062 10.03363
v 25.46297 68.69187 10.03363
v 19.64715 68.91656 10.86728
v -19.23498 68.9166 11.58123
v -22.44863 68.91656 -0.412168
v -22.44863 68.91656 -0.412168
v -19.64719 68.9166 -10.8673
v -19.64719 68.9166 -10.8673
v -10.86734 68.9166 -19.64725
v -10.86734 68.9166 -19.64725
v -0.4122266 68.91656 -22.44857
v -0.4122266 68.91656 -22.44857
v 11.58121 68.91656 -19.23496
v 11.58121 68.91656 -19.23496
v 19.23492 68.91656 -11.58125
v 19.23492 68.91656 -11.58125
v 22.44853 68.91656 0.4121777
v 22.44853 68.91656 0.4121777
v 19.64715 68.91656 10.86728
v 19.64715 68.91656 10.86728
v 10.86723 68.91656 19.6472
v 10.86723 68.91656 19.6472
v 0.412207 68.9166 22.44865
v 0.412207 68.9166 22.44865
v -11.58129 68.91663 19.23508
v -11.58129 68.91663 19.23508
v -19.23498 68.9166 11.58123
v -3.015547 69.41521 12.69669
v -3.073105 62.16316 12.939
v -12.50348 69.41521 3.73668
v -12.74203 62.16311 3.808057
v -9.487773 69.41521 -8.95998
v -9.669003 62.16326 -9.130957
v 3.015527 69.41521 -12.69667
v 3.073164 62.16321 -12.93902
v 12.5034 69.41521 -3.736826
v 12.74209 62.16321 -3.808076
v 9.668945 62.16321 9.130957
v 9.487773 69.41521 8.959961
v 12.74209 62.16321 -3.808076
v 3.073164 62.16321 -12.93902
v -9.669003 62.16326 -9.130957
v -12.74203 62.16311 3.808057
v 9.668945 62.16321 9.130957
v 12.74209 62.16321 -3.808076
v -3.073105 62.16316 12.939
v -3.073105 62.16316 12.939
v -12.74203 62.16311 3.808057
v 3.073164 62.16321 -12.93902
v 4.492383 -81.2749 -1.240166
v 4.492363 64.03246 -1.240166
v 1.202422 -81.2749 -4.530234
v 1.202422 64.03246 -4.530234
v -3.291875 -81.2749 -3.326015
v -3.291875 64.03246 -3.326025
v -4.496152 -81.2749 1.168359
v -4.496172 64.03246 1.168281
v 3.288125 64.03246 3.254141
v 3.288164 -81.2749 3.254131
v -1.206191 -81.2749 4.45832
v -1.206133 64.03246 4.45835
vt 1.048687 0.502299
vt 1.048686 0.461271
vt 1.048686 0.4202433
vt 1.048686 0.3792156
vt 1.048686 0.3381879
vt 1.048686 0.5330697
vt 1.079184 0.533069
vt 1.079184 0.5022981
vt 1.079184 0.4612705
vt 1.079184 0.4202426
vt 1.079184 0.3792148
vt 1.079184 0.3381872
vt 0.03384861 0.4272921
vt 0.08030336 0.4272921
vt 0.08030336 0.482805
vt 0.03384861 0.482805
vt 0.9971328 0.7963389
vt 0.9593195 0.780869
vt 0.9593195 0.7327441
vt 0.9971328 0.7963389
vt 0.9971328 0.7173472
vt 0.9971328 0.7963384
vt 0.9971328 0.7173473
vt 0.9593194 0.780869
vt 0.9593194 0.7327437
vt 0.9971328 0.7173473
vt 0.9971328 0.7173475
vt 0.9971328 0.7963389
vt 0.9593194 0.7808692
vt 0.9593195 0.7327442
vt 0.9593194 0.7808684
vt 0.9593194 0.7327431
vt 0.9971328 0.7173471
vt 0.9971328 0.7963387
vt 0.9593194 0.7808681
vt 0.9593194 0.7327437
vt 0.9593194 0.7808686
vt 0.9593194 0.7327435
vt 0.03384852 0.482805
vt 0.03384852 0.4272922
vt 0.03384845 0.4828049
vt 0.03384845 0.4272923
vt 0.8391376 0.4200214
vt 0.8430456 0.4174835
vt 0.8569228 0.4167563
vt 0.8610746 0.4188717
vt 0.8653103 0.4368634
vt 0.8368055 0.4383572
vt 0.8686431 0.4305262
vt 0.8688869 0.4351796
vt 0.8618379 0.4436781
vt 0.8409711 0.4447715
vt 0.8330725 0.4370564
vt 0.8328286 0.4324031
vt 0.8554236 0.4478436
vt 0.8477858 0.4482439
vt 0.8625781 0.4475613
vt 0.8586701 0.4500991
vt 0.8447928 0.4508263
vt 0.840641 0.4487108
vt 0.9750052 0.2103226
vt 1.051196 -0.3408097
vt 1.051196 -0.5448447
vt 1.051196 -0.5448446
vt 1.051196 -0.5448451
vt 1.051196 -0.5448446
vt 1.051196 -0.5448446
vt 1.003419 -0.3408097
vt 1.003419 -0.5448447
vt 1.003419 -0.5448446
vt 1.003419 -0.5448451
vt 1.003419 -0.5448446
vt 1.003419 -0.5448446
vt 1.108193 0.05631481
vt 2.397371 -0.7161868
vt 2.426406 -0.7161868
vt 2.426406 -0.5251293
vt 2.397371 -0.5251293
vt 2.397372 -0.7161868
vt 2.397372 -0.5251293
vt 2.397371 -0.7161868
vt 2.397371 -0.5251293
vt 2.397371 -0.7161868
vt 2.397371 -0.5251293
vt 2.397372 -0.7161868
vt 2.397372 -0.5251293
vt 1.048687 0.502299
vt 1.079184 0.5022981
vt 1.048686 0.461271
vt 1.079184 0.4612705
vt 1.048686 0.4202433
vt 1.079184 0.4202426
vt 1.048686 0.3792156
vt 1.079184 0.3792148
vt 1.048686 0.3381879
vt 1.079184 0.3381872
vt 1.079183 0.2971594
vt 1.048686 0.2971602
vt 0.8626363 0.6728942
vt 0.8756202 0.6504127
vt 0.8366747 0.6728904
vt 0.8236971 0.650405
vt 0.8366814 0.6279235
vt 0.8626429 0.6279274
vt 0.9971328 0.7173472
vt 0.9971328 0.796339
vt 0.08030345 0.482805
vt 0.08030345 0.4272922
vt 0.08030352 0.4828049
vt 0.08030352 0.4272923
vt 0.846292 0.4197391
vt 0.8398775 0.4239045
vt 0.8607445 0.4228111
vt 0.8539298 0.4193388
vt 0.8649101 0.4292255
vt 0.8364053 0.4307192
vt 0.08030345 0.482805
vt 0.08030345 0.4272922
vt 0.03384853 0.4272922
vt 0.03384853 0.482805
vt 0.08030319 0.1394223
vt 0.08030319 0.1107298
vt 0.03384878 0.1107298
vt 0.03384878 0.1394223
vt 0.08030355 0.4828049
vt 0.08030355 0.4272923
vt 0.03384842 0.4272923
vt 0.03384842 0.4828049
vt 0.03384876 0.1107298
vt 0.03384876 0.1394223
vt 0.08030321 0.1394223
vt 0.08030321 0.1107298
vt 0.08030355 0.4828048
vt 0.08030355 0.4272923
vt 0.03384842 0.4272923
vt 0.03384842 0.4828048
vt 0.03384861 0.11073
vt 0.03384861 0.1394221
vt 0.08030336 0.1394221
vt 0.08030336 0.11073
vt 0.03384858 0.7599812
vt 0.03384858 0.7938021
vt 0.08030339 0.7938021
vt 0.08030339 0.7599812
vt 0.03384853 0.7599812
vt 0.03384853 0.7938021
vt 0.08030345 0.7938021
vt 0.08030345 0.7599812
vt 0.03384859 0.7599812
vt 0.03384859 0.7938021
vt 0.08030337 0.7938021
vt 0.08030337 0.7599812
vt 0.03384858 0.7599812
vt 0.03384858 0.7938021
vt 0.08030339 0.7938021
vt 0.08030339 0.7599812
vt 0.03384844 0.7599814
vt 0.03384844 0.793802
vt 0.08030353 0.793802
vt 0.08030353 0.7599814
vt 0.03384861 0.7599812
vt 0.03384861 0.7938021
vt 0.08030336 0.7938021
vt 0.08030336 0.7599812
vt 0.03384878 0.1107298
vt 0.03384878 0.1394223
vt 0.08030319 0.1394223
vt 0.08030319 0.1107298
vt 0.08030322 0.1394223
vt 0.08030322 0.1107299
vt 0.03384874 0.1107299
vt 0.03384874 0.1394223
vt 0.03384857 0.11073
vt 0.03384857 0.1394221
vt 0.0803034 0.1394221
vt 0.0803034 0.11073
vt 0.08030334 0.1394221
vt 0.08030334 0.11073
vt 0.03384863 0.11073
vt 0.03384863 0.1394221
vt 0.08030331 0.1394222
vt 0.08030331 0.1107299
vt 0.03384866 0.1107299
vt 0.03384866 0.1394222
vt 0.03384871 0.1107299
vt 0.03384871 0.1394223
vt 0.08030327 0.1394223
vt 0.08030327 0.1107299
vt 0.08030336 0.1394222
vt 0.08030336 0.11073
vt 0.03384861 0.11073
vt 0.03384861 0.1394222
vt 0.03384867 0.1107299
vt 0.03384867 0.1394222
vt 0.0803033 0.1394222
vt 0.0803033 0.1107299
vt 0.03384863 0.1107299
vt 0.03384863 0.1394222
vt 0.08030334 0.1394222
vt 0.08030334 0.1107299
vt 1.079918 0.193076
vt 1.079918 0.2275699
vt 1.079918 0.1930759
vt 1.079918 0.22757
vt 1.079918 0.1930763
vt 1.079918 0.22757
vt 1.079918 0.1930758
vt 1.079918 0.2275697
vt 1.079918 0.1930764
vt 1.079918 0.2275703
vt 1.079918 0.1930755
vt 1.079918 0.2275697
vt 1.079918 0.1930763
vt 1.079918 0.2275701
vt 1.079918 0.193076
vt 1.079918 0.2275698
vt 1.079918 0.1930761
vt 1.079918 0.2275698
vt 1.079918 0.1930757
vt 1.079918 0.2275694
vt 1.079918 0.1930757
vt 1.079918 0.2275698
vt 1.079918 0.193076
vt 1.079918 0.2275699
vt 1.051196 -0.3408096
vt 1.003419 -0.3408096
vt 1.051196 -0.3408093
vt 1.003419 -0.3408093
vt 1.051196 -0.3408097
vt 1.003419 -0.3408097
vt 1.051196 -0.3408097
vt 1.003419 -0.3408097
vt 1.051196 -0.3408095
vt 1.003419 -0.3408095
vt 1.003419 -0.5448448
vt 1.051196 -0.5448448
vt 1.036638 0.08306763
vt 1.036638 0.0284444
vt 1.036638 0.0284444
vt 1.036638 0.08306763
vt 1.036638 0.08306763
vt 1.036638 0.0284444
vt 1.036638 0.0284444
vt 1.036638 0.08306763
vt 1.036638 0.0284444
vt 1.036638 0.08306763
vt 2.426406 -0.5251293
vt 2.426406 -0.7161868
vt 2.426407 -0.5251293
vt 2.426407 -0.7161868
vt 2.426406 -0.5251293
vt 2.426406 -0.7161868
vt 2.426406 -0.5251293
vt 2.426406 -0.7161868
vt 2.397371 -0.7161868
vt 2.397371 -0.5251293
vt 2.426406 -0.5251293
vt 2.426406 -0.7161868
vn 0.5000004 0 -0.8660251
vn -0.5000004 0 -0.8660251
vn -1 0 0
vn -0.4999998 0 0.8660256
vn 0.4999998 0 0.8660256
vn 0.8660254 0 -0.4999999
vn 0.8660254 0 -0.4999999
vn 0.5000004 0 -0.8660251
vn -0.5000004 0 -0.8660251
vn -1 0 0
vn -0.4999998 0 0.8660256
vn 0.4999998 0 0.8660256
vn 0.5347496 0 0.8450106
vn 0.5347502 0 0.8450102
vn 0.8450115 0 0.5347483
vn 0.8450111 0 0.5347488
vn 0 -1 0
vn 0 -1 0
vn 0 -1 0
vn 0 -1 -2.27807E-07
vn 0 -1 -2.27807E-07
vn 0 -1 2.278087E-07
vn 0 -1 -2.278079E-07
vn 0 -1 -2.27807E-07
vn 0 -1 -2.27807E-07
vn 0 -1 0
vn 0 -1 2.278087E-07
vn 0 -1 -2.278079E-07
vn 0 -1 -2.278079E-07
vn 0 -1 -2.278079E-07
vn 0 -1 2.278087E-07
vn 0 -1 2.278087E-07
vn 0 -1 -2.278112E-07
vn 0 -1 0
vn 0 -1 0
vn 0 -1 0
vn 0 -1 -2.278112E-07
vn 0 -1 -2.278112E-07
vn -0.4644265 0 0.8856117
vn -0.04060055 0 0.9991754
vn -0.9991755 0 0.04059861
vn -0.8856093 0 0.464431
vn 2.449671E-06 1 -9.795792E-06
vn 2.449671E-06 1 -9.795792E-06
vn 0 1 -1.139058E-07
vn 0 1 -1.139058E-07
vn 0 1 0
vn 0 1 0
vn 0 1 0
vn 0 1 0
vn 0 1 -1.012123E-07
vn 0 1 0
vn 0 1 0
vn 0 1 0
vn 0 1 0
vn 0 1 0
vn 0 1 0
vn 0 1 0
vn 0 1 1.139046E-07
vn 0 1 1.139045E-07
vn 0 -1 0
vn 0.2863433 0 0.9581271
vn 0.2863433 0 0.9581271
vn -0.6865907 0 0.7270442
vn -0.972934 0 -0.231083
vn -0.286341 0 -0.9581278
vn 0.6865902 0 -0.7270447
vn 0.2863433 0 0.9581271
vn 0.2863433 0 0.9581271
vn -0.6865907 0 0.7270442
vn -0.972934 0 -0.231083
vn -0.286341 0 -0.9581278
vn 0.6865902 0 -0.7270447
vn 0 -1 0
vn 0.9659267 0 0.2588159
vn 0.9659267 0 0.2588158
vn 0.9659267 0 0.2588158
vn 0.9659267 0 0.2588159
vn 0.7071153 0 -0.7070982
vn 0.7071153 0 -0.7070982
vn -0.2588146 0 -0.9659271
vn -0.2588146 0 -0.9659271
vn -0.9659222 0 -0.258833
vn -0.9659222 0 -0.258833
vn -0.7071061 0 0.7071074
vn -0.7071061 0 0.7071074
vn 0 0 -1
vn 0 0 -1
vn -0.8660254 0 -0.4999999
vn -0.8660254 0 -0.4999999
vn -0.8660253 0 0.5000004
vn -0.8660253 0 0.5000004
vn 0 0 1
vn 0 0 1
vn 0.8660253 0 0.5000004
vn 0.8660253 0 0.5000004
vn 1 0 0
vn 1 0 0
vn 0 1 0
vn 0 1 0
vn 0 1 0
vn 0 1 0
vn 0 1 0
vn 0 1 -1.851225E-07
vn 0 -1 0
vn 0 -1 -2.278112E-07
vn -0.4644265 0 0.8856117
vn -0.04060055 0 0.9991754
vn -0.9991755 0 0.04060013
vn -0.8856093 0 0.464431
vn 3.850485E-07 1 -8.749891E-06
vn 1.639532E-07 1 -5.507065E-06
vn 0 1 -4.85907E-06
vn 0 1 -7.228069E-06
vn 0 1 -1.503301E-06
vn 0 1 -1.503302E-06
vn -0.534749 0 -0.8450109
vn -0.8450133 0 -0.5347454
vn -0.8450133 0 -0.5347454
vn -0.534749 0 -0.8450109
vn 0.8856093 0 -0.464431
vn 0.604735 0 -0.7964268
vn 0.604735 0 -0.7964268
vn 0.8856093 0 -0.464431
vn 0.4644264 0 -0.8856117
vn 0.04060153 0 -0.9991754
vn 0.04060153 0 -0.9991754
vn 0.4644264 0 -0.8856117
vn -0.534749 0 -0.8450109
vn -0.1255037 0 -0.9920931
vn -0.1255037 0 -0.9920931
vn -0.534749 0 -0.8450109
vn 0.9991754 0 -0.04060081
vn 0.8856093 0 -0.464431
vn 0.8856093 0 -0.464431
vn 0.9991754 0 -0.04060081
vn 0.8450111 0 0.5347488
vn 0.9920929 0 0.1255056
vn 0.9920929 0 0.1255056
vn 0.8450115 0 0.5347483
vn 0.2588156 0 0.9659268
vn 0.2588156 0 0.9659268
vn 0.2588156 0 0.9659268
vn 0.2588156 0 0.9659268
vn -0.7071 0 0.7071135
vn -0.7071 0 0.7071135
vn -0.7071 0 0.7071135
vn -0.7071 0 0.7071135
vn -0.9659266 0 -0.2588161
vn -0.9659266 0 -0.2588161
vn -0.9659266 0 -0.2588161
vn -0.9659266 0 -0.2588161
vn -0.2588166 0 -0.9659265
vn -0.2588166 0 -0.9659265
vn -0.2588166 0 -0.9659265
vn -0.2588166 0 -0.9659265
vn 0.7071068 0 -0.7071068
vn 0.7071068 0 -0.7071068
vn 0.7071068 0 -0.7071068
vn 0.7071068 0 -0.7071068
vn 0.9659232 0 0.258829
vn 0.9659232 0 0.258829
vn 0.9659232 0 0.258829
vn 0.9659232 0 0.258829
vn -0.9991755 0 0.04059861
vn -0.9219309 0 -0.3873543
vn -0.9219309 0 -0.3873543
vn -0.9991755 0 0.04060013
vn 0.04060153 0 -0.9991754
vn -0.387339 0 -0.9219374
vn -0.387339 0 -0.9219374
vn 0.04060153 0 -0.9991754
vn -0.4644265 0 0.8856117
vn -0.7964279 0 0.6047335
vn -0.7964279 0 0.6047335
vn -0.4644265 0 0.8856117
vn -0.8450133 0 -0.5347454
vn -0.9920928 0 -0.1255058
vn -0.9920928 0 -0.1255058
vn -0.8450133 0 -0.5347454
vn -0.8856093 0 0.464431
vn -0.6047426 0 0.7964209
vn -0.6047426 0 0.7964209
vn -0.8856093 0 0.464431
vn 0.9991754 0 -0.04060081
vn 0.9219364 0 0.3873411
vn 0.9219364 0 0.3873411
vn 0.9991754 0 -0.04060081
vn -0.04060055 0 0.9991754
vn 0.3873468 0 0.9219341
vn 0.3873468 0 0.9219341
vn -0.04060055 0 0.9991754
vn 0.4644264 0 -0.8856117
vn 0.7964202 0 -0.6047437
vn 0.7964202 0 -0.6047437
vn 0.4644264 0 -0.8856117
vn 0.5347502 0 0.8450102
vn 0.1255073 0 0.9920927
vn 0.1255073 0 0.9920927
vn 0.5347496 0 0.8450106
vn 0 -1 0
vn 0 -1 0
vn 0 -1 0
vn 0 -1 -1.880181E-07
vn 0 -1 -1.880181E-07
vn 0 -1 0
vn 0 -1 0
vn 0 -1 -1.117768E-07
vn 0 -1 -1.117768E-07
vn 0 -1 0
vn 0 -1 0
vn 0 -1 0
vn 0 -1 0
vn 0 -1 0
vn 0 -1 0
vn 0 -1 0
vn 0 -1 0
vn 0 -1 0
vn 0 -1 0
vn 0 -1 0
vn 0 -1 0
vn 0 -1 0
vn 0 -1 0
vn 0 -1 0
vn -0.6865907 0 0.7270442
vn -0.6865907 0 0.7270442
vn -0.972934 0 -0.231083
vn -0.972934 0 -0.231083
vn -0.286341 0 -0.9581278
vn -0.286341 0 -0.9581278
vn 0.6865902 0 -0.7270447
vn 0.6865902 0 -0.7270447
vn 0.9729342 0 0.2310822
vn 0.9729342 0 0.2310822
vn 0.9729342 0 0.2310822
vn 0.9729342 0 0.2310822
vn 0 -1 0
vn 0 -1 0
vn 0 -1 0
vn 0 -1 0
vn 0 -1 0
vn 0 -1 0
vn 0 -1 0
vn 0 -1 0
vn 0 -1 0
vn 0 -1 0
vn 0.7071152 0 -0.7070983
vn 0.7071152 0 -0.7070983
vn -0.2588147 0 -0.9659271
vn -0.2588147 0 -0.9659271
vn -0.9659222 0 -0.2588329
vn -0.9659222 0 -0.2588329
vn -0.7071061 5.878637E-06 0.7071075
vn -0.7071061 5.878637E-06 0.7071075
vn 0.2588146 0 0.9659271
vn 0.2588146 0 0.9659271
vn 0.2588147 0 0.9659271
vn 0.2588147 0 0.9659271
g Chap01_BD_AirFortress_11_SC_0
f 8/8/8 7/7/7 6/6/6
f 1/1/1 8/8/8 6/6/6
f 9/9/9 88/88/88 87/87/87
f 2/2/2 9/9/9 87/87/87
f 10/10/10 90/90/90 89/89/89
f 3/3/3 10/10/10 89/89/89
f 11/11/11 92/92/92 91/91/91
f 4/4/4 11/11/11 91/91/91
f 12/12/12 94/94/94 93/93/93
f 5/5/5 12/12/12 93/93/93
f 97/97/97 96/96/96 95/95/95
f 98/98/98 97/97/97 95/95/95
f 101/101/101 100/100/100 99/99/99
f 102/102/102 100/100/100 101/101/101
f 103/103/103 100/100/100 102/102/102
f 104/104/104 100/100/100 103/103/103
f 15/15/15 16/16/16 13/13/13
f 14/14/14 15/15/15 13/13/13
f 18/18/18 19/19/19 105/105/105
f 17/17/17 18/18/18 105/105/105
f 21/21/21 20/20/20 24/24/24
f 25/25/25 21/21/21 24/24/24
f 23/23/23 28/28/28 29/29/29
f 30/30/30 23/23/23 29/29/29
f 27/27/27 22/22/22 31/31/31
f 32/32/32 27/27/27 31/31/31
f 26/26/26 34/34/34 35/35/35
f 36/36/36 26/26/26 35/35/35
f 33/33/33 106/106/106 37/37/37
f 38/38/38 33/33/33 37/37/37
f 40/40/40 108/108/108 107/107/107
f 39/39/39 40/40/40 107/107/107
f 42/42/42 110/110/110 109/109/109
f 41/41/41 42/42/42 109/109/109
f 43/43/43 44/44/44 111/111/111
f 112/112/112 43/43/43 111/111/111
f 113/113/113 112/112/112 111/111/111
f 114/114/114 113/113/113 111/111/111
f 113/113/113 114/114/114 45/45/45
f 46/46/46 113/113/113 45/45/45
f 112/112/112 113/113/113 115/115/115
f 116/116/116 112/112/112 115/115/115
f 116/116/116 115/115/115 47/47/47
f 48/48/48 116/116/116 47/47/47
f 47/47/47 115/115/115 49/49/49
f 50/50/50 47/47/47 49/49/49
f 48/48/48 47/47/47 51/51/51
f 52/52/52 48/48/48 51/51/51
f 116/116/116 48/48/48 53/53/53
f 54/54/54 116/116/116 53/53/53
f 52/52/52 51/51/51 55/55/55
f 56/56/56 52/52/52 55/55/55
f 55/55/55 51/51/51 57/57/57
f 58/58/58 55/55/55 57/57/57
f 52/52/52 56/56/56 59/59/59
f 60/60/60 52/52/52 59/59/59
f 119/119/119 118/118/118 117/117/117
f 120/120/120 119/119/119 117/117/117
f 123/123/123 122/122/122 121/121/121
f 124/124/124 123/123/123 121/121/121
f 127/127/127 126/126/126 125/125/125
f 128/128/128 127/127/127 125/125/125
f 131/131/131 130/130/130 129/129/129
f 132/132/132 131/131/131 129/129/129
f 135/135/135 134/134/134 133/133/133
f 136/136/136 135/135/135 133/133/133
f 139/139/139 138/138/138 137/137/137
f 140/140/140 139/139/139 137/137/137
f 143/143/143 142/142/142 141/141/141
f 144/144/144 143/143/143 141/141/141
f 147/147/147 146/146/146 145/145/145
f 148/148/148 147/147/147 145/145/145
f 151/151/151 150/150/150 149/149/149
f 152/152/152 151/151/151 149/149/149
f 155/155/155 154/154/154 153/153/153
f 156/156/156 155/155/155 153/153/153
f 159/159/159 158/158/158 157/157/157
f 160/160/160 159/159/159 157/157/157
f 163/163/163 162/162/162 161/161/161
f 164/164/164 163/163/163 161/161/161
f 167/167/167 166/166/166 165/165/165
f 168/168/168 167/167/167 165/165/165
f 171/171/171 170/170/170 169/169/169
f 172/172/172 171/171/171 169/169/169
f 175/175/175 174/174/174 173/173/173
f 176/176/176 175/175/175 173/173/173
f 179/179/179 178/178/178 177/177/177
f 180/180/180 179/179/179 177/177/177
f 183/183/183 182/182/182 181/181/181
f 184/184/184 183/183/183 181/181/181
f 187/187/187 186/186/186 185/185/185
f 188/188/188 187/187/187 185/185/185
f 191/191/191 190/190/190 189/189/189
f 192/192/192 191/191/191 189/189/189
f 195/195/195 194/194/194 193/193/193
f 196/196/196 195/195/195 193/193/193
f 199/199/199 198/198/198 197/197/197
f 200/200/200 199/199/199 197/197/197
f 202/202/202 61/61/61 201/201/201
f 204/204/204 61/61/61 203/203/203
f 206/206/206 61/61/61 205/205/205
f 208/208/208 61/61/61 207/207/207
f 210/210/210 61/61/61 209/209/209
f 212/212/212 61/61/61 211/211/211
f 214/214/214 61/61/61 213/213/213
f 216/216/216 61/61/61 215/215/215
f 218/218/218 61/61/61 217/217/217
f 220/220/220 61/61/61 219/219/219
f 222/222/222 61/61/61 221/221/221
f 224/224/224 61/61/61 223/223/223
f 69/69/69 68/68/68 62/62/62
f 63/63/63 69/69/69 62/62/62
f 70/70/70 226/226/226 225/225/225
f 64/64/64 70/70/70 225/225/225
f 71/71/71 228/228/228 227/227/227
f 65/65/65 71/71/71 227/227/227
f 72/72/72 230/230/230 229/229/229
f 66/66/66 72/72/72 229/229/229
f 73/73/73 232/232/232 231/231/231
f 67/67/67 73/73/73 231/231/231
f 235/235/235 234/234/234 233/233/233
f 236/236/236 235/235/235 233/233/233
f 74/74/74 238/238/238 237/237/237
f 240/240/240 239/239/239 74/74/74
f 74/74/74 242/242/242 241/241/241
f 74/74/74 241/241/241 243/243/243
f 245/245/245 74/74/74 244/244/244
f 74/74/74 239/239/239 246/246/246
f 77/77/77 78/78/78 75/75/75
f 76/76/76 77/77/77 75/75/75
f 247/247/247 80/80/80 79/79/79
f 248/248/248 247/247/247 79/79/79
f 249/249/249 82/82/82 81/81/81
f 250/250/250 249/249/249 81/81/81
f 251/251/251 84/84/84 83/83/83
f 252/252/252 251/251/251 83/83/83
f 253/253/253 86/86/86 85/85/85
f 254/254/254 253/253/253 85/85/85
f 257/257/257 256/256/256 255/255/255
f 258/258/258 257/257/257 255/255/255
