g Chap01_Prop_Grp_10_Collider
v -0.6004137 0.008104375 -0.9962497
v 0.8523008 0.008100598 -0.8781848
v -0.6004137 2.381175 -0.9962497
v 0.8523008 2.381175 -0.8781848
v 0.8510122 2.381175 -0.1573764
v -0.6004137 2.381175 -0.9962497
v 0.8523008 2.381175 -0.8781848
v -1.17976 2.381175 -0.1867041
v -1.084875 2.381175 0.8598148
v 1.207433 2.381175 0.6662957
v -0.8326842 2.381175 0.9800621
v 1.018369 2.381175 0.9434565
v 1.018369 0.008107286 0.9434565
v -0.8326842 0.00810635 0.9800621
v 1.018369 2.381175 0.9434565
v -0.8326842 2.381175 0.9800621
v 0.8510122 5.400409E-08 -0.1573764
v 1.207433 0.007191306 0.6662957
v 0.8510122 2.381175 -0.1573764
v 1.207433 2.381175 0.6662957
v -1.17976 0.008105119 -0.1867041
v -0.6004137 0.008104375 -0.9962497
v -1.17976 2.381175 -0.1867041
v -0.6004137 2.381175 -0.9962497
v 0.8523008 2.381175 -0.8781848
v 0.8523008 0.008100598 -0.8781848
v 0.8510122 2.381175 -0.1573764
v 0.8510122 5.400409E-08 -0.1573764
v 0.8510122 5.400409E-08 -0.1573764
v 0.8523008 0.008100598 -0.8781848
v -0.6004137 0.008104375 -0.9962497
v -1.17976 0.008105119 -0.1867041
v -1.084875 0.008106189 0.8598148
v 1.207433 0.007191306 0.6662957
v -0.8326842 0.00810635 0.9800621
v 1.018369 0.008107286 0.9434565
v -1.17976 0.008105119 -0.1867041
v -1.17976 2.381175 -0.1867041
v -1.084875 0.008106189 0.8598148
v -1.084875 2.381175 0.8598148
v 1.207433 0.007191306 0.6662957
v 1.018369 0.008107286 0.9434565
v 1.207433 2.381175 0.6662957
v 1.018369 2.381175 0.9434565
v -1.084875 0.008106189 0.8598148
v -1.084875 2.381175 0.8598148
v -0.8326842 0.00810635 0.9800621
v -0.8326842 2.381175 0.9800621
vt 0.4375 0
vt 0.4869177 0.4738355
vt 0.4375 0.25
vt 0.4869177 0.4079452
vt 0.59375 0.25
vt 0.4375 0.25
vt 0.5329452 0.4539726
vt 0.4687531 0.25
vt 0.5139195 0.25
vt 0.5660309 0.25
vt 0.5207302 0.25
vt 0.5604103 0.25
vt 0.5604103 1.496747E-07
vt 0.5207301 0
vt 0.5604103 0.25
vt 0.5207302 0.25
vt 0.59375 0
vt 0.5660309 3.219255E-09
vt 0.59375 0.25
vt 0.5660309 0.25
vt 0.4687531 1.898222E-10
vt 0.4375 0
vt 0.4687531 0.25
vt 0.4375 0.25
vt 0.4869177 0.4079452
vt 0.4869177 0.4738355
vt 0.59375 0.25
vt 0.59375 0
vt 0.59375 1
vt 0.5329452 0.7960274
vt 0.4375 1
vt 0.4687531 1
vt 0.5139195 1
vt 0.5660309 1
vt 0.5207303 1
vt 0.5604103 1
vt 0.4687531 1.898222E-10
vt 0.4687531 0.25
vt 0.5139194 5.962262E-08
vt 0.5139195 0.25
vt 0.5660309 3.219255E-09
vt 0.5604103 1.496747E-07
vt 0.5660309 0.25
vt 0.5604103 0.25
vt 0.5139194 5.962262E-08
vt 0.5139195 0.25
vt 0.5207301 0
vt 0.5207302 0.25
vn 0.08100485 0 -0.9967138
vn 0.08100485 0 -0.9967138
vn 0.08100484 0 -0.9967138
vn 0.08100484 0 -0.9967138
vn 0 1 -3.729897E-07
vn 0 1 -3.729897E-07
vn 0 1 -3.729897E-07
vn 0 1 0
vn 0 1 7.642565E-07
vn 0 1 7.642565E-07
vn 0 1 7.642565E-07
vn 0 1 7.642565E-07
vn 0.0197717 0 0.9998046
vn 0.0197717 0 0.9998046
vn 0.0197717 0 0.9998046
vn 0.0197717 0 0.9998046
vn 0.9177602 0 -0.397135
vn 0.9177602 0 -0.397135
vn 0.9177602 0 -0.397135
vn 0.9177602 0 -0.397135
vn -0.8132105 0 -0.5819696
vn -0.8132105 0 -0.5819696
vn -0.8132106 0 -0.5819696
vn -0.8132106 0 -0.5819696
vn 0.9999985 0 0.001787719
vn 0.9999985 0 0.001787719
vn 0.9999985 0 0.001787719
vn 0.9999985 0 0.001787719
vn 0.0009105556 -0.9999365 -0.0112358
vn 0.0009105556 -0.9999365 -0.0112358
vn 0.0009105557 -0.9999365 -0.0112358
vn -0.003950263 -0.9999882 -0.002826066
vn -0.001922756 -0.9999889 0.004309716
vn -0.001922756 -0.9999889 0.004309717
vn -9.173426E-05 -0.9999974 0.002319862
vn -9.173426E-05 -0.9999974 0.002319862
vn -0.9959149 0 0.09029711
vn -0.9959149 0 0.0902971
vn -0.9959149 0 0.0902971
vn -0.9959149 0 0.0902971
vn 0.8261007 0 0.5635226
vn 0.8261007 0 0.5635226
vn 0.8261007 0 0.5635226
vn 0.8261007 0 0.5635226
vn -0.4303896 0 0.9026432
vn -0.4303896 0 0.9026432
vn -0.4303897 0 0.9026432
vn -0.4303896 0 0.9026432
g Chap01_Prop_Grp_10_Collider_0
f 3/3/3 2/2/2 1/1/1
f 3/3/3 4/4/4 2/2/2
f 7/7/7 6/6/6 5/5/5
f 6/6/6 8/8/8 5/5/5
f 9/9/9 5/5/5 8/8/8
f 9/9/9 10/10/10 5/5/5
f 11/11/11 10/10/10 9/9/9
f 11/11/11 12/12/12 10/10/10
f 15/15/15 14/14/14 13/13/13
f 15/15/15 16/16/16 14/14/14
f 19/19/19 18/18/18 17/17/17
f 19/19/19 20/20/20 18/18/18
f 23/23/23 22/22/22 21/21/21
f 23/23/23 24/24/24 22/22/22
f 27/27/27 26/26/26 25/25/25
f 27/27/27 28/28/28 26/26/26
f 31/31/31 30/30/30 29/29/29
f 32/32/32 31/31/31 29/29/29
f 33/33/33 32/32/32 29/29/29
f 33/33/33 29/29/29 34/34/34
f 34/34/34 35/35/35 33/33/33
f 34/34/34 36/36/36 35/35/35
f 39/39/39 38/38/38 37/37/37
f 39/39/39 40/40/40 38/38/38
f 43/43/43 42/42/42 41/41/41
f 43/43/43 44/44/44 42/42/42
f 47/47/47 46/46/46 45/45/45
f 47/47/47 48/48/48 46/46/46
