g Chap01_Prop_Grp_07_Collider
v -1.284123 0.008104375 0.1543701
v -2.098131 0.008103088 0.1543701
v -1.284123 2.389891 0.1543701
v -2.098131 2.389891 0.1543701
v -0.010235 0.008105861 1.280723
v 1.439718 0.008107336 0.9602425
v 1.590153 0.008108094 0.2178351
v -1.284123 0.008104375 0.1543701
v -0.919192 0.008101097 -1.273617
v -2.098131 0.008103066 -1.025544
v -2.098131 0.008103088 0.1543701
v 2.098131 0.008099159 -1.273617
v 2.077661 0.008108769 0.2178351
v 2.077661 0.008108769 0.2178351
v 2.077661 2.389892 0.2178351
v 2.098131 0.008099159 -1.273617
v 2.098131 2.389892 -1.273617
v -2.098131 2.389891 -1.025544
v -2.098131 2.389891 0.1543701
v -2.098131 0.008103066 -1.025544
v -2.098131 0.008103088 0.1543701
v -2.098131 0.008103066 -1.025544
v -0.919192 0.008101097 -1.273617
v -2.098131 2.389891 -1.025544
v -0.919192 2.389891 -1.273617
v 2.098131 0.008099159 -1.273617
v 2.098131 2.389892 -1.273617
v 2.098131 2.389892 -1.273617
v 2.077661 2.389892 0.2178351
v 1.590153 2.389892 0.2178351
v -0.919192 2.389891 -1.273617
v -1.284123 2.389891 0.1543701
v -2.098131 2.389891 -1.025544
v -2.098131 2.389891 0.1543701
v -0.010235 2.389891 1.280723
v 1.439718 2.389891 0.9602425
v 1.439718 0.008107336 0.9602425
v -0.010235 0.008105861 1.280723
v 1.439718 2.389891 0.9602425
v -0.010235 2.389891 1.280723
v -1.284123 2.389891 0.1543701
v -1.284123 0.008104375 0.1543701
v 1.590153 0.008108094 0.2178351
v 1.439718 0.008107336 0.9602425
v 1.590153 2.389892 0.2178351
v 1.439718 2.389891 0.9602425
v 2.077661 2.389892 0.2178351
v 2.077661 0.008108769 0.2178351
v 1.590153 2.389892 0.2178351
v 1.590153 0.008108094 0.2178351
vt 0.4375 0
vt 0.375 0
vt 0.4375 0.25
vt 0.375 0.25
vt 0.5 1
vt 0.5625 1
vt 0.59375 1
vt 0.4375 1
vt 0.5 0.8125
vt 0.375 0.875
vt 0.375 1
vt 0.625 0.75
vt 0.625 1
vt 0.625 0
vt 0.625 0.25
vt 0.875 0
vt 0.875 0.25
vt 0.25 0.25
vt 0.375 0.25
vt 0.25 0
vt 0.375 0
vt 0.25 0
vt 0.4375 0.375
vt 0.25 0.25
vt 0.4375 0.375
vt 0.625 0.75
vt 0.625 0.5
vt 0.625 0.5
vt 0.625 0.25
vt 0.59375 0.25
vt 0.5 0.4375
vt 0.4375 0.25
vt 0.375 0.375
vt 0.375 0.25
vt 0.5 0.25
vt 0.5625 0.25
vt 0.5625 0
vt 0.5 0
vt 0.5625 0.25
vt 0.5 0.25
vt 0.4375 0.25
vt 0.4375 0
vt 0.59375 0
vt 0.5625 0
vt 0.59375 0.25
vt 0.5625 0.25
vt 0.625 0.25
vt 0.625 0
vt 0.59375 0.25
vt 0.59375 0
vn 0 0 1
vn 0 0 1
vn 0 0 1
vn 0 0 1
vn 1.182171E-06 -1 -3.205011E-07
vn 1.182171E-06 -1 -3.20501E-07
vn 1.182171E-06 -1 -3.205011E-07
vn 1.182171E-06 -1 -3.205011E-07
vn -1.879807E-07 -1 1.239376E-06
vn -1.879807E-07 -1 1.239376E-06
vn -1.879807E-07 -1 1.239377E-06
vn 2.563048E-07 -1 4.259677E-06
vn 1.384032E-06 -1 6.461595E-06
vn 0.9999058 0 0.01372367
vn 0.9999058 0 0.01372367
vn 0.9999058 0 0.01372367
vn 0.9999058 0 0.01372367
vn -1 0 2.586424E-07
vn -1 0 2.586424E-07
vn -1 0 2.586424E-07
vn -1 0 2.586424E-07
vn -0.2059115 0 -0.9785706
vn -0.05901452 0 -0.9982571
vn -0.2059115 0 -0.9785706
vn -0.05901458 0 -0.9982571
vn 0 0 -1
vn 0 0 -1
vn 0 1 0
vn 0 1 0
vn 0 1 0
vn 0 1 0
vn 0 1 2.21689E-07
vn 0 1 0
vn 0 1 0
vn 0 1 2.216891E-07
vn 0 1 2.21689E-07
vn 0.2158193 0 0.9764333
vn -0.2837032 0 0.9589122
vn 0.2158194 0 0.9764333
vn -0.2837029 0 0.9589122
vn -0.6623931 0 0.7491564
vn -0.6623931 0 0.7491564
vn 0.9800816 0 0.1985957
vn 0.9800816 0 0.1985957
vn 0.9800816 0 0.1985957
vn 0.9800816 0 0.1985957
vn 1.68208E-07 0 1
vn 1.682079E-07 0 1
vn 1.68208E-07 0 1
vn 1.682079E-07 0 1
g Chap01_Prop_Grp_07_Collider_0
f 3/3/3 2/2/2 1/1/1
f 3/3/3 4/4/4 2/2/2
f 7/7/7 6/6/6 5/5/5
f 7/7/7 5/5/5 8/8/8
f 9/9/9 7/7/7 8/8/8
f 8/8/8 10/10/10 9/9/9
f 8/8/8 11/11/11 10/10/10
f 9/9/9 12/12/12 7/7/7
f 12/12/12 13/13/13 7/7/7
f 16/16/16 15/15/15 14/14/14
f 16/16/16 17/17/17 15/15/15
f 20/20/20 19/19/19 18/18/18
f 20/20/20 21/21/21 19/19/19
f 24/24/24 23/23/23 22/22/22
f 24/24/24 25/25/25 23/23/23
f 25/25/25 26/26/26 23/23/23
f 25/25/25 27/27/27 26/26/26
f 30/30/30 29/29/29 28/28/28
f 30/30/30 28/28/28 31/31/31
f 30/30/30 31/31/31 32/32/32
f 33/33/33 32/32/32 31/31/31
f 33/33/33 34/34/34 32/32/32
f 35/35/35 30/30/30 32/32/32
f 35/35/35 36/36/36 30/30/30
f 39/39/39 38/38/38 37/37/37
f 39/39/39 40/40/40 38/38/38
f 41/41/41 38/38/38 40/40/40
f 41/41/41 42/42/42 38/38/38
f 45/45/45 44/44/44 43/43/43
f 45/45/45 46/46/46 44/44/44
f 49/49/49 48/48/48 47/47/47
f 49/49/49 50/50/50 48/48/48
