g Chap01_Prop_Grp_21_Collider
v 0.1167484 0.01407875 1.692106
v 0.6633582 0.01407875 1.767013
v 0.1167484 0.6345087 1.692106
v 0.6633582 0.6345087 1.767013
v 0.07362585 0.01407875 1.16142
v 0.07362585 0.6345087 1.16142
v -1.149739 0.01407875 1.020975
v -1.149739 0.6345087 1.020975
v -1.54607 0.01407875 0.01534632
v -1.54607 0.6345087 0.01534632
v -2.058184 0.01407875 -0.5865282
v -2.058184 0.6345087 -0.5865282
v -1.452269 0.01407875 -1.099347
v -1.452269 0.6345087 -1.099347
v -0.8101728 0.01407875 -1.233866
v -0.8101728 0.6345087 -1.233866
v -0.3050326 0.01407875 -1.470153
v -0.3050326 0.6345087 -1.470153
v 0.6308821 0.01407875 -1.756318
v 0.6308821 0.6345087 -1.756318
v 1.225603 0.01407875 -0.8156375
v 1.225603 0.6345087 -0.8156375
v 1.927966 0.01407875 -0.8389728
v 1.927966 0.6345087 -0.8389728
v 2.033216 0.01407875 -0.5150694
v 2.033216 0.6345087 -0.5150694
v 2.073627 0.01407875 0.503359
v 2.073627 0.6345087 0.503359
v 1.985814 0.01407875 0.6950601
v 1.985814 0.6345087 0.6950601
v 0.9247934 0.01407875 0.7670092
v 0.9247934 0.6345087 0.7670092
v 0.1167484 0.01407875 1.692106
v 0.1167484 0.6345087 1.692106
v 0.07362585 0.01407875 1.16142
v 0.07362585 0.6345087 1.16142
v -1.149739 0.01407875 1.020975
v -1.149739 0.6345087 1.020975
v -1.54607 0.01407875 0.01534632
v -1.54607 0.6345087 0.01534632
v -2.058184 0.01407875 -0.5865282
v -2.058184 0.6345087 -0.5865282
v -1.452269 0.01407875 -1.099347
v -1.452269 0.6345087 -1.099347
v -0.8101728 0.01407875 -1.233866
v -0.8101728 0.6345087 -1.233866
v -0.3050326 0.01407875 -1.470153
v -0.3050326 0.6345087 -1.470153
v 0.6308821 0.01407875 -1.756318
v 0.6308821 0.6345087 -1.756318
v 1.225603 0.01407875 -0.8156375
v 1.225603 0.6345087 -0.8156375
v 1.927966 0.01407875 -0.8389728
v 1.927966 0.6345087 -0.8389728
v 2.033216 0.01407875 -0.5150694
v 2.033216 0.6345087 -0.5150694
v 2.073627 0.01407875 0.503359
v 2.073627 0.6345087 0.503359
v 1.985814 0.01407875 0.6950601
v 1.985814 0.6345087 0.6950601
v 0.9247934 0.01407875 0.7670092
v 0.6633582 0.01407875 1.767013
v 0.6633582 0.6345087 1.767013
v 0.9247934 0.6345087 0.7670092
v 1.985814 0.6345087 0.6950601
v 1.927966 0.6345087 -0.8389728
v 2.033216 0.6345087 -0.5150694
v 2.073627 0.6345087 0.503359
v 1.927966 0.6345087 -0.8389728
v 1.985814 0.6345087 0.6950601
v 0.9247934 0.6345087 0.7670092
v 1.225603 0.6345087 -0.8156375
v -1.452269 0.6345087 -1.099347
v -1.54607 0.6345087 0.01534632
v -2.058184 0.6345087 -0.5865282
v -0.8101728 0.6345087 -1.233866
v -1.149739 0.6345087 1.020975
v -1.54607 0.6345087 0.01534632
v -1.452269 0.6345087 -1.099347
v -1.149739 0.6345087 1.020975
v -0.8101728 0.6345087 -1.233866
v 0.07362585 0.6345087 1.16142
v 0.07362585 0.6345087 1.16142
v 0.9247934 0.6345087 0.7670092
v 0.6633582 0.6345087 1.767013
v 0.1167484 0.6345087 1.692106
v -0.3050326 0.6345087 -1.470153
v 0.6308821 0.6345087 -1.756318
v 1.225603 0.6345087 -0.8156375
v -0.8101728 0.6345087 -1.233866
v 1.225603 0.6345087 -0.8156375
v 0.9247934 0.6345087 0.7670092
v 0.07362585 0.6345087 1.16142
v 1.927966 0.01407875 -0.8389728
v 1.985814 0.01407875 0.6950601
v 2.073627 0.01407875 0.503359
v 2.033216 0.01407875 -0.5150694
v 1.985814 0.01407875 0.6950601
v 1.927966 0.01407875 -0.8389728
v 1.225603 0.01407875 -0.8156375
v 0.9247934 0.01407875 0.7670092
v -0.8101728 0.01407875 -1.233866
v 1.225603 0.01407875 -0.8156375
v 0.6308821 0.01407875 -1.756318
v -0.3050326 0.01407875 -1.470153
v 0.9247934 0.01407875 0.7670092
v 0.07362585 0.01407875 1.16142
v 0.1167484 0.01407875 1.692106
v 0.6633582 0.01407875 1.767013
v -1.54607 0.01407875 0.01534632
v -0.8101728 0.01407875 -1.233866
v -1.452269 0.01407875 -1.099347
v -2.058184 0.01407875 -0.5865282
v -1.54607 0.01407875 0.01534632
v -1.149739 0.01407875 1.020975
v -0.8101728 0.01407875 -1.233866
v 0.07362585 0.01407875 1.16142
v 0.9247934 0.01407875 0.7670092
v -1.149739 0.01407875 1.020975
v 0.9247934 0.01407875 0.7670092
v 1.225603 0.01407875 -0.8156375
v -0.8101728 0.01407875 -1.233866
vt 0.375 0
vt 0.625 0
vt 0.375 0.25
vt 0.625 0.25
vt 0 1
vt 1 1
vt 0 1
vt 1 1
vt 0 1
vt 1 1
vt 0 1
vt 1 1
vt 0 1
vt 1 1
vt 0 1
vt 1 1
vt 0 1
vt 1 1
vt 0 1
vt 1 1
vt 0 1
vt 1 1
vt 0 1
vt 1 1
vt 0 1
vt 1 1
vt 0 1
vt 1 1
vt 0 1
vt 1 1
vt 0 1
vt 1 1
vt 0 0
vt 1 0
vt 0 0
vt 1 0
vt 0 0
vt 1 0
vt 0 0
vt 1 0
vt 0 0
vt 1 0
vt 0 0
vt 1 0
vt 0 0
vt 1 0
vt 0 0
vt 1 0
vt 0 0
vt 1 0
vt 0 0
vt 1 0
vt 0 0
vt 1 0
vt 0 0
vt 1 0
vt 0 0
vt 1 0
vt 0 0
vt 1 0
vt 2.665659E-16 0
vt 0 1
vt 0.6002534 1
vt 0.6002534 0
vt 0 0
vt 0.9999999 0.5044932
vt 0.817124 0.3362583
vt 0.153844 1.005141E-16
vt 0.004376159 0
vt 0 0.9766651
vt 0.6761898 1
vt 0.4514791 7.011799E-16
vt 0 0
vt 0.9973889 0.9955413
vt 1 0
vt 0 2.57826E-16
vt 0.3718237 1
vt 0.4568413 0.5014616
vt 0.3069457 0
vt 0 1.360187E-16
vt 0.03518312 1
vt 0.5403589 0
vt 0.3323049 0
vt 0 0.9023829
vt 1 0.5522525
vt 0.8780869 7.060824E-17
vt 0.6654241 3.306041E-16
vt 0.08407105 0.08239841
vt 0 0.7447766
vt 1 0
vt 0.4296993 0.6913615
vt 0.9704738 0.3662455
vt 1 0
vt 0 0
vt 1 0.2837552
vt 0.8949227 0.1870903
vt 0.2306135 0
vt 0.0295572 2.651551E-16
vt 0 0.9844501
vt 0.4505971 0.9999999
vt 0.7118431 0
vt 0 0
vt 1 0.7447766
vt 0.915929 0.08239841
vt 0.3345759 3.306041E-16
vt 0 0
vt 0.5429109 0.6582977
vt 1 0.498257
vt 0.9401633 0
vt 0 0
vt 0.3463748 0.9999999
vt 0.575315 0.5794142
vt 0.5768347 1.005571E-16
vt 0.3145391 0
vt 0 0.4027641
vt 1 1.302631E-16
vt 0.3940049 0
vt 0 0.2406049
vt 1 6.77958E-17
vt 0.1902016 0
vt 0 0.5945053
vt 0.7632455 0.8511986
vn -0.1357705 0 0.9907403
vn -0.1357705 0 0.9907403
vn -0.1357705 0 0.9907403
vn -0.1357705 0 0.9907403
vn -0.9967148 0 0.08099116
vn -0.9967148 0 0.08099116
vn -0.1140536 0 0.9934745
vn -0.1140536 0 0.9934745
vn -0.9303533 0 0.3666642
vn -0.9303533 0 0.3666642
vn -0.7616136 0 0.6480315
vn -0.7616136 0 0.6480315
vn -0.6460315 0 -0.7633107
vn -0.6460315 0 -0.7633107
vn -0.2050473 0 -0.9787521
vn -0.2050473 0 -0.9787521
vn -0.4237033 0 -0.9058011
vn -0.4237033 0 -0.9058011
vn -0.2923966 0 -0.9562972
vn -0.2923966 0 -0.9562972
vn 0.8452424 0 -0.5343831
vn 0.8452424 0 -0.5343831
vn -0.03320583 0 -0.9994485
vn -0.03320583 0 -0.9994485
vn 0.9510503 0 -0.309036
vn 0.9510503 0 -0.309036
vn 0.9992137 0 -0.03964879
vn 0.9992137 0 -0.03964879
vn 0.9091558 0 0.4164561
vn 0.9091558 0 0.4164561
vn 0.06765578 0 0.9977087
vn 0.06765578 0 0.9977087
vn -0.9967148 0 0.08099116
vn -0.9967148 0 0.08099116
vn -0.1140536 0 0.9934745
vn -0.1140536 0 0.9934745
vn -0.9303533 0 0.3666642
vn -0.9303533 0 0.3666642
vn -0.7616136 0 0.6480315
vn -0.7616136 0 0.6480315
vn -0.6460315 0 -0.7633107
vn -0.6460315 0 -0.7633107
vn -0.2050473 0 -0.9787521
vn -0.2050473 0 -0.9787521
vn -0.4237033 0 -0.9058011
vn -0.4237033 0 -0.9058011
vn -0.2923966 0 -0.9562972
vn -0.2923966 0 -0.9562972
vn 0.8452424 0 -0.5343831
vn 0.8452424 0 -0.5343831
vn -0.03320583 0 -0.9994485
vn -0.03320583 0 -0.9994485
vn 0.9510503 0 -0.309036
vn 0.9510503 0 -0.309036
vn 0.9992137 0 -0.03964879
vn 0.9992137 0 -0.03964879
vn 0.9091558 0 0.4164561
vn 0.9091558 0 0.4164561
vn 0.06765578 0 0.9977087
vn 0.06765578 0 0.9977087
vn 0.9674837 0 0.2529333
vn 0.9674837 0 0.2529333
vn 0.9674837 0 0.2529333
vn 0.9674837 0 0.2529333
vn 0 1 0
vn 0 1 0
vn 0 1 0
vn 0 1 0
vn 0 1 0
vn 0 1 0
vn 0 1 0
vn 0 1 0
vn 0 1 0
vn 0 1 0
vn 0 1 0
vn 0 1 0
vn 0 1 0
vn 0 1 0
vn 0 1 0
vn 0 1 0
vn 0 1 0
vn 0 1 0
vn 0 1 0
vn 0 1 0
vn 0 1 0
vn 0 1 0
vn 0 1 0
vn 0 1 0
vn 0 1 0
vn 0 1 0
vn 0 1 0
vn 0 1 0
vn 0 1 0
vn 0 -1 0
vn 0 -1 0
vn 0 -1 0
vn 0 -1 0
vn 0 -1 0
vn 0 -1 0
vn 0 -1 0
vn 0 -1 0
vn 0 -1 0
vn 0 -1 0
vn 0 -1 0
vn 0 -1 0
vn 0 -1 0
vn 0 -1 0
vn 0 -1 0
vn 0 -1 0
vn 0 -1 0
vn 0 -1 0
vn 0 -1 0
vn 0 -1 0
vn 0 -1 0
vn 0 -1 0
vn 0 -1 0
vn 0 -1 0
vn 0 -1 0
vn 0 -1 0
vn 0 -1 0
vn 0 -1 0
vn 0 -1 0
g Chap01_Prop_Grp_21_Collider_0
f 4/4/4 3/3/3 1/1/1
f 2/2/2 4/4/4 1/1/1
f 6/6/6 5/5/5 33/33/33
f 34/34/34 6/6/6 33/33/33
f 8/8/8 7/7/7 35/35/35
f 36/36/36 8/8/8 35/35/35
f 10/10/10 9/9/9 37/37/37
f 38/38/38 10/10/10 37/37/37
f 12/12/12 11/11/11 39/39/39
f 40/40/40 12/12/12 39/39/39
f 14/14/14 13/13/13 41/41/41
f 42/42/42 14/14/14 41/41/41
f 16/16/16 15/15/15 43/43/43
f 44/44/44 16/16/16 43/43/43
f 18/18/18 17/17/17 45/45/45
f 46/46/46 18/18/18 45/45/45
f 20/20/20 19/19/19 47/47/47
f 48/48/48 20/20/20 47/47/47
f 22/22/22 21/21/21 49/49/49
f 50/50/50 22/22/22 49/49/49
f 24/24/24 23/23/23 51/51/51
f 52/52/52 24/24/24 51/51/51
f 26/26/26 25/25/25 53/53/53
f 54/54/54 26/26/26 53/53/53
f 28/28/28 27/27/27 55/55/55
f 56/56/56 28/28/28 55/55/55
f 30/30/30 29/29/29 57/57/57
f 58/58/58 30/30/30 57/57/57
f 32/32/32 31/31/31 59/59/59
f 60/60/60 32/32/32 59/59/59
f 63/63/63 62/62/62 61/61/61
f 64/64/64 63/63/63 61/61/61
f 67/67/67 66/66/66 65/65/65
f 68/68/68 67/67/67 65/65/65
f 71/71/71 70/70/70 69/69/69
f 72/72/72 71/71/71 69/69/69
f 75/75/75 74/74/74 73/73/73
f 78/78/78 77/77/77 76/76/76
f 79/79/79 78/78/78 76/76/76
f 82/82/82 81/81/81 80/80/80
f 85/85/85 84/84/84 83/83/83
f 86/86/86 85/85/85 83/83/83
f 89/89/89 88/88/88 87/87/87
f 90/90/90 89/89/89 87/87/87
f 92/92/92 91/91/91 76/76/76
f 93/93/93 92/92/92 76/76/76
f 96/96/96 95/95/95 94/94/94
f 97/97/97 96/96/96 94/94/94
f 100/100/100 99/99/99 98/98/98
f 101/101/101 100/100/100 98/98/98
f 104/104/104 103/103/103 102/102/102
f 105/105/105 104/104/104 102/102/102
f 108/108/108 107/107/107 106/106/106
f 109/109/109 108/108/108 106/106/106
f 112/112/112 111/111/111 110/110/110
f 113/113/113 112/112/112 110/110/110
f 116/116/116 115/115/115 114/114/114
f 119/119/119 118/118/118 117/117/117
f 122/122/122 121/121/121 120/120/120
f 119/119/119 122/122/122 120/120/120
