g collision_Chap01_Prop_Des_IceCrystal_01b_Part_09
v -0.04636482 0.03889313 0.09425651
v 0.08658478 -0.0001948547 0.03456903
v 0.03921799 -0.003667755 0.03763865
v 0.1215353 -0.01507706 -0.0313055
v 0.0393557 -0.03899406 -0.09121357
v 0.01780968 -0.04329506 -0.06841915
v -0.02843605 0.1189597 -0.08562908
v -0.009224319 0.120834 -0.1307833
v -0.002152176 0.2823041 -0.1256746
v -0.08598343 -0.007948914 0.006045799
v -0.05186974 0.2438461 -0.08541172
v -0.07515587 0.0154248 0.01478331
v -0.0266246 0.2455334 -0.03357002
v -0.04395805 0.0432727 0.003400345
v 0.009221954 0.2686252 -0.04381161
v -0.1053451 0.01049454 0.04617418
v -0.03186233 0.07627075 0.01953426
v 0.02025482 0.309821 -0.02014687
v -0.03285003 0.07478317 0.02567516
v 0.01396362 0.02556763 0.04960928
v 0.09642906 0.289576 0.004554405
v 0.06108116 -0.01050995 0.005428505
v 0.141608 0.3007614 -0.05729892
v 0.03624161 0.1093826 -0.1296908
v 0.06685554 0.1004514 -0.07730148
v 0.0338546 -0.02877884 -0.05214039
v 0.06092537 0.1103593 -0.07059536
v 0.02592819 -0.02675735 -0.04213585
v 0.05340095 0.1139487 -0.08551819
v 0.03632721 0.1341321 -0.08411674
v 0.02103691 0.1395563 -0.08095577
v 0.006457825 0.1328284 -0.07614895
v 0.04042259 0.2752551 -0.106444
v 0.1071339 0.3295018 -0.1319738
v 0.02437134 0.3361773 -0.1114463
v 0.0128051 0.2843436 -0.1006277
v -0.07113403 -0.1923807 0.1190498
v -0.09340487 -0.16373 0.1319738
v -0.02346449 -0.2575553 0.08416241
v 0.003722839 -0.2823984 0.08740049
v 0.009880046 -0.2881298 0.08793648
v -0.09468368 -0.2551508 -0.04193794
v -0.105143 -0.2272156 -0.008694801
v -0.1109967 -0.2233101 -0.01210098
v -0.1252064 -0.1819852 0.03939237
v -0.141608 -0.1824789 0.008386116
v -0.0646724 -0.201422 0.1139325
v -0.0432515 -0.2304555 0.09873129
v -0.03392174 -0.2373062 0.1029852
v -0.05487255 -0.290465 -0.03519882
v -0.04207653 -0.2919921 -0.01459782
v -0.1406346 -0.1469475 0.07685146
v 0.03117134 -0.3361775 0.0368144
v -0.0303936 -0.3104413 -0.0277948
v -0.07515587 0.0154248 0.01478331
v -0.0266246 0.2455334 -0.03357002
v -0.05186974 0.2438461 -0.08541172
v -0.08598343 -0.007948914 0.006045799
v -0.07515587 0.0154248 0.01478331
v -0.04395805 0.0432727 0.003400345
v -0.1053451 0.01049454 0.04617418
v -0.03186233 0.07627075 0.01953426
v -0.03186233 0.07627075 0.01953426
v -0.04395805 0.0432727 0.003400345
v 0.009221954 0.2686252 -0.04381161
v -0.03285003 0.07478317 0.02567516
v -0.04636482 0.03889313 0.09425651
v -0.03186233 0.07627075 0.01953426
v -0.04636482 0.03889313 0.09425651
v -0.03285003 0.07478317 0.02567516
v -0.04636482 0.03889313 0.09425651
v 0.01396362 0.02556763 0.04960928
v 0.03921799 -0.003667755 0.03763865
v -0.02346449 -0.2575553 0.08416241
v -0.03392174 -0.2373062 0.1029852
v 0.09642906 0.289576 0.004554405
v 0.06685554 0.1004514 -0.07730148
v 0.0338546 -0.02877884 -0.05214039
v 0.06685554 0.1004514 -0.07730148
v 0.06092537 0.1103593 -0.07059536
v 0.03624161 0.1093826 -0.1296908
v -0.009224319 0.120834 -0.1307833
v 0.03624161 0.1093826 -0.1296908
v 0.03632721 0.1341321 -0.08411674
v 0.02103691 0.1395563 -0.08095577
v -0.02843605 0.1189597 -0.08562908
v -0.009224319 0.120834 -0.1307833
v 0.006457825 0.1328284 -0.07614895
v -0.002152176 0.2823041 -0.1256746
v -0.02843605 0.1189597 -0.08562908
v 0.01780968 -0.04329506 -0.06841915
v 0.0338546 -0.02877884 -0.05214039
v 0.0338546 -0.02877884 -0.05214039
v 0.0393557 -0.03899406 -0.09121357
v 0.06108116 -0.01050995 0.005428505
v 0.02592819 -0.02675735 -0.04213585
v 0.08658478 -0.0001948547 0.03456903
v 0.03921799 -0.003667755 0.03763865
v 0.06108116 -0.01050995 0.005428505
v 0.141608 0.3007614 -0.05729892
v 0.06092537 0.1103593 -0.07059536
v 0.02592819 -0.02675735 -0.04213585
v 0.05340095 0.1139487 -0.08551819
v 0.03632721 0.1341321 -0.08411674
v 0.05340095 0.1139487 -0.08551819
v 0.1071339 0.3295018 -0.1319738
v 0.02103691 0.1395563 -0.08095577
v 0.04042259 0.2752551 -0.106444
v 0.006457825 0.1328284 -0.07614895
v -0.002152176 0.2823041 -0.1256746
v 0.04042259 0.2752551 -0.106444
v 0.0128051 0.2843436 -0.1006277
v 0.0128051 0.2843436 -0.1006277
v 0.009221954 0.2686252 -0.04381161
v -0.05186974 0.2438461 -0.08541172
v -0.002152176 0.2823041 -0.1256746
v -0.0266246 0.2455334 -0.03357002
v 0.02025482 0.309821 -0.02014687
v 0.009221954 0.2686252 -0.04381161
v 0.0128051 0.2843436 -0.1006277
v 0.02437134 0.3361773 -0.1114463
v -0.03285003 0.07478317 0.02567516
v 0.02025482 0.309821 -0.02014687
v 0.02025482 0.309821 -0.02014687
v 0.02437134 0.3361773 -0.1114463
v 0.141608 0.3007614 -0.05729892
v 0.09642906 0.289576 0.004554405
v 0.1071339 0.3295018 -0.1319738
v 0.03624161 0.1093826 -0.1296908
v -0.009224319 0.120834 -0.1307833
v -0.09468368 -0.2551508 -0.04193794
v 0.0393557 -0.03899406 -0.09121357
v 0.1215353 -0.01507706 -0.0313055
v -0.105143 -0.2272156 -0.008694801
v -0.1109967 -0.2233101 -0.01210098
v -0.141608 -0.1824789 0.008386116
v 0.01396362 0.02556763 0.04960928
v -0.0432515 -0.2304555 0.09873129
v -0.05487255 -0.290465 -0.03519882
v -0.1252064 -0.1819852 0.03939237
v -0.08598343 -0.007948914 0.006045799
v -0.1053451 0.01049454 0.04617418
v -0.09340487 -0.16373 0.1319738
v -0.1406346 -0.1469475 0.07685146
v -0.1053451 0.01049454 0.04617418
v -0.04636482 0.03889313 0.09425651
v 0.1215353 -0.01507706 -0.0313055
v 0.03117134 -0.3361775 0.0368144
v 0.009880046 -0.2881298 0.08793648
v 0.08658478 -0.0001948547 0.03456903
v 0.01780968 -0.04329506 -0.06841915
v -0.04207653 -0.2919921 -0.01459782
v -0.0303936 -0.3104413 -0.0277948
v 0.0393557 -0.03899406 -0.09121357
v -0.1406346 -0.1469475 0.07685146
v -0.09340487 -0.16373 0.1319738
v -0.07113403 -0.1923807 0.1190498
v -0.1252064 -0.1819852 0.03939237
v -0.0646724 -0.201422 0.1139325
v -0.0432515 -0.2304555 0.09873129
v -0.105143 -0.2272156 -0.008694801
v -0.1109967 -0.2233101 -0.01210098
v -0.141608 -0.1824789 0.008386116
v -0.03392174 -0.2373062 0.1029852
v -0.02346449 -0.2575553 0.08416241
v -0.09468368 -0.2551508 -0.04193794
v -0.05487255 -0.290465 -0.03519882
v -0.04207653 -0.2919921 -0.01459782
v 0.003722839 -0.2823984 0.08740049
v 0.009880046 -0.2881298 0.08793648
v 0.03117134 -0.3361775 0.0368144
v -0.0303936 -0.3104413 -0.0277948
vt 0.865845 0.5756267
vt 0.2447211 0.8196027
vt 0.2472231 0.811678
vt 0.5006903 0.6283401
vt 0.5188558 0.6269408
vt 0.4060445 0.857151
vt 0.4799604 0.5669222
vt 0.4820487 0.5752
vt 0.7223216 0.553254
vt 0.8171829 0.1495108
vt 0.826924 0.1036441
vt 0.8148176 0.1454228
vt 0.8169091 0.1037881
vt 0.590268 0.6508157
vt 0.6315734 0.6522694
vt 0.463844 0.1787176
vt 0.4782888 0.1682982
vt 0.9488229 0.8627487
vt 0.9482466 0.9055635
vt 0.4280808 0.221734
vt 0.5066049 0.7934163
vt 0.4149453 0.3541185
vt 0.3579265 0.3569024
vt 0.3778468 0.8630396
vt 0.3799677 0.8525799
vt 0.4035796 0.8531354
vt 0.787844 0.0002915404
vt 0.7847157 0.02504643
vt 0.4921018 0.1713687
vt 0.493915 0.1671056
vt 0.9965706 0.01406179
vt 0.9970115 0.3828639
vt 0.7203781 0.2877542
vt 0.5843445 0.9513267
vt 0.3751045 0.1762938
vt 0.3844755 0.1753919
vt 0.2098144 0.07508827
vt 0.2132064 0.08088875
vt 0.2935956 0.8109542
vt 0.2968083 0.8165535
vt 0.2975474 0.8178262
vt 0.4135184 0.5692757
vt 0.4170513 0.5623612
vt 0.7284615 0.4612465
vt 0.8163006 0.181011
vt 0.7363263 0.4667109
vt 0.2087565 0.07323977
vt 0.6018003 0.788399
vt 0.6027518 0.790328
vt 0.7407348 0.2572699
vt 0.4515317 0.8570898
vt 0.8604825 0.7705125
vt 0.05958274 0.8071311
vt 0.05568472 0.8228207
vt 0.5838513 0.6548518
vt 0.6257733 0.6572886
vt 0.7316245 0.5441751
vt 0.4703635 0.184026
vt 0.4714541 0.1794106
vt 0.4775927 0.1750046
vt 0.8656502 0.5898015
vt 0.8801495 0.579425
vt 0.9492578 0.9050906
vt 0.9531732 0.9105902
vt 0.9541994 0.8693507
vt 0.8791612 0.5789063
vt 0.865845 0.5756267
vt 0.8801495 0.579425
vt 0.4288967 0.2085167
vt 0.4172014 0.2155561
vt 0.2499993 0.08166649
vt 0.5552582 0.7888235
vt 0.4154896 0.3472517
vt 0.4617588 0.3459123
vt 0.4592591 0.341408
vt 0.3631784 0.3444767
vt 0.7857139 0.001180521
vt 0.7825683 0.0244311
vt 0.4923171 0.1750114
vt 0.494126 0.173533
vt 0.484736 0.1674173
vt 0.9914881 0.02354197
vt 0.999613 0.02400903
vt 0.9993126 0.01490417
vt 0.9989104 0.3850971
vt 0.990977 0.3800001
vt 0.988573 0.3882076
vt 0.7226563 0.2615789
vt 0.7285036 0.288643
vt 0.7287651 0.2587325
vt 0.5203707 0.6322503
vt 0.5157781 0.6333483
vt 0.5157781 0.6333483
vt 0.5188558 0.6269408
vt 0.5060005 0.6395038
vt 0.5159572 0.6355949
vt 0.4993117 0.6415298
vt 0.5060349 0.6463969
vt 0.5223577 0.9686202
vt 0.5793009 0.9657394
vt 0.5443147 0.9569771
vt 0.519232 0.9584121
vt 0.5449394 0.9540959
vt 0.4080689 0.1631028
vt 0.4103608 0.1591151
vt 0.3710447 0.1619981
vt 0.4081253 0.1659735
vt 0.3842764 0.1702233
vt 0.4101589 0.1680738
vt 0.7966582 0.1265827
vt 0.8039878 0.1300416
vt 0.8018531 0.1253128
vt 0.7132965 0.387058
vt 0.7193269 0.3790623
vt 0.7062882 0.3754958
vt 0.7081231 0.3883093
vt 0.7157792 0.372336
vt 0.9488229 0.8627487
vt 0.9541994 0.8693507
vt 0.9632122 0.8648331
vt 0.9634759 0.8553751
vt 0.547914 0.7786354
vt 0.5051421 0.7790862
vt 0.8594496 0.9976588
vt 0.8758023 0.9976568
vt 0.8661956 0.9765687
vt 0.8549614 0.9840029
vt 0.8798803 0.9833371
vt 0.7467849 0.1841899
vt 0.7386625 0.1832933
vt 0.7330108 0.2520065
vt 0.005674982 0.8235053
vt 0.0003334411 0.8061234
vt 0.7332589 0.1951355
vt 0.7344685 0.1957866
vt 0.8223904 0.18089
vt 0.2517897 0.06851806
vt 0.2053432 0.0673404
vt 0.4510565 0.8612913
vt 0.8521622 0.7662783
vt 0.8515603 0.7978996
vt 0.8598733 0.7991267
vt 0.2703578 0.8070344
vt 0.2679193 0.7942896
vt 0.2393287 0.7934135
vt 0.2335463 0.8063238
vt 0.8525321 0.1987813
vt 0.8541106 0.2579632
vt 0.8656464 0.252535
vt 0.8657081 0.1998946
vt 0.9608789 0.1592921
vt 0.9620196 0.2046097
vt 0.9659613 0.2066197
vt 0.9657652 0.1567889
vt 0.2768228 0.07501573
vt 0.2741462 0.04545368
vt 0.2883978 0.03975892
vt 0.2980593 0.07711001
vt 0.2930779 0.03839634
vt 0.3078901 0.03350588
vt 0.3254265 0.07970093
vt 0.3243926 0.08263908
vt 0.3037183 0.08988959
vt 0.3100064 0.02907187
vt 0.3217827 0.02910008
vt 0.3429521 0.08278354
vt 0.3565321 0.0662812
vt 0.353548 0.05707137
vt 0.3316003 0.01811955
vt 0.3339023 0.01567461
vt 0.362981 0.01844357
vt 0.3635823 0.0554436
vn -0.5866622 0.7640797 0.268346
vn 0.04687736 0.1697177 0.9843771
vn 0.04645428 0.1698256 0.9843786
vn -0.08751795 0.9606884 -0.2634739
vn -0.4681075 0.8365809 -0.2846189
vn 0.799135 -0.3046843 -0.5182188
vn -0.9153169 0.1170822 -0.3853398
vn -0.9153169 0.1170822 -0.3853398
vn -0.6033947 -0.04854011 -0.7959641
vn -0.8554824 0.275476 0.4384778
vn -0.8703746 0.2690943 0.4123548
vn -0.872444 0.2681577 0.4085741
vn -0.872444 0.2681577 0.4085741
vn 0.1902631 0.1607204 0.9684879
vn 0.1902631 0.1607204 0.968488
vn -0.6581056 0.5114154 -0.5525862
vn -0.6581091 0.5114093 -0.5525876
vn -0.9652432 0.2406467 0.101955
vn -0.9739946 0.198919 -0.1084708
vn 0.510229 0.7165974 0.4755571
vn -0.2389335 0.2363538 0.9418322
vn 0.8127684 -0.09406339 0.5749431
vn 0.8127683 -0.09406339 0.5749431
vn 0.799135 -0.3046842 -0.5182188
vn 0.7991351 -0.3046842 -0.5182188
vn 0.799135 -0.3046842 -0.5182188
vn 0.7478397 -0.05777859 0.6613604
vn 0.7478397 -0.05777859 0.6613604
vn 0.7432421 0.5811627 -0.3314227
vn 0.7066147 0.6212649 -0.3387116
vn 0.2227141 0.8584521 -0.4620156
vn -0.3749641 0.9221769 -0.09482391
vn 0.3552949 -0.2754896 -0.8932362
vn 0.8131948 -0.3095144 -0.4928641
vn -0.2491629 -0.1442803 -0.9576539
vn -0.2491629 -0.1442803 -0.9576539
vn 0.6064942 0.02025322 0.7948299
vn 0.5334951 0.03346486 0.8451409
vn 0.04645428 0.1698256 0.9843786
vn 0.06002844 0.1663451 0.9842387
vn 0.0674037 0.164439 0.9840815
vn -0.9153169 0.1170822 -0.3853398
vn -0.9153169 0.1170822 -0.3853397
vn -0.6033947 -0.0485401 -0.795964
vn -0.851115 0.2772373 0.4458058
vn -0.6033946 -0.04854011 -0.7959641
vn 0.6073056 0.01883356 0.7942449
vn -0.2392297 0.2348748 0.9421269
vn -0.2392297 0.2348748 0.9421269
vn -0.03270252 -0.2227983 -0.9743159
vn 0.7988133 -0.304619 -0.518753
vn -0.8776056 0.1070213 -0.4672846
vn 0.616681 -0.3257254 -0.7166641
vn 0.6166811 -0.3257254 -0.7166641
vn 0.1902631 0.1607204 0.9684879
vn 0.1902631 0.1607204 0.9684879
vn -0.6033947 -0.04854011 -0.7959641
vn -0.6581014 0.5114224 -0.5525846
vn -0.6581062 0.5114142 -0.5525865
vn -0.658109 0.5114093 -0.5525876
vn -0.5866622 0.7640797 0.268346
vn -0.5866622 0.7640797 0.268346
vn -0.9744223 0.2243272 0.01335851
vn -0.9641212 0.2419174 0.1092993
vn -0.9641212 0.2419174 0.1092993
vn -0.9837027 0.1267681 -0.1275101
vn -0.9837027 0.1267681 -0.1275101
vn -0.9837027 0.1267681 -0.1275101
vn 0.5102291 0.7165974 0.4755571
vn 0.5102291 0.7165974 0.4755571
vn 0.5930622 0.02121493 0.8048772
vn -0.2391516 0.2352652 0.9420493
vn 0.8146029 -0.09512531 0.5721655
vn 0.8155252 -0.09566096 0.5707605
vn 0.8155252 -0.09566097 0.5707605
vn 0.8128857 -0.09413119 0.5747661
vn 0.7478397 -0.05777859 0.6613604
vn 0.7478397 -0.05777859 0.6613603
vn 0.761337 0.5597048 -0.327256
vn 0.761337 0.5597048 -0.3272561
vn 0.7264526 0.6000665 -0.334943
vn 0.2227141 0.8584521 -0.4620155
vn 0.2227141 0.8584521 -0.4620155
vn 0.2227141 0.8584521 -0.4620155
vn -0.3749641 0.9221769 -0.09482391
vn -0.3749641 0.9221769 -0.0948239
vn -0.3749641 0.9221769 -0.0948239
vn 0.3552949 -0.2754896 -0.8932362
vn 0.3547319 -0.2754789 -0.8934633
vn 0.3439282 -0.2752541 -0.8977463
vn -0.4681075 0.8365809 -0.2846189
vn -0.4681074 0.8365808 -0.2846189
vn -0.08751894 0.9606875 -0.2634767
vn -0.08751651 0.9606863 -0.2634816
vn -0.08751693 0.9606891 -0.2634712
vn -0.08752104 0.9606885 -0.2634724
vn -0.08751445 0.9606896 -0.2634705
vn -0.08751444 0.9606896 -0.2634705
vn 0.8122931 -0.3097813 -0.4941817
vn 0.8130589 -0.3095547 -0.493063
vn 0.812619 -0.309685 -0.493706
vn 0.8122931 -0.3097813 -0.4941817
vn 0.8131948 -0.3095144 -0.4928641
vn -0.2491624 -0.144281 -0.9576539
vn -0.2491642 -0.1442803 -0.9576536
vn -0.2491625 -0.1442808 -0.9576539
vn -0.2491617 -0.1442812 -0.9576541
vn -0.2491625 -0.1442807 -0.9576539
vn -0.2491625 -0.1442807 -0.9576539
vn 0.2597735 0.937518 -0.2314687
vn 0.2597735 0.937518 -0.2314688
vn 0.2597735 0.937518 -0.2314687
vn -0.4831433 0.8501836 0.2091898
vn -0.4845507 0.849367 0.2092518
vn -0.4842987 0.8495135 0.2092407
vn -0.4831433 0.8501836 0.2091898
vn -0.4865771 0.848186 0.2093401
vn -0.9721178 0.2339517 0.01592323
vn -0.9721178 0.2339517 0.01592323
vn -0.9721178 0.2339517 0.01592323
vn -0.9721178 0.2339517 0.01592323
vn -0.2389218 0.2364119 0.9418204
vn -0.2389218 0.2364118 0.9418204
vn 0.1571455 0.9462954 0.2825426
vn 0.1541287 0.9454333 0.2870546
vn 0.1545777 0.9455633 0.286384
vn 0.1571455 0.9462954 0.2825426
vn 0.1491683 0.9439567 0.2944396
vn -0.03270252 -0.2227983 -0.9743159
vn -0.03270252 -0.2227983 -0.9743159
vn -0.03270252 -0.2227983 -0.9743159
vn 0.616681 -0.3257254 -0.7166641
vn 0.616681 -0.3257254 -0.7166641
vn 0.3397388 -0.2751573 -0.8993698
vn 0.3397388 -0.2751573 -0.8993698
vn -0.851115 0.2772373 0.4458058
vn 0.5973955 0.02022388 0.8016917
vn 0.5973957 0.02022388 0.8016917
vn 0.7988133 -0.304619 -0.5187531
vn -0.8776056 0.1070213 -0.4672846
vn -0.8776056 0.1070213 -0.4672847
vn -0.8776056 0.1070213 -0.4672846
vn -0.6839837 0.2840281 0.6719332
vn -0.6839837 0.2840281 0.6719332
vn -0.6839837 0.2840281 0.6719332
vn -0.6839837 0.2840281 0.6719332
vn 0.8613359 -0.1387936 0.4887093
vn 0.8613358 -0.1387936 0.4887093
vn 0.8613359 -0.1387936 0.4887093
vn 0.8613358 -0.1387936 0.4887093
vn -0.7290422 0.02754543 -0.6839142
vn -0.7290422 0.02754543 -0.6839142
vn -0.7290422 0.02754543 -0.6839142
vn -0.7290422 0.02754543 -0.6839142
vn -0.653102 -0.6683105 0.3561163
vn -0.653102 -0.6683105 0.3561163
vn -0.6531011 -0.668312 0.3561153
vn -0.6531013 -0.6683113 0.3561159
vn -0.6531008 -0.6683122 0.3561152
vn -0.6531 -0.668313 0.3561152
vn -0.6531023 -0.6683111 0.3561146
vn -0.6531044 -0.6683099 0.356113
vn -0.6531001 -0.6683125 0.3561161
vn -0.6531001 -0.6683128 0.3561153
vn -0.6531005 -0.6683121 0.3561158
vn -0.6531017 -0.6683106 0.3561164
vn -0.6531004 -0.6683118 0.356117
vn -0.6530957 -0.6683165 0.3561168
vn -0.6530997 -0.6683133 0.3561154
vn -0.6531004 -0.6683124 0.3561159
vn -0.6531019 -0.6683105 0.3561167
vn -0.6531019 -0.6683105 0.3561167
g collision_Chap01_Prop_Des_IceCrystal_01b_Part_09_0
f 40/40/40 2/2/2 3/3/3
f 39/39/39 40/40/40 3/3/3
f 43/43/43 7/7/7 8/8/8
f 42/42/42 43/43/43 8/8/8
f 12/12/12 13/13/13 11/11/11
f 10/10/10 12/12/12 11/11/11
f 56/56/56 55/55/55 14/14/14
f 15/15/15 56/56/56 14/14/14
f 44/44/44 46/46/46 57/57/57
f 9/9/9 44/44/44 57/57/57
f 59/59/59 58/58/58 16/16/16
f 59/59/59 16/16/16 17/17/17
f 60/60/60 59/59/59 17/17/17
f 1/1/1 62/62/62 61/61/61
f 65/65/65 64/64/64 63/63/63
f 18/18/18 65/65/65 63/63/63
f 18/18/18 63/63/63 19/19/19
f 68/68/68 67/67/67 66/66/66
f 20/20/20 70/70/70 69/69/69
f 37/37/37 47/47/47 71/71/71
f 49/49/49 21/21/21 72/72/72
f 48/48/48 49/49/49 72/72/72
f 75/75/75 74/74/74 73/73/73
f 76/76/76 75/75/75 73/73/73
f 76/76/76 73/73/73 22/22/22
f 23/23/23 76/76/76 22/22/22
f 6/6/6 24/24/24 25/25/25
f 26/26/26 6/6/6 25/25/25
f 28/28/28 78/78/78 77/77/77
f 27/27/27 28/28/28 77/77/77
f 29/29/29 80/80/80 79/79/79
f 81/81/81 29/29/29 79/79/79
f 29/29/29 81/81/81 30/30/30
f 83/83/83 82/82/82 31/31/31
f 84/84/84 83/83/83 31/31/31
f 86/86/86 32/32/32 85/85/85
f 87/87/87 86/86/86 85/85/85
f 89/89/89 33/33/33 88/88/88
f 90/90/90 89/89/89 88/88/88
f 92/92/92 5/5/5 91/91/91
f 94/94/94 93/93/93 4/4/4
f 95/95/95 4/4/4 93/93/93
f 96/96/96 95/95/95 93/93/93
f 97/97/97 4/4/4 95/95/95
f 98/98/98 97/97/97 95/95/95
f 101/101/101 100/100/100 99/99/99
f 102/102/102 101/101/101 99/99/99
f 100/100/100 101/101/101 103/103/103
f 34/34/34 100/100/100 103/103/103
f 106/106/106 105/105/105 104/104/104
f 104/104/104 107/107/107 106/106/106
f 108/108/108 106/106/106 107/107/107
f 109/109/109 108/108/108 107/107/107
f 108/108/108 36/36/36 35/35/35
f 106/106/106 108/108/108 35/35/35
f 112/112/112 111/111/111 110/110/110
f 115/115/115 114/114/114 113/113/113
f 116/116/116 115/115/115 113/113/113
f 117/117/117 114/114/114 115/115/115
f 120/120/120 119/119/119 118/118/118
f 121/121/121 120/120/120 118/118/118
f 122/122/122 72/72/72 21/21/21
f 123/123/123 122/122/122 21/21/21
f 126/126/126 125/125/125 124/124/124
f 127/127/127 126/126/126 124/124/124
f 126/126/126 128/128/128 125/125/125
f 131/131/131 130/130/130 129/129/129
f 50/50/50 131/131/131 129/129/129
f 53/53/53 54/54/54 132/132/132
f 133/133/133 53/53/53 132/132/132
f 71/71/71 38/38/38 37/37/37
f 2/2/2 40/40/40 41/41/41
f 89/89/89 90/90/90 134/134/134
f 135/135/135 89/89/89 134/134/134
f 45/45/45 10/10/10 11/11/11
f 136/136/136 45/45/45 11/11/11
f 47/47/47 138/138/138 137/137/137
f 71/71/71 47/47/47 137/137/137
f 6/6/6 51/51/51 139/139/139
f 24/24/24 6/6/6 139/139/139
f 141/141/141 140/140/140 52/52/52
f 142/142/142 141/141/141 52/52/52
f 145/145/145 144/144/144 143/143/143
f 146/146/146 145/145/145 143/143/143
f 149/149/149 148/148/148 147/147/147
f 150/150/150 149/149/149 147/147/147
f 153/153/153 152/152/152 151/151/151
f 154/154/154 153/153/153 151/151/151
f 157/157/157 156/156/156 155/155/155
f 158/158/158 157/157/157 155/155/155
f 160/160/160 159/159/159 158/158/158
f 161/161/161 160/160/160 158/158/158
f 159/159/159 157/157/157 158/158/158
f 163/163/163 162/162/162 158/158/158
f 162/162/162 161/161/161 158/158/158
f 164/164/164 160/160/160 161/161/161
f 165/165/165 164/164/164 161/161/161
f 166/166/166 165/165/165 161/161/161
f 167/167/167 165/165/165 166/166/166
f 168/168/168 165/165/165 167/167/167
f 169/169/169 165/165/165 168/168/168
f 171/171/171 170/170/170 168/168/168
f 172/172/172 171/171/171 168/168/168
f 170/170/170 169/169/169 168/168/168
