g Collision
v 0.2389078 1.518684 -0.3288284
v 0.386561 0 -0.1256013
v 0.386561 1.518684 -0.1256013
v 0.2389078 0 -0.3288284
v 0 1.518684 -0.4064542
v 0 0 -0.4064542
v -0.2389078 1.518684 -0.3288283
v -0.2389078 0 -0.3288283
v -0.3865609 1.518684 -0.1256012
v -0.3865609 0 -0.1256012
v -0.3865609 1.518684 0.1256012
v -0.3865609 0 0.1256012
v -0.2389077 1.518684 0.3288283
v -0.2389077 0 0.3288283
v -1.211327E-08 1.518684 0.4064541
v -1.211327E-08 0 0.4064541
v 0.2389077 1.518684 0.3288283
v 0.2389077 0 0.3288283
v 0.3865608 1.518684 0.1256012
v 0.3865608 0 0.1256012
v 0.386561 1.518684 -0.1256013
v 0.386561 0 -0.1256013
vt 0.4 0.6884398
vt 0.375 0.3125
vt 0.375 0.6884398
vt 0.4 0.3125
vt 0.425 0.6884398
vt 0.425 0.3125
vt 0.4499999 0.6884398
vt 0.4499999 0.3125
vt 0.4749999 0.6884398
vt 0.4749999 0.3125
vt 0.4999999 0.6884398
vt 0.4999999 0.3125
vt 0.5249999 0.6884398
vt 0.5249999 0.3125
vt 0.5499998 0.6884398
vt 0.5499998 0.3125
vt 0.5749998 0.6884398
vt 0.5749998 0.3125
vt 0.5999998 0.6884398
vt 0.5999998 0.3125
vt 0.6249998 0.6884398
vt 0.6249998 0.3125
vn 0.5877852 0 -0.8090171
vn 0.9510567 0 -0.3090166
vn 0.9510567 0 -0.3090166
vn 0.5877852 0 -0.8090171
vn -2.141867E-07 0 -1
vn -2.141867E-07 0 -1
vn -0.5877854 0 -0.8090168
vn -0.5877854 0 -0.8090168
vn -0.9510565 0 -0.3090169
vn -0.9510565 0 -0.3090169
vn -0.9510565 0 0.3090171
vn -0.9510565 0 0.3090171
vn -0.5877852 0 0.8090171
vn -0.5877852 0 0.8090171
vn 0 0 1
vn 0 0 1
vn 0.5877853 0 0.809017
vn 0.5877853 0 0.809017
vn 0.9510565 0 0.3090173
vn 0.9510565 0 0.3090173
vn 0.9510567 0 -0.3090166
vn 0.9510567 0 -0.3090166
g Collision_0
f 3/3/3 2/2/2 1/1/1
f 2/2/2 4/4/4 1/1/1
f 1/1/1 4/4/4 5/5/5
f 4/4/4 6/6/6 5/5/5
f 5/5/5 6/6/6 7/7/7
f 6/6/6 8/8/8 7/7/7
f 7/7/7 8/8/8 9/9/9
f 8/8/8 10/10/10 9/9/9
f 9/9/9 10/10/10 11/11/11
f 10/10/10 12/12/12 11/11/11
f 11/11/11 12/12/12 13/13/13
f 12/12/12 14/14/14 13/13/13
f 13/13/13 14/14/14 15/15/15
f 14/14/14 16/16/16 15/15/15
f 15/15/15 16/16/16 17/17/17
f 16/16/16 18/18/18 17/17/17
f 17/17/17 18/18/18 19/19/19
f 18/18/18 20/20/20 19/19/19
f 19/19/19 20/20/20 21/21/21
f 20/20/20 22/22/22 21/21/21
