g collision_Chap01_Prop_IceCrystal_01a_Part_07
v 0.3884216 0.3396274 0.3895777
v 0.2837146 0.4261511 0.3016708
v 0.3712787 0.3847031 0.3451297
v 0.3382066 0.4498016 0.2820857
v 0.3631877 0.6483828 0.3214678
v 0.2746896 0.5458133 0.3370147
v 0.2632237 0.6317911 0.3105349
v 0.2668237 0.6601043 0.2639487
v 0.1270425 1.24839 -0.07847439
v 0.05226425 0.9103204 -0.1111309
v 0.2325824 0.7633392 0.1736145
v 0.3121127 1.064987 0.2156799
v 0.3229167 1.008644 0.2425479
v 0.2509262 0.7211108 0.2051481
v 0.2375627 0.6458887 0.2787558
v 0.1490762 0.7015548 0.3379679
v -0.3028143 0.4684607 -0.2773832
v -0.2349493 0.4598407 -0.2780222
v -0.1058373 0.2524225 0.1159158
v -0.04960236 0.2560767 0.1020568
v -0.1427174 0.9919299 -0.242101
v -0.1165337 0.4144659 -0.3895777
v 0.238103 -0.64858 0.1080886
v 0.4060426 0.2894073 0.3588969
v 0.4175746 0.3555206 0.3760993
v 0.3918373 0.3960114 0.3354957
v 0.4138225 0.5326953 0.3681661
v 0.3677734 0.5491629 0.2961767
v 0.3737131 0.5937613 0.304913
v 0.3811371 0.6566653 0.3157484
v 0.3729419 0.663735 0.3028879
v 0.3499379 0.6816785 0.266811
v 0.3330476 0.693602 0.2403371
v 0.09356216 0.9160812 -0.1356637
v 0.1311572 1.248784 -0.08096092
v 0.3179384 1.065257 0.2124103
v 0.3333629 1.008365 0.2371276
v 0.3118871 0.8462958 0.20555
v 0.2928694 0.7069415 0.1775379
v 0.3238475 0.6406775 0.2266153
v -0.0130722 1.002625 -0.3029365
v -0.06036713 0.4101642 -0.3697087
v 0.1402573 1.239788 -0.06666706
v 0.1331133 1.246859 -0.07788856
v -0.06296661 0.4096442 -0.3737553
v -0.2175432 -1.228029 0.02592472
v -0.1088287 -1.222338 0.1129856
v -0.2540929 -1.242862 0.0473917
v -0.2647697 -1.242569 0.03549435
v -0.07110412 -1.207857 0.09408253
v 0.1528421 -1.121596 -0.01928146
v 0.09054504 -1.112801 -0.1165127
v 0.1528128 -1.121592 -0.01932697
v -0.4175747 -0.2596228 -0.3286244
v -0.3829225 -0.3343387 -0.3597188
v -0.304339 -1.080714 -0.025569
v -0.3253354 -1.027834 -0.01206505
v -0.3924979 -0.4782481 -0.2357067
v -0.2088148 -1.170013 -0.1931157
v -0.2831933 -1.248784 0.04136211
v -0.2867374 -1.241323 0.04466869
v 0.3884216 0.3396274 0.3895777
v 0.4175746 0.3555206 0.3760993
v 0.3918373 0.3960114 0.3354957
v 0.3712787 0.3847031 0.3451297
v 0.2837146 0.4261511 0.3016708
v 0.3382066 0.4498016 0.2820857
v 0.3631877 0.6483828 0.3214678
v 0.2746896 0.5458133 0.3370147
v 0.3811371 0.6566653 0.3157484
v 0.3631877 0.6483828 0.3214678
v 0.05226425 0.9103204 -0.1111309
v 0.1270425 1.24839 -0.07847439
v 0.2509262 0.7211108 0.2051481
v 0.2668237 0.6601043 0.2639487
v 0.3330476 0.693602 0.2403371
v 0.2632237 0.6317911 0.3105349
v 0.2375627 0.6458887 0.2787558
v 0.2632237 0.6317911 0.3105349
v 0.2746896 0.5458133 0.3370147
v 0.2668237 0.6601043 0.2639487
v 0.2375627 0.6458887 0.2787558
v 0.2668237 0.6601043 0.2639487
v 0.2928694 0.7069415 0.1775379
v 0.3238475 0.6406775 0.2266153
v 0.2509262 0.7211108 0.2051481
v 0.2325824 0.7633392 0.1736145
v 0.1490762 0.7015548 0.3379679
v -0.1058373 0.2524225 0.1159158
v -0.04960236 0.2560767 0.1020568
v -0.2349493 0.4598407 -0.2780222
v 0.1490762 0.7015548 0.3379679
v -0.04960236 0.2560767 0.1020568
v 0.1490762 0.7015548 0.3379679
v 0.05226425 0.9103204 -0.1111309
v 0.2325824 0.7633392 0.1736145
v -0.1427174 0.9919299 -0.242101
v 0.09356216 0.9160812 -0.1356637
v -0.1427174 0.9919299 -0.242101
v -0.0130722 1.002625 -0.3029365
v -0.2349493 0.4598407 -0.2780222
v 0.3121127 1.064987 0.2156799
v 0.1270425 1.24839 -0.07847439
v 0.1311572 1.248784 -0.08096092
v 0.3382066 0.4498016 0.2820857
v 0.4138225 0.5326953 0.3681661
v 0.3712787 0.3847031 0.3451297
v 0.3677734 0.5491629 0.2961767
v 0.3121127 1.064987 0.2156799
v 0.3229167 1.008644 0.2425479
v 0.3179384 1.065257 0.2124103
v 0.3229167 1.008644 0.2425479
v 0.3333629 1.008365 0.2371276
v -0.3028143 0.4684607 -0.2773832
v -0.2349493 0.4598407 -0.2780222
v -0.06036713 0.4101642 -0.3697087
v 0.3884216 0.3396274 0.3895777
v 0.2837146 0.4261511 0.3016708
v -0.2175432 -1.228029 0.02592472
v -0.2540929 -1.242862 0.0473917
v -0.2647697 -1.242569 0.03549435
v -0.2867374 -1.241323 0.04466869
v -0.304339 -1.080714 -0.025569
v -0.3028143 0.4684607 -0.2773832
v -0.1088287 -1.222338 0.1129856
v 0.3677734 0.5491629 0.2961767
v 0.3737131 0.5937613 0.304913
v 0.3238475 0.6406775 0.2266153
v -0.2175432 -1.228029 0.02592472
v -0.1088287 -1.222338 0.1129856
v -0.1165337 0.4144659 -0.3895777
v -0.4175747 -0.2596228 -0.3286244
v -0.3028143 0.4684607 -0.2773832
v -0.1058373 0.2524225 0.1159158
v -0.3253354 -1.027834 -0.01206505
v -0.2088148 -1.170013 -0.1931157
v -0.06296661 0.4096442 -0.3737553
v -0.3829225 -0.3343387 -0.3597188
v -0.304339 -1.080714 -0.025569
v -0.2867374 -1.241323 0.04466869
v -0.2831933 -1.248784 0.04136211
v 0.3729419 0.663735 0.3028879
v 0.3499379 0.6816785 0.266811
v 0.3811371 0.6566653 0.3157484
v 0.3330476 0.693602 0.2403371
v -0.06036713 0.4101642 -0.3697087
v 0.2928694 0.7069415 0.1775379
v 0.09356216 0.9160812 -0.1356637
v 0.3179384 1.065257 0.2124103
v 0.1402573 1.239788 -0.06666706
v 0.3118871 0.8462958 0.20555
v 0.3333629 1.008365 0.2371276
v 0.1331133 1.246859 -0.07788856
v 0.1311572 1.248784 -0.08096092
v -0.0130722 1.002625 -0.3029365
v 0.238103 -0.64858 0.1080886
v 0.1528421 -1.121596 -0.01928146
v 0.09054504 -1.112801 -0.1165127
v -0.06296661 0.4096442 -0.3737553
v -0.2647697 -1.242569 0.03549435
v -0.2540929 -1.242862 0.0473917
v -0.2831933 -1.248784 0.04136211
v -0.2088148 -1.170013 -0.1931157
v -0.3924979 -0.4782481 -0.2357067
v -0.3253354 -1.027834 -0.01206505
v -0.3829225 -0.3343387 -0.3597188
v -0.4175747 -0.2596228 -0.3286244
v 0.3918373 0.3960114 0.3354957
v 0.4138225 0.5326953 0.3681661
v 0.4060426 0.2894073 0.3588969
v 0.4175746 0.3555206 0.3760993
v 0.1528128 -1.121592 -0.01932697
v 0.09054504 -1.112801 -0.1165127
v 0.1528421 -1.121596 -0.01928146
v -0.07110412 -1.207857 0.09408253
v -0.1165337 0.4144659 -0.3895777
vt 0.4321142 0.1578909
vt 0.3350911 0.9157984
vt 0.3392425 0.9030296
vt 0.3429165 0.9146595
vt 0.02227513 0.09947347
vt 0.03751404 0.09141469
vt 0.8457301 0.4344361
vt 0.4851795 0.534821
vt 0.2066716 0.8451578
vt 0.2063381 0.8893878
vt 0.8320418 0.8742317
vt 0.8303126 0.8345783
vt 0.825324 0.8408471
vt 0.8266144 0.8786939
vt 0.4823066 0.5312945
vt 0.8207767 0.0002915404
vt 0.004496651 0.3211584
vt 0.0003334411 0.3287569
vt 0.03988143 0.3721469
vt 0.03464412 0.3773032
vt 0.0003334411 0.3798821
vt 0.9056932 0.9458098
vt 0.3018532 0.1348831
vt 0.4259268 0.1529423
vt 0.4347803 0.154223
vt 0.3424476 0.9029263
vt 0.6859637 0.7596669
vt 0.8726107 0.8144857
vt 0.02873329 0.1029556
vt 0.02072926 0.101566
vt 0.4993746 0.5350815
vt 0.4950995 0.5390598
vt 0.4919397 0.5418838
vt 0.2122191 0.8876733
vt 0.2072688 0.8450322
vt 0.4734172 0.9585466
vt 0.9981272 0.3687719
vt 0.3714472 0.4794844
vt 0.3895491 0.4810925
vt 0.006580157 0.3143062
vt 0.4231777 0.4242898
vt 0.03052364 0.6943048
vt 0.4266359 0.9521062
vt 0.42475 0.9518466
vt 0.9022682 0.9520217
vt 0.01088248 0.8052796
vt 0.01741392 0.7888771
vt 0.2761211 0.09398155
vt 0.377394 0.8385437
vt 0.2242947 0.1553963
vt 0.2395005 0.1257917
vt 0.3282093 0.1275713
vt 0.3370806 0.1487272
vt 0.3278832 0.5466175
vt 0.3763368 0.2535605
vt 0.4982814 0.946613
vt 0.4920825 0.9425758
vt 0.3018055 0.5313231
vt 0.3569553 0.07677927
vt 0.8068511 0.2554489
vt 0.8076047 0.2546119
vt 0.3360755 0.8953661
vt 0.3406029 0.8951966
vt 0.6774281 0.7438365
vt 0.6742214 0.7438661
vt 0.05214576 0.09741638
vt 0.04767325 0.1039373
vt 0.8584598 0.4363717
vt 0.8474635 0.4231104
vt 0.5009043 0.5336157
vt 0.4990303 0.5318224
vt 0.8776366 0.865197
vt 0.8780147 0.8209858
vt 0.3884036 0.4745952
vt 0.0005641644 0.32095
vt 0.0003858414 0.3111421
vt 0.4867302 0.5281174
vt 0.6255774 0.8412365
vt 0.6252527 0.8357998
vt 0.6157086 0.8295093
vt 0.8024885 0.002400796
vt 0.8062738 0.004956493
vt 0.3851303 0.2186165
vt 0.3954129 0.2263527
vt 0.3934908 0.2153717
vt 0.3892496 0.2287195
vt 0.3906402 0.2356108
vt 0.3681295 0.2256711
vt 0.3270025 0.939106
vt 0.3253738 0.9462646
vt 0.06832375 0.3873258
vt 0.01574013 0.4684749
vt 0.08024086 0.4455111
vt 0.4768158 0.3496079
vt 0.4413888 0.4025885
vt 0.4782756 0.3741947
vt 0.4108852 0.4108832
vt 0.4449708 0.4075659
vt 0.0003334411 0.6245541
vt 0.0178192 0.6196016
vt 0.004833734 0.6928126
vt 0.4735072 0.9577057
vt 0.4243306 0.951173
vt 0.4242319 0.9517752
vt 0.8598855 0.8181108
vt 0.8704672 0.8036886
vt 0.8515603 0.8091921
vt 0.03444735 0.1039154
vt 0.9991892 0.3607351
vt 0.9996137 0.368727
vt 0.9983453 0.3606998
vt 0.3505719 0.4761055
vt 0.3504319 0.4775875
vt 0.9332509 0.9392023
vt 0.927047 0.945234
vt 0.9024097 0.9526174
vt 0.2279525 0.7876039
vt 0.2325507 0.8075732
vt 0.2734121 0.0989794
vt 0.3779081 0.8365952
vt 0.8046177 0.2541762
vt 0.2703037 0.472448
vt 0.252669 0.4588121
vt 0.4213883 0.5458847
vt 0.2217777 0.1603739
vt 0.413453 0.1456237
vt 0.4154961 0.1455569
vt 0.4164303 0.1410131
vt 0.3462348 0.03355173
vt 0.3205613 0.0240428
vt 0.4760149 0.2676683
vt 0.3847333 0.2462345
vt 0.478003 0.2393764
vt 0.4013135 0.4872009
vt 0.2362544 0.4937139
vt 0.3292551 0.1500172
vt 0.438701 0.1175398
vt 0.3914348 0.151009
vt 0.4160443 0.1179423
vt 0.442238 0.1105341
vt 0.4433883 0.1112869
vt 0.418483 0.1446477
vt 0.4187552 0.1425964
vt 0.418357 0.1453867
vt 0.4189013 0.1411054
vt 0.3982172 0.1131753
vt 0.4186041 0.1377408
vt 0.4232666 0.119318
vt 0.4345278 0.1353987
vt 0.438173 0.1191192
vt 0.4249977 0.1375687
vt 0.4324195 0.1373175
vt 0.4383219 0.118464
vt 0.4383622 0.1182847
vt 0.4246731 0.1097685
vt 0.3592316 0.1497963
vt 0.3370811 0.1487295
vt 0.3361099 0.1436565
vt 0.3981386 0.1129743
vt 0.3547076 0.02845927
vt 0.351997 0.02687399
vt 0.3578923 0.02605722
vt 0.4285147 0.1483212
vt 0.3183284 0.1368259
vt 0.4077911 0.1142651
vt 0.2942393 0.1536626
vt 0.2827001 0.1464607
vt 0.4073998 0.1493974
vt 0.4137431 0.1494943
vt 0.4031313 0.1518214
vt 0.4062189 0.1519398
vt 0.2781043 0.06768826
vt 0.295485 0.08234435
vt 0.2780962 0.06768142
vt 0.3144299 0.03030183
vt 0.4399552 0.1213472
vn 0.5260913 -0.3012651 0.7952781
vn -0.03426652 0.6878387 0.7250544
vn -0.03413269 0.6939991 0.7191663
vn -0.03628223 0.685649 0.7270275
vn 0.3829473 -0.1995733 0.9019545
vn 0.3920936 -0.2314645 0.8903296
vn -0.1492283 0.272815 0.9504224
vn -0.1953208 0.8360539 0.5127022
vn -0.5208794 0.1954824 -0.830946
vn -0.5208862 0.1954823 -0.8309419
vn -0.792481 0.1230143 0.597362
vn -0.8027686 0.1273196 0.5825394
vn -0.7966219 0.1273033 0.5909209
vn -0.7827653 0.1164678 0.6113212
vn -0.1575583 0.8492361 0.5039579
vn 0.4459894 -0.2151862 0.8687856
vn 0.1176318 0.8940734 0.4321985
vn 0.1137178 0.8939821 0.4334332
vn 0.05828018 0.8910856 0.4500776
vn 0.0533872 0.890687 0.4514714
vn -0.8626865 0.1163102 0.4921829
vn 0.150322 0.9650122 -0.2148367
vn 0.5182976 -0.3065449 0.7983719
vn 0.519922 -0.305029 0.7978961
vn 0.5298918 -0.2989281 0.7936352
vn -0.04430763 0.6929383 0.7196341
vn 0.5283815 -0.2768291 0.8026074
vn -0.8137763 0.1630441 0.5578396
vn 0.3886227 -0.2120851 0.8966562
vn 0.380188 -0.2004029 0.9029373
vn -0.2173104 0.8054264 0.5514204
vn -0.2293208 0.8123152 0.5362425
vn -0.2315252 0.8231648 0.5184553
vn -0.5208861 0.1954823 -0.8309419
vn -0.5208789 0.1954824 -0.8309464
vn 0.1981279 0.8827905 0.4259416
vn 0.4197047 0.4550053 0.7853777
vn 0.4619289 -0.227894 0.8571383
vn 0.4776817 -0.235332 0.8464273
vn -0.4503072 0.2966281 -0.842161
vn 0.112205 0.9097925 0.3996094
vn -0.4303008 0.1348676 -0.8925536
vn 0.1884397 0.8820804 0.4317693
vn 0.1795694 0.8801382 0.4394446
vn 0.1525478 0.9624217 -0.2246633
vn -0.6250298 0.06107743 0.7782078
vn -0.6258617 0.06156305 0.7775005
vn 0.5654848 -0.2993049 0.7685333
vn -0.738398 0.1105765 0.6652378
vn 0.5187846 -0.3068039 0.797956
vn 0.5214887 -0.3082406 0.7956364
vn 0.2696157 -0.1339419 -0.9536073
vn 0.8409978 -0.00670579 -0.540997
vn -0.8715999 0.1036609 0.4791326
vn -0.4816758 0.136841 -0.8655998
vn 0.2599435 -0.1401017 0.9554061
vn 0.261076 -0.1402355 0.9550776
vn -0.863252 0.09952901 0.4948637
vn 0.2410272 -0.9405026 -0.2395012
vn 0.3642966 -0.227198 0.9031441
vn 0.3670536 -0.2196728 0.9038891
vn -0.03975273 0.6940159 0.7188614
vn -0.04507704 0.6929387 0.719586
vn 0.5283815 -0.2768291 0.8026074
vn 0.5283815 -0.2768291 0.8026074
vn 0.3587345 -0.2400185 0.9020537
vn 0.4080295 -0.232677 0.8828213
vn -0.1492283 0.272815 0.9504224
vn -0.1492283 0.272815 0.9504224
vn -0.1912196 0.8036029 0.5636111
vn -0.212174 0.8131106 0.542064
vn -0.8046893 0.1260364 0.5801637
vn -0.8041689 0.1216743 0.5818142
vn 0.4752318 -0.2341444 0.8481339
vn -0.4503072 0.2966281 -0.842161
vn -0.4503073 0.2966281 -0.842161
vn -0.1828627 0.8463519 0.5002496
vn -0.7451718 0.1067618 0.6582713
vn -0.7518398 0.1004344 0.6516516
vn -0.7414926 0.1102005 0.6618494
vn 0.4958842 -0.12572 0.8592399
vn 0.4697922 -0.1734441 0.8655706
vn 0.5594915 0.6446062 0.5210107
vn 0.559817 0.646023 0.5189018
vn 0.5598135 0.6460258 0.5189022
vn 0.5912722 0.6342219 0.4981561
vn 0.5630345 0.6420615 0.5203356
vn 0.5566407 0.6439264 0.5248904
vn 0.2456556 -0.1384009 0.9594261
vn 0.2454545 -0.1383768 0.9594811
vn -0.8629478 0.1204117 0.4907363
vn -0.8617922 0.1200377 0.492854
vn -0.8596295 0.1202901 0.4965557
vn 0.1121849 0.9101123 0.3988861
vn 0.1122762 0.9099607 0.3992063
vn 0.1118449 0.9101204 0.3989632
vn 0.1126402 0.909887 0.3992715
vn 0.1107629 0.9097601 0.400085
vn -0.4300845 0.1349194 -0.89265
vn -0.4300179 0.1349353 -0.8926796
vn -0.4303623 0.1348529 -0.8925263
vn 0.1980542 0.8827866 0.4259841
vn 0.1812071 0.8807431 0.4375564
vn 0.1799754 0.8810125 0.4375223
vn -0.8098238 0.1496504 0.5672655
vn -0.8112268 0.1543214 0.564
vn -0.8078573 0.1432458 0.5717056
vn 0.3046712 -0.2220131 0.9262211
vn 0.4196947 0.4550039 0.7853839
vn 0.4197055 0.4550054 0.7853771
vn 0.4196934 0.4550037 0.7853847
vn 0.4456169 -0.2275857 0.8658119
vn 0.4436614 -0.2276762 0.8667918
vn 0.1275901 0.9555868 -0.2656591
vn 0.1184135 0.9509219 -0.2858773
vn 0.1561349 0.9620176 -0.2239284
vn -0.6153358 0.05545029 0.7863123
vn -0.6148713 0.0551821 0.7866945
vn 0.5707493 -0.3003448 0.7642239
vn -0.7383308 0.1105427 0.6653178
vn 0.3657672 -0.2164005 0.9051991
vn -0.8635832 0.1179736 0.4902104
vn -0.865136 0.118328 0.4873787
vn -0.8660292 0.1035741 0.4891482
vn 0.5178301 -0.3062966 0.7987706
vn 0.841723 -0.006347185 -0.5398722
vn 0.8417234 -0.006346972 -0.5398716
vn 0.8417227 -0.006347237 -0.5398728
vn 0.2410264 -0.9405026 -0.2395018
vn 0.2410266 -0.9405028 -0.2395009
vn -0.4816756 0.1368409 -0.8656
vn -0.4816757 0.136841 -0.8655998
vn -0.4816756 0.1368409 -0.8656
vn -0.8645279 0.1023881 0.4920447
vn -0.8611401 0.09777092 0.4988774
vn 0.2696158 -0.1339419 -0.9536073
vn 0.2696159 -0.1339419 -0.9536073
vn 0.2696157 -0.1339419 -0.9536073
vn -0.8919517 -0.2596282 -0.3701559
vn -0.891958 -0.2596237 -0.3701437
vn -0.8919547 -0.259626 -0.3701503
vn 0.8417237 -0.006348189 -0.539871
vn 0.8417227 -0.006347971 -0.5398728
vn 0.8417252 -0.006347985 -0.5398688
vn 0.8417221 -0.006346593 -0.5398738
vn 0.8417178 -0.006349432 -0.5398804
vn 0.8417225 -0.006347133 -0.5398728
vn 0.8417229 -0.006347721 -0.5398725
vn 0.8417224 -0.006347752 -0.5398733
vn 0.8417231 -0.00634827 -0.539872
vn 0.8417203 -0.006347189 -0.5398765
vn 0.8417211 -0.00634725 -0.5398753
vn 0.8417253 -0.006349132 -0.5398687
vn 0.8417266 -0.006349664 -0.5398666
vn 0.8417229 -0.006347615 -0.5398724
vn 0.8417229 -0.006347577 -0.5398724
vn 0.8409088 -0.006749651 -0.5411348
vn 0.8417225 -0.006347876 -0.5398732
vn 0.8417093 -0.006352574 -0.5398937
vn 0.2410277 -0.9405023 -0.2395019
vn 0.2410237 -0.9405021 -0.2395064
vn 0.241031 -0.940502 -0.2394998
vn -0.8919517 -0.2596281 -0.3701558
vn -0.8919519 -0.2596283 -0.3701555
vn -0.8919513 -0.2596286 -0.3701566
vn -0.891952 -0.2596281 -0.3701552
vn -0.8919521 -0.259628 -0.370155
vn 0.8417229 -0.006347713 -0.5398725
vn 0.8417233 -0.006347309 -0.5398719
vn 0.8417229 -0.006347794 -0.5398725
vn 0.8417234 -0.006347639 -0.5398717
vn 0.2414007 -0.940186 -0.2403665
vn 0.2410272 -0.9405026 -0.239501
vn 0.2412061 -0.9403511 -0.2399157
vn 0.2410265 -0.9405027 -0.239501
vn 0.2696159 -0.133942 -0.9536073
g collision_Chap01_Prop_IceCrystal_01a_Part_07_0
f 1/1/1 24/24/24 25/25/25
f 4/4/4 2/2/2 3/3/3
f 62/62/62 3/3/3 2/2/2
f 63/63/63 26/26/26 62/62/62
f 3/3/3 62/62/62 26/26/26
f 65/65/65 64/64/64 27/27/27
f 5/5/5 29/29/29 30/30/30
f 67/67/67 6/6/6 66/66/66
f 69/69/69 68/68/68 7/7/7
f 71/71/71 70/70/70 31/31/31
f 32/32/32 33/33/33 8/8/8
f 35/35/35 34/34/34 9/9/9
f 10/10/10 9/9/9 34/34/34
f 73/73/73 72/72/72 12/12/12
f 11/11/11 12/12/12 72/72/72
f 14/14/14 13/13/13 11/11/11
f 12/12/12 11/11/11 13/13/13
f 38/38/38 74/74/74 39/39/39
f 76/76/76 40/40/40 75/75/75
f 77/77/77 8/8/8 15/15/15
f 80/80/80 79/79/79 78/78/78
f 16/16/16 82/82/82 81/81/81
f 85/85/85 84/84/84 83/83/83
f 86/86/86 83/83/83 84/84/84
f 88/88/88 83/83/83 87/87/87
f 86/86/86 87/87/87 83/83/83
f 17/17/17 19/19/19 18/18/18
f 20/20/20 18/18/18 19/19/19
f 57/57/57 56/56/56 89/89/89
f 90/90/90 89/89/89 56/56/56
f 93/93/93 92/92/92 91/91/91
f 21/21/21 91/91/91 92/92/92
f 96/96/96 95/95/95 94/94/94
f 97/97/97 94/94/94 95/95/95
f 98/98/98 41/41/41 95/95/95
f 97/97/97 95/95/95 41/41/41
f 100/100/100 42/42/42 99/99/99
f 101/101/101 99/99/99 42/42/42
f 36/36/36 43/43/43 102/102/102
f 103/103/103 102/102/102 43/43/43
f 103/103/103 43/43/43 44/44/44
f 103/103/103 44/44/44 104/104/104
f 50/50/50 51/51/51 23/23/23
f 107/107/107 106/106/106 105/105/105
f 28/28/28 105/105/105 106/106/106
f 5/5/5 6/6/6 29/29/29
f 6/6/6 67/67/67 29/29/29
f 67/67/67 108/108/108 29/29/29
f 31/31/31 32/32/32 71/71/71
f 32/32/32 8/8/8 71/71/71
f 8/8/8 77/77/77 71/71/71
f 110/110/110 37/37/37 109/109/109
f 111/111/111 109/109/109 37/37/37
f 74/74/74 38/38/38 112/112/112
f 113/113/113 112/112/112 38/38/38
f 22/22/22 114/114/114 45/45/45
f 114/114/114 115/115/115 45/45/45
f 115/115/115 116/116/116 45/45/45
f 118/118/118 46/46/46 117/117/117
f 47/47/47 117/117/117 46/46/46
f 6/6/6 48/48/48 66/66/66
f 119/119/119 66/66/66 48/48/48
f 78/78/78 49/49/49 80/80/80
f 120/120/120 80/80/80 49/49/49
f 121/121/121 61/61/61 60/60/60
f 92/92/92 93/93/93 122/122/122
f 123/123/123 122/122/122 93/93/93
f 54/54/54 58/58/58 124/124/124
f 125/125/125 50/50/50 1/1/1
f 23/23/23 24/24/24 50/50/50
f 50/50/50 24/24/24 1/1/1
f 128/128/128 127/127/127 126/126/126
f 59/59/59 130/130/130 129/129/129
f 55/55/55 132/132/132 131/131/131
f 133/133/133 131/131/131 132/132/132
f 124/124/124 58/58/58 134/134/134
f 135/135/135 134/134/134 58/58/58
f 138/138/138 137/137/137 136/136/136
f 52/52/52 136/136/136 137/137/137
f 141/141/141 140/140/140 139/139/139
f 142/142/142 127/127/127 128/128/128
f 143/143/143 142/142/142 128/128/128
f 144/144/144 127/127/127 142/142/142
f 145/145/145 143/143/143 128/128/128
f 148/148/148 147/147/147 146/146/146
f 149/149/149 147/147/147 148/148/148
f 150/150/150 149/149/149 148/148/148
f 152/152/152 151/151/151 149/149/149
f 147/147/147 149/149/149 151/151/151
f 154/154/154 153/153/153 148/148/148
f 153/153/153 150/150/150 148/148/148
f 155/155/155 148/148/148 146/146/146
f 157/157/157 146/146/146 156/156/156
f 157/157/157 53/53/53 146/146/146
f 158/158/158 146/146/146 53/53/53
f 159/159/159 146/146/146 158/158/158
f 160/160/160 59/59/59 129/129/129
f 161/161/161 160/160/160 129/129/129
f 162/162/162 59/59/59 160/160/160
f 164/164/164 163/163/163 139/139/139
f 163/163/163 141/141/141 139/139/139
f 165/165/165 164/164/164 139/139/139
f 166/166/166 163/163/163 164/164/164
f 167/167/167 166/166/166 164/164/164
f 169/169/169 168/168/168 126/126/126
f 147/147/147 128/128/128 146/146/146
f 168/168/168 146/146/146 126/126/126
f 126/126/126 146/146/146 128/128/128
f 171/171/171 170/170/170 168/168/168
f 170/170/170 146/146/146 168/168/168
f 156/156/156 146/146/146 170/170/170
f 173/173/173 172/172/172 59/59/59
f 172/172/172 174/174/174 59/59/59
f 174/174/174 175/175/175 59/59/59
f 175/175/175 130/130/130 59/59/59
f 176/176/176 137/137/137 138/138/138
f 16/16/16 61/61/61 82/82/82
f 121/121/121 82/82/82 61/61/61
