g Cone_Trail_02
v 0.0005260044 0.01506284 -0.001720562
v -0.002090573 0.01989044 0
v -0.001575457 0.01498945 -0.001720562
v 0.0006979876 0.01998782 0
v -0.001575457 0.01498945 0.001720573
v 0.002617228 0.01484304 -0.001720562
v 0.0005260044 0.01506284 0.001720573
v 0.003472962 0.01969616 0
v 0.00465751 0.01433434 -0.001720562
v 0.002617228 0.01484304 0.001720573
v 0.006180339 0.01902113 0
v 0.006607138 0.01354664 -0.001720562
v 0.00465751 0.01433434 0.001720573
v 0.008767423 0.01797588 0
v 0.008428166 0.01249527 -0.001720562
v 0.006607138 0.01354664 0.001720573
v 0.01118386 0.01658075 0
v 0.01008515 0.01120069 -0.001720562
v 0.008428166 0.01249527 0.001720573
v 0.01338261 0.0148629 0
v 0.01154584 0.009688108 -0.001720562
v 0.01008515 0.01120069 0.001720573
v 0.01532089 0.01285575 0
v 0.0127818 0.007986953 -0.001720562
v 0.01154584 0.009688108 0.001720573
v 0.01696096 0.01059839 0
v 0.01376897 0.006130342 -0.001720562
v 0.0127818 0.007986953 0.001720573
v 0.01827091 0.008134734 0
v 0.01448815 0.004154413 -0.001720562
v 0.01376897 0.006130342 0.001720573
v 0.01922523 0.005512747 0
v 0.01492534 0.002097621 -0.001720562
v 0.01448815 0.004154413 0.001720573
v 0.01980536 0.002783462 0
v 0.01507202 1.537934E-09 -0.001720562
v 0.01492534 0.002097621 0.001720573
v 0.02 0 0
v 0.01492534 -0.002097589 -0.001720562
v 0.01507202 1.537934E-09 0.001720573
v 0.01980537 -0.002783424 0
v 0.01448816 -0.004154385 -0.001720562
v 0.01492534 -0.002097589 0.001720573
v 0.01922524 -0.005512714 0
v 0.01376898 -0.006130319 -0.001720562
v 0.01448816 -0.004154385 0.001720573
v 0.01827092 -0.008134704 0
v 0.0127818 -0.007986934 -0.001720562
v 0.01376898 -0.006130319 0.001720573
v 0.01696098 -0.01059836 0
v 0.01154585 -0.009688089 -0.001720562
v 0.0127818 -0.007986934 0.001720573
v 0.01532091 -0.01285573 0
v 0.01008516 -0.01120068 -0.001720562
v 0.01154585 -0.009688089 0.001720573
v 0.01338263 -0.01486288 0
v 0.008428178 -0.01249526 -0.001720562
v 0.01008516 -0.01120068 0.001720573
v 0.01118387 -0.01658074 0
v 0.006607148 -0.01354663 -0.001720562
v 0.008428178 -0.01249526 0.001720573
v 0.008767437 -0.01797587 0
v 0.004657519 -0.01433434 -0.001720562
v 0.006607148 -0.01354663 0.001720573
v 0.006180352 -0.01902113 0
v 0.002617236 -0.01484304 -0.001720562
v 0.004657519 -0.01433434 0.001720573
v 0.003472973 -0.01969615 0
v 0.0005260105 -0.01506283 -0.001720562
v 0.002617236 -0.01484304 0.001720573
v 0.0006979958 -0.01998782 0
v -0.001575452 -0.01498945 -0.001720562
v 0.0005260105 -0.01506283 0.001720573
v -0.002090567 -0.01989044 0
v -0.003646252 -0.01462431 -0.001720562
v -0.001575452 -0.01498945 0.001720573
v -0.004838439 -0.01940591 0
v -0.005646079 -0.01397453 -0.001720562
v -0.003646252 -0.01462431 0.001720573
v -0.007492136 -0.01854368 0
v -0.007536012 -0.01305275 -0.001720562
v -0.005646079 -0.01397453 0.001720573
v -0.01000001 -0.0173205 0
v -0.009279266 -0.01187691 -0.001720562
v -0.007536012 -0.01305275 0.001720573
v -0.01231324 -0.01576021 0
v -0.01084191 -0.01046989 -0.001720562
v -0.009279266 -0.01187691 0.001720573
v -0.01438681 -0.01389316 0
v -0.01219353 -0.008859102 -0.001720562
v -0.01084191 -0.01046989 0.001720573
v -0.01618035 -0.0117557 0
v -0.01330781 -0.007075876 -0.001720562
v -0.01219353 -0.008859102 0.001720573
v -0.01765896 -0.009389422 0
v -0.01416307 -0.005154925 -0.001720562
v -0.01330781 -0.007075876 0.001720573
v -0.01879386 -0.006840394 0
v -0.01474266 -0.003133641 -0.001720562
v -0.01416307 -0.005154925 0.001720573
v -0.01956295 -0.004158226 0
v -0.0150353 -0.001051364 -0.001720562
v -0.01474266 -0.003133641 0.001720573
v -0.01995128 -0.001395123 0
v -0.0150353 0.001051376 -0.001720562
v -0.0150353 -0.001051364 0.001720573
v -0.01995128 0.001395134 0
v -0.01474266 0.003133653 -0.001720562
v -0.0150353 0.001051376 0.001720573
v -0.01956295 0.004158237 0
v -0.01416306 0.005154935 -0.001720562
v -0.01474266 0.003133653 0.001720573
v -0.01879385 0.006840405 0
v -0.0133078 0.007075884 -0.001720562
v -0.01416306 0.005154935 0.001720573
v -0.01765895 0.009389431 0
v -0.01219352 0.008859109 -0.001720562
v -0.0133078 0.007075884 0.001720573
v -0.01618034 0.0117557 0
v -0.0108419 0.0104699 -0.001720562
v -0.01219352 0.008859109 0.001720573
v -0.0143868 0.01389317 0
v -0.009279264 0.01187691 -0.001720562
v -0.0108419 0.0104699 0.001720573
v -0.01231323 0.01576021 0
v -0.007536012 0.01305275 -0.001720562
v -0.009279264 0.01187691 0.001720573
v -0.01000001 0.01732051 0
v -0.005646079 0.01397453 -0.001720562
v -0.007536012 0.01305275 0.001720573
v -0.007492137 0.01854368 0
v -0.003646254 0.01462432 -0.001720562
v -0.005646079 0.01397453 0.001720573
v -0.004838442 0.01940591 0
v -0.001575457 0.01498945 -0.001720562
v -0.003646254 0.01462432 0.001720573
v -0.002090573 0.01989044 0
v -0.001575457 0.01498945 0.001720573
vt 0.9944444 0
vt 1.016667 0.5
vt 1.016667 0
vt 0.9944444 0.5
vt 1.016667 1
vt 0.9722222 0
vt 0.9944444 1
vt 0.9722222 0.5
vt 0.95 0
vt 0.9722222 1
vt 0.95 0.5
vt 0.9277778 0
vt 0.95 1
vt 0.9277778 0.5
vt 0.9055555 0
vt 0.9277778 1
vt 0.9055555 0.5
vt 0.8833333 0
vt 0.9055555 1
vt 0.8833333 0.5
vt 0.861111 0
vt 0.8833333 1
vt 0.861111 0.5
vt 0.8388889 0
vt 0.861111 1
vt 0.8388889 0.5
vt 0.8166667 0
vt 0.8388889 1
vt 0.8166667 0.5
vt 0.7944444 0
vt 0.8166667 1
vt 0.7944444 0.5
vt 0.7722222 0
vt 0.7944444 1
vt 0.7722222 0.5
vt 0.75 0
vt 0.7722222 1
vt 0.75 0.5
vt 0.7277781 0
vt 0.75 1
vt 0.7277781 0.5
vt 0.7055558 0
vt 0.7277781 1
vt 0.7055558 0.5
vt 0.6833335 0
vt 0.7055558 1
vt 0.6833335 0.5
vt 0.6611113 0
vt 0.6833335 1
vt 0.6611113 0.5
vt 0.6388891 0
vt 0.6611113 1
vt 0.6388891 0.5
vt 0.6166669 0
vt 0.6388891 1
vt 0.6166669 0.5
vt 0.5944446 0
vt 0.6166669 1
vt 0.5944446 0.5
vt 0.5722224 0
vt 0.5944446 1
vt 0.5722224 0.5
vt 0.5500001 0
vt 0.5722224 1
vt 0.5500001 0.5
vt 0.5277779 0
vt 0.5500001 1
vt 0.5277779 0.5
vt 0.5055556 0
vt 0.5277779 1
vt 0.5055556 0.5
vt 0.4833333 0
vt 0.5055556 1
vt 0.4833333 0.5
vt 0.4611111 0
vt 0.4833333 1
vt 0.4611111 0.5
vt 0.4388888 0
vt 0.4611111 1
vt 0.4388888 0.5
vt 0.4166666 0
vt 0.4388888 1
vt 0.4166666 0.5
vt 0.3944444 0
vt 0.4166666 1
vt 0.3944444 0.5
vt 0.3722222 0
vt 0.3944444 1
vt 0.3722222 0.5
vt 0.3499999 0
vt 0.3722222 1
vt 0.3499999 0.5
vt 0.3277777 0
vt 0.3499999 1
vt 0.3277777 0.5
vt 0.3055555 0
vt 0.3277777 1
vt 0.3055555 0.5
vt 0.2833333 0
vt 0.3055555 1
vt 0.2833333 0.5
vt 0.2611111 0
vt 0.2833333 1
vt 0.2611111 0.5
vt 0.2388889 0
vt 0.2611111 1
vt 0.2388889 0.5
vt 0.2166667 0
vt 0.2388889 1
vt 0.2166667 0.5
vt 0.1944444 0
vt 0.2166667 1
vt 0.1944444 0.5
vt 0.1722222 0
vt 0.1944444 1
vt 0.1722222 0.5
vt 0.1500001 0
vt 0.1722222 1
vt 0.1500001 0.5
vt 0.1277778 0
vt 0.1500001 1
vt 0.1277778 0.5
vt 0.1055556 0
vt 0.1277778 1
vt 0.1055556 0.5
vt 0.08333339 0
vt 0.1055556 1
vt 0.08333339 0.5
vt 0.06111118 0
vt 0.08333339 1
vt 0.06111118 0.5
vt 0.03888893 0
vt 0.06111118 1
vt 0.03888893 0.5
vt 0.01666672 0
vt 0.03888893 1
vt 0.01666672 0.5
vt 0.01666672 1
vn 0.01150375 0.3294273 -0.9441109
vn -0.1045282 0.9945219 -8.413239E-07
vn -0.03445542 0.3278223 -0.9441109
vn 0.03489919 0.9993908 -1.021607E-06
vn -0.03445561 0.3278241 0.9441103
vn 0.05723912 0.3246204 -0.9441109
vn 0.01150381 0.3294291 0.9441102
vn 0.1736476 0.9848078 -1.021607E-06
vn 0.1018608 0.313495 -0.9441109
vn 0.05723942 0.3246221 0.9441102
vn 0.3090172 0.9510565 -1.021607E-06
vn 0.1444995 0.2962677 -0.9441109
vn 0.1018613 0.3134966 0.9441102
vn 0.4383713 0.898794 -8.413237E-07
vn 0.1843256 0.273274 -0.9441109
vn 0.1445003 0.2962694 0.9441102
vn 0.559193 0.8290375 -8.413238E-07
vn 0.2205643 0.2449614 -0.9441109
vn 0.1843267 0.2732755 0.9441102
vn 0.6691307 0.7431448 -6.6104E-07
vn 0.2525098 0.2118809 -0.9441109
vn 0.2205655 0.2449627 0.9441102
vn 0.7660444 0.6427876 -7.812289E-07
vn 0.2795404 0.1746762 -0.9441109
vn 0.2525111 0.2118821 0.9441102
vn 0.848048 0.5299193 -9.61513E-07
vn 0.3011302 0.1340718 -0.9441109
vn 0.279542 0.1746772 0.9441102
vn 0.9135455 0.4067365 -8.413238E-07
vn 0.3168588 0.09085784 -0.9441109
vn 0.3011319 0.1340725 0.9441103
vn 0.9612617 0.2756374 -9.014183E-07
vn 0.3264201 0.04587543 -0.9441109
vn 0.3168605 0.09085831 0.9441103
vn 0.9902681 0.1391733 -9.014183E-07
vn 0.329628 1.798594E-07 -0.9441109
vn 0.3264219 0.04587566 0.9441103
vn 1 4.713666E-07 -9.014183E-07
vn 0.3264202 -0.04587494 -0.9441109
vn 0.3296298 1.75306E-07 0.9441103
vn 0.9902683 -0.1391718 -9.014183E-07
vn 0.3168589 -0.09085727 -0.9441109
vn 0.3264219 -0.04587519 0.9441103
vn 0.9612622 -0.2756358 -9.014185E-07
vn 0.3011303 -0.1340712 -0.9441109
vn 0.3168607 -0.09085777 0.9441103
vn 0.9135461 -0.4067352 -9.014187E-07
vn 0.2795406 -0.1746757 -0.9441109
vn 0.301132 -0.134072 0.9441103
vn 0.8480489 -0.5299179 -9.615136E-07
vn 0.2525099 -0.2118804 -0.9441109
vn 0.2795421 -0.1746767 0.9441103
vn 0.7660452 -0.6427866 -9.61513E-07
vn 0.2205644 -0.244961 -0.9441109
vn 0.2525113 -0.2118816 0.9441103
vn 0.6691315 -0.743144 -9.014188E-07
vn 0.1843259 -0.2732737 -0.9441109
vn 0.2205656 -0.2449624 0.9441103
vn 0.5591937 -0.8290371 -9.615135E-07
vn 0.1444995 -0.2962675 -0.9441109
vn 0.1843269 -0.2732752 0.9441103
vn 0.4383717 -0.8987938 -1.081702E-06
vn 0.1018609 -0.3134947 -0.9441109
vn 0.1445003 -0.2962692 0.9441103
vn 0.3090177 -0.9510562 -9.61513E-07
vn 0.05723946 -0.3246202 -0.9441109
vn 0.1018615 -0.3134965 0.9441103
vn 0.1736487 -0.9848076 -9.014187E-07
vn 0.01150393 -0.3294272 -0.9441109
vn 0.05723979 -0.3246219 0.9441103
vn 0.03489974 -0.9993908 -9.014183E-07
vn -0.03445547 -0.3278222 -0.9441109
vn 0.011504 -0.329429 0.9441103
vn -0.1045283 -0.9945219 -8.41324E-07
vn -0.07974423 -0.3198366 -0.9441109
vn -0.03445565 -0.327824 0.9441103
vn -0.2419219 -0.9702957 -9.014186E-07
vn -0.1234809 -0.3056256 -0.9441109
vn -0.07974465 -0.3198383 0.9441103
vn -0.3746068 -0.9271837 -9.615136E-07
vn -0.1648141 -0.2854661 -0.9441109
vn -0.1234815 -0.3056273 0.9441103
vn -0.5000005 -0.8660251 -9.615129E-07
vn -0.2029394 -0.2597503 -0.9441109
vn -0.1648151 -0.2854677 0.9441103
vn -0.6156618 -0.7880105 -9.014187E-07
vn -0.2371146 -0.2289788 -0.9441109
vn -0.2029404 -0.2597517 0.9441103
vn -0.71934 -0.6946583 -9.014185E-07
vn -0.2666747 -0.1937504 -0.9441109
vn -0.2371159 -0.22898 0.9441103
vn -0.8090172 -0.5877849 -7.211347E-07
vn -0.2910444 -0.1547508 -0.9441109
vn -0.2666762 -0.1937515 0.9441102
vn -0.8829479 -0.469471 -8.413235E-07
vn -0.3097491 -0.1127392 -0.9441109
vn -0.291046 -0.1547517 0.9441102
vn -0.9396929 -0.3420195 -9.014184E-07
vn -0.3224248 -0.06853331 -0.9441109
vn -0.3097508 -0.1127398 0.9441103
vn -0.9781477 -0.2079111 -9.61513E-07
vn -0.3288249 -0.02299357 -0.9441109
vn -0.3224266 -0.06853367 0.9441103
vn -0.9975641 -0.06975617 -9.01419E-07
vn -0.328825 0.02299369 -0.9441109
vn -0.3288267 -0.02299368 0.9441103
vn -0.9975641 0.06975648 -8.413238E-07
vn -0.3224249 0.06853357 -0.9441109
vn -0.3288268 0.02299382 0.9441103
vn -0.9781476 0.2079118 -9.014186E-07
vn -0.3097489 0.1127395 -0.9441109
vn -0.3224266 0.06853394 0.9441103
vn -0.9396926 0.3420205 -7.211347E-07
vn -0.2910444 0.1547509 -0.9441109
vn -0.3097507 0.1127402 0.9441103
vn -0.8829478 0.4694712 -1.021607E-06
vn -0.2666748 0.1937504 -0.9441109
vn -0.291046 0.1547517 0.9441102
vn -0.8090171 0.587785 -9.014184E-07
vn -0.2371146 0.228979 -0.9441109
vn -0.2666762 0.1937515 0.9441102
vn -0.7193397 0.6946585 -7.812291E-07
vn -0.2029393 0.2597505 -0.9441109
vn -0.2371159 0.2289802 0.9441102
vn -0.6156614 0.7880108 -7.812289E-07
vn -0.1648141 0.2854663 -0.9441109
vn -0.2029404 0.2597519 0.9441102
vn -0.5000001 0.8660254 -7.211347E-07
vn -0.123481 0.3056258 -0.9441109
vn -0.1648149 0.2854678 0.9441102
vn -0.374607 0.9271837 -8.413235E-07
vn -0.07974436 0.3198367 -0.9441109
vn -0.1234816 0.3056274 0.9441102
vn -0.2419222 0.9702956 -9.014184E-07
vn -0.03445542 0.3278223 -0.9441109
vn -0.07974479 0.3198384 0.9441103
vn -0.1045282 0.9945219 -8.413239E-07
vn -0.03445561 0.3278241 0.9441103
g Cone_Trail_02_0
f 3/3/3 2/2/2 1/1/1
f 2/2/2 4/4/4 1/1/1
f 2/2/2 5/5/5 4/4/4
f 1/1/1 4/4/4 6/6/6
f 5/5/5 7/7/7 4/4/4
f 4/4/4 8/8/8 6/6/6
f 4/4/4 7/7/7 8/8/8
f 6/6/6 8/8/8 9/9/9
f 7/7/7 10/10/10 8/8/8
f 8/8/8 11/11/11 9/9/9
f 8/8/8 10/10/10 11/11/11
f 9/9/9 11/11/11 12/12/12
f 10/10/10 13/13/13 11/11/11
f 11/11/11 14/14/14 12/12/12
f 11/11/11 13/13/13 14/14/14
f 12/12/12 14/14/14 15/15/15
f 13/13/13 16/16/16 14/14/14
f 14/14/14 17/17/17 15/15/15
f 14/14/14 16/16/16 17/17/17
f 15/15/15 17/17/17 18/18/18
f 16/16/16 19/19/19 17/17/17
f 17/17/17 20/20/20 18/18/18
f 17/17/17 19/19/19 20/20/20
f 18/18/18 20/20/20 21/21/21
f 19/19/19 22/22/22 20/20/20
f 20/20/20 23/23/23 21/21/21
f 20/20/20 22/22/22 23/23/23
f 21/21/21 23/23/23 24/24/24
f 22/22/22 25/25/25 23/23/23
f 23/23/23 26/26/26 24/24/24
f 23/23/23 25/25/25 26/26/26
f 24/24/24 26/26/26 27/27/27
f 25/25/25 28/28/28 26/26/26
f 26/26/26 29/29/29 27/27/27
f 26/26/26 28/28/28 29/29/29
f 27/27/27 29/29/29 30/30/30
f 28/28/28 31/31/31 29/29/29
f 29/29/29 32/32/32 30/30/30
f 29/29/29 31/31/31 32/32/32
f 30/30/30 32/32/32 33/33/33
f 31/31/31 34/34/34 32/32/32
f 32/32/32 35/35/35 33/33/33
f 32/32/32 34/34/34 35/35/35
f 33/33/33 35/35/35 36/36/36
f 34/34/34 37/37/37 35/35/35
f 35/35/35 38/38/38 36/36/36
f 35/35/35 37/37/37 38/38/38
f 36/36/36 38/38/38 39/39/39
f 37/37/37 40/40/40 38/38/38
f 38/38/38 41/41/41 39/39/39
f 38/38/38 40/40/40 41/41/41
f 39/39/39 41/41/41 42/42/42
f 40/40/40 43/43/43 41/41/41
f 41/41/41 44/44/44 42/42/42
f 41/41/41 43/43/43 44/44/44
f 42/42/42 44/44/44 45/45/45
f 43/43/43 46/46/46 44/44/44
f 44/44/44 47/47/47 45/45/45
f 44/44/44 46/46/46 47/47/47
f 45/45/45 47/47/47 48/48/48
f 46/46/46 49/49/49 47/47/47
f 47/47/47 50/50/50 48/48/48
f 47/47/47 49/49/49 50/50/50
f 48/48/48 50/50/50 51/51/51
f 49/49/49 52/52/52 50/50/50
f 50/50/50 53/53/53 51/51/51
f 50/50/50 52/52/52 53/53/53
f 51/51/51 53/53/53 54/54/54
f 52/52/52 55/55/55 53/53/53
f 53/53/53 56/56/56 54/54/54
f 53/53/53 55/55/55 56/56/56
f 54/54/54 56/56/56 57/57/57
f 55/55/55 58/58/58 56/56/56
f 56/56/56 59/59/59 57/57/57
f 56/56/56 58/58/58 59/59/59
f 57/57/57 59/59/59 60/60/60
f 58/58/58 61/61/61 59/59/59
f 59/59/59 62/62/62 60/60/60
f 59/59/59 61/61/61 62/62/62
f 60/60/60 62/62/62 63/63/63
f 61/61/61 64/64/64 62/62/62
f 62/62/62 65/65/65 63/63/63
f 62/62/62 64/64/64 65/65/65
f 63/63/63 65/65/65 66/66/66
f 64/64/64 67/67/67 65/65/65
f 65/65/65 68/68/68 66/66/66
f 65/65/65 67/67/67 68/68/68
f 66/66/66 68/68/68 69/69/69
f 67/67/67 70/70/70 68/68/68
f 68/68/68 71/71/71 69/69/69
f 68/68/68 70/70/70 71/71/71
f 69/69/69 71/71/71 72/72/72
f 70/70/70 73/73/73 71/71/71
f 71/71/71 74/74/74 72/72/72
f 71/71/71 73/73/73 74/74/74
f 72/72/72 74/74/74 75/75/75
f 73/73/73 76/76/76 74/74/74
f 74/74/74 77/77/77 75/75/75
f 74/74/74 76/76/76 77/77/77
f 75/75/75 77/77/77 78/78/78
f 76/76/76 79/79/79 77/77/77
f 77/77/77 80/80/80 78/78/78
f 77/77/77 79/79/79 80/80/80
f 78/78/78 80/80/80 81/81/81
f 79/79/79 82/82/82 80/80/80
f 80/80/80 83/83/83 81/81/81
f 80/80/80 82/82/82 83/83/83
f 81/81/81 83/83/83 84/84/84
f 82/82/82 85/85/85 83/83/83
f 83/83/83 86/86/86 84/84/84
f 83/83/83 85/85/85 86/86/86
f 84/84/84 86/86/86 87/87/87
f 85/85/85 88/88/88 86/86/86
f 86/86/86 89/89/89 87/87/87
f 86/86/86 88/88/88 89/89/89
f 87/87/87 89/89/89 90/90/90
f 88/88/88 91/91/91 89/89/89
f 89/89/89 92/92/92 90/90/90
f 89/89/89 91/91/91 92/92/92
f 90/90/90 92/92/92 93/93/93
f 91/91/91 94/94/94 92/92/92
f 92/92/92 95/95/95 93/93/93
f 92/92/92 94/94/94 95/95/95
f 93/93/93 95/95/95 96/96/96
f 94/94/94 97/97/97 95/95/95
f 95/95/95 98/98/98 96/96/96
f 95/95/95 97/97/97 98/98/98
f 96/96/96 98/98/98 99/99/99
f 97/97/97 100/100/100 98/98/98
f 98/98/98 101/101/101 99/99/99
f 98/98/98 100/100/100 101/101/101
f 99/99/99 101/101/101 102/102/102
f 100/100/100 103/103/103 101/101/101
f 101/101/101 104/104/104 102/102/102
f 101/101/101 103/103/103 104/104/104
f 102/102/102 104/104/104 105/105/105
f 103/103/103 106/106/106 104/104/104
f 104/104/104 107/107/107 105/105/105
f 104/104/104 106/106/106 107/107/107
f 105/105/105 107/107/107 108/108/108
f 106/106/106 109/109/109 107/107/107
f 107/107/107 110/110/110 108/108/108
f 107/107/107 109/109/109 110/110/110
f 108/108/108 110/110/110 111/111/111
f 109/109/109 112/112/112 110/110/110
f 110/110/110 113/113/113 111/111/111
f 110/110/110 112/112/112 113/113/113
f 111/111/111 113/113/113 114/114/114
f 112/112/112 115/115/115 113/113/113
f 113/113/113 116/116/116 114/114/114
f 113/113/113 115/115/115 116/116/116
f 114/114/114 116/116/116 117/117/117
f 115/115/115 118/118/118 116/116/116
f 116/116/116 119/119/119 117/117/117
f 116/116/116 118/118/118 119/119/119
f 117/117/117 119/119/119 120/120/120
f 118/118/118 121/121/121 119/119/119
f 119/119/119 122/122/122 120/120/120
f 119/119/119 121/121/121 122/122/122
f 120/120/120 122/122/122 123/123/123
f 121/121/121 124/124/124 122/122/122
f 122/122/122 125/125/125 123/123/123
f 122/122/122 124/124/124 125/125/125
f 123/123/123 125/125/125 126/126/126
f 124/124/124 127/127/127 125/125/125
f 125/125/125 128/128/128 126/126/126
f 125/125/125 127/127/127 128/128/128
f 126/126/126 128/128/128 129/129/129
f 127/127/127 130/130/130 128/128/128
f 128/128/128 131/131/131 129/129/129
f 128/128/128 130/130/130 131/131/131
f 129/129/129 131/131/131 132/132/132
f 130/130/130 133/133/133 131/131/131
f 131/131/131 134/134/134 132/132/132
f 131/131/131 133/133/133 134/134/134
f 132/132/132 134/134/134 135/135/135
f 133/133/133 136/136/136 134/134/134
f 134/134/134 137/137/137 135/135/135
f 134/134/134 136/136/136 137/137/137
f 136/136/136 138/138/138 137/137/137
