g Cone_Trail_05
v 3.048 -3.875732E-07 0
v 3.444867 0.5748459 0.4656368
v 3.00643 0.5016841 0
v 3.4925 3.875732E-07 0.744069
v 3.883304 0.6480085 1.562772
v 3.006431 -0.5016755 0
v 3.937 -3.875732E-07 1.899147
v 3.444868 -0.5748366 0.9589186
v 2.882854 -0.9896758 0
v 3.883306 -0.647998 2.196884
v 3.30327 -1.134004 1.11963
v 2.68064 -1.450681 0
v 3.723686 -1.278331 2.465735
v 3.071566 -1.662238 1.242008
v 2.405306 -1.872114 0
v 3.462494 -1.873796 2.715258
v 2.756079 -2.145131 1.344065
v 2.064359 -2.242481 0
v 3.106853 -2.418148 2.951108
v 2.365412 -2.56951 1.440348
v 1.667104 -2.55168 0
v 2.666464 -2.896539 3.172798
v 1.910223 -2.9238 1.536826
v 1.224374 -2.791275 0
v 2.153342 -3.29592 3.37344
v 1.402929 -3.198336 1.628829
v 0.7482466 -2.954731 0
v 1.581483 -3.605397 3.54139
v 0.8573655 -3.385629 1.70345
v 0.2517087 -3.037589 0
v 0.9664848 -3.816527 3.663283
v 0.2884142 -3.480571 1.7457
v -0.2516963 -3.03759 0
v 0.3251224 -3.923553 3.727561
v -0.2884026 -3.480572 1.745701
v -0.7482343 -2.954734 0
v -0.3251077 -3.923554 3.727561
v -0.8573517 -3.385633 1.703451
v -1.224363 -2.791279 0
v -0.9664695 -3.816531 3.663284
v -1.402916 -3.198341 1.628831
v -1.667094 -2.551686 0
v -1.581469 -3.605402 3.541394
v -1.910212 -2.923807 1.536829
v -2.064351 -2.24249 0
v -2.15333 -3.295928 3.373444
v -2.365402 -2.569519 1.440351
v -2.405298 -1.872123 0
v -2.666454 -2.896549 3.172802
v -2.75607 -2.145142 1.344067
v -2.680635 -1.450691 0
v -3.106843 -2.41816 2.951113
v -3.071561 -1.662249 1.242011
v -2.88285 -0.9896873 0
v -3.462486 -1.873809 2.715264
v -3.303266 -1.134017 1.119634
v -3.006429 -0.5016868 0
v -3.723682 -1.278345 2.465741
v -3.444866 -0.5748482 0.958923
v -3.048 -2.325439E-06 0
v -3.883304 -0.6480132 2.19689
v -3.4925 -2.325439E-06 0.7440701
v -3.00643 0.5016829 0
v -3.937 -3.488159E-06 1.899148
v -3.444868 0.5748436 0.4656381
v -3.883305 0.6480062 1.562773
vt 0.952456 0
vt 0.9999561 0.5
vt 0.9999561 0
vt 0.952456 0.5
vt 0.9999561 1
vt 0.9049569 0
vt 0.952456 1
vt 0.9049569 0.5
vt 0.8574568 0
vt 0.9049569 1
vt 0.8574567 0.5
vt 0.8099568 0
vt 0.8574567 1
vt 0.8099567 0.5
vt 0.7624569 0
vt 0.8099568 1
vt 0.7624569 0.5
vt 0.7149568 0
vt 0.7624569 1
vt 0.7149568 0.5
vt 0.6674567 0
vt 0.7149568 1
vt 0.6674567 0.5
vt 0.6199566 0
vt 0.6674567 1
vt 0.6199566 0.5
vt 0.5724567 0
vt 0.6199566 1
vt 0.5724567 0.5
vt 0.5249566 0
vt 0.5724567 1
vt 0.5249566 0.5
vt 0.4774565 0
vt 0.5249566 1
vt 0.4774565 0.5
vt 0.4299565 0
vt 0.4774565 1
vt 0.4299565 0.5
vt 0.3824565 0
vt 0.4299565 1
vt 0.3824565 0.5
vt 0.3349564 0
vt 0.3824565 1
vt 0.3349564 0.5
vt 0.2874564 0
vt 0.3349565 1
vt 0.2874564 0.5
vt 0.2399563 0
vt 0.2874564 1
vt 0.2399563 0.5
vt 0.1924563 0
vt 0.2399563 1
vt 0.1924563 0.5
vt 0.1449563 0
vt 0.1924563 1
vt 0.1449563 0.5
vt 0.09745625 0
vt 0.1449563 1
vt 0.09745631 0.5
vt 0.04995621 0
vt 0.09745631 1
vt 0.04995621 0.5
vt 0.002456191 0
vt 0.04995621 1
vt 0.002456191 0.5
vt 0.002456191 1
vn 0.8428304 -0.1245255 -0.5235745
vn 0.8609906 -0.09276176 -0.5000902
vn 0.8072846 -0.0841843 -0.5841272
vn 0.8918164 -0.1422785 -0.4294418
vn 0.92709 -0.1042051 -0.3600631
vn 0.8764388 -0.2234918 -0.4265049
vn 0.9195957 -0.1782384 -0.350107
vn 0.891244 -0.2531848 -0.3762733
vn 0.8605067 -0.3479194 -0.3721295
vn 0.8961794 -0.2956434 -0.3308437
vn 0.8615521 -0.3769022 -0.3401069
vn 0.8100663 -0.4788341 -0.338394
vn 0.8546298 -0.417799 -0.3083048
vn 0.8051054 -0.504157 -0.3124596
vn 0.7308905 -0.6057328 -0.3144628
vn 0.7910953 -0.5411066 -0.2852575
vn 0.7230332 -0.6269399 -0.2901194
vn 0.6274182 -0.7206281 -0.2950281
vn 0.7044366 -0.6586941 -0.2643694
vn 0.6181634 -0.7376152 -0.2716577
vn 0.5047799 -0.8172107 -0.2781433
vn 0.5971518 -0.7630344 -0.2473625
vn 0.495304 -0.8299693 -0.2565637
vn 0.3686034 -0.891322 -0.2639634
vn 0.4744767 -0.8483722 -0.2348115
vn 0.3602077 -0.9001404 -0.2449444
vn 0.2240388 -0.9410136 -0.2535746
vn 0.3424876 -0.9118303 -0.226424
vn 0.21816 -0.946674 -0.2370962
vn 0.07512151 -0.965825 -0.2480703
vn 0.206257 -0.9531031 -0.2214781
vn 0.07299446 -0.9696923 -0.2331712
vn -0.07511813 -0.9658252 -0.2480703
vn 0.06880246 -0.9732438 -0.2192322
vn -0.0729911 -0.9696925 -0.2331712
vn -0.2240352 -0.9410144 -0.2535746
vn -0.06879901 -0.973244 -0.2192322
vn -0.2181567 -0.9466748 -0.2370962
vn -0.3686001 -0.8913234 -0.2639633
vn -0.206254 -0.9531037 -0.2214781
vn -0.3602045 -0.9001417 -0.2449442
vn -0.504777 -0.8172128 -0.2781429
vn -0.3424846 -0.9118315 -0.2264238
vn -0.495301 -0.8299711 -0.2565633
vn -0.6274159 -0.7206303 -0.2950275
vn -0.4744736 -0.8483741 -0.2348114
vn -0.6181609 -0.7376174 -0.2716573
vn -0.7308884 -0.6057357 -0.3144622
vn -0.5971493 -0.7630365 -0.2473624
vn -0.7230313 -0.6269425 -0.290119
vn -0.8100644 -0.4788377 -0.3383933
vn -0.7044345 -0.6586965 -0.2643691
vn -0.8051035 -0.5041603 -0.3124589
vn -0.8605061 -0.3479221 -0.3721285
vn -0.7910936 -0.5411095 -0.2852569
vn -0.8615511 -0.3769051 -0.3401062
vn -0.8764388 -0.2234937 -0.4265038
vn -0.8546285 -0.4178022 -0.3083041
vn -0.8912438 -0.2531867 -0.3762727
vn -0.8428306 -0.1245263 -0.5235741
vn -0.8961787 -0.2956458 -0.3308435
vn -0.8918164 -0.1422796 -0.4294415
vn -0.8072845 -0.08418468 -0.5841272
vn -0.9195955 -0.1782396 -0.3501068
vn -0.8609906 -0.09276244 -0.5000901
vn -0.9270899 -0.1042062 -0.3600629
g Cone_Trail_05_0
f 3/3/3 2/2/2 1/1/1
f 2/2/2 4/4/4 1/1/1
f 2/2/2 5/5/5 4/4/4
f 1/1/1 4/4/4 6/6/6
f 5/5/5 7/7/7 4/4/4
f 4/4/4 8/8/8 6/6/6
f 4/4/4 7/7/7 8/8/8
f 6/6/6 8/8/8 9/9/9
f 7/7/7 10/10/10 8/8/8
f 8/8/8 11/11/11 9/9/9
f 8/8/8 10/10/10 11/11/11
f 9/9/9 11/11/11 12/12/12
f 10/10/10 13/13/13 11/11/11
f 11/11/11 14/14/14 12/12/12
f 11/11/11 13/13/13 14/14/14
f 12/12/12 14/14/14 15/15/15
f 13/13/13 16/16/16 14/14/14
f 14/14/14 17/17/17 15/15/15
f 14/14/14 16/16/16 17/17/17
f 15/15/15 17/17/17 18/18/18
f 16/16/16 19/19/19 17/17/17
f 17/17/17 20/20/20 18/18/18
f 17/17/17 19/19/19 20/20/20
f 18/18/18 20/20/20 21/21/21
f 19/19/19 22/22/22 20/20/20
f 20/20/20 23/23/23 21/21/21
f 20/20/20 22/22/22 23/23/23
f 21/21/21 23/23/23 24/24/24
f 22/22/22 25/25/25 23/23/23
f 23/23/23 26/26/26 24/24/24
f 23/23/23 25/25/25 26/26/26
f 24/24/24 26/26/26 27/27/27
f 25/25/25 28/28/28 26/26/26
f 26/26/26 29/29/29 27/27/27
f 26/26/26 28/28/28 29/29/29
f 27/27/27 29/29/29 30/30/30
f 28/28/28 31/31/31 29/29/29
f 29/29/29 32/32/32 30/30/30
f 29/29/29 31/31/31 32/32/32
f 30/30/30 32/32/32 33/33/33
f 31/31/31 34/34/34 32/32/32
f 32/32/32 35/35/35 33/33/33
f 32/32/32 34/34/34 35/35/35
f 33/33/33 35/35/35 36/36/36
f 34/34/34 37/37/37 35/35/35
f 35/35/35 38/38/38 36/36/36
f 35/35/35 37/37/37 38/38/38
f 36/36/36 38/38/38 39/39/39
f 37/37/37 40/40/40 38/38/38
f 38/38/38 41/41/41 39/39/39
f 38/38/38 40/40/40 41/41/41
f 39/39/39 41/41/41 42/42/42
f 40/40/40 43/43/43 41/41/41
f 41/41/41 44/44/44 42/42/42
f 41/41/41 43/43/43 44/44/44
f 42/42/42 44/44/44 45/45/45
f 43/43/43 46/46/46 44/44/44
f 44/44/44 47/47/47 45/45/45
f 44/44/44 46/46/46 47/47/47
f 45/45/45 47/47/47 48/48/48
f 46/46/46 49/49/49 47/47/47
f 47/47/47 50/50/50 48/48/48
f 47/47/47 49/49/49 50/50/50
f 48/48/48 50/50/50 51/51/51
f 49/49/49 52/52/52 50/50/50
f 50/50/50 53/53/53 51/51/51
f 50/50/50 52/52/52 53/53/53
f 51/51/51 53/53/53 54/54/54
f 52/52/52 55/55/55 53/53/53
f 53/53/53 56/56/56 54/54/54
f 53/53/53 55/55/55 56/56/56
f 54/54/54 56/56/56 57/57/57
f 55/55/55 58/58/58 56/56/56
f 56/56/56 59/59/59 57/57/57
f 56/56/56 58/58/58 59/59/59
f 57/57/57 59/59/59 60/60/60
f 58/58/58 61/61/61 59/59/59
f 59/59/59 62/62/62 60/60/60
f 59/59/59 61/61/61 62/62/62
f 60/60/60 62/62/62 63/63/63
f 61/61/61 64/64/64 62/62/62
f 62/62/62 65/65/65 63/63/63
f 62/62/62 64/64/64 65/65/65
f 64/64/64 66/66/66 65/65/65
