g Cube_(8)
v 50.81 5.999997 -4.28
v 50.81 0 -4.28
v 32.73254 0 -4.28
v 32.73254 5.999997 -4.28
v 32.73254 5.999997 -4.28
v 32.73254 0 -4.28
v 32.73254 0 -39.54345
v 32.73254 5.999997 -39.54345
v 32.73254 5.999997 -39.54345
v 32.73254 0 -39.54345
v 50.81 0 -39.54345
v 50.81 5.999997 -39.54345
v 50.81 5.999997 -39.54345
v 50.81 0 -39.54345
v 50.81 0 -4.28
v 50.81 5.999997 -4.28
v 50.81 5.999997 -39.54345
v 50.81 5.999997 -4.28
v 32.73254 5.999997 -4.28
v 32.73254 5.999997 -39.54345
v 50.81 0 -4.28
v 50.81 0 -39.54345
v 32.73254 0 -39.54345
v 32.73254 0 -4.28
v 28.69 4 -24.75999
v 28.69 0 -24.75999
v -3.543983 0 -24.75999
v -3.543983 4 -24.75999
v -3.543983 4 -24.75999
v -3.543983 0 -24.75999
v -3.543983 0 -39.40137
v -3.543983 4 -39.40137
v -3.543983 4 -39.40137
v -3.543983 0 -39.40137
v 28.69 0 -39.40137
v 28.69 4 -39.40137
v 28.69 4 -39.40137
v 28.69 0 -39.40137
v 28.69 0 -24.75999
v 28.69 4 -24.75999
v 28.69 4 -39.40137
v 28.69 4 -24.75999
v -3.543983 4 -24.75999
v -3.543983 4 -39.40137
v 28.69 0 -24.75999
v 28.69 0 -39.40137
v -3.543983 0 -39.40137
v -3.543983 0 -24.75999
v 50.781 6 25.47
v 50.781 0 25.47
v 44.00099 0 25.47
v 44.00099 6 25.47
v 44.00099 6 25.47
v 44.00099 0 25.47
v 44.00099 0 11.56077
v 44.00099 6 11.56077
v 44.00099 6 11.56077
v 44.00099 0 11.56077
v 50.781 0 11.56077
v 50.781 6 11.56077
v 50.781 6 11.56077
v 50.781 0 11.56077
v 50.781 0 25.47
v 50.781 6 25.47
v 50.781 6 11.56077
v 50.781 6 25.47
v 44.00099 6 25.47
v 44.00099 6 11.56077
v 50.781 0 25.47
v 50.781 0 11.56077
v 44.00099 0 11.56077
v 44.00099 0 25.47
v 50.775 6 12.36
v 50.775 0 12.36
v 27.00093 0 12.36
v 27.00093 6 12.36
v 27.00093 6 12.36
v 27.00093 0 12.36
v 27.00093 0 -4.280968
v 27.00093 6 -4.280968
v 27.00093 6 -4.280968
v 27.00093 0 -4.280968
v 50.775 0 -4.280968
v 50.775 6 -4.280968
v 50.775 6 -4.280968
v 50.775 0 -4.280968
v 50.775 0 12.36
v 50.775 6 12.36
v 50.775 6 -4.280968
v 50.775 6 12.36
v 27.00093 6 12.36
v 27.00093 6 -4.280968
v 50.775 0 12.36
v 50.775 0 -4.280968
v 27.00093 0 -4.280968
v 27.00093 0 12.36
v 36.594 6 -10.092
v 36.594 0 -10.092
v 27.00057 0 -10.092
v 27.00057 6 -10.092
v 27.00057 6 -10.092
v 27.00057 0 -10.092
v 27.00057 0 -11.092
v 27.00057 6 -11.092
v 27.00057 6 -11.092
v 27.00057 0 -11.092
v 36.594 0 -11.092
v 36.594 6 -11.092
v 36.594 6 -11.092
v 36.594 0 -11.092
v 36.594 0 -10.092
v 36.594 6 -10.092
v 36.594 6 -11.092
v 36.594 6 -10.092
v 27.00057 6 -10.092
v 27.00057 6 -11.092
v 36.594 0 -10.092
v 36.594 0 -11.092
v 27.00057 0 -11.092
v 27.00057 0 -10.092
v -8.283003 6 38.305
v -8.283003 0 38.305
v -33.04815 0 38.305
v -33.04815 6 38.305
v -33.04815 6 38.305
v -33.04815 0 38.305
v -33.04815 0 22.32966
v -33.04815 6 22.32966
v -33.04815 6 22.32966
v -33.04815 0 22.32966
v -8.283003 0 22.32966
v -8.283003 6 22.32966
v -8.283003 6 22.32966
v -8.283003 0 22.32966
v -8.283003 0 38.305
v -8.283003 6 38.305
v -8.283003 6 22.32966
v -8.283003 6 38.305
v -33.04815 6 38.305
v -33.04815 6 22.32966
v -8.283003 0 38.305
v -8.283003 0 22.32966
v -33.04815 0 22.32966
v -33.04815 0 38.305
v 36.643 4 -10.092
v 36.643 0 -10.092
v 27.00014 0 -10.092
v 27.00014 4 -10.092
v 27.00014 4 -10.092
v 27.00014 0 -10.092
v 27.00014 0 -39.41668
v 27.00014 4 -39.41668
v 27.00014 4 -39.41668
v 27.00014 0 -39.41668
v 36.643 0 -39.41668
v 36.643 4 -39.41668
v 36.643 4 -39.41668
v 36.643 0 -39.41668
v 36.643 0 -10.092
v 36.643 4 -10.092
v 36.643 4 -39.41668
v 36.643 4 -10.092
v 27.00014 4 -10.092
v 27.00014 4 -39.41668
v 36.643 0 -10.092
v 36.643 0 -39.41668
v 27.00014 0 -39.41668
v 27.00014 0 -10.092
v -3.858006 6 38.33
v -3.858006 0 38.33
v -11.59393 0 38.33
v -11.59393 6 38.33
v -11.59393 6 38.33
v -11.59393 0 38.33
v -11.59393 0 28.22035
v -11.59393 6 28.22035
v -11.59393 6 28.22035
v -11.59393 0 28.22035
v -3.858006 0 28.22035
v -3.858006 6 28.22035
v -3.858006 6 28.22035
v -3.858006 0 28.22035
v -3.858006 0 38.33
v -3.858006 6 38.33
v -3.858006 6 28.22035
v -3.858006 6 38.33
v -11.59393 6 38.33
v -11.59393 6 28.22035
v -3.858006 0 38.33
v -3.858006 0 28.22035
v -11.59393 0 28.22035
v -11.59393 0 38.33
v 32.505 6 38.34001
v 32.505 0 38.34001
v -4.122394 0 38.34001
v -4.122394 6 38.34001
v -4.122394 6 38.34001
v -4.122394 0 38.34001
v -4.122394 0 22.39826
v -4.122394 6 22.39826
v -4.122394 6 22.39826
v -4.122394 0 22.39826
v 32.505 0 22.39826
v 32.505 6 22.39826
v 32.505 6 22.39826
v 32.505 0 22.39826
v 32.505 0 38.34001
v 32.505 6 38.34001
v 32.505 6 22.39826
v 32.505 6 38.34001
v -4.122394 6 38.34001
v -4.122394 6 22.39826
v 32.505 0 38.34001
v 32.505 0 22.39826
v -4.122394 0 22.39826
v -4.122394 0 38.34001
v 50.809 6 38.35301
v 50.809 0 38.35301
v 8.55409 0 38.35301
v 8.55409 6 38.35301
v 8.55409 6 38.35301
v 8.55409 0 38.35301
v 8.55409 0 18.4044
v 8.55409 6 18.4044
v 8.55409 6 18.4044
v 8.55409 0 18.4044
v 50.809 0 18.4044
v 50.809 6 18.4044
v 50.809 6 18.4044
v 50.809 0 18.4044
v 50.809 0 38.35301
v 50.809 6 38.35301
v 50.809 6 18.4044
v 50.809 6 38.35301
v 8.55409 6 38.35301
v 8.55409 6 18.4044
v 50.809 0 38.35301
v 50.809 0 18.4044
v 8.55409 0 18.4044
v 8.55409 0 38.35301
vt 0 1
vt 0 0
vt -1 0
vt -1 1
vt 0 1
vt 0 0
vt -1 0
vt -1 1
vt 1 1
vt 1 0
vt 0 0
vt 0 1
vt 1 1
vt 1 0
vt 0 0
vt 0 1
vt 0 -1
vt 0 0
vt 1 0
vt 1 -1
vt 0 0
vt 0 -1
vt -1 -1
vt -1 0
vt 0 1
vt 0 0
vt -1 0
vt -1 1
vt 0 1
vt 0 0
vt -1 0
vt -1 1
vt 1 1
vt 1 0
vt 0 0
vt 0 1
vt 1 1
vt 1 0
vt 0 0
vt 0 1
vt 0 -1
vt 0 0
vt 1 0
vt 1 -1
vt 0 0
vt 0 -1
vt -1 -1
vt -1 0
vt 0.0003452897 0.9999999
vt 0 0
vt -1 0
vt -0.9999998 1.000345
vt 0 1
vt 0 0
vt -0.9999999 0
vt -0.9999998 1.000345
vt 1.000345 0.9999999
vt 0.9999998 -0.0003452897
vt 0 0
vt 0 1
vt 0.9999999 1
vt 0.9999998 -0.0003452897
vt 0 0
vt 0 1
vt -0.0003452897 -0.9999998
vt 0 0
vt 1 0
vt 0.9999998 -1.000345
vt 0 0
vt 0 -1
vt -1.000345 -0.9999998
vt -0.9999999 0
vt 0 1
vt 0 0
vt -1 0
vt -1 1
vt 0 1
vt 0 0
vt -1 0
vt -1 1
vt 1 1
vt 1 0
vt 0 0
vt 0 1
vt 1 1
vt 1 0
vt 0 0
vt 0 1
vt 0 -1
vt 0 0
vt 1 0
vt 1 -1
vt 0 0
vt 0 -1
vt -1 -1
vt -1 0
vt 0 1
vt 0 0
vt -0.9999999 0
vt -0.9999998 1.000345
vt 0 1
vt 0 0
vt -1 0
vt -1 1
vt 0.9999999 1
vt 0.9999998 -0.0003452897
vt 0 0
vt 0 1
vt 1 1
vt 1 0
vt 0 0
vt 0 1
vt 0 -1
vt 0 0
vt 0.9999998 -0.0003452897
vt 0.9999998 -1.000345
vt 0 0
vt 0 -1
vt -0.9999999 -1
vt -0.9999999 0
vt 0 1
vt 0 0
vt -1 0
vt -1 1
vt 0 1
vt 0 0
vt -0.9999999 0
vt -0.9999998 1.000345
vt 1 1
vt 1 0
vt 0 0
vt 0 1
vt 0.9999999 1
vt 0.9999998 -0.0003452897
vt 0 0
vt 0 1
vt -0.0003452897 -0.9999998
vt 0 0
vt 1 0
vt 1 -0.9999999
vt 0 0
vt -0.0003452897 -0.9999998
vt -1.000345 -0.9999998
vt -1 0
vt 0 1
vt 0 0
vt -0.9999999 0
vt -0.9999998 1.000345
vt 0 1
vt 0 0
vt -1 0
vt -1 1
vt 0.9999999 1
vt 0.9999998 -0.0003452897
vt 0 0
vt 0 1
vt 1 1
vt 1 0
vt 0 0
vt 0 1
vt 0 -1
vt 0 0
vt 0.9999998 -0.0003452897
vt 0.9999998 -1.000345
vt 0 0
vt 0 -1
vt -0.9999999 -1
vt -0.9999999 0
vt 0 1
vt 0 0
vt -1 0
vt -1 1
vt 0 1
vt 0 0
vt -0.9999999 0
vt -0.9999998 1.000345
vt 1 1
vt 1 0
vt 0 0
vt 0 1
vt 0.9999999 1
vt 0.9999998 -0.0003452897
vt 0 0
vt 0 1
vt -0.0003452897 -0.9999998
vt 0 0
vt 1 0
vt 1 -0.9999999
vt 0 0
vt -0.0003452897 -0.9999998
vt -1.000345 -0.9999998
vt -1 0
vt 0 1
vt 0 0
vt -1 0
vt -1 1
vt 0 1
vt 0 0
vt -1 0
vt -1 1
vt 1 1
vt 1 0
vt 0 0
vt 0 1
vt 1 1
vt 1 0
vt 0 0
vt 0 1
vt 0 -1
vt 0 0
vt 1 0
vt 1 -1
vt 0 0
vt 0 -1
vt -1 -1
vt -1 0
vt 0 1
vt 0 0
vt -1 0
vt -1 1
vt 0 1
vt 0 0
vt -0.9999999 0
vt -0.9999998 1.000345
vt 1 1
vt 1 0
vt 0 0
vt 0 1
vt 0.9999999 1
vt 0.9999998 -0.0003452897
vt 0 0
vt 0 1
vt -0.0003452897 -0.9999998
vt 0 0
vt 1 0
vt 1 -0.9999999
vt 0 0
vt -0.0003452897 -0.9999998
vt -1.000345 -0.9999998
vt -1 0
vn 0 0 1
vn 0 0 1
vn 0 0 1
vn 0 0 1
vn -1 0 0
vn -1 0 0
vn -1 0 0
vn -1 0 0
vn 0 0 -1
vn 0 0 -1
vn 0 0 -1
vn 0 0 -1
vn 1 0 0
vn 1 0 0
vn 1 0 0
vn 1 0 0
vn 0 1 0
vn 0 1 0
vn 0 1 0
vn 0 1 0
vn 0 -1 0
vn 0 -1 0
vn 0 -1 0
vn 0 -1 0
vn 0 0 1
vn 0 0 1
vn 0 0 1
vn 0 0 1
vn -1 0 0
vn -1 0 0
vn -1 0 0
vn -1 0 0
vn 0 0 -1
vn 0 0 -1
vn 0 0 -1
vn 0 0 -1
vn 1 0 0
vn 1 0 0
vn 1 0 0
vn 1 0 0
vn 0 1 0
vn 0 1 0
vn 0 1 0
vn 0 1 0
vn 0 -1 0
vn 0 -1 0
vn 0 -1 0
vn 0 -1 0
vn 0 0 1
vn 0 0 1
vn 0 0 1
vn 0 0 1
vn -1 0 0
vn -1 0 0
vn -1 0 0
vn -1 0 0
vn 0 0 -1
vn 0 0 -1
vn 0 0 -1
vn 0 0 -1
vn 1 0 0
vn 1 0 0
vn 1 0 0
vn 1 0 0
vn 0 1 0
vn 0 1 0
vn 0 1 0
vn 0 1 0
vn 0 -1 0
vn 0 -1 0
vn 0 -1 0
vn 0 -1 0
vn 0 0 1
vn 0 0 1
vn 0 0 1
vn 0 0 1
vn -1 0 0
vn -1 0 0
vn -1 0 0
vn -1 0 0
vn 0 0 -1
vn 0 0 -1
vn 0 0 -1
vn 0 0 -1
vn 1 0 0
vn 1 0 0
vn 1 0 0
vn 1 0 0
vn 0 1 0
vn 0 1 0
vn 0 1 0
vn 0 1 0
vn 0 -1 0
vn 0 -1 0
vn 0 -1 0
vn 0 -1 0
vn 0 0 1
vn 0 0 1
vn 0 0 1
vn 0 0 1
vn -1 0 0
vn -1 0 0
vn -1 0 0
vn -1 0 0
vn 0 0 -1
vn 0 0 -1
vn 0 0 -1
vn 0 0 -1
vn 1 0 0
vn 1 0 0
vn 1 0 0
vn 1 0 0
vn 0 1 0
vn 0 1 0
vn 0 1 0
vn 0 1 0
vn 0 -1 0
vn 0 -1 0
vn 0 -1 0
vn 0 -1 0
vn 0 0 1
vn 0 0 1
vn 0 0 1
vn 0 0 1
vn -1 0 0
vn -1 0 0
vn -1 0 0
vn -1 0 0
vn 0 0 -1
vn 0 0 -1
vn 0 0 -1
vn 0 0 -1
vn 1 0 0
vn 1 0 0
vn 1 0 0
vn 1 0 0
vn 0 1 0
vn 0 1 0
vn 0 1 0
vn 0 1 0
vn 0 -1 0
vn 0 -1 0
vn 0 -1 0
vn 0 -1 0
vn 0 0 1
vn 0 0 1
vn 0 0 1
vn 0 0 1
vn -1 0 0
vn -1 0 0
vn -1 0 0
vn -1 0 0
vn 0 0 -1
vn 0 0 -1
vn 0 0 -1
vn 0 0 -1
vn 1 0 0
vn 1 0 0
vn 1 0 0
vn 1 0 0
vn 0 1 0
vn 0 1 0
vn 0 1 0
vn 0 1 0
vn 0 -1 0
vn 0 -1 0
vn 0 -1 0
vn 0 -1 0
vn 0 0 1
vn 0 0 1
vn 0 0 1
vn 0 0 1
vn -1 0 0
vn -1 0 0
vn -1 0 0
vn -1 0 0
vn 0 0 -1
vn 0 0 -1
vn 0 0 -1
vn 0 0 -1
vn 1 0 0
vn 1 0 0
vn 1 0 0
vn 1 0 0
vn 0 1 0
vn 0 1 0
vn 0 1 0
vn 0 1 0
vn 0 -1 0
vn 0 -1 0
vn 0 -1 0
vn 0 -1 0
vn 0 0 1
vn 0 0 1
vn 0 0 1
vn 0 0 1
vn -1 0 0
vn -1 0 0
vn -1 0 0
vn -1 0 0
vn 0 0 -1
vn 0 0 -1
vn 0 0 -1
vn 0 0 -1
vn 1 0 0
vn 1 0 0
vn 1 0 0
vn 1 0 0
vn 0 1 0
vn 0 1 0
vn 0 1 0
vn 0 1 0
vn 0 -1 0
vn 0 -1 0
vn 0 -1 0
vn 0 -1 0
vn 0 0 1
vn 0 0 1
vn 0 0 1
vn 0 0 1
vn -1 0 0
vn -1 0 0
vn -1 0 0
vn -1 0 0
vn 0 0 -1
vn 0 0 -1
vn 0 0 -1
vn 0 0 -1
vn 1 0 0
vn 1 0 0
vn 1 0 0
vn 1 0 0
vn 0 1 0
vn 0 1 0
vn 0 1 0
vn 0 1 0
vn 0 -1 0
vn 0 -1 0
vn 0 -1 0
vn 0 -1 0
g Cube_(8)_0
f 3/3/3 2/2/2 1/1/1
f 4/4/4 3/3/3 1/1/1
f 7/7/7 6/6/6 5/5/5
f 8/8/8 7/7/7 5/5/5
f 11/11/11 10/10/10 9/9/9
f 12/12/12 11/11/11 9/9/9
f 15/15/15 14/14/14 13/13/13
f 16/16/16 15/15/15 13/13/13
f 19/19/19 18/18/18 17/17/17
f 20/20/20 19/19/19 17/17/17
f 23/23/23 22/22/22 21/21/21
f 24/24/24 23/23/23 21/21/21
f 27/27/27 26/26/26 25/25/25
f 28/28/28 27/27/27 25/25/25
f 31/31/31 30/30/30 29/29/29
f 32/32/32 31/31/31 29/29/29
f 35/35/35 34/34/34 33/33/33
f 36/36/36 35/35/35 33/33/33
f 39/39/39 38/38/38 37/37/37
f 40/40/40 39/39/39 37/37/37
f 43/43/43 42/42/42 41/41/41
f 44/44/44 43/43/43 41/41/41
f 47/47/47 46/46/46 45/45/45
f 48/48/48 47/47/47 45/45/45
f 51/51/51 50/50/50 49/49/49
f 52/52/52 51/51/51 49/49/49
f 55/55/55 54/54/54 53/53/53
f 56/56/56 55/55/55 53/53/53
f 59/59/59 58/58/58 57/57/57
f 60/60/60 59/59/59 57/57/57
f 63/63/63 62/62/62 61/61/61
f 64/64/64 63/63/63 61/61/61
f 67/67/67 66/66/66 65/65/65
f 68/68/68 67/67/67 65/65/65
f 71/71/71 70/70/70 69/69/69
f 72/72/72 71/71/71 69/69/69
f 75/75/75 74/74/74 73/73/73
f 76/76/76 75/75/75 73/73/73
f 79/79/79 78/78/78 77/77/77
f 80/80/80 79/79/79 77/77/77
f 83/83/83 82/82/82 81/81/81
f 84/84/84 83/83/83 81/81/81
f 87/87/87 86/86/86 85/85/85
f 88/88/88 87/87/87 85/85/85
f 91/91/91 90/90/90 89/89/89
f 92/92/92 91/91/91 89/89/89
f 95/95/95 94/94/94 93/93/93
f 96/96/96 95/95/95 93/93/93
f 99/99/99 98/98/98 97/97/97
f 100/100/100 99/99/99 97/97/97
f 103/103/103 102/102/102 101/101/101
f 104/104/104 103/103/103 101/101/101
f 107/107/107 106/106/106 105/105/105
f 108/108/108 107/107/107 105/105/105
f 111/111/111 110/110/110 109/109/109
f 112/112/112 111/111/111 109/109/109
f 115/115/115 114/114/114 113/113/113
f 116/116/116 115/115/115 113/113/113
f 119/119/119 118/118/118 117/117/117
f 120/120/120 119/119/119 117/117/117
f 123/123/123 122/122/122 121/121/121
f 124/124/124 123/123/123 121/121/121
f 127/127/127 126/126/126 125/125/125
f 128/128/128 127/127/127 125/125/125
f 131/131/131 130/130/130 129/129/129
f 132/132/132 131/131/131 129/129/129
f 135/135/135 134/134/134 133/133/133
f 136/136/136 135/135/135 133/133/133
f 139/139/139 138/138/138 137/137/137
f 140/140/140 139/139/139 137/137/137
f 143/143/143 142/142/142 141/141/141
f 144/144/144 143/143/143 141/141/141
f 147/147/147 146/146/146 145/145/145
f 148/148/148 147/147/147 145/145/145
f 151/151/151 150/150/150 149/149/149
f 152/152/152 151/151/151 149/149/149
f 155/155/155 154/154/154 153/153/153
f 156/156/156 155/155/155 153/153/153
f 159/159/159 158/158/158 157/157/157
f 160/160/160 159/159/159 157/157/157
f 163/163/163 162/162/162 161/161/161
f 164/164/164 163/163/163 161/161/161
f 167/167/167 166/166/166 165/165/165
f 168/168/168 167/167/167 165/165/165
f 171/171/171 170/170/170 169/169/169
f 172/172/172 171/171/171 169/169/169
f 175/175/175 174/174/174 173/173/173
f 176/176/176 175/175/175 173/173/173
f 179/179/179 178/178/178 177/177/177
f 180/180/180 179/179/179 177/177/177
f 183/183/183 182/182/182 181/181/181
f 184/184/184 183/183/183 181/181/181
f 187/187/187 186/186/186 185/185/185
f 188/188/188 187/187/187 185/185/185
f 191/191/191 190/190/190 189/189/189
f 192/192/192 191/191/191 189/189/189
f 195/195/195 194/194/194 193/193/193
f 196/196/196 195/195/195 193/193/193
f 199/199/199 198/198/198 197/197/197
f 200/200/200 199/199/199 197/197/197
f 203/203/203 202/202/202 201/201/201
f 204/204/204 203/203/203 201/201/201
f 207/207/207 206/206/206 205/205/205
f 208/208/208 207/207/207 205/205/205
f 211/211/211 210/210/210 209/209/209
f 212/212/212 211/211/211 209/209/209
f 215/215/215 214/214/214 213/213/213
f 216/216/216 215/215/215 213/213/213
f 219/219/219 218/218/218 217/217/217
f 220/220/220 219/219/219 217/217/217
f 223/223/223 222/222/222 221/221/221
f 224/224/224 223/223/223 221/221/221
f 227/227/227 226/226/226 225/225/225
f 228/228/228 227/227/227 225/225/225
f 231/231/231 230/230/230 229/229/229
f 232/232/232 231/231/231 229/229/229
f 235/235/235 234/234/234 233/233/233
f 236/236/236 235/235/235 233/233/233
f 239/239/239 238/238/238 237/237/237
f 240/240/240 239/239/239 237/237/237
