g Cube_(18)
v -45.047 8 12.74701
v -45.047 0 12.74701
v -52.08281 0 12.74701
v -52.08281 8 12.74701
v -52.08281 8 12.74701
v -52.08281 0 12.74701
v -52.08281 0 6.732446
v -52.08281 8 6.732446
v -52.08281 8 6.732446
v -52.08281 0 6.732446
v -45.047 0 6.732446
v -45.047 8 6.732446
v -45.047 8 6.732446
v -45.047 0 6.732446
v -45.047 0 12.74701
v -45.047 8 12.74701
v -45.047 8 6.732446
v -45.047 8 12.74701
v -52.08281 8 12.74701
v -52.08281 8 6.732446
v -45.047 0 12.74701
v -45.047 0 6.732446
v -52.08281 0 6.732446
v -52.08281 0 12.74701
v -40.43 8 11.35
v -40.43 0 11.35
v -43.88847 0 14.80848
v -43.88847 8 14.80848
v -43.88847 8 14.80848
v -43.88847 0 14.80848
v -48.50548 0 10.19147
v -48.50548 8 10.19147
v -48.50548 8 10.19147
v -48.50548 0 10.19147
v -45.047 0 6.732997
v -45.047 8 6.732997
v -45.047 8 6.732997
v -45.047 0 6.732997
v -40.43 0 11.35
v -40.43 8 11.35
v -45.047 8 6.732997
v -40.43 8 11.35
v -43.88847 8 14.80848
v -48.50548 8 10.19147
v -40.43 0 11.35
v -45.047 0 6.732997
v -48.50548 0 10.19147
v -43.88847 0 14.80848
v -40.43 8 27.884
v -40.43 0 27.884
v -52.07562 0 27.884
v -52.07562 8 27.884
v -52.07562 8 27.884
v -52.07562 0 27.884
v -52.07562 0 11.34501
v -52.07562 8 11.34501
v -52.07562 8 11.34501
v -52.07562 0 11.34501
v -40.43 0 11.34501
v -40.43 8 11.34501
v -40.43 8 11.34501
v -40.43 0 11.34501
v -40.43 0 27.884
v -40.43 8 27.884
v -40.43 8 11.34501
v -40.43 8 27.884
v -52.07562 8 27.884
v -52.07562 8 11.34501
v -40.43 0 27.884
v -40.43 0 11.34501
v -52.07562 0 11.34501
v -52.07562 0 27.884
v -41.73 8 38.34001
v -41.73 0 38.34001
v -52.06046 0 38.34001
v -52.06046 8 38.34001
v -52.06046 8 38.34001
v -52.06046 0 38.34001
v -52.06046 0 18.37988
v -52.06046 8 18.37988
v -52.06046 8 18.37988
v -52.06046 0 18.37988
v -41.73 0 18.37988
v -41.73 8 18.37988
v -41.73 8 18.37988
v -41.73 0 18.37988
v -41.73 0 38.34001
v -41.73 8 38.34001
v -41.73 8 18.37988
v -41.73 8 38.34001
v -52.06046 8 38.34001
v -52.06046 8 18.37988
v -41.73 0 38.34001
v -41.73 0 18.37988
v -52.06046 0 18.37988
v -52.06046 0 38.34001
vt 0 1
vt 0 0
vt -1 0
vt -1 1
vt 0 1
vt 0 0
vt -1 0
vt -1 1
vt 1 1
vt 1 0
vt 0 0
vt 0 1
vt 1 1
vt 1 0
vt 0 0
vt 0 1
vt 0 -1
vt 0 0
vt 1 0
vt 1 -1
vt 0 0
vt 0 -1
vt -1 -1
vt -1 0
vt 0 1
vt 0 0
vt -1 0
vt -1 1
vt 0 1
vt 0 0
vt -1 0
vt -1 1
vt 1 1
vt 1 0
vt 0 0
vt 0 1
vt 1 1
vt 1 0
vt 0 0
vt 0 1
vt 0.02987009 -1.034942
vt 0.1188062 0.1015616
vt 0.97013 0.03494185
vt 0.8811939 -1.101562
vt -0.1188063 0.1015616
vt -0.02986997 -1.034942
vt -0.8811938 -1.101562
vt -0.9701301 0.03494185
vt 0 1
vt 0 0
vt -1 0
vt -1 1
vt 0 1
vt 0 0
vt -1 0
vt -1 1
vt 1 1
vt 1 0
vt 0 0
vt 0 1
vt 1 1
vt 1 0
vt 0 0
vt 0 1
vt 0 -1
vt 0 0
vt 1 0
vt 1 -1
vt 0 0
vt 0 -1
vt -1 -1
vt -1 0
vt 0 1
vt 0 0
vt -1 0
vt -1 1
vt 0 1
vt 0 0
vt -1 0
vt -1 1
vt 1 1
vt 1 0
vt 0 0
vt 0 1
vt 1 1
vt 1 0
vt 0 0
vt 0 1
vt 0 -1
vt 0 0
vt 1 0
vt 1 -1
vt 0 0
vt 0 -1
vt -1 -1
vt -1 0
vn 0 0 1
vn 0 0 1
vn 0 0 1
vn 0 0 1
vn -1 0 0
vn -1 0 0
vn -1 0 0
vn -1 0 0
vn 0 0 -1
vn 0 0 -1
vn 0 0 -1
vn 0 0 -1
vn 1 0 0
vn 1 0 0
vn 1 0 0
vn 1 0 0
vn 0 1 0
vn 0 1 0
vn 0 1 0
vn 0 1 0
vn 0 -1 0
vn 0 -1 0
vn 0 -1 0
vn 0 -1 0
vn 0.8073912 0 0.5900164
vn 0.8073912 0 0.5900164
vn 0.8073912 0 0.5900164
vn 0.8073912 0 0.5900164
vn -0.8073913 0 0.5900164
vn -0.8073913 0 0.5900164
vn -0.8073913 0 0.5900164
vn -0.8073913 0 0.5900164
vn -0.8073912 0 -0.5900164
vn -0.8073912 0 -0.5900164
vn -0.8073912 0 -0.5900164
vn -0.8073912 0 -0.5900164
vn 0.8073913 0 -0.5900162
vn 0.8073913 0 -0.5900162
vn 0.8073913 0 -0.5900162
vn 0.8073913 0 -0.5900162
vn 0 1 0
vn 0 1 0
vn 0 1 0
vn 0 1 0
vn 0 -1 0
vn 0 -1 0
vn 0 -1 0
vn 0 -1 0
vn 0 0 1
vn 0 0 1
vn 0 0 1
vn 0 0 1
vn -1 0 0
vn -1 0 0
vn -1 0 0
vn -1 0 0
vn 0 0 -1
vn 0 0 -1
vn 0 0 -1
vn 0 0 -1
vn 1 0 0
vn 1 0 0
vn 1 0 0
vn 1 0 0
vn 0 1 0
vn 0 1 0
vn 0 1 0
vn 0 1 0
vn 0 -1 0
vn 0 -1 0
vn 0 -1 0
vn 0 -1 0
vn 0 0 1
vn 0 0 1
vn 0 0 1
vn 0 0 1
vn -1 0 0
vn -1 0 0
vn -1 0 0
vn -1 0 0
vn 0 0 -1
vn 0 0 -1
vn 0 0 -1
vn 0 0 -1
vn 1 0 0
vn 1 0 0
vn 1 0 0
vn 1 0 0
vn 0 1 0
vn 0 1 0
vn 0 1 0
vn 0 1 0
vn 0 -1 0
vn 0 -1 0
vn 0 -1 0
vn 0 -1 0
g Cube_(18)_0
f 3/3/3 2/2/2 1/1/1
f 4/4/4 3/3/3 1/1/1
f 7/7/7 6/6/6 5/5/5
f 8/8/8 7/7/7 5/5/5
f 11/11/11 10/10/10 9/9/9
f 12/12/12 11/11/11 9/9/9
f 15/15/15 14/14/14 13/13/13
f 16/16/16 15/15/15 13/13/13
f 19/19/19 18/18/18 17/17/17
f 20/20/20 19/19/19 17/17/17
f 23/23/23 22/22/22 21/21/21
f 24/24/24 23/23/23 21/21/21
f 27/27/27 26/26/26 25/25/25
f 28/28/28 27/27/27 25/25/25
f 31/31/31 30/30/30 29/29/29
f 32/32/32 31/31/31 29/29/29
f 35/35/35 34/34/34 33/33/33
f 36/36/36 35/35/35 33/33/33
f 39/39/39 38/38/38 37/37/37
f 40/40/40 39/39/39 37/37/37
f 43/43/43 42/42/42 41/41/41
f 44/44/44 43/43/43 41/41/41
f 47/47/47 46/46/46 45/45/45
f 48/48/48 47/47/47 45/45/45
f 51/51/51 50/50/50 49/49/49
f 52/52/52 51/51/51 49/49/49
f 55/55/55 54/54/54 53/53/53
f 56/56/56 55/55/55 53/53/53
f 59/59/59 58/58/58 57/57/57
f 60/60/60 59/59/59 57/57/57
f 63/63/63 62/62/62 61/61/61
f 64/64/64 63/63/63 61/61/61
f 67/67/67 66/66/66 65/65/65
f 68/68/68 67/67/67 65/65/65
f 71/71/71 70/70/70 69/69/69
f 72/72/72 71/71/71 69/69/69
f 75/75/75 74/74/74 73/73/73
f 76/76/76 75/75/75 73/73/73
f 79/79/79 78/78/78 77/77/77
f 80/80/80 79/79/79 77/77/77
f 83/83/83 82/82/82 81/81/81
f 84/84/84 83/83/83 81/81/81
f 87/87/87 86/86/86 85/85/85
f 88/88/88 87/87/87 85/85/85
f 91/91/91 90/90/90 89/89/89
f 92/92/92 91/91/91 89/89/89
f 95/95/95 94/94/94 93/93/93
f 96/96/96 95/95/95 93/93/93
