g Cylinder001
v 0.4722757 1.471125 -0.209911
v 0.3758753 2.817062 1.211166E-07
v 0.2019148 1.532833 -0.209911
v 0.8727486 2.703654 1.211166E-07
v 0.2019148 1.532833 0.209911
v 0.7272735 1.362133 -0.209911
v 0.4722757 1.471125 0.209911
v 1.341387 2.503348 1.211166E-07
v 0.9587122 1.209362 -0.209911
v 0.7272735 1.362133 0.209911
v 1.766729 2.222583 1.211166E-07
v 1.159153 1.017721 -0.209911
v 0.9587122 1.209362 0.209911
v 2.135102 1.870382 1.211166E-07
v 1.322154 0.7933689 -0.209911
v 1.159153 1.017721 0.209911
v 2.434668 1.458065 1.211166E-07
v 1.442476 0.5435178 -0.209911
v 1.322154 0.7933689 0.209911
v 2.655797 0.9988847 1.211166E-07
v 1.516252 0.2761975 -0.209911
v 1.442476 0.5435178 0.209911
v 2.791383 0.5075996 1.211166E-07
v 1.54111 0 -0.209911
v 1.516252 0.2761975 0.209911
v 2.837068 -8.852977E-08 1.211166E-07
v 1.516252 -0.2761959 -0.209911
v 1.54111 0 0.209911
v 2.791384 -0.5075969 1.211166E-07
v 1.442477 -0.5435164 -0.209911
v 1.516252 -0.2761959 0.209911
v 2.655798 -0.9988824 1.211166E-07
v 1.322155 -0.7933678 -0.209911
v 1.442477 -0.5435164 0.209911
v 2.434669 -1.458063 1.211166E-07
v 1.159154 -1.01772 -0.209911
v 1.322155 -0.7933678 0.209911
v 2.135103 -1.87038 1.211166E-07
v 0.9587131 -1.209361 -0.209911
v 1.159154 -1.01772 0.209911
v 1.76673 -2.222581 1.211166E-07
v 0.7272744 -1.362133 -0.209911
v 0.9587131 -1.209361 0.209911
v 1.341389 -2.503347 1.211166E-07
v 0.4722765 -1.471124 -0.209911
v 0.7272744 -1.362133 0.209911
v 0.8727499 -2.703653 1.211166E-07
v 0.2019154 -1.532833 -0.209911
v 0.4722765 -1.471124 0.209911
v 0.3758765 -2.817062 1.211166E-07
v -0.07511937 -1.545274 -0.209911
v 0.2019154 -1.532833 0.209911
v -0.133262 -2.839927 1.211166E-07
v -0.3499236 -1.50805 -0.209911
v -0.07511937 -1.545274 0.209911
v -0.6383011 -2.771516 1.211166E-07
v -0.613665 -1.422355 -0.209911
v -0.3499236 -1.50805 0.209911
v -1.123009 -2.614024 1.211166E-07
v -0.8578664 -1.290945 -0.209911
v -0.613665 -1.422355 0.209911
v -1.571806 -2.372517 1.211166E-07
v -1.074679 -1.118043 -0.209911
v -0.8578664 -1.290945 0.209911
v -1.970267 -2.054754 1.211166E-07
v -1.257135 -0.9092054 -0.209911
v -1.074679 -1.118043 0.209911
v -2.305587 -1.670951 1.211166E-07
v -1.399369 -0.6711456 -0.209911
v -1.257135 -0.9092054 0.209911
v -2.566987 -1.233441 1.211166E-07
v -1.49681 -0.4115146 -0.209911
v -1.399369 -0.6711456 0.209911
v -2.746066 -0.7562875 1.211166E-07
v -1.546327 -0.1386571 -0.209911
v -1.49681 -0.4115146 0.209911
v -2.837068 -0.2548262 1.211166E-07
v -1.546327 0.1386569 -0.209911
v -1.546327 -0.1386571 0.209911
v -2.837068 0.2548255 1.211166E-07
v -1.49681 0.4115143 -0.209911
v -1.546327 0.1386569 0.209911
v -2.746066 0.7562868 1.211166E-07
v -1.399369 0.6711453 -0.209911
v -1.49681 0.4115143 0.209911
v -2.566987 1.23344 1.211166E-07
v -1.257135 0.9092051 -0.209911
v -1.399369 0.6711453 0.209911
v -2.305587 1.67095 1.211166E-07
v -1.074679 1.118042 -0.209911
v -1.257135 0.9092051 0.209911
v -1.970267 2.054754 1.211166E-07
v -0.8578663 1.290945 -0.209911
v -1.074679 1.118042 0.209911
v -1.571806 2.372517 1.211166E-07
v -0.613665 1.422355 -0.209911
v -0.8578663 1.290945 0.209911
v -1.123009 2.614024 1.211166E-07
v -0.3499239 1.50805 -0.209911
v -0.613665 1.422355 0.209911
v -0.6383017 2.771515 1.211166E-07
v -0.07511982 1.545274 -0.209911
v -0.3499239 1.50805 0.209911
v -0.1332628 2.839927 1.211166E-07
v 0.2019148 1.532833 -0.209911
v -0.07511982 1.545274 0.209911
v 0.3758753 2.817062 1.211166E-07
v 0.2019148 1.532833 0.209911
vt 0.9712945 0
vt 0.9998659 0.5
vt 0.9998659 0
vt 0.9712945 0.5
vt 0.9998659 1
vt 0.942723 0
vt 0.9712945 1
vt 0.942723 0.5
vt 0.9141516 0
vt 0.942723 1
vt 0.9141516 0.5
vt 0.8855802 0
vt 0.9141516 1
vt 0.8855802 0.5
vt 0.8570088 0
vt 0.8855802 1
vt 0.8570088 0.5
vt 0.8284373 0
vt 0.8570088 1
vt 0.8284373 0.5
vt 0.7998659 0
vt 0.8284373 1
vt 0.7998659 0.5
vt 0.7712945 0
vt 0.7998659 1
vt 0.7712945 0.5
vt 0.7427232 0
vt 0.7712945 1
vt 0.7427232 0.5
vt 0.7141517 0
vt 0.7427232 1
vt 0.7141517 0.5
vt 0.6855804 0
vt 0.7141517 1
vt 0.6855804 0.5
vt 0.6570089 0
vt 0.6855804 1
vt 0.6570089 0.5
vt 0.6284375 0
vt 0.6570089 1
vt 0.6284375 0.5
vt 0.599866 0
vt 0.6284375 1
vt 0.599866 0.5
vt 0.5712946 0
vt 0.599866 1
vt 0.5712946 0.5
vt 0.5427231 0
vt 0.5712946 1
vt 0.5427231 0.5
vt 0.5141517 0
vt 0.5427231 1
vt 0.5141517 0.5
vt 0.4855803 0
vt 0.5141517 1
vt 0.4855803 0.5
vt 0.4570088 0
vt 0.4855803 1
vt 0.4570088 0.5
vt 0.4284374 0
vt 0.4570088 1
vt 0.4284374 0.5
vt 0.399866 0
vt 0.4284374 1
vt 0.399866 0.5
vt 0.3712946 0
vt 0.399866 1
vt 0.3712946 0.5
vt 0.3427231 0
vt 0.3712946 1
vt 0.3427231 0.5
vt 0.3141517 0
vt 0.3427231 1
vt 0.3141517 0.5
vt 0.2855802 0
vt 0.3141517 1
vt 0.2855802 0.5
vt 0.2570088 0
vt 0.2855802 1
vt 0.2570088 0.5
vt 0.2284373 0
vt 0.2570088 1
vt 0.2284373 0.5
vt 0.1998659 0
vt 0.2284373 1
vt 0.1998659 0.5
vt 0.1712945 0
vt 0.1998659 1
vt 0.1712945 0.5
vt 0.142723 0
vt 0.1712945 1
vt 0.142723 0.5
vt 0.1141516 0
vt 0.142723 1
vt 0.1141516 0.5
vt 0.08558018 0
vt 0.1141516 1
vt 0.08558018 0.5
vt 0.05700875 0
vt 0.08558018 1
vt 0.05700875 0.5
vt 0.02843736 0
vt 0.05700875 1
vt 0.02843736 0.5
vt -0.0001341 0
vt 0.02843736 1
vt -0.0001341 0.5
vt -0.0001341 1
vn 0.04940877 0.1520644 -0.9871349
vn 0.1342335 0.9909497 0
vn 0.02146258 0.1584429 -0.9871349
vn 0.3090173 0.9510565 0
vn 0.02146256 0.1584427 0.9871349
vn 0.07576684 0.1407984 -0.9871349
vn 0.04940871 0.1520642 0.9871349
vn 0.4738686 0.8805956 0
vn 0.09968973 0.125007 -0.9871349
vn 0.07576673 0.1407983 0.9871349
vn 0.6234897 0.7818316 3.773031E-07
vn 0.1204086 0.1051978 -0.9871349
vn 0.09968962 0.1250069 0.9871349
vn 0.7530715 0.6579387 0
vn 0.1372574 0.08200745 -0.9871349
vn 0.1204085 0.1051977 0.9871349
vn 0.8584487 0.5128993 0
vn 0.1496946 0.05618126 -0.9871349
vn 0.1372572 0.08200737 0.9871349
vn 0.936235 0.3513745 0
vn 0.1573205 0.02854945 -0.9871349
vn 0.1496944 0.05618119 0.9871349
vn 0.9839296 0.1785568 0
vn 0.15989 0 -0.9871349
vn 0.1573203 0.02854941 0.9871349
vn 1 3.556867E-07 0
vn 0.1573205 -0.02854935 -0.9871349
vn 0.1598898 0 0.9871349
vn 0.9839298 -0.1785562 0
vn 0.1496946 -0.05618114 -0.9871349
vn 0.1573203 -0.02854931 0.9871349
vn 0.9362352 -0.3513739 0
vn 0.1372574 -0.08200733 -0.9871349
vn 0.1496944 -0.05618107 0.9871349
vn 0.8584492 -0.5128986 0
vn 0.1204086 -0.1051977 -0.9871349
vn 0.1372572 -0.08200722 0.9871349
vn 0.753072 -0.6579381 0
vn 0.09968983 -0.1250069 -0.9871349
vn 0.1204085 -0.1051976 0.9871349
vn 0.6234902 -0.7818311 0
vn 0.07576694 -0.1407984 -0.9871349
vn 0.09968972 -0.1250068 0.9871349
vn 0.4738691 -0.8805953 0
vn 0.04940884 -0.1520644 -0.9871349
vn 0.07576682 -0.1407982 0.9871349
vn 0.3090177 -0.9510564 0
vn 0.02146266 -0.1584429 -0.9871349
vn 0.04940878 -0.1520642 0.9871349
vn 0.1342339 -0.9909497 0
vn -0.007173324 -0.1597289 -0.9871349
vn 0.02146264 -0.1584427 0.9871349
vn -0.04486417 -0.9989931 0
vn -0.03557882 -0.1558812 -0.9871349
vn -0.007173311 -0.1597288 0.9871349
vn -0.2225207 -0.974928 0
vn -0.06284074 -0.1470233 -0.9871349
vn -0.03557878 -0.155881 0.9871349
vn -0.3930249 -0.9195278 0
vn -0.08808281 -0.1334399 -0.9871349
vn -0.06284065 -0.1470231 0.9871349
vn -0.5508965 -0.8345735 0
vn -0.1104939 -0.1155676 -0.9871349
vn -0.08808269 -0.1334397 0.9871349
vn -0.6910625 -0.722795 0
vn -0.1293536 -0.09398095 -0.9871349
vn -0.1104938 -0.1155675 0.9871349
vn -0.8090169 -0.5877854 0
vn -0.1440558 -0.06937367 -0.9871349
vn -0.1293535 -0.09398084 0.9871349
vn -0.9009687 -0.4338841 0
vn -0.1541279 -0.04253669 -0.9871349
vn -0.1440556 -0.0693736 0.9871349
vn -0.9639627 -0.2660373 0
vn -0.1592462 -0.01433247 -0.9871349
vn -0.1541277 -0.04253665 0.9871349
vn -0.9959742 -0.08963962 0
vn -0.1592462 0.01433243 -0.9871349
vn -0.159246 -0.01433245 0.9871349
vn -0.9959744 0.08963935 0
vn -0.1541279 0.04253663 -0.9871349
vn -0.159246 0.01433241 0.9871349
vn -0.9639629 0.266037 0
vn -0.1440558 0.06937369 -0.9871349
vn -0.1541277 0.04253659 0.9871349
vn -0.9009687 0.4338841 0
vn -0.1293537 0.09398098 -0.9871349
vn -0.1440556 0.06937362 0.9871349
vn -0.8090169 0.5877854 0
vn -0.1104939 0.1155676 -0.9871349
vn -0.1293535 0.09398087 0.9871349
vn -0.6910626 0.7227949 0
vn -0.08808284 0.1334399 -0.9871349
vn -0.1104938 0.1155675 0.9871349
vn -0.5508968 0.8345734 0
vn -0.06284071 0.1470233 -0.9871349
vn -0.08808273 0.1334397 0.9871349
vn -0.3930247 0.9195278 0
vn -0.03557885 0.1558812 -0.9871349
vn -0.06284063 0.1470231 0.9871349
vn -0.2225208 0.9749279 0
vn -0.007173407 0.1597289 -0.9871349
vn -0.03557881 0.155881 0.9871349
vn -0.04486468 0.9989931 0
vn 0.02146258 0.1584429 -0.9871349
vn -0.007173398 0.1597288 0.9871349
vn 0.1342335 0.9909497 0
vn 0.02146256 0.1584427 0.9871349
g Cylinder001_0
f 3/3/3 2/2/2 1/1/1
f 2/2/2 4/4/4 1/1/1
f 2/2/2 5/5/5 4/4/4
f 1/1/1 4/4/4 6/6/6
f 5/5/5 7/7/7 4/4/4
f 4/4/4 8/8/8 6/6/6
f 4/4/4 7/7/7 8/8/8
f 6/6/6 8/8/8 9/9/9
f 7/7/7 10/10/10 8/8/8
f 8/8/8 11/11/11 9/9/9
f 8/8/8 10/10/10 11/11/11
f 9/9/9 11/11/11 12/12/12
f 10/10/10 13/13/13 11/11/11
f 11/11/11 14/14/14 12/12/12
f 11/11/11 13/13/13 14/14/14
f 12/12/12 14/14/14 15/15/15
f 13/13/13 16/16/16 14/14/14
f 14/14/14 17/17/17 15/15/15
f 14/14/14 16/16/16 17/17/17
f 15/15/15 17/17/17 18/18/18
f 16/16/16 19/19/19 17/17/17
f 17/17/17 20/20/20 18/18/18
f 17/17/17 19/19/19 20/20/20
f 18/18/18 20/20/20 21/21/21
f 19/19/19 22/22/22 20/20/20
f 20/20/20 23/23/23 21/21/21
f 20/20/20 22/22/22 23/23/23
f 21/21/21 23/23/23 24/24/24
f 22/22/22 25/25/25 23/23/23
f 23/23/23 26/26/26 24/24/24
f 23/23/23 25/25/25 26/26/26
f 24/24/24 26/26/26 27/27/27
f 25/25/25 28/28/28 26/26/26
f 26/26/26 29/29/29 27/27/27
f 26/26/26 28/28/28 29/29/29
f 27/27/27 29/29/29 30/30/30
f 28/28/28 31/31/31 29/29/29
f 29/29/29 32/32/32 30/30/30
f 29/29/29 31/31/31 32/32/32
f 30/30/30 32/32/32 33/33/33
f 31/31/31 34/34/34 32/32/32
f 32/32/32 35/35/35 33/33/33
f 32/32/32 34/34/34 35/35/35
f 33/33/33 35/35/35 36/36/36
f 34/34/34 37/37/37 35/35/35
f 35/35/35 38/38/38 36/36/36
f 35/35/35 37/37/37 38/38/38
f 36/36/36 38/38/38 39/39/39
f 37/37/37 40/40/40 38/38/38
f 38/38/38 41/41/41 39/39/39
f 38/38/38 40/40/40 41/41/41
f 39/39/39 41/41/41 42/42/42
f 40/40/40 43/43/43 41/41/41
f 41/41/41 44/44/44 42/42/42
f 41/41/41 43/43/43 44/44/44
f 42/42/42 44/44/44 45/45/45
f 43/43/43 46/46/46 44/44/44
f 44/44/44 47/47/47 45/45/45
f 44/44/44 46/46/46 47/47/47
f 45/45/45 47/47/47 48/48/48
f 46/46/46 49/49/49 47/47/47
f 47/47/47 50/50/50 48/48/48
f 47/47/47 49/49/49 50/50/50
f 48/48/48 50/50/50 51/51/51
f 49/49/49 52/52/52 50/50/50
f 50/50/50 53/53/53 51/51/51
f 50/50/50 52/52/52 53/53/53
f 51/51/51 53/53/53 54/54/54
f 52/52/52 55/55/55 53/53/53
f 53/53/53 56/56/56 54/54/54
f 53/53/53 55/55/55 56/56/56
f 54/54/54 56/56/56 57/57/57
f 55/55/55 58/58/58 56/56/56
f 56/56/56 59/59/59 57/57/57
f 56/56/56 58/58/58 59/59/59
f 57/57/57 59/59/59 60/60/60
f 58/58/58 61/61/61 59/59/59
f 59/59/59 62/62/62 60/60/60
f 59/59/59 61/61/61 62/62/62
f 60/60/60 62/62/62 63/63/63
f 61/61/61 64/64/64 62/62/62
f 62/62/62 65/65/65 63/63/63
f 62/62/62 64/64/64 65/65/65
f 63/63/63 65/65/65 66/66/66
f 64/64/64 67/67/67 65/65/65
f 65/65/65 68/68/68 66/66/66
f 65/65/65 67/67/67 68/68/68
f 66/66/66 68/68/68 69/69/69
f 67/67/67 70/70/70 68/68/68
f 68/68/68 71/71/71 69/69/69
f 68/68/68 70/70/70 71/71/71
f 69/69/69 71/71/71 72/72/72
f 70/70/70 73/73/73 71/71/71
f 71/71/71 74/74/74 72/72/72
f 71/71/71 73/73/73 74/74/74
f 72/72/72 74/74/74 75/75/75
f 73/73/73 76/76/76 74/74/74
f 74/74/74 77/77/77 75/75/75
f 74/74/74 76/76/76 77/77/77
f 75/75/75 77/77/77 78/78/78
f 76/76/76 79/79/79 77/77/77
f 77/77/77 80/80/80 78/78/78
f 77/77/77 79/79/79 80/80/80
f 78/78/78 80/80/80 81/81/81
f 79/79/79 82/82/82 80/80/80
f 80/80/80 83/83/83 81/81/81
f 80/80/80 82/82/82 83/83/83
f 81/81/81 83/83/83 84/84/84
f 82/82/82 85/85/85 83/83/83
f 83/83/83 86/86/86 84/84/84
f 83/83/83 85/85/85 86/86/86
f 84/84/84 86/86/86 87/87/87
f 85/85/85 88/88/88 86/86/86
f 86/86/86 89/89/89 87/87/87
f 86/86/86 88/88/88 89/89/89
f 87/87/87 89/89/89 90/90/90
f 88/88/88 91/91/91 89/89/89
f 89/89/89 92/92/92 90/90/90
f 89/89/89 91/91/91 92/92/92
f 90/90/90 92/92/92 93/93/93
f 91/91/91 94/94/94 92/92/92
f 92/92/92 95/95/95 93/93/93
f 92/92/92 94/94/94 95/95/95
f 93/93/93 95/95/95 96/96/96
f 94/94/94 97/97/97 95/95/95
f 95/95/95 98/98/98 96/96/96
f 95/95/95 97/97/97 98/98/98
f 96/96/96 98/98/98 99/99/99
f 97/97/97 100/100/100 98/98/98
f 98/98/98 101/101/101 99/99/99
f 98/98/98 100/100/100 101/101/101
f 99/99/99 101/101/101 102/102/102
f 100/100/100 103/103/103 101/101/101
f 101/101/101 104/104/104 102/102/102
f 101/101/101 103/103/103 104/104/104
f 102/102/102 104/104/104 105/105/105
f 103/103/103 106/106/106 104/104/104
f 104/104/104 107/107/107 105/105/105
f 104/104/104 106/106/106 107/107/107
f 106/106/106 108/108/108 107/107/107
