g Cylinder001
v 0.05226421 0.497261 0
v -0.05226426 0.497261 0.04294808
v -0.05226425 0.497261 0
v 0.0522642 0.497261 0.04294808
v 0.1545085 0.4755282 0
v 0.1545085 0.4755282 0.04294809
v 0.25 0.4330127 0
v 0.25 0.4330127 0.04294808
v 0.3345653 0.3715724 0
v 0.3345653 0.3715724 0.04294809
v 0.4045085 0.2938926 0
v 0.4045085 0.2938926 0.04294808
v 0.4567727 0.2033683 0
v 0.4567727 0.2033683 0.04294808
v 0.4890738 0.1039559 0
v 0.4890738 0.1039559 0.04294808
v 0.5 0 0
v 0.5 0 0.04294809
v 0.4890736 -0.1039568 0
v 0.4890736 -0.1039568 0.04294808
v 0.4567724 -0.2033691 0
v 0.4567724 -0.2033691 0.04294808
v 0.4045081 -0.2938932 0
v 0.4045081 -0.2938932 0.04294808
v 0.3345648 -0.3715728 0
v 0.3345648 -0.3715728 0.04294809
v 0.2499996 -0.433013 0
v 0.2499996 -0.433013 0.04294808
v 0.1545081 -0.4755284 0
v 0.1545081 -0.4755284 0.04294809
v 0.05226394 -0.497261 0
v 0.05226393 -0.497261 0.04294808
v -0.0522644 -0.4972609 0
v -0.05226441 -0.4972609 0.04294808
v -0.1545085 -0.4755282 0
v -0.1545086 -0.4755282 0.04294808
v -0.25 -0.4330127 0
v -0.25 -0.4330127 0.04294808
v -0.3345652 -0.3715724 0
v -0.3345652 -0.3715724 0.04294808
v -0.4045085 -0.2938927 0
v -0.4045085 -0.2938927 0.04294808
v -0.4567727 -0.2033684 0
v -0.4567727 -0.2033684 0.04294808
v -0.4890738 -0.1039559 0
v -0.4890738 -0.1039559 0.04294809
v -0.5 -4.371139E-08 0
v -0.5 -4.371138E-08 0.04294808
v -0.4890738 0.1039558 0
v -0.4890738 0.1039558 0.04294809
v -0.4567727 0.2033683 0
v -0.4567727 0.2033683 0.04294808
v -0.4045085 0.2938926 0
v -0.4045085 0.2938926 0.04294808
v -0.3345653 0.3715724 0
v -0.3345653 0.3715724 0.04294808
v -0.25 0.4330127 0
v -0.25 0.4330127 0.04294808
v -0.1545085 0.4755282 0
v -0.1545085 0.4755282 0.04294808
v -0.05226425 0.497261 0
v -0.05226426 0.497261 0.04294808
vt 0.9833333 0
vt 1.016667 1
vt 1.016667 0
vt 0.9833333 1
vt 0.95 0
vt 0.95 1
vt 0.9166667 0
vt 0.9166667 1
vt 0.8833333 0
vt 0.8833333 1
vt 0.85 0
vt 0.85 1
vt 0.8166667 0
vt 0.8166667 1
vt 0.7833334 0
vt 0.7833334 1
vt 0.75 0
vt 0.75 1
vt 0.7166664 0
vt 0.7166664 1
vt 0.6833331 0
vt 0.6833331 1
vt 0.6499998 0
vt 0.6499998 1
vt 0.6166664 0
vt 0.6166664 1
vt 0.5833331 0
vt 0.5833331 1
vt 0.5499998 0
vt 0.5499998 1
vt 0.5166666 0
vt 0.5166666 1
vt 0.4833333 0
vt 0.4833333 1
vt 0.45 0
vt 0.45 1
vt 0.4166667 0
vt 0.4166667 1
vt 0.3833334 0
vt 0.3833334 1
vt 0.35 0
vt 0.35 1
vt 0.3166667 0
vt 0.3166667 1
vt 0.2833334 0
vt 0.2833334 1
vt 0.25 0
vt 0.25 1
vt 0.2166667 0
vt 0.2166667 1
vt 0.1833334 0
vt 0.1833334 1
vt 0.15 0
vt 0.15 1
vt 0.1166667 0
vt 0.1166667 1
vt 0.08333335 0
vt 0.08333335 1
vt 0.05000002 0
vt 0.05000002 1
vt 0.01666669 0
vt 0.01666669 1
vn 0.1045286 0.9945219 0
vn -0.1045286 0.9945219 0
vn -0.1045286 0.9945219 0
vn 0.1045286 0.9945219 0
vn 0.309017 0.9510565 0
vn 0.309017 0.9510565 0
vn 0.5000001 0.8660254 0
vn 0.5000001 0.8660254 0
vn 0.6691306 0.7431449 0
vn 0.6691306 0.7431449 0
vn 0.8090169 0.5877853 0
vn 0.8090169 0.5877853 0
vn 0.9135454 0.4067367 0
vn 0.9135454 0.4067367 0
vn 0.9781476 0.2079117 0
vn 0.9781476 0.2079117 0
vn 1 -6.057028E-07 0
vn 1 -6.057028E-07 0
vn 0.9781473 -0.2079131 0
vn 0.9781473 -0.2079131 0
vn 0.9135447 -0.4067382 0
vn 0.9135447 -0.4067382 0
vn 0.8090161 -0.5877865 0
vn 0.8090161 -0.5877865 0
vn 0.6691296 -0.7431456 0
vn 0.6691296 -0.7431456 0
vn 0.4999991 -0.866026 0
vn 0.4999991 -0.866026 0
vn 0.3090162 -0.9510568 0
vn 0.3090162 -0.9510568 0
vn 0.104528 -0.994522 0
vn 0.104528 -0.994522 0
vn -0.1045287 -0.9945219 0
vn -0.1045287 -0.9945219 0
vn -0.3090171 -0.9510565 0
vn -0.3090171 -0.9510565 0
vn -0.5000002 -0.8660253 0
vn -0.5000002 -0.8660253 0
vn -0.6691306 -0.7431449 0
vn -0.6691306 -0.7431449 0
vn -0.8090168 -0.5877855 0
vn -0.8090168 -0.5877855 0
vn -0.9135454 -0.4067367 0
vn -0.9135454 -0.4067367 0
vn -0.9781476 -0.2079117 0
vn -0.9781476 -0.2079117 0
vn -1 -1.764646E-07 0
vn -1 -1.764646E-07 0
vn -0.9781476 0.2079117 0
vn -0.9781476 0.2079117 0
vn -0.9135454 0.4067367 0
vn -0.9135454 0.4067367 0
vn -0.8090172 0.587785 0
vn -0.8090172 0.587785 0
vn -0.6691307 0.7431448 0
vn -0.6691307 0.7431448 0
vn -0.4999999 0.8660254 0
vn -0.4999999 0.8660254 0
vn -0.3090171 0.9510565 0
vn -0.3090171 0.9510565 0
vn -0.1045286 0.9945219 0
vn -0.1045286 0.9945219 0
g Cylinder001_0
f 3/3/3 2/2/2 1/1/1
f 2/2/2 4/4/4 1/1/1
f 1/1/1 4/4/4 5/5/5
f 4/4/4 6/6/6 5/5/5
f 5/5/5 6/6/6 7/7/7
f 6/6/6 8/8/8 7/7/7
f 7/7/7 8/8/8 9/9/9
f 8/8/8 10/10/10 9/9/9
f 9/9/9 10/10/10 11/11/11
f 10/10/10 12/12/12 11/11/11
f 11/11/11 12/12/12 13/13/13
f 12/12/12 14/14/14 13/13/13
f 13/13/13 14/14/14 15/15/15
f 14/14/14 16/16/16 15/15/15
f 15/15/15 16/16/16 17/17/17
f 16/16/16 18/18/18 17/17/17
f 17/17/17 18/18/18 19/19/19
f 18/18/18 20/20/20 19/19/19
f 19/19/19 20/20/20 21/21/21
f 20/20/20 22/22/22 21/21/21
f 21/21/21 22/22/22 23/23/23
f 22/22/22 24/24/24 23/23/23
f 23/23/23 24/24/24 25/25/25
f 24/24/24 26/26/26 25/25/25
f 25/25/25 26/26/26 27/27/27
f 26/26/26 28/28/28 27/27/27
f 27/27/27 28/28/28 29/29/29
f 28/28/28 30/30/30 29/29/29
f 29/29/29 30/30/30 31/31/31
f 30/30/30 32/32/32 31/31/31
f 31/31/31 32/32/32 33/33/33
f 32/32/32 34/34/34 33/33/33
f 33/33/33 34/34/34 35/35/35
f 34/34/34 36/36/36 35/35/35
f 35/35/35 36/36/36 37/37/37
f 36/36/36 38/38/38 37/37/37
f 37/37/37 38/38/38 39/39/39
f 38/38/38 40/40/40 39/39/39
f 39/39/39 40/40/40 41/41/41
f 40/40/40 42/42/42 41/41/41
f 41/41/41 42/42/42 43/43/43
f 42/42/42 44/44/44 43/43/43
f 43/43/43 44/44/44 45/45/45
f 44/44/44 46/46/46 45/45/45
f 45/45/45 46/46/46 47/47/47
f 46/46/46 48/48/48 47/47/47
f 47/47/47 48/48/48 49/49/49
f 48/48/48 50/50/50 49/49/49
f 49/49/49 50/50/50 51/51/51
f 50/50/50 52/52/52 51/51/51
f 51/51/51 52/52/52 53/53/53
f 52/52/52 54/54/54 53/53/53
f 53/53/53 54/54/54 55/55/55
f 54/54/54 56/56/56 55/55/55
f 55/55/55 56/56/56 57/57/57
f 56/56/56 58/58/58 57/57/57
f 57/57/57 58/58/58 59/59/59
f 58/58/58 60/60/60 59/59/59
f 59/59/59 60/60/60 61/61/61
f 60/60/60 62/62/62 61/61/61
