g Cylinder001
v 0.1902113 0.0618034 -0.01194413
v 0.2 0 -0.0008103513
v 0.1902113 0.0618034 0.008733971
v 0.1618034 0.117557 0.01560919
v 0.1618034 0.117557 -0.017718
v 0.117557 0.1618034 0.02107021
v 0.117557 0.1618034 -0.02125662
v 0.06180339 0.1902113 0.02139008
v 0.06180339 0.1902113 -0.02146581
v -9.536743E-09 0.2 0.01789485
v -9.536743E-09 0.2 -0.01883445
v -9.536743E-09 0.2 -0.01883445
v -9.536743E-09 0.2 0.01789485
v -0.06180341 0.1902113 0.00949774
v -0.06180341 0.1902113 -0.009972596
v -0.117557 0.1618034 0.0002530575
v -0.1902113 0.06180336 -0.006378804
v -0.1618034 0.117557 0.001848794
v -0.1902113 0.06180336 0.007905116
v -0.2 -6.67572E-08 0.01530569
v -0.2 -6.67572E-08 -0.01391031
v -0.1902113 -0.06180348 0.02138535
v -0.1902113 -0.06180348 -0.02051602
v -0.1618033 -0.1175571 0.02444604
v -0.1618033 -0.1175571 -0.02444604
v -0.1175569 -0.1618035 0.02444604
v -0.1175569 -0.1618035 -0.02444604
v -0.06180324 -0.1902114 0.02125743
v -0.06180324 -0.1902114 -0.02109258
v 1.907349E-07 -0.2 0.01506718
v 1.907349E-07 -0.2 -0.01664576
v 0.06180361 -0.1902112 0.006795263
v 0.06180361 -0.1902112 -0.01078056
v 0.1175572 -0.1618033 -0.002054712
vt 0.8 0
vt 0.75 1
vt 0.8 1
vt 0.85 1
vt 0.85 0
vt 0.9 1
vt 0.9 0
vt 0.95 1
vt 0.95 0
vt 1 1
vt 1 0
vt 3.794549E-08 0
vt 3.794549E-08 1
vt 0.05000002 1
vt 0.05000002 0
vt 0.1 0
vt 0.2 0
vt 0.1500001 1
vt 0.2 1
vt 0.2500001 1
vt 0.2500001 0
vt 0.3000001 1
vt 0.3000001 0
vt 0.3500001 1
vt 0.3500001 0
vt 0.4000001 1
vt 0.4000001 0
vt 0.4500001 1
vt 0.4500001 0
vt 0.5000001 1
vt 0.5000001 0
vt 0.5500002 1
vt 0.5500002 0
vt 0.6000002 0
vn 0.9466736 0.3221942 0
vn 0.9876884 0.1564343 0
vn 0.9468545 0.3216622 0
vn 0.8031126 0.5958273 0
vn 0.804543 0.5938946 0
vn 0.5839189 0.811812 0
vn 0.5853001 0.8108168 0
vn 0.3114944 0.950248 0
vn 0.3108984 0.9504431 0
vn 0.009779428 0.9999522 0
vn 0.009509662 0.9999548 0
vn 0.009509662 0.9999548 0
vn 0.009779428 0.9999522 0
vn -0.2955013 0.9553424 0
vn -0.2943708 0.9556913 0
vn -0.4539905 0.8910065 0
vn -0.9548965 0.2969388 0
vn -0.8910067 0.4539902 0
vn -0.9543165 0.2987977 0
vn -0.9999408 -0.01089006 0
vn -0.9999352 -0.01139415 0
vn -0.9487244 -0.3161045 0
vn -0.9483698 -0.3171665 0
vn -0.8075429 -0.5898089 0
vn -0.8071159 -0.5903931 0
vn -0.5898935 -0.8074809 0
vn -0.5900042 -0.8074002 0
vn -0.3162867 -0.9486637 0
vn -0.3150121 -0.9490877 0
vn -0.01171822 -0.9999313 0
vn -0.00834718 -0.9999652 0
vn 0.2959136 -0.9552146 0
vn 0.2977104 -0.9546562 0
vn 0.4539914 -0.8910061 0
g Cylinder001_0
f 3/3/3 2/2/2 1/1/1
f 4/4/4 3/3/3 1/1/1
f 5/5/5 4/4/4 1/1/1
f 6/6/6 4/4/4 5/5/5
f 7/7/7 6/6/6 5/5/5
f 8/8/8 6/6/6 7/7/7
f 9/9/9 8/8/8 7/7/7
f 10/10/10 8/8/8 9/9/9
f 11/11/11 10/10/10 9/9/9
f 14/14/14 13/13/13 12/12/12
f 15/15/15 14/14/14 12/12/12
f 16/16/16 14/14/14 15/15/15
f 19/19/19 18/18/18 17/17/17
f 20/20/20 19/19/19 17/17/17
f 21/21/21 20/20/20 17/17/17
f 22/22/22 20/20/20 21/21/21
f 23/23/23 22/22/22 21/21/21
f 24/24/24 22/22/22 23/23/23
f 25/25/25 24/24/24 23/23/23
f 26/26/26 24/24/24 25/25/25
f 27/27/27 26/26/26 25/25/25
f 28/28/28 26/26/26 27/27/27
f 29/29/29 28/28/28 27/27/27
f 30/30/30 28/28/28 29/29/29
f 31/31/31 30/30/30 29/29/29
f 32/32/32 30/30/30 31/31/31
f 33/33/33 32/32/32 31/31/31
f 34/34/34 32/32/32 33/33/33
