g Cylinder001
v 0.1251475 0.7901506 0
v -1.303366E-07 0.8 0.04900551
v -1.303365E-07 0.8 0
v 0.1251475 0.7901506 0.04900551
v 0.2472136 0.7608452 0
v 0.2472136 0.7608452 0.04900551
v 0.3631924 0.7128052 0
v 0.3631924 0.7128052 0.04900551
v 0.4702282 0.6472136 0
v 0.4702282 0.6472136 0.04900551
v 0.5656854 0.5656854 0
v 0.5656854 0.5656855 0.04900551
v 0.6472136 0.4702282 0
v 0.6472136 0.4702282 0.04900551
v 0.7128052 0.3631924 0
v 0.7128052 0.3631924 0.04900551
v 0.7608452 0.2472136 0
v 0.7608452 0.2472136 0.04900551
v 0.7901506 0.1251476 0
v 0.7901506 0.1251476 0.04900551
v 0.8 0 0
v 0.8 1.92552E-08 0.04900551
v 0.7901509 -0.125146 0
v 0.7901509 -0.1251459 0.04900551
v 0.7608457 -0.2472121 0
v 0.7608457 -0.2472121 0.04900551
v 0.7128059 -0.3631911 0
v 0.7128059 -0.363191 0.04900551
v 0.6472144 -0.470227 0
v 0.6472144 -0.470227 0.04900551
v 0.5656864 -0.5656844 0
v 0.5656864 -0.5656844 0.04900551
v 0.4702293 -0.6472128 0
v 0.4702293 -0.6472128 0.04900551
v 0.3631935 -0.7128046 0
v 0.3631935 -0.7128046 0.04900551
v 0.2472148 -0.7608448 0
v 0.2472148 -0.7608448 0.04900551
v 0.1251488 -0.7901505 0
v 0.1251488 -0.7901505 0.04900551
v 1.153949E-06 -0.8 0
v 1.153949E-06 -0.8 0.04900551
v -0.1251465 -0.7901508 0
v -0.1251465 -0.7901508 0.04900551
v -0.2472126 -0.7608455 0
v -0.2472126 -0.7608455 0.04900551
v -0.3631915 -0.7128056 0
v -0.3631915 -0.7128056 0.04900551
v -0.4702274 -0.6472142 0
v -0.4702274 -0.6472142 0.04900551
v -0.5656848 -0.565686 0
v -0.5656848 -0.565686 0.04900551
v -0.647213 -0.4702289 0
v -0.647213 -0.4702289 0.04900551
v -0.7128049 -0.3631931 0
v -0.7128049 -0.363193 0.04900551
v -0.760845 -0.2472143 0
v -0.760845 -0.2472143 0.04900551
v -0.7901505 -0.1251483 0
v -0.7901505 -0.1251482 0.04900551
v -0.8 -6.421428E-07 0
v -0.8 -6.228877E-07 0.04900551
v -0.7901508 0.125147 0
v -0.7901508 0.125147 0.04900551
v -0.7608453 0.2472131 0
v -0.7608453 0.2472131 0.04900551
v -0.7128054 0.3631919 0
v -0.7128054 0.363192 0.04900551
v -0.6472138 0.4702278 0
v -0.6472138 0.4702279 0.04900551
v -0.5656857 0.5656852 0
v -0.5656857 0.5656852 0.04900551
v -0.4702285 0.6472134 0
v -0.4702285 0.6472134 0.04900551
v -0.3631927 0.7128051 0
v -0.3631927 0.7128051 0.04900551
v -0.2472138 0.7608451 0
v -0.2472138 0.7608451 0.04900551
v -0.1251477 0.7901506 0
v -0.1251477 0.7901506 0.04900551
v -1.303365E-07 0.8 0
v -1.303366E-07 0.8 0.04900551
vt 0.975 0
vt 1 0.2
vt 1 0
vt 0.975 0.2
vt 0.95 0
vt 0.95 0.2
vt 0.925 0
vt 0.925 0.2
vt 0.9 0
vt 0.9 0.2
vt 0.875 0
vt 0.875 0.2
vt 0.85 0
vt 0.85 0.2
vt 0.825 0
vt 0.825 0.2
vt 0.8 0
vt 0.8 0.2
vt 0.775 0
vt 0.775 0.2
vt 0.75 0
vt 0.75 0.2
vt 0.7250003 0
vt 0.7250003 0.2
vt 0.7000003 0
vt 0.7000003 0.2
vt 0.6750003 0
vt 0.6750003 0.2
vt 0.6500003 0
vt 0.6500003 0.2
vt 0.6250002 0
vt 0.6250002 0.2
vt 0.6000003 0
vt 0.6000003 0.2
vt 0.5750002 0
vt 0.5750002 0.2
vt 0.5500003 0
vt 0.5500003 0.2
vt 0.5250002 0
vt 0.5250002 0.2
vt 0.5000002 0
vt 0.5000002 0.2
vt 0.4750002 0
vt 0.4750002 0.2
vt 0.4500002 0
vt 0.4500002 0.2
vt 0.4250002 0
vt 0.4250002 0.2
vt 0.4000002 0
vt 0.4000002 0.2
vt 0.3750002 0
vt 0.3750002 0.2
vt 0.3500002 0
vt 0.3500002 0.2
vt 0.3250002 0
vt 0.3250002 0.2
vt 0.3000002 0
vt 0.3000002 0.2
vt 0.2750002 0
vt 0.2750002 0.2
vt 0.2500001 0
vt 0.2500001 0.2
vt 0.2250001 0
vt 0.2250001 0.2
vt 0.2000001 0
vt 0.2000001 0.2
vt 0.1750001 0
vt 0.1750001 0.2
vt 0.1500001 0
vt 0.1500001 0.2
vt 0.1250001 0
vt 0.1250001 0.2
vt 0.1000001 0
vt 0.1000001 0.2
vt 0.07500006 0
vt 0.07500006 0.2
vt 0.05000006 0
vt 0.05000006 0.2
vt 0.02500005 0
vt 0.02500005 0.2
vt 3.794549E-08 0
vt 3.794549E-08 0.2
vn 0.1564342 0.9876884 0
vn -3.140183E-07 1 0
vn -3.140183E-07 1 0
vn 0.1564342 0.9876884 0
vn 0.3090168 0.9510565 0
vn 0.3090168 0.9510565 0
vn 0.4539906 0.8910064 0
vn 0.4539906 0.8910064 0
vn 0.5877854 0.809017 -1.555009E-07
vn 0.5877854 0.809017 -1.555009E-07
vn 0.7071066 0.7071068 -4.043023E-07
vn 0.7071066 0.7071068 -4.043021E-07
vn 0.809017 0.5877854 -4.665026E-07
vn 0.8090169 0.5877854 -4.665025E-07
vn 0.8910065 0.4539906 -2.954515E-07
vn 0.8910064 0.4539906 -2.954516E-07
vn 0.9510565 0.3090169 -1.010755E-07
vn 0.9510565 0.3090169 -1.010755E-07
vn 0.9876884 0.1564343 0
vn 0.9876884 0.1564343 0
vn 1 3.877651E-07 0
vn 1 4.282068E-07 0
vn 0.9876886 -0.1564329 0
vn 0.9876886 -0.1564329 0
vn 0.9510571 -0.3090152 0
vn 0.9510571 -0.3090152 0
vn 0.8910072 -0.453989 2.876766E-07
vn 0.8910072 -0.453989 2.876764E-07
vn 0.8090181 -0.5877837 4.665024E-07
vn 0.8090181 -0.5877837 4.665024E-07
vn 0.7071081 -0.7071054 4.04302E-07
vn 0.7071083 -0.7071053 4.043021E-07
vn 0.5877865 -0.8090161 1.555008E-07
vn 0.5877865 -0.8090161 1.555008E-07
vn 0.4539918 -0.8910059 0
vn 0.4539918 -0.8910059 0
vn 0.3090189 -0.9510559 0
vn 0.3090189 -0.9510559 0
vn 0.1564361 -0.9876881 0
vn 0.1564361 -0.9876881 0
vn 1.222769E-06 -1 0
vn 1.222769E-06 -1 0
vn -0.1564333 -0.9876886 0
vn -0.1564333 -0.9876886 0
vn -0.3090158 -0.9510569 0
vn -0.3090158 -0.9510569 0
vn -0.4539891 -0.8910072 0
vn -0.4539891 -0.8910072 0
vn -0.5877842 -0.8090178 1.399507E-07
vn -0.5877842 -0.8090178 1.399507E-07
vn -0.7071061 -0.7071074 3.88752E-07
vn -0.7071061 -0.7071074 3.88752E-07
vn -0.8090164 -0.587786 4.587273E-07
vn -0.8090164 -0.587786 4.587272E-07
vn -0.8910059 -0.4539916 2.799013E-07
vn -0.8910061 -0.4539916 2.799013E-07
vn -0.9510562 -0.3090177 0
vn -0.9510562 -0.3090177 0
vn -0.9876882 -0.1564352 0
vn -0.9876882 -0.1564351 0
vn -1 -9.396762E-07 0
vn -1 -8.992345E-07 0
vn -0.9876885 0.1564339 0
vn -0.9876885 0.1564339 0
vn -0.9510568 0.3090162 -1.010755E-07
vn -0.9510568 0.3090162 -1.010755E-07
vn -0.8910069 0.4539899 -2.799013E-07
vn -0.8910069 0.4539899 -2.799014E-07
vn -0.8090174 0.5877848 -4.509521E-07
vn -0.8090173 0.5877848 -4.509522E-07
vn -0.7071072 0.7071063 -3.88752E-07
vn -0.7071072 0.7071063 -3.887519E-07
vn -0.5877855 0.8090168 -1.399508E-07
vn -0.5877855 0.8090168 -1.399508E-07
vn -0.4539905 0.8910065 0
vn -0.4539905 0.8910065 0
vn -0.3090171 0.9510565 0
vn -0.3090171 0.9510565 0
vn -0.1564348 0.9876882 0
vn -0.1564348 0.9876882 0
vn -3.140183E-07 1 0
vn -3.140183E-07 1 0
g Cylinder001_0
f 3/3/3 2/2/2 1/1/1
f 2/2/2 4/4/4 1/1/1
f 1/1/1 4/4/4 5/5/5
f 4/4/4 6/6/6 5/5/5
f 5/5/5 6/6/6 7/7/7
f 6/6/6 8/8/8 7/7/7
f 7/7/7 8/8/8 9/9/9
f 8/8/8 10/10/10 9/9/9
f 9/9/9 10/10/10 11/11/11
f 10/10/10 12/12/12 11/11/11
f 11/11/11 12/12/12 13/13/13
f 12/12/12 14/14/14 13/13/13
f 13/13/13 14/14/14 15/15/15
f 14/14/14 16/16/16 15/15/15
f 15/15/15 16/16/16 17/17/17
f 16/16/16 18/18/18 17/17/17
f 17/17/17 18/18/18 19/19/19
f 18/18/18 20/20/20 19/19/19
f 19/19/19 20/20/20 21/21/21
f 20/20/20 22/22/22 21/21/21
f 21/21/21 22/22/22 23/23/23
f 22/22/22 24/24/24 23/23/23
f 23/23/23 24/24/24 25/25/25
f 24/24/24 26/26/26 25/25/25
f 25/25/25 26/26/26 27/27/27
f 26/26/26 28/28/28 27/27/27
f 27/27/27 28/28/28 29/29/29
f 28/28/28 30/30/30 29/29/29
f 29/29/29 30/30/30 31/31/31
f 30/30/30 32/32/32 31/31/31
f 31/31/31 32/32/32 33/33/33
f 32/32/32 34/34/34 33/33/33
f 33/33/33 34/34/34 35/35/35
f 34/34/34 36/36/36 35/35/35
f 35/35/35 36/36/36 37/37/37
f 36/36/36 38/38/38 37/37/37
f 37/37/37 38/38/38 39/39/39
f 38/38/38 40/40/40 39/39/39
f 39/39/39 40/40/40 41/41/41
f 40/40/40 42/42/42 41/41/41
f 41/41/41 42/42/42 43/43/43
f 42/42/42 44/44/44 43/43/43
f 43/43/43 44/44/44 45/45/45
f 44/44/44 46/46/46 45/45/45
f 45/45/45 46/46/46 47/47/47
f 46/46/46 48/48/48 47/47/47
f 47/47/47 48/48/48 49/49/49
f 48/48/48 50/50/50 49/49/49
f 49/49/49 50/50/50 51/51/51
f 50/50/50 52/52/52 51/51/51
f 51/51/51 52/52/52 53/53/53
f 52/52/52 54/54/54 53/53/53
f 53/53/53 54/54/54 55/55/55
f 54/54/54 56/56/56 55/55/55
f 55/55/55 56/56/56 57/57/57
f 56/56/56 58/58/58 57/57/57
f 57/57/57 58/58/58 59/59/59
f 58/58/58 60/60/60 59/59/59
f 59/59/59 60/60/60 61/61/61
f 60/60/60 62/62/62 61/61/61
f 61/61/61 62/62/62 63/63/63
f 62/62/62 64/64/64 63/63/63
f 63/63/63 64/64/64 65/65/65
f 64/64/64 66/66/66 65/65/65
f 65/65/65 66/66/66 67/67/67
f 66/66/66 68/68/68 67/67/67
f 67/67/67 68/68/68 69/69/69
f 68/68/68 70/70/70 69/69/69
f 69/69/69 70/70/70 71/71/71
f 70/70/70 72/72/72 71/71/71
f 71/71/71 72/72/72 73/73/73
f 72/72/72 74/74/74 73/73/73
f 73/73/73 74/74/74 75/75/75
f 74/74/74 76/76/76 75/75/75
f 75/75/75 76/76/76 77/77/77
f 76/76/76 78/78/78 77/77/77
f 77/77/77 78/78/78 79/79/79
f 78/78/78 80/80/80 79/79/79
f 79/79/79 80/80/80 81/81/81
f 80/80/80 82/82/82 81/81/81
