g DLC_GodRay01
v 0.1296511 -1.088746E-06 2.259313
v 0.2448322 -1.012452E-06 1.807487
v 0.2593023 -1.088746E-06 2.259313
v 0.1224161 -1.012452E-06 1.807487
v 0.2263795 -1.012452E-06 1.231306
v 3.33786E-09 -1.088746E-06 2.259313
v 0.1131897 -1.012452E-06 1.231306
v 0.2098975 -9.361578E-07 0.7166589
v 3.33786E-09 -1.012452E-06 1.807487
v -0.1296511 -1.088746E-06 2.259313
v 0.1049488 -9.361578E-07 0.7166589
v 0.1944277 -1.012452E-06 0.2336147
v -0.1224161 -1.012452E-06 1.807487
v -0.2593023 -1.088746E-06 2.259313
v -0.2448322 -1.012452E-06 1.807487
v 3.33786E-09 -1.012452E-06 1.231306
v -0.1131897 -1.012452E-06 1.231306
v -0.2263795 -1.012452E-06 1.231306
v 0.09721386 -9.361578E-07 0.2336145
v 0.1869519 -8.598639E-07 0.000182724
v 0.09347592 -8.598639E-07 0.000182724
v 3.33786E-09 -9.361578E-07 0.7166589
v -0.1049488 -9.361578E-07 0.7166589
v -0.2098975 -9.361578E-07 0.7166589
v 3.33786E-09 -1.012452E-06 0.2336147
v 3.33786E-09 -8.598639E-07 0.000182724
v -0.09721385 -9.361578E-07 0.2336145
v -0.1944277 -1.012452E-06 0.2336147
v -0.09347592 -8.598639E-07 0.000182724
v -0.1869519 -8.598639E-07 0.000182724
vt 0.75 0
vt 1 0.2
vt 1 0
vt 0.75 0.2
vt 1 0.4
vt 0.5 0
vt 0.75 0.4
vt 1 0.6
vt 0.5 0.2
vt 0.25 0
vt 0.75 0.6
vt 1 0.8
vt 0.25 0.2
vt 0 0
vt 0 0.2
vt 0.5 0.4
vt 0.25 0.4
vt 0 0.4
vt 0.75 0.8
vt 1 1
vt 0.75 1
vt 0.5 0.6
vt 0.25 0.6
vt 0 0.6
vt 0.5 0.8
vt 0.5 1
vt 0.25 0.8
vt 0 0.8
vt 0.25 1
vt 0 1
vn 0 1 1.688569E-07
vn 0 1 0
vn 0 1 1.688569E-07
vn 0 1 0
vn 0 1 0
vn 0 1 1.688569E-07
vn 0 1 0
vn 0 1 0
vn 0 1 0
vn 0 1 1.688569E-07
vn 0 1 0
vn 7.31052E-07 1 2.914946E-07
vn 0 1 0
vn 0 1 1.688569E-07
vn 0 1 0
vn 0 1 0
vn 0 1 0
vn 0 1 0
vn 0 1 1.867271E-07
vn 1.953805E-07 1 4.019458E-07
vn 0 1 4.522159E-07
vn 0 1 0
vn 0 1 0
vn 0 1 0
vn 0 1 2.251693E-07
vn 0 1 5.313075E-07
vn 0 1 1.855089E-07
vn -6.908353E-07 1 1.01166E-07
vn 0 1 4.462204E-07
vn 0 1 6.536719E-07
g DLC_GodRay01_0
f 3/3/3 2/2/2 1/1/1
f 4/4/4 1/1/1 2/2/2
f 2/2/2 5/5/5 4/4/4
f 1/1/1 4/4/4 6/6/6
f 7/7/7 4/4/4 5/5/5
f 5/5/5 8/8/8 7/7/7
f 9/9/9 6/6/6 4/4/4
f 4/4/4 7/7/7 9/9/9
f 6/6/6 9/9/9 10/10/10
f 11/11/11 7/7/7 8/8/8
f 8/8/8 12/12/12 11/11/11
f 13/13/13 10/10/10 9/9/9
f 10/10/10 13/13/13 14/14/14
f 15/15/15 14/14/14 13/13/13
f 16/16/16 9/9/9 7/7/7
f 9/9/9 16/16/16 13/13/13
f 7/7/7 11/11/11 16/16/16
f 13/13/13 17/17/17 15/15/15
f 17/17/17 13/13/13 16/16/16
f 18/18/18 15/15/15 17/17/17
f 19/19/19 11/11/11 12/12/12
f 12/12/12 20/20/20 19/19/19
f 21/21/21 19/19/19 20/20/20
f 22/22/22 16/16/16 11/11/11
f 16/16/16 22/22/22 17/17/17
f 11/11/11 19/19/19 22/22/22
f 17/17/17 23/23/23 18/18/18
f 23/23/23 17/17/17 22/22/22
f 24/24/24 18/18/18 23/23/23
f 19/19/19 21/21/21 25/25/25
f 25/25/25 22/22/22 19/19/19
f 22/22/22 25/25/25 23/23/23
f 26/26/26 25/25/25 21/21/21
f 23/23/23 27/27/27 24/24/24
f 27/27/27 23/23/23 25/25/25
f 25/25/25 26/26/26 27/27/27
f 28/28/28 24/24/24 27/27/27
f 29/29/29 27/27/27 26/26/26
f 27/27/27 29/29/29 28/28/28
f 30/30/30 28/28/28 29/29/29
