g Eff_Model_W1_Mecha01_04
v -0.5130188 0.1515539 0.5725613
v -0.6027075 -0.001629171 0.3180173
v -0.5638965 0.1757908 0.4331618
v -0.5197327 -0.2271582 0.5232438
v -0.4809936 -0.03947594 0.6496452
v -0.581593 -0.1786824 0.3720892
v 0.6099536 0.3217099 0.3840655
v 0.6276318 0.4963062 0.1245853
v 0.6398743 0.3282373 0.2292801
v 0.5374573 0.6470119 0.4234323
v 0.5519837 0.5021412 0.4939586
v 0.5697742 0.6763982 0.2342722
v 0.6614844 0.3292492 -0.1813952
v 0.6018176 0.4884794 -0.4608729
v 0.6481384 0.3234989 -0.3414917
v 0.5922021 0.6676685 -0.2031303
v 0.6388672 0.4968329 -0.08887664
v 0.5804577 0.6330304 -0.4015996
v -0.635 0.3698532 -0.33888
v -0.6341235 0.05776351 -0.4827071
v -0.6239856 0.2494437 -0.5104313
v -0.666344 0.09476115 -0.1554757
v -0.6548999 0.2905551 -0.1727131
v -0.6565832 -0.02115264 -0.2961841
v -0.6565832 -0.02115264 -0.2961841
v -0.6012378 -0.08236498 -0.6046238
v -0.6341235 0.05776351 -0.4827071
v -0.6137818 -0.327161 -0.3801402
v -0.6409937 -0.1961768 -0.2613762
v -0.5912793 -0.2627942 -0.5702603
v -0.5082678 -0.5306596 -0.3683845
v -0.4401807 -0.5108286 -0.6488088
v -0.521499 -0.4493155 -0.5214694
v -0.3352795 -0.7162344 -0.4926542
v -0.4145349 -0.6753128 -0.3509261
v -0.3623279 -0.6244584 -0.6392765
v 0.5918457 -0.1688306 -0.4823324
v 0.5311939 0.04960142 -0.7070537
v 0.5347754 -0.1328596 -0.6509789
v 0.633949 0.1225908 -0.460243
v 0.6364148 -0.02570257 -0.3911977
v 0.5825073 0.1571194 -0.6293377
v -0.6395129 0.3912003 -0.01581634
v -0.5841577 0.3500605 0.3146843
v -0.6354919 0.2966103 0.1155403
v -0.5481238 0.6187547 0.1871097
v -0.599364 0.5563316 -0.01006042
v -0.5488195 0.5016963 0.333186
v -0.5332788 -0.6626654 0.09531387
v -0.5931836 -0.3150012 0.2218169
v -0.5442932 -0.5209471 0.2498088
v -0.6275891 -0.3634231 -0.1191034
v -0.5724096 -0.5811512 -0.09217315
v -0.637351 -0.2322506 0.03502914
v 0.6551123 0.1585587 0.1358557
v 0.6157141 -0.2202304 0.1532507
v 0.6282629 -0.04256533 0.2582639
v 0.6521801 -0.04144663 -0.1961349
v 0.6663427 0.1590851 -0.07760635
v 0.6283935 -0.219637 -0.0876857
v 0.6283935 -0.219637 -0.0876857
v 0.5682104 -0.369571 0.2439178
v 0.6157141 -0.2202304 0.1532507
v 0.5515344 -0.5162639 -0.07363617
v 0.5906567 -0.3685207 -0.1825543
v 0.5410559 -0.5120836 0.1422716
v 0.5071802 0.2015972 0.7070535
v 0.6099536 0.3217099 0.3840655
v 0.5823267 0.1346692 0.515021
v 0.5519837 0.5021412 0.4939586
v 0.4882165 0.4328434 0.6964148
v -0.5638965 0.1757908 0.4331618
v -0.6354919 0.2966103 0.1155403
v -0.5841577 0.3500605 0.3146843
v -0.6469544 0.06898574 0.127318
v -0.6027075 -0.001629171 0.3180173
v 0.4500452 -0.6618721 0.2346887
v 0.4669507 -0.7011458 -0.1141485
v 0.4042236 -0.7911359 0.07640655
v 0.5515344 -0.5162639 -0.07363617
v 0.5410559 -0.5120836 0.1422716
v -0.4866309 0.7385443 0.2030841
v -0.5488195 0.5016963 0.333186
v -0.5481238 0.6187547 0.1871097
v -0.4810144 0.5177783 0.4734227
v -0.4197607 0.6533335 0.481237
v -0.4231982 0.7736113 0.3584018
v -0.5931836 -0.3150012 0.2218169
v -0.4875366 -0.5748969 0.4259425
v -0.5442932 -0.5209471 0.2498088
v -0.4708447 -0.4331044 0.5512358
v -0.5197327 -0.2271582 0.5232438
v -0.581593 -0.1786824 0.3720892
v 0.6157141 -0.2202304 0.1532507
v 0.5930285 -0.04114855 0.4382529
v 0.6282629 -0.04256533 0.2582639
v 0.5394055 -0.1889481 0.5207838
v 0.526853 -0.3666126 0.4157704
v 0.5682104 -0.369571 0.2439178
v 0.6364148 -0.02570257 -0.3911977
v 0.6283935 -0.219637 -0.0876857
v 0.6521801 -0.04144663 -0.1961349
v 0.5906567 -0.3685207 -0.1825543
v 0.568064 -0.3470208 -0.3738824
v 0.5918457 -0.1688306 -0.4823324
v 0.6388672 0.4968329 -0.08887664
v 0.6398743 0.3282373 0.2292801
v 0.6276318 0.4963062 0.1245853
v 0.6551123 0.1585587 0.1358557
v 0.6663427 0.1590851 -0.07760635
v 0.6614844 0.3292492 -0.1813952
v -0.635 0.3698532 -0.33888
v -0.6395129 0.3912003 -0.01581634
v -0.6548999 0.2905551 -0.1727131
v -0.599364 0.5563316 -0.01006042
v -0.5794665 0.6356291 -0.1762274
v -0.6012304 0.5437605 -0.3355021
v 0.2813086 -0.7801734 -0.3580697
v 0.1632312 -0.850889 -0.0659256
v 0.3038086 -0.8057482 -0.1874779
v -0.04019043 -0.8317943 -0.2686926
v 0.01491089 -0.8599269 -0.09523437
v 0.1059656 -0.7867382 -0.4139893
v 0.06495728 -0.7465448 -0.5934378
v 0.2813086 -0.7801734 -0.3580697
v 0.3983142 -0.7016082 -0.4618039
v 0.3653699 -0.6673533 -0.6339071
v 0.1931824 -0.6859454 -0.6965225
v 0.01491089 -0.8599269 -0.09523437
v -0.2913074 -0.7924197 0.0080159
v -0.1019617 -0.8349622 0.04488586
v -0.3493665 -0.7780793 -0.1661645
v -0.2295337 -0.7892516 -0.3055639
v -0.04019043 -0.8317943 -0.2686926
v 0.1092847 -0.8495328 0.2363924
v 0.06233032 -0.8062665 0.5633706
v 0.1758716 -0.8189703 0.4202591
v -0.1133984 -0.7919238 0.5358754
v -0.1774426 -0.8037164 0.3529636
v -0.06509522 -0.8357245 0.2105952
v 0.2378967 0.8369646 0.1254602
v 0.03734741 0.8306799 -0.1160046
v 0.2119092 0.8190849 -0.02267761
v -0.1100989 0.8595264 0.1426639
v 0.09238769 0.8599269 0.2359854
v -0.1056384 0.8359264 -0.01826965
v 0.09238769 0.8599269 0.2359854
v -0.2806311 0.8286371 0.2580783
v -0.1100989 0.8595264 0.1426639
v -0.05396606 0.8002979 0.5419711
v 0.1115967 0.830774 0.4304141
v -0.2398266 0.7979081 0.4751101
v 0.09238769 0.8599269 0.2359854
v 0.274845 0.7808783 0.4995151
v 0.1115967 0.830774 0.4304141
v 0.4163208 0.7444766 0.3873734
v 0.3971142 0.7736301 0.1929456
v 0.2378967 0.8369646 0.1254602
v 0.1542932 0.7915317 -0.6150267
v -0.1406348 0.7559975 -0.6440389
v 0.03858764 0.7545549 -0.6956964
v -0.04583496 0.8280452 -0.3937918
v 0.1263672 0.8345795 -0.4453141
v -0.1770032 0.7917908 -0.5074428
v 0.1263672 0.8345795 -0.4453141
v 0.4309546 0.7551478 -0.379142
v 0.2717383 0.8336112 -0.3227043
v 0.4559851 0.6992377 -0.5455254
v 0.3136316 0.7347283 -0.668135
v 0.1542932 0.7915317 -0.6150267
v -0.04583496 0.8280452 -0.3937918
v -0.3355688 0.7395537 -0.4477473
v -0.1770032 0.7917908 -0.5074428
v -0.369436 0.7363477 -0.2752613
v -0.2421558 0.7856226 -0.1620898
v -0.07970092 0.8248388 -0.2213056
vt 0.9036349 0.8129182
vt 0.7236316 0.7686371
vt 0.8050572 0.8152013
vt 0.8687596 0.7061217
vt 0.9581456 0.7565439
vt 0.7618691 0.7235276
vt 0.7703383 0.2151416
vt 0.5868442 0.1870826
vt 0.6608802 0.2168799
vt 0.7981769 0.1552332
vt 0.8480502 0.1765344
vt 0.6644104 0.1562834
vt 0.3704671 0.2187325
vt 0.1728316 0.1851373
vt 0.2572532 0.2185639
vt 0.3550969 0.1601815
vt 0.4358925 0.1883196
vt 0.2147473 0.1627064
vt 0.2591001 0.8495965
vt 0.1573914 0.7829232
vt 0.1377859 0.8271292
vt 0.3887963 0.7906237
vt 0.3766066 0.8328217
vt 0.289293 0.7641315
vt 0.289293 0.7641315
vt 0.07117677 0.7482577
vt 0.1573914 0.7829232
vt 0.2299226 0.69426
vt 0.3139077 0.7236919
vt 0.09547722 0.7051777
vt 0.2382358 0.6458123
vt 0.03993088 0.6377789
vt 0.1299801 0.6604378
vt 0.1503572 0.5960203
vt 0.2505816 0.613235
vt 0.04667169 0.6094503
vt 0.1576563 0.3317027
vt -0.001257539 0.2750453
vt 0.03839636 0.3264536
vt 0.1732771 0.2600924
vt 0.2221031 0.2954292
vt 0.05370003 0.2490292
vt 0.4875578 0.8528919
vt 0.7212746 0.8514996
vt 0.580448 0.8357412
vt 0.6310589 0.8982291
vt 0.4916281 0.8833123
vt 0.7343583 0.8821503
vt 0.5661447 0.632645
vt 0.6556025 0.6944969
vt 0.6753973 0.65245
vt 0.4145173 0.6888878
vt 0.4335613 0.6479462
vt 0.5235137 0.7156824
vt 0.5948142 0.2529989
vt 0.6071153 0.3417246
vt 0.6813763 0.2995959
vt 0.3600437 0.2989572
vt 0.4438624 0.2534738
vt 0.4367347 0.3406166
vt 0.4367347 0.3406166
vt 0.6712314 0.377333
vt 0.6071153 0.3417246
vt 0.4466699 0.4041683
vt 0.3696474 0.3744551
vt 0.5993513 0.4050105
vt 0.9987424 0.2314851
vt 0.7703383 0.2151416
vt 0.8629447 0.2545569
vt 0.8480502 0.1765344
vt 0.9912192 0.1784892
vt 0.8050572 0.8152013
vt 0.580448 0.8357412
vt 0.7212746 0.8514996
vt 0.5887767 0.7852734
vt 0.7236316 0.7686371
vt 0.6647049 0.4379606
vt 0.4180213 0.4394296
vt 0.5527742 0.4570178
vt 0.4466699 0.4041683
vt 0.5993513 0.4050105
vt 0.6423554 0.9199661
vt 0.7343583 0.8821503
vt 0.6310589 0.8982291
vt 0.833528 0.8946152
vt 0.8390539 0.9217273
vt 0.7521898 0.9324954
vt 0.6556025 0.6944969
vt 0.799952 0.6365739
vt 0.6753973 0.65245
vt 0.8885543 0.6554759
vt 0.8687596 0.7061217
vt 0.7618691 0.7235276
vt 0.6071153 0.3417246
vt 0.8086574 0.2998447
vt 0.6813763 0.2995959
vt 0.86702 0.3407212
vt 0.7927587 0.3821091
vt 0.6712314 0.377333
vt 0.2221031 0.2954292
vt 0.4367347 0.3406166
vt 0.3600437 0.2989572
vt 0.3696474 0.3744551
vt 0.2343478 0.373014
vt 0.1576563 0.3317027
vt 0.4358925 0.1883196
vt 0.6608802 0.2168799
vt 0.5868442 0.1870826
vt 0.5948142 0.2529989
vt 0.4438624 0.2534738
vt 0.3704671 0.2187325
vt 0.2591001 0.8495965
vt 0.4875578 0.8528919
vt 0.3766066 0.8328217
vt 0.4916281 0.8833123
vt 0.3741215 0.89605
vt 0.2614888 0.8813372
vt 0.2455298 0.4763063
vt 0.4521225 0.5002115
vt 0.3661656 0.4740909
vt 0.3087338 0.5365304
vt 0.4313965 0.5265093
vt 0.2059858 0.5087103
vt 0.07908702 0.5159021
vt 0.2455298 0.4763063
vt 0.1721732 0.4503011
vt 0.05046868 0.4526573
vt 0.006189644 0.4872323
vt 0.4313965 0.5265093
vt 0.504411 0.5829579
vt 0.5304839 0.5477148
vt 0.3812376 0.59361
vt 0.2826599 0.5723796
vt 0.3087338 0.5365304
vt 0.6659096 0.5096183
vt 0.8971356 0.5173742
vt 0.7959328 0.4968515
vt 0.877692 0.550878
vt 0.7483441 0.5623419
vt 0.647667 0.5410286
vt 0.5874629 0.09166569
vt 0.4167086 0.05623406
vt 0.4827058 0.08803564
vt 0.5996287 0.02991599
vt 0.6656219 0.0657174
vt 0.4858229 0.03017443
vt 0.6656219 0.0657174
vt 0.6812451 -0.0004972219
vt 0.5996287 0.02991599
vt 0.8820027 0.03908968
vt 0.8031142 0.06976509
vt 0.8347213 0.004781246
vt 0.6656219 0.0657174
vt 0.8519795 0.1010573
vt 0.8031142 0.06976509
vt 0.7726774 0.1272429
vt 0.6351858 0.1217987
vt 0.5874629 0.09166569
vt 0.06382024 0.07877338
vt 0.04330397 0.02128351
vt 0.006773829 0.05717546
vt 0.2202687 0.04092729
vt 0.1838342 0.07232213
vt 0.1398993 0.01578414
vt 0.1838342 0.07232213
vt 0.2306285 0.1285713
vt 0.2705389 0.09749687
vt 0.1129688 0.1376235
vt 0.02626413 0.1109875
vt 0.06382024 0.07877338
vt 0.2202687 1.000498
vt 0.1821135 0.9438891
vt 0.1398993 0.9753544
vt 0.3040887 0.9379248
vt 0.384119 0.9632801
vt 0.342244 0.9942315
vn -0.9399915 -0.02374866 0.3403703
vn -0.9354696 -0.01879364 0.3529069
vn -0.9401323 -0.01530431 0.3404661
vn -0.9360444 -0.01873683 0.3513825
vn -0.9443299 -0.02596886 0.3279735
vn -0.9248169 0.005874837 0.3803674
vn 0.9622256 0.1909613 0.1940508
vn 0.9622267 0.1909568 0.1940499
vn 0.9622226 0.1909721 0.1940548
vn 0.962227 0.1909527 0.1940517
vn 0.962225 0.1909558 0.1940591
vn 0.9622287 0.1909418 0.1940542
vn 0.9753052 0.1974586 -0.09894355
vn 0.9766193 0.1933462 -0.09397896
vn 0.973834 0.2092377 -0.08869594
vn 0.9766233 0.1905947 -0.0994016
vn 0.9750642 0.1925293 -0.1103733
vn 0.9793066 0.1814577 -0.08961941
vn -0.9941789 0.04460353 -0.09807552
vn -0.9941215 0.04224757 -0.09968741
vn -0.995023 0.0393878 -0.0915309
vn -0.9938759 0.0447535 -0.1010335
vn -0.9942026 0.04971739 -0.09533812
vn -0.9939042 0.04068787 -0.1024639
vn -0.9843992 -0.0972243 -0.1466475
vn -0.9838154 -0.09089284 -0.1544213
vn -0.9830378 -0.09335256 -0.1578667
vn -0.9852865 -0.09460428 -0.1423396
vn -0.9883491 -0.1091328 -0.1060945
vn -0.9861127 -0.08193921 -0.1444566
vn -0.7874091 -0.5652761 -0.2458653
vn -0.7898135 -0.5705527 -0.2250875
vn -0.7913449 -0.5655848 -0.2321358
vn -0.7887785 -0.5653076 -0.2413624
vn -0.78877 -0.5453415 -0.2836275
vn -0.7990894 -0.564781 -0.2061031
vn 0.9376825 -0.1031857 -0.3318194
vn 0.9307547 -0.1300969 -0.3417172
vn 0.9382032 -0.08470922 -0.3355579
vn 0.9344729 -0.131051 -0.3310378
vn 0.9519873 -0.1160664 -0.2832823
vn 0.9233959 -0.2070811 -0.3231989
vn -0.9577051 0.2209843 0.184301
vn -0.9600205 0.2145799 0.1797674
vn -0.9572715 0.2199866 0.1877158
vn -0.9595869 0.2171205 0.17903
vn -0.9577274 0.2266814 0.1771263
vn -0.9654856 0.2054733 0.1600574
vn -0.9683952 -0.2185099 0.1202669
vn -0.9679623 -0.216043 0.1279626
vn -0.9689006 -0.212861 0.1261817
vn -0.9676669 -0.2206244 0.1222523
vn -0.9673206 -0.2326925 0.1007235
vn -0.9660237 -0.2237979 0.1292774
vn 0.9935306 -0.1009399 0.05204071
vn 0.9935293 -0.1009495 0.05204544
vn 0.9935287 -0.100947 0.05206145
vn 0.9935306 -0.1009427 0.05203504
vn 0.9935338 -0.1009173 0.05202205
vn 0.9935291 -0.100956 0.05203649
vn 0.9661278 -0.254117 0.04496396
vn 0.9668278 -0.2491381 0.05634026
vn 0.9601117 -0.2751373 0.04984888
vn 0.9687885 -0.2434596 0.04664946
vn 0.9680927 -0.2504649 0.007983627
vn 0.9736174 -0.2222861 0.05155572
vn 0.9384663 0.09494957 0.3320625
vn 0.937499 0.0967202 0.3342766
vn 0.9378206 0.09519514 0.3338118
vn 0.9383571 0.09563669 0.3321744
vn 0.9402709 0.09218463 0.3277081
vn -0.968965 0.05452362 0.24111
vn -0.9690862 0.05687467 0.2400774
vn -0.9702736 0.04839968 0.2371213
vn -0.9683731 0.05850005 0.2425516
vn -0.9682242 0.0532153 0.2443566
vn 0.8887473 -0.4514802 0.07933488
vn 0.8977084 -0.4308747 0.09201502
vn 0.8977004 -0.4308909 0.09201644
vn 0.8894966 -0.4498204 0.08035937
vn 0.8673056 -0.495086 0.05167792
vn -0.8705499 0.3697607 0.3246843
vn -0.8415083 0.4125528 0.3488034
vn -0.860482 0.399568 0.3160954
vn -0.8544083 0.3936189 0.3391911
vn -0.8789275 0.3539249 0.3197241
vn -0.907843 0.2866187 0.3060567
vn -0.940119 -0.1926983 0.2811469
vn -0.94546 -0.162677 0.2822082
vn -0.9497595 -0.1918574 0.2472805
vn -0.9423296 -0.1668014 0.2901587
vn -0.9360408 -0.2031838 0.2873045
vn -0.9216787 -0.2493056 0.2972458
vn 0.9580076 -0.1908118 0.2140381
vn 0.9544607 -0.2124406 0.2094606
vn 0.9649578 -0.1806503 0.1903207
vn 0.953506 -0.2103012 0.2158701
vn 0.9574423 -0.1871263 0.2197451
vn 0.9585724 -0.1631531 0.2334952
vn 0.9724067 -0.2014258 -0.1176987
vn 0.9776806 -0.1878116 -0.09416734
vn 0.9776764 -0.187828 -0.09417797
vn 0.9731808 -0.1995512 -0.1144484
vn 0.9671919 -0.2131869 -0.1381709
vn 0.9671894 -0.2131873 -0.1381876
vn 0.9946557 0.08536234 0.05807981
vn 0.9960825 0.07940092 0.0389227
vn 0.9930778 0.1050592 0.05252891
vn 0.9961515 0.07638888 0.04297464
vn 0.9946263 0.08297817 0.06191168
vn 0.9923341 0.08375808 0.09087167
vn -0.9782512 0.207131 -0.01101059
vn -0.973636 0.2263129 -0.02855502
vn -0.9812248 0.1910616 -0.02633172
vn -0.9739951 0.2254681 -0.02230909
vn -0.9781007 0.208046 -0.006002503
vn -0.9814589 0.1901058 0.02445862
vn 0.1184812 -0.97466 -0.189737
vn 0.1143976 -0.9755377 -0.1877213
vn 0.1669971 -0.9715934 -0.1676852
vn 0.1007285 -0.9756233 -0.1949688
vn 0.09694194 -0.9771277 -0.1892716
vn 0.1005803 -0.9744162 -0.2009889
vn 0.2015326 -0.9372637 -0.2844664
vn 0.2281296 -0.9123185 -0.3400468
vn 0.2441592 -0.920866 -0.303961
vn 0.2160655 -0.9450417 -0.2453809
vn 0.2068921 -0.9338841 -0.2916439
vn -0.2094453 -0.976483 -0.05112362
vn -0.2177734 -0.9759686 -0.007760945
vn -0.2177719 -0.9759688 -0.0077563
vn -0.2094461 -0.9764827 -0.05112474
vn -0.2007097 -0.9750931 -0.09438793
vn -0.2007089 -0.9750932 -0.09438892
vn -0.06441146 -0.9899147 0.126175
vn -0.05742347 -0.9907622 0.1228532
vn 0.06621651 -0.9879023 0.1402296
vn -0.1067792 -0.9881037 0.1106763
vn -0.1116248 -0.9872519 0.1134619
vn -0.09915195 -0.9847223 0.1431469
vn 0.08066855 0.9907523 -0.1090978
vn 0.04871645 0.993282 -0.1049647
vn 0.1415488 0.9795398 -0.1430587
vn 0.02919153 0.9938268 -0.1070333
vn 0.05777078 0.9898824 -0.1295974
vn -0.06393722 0.9871378 -0.1465304
vn -0.07421781 0.9849586 0.156039
vn -0.07192191 0.9852491 0.1552787
vn -0.07344917 0.9851581 0.1551405
vn -0.07263865 0.9851906 0.1553161
vn -0.07668502 0.984894 0.1552526
vn -0.06746365 0.9860302 0.1522931
vn 0.2817599 0.9512981 0.125074
vn 0.2880952 0.9536779 0.08660068
vn 0.2432601 0.9624743 0.1202814
vn 0.2949282 0.950877 0.09407618
vn 0.2874347 0.9484739 0.1333359
vn 0.2922706 0.9372594 0.1900599
vn -0.09634352 0.9590162 -0.2664692
vn -0.07526387 0.9620046 -0.2624547
vn -0.08300857 0.9456537 -0.3144023
vn -0.08618641 0.9637127 -0.2526455
vn -0.1147311 0.9582409 -0.2619373
vn -0.03866044 0.9640457 -0.2629093
vn 0.306443 0.9219162 -0.2369876
vn 0.2997948 0.9093896 -0.2883293
vn 0.3076572 0.8816577 -0.3578082
vn 0.3197749 0.926311 -0.1992288
vn 0.3257774 0.9342798 -0.1448804
vn 0.271235 0.9426616 -0.1944753
vn -0.2821563 0.9590005 -0.02657156
vn -0.2888564 0.9571888 -0.01874856
vn -0.2987837 0.9534532 0.04068621
vn -0.2919044 0.9546639 -0.0583837
vn -0.2853624 0.9560934 -0.06673468
vn -0.2448939 0.9690835 -0.03006745
g Eff_Model_W1_Mecha01_04_0
f 3/3/3 2/2/2 1/1/1
f 2/2/2 4/4/4 1/1/1
f 1/1/1 4/4/4 5/5/5
f 6/6/6 4/4/4 2/2/2
f 9/9/9 8/8/8 7/7/7
f 8/8/8 10/10/10 7/7/7
f 7/7/7 10/10/10 11/11/11
f 12/12/12 10/10/10 8/8/8
f 15/15/15 14/14/14 13/13/13
f 14/14/14 16/16/16 13/13/13
f 13/13/13 16/16/16 17/17/17
f 18/18/18 16/16/16 14/14/14
f 21/21/21 20/20/20 19/19/19
f 20/20/20 22/22/22 19/19/19
f 19/19/19 22/22/22 23/23/23
f 24/24/24 22/22/22 20/20/20
f 27/27/27 26/26/26 25/25/25
f 26/26/26 28/28/28 25/25/25
f 25/25/25 28/28/28 29/29/29
f 30/30/30 28/28/28 26/26/26
f 33/33/33 32/32/32 31/31/31
f 32/32/32 34/34/34 31/31/31
f 31/31/31 34/34/34 35/35/35
f 36/36/36 34/34/34 32/32/32
f 39/39/39 38/38/38 37/37/37
f 38/38/38 40/40/40 37/37/37
f 37/37/37 40/40/40 41/41/41
f 42/42/42 40/40/40 38/38/38
f 45/45/45 44/44/44 43/43/43
f 44/44/44 46/46/46 43/43/43
f 43/43/43 46/46/46 47/47/47
f 48/48/48 46/46/46 44/44/44
f 51/51/51 50/50/50 49/49/49
f 50/50/50 52/52/52 49/49/49
f 49/49/49 52/52/52 53/53/53
f 54/54/54 52/52/52 50/50/50
f 57/57/57 56/56/56 55/55/55
f 56/56/56 58/58/58 55/55/55
f 55/55/55 58/58/58 59/59/59
f 60/60/60 58/58/58 56/56/56
f 63/63/63 62/62/62 61/61/61
f 62/62/62 64/64/64 61/61/61
f 61/61/61 64/64/64 65/65/65
f 66/66/66 64/64/64 62/62/62
f 69/69/69 68/68/68 67/67/67
f 68/68/68 70/70/70 67/67/67
f 70/70/70 71/71/71 67/67/67
f 74/74/74 73/73/73 72/72/72
f 73/73/73 75/75/75 72/72/72
f 75/75/75 76/76/76 72/72/72
f 79/79/79 78/78/78 77/77/77
f 78/78/78 80/80/80 77/77/77
f 80/80/80 81/81/81 77/77/77
f 84/84/84 83/83/83 82/82/82
f 83/83/83 85/85/85 82/82/82
f 85/85/85 86/86/86 82/82/82
f 86/86/86 87/87/87 82/82/82
f 90/90/90 89/89/89 88/88/88
f 89/89/89 91/91/91 88/88/88
f 91/91/91 92/92/92 88/88/88
f 92/92/92 93/93/93 88/88/88
f 96/96/96 95/95/95 94/94/94
f 95/95/95 97/97/97 94/94/94
f 97/97/97 98/98/98 94/94/94
f 98/98/98 99/99/99 94/94/94
f 102/102/102 101/101/101 100/100/100
f 101/101/101 103/103/103 100/100/100
f 103/103/103 104/104/104 100/100/100
f 104/104/104 105/105/105 100/100/100
f 108/108/108 107/107/107 106/106/106
f 107/107/107 109/109/109 106/106/106
f 109/109/109 110/110/110 106/106/106
f 110/110/110 111/111/111 106/106/106
f 114/114/114 113/113/113 112/112/112
f 113/113/113 115/115/115 112/112/112
f 115/115/115 116/116/116 112/112/112
f 116/116/116 117/117/117 112/112/112
f 120/120/120 119/119/119 118/118/118
f 118/118/118 119/119/119 121/121/121
f 121/121/121 119/119/119 122/122/122
f 123/123/123 118/118/118 121/121/121
f 125/125/125 123/123/123 124/124/124
f 126/126/126 125/125/125 124/124/124
f 127/127/127 126/126/126 124/124/124
f 128/128/128 127/127/127 124/124/124
f 131/131/131 130/130/130 129/129/129
f 130/130/130 132/132/132 129/129/129
f 132/132/132 133/133/133 129/129/129
f 133/133/133 134/134/134 129/129/129
f 137/137/137 136/136/136 135/135/135
f 136/136/136 138/138/138 135/135/135
f 138/138/138 139/139/139 135/135/135
f 139/139/139 140/140/140 135/135/135
f 143/143/143 142/142/142 141/141/141
f 142/142/142 144/144/144 141/141/141
f 141/141/141 144/144/144 145/145/145
f 146/146/146 144/144/144 142/142/142
f 149/149/149 148/148/148 147/147/147
f 148/148/148 150/150/150 147/147/147
f 147/147/147 150/150/150 151/151/151
f 152/152/152 150/150/150 148/148/148
f 155/155/155 154/154/154 153/153/153
f 154/154/154 156/156/156 153/153/153
f 156/156/156 157/157/157 153/153/153
f 157/157/157 158/158/158 153/153/153
f 161/161/161 160/160/160 159/159/159
f 160/160/160 162/162/162 159/159/159
f 159/159/159 162/162/162 163/163/163
f 164/164/164 162/162/162 160/160/160
f 167/167/167 166/166/166 165/165/165
f 166/166/166 168/168/168 165/165/165
f 168/168/168 169/169/169 165/165/165
f 169/169/169 170/170/170 165/165/165
f 173/173/173 172/172/172 171/171/171
f 172/172/172 174/174/174 171/171/171
f 174/174/174 175/175/175 171/171/171
f 175/175/175 176/176/176 171/171/171
