g Eff_Model_Ring_17
v 0.9472528 -0.9754423 0
v 1.088121 -0.7926132 7.780554E-09
v 1.12817 -1.153726 0
v 1.295008 -0.9397004 7.780554E-09
v 1.196513 -0.5886367 3.112222E-08
v 1.309086 -1.33201 0
v 1.423776 -0.7006706 3.112222E-08
v 1.269041 -0.3689986 7.002499E-08
v 1.501896 -1.086788 7.780554E-09
v 1.490003 -1.510294 0
v 1.510509 -0.4431567 7.0025E-08
v 1.303215 -0.139771 1.244889E-07
v 1.651039 -0.8127044 3.112222E-08
v 1.708783 -1.233875 7.780555E-09
v 1.67092 -1.688578 0
v 1.91567 -1.380962 7.780554E-09
v 1.878303 -0.9247383 3.112222E-08
v 2.105566 -1.036772 3.112222E-08
v 1.552337 -0.1743511 1.244889E-07
v 1.304967 0.0129003 1.945139E-07
v 1.751978 -0.5173149 7.002499E-08
v 1.993446 -0.5914731 7.002499E-08
v 2.234915 -0.6656312 7.002499E-08
v 1.550938 0.05821241 1.945139E-07
v 1.267469 0.2431326 2.801E-07
v 1.801458 -0.2089312 1.244889E-07
v 2.05058 -0.2435114 1.244889E-07
v 2.299701 -0.2780915 1.244889E-07
v 1.501462 0.3264932 2.801E-07
v 1.189924 0.4633754 3.812471E-07
v 1.796908 0.1035245 1.945139E-07
v 2.042879 0.1488366 1.945138E-07
v 2.28885 0.1941487 1.945139E-07
v 1.405866 0.5819904 3.812471E-07
v 1.074309 0.6666667 4.979555E-07
v 1.735455 0.4098537 2.801E-07
v 1.969447 0.4932143 2.801E-07
v 2.20344 0.5765748 2.801E-07
v 1.266744 0.8167487 4.979555E-07
v 0.9238225 0.8463868 6.302249E-07
v 1.621809 0.7006055 3.812471E-07
v 1.837751 0.8192205 3.812471E-07
v 2.053694 0.9378356 3.812471E-07
v 1.088076 1.023284 6.302249E-07
v 0.7428288 0.9964707 7.780555E-07
v 1.45918 0.9668305 4.979555E-07
v 1.651615 1.116912 4.979555E-07
v 1.844051 1.266994 4.979555E-07
v 0.8751439 1.194829 7.780555E-07
v 0.5367689 1.111617 9.414471E-07
v 1.252329 1.200181 6.302249E-07
v 1.416582 1.377079 6.302249E-07
v 1.580836 1.553976 6.302249E-07
v 0.6344161 1.325558 9.414471E-07
v 0.3120289 1.187487 1.1204E-06
v 1.007459 1.393186 7.780555E-07
v 1.139774 1.591544 7.780554E-07
v 1.272089 1.789902 7.780555E-07
v 0.3733746 1.410806 1.1204E-06
v 0.1485487 1.217743 1.314914E-06
v 0.7320634 1.539498 9.414471E-07
v 0.8297106 1.753438 9.414471E-07
v 0.9273577 1.967379 9.414471E-07
v 0.1366862 1.445135 1.314914E-06
v -0.09227264 1.210909 1.524989E-06
v 0.4347204 1.634125 1.1204E-06
v 0.4960661 1.857445 1.1204E-06
v 0.5574118 2.080765 1.1204E-06
v -0.1393516 1.429395 1.524989E-06
v -0.3282219 1.158611 1.750625E-06
v 0.1248237 1.672528 1.314914E-06
v 0.1129613 1.89992 1.314914E-06
v 0.1010989 2.127313 1.314914E-06
v -0.4078917 1.362592 1.750625E-06
v -0.5509184 1.062051 1.991822E-06
v -0.1864305 1.64788 1.524989E-06
v -0.2335095 1.866366 1.524989E-06
v -0.2805884 2.084852 1.524989E-06
v -0.6596437 1.246564 1.991822E-06
v -0.7522138 0.9239626 2.24858E-06
v -0.4875614 1.566573 1.750625E-06
v -0.5672312 1.770554 1.750625E-06
v -0.6469009 1.974535 1.750625E-06
v -0.8856896 1.084826 2.24858E-06
v -0.8854779 0.8007428 2.520899E-06
v -0.7683688 1.431076 1.991822E-06
v -0.877094 1.615589 1.991822E-06
v -0.9858193 1.800101 1.991822E-06
v -1.058192 0.908518 2.520899E-06
v -1.02315 0.5932419 2.80878E-06
v -1.019165 1.24569 2.24858E-06
v -1.152641 1.406553 2.24858E-06
v -1.286117 1.567417 2.24858E-06
v -1.205533 0.6698644 2.80878E-06
v -1.117876 0.3617942 3.112222E-06
v -1.230906 1.016293 2.520899E-06
v -1.40362 1.124068 2.520899E-06
v -1.576334 1.231844 2.520899E-06
v -1.304246 0.406921 3.112222E-06
v -1.165421 0.1147491 3.431224E-06
v -1.387916 0.7464868 2.80878E-06
v -1.570299 0.8231093 2.80878E-06
v -1.752681 0.8997317 2.80878E-06
v -1.350241 0.1290808 3.431224E-06
v -1.171661 -0.08222967 3.765788E-06
v -1.490616 0.4520478 3.112222E-06
v -1.676986 0.4971746 3.112222E-06
v -1.863356 0.5423014 3.112222E-06
v -1.345097 -0.1252211 3.765788E-06
v -1.116173 -0.3333219 4.115914E-06
v -1.535062 0.1434126 3.431224E-06
v -1.719883 0.1577443 3.431224E-06
v -1.904703 0.172076 3.431224E-06
v -1.274089 -0.400681 4.115914E-06
v -1.010648 -0.5693191 4.481599E-06
v -1.518532 -0.1682125 3.765788E-06
v -1.691967 -0.211204 3.765789E-06
v -1.865403 -0.2541954 3.765788E-06
v -1.149613 -0.6571011 4.4816E-06
v -0.8584154 -0.7806358 4.862846E-06
v -1.432004 -0.4680401 4.115914E-06
v -1.58992 -0.5353992 4.115914E-06
v -1.747836 -0.6027583 4.115914E-06
v -0.9758817 -0.8844146 4.862846E-06
v -0.6980876 -0.9230601 5.259655E-06
v -1.288577 -0.7448831 4.481599E-06
v -1.427542 -0.8326651 4.481599E-06
v -1.566507 -0.9204471 4.481599E-06
v -0.7728929 -1.051698 5.259655E-06
v -0.4667335 -1.054576 5.672024E-06
v -1.093348 -0.9881936 4.862846E-06
v -1.210814 -1.091972 4.862846E-06
v -1.328281 -1.195751 4.862846E-06
v -0.5170993 -1.185802 5.672024E-06
v -0.2112181 -1.136149 6.099954E-06
v -0.8476982 -1.180336 5.259655E-06
v -0.9225034 -1.308973 5.259655E-06
v -0.9973086 -1.437611 5.259655E-06
v -0.2382458 -1.265353 6.099954E-06
v 0.01857003 -1.151297 6.543446E-06
v -0.5674651 -1.317028 5.672024E-06
v -0.6178309 -1.448254 5.672024E-06
v -0.6681967 -1.57948 5.672024E-06
v 0.03261778 -1.273624 6.543446E-06
v 0.2902493 -1.113699 7.002499E-06
v -0.2652736 -1.394557 6.099954E-06
v -0.2923014 -1.523762 6.099954E-06
v -0.3193291 -1.652966 6.099954E-06
v 0.3211513 -1.223379 7.002499E-06
v 0.5176979 -1.029229 7.477112E-06
v 0.04666554 -1.395952 6.543446E-06
v 0.06071328 -1.518279 6.543446E-06
v 0.07476103 -1.640606 6.543446E-06
v 0.5762689 -1.115721 7.477112E-06
v 0.7499151 -0.871426 7.967287E-06
v 0.8148203 -0.9403228 7.967287E-06
v 0.3520534 -1.333059 7.002499E-06
v 0.3829554 -1.442739 7.002499E-06
v 0.4138574 -1.552419 7.002499E-06
v 0.6348398 -1.202213 7.477112E-06
v 0.8797255 -1.009219 7.967287E-06
v 0.6934107 -1.288705 7.477112E-06
v 0.7519817 -1.375197 7.477112E-06
v 0.9446306 -1.078116 7.967288E-06
v 1.009536 -1.147013 7.967287E-06
vt 1 0
vt 0.96875 0
vt 1 0.25
vt 0.96875 0.25
vt 0.9375 0
vt 1 0.5
vt 0.9375 0.25
vt 0.90625 0
vt 0.96875 0.5
vt 1 0.75
vt 0.90625 0.25
vt 0.875 0
vt 0.9375 0.5
vt 0.96875 0.75
vt 1 1
vt 0.96875 1
vt 0.9375 0.75
vt 0.9375 1
vt 0.875 0.25
vt 0.84375 0
vt 0.90625 0.5
vt 0.90625 0.75
vt 0.90625 1
vt 0.84375 0.25
vt 0.8125 0
vt 0.875 0.5
vt 0.875 0.75
vt 0.875 1
vt 0.8125 0.25
vt 0.78125 0
vt 0.84375 0.5
vt 0.84375 0.75
vt 0.84375 1
vt 0.78125 0.25
vt 0.75 0
vt 0.8125 0.5
vt 0.8125 0.75
vt 0.8125 1
vt 0.75 0.25
vt 0.71875 0
vt 0.78125 0.5
vt 0.78125 0.75
vt 0.78125 1
vt 0.71875 0.25
vt 0.6875 0
vt 0.75 0.5
vt 0.75 0.75
vt 0.75 1
vt 0.6875 0.25
vt 0.65625 0
vt 0.71875 0.5
vt 0.71875 0.75
vt 0.71875 1
vt 0.65625 0.25
vt 0.625 0
vt 0.6875 0.5
vt 0.6875 0.75
vt 0.6875 1
vt 0.625 0.25
vt 0.59375 0
vt 0.65625 0.5
vt 0.65625 0.75
vt 0.65625 1
vt 0.59375 0.25
vt 0.5625 0
vt 0.625 0.5
vt 0.625 0.75
vt 0.625 1
vt 0.5625 0.25
vt 0.53125 0
vt 0.59375 0.5
vt 0.59375 0.75
vt 0.59375 1
vt 0.53125 0.25
vt 0.5 0
vt 0.5625 0.5
vt 0.5625 0.75
vt 0.5625 1
vt 0.5 0.25
vt 0.46875 0
vt 0.53125 0.5
vt 0.53125 0.75
vt 0.53125 1
vt 0.46875 0.25
vt 0.4375 0
vt 0.5 0.5
vt 0.5 0.75
vt 0.5 1
vt 0.4375 0.25
vt 0.40625 0
vt 0.46875 0.5
vt 0.46875 0.75
vt 0.46875 1
vt 0.40625 0.25
vt 0.375 0
vt 0.4375 0.5
vt 0.4375 0.75
vt 0.4375 1
vt 0.375 0.25
vt 0.34375 0
vt 0.40625 0.5
vt 0.40625 0.75
vt 0.40625 1
vt 0.34375 0.25
vt 0.3125 0
vt 0.375 0.5
vt 0.375 0.75
vt 0.375 1
vt 0.3125 0.25
vt 0.28125 0
vt 0.34375 0.5
vt 0.34375 0.75
vt 0.34375 1
vt 0.28125 0.25
vt 0.25 0
vt 0.3125 0.5
vt 0.3125 0.75
vt 0.3125 1
vt 0.25 0.25
vt 0.21875 0
vt 0.28125 0.5
vt 0.28125 0.75
vt 0.28125 1
vt 0.21875 0.25
vt 0.1875 0
vt 0.25 0.5
vt 0.25 0.75
vt 0.25 1
vt 0.1875 0.25
vt 0.15625 0
vt 0.21875 0.5
vt 0.21875 0.75
vt 0.21875 1
vt 0.15625 0.25
vt 0.125 0
vt 0.1875 0.5
vt 0.1875 0.75
vt 0.1875 1
vt 0.125 0.25
vt 0.09375 0
vt 0.15625 0.5
vt 0.15625 0.75
vt 0.15625 1
vt 0.09375 0.25
vt 0.0625 0
vt 0.125 0.5
vt 0.125 0.75
vt 0.125 1
vt 0.0625 0.25
vt 0.03125 0
vt 0.09375 0.5
vt 0.09375 0.75
vt 0.09375 1
vt 0.03125 0.25
vt 0 0
vt 0 0.25
vt 0.0625 0.5
vt 0.0625 0.75
vt 0.0625 1
vt 0.03125 0.5
vt 0 0.5
vt 0.03125 0.75
vt 0.03125 1
vt 0 0.75
vt 0 1
vn 0 0 1
vn 0 0 1
vn 0 0 1
vn 0 0 1
vn 0 0 1
vn 0 0 1
vn 0 0 1
vn 0 0 1
vn 0 0 1
vn 0 0 1
vn 0 0 1
vn 0 -3.393227E-07 1
vn 0 0 1
vn 0 0 1
vn 0 0 1
vn 0 0 1
vn 0 0 1
vn 0 0 1
vn 0 -2.58243E-07 1
vn 0 -3.731975E-07 1
vn 0 0 1
vn 0 0 1
vn 0 0 1
vn 0 -2.975813E-07 1
vn 0 -3.661077E-07 1
vn 0 0 1
vn 0 0 1
vn 0 0 1
vn 0 -3.237569E-07 1
vn 0 -4.001073E-07 1
vn 0 0 1
vn 0 0 1
vn 0 0 1
vn 0 -3.506713E-07 1
vn 2.98814E-07 -4.144363E-07 1
vn 0 -2.82622E-07 1
vn 0 0 1
vn 0 0 1
vn 2.827567E-07 -3.597503E-07 1
vn 4.05845E-07 -4.059401E-07 1
vn 0 -3.065117E-07 1
vn 0 -2.722306E-07 1
vn 0 0 1
vn 3.777328E-07 -3.483965E-07 1
vn 5.164112E-07 -3.72415E-07 1
vn 0 -3.149054E-07 1
vn 0 -2.80004E-07 1
vn 0 -2.548326E-07 1
vn 4.750386E-07 -3.148511E-07 1
vn 6.250123E-07 -3.127339E-07 1
vn 3.309279E-07 -3.05465E-07 1
vn 2.944367E-07 -2.719574E-07 1
vn 2.812512E-07 0 1
vn 5.698515E-07 -2.582926E-07 1
vn 8.963281E-07 -2.74099E-07 1
vn 4.169568E-07 -2.765562E-07 1
vn 3.715249E-07 0 1
vn 3.520631E-07 0 1
vn 7.321726E-07 0 1
vn 9.288728E-07 0 1
vn 5.011794E-07 0 1
vn 4.472742E-07 0 1
vn 4.211432E-07 0 1
vn 7.700555E-07 0 1
vn 8.554548E-07 0 1
vn 5.922453E-07 0 1
vn 5.001354E-07 0 1
vn 4.577275E-07 0 1
vn 7.722625E-07 0 1
vn 8.759691E-07 3.064713E-07 1
vn 6.384959E-07 0 1
vn 5.486214E-07 0 1
vn 5.063673E-07 0 1
vn 7.861601E-07 3.087858E-07 1
vn 8.668156E-07 4.711714E-07 1
vn 6.839765E-07 0 1
vn 6.138092E-07 0 1
vn 5.718875E-07 0 1
vn 7.733353E-07 4.574047E-07 1
vn 9.730541E-07 7.615195E-07 1
vn 6.981264E-07 2.740275E-07 1
vn 6.278281E-07 0 1
vn 5.821148E-07 0 1
vn 7.810567E-07 6.860855E-07 1
vn 7.409482E-07 9.692338E-07 1
vn 6.886639E-07 4.071554E-07 1
vn 6.20709E-07 3.668522E-07 1
vn 5.725263E-07 3.589741E-07 1
vn 5.696905E-07 8.767516E-07 1
vn 4.781593E-07 1.038826E-06 1
vn 6.544112E-07 5.639332E-07 1
vn 5.653117E-07 4.813818E-07 1
vn 5.040174E-07 4.574121E-07 1
vn 4.080831E-07 9.746211E-07 1
vn 3.194048E-07 1.15522E-06 1
vn 4.772629E-07 7.459855E-07 1
vn 4.131682E-07 6.519572E-07 1
vn 3.627747E-07 6.212881E-07 1
vn 2.598487E-07 1.077619E-06 1
vn 0 1.4275E-06 1
vn 3.669101E-07 8.759555E-07 1
vn 3.332873E-07 7.954376E-07 1
vn 2.956207E-07 7.587249E-07 1
vn 0 1.25024E-06 1
vn 0 1.39827E-06 1
vn 0 9.71912E-07 1
vn 0 8.850986E-07 1
vn 0 8.403641E-07 1
vn -2.808059E-07 1.220429E-06 1
vn -4.905095E-07 1.251851E-06 1
vn 0 1.063806E-06 1
vn 0 9.293005E-07 1
vn 0 8.614228E-07 1
vn -4.949359E-07 1.15888E-06 1
vn -7.118571E-07 1.200301E-06 1
vn 0 1.05472E-06 1
vn 0 9.32402E-07 1
vn 0 8.682117E-07 1
vn -6.997438E-07 1.107201E-06 1
vn -1.043997E-06 1.23901E-06 1
vn -4.514646E-07 1.057193E-06 1
vn -4.15017E-07 9.719237E-07 1
vn -4.156078E-07 9.150625E-07 1
vn -9.786679E-07 1.069535E-06 1
vn -1.314699E-06 8.837237E-07 1
vn -6.409566E-07 1.014187E-06 1
vn -5.912854E-07 9.356027E-07 1
vn -5.816691E-07 8.774922E-07 1
vn -1.237946E-06 7.436262E-07 1
vn -1.414558E-06 5.830525E-07 1
vn -8.521493E-07 9.406606E-07 1
vn -7.569629E-07 8.41274E-07 1
vn -7.286127E-07 7.67689E-07 1
vn -1.357376E-06 5.214413E-07 1
vn -1.684573E-06 3.885623E-07 1
vn -1.101469E-06 6.553709E-07 1
vn -9.946814E-07 5.879998E-07 1
vn -9.554686E-07 5.280133E-07 1
vn -1.555877E-06 3.041342E-07 1
vn -1.690397E-06 0 1
vn -1.259972E-06 4.839445E-07 1
vn -1.175625E-06 4.514911E-07 1
vn -1.134561E-06 4.10718E-07 1
vn -1.570704E-06 0 1
vn -1.717939E-06 -4.494833E-07 1
vn -1.393552E-06 2.773085E-07 1
vn -1.264217E-06 2.547254E-07 1
vn -1.19933E-06 0 1
vn -1.598077E-06 -4.6874E-07 1
vn -1.50167E-06 -9.23352E-07 1
vn -1.423454E-06 0 1
vn -1.304303E-06 0 1
vn -1.238021E-06 0 1
vn -1.39076E-06 -9.193463E-07 1
vn -1.261625E-06 -1.109716E-06 1
vn -1.202588E-06 -1.094206E-06 1
vn -1.457708E-06 -4.235981E-07 1
vn -1.341613E-06 -3.871815E-07 1
vn -1.270062E-06 -3.962937E-07 1
vn -1.277706E-06 -8.490895E-07 1
vn -1.139427E-06 -1.038706E-06 1
vn -1.183815E-06 -7.898059E-07 1
vn -1.120346E-06 -7.843156E-07 1
vn -1.082474E-06 -9.885034E-07 1
vn -1.037361E-06 -9.772723E-07 1
g Eff_Model_Ring_17_0
f 3/3/3 2/2/2 1/1/1
f 2/2/2 3/3/3 4/4/4
f 4/4/4 5/5/5 2/2/2
f 6/6/6 4/4/4 3/3/3
f 5/5/5 4/4/4 7/7/7
f 7/7/7 8/8/8 5/5/5
f 4/4/4 6/6/6 9/9/9
f 9/9/9 7/7/7 4/4/4
f 10/10/10 9/9/9 6/6/6
f 8/8/8 7/7/7 11/11/11
f 11/11/11 12/12/12 8/8/8
f 7/7/7 9/9/9 13/13/13
f 13/13/13 11/11/11 7/7/7
f 9/9/9 10/10/10 14/14/14
f 14/14/14 13/13/13 9/9/9
f 15/15/15 14/14/14 10/10/10
f 14/14/14 15/15/15 16/16/16
f 16/16/16 17/17/17 14/14/14
f 13/13/13 14/14/14 17/17/17
f 17/17/17 16/16/16 18/18/18
f 12/12/12 11/11/11 19/19/19
f 19/19/19 20/20/20 12/12/12
f 11/11/11 13/13/13 21/21/21
f 17/17/17 21/21/21 13/13/13
f 21/21/21 19/19/19 11/11/11
f 18/18/18 22/22/22 17/17/17
f 21/21/21 17/17/17 22/22/22
f 22/22/22 18/18/18 23/23/23
f 20/20/20 19/19/19 24/24/24
f 24/24/24 25/25/25 20/20/20
f 19/19/19 21/21/21 26/26/26
f 22/22/22 26/26/26 21/21/21
f 26/26/26 24/24/24 19/19/19
f 23/23/23 27/27/27 22/22/22
f 26/26/26 22/22/22 27/27/27
f 27/27/27 23/23/23 28/28/28
f 25/25/25 24/24/24 29/29/29
f 29/29/29 30/30/30 25/25/25
f 24/24/24 26/26/26 31/31/31
f 27/27/27 31/31/31 26/26/26
f 31/31/31 29/29/29 24/24/24
f 28/28/28 32/32/32 27/27/27
f 31/31/31 27/27/27 32/32/32
f 32/32/32 28/28/28 33/33/33
f 30/30/30 29/29/29 34/34/34
f 34/34/34 35/35/35 30/30/30
f 29/29/29 31/31/31 36/36/36
f 32/32/32 36/36/36 31/31/31
f 36/36/36 34/34/34 29/29/29
f 33/33/33 37/37/37 32/32/32
f 36/36/36 32/32/32 37/37/37
f 37/37/37 33/33/33 38/38/38
f 35/35/35 34/34/34 39/39/39
f 39/39/39 40/40/40 35/35/35
f 34/34/34 36/36/36 41/41/41
f 37/37/37 41/41/41 36/36/36
f 41/41/41 39/39/39 34/34/34
f 38/38/38 42/42/42 37/37/37
f 41/41/41 37/37/37 42/42/42
f 42/42/42 38/38/38 43/43/43
f 40/40/40 39/39/39 44/44/44
f 44/44/44 45/45/45 40/40/40
f 39/39/39 41/41/41 46/46/46
f 42/42/42 46/46/46 41/41/41
f 46/46/46 44/44/44 39/39/39
f 43/43/43 47/47/47 42/42/42
f 46/46/46 42/42/42 47/47/47
f 47/47/47 43/43/43 48/48/48
f 45/45/45 44/44/44 49/49/49
f 49/49/49 50/50/50 45/45/45
f 44/44/44 46/46/46 51/51/51
f 47/47/47 51/51/51 46/46/46
f 51/51/51 49/49/49 44/44/44
f 48/48/48 52/52/52 47/47/47
f 51/51/51 47/47/47 52/52/52
f 52/52/52 48/48/48 53/53/53
f 50/50/50 49/49/49 54/54/54
f 54/54/54 55/55/55 50/50/50
f 49/49/49 51/51/51 56/56/56
f 52/52/52 56/56/56 51/51/51
f 56/56/56 54/54/54 49/49/49
f 53/53/53 57/57/57 52/52/52
f 56/56/56 52/52/52 57/57/57
f 57/57/57 53/53/53 58/58/58
f 55/55/55 54/54/54 59/59/59
f 59/59/59 60/60/60 55/55/55
f 54/54/54 56/56/56 61/61/61
f 57/57/57 61/61/61 56/56/56
f 61/61/61 59/59/59 54/54/54
f 58/58/58 62/62/62 57/57/57
f 61/61/61 57/57/57 62/62/62
f 62/62/62 58/58/58 63/63/63
f 60/60/60 59/59/59 64/64/64
f 64/64/64 65/65/65 60/60/60
f 59/59/59 61/61/61 66/66/66
f 62/62/62 66/66/66 61/61/61
f 66/66/66 64/64/64 59/59/59
f 63/63/63 67/67/67 62/62/62
f 66/66/66 62/62/62 67/67/67
f 67/67/67 63/63/63 68/68/68
f 65/65/65 64/64/64 69/69/69
f 69/69/69 70/70/70 65/65/65
f 64/64/64 66/66/66 71/71/71
f 67/67/67 71/71/71 66/66/66
f 71/71/71 69/69/69 64/64/64
f 68/68/68 72/72/72 67/67/67
f 71/71/71 67/67/67 72/72/72
f 72/72/72 68/68/68 73/73/73
f 70/70/70 69/69/69 74/74/74
f 74/74/74 75/75/75 70/70/70
f 69/69/69 71/71/71 76/76/76
f 72/72/72 76/76/76 71/71/71
f 76/76/76 74/74/74 69/69/69
f 73/73/73 77/77/77 72/72/72
f 76/76/76 72/72/72 77/77/77
f 77/77/77 73/73/73 78/78/78
f 75/75/75 74/74/74 79/79/79
f 79/79/79 80/80/80 75/75/75
f 74/74/74 76/76/76 81/81/81
f 77/77/77 81/81/81 76/76/76
f 81/81/81 79/79/79 74/74/74
f 78/78/78 82/82/82 77/77/77
f 81/81/81 77/77/77 82/82/82
f 82/82/82 78/78/78 83/83/83
f 80/80/80 79/79/79 84/84/84
f 84/84/84 85/85/85 80/80/80
f 79/79/79 81/81/81 86/86/86
f 82/82/82 86/86/86 81/81/81
f 86/86/86 84/84/84 79/79/79
f 83/83/83 87/87/87 82/82/82
f 86/86/86 82/82/82 87/87/87
f 87/87/87 83/83/83 88/88/88
f 85/85/85 84/84/84 89/89/89
f 89/89/89 90/90/90 85/85/85
f 84/84/84 86/86/86 91/91/91
f 87/87/87 91/91/91 86/86/86
f 91/91/91 89/89/89 84/84/84
f 88/88/88 92/92/92 87/87/87
f 91/91/91 87/87/87 92/92/92
f 92/92/92 88/88/88 93/93/93
f 90/90/90 89/89/89 94/94/94
f 94/94/94 95/95/95 90/90/90
f 89/89/89 91/91/91 96/96/96
f 92/92/92 96/96/96 91/91/91
f 96/96/96 94/94/94 89/89/89
f 93/93/93 97/97/97 92/92/92
f 96/96/96 92/92/92 97/97/97
f 97/97/97 93/93/93 98/98/98
f 95/95/95 94/94/94 99/99/99
f 99/99/99 100/100/100 95/95/95
f 94/94/94 96/96/96 101/101/101
f 97/97/97 101/101/101 96/96/96
f 101/101/101 99/99/99 94/94/94
f 98/98/98 102/102/102 97/97/97
f 101/101/101 97/97/97 102/102/102
f 102/102/102 98/98/98 103/103/103
f 100/100/100 99/99/99 104/104/104
f 104/104/104 105/105/105 100/100/100
f 99/99/99 101/101/101 106/106/106
f 102/102/102 106/106/106 101/101/101
f 106/106/106 104/104/104 99/99/99
f 103/103/103 107/107/107 102/102/102
f 106/106/106 102/102/102 107/107/107
f 107/107/107 103/103/103 108/108/108
f 105/105/105 104/104/104 109/109/109
f 109/109/109 110/110/110 105/105/105
f 104/104/104 106/106/106 111/111/111
f 107/107/107 111/111/111 106/106/106
f 111/111/111 109/109/109 104/104/104
f 108/108/108 112/112/112 107/107/107
f 111/111/111 107/107/107 112/112/112
f 112/112/112 108/108/108 113/113/113
f 110/110/110 109/109/109 114/114/114
f 114/114/114 115/115/115 110/110/110
f 109/109/109 111/111/111 116/116/116
f 112/112/112 116/116/116 111/111/111
f 116/116/116 114/114/114 109/109/109
f 113/113/113 117/117/117 112/112/112
f 116/116/116 112/112/112 117/117/117
f 117/117/117 113/113/113 118/118/118
f 115/115/115 114/114/114 119/119/119
f 119/119/119 120/120/120 115/115/115
f 114/114/114 116/116/116 121/121/121
f 117/117/117 121/121/121 116/116/116
f 121/121/121 119/119/119 114/114/114
f 118/118/118 122/122/122 117/117/117
f 121/121/121 117/117/117 122/122/122
f 122/122/122 118/118/118 123/123/123
f 120/120/120 119/119/119 124/124/124
f 124/124/124 125/125/125 120/120/120
f 119/119/119 121/121/121 126/126/126
f 122/122/122 126/126/126 121/121/121
f 126/126/126 124/124/124 119/119/119
f 123/123/123 127/127/127 122/122/122
f 126/126/126 122/122/122 127/127/127
f 127/127/127 123/123/123 128/128/128
f 125/125/125 124/124/124 129/129/129
f 129/129/129 130/130/130 125/125/125
f 124/124/124 126/126/126 131/131/131
f 127/127/127 131/131/131 126/126/126
f 131/131/131 129/129/129 124/124/124
f 128/128/128 132/132/132 127/127/127
f 131/131/131 127/127/127 132/132/132
f 132/132/132 128/128/128 133/133/133
f 130/130/130 129/129/129 134/134/134
f 134/134/134 135/135/135 130/130/130
f 129/129/129 131/131/131 136/136/136
f 132/132/132 136/136/136 131/131/131
f 136/136/136 134/134/134 129/129/129
f 133/133/133 137/137/137 132/132/132
f 136/136/136 132/132/132 137/137/137
f 137/137/137 133/133/133 138/138/138
f 135/135/135 134/134/134 139/139/139
f 139/139/139 140/140/140 135/135/135
f 134/134/134 136/136/136 141/141/141
f 137/137/137 141/141/141 136/136/136
f 141/141/141 139/139/139 134/134/134
f 138/138/138 142/142/142 137/137/137
f 141/141/141 137/137/137 142/142/142
f 142/142/142 138/138/138 143/143/143
f 140/140/140 139/139/139 144/144/144
f 144/144/144 145/145/145 140/140/140
f 139/139/139 141/141/141 146/146/146
f 142/142/142 146/146/146 141/141/141
f 146/146/146 144/144/144 139/139/139
f 143/143/143 147/147/147 142/142/142
f 146/146/146 142/142/142 147/147/147
f 147/147/147 143/143/143 148/148/148
f 145/145/145 144/144/144 149/149/149
f 149/149/149 150/150/150 145/145/145
f 144/144/144 146/146/146 151/151/151
f 147/147/147 151/151/151 146/146/146
f 151/151/151 149/149/149 144/144/144
f 148/148/148 152/152/152 147/147/147
f 151/151/151 147/147/147 152/152/152
f 152/152/152 148/148/148 153/153/153
f 150/150/150 149/149/149 154/154/154
f 154/154/154 155/155/155 150/150/150
f 155/155/155 154/154/154 156/156/156
f 149/149/149 151/151/151 157/157/157
f 152/152/152 157/157/157 151/151/151
f 157/157/157 154/154/154 149/149/149
f 153/153/153 158/158/158 152/152/152
f 157/157/157 152/152/152 158/158/158
f 158/158/158 153/153/153 159/159/159
f 160/160/160 156/156/156 154/154/154
f 154/154/154 157/157/157 160/160/160
f 158/158/158 160/160/160 157/157/157
f 156/156/156 160/160/160 161/161/161
f 159/159/159 162/162/162 158/158/158
f 160/160/160 158/158/158 162/162/162
f 162/162/162 161/161/161 160/160/160
f 162/162/162 159/159/159 163/163/163
f 161/161/161 162/162/162 164/164/164
f 163/163/163 164/164/164 162/162/162
f 164/164/164 163/163/163 165/165/165
