g Eff_Model_spiral_23
v 1.075955 0 0
v 1.075955 0 0.5842
v 1.062396 -0.1702801 0.6505102
v 1.062396 -0.1702801 0.0663102
v 1.022058 -0.3362683 0.7168204
v 1.022058 -0.3362683 0.1326204
v 0.9559603 -0.4937809 0.7831306
v 0.9559603 -0.4937809 0.1989306
v 0.8657675 -0.6388479 0.8494408
v 0.8657675 -0.6388479 0.2652408
v 0.7537529 -0.7678127 0.915751
v 0.7537529 -0.7678127 0.331551
v 0.6227402 -0.8774249 0.9820613
v 0.6227402 -0.8774249 0.3978612
v 0.4760314 -0.9649218 1.048371
v 0.4760314 -0.9649218 0.4641714
v 0.3173242 -1.028098 1.114682
v 0.3173242 -1.028098 0.5304816
v 0.150619 -1.065361 1.180992
v 0.150619 -1.065361 0.5967918
v -0.01988264 -1.075772 1.247302
v -0.01988264 -1.075772 0.663102
v -0.189883 -1.059068 1.313612
v -0.189883 -1.059068 0.7294122
v -0.3550977 -1.01567 1.379923
v -0.3550977 -1.01567 0.7957225
v -0.5113618 -0.9466726 1.446233
v -0.5113618 -0.9466726 0.8620327
v -0.6547374 -0.8538144 1.512543
v -0.6547374 -0.8538144 0.9283428
v -0.7816103 -0.7394358 1.578853
v -0.7816103 -0.7394358 0.994653
v -0.8887829 -0.6064197 1.645163
v -0.8887829 -0.6064197 1.060963
v -0.9735535 -0.4581194 1.711473
v -0.9735535 -0.4581194 1.127273
v -1.033786 -0.2982718 1.777784
v -1.033786 -0.2982718 1.193584
v -1.067962 -0.1309064 1.844094
v -1.067962 -0.1309064 1.259894
v -1.07522 0.03975848 1.910404
v -1.07522 0.03975848 1.326204
v -1.055378 0.209421 1.976714
v -1.055378 0.209421 1.392514
v -1.008935 0.3738054 2.043025
v -1.008935 0.3738054 1.458824
v -0.9370615 0.5287681 2.109335
v -0.9370615 0.5287681 1.525135
v -0.8415695 0.6704033 2.175645
v -0.8415695 0.6704033 1.591445
v -0.724866 0.7951409 2.241955
v -0.724866 0.7951409 1.657755
v -0.5898925 0.899837 2.308265
v -0.5898925 0.899837 1.724065
v -0.4400505 0.9818531 2.374576
v -0.4400505 0.9818531 1.790376
v -0.2791174 1.039121 2.440886
v -0.2791174 1.039121 1.856686
v -0.1111493 1.070199 2.507196
v -0.1111493 1.070199 1.922996
v 0.05962088 1.074302 2.573506
v 0.05962088 1.074302 1.989306
v 0.2288878 1.051328 2.639816
v 0.2288878 1.051328 2.055616
v 0.3923861 1.001855 2.706126
v 0.3923861 1.001855 2.121927
v 0.5459939 0.9271303 2.772437
v 0.5459939 0.9271303 2.188237
v 0.68584 0.8290377 2.838747
v 0.68584 0.8290377 2.254547
v 0.8084 0.7100489 2.905057
v 0.8084 0.7100489 2.320857
v 0.9105839 0.5731638 2.971367
v 0.9105839 0.5731638 2.387167
v 0.9898171 0.4218317 3.037678
v 0.9898171 0.4218317 2.453478
v 1.044102 0.2598679 3.103988
v 1.044102 0.2598679 2.519788
v 1.07207 0.09135415 3.170298
v 1.07207 0.09135415 2.586098
v 1.073017 -0.07946265 3.236608
v 1.073017 -0.07946265 2.652408
v 1.046919 -0.2482761 3.302918
v 1.046919 -0.2482761 2.718718
v 0.9944331 -0.4108318 3.369228
v 0.9944331 -0.4108318 2.785028
v 0.9168826 -0.563033 3.435539
v 0.9168826 -0.563033 2.851339
v 0.8162224 -0.7010426 3.501849
v 0.8162224 -0.7010426 2.917649
v 0.6949893 -0.8213829 3.568159
v 0.6949893 -0.8213829 2.983959
v 0.5562392 -0.9210199 3.634469
v 0.5562392 -0.9210199 3.050269
v 0.4034694 -0.9974429 3.700779
v 0.4034694 -0.9974429 3.11658
v 0.2405291 -1.048726 3.76709
v 0.2405291 -1.048726 3.18289
v 0.07152732 -1.073575 3.8334
v 0.07152732 -1.073575 3.2492
v -0.09927782 -1.071365 3.89971
v -0.09927782 -1.071365 3.31551
v -0.2675797 -1.042152 3.96602
v -0.2675797 -1.042152 3.38182
vt 0 0
vt 0 1
vt 0.01960785 1
vt 0.01960785 0
vt 0.0392157 1
vt 0.0392157 0
vt 0.05882355 1
vt 0.05882355 0
vt 0.0784314 1
vt 0.0784314 0
vt 0.09803924 1
vt 0.09803924 0
vt 0.1176471 1
vt 0.1176471 0
vt 0.1372549 1
vt 0.1372549 0
vt 0.1568628 1
vt 0.1568628 0
vt 0.1764706 1
vt 0.1764706 0
vt 0.1960785 1
vt 0.1960785 0
vt 0.2156863 1
vt 0.2156863 0
vt 0.2352942 1
vt 0.2352942 0
vt 0.254902 1
vt 0.254902 0
vt 0.2745099 1
vt 0.2745099 0
vt 0.2941177 1
vt 0.2941177 0
vt 0.3137256 1
vt 0.3137256 0
vt 0.3333334 1
vt 0.3333334 0
vt 0.3529412 1
vt 0.3529412 0
vt 0.3725491 1
vt 0.3725491 0
vt 0.3921569 1
vt 0.3921569 0
vt 0.4117648 1
vt 0.4117648 0
vt 0.4313726 1
vt 0.4313726 0
vt 0.4509804 1
vt 0.4509804 0
vt 0.4705883 1
vt 0.4705883 0
vt 0.4901962 1
vt 0.4901962 0
vt 0.509804 1
vt 0.509804 0
vt 0.5294119 1
vt 0.5294119 0
vt 0.5490198 1
vt 0.5490198 0
vt 0.5686276 1
vt 0.5686276 0
vt 0.5882354 1
vt 0.5882354 0
vt 0.6078433 1
vt 0.6078433 0
vt 0.6274512 1
vt 0.6274512 0
vt 0.647059 1
vt 0.647059 0
vt 0.6666668 1
vt 0.6666668 0
vt 0.6862747 1
vt 0.6862747 0
vt 0.7058825 1
vt 0.7058825 0
vt 0.7254904 1
vt 0.7254904 0
vt 0.7450982 1
vt 0.7450982 0
vt 0.764706 1
vt 0.764706 0
vt 0.7843139 1
vt 0.7843139 0
vt 0.8039216 1
vt 0.8039216 0
vt 0.8235294 1
vt 0.8235294 0
vt 0.8431373 1
vt 0.8431373 0
vt 0.8627451 1
vt 0.8627451 0
vt 0.882353 1
vt 0.882353 0
vt 0.9019608 1
vt 0.9019608 0
vt 0.9215686 1
vt 0.9215686 0
vt 0.9411765 1
vt 0.9411765 0
vt 0.9607843 1
vt 0.9607843 0
vt 0.9803922 1
vt 0.9803922 0
vt 1 1
vt 1 0
vn -0.9968445 0.07938008 0
vn -0.9968445 0.07938008 0
vn -0.9842535 0.1767634 0
vn -0.9901939 0.1396999 0
vn -0.9438749 0.3303033 0
vn -0.9556062 0.2946472 0
vn -0.8797064 0.4755173 0
vn -0.8969326 0.4421672 0
vn -0.7933646 0.6087466 0
vn -0.815652 0.5785428 0
vn -0.6870263 0.7266326 0
vn -0.7138126 0.7003367 0
vn -0.5633719 0.8262035 0
vn -0.5939822 0.8044782 0
vn -0.4255173 0.9049502 0
vn -0.4591803 0.8883431 0
vn -0.2769375 0.9608879 0
vn -0.3128044 0.9498175 0
vn -0.1213783 0.9926063 0
vn -0.158545 0.9873518 0
vn 0.03724056 0.9993063 0
vn -0.0002895213 1 0
vn 0.1949213 0.9808189 0
vn 0.1579739 0.9874433 0
vn 0.3476887 0.93761 0
vn 0.3122555 0.9499981 0
vn 0.4916923 0.870769 0
vn 0.4586662 0.8886087 0
vn 0.6233034 0.7819801 0
vn 0.5935165 0.8048217 0
vn 0.739204 0.6734815 0
vn 0.7134076 0.7007493 0
vn 0.8364731 0.548008 0
vn 0.8153172 0.5790147 0
vn 0.9126589 0.408722 0
vn 0.8966766 0.442686 0
vn 0.9658413 0.2591342 0
vn 0.9554356 0.2951995 0
vn 0.9946797 0.1030152 0
vn 0.9901129 0.1402727 0
vn 0.9984475 -0.05570047 0
vn 0.9998345 -0.01818967 0
vn 0.9770495 -0.2130123 0
vn 0.9843555 -0.1761937 0
vn 0.9310251 -0.3649552 0
vn 0.9440659 -0.3297569 0
vn 0.8615342 -0.5076995 0
vn 0.8799812 -0.4750086 0
vn 0.7703283 -0.6376474 0
vn 0.7937166 -0.6082878 0
vn 0.6597068 -0.7515231 0
vn 0.6874464 -0.7262351 0
vn 0.5324572 -0.8464569 0
vn 0.5638495 -0.8258776 0
vn 0.3917872 -0.9200559 0
vn 0.4260406 -0.9047041 0
vn 0.2412422 -0.9704649 0
vn 0.2774937 -0.9607275 0
vn 0.08461685 -0.9964135 0
vn 0.1219524 -0.9925359 0
vn -0.07414152 -0.9972476 0
vn -0.03666266 -0.9993277 0
vn -0.2310311 -0.9729463 0
vn -0.1943539 -0.9809315 0
vn -0.3820975 -0.924122 0
vn -0.3471461 -0.937811 0
vn -0.5235332 -0.8520054 0
vn -0.4911886 -0.8710532 0
vn -0.6517733 -0.7584138 0
vn -0.622851 -0.7823405 0
vn -0.7635856 -0.6457067 0
vn -0.7388144 -0.673909 0
vn -0.8561516 -0.5167247 0
vn -0.8361559 -0.5484918 0
vn -0.9271386 -0.3747185 0
vn -0.9124224 -0.4092499 0
vn -0.9747571 -0.2232679 0
vn -0.9656912 -0.259693 0
vn -0.9978071 -0.06618973 0
vn -0.99462 -0.1035907 0
vn -0.9957074 0.09255701 0
vn -0.9984795 0.05512304 0
vn -0.9685111 0.2489705 0
vn -0.9771726 0.2124471 0
vn -0.9169036 0.3991088 0
vn -0.9312361 0.3644164 0
vn -0.8421855 0.539188 0
vn -0.8618279 0.507201 0
vn -0.7462404 0.6656765 0
vn -0.7706973 0.6372014 0
vn -0.6314863 0.775387 0
vn -0.6601416 0.7511412 0
vn -0.5008157 0.865554 0
vn -0.5329469 0.8461487 0
vn -0.3575221 0.9339048 0
vn -0.3923196 0.919829 0
vn -0.2052171 0.9787164 0
vn -0.2418036 0.9703252 0
vn -0.04773949 0.9988598 0
vn -0.08519299 0.9963645 0
vn 0.1109413 0.9938269 0
vn 0.07356503 0.9972904 0
vn 0.1710198 0.9852676 0
vn 0.1710198 0.9852676 0
g Eff_Model_spiral_23_0
f 3/3/3 2/2/2 1/1/1
f 4/4/4 3/3/3 1/1/1
f 5/5/5 3/3/3 4/4/4
f 6/6/6 5/5/5 4/4/4
f 7/7/7 5/5/5 6/6/6
f 8/8/8 7/7/7 6/6/6
f 9/9/9 7/7/7 8/8/8
f 10/10/10 9/9/9 8/8/8
f 11/11/11 9/9/9 10/10/10
f 12/12/12 11/11/11 10/10/10
f 13/13/13 11/11/11 12/12/12
f 14/14/14 13/13/13 12/12/12
f 15/15/15 13/13/13 14/14/14
f 16/16/16 15/15/15 14/14/14
f 17/17/17 15/15/15 16/16/16
f 18/18/18 17/17/17 16/16/16
f 19/19/19 17/17/17 18/18/18
f 20/20/20 19/19/19 18/18/18
f 21/21/21 19/19/19 20/20/20
f 22/22/22 21/21/21 20/20/20
f 23/23/23 21/21/21 22/22/22
f 24/24/24 23/23/23 22/22/22
f 25/25/25 23/23/23 24/24/24
f 26/26/26 25/25/25 24/24/24
f 27/27/27 25/25/25 26/26/26
f 28/28/28 27/27/27 26/26/26
f 29/29/29 27/27/27 28/28/28
f 30/30/30 29/29/29 28/28/28
f 31/31/31 29/29/29 30/30/30
f 32/32/32 31/31/31 30/30/30
f 33/33/33 31/31/31 32/32/32
f 34/34/34 33/33/33 32/32/32
f 35/35/35 33/33/33 34/34/34
f 36/36/36 35/35/35 34/34/34
f 37/37/37 35/35/35 36/36/36
f 38/38/38 37/37/37 36/36/36
f 39/39/39 37/37/37 38/38/38
f 40/40/40 39/39/39 38/38/38
f 41/41/41 39/39/39 40/40/40
f 42/42/42 41/41/41 40/40/40
f 43/43/43 41/41/41 42/42/42
f 44/44/44 43/43/43 42/42/42
f 45/45/45 43/43/43 44/44/44
f 46/46/46 45/45/45 44/44/44
f 47/47/47 45/45/45 46/46/46
f 48/48/48 47/47/47 46/46/46
f 49/49/49 47/47/47 48/48/48
f 50/50/50 49/49/49 48/48/48
f 51/51/51 49/49/49 50/50/50
f 52/52/52 51/51/51 50/50/50
f 53/53/53 51/51/51 52/52/52
f 54/54/54 53/53/53 52/52/52
f 55/55/55 53/53/53 54/54/54
f 56/56/56 55/55/55 54/54/54
f 57/57/57 55/55/55 56/56/56
f 58/58/58 57/57/57 56/56/56
f 59/59/59 57/57/57 58/58/58
f 60/60/60 59/59/59 58/58/58
f 61/61/61 59/59/59 60/60/60
f 62/62/62 61/61/61 60/60/60
f 63/63/63 61/61/61 62/62/62
f 64/64/64 63/63/63 62/62/62
f 65/65/65 63/63/63 64/64/64
f 66/66/66 65/65/65 64/64/64
f 67/67/67 65/65/65 66/66/66
f 68/68/68 67/67/67 66/66/66
f 69/69/69 67/67/67 68/68/68
f 70/70/70 69/69/69 68/68/68
f 71/71/71 69/69/69 70/70/70
f 72/72/72 71/71/71 70/70/70
f 73/73/73 71/71/71 72/72/72
f 74/74/74 73/73/73 72/72/72
f 75/75/75 73/73/73 74/74/74
f 76/76/76 75/75/75 74/74/74
f 77/77/77 75/75/75 76/76/76
f 78/78/78 77/77/77 76/76/76
f 79/79/79 77/77/77 78/78/78
f 80/80/80 79/79/79 78/78/78
f 81/81/81 79/79/79 80/80/80
f 82/82/82 81/81/81 80/80/80
f 83/83/83 81/81/81 82/82/82
f 84/84/84 83/83/83 82/82/82
f 85/85/85 83/83/83 84/84/84
f 86/86/86 85/85/85 84/84/84
f 87/87/87 85/85/85 86/86/86
f 88/88/88 87/87/87 86/86/86
f 89/89/89 87/87/87 88/88/88
f 90/90/90 89/89/89 88/88/88
f 91/91/91 89/89/89 90/90/90
f 92/92/92 91/91/91 90/90/90
f 93/93/93 91/91/91 92/92/92
f 94/94/94 93/93/93 92/92/92
f 95/95/95 93/93/93 94/94/94
f 96/96/96 95/95/95 94/94/94
f 97/97/97 95/95/95 96/96/96
f 98/98/98 97/97/97 96/96/96
f 99/99/99 97/97/97 98/98/98
f 100/100/100 99/99/99 98/98/98
f 101/101/101 99/99/99 100/100/100
f 102/102/102 101/101/101 100/100/100
f 103/103/103 101/101/101 102/102/102
f 104/104/104 103/103/103 102/102/102
