g Eff_Model_Klara_Plane_001
v -8.581576E-11 -2.192485 8.581578E-11
v 1.02582 -1.096222 8.581578E-11
v 1.02582 -2.192485 8.581578E-11
v -8.581576E-11 -1.096222 8.581578E-11
v -1.02582 -2.192485 8.581578E-11
v 1.02582 4.069519E-05 8.581578E-11
v -1.02582 -1.096222 8.581578E-11
v -8.581576E-11 4.069519E-05 8.581578E-11
v -1.02582 4.069519E-05 8.581578E-11
v -8.581576E-11 -2.192485 8.581578E-11
v -4.492585E-08 -1.096222 -1.02582
v -4.492585E-08 -2.192485 -1.02582
v -8.581576E-11 -1.096222 8.581578E-11
v 4.475422E-08 -2.192485 1.02582
v -4.492585E-08 4.05983E-05 -1.02582
v 4.475422E-08 -1.096222 1.02582
v -8.581576E-11 4.05983E-05 8.581578E-11
v 4.475422E-08 4.05983E-05 1.02582
vt 1 0.4999999
vt 0.5000001 0.9999999
vt 1 0.9999998
vt 0.5 0.4999999
vt 1 -1.788139E-07
vt 8.940697E-08 0.9999999
vt 0.5 -1.788139E-07
vt 7.946625E-09 0.4999999
vt 4.569557E-08 -5.960464E-08
vt 1 0.4999999
vt 0.5000001 0.9999999
vt 1 0.9999998
vt 0.5 0.4999999
vt 1 -1.788139E-07
vt 8.940697E-08 0.9999999
vt 0.5 -1.788139E-07
vt 7.946625E-09 0.4999999
vt 4.569557E-08 -5.960464E-08
vn 0 0 1
vn 0 0 1
vn 0 0 1
vn 0 0 1
vn 0 0 1
vn 0 0 1
vn 0 0 1
vn 0 0 1
vn 0 0 1
vn 1 0 0
vn 1 0 0
vn 1 0 0
vn 1 0 0
vn 1 0 0
vn 1 0 0
vn 1 0 0
vn 1 0 0
vn 1 0 0
g Eff_Model_Klara_Plane_001_0
f 3/3/3 2/2/2 1/1/1
f 2/2/2 4/4/4 1/1/1
f 1/1/1 4/4/4 5/5/5
f 2/2/2 6/6/6 4/4/4
f 4/4/4 7/7/7 5/5/5
f 6/6/6 8/8/8 4/4/4
f 4/4/4 8/8/8 7/7/7
f 8/8/8 9/9/9 7/7/7
f 12/12/12 11/11/11 10/10/10
f 11/11/11 13/13/13 10/10/10
f 10/10/10 13/13/13 14/14/14
f 11/11/11 15/15/15 13/13/13
f 13/13/13 16/16/16 14/14/14
f 15/15/15 17/17/17 13/13/13
f 13/13/13 17/17/17 16/16/16
f 17/17/17 18/18/18 16/16/16
