g Eff_Model_Klara_Skill03_002
v 0.01111211 0.002173705 0
v 0.1871832 0.8303987 0
v 0.03937943 0.002173705 0
v 0.1114444 0.8303988 0
v -0.01444364 0.002173705 0
v 0.3857889 1.658624 0
v 0.03633678 0.830399 0
v -0.03748749 0.002173705 0
v -0.03748749 0.8303989 0
v 0.2500769 1.658624 0
v 0.6586831 2.486849 0
v 0.1086421 1.658624 0
v -0.03748749 1.658624 0
v 0.4452876 2.486849 0
v 1.040541 3.315073 0
v 0.2133757 2.486849 0
v -0.03748749 2.486849 0
v 0.7183607 3.315074 0
v 1.593584 4.143299 0
v 1.103419 4.143299 0
v 0.3600036 3.315074 0
v -0.03748749 3.315074 0
v 0.559729 4.143299 0
v -0.03748749 4.1433 0
vt 1 0.6666666
vt 0.8000001 0.9999999
vt 1 0.9999999
vt 0.8000001 0.6666666
vt 1 0.3333332
vt 0.6000001 0.9999999
vt 0.8 0.3333333
vt 1 -1.192093E-07
vt 0.8 -1.041097E-07
vt 0.6 0.6666666
vt 0.4 0.9999999
vt 0.6 0.3333333
vt 0.6 -8.901013E-08
vt 0.4 0.6666666
vt 0.2 1
vt 0.4 0.3333333
vt 0.4 -7.391054E-08
vt 0.2 0.6666666
vt 5.960464E-08 1
vt 5.960464E-08 0.6666666
vt 0.2 0.3333333
vt 0.2 -5.881097E-08
vt 0 0.3333333
vt 0 -4.371139E-08
vn 0 0 1
vn 0 0 1
vn 0 0 1
vn 0 0 1
vn 0 0 1
vn 0 0 1
vn 0 0 1
vn 0 0 1
vn 0 0 1
vn 0 0 1
vn 0 0 1
vn 0 0 1
vn 0 0 1
vn 0 0 1
vn 0 0 1
vn 0 0 1
vn 0 0 1
vn 0 0 1
vn 0 0 1
vn 0 0 1
vn 0 0 1
vn 0 0 1
vn 0 0 1
vn 0 0 1
g Eff_Model_Klara_Skill03_002_0
f 3/3/3 2/2/2 1/1/1
f 2/2/2 4/4/4 1/1/1
f 1/1/1 4/4/4 5/5/5
f 2/2/2 6/6/6 4/4/4
f 4/4/4 7/7/7 5/5/5
f 5/5/5 7/7/7 8/8/8
f 7/7/7 9/9/9 8/8/8
f 6/6/6 10/10/10 4/4/4
f 4/4/4 10/10/10 7/7/7
f 6/6/6 11/11/11 10/10/10
f 7/7/7 12/12/12 9/9/9
f 10/10/10 12/12/12 7/7/7
f 12/12/12 13/13/13 9/9/9
f 11/11/11 14/14/14 10/10/10
f 10/10/10 14/14/14 12/12/12
f 11/11/11 15/15/15 14/14/14
f 12/12/12 16/16/16 13/13/13
f 14/14/14 16/16/16 12/12/12
f 16/16/16 17/17/17 13/13/13
f 15/15/15 18/18/18 14/14/14
f 14/14/14 18/18/18 16/16/16
f 15/15/15 19/19/19 18/18/18
f 19/19/19 20/20/20 18/18/18
f 16/16/16 21/21/21 17/17/17
f 18/18/18 21/21/21 16/16/16
f 18/18/18 20/20/20 21/21/21
f 21/21/21 22/22/22 17/17/17
f 20/20/20 23/23/23 21/21/21
f 21/21/21 23/23/23 22/22/22
f 23/23/23 24/24/24 22/22/22
