g Eff_Model_Plane_002_2
v 0 0.5 0
v 1 0.5 0
v 0 -0.5 0
v 1 -0.5 0
v 0 -2.185569E-08 0.5
v 1 -2.185569E-08 0.5
v 0 2.185569E-08 -0.5
v 1 2.185569E-08 -0.5
vt 0.00191141 1.001023
vt 1.001911 1.001023
vt 0.00191141 0.001022897
vt 1.001911 0.001022897
vt 0.0010516 1.001052
vt 1.001052 1.001052
vt 0.0010516 0.001051557
vt 1.001052 0.001051557
vn 0 0 1
vn 0 0 1
vn 0 0 1
vn 0 0 1
vn 0 -1 0
vn 0 -1 0
vn 0 -1 0
vn 0 -1 0
g Eff_Model_Plane_002_2_0
f 3/3/3 2/2/2 1/1/1
f 2/2/2 3/3/3 4/4/4
f 7/7/7 6/6/6 5/5/5
f 6/6/6 7/7/7 8/8/8
