g Eff_Model_spiral_27
v 0.06823905 3.283935 -1.615604
v -0.02828975 2.847455 -1.804078
v 0.2317353 3.154655 -1.627311
v -0.1926524 2.96713 -1.776886
v -0.2715838 2.539721 -1.902155
v -0.09525698 3.413215 -1.603896
v -0.4337873 2.654183 -1.858657
v -0.4918355 2.237803 -1.913089
v -0.3570156 3.086804 -1.749693
v -0.258753 3.542495 -1.592189
v -0.5213779 3.206479 -1.7225
v -0.5959907 2.768646 -1.815159
v -0.7581942 2.883108 -1.77166
v -0.6476517 2.353582 -1.853956
v -0.6886025 1.940992 -1.832409
v -0.8034686 2.469361 -1.794823
v -0.9592839 2.585141 -1.73569
v -0.834097 2.065093 -1.761294
v -0.8582472 1.653384 -1.657293
v -0.9795929 2.189194 -1.690178
v -1.125088 2.313294 -1.619062
v -0.9914116 1.791035 -1.580552
v -0.9762749 1.428766 -1.41636
v -1.124576 1.928687 -1.503811
v -1.25774 2.066338 -1.427069
v -1.099733 1.584702 -1.350184
v -1.081067 1.221592 -1.106704
v -1.223191 1.740638 -1.284008
v -1.346649 1.896574 -1.217833
v -1.19691 1.389846 -1.043993
v -1.16732 1.027529 -0.7509357
v -1.312753 1.558099 -0.9812787
v -1.428596 1.726353 -0.918566
v -1.276572 1.20551 -0.6871617
v -1.228665 0.8461193 -0.3742533
v -1.385825 1.383491 -0.6233842
v -1.495077 1.561471 -0.5596085
v -1.331995 1.032031 -0.3057397
v -1.258703 0.6783262 -0.003848021
v -1.435326 1.217943 -0.2372249
v -1.538654 1.403855 -0.1687124
v -1.356443 0.8702198 0.07355598
v -1.251866 0.5263875 0.3308213
v -1.454183 1.062113 0.15096
v -1.551922 1.254007 0.228364
v -1.343458 0.721311 0.4232573
v -1.154137 0.4152006 0.6520082
v -1.43505 0.9162344 0.5156941
v -1.526641 1.111158 0.6081293
v -1.269855 0.6059278 0.7403395
v -1.009022 0.3376999 0.9956534
v -1.385574 0.7966546 0.8286709
v -1.501293 0.987382 0.917002
v -1.140251 0.5233184 1.088243
v -0.8269829 0.275215 1.336721
v -1.271479 0.7089369 1.180834
v -1.402707 0.8945553 1.273424
v -0.960645 0.4584289 1.44391
v -0.6121601 0.2197328 1.642846
v -1.094306 0.6416426 1.551102
v -1.227968 0.8248568 1.658292
v -0.7362208 0.4017222 1.773409
v -0.3785058 0.164831 1.878931
v -0.8602814 0.5837114 1.903972
v -0.984342 0.7657008 2.034534
v -0.4754351 0.3441924 2.041891
v -0.1490578 0.1069441 2.017804
v -0.5723633 0.5235533 2.204853
v -0.6692932 0.7029147 2.367812
v -0.189769 0.2777847 2.217159
v 0.06384804 0.0434362 2.05701
v -0.2304803 0.4486253 2.416513
v -0.2711914 0.6194659 2.615868
v 0.1128606 0.1947554 2.275247
v 0.2278828 -0.05114746 2.037709
v 0.1618715 0.3460751 2.493484
v 0.2108832 0.4973945 2.71172
v 0.3772961 0.08811051 2.220483
v 0.3951057 -0.1734711 1.9317
v 0.5267095 0.2273685 2.403257
v 0.6761227 0.3666264 2.586031
v 0.6053583 -0.04807391 2.062959
v 0.5670127 -0.3219355 1.721603
v 0.8156106 0.07732338 2.194217
v 1.025863 0.2027204 2.325476
v 0.8076742 -0.2082053 1.81199
v 0.7197651 -0.4842785 1.43038
v 1.048336 -0.09447572 1.902375
v 1.288998 0.01925367 1.99276
v 0.9765742 -0.3790719 1.491074
v 0.8421344 -0.6448557 1.087134
v 1.233383 -0.2738653 1.551768
v 1.490192 -0.1686587 1.612461
v 1.10859 -0.5463324 1.125762
v 0.9295551 -0.7883773 0.7203802
v 1.375045 -0.4478095 1.164389
v 1.6415 -0.3492859 1.203018
v 1.202475 -0.6957657 0.7414028
v 0.9803436 -0.9001737 0.3579004
v 1.475394 -0.6031541 0.7624254
v 1.748314 -0.5105425 0.7834481
v 1.257944 -0.8133563 0.363105
v 0.9944001 -0.9663201 0.02810875
v 1.535544 -0.7265387 0.3683095
v 1.813144 -0.6397212 0.373514
v 1.275239 -0.8853371 0.01618545
v 0.971453 -0.9734057 -0.2647761
v 1.556077 -0.8043542 0.004262143
v 1.836916 -0.7233711 -0.00766116
v 1.254243 -0.8988008 -0.2932742
v 0.9232258 -0.9273845 -0.588872
v 1.537034 -0.824196 -0.321772
v 1.819824 -0.7495912 -0.3502701
v 1.208632 -0.8618073 -0.6237598
v 0.8595843 -0.8429594 -0.8956267
v 1.494037 -0.7962301 -0.6586476
v 1.779443 -0.7306529 -0.6935351
v 1.145197 -0.7832405 -0.9438448
v 0.775043 -0.7213969 -1.187832
v 1.43081 -0.7235216 -0.9920629
v 1.716423 -0.6638028 -1.040281
v 1.057989 -0.6635227 -1.25446
v 0.6637194 -0.5624875 -1.468926
v 1.340934 -0.6056485 -1.321088
v 1.62388 -0.5477743 -1.387717
v 0.9409227 -0.502584 -1.556751
v 0.5191478 -0.3648149 -1.74199
v 1.218126 -0.4426804 -1.644577
v 1.495329 -0.3827771 -1.732402
v 0.7877213 -0.2999524 -1.851746
v 0.3343947 -0.1264327 -2.009122
v 1.056295 -0.23509 -1.961503
v 1.324868 -0.1702275 -2.071259
v 0.5919502 -0.05497891 -2.140144
v 0.1092662 0.1468275 -2.264599
v 0.3558252 0.2232628 -2.413639
v 0.8495056 0.01647487 -2.271166
v 1.107061 0.08792874 -2.402187
v 0.6023843 0.2996981 -2.56268
v 0.8489432 0.3761333 -2.71172
vt 1 0.3333333
vt 0.9705887 0
vt 1 0
vt 0.9705887 0.3333333
vt 0.9411769 0
vt 1 0.6666667
vt 0.9411769 0.3333333
vt 0.9117651 0
vt 0.9705887 0.6666667
vt 1 1
vt 0.9705887 1
vt 0.9411769 0.6666667
vt 0.9411769 1
vt 0.9117651 0.3333333
vt 0.8823533 0
vt 0.9117651 0.6666667
vt 0.9117651 1
vt 0.8823533 0.3333333
vt 0.8529415 0
vt 0.8823533 0.6666667
vt 0.8823533 1
vt 0.8529415 0.3333333
vt 0.8235297 0
vt 0.8529415 0.6666667
vt 0.8529415 1
vt 0.8235297 0.3333333
vt 0.7941179 0
vt 0.8235297 0.6666667
vt 0.8235297 1
vt 0.7941179 0.3333333
vt 0.7647061 0
vt 0.7941179 0.6666667
vt 0.7941179 1
vt 0.7647061 0.3333333
vt 0.7352943 0
vt 0.7647061 0.6666667
vt 0.7647061 1
vt 0.7352943 0.3333333
vt 0.7058825 0
vt 0.7352943 0.6666667
vt 0.7352943 1
vt 0.7058825 0.3333333
vt 0.6764708 0
vt 0.7058825 0.6666667
vt 0.7058825 1
vt 0.6764708 0.3333333
vt 0.647059 0
vt 0.6764708 0.6666667
vt 0.6764708 1
vt 0.647059 0.3333333
vt 0.6176472 0
vt 0.647059 0.6666667
vt 0.647059 1
vt 0.6176472 0.3333333
vt 0.5882354 0
vt 0.6176472 0.6666667
vt 0.6176472 1
vt 0.5882354 0.3333333
vt 0.5588236 0
vt 0.5882354 0.6666667
vt 0.5882354 1
vt 0.5588236 0.3333333
vt 0.5294118 0
vt 0.5588236 0.6666667
vt 0.5588236 1
vt 0.5294118 0.3333333
vt 0.5 0
vt 0.5294118 0.6666667
vt 0.5294118 1
vt 0.5 0.3333333
vt 0.4705882 0
vt 0.5 0.6666667
vt 0.5 1
vt 0.4705882 0.3333333
vt 0.4411765 0
vt 0.4705882 0.6666667
vt 0.4705882 1
vt 0.4411765 0.3333333
vt 0.4117647 0
vt 0.4411765 0.6666667
vt 0.4411765 1
vt 0.4117647 0.3333333
vt 0.3823529 0
vt 0.4117647 0.6666667
vt 0.4117647 1
vt 0.3823529 0.3333333
vt 0.3529412 0
vt 0.3823529 0.6666667
vt 0.3823529 1
vt 0.3529412 0.3333333
vt 0.3235294 0
vt 0.3529412 0.6666667
vt 0.3529412 1
vt 0.3235294 0.3333333
vt 0.2941177 0
vt 0.3235294 0.6666667
vt 0.3235294 1
vt 0.2941177 0.3333333
vt 0.2647059 0
vt 0.2941177 0.6666667
vt 0.2941177 1
vt 0.2647059 0.3333333
vt 0.2352941 0
vt 0.2647059 0.6666667
vt 0.2647059 1
vt 0.2352941 0.3333333
vt 0.2058824 0
vt 0.2352941 0.6666667
vt 0.2352941 1
vt 0.2058824 0.3333333
vt 0.1764706 0
vt 0.2058824 0.6666667
vt 0.2058824 1
vt 0.1764706 0.3333333
vt 0.1470588 0
vt 0.1764706 0.6666667
vt 0.1764706 1
vt 0.1470588 0.3333333
vt 0.1176471 0
vt 0.1470588 0.6666667
vt 0.1470588 1
vt 0.1176471 0.3333333
vt 0.0882353 0
vt 0.1176471 0.6666667
vt 0.1176471 1
vt 0.0882353 0.3333333
vt 0.05882353 0
vt 0.0882353 0.6666667
vt 0.0882353 1
vt 0.05882353 0.3333333
vt 0.02941176 0
vt 0.05882353 0.6666667
vt 0.05882353 1
vt 0.02941176 0.3333333
vt 0 0
vt 0 0.3333333
vt 0.02941176 0.6666667
vt 0.02941176 1
vt 0 0.6666667
vt 0 1
vn 0.1853993 0.3373245 -0.9229513
vn 0.09286863 0.3208053 -0.9425812
vn 0.2098408 0.3481188 -0.9136631
vn 0.06692255 0.3078734 -0.9490708
vn -0.09050707 0.2185516 -0.9716191
vn 0.1616826 0.3084162 -0.9374103
vn -0.1174526 0.2031417 -0.9720794
vn -0.2916641 0.07216914 -0.9537944
vn 0.04225483 0.2766199 -0.96005
vn 0.1371192 0.2970493 -0.9449656
vn 0.01688353 0.2636753 -0.9644638
vn -0.1431692 0.1681931 -0.9753018
vn -0.1702576 0.1522831 -0.9735616
vn -0.3171801 0.05617207 -0.9467003
vn -0.4856597 -0.09133201 -0.8693637
vn -0.3416983 0.01984782 -0.9396001
vn -0.3685609 0.002398436 -0.9296006
vn -0.5066695 -0.1048356 -0.8557427
vn -0.649837 -0.2437648 -0.719924
vn -0.5267103 -0.1379027 -0.8387842
vn -0.549831 -0.1534886 -0.8210524
vn -0.6621377 -0.2515934 -0.7058856
vn -0.7414687 -0.3510548 -0.5718259
vn -0.6732485 -0.2727525 -0.6872718
vn -0.6878998 -0.2827916 -0.668448
vn -0.7487991 -0.3541501 -0.5602477
vn -0.8000965 -0.3890976 -0.4565618
vn -0.7554006 -0.366998 -0.5428467
vn -0.7643988 -0.3712935 -0.5271012
vn -0.8073072 -0.3910704 -0.4419492
vn -0.8433419 -0.3957124 -0.3635741
vn -0.8127043 -0.4027049 -0.421118
vn -0.8202124 -0.4047983 -0.404215
vn -0.8493285 -0.3966264 -0.3483227
vn -0.8763582 -0.3917342 -0.2802512
vn -0.8530205 -0.406548 -0.3272226
vn -0.858715 -0.4073174 -0.310968
vn -0.8810079 -0.3921157 -0.264708
vn -0.900864 -0.3882902 -0.1940998
vn -0.8830158 -0.4009746 -0.2439313
vn -0.8870948 -0.4011859 -0.2282817
vn -0.9040877 -0.3886189 -0.177766
vn -0.9045788 -0.4260376 -0.01513907
vn -0.9042069 -0.3971558 -0.1570894
vn -0.9066619 -0.3973632 -0.1416569
vn -0.9045331 -0.4252609 -0.03119389
vn -0.8313019 -0.5410017 0.1274921
vn -0.9074603 -0.4168669 -0.05232486
vn -0.9063399 -0.4165807 -0.07077181
vn -0.8355698 -0.5426375 0.08583458
vn -0.7509898 -0.6237286 0.2167417
vn -0.8492623 -0.5268286 0.03471651
vn -0.8492632 -0.5279397 -0.005635215
vn -0.7550999 -0.6261942 0.1941775
vn -0.6856681 -0.6657406 0.2943618
vn -0.7660894 -0.6204983 0.1675976
vn -0.7682549 -0.6228719 0.1476984
vn -0.6883127 -0.6669422 0.2853307
vn -0.6197073 -0.6893297 0.3752166
vn -0.6936068 -0.6653851 0.2759933
vn -0.6950584 -0.6665708 0.2694013
vn -0.6208748 -0.6894918 0.3729821
vn -0.534293 -0.7083634 0.4612508
vn -0.6220261 -0.6892999 0.3714149
vn -0.6222944 -0.6895891 0.3704275
vn -0.5329229 -0.7079276 0.4634992
vn -0.4052035 -0.7347555 0.5440079
vn -0.5301234 -0.7086602 0.4655855
vn -0.5289831 -0.7085409 0.4670617
vn -0.400209 -0.7343594 0.5482236
vn -0.3375597 -0.7384079 0.583787
vn -0.3943874 -0.7358939 0.5503805
vn -0.3921542 -0.7357789 0.5521273
vn -0.263329 -0.7552264 0.6002424
vn -0.1845389 -0.7365875 0.6506798
vn -0.2196739 -0.7728337 0.5953752
vn -0.1990959 -0.7757907 0.5987567
vn -0.08821707 -0.7572893 0.647094
vn 0.01889974 -0.7638392 0.6451298
vn -0.03162215 -0.7823899 0.6219857
vn -0.0004892247 -0.7868513 0.6171424
vn 0.06492399 -0.7755045 0.627995
vn 0.1475403 -0.7996939 0.5819978
vn 0.09366198 -0.7927749 0.6022752
vn 0.1138249 -0.7972305 0.5928469
vn 0.1632422 -0.8044026 0.5712166
vn 0.2147446 -0.831547 0.5122638
vn 0.1736428 -0.8128974 0.555919
vn 0.1833513 -0.8157429 0.5485854
vn 0.2203958 -0.8333697 0.5068735
vn 0.2525518 -0.8610936 0.4412884
vn 0.2239585 -0.8371052 0.4990969
vn 0.2281853 -0.8385369 0.49476
vn 0.2540629 -0.8615404 0.4395456
vn 0.2742335 -0.8908699 0.362142
vn 0.2549236 -0.8626308 0.4369005
vn 0.2562065 -0.8631148 0.4351908
vn 0.2735888 -0.8905655 0.3633761
vn 0.2847085 -0.9225026 0.2606337
vn 0.2733541 -0.8900634 0.3647803
vn 0.2728829 -0.8899348 0.3654462
vn 0.2827141 -0.9218422 0.2651032
vn 0.2817652 -0.9539161 0.1032096
vn 0.2822285 -0.9204349 0.2704564
vn 0.2806328 -0.919982 0.2736395
vn 0.2782133 -0.9536254 0.1148733
vn 0.2521758 -0.9644618 -0.07887141
vn 0.27841 -0.9518652 0.128221
vn 0.2754695 -0.9515215 0.1368331
vn 0.247588 -0.9670378 -0.05948237
vn 0.1999038 -0.9536457 -0.2249408
vn 0.2500654 -0.9675894 -0.03518749
vn 0.2457927 -0.969144 -0.01859834
vn 0.1960072 -0.9594129 -0.2027508
vn 0.1431127 -0.9273226 -0.3458204
vn 0.2004981 -0.9638876 -0.1752742
vn 0.1966784 -0.9680725 -0.1554129
vn 0.1406342 -0.934813 -0.3261082
vn 0.08211649 -0.8878818 -0.452684
vn 0.146101 -0.9417978 -0.3027728
vn 0.1438368 -0.9473296 -0.2861423
vn 0.08096921 -0.8966028 -0.4353704
vn 0.0180518 -0.8421046 -0.5390121
vn 0.08742703 -0.9053069 -0.4156634
vn 0.0864232 -0.9117255 -0.4016061
vn 0.01807476 -0.8516458 -0.523806
vn -0.04679651 -0.7969944 -0.602171
vn 0.02553515 -0.8615368 -0.5070526
vn 0.02554026 -0.8685918 -0.4948698
vn -0.04576973 -0.8070266 -0.5887386
vn -0.1097574 -0.7580974 -0.6428387
vn -0.0373112 -0.8177454 -0.5743695
vn -0.0364661 -0.825299 -0.5635174
vn -0.1078249 -0.7685005 -0.6306986
vn -0.1454196 -0.7475194 -0.6481264
vn -0.1430278 -0.7577864 -0.6366341
vn -0.09825227 -0.7799702 -0.6180557
vn -0.09663286 -0.7881023 -0.6079118
vn -0.1328513 -0.7693236 -0.6248934
vn -0.1307081 -0.7776003 -0.6150228
g Eff_Model_spiral_27_0
f 3/3/3 2/2/2 1/1/1
f 4/4/4 1/1/1 2/2/2
f 2/2/2 5/5/5 4/4/4
f 1/1/1 4/4/4 6/6/6
f 7/7/7 4/4/4 5/5/5
f 5/5/5 8/8/8 7/7/7
f 9/9/9 6/6/6 4/4/4
f 4/4/4 7/7/7 9/9/9
f 6/6/6 9/9/9 10/10/10
f 11/11/11 10/10/10 9/9/9
f 9/9/9 12/12/12 11/11/11
f 12/12/12 9/9/9 7/7/7
f 13/13/13 11/11/11 12/12/12
f 14/14/14 7/7/7 8/8/8
f 7/7/7 14/14/14 12/12/12
f 8/8/8 15/15/15 14/14/14
f 12/12/12 16/16/16 13/13/13
f 16/16/16 12/12/12 14/14/14
f 17/17/17 13/13/13 16/16/16
f 18/18/18 14/14/14 15/15/15
f 14/14/14 18/18/18 16/16/16
f 15/15/15 19/19/19 18/18/18
f 16/16/16 20/20/20 17/17/17
f 20/20/20 16/16/16 18/18/18
f 21/21/21 17/17/17 20/20/20
f 22/22/22 18/18/18 19/19/19
f 18/18/18 22/22/22 20/20/20
f 19/19/19 23/23/23 22/22/22
f 20/20/20 24/24/24 21/21/21
f 24/24/24 20/20/20 22/22/22
f 25/25/25 21/21/21 24/24/24
f 26/26/26 22/22/22 23/23/23
f 22/22/22 26/26/26 24/24/24
f 23/23/23 27/27/27 26/26/26
f 24/24/24 28/28/28 25/25/25
f 28/28/28 24/24/24 26/26/26
f 29/29/29 25/25/25 28/28/28
f 30/30/30 26/26/26 27/27/27
f 26/26/26 30/30/30 28/28/28
f 27/27/27 31/31/31 30/30/30
f 28/28/28 32/32/32 29/29/29
f 32/32/32 28/28/28 30/30/30
f 33/33/33 29/29/29 32/32/32
f 34/34/34 30/30/30 31/31/31
f 30/30/30 34/34/34 32/32/32
f 31/31/31 35/35/35 34/34/34
f 32/32/32 36/36/36 33/33/33
f 36/36/36 32/32/32 34/34/34
f 37/37/37 33/33/33 36/36/36
f 38/38/38 34/34/34 35/35/35
f 34/34/34 38/38/38 36/36/36
f 35/35/35 39/39/39 38/38/38
f 36/36/36 40/40/40 37/37/37
f 40/40/40 36/36/36 38/38/38
f 41/41/41 37/37/37 40/40/40
f 42/42/42 38/38/38 39/39/39
f 38/38/38 42/42/42 40/40/40
f 39/39/39 43/43/43 42/42/42
f 40/40/40 44/44/44 41/41/41
f 44/44/44 40/40/40 42/42/42
f 45/45/45 41/41/41 44/44/44
f 46/46/46 42/42/42 43/43/43
f 42/42/42 46/46/46 44/44/44
f 43/43/43 47/47/47 46/46/46
f 44/44/44 48/48/48 45/45/45
f 48/48/48 44/44/44 46/46/46
f 49/49/49 45/45/45 48/48/48
f 50/50/50 46/46/46 47/47/47
f 46/46/46 50/50/50 48/48/48
f 47/47/47 51/51/51 50/50/50
f 48/48/48 52/52/52 49/49/49
f 52/52/52 48/48/48 50/50/50
f 53/53/53 49/49/49 52/52/52
f 54/54/54 50/50/50 51/51/51
f 50/50/50 54/54/54 52/52/52
f 51/51/51 55/55/55 54/54/54
f 52/52/52 56/56/56 53/53/53
f 56/56/56 52/52/52 54/54/54
f 57/57/57 53/53/53 56/56/56
f 58/58/58 54/54/54 55/55/55
f 54/54/54 58/58/58 56/56/56
f 55/55/55 59/59/59 58/58/58
f 56/56/56 60/60/60 57/57/57
f 60/60/60 56/56/56 58/58/58
f 61/61/61 57/57/57 60/60/60
f 62/62/62 58/58/58 59/59/59
f 58/58/58 62/62/62 60/60/60
f 59/59/59 63/63/63 62/62/62
f 60/60/60 64/64/64 61/61/61
f 64/64/64 60/60/60 62/62/62
f 65/65/65 61/61/61 64/64/64
f 66/66/66 62/62/62 63/63/63
f 62/62/62 66/66/66 64/64/64
f 63/63/63 67/67/67 66/66/66
f 64/64/64 68/68/68 65/65/65
f 68/68/68 64/64/64 66/66/66
f 69/69/69 65/65/65 68/68/68
f 70/70/70 66/66/66 67/67/67
f 66/66/66 70/70/70 68/68/68
f 67/67/67 71/71/71 70/70/70
f 68/68/68 72/72/72 69/69/69
f 72/72/72 68/68/68 70/70/70
f 73/73/73 69/69/69 72/72/72
f 74/74/74 70/70/70 71/71/71
f 70/70/70 74/74/74 72/72/72
f 71/71/71 75/75/75 74/74/74
f 72/72/72 76/76/76 73/73/73
f 76/76/76 72/72/72 74/74/74
f 77/77/77 73/73/73 76/76/76
f 78/78/78 74/74/74 75/75/75
f 74/74/74 78/78/78 76/76/76
f 75/75/75 79/79/79 78/78/78
f 76/76/76 80/80/80 77/77/77
f 80/80/80 76/76/76 78/78/78
f 81/81/81 77/77/77 80/80/80
f 82/82/82 78/78/78 79/79/79
f 78/78/78 82/82/82 80/80/80
f 79/79/79 83/83/83 82/82/82
f 80/80/80 84/84/84 81/81/81
f 84/84/84 80/80/80 82/82/82
f 85/85/85 81/81/81 84/84/84
f 86/86/86 82/82/82 83/83/83
f 82/82/82 86/86/86 84/84/84
f 83/83/83 87/87/87 86/86/86
f 84/84/84 88/88/88 85/85/85
f 88/88/88 84/84/84 86/86/86
f 89/89/89 85/85/85 88/88/88
f 90/90/90 86/86/86 87/87/87
f 86/86/86 90/90/90 88/88/88
f 87/87/87 91/91/91 90/90/90
f 88/88/88 92/92/92 89/89/89
f 92/92/92 88/88/88 90/90/90
f 93/93/93 89/89/89 92/92/92
f 94/94/94 90/90/90 91/91/91
f 90/90/90 94/94/94 92/92/92
f 91/91/91 95/95/95 94/94/94
f 92/92/92 96/96/96 93/93/93
f 96/96/96 92/92/92 94/94/94
f 97/97/97 93/93/93 96/96/96
f 98/98/98 94/94/94 95/95/95
f 94/94/94 98/98/98 96/96/96
f 95/95/95 99/99/99 98/98/98
f 96/96/96 100/100/100 97/97/97
f 100/100/100 96/96/96 98/98/98
f 101/101/101 97/97/97 100/100/100
f 102/102/102 98/98/98 99/99/99
f 98/98/98 102/102/102 100/100/100
f 99/99/99 103/103/103 102/102/102
f 100/100/100 104/104/104 101/101/101
f 104/104/104 100/100/100 102/102/102
f 105/105/105 101/101/101 104/104/104
f 106/106/106 102/102/102 103/103/103
f 102/102/102 106/106/106 104/104/104
f 103/103/103 107/107/107 106/106/106
f 104/104/104 108/108/108 105/105/105
f 108/108/108 104/104/104 106/106/106
f 109/109/109 105/105/105 108/108/108
f 110/110/110 106/106/106 107/107/107
f 106/106/106 110/110/110 108/108/108
f 107/107/107 111/111/111 110/110/110
f 108/108/108 112/112/112 109/109/109
f 112/112/112 108/108/108 110/110/110
f 113/113/113 109/109/109 112/112/112
f 114/114/114 110/110/110 111/111/111
f 110/110/110 114/114/114 112/112/112
f 111/111/111 115/115/115 114/114/114
f 112/112/112 116/116/116 113/113/113
f 116/116/116 112/112/112 114/114/114
f 117/117/117 113/113/113 116/116/116
f 118/118/118 114/114/114 115/115/115
f 114/114/114 118/118/118 116/116/116
f 115/115/115 119/119/119 118/118/118
f 116/116/116 120/120/120 117/117/117
f 120/120/120 116/116/116 118/118/118
f 121/121/121 117/117/117 120/120/120
f 122/122/122 118/118/118 119/119/119
f 118/118/118 122/122/122 120/120/120
f 119/119/119 123/123/123 122/122/122
f 120/120/120 124/124/124 121/121/121
f 124/124/124 120/120/120 122/122/122
f 125/125/125 121/121/121 124/124/124
f 126/126/126 122/122/122 123/123/123
f 122/122/122 126/126/126 124/124/124
f 123/123/123 127/127/127 126/126/126
f 124/124/124 128/128/128 125/125/125
f 128/128/128 124/124/124 126/126/126
f 129/129/129 125/125/125 128/128/128
f 130/130/130 126/126/126 127/127/127
f 126/126/126 130/130/130 128/128/128
f 127/127/127 131/131/131 130/130/130
f 128/128/128 132/132/132 129/129/129
f 132/132/132 128/128/128 130/130/130
f 133/133/133 129/129/129 132/132/132
f 134/134/134 130/130/130 131/131/131
f 130/130/130 134/134/134 132/132/132
f 131/131/131 135/135/135 134/134/134
f 136/136/136 134/134/134 135/135/135
f 132/132/132 137/137/137 133/133/133
f 137/137/137 132/132/132 134/134/134
f 134/134/134 136/136/136 137/137/137
f 138/138/138 133/133/133 137/137/137
f 139/139/139 137/137/137 136/136/136
f 137/137/137 139/139/139 138/138/138
f 140/140/140 138/138/138 139/139/139
