g Eff_Model_AstaTrail_03
v -0.02222511 0.106023 0.01173731
v -0.01929672 0.1132504 0.003359547
v -0.07240491 0.1260638 -0.05175402
v -0.04288528 0.126017 -0.06950995
v -0.124222 0.1447694 -0.1156174
v -0.01159729 0.1196842 -0.005427627
v -0.06821381 0.1374922 -0.1436435
v -0.009943771 0.1257865 -0.07809599
v 0.01104801 0.1251404 -0.009704228
v -0.009447517 0.1307011 -0.1524046
v 0.02365322 0.1253694 -0.07668081
v 0.02482632 0.1299281 -0.01036123
v 0.03560562 0.1245948 -0.145062
v 0.05536354 0.1247424 -0.06636862
v 0.04701504 0.1336529 -0.000644722
v 0.08590057 0.1187738 -0.1234775
v 0.08309784 0.1238731 -0.04767065
v 0.06612297 0.1365349 0.01534422
v 0.1193546 0.1134531 -0.09554907
v 0.1058904 0.1227376 -0.0225559
v 0.07638672 0.1389571 0.03013948
v 0.1458643 0.1083916 -0.06112734
v 0.121535 0.1213298 0.00861084
v 0.08600784 0.140273 0.05610521
v 0.1667775 0.1032273 -0.01328836
v 0.1305109 0.1196581 0.04337614
v 0.08965023 0.1408492 0.08486198
v 0.1750166 0.09862605 0.03043697
v 0.1325837 0.1177265 0.08027418
v 0.08817993 0.1411716 0.1080077
v 0.1754564 0.09425797 0.07562149
v 0.1273029 0.1155255 0.1177114
v 0.07922878 0.1404144 0.138136
v 0.166297 0.08964421 0.1275351
v 0.1146441 0.1130321 0.1538703
v 0.0642281 0.1390442 0.1664485
v 0.1499632 0.08548053 0.1697307
v 0.09563126 0.1102203 0.1873694
v 0.04361271 0.1371329 0.1916466
v 0.1269955 0.08125959 0.2083689
v 0.07073204 0.1071117 0.2169815
v 0.01798195 0.13479 0.2125946
v 0.09788551 0.07694028 0.2423166
v 0.04053795 0.1037908 0.241656
v -0.006491928 0.1326433 0.2259085
v 0.0632064 0.07258735 0.2706381
v 0.00572422 0.1004105 0.2603709
v -0.03963077 0.1298873 0.2356322
v 0.01816414 0.06786471 0.2946513
v -0.03291306 0.09718192 0.2716808
v -0.07485538 0.1270982 0.2386674
v -0.0259428 0.06411774 0.3075564
v -0.07389005 0.09419417 0.2756646
v -0.1109517 0.1243114 0.2346211
v -0.07267854 0.06093705 0.312525
v -0.1159566 0.09145396 0.2718616
v -0.1466079 0.1214721 0.2232988
v -0.1207486 0.05831256 0.3090014
v -0.1577261 0.08882258 0.2599959
v -0.180465 0.1184587 0.2047203
v -0.1686752 0.05601418 0.2966067
v -0.1977257 0.08604661 0.2400163
v -0.2062951 0.1156375 0.1832224
v -0.2148551 0.05361838 0.2752166
v -0.2342444 0.08285329 0.2118881
v -0.2320871 0.112057 0.1512077
v -0.2620809 0.05018943 0.240434
v -0.2651906 0.07907115 0.1757703
v -0.2519175 0.1081612 0.1135517
v -0.2981875 0.04617625 0.200172
v -0.2896032 0.07469294 0.133147
v -0.264648 0.1040927 0.0712392
v -0.3271792 0.04119149 0.1525039
v -0.3061376 0.06992681 0.08511051
v -0.2693146 0.1000278 0.02542738
v -0.3474857 0.03555081 0.09863447
v -0.3136197 0.06506678 0.03301903
v -0.2656901 0.09672486 -0.01526266
v -0.3576771 0.02974061 0.04020012
v -0.3106581 0.06034505 -0.02160368
v -0.2518195 0.09294745 -0.06376307
v -0.355111 0.02357695 -0.02803843
v -0.2961915 0.05575095 -0.07702208
v -0.2285902 0.08909501 -0.1116356
v -0.3397731 0.01828597 -0.08994875
v -0.2713606 0.05090943 -0.1320579
v -0.1960676 0.08493239 -0.1573485
v -0.3131684 0.01263 -0.1516762
v -0.2363842 0.04537261 -0.1853557
v -0.1600407 0.0811567 -0.1927388
v -0.275847 0.005849905 -0.2123702
v -0.1908742 0.03884671 -0.2339967
v -0.1091026 0.0762492 -0.2257282
v -0.2216615 -0.003483105 -0.2749553
v -0.1346953 0.03140796 -0.2733836
v -0.05032638 0.0711394 -0.2481416
v -0.1609409 -0.01365287 -0.3215417
v -0.0693701 0.02343594 -0.3003227
v 0.006798096 0.06692832 -0.257008
v -0.08961294 -0.0247144 -0.3535835
v 0.003437881 0.01544534 -0.3111885
v 0.07493232 0.06212735 -0.2495974
v -0.001135826 -0.03660887 -0.3663063
v 0.07989345 0.00778532 -0.301548
v 0.1419388 0.05722813 -0.2269374
v 0.08395287 -0.04703011 -0.3537989
v 0.1545262 -4.833221E-05 -0.2749519
v 0.1981793 0.0525492 -0.1928625
v 0.1665906 -0.05759967 -0.3227011
v 0.2217345 -0.008794727 -0.2319413
v 0.2493759 0.04612765 -0.1384228
v 0.2451196 -0.07017241 -0.2705404
v 0.2754267 -0.01905061 -0.1717563
v 0.2881544 0.03861243 -0.07014517
v 0.3013306 -0.08423775 -0.2048229
v 0.3144924 -0.03086226 -0.09752581
v 0.309512 0.03122153 0.006877613
v 0.340686 -0.1004081 -0.1248749
v 0.3350154 -0.0433592 -0.01008539
v 0.3226854 0.02231493 0.1004726
v 0.3604087 -0.1180859 -0.02711561
v 0.3441462 -0.05606781 0.08425318
v 0.3655707 -0.1346158 0.0679037
vt 0.9999996 0
vt 0.9749996 0
vt 0.9999996 0.5
vt 0.9749996 0.5
vt 0.9999996 1
vt 0.9499996 0
vt 0.9749996 1
vt 0.9499996 0.5
vt 0.9249997 0
vt 0.9499996 1
vt 0.9249997 0.5
vt 0.8999997 0
vt 0.9249997 1
vt 0.8999997 0.5
vt 0.8749997 0
vt 0.8999997 1
vt 0.8749997 0.5
vt 0.8499997 0
vt 0.8749997 1
vt 0.8499997 0.5
vt 0.8249997 0
vt 0.8499997 1
vt 0.8249997 0.5
vt 0.7999998 0
vt 0.8249997 1
vt 0.7999998 0.5
vt 0.7749998 0
vt 0.7999998 1
vt 0.7749998 0.5
vt 0.7499998 0
vt 0.7749998 1
vt 0.7499998 0.5
vt 0.7249998 0
vt 0.7499998 1
vt 0.7249998 0.5
vt 0.6999999 0
vt 0.7249998 1
vt 0.6999999 0.5
vt 0.6749999 0
vt 0.6999999 1
vt 0.6749999 0.5
vt 0.6499999 0
vt 0.6749999 1
vt 0.6499999 0.5
vt 0.6249999 0
vt 0.6499999 1
vt 0.6249999 0.5
vt 0.6 0
vt 0.6249999 1
vt 0.6 0.5
vt 0.575 0
vt 0.6 1
vt 0.575 0.5
vt 0.55 0
vt 0.575 1
vt 0.55 0.5
vt 0.525 0
vt 0.55 1
vt 0.525 0.5
vt 0.5000001 0
vt 0.525 1
vt 0.5000001 0.5
vt 0.4750001 0
vt 0.5000001 1
vt 0.4750001 0.5
vt 0.4500001 0
vt 0.4750001 1
vt 0.4500001 0.5
vt 0.4250001 0
vt 0.4500001 1
vt 0.4250001 0.5
vt 0.4000001 0
vt 0.4250001 1
vt 0.4000001 0.5
vt 0.3750001 0
vt 0.4000001 1
vt 0.3750001 0.5
vt 0.3500001 0
vt 0.3750001 1
vt 0.3500001 0.5
vt 0.325 0
vt 0.3500001 1
vt 0.325 0.5
vt 0.3 0
vt 0.325 1
vt 0.3 0.5
vt 0.275 0
vt 0.3 1
vt 0.275 0.5
vt 0.25 0
vt 0.275 1
vt 0.25 0.5
vt 0.225 0
vt 0.25 1
vt 0.225 0.5
vt 0.2 0
vt 0.225 1
vt 0.2 0.5
vt 0.175 0
vt 0.2 1
vt 0.175 0.5
vt 0.15 0
vt 0.175 1
vt 0.15 0.5
vt 0.125 0
vt 0.15 1
vt 0.125 0.5
vt 0.1 0
vt 0.125 1
vt 0.1 0.5
vt 0.075 0
vt 0.1 1
vt 0.075 0.5
vt 0.05 0
vt 0.075 1
vt 0.05 0.5
vt 0.025 0
vt 0.05 1
vt 0.025 0.5
vt 0 0
vt 0.025 1
vt 0 0.5
vt 0 1
vn 0.3666458 -0.7639941 -0.5309274
vn 0.3281886 -0.8458028 -0.4206066
vn -0.08646562 -0.9787921 -0.1857142
vn -0.06590996 -0.9885272 -0.1359037
vn -0.1581765 -0.9801411 -0.1195981
vn 0.2889733 -0.9387188 -0.1878869
vn -0.1385219 -0.9862732 -0.08987085
vn -0.02136123 -0.9972125 -0.07149162
vn 0.2329337 -0.9724318 -0.01087986
vn -0.1103721 -0.9927657 -0.04726917
vn -0.01995045 -0.9997945 0.003579528
vn 0.1831431 -0.978197 0.09792369
vn -0.1156397 -0.9932753 0.005626628
vn -0.06170267 -0.9958092 0.06750455
vn 0.01390405 -0.9861673 0.165169
vn -0.1451355 -0.9883 0.046891
vn -0.1357811 -0.9850231 0.1062682
vn -0.09362292 -0.9738528 0.2069917
vn -0.2177309 -0.9736268 0.06814737
vn -0.2340467 -0.9657667 0.1118786
vn -0.2385306 -0.9551023 0.1757353
vn -0.2934508 -0.953518 0.06848472
vn -0.3345034 -0.9390486 0.07934172
vn -0.371094 -0.9237922 0.09432542
vn -0.3730319 -0.9272572 0.0322675
vn -0.4190036 -0.9078414 0.0161256
vn -0.4555654 -0.8901775 0.006639327
vn -0.4460016 -0.8944144 -0.03324933
vn -0.4822146 -0.8731775 -0.07092328
vn -0.5034057 -0.8563026 -0.1154487
vn -0.4940493 -0.8624351 -0.1100954
vn -0.5103388 -0.8411152 -0.1791076
vn -0.506972 -0.8246949 -0.2507144
vn -0.5107443 -0.8329667 -0.2128537
vn -0.5010548 -0.8147504 -0.2917632
vn -0.47124 -0.7996371 -0.3721738
vn -0.4956707 -0.8076837 -0.3193076
vn -0.46227 -0.7925176 -0.3977717
vn -0.4020637 -0.7788275 -0.4814276
vn -0.4551766 -0.7873138 -0.4158741
vn -0.3950248 -0.774296 -0.4943897
vn -0.3102708 -0.7622577 -0.5680626
vn -0.3893561 -0.7706029 -0.5045524
vn -0.3053711 -0.7589865 -0.5750548
vn -0.1980824 -0.7514803 -0.6293178
vn -0.3017471 -0.7560241 -0.5808408
vn -0.1921139 -0.7482356 -0.6350084
vn -0.06646305 -0.7452263 -0.6634912
vn -0.1872255 -0.745244 -0.6399672
vn -0.06923971 -0.7435895 -0.6650419
vn 0.0627491 -0.7430559 -0.6662811
vn -0.07135504 -0.7419007 -0.6667022
vn 0.04984025 -0.7438922 -0.6664386
vn 0.1890291 -0.7452822 -0.6393923
vn 0.03974102 -0.7442806 -0.6666834
vn 0.1673281 -0.7487795 -0.6413506
vn 0.3070451 -0.7507114 -0.5849409
vn 0.1502664 -0.7513053 -0.6426199
vn 0.279197 -0.7567678 -0.5910596
vn 0.4119177 -0.7575057 -0.5064671
vn 0.2573881 -0.7612267 -0.5952187
vn 0.3827353 -0.7651141 -0.5177975
vn 0.4947886 -0.7663518 -0.4097429
vn 0.3623925 -0.7698597 -0.5253453
vn 0.4762712 -0.7725461 -0.4199265
vn 0.5616946 -0.7732159 -0.2943406
vn 0.4657429 -0.7759955 -0.4253406
vn 0.5481265 -0.7781635 -0.306625
vn 0.605598 -0.7759632 -0.1764432
vn 0.5398972 -0.7810022 -0.3139211
vn 0.5950252 -0.7805743 -0.1914384
vn 0.6274585 -0.7765206 -0.05754653
vn 0.5894514 -0.7826675 -0.1999462
vn 0.6205729 -0.7805623 -0.07491221
vn 0.628684 -0.7753935 0.05934116
vn 0.6175742 -0.7819385 -0.08470204
vn 0.6264839 -0.7783183 0.04169539
vn 0.6087275 -0.7750652 0.1694832
vn 0.6270254 -0.7783189 0.0325371
vn 0.6111985 -0.7750196 0.1605643
vn 0.5696017 -0.7739925 0.2765671
vn 0.6144373 -0.7729351 0.1582343
vn 0.5751129 -0.772429 0.2694412
vn 0.5168062 -0.7721134 0.3698002
vn 0.5800764 -0.7698011 0.2663038
vn 0.5246231 -0.7704237 0.3622403
vn 0.4468268 -0.7710789 0.4536331
vn 0.5307606 -0.7682269 0.3579392
vn 0.455505 -0.7694433 0.4477414
vn 0.3545634 -0.7708303 0.52925
vn 0.4610113 -0.7687926 0.4432002
vn 0.3567423 -0.7703342 0.5285074
vn 0.2349934 -0.767345 0.5966236
vn 0.3541241 -0.7719891 0.5278532
vn 0.2325284 -0.767648 0.5971994
vn 0.1085469 -0.754205 0.6476051
vn 0.2271804 -0.7694499 0.5969388
vn 0.09551629 -0.7521011 0.6520893
vn -0.04394807 -0.728084 0.6840777
vn 0.08515617 -0.7512631 0.6544862
vn -0.06836494 -0.721291 0.68925
vn -0.2128847 -0.6910138 0.6907821
vn -0.08759749 -0.715294 0.6933118
vn -0.2365199 -0.6811959 0.6928424
vn -0.372541 -0.648555 0.6637692
vn -0.2556164 -0.6721111 0.6949295
vn -0.398612 -0.6353965 0.6613469
vn -0.5503623 -0.5967555 0.5839384
vn -0.4166929 -0.6255515 0.6595849
vn -0.5782254 -0.5815047 0.5722829
vn -0.7188265 -0.5301678 0.4496784
vn -0.5999581 -0.5699183 0.5614654
vn -0.7421064 -0.5137244 0.4305406
vn -0.8483083 -0.4469483 0.2839197
vn -0.7616647 -0.4993005 0.4129962
vn -0.8660407 -0.4279807 0.2584687
vn -0.9216643 -0.36178 0.140179
vn -0.8798724 -0.4120631 0.2367037
vn -0.9337499 -0.3414835 0.1072391
vn -0.9494134 -0.3048854 0.07522565
vn -0.943138 -0.3233247 0.07714798
vn -0.9579502 -0.2840543 0.04055322
vn -0.9643977 -0.2643789 0.006399292
g Eff_Model_AstaTrail_03_0
f 3/3/3 2/2/2 1/1/1
f 2/2/2 3/3/3 4/4/4
f 5/5/5 4/4/4 3/3/3
f 4/4/4 6/6/6 2/2/2
f 4/4/4 5/5/5 7/7/7
f 6/6/6 4/4/4 8/8/8
f 7/7/7 8/8/8 4/4/4
f 8/8/8 9/9/9 6/6/6
f 8/8/8 7/7/7 10/10/10
f 9/9/9 8/8/8 11/11/11
f 10/10/10 11/11/11 8/8/8
f 11/11/11 12/12/12 9/9/9
f 11/11/11 10/10/10 13/13/13
f 12/12/12 11/11/11 14/14/14
f 13/13/13 14/14/14 11/11/11
f 14/14/14 15/15/15 12/12/12
f 14/14/14 13/13/13 16/16/16
f 15/15/15 14/14/14 17/17/17
f 16/16/16 17/17/17 14/14/14
f 17/17/17 18/18/18 15/15/15
f 17/17/17 16/16/16 19/19/19
f 18/18/18 17/17/17 20/20/20
f 19/19/19 20/20/20 17/17/17
f 20/20/20 21/21/21 18/18/18
f 20/20/20 19/19/19 22/22/22
f 21/21/21 20/20/20 23/23/23
f 22/22/22 23/23/23 20/20/20
f 23/23/23 24/24/24 21/21/21
f 23/23/23 22/22/22 25/25/25
f 24/24/24 23/23/23 26/26/26
f 25/25/25 26/26/26 23/23/23
f 26/26/26 27/27/27 24/24/24
f 26/26/26 25/25/25 28/28/28
f 27/27/27 26/26/26 29/29/29
f 28/28/28 29/29/29 26/26/26
f 29/29/29 30/30/30 27/27/27
f 29/29/29 28/28/28 31/31/31
f 30/30/30 29/29/29 32/32/32
f 31/31/31 32/32/32 29/29/29
f 32/32/32 33/33/33 30/30/30
f 32/32/32 31/31/31 34/34/34
f 33/33/33 32/32/32 35/35/35
f 34/34/34 35/35/35 32/32/32
f 35/35/35 36/36/36 33/33/33
f 35/35/35 34/34/34 37/37/37
f 36/36/36 35/35/35 38/38/38
f 37/37/37 38/38/38 35/35/35
f 38/38/38 39/39/39 36/36/36
f 38/38/38 37/37/37 40/40/40
f 39/39/39 38/38/38 41/41/41
f 40/40/40 41/41/41 38/38/38
f 41/41/41 42/42/42 39/39/39
f 41/41/41 40/40/40 43/43/43
f 42/42/42 41/41/41 44/44/44
f 43/43/43 44/44/44 41/41/41
f 44/44/44 45/45/45 42/42/42
f 44/44/44 43/43/43 46/46/46
f 45/45/45 44/44/44 47/47/47
f 46/46/46 47/47/47 44/44/44
f 47/47/47 48/48/48 45/45/45
f 47/47/47 46/46/46 49/49/49
f 48/48/48 47/47/47 50/50/50
f 49/49/49 50/50/50 47/47/47
f 50/50/50 51/51/51 48/48/48
f 50/50/50 49/49/49 52/52/52
f 51/51/51 50/50/50 53/53/53
f 52/52/52 53/53/53 50/50/50
f 53/53/53 54/54/54 51/51/51
f 53/53/53 52/52/52 55/55/55
f 54/54/54 53/53/53 56/56/56
f 55/55/55 56/56/56 53/53/53
f 56/56/56 57/57/57 54/54/54
f 56/56/56 55/55/55 58/58/58
f 57/57/57 56/56/56 59/59/59
f 58/58/58 59/59/59 56/56/56
f 59/59/59 60/60/60 57/57/57
f 59/59/59 58/58/58 61/61/61
f 60/60/60 59/59/59 62/62/62
f 61/61/61 62/62/62 59/59/59
f 62/62/62 63/63/63 60/60/60
f 62/62/62 61/61/61 64/64/64
f 63/63/63 62/62/62 65/65/65
f 64/64/64 65/65/65 62/62/62
f 65/65/65 66/66/66 63/63/63
f 65/65/65 64/64/64 67/67/67
f 66/66/66 65/65/65 68/68/68
f 67/67/67 68/68/68 65/65/65
f 68/68/68 69/69/69 66/66/66
f 68/68/68 67/67/67 70/70/70
f 69/69/69 68/68/68 71/71/71
f 70/70/70 71/71/71 68/68/68
f 71/71/71 72/72/72 69/69/69
f 71/71/71 70/70/70 73/73/73
f 72/72/72 71/71/71 74/74/74
f 73/73/73 74/74/74 71/71/71
f 74/74/74 75/75/75 72/72/72
f 74/74/74 73/73/73 76/76/76
f 75/75/75 74/74/74 77/77/77
f 76/76/76 77/77/77 74/74/74
f 77/77/77 78/78/78 75/75/75
f 77/77/77 76/76/76 79/79/79
f 78/78/78 77/77/77 80/80/80
f 79/79/79 80/80/80 77/77/77
f 80/80/80 81/81/81 78/78/78
f 80/80/80 79/79/79 82/82/82
f 81/81/81 80/80/80 83/83/83
f 82/82/82 83/83/83 80/80/80
f 83/83/83 84/84/84 81/81/81
f 83/83/83 82/82/82 85/85/85
f 84/84/84 83/83/83 86/86/86
f 85/85/85 86/86/86 83/83/83
f 86/86/86 87/87/87 84/84/84
f 86/86/86 85/85/85 88/88/88
f 87/87/87 86/86/86 89/89/89
f 88/88/88 89/89/89 86/86/86
f 89/89/89 90/90/90 87/87/87
f 89/89/89 88/88/88 91/91/91
f 90/90/90 89/89/89 92/92/92
f 91/91/91 92/92/92 89/89/89
f 92/92/92 93/93/93 90/90/90
f 92/92/92 91/91/91 94/94/94
f 93/93/93 92/92/92 95/95/95
f 94/94/94 95/95/95 92/92/92
f 95/95/95 96/96/96 93/93/93
f 95/95/95 94/94/94 97/97/97
f 96/96/96 95/95/95 98/98/98
f 97/97/97 98/98/98 95/95/95
f 98/98/98 99/99/99 96/96/96
f 98/98/98 97/97/97 100/100/100
f 99/99/99 98/98/98 101/101/101
f 100/100/100 101/101/101 98/98/98
f 101/101/101 102/102/102 99/99/99
f 101/101/101 100/100/100 103/103/103
f 102/102/102 101/101/101 104/104/104
f 103/103/103 104/104/104 101/101/101
f 104/104/104 105/105/105 102/102/102
f 104/104/104 103/103/103 106/106/106
f 105/105/105 104/104/104 107/107/107
f 106/106/106 107/107/107 104/104/104
f 107/107/107 108/108/108 105/105/105
f 107/107/107 106/106/106 109/109/109
f 108/108/108 107/107/107 110/110/110
f 109/109/109 110/110/110 107/107/107
f 110/110/110 111/111/111 108/108/108
f 110/110/110 109/109/109 112/112/112
f 111/111/111 110/110/110 113/113/113
f 112/112/112 113/113/113 110/110/110
f 113/113/113 114/114/114 111/111/111
f 113/113/113 112/112/112 115/115/115
f 114/114/114 113/113/113 116/116/116
f 115/115/115 116/116/116 113/113/113
f 116/116/116 117/117/117 114/114/114
f 116/116/116 115/115/115 118/118/118
f 117/117/117 116/116/116 119/119/119
f 118/118/118 119/119/119 116/116/116
f 119/119/119 120/120/120 117/117/117
f 119/119/119 118/118/118 121/121/121
f 120/120/120 119/119/119 122/122/122
f 121/121/121 122/122/122 119/119/119
f 122/122/122 121/121/121 123/123/123
