g Eff_Model_IceBall_03
v -0.04608198 0.0622101 -0.05182209
v -0.001447428 0.1896348 0.000818057
v -0.06729285 0.06190731 -0.001868038
v 0.001888779 0.06257132 -0.07125937
v -0.001447428 0.1896348 0.000818057
v -0.04608198 0.0622101 -0.05182209
v 0.04851868 0.06277906 -0.04879329
v -0.001447428 0.1896348 0.000818057
v 0.001888779 0.06257132 -0.07125937
v 0.06649292 0.06271192 0.002415354
v -0.001447428 0.1896348 0.000818057
v 0.04851868 0.06277906 -0.04879329
v 0.04528218 0.06240898 0.05236963
v -0.001447428 0.1896348 0.000818057
v 0.06649292 0.06271192 0.002415354
v -0.002688583 0.06204794 0.07180679
v -0.001447428 0.1896348 0.000818057
v 0.04528218 0.06240898 0.05236963
v -0.04931893 0.06184008 0.04934084
v -0.001447428 0.1896348 0.000818057
v -0.002688583 0.06204794 0.07180679
v -0.06729285 0.06190731 -0.001868038
v -0.001447428 0.1896348 0.000818057
v -0.04931893 0.06184008 0.04934084
v 0.001888779 0.06257132 -0.07125937
v -0.04608198 0.0622101 -0.05182209
v 0.004685137 0.0006677246 -0.1825886
v -0.04608198 0.0622101 -0.05182209
v -0.06886632 0.0002584648 -0.07247093
v 0.004685137 0.0006677246 -0.1825886
v 0.07244675 0.0002583504 -0.06884491
v 0.04851868 0.06277906 -0.04879329
v 0.004685137 0.0006677246 -0.1825886
v 0.04851868 0.06277906 -0.04879329
v 0.001888779 0.06257132 -0.07125937
v 0.004685137 0.0006677246 -0.1825886
v -0.002688583 0.06204794 0.07180679
v 0.04528218 0.06240898 0.05236963
v -0.004685017 -0.0006677437 0.1825886
v 0.04528218 0.06240898 0.05236963
v 0.06882073 -0.0002583885 0.07246973
v -0.004685017 -0.0006677437 0.1825886
v -0.07249234 -0.0002584839 0.0688438
v -0.04931893 0.06184008 0.04934084
v -0.004685017 -0.0006677437 0.1825886
v -0.04931893 0.06184008 0.04934084
v -0.002688583 0.06204794 0.07180679
v -0.004685017 -0.0006677437 0.1825886
v -0.04608198 0.0622101 -0.05182209
v -0.06729285 0.06190731 -0.001868038
v -0.1825863 2.868748E-19 -0.004685021
v -0.06729285 0.06190731 -0.001868038
v -0.04931893 0.06184008 0.04934084
v -0.1825863 2.868748E-19 -0.004685021
v -0.04931893 0.06184008 0.04934084
v -0.07249234 -0.0002584839 0.0688438
v -0.1825863 2.868748E-19 -0.004685021
v -0.06886632 0.0002584648 -0.07247093
v -0.04608198 0.0622101 -0.05182209
v -0.1825863 2.868748E-19 -0.004685021
v 0.06649292 0.06271192 0.002415354
v 0.04851868 0.06277906 -0.04879329
v 0.1825863 -2.868751E-19 0.004685025
v 0.04851868 0.06277906 -0.04879329
v 0.07244675 0.0002583504 -0.06884491
v 0.1825863 -2.868751E-19 0.004685025
v 0.06882073 -0.0002583885 0.07246973
v 0.04528218 0.06240898 0.05236963
v 0.1825863 -2.868751E-19 0.004685025
v 0.04528218 0.06240898 0.05236963
v 0.06649292 0.06271192 0.002415354
v 0.1825863 -2.868751E-19 0.004685025
vt 0.3738077 0.664026
vt 0.4960363 1
vt 0.3157232 0.6632277
vt 0.5051723 0.6649784
vt 0.4960363 1
vt 0.3738077 0.664026
vt 0.6328651 0.6655262
vt 0.4960363 1
vt 0.5051723 0.6649784
vt 0.6820862 0.6653492
vt 0.4960363 1
vt 0.6328651 0.6655262
vt 0.624002 0.6645504
vt 0.4960363 1
vt 0.6820862 0.6653492
vt 0.4926375 0.6635985
vt 0.4960363 1
vt 0.624002 0.6645504
vt 0.3649435 0.6630504
vt 0.4960363 1
vt 0.4926375 0.6635985
vt 0.3157232 0.6632277
vt 0.4960363 1
vt 0.3649435 0.6630504
vt 0.5051723 0.6649784
vt 0.3738077 0.664026
vt 0.51283 0.5017605
vt 0.3738077 0.664026
vt 0.3114144 0.5006815
vt 0.51283 0.5017605
vt 0.6983904 0.5006812
vt 0.6328651 0.6655262
vt 0.51283 0.5017605
vt 0.6328651 0.6655262
vt 0.5051723 0.6649784
vt 0.51283 0.5017605
vt 0.4926375 0.6635985
vt 0.624002 0.6645504
vt 0.4871703 0.4982394
vt 0.624002 0.6645504
vt 0.6884607 0.4993187
vt 0.4871703 0.4982394
vt 0.3014847 0.4993185
vt 0.3649435 0.6630504
vt 0.4871703 0.4982394
vt 0.3649435 0.6630504
vt 0.4926375 0.6635985
vt 0.4871703 0.4982394
vt 0.3738077 0.664026
vt 0.3157232 0.6632277
vt 2.980232E-08 0.5
vt 0.3157232 0.6632277
vt 0.3649435 0.6630504
vt 2.980232E-08 0.5
vt 0.3649435 0.6630504
vt 0.3014847 0.4993185
vt 2.980232E-08 0.5
vt 0.3114144 0.5006815
vt 0.3738077 0.664026
vt 2.980232E-08 0.5
vt 0.6820862 0.6653492
vt 0.6328651 0.6655262
vt 1 0.5
vt 0.6328651 0.6655262
vt 0.6983904 0.5006812
vt 1 0.5
vt 0.6884607 0.4993187
vt 0.624002 0.6645504
vt 1 0.5
vt 0.624002 0.6645504
vt 0.6820862 0.6653492
vt 1 0.5
vn -0.8297186 0.4350858 -0.3496676
vn -0.8297186 0.4350858 -0.3496676
vn -0.8297186 0.4350857 -0.3496676
vn -0.336817 0.4578646 -0.822748
vn -0.336817 0.4578646 -0.8227481
vn -0.336817 0.4578646 -0.822748
vn 0.3829587 0.4633727 -0.7991423
vn 0.3829587 0.4633727 -0.7991423
vn 0.3829587 0.4633727 -0.7991423
vn 0.8437853 0.4479487 -0.2955813
vn 0.8437853 0.4479487 -0.2955813
vn 0.8437853 0.4479488 -0.2955813
vn 0.8232725 0.4451213 0.3522635
vn 0.8232724 0.4451214 0.3522635
vn 0.8232724 0.4451214 0.3522635
vn 0.331206 0.4562992 0.8258896
vn 0.331206 0.4562992 0.8258896
vn 0.331206 0.4562992 0.8258896
vn -0.3890688 0.4507822 0.8033809
vn -0.3890688 0.4507822 0.8033809
vn -0.3890688 0.4507822 0.8033809
vn -0.8506866 0.4322505 0.2991518
vn -0.8506866 0.4322504 0.2991518
vn -0.8506866 0.4322504 0.2991518
vn -0.2008853 0.8540092 -0.4799097
vn -0.2008853 0.8540092 -0.4799097
vn -0.2008853 0.8540092 -0.4799097
vn -0.7472414 0.4406276 -0.4974712
vn -0.7472414 0.4406277 -0.4974712
vn -0.7472414 0.4406276 -0.4974712
vn 0.7713043 0.4420544 -0.4579055
vn 0.7713043 0.4420544 -0.4579055
vn 0.7713043 0.4420544 -0.4579055
vn 0.2224068 0.8544496 -0.4695224
vn 0.2224068 0.8544495 -0.4695224
vn 0.2224068 0.8544496 -0.4695224
vn 0.1905919 0.8527982 0.4862199
vn 0.1905918 0.8527982 0.4862199
vn 0.1905919 0.8527982 0.4862199
vn 0.7459577 0.4404243 0.4995734
vn 0.7459577 0.4404243 0.4995734
vn 0.7459577 0.4404243 0.4995734
vn -0.7732346 0.4338081 0.4625134
vn -0.7732346 0.4338082 0.4625135
vn -0.7732346 0.4338082 0.4625134
vn -0.2330637 0.8480564 0.4759007
vn -0.2330637 0.8480564 0.4759007
vn -0.2330638 0.8480564 0.4759007
vn -0.4608003 0.8668385 -0.190405
vn -0.4608003 0.8668385 -0.190405
vn -0.4608003 0.8668385 -0.1904049
vn -0.4696527 0.8671079 0.1659828
vn -0.4696527 0.8671079 0.1659828
vn -0.4696527 0.8671079 0.1659828
vn -0.5022842 0.4241034 0.7535561
vn -0.5022842 0.4241034 0.7535561
vn -0.5022842 0.4241034 0.7535561
vn -0.4632576 0.4288677 -0.7755417
vn -0.4632576 0.4288678 -0.7755417
vn -0.4632575 0.4288677 -0.7755417
vn 0.4713014 0.8665354 -0.1642907
vn 0.4713014 0.8665354 -0.1642907
vn 0.4713014 0.8665354 -0.1642907
vn 0.5013865 0.4322716 -0.7495018
vn 0.5013865 0.4322717 -0.7495017
vn 0.5013864 0.4322716 -0.7495018
vn 0.4629509 0.4236205 0.7786025
vn 0.4629509 0.4236206 0.7786025
vn 0.4629509 0.4236205 0.7786025
vn 0.4624627 0.8634153 0.2015993
vn 0.4624627 0.8634153 0.2015993
vn 0.4624627 0.8634153 0.2015993
g Eff_Model_IceBall_03_0
f 3/3/3 2/2/2 1/1/1
f 6/6/6 5/5/5 4/4/4
f 9/9/9 8/8/8 7/7/7
f 12/12/12 11/11/11 10/10/10
f 15/15/15 14/14/14 13/13/13
f 18/18/18 17/17/17 16/16/16
f 21/21/21 20/20/20 19/19/19
f 24/24/24 23/23/23 22/22/22
f 27/27/27 26/26/26 25/25/25
f 30/30/30 29/29/29 28/28/28
f 33/33/33 32/32/32 31/31/31
f 36/36/36 35/35/35 34/34/34
f 39/39/39 38/38/38 37/37/37
f 42/42/42 41/41/41 40/40/40
f 45/45/45 44/44/44 43/43/43
f 48/48/48 47/47/47 46/46/46
f 51/51/51 50/50/50 49/49/49
f 54/54/54 53/53/53 52/52/52
f 57/57/57 56/56/56 55/55/55
f 60/60/60 59/59/59 58/58/58
f 63/63/63 62/62/62 61/61/61
f 66/66/66 65/65/65 64/64/64
f 69/69/69 68/68/68 67/67/67
f 72/72/72 71/71/71 70/70/70
