g Eff_Model_Natasha_QTE_006
v -0.001520157 0.07917275 -0.01787559
v 0.02155094 0.09300575 -0.004126547
v -0.003161201 0.08577743 -0.001362091
v 0.01876156 0.08563294 0.01148473
v 0.002247734 0.08021652 0.0155775
v -0.00844036 0.05880462 0.01846922
v 0.01424038 0.01199379 -0.022167
v -0.0008382797 0.05597176 -0.02715461
v -0.004345474 0.01332916 -0.03189067
v -0.02057232 0.01481163 -0.0205159
v -0.01412258 0.05802902 -0.01839901
v -0.0293087 0.01753204 0.001279213
v -0.001520157 0.07917275 -0.01787559
v -0.0187571 0.06131256 0.0003112215
v -0.003161201 0.08577743 -0.001362091
v -0.01667431 0.0166703 0.0214511
v -0.00844036 0.05880462 0.01846922
v 0.007631111 0.05780372 0.02256696
v 0.002247734 0.08021652 0.0155775
v 0.001402245 0.01440117 0.02914561
v 0.01876156 0.08563294 0.01148473
v 0.01830326 0.05330299 0.01511447
v 0.01787235 0.01257126 0.01869373
v 0.02249279 0.05099915 -0.003015684
v 0.02155094 0.09300575 -0.004126547
v 0.02258537 0.01170105 -0.001386598
v 0.01740044 0.08295272 -0.0178504
v -0.001520157 0.07917275 -0.01787559
v -0.0008382797 0.05597176 -0.02715461
v 0.01402676 0.05129059 -0.0197004
v 0.01424038 0.01199379 -0.022167
vt 0.9823133 0.8298626
vt 0.7675229 1.000001
vt 0.7417169 0.9110966
vt 0.6662121 0.9093199
vt 0.550865 0.842701
vt 0.4601192 0.5793467
vt -0.1117979 0.003601074
vt -0.01552796 0.5445042
vt 0.005128652 0.02002525
vt 0.1165465 0.03825951
vt 0.08970341 0.569808
vt 0.2662091 0.07171822
vt -0.01768672 0.8298626
vt 0.2673375 0.6101933
vt 0.7417169 0.9110966
vt 0.4159605 0.06112003
vt 0.4601192 0.5793467
vt 0.5685116 0.5670366
vt 0.550865 0.842701
vt 0.5246455 0.03321075
vt 0.6662121 0.9093199
vt 0.6464692 0.5116806
vt 0.629499 0.01070404
vt 0.7601013 0.4833441
vt 0.7675229 1.000001
vt 0.7500863 9.536743E-07
vt 0.8567702 0.8763542
vt 0.9823133 0.8298626
vt 0.984472 0.5445042
vt 0.8791851 0.4869289
vt 0.8882021 0.003601074
vn -0.4576051 0.6058238 -0.6508265
vn 0.5582532 0.8255582 -0.08250566
vn -0.5950536 0.802383 0.04574718
vn 0.5262889 0.5868022 0.6153724
vn -0.3469143 0.59703 0.7233297
vn -0.5773159 0.2795765 0.7671658
vn 0.741689 0.04674632 -0.669113
vn -0.06668437 0.1676475 -0.9835892
vn -0.05284692 0.1145237 -0.9920139
vn -0.757943 0.1496669 -0.6349192
vn -0.759231 0.2966908 -0.5792606
vn -0.9735422 0.2128869 0.08303405
vn -0.4576051 0.6058238 -0.6508265
vn -0.913618 0.3886444 0.1194057
vn -0.5950536 0.802383 0.04574718
vn -0.6182356 0.2012492 0.7597917
vn -0.5773159 0.2795765 0.7671658
vn 0.1866679 0.1534529 0.9703645
vn -0.3469143 0.59703 0.7233297
vn 0.09334497 0.1439077 0.9851788
vn 0.5262889 0.5868022 0.6153724
vn 0.830627 0.03832607 0.5555087
vn 0.8163076 0.04275493 0.5760328
vn 0.9934233 -0.009587494 -0.1140968
vn 0.5582532 0.8255582 -0.08250566
vn 0.9964541 0.01434128 -0.08290723
vn 0.4884751 0.4547619 -0.7447037
vn -0.4576051 0.6058238 -0.6508265
vn -0.06668437 0.1676475 -0.9835892
vn 0.7086271 0.001206933 -0.7055821
vn 0.741689 0.04674632 -0.669113
g Eff_Model_Natasha_QTE_006_0
f 3/3/3 2/2/2 1/1/1
f 2/2/2 3/3/3 4/4/4
f 5/5/5 4/4/4 3/3/3
f 5/5/5 3/3/3 6/6/6
f 9/9/9 8/8/8 7/7/7
f 9/9/9 10/10/10 8/8/8
f 11/11/11 8/8/8 10/10/10
f 10/10/10 12/12/12 11/11/11
f 11/11/11 13/13/13 8/8/8
f 14/14/14 11/11/11 12/12/12
f 11/11/11 14/14/14 13/13/13
f 15/15/15 13/13/13 14/14/14
f 12/12/12 16/16/16 14/14/14
f 14/14/14 17/17/17 15/15/15
f 17/17/17 14/14/14 16/16/16
f 17/17/17 16/16/16 18/18/18
f 19/19/19 17/17/17 18/18/18
f 20/20/20 18/18/18 16/16/16
f 21/21/21 19/19/19 18/18/18
f 18/18/18 20/20/20 22/22/22
f 22/22/22 21/21/21 18/18/18
f 23/23/23 22/22/22 20/20/20
f 22/22/22 24/24/24 21/21/21
f 22/22/22 23/23/23 24/24/24
f 25/25/25 21/21/21 24/24/24
f 26/26/26 24/24/24 23/23/23
f 25/25/25 24/24/24 27/27/27
f 27/27/27 28/28/28 25/25/25
f 29/29/29 28/28/28 27/27/27
f 24/24/24 26/26/26 30/30/30
f 30/30/30 27/27/27 24/24/24
f 30/30/30 29/29/29 27/27/27
f 31/31/31 30/30/30 26/26/26
f 30/30/30 31/31/31 29/29/29
