g Eff_Model_Lighting_03_01
v 0.01731252 0.0142219 0.02018222
v 0.0131291 0.1549561 0.04617247
v 0.02892746 0.03020852 0.007663726
v -0.02167553 0.1461469 0.0728815
v 0.005697569 -0.001764669 0.007663726
v -0.07617611 0.3010444 0.08833879
v -0.05104524 0.1416548 0.04617247
v -0.1176038 0.3068667 0.1164053
v -0.1590315 0.312689 0.08833879
v -0.0931502 0.3605502 0.01599076
v -0.1112582 0.3626525 0.01599076
v -0.1022042 0.3616014 0.03512281
v -0.1142913 0.4039627 -0.03073892
v -0.1142737 0.4039691 -0.03073892
v -0.1142825 0.403966 -0.03073892
v -0.1064032 0.6079326 0
v -0.07554682 0.6163423 0.0227247
v -0.05088017 0.6242948 0
v -0.1855899 0.7647712 -0.03268741
v -0.1941524 0.7616547 -0.02242178
v -0.2027148 0.7585383 -0.03268741
v -0.2508305 0.7891886 -0.04810004
v -0.264533 0.788038 -0.03501381
v -0.2914014 0.7876282 -0.04810004
v -0.3535109 0.8248906 -0.0644667
v -0.3656142 0.8162602 -0.05414744
v -0.3360387 0.9389712 -0.1470454
v -0.3889401 0.8126778 -0.0644667
v -0.3362399 0.9388979 -0.1470454
v -0.336441 0.9388247 -0.1470454
vt -1.41065E-07 0.5
vt 0.142857 0
vt -1.629207E-07 0
vt 0.142857 0.5
vt -1.192093E-07 1
vt 0.2857141 0
vt 0.142857 1
vt 0.2857141 0.5
vt 0.2857142 1
vt 0.3571427 0
vt 0.3571427 1
vt 0.3571427 0.5
vt 0.4285713 1
vt 0.4285713 0
vt 0.4285713 0.5
vt 0.5714285 1
vt 0.5714285 0.5
vt 0.5714284 0
vt 0.7142856 0
vt 0.7142856 0.4999999
vt 0.7142856 0.9999999
vt 0.7857141 0
vt 0.7857141 0.4999999
vt 0.7857141 0.9999999
vt 0.8571427 0
vt 0.8571427 0.4999999
vt 0.9999998 0
vt 0.8571427 0.9999999
vt 0.9999999 0.4999999
vt 0.9999999 0.9999999
vn -0.1047901 -0.3874329 0.9159229
vn 0.6399171 -0.0156128 0.7682853
vn 0.6761428 -0.1143174 0.7278479
vn 0.1080497 -0.2615924 0.9591114
vn -0.5062388 -0.4246441 0.7505996
vn 0.5960793 0.3824569 0.7059858
vn -0.5218253 -0.4667919 0.7140055
vn -0.1028284 0.2470283 0.9635369
vn -0.5448048 0.3922775 0.7411519
vn 0.6549397 0.6646331 0.3596066
vn -0.6931585 0.5679454 0.4438122
vn 0.1472522 0.8394961 0.5230327
vn -0.764025 0.2124197 0.6092156
vn 0.8052998 0.1316509 0.5780661
vn -0.1573061 0.3101906 0.9375695
vn -0.5877663 -0.1830861 0.788042
vn 0.1894492 0.01890342 0.9817085
vn 0.6520007 0.1903244 0.7339427
vn 0.390098 0.7287653 0.5627829
vn -0.07160568 0.3593576 0.9304487
vn -0.4573945 -0.5502083 0.6986136
vn 0.2230295 0.8571257 0.4643203
vn -0.1109198 0.1376946 0.9842443
vn -0.2713553 -0.6768098 0.6843206
vn 0.2191317 0.6796967 0.6999954
vn -0.2280073 0.09963955 0.9685477
vn 0.2424743 0.5827134 0.7756618
vn -0.4353229 0.3739669 0.8189278
vn 0.009322937 0.6298034 0.7766986
vn -0.393434 0.6257743 0.6735104
g Eff_Model_Lighting_03_01_0
f 3/3/3 2/2/2 1/1/1
f 2/2/2 4/4/4 1/1/1
f 1/1/1 4/4/4 5/5/5
f 2/2/2 6/6/6 4/4/4
f 4/4/4 7/7/7 5/5/5
f 6/6/6 8/8/8 4/4/4
f 4/4/4 8/8/8 7/7/7
f 8/8/8 9/9/9 7/7/7
f 6/6/6 10/10/10 8/8/8
f 9/9/9 8/8/8 11/11/11
f 10/10/10 12/12/12 8/8/8
f 8/8/8 12/12/12 11/11/11
f 11/11/11 12/12/12 13/13/13
f 10/10/10 14/14/14 12/12/12
f 12/12/12 15/15/15 13/13/13
f 14/14/14 15/15/15 12/12/12
f 13/13/13 15/15/15 16/16/16
f 15/15/15 14/14/14 17/17/17
f 15/15/15 17/17/17 16/16/16
f 14/14/14 18/18/18 17/17/17
f 18/18/18 19/19/19 17/17/17
f 17/17/17 20/20/20 16/16/16
f 19/19/19 20/20/20 17/17/17
f 20/20/20 21/21/21 16/16/16
f 19/19/19 22/22/22 20/20/20
f 20/20/20 23/23/23 21/21/21
f 22/22/22 23/23/23 20/20/20
f 23/23/23 24/24/24 21/21/21
f 22/22/22 25/25/25 23/23/23
f 23/23/23 26/26/26 24/24/24
f 25/25/25 26/26/26 23/23/23
f 25/25/25 27/27/27 26/26/26
f 26/26/26 28/28/28 24/24/24
f 27/27/27 29/29/29 26/26/26
f 26/26/26 29/29/29 28/28/28
f 29/29/29 30/30/30 28/28/28
