g Eff_Model_Player_M_Skill03_Stone_02
v -0.03986195 0.007438266 0.02300599
v -0.03974591 0.007152316 0.02313673
v -0.03987161 0.00714194 0.02301156
v -0.03825555 0.004073474 0.02207853
v -0.03610618 0.004250552 0.02421864
v -0.0380874 0.009143512 0.02198145
v -0.0390199 0.03329254 -0.02254491
v -0.038973 0.03357178 -0.02257721
v -0.03900959 0.03360366 -0.02253896
v -0.03865282 0.03329254 -0.02291199
v -0.0250909 0.02147042 -0.03708126
v -0.03802623 -0.03813057 -0.02720812
v -0.04144447 -0.04114517 -0.02394476
v -0.03738299 -0.03756332 -0.02782221
v -0.02345338 -0.01606902 -0.04064747
v -0.02278524 0.01946061 -0.03949018
v -0.04144447 -0.04114517 -0.02394476
v -0.04518838 -0.02538323 -0.007759875
v -0.04261021 -0.04377274 -0.019963
v -0.0390199 0.03329254 -0.02254491
v -0.04510233 0.03209892 -1.251629E-05
v -0.04682517 -0.0137082 -1.251556E-05
v -0.04294406 0.03329246 -0.007899757
v -0.03968758 0.03509315 -0.01979576
v -0.03900959 0.03360366 -0.02253896
v -0.04244225 0.03321594 -0.002313912
v -0.04494044 -0.01591645 -1.25149E-05
v -0.04307225 0.03286758 -1.251848E-05
v -0.0434555 -0.02654969 -0.007074088
v -0.03728912 0.03321601 -0.02154564
v -0.03827863 0.03551826 -0.01752374
v -0.03728516 0.03333564 -0.02154336
v -0.03975372 -0.04109825 -0.0229686
v -0.04102437 -0.04395844 -0.01863522
v -0.02178243 0.01981599 -0.03775327
v -0.008818292 -0.0005613621 -0.04200741
v -0.02246965 -0.01607513 -0.0389436
v -0.00574719 0.01119241 -0.0423802
v -0.0008112672 0.008537914 -0.04380446
v -0.03728912 0.03321601 -0.02154564
v -0.03728215 -0.0389196 -0.02532619
v -0.03975372 -0.04109825 -0.0229686
v -0.0239481 0.02170456 -0.03548881
v -0.03642727 -0.03760117 -0.0261121
v -0.02246965 -0.01607513 -0.0389436
v -0.02178243 0.01981599 -0.03775327
v -0.03714801 0.03321601 -0.02168676
v -0.03727171 0.0333239 -0.02155741
v -0.03728516 0.03333564 -0.02154336
v -0.04115611 0.03321593 0.007088706
v -0.04117346 0.03325103 0.007018926
v -0.04134708 0.03321593 0.006376001
v -0.04304801 0.03287246 7.722108E-05
v -0.0380874 0.009143512 0.02198145
v -0.04012153 0.03112601 0.01124841
v -0.04179856 -0.006521311 0.01037021
v -0.03825555 0.004073474 0.02207853
v -0.04307225 0.03286758 -1.251848E-05
v -0.04494044 -0.01591645 -1.25149E-05
v -0.04510233 0.03209892 -1.251629E-05
v -0.04373838 -0.004452601 0.01020821
v -0.04682517 -0.0137082 -1.251556E-05
v -0.04501633 0.03211623 0.0003059811
v -0.03986195 0.007438266 0.02300599
v -0.03987161 0.00714194 0.02301156
v -0.04324612 0.03247359 0.006862251
v -0.04195204 0.02986388 0.01205804
v -0.04324612 0.03247359 0.006862251
v -0.04012153 0.03112601 0.01124841
v -0.04195204 0.02986388 0.01205804
v -0.04115611 0.03321593 0.007088706
v -0.04117346 0.03325103 0.007018926
v -0.04501633 0.03211623 0.0003059811
v -0.04117346 0.03325103 0.007018926
v -0.04324612 0.03247359 0.006862251
v -0.04134708 0.03321593 0.006376001
v -0.04304801 0.03287246 7.722108E-05
v -0.04307225 0.03286758 -1.251848E-05
v -0.03968758 0.03509315 -0.01979576
v -0.04244225 0.03321594 -0.002313912
v -0.03827863 0.03551826 -0.01752374
v -0.04294406 0.03329246 -0.007899757
v -0.04510233 0.03209892 -1.251629E-05
v -0.02345338 -0.01606902 -0.04064747
v -0.006158969 0.01052178 -0.04428152
v -0.02278524 0.01946061 -0.03949018
v -0.008869818 0.000510492 -0.04393166
v -0.00202073 0.008296977 -0.04547404
v -0.006158969 0.01052178 -0.04428152
v -0.0250909 0.02147042 -0.03708126
v -0.02278524 0.01946061 -0.03949018
v -0.00202073 0.008296977 -0.04547404
v -0.02178243 0.01981599 -0.03775327
v -0.00574719 0.01119241 -0.0423802
v -0.0008112672 0.008537914 -0.04380446
v -0.0239481 0.02170456 -0.03548881
v -0.03714801 0.03321601 -0.02168676
v -0.03968758 0.03509315 -0.01979576
v -0.03865282 0.03329254 -0.02291199
v -0.03727171 0.0333239 -0.02155741
v -0.038973 0.03357178 -0.02257721
v -0.03900959 0.03360366 -0.02253896
v -0.03728516 0.03333564 -0.02154336
v -0.03827863 0.03551826 -0.01752374
v -0.008869818 0.000510492 -0.04393166
v -0.0008112672 0.008537914 -0.04380446
v -0.00202073 0.008296977 -0.04547404
v -0.02345338 -0.01606902 -0.04064747
v -0.008818292 -0.0005613621 -0.04200741
v -0.02246965 -0.01607513 -0.0389436
v -0.03738299 -0.03756332 -0.02782221
v -0.03642727 -0.03760117 -0.0261121
v -0.03728215 -0.0389196 -0.02532619
v -0.0380874 0.009143512 0.02198145
v -0.04195204 0.02986388 0.01205804
v -0.04012153 0.03112601 0.01124841
v -0.03986195 0.007438266 0.02300599
v -0.03610618 0.004250552 0.02421864
v -0.03974591 0.007152316 0.02313673
v -0.04261021 -0.04377274 -0.019963
v -0.03802623 -0.03813057 -0.02720812
v -0.04144447 -0.04114517 -0.02394476
v -0.03975372 -0.04109825 -0.0229686
v -0.04102437 -0.04395844 -0.01863522
v -0.03728215 -0.0389196 -0.02532619
v -0.03738299 -0.03756332 -0.02782221
v -0.03825555 0.004073474 0.02207853
v -0.03974591 0.007152316 0.02313673
v -0.03610618 0.004250552 0.02421864
v -0.04179856 -0.006521311 0.01037021
v -0.04494044 -0.01591645 -1.25149E-05
v -0.04682517 -0.0137082 -1.251556E-05
v -0.0434555 -0.02654969 -0.007074088
v -0.04102437 -0.04395844 -0.01863522
v -0.04373838 -0.004452601 0.01020821
v -0.03987161 0.00714194 0.02301156
v -0.04518838 -0.02538323 -0.007759875
v -0.04261021 -0.04377274 -0.019963
vt 0.1320916 0.9097128
vt 0.1323224 0.9102005
vt 0.1320916 0.9102182
vt 0.1320916 0.9155957
vt 0.1362041 0.9152921
vt 0.1320916 0.9069018
vt 0.06569344 0.8656233
vt 0.06560957 0.8651445
vt 0.06569344 0.8650898
vt 0.06495291 0.8656233
vt 0.03681725 0.8857836
vt 0.05899578 0.9874219
vt 0.06569344 0.9925628
vt 0.05780828 0.9864545
vt 0.03241807 0.9498002
vt 0.03241807 0.8892111
vt 0.06569344 0.9925628
vt 0.08753085 0.9656836
vt 0.07123399 0.9970437
vt 0.06569344 0.8656233
vt 0.09878153 0.8676976
vt 0.09888124 0.945793
vt 0.08719766 0.8656489
vt 0.0696795 0.8625404
vt 0.06569344 0.8650898
vt 0.09524286 0.8656585
vt 0.09888649 0.9498913
vt 0.09877968 0.8662599
vt 0.08805972 0.9681072
vt 0.06569344 0.8656233
vt 0.07180536 0.8616828
vt 0.06569344 0.8654182
vt 0.06569344 0.9930544
vt 0.07197845 0.997959
vt 0.03241807 0.8886011
vt 0.01188278 0.9235434
vt 0.03241807 0.9501457
vt 0.007506309 0.9033884
vt 0.0004724246 0.9079403
vt 0.06569344 0.8656233
vt 0.06062859 0.9893184
vt 0.06569344 0.9930544
vt 0.0367254 0.8853626
vt 0.05891633 0.9870576
vt 0.03241807 0.9501457
vt 0.03241807 0.8886011
vt 0.06539553 0.8656234
vt 0.06566101 0.8654383
vt 0.06569344 0.8654182
vt 0.1097649 0.8656498
vt 0.1096568 0.8655898
vt 0.1086622 0.865651
vt 0.09890759 0.8662515
vt 0.1320916 0.9069018
vt 0.1161382 0.8692257
vt 0.1136644 0.9337849
vt 0.1320916 0.9155957
vt 0.09877968 0.8662599
vt 0.09888649 0.9498913
vt 0.09878153 0.8676976
vt 0.1128402 0.9300132
vt 0.09888124 0.945793
vt 0.09921706 0.867668
vt 0.1320916 0.9097128
vt 0.1320916 0.9102182
vt 0.1089201 0.867047
vt 0.1165292 0.8714883
vt 0.009615891 0.02770189
vt 0 0.03325211
vt 0.002510166 0.0372641
vt 0.005686207 0.02559486
vt 0.005781595 0.02546641
vt 0.01345112 0.04111181
vt 0 0.04908335
vt 0.004036903 0.05092802
vt 0.0009232712 0.04812079
vt 0.009968186 0.03869036
vt 0.01009705 0.038556
vt 0.02212105 0
vt 0.01105225 0.03382883
vt 0.01736507 0.002587051
vt 0.01718361 0.02443499
vt 0.01390839 0.04063494
vt 0.03241807 0.9498002
vt 0.007737754 0.9044543
vt 0.03241807 0.8892111
vt 0.01144481 0.9215267
vt 0.002078829 0.9082483
vt 0.1349446 0.02558731
vt 0.1632281 0.06192711
vt 0.1611214 0.05443077
vt 0.1284293 0.01840835
vt 0.1577734 0.05675163
vt 0.1325324 0.02892166
vt 0.1247627 0.02035514
vt 0.1597507 0.06379639
vt 0.1718022 0.1067354
vt 0.1747883 0.1134643
vt 0.17562 0.106021
vt 0.1719151 0.1071378
vt 0.1759123 0.1070625
vt 0.1759457 0.1071815
vt 0.1719274 0.1071815
vt 0.1702315 0.1163878
vt 0.1998985 0.03957188
vt 0.2168177 0.05478123
vt 0.2176601 0.05071628
vt 0.1620791 0.01584255
vt 0.1960658 0.04174614
vt 0.1606851 0.01952229
vt 0.1061044 0.003638915
vt 0.1046379 0.007273025
vt 0.1012051 0.006522779
vt 0.04900055 0.02129692
vt 0.006679259 0.001806121
vt 0.002841479 0.004575272
vt 0.05375976 0.01889347
vt 0.05834267 0.027946
vt 0.05430565 0.01928257
vt 0.001835692 0.02254678
vt 0.002801466 0.002042618
vt 0 0.01289795
vt 0.003905773 0.0128981
vt 0.005900104 0.02340131
vt 0.005933304 0.005053101
vt 0.003328638 0
vt 0.006990814 0.05053885
vt 0 0.04898633
vt 0.005888901 0.05651467
vt 0.03376244 0.03235023
vt 0.05750297 0.01622087
vt 0.05274452 0.01289353
vt 0.08279335 0.01164481
vt 0.1241988 0.004152994
vt 0.02935921 0.02876054
vt 6.454468E-05 0.04863686
vt 0.08051064 0.00788661
vt 0.1242455 0
vn -0.7066446 0.03630771 0.7066364
vn -0.7066446 0.03630771 0.7066364
vn -0.7066446 0.03630771 0.7066364
vn 0.7066241 -0.03696458 -0.706623
vn 0.706624 -0.03696458 -0.706623
vn 0.7066241 -0.03696459 -0.706623
vn -0.7065688 0.03695057 -0.7066792
vn -0.7065688 0.03695057 -0.7066792
vn -0.7065688 0.03695057 -0.7066792
vn -0.7066259 0.03696689 -0.7066211
vn -0.7066372 0.03630454 -0.706644
vn -0.7066373 0.03630454 -0.7066439
vn -0.7066405 0.03630537 -0.7066407
vn -0.7066372 0.03630454 -0.706644
vn -0.7066401 0.03630558 -0.7066412
vn -0.7066398 0.03630562 -0.7066414
vn -0.9652889 0.03630529 -0.2586488
vn -0.9652889 0.0363053 -0.2586488
vn -0.9652889 0.0363053 -0.2586488
vn -0.9652889 0.03630522 -0.2586487
vn -0.9652891 0.03630678 -0.2586482
vn -0.9652889 0.03630537 -0.2586485
vn -0.9652658 0.03696256 -0.2586419
vn -0.9652658 0.03696256 -0.2586419
vn -0.9652684 0.03694994 -0.2586343
vn 0.9652656 -0.03696496 0.2586423
vn 0.9652658 -0.03696496 0.2586423
vn 0.9652656 -0.03696496 0.2586423
vn 0.9652658 -0.03696499 0.2586417
vn 0.9652658 -0.03696502 0.2586421
vn 0.9652699 -0.03694054 0.2586301
vn 0.9652699 -0.03694054 0.2586301
vn 0.9652658 -0.03696499 0.2586423
vn 0.9652658 -0.03696436 0.2586417
vn 0.2586453 -0.03696549 0.9652649
vn 0.2586453 -0.03696549 0.9652649
vn 0.2586453 -0.03696549 0.9652649
vn 0.2586453 -0.03696549 0.9652649
vn 0.2586454 -0.03696553 0.9652647
vn 0.7066168 -0.03699423 0.7066287
vn 0.7066219 -0.0369651 0.7066251
vn 0.706622 -0.03696511 0.7066251
vn 0.7066215 -0.03696482 0.7066255
vn 0.7066215 -0.03696482 0.7066255
vn 0.7066239 -0.03696518 0.7066232
vn 0.7066238 -0.03696518 0.7066232
vn 0.7066168 -0.03699424 0.7066287
vn 0.7066168 -0.03699423 0.7066287
vn 0.706404 -0.03693639 0.7068444
vn 0.9652644 -0.03700513 -0.2586412
vn 0.9652644 -0.03700513 -0.2586412
vn 0.9652644 -0.03700513 -0.2586412
vn 0.9652647 -0.03696484 -0.2586457
vn 0.9652641 -0.03696606 -0.2586477
vn 0.9652641 -0.03696606 -0.2586477
vn 0.9652647 -0.03696475 -0.2586458
vn 0.9652647 -0.03696476 -0.2586458
vn 0.965252 -0.03697725 -0.2586916
vn 0.9652645 -0.03696495 -0.2586465
vn -0.9652878 0.03630533 0.2586528
vn -0.9652878 0.03630533 0.2586528
vn -0.9652878 0.03630533 0.2586528
vn -0.9652852 0.03630817 0.2586626
vn -0.9652882 0.0363053 0.2586518
vn -0.9652902 0.03631577 0.2586424
vn -0.9652882 0.0363053 0.2586518
vn -0.9652882 0.0363053 0.2586518
vn -0.3385878 0.804307 0.4883118
vn -0.3385878 0.804307 0.4883118
vn -0.3385878 0.804307 0.4883118
vn -0.3385876 0.8043071 0.4883118
vn -0.3385591 0.8041332 0.488618
vn -0.3538033 0.9342556 0.04460521
vn -0.3538033 0.9342556 0.04460521
vn -0.3538033 0.9342556 0.04460521
vn -0.3536268 0.9343279 0.04449187
vn -0.3537638 0.9342716 0.04458491
vn -0.3537491 0.9342712 0.04470905
vn -0.3537717 0.9342689 0.04457779
vn -0.3537717 0.9342689 0.0445778
vn -0.3537717 0.9342689 0.04457779
vn -0.3536827 0.9343013 0.04460598
vn -0.3535341 0.9343554 0.04465092
vn -0.2586564 0.03630625 -0.9652869
vn -0.2586564 0.03630625 -0.9652869
vn -0.2586559 0.03630589 -0.965287
vn -0.2586564 0.03630625 -0.9652869
vn -0.2586513 0.03630482 -0.9652883
vn 0.3514793 0.8564355 -0.3781278
vn 0.3514793 0.8564355 -0.3781278
vn 0.3514793 0.8564355 -0.3781278
vn 0.3514432 0.8564193 -0.3781979
vn 0.3514601 0.8564346 -0.3781475
vn 0.3514494 0.8564218 -0.3781866
vn 0.3514517 0.8564221 -0.3781837
vn 0.351472 0.8564266 -0.3781548
vn 0.3513976 0.8564249 -0.3782276
vn 0.3510314 0.8565351 -0.3783181
vn 0.3515241 0.8564174 -0.378127
vn 0.3473593 0.8558618 -0.3831999
vn 0.3510314 0.8565351 -0.3783181
vn 0.3510314 0.8565351 -0.3783181
vn 0.351431 0.8564333 -0.3781774
vn 0.351431 0.8564333 -0.3781774
vn 0.6555746 -0.6520824 -0.3808023
vn 0.6555746 -0.6520824 -0.3808023
vn 0.6555746 -0.6520824 -0.3808023
vn 0.6555769 -0.6520848 -0.3807943
vn 0.6555892 -0.6520917 -0.3807611
vn 0.655566 -0.6520759 -0.3808284
vn 0.6555642 -0.6520782 -0.3808274
vn 0.6555772 -0.6520768 -0.3808074
vn 0.6555772 -0.652077 -0.3808072
vn 0.08856841 0.4436313 0.8918222
vn 0.08856841 0.4436312 0.8918222
vn 0.08856842 0.4436313 0.8918222
vn 0.0885862 0.4436333 0.8918194
vn 0.08858695 0.4436324 0.8918198
vn 0.08865998 0.4437024 0.8917778
vn 0.2920716 -0.8353381 -0.46573
vn 0.2920716 -0.8353381 -0.46573
vn 0.2920716 -0.8353381 -0.46573
vn 0.2920954 -0.835336 -0.4657187
vn 0.2921031 -0.8353418 -0.4657035
vn 0.2920532 -0.8353555 -0.4657103
vn 0.2920532 -0.8353555 -0.4657103
vn -0.5888442 -0.5025943 0.6329783
vn -0.5888442 -0.5025942 0.6329782
vn -0.5888443 -0.5025942 0.6329783
vn -0.5888416 -0.5025939 0.6329809
vn -0.588864 -0.5025809 0.6329706
vn -0.5883041 -0.5029887 0.6331671
vn -0.5888601 -0.5025903 0.6329667
vn -0.588843 -0.5025933 0.6329802
vn -0.5888216 -0.5026094 0.6329874
vn -0.5888216 -0.5026094 0.6329874
vn -0.5887892 -0.502607 0.6330194
vn -0.5888344 -0.5025971 0.6329851
g Eff_Model_Player_M_Skill03_Stone_02_0
f 3/3/3 2/2/2 1/1/1
f 6/6/6 5/5/5 4/4/4
f 9/9/9 8/8/8 7/7/7
f 7/7/7 8/8/8 10/10/10
f 10/10/10 11/11/11 7/7/7
f 11/11/11 12/12/12 7/7/7
f 7/7/7 12/12/12 13/13/13
f 12/12/12 11/11/11 14/14/14
f 14/14/14 11/11/11 15/15/15
f 15/15/15 11/11/11 16/16/16
f 19/19/19 18/18/18 17/17/17
f 20/20/20 17/17/17 18/18/18
f 20/20/20 18/18/18 21/21/21
f 21/21/21 18/18/18 22/22/22
f 23/23/23 20/20/20 21/21/21
f 23/23/23 24/24/24 20/20/20
f 25/25/25 20/20/20 24/24/24
f 28/28/28 27/27/27 26/26/26
f 27/27/27 29/29/29 26/26/26
f 26/26/26 29/29/29 30/30/30
f 26/26/26 30/30/30 31/31/31
f 32/32/32 31/31/31 30/30/30
f 30/30/30 29/29/29 33/33/33
f 34/34/34 33/33/33 29/29/29
f 37/37/37 36/36/36 35/35/35
f 38/38/38 35/35/35 36/36/36
f 38/38/38 36/36/36 39/39/39
f 42/42/42 41/41/41 40/40/40
f 41/41/41 43/43/43 40/40/40
f 44/44/44 43/43/43 41/41/41
f 44/44/44 45/45/45 43/43/43
f 46/46/46 43/43/43 45/45/45
f 40/40/40 43/43/43 47/47/47
f 47/47/47 48/48/48 40/40/40
f 40/40/40 48/48/48 49/49/49
f 52/52/52 51/51/51 50/50/50
f 50/50/50 53/53/53 52/52/52
f 54/54/54 53/53/53 50/50/50
f 55/55/55 54/54/54 50/50/50
f 56/56/56 53/53/53 54/54/54
f 57/57/57 56/56/56 54/54/54
f 53/53/53 56/56/56 58/58/58
f 59/59/59 58/58/58 56/56/56
f 62/62/62 61/61/61 60/60/60
f 63/63/63 60/60/60 61/61/61
f 63/63/63 61/61/61 64/64/64
f 64/64/64 61/61/61 65/65/65
f 66/66/66 63/63/63 64/64/64
f 67/67/67 66/66/66 64/64/64
f 70/70/70 69/69/69 68/68/68
f 69/69/69 71/71/71 68/68/68
f 71/71/71 72/72/72 68/68/68
f 75/75/75 74/74/74 73/73/73
f 74/74/74 76/76/76 73/73/73
f 76/76/76 77/77/77 73/73/73
f 77/77/77 78/78/78 73/73/73
f 78/78/78 79/79/79 73/73/73
f 80/80/80 79/79/79 78/78/78
f 81/81/81 79/79/79 80/80/80
f 79/79/79 82/82/82 73/73/73
f 82/82/82 83/83/83 73/73/73
f 86/86/86 85/85/85 84/84/84
f 87/87/87 84/84/84 85/85/85
f 85/85/85 88/88/88 87/87/87
f 91/91/91 90/90/90 89/89/89
f 89/89/89 90/90/90 92/92/92
f 90/90/90 93/93/93 92/92/92
f 93/93/93 94/94/94 92/92/92
f 94/94/94 95/95/95 92/92/92
f 96/96/96 93/93/93 90/90/90
f 97/97/97 96/96/96 90/90/90
f 98/98/98 97/97/97 90/90/90
f 99/99/99 98/98/98 90/90/90
f 100/100/100 97/97/97 98/98/98
f 101/101/101 98/98/98 99/99/99
f 102/102/102 98/98/98 101/101/101
f 103/103/103 100/100/100 98/98/98
f 104/104/104 103/103/103 98/98/98
f 107/107/107 106/106/106 105/105/105
f 105/105/105 106/106/106 108/108/108
f 106/106/106 109/109/109 108/108/108
f 109/109/109 110/110/110 108/108/108
f 108/108/108 110/110/110 111/111/111
f 110/110/110 112/112/112 111/111/111
f 112/112/112 113/113/113 111/111/111
f 116/116/116 115/115/115 114/114/114
f 115/115/115 117/117/117 114/114/114
f 114/114/114 117/117/117 118/118/118
f 117/117/117 119/119/119 118/118/118
f 122/122/122 121/121/121 120/120/120
f 121/121/121 123/123/123 120/120/120
f 123/123/123 124/124/124 120/120/120
f 125/125/125 123/123/123 121/121/121
f 126/126/126 125/125/125 121/121/121
f 129/129/129 128/128/128 127/127/127
f 127/127/127 128/128/128 130/130/130
f 130/130/130 128/128/128 131/131/131
f 128/128/128 132/132/132 131/131/131
f 131/131/131 132/132/132 133/133/133
f 133/133/133 132/132/132 134/134/134
f 135/135/135 132/132/132 128/128/128
f 136/136/136 135/135/135 128/128/128
f 132/132/132 137/137/137 134/134/134
f 134/134/134 137/137/137 138/138/138
