g Eff_Model_W1_Mecha01_05_2
v 0.04910026 3.051758E-06 0.07944587
v 0.05362289 7.400513E-05 0.08667896
v 0.1021892 -5.805969E-05 -7.381335E-05
v 0.09313476 -0.0002000427 4.704357E-09
v -0.04805275 -0.0001358032 0.07988121
v 0.05271439 -1.602173E-05 -0.08743366
v -0.05271431 -1.602173E-05 0.08743366
v 0.04805283 -0.0001358032 -0.07988121
v -0.09313492 -0.0002000427 4.704357E-09
v -0.05362282 7.400513E-05 -0.08667896
v -0.1021895 -5.805969E-05 7.382303E-05
v -0.04910019 3.051758E-06 -0.07944586
vt 0.7415972 0.5265928
vt 0.7415972 0.5265928
vt 0.734298 0.5
vt 0.734298 0.5
vt 0.7582763 0.5267901
vt 0.7417233 0.4732097
vt 0.7582763 0.5267901
vt 0.7417233 0.4732097
vt 0.7657018 0.4999999
vt 0.7584024 0.473407
vt 0.7657018 0.4999999
vt 0.7584024 0.473407
vn 0.01129908 -0.9999017 0.008311923
vn 0.01129908 -0.9999017 0.008311923
vn 0.01129908 -0.9999017 0.008311923
vn 0.01129908 -0.9999017 0.008311923
vn -0.01424909 -0.9998606 0.00869176
vn 0.01424924 -0.9998606 -0.008691787
vn -0.01424909 -0.9998606 0.00869176
vn 0.01424923 -0.9998606 -0.008691786
vn -0.01129897 -0.9999017 -0.008311899
vn -0.001200187 -0.999916 -0.01291028
vn -0.01129897 -0.9999017 -0.008311899
vn -0.001200187 -0.999916 -0.01291028
g Eff_Model_W1_Mecha01_05_2_0
f 3/3/3 2/2/2 1/1/1
f 4/4/4 3/3/3 1/1/1
f 1/1/1 2/2/2 5/5/5
f 6/6/6 3/3/3 4/4/4
f 2/2/2 7/7/7 5/5/5
f 8/8/8 6/6/6 4/4/4
f 5/5/5 7/7/7 9/9/9
f 10/10/10 6/6/6 8/8/8
f 7/7/7 11/11/11 9/9/9
f 12/12/12 10/10/10 8/8/8
f 9/9/9 11/11/11 12/12/12
f 11/11/11 10/10/10 12/12/12
