g Eff_Model_Player_M_Skill03_Weapon_02
v 0.02092089 -0.03625055 0.8347484
v -5.178214E-13 -0.04697526 0.8248545
v 2.83138E-13 -0.04185628 0.8347484
v 0.02348038 -0.04068369 0.8248545
v 0.03623606 -0.02093531 0.8347484
v 0.02178298 -0.03774351 0.7358023
v 1.776357E-17 -0.04358992 0.7358022
v -2.410951E-12 -0.03935774 0.6249722
v 0.0406692 -0.0234948 0.8248545
v 0.04184179 -1.449623E-05 0.8347484
v 0.01966099 -0.03406789 0.6249722
v -3.858434E-12 -0.03467497 0.5023429
v 0.04696076 -1.449631E-05 0.8248545
v 0.03623606 0.02090647 0.8347484
v 0.03772906 -0.02179729 0.7358021
v 0.01731334 -0.03000064 0.5023425
v -3.935634E-12 -0.02875816 0.3474781
v 0.0406692 0.02346596 0.8248545
v 0.02092089 0.03622156 0.8347484
v 0.03405343 -0.01967525 0.6249722
v 0.04356578 -1.449625E-05 0.7358021
v 0.01435709 -0.02414859 0.3474217
v 0.0141287 -0.02348731 0.3298365
v 0.02348031 0.0406547 0.8248545
v 1.415621E-12 0.04182729 0.8347484
v -3.107023E-12 0.04694627 0.8248544
v 0.03772906 0.02176845 0.7358022
v 0.02178283 0.03771457 0.7358022
v -7.713009E-12 0.04355124 0.7358022
v 0.02998637 -0.01732735 0.5023423
v 0.02484723 -0.01365493 0.3474213
v 0.02339748 -0.01250782 0.3037398
v 0.02631213 0.003031831 0.2742386
v 0.03932153 -1.449585E-05 0.6249722
v 0.01966072 0.03403904 0.6249722
v 1.776357E-17 0.03930701 0.6249722
v 0.03405343 0.01964625 0.6249722
v 0.0346254 -1.458813E-05 0.5023428
v 0.02869271 -1.950671E-05 0.3474237
v 0.02998647 0.01729823 0.5023429
v 0.01731268 0.02997196 0.5023429
v -3.856498E-12 0.03461089 0.5023429
v 0.02484818 0.01433266 0.3474248
v 0.02391169 0.01368855 0.3141126
v 0.01434698 0.02483376 0.3474251
v 7.715187E-12 0.0286738 0.3475097
v 0.01442363 0.02459424 0.3398455
v 2.83138E-13 -0.04185628 0.8347484
v 9.373048E-13 -1.449586E-05 0.8380982
v 0.02092089 -0.03625055 0.8347484
v 0.03623606 -0.02093531 0.8347484
v 0.04184179 -1.449623E-05 0.8347484
v 0.03623606 0.02090647 0.8347484
v 0.02092089 0.03622156 0.8347484
v 1.415621E-12 0.04182729 0.8347484
v -5.178214E-13 -0.04697526 0.8248545
v -0.02092089 -0.03625055 0.8347484
v 2.83138E-13 -0.04185628 0.8347484
v -0.02348038 -0.04068369 0.8248545
v -0.03623606 -0.02093531 0.8347484
v -0.02178298 -0.03774351 0.7358023
v 1.776357E-17 -0.04358992 0.7358022
v -2.410951E-12 -0.03935774 0.6249722
v -0.0406692 -0.0234948 0.8248545
v -0.04184179 -1.449623E-05 0.8347484
v -0.01966099 -0.03406789 0.6249722
v -3.858434E-12 -0.03467497 0.5023429
v -0.04696076 -1.449631E-05 0.8248545
v -0.03623606 0.02090647 0.8347484
v -0.03772906 -0.02179729 0.7358021
v -0.01731334 -0.03000064 0.5023425
v -3.935634E-12 -0.02875816 0.3474781
v -0.0406692 0.02346596 0.8248545
v -0.02092089 0.03622156 0.8347484
v -0.03405343 -0.01967525 0.6249722
v -0.04356578 -1.449625E-05 0.7358021
v -0.01435709 -0.02414859 0.3474217
v -0.0141287 -0.02348731 0.3298365
v -0.02348031 0.0406547 0.8248545
v 1.415621E-12 0.04182729 0.8347484
v -3.107023E-12 0.04694627 0.8248544
v -0.02998637 -0.01732735 0.5023423
v -0.02484723 -0.01365493 0.3474213
v -0.02339748 -0.01250782 0.3037398
v -0.02631213 0.003031831 0.2742386
v -0.03932153 -1.449585E-05 0.6249722
v -0.03772906 0.02176845 0.7358022
v -0.02178283 0.03771457 0.7358022
v -7.713009E-12 0.04355124 0.7358022
v -0.0346254 -1.458813E-05 0.5023428
v -0.03405343 0.01964625 0.6249722
v -0.01966072 0.03403904 0.6249722
v 1.776357E-17 0.03930701 0.6249722
v -0.02869271 -1.950671E-05 0.3474237
v -0.02998647 0.01729823 0.5023429
v -0.01731268 0.02997196 0.5023429
v -3.856498E-12 0.03461089 0.5023429
v -0.02484818 0.01433266 0.3474248
v -0.02391169 0.01368855 0.3141126
v -0.01434698 0.02483376 0.3474251
v 7.715187E-12 0.0286738 0.3475097
v -0.01442363 0.02459424 0.3398455
v 2.83138E-13 -0.04185628 0.8347484
v -0.02092089 -0.03625055 0.8347484
v 9.373048E-13 -1.449586E-05 0.8380982
v -0.03623606 -0.02093531 0.8347484
v -0.04184179 -1.449623E-05 0.8347484
v -0.03623606 0.02090647 0.8347484
v -0.02092089 0.03622156 0.8347484
v 1.415621E-12 0.04182729 0.8347484
vt 0.9866889 0.7551388
vt 0.962562 0.8665774
vt 0.9866889 0.8665774
vt 0.962562 0.7551388
vt 0.9866889 0.623794
vt 0.8100698 0.7551385
vt 0.8100698 0.8665774
vt 0.6200231 0.8665774
vt 0.962562 0.623794
vt 0.9866889 0.4918018
vt 0.6200231 0.7551385
vt 0.4097433 0.8665774
vt 0.962562 0.4918018
vt 0.9866889 0.3597898
vt 0.8100698 0.623794
vt 0.4097433 0.7551385
vt 0.1440917 0.8665774
vt 0.962562 0.3597898
vt 0.9866889 0.2284216
vt 0.6200231 0.623794
vt 0.8100698 0.4918015
vt 0.1440917 0.7551383
vt 0.1132019 0.7533993
vt 0.962562 0.2284216
vt 0.9866889 0.09897177
vt 0.962562 0.09897177
vt 0.8101093 0.3605623
vt 0.8100698 0.2284216
vt 0.8100698 0.09897177
vt 0.4097433 0.6237938
vt 0.1440917 0.6237938
vt 0.07166822 0.6290725
vt 0.03352055 0.4887254
vt 0.6200231 0.4918015
vt 0.6200231 0.2284216
vt 0.6200231 0.09897177
vt 0.6201116 0.3615252
vt 0.4097433 0.4918015
vt 0.1440917 0.4918012
vt 0.4098861 0.3625903
vt 0.4097433 0.2284216
vt 0.4097433 0.09897177
vt 0.1443032 0.3639361
vt 0.08648438 0.4128751
vt 0.1440917 0.2284216
vt 0.1440917 0.09897177
vt 0.131856 0.2511306
vt 0.03576128 0.3901299
vt 0.06495504 0.1159895
vt 0.02252676 0.304487
vt 0.01643429 0.2096175
vt 0.01491225 0.1121233
vt 0.01729911 0.01520819
vt 0.02413118 -0.07754104
vt 0.03763412 -0.1580595
vt 0.962562 0.8665774
vt 0.9866889 0.7551388
vt 0.9866889 0.8665774
vt 0.962562 0.7551388
vt 0.9866889 0.623794
vt 0.8100698 0.7551385
vt 0.8100698 0.8665774
vt 0.6200231 0.8665774
vt 0.962562 0.623794
vt 0.9866889 0.4918018
vt 0.6200231 0.7551385
vt 0.4097433 0.8665774
vt 0.962562 0.4918018
vt 0.9866889 0.3597898
vt 0.8100698 0.623794
vt 0.4097433 0.7551385
vt 0.1440917 0.8665774
vt 0.962562 0.3597898
vt 0.9866889 0.2284216
vt 0.6200231 0.623794
vt 0.8100698 0.4918015
vt 0.1440917 0.7551383
vt 0.1132019 0.7533993
vt 0.962562 0.2284216
vt 0.9866889 0.09897177
vt 0.962562 0.09897177
vt 0.4097433 0.6237938
vt 0.1440917 0.6237938
vt 0.07166822 0.6290725
vt 0.03352055 0.4887254
vt 0.6200231 0.4918015
vt 0.8101093 0.3605623
vt 0.8100698 0.2284216
vt 0.8100698 0.09897177
vt 0.4097433 0.4918015
vt 0.6201116 0.3615252
vt 0.6200231 0.2284216
vt 0.6200231 0.09897177
vt 0.1440917 0.4918012
vt 0.4098861 0.3625903
vt 0.4097433 0.2284216
vt 0.4097433 0.09897177
vt 0.1443032 0.3639361
vt 0.08648438 0.4128751
vt 0.1440917 0.2284216
vt 0.1440917 0.09897177
vt 0.131856 0.2511306
vt 0.03576128 0.3901299
vt 0.02252676 0.304487
vt 0.06495504 0.1159895
vt 0.01643429 0.2096175
vt 0.01491225 0.1121233
vt 0.01729911 0.01520819
vt 0.02413118 -0.07754104
vt 0.03763412 -0.1580595
vn 0.2361591 -0.4090349 0.8814303
vn 0 -0.9999355 0.0113587
vn 5.914586E-07 -0.4723134 0.8814307
vn 0.5000428 -0.8659264 0.01133511
vn 0.4090353 -0.2361562 0.8814308
vn 0.4998255 -0.8652816 -0.03823738
vn 0 -0.9992694 -0.03821751
vn 0 -0.9992692 -0.03822371
vn 0.8659699 -0.4999681 0.01131196
vn 0.4723126 0 0.8814311
vn 0.5000681 -0.8651416 -0.03823429
vn 0 -0.9992187 -0.03952225
vn 0.999936 0 0.01131203
vn 0.4090346 0.2361576 0.8814308
vn 0.8653911 -0.4996336 -0.03826698
vn 0.5046332 -0.8624244 -0.03961676
vn 0 -0.9991732 -0.0406547
vn 0.8659692 0.4999695 0.01131192
vn 0.2361572 0.4090365 0.8814301
vn 0.8653914 -0.4996332 -0.03826696
vn 0.9992675 0 -0.03826718
vn 0.5223347 -0.8517653 -0.04077266
vn 0.6853039 -0.7272021 -0.03918802
vn 0.4999668 0.8659706 0.011312
vn 5.879486E-07 0.4723144 0.8814301
vn 0 0.9999361 0.01131166
vn 0.8653905 0.4996347 -0.03826716
vn 0.4996329 0.8653916 -0.03826701
vn 0 0.9992675 -0.03826695
vn 0.8637147 -0.5024481 -0.03927748
vn 0.8637682 -0.5022632 -0.04044906
vn 0.9332818 -0.3569158 -0.03995287
vn 0.9981695 -0.04969911 -0.03446088
vn 0.9992675 0 -0.03826714
vn 0.499633 0.8653914 -0.03826715
vn 0 0.9992675 -0.03826707
vn 0.8653909 0.4996341 -0.03826717
vn 0.9992608 0 -0.03844084
vn 0.9992946 -0.001181759 -0.03753299
vn 0.8653908 0.4996343 -0.03826734
vn 0.4996334 0.8653914 -0.03826751
vn 0 0.9992675 -0.03826758
vn 0.8701758 0.4913871 -0.03650838
vn 0.9033063 0.4277285 -0.03295713
vn 0.5101277 0.8592702 -0.03774312
vn 0 0.9992711 -0.03817464
vn 0.6858023 0.7271701 -0.02998032
vn 5.914586E-07 -0.4723134 0.8814307
vn 2.961513E-07 0 1
vn 0.2361591 -0.4090349 0.8814303
vn 0.4090353 -0.2361562 0.8814308
vn 0.4723126 0 0.8814311
vn 0.4090346 0.2361576 0.8814308
vn 0.2361572 0.4090365 0.8814301
vn 5.879486E-07 0.4723144 0.8814301
vn 0 -0.9999355 0.0113587
vn -0.2361578 -0.4090351 0.8814306
vn 5.914586E-07 -0.4723134 0.8814307
vn -0.5000427 -0.8659266 0.01133516
vn -0.4090348 -0.2361565 0.881431
vn -0.4998255 -0.8652816 -0.03823738
vn 0 -0.9992694 -0.03821751
vn 0 -0.9992692 -0.03822371
vn -0.8659698 -0.4999683 0.01131204
vn -0.4723126 0 0.8814311
vn -0.500068 -0.8651416 -0.0382343
vn 0 -0.9992187 -0.03952225
vn -0.999936 -1.117329E-07 0.01131209
vn -0.4090351 0.2361574 0.8814306
vn -0.8653911 -0.4996337 -0.03826698
vn -0.5046332 -0.8624244 -0.03961677
vn 0 -0.9991732 -0.0406547
vn -0.8659691 0.4999696 0.0113119
vn -0.2361574 0.4090363 0.8814301
vn -0.8653914 -0.4996333 -0.03826696
vn -0.9992675 0 -0.03826718
vn -0.5223346 -0.8517653 -0.04077265
vn -0.6853039 -0.7272021 -0.03918801
vn -0.4999668 0.8659706 0.01131194
vn 5.879486E-07 0.4723144 0.8814301
vn 0 0.9999361 0.01131166
vn -0.8637147 -0.5024481 -0.03927748
vn -0.8637682 -0.5022632 -0.04044907
vn -0.9332818 -0.3569159 -0.03995287
vn -0.9981695 -0.04969909 -0.03446088
vn -0.9992675 0 -0.03826715
vn -0.8653905 0.4996348 -0.03826716
vn -0.4996327 0.8653916 -0.03826701
vn 0 0.9992675 -0.03826695
vn -0.9992608 1.575236E-07 -0.03844085
vn -0.8653908 0.4996342 -0.03826718
vn -0.499633 0.8653916 -0.03826715
vn 0 0.9992675 -0.03826707
vn -0.9992946 -0.001181654 -0.03753299
vn -0.8653907 0.4996344 -0.03826734
vn -0.4996333 0.8653914 -0.03826751
vn 0 0.9992675 -0.03826758
vn -0.8701758 0.4913871 -0.03650838
vn -0.9033064 0.4277282 -0.03295709
vn -0.5101277 0.8592702 -0.03774312
vn 0 0.9992711 -0.03817464
vn -0.6858022 0.7271702 -0.02998033
vn 5.914586E-07 -0.4723134 0.8814307
vn -0.2361578 -0.4090351 0.8814306
vn 2.961513E-07 0 1
vn -0.4090348 -0.2361565 0.881431
vn -0.4723126 0 0.8814311
vn -0.4090351 0.2361574 0.8814306
vn -0.2361574 0.4090363 0.8814301
vn 5.879486E-07 0.4723144 0.8814301
g Eff_Model_Player_M_Skill03_Weapon_02_0
f 3/3/3 2/2/2 1/1/1
f 4/4/4 1/1/1 2/2/2
f 1/1/1 4/4/4 5/5/5
f 4/4/4 2/2/2 6/6/6
f 7/7/7 6/6/6 2/2/2
f 7/7/7 8/8/8 6/6/6
f 9/9/9 5/5/5 4/4/4
f 4/4/4 6/6/6 9/9/9
f 5/5/5 9/9/9 10/10/10
f 11/11/11 6/6/6 8/8/8
f 8/8/8 12/12/12 11/11/11
f 13/13/13 10/10/10 9/9/9
f 10/10/10 13/13/13 14/14/14
f 15/15/15 9/9/9 6/6/6
f 6/6/6 11/11/11 15/15/15
f 9/9/9 15/15/15 13/13/13
f 16/16/16 11/11/11 12/12/12
f 12/12/12 17/17/17 16/16/16
f 18/18/18 14/14/14 13/13/13
f 14/14/14 18/18/18 19/19/19
f 20/20/20 15/15/15 11/11/11
f 11/11/11 16/16/16 20/20/20
f 21/21/21 13/13/13 15/15/15
f 13/13/13 21/21/21 18/18/18
f 15/15/15 20/20/20 21/21/21
f 22/22/22 16/16/16 17/17/17
f 17/17/17 23/23/23 22/22/22
f 24/24/24 19/19/19 18/18/18
f 19/19/19 24/24/24 25/25/25
f 26/26/26 25/25/25 24/24/24
f 27/27/27 18/18/18 21/21/21
f 18/18/18 27/27/27 24/24/24
f 24/24/24 28/28/28 26/26/26
f 28/28/28 24/24/24 27/27/27
f 29/29/29 26/26/26 28/28/28
f 30/30/30 20/20/20 16/16/16
f 16/16/16 22/22/22 30/30/30
f 22/22/22 23/23/23 31/31/31
f 31/31/31 30/30/30 22/22/22
f 32/32/32 31/31/31 23/23/23
f 31/31/31 32/32/32 33/33/33
f 34/34/34 21/21/21 20/20/20
f 21/21/21 34/34/34 27/27/27
f 20/20/20 30/30/30 34/34/34
f 28/28/28 35/35/35 29/29/29
f 36/36/36 29/29/29 35/35/35
f 27/27/27 37/37/37 28/28/28
f 37/37/37 27/27/27 34/34/34
f 35/35/35 28/28/28 37/37/37
f 38/38/38 34/34/34 30/30/30
f 30/30/30 31/31/31 38/38/38
f 34/34/34 38/38/38 37/37/37
f 31/31/31 33/33/33 39/39/39
f 39/39/39 38/38/38 31/31/31
f 40/40/40 37/37/37 38/38/38
f 37/37/37 40/40/40 35/35/35
f 38/38/38 39/39/39 40/40/40
f 35/35/35 41/41/41 36/36/36
f 41/41/41 35/35/35 40/40/40
f 42/42/42 36/36/36 41/41/41
f 43/43/43 39/39/39 33/33/33
f 43/43/43 40/40/40 39/39/39
f 40/40/40 43/43/43 41/41/41
f 44/44/44 43/43/43 33/33/33
f 41/41/41 45/45/45 42/42/42
f 45/45/45 41/41/41 43/43/43
f 43/43/43 44/44/44 45/45/45
f 46/46/46 42/42/42 45/45/45
f 47/47/47 45/45/45 44/44/44
f 46/46/46 45/45/45 47/47/47
f 50/50/50 49/49/49 48/48/48
f 51/51/51 49/49/49 50/50/50
f 52/52/52 49/49/49 51/51/51
f 53/53/53 49/49/49 52/52/52
f 54/54/54 49/49/49 53/53/53
f 55/55/55 49/49/49 54/54/54
f 58/58/58 57/57/57 56/56/56
f 59/59/59 56/56/56 57/57/57
f 57/57/57 60/60/60 59/59/59
f 59/59/59 61/61/61 56/56/56
f 62/62/62 56/56/56 61/61/61
f 62/62/62 61/61/61 63/63/63
f 64/64/64 59/59/59 60/60/60
f 59/59/59 64/64/64 61/61/61
f 60/60/60 65/65/65 64/64/64
f 66/66/66 63/63/63 61/61/61
f 63/63/63 66/66/66 67/67/67
f 68/68/68 64/64/64 65/65/65
f 65/65/65 69/69/69 68/68/68
f 70/70/70 61/61/61 64/64/64
f 61/61/61 70/70/70 66/66/66
f 64/64/64 68/68/68 70/70/70
f 71/71/71 67/67/67 66/66/66
f 67/67/67 71/71/71 72/72/72
f 73/73/73 68/68/68 69/69/69
f 69/69/69 74/74/74 73/73/73
f 75/75/75 66/66/66 70/70/70
f 66/66/66 75/75/75 71/71/71
f 76/76/76 70/70/70 68/68/68
f 68/68/68 73/73/73 76/76/76
f 70/70/70 76/76/76 75/75/75
f 77/77/77 72/72/72 71/71/71
f 78/78/78 72/72/72 77/77/77
f 79/79/79 73/73/73 74/74/74
f 74/74/74 80/80/80 79/79/79
f 81/81/81 79/79/79 80/80/80
f 82/82/82 71/71/71 75/75/75
f 71/71/71 82/82/82 77/77/77
f 77/77/77 83/83/83 78/78/78
f 83/83/83 77/77/77 82/82/82
f 84/84/84 78/78/78 83/83/83
f 84/84/84 83/83/83 85/85/85
f 86/86/86 75/75/75 76/76/76
f 75/75/75 86/86/86 82/82/82
f 87/87/87 76/76/76 73/73/73
f 73/73/73 79/79/79 87/87/87
f 76/76/76 87/87/87 86/86/86
f 79/79/79 81/81/81 88/88/88
f 88/88/88 87/87/87 79/79/79
f 89/89/89 88/88/88 81/81/81
f 82/82/82 90/90/90 83/83/83
f 90/90/90 82/82/82 86/86/86
f 91/91/91 86/86/86 87/87/87
f 87/87/87 88/88/88 91/91/91
f 86/86/86 91/91/91 90/90/90
f 88/88/88 89/89/89 92/92/92
f 92/92/92 91/91/91 88/88/88
f 93/93/93 92/92/92 89/89/89
f 94/94/94 83/83/83 90/90/90
f 85/85/85 83/83/83 94/94/94
f 95/95/95 90/90/90 91/91/91
f 91/91/91 92/92/92 95/95/95
f 90/90/90 95/95/95 94/94/94
f 92/92/92 93/93/93 96/96/96
f 96/96/96 95/95/95 92/92/92
f 97/97/97 96/96/96 93/93/93
f 94/94/94 98/98/98 85/85/85
f 98/98/98 94/94/94 95/95/95
f 95/95/95 96/96/96 98/98/98
f 98/98/98 99/99/99 85/85/85
f 96/96/96 97/97/97 100/100/100
f 100/100/100 98/98/98 96/96/96
f 98/98/98 100/100/100 99/99/99
f 101/101/101 100/100/100 97/97/97
f 102/102/102 99/99/99 100/100/100
f 100/100/100 101/101/101 102/102/102
f 105/105/105 104/104/104 103/103/103
f 105/105/105 106/106/106 104/104/104
f 105/105/105 107/107/107 106/106/106
f 105/105/105 108/108/108 107/107/107
f 105/105/105 109/109/109 108/108/108
f 105/105/105 110/110/110 109/109/109
