g Eff_Model_Player_M_Skill02_01_6
v -0.05165233 -0.1051185 -0.002392265
v -0.01438938 -0.07845068 -0.01949873
v -0.0507981 -0.1051185 -0.003345858
v -0.01755841 -0.07845068 -0.01685131
v -0.05250655 -0.1051185 -0.001686156
v -0.03060749 -0.06865717 0.01469745
v -0.02072745 -0.07845066 -0.01489096
v -0.05336078 -0.1051185 -0.002392265
v -0.03293673 -0.06865717 0.01734488
v 0.01664826 -0.06080621 -0.001342574
v -0.02389647 -0.07845068 -0.01685131
v -0.05421499 -0.1051185 -0.003345858
v -0.02706551 -0.07845068 -0.01949873
v -0.03526596 -0.06865717 0.01930522
v -0.03759519 -0.06865717 0.01734488
v -0.03992443 -0.06865717 0.01469745
v 0.01407678 -0.06080623 0.001304853
v 0.008933821 -0.06080623 0.001304853
v 0.00636234 -0.06080621 -0.001342574
v 0.02680635 -0.03614563 -0.02604125
v 0.0115053 -0.0608062 0.003265198
v 0.0321784 -0.03614563 -0.02374871
v 0.05188875 0.001277447 0.02143347
v 0.04292252 -0.03614563 -0.02374871
v 0.04829456 -0.03614563 -0.02604125
v 0.03755045 -0.03614563 -0.02205114
v 0.05419212 0.001277447 0.0240809
v 0.05879886 0.001277447 0.0240809
v 0.06110224 0.001277447 0.02143347
v 0.05446245 0.02570214 0.003068581
v 0.0564955 0.001277456 0.02604125
v 0.04892283 0.02570214 0.00542023
v 0.03556963 0.0644339 -0.0154415
v 0.0378436 0.02570214 0.00542023
v 0.03230397 0.02570214 0.003068581
v 0.04338321 0.02570214 0.007161559
v 0.03271978 0.0644339 -0.01390732
v -0.02579517 0.08240868 0.01709523
v 0.02702008 0.0644339 -0.01390732
v 0.02417024 0.0644339 -0.0154415
v -0.04025291 0.08240868 0.01709523
v 0.02986994 0.0644339 -0.01277129
v -0.02940961 0.08240868 0.01974266
v -0.05896198 0.1051185 -5.232692E-06
v -0.05949705 0.1051185 -5.232692E-06
v -0.03663848 0.08240868 0.01974266
v -0.06110225 0.1051185 -5.232692E-06
v -0.06056718 0.1051185 -5.232692E-06
v -0.03302404 0.08240868 0.021703
v -0.06003211 0.1051185 -5.232692E-06
vt 0.75 0
vt 1 0.0625
vt 1 0
vt 0.75 0.0625
vt 0.5 0
vt 1 0.125
vt 0.5 0.0625
vt 0.25 0
vt 0.75 0.125
vt 1 0.25
vt 0.25 0.0625
vt 0 0
vt 0 0.0625
vt 0.5 0.125
vt 0.25 0.125
vt 0 0.125
vt 0.75 0.25
vt 0.25 0.25
vt 0 0.25
vt 0 0.375
vt 0.5 0.25
vt 0.25 0.375
vt 0 0.5
vt 0.75 0.375
vt 1 0.375
vt 0.5 0.375
vt 0.25 0.5
vt 0.75 0.5
vt 1 0.5
vt 1 0.625
vt 0.5 0.5
vt 0.75 0.625
vt 1 0.75
vt 0.25 0.625
vt 0 0.625
vt 0.5 0.625
vt 0.75 0.75
vt 1 0.875
vt 0.25 0.75
vt 0 0.75
vt 0 0.875
vt 0.5 0.75
vt 0.75 0.875
vt 1 1
vt 0.75 1
vt 0.25 0.875
vt 0 1
vt 0.25 1
vt 0.5 0.875
vt 0.5 1
vn 0 0 1
vn 0 0 1
vn 0 0 1
vn 0 0 1
vn 0 0 1
vn 0 0 1
vn 0 0 1
vn 0 0 1
vn 0 0 1
vn 0 0 1
vn 0 0 1
vn 0 0 1
vn 0 0 1
vn 0 0 1
vn 0 0 1
vn 0 0 1
vn 0 0 1
vn 0 0 1
vn 0 0 1
vn 0 0 1
vn 0 0 1
vn 0 0 1
vn 0 0 1
vn 0 0 1
vn 0 0 1
vn 0 0 1
vn 0 0 1
vn 0 0 1
vn 0 0 1
vn 0 0 1
vn 0 0 1
vn 0 0 1
vn 0 0 1
vn 0 0 1
vn 0 0 1
vn 0 0 1
vn 0 0 1
vn 0 0 1
vn 0 0 1
vn 0 0 1
vn 0 0 1
vn 0 0 1
vn 0 0 1
vn 0 0 1
vn 0 0 1
vn 0 0 1
vn 0 0 1
vn 0 0 1
vn 0 0 1
vn 0 0 1
g Eff_Model_Player_M_Skill02_01_6_0
f 3/3/3 2/2/2 1/1/1
f 2/2/2 4/4/4 1/1/1
f 1/1/1 4/4/4 5/5/5
f 2/2/2 6/6/6 4/4/4
f 4/4/4 7/7/7 5/5/5
f 5/5/5 7/7/7 8/8/8
f 6/6/6 9/9/9 4/4/4
f 4/4/4 9/9/9 7/7/7
f 6/6/6 10/10/10 9/9/9
f 7/7/7 11/11/11 8/8/8
f 8/8/8 11/11/11 12/12/12
f 11/11/11 13/13/13 12/12/12
f 9/9/9 14/14/14 7/7/7
f 7/7/7 14/14/14 11/11/11
f 11/11/11 15/15/15 13/13/13
f 14/14/14 15/15/15 11/11/11
f 15/15/15 16/16/16 13/13/13
f 10/10/10 17/17/17 9/9/9
f 9/9/9 17/17/17 14/14/14
f 15/15/15 18/18/18 16/16/16
f 18/18/18 19/19/19 16/16/16
f 19/19/19 18/18/18 20/20/20
f 14/14/14 21/21/21 15/15/15
f 21/21/21 18/18/18 15/15/15
f 17/17/17 21/21/21 14/14/14
f 18/18/18 22/22/22 20/20/20
f 18/18/18 21/21/21 22/22/22
f 20/20/20 22/22/22 23/23/23
f 17/17/17 10/10/10 24/24/24
f 10/10/10 25/25/25 24/24/24
f 21/21/21 17/17/17 26/26/26
f 21/21/21 26/26/26 22/22/22
f 17/17/17 24/24/24 26/26/26
f 22/22/22 27/27/27 23/23/23
f 22/22/22 26/26/26 27/27/27
f 24/24/24 25/25/25 28/28/28
f 25/25/25 29/29/29 28/28/28
f 29/29/29 30/30/30 28/28/28
f 26/26/26 24/24/24 31/31/31
f 24/24/24 28/28/28 31/31/31
f 26/26/26 31/31/31 27/27/27
f 30/30/30 32/32/32 28/28/28
f 28/28/28 32/32/32 31/31/31
f 30/30/30 33/33/33 32/32/32
f 27/27/27 34/34/34 23/23/23
f 34/34/34 35/35/35 23/23/23
f 31/31/31 36/36/36 27/27/27
f 32/32/32 36/36/36 31/31/31
f 36/36/36 34/34/34 27/27/27
f 33/33/33 37/37/37 32/32/32
f 32/32/32 37/37/37 36/36/36
f 33/33/33 38/38/38 37/37/37
f 34/34/34 39/39/39 35/35/35
f 39/39/39 40/40/40 35/35/35
f 40/40/40 39/39/39 41/41/41
f 36/36/36 42/42/42 34/34/34
f 37/37/37 42/42/42 36/36/36
f 42/42/42 39/39/39 34/34/34
f 38/38/38 43/43/43 37/37/37
f 37/37/37 43/43/43 42/42/42
f 38/38/38 44/44/44 43/43/43
f 44/44/44 45/45/45 43/43/43
f 39/39/39 46/46/46 41/41/41
f 39/39/39 42/42/42 46/46/46
f 41/41/41 46/46/46 47/47/47
f 46/46/46 48/48/48 47/47/47
f 43/43/43 45/45/45 49/49/49
f 43/43/43 49/49/49 42/42/42
f 42/42/42 49/49/49 46/46/46
f 46/46/46 49/49/49 48/48/48
f 45/45/45 50/50/50 49/49/49
f 49/49/49 50/50/50 48/48/48
