g Eff_Model_Plan_01
v 0.05218718 -0.0390966 -0.007568813
v 0.04934676 -0.03910667 -0.01067977
v 0.05140273 -0.03898961 -0.009230038
v -0.05215451 -0.0390966 -0.007568813
v -0.05137006 -0.03898961 -0.009230038
v -0.04931409 -0.03910667 -0.01067977
v 0.01986586 -0.04878583 0.01033143
v 0.03633437 -0.04622789 0.01121582
v 0.02810011 -0.04750687 0.01097443
v 0.009883408 -0.04775848 0.0008667034
v 0.01000685 -0.04880338 0.00477158
v 0.01456633 -0.04906982 0.00915604
v 0.01000685 -0.04880338 0.00477158
v 0.01986586 -0.04878583 0.01033143
v 0.01153899 -0.04897492 0.007324223
v 0.01249556 -0.04668217 -0.007119899
v 0.03633437 -0.04622789 0.01121582
v 0.009883408 -0.04775848 0.0008667034
v 0.04456847 -0.04494893 0.01121308
v 0.01249556 -0.04668217 -0.007119899
v 0.05280272 -0.04366996 0.01041626
v 0.01443053 -0.0458169 -0.009164729
v 0.01699049 -0.04516614 -0.01011642
v 0.05280272 -0.04366996 0.01041626
v 0.05574614 -0.04223656 0.009539341
v 0.01699049 -0.04516614 -0.01011642
v 0.05635374 -0.0413852 0.006973575
v 0.05574614 -0.04223656 0.009539341
v 0.02643462 -0.04349772 -0.01140228
v 0.03979949 -0.04118898 -0.01166809
v 0.05635374 -0.0413852 0.006973575
v 0.05586043 -0.04087346 0.003732761
v 0.05218718 -0.0390966 -0.007568813
v 0.05586043 -0.04087346 0.003732761
v 0.04934676 -0.03910667 -0.01067977
v -0.0198332 -0.04878583 0.01033143
v -0.009850745 -0.04775848 0.0008667034
v -0.009974188 -0.04880338 0.00477158
v -0.0363017 -0.04622789 0.01121582
v -0.02806745 -0.04750687 0.01097443
v -0.009974188 -0.04880338 0.00477158
v -0.01453367 -0.04906982 0.00915604
v -0.0198332 -0.04878583 0.01033143
v -0.01150632 -0.04897492 0.007324223
v -0.0363017 -0.04622789 0.01121582
v -0.0124629 -0.04668217 -0.007119899
v -0.009850745 -0.04775848 0.0008667034
v -0.0445358 -0.04494893 0.01121308
v -0.05277006 -0.04366996 0.01041626
v -0.0124629 -0.04668217 -0.007119899
v -0.01439786 -0.0458169 -0.009164729
v -0.05277006 -0.04366996 0.01041626
v -0.01695783 -0.04516614 -0.01011642
v -0.05571347 -0.04223656 0.009539341
v -0.05632108 -0.0413852 0.006973575
v -0.01695783 -0.04516614 -0.01011642
v -0.05571347 -0.04223656 0.009539341
v -0.02640195 -0.04349772 -0.01140228
v -0.05632108 -0.0413852 0.006973575
v -0.03976682 -0.04118898 -0.01166809
v -0.05582776 -0.04087346 0.003732761
v -0.05215451 -0.0390966 -0.007568813
v -0.05582776 -0.04087346 0.003732761
v -0.04931409 -0.03910667 -0.01067977
vt 0.9537229 0.1791334
vt 0.9227158 0.0431881
vt 0.9451596 0.1065398
vt 0.04486886 0.1764544
vt 0.05304935 0.1038608
vt 0.07448948 0.04050906
vt 0.6008915 0.9613528
vt 0.7806677 1
vt 0.6907796 0.9894514
vt 0.4919194 0.5477556
vt 0.4932669 0.7183942
vt 0.5430399 0.9099899
vt 0.4932669 0.7183942
vt 0.6008915 0.9613528
vt 0.5099922 0.8299416
vt 0.5204346 0.1987505
vt 0.7806677 1
vt 0.4919194 0.5477556
vt 0.8705541 0.99988
vt 0.5204346 0.1987505
vt 0.9604424 0.9650601
vt 0.5415574 0.1093938
vt 0.5695029 0.06780601
vt 0.9604424 0.9650601
vt 0.9925739 0.9267397
vt 0.5695029 0.06780601
vt 0.9992067 0.8146187
vt 0.9925739 0.9267397
vt 0.6725984 0.01161551
vt 0.8184943 0
vt 0.9992067 0.8146187
vt 0.9938214 0.672999
vt 0.9537229 0.1791334
vt 0.9938214 0.672999
vt 0.9227158 0.0431881
vt 0.3819233 0.9586738
vt 0.4860227 0.5450765
vt 0.4847354 0.7157151
vt 0.2101858 0.997321
vt 0.2960545 0.9867724
vt 0.4847354 0.7157151
vt 0.437188 0.9073108
vt 0.3819233 0.9586738
vt 0.4687579 0.8272626
vt 0.2101858 0.997321
vt 0.4587826 0.1960714
vt 0.4860227 0.5450765
vt 0.1243186 0.9972009
vt 0.03844986 0.9623811
vt 0.4587826 0.1960714
vt 0.4386042 0.1067148
vt 0.03844986 0.9623811
vt 0.4119083 0.06512697
vt 0.007755181 0.9240606
vt 0.001418933 0.8119397
vt 0.4119083 0.06512697
vt 0.007755181 0.9240606
vt 0.3134227 0.008936483
vt 0.001418933 0.8119397
vt 0.1740507 -0.002679032
vt 0.006563352 0.6703199
vt 0.04486886 0.1764544
vt 0.006563352 0.6703199
vt 0.07448948 0.04050906
vn -0.150297 0.97951 0.1340559
vn -0.150297 0.97951 0.1340559
vn -0.150297 0.97951 0.1340559
vn 0.1502971 0.97951 0.1340559
vn 0.1502971 0.97951 0.1340559
vn 0.1502971 0.97951 0.1340559
vn -0.1534858 0.9881508 5.877443E-05
vn -0.1534858 0.9881508 5.877443E-05
vn -0.1534859 0.9881508 5.877443E-05
vn -0.1619576 0.948074 0.2737252
vn -0.1483249 0.954147 0.2600061
vn -0.0145847 0.9970197 0.07575547
vn -0.0145847 0.9970197 0.07575548
vn -0.08587061 0.9850773 0.1491612
vn -0.0145847 0.9970197 0.07575547
vn -0.1511306 0.9733689 0.1723735
vn -0.1511306 0.9733689 0.1723735
vn -0.0970729 0.9900699 0.1016777
vn -0.1511306 0.9733689 0.1723735
vn -0.1751367 0.9552263 0.2384741
vn -0.1751367 0.9552263 0.2384741
vn -0.1751367 0.9552263 0.2384741
vn -0.2856649 0.8533739 0.4360603
vn -0.2856649 0.8533739 0.4360603
vn -0.2856649 0.8533739 0.4360603
vn -0.1540098 0.9783449 0.138283
vn -0.1540098 0.9783449 0.138283
vn -0.2051903 0.9424115 0.2641164
vn -0.1540098 0.9783449 0.138283
vn -0.1931271 0.9642121 0.1816505
vn -0.1931271 0.9642121 0.1816505
vn -0.1931271 0.9642121 0.1816505
vn -0.2288262 0.9514545 0.2058468
vn -0.2341559 0.9458487 0.2248141
vn -0.2288262 0.9514545 0.2058468
vn 0.1534859 0.9881508 5.877444E-05
vn 0.1619576 0.948074 0.2737252
vn 0.1483249 0.954147 0.260006
vn 0.1534859 0.9881508 5.877444E-05
vn 0.1534859 0.9881508 5.877444E-05
vn 0.0145847 0.9970197 0.07575548
vn 0.0145847 0.9970197 0.07575547
vn 0.08587062 0.9850773 0.1491612
vn 0.0145847 0.9970197 0.07575547
vn 0.1511306 0.9733689 0.1723735
vn 0.1511306 0.9733689 0.1723735
vn 0.0970729 0.9900699 0.1016777
vn 0.1511306 0.9733689 0.1723735
vn 0.1751367 0.9552263 0.2384741
vn 0.1751367 0.9552263 0.2384741
vn 0.1751367 0.9552263 0.2384741
vn 0.2856649 0.8533739 0.4360602
vn 0.2856649 0.8533739 0.4360602
vn 0.2856649 0.8533739 0.4360602
vn 0.1540098 0.9783449 0.138283
vn 0.1540098 0.9783449 0.138283
vn 0.2051903 0.9424115 0.2641164
vn 0.1540098 0.9783449 0.138283
vn 0.1931271 0.9642121 0.1816505
vn 0.1931271 0.9642121 0.1816505
vn 0.1931271 0.9642121 0.1816505
vn 0.2288262 0.9514545 0.2058468
vn 0.2341559 0.9458487 0.2248141
vn 0.2288262 0.9514545 0.2058468
g Eff_Model_Plan_01_0
f 3/3/3 2/2/2 1/1/1
f 6/6/6 5/5/5 4/4/4
f 9/9/9 8/8/8 7/7/7
f 8/8/8 10/10/10 7/7/7
f 10/10/10 11/11/11 7/7/7
f 14/14/14 13/13/13 12/12/12
f 15/15/15 12/12/12 13/13/13
f 18/18/18 17/17/17 16/16/16
f 19/19/19 16/16/16 17/17/17
f 19/19/19 21/21/21 20/20/20
f 22/22/22 20/20/20 21/21/21
f 22/22/22 24/24/24 23/23/23
f 25/25/25 23/23/23 24/24/24
f 28/28/28 27/27/27 26/26/26
f 29/29/29 26/26/26 27/27/27
f 29/29/29 31/31/31 30/30/30
f 32/32/32 30/30/30 31/31/31
f 34/34/34 33/33/33 30/30/30
f 35/35/35 30/30/30 33/33/33
f 38/38/38 37/37/37 36/36/36
f 37/37/37 39/39/39 36/36/36
f 39/39/39 40/40/40 36/36/36
f 43/43/43 42/42/42 41/41/41
f 44/44/44 41/41/41 42/42/42
f 47/47/47 46/46/46 45/45/45
f 48/48/48 45/45/45 46/46/46
f 48/48/48 50/50/50 49/49/49
f 51/51/51 49/49/49 50/50/50
f 51/51/51 53/53/53 52/52/52
f 54/54/54 52/52/52 53/53/53
f 57/57/57 56/56/56 55/55/55
f 58/58/58 55/55/55 56/56/56
f 58/58/58 60/60/60 59/59/59
f 61/61/61 59/59/59 60/60/60
f 63/63/63 60/60/60 62/62/62
f 64/64/64 62/62/62 60/60/60
