g Eff_Model_Player_M_Skill03_Stone_04
v 0.04012001 -0.02398758 -0.01073716
v 0.04012 -0.02398758 -0.003091661
v 0.02960316 -0.02483879 -0.007919163
v 0.03040651 -0.02654304 -0.008134423
v 0.04128928 -0.02557961 -0.003111673
v 0.0412893 -0.02557961 -0.01105047
v 0.03022484 -0.0255796 -0.03021457
v 0.01846819 -0.02213592 -0.0390262
v 0.01876914 -0.0255796 -0.03682852
v 0.03423987 -0.01480384 -0.03422968
v 0.01782741 -0.01480377 -0.04370546
v 0.03022484 -0.0255796 -0.03021457
v 0.04677402 -0.01480385 -0.01252011
v 0.03423987 -0.01480384 -0.03422968
v 0.0412893 -0.02557961 -0.01105047
v 0.04677402 -0.01480385 -0.01252011
v 0.04375341 -0.02073845 -0.000448353
v 0.04677402 -0.01480385 0.002816448
v 0.0412893 -0.02557961 -0.01105047
v 0.04128928 -0.02557961 -0.003111673
v 0.01876914 -0.0255796 -0.03682852
v 0.02181502 -0.0265966 -0.02180476
v 0.03022484 -0.0255796 -0.03021457
v 0.0202388 -0.02645858 -0.02451476
v 0.03040651 -0.02654304 -0.008134423
v 0.02181502 -0.0265966 -0.02180476
v 0.02899816 -0.02662292 -0.008769629
v 0.03022484 -0.0255796 -0.03021457
v 0.0412893 -0.02557961 -0.01105047
v 0.03423987 -0.01480384 -0.03422968
v 0.03912921 0.03228157 -0.02234003
v 0.03270669 0.042846 -0.03269648
v 0.0454406 0.0219001 -0.0121628
v 0.04677402 -0.01480385 -0.01252011
v 0.04677402 -0.01480385 -0.01252011
v 0.04580757 0.01179855 -0.005321431
v 0.0454406 0.0219001 -0.0121628
v 0.0464121 -0.004841693 0.005948448
v 0.04677402 -0.01480385 0.002816448
v 0.03285662 -0.01438766 -0.03284643
v 0.01862813 -0.02056571 -0.03752073
v 0.01809972 -0.01438758 -0.04136635
v 0.02936886 -0.02398758 -0.02935859
v 0.01892081 -0.0239875 -0.03539078
v 0.04488447 -0.01438766 -0.01201381
v 0.02936886 -0.02398758 -0.02935859
v 0.03285662 -0.01438766 -0.03284643
v 0.04012001 -0.02398758 -0.01073716
v 0.04012001 -0.02398758 -0.01073716
v 0.04219556 -0.01980553 -0.0008138974
v 0.04012 -0.02398758 -0.003091661
v 0.04488447 -0.01438766 -0.01201381
v 0.04488447 -0.01438767 0.00213696
v 0.02800798 -0.02492157 -0.00863611
v 0.04012001 -0.02398758 -0.01073716
v 0.02960316 -0.02483879 -0.007919163
v 0.02113005 -0.02489853 -0.02111978
v 0.02936886 -0.02398758 -0.02935859
v 0.03285662 -0.01438766 -0.03284643
v 0.04362369 0.01969635 -0.01167597
v 0.04488447 -0.01438766 -0.01201381
v 0.0372363 0.03018387 -0.02196326
v 0.03138975 0.03978356 -0.03137953
v 0.04488447 -0.01438766 -0.01201381
v 0.04453822 -0.00502724 0.005077122
v 0.04488447 -0.01438767 0.00213696
v 0.04396056 0.01058937 -0.005504987
v 0.04362369 0.01969635 -0.01167597
v 0.03423987 -0.01480384 -0.03422968
v 0.01765466 0.0089 -0.04281083
v 0.01782741 -0.01480377 -0.04370546
v 0.02850776 0.04312905 -0.03510887
v 0.03270669 0.042846 -0.03269648
v 0.0240608 0.03853302 -0.03786913
v 0.0174882 0.03174019 -0.04194878
v 0.04396056 0.01058937 -0.005504987
v 0.0464121 -0.004841693 0.005948448
v 0.04453822 -0.00502724 0.005077122
v 0.04362369 0.01969635 -0.01167597
v 0.04580757 0.01179855 -0.005321431
v 0.0454406 0.0219001 -0.0121628
v 0.0372363 0.03018387 -0.02196326
v 0.03138975 0.03978356 -0.03137953
v 0.03912921 0.03228157 -0.02234003
v 0.03270669 0.042846 -0.03269648
v 0.0247191 0.0402327 -0.03521166
v 0.02850776 0.04312905 -0.03510887
v 0.03285662 -0.01438766 -0.03284643
v 0.0247191 0.0402327 -0.03521166
v 0.03138975 0.03978356 -0.03137953
v 0.01789592 0.01395424 -0.04027347
v 0.01809972 -0.01438758 -0.04136635
v 0.02296455 0.03841874 -0.03630213
v 0.01775871 0.0330365 -0.03953762
v 0.02296455 0.03841874 -0.03630213
v 0.02850776 0.04312905 -0.03510887
v 0.0247191 0.0402327 -0.03521166
v 0.01775871 0.0330365 -0.03953762
v 0.0240608 0.03853302 -0.03786913
v 0.0174882 0.03174019 -0.04194878
v 0.01876914 -0.0255796 -0.03682852
v 0.02049148 -0.0248471 -0.0222227
v 0.0202388 -0.02645858 -0.02451476
v 0.01892081 -0.0239875 -0.03539078
v 0.01846819 -0.02213592 -0.0390262
v 0.01782741 -0.01480377 -0.04370546
v 0.01862813 -0.02056571 -0.03752073
v 0.01809972 -0.01438758 -0.04136635
v 0.01765466 0.0089 -0.04281083
v 0.0174882 0.03174019 -0.04194878
v 0.01789592 0.01395424 -0.04027347
v 0.01775871 0.0330365 -0.03953762
v 0.04677402 -0.01480385 0.002816448
v 0.04453822 -0.00502724 0.005077122
v 0.0464121 -0.004841693 0.005948448
v 0.04488447 -0.01438767 0.00213696
v 0.04375341 -0.02073845 -0.000448353
v 0.04128928 -0.02557961 -0.003111673
v 0.04219556 -0.01980553 -0.0008138974
v 0.04012 -0.02398758 -0.003091661
v 0.02899816 -0.02662292 -0.008769629
v 0.03040651 -0.02654304 -0.008134423
v 0.02960316 -0.02483879 -0.007919163
v 0.02800798 -0.02492157 -0.00863611
v 0.02113005 -0.02489853 -0.02111978
v 0.01892081 -0.0239875 -0.03539078
v 0.02936886 -0.02398758 -0.02935859
v 0.02049148 -0.0248471 -0.0222227
v 0.02181502 -0.0265966 -0.02180476
v 0.02800798 -0.02492157 -0.00863611
v 0.02899816 -0.02662292 -0.008769629
v 0.02113005 -0.02489853 -0.02111978
v 0.02049148 -0.0248471 -0.0222227
v 0.0202388 -0.02645858 -0.02451476
vt 0.2422374 0.01257777
vt 0.2335501 0.01172909
vt 0.235578 0.02506888
vt 0.2355414 0.0251375
vt 0.2334723 0.01172149
vt 0.2422374 0.01257777
vt 0.1884863 0.9819675
vt 0.2106915 0.9742571
vt 0.207994 0.9819676
vt 0.1884863 0.9578406
vt 0.2131579 0.9578406
vt 0.1884863 0.9819675
vt 0.1553683 0.9578406
vt 0.1884863 0.9578406
vt 0.1553683 0.9819675
vt 0.1553683 0.9578406
vt 0.1404165 0.971128
vt 0.1350077 0.9578407
vt 0.1553683 0.9819675
vt 0.1434289 0.9819674
vt 0.2777535 0.02748146
vt 0.2520461 0.03076734
vt 0.2656196 0.01940985
vt 0.2567661 0.03114087
vt 0.2355414 0.0251375
vt 0.2520461 0.03076734
vt 0.2360563 0.02649118
vt 0.2656196 0.01940985
vt 0.2422374 0.01257777
vt 0.1884863 0.9578406
vt 0.1709453 0.8775659
vt 0.1884862 0.8595295
vt 0.1552883 0.8952652
vt 0.1553683 0.9578406
vt 0.1553683 0.9578406
vt 0.1454676 0.9124752
vt 0.1552883 0.8952652
vt 0.1307209 0.9408519
vt 0.1350077 0.9578407
vt 0.1884863 0.9578406
vt 0.2094882 0.9733676
vt 0.211603 0.9578406
vt 0.1884863 0.9819675
vt 0.2067966 0.9819674
vt 0.1553683 0.9578406
vt 0.1884863 0.9819675
vt 0.1884863 0.9578406
vt 0.1553683 0.9819675
vt 0.1553683 0.9819675
vt 0.1408703 0.9714571
vt 0.143535 0.9819676
vt 0.1553683 0.9578406
vt 0.1357911 0.9578407
vt 0.2361746 0.02664753
vt 0.2422374 0.01257777
vt 0.235578 0.02506888
vt 0.2519346 0.03086065
vt 0.2656196 0.01940985
vt 0.1884863 0.9578406
vt 0.1552936 0.8994099
vt 0.1553683 0.9578406
vt 0.1717898 0.8814309
vt 0.1884862 0.8649499
vt 0.1553683 0.9578406
vt 0.1315951 0.9417898
vt 0.1357911 0.9578407
vt 0.146021 0.9150109
vt 0.1552936 0.8994099
vt 0.1884863 0.9578406
vt 0.21247 0.9174182
vt 0.2131579 0.9578406
vt 0.1947869 0.8590469
vt 0.1884862 0.8595295
vt 0.2016554 0.8668845
vt 0.2123797 0.8784686
vt 0.08431961 0.01504786
vt 0.04713007 0.004177737
vt 0.04717648 0.008327226
vt 0.1059801 0.01896701
vt 0.08670487 0.01131415
vt 0.1107289 0.0156463
vt 0.1324808 0.03697176
vt 0.156738 0.05345203
vt 0.1369588 0.03344335
vt 0.1636507 0.05155374
vt 0.159533 0.06860874
vt 0.1654108 0.06109445
vt 0.1884863 0.9578406
vt 0.1989168 0.8641798
vt 0.1884862 0.8649499
vt 0.21072 0.9092412
vt 0.211603 0.9578406
vt 0.2017422 0.8672904
vt 0.2106323 0.8765195
vt 0.1159632 0.01817074
vt 0.130695 0.01874456
vt 0.1213248 0.01695183
vt 0.1000551 0.02178733
vt 0.1171092 0.02182693
vt 0.09702978 0.02638266
vt 0.05792219 0.1172401
vt 0.02850815 0.115775
vt 0.03311987 0.1189984
vt 0.05503098 0.1140558
vt 0.06235785 0.1103523
vt 0.07180215 0.09568711
vt 0.05933019 0.1072118
vt 0.06709236 0.09485459
vt 0.07006599 0.04827637
vt 0.06839306 0.002592773
vt 0.06496975 0.03816712
vt 0.06354056 0
vt 0.02800415 0.0009311485
vt 0.04831802 0.004111252
vt 0.04888168 0
vt 0.02870193 0.004972725
vt 0.01526627 0.008530769
vt 0.004875183 0.01473032
vt 0.01707962 0.01176111
vt 0.008108215 0.01700106
vt 0.001542403 0.04166697
vt 0.001840973 0.03858734
vt 0.005343628 0.04004209
vt 0.005021433 0.04352895
vt 0.2519346 0.03086065
vt 0.2770087 0.02698601
vt 0.2656196 0.01940985
vt 0.2539113 0.03101426
vt 0.02976654 0.003989716
vt 0.0007201052 0.0001698303
vt 0 0.004049835
vt 0.02922608 0.0001174927
vt 0.03177435 0
vt 0.03603483 0.003675079
vn -0.08068144 0.9967399 0
vn -0.08068144 0.9967399 1.788152E-05
vn -0.08065774 0.9967418 1.192104E-05
vn 0.08816657 -0.9961057 -5.960423E-06
vn 0.08821388 -0.9961016 -1.19208E-05
vn 0.08821388 -0.9961016 2.384159E-05
vn 0.4456002 -0.453611 -0.7718015
vn 0.4455906 -0.4536134 -0.7718056
vn 0.4455906 -0.4536134 -0.7718056
vn 0.4456026 -0.4536015 -0.7718057
vn 0.445619 -0.4536182 -0.7717864
vn 0.7718015 -0.453611 -0.4456002
vn 0.771825 -0.4535849 -0.4455862
vn 0.7717975 -0.4535967 -0.4456217
vn 0.7718097 -0.4536158 -0.4455811
vn 0.8912047 -0.4536013 -1.192088E-05
vn 0.8911999 -0.4536107 0
vn 0.8912047 -0.4536013 0
vn 0.8912097 -0.4535915 0
vn 0.8911999 -0.4536107 0
vn 0.04408333 -0.9961068 -0.07634117
vn 0.04410704 -0.9961039 -0.07636479
vn 0.04408325 -0.996105 -0.07636486
vn 0.04405946 -0.996106 -0.07636495
vn 0.0763885 -0.9961021 -0.04410697
vn 0.0763885 -0.9961021 -0.04410697
vn 0.07638853 -0.9961026 -0.04409506
vn 0.07636486 -0.996105 -0.04408325
vn 0.07638858 -0.9961032 -0.04408317
vn 0.8654627 0.03631129 -0.4996557
vn 0.8654627 0.03631129 -0.4996557
vn 0.8654634 0.03628748 -0.4996561
vn 0.8654301 0.03631192 -0.4997121
vn 0.8654592 0.03630914 -0.4996619
vn 0.9993406 0.03630888 2.384037E-05
vn 0.9993406 0.03630888 0
vn 0.9993405 0.03631061 0
vn 0.9993407 0.03630466 0
vn 0.9993405 0.03631061 0
vn -0.4478817 0.4445439 0.7757465
vn -0.4478709 0.4445569 0.7757453
vn -0.4478958 0.4445816 0.7757168
vn -0.4478662 0.444576 0.7757371
vn -0.4478579 0.4445678 0.7757466
vn -0.7757507 0.4445463 0.4478721
vn -0.7757359 0.4445651 0.4478792
vn -0.7757465 0.4445439 0.4478817
vn -0.7757547 0.4445487 0.4478626
vn -0.8957489 0.4445604 1.192107E-05
vn -0.8957441 0.4445699 0
vn -0.8957583 0.4445413 1.192056E-05
vn -0.8957441 0.4445699 1.1921E-05
vn -0.8957535 0.4445509 0
vn -0.06985718 0.9967403 0.04035861
vn -0.06985716 0.99674 0.04036456
vn -0.06985718 0.9967403 0.04035861
vn -0.06985729 0.996742 0.04031696
vn -0.06988095 0.9967393 0.04034069
vn -0.8654316 -0.03696561 0.4996615
vn -0.8654367 -0.03696583 0.4996527
vn -0.8654264 -0.03696539 0.4996705
vn -0.8654363 -0.03695491 0.4996542
vn -0.8654363 -0.03695491 0.4996542
vn -0.9993165 -0.03696713 1.192103E-05
vn -0.9993165 -0.03696713 0
vn -0.9993165 -0.03696713 0
vn -0.9993165 -0.03696713 0
vn -0.9993165 -0.03696713 1.192103E-05
vn 0.499653 0.03630935 -0.8654643
vn 0.4996737 0.0363049 -0.8654525
vn 0.4996736 0.03631085 -0.8654523
vn 0.4996637 0.03628629 -0.8654591
vn 0.4996816 0.03628586 -0.8654488
vn 0.499653 0.03630935 -0.8654643
vn 0.4996736 0.03631085 -0.8654523
vn -0.4049307 0.5025991 0.7638228
vn -0.4049301 0.5026013 0.7638216
vn -0.4049295 0.5026035 0.7638205
vn -0.4049767 0.502585 0.7638077
vn -0.4048946 0.5026134 0.7638326
vn -0.4049804 0.5025896 0.7638026
vn -0.4049283 0.502608 0.7638182
vn -0.4049531 0.5025853 0.76382
vn -0.4049283 0.502608 0.7638182
vn -0.4049332 0.5025902 0.7638274
vn -0.4049804 0.5025896 0.7638026
vn -0.4049479 0.5026085 0.7638075
vn -0.4996437 -0.03696606 0.8654419
vn -0.4996721 -0.03695447 0.865426
vn -0.4996439 -0.03695415 0.8654423
vn -0.4996437 -0.03696606 0.8654419
vn -0.4996643 -0.03696758 0.8654299
vn -0.4996542 -0.03695491 0.8654363
vn -0.4996336 -0.03695339 0.8654483
vn -0.5651551 0.7514102 -0.3405618
vn -0.5651714 0.7514002 -0.3405572
vn -0.5651875 0.75139 -0.3405525
vn -0.5651768 0.7513837 -0.3405843
vn -0.5651677 0.7513715 -0.3406265
vn -0.5651703 0.7513828 -0.340597
vn -0.9929827 -0.01168229 0.1176812
vn -0.992985 -0.01168274 0.1176619
vn -0.9929825 -0.01168243 0.1176826
vn -0.9929825 -0.01168243 0.1176826
vn -0.9929824 -0.01168257 0.117684
vn -0.9929715 -0.0116823 0.1177766
vn -0.9929824 -0.01168257 0.117684
vn -0.9929824 -0.01168257 0.117684
vn -0.9929826 -0.01167647 0.1176826
vn -0.9929825 -0.01168243 0.1176826
vn -0.9929824 -0.01168257 0.117684
vn -0.9929742 -0.01168233 0.1177531
vn -0.3798367 -0.2899676 0.878432
vn -0.3797551 -0.2899781 0.8784639
vn -0.3797551 -0.2899781 0.8784639
vn -0.3798407 -0.2899707 0.8784293
vn -0.3797584 -0.2899687 0.8784655
vn -0.3797506 -0.2901058 0.8784236
vn -0.3797558 -0.2899906 0.8784595
vn -0.3797952 -0.2899604 0.8784523
vn -0.3797952 -0.2899604 0.8784523
vn -0.3797547 -0.2901089 0.8784209
vn -0.3797768 -0.2899646 0.8784589
vn -0.3798012 -0.289965 0.8784482
vn -0.04031689 0.9967403 0.06988102
vn -0.04034062 0.9967377 0.06990468
vn -0.04034069 0.9967393 0.06988095
vn -0.0404359 0.9967354 0.06988067
vn -0.7685307 -0.4804449 0.4225321
vn -0.7685268 -0.4804425 0.4225419
vn -0.7685346 -0.4804325 0.4225391
vn -0.7685218 -0.4804632 0.4225273
vn -0.7685141 -0.4804584 0.4225469
vn -0.7685316 -0.4804544 0.4225195
g Eff_Model_Player_M_Skill03_Stone_04_0
f 3/3/3 2/2/2 1/1/1
f 6/6/6 5/5/5 4/4/4
f 9/9/9 8/8/8 7/7/7
f 10/10/10 7/7/7 8/8/8
f 10/10/10 8/8/8 11/11/11
f 14/14/14 13/13/13 12/12/12
f 15/15/15 12/12/12 13/13/13
f 18/18/18 17/17/17 16/16/16
f 19/19/19 16/16/16 17/17/17
f 19/19/19 17/17/17 20/20/20
f 23/23/23 22/22/22 21/21/21
f 24/24/24 21/21/21 22/22/22
f 27/27/27 26/26/26 25/25/25
f 26/26/26 28/28/28 25/25/25
f 25/25/25 28/28/28 29/29/29
f 32/32/32 31/31/31 30/30/30
f 31/31/31 33/33/33 30/30/30
f 34/34/34 30/30/30 33/33/33
f 37/37/37 36/36/36 35/35/35
f 36/36/36 38/38/38 35/35/35
f 39/39/39 35/35/35 38/38/38
f 42/42/42 41/41/41 40/40/40
f 40/40/40 41/41/41 43/43/43
f 44/44/44 43/43/43 41/41/41
f 47/47/47 46/46/46 45/45/45
f 48/48/48 45/45/45 46/46/46
f 51/51/51 50/50/50 49/49/49
f 49/49/49 50/50/50 52/52/52
f 53/53/53 52/52/52 50/50/50
f 56/56/56 55/55/55 54/54/54
f 54/54/54 55/55/55 57/57/57
f 57/57/57 55/55/55 58/58/58
f 61/61/61 60/60/60 59/59/59
f 62/62/62 59/59/59 60/60/60
f 59/59/59 62/62/62 63/63/63
f 66/66/66 65/65/65 64/64/64
f 67/67/67 64/64/64 65/65/65
f 64/64/64 67/67/67 68/68/68
f 71/71/71 70/70/70 69/69/69
f 70/70/70 72/72/72 69/69/69
f 69/69/69 72/72/72 73/73/73
f 74/74/74 72/72/72 70/70/70
f 74/74/74 70/70/70 75/75/75
f 78/78/78 77/77/77 76/76/76
f 76/76/76 77/77/77 79/79/79
f 77/77/77 80/80/80 79/79/79
f 80/80/80 81/81/81 79/79/79
f 79/79/79 81/81/81 82/82/82
f 82/82/82 81/81/81 83/83/83
f 81/81/81 84/84/84 83/83/83
f 84/84/84 85/85/85 83/83/83
f 83/83/83 85/85/85 86/86/86
f 85/85/85 87/87/87 86/86/86
f 90/90/90 89/89/89 88/88/88
f 89/89/89 91/91/91 88/88/88
f 88/88/88 91/91/91 92/92/92
f 93/93/93 91/91/91 89/89/89
f 93/93/93 94/94/94 91/91/91
f 97/97/97 96/96/96 95/95/95
f 95/95/95 96/96/96 98/98/98
f 96/96/96 99/99/99 98/98/98
f 99/99/99 100/100/100 98/98/98
f 103/103/103 102/102/102 101/101/101
f 102/102/102 104/104/104 101/101/101
f 101/101/101 104/104/104 105/105/105
f 104/104/104 106/106/106 105/105/105
f 107/107/107 106/106/106 104/104/104
f 108/108/108 106/106/106 107/107/107
f 109/109/109 106/106/106 108/108/108
f 110/110/110 109/109/109 108/108/108
f 111/111/111 110/110/110 108/108/108
f 112/112/112 110/110/110 111/111/111
f 115/115/115 114/114/114 113/113/113
f 114/114/114 116/116/116 113/113/113
f 116/116/116 117/117/117 113/113/113
f 118/118/118 117/117/117 116/116/116
f 119/119/119 118/118/118 116/116/116
f 120/120/120 118/118/118 119/119/119
f 121/121/121 118/118/118 120/120/120
f 122/122/122 118/118/118 121/121/121
f 123/123/123 121/121/121 120/120/120
f 124/124/124 121/121/121 123/123/123
f 127/127/127 126/126/126 125/125/125
f 128/128/128 125/125/125 126/126/126
f 131/131/131 130/130/130 129/129/129
f 130/130/130 132/132/132 129/129/129
f 132/132/132 133/133/133 129/129/129
f 133/133/133 134/134/134 129/129/129
