g Eff_Model_Player_M_Skill02_01_4
v 0.006540861 -0.05748118 0.01395431
v -0.002406457 -0.0005631447 -0.005231964
v -0.001149955 -0.0005631447 -0.002554026
v 0.008705133 -0.05748118 0.01663225
v 0.0001065472 -0.0005631447 -5E-07
v -0.01710423 -0.06926661 0.0001621429
v -0.01972915 -0.06926661 -0.002515795
v 0.01086941 -0.05748118 0.01918577
v 0.001363046 -0.0005631447 -0.002554026
v -0.01447931 -0.0692666 0.002715669
v -0.001005651 -0.09084348 -0.02639575
v -0.00503396 -0.09084348 -0.02907369
v 0.01303368 -0.05748118 0.01663225
v 0.00261955 -0.0005631447 -0.005231964
v 0.01519795 -0.05748118 0.01395431
v -0.01185439 -0.06926661 0.0001621429
v -0.00922947 -0.06926661 -0.002515795
v 0.007050968 -0.09084348 -0.02639575
v 0.01107928 -0.09084348 -0.02907369
v 0.003022661 -0.09084348 -0.02384222
v -0.02625029 -0.1160056 0.02644558
v -0.03033322 -0.1160056 0.02376764
v -0.02216735 -0.1160056 0.0289991
v -0.01808442 -0.1160056 0.02644558
v -0.01400149 -0.1160056 0.02376764
v -0.01964634 -0.1336738 -0.015361
v -0.02333615 -0.1336738 -0.01268306
v -0.04855721 -0.151342 -0.005231964
v -0.03071577 -0.1336738 -0.01268306
v -0.03440559 -0.1336738 -0.015361
v -0.02702596 -0.1336738 -0.01012953
v -0.0518539 -0.151342 -0.002554026
v -0.05844727 -0.151342 -0.002554026
v -0.06174395 -0.151342 -0.005231964
v -0.0369137 -0.1798292 0.004633468
v -0.05515058 -0.151342 -5.000829E-07
v -0.03289132 -0.1798292 0.007311404
v -0.0193371 -0.1885792 -0.01230744
v -0.02484655 -0.1798292 0.007311404
v -0.02082417 -0.1798292 0.004633468
v -0.02886893 -0.1798292 0.00986493
v -0.01772533 -0.1885792 -0.007075971
v 0.0004850495 -0.2129953 -0.005231964
v 0.001753855 -0.2129953 -0.002554026
v -0.01611355 -0.1885792 -0.007075971
v 0.00302266 -0.2129953 -5E-07
v -0.01450178 -0.1885792 -0.007075971
v -0.01289001 -0.1885792 -0.01230744
v 0.004291465 -0.2129953 -0.002554026
v 0.005560271 -0.2129953 -0.005231964
vt 0 0.75
vt 0 1
vt 0.25 1
vt 0.25 0.75
vt 0.5 1
vt 0.25 0.625
vt 0 0.625
vt 0.5 0.75
vt 0.75 1
vt 0.5 0.625
vt 0.25 0.5
vt 0 0.5
vt 0.75 0.75
vt 1 1
vt 1 0.75
vt 0.75 0.625
vt 1 0.625
vt 0.75 0.5
vt 1 0.5
vt 0.5 0.5
vt 0.25 0.375
vt 0 0.375
vt 0.5 0.375
vt 0.75 0.375
vt 1 0.375
vt 1 0.3125
vt 0.75 0.3125
vt 1 0.25
vt 0.25 0.3125
vt 0 0.3125
vt 0.5 0.3125
vt 0.75 0.25
vt 0.25 0.25
vt 0 0.25
vt 0 0.125
vt 0.5 0.25
vt 0.25 0.125
vt 0 0.0625
vt 0.75 0.125
vt 1 0.125
vt 0.5 0.125
vt 0.25 0.0625
vt 0 0
vt 0.25 0
vt 0.5 0.0625
vt 0.5 0
vt 0.75 0.0625
vt 1 0.0625
vt 0.75 0
vt 1 0
vn 0 0 1
vn 0 0 1
vn 0 0 1
vn 0 0 1
vn 0 0 1
vn 0 0 1
vn 0 0 1
vn 0 0 1
vn 0 0 1
vn 0 0 1
vn 0 0 1
vn 0 0 1
vn 0 0 1
vn 0 0 1
vn 0 0 1
vn 0 0 1
vn 0 0 1
vn 0 0 1
vn 0 0 1
vn 0 0 1
vn 0 0 1
vn 0 0 1
vn 0 0 1
vn 0 0 1
vn 0 0 1
vn 0 0 1
vn 0 0 1
vn 0 0 1
vn 0 0 1
vn 0 0 1
vn 0 0 1
vn 0 0 1
vn 0 0 1
vn 0 0 1
vn 0 0 1
vn 0 0 1
vn 0 0 1
vn 0 0 1
vn 0 0 1
vn 0 0 1
vn 0 0 1
vn 0 0 1
vn 0 0 1
vn 0 0 1
vn 0 0 1
vn 0 0 1
vn 0 0 1
vn 0 0 1
vn 0 0 1
vn 0 0 1
g Eff_Model_Player_M_Skill02_01_4_0
f 3/3/3 2/2/2 1/1/1
f 4/4/4 3/3/3 1/1/1
f 5/5/5 3/3/3 4/4/4
f 6/6/6 4/4/4 1/1/1
f 7/7/7 6/6/6 1/1/1
f 8/8/8 5/5/5 4/4/4
f 9/9/9 5/5/5 8/8/8
f 6/6/6 10/10/10 4/4/4
f 10/10/10 8/8/8 4/4/4
f 11/11/11 6/6/6 7/7/7
f 12/12/12 11/11/11 7/7/7
f 13/13/13 9/9/9 8/8/8
f 14/14/14 9/9/9 13/13/13
f 15/15/15 14/14/14 13/13/13
f 16/16/16 13/13/13 8/8/8
f 15/15/15 13/13/13 16/16/16
f 10/10/10 16/16/16 8/8/8
f 17/17/17 15/15/15 16/16/16
f 17/17/17 16/16/16 18/18/18
f 18/18/18 16/16/16 10/10/10
f 19/19/19 17/17/17 18/18/18
f 20/20/20 10/10/10 6/6/6
f 11/11/11 20/20/20 6/6/6
f 20/20/20 18/18/18 10/10/10
f 21/21/21 11/11/11 12/12/12
f 22/22/22 21/21/21 12/12/12
f 23/23/23 20/20/20 11/11/11
f 18/18/18 20/20/20 23/23/23
f 21/21/21 23/23/23 11/11/11
f 19/19/19 18/18/18 24/24/24
f 24/24/24 18/18/18 23/23/23
f 25/25/25 19/19/19 24/24/24
f 26/26/26 25/25/25 24/24/24
f 27/27/27 26/26/26 24/24/24
f 27/27/27 24/24/24 23/23/23
f 28/28/28 26/26/26 27/27/27
f 29/29/29 21/21/21 22/22/22
f 30/30/30 29/29/29 22/22/22
f 31/31/31 23/23/23 21/21/21
f 31/31/31 27/27/27 23/23/23
f 29/29/29 31/31/31 21/21/21
f 32/32/32 28/28/28 27/27/27
f 32/32/32 27/27/27 31/31/31
f 33/33/33 29/29/29 30/30/30
f 34/34/34 33/33/33 30/30/30
f 33/33/33 34/34/34 35/35/35
f 36/36/36 31/31/31 29/29/29
f 33/33/33 36/36/36 29/29/29
f 36/36/36 32/32/32 31/31/31
f 37/37/37 33/33/33 35/35/35
f 36/36/36 33/33/33 37/37/37
f 37/37/37 35/35/35 38/38/38
f 28/28/28 32/32/32 39/39/39
f 40/40/40 28/28/28 39/39/39
f 32/32/32 36/36/36 41/41/41
f 41/41/41 36/36/36 37/37/37
f 39/39/39 32/32/32 41/41/41
f 42/42/42 37/37/37 38/38/38
f 41/41/41 37/37/37 42/42/42
f 42/42/42 38/38/38 43/43/43
f 44/44/44 42/42/42 43/43/43
f 45/45/45 41/41/41 42/42/42
f 45/45/45 42/42/42 44/44/44
f 39/39/39 41/41/41 45/45/45
f 46/46/46 45/45/45 44/44/44
f 40/40/40 39/39/39 47/47/47
f 47/47/47 39/39/39 45/45/45
f 47/47/47 45/45/45 46/46/46
f 48/48/48 40/40/40 47/47/47
f 49/49/49 47/47/47 46/46/46
f 48/48/48 47/47/47 49/49/49
f 50/50/50 48/48/48 49/49/49
