g Eff_Model_Player_M_Skill03_Stone_01
v -0.019756 -0.01384895 0.02837392
v -0.01998579 -0.01363563 0.02811171
v -0.01972046 -0.01250068 0.02832925
v 0.03263809 -0.01566193 0.002862754
v 0.03259963 -0.0157592 0.002623929
v 0.03259815 -0.01461495 0.00285926
v -0.01782306 -0.004622185 0.02868317
v -0.002692694 0.01247819 0.03345502
v -0.008137115 0.006324202 0.03174053
v -0.002507657 0.01322766 0.0314314
v -0.01782306 -0.004622185 0.02868317
v -0.007708672 0.007349745 0.02979
v -0.01751011 -0.00372741 0.02669673
v 0.01305148 0.03297062 0.02802341
v 0.006488746 0.02465844 0.02940201
v 0.006846574 0.02459877 0.0313031
v 0.01951699 0.04167023 0.02469774
v 0.01387875 0.03350617 0.02982332
v 0.01844787 0.04078438 0.02311797
v 0.02477716 0.049949 0.01736452
v 0.02781978 0.05446564 0.01417092
v 0.02636673 0.0515876 0.0184744
v 0.02628293 0.05293144 0.01290485
v -0.01845789 -0.007662728 0.02652023
v -0.0198418 -0.01358131 0.02539165
v -0.01864149 -0.01469501 0.02675441
v 0.01490758 -0.02961948 0.03201094
v 0.006846574 0.02459877 0.0313031
v 0.01387875 0.03350617 0.02982332
v 0.01290606 -0.02977027 0.03234315
v -0.002997357 -0.02859664 0.0351016
v -0.0004555395 -0.03074317 0.03473669
v -0.002692694 0.01247819 0.03345502
v 0.01407148 -0.03005241 0.03021076
v 0.01950073 -0.03033821 0.02566886
v 0.01305148 0.03297062 0.02802341
v 0.02508031 -0.02327675 0.02064606
v 0.01844787 0.04078438 0.02311797
v 0.02699812 -0.02084961 0.01891962
v 0.02477716 0.049949 0.01736452
v -0.002997357 -0.02859664 0.0351016
v -0.008137115 0.006324202 0.03174053
v -0.002692694 0.01247819 0.03345502
v -0.005271665 -0.02659541 0.03418981
v -0.019756 -0.01384895 0.02837392
v -0.01972046 -0.01250068 0.02832925
v -0.01782306 -0.004622185 0.02868317
v -0.01845789 -0.007662728 0.02652023
v -0.007708672 0.007349745 0.02979
v -0.01751011 -0.00372741 0.02669673
v -0.01864149 -0.01469501 0.02675441
v -0.004945393 -0.02674785 0.03225527
v -0.002820693 -0.02861762 0.03310863
v -0.002507657 0.01322766 0.0314314
v -0.002820693 -0.02861762 0.03310863
v 8.956043E-05 -0.03107528 0.03269073
v -0.002507657 0.01322766 0.0314314
v 0.01223759 -0.03019069 0.03051442
v 0.006488746 0.02465844 0.02940201
v 0.01407148 -0.03005241 0.03021076
v 0.01305148 0.03297062 0.02802341
v 0.02856205 -0.01842587 0.02001371
v 0.01951699 0.04167023 0.02469774
v 0.02636673 0.0515876 0.0184744
v 0.02635703 -0.0212167 0.02199768
v 0.01490758 -0.02961948 0.03201094
v 0.01952554 -0.02986252 0.02814779
v 0.01387875 0.03350617 0.02982332
v 0.02699812 -0.02084961 0.01891962
v 0.03157153 -0.01664299 0.005899196
v 0.02477716 0.049949 0.01736452
v 0.02628293 0.05293144 0.01290485
v 0.02787077 0.03594818 0.01037908
v 0.03259815 -0.01461495 0.00285926
v 0.03263809 -0.01566193 0.002862754
v 0.01952554 -0.02986252 0.02814779
v 0.01290606 -0.02977027 0.03234315
v 0.01490758 -0.02961948 0.03201094
v 0.01407148 -0.03005241 0.03021076
v 0.01950073 -0.03033821 0.02566886
v 8.956043E-05 -0.03107528 0.03269073
v -0.0004555395 -0.03074317 0.03473669
v 0.01223759 -0.03019069 0.03051442
v 0.03263809 -0.01566193 0.002862754
v 0.03415347 -0.01328293 0.004095012
v 0.03259963 -0.0157592 0.002623929
v 0.03157153 -0.01664299 0.005899196
v 0.02699812 -0.02084961 0.01891962
v 0.02635703 -0.0212167 0.02199768
v 0.02508031 -0.02327675 0.02064606
v 0.03330291 -0.01406525 0.006516649
v 0.02856205 -0.01842587 0.02001371
v 0.01950073 -0.03033821 0.02566886
v 0.01952554 -0.02986252 0.02814779
v 0.02636673 0.0515876 0.0184744
v 0.03330291 -0.01406525 0.006516649
v 0.02856205 -0.01842587 0.02001371
v 0.03008436 0.03024261 0.01056836
v 0.02781978 0.05446564 0.01417092
v 0.03415347 -0.01328293 0.004095012
v 0.03415347 -0.01328293 0.004095012
v 0.03259815 -0.01461495 0.00285926
v 0.03259963 -0.0157592 0.002623929
v 0.03008436 0.03024261 0.01056836
v 0.02781978 0.05446564 0.01417092
v 0.02787077 0.03594818 0.01037908
v 0.02628293 0.05293144 0.01290485
v -0.002820693 -0.02861762 0.03310863
v -0.0004555395 -0.03074317 0.03473669
v 8.956043E-05 -0.03107528 0.03269073
v -0.004945393 -0.02674785 0.03225527
v -0.019756 -0.01384895 0.02837392
v -0.01864149 -0.01469501 0.02675441
v -0.0198418 -0.01358131 0.02539165
v -0.01998579 -0.01363563 0.02811171
v -0.005271665 -0.02659541 0.03418981
v -0.002997357 -0.02859664 0.0351016
v -0.01972046 -0.01250068 0.02832925
v -0.01751011 -0.00372741 0.02669673
v -0.01782306 -0.004622185 0.02868317
v -0.01845789 -0.007662728 0.02652023
v -0.0198418 -0.01358131 0.02539165
v -0.01998579 -0.01363563 0.02811171
vt 0.0004390749 0.07853562
vt 0.0001261093 0.0783239
vt 0.0004390749 0.07719669
vt 0.0681497 0.08025809
vt 0.06837846 0.08035466
vt 0.0681497 0.07921837
vt 0.01284357 0.02930898
vt 0.05410553 0.007538834
vt 0.0392556 0.01536773
vt 0.05656471 0.01110484
vt 0.01284357 0.02930898
vt 0.04238205 0.01859025
vt 0.01565442 0.03269676
vt 0.1068021 0.004023109
vt 0.08566757 0.007118487
vt 0.0849646 0.003312054
vt 0.1294704 0.004595089
vt 0.1076133 0
vt 0.1277214 0.008420596
vt 0.1522572 0.01357825
vt 0.1644537 0.01684509
vt 0.1560208 0.01017096
vt 0.1609961 0.02049463
vt 0.0004390749 0.07231431
vt -0.001309936 0.0781919
vt 0.0004390749 0.07929789
vt 0.03429164 0.09419481
vt 0.02603029 0.04035448
vt 0.03429164 0.03150364
vt 0.031985 0.09434587
vt 0.01732373 0.09318186
vt 0.0196804 0.09531329
vt 0.01732373 0.05239186
vt 0.03429164 0.09454903
vt 0.04095031 0.09486593
vt 0.03429164 0.03196228
vt 0.04793944 0.08788815
vt 0.04107088 0.02423628
vt 0.05086847 0.08550027
vt 0.05078941 0.01520997
vt 0.01732373 0.09318186
vt 0.01109464 0.05850255
vt 0.01732373 0.05239186
vt 0.01468251 0.09119422
vt 0.0004390749 0.07853562
vt 0.0004390749 0.07719669
vt 0.002063029 0.06937285
vt 0.0004390749 0.07231431
vt 0.01097427 0.05740577
vt 0.001298629 0.06840619
vt 0.0004390749 0.07929789
vt 0.01469053 0.0912673
vt 0.01732373 0.09312417
vt 0.01732373 0.05156855
vt 0.01732373 0.09312417
vt 0.02018023 0.0955648
vt 0.01732373 0.05156855
vt 0.03202254 0.09468635
vt 0.02601511 0.04021692
vt 0.03429164 0.09454903
vt 0.03429164 0.03196228
vt 0.05086584 0.08316795
vt 0.04098376 0.02342885
vt 0.05078766 0.01365276
vt 0.04772665 0.08591626
vt 0.03429164 0.09419481
vt 0.0396418 0.09446261
vt 0.03429164 0.03150364
vt 0.05086847 0.08550027
vt 0.06429664 0.08125944
vt 0.05078941 0.01520997
vt 0.05535183 0.012227
vt 0.05838281 0.02907389
vt 0.0681497 0.07921837
vt 0.0681497 0.08025809
vt 0.00313151 0.08297195
vt 0.001128845 0.06742533
vt 0 0.07133462
vt 0.004063072 0.07134067
vt 0.007744861 0.08502252
vt 0.01165364 0.04389716
vt 0.008338911 0.04117944
vt 0.005098696 0.06775942
vt 0.006294174 0.03861549
vt 0.001535452 0.03470998
vt 0.006360528 0.03913268
vt 0.01066696 0.033501
vt 0.02941757 0.01156954
vt 0.03237434 0.005971489
vt 0.0363015 0.009893303
vt 0.005022736 0.03063097
vt 0.02445976 0.007896691
vt 0.05632942 0.005016651
vt 0.05689606 0
vt 0.05078766 0.01365276
vt 0.06401511 0.07877525
vt 0.05086584 0.08316795
vt 0.05903243 0.03480637
vt 0.05494649 0.01077524
vt 0.06688575 0.0779779
vt 0.1367132 0.01534712
vt 0.1389552 0.01957261
vt 0.1412363 0.0200782
vt 0.04888085 0.005487223
vt 0 0
vt 0.03692131 0.008119239
vt 0.002649918 0.004272246
vt 0.006210022 0.04323151
vt 0 0.04676506
vt 0.002737351 0.05006359
vt 0.01073982 0.0394321
vt 0.03875683 0.01082706
vt 0.03993973 0.01494091
vt 0.04401504 0.01369813
vt 0.03953929 0.01059049
vt 0.007879028 0.03672943
vt 0.003033142 0.04079796
vt 0.002267685 0.002517834
vt 0.02061401 0.003741088
vt 0.01829407 0
vt 0.01260872 0.004998212
vt 0.0007820129 0.008603921
vt 0 0.003211498
vn -0.7343075 0.04180364 0.6775285
vn -0.7343075 0.04180364 0.6775286
vn -0.7343075 0.04180365 0.6775286
vn -0.9841335 -0.03696542 0.1735366
vn -0.9841335 -0.03696543 0.1735366
vn -0.9841335 -0.03696543 0.1735366
vn -0.7610712 0.6269528 0.1664358
vn -0.7610712 0.6269528 0.1664358
vn -0.7610712 0.6269528 0.1664358
vn -0.7610988 0.6278973 0.162707
vn -0.7610472 0.6279009 0.1629345
vn -0.7610472 0.6279009 0.1629344
vn -0.7610472 0.6279009 0.1629345
vn -0.7610462 0.6278982 0.1629489
vn -0.7610988 0.6278973 0.162707
vn -0.7610453 0.6278973 0.1629565
vn -0.7610462 0.6278969 0.1629545
vn -0.7610444 0.6278984 0.162957
vn -0.7610479 0.6278956 0.1629516
vn -0.7610493 0.6278946 0.1629486
vn -0.7610462 0.627897 0.1629544
vn -0.7610462 0.627897 0.1629544
vn -0.7610493 0.6278946 0.1629486
vn 0.7325963 -0.04175109 -0.6793817
vn 0.7325964 -0.04175109 -0.6793817
vn 0.7325963 -0.04175109 -0.6793817
vn 0.1609268 0.03680231 0.98628
vn 0.1609268 0.03680231 0.98628
vn 0.1609268 0.0368023 0.98628
vn 0.1609275 0.0368024 0.9862798
vn 0.1735078 0.0381642 0.9840927
vn 0.1735078 0.0381642 0.9840927
vn 0.1735076 0.03816266 0.9840928
vn -0.642349 -0.03696522 -0.7655203
vn -0.6423485 -0.03696513 -0.7655208
vn -0.6423492 -0.03696537 -0.7655202
vn -0.6423492 -0.03696536 -0.7655202
vn -0.6423491 -0.03696536 -0.7655202
vn -0.6423489 -0.03696534 -0.7655203
vn -0.6423485 -0.03696526 -0.7655206
vn -0.341159 0.04017829 0.9391465
vn -0.341159 0.04017829 0.9391465
vn -0.341159 0.04017829 0.9391465
vn -0.3411585 0.04017837 0.9391468
vn -0.3417133 0.04011529 0.9389476
vn -0.3417149 0.04011624 0.9389471
vn -0.3417141 0.04011576 0.9389474
vn 0.3417452 -0.04019262 -0.9389328
vn 0.3417452 -0.04019262 -0.9389328
vn 0.3417452 -0.04019262 -0.9389328
vn 0.341742 -0.04019003 -0.9389341
vn 0.3417424 -0.04019025 -0.9389338
vn 0.3417411 -0.0401904 -0.9389344
vn 0.3417407 -0.04019045 -0.9389345
vn -0.1735215 -0.03814584 -0.9840911
vn -0.1735217 -0.03814584 -0.984091
vn -0.1735216 -0.03814583 -0.984091
vn -0.1735216 -0.03814583 -0.984091
vn -0.1735216 -0.03814583 -0.984091
vn -0.1605463 -0.03683149 -0.9863409
vn -0.1605463 -0.0368315 -0.9863409
vn 0.6421443 0.03696929 0.7656918
vn 0.6421443 0.0369693 0.7656918
vn 0.6421443 0.0369693 0.7656918
vn 0.6421441 0.03696926 0.7656919
vn 0.6423437 0.03699871 0.7655231
vn 0.6423436 0.0369987 0.7655231
vn 0.6423441 0.0369982 0.7655228
vn -0.9390514 -0.03696542 -0.3417835
vn -0.9390512 -0.03696537 -0.3417841
vn -0.9390515 -0.03696544 -0.3417834
vn -0.9390512 -0.03696537 -0.3417841
vn -0.9390512 -0.03696537 -0.341784
vn -0.9390501 -0.0369654 -0.3417872
vn -0.9390501 -0.0369654 -0.3417872
vn 0.10454 -0.9768918 0.1864233
vn 0.10454 -0.9768918 0.1864233
vn 0.10454 -0.9768918 0.1864233
vn 0.1044976 -0.9769371 0.1862101
vn 0.104523 -0.9768953 0.1864147
vn 0.1045257 -0.9768937 0.1864218
vn 0.1045256 -0.9768937 0.1864218
vn 0.1044975 -0.9769371 0.1862101
vn 0.814387 -0.5713636 0.1015744
vn 0.8143871 -0.5713636 0.1015744
vn 0.8143871 -0.5713636 0.1015744
vn 0.8144215 -0.5713326 0.1014723
vn 0.814423 -0.571329 0.1014811
vn 0.8144234 -0.571328 0.101483
vn 0.8144219 -0.5713294 0.1014879
vn 0.8144234 -0.571328 0.101483
vn 0.8144234 -0.571328 0.101483
vn 0.8144237 -0.5713276 0.1014835
vn 0.8144238 -0.5713273 0.1014843
vn 0.9390516 0.03695909 0.3417836
vn 0.9390517 0.03695909 0.3417836
vn 0.9390517 0.03695909 0.3417836
vn 0.9390516 0.03695906 0.3417838
vn 0.9390516 0.03695901 0.3417839
vn 0.9390573 0.03696091 0.341768
vn 0.5176076 0.1730048 -0.837945
vn 0.5176076 0.1730047 -0.837945
vn 0.5176076 0.1730048 -0.837945
vn 0.5176015 0.1730134 -0.8379468
vn 0.5176066 0.1730132 -0.8379439
vn 0.5175931 0.1730136 -0.837952
vn 0.5175976 0.1730131 -0.8379493
vn -0.6485463 -0.7595643 -0.04949541
vn -0.6485463 -0.7595643 -0.04949541
vn -0.6485463 -0.7595643 -0.04949541
vn -0.6485534 -0.7595594 -0.04947854
vn -0.648532 -0.7595715 -0.04957078
vn -0.6485473 -0.7595628 -0.04950557
vn -0.648549 -0.7595612 -0.0495077
vn -0.6485896 -0.7595267 -0.04950343
vn -0.6485447 -0.7595692 -0.04944218
vn -0.6485447 -0.7595692 -0.04944218
vn -0.9706642 0.2358649 -0.04667912
vn -0.9706642 0.2358648 -0.04667912
vn -0.9706642 0.2358649 -0.04667912
vn -0.9706642 0.2358679 -0.04666253
vn -0.9706645 0.2358643 -0.04667242
vn -0.970663 0.2358705 -0.04667474
g Eff_Model_Player_M_Skill03_Stone_01_0
f 3/3/3 2/2/2 1/1/1
f 6/6/6 5/5/5 4/4/4
f 9/9/9 8/8/8 7/7/7
f 11/11/11 8/8/8 10/10/10
f 12/12/12 11/11/11 10/10/10
f 13/13/13 11/11/11 12/12/12
f 10/10/10 8/8/8 14/14/14
f 15/15/15 10/10/10 14/14/14
f 8/8/8 16/16/16 14/14/14
f 14/14/14 16/16/16 17/17/17
f 17/17/17 16/16/16 18/18/18
f 19/19/19 14/14/14 17/17/17
f 20/20/20 19/19/19 17/17/17
f 21/21/21 20/20/20 17/17/17
f 22/22/22 21/21/21 17/17/17
f 23/23/23 20/20/20 21/21/21
f 26/26/26 25/25/25 24/24/24
f 29/29/29 28/28/28 27/27/27
f 30/30/30 27/27/27 28/28/28
f 30/30/30 28/28/28 31/31/31
f 32/32/32 30/30/30 31/31/31
f 31/31/31 28/28/28 33/33/33
f 36/36/36 35/35/35 34/34/34
f 37/37/37 35/35/35 36/36/36
f 38/38/38 37/37/37 36/36/36
f 37/37/37 38/38/38 39/39/39
f 40/40/40 39/39/39 38/38/38
f 43/43/43 42/42/42 41/41/41
f 44/44/44 41/41/41 42/42/42
f 44/44/44 42/42/42 45/45/45
f 45/45/45 42/42/42 46/46/46
f 42/42/42 47/47/47 46/46/46
f 50/50/50 49/49/49 48/48/48
f 48/48/48 49/49/49 51/51/51
f 49/49/49 52/52/52 51/51/51
f 52/52/52 49/49/49 53/53/53
f 54/54/54 53/53/53 49/49/49
f 57/57/57 56/56/56 55/55/55
f 58/58/58 56/56/56 57/57/57
f 59/59/59 58/58/58 57/57/57
f 58/58/58 59/59/59 60/60/60
f 61/61/61 60/60/60 59/59/59
f 64/64/64 63/63/63 62/62/62
f 65/65/65 62/62/62 63/63/63
f 65/65/65 63/63/63 66/66/66
f 67/67/67 65/65/65 66/66/66
f 66/66/66 63/63/63 68/68/68
f 71/71/71 70/70/70 69/69/69
f 72/72/72 70/70/70 71/71/71
f 73/73/73 70/70/70 72/72/72
f 73/73/73 74/74/74 70/70/70
f 75/75/75 70/70/70 74/74/74
f 78/78/78 77/77/77 76/76/76
f 77/77/77 79/79/79 76/76/76
f 79/79/79 80/80/80 76/76/76
f 81/81/81 79/79/79 77/77/77
f 82/82/82 81/81/81 77/77/77
f 83/83/83 79/79/79 81/81/81
f 86/86/86 85/85/85 84/84/84
f 84/84/84 85/85/85 87/87/87
f 87/87/87 85/85/85 88/88/88
f 85/85/85 89/89/89 88/88/88
f 88/88/88 89/89/89 90/90/90
f 91/91/91 89/89/89 85/85/85
f 92/92/92 89/89/89 91/91/91
f 90/90/90 89/89/89 93/93/93
f 93/93/93 89/89/89 94/94/94
f 97/97/97 96/96/96 95/95/95
f 96/96/96 98/98/98 95/95/95
f 98/98/98 99/99/99 95/95/95
f 96/96/96 100/100/100 98/98/98
f 103/103/103 102/102/102 101/101/101
f 101/101/101 102/102/102 104/104/104
f 104/104/104 102/102/102 105/105/105
f 102/102/102 106/106/106 105/105/105
f 105/105/105 106/106/106 107/107/107
f 110/110/110 109/109/109 108/108/108
f 108/108/108 109/109/109 111/111/111
f 109/109/109 112/112/112 111/111/111
f 111/111/111 112/112/112 113/113/113
f 113/113/113 112/112/112 114/114/114
f 112/112/112 115/115/115 114/114/114
f 116/116/116 112/112/112 109/109/109
f 117/117/117 116/116/116 109/109/109
f 120/120/120 119/119/119 118/118/118
f 119/119/119 121/121/121 118/118/118
f 121/121/121 122/122/122 118/118/118
f 122/122/122 123/123/123 118/118/118
