g Eff_Model_Player_M_Skill02_01_2
v 0.006443371 -0.09745613 -0.02467807
v 0.01146612 -0.09745613 -0.02231232
v 0.01546724 -0.1171877 -0.001784112
v 0.0140307 -0.1171877 -0.00414986
v -0.03129686 -0.04698087 0.01259849
v -0.00302757 -0.0008358246 -4.999632E-07
v -0.002442099 -0.0008358246 -4.999632E-07
v -0.02838526 -0.04698087 0.0144184
v 0.006443371 -0.09745613 -0.02467807
v 0.01146612 -0.09745613 -0.02231232
v -0.02547367 -0.04698088 0.01579049
v -0.001856629 -0.0008358246 -4.999632E-07
v 0.01648888 -0.09745613 -0.02052871
v -0.02256207 -0.04698087 0.0144184
v -0.001271158 -0.0008358246 -4.999632E-07
v -0.01965047 -0.04698087 0.01259849
v -0.0006856876 -0.0008358246 -4.999632E-07
v 0.02653439 -0.09745613 -0.02467807
v 0.02151163 -0.09745613 -0.02231232
v 0.01977685 -0.1171877 -0.00414986
v 0.01834031 -0.1171877 -0.001784112
v 0.01690377 -0.1171877 -4.999339E-07
v 0.01546724 -0.1171877 -0.001784112
v -0.01303487 -0.1369194 0.01917023
v -0.01749981 -0.1369194 0.02095384
v -0.02196475 -0.1369194 0.01917023
v 0.0140307 -0.1171877 -0.00414986
v -0.0264297 -0.1369194 0.01680448
v 0.01676382 -0.1545142 -0.01204473
v 0.01409989 -0.1545142 -0.01441047
v 0.01942776 -0.1545142 -0.01026111
v 0.0220917 -0.1545142 -0.01204473
v -0.01337245 -0.19254 0.001483518
v -0.01656185 -0.19254 -0.0008822295
v 0.02475563 -0.1545142 -0.01441047
v -0.008569924 -0.1369194 0.01680448
v -0.006993645 -0.19254 0.001483518
v -0.003804246 -0.19254 -0.0008822295
v -0.01018305 -0.19254 0.00326713
v 0.001438392 -0.2008626 0.007003724
v -0.001956618 -0.2008626 0.005220113
v 0.004833401 -0.2008626 0.005220113
v 0.00822841 -0.2008626 0.002854365
v -0.007205431 -0.2272072 -4.999716E-07
v -0.007705335 -0.2272072 -4.999716E-07
v -0.001956618 -0.2008626 0.005220113
v 0.001438392 -0.2008626 0.007003724
v 0.004833401 -0.2008626 0.005220113
v -0.006705527 -0.2272072 -4.999716E-07
v 0.00822841 -0.2008626 0.002854365
v -0.006205623 -0.2272072 -4.999716E-07
v -0.008569924 -0.1369194 0.01680448
v -0.01303487 -0.1369194 0.01917023
v 0.01834031 -0.1171877 -0.001784112
v 0.01977685 -0.1171877 -0.00414986
v -0.01656185 -0.19254 -0.0008822295
v -0.01337245 -0.19254 0.001483518
v -0.001956618 -0.2008626 0.005220113
v -0.005351627 -0.2008626 0.002854365
v -0.005351627 -0.2008626 0.002854365
v -0.001956618 -0.2008626 0.005220113
v -0.007705335 -0.2272072 -4.999716E-07
v -0.008205239 -0.2272072 -4.999716E-07
vt 0.06186025 0.554991
vt 0.1894318 0.4948078
vt 0.2143066 0.4896073
vt 0.2667396 0.4642229
vt 0 0.75
vt 0 1
vt 0.25 1
vt 0.25 0.75
vt 0.06186025 0.554991
vt 0.1894318 0.4948078
vt 0.5 0.75
vt 0.5 1
vt 0.3131984 0.5021389
vt 0.75 0.75
vt 0.75 1
vt 1 0.75
vt 1 1
vt 0.6633071 0.5757015
vt 0.5056229 0.4942941
vt 0.4893747 0.3673468
vt 0.424608 0.3928891
vt 0.3083625 0.417628
vt 0.2143066 0.4896073
vt 0.75 0.375
vt 0.5 0.375
vt 0.25 0.375
vt 0.2667396 0.4642229
vt 0 0.375
vt 0.25 0.25
vt 0 0.25
vt 0.5 0.25
vt 0.75 0.25
vt 0.25 0.125
vt 0 0.125
vt 1 0.25
vt 1 0.375
vt 0.75 0.125
vt 1 0.125
vt 0.5 0.125
vt 0.4976465 0.09763706
vt 0.351307 0.09238668
vt 0.6355352 0.09208579
vt 0.8418712 0.0424727
vt 0.2004681 0.04290476
vt 0.2980508 -0.1047905
vt 0.351307 0.09238668
vt 0.4976465 0.09763706
vt 0.6355352 0.09208579
vt 0.3803933 0.1452362
vt 0.8418712 0.0424727
vt 0.4310928 0.1993459
vt 1 0.375
vt 0.75 0.375
vt 0.424608 0.3928891
vt 0.4893747 0.3673468
vt 0 0.125
vt 0.25 0.125
vt 0.351307 0.09238668
vt 0.1928056 0.1764301
vt 0.1928056 0.1764301
vt 0.351307 0.09238668
vt 0.2980508 -0.1047905
vt 0.2651094 -0.0188037
vn 0 0 1
vn 0 0 1
vn 0 0 1
vn 0 0 1
vn 0 0 1
vn 0 0 1
vn 0 0 1
vn 0 0 1
vn 0 0 1
vn 0 0 1
vn 0 0 1
vn 0 0 1
vn 0 0 1
vn 0 0 1
vn 0 0 1
vn 0 0 1
vn 0 0 1
vn 0 0 1
vn 0 0 1
vn 0 0 1
vn 0 0 1
vn 0 0 1
vn 0 0 1
vn 0 0 1
vn 0 0 1
vn 0 0 1
vn 0 0 1
vn 0 0 1
vn 0 0 1
vn 0 0 1
vn 0 0 1
vn 0 0 1
vn 0 0 1
vn 0 0 1
vn 0 0 1
vn 0 0 1
vn 0 0 1
vn 0 0 1
vn 0 0 1
vn 0 0 1
vn 0 0 1
vn 0 0 1
vn 0 0 1
vn 0 0 1
vn 0 0 1
vn 0 0 1
vn 0 0 1
vn 0 0 1
vn 0 0 1
vn 0 0 1
vn 0 0 1
vn 0 0 1
vn 0 0 1
vn 0 0 1
vn 0 0 1
vn 0 0 1
vn 0 0 1
vn 0 0 1
vn 0 0 1
vn 0 0 1
vn 0 0 1
vn 0 0 1
vn 0 0 1
g Eff_Model_Player_M_Skill02_01_2_0
f 3/3/3 2/2/2 1/1/1
f 4/4/4 3/3/3 1/1/1
f 7/7/7 6/6/6 5/5/5
f 8/8/8 7/7/7 5/5/5
f 8/8/8 5/5/5 9/9/9
f 10/10/10 8/8/8 9/9/9
f 7/7/7 8/8/8 11/11/11
f 12/12/12 7/7/7 11/11/11
f 8/8/8 10/10/10 13/13/13
f 11/11/11 8/8/8 13/13/13
f 12/12/12 11/11/11 14/14/14
f 15/15/15 12/12/12 14/14/14
f 15/15/15 14/14/14 16/16/16
f 17/17/17 15/15/15 16/16/16
f 16/16/16 14/14/14 18/18/18
f 14/14/14 11/11/11 19/19/19
f 14/14/14 19/19/19 18/18/18
f 11/11/11 13/13/13 19/19/19
f 18/18/18 19/19/19 20/20/20
f 19/19/19 21/21/21 20/20/20
f 19/19/19 13/13/13 21/21/21
f 13/13/13 10/10/10 22/22/22
f 13/13/13 22/22/22 21/21/21
f 10/10/10 23/23/23 22/22/22
f 21/21/21 22/22/22 24/24/24
f 22/22/22 23/23/23 25/25/25
f 22/22/22 25/25/25 24/24/24
f 23/23/23 26/26/26 25/25/25
f 26/26/26 23/23/23 27/27/27
f 28/28/28 26/26/26 27/27/27
f 29/29/29 26/26/26 28/28/28
f 30/30/30 29/29/29 28/28/28
f 25/25/25 26/26/26 31/31/31
f 26/26/26 29/29/29 31/31/31
f 24/24/24 25/25/25 32/32/32
f 25/25/25 31/31/31 32/32/32
f 33/33/33 29/29/29 30/30/30
f 34/34/34 33/33/33 30/30/30
f 24/24/24 32/32/32 35/35/35
f 36/36/36 24/24/24 35/35/35
f 32/32/32 37/37/37 35/35/35
f 32/32/32 31/31/31 37/37/37
f 37/37/37 38/38/38 35/35/35
f 31/31/31 29/29/29 39/39/39
f 29/29/29 33/33/33 39/39/39
f 31/31/31 39/39/39 37/37/37
f 39/39/39 33/33/33 40/40/40
f 39/39/39 40/40/40 37/37/37
f 33/33/33 41/41/41 40/40/40
f 40/40/40 42/42/42 37/37/37
f 37/37/37 42/42/42 38/38/38
f 42/42/42 43/43/43 38/38/38
f 46/46/46 45/45/45 44/44/44
f 47/47/47 46/46/46 44/44/44
f 48/48/48 47/47/47 44/44/44
f 49/49/49 48/48/48 44/44/44
f 50/50/50 48/48/48 49/49/49
f 51/51/51 50/50/50 49/49/49
f 54/54/54 53/53/53 52/52/52
f 55/55/55 54/54/54 52/52/52
f 58/58/58 57/57/57 56/56/56
f 59/59/59 58/58/58 56/56/56
f 62/62/62 61/61/61 60/60/60
f 63/63/63 62/62/62 60/60/60
