g Eff_Avatar_Mar_7th_00_Weapon
v -0.02027219 -1.002065 -0.06298811
v -0.01236221 -0.9572048 -0.03917304
v -0.01263845 -0.9587714 -0.0266086
v -0.0218858 -1.011216 -0.01403015
v -0.02432175 -1.025031 -0.04746067
v -0.02476722 -1.027557 -0.03607391
v 1.192242E-07 -0.947252 -0.02185041
v -0.01263845 -0.9587714 -0.0266086
v -0.01236221 -0.9572048 -0.03917304
v 1.183726E-07 -0.9449521 -0.03975479
v 1.183726E-07 -0.9449521 -0.03975479
v -0.01236221 -0.9572048 -0.03917304
v -0.02027219 -1.002065 -0.06298811
v 1.171425E-07 -1.002844 -0.07002135
v 1.198866E-07 -1.014654 -0.007800687
v -0.0218858 -1.011216 -0.01403015
v -0.01263845 -0.9587714 -0.0266086
v 1.192242E-07 -0.947252 -0.02185041
v 1.171425E-07 -1.002844 -0.07002135
v -0.02027219 -1.002065 -0.06298811
v -0.02432175 -1.025031 -0.04746067
v 1.180887E-07 -1.032482 -0.05028753
v -0.02476722 -1.027557 -0.03607391
v 1.187511E-07 -1.035742 -0.03581613
v 1.187511E-07 -1.035742 -0.03581613
v -0.02476722 -1.027557 -0.03607391
v -0.0218858 -1.011216 -0.01403015
v 1.198866E-07 -1.014654 -0.007800687
v 0.02027247 -1.002065 -0.06298811
v 0.01263874 -0.9587714 -0.0266086
v 0.01236249 -0.9572048 -0.03917304
v 0.02188609 -1.011216 -0.01403015
v 0.02432203 -1.025031 -0.04746067
v 0.0247675 -1.027557 -0.03607391
v 1.192242E-07 -0.947252 -0.02185041
v 1.183726E-07 -0.9449521 -0.03975479
v 0.01236249 -0.9572048 -0.03917304
v 0.01263874 -0.9587714 -0.0266086
v 1.183726E-07 -0.9449521 -0.03975479
v 1.171425E-07 -1.002844 -0.07002135
v 0.02027247 -1.002065 -0.06298811
v 0.01236249 -0.9572048 -0.03917304
v 1.198866E-07 -1.014654 -0.007800687
v 1.192242E-07 -0.947252 -0.02185041
v 0.01263874 -0.9587714 -0.0266086
v 0.02188609 -1.011216 -0.01403015
v 1.171425E-07 -1.002844 -0.07002135
v 0.02432203 -1.025031 -0.04746067
v 0.02027247 -1.002065 -0.06298811
v 1.180887E-07 -1.032482 -0.05028753
v 0.0247675 -1.027557 -0.03607391
v 1.187511E-07 -1.035742 -0.03581613
v 1.187511E-07 -1.035742 -0.03581613
v 1.198866E-07 -1.014654 -0.007800687
v 0.02188609 -1.011216 -0.01403015
v 0.0247675 -1.027557 -0.03607391
v -0.01615834 -0.8738871 -0.005297739
v -0.01052274 -0.9006836 2.790527E-05
v -0.01764149 -0.9820509 -0.02218556
v -0.02508251 -0.9758903 -0.03389289
v -0.009654233 -0.8484762 -0.01062934
v -0.01668476 -0.9711155 -0.04560618
v 0.01615858 -0.8738871 -0.005297739
v 0.01764173 -0.9820509 -0.02218556
v 0.01052302 -0.9006836 2.790527E-05
v 0.02508274 -0.9758902 -0.03389289
v 0.009654423 -0.8484763 -0.01062934
v 0.016685 -0.9711155 -0.04560618
v -0.02462227 1.213873 -4.844665E-08
v -2.96168E-08 1.262104 -0.03527774
v -2.819747E-08 1.367344 -9.689331E-08
v -0.02336852 1.135589 -0.02530412
v -3.075227E-08 1.147097 -0.06307817
v 1.712665E-08 1.04993 -0.08022849
v 1.769438E-08 1.028252 -0.06689732
v -2.96168E-08 1.064448 -0.03973474
v -0.03967628 1.053789 -4.844665E-08
v 1.996532E-08 0.994184 -0.01638568
v -0.01317185 0.9943299 -4.844665E-08
v -0.0131718 0.9576538 -4.844665E-08
v 2.005994E-08 0.9575285 -0.01638568
v -0.02135173 0.8309147 0
v 1.892447E-08 0.8308098 -0.04642076
v -0.0115 0.7432735 0
v 6.869584E-08 0.7431892 -0.01981647
v -0.01169849 -0.1917829 0
v 2.152659E-07 -0.1918465 -0.01981638
v -0.02099191 -0.3268069 4.844665E-08
v 2.145089E-07 -0.3268547 -0.04009639
v -0.02739128 -0.7665299 4.844665E-08
v 3.1197E-07 -0.7665618 -0.04030951
v 3.100775E-07 -0.8566819 -0.08421918
v -0.01244893 -0.856674 -0.04146786
v 3.109291E-07 -0.9468021 -0.06747194
v -0.003606394 -0.856666 4.844665E-08
v 3.123484E-07 -0.9224812 -0.03575698
v -0.007191882 -0.9202458 4.844665E-08
v -0.007278893 -1.058481 4.844665E-08
v 3.614575E-07 -1.058696 -0.025581
v 4.114181E-07 -1.367344 9.689331E-08
v 0.02462221 1.213873 -4.844665E-08
v -2.819747E-08 1.367344 -9.689331E-08
v -2.96168E-08 1.262104 -0.03527774
v 0.02336846 1.135589 -0.02530412
v -3.075227E-08 1.147097 -0.06307817
v 1.712665E-08 1.04993 -0.08022849
v 1.769438E-08 1.028252 -0.06689732
v -2.96168E-08 1.064448 -0.03973474
v 0.03967628 1.053789 -4.844665E-08
v 1.996532E-08 0.994184 -0.01638568
v 0.01317184 0.9943299 -4.844665E-08
v 0.01317184 0.9576538 -4.844665E-08
v 2.005994E-08 0.9575285 -0.01638568
v 0.02135182 0.8309147 -9.689331E-08
v 1.892447E-08 0.8308098 -0.04642076
v 0.01150014 0.7432735 -9.689331E-08
v 6.869584E-08 0.7431892 -0.01981647
v 0.01169887 -0.1917829 0
v 2.152659E-07 -0.1918465 -0.01981638
v 0.02099239 -0.3268069 0
v 2.145089E-07 -0.3268547 -0.04009639
v 0.02739191 -0.7665299 4.844665E-08
v 3.1197E-07 -0.7665618 -0.04030951
v 3.100775E-07 -0.8566819 -0.08421918
v 0.01244955 -0.856674 -0.04146786
v 3.109291E-07 -0.9468021 -0.06747194
v 0.003607022 -0.856666 4.844665E-08
v 3.123484E-07 -0.9224812 -0.03575698
v 0.007192559 -0.9202458 4.844665E-08
v 0.007279569 -1.058481 4.844665E-08
v 3.614575E-07 -1.058696 -0.025581
v 4.114181E-07 -1.367344 9.689331E-08
vt 0.8666635 0.1412297
vt 0.7279631 0.1572908
vt 0.6560321 0.15673
vt 0.5865313 0.1379533
vt 0.7788069 0.133007
vt 0.7136729 0.1321025
vt 0.6252258 0.1608543
vt 0.6560321 0.15673
vt 0.7279631 0.1572908
vt 0.7278376 0.1616777
vt 0.7278376 0.1616777
vt 0.7279631 0.1572908
vt 0.8666635 0.1412297
vt 0.9012988 0.1409506
vt 0.5447052 0.1367224
vt 0.5865313 0.1379533
vt 0.6560321 0.15673
vt 0.6252258 0.1608543
vt 0.9012988 0.1409506
vt 0.8666635 0.1412297
vt 0.7788069 0.133007
vt 0.788202 0.1303393
vt 0.7136729 0.1321025
vt 0.7052647 0.129172
vt 0.7052647 0.129172
vt 0.7136729 0.1321025
vt 0.5865313 0.1379533
vt 0.5447052 0.1367224
vt 0.8553176 0.1412297
vt 0.6489589 0.15673
vt 0.7210444 0.1572908
vt 0.5742823 0.1379533
vt 0.7651948 0.133007
vt 0.6998115 0.1321025
vt 0.6252258 0.1608543
vt 0.7278376 0.1616777
vt 0.7210444 0.1572908
vt 0.6489589 0.15673
vt 0.7278376 0.1616777
vt 0.9012988 0.1409506
vt 0.8553176 0.1412297
vt 0.7210444 0.1572908
vt 0.5447052 0.1367224
vt 0.6252258 0.1608543
vt 0.6489589 0.15673
vt 0.5742823 0.1379533
vt 0.9012988 0.1409506
vt 0.7651948 0.133007
vt 0.8553176 0.1412297
vt 0.788202 0.1303393
vt 0.6998115 0.1321025
vt 0.7052647 0.129172
vt 0.7052647 0.129172
vt 0.5447052 0.1367224
vt 0.5742823 0.1379533
vt 0.6998115 0.1321025
vt 0.5348823 0.1871212
vt 0.5027833 0.1775272
vt 0.6320832 0.1483952
vt 0.7012615 0.1506009
vt 0.5636183 0.1962191
vt 0.7660419 0.1523104
vt 0.5258389 0.1871212
vt 0.62221 0.1483952
vt 0.4968939 0.1775272
vt 0.6872236 0.1506009
vt 0.5582151 0.1962191
vt 0.7567037 0.1523104
vt 0.5068933 0.9346042
vt 0.7021835 0.9518728
vt 0.5000035 0.9895518
vt 0.6515627 0.9065763
vt 0.8615106 0.9106965
vt 0.9598006 0.8759077
vt 0.8833983 0.8681464
vt 0.7277265 0.8811057
vt 0.5111054 0.8772894
vt 0.5939103 0.8559489
vt 0.5036883 0.8560011
vt 0.5036883 0.8428699
vt 0.5939103 0.8428251
vt 0.5059769 0.7974933
vt 0.7660447 0.7974558
vt 0.50322 0.7661151
vt 0.613572 0.7660849
vt 0.5032738 0.4313357
vt 0.6135699 0.4313129
vt 0.5058738 0.382993
vt 0.7297966 0.3829758
vt 0.5076638 0.2255584
vt 0.7310172 0.225547
vt 0.9826685 0.1932812
vt 0.7411397 0.193284
vt 0.8866879 0.1610153
vt 0.5010077 0.1932869
vt 0.7049259 0.169723
vt 0.5020108 0.1705233
vt 0.5020351 0.1210308
vt 0.6466058 0.1209538
vt 0.499997 0.01044816
vt 0.4931128 0.9346042
vt 0.5000035 0.9895518
vt 0.7021835 0.9518728
vt 0.6384839 0.9065763
vt 0.8615106 0.9106965
vt 0.9598006 0.8759077
vt 0.8833983 0.8681464
vt 0.7277265 0.8811057
vt 0.4888997 0.8772894
vt 0.5939103 0.8559489
vt 0.4963165 0.8560011
vt 0.4963165 0.8428699
vt 0.5939103 0.8428251
vt 0.4940276 0.7974933
vt 0.7660447 0.7974558
vt 0.4967843 0.7661151
vt 0.613572 0.7660849
vt 0.4967264 0.4313357
vt 0.6135699 0.4313129
vt 0.4941254 0.382993
vt 0.7297966 0.3829758
vt 0.4923336 0.2255584
vt 0.7310172 0.225547
vt 0.9826685 0.1932812
vt 0.734172 0.193284
vt 0.8866879 0.1610153
vt 0.4989891 0.1932869
vt 0.7049259 0.169723
vt 0.4979856 0.1705233
vt 0.497961 0.1210308
vt 0.6466058 0.1209538
vt 0.499997 0.01044816
vn -0.9848213 0.1735715 0
vn -0.9848214 0.1735709 0
vn -0.9848214 0.1735709 0
vn -0.9848213 0.1735715 0
vn -0.9848213 0.1735715 0
vn -0.9848213 0.1735715 0
vn 0 0.9930946 0.1173172
vn -0.6940534 0.7149469 0.08450413
vn -0.6940534 0.7149469 0.08450413
vn 0 0.9930946 0.1173172
vn 0 0.4882317 -0.8727141
vn -0.3513658 0.4570076 -0.8171206
vn -0.3513632 0.4570082 -0.8171214
vn 0 0.4882317 -0.8727141
vn 0 0.2437471 0.9698389
vn -0.3434885 0.2289009 0.9108348
vn -0.3434885 0.2289009 0.9108348
vn 0 0.2437471 0.9698389
vn 0 -0.5416056 -0.8406328
vn -0.2748102 -0.5206892 -0.8083081
vn -0.3119348 -0.7792679 -0.5435423
vn 0 -0.8282157 -0.5604094
vn -0.3066375 -0.9277205 -0.2128569
vn 0 -0.9746509 -0.223731
vn 0 -0.793035 0.609176
vn -0.2716346 -0.7632327 0.5862512
vn -0.2716346 -0.7632327 0.5862512
vn 0 -0.793035 0.609176
vn 0.9848213 0.1735715 0
vn 0.9848213 0.1735715 0
vn 0.9848213 0.1735715 0
vn 0.9848213 0.1735715 0
vn 0.9848215 0.1735704 0
vn 0.9848215 0.1735704 0
vn 0 0.9930946 0.1173172
vn 0 0.9930946 0.1173172
vn 0.6940534 0.7149469 0.08450413
vn 0.6940534 0.7149469 0.08450413
vn 0 0.4882317 -0.8727141
vn 0 0.4882317 -0.8727141
vn 0.3513632 0.4570082 -0.8171214
vn 0.3513632 0.4570082 -0.8171214
vn 0 0.2437471 0.9698389
vn 0 0.2437471 0.9698389
vn 0.3434885 0.2289009 0.9108348
vn 0.3434885 0.2289009 0.9108348
vn 0 -0.5416056 -0.8406328
vn 0.3119295 -0.7792694 -0.5435433
vn 0.2748102 -0.5206892 -0.8083081
vn 0 -0.8282157 -0.5604094
vn 0.3066375 -0.9277205 -0.2128569
vn 0 -0.9746509 -0.223731
vn 0 -0.793035 0.609176
vn 0 -0.793035 0.609176
vn 0.2716346 -0.7632327 0.5862512
vn 0.2716346 -0.7632327 0.5862512
vn -0.9838478 0.1026155 -0.1466754
vn -0.9951256 -0.0976553 0.01373278
vn -0.851619 -0.06942505 0.5195435
vn -0.9938937 0.0541686 0.09613019
vn -0.9640018 0.236122 -0.122257
vn -0.8792474 0.186544 -0.4383213
vn 0.9838478 0.1026155 -0.1466754
vn 0.851619 -0.06942505 0.5195435
vn 0.9951256 -0.0976553 0.01373278
vn 0.9938937 0.0541686 0.09613019
vn 0.9640018 0.236122 -0.122257
vn 0.8792474 0.186544 -0.4383213
vn -0.9902593 0.1392347 0
vn -0.8869463 0.1373306 -0.4409839
vn -0.9873891 0.1583124 0
vn -0.9051859 0.05989272 -0.4207749
vn -0.8664722 0.1075701 -0.4874983
vn -0.9593332 -0.09040721 -0.267407
vn -0.9789971 -0.2018022 -0.02899238
vn -0.9343378 -0.3303566 -0.1337067
vn -0.9766638 -0.214774 0
vn -0.7325367 -0.1415249 -0.6658534
vn -0.9814194 -0.1918744 0
vn -0.9986533 0.0518798 0
vn -0.832765 0.04539217 -0.5517628
vn -0.9998527 -0.01716618 0
vn -0.885995 -0.01411421 -0.46348
vn -0.9976921 -0.06790119 0
vn -0.8794306 -0.06275109 -0.471873
vn -0.9992648 0.03833778 0
vn -0.8702869 0.03442816 -0.4913403
vn -0.9991431 0.04138932 0
vn -0.8664739 0.03490392 -0.4980008
vn -0.9998527 0.01716608 0
vn -0.8800466 0.07438783 -0.4690248
vn -0.9366364 0.029754 -0.3490373
vn -0.9919785 -0.06790137 -0.1066204
vn -0.9912589 -0.1243568 -0.04405893
vn -0.9845523 -0.1750909 0
vn -0.9962124 -0.08163529 -0.02994566
vn -0.999683 0.02517704 0
vn -0.9998716 -0.01602169 0
vn -0.9680123 -0.01525899 -0.2504382
vn -0.9997203 -0.02365107 0
vn 0.9902593 0.1392347 0
vn 0.9873891 0.1583126 0
vn 0.8869463 0.1373306 -0.4409837
vn 0.9051859 0.05989272 -0.4207749
vn 0.8664721 0.1075701 -0.4874985
vn 0.9593331 -0.0904073 -0.2674073
vn 0.9789971 -0.2018023 -0.02899239
vn 0.9343378 -0.3303566 -0.1337067
vn 0.9766638 -0.214774 0
vn 0.7325364 -0.1415249 -0.6658536
vn 0.9814194 -0.1918744 0
vn 0.9986533 0.05187995 0
vn 0.832765 0.04539215 -0.5517626
vn 0.9998527 -0.01716618 0
vn 0.8859947 -0.01411421 -0.4634803
vn 0.9976921 -0.06790119 0
vn 0.8794304 -0.06275117 -0.4718734
vn 0.9992648 0.03833767 0
vn 0.8702871 0.03442815 -0.4913402
vn 0.9991431 0.04138932 0
vn 0.8664739 0.03490391 -0.4980007
vn 0.9998527 0.01716608 0
vn 0.8800467 0.07438781 -0.4690247
vn 0.9366364 0.02975399 -0.3490372
vn 0.9919785 -0.06790137 -0.1066204
vn 0.9912589 -0.1243569 -0.04405897
vn 0.9845524 -0.1750906 0
vn 0.9962124 -0.08163526 -0.02994564
vn 0.999683 0.025177 0
vn 0.9998716 -0.01602169 0
vn 0.9680122 -0.015259 -0.2504383
vn 0.9997203 -0.02365109 0
g Eff_Avatar_Mar_7th_00_Weapon_0
f 3/3/3 2/2/2 1/1/1
f 4/4/4 3/3/3 1/1/1
f 4/4/4 1/1/1 5/5/5
f 6/6/6 4/4/4 5/5/5
f 9/9/9 8/8/8 7/7/7
f 10/10/10 9/9/9 7/7/7
f 13/13/13 12/12/12 11/11/11
f 14/14/14 13/13/13 11/11/11
f 17/17/17 16/16/16 15/15/15
f 18/18/18 17/17/17 15/15/15
f 21/21/21 20/20/20 19/19/19
f 22/22/22 21/21/21 19/19/19
f 23/23/23 21/21/21 22/22/22
f 24/24/24 23/23/23 22/22/22
f 27/27/27 26/26/26 25/25/25
f 28/28/28 27/27/27 25/25/25
f 31/31/31 30/30/30 29/29/29
f 30/30/30 32/32/32 29/29/29
f 29/29/29 32/32/32 33/33/33
f 32/32/32 34/34/34 33/33/33
f 37/37/37 36/36/36 35/35/35
f 38/38/38 37/37/37 35/35/35
f 41/41/41 40/40/40 39/39/39
f 42/42/42 41/41/41 39/39/39
f 45/45/45 44/44/44 43/43/43
f 46/46/46 45/45/45 43/43/43
f 49/49/49 48/48/48 47/47/47
f 48/48/48 50/50/50 47/47/47
f 48/48/48 51/51/51 50/50/50
f 51/51/51 52/52/52 50/50/50
f 55/55/55 54/54/54 53/53/53
f 56/56/56 55/55/55 53/53/53
f 59/59/59 58/58/58 57/57/57
f 60/60/60 59/59/59 57/57/57
f 60/60/60 57/57/57 61/61/61
f 62/62/62 60/60/60 61/61/61
f 65/65/65 64/64/64 63/63/63
f 64/64/64 66/66/66 63/63/63
f 63/63/63 66/66/66 67/67/67
f 66/66/66 68/68/68 67/67/67
f 71/71/71 70/70/70 69/69/69
f 72/72/72 69/69/69 70/70/70
f 73/73/73 72/72/72 70/70/70
f 73/73/73 74/74/74 72/72/72
f 74/74/74 75/75/75 72/72/72
f 75/75/75 76/76/76 72/72/72
f 77/77/77 69/69/69 72/72/72
f 77/77/77 72/72/72 76/76/76
f 77/77/77 76/76/76 78/78/78
f 79/79/79 77/77/77 78/78/78
f 80/80/80 79/79/79 78/78/78
f 81/81/81 80/80/80 78/78/78
f 82/82/82 80/80/80 81/81/81
f 83/83/83 82/82/82 81/81/81
f 84/84/84 82/82/82 83/83/83
f 85/85/85 84/84/84 83/83/83
f 86/86/86 84/84/84 85/85/85
f 87/87/87 86/86/86 85/85/85
f 88/88/88 86/86/86 87/87/87
f 89/89/89 88/88/88 87/87/87
f 90/90/90 88/88/88 89/89/89
f 91/91/91 90/90/90 89/89/89
f 90/90/90 91/91/91 92/92/92
f 93/93/93 90/90/90 92/92/92
f 93/93/93 92/92/92 94/94/94
f 93/93/93 95/95/95 90/90/90
f 93/93/93 94/94/94 96/96/96
f 93/93/93 96/96/96 95/95/95
f 96/96/96 97/97/97 95/95/95
f 98/98/98 97/97/97 96/96/96
f 99/99/99 98/98/98 96/96/96
f 100/100/100 98/98/98 99/99/99
f 103/103/103 102/102/102 101/101/101
f 101/101/101 104/104/104 103/103/103
f 104/104/104 105/105/105 103/103/103
f 106/106/106 105/105/105 104/104/104
f 107/107/107 106/106/106 104/104/104
f 108/108/108 107/107/107 104/104/104
f 101/101/101 109/109/109 104/104/104
f 104/104/104 109/109/109 108/108/108
f 108/108/108 109/109/109 110/110/110
f 109/109/109 111/111/111 110/110/110
f 111/111/111 112/112/112 110/110/110
f 112/112/112 113/113/113 110/110/110
f 112/112/112 114/114/114 113/113/113
f 114/114/114 115/115/115 113/113/113
f 114/114/114 116/116/116 115/115/115
f 116/116/116 117/117/117 115/115/115
f 116/116/116 118/118/118 117/117/117
f 118/118/118 119/119/119 117/117/117
f 118/118/118 120/120/120 119/119/119
f 120/120/120 121/121/121 119/119/119
f 120/120/120 122/122/122 121/121/121
f 122/122/122 123/123/123 121/121/121
f 123/123/123 122/122/122 124/124/124
f 122/122/122 125/125/125 124/124/124
f 124/124/124 125/125/125 126/126/126
f 127/127/127 125/125/125 122/122/122
f 126/126/126 125/125/125 128/128/128
f 128/128/128 125/125/125 127/127/127
f 129/129/129 128/128/128 127/127/127
f 129/129/129 130/130/130 128/128/128
f 130/130/130 131/131/131 128/128/128
f 130/130/130 132/132/132 131/131/131
