g Effect
v 0.01044412 0.0187693 0.00221399
v 0.006219571 0.02291799 0.00221399
v 0.008886459 0.02117417 0.00221399
v 0.005644926 0.01480967 0.00221399
v 0.009759651 0.01476545 0.00221399
v 0.007570525 0.008480244 0.00221399
v 0.006219571 0.02291799 0.00221399
v 0.00412204 0.002392723 0.00221399
v 7.107675E-05 0.0148608 0.00221399
v 0.003166169 0.0239305 0.00221399
v 0.0001127667 0.02428067 0.00221399
v 2.129994E-06 0.002342106 0.00221399
v 0.001985812 -0.0002513486 0.00221399
v -1.989541E-05 -0.001643553 0.00221399
v -0.004117593 0.002455607 0.00221399
v -0.002008702 -0.0002173851 0.00221399
v -1.989541E-05 -0.001643553 0.00221399
v -0.005503014 0.01489175 0.00221399
v -0.00749807 0.008590559 0.00221399
v -0.009617739 0.01490801 0.00221399
v -0.01024802 0.01893091 0.00221399
v -0.005997847 0.02300791 0.00221399
v -0.00294254 0.02397546 0.00221399
v 0.0001127667 0.02428067 0.00221399
v -0.008673883 0.02132452 0.00221399
v -0.005997847 0.02300791 0.00221399
v 0.01033472 0.02237547 0.000117149
v 0.01188415 0.01475 0.0001171493
v 0.01217402 0.01926468 0.0001171493
v 0.007267431 0.02442789 0.0001171493
v 0.01033472 0.02237547 0.000117149
v 0.009642716 0.008853291 0.0001171493
v 0.006669134 0.003082521 0.0001171493
v 0.00403546 -0.0005028854 0.0001171493
v 0.001871653 -0.002725007 0.0001171493
v 0.0001373657 0.02595901 0.0001171493
v -1.425018E-05 -0.003820157 0.0001171493
v 0.003702398 0.02552463 0.0001171493
v 0.007267431 0.02442789 0.0001171493
v -0.01008267 0.02256228 0.000117149
v -0.01193771 0.01946122 0.0001171493
v -0.01170731 0.01492493 0.0001171493
v -0.006997735 0.0245144 0.0001171493
v -0.01008267 0.02256228 0.000117149
v -0.006997735 0.0245144 0.0001171493
v -0.009531005 0.008995188 0.0001171493
v -0.006621146 0.00318338 0.0001171493
v -0.004027176 -0.0004392883 0.0001171493
v -0.001887993 -0.002695349 0.0001171493
v -0.003430185 0.02556788 0.0001171493
v 0.0001373657 0.02595901 0.0001171493
v -1.425018E-05 -0.003820157 0.0001171493
v 0.003166169 0.0239305 0.00221399
v 0.0001127667 0.02428067 0.00221399
v 0.0001373657 0.02595901 0.0001171493
v 0.003702398 0.02552463 0.0001171493
v -1.425018E-05 -0.003820157 0.0001171493
v -1.989541E-05 -0.001643553 0.00221399
v 0.001985812 -0.0002513486 0.00221399
v 0.001871653 -0.002725007 0.0001171493
v 0.00403546 -0.0005028854 0.0001171493
v 0.00412204 0.002392723 0.00221399
v 0.006669134 0.003082521 0.0001171493
v 0.007570525 0.008480244 0.00221399
v 0.009642716 0.008853291 0.0001171493
v 0.009759651 0.01476545 0.00221399
v 0.01188415 0.01475 0.0001171493
v 0.01044412 0.0187693 0.00221399
v 0.01217402 0.01926468 0.0001171493
v 0.008886459 0.02117417 0.00221399
v 0.01033472 0.02237547 0.000117149
v 0.006219571 0.02291799 0.00221399
v 0.007267431 0.02442789 0.0001171493
v 0.003166169 0.0239305 0.00221399
v 0.003702398 0.02552463 0.0001171493
v -0.006997735 0.0245144 0.0001171493
v -0.003430185 0.02556788 0.0001171493
v -0.00294254 0.02397546 0.00221399
v -0.005997847 0.02300791 0.00221399
v -0.01008267 0.02256228 0.000117149
v -0.008673883 0.02132452 0.00221399
v -0.01193771 0.01946122 0.0001171493
v -0.01024802 0.01893091 0.00221399
v -0.01170731 0.01492493 0.0001171493
v -0.009617739 0.01490801 0.00221399
v -0.009531005 0.008995188 0.0001171493
v -0.00749807 0.008590559 0.00221399
v -0.006621146 0.00318338 0.0001171493
v -0.004117593 0.002455607 0.00221399
v -0.004027176 -0.0004392883 0.0001171493
v -0.002008702 -0.0002173851 0.00221399
v -0.001887993 -0.002695349 0.0001171493
v -1.425018E-05 -0.003820157 0.0001171493
v -1.989541E-05 -0.001643553 0.00221399
v -0.003430185 0.02556788 0.0001171493
v 0.0001373657 0.02595901 0.0001171493
v 0.0001127667 0.02428067 0.00221399
v -0.00294254 0.02397546 0.00221399
vt 0.8016542 0.7772105
vt 0.6659915 0.8767458
vt 0.7669837 0.849974
vt 0.6506516 0.6528727
vt 0.7786417 0.6537347
vt 0.7132213 0.4575245
vt 0.6659915 0.8767458
vt 0.607989 0.2679108
vt 0.4777915 0.6530821
vt 0.5712853 0.8827729
vt 0.4765792 0.8888001
vt 0.4797787 0.2660393
vt 0.5418881 0.186966
vt 0.4804009 0.1455161
vt 0.351532 0.2671336
vt 0.4185135 0.1866894
vt 0.4804009 0.1455161
vt 0.304935 0.6517356
vt 0.2443813 0.4559616
vt 0.1769423 0.6517396
vt 0.1529719 0.7752324
vt 0.2872823 0.8755011
vt 0.3819308 0.8821507
vt 0.4765792 0.8888001
vt 0.1866119 0.8483639
vt 0.2872823 0.8755011
vt 0.7456145 0.05733949
vt 0.7581181 0.1413125
vt 0.7356803 0.07493478
vt 0.8428137 0.0371277
vt 0.7456145 0.05733949
vt 0.7901114 0.2142268
vt 0.830156 0.2856135
vt 0.8661869 0.3300039
vt 0.8989142 0.3575563
vt 0.9273433 0.03125504
vt 0.9284799 0.3711613
vt 0.8850785 0.03419137
vt 0.8428137 0.0371277
vt 0.7491312 0.05675933
vt 0.7389129 0.07421273
vt 0.7603442 0.1409458
vt 0.8466736 0.03805122
vt 0.7491312 0.05675933
vt 0.8466736 0.03805122
vt 0.7912242 0.2143807
vt 0.8301679 0.2864069
vt 0.8655239 0.3313653
vt 0.8978367 0.3594272
vt 0.8889977 0.03576615
vt 0.9313218 0.03348109
vt 0.9272013 0.3734944
vt 0.5712853 0.8827729
vt 0.4765792 0.8888001
vt 0.476712 0.9795045
vt 0.6027566 0.9696383
vt 0.4815586 0.02116492
vt 0.4804009 0.1455161
vt 0.5418881 0.186966
vt 0.5502549 0.05376154
vt 0.6302851 0.1267183
vt 0.607989 0.2679108
vt 0.7223907 0.2499541
vt 0.7132213 0.4575245
vt 0.8220528 0.4467815
vt 0.7786417 0.6537347
vt 0.893146 0.6499061
vt 0.8016542 0.7772105
vt 0.9023715 0.8085577
vt 0.7669837 0.849974
vt 0.857474 0.9040603
vt 0.6659915 0.8767458
vt 0.7288011 0.9597721
vt 0.5712853 0.8827729
vt 0.6027566 0.9696383
vt 0.2248057 0.9577468
vt 0.3507589 0.9686257
vt 0.3819308 0.8821507
vt 0.2872823 0.8755011
vt 0.09644288 0.9022785
vt 0.1866119 0.8483639
vt 0.05281147 0.8062509
vt 0.1529719 0.7752324
vt 0.06330025 0.6470573
vt 0.1769423 0.6517396
vt 0.1364652 0.444352
vt 0.2443813 0.4559616
vt 0.238163 0.2482724
vt 0.351532 0.2671336
vt 0.331575 0.1256874
vt 0.4185135 0.1866894
vt 0.412452 0.05326512
vt 0.4815586 0.02116492
vt 0.4804009 0.1455161
vt 0.3507589 0.9686257
vt 0.476712 0.9795045
vt 0.4765792 0.8888001
vt 0.3819308 0.8821507
vn 0 0 1
vn 0 0 1
vn 0 0 1
vn 0 0 1
vn 0 0 1
vn 0 0 1
vn 0 0 1
vn 0 0 1
vn 0 0 1
vn 1.000002E-07 0 1
vn 0 0 1
vn 0 0 1
vn -1.218025E-07 0 1
vn 0 0 1
vn 0 0 1
vn 0 0 1
vn 0 0 1
vn 0 0 1
vn 0 0 1
vn 0 0 1
vn 0 0 1
vn 0 0 1
vn 0 0 1
vn 0 0 1
vn -1.035197E-07 1.311134E-07 1
vn 0 0 1
vn 0 0 -1
vn 0 0 -1
vn 1.87553E-07 0 -1
vn 0 0 -1
vn 0 0 -1
vn 0 0 -1
vn 0 0 -1
vn 0 0 -1
vn 0 0 -1
vn 0 0 -1
vn 0 0 -1
vn 0 0 -1
vn 0 0 -1
vn 0 0 -1
vn -1.775467E-07 0 -1
vn 0 0 -1
vn 0 0 -1
vn 0 0 -1
vn 0 0 -1
vn 0 0 -1
vn 0 0 -1
vn 0 0 -1
vn 0 0 -1
vn 0 0 -1
vn 0 0 -1
vn 0 0 -1
vn 0.09234094 0.7789803 0.620212
vn 0.004956826 0.7795106 0.6263694
vn 0.005271539 0.7795017 0.6263779
vn 0.09234094 0.7789803 0.620212
vn -0.00271111 -0.5318605 0.8468277
vn -0.005290929 -0.531853 0.8468202
vn 0.4234816 -0.4611238 0.7797617
vn 0.3553402 -0.4950207 0.7928984
vn 0.5039471 -0.4251574 0.75185
vn 0.5636876 -0.3441332 0.7508853
vn 0.5746529 -0.3277902 0.7498851
vn 0.5915763 -0.2767518 0.7572621
vn 0.5963334 -0.2587596 0.7598882
vn 0.6182685 -0.180649 0.7649248
vn 0.6222611 -0.1671623 0.7647535
vn 0.6327409 0.03138936 0.7737272
vn 0.6300962 0.05725152 0.7744036
vn 0.3820822 0.5641989 0.7319103
vn 0.4501219 0.4839892 0.7504297
vn 0.0916446 0.7653381 0.6370704
vn 0.1353602 0.7505215 0.6468347
vn 0.2348084 0.7367875 0.6340418
vn 0.2348084 0.7367875 0.6340418
vn -0.1223337 0.7559143 0.6431392
vn -0.2267698 0.7431191 0.629563
vn -0.2267697 0.7431191 0.629563
vn -0.08030198 0.7691786 0.6339684
vn -0.4439976 0.492642 0.748445
vn -0.3749482 0.5713213 0.7300725
vn -0.6337637 0.06531274 0.7707645
vn -0.6370245 0.03770936 0.7699206
vn -0.6291572 -0.1605166 0.7605233
vn -0.6252598 -0.1744103 0.7606782
vn -0.6040295 -0.2538101 0.755466
vn -0.5994332 -0.2720236 0.7527835
vn -0.5829752 -0.3235075 0.7453072
vn -0.5720687 -0.3400741 0.7463826
vn -0.5125332 -0.4218505 0.7478982
vn -0.4328106 -0.4580973 0.7764161
vn -0.3641777 -0.4926704 0.7903482
vn -0.00271111 -0.5318605 0.8468277
vn -0.005290929 -0.531853 0.8468202
vn -0.08216227 0.7814447 0.6185415
vn 0.005271539 0.7795017 0.6263779
vn 0.004956826 0.7795106 0.6263694
vn -0.08216227 0.7814447 0.6185415
g Effect_0
f 3/3/3 2/2/2 1/1/1
f 5/5/5 1/1/1 4/4/4
f 5/5/5 4/4/4 6/6/6
f 1/1/1 7/7/7 4/4/4
f 8/8/8 6/6/6 4/4/4
f 7/7/7 9/9/9 4/4/4
f 8/8/8 4/4/4 9/9/9
f 7/7/7 10/10/10 9/9/9
f 10/10/10 11/11/11 9/9/9
f 12/12/12 8/8/8 9/9/9
f 8/8/8 12/12/12 13/13/13
f 13/13/13 12/12/12 14/14/14
f 15/15/15 12/12/12 9/9/9
f 12/12/12 15/15/15 16/16/16
f 12/12/12 16/16/16 17/17/17
f 18/18/18 15/15/15 9/9/9
f 19/19/19 15/15/15 18/18/18
f 18/18/18 20/20/20 19/19/19
f 21/21/21 20/20/20 18/18/18
f 22/22/22 21/21/21 18/18/18
f 9/9/9 22/22/22 18/18/18
f 22/22/22 9/9/9 23/23/23
f 9/9/9 24/24/24 23/23/23
f 26/26/26 25/25/25 21/21/21
f 29/29/29 28/28/28 27/27/27
f 31/31/31 28/28/28 30/30/30
f 28/28/28 32/32/32 30/30/30
f 32/32/32 33/33/33 30/30/30
f 33/33/33 34/34/34 30/30/30
f 34/34/34 35/35/35 30/30/30
f 35/35/35 37/37/37 36/36/36
f 38/38/38 35/35/35 36/36/36
f 38/38/38 39/39/39 35/35/35
f 42/42/42 41/41/41 40/40/40
f 42/42/42 44/44/44 43/43/43
f 46/46/46 42/42/42 45/45/45
f 47/47/47 46/46/46 43/43/43
f 48/48/48 47/47/47 43/43/43
f 49/49/49 48/48/48 43/43/43
f 49/49/49 45/45/45 50/50/50
f 49/49/49 50/50/50 51/51/51
f 52/52/52 49/49/49 51/51/51
f 55/55/55 54/54/54 53/53/53
f 56/56/56 55/55/55 53/53/53
f 59/59/59 58/58/58 57/57/57
f 60/60/60 59/59/59 57/57/57
f 61/61/61 59/59/59 60/60/60
f 62/62/62 59/59/59 61/61/61
f 63/63/63 62/62/62 61/61/61
f 64/64/64 62/62/62 63/63/63
f 65/65/65 64/64/64 63/63/63
f 66/66/66 64/64/64 65/65/65
f 67/67/67 66/66/66 65/65/65
f 68/68/68 66/66/66 67/67/67
f 69/69/69 68/68/68 67/67/67
f 70/70/70 68/68/68 69/69/69
f 71/71/71 70/70/70 69/69/69
f 72/72/72 70/70/70 71/71/71
f 73/73/73 72/72/72 71/71/71
f 74/74/74 72/72/72 73/73/73
f 75/75/75 74/74/74 73/73/73
f 78/78/78 77/77/77 76/76/76
f 79/79/79 78/78/78 76/76/76
f 79/79/79 76/76/76 80/80/80
f 81/81/81 79/79/79 80/80/80
f 81/81/81 80/80/80 82/82/82
f 83/83/83 81/81/81 82/82/82
f 83/83/83 82/82/82 84/84/84
f 85/85/85 83/83/83 84/84/84
f 85/85/85 84/84/84 86/86/86
f 87/87/87 85/85/85 86/86/86
f 87/87/87 86/86/86 88/88/88
f 89/89/89 87/87/87 88/88/88
f 89/89/89 88/88/88 90/90/90
f 91/91/91 89/89/89 90/90/90
f 91/91/91 90/90/90 92/92/92
f 91/91/91 92/92/92 93/93/93
f 94/94/94 91/91/91 93/93/93
f 97/97/97 96/96/96 95/95/95
f 98/98/98 97/97/97 95/95/95
