g Face_Mask
v -0.05305995 1.749578 0.03371735
v 6.082106E-11 1.684912 -0.04659629
v -0.04497054 1.750681 0.03806305
v -0.00963596 1.753027 0.04946487
v 7.227063E-11 1.753248 0.05056793
v -0.02493155 1.752259 0.04562408
v -0.01728376 1.752643 0.0475444
v -0.03423212 1.751617 0.04261673
v -0.02493155 1.752259 0.04562408
v -0.05694475 1.7488 0.03039551
v -0.05305995 1.749578 0.03371735
v -0.04497054 1.750681 0.03806305
v -0.03423212 1.751617 0.04261673
v -0.06017169 1.748001 0.02733291
v -0.05694475 1.7488 0.03039551
v -0.01728376 1.752643 0.0475444
v -0.00963596 1.753027 0.04946487
v -0.06329817 1.747 0.02240601
v -0.06017169 1.748001 0.02733291
v -0.06329817 1.747 0.02240601
v -0.06500119 1.746179 0.01824646
v -0.06734123 1.719754 -0.01914856
v 6.082106E-11 1.684912 -0.04659629
v -0.0672859 1.727746 -0.01923843
v -0.06316709 1.682754 -0.02995758
v -0.0658778 1.688764 -0.02462051
v -0.06523091 1.690742 -0.01823654
v -0.06681663 1.70285 -0.01866089
v -0.06681663 1.70285 -0.01866089
v -0.06743225 1.710871 -0.01863739
v -0.06401137 1.686612 -0.01790497
v -0.06523091 1.690742 -0.01823654
v -0.06743225 1.710871 -0.01863739
v -0.06734123 1.719754 -0.01914856
v -0.0672859 1.727746 -0.01923843
v -0.0670286 1.742869 -0.01923843
v -0.05534965 1.661926 -0.02997406
v -0.06316709 1.682754 -0.02995758
v -0.05534965 1.661926 -0.02997406
v -0.05045309 1.646348 -0.02692963
v -0.04911017 1.636417 -0.01421295
v 6.082106E-11 1.684912 -0.04659629
v -0.05045309 1.646348 -0.02692963
v -0.03634269 1.620172 -0.01125366
v -0.03872254 1.622259 -0.01213959
v -0.04618454 1.631513 -0.01379059
v -0.04911017 1.636417 -0.01421295
v -0.03872254 1.622259 -0.01213959
v -0.04618454 1.631513 -0.01379059
v -0.00554416 1.594698 0.007740173
v -0.01462024 1.601453 0.004387817
v -0.03250969 1.616023 -0.008082275
v -0.03634269 1.620172 -0.01125366
v -0.01462024 1.601453 0.004387817
v -0.02654267 1.609307 -0.001188354
v -0.02654267 1.609307 -0.001188354
v -0.03250969 1.616023 -0.008082275
v -7.227063E-11 1.591116 0.008707733
v -0.00554416 1.594698 0.007740173
v -0.0670286 1.742869 -0.01923843
v 6.082106E-11 1.684912 -0.04659629
v -0.0684657 1.743757 -0.007243042
v -0.0658778 1.688764 -0.02462051
v -0.06401137 1.686612 -0.01790497
v 0.04497054 1.750681 0.03806305
v 6.082106E-11 1.684912 -0.04659629
v 0.05305995 1.749578 0.03371735
v 7.227063E-11 1.753248 0.05056793
v 0.00963596 1.753027 0.04946487
v 0.01728377 1.752643 0.0475444
v 0.02493156 1.752259 0.04562408
v 0.02493156 1.752259 0.04562408
v 0.03423212 1.751617 0.04261673
v 0.05305995 1.749578 0.03371735
v 0.05694475 1.7488 0.03039551
v 0.03423212 1.751617 0.04261673
v 0.04497054 1.750681 0.03806305
v 0.05694475 1.7488 0.03039551
v 0.06017169 1.748001 0.02733291
v 0.00963596 1.753027 0.04946487
v 0.01728377 1.752643 0.0475444
v 0.06017169 1.748001 0.02733291
v 0.06329817 1.747 0.02240602
v 0.06329817 1.747 0.02240602
v 0.06500119 1.746179 0.01824647
v 0.0672859 1.727746 -0.01923843
v 6.082106E-11 1.684912 -0.04659629
v 0.06734123 1.719754 -0.01914856
v 0.0658778 1.688764 -0.02462051
v 0.06316709 1.682754 -0.02995758
v 0.06681663 1.70285 -0.01866089
v 0.06523091 1.690742 -0.01823654
v 0.06743225 1.710871 -0.01863739
v 0.06681663 1.70285 -0.01866089
v 0.06523091 1.690742 -0.01823654
v 0.06401137 1.686612 -0.01790497
v 0.06734123 1.719754 -0.01914856
v 0.06743225 1.710871 -0.01863739
v 0.0670286 1.742869 -0.01923843
v 0.0672859 1.727746 -0.01923843
v 0.06316709 1.682754 -0.02995758
v 0.05534965 1.661926 -0.02997407
v 0.05534965 1.661926 -0.02997407
v 0.05045309 1.646348 -0.02692964
v 6.082106E-11 1.684912 -0.04659629
v 0.04911017 1.636417 -0.01421296
v 0.05045309 1.646348 -0.02692964
v 0.03872254 1.622259 -0.01213959
v 0.0363427 1.620172 -0.01125366
v 0.04911017 1.636417 -0.01421296
v 0.04618454 1.631513 -0.01379059
v 0.04618454 1.631513 -0.01379059
v 0.03872254 1.622259 -0.01213959
v 0.01462024 1.601453 0.004387817
v 0.00554416 1.594698 0.007740173
v 0.0363427 1.620172 -0.01125366
v 0.03250969 1.616023 -0.008082275
v 0.02654267 1.609307 -0.001188354
v 0.01462024 1.601453 0.004387817
v 0.03250969 1.616023 -0.008082275
v 0.02654267 1.609307 -0.001188354
v 0.00554416 1.594698 0.007740173
v -7.227063E-11 1.591116 0.008707733
v 6.082106E-11 1.684912 -0.04659629
v 0.0670286 1.742869 -0.01923843
v 0.0684657 1.743757 -0.007243038
v 0.06401137 1.686612 -0.01790497
v 0.0658778 1.688764 -0.02462051
v 6.082106E-11 1.684912 -0.04659629
v -0.06500119 1.746179 0.01824646
v -0.06673345 1.744968 0.005501709
v -0.0684657 1.743757 -0.007243042
v 6.082106E-11 1.684912 -0.04659629
v 0.06673345 1.744968 0.005501715
v 0.06500119 1.746179 0.01824647
v 0.0684657 1.743757 -0.007243038
vt 0 0
vt 0.5 1
vt 1 0
vt 0 0
vt 1 0
vt 0 0
vt 1 0
vt 0 0
vt 1 0
vt 0 0
vt 1 0
vt 0 0
vt 1 0
vt 0 0
vt 1 0
vt 0 0
vt 1 0
vt 0 0
vt 1 0
vt 1 0
vt 0.75 0
vt 0 0
vt 0.5 1
vt 1 0
vt 0 0
vt 1 0
vt 0 0
vt 1 0
vt 0 0
vt 1 0
vt 0 0
vt 1 0
vt 0 0
vt 1 0
vt 0 0
vt 1 0
vt 0 0
vt 1 0
vt 1 0
vt 0.5 0
vt 0 0
vt 0.5 1
vt 0.5 0
vt 0 0
vt 1 0
vt 0 0
vt 1 0
vt 0 0
vt 1 0
vt 0 0
vt 1 0
vt 0 0
vt 1 0
vt 0 0
vt 1 0
vt 0 0
vt 1 0
vt 0 0
vt 1 0
vt 0 0
vt 0.5 1
vt 0.2802645 0
vt 0 0
vt 1 0
vt 0 0
vt 0.5 1
vt 1 0
vt 0 0
vt 1 0
vt 0 0
vt 1 0
vt 0 0
vt 1 0
vt 0 0
vt 1 0
vt 0 0
vt 1 0
vt 0 0
vt 1 0
vt 0 0
vt 1 0
vt 0 0
vt 1 0
vt 0 0
vt 0.25 0
vt 0 0
vt 0.5 1
vt 1 0
vt 0 0
vt 1 0
vt 0 0
vt 1 0
vt 0 0
vt 1 0
vt 0 0
vt 1 0
vt 0 0
vt 1 0
vt 0 0
vt 1 0
vt 0 0
vt 1 0
vt 0 0
vt 0.5 0
vt 0.5 1
vt 1 0
vt 0.5 0
vt 0 0
vt 1 0
vt 0 0
vt 1 0
vt 0 0
vt 1 0
vt 0 0
vt 1 0
vt 0 0
vt 1 0
vt 0 0
vt 1 0
vt 0 0
vt 1 0
vt 0 0
vt 1 0
vt 0.5 1
vt 1 0
vt 0.7197355 0
vt 0 0
vt 1 0
vt 0.5 1
vt 0.75 0
vt 0.5 0
vt 0.2802645 0
vt 0.5 1
vt 0.5 0
vt 0.25 0
vt 0.7197355 0
vn 0.2055396 0.8241384 -0.5277779
vn -8.42321E-07 0.8343725 -0.5512009
vn 0.1695523 0.8198702 -0.5468683
vn 0.06999582 0.8170348 -0.572324
vn 0 0.8179623 -0.5752717
vn 0.1145826 0.8167605 -0.5654848
vn 0.101802 0.816288 -0.5686038
vn 0.1449566 0.818295 -0.5562202
vn 0.1145826 0.8167605 -0.5654848
vn 0.2603697 0.8288453 -0.4952
vn 0.2055396 0.8241384 -0.5277779
vn 0.1695523 0.8198702 -0.5468683
vn 0.1449566 0.818295 -0.5562202
vn 0.3153859 0.8331521 -0.4543011
vn 0.2603697 0.8288453 -0.4952
vn 0.101802 0.816288 -0.5686038
vn 0.06999582 0.8170348 -0.572324
vn 0.3939063 0.8331016 -0.3883034
vn 0.3153859 0.8331521 -0.4543011
vn 0.3939063 0.8331016 -0.3883034
vn 0.4393065 0.8299328 -0.3438333
vn -0.3878916 -0.0238216 -0.9213971
vn -0.2365327 0.03368901 -0.9710394
vn -0.3747877 0.003396283 -0.9271045
vn -0.2564735 0.1670747 -0.9520018
vn 0.00535462 0.9875793 -0.1570302
vn -0.4044174 -0.105935 -0.9084186
vn -0.3978336 -0.05572279 -0.9157639
vn -0.3978336 -0.05572279 -0.9157639
vn -0.3961785 -0.04122169 -0.9172477
vn -0.168372 0.8878463 -0.4282289
vn -0.4044174 -0.105935 -0.9084186
vn -0.3961785 -0.04122169 -0.9172477
vn -0.3878916 -0.0238216 -0.9213971
vn -0.3747877 0.003396283 -0.9271045
vn 0.4785208 0.7605529 -0.438836
vn -0.2215883 -0.16181 -0.9616216
vn -0.2564735 0.1670747 -0.9520018
vn -0.2215883 -0.16181 -0.9616216
vn -0.1845501 -0.2440662 -0.9520362
vn -0.003659918 -0.5527579 -0.8333338
vn -1.62194E-07 -0.5521211 -0.8337639
vn 0.3221704 -0.7293056 -0.603589
vn 0.07660109 -0.5105382 -0.8564363
vn -0.1850573 -0.3832812 -0.9049029
vn -0.2587886 -0.3331765 -0.9066542
vn -0.003659918 -0.5527579 -0.8333338
vn -0.1850573 -0.3832812 -0.9049029
vn -0.2587886 -0.3331765 -0.9066542
vn -0.1286713 -0.5058461 -0.8529733
vn -0.01983583 -0.5186734 -0.8547423
vn 0.2370582 -0.5569099 -0.7960244
vn 0.07660109 -0.5105382 -0.8564363
vn -0.01983583 -0.5186734 -0.8547423
vn 0.09766501 -0.5373824 -0.8376645
vn 0.09766501 -0.5373824 -0.8376645
vn 0.2370582 -0.5569099 -0.7960244
vn 0 -0.5079079 -0.8614115
vn -0.1286713 -0.5058461 -0.8529733
vn 0.4785208 0.7605529 -0.438836
vn -0.2365327 0.03368901 -0.9710394
vn 0.6593246 0.7514958 0.02334413
vn 0.00535462 0.9875793 -0.1570302
vn -0.168372 0.8878463 -0.4282289
vn -0.1695523 0.8198702 -0.5468683
vn -8.42321E-07 0.8343725 -0.5512009
vn -0.2055396 0.8241384 -0.5277779
vn 0 0.8179623 -0.5752717
vn -0.06999579 0.817035 -0.5723237
vn -0.101802 0.8162882 -0.5686035
vn -0.1145826 0.8167604 -0.5654849
vn -0.1145826 0.8167604 -0.5654849
vn -0.1449567 0.8182948 -0.5562203
vn -0.2055396 0.8241384 -0.5277779
vn -0.260371 0.8288494 -0.4951927
vn -0.1449567 0.8182948 -0.5562203
vn -0.1695523 0.8198702 -0.5468683
vn -0.260371 0.8288494 -0.4951927
vn -0.3153867 0.8331568 -0.4542916
vn -0.06999579 0.817035 -0.5723237
vn -0.101802 0.8162882 -0.5686035
vn -0.3153867 0.8331568 -0.4542916
vn -0.3939061 0.8331016 -0.3883037
vn -0.3939061 0.8331016 -0.3883037
vn -0.4393067 0.8299327 -0.3438333
vn 0.3747876 0.003396284 -0.9271045
vn 0.2365325 0.03368898 -0.9710394
vn 0.3878914 -0.0238216 -0.9213971
vn -0.00535462 0.9875793 -0.1570301
vn 0.2564735 0.167075 -0.9520018
vn 0.3978336 -0.05572278 -0.9157638
vn 0.4044174 -0.105935 -0.9084186
vn 0.3961783 -0.04122169 -0.9172478
vn 0.3978336 -0.05572278 -0.9157638
vn 0.4044174 -0.105935 -0.9084186
vn 0.1683721 0.8878462 -0.4282288
vn 0.3878914 -0.0238216 -0.9213971
vn 0.3961783 -0.04122169 -0.9172478
vn -0.478521 0.7605529 -0.4388359
vn 0.3747876 0.003396284 -0.9271045
vn 0.2564735 0.167075 -0.9520018
vn 0.2215883 -0.1618099 -0.9616216
vn 0.2215883 -0.1618099 -0.9616216
vn 0.1845501 -0.2440661 -0.9520362
vn -1.62194E-07 -0.5521211 -0.8337639
vn 0.003658921 -0.5527585 -0.8333334
vn -0.3221706 -0.7293055 -0.603589
vn 0.1850597 -0.3832859 -0.9049004
vn -0.07660063 -0.5105353 -0.8564381
vn 0.003658921 -0.5527585 -0.8333334
vn 0.2587883 -0.3331767 -0.9066542
vn 0.2587883 -0.3331767 -0.9066542
vn 0.1850597 -0.3832859 -0.9049004
vn 0.01983592 -0.5186738 -0.8547421
vn 0.1286712 -0.5058461 -0.8529732
vn -0.07660063 -0.5105353 -0.8564381
vn -0.2370571 -0.5569075 -0.7960263
vn -0.09766501 -0.5373823 -0.8376645
vn 0.01983592 -0.5186738 -0.8547421
vn -0.2370571 -0.5569075 -0.7960263
vn -0.09766501 -0.5373823 -0.8376645
vn 0.1286712 -0.5058461 -0.8529732
vn 0 -0.5079079 -0.8614115
vn 0.2365325 0.03368898 -0.9710394
vn -0.478521 0.7605529 -0.4388359
vn -0.6593248 0.7514958 0.02334413
vn 0.1683721 0.8878462 -0.4282288
vn -0.00535462 0.9875793 -0.1570301
vn 0.5909514 0.7915765 -0.155509
vn 0.5909514 0.7915765 -0.1555089
vn 0.5909514 0.7915765 -0.1555089
vn 0.5909515 0.7915764 -0.155509
vn -0.5909514 0.7915766 -0.1555089
vn -0.5909513 0.7915766 -0.1555089
vn -0.5909513 0.7915766 -0.1555088
vn -0.5909514 0.7915765 -0.155509
g Face_Mask_0
f 3/3/3 2/2/2 1/1/1
f 5/5/5 2/2/2 4/4/4
f 7/7/7 2/2/2 6/6/6
f 9/9/9 2/2/2 8/8/8
f 11/11/11 2/2/2 10/10/10
f 13/13/13 2/2/2 12/12/12
f 15/15/15 2/2/2 14/14/14
f 17/17/17 2/2/2 16/16/16
f 19/19/19 2/2/2 18/18/18
f 21/21/21 20/20/20 2/2/2
f 24/24/24 23/23/23 22/22/22
f 26/26/26 23/23/23 25/25/25
f 28/28/28 23/23/23 27/27/27
f 30/30/30 23/23/23 29/29/29
f 32/32/32 23/23/23 31/31/31
f 34/34/34 23/23/23 33/33/33
f 36/36/36 23/23/23 35/35/35
f 38/38/38 23/23/23 37/37/37
f 40/40/40 39/39/39 23/23/23
f 43/43/43 42/42/42 41/41/41
f 45/45/45 42/42/42 44/44/44
f 47/47/47 42/42/42 46/46/46
f 49/49/49 42/42/42 48/48/48
f 51/51/51 42/42/42 50/50/50
f 53/53/53 42/42/42 52/52/52
f 55/55/55 42/42/42 54/54/54
f 57/57/57 42/42/42 56/56/56
f 59/59/59 42/42/42 58/58/58
f 62/62/62 61/61/61 60/60/60
f 64/64/64 61/61/61 63/63/63
f 67/67/67 66/66/66 65/65/65
f 69/69/69 66/66/66 68/68/68
f 71/71/71 66/66/66 70/70/70
f 73/73/73 66/66/66 72/72/72
f 75/75/75 66/66/66 74/74/74
f 77/77/77 66/66/66 76/76/76
f 79/79/79 66/66/66 78/78/78
f 81/81/81 66/66/66 80/80/80
f 83/83/83 66/66/66 82/82/82
f 85/85/85 66/66/66 84/84/84
f 88/88/88 87/87/87 86/86/86
f 90/90/90 87/87/87 89/89/89
f 92/92/92 87/87/87 91/91/91
f 94/94/94 87/87/87 93/93/93
f 96/96/96 87/87/87 95/95/95
f 98/98/98 87/87/87 97/97/97
f 100/100/100 87/87/87 99/99/99
f 102/102/102 87/87/87 101/101/101
f 104/104/104 87/87/87 103/103/103
f 107/107/107 106/106/106 105/105/105
f 109/109/109 105/105/105 108/108/108
f 111/111/111 105/105/105 110/110/110
f 113/113/113 105/105/105 112/112/112
f 115/115/115 105/105/105 114/114/114
f 117/117/117 105/105/105 116/116/116
f 119/119/119 105/105/105 118/118/118
f 121/121/121 105/105/105 120/120/120
f 123/123/123 105/105/105 122/122/122
f 126/126/126 125/125/125 124/124/124
f 128/128/128 124/124/124 127/127/127
f 131/131/131 130/130/130 129/129/129
f 132/132/132 131/131/131 129/129/129
f 135/135/135 134/134/134 133/133/133
f 134/134/134 136/136/136 133/133/133
