g Fuka_trail_02
v 0.418825 -4.853473 1.828293
v 0.6189147 -3.799802 1.766943
v 0.5102957 -4.821291 1.778543
v 0.5080448 -3.813683 1.846184
v 0.7165639 -2.90902 1.678908
v 0.3207404 -4.876098 1.857091
v 0.5885932 -2.897177 1.77748
v 0.8011499 -2.146951 1.510338
v 0.3851727 -3.823369 1.898542
v 0.2195691 -4.889202 1.865663
v 0.6586267 -2.104354 1.619151
v 0.8705815 -1.511603 1.257134
v 0.2551315 -3.828885 1.924475
v 0.1188382 -4.892827 1.854735
v 0.4432554 -2.888585 1.845432
v 0.7163043 -1.435614 1.368173
v 0.9227656 -1.000984 0.9151972
v 0.122755 -3.830255 1.924437
v 0.02207464 -4.887011 1.825031
v 0.2868211 -2.883259 1.883031
v 0.4936891 -2.073859 1.695617
v 0.7597829 -0.8913571 1.021521
v 0.9556105 -0.6130987 0.4804274
v -0.007122902 -3.827505 1.898887
v -0.06719446 -4.871793 1.777279
v 0.1255619 -2.881212 1.89054
v 0.314055 -2.055475 1.739872
v 0.5351759 -1.381307 1.446957
v 0.7872209 -0.4719818 0.5761666
v 0.9613171 -0.4606464 0.2398298
v -0.1296691 -3.820658 1.848282
v -0.1454419 -4.847213 1.712203
v -0.03425166 -2.88246 1.868223
v 0.127443 -2.049208 1.752052
v 0.3362512 -1.348686 1.493541
v 0.5664169 -0.813044 1.097309
v 0.7919986 -0.2969579 0.2893858
v 0.9670236 -0.370212 -0.0007679391
v 0.7967762 -0.1839521 0.00260494
v 0.5861139 -0.3711833 0.644532
v 0.589541 -0.1800373 0.3247731
v 0.5929681 -0.05090935 0.005014164
v 0.3528264 -0.766045 1.142579
v 0.1285843 -1.337754 1.507985
v 0.3649925 -0.1098842 0.3459928
v 0.3667859 0.02891617 0.006459767
v 0.363199 -0.3107027 0.6855259
v 0.1294014 -0.08649887 0.3530459
v 0.1294168 0.05552467 0.006941611
v -0.1079525 0.02891613 0.006459739
v 0.1291702 -0.7503613 1.157347
v 0.129386 -0.2905405 0.6991503
v -0.0584289 -2.055066 1.732291
v -0.106184 -0.1098809 0.3459336
v -0.3341346 -0.05090935 0.005014136
v -0.07877039 -1.348514 1.490343
v -0.09439378 -0.7659943 1.141631
v -0.1044155 -0.3106961 0.6854074
v -0.1863484 -2.887016 1.816346
v -0.3307151 -0.180031 0.3246568
v -0.5379429 -0.183952 0.002604806
v -0.2358419 -2.073056 1.680725
v -0.2767582 -1.380969 1.440674
v -0.3077067 -0.8129437 1.095447
v -0.3272957 -0.3711706 0.6442994
v -0.2400492 -3.80974 1.773078
v -0.2091409 -4.813309 1.630529
v -0.33343 -3.794775 1.673733
v -0.324457 -2.894895 1.735173
v -0.4423067 -2.906111 1.624967
v -0.3970784 -2.103186 1.59749
v -0.5344196 -2.145462 1.48272
v -0.4563251 -1.435121 1.359035
v -0.6084162 -1.510975 1.245483
v -0.5006099 -0.8912114 1.018813
v -0.6629449 -1.000798 0.9117449
v -0.528345 -0.4719638 0.5758281
v -0.6966535 -0.6130756 0.4799958
v -0.5331439 -0.2969489 0.2892165
v -0.7024218 -0.4606348 0.2396138
v -0.7081902 -0.370212 -0.0007680487
vt 0.8661523 0.008117735
vt 0.9892835 0.1488392
vt 0.9892835 0.008117735
vt 0.8661523 0.1488392
vt 0.9892835 0.2895606
vt 0.7430211 0.008117855
vt 0.8661523 0.2895606
vt 0.9892835 0.4302821
vt 0.7430211 0.1488392
vt 0.6198897 0.008117855
vt 0.8661523 0.4302821
vt 0.9892835 0.5710035
vt 0.6198897 0.1488392
vt 0.4967585 0.008117855
vt 0.7430211 0.2895606
vt 0.8661523 0.5710034
vt 0.9892834 0.7117249
vt 0.4967585 0.1488392
vt 0.3736273 0.008117795
vt 0.6198897 0.2895606
vt 0.7430211 0.4302821
vt 0.8661523 0.7117249
vt 0.9892835 0.8524463
vt 0.3736273 0.1488391
vt 0.2504961 0.008117795
vt 0.4967585 0.2895606
vt 0.6198898 0.4302821
vt 0.7430211 0.5710034
vt 0.8661523 0.8524463
vt 0.9892835 0.9228071
vt 0.250496 0.1488391
vt 0.1273648 0.008117795
vt 0.3736273 0.2895606
vt 0.4967586 0.4302822
vt 0.6198898 0.5710034
vt 0.7430211 0.7117249
vt 0.8661523 0.9228071
vt 0.9892835 0.9931678
vt 0.8661523 0.9931678
vt 0.7430211 0.8524463
vt 0.7430211 0.9228071
vt 0.7430211 0.9931678
vt 0.6198897 0.7117249
vt 0.4967586 0.5710034
vt 0.6198897 0.922807
vt 0.6198897 0.9931678
vt 0.6198897 0.8524463
vt 0.4967585 0.922807
vt 0.4967585 0.9931678
vt 0.3736273 0.9931678
vt 0.4967585 0.7117249
vt 0.4967585 0.8524463
vt 0.3736273 0.4302821
vt 0.3736273 0.9228071
vt 0.250496 0.9931678
vt 0.3736273 0.5710035
vt 0.3736273 0.7117249
vt 0.3736273 0.8524464
vt 0.250496 0.2895606
vt 0.250496 0.9228071
vt 0.1273648 0.9931678
vt 0.250496 0.4302821
vt 0.250496 0.5710035
vt 0.2504961 0.7117249
vt 0.250496 0.8524463
vt 0.1273648 0.1488391
vt 0.00423353 0.008117795
vt 0.00423353 0.1488391
vt 0.1273648 0.2895606
vt 0.004233529 0.2895606
vt 0.1273648 0.4302821
vt 0.00423353 0.4302821
vt 0.1273648 0.5710034
vt 0.00423353 0.5710034
vt 0.1273648 0.7117249
vt 0.004233529 0.7117249
vt 0.1273648 0.8524463
vt 0.00423353 0.8524463
vt 0.1273648 0.9228071
vt 0.00423353 0.9228071
vt 0.004233529 0.9931678
vn 0.3745577 -0.04282182 0.9262142
vn 0.5801215 -0.01740123 0.814344
vn 0.4887536 -0.04207569 0.8714066
vn 0.4891043 -0.01823809 0.8720347
vn 0.6112436 0.05939309 0.7892109
vn 0.1807667 -0.04429167 0.9825282
vn 0.5202398 0.07031345 0.8511207
vn 0.6285872 0.1649727 0.7600409
vn 0.2945431 -0.01105069 0.9555743
vn -0.01102824 -0.04928925 0.9987237
vn 0.5368846 0.1884769 0.8223329
vn 0.649438 0.2981619 0.6995212
vn 0.09761757 -0.010286 0.9951708
vn -0.1982049 -0.05736886 0.9784802
vn 0.3309327 0.0914641 0.9392113
vn 0.5566427 0.3349687 0.7602269
vn 0.6782389 0.4429061 0.5863671
vn -0.09722548 -0.01552122 0.9951413
vn -0.3800972 -0.06824707 0.9224253
vn 0.141295 0.1008943 0.9848127
vn 0.3490449 0.2242792 0.9098716
vn 0.5845072 0.4929784 0.644456
vn 0.7076007 0.5441369 0.4507952
vn -0.2889069 -0.02649347 0.9569905
vn -0.5547602 -0.08180583 0.8279787
vn -0.04586022 0.09952738 0.9939774
vn 0.1629505 0.2423971 0.9563946
vn 0.3662864 0.387171 0.8461282
vn 0.6123886 0.6152009 0.4964958
vn 0.7076313 0.6258377 0.3280017
vn -0.4756848 -0.0431987 0.8785544
vn -0.7159875 -0.09799023 0.6912016
vn -0.2316874 0.08777688 0.9688221
vn -0.01976564 0.2451165 0.9692922
vn 0.1778478 0.4145582 0.8924751
vn 0.3888738 0.5649812 0.7277178
vn 0.6112505 0.7057341 0.3582068
vn 0.7118418 0.6503451 0.265203
vn 0.6067939 0.7354341 0.3015588
vn 0.4120259 0.7156129 0.5640327
vn 0.4106018 0.8157286 0.4074224
vn 0.4079818 0.8447101 0.3464329
vn 0.1924321 0.6035377 0.7737648
vn -0.006965203 0.4213954 0.9068503
vn 0.2048097 0.8767868 0.4350838
vn 0.2039427 0.9057047 0.3716266
vn 0.2057954 0.7719851 0.6014045
vn -0.0003114027 0.8959072 0.4442412
vn 2.545406E-06 0.9251386 0.3796296
vn -0.2039513 0.9056956 0.3716441
vn -0.001406771 0.6148008 0.7886812
vn -0.0002319387 0.7903066 0.6127115
vn -0.2019103 0.2333066 0.9512099
vn -0.205384 0.8761104 0.4361743
vn -0.4079863 0.8446825 0.3464949
vn -0.1915325 0.4092784 0.8920798
vn -0.1951803 0.6011657 0.7749222
vn -0.2063064 0.7731655 0.5997106
vn -0.4169214 0.06528541 0.9065949
vn -0.4109932 0.8143968 0.4096856
vn -0.6067891 0.7353816 0.3016968
vn -0.3860689 0.2060085 0.8991725
vn -0.3791482 0.3765277 0.8452654
vn -0.3914267 0.5602319 0.7300174
vn -0.4126702 0.7179227 0.560616
vn -0.6513743 -0.06568841 0.7559077
vn -0.8004089 -0.1083956 0.5895727
vn -0.7294321 -0.07399539 0.6800393
vn -0.597581 0.03135194 0.8011954
vn -0.6812745 0.01338724 0.7319055
vn -0.5699746 0.1610017 0.805734
vn -0.657873 0.1322436 0.7414276
vn -0.5678642 0.3189009 0.7588363
vn -0.6602184 0.2781636 0.6976651
vn -0.586728 0.4858778 0.6478217
vn -0.68372 0.4318261 0.5882627
vn -0.6132088 0.6184607 0.4914076
vn -0.7074209 0.5490874 0.4450378
vn -0.6113016 0.7038496 0.3618094
vn -0.7038672 0.6264245 0.3349081
vn -0.7118632 0.6502281 0.2654321
g Fuka_trail_02_0
f 3/3/3 2/2/2 1/1/1
f 4/4/4 1/1/1 2/2/2
f 2/2/2 5/5/5 4/4/4
f 1/1/1 4/4/4 6/6/6
f 7/7/7 4/4/4 5/5/5
f 5/5/5 8/8/8 7/7/7
f 9/9/9 6/6/6 4/4/4
f 4/4/4 7/7/7 9/9/9
f 6/6/6 9/9/9 10/10/10
f 11/11/11 7/7/7 8/8/8
f 8/8/8 12/12/12 11/11/11
f 13/13/13 10/10/10 9/9/9
f 10/10/10 13/13/13 14/14/14
f 15/15/15 9/9/9 7/7/7
f 7/7/7 11/11/11 15/15/15
f 9/9/9 15/15/15 13/13/13
f 16/16/16 11/11/11 12/12/12
f 12/12/12 17/17/17 16/16/16
f 18/18/18 14/14/14 13/13/13
f 14/14/14 18/18/18 19/19/19
f 20/20/20 13/13/13 15/15/15
f 13/13/13 20/20/20 18/18/18
f 21/21/21 15/15/15 11/11/11
f 11/11/11 16/16/16 21/21/21
f 15/15/15 21/21/21 20/20/20
f 22/22/22 16/16/16 17/17/17
f 17/17/17 23/23/23 22/22/22
f 24/24/24 19/19/19 18/18/18
f 19/19/19 24/24/24 25/25/25
f 26/26/26 18/18/18 20/20/20
f 18/18/18 26/26/26 24/24/24
f 27/27/27 20/20/20 21/21/21
f 20/20/20 27/27/27 26/26/26
f 28/28/28 21/21/21 16/16/16
f 16/16/16 22/22/22 28/28/28
f 21/21/21 28/28/28 27/27/27
f 29/29/29 22/22/22 23/23/23
f 23/23/23 30/30/30 29/29/29
f 31/31/31 25/25/25 24/24/24
f 25/25/25 31/31/31 32/32/32
f 33/33/33 24/24/24 26/26/26
f 24/24/24 33/33/33 31/31/31
f 34/34/34 26/26/26 27/27/27
f 26/26/26 34/34/34 33/33/33
f 35/35/35 27/27/27 28/28/28
f 27/27/27 35/35/35 34/34/34
f 36/36/36 28/28/28 22/22/22
f 22/22/22 29/29/29 36/36/36
f 28/28/28 36/36/36 35/35/35
f 37/37/37 29/29/29 30/30/30
f 30/30/30 38/38/38 37/37/37
f 39/39/39 37/37/37 38/38/38
f 40/40/40 36/36/36 29/29/29
f 29/29/29 37/37/37 40/40/40
f 37/37/37 39/39/39 41/41/41
f 41/41/41 40/40/40 37/37/37
f 42/42/42 41/41/41 39/39/39
f 43/43/43 35/35/35 36/36/36
f 36/36/36 40/40/40 43/43/43
f 44/44/44 34/34/34 35/35/35
f 35/35/35 43/43/43 44/44/44
f 41/41/41 42/42/42 45/45/45
f 46/46/46 45/45/45 42/42/42
f 40/40/40 41/41/41 47/47/47
f 47/47/47 43/43/43 40/40/40
f 45/45/45 47/47/47 41/41/41
f 45/45/45 46/46/46 48/48/48
f 49/49/49 48/48/48 46/46/46
f 49/49/49 50/50/50 48/48/48
f 43/43/43 47/47/47 51/51/51
f 51/51/51 44/44/44 43/43/43
f 47/47/47 45/45/45 52/52/52
f 48/48/48 52/52/52 45/45/45
f 52/52/52 51/51/51 47/47/47
f 34/34/34 44/44/44 53/53/53
f 53/53/53 33/33/33 34/34/34
f 54/54/54 48/48/48 50/50/50
f 50/50/50 55/55/55 54/54/54
f 44/44/44 51/51/51 56/56/56
f 56/56/56 53/53/53 44/44/44
f 51/51/51 52/52/52 57/57/57
f 57/57/57 56/56/56 51/51/51
f 52/52/52 48/48/48 58/58/58
f 54/54/54 58/58/58 48/48/48
f 58/58/58 57/57/57 52/52/52
f 33/33/33 53/53/53 59/59/59
f 59/59/59 31/31/31 33/33/33
f 60/60/60 54/54/54 55/55/55
f 55/55/55 61/61/61 60/60/60
f 53/53/53 56/56/56 62/62/62
f 62/62/62 59/59/59 53/53/53
f 56/56/56 57/57/57 63/63/63
f 63/63/63 62/62/62 56/56/56
f 57/57/57 58/58/58 64/64/64
f 64/64/64 63/63/63 57/57/57
f 58/58/58 54/54/54 65/65/65
f 60/60/60 65/65/65 54/54/54
f 65/65/65 64/64/64 58/58/58
f 31/31/31 59/59/59 66/66/66
f 66/66/66 32/32/32 31/31/31
f 32/32/32 66/66/66 67/67/67
f 68/68/68 67/67/67 66/66/66
f 69/69/69 66/66/66 59/59/59
f 66/66/66 69/69/69 68/68/68
f 59/59/59 62/62/62 69/69/69
f 70/70/70 68/68/68 69/69/69
f 71/71/71 69/69/69 62/62/62
f 69/69/69 71/71/71 70/70/70
f 62/62/62 63/63/63 71/71/71
f 72/72/72 70/70/70 71/71/71
f 73/73/73 71/71/71 63/63/63
f 71/71/71 73/73/73 72/72/72
f 63/63/63 64/64/64 73/73/73
f 74/74/74 72/72/72 73/73/73
f 75/75/75 73/73/73 64/64/64
f 73/73/73 75/75/75 74/74/74
f 64/64/64 65/65/65 75/75/75
f 76/76/76 74/74/74 75/75/75
f 77/77/77 75/75/75 65/65/65
f 75/75/75 77/77/77 76/76/76
f 65/65/65 60/60/60 77/77/77
f 78/78/78 76/76/76 77/77/77
f 79/79/79 77/77/77 60/60/60
f 77/77/77 79/79/79 78/78/78
f 79/79/79 60/60/60 61/61/61
f 80/80/80 78/78/78 79/79/79
f 61/61/61 81/81/81 79/79/79
f 80/80/80 79/79/79 81/81/81
