g Fuka_trail01
v 0.03437769 -0.2612677 -5.144719
v 0.01986429 -0.5037397 -4.444761
v 0.06120271 -0.5257911 -5.105536
v 0.2699036 -0.05710506 -5.150716
v 0.5486421 -0.1600668 -4.461918
v 0.532311 -0.1164836 -5.150425
v 0.00330035 -0.2474751 -3.790102
v -0.09806445 -0.5007101 -3.148176
v -0.03212484 -0.4972002 -3.793016
v 0.2850788 -0.1045093 -3.787954
v 0.4782516 -0.262268 -3.133168
v 0.5321106 -0.2092163 -3.790416
v 0.0289816 -0.2481925 -4.460488
v -0.03212484 -0.4972002 -3.793016
v 0.01986429 -0.5037397 -4.444761
v 0.2930045 -0.0775301 -4.461772
v 0.5321106 -0.2092163 -3.790416
v 0.5486421 -0.1600668 -4.461918
v -0.2065172 0.1703144 -1.829062
v 0.006927986 -0.01567482 -2.468803
v -0.2155624 0.1390295 -2.472295
v -0.4180589 0.3549305 -1.849623
v -0.4364768 0.2982263 -2.482458
v 0.007803268 -0.01417148 -1.174211
v -0.1786096 0.2151094 -0.549516
v 0.007046661 -0.01375429 -0.5271246
v 0.00511364 0.008390618 0.1239746
v 0.1926008 -0.2319652 -0.5406247
v 0.2104353 -0.216964 -1.184183
v 0.1926008 -0.2319652 -0.5406247
v 0.374157 -0.4444586 -0.5875089
v 0.332066 -0.4582813 0.03981933
v 0.02892504 0.00101429 -3.784702
v 0.05893707 0.2462579 -3.121192
v 0.00866288 -0.007566185 -3.122533
v 0.00330035 -0.2474751 -3.790102
v -0.04390782 -0.2543844 -3.130539
v -0.09806445 -0.5007101 -3.148176
v -0.1471302 -0.5084476 -2.508323
v 0.02792702 0.0004970551 -3.784717
v -0.2231376 0.1217719 -3.121708
v 0.007807278 -0.007926826 -3.122538
v 0.2850788 -0.1045093 -3.787954
v 0.2445618 -0.1356026 -3.126361
v 0.4782516 -0.262268 -3.133168
v 0.4526498 -0.3164496 -2.487105
v -0.1583625 0.2528995 0.09216003
v 0.007046661 -0.01375429 -0.5271246
v -0.1786096 0.2151094 -0.549516
v -0.1945282 0.1963112 -1.189059
v -0.3617001 0.4564916 -0.5954922
v 0.007046661 -0.01375429 -0.5271246
v -0.1583625 0.2528995 0.09216003
v 0.00511364 0.008390618 0.1239746
v 0.1926008 -0.2319652 -0.5406247
v 0.1685899 -0.2274921 0.1060812
v 0.332066 -0.4582813 0.03981933
v 0.007577745 0.5194357 -4.374385
v -0.02339948 0.2677791 -5.101845
v -0.05125213 0.5323023 -5
v 0.01825125 0.2607083 -4.431926
v 0.005710838 0.003255653 -5.146786
v 0.02802615 0.005727919 -4.458417
v 0.03437769 -0.2612677 -5.144719
v -0.486714 0.1707055 -4.440824
v -0.2564832 0.06165188 -5.138546
v -0.516111 0.1210302 -5.125509
v -0.2367295 0.08770458 -4.451597
v 0.004585388 0.002273254 -5.146852
v 0.02693375 0.00500984 -4.458452
v 0.2699036 -0.05710506 -5.150716
v 0.04552146 0.2531928 -3.772523
v 0.1083467 0.5136012 -3.123334
v 0.05893707 0.2462579 -3.121192
v 0.158033 0.5230293 -2.496077
v 0.1083467 0.5136012 -3.123334
v 0.08488937 0.2462626 -2.475665
v 0.00866288 -0.007566185 -3.122533
v 0.007646751 -0.01543286 -2.468802
v -0.04390782 -0.2543844 -3.130539
v 0.06013805 0.5139841 -3.749242
v 0.01825125 0.2607083 -4.431926
v 0.007577745 0.5194357 -4.374385
v -0.02339948 0.2677791 -5.101845
v 0.01825125 0.2607083 -4.431926
v 0.005710838 0.003255653 -5.146786
v 0.02802615 0.005727919 -4.458417
v 0.04552146 0.2531928 -3.772523
v -0.4667745 0.2133188 -3.774486
v -0.2367295 0.08770458 -4.451597
v -0.486714 0.1707055 -4.440824
v -0.2564832 0.06165188 -5.138546
v -0.2367295 0.08770458 -4.451597
v 0.004585388 0.002273254 -5.146852
v 0.02693375 0.00500984 -4.458452
v -0.2263045 0.1062802 -3.780406
v 0.02792702 0.0004970551 -3.784717
v 0.2930045 -0.0775301 -4.461772
v 0.2699036 -0.05710506 -5.150716
v 0.5486421 -0.1600668 -4.461918
v 0.2550242 0.5538912 -1.236822
v 0.1105682 0.2648826 -1.833771
v 0.2073129 0.5531259 -1.867261
v 0.08488937 0.2462626 -2.475665
v 0.1105682 0.2648826 -1.833771
v 0.2073129 0.5531259 -1.867261
v 0.158033 0.5230293 -2.496077
v 0.05893707 0.2462579 -3.121192
v 0.1105682 0.2648826 -1.833771
v 0.007646751 -0.01543286 -2.468802
v 0.00866288 -0.007566185 -3.122533
v 0.008238181 -0.01233367 -1.820399
v -0.0700687 -0.2639716 -2.478866
v -0.04390782 -0.2543844 -3.130539
v 0.007646751 -0.01543286 -2.468802
v -0.1471302 -0.5084476 -2.508323
v -0.0700687 -0.2639716 -2.478866
v -0.1952115 -0.5143254 -1.871571
v 0.007646751 -0.01543286 -2.468802
v 0.008238181 -0.01233367 -1.820399
v 0.1345305 0.2628754 -1.193358
v 0.008194199 -0.01410446 -1.174212
v -0.09424267 -0.2702138 -1.832196
v -0.0700687 -0.2639716 -2.478866
v -0.1952115 -0.5143254 -1.871571
v -0.2417866 -0.5120753 -1.235964
v -0.3936331 0.4115193 -1.221408
v -0.2065172 0.1703144 -1.829062
v -0.4180589 0.3549305 -1.849623
v -0.2155624 0.1390295 -2.472295
v -0.2065172 0.1703144 -1.829062
v 0.006927986 -0.01567482 -2.468803
v 0.007670441 -0.01248841 -1.820398
v -0.1945282 0.1963112 -1.189059
v 0.007803268 -0.01417148 -1.174211
v 0.2226818 -0.1930988 -1.827597
v 0.2305823 -0.1676472 -2.473948
v 0.434089 -0.3679111 -1.849179
v 0.4082256 -0.4124392 -1.216691
v 0.1547961 0.2453775 -0.5522235
v 0.3320647 0.5095662 0.02946014
v 0.1685861 0.2528993 0.09194549
v 0.007241325 -0.01373866 -0.5271249
v 0.005107574 0.008390731 0.1239746
v -0.1397884 -0.2579008 -0.5424625
v -0.11785 -0.2694177 -1.187678
v -0.2849813 -0.4954731 -0.5994666
v -0.3218493 -0.4582813 0.03998749
v -0.1397884 -0.2579008 -0.5424625
v -0.1583709 -0.2274922 0.106293
v -0.3218493 -0.4582813 0.03998749
v -0.3218387 0.5095663 0.02963837
v -0.1786096 0.2151094 -0.549516
v -0.3617001 0.4564916 -0.5954922
v -0.1786096 0.2151094 -0.549516
v -0.3218387 0.5095663 0.02963837
v -0.1583625 0.2528995 0.09216003
v -0.2231376 0.1217719 -3.121708
v -0.4364768 0.2982263 -2.482458
v -0.2155624 0.1390295 -2.472295
v 0.007807278 -0.007926826 -3.122538
v 0.006927986 -0.01567482 -2.468803
v 0.007670441 -0.01248841 -1.820398
v 0.2305823 -0.1676472 -2.473948
v 0.2445618 -0.1356026 -3.126361
v 0.2305823 -0.1676472 -2.473948
v 0.4526498 -0.3164496 -2.487105
v 0.434089 -0.3679111 -1.849179
v 0.006927986 -0.01567482 -2.468803
v 0.2445618 -0.1356026 -3.126361
v 0.007807278 -0.007926826 -3.122538
v -0.2155624 0.1390295 -2.472295
v -0.2231376 0.1217719 -3.121708
v -0.2263045 0.1062802 -3.780406
v -0.4515017 0.2545061 -3.122921
v -0.4364768 0.2982263 -2.482458
v 0.01986429 -0.5037397 -4.444761
v 0.03437769 -0.2612677 -5.144719
v 0.0289816 -0.2481925 -4.460488
v 0.02802615 0.005727919 -4.458417
v 0.02892504 0.00101429 -3.784702
v -0.11785 -0.2694177 -1.187678
v -0.2849813 -0.4954731 -0.5994666
v -0.2417866 -0.5120753 -1.235964
v -0.09424267 -0.2702138 -1.832196
v 0.008194199 -0.01410446 -1.174212
v -0.11785 -0.2694177 -1.187678
v 0.007241325 -0.01373866 -0.5271249
v 0.2104353 -0.216964 -1.184183
v 0.374157 -0.4444586 -0.5875089
v 0.4082256 -0.4124392 -1.216691
v 0.2226818 -0.1930988 -1.827597
v 0.007803268 -0.01417148 -1.174211
v 0.2104353 -0.216964 -1.184183
v 0.007046661 -0.01375429 -0.5271246
v 0.007803268 -0.01417148 -1.174211
v -0.1786096 0.2151094 -0.549516
v -0.1945282 0.1963112 -1.189059
v 0.007670441 -0.01248841 -1.820398
v -0.03212484 -0.4972002 -3.793016
v 0.0289816 -0.2481925 -4.460488
v 0.00330035 -0.2474751 -3.790102
v 0.02892504 0.00101429 -3.784702
v 0.00866288 -0.007566185 -3.122533
v 0.5321106 -0.2092163 -3.790416
v 0.2930045 -0.0775301 -4.461772
v 0.2850788 -0.1045093 -3.787954
v 0.02792702 0.0004970551 -3.784717
v 0.007807278 -0.007926826 -3.122538
v 0.02792702 0.0004970551 -3.784717
v -0.2231376 0.1217719 -3.121708
v -0.2263045 0.1062802 -3.780406
v 0.02693375 0.00500984 -4.458452
v 0.1547961 0.2453775 -0.5522235
v 0.008194199 -0.01410446 -1.174212
v 0.1345305 0.2628754 -1.193358
v 0.008238181 -0.01233367 -1.820399
v 0.008194199 -0.01410446 -1.174212
v 0.1547961 0.2453775 -0.5522235
v 0.007241325 -0.01373866 -0.5271249
v 0.1685861 0.2528993 0.09194549
v 0.05893707 0.2462579 -3.121192
v 0.02892504 0.00101429 -3.784702
v 0.04552146 0.2531928 -3.772523
v 0.02802615 0.005727919 -4.458417
v 0.2982669 0.5223598 -0.6046677
v 0.1345305 0.2628754 -1.193358
v 0.2550242 0.5538912 -1.236822
v 0.1105682 0.2648826 -1.833771
v 0.1345305 0.2628754 -1.193358
v 0.2982669 0.5223598 -0.6046677
v 0.1547961 0.2453775 -0.5522235
v 0.3320647 0.5095662 0.02946014
v -0.3617001 0.4564916 -0.5954922
v -0.1945282 0.1963112 -1.189059
v -0.3936331 0.4115193 -1.221408
v -0.2065172 0.1703144 -1.829062
v 0.1083467 0.5136012 -3.123334
v 0.04552146 0.2531928 -3.772523
v 0.06013805 0.5139841 -3.749242
v 0.01825125 0.2607083 -4.431926
v -0.4515017 0.2545061 -3.122921
v -0.2263045 0.1062802 -3.780406
v -0.4667745 0.2133188 -3.774486
v -0.2367295 0.08770458 -4.451597
vt 0 0.25
vt 0.125 0
vt 0 0
vt 0 0.25
vt 0.125 0
vt 0 0
vt 0.25 0.25
vt 0.375 0
vt 0.25 0
vt 0.25 0.25
vt 0.375 0
vt 0.25 0
vt 0.125 0.25
vt 0.25 0
vt 0.125 0
vt 0.125 0.25
vt 0.25 0
vt 0.125 0
vt 0.625 0.75
vt 0.5 0.5
vt 0.5 0.75
vt 0.625 1
vt 0.5 1
vt 0.75 0.5
vt 0.875 0.75
vt 0.875 0.5
vt 1 0.5
vt 0.875 0.25
vt 0.75 0.25
vt 0.875 0.25
vt 0.875 0
vt 1 0
vt 0.25 0.5
vt 0.375 0.75
vt 0.375 0.5
vt 0.25 0.25
vt 0.375 0.25
vt 0.375 0
vt 0.5 0
vt 0.25 0.5
vt 0.375 0.75
vt 0.375 0.5
vt 0.25 0.25
vt 0.375 0.25
vt 0.375 0
vt 0.5 0
vt 1 0.75
vt 0.875 0.5
vt 0.875 0.75
vt 0.75 0.75
vt 0.875 1
vt 0.875 0.5
vt 1 0.75
vt 1 0.5
vt 0.875 0.25
vt 1 0.25
vt 1 0
vt 0.125 1
vt 0 0.75
vt 0 1
vt 0.125 0.75
vt 0 0.5
vt 0.125 0.5
vt 0 0.25
vt 0.125 1
vt 0 0.75
vt 0 1
vt 0.125 0.75
vt 0 0.5
vt 0.125 0.5
vt 0 0.25
vt 0.25 0.75
vt 0.375 1
vt 0.375 0.75
vt 0.5 1
vt 0.375 1
vt 0.5 0.75
vt 0.375 0.5
vt 0.5 0.5
vt 0.375 0.25
vt 0.25 1
vt 0.125 0.75
vt 0.125 1
vt 0 0.75
vt 0.125 0.75
vt 0 0.5
vt 0.125 0.5
vt 0.25 0.75
vt 0.25 1
vt 0.125 0.75
vt 0.125 1
vt 0 0.75
vt 0.125 0.75
vt 0 0.5
vt 0.125 0.5
vt 0.25 0.75
vt 0.25 0.5
vt 0.125 0.25
vt 0 0.25
vt 0.125 0
vt 0.75 1
vt 0.625 0.75
vt 0.625 1
vt 0.5 0.75
vt 0.625 0.75
vt 0.625 1
vt 0.5 1
vt 0.375 0.75
vt 0.625 0.75
vt 0.5 0.5
vt 0.375 0.5
vt 0.625 0.5
vt 0.5 0.25
vt 0.375 0.25
vt 0.5 0.5
vt 0.5 0
vt 0.5 0.25
vt 0.625 0
vt 0.5 0.5
vt 0.625 0.5
vt 0.75 0.75
vt 0.75 0.5
vt 0.625 0.25
vt 0.5 0.25
vt 0.625 0
vt 0.75 0
vt 0.75 1
vt 0.625 0.75
vt 0.625 1
vt 0.5 0.75
vt 0.625 0.75
vt 0.5 0.5
vt 0.625 0.5
vt 0.75 0.75
vt 0.75 0.5
vt 0.625 0.25
vt 0.5 0.25
vt 0.625 0
vt 0.75 0
vt 0.875 0.75
vt 1 1
vt 1 0.75
vt 0.875 0.5
vt 1 0.5
vt 0.875 0.25
vt 0.75 0.25
vt 0.875 0
vt 1 0
vt 0.875 0.25
vt 1 0.25
vt 1 0
vt 1 1
vt 0.875 0.75
vt 0.875 1
vt 0.875 0.75
vt 1 1
vt 1 0.75
vt 0.375 0.75
vt 0.5 1
vt 0.5 0.75
vt 0.375 0.5
vt 0.5 0.5
vt 0.625 0.5
vt 0.5 0.25
vt 0.375 0.25
vt 0.5 0.25
vt 0.5 0
vt 0.625 0
vt 0.5 0.5
vt 0.375 0.25
vt 0.375 0.5
vt 0.5 0.75
vt 0.375 0.75
vt 0.25 0.75
vt 0.375 1
vt 0.5 1
vt 0.125 0
vt 0 0.25
vt 0.125 0.25
vt 0.125 0.5
vt 0.25 0.5
vt 0.75 0.25
vt 0.875 0
vt 0.75 0
vt 0.625 0.25
vt 0.75 0.5
vt 0.75 0.25
vt 0.875 0.5
vt 0.75 0.25
vt 0.875 0
vt 0.75 0
vt 0.625 0.25
vt 0.75 0.5
vt 0.75 0.25
vt 0.875 0.5
vt 0.75 0.5
vt 0.875 0.75
vt 0.75 0.75
vt 0.625 0.5
vt 0.25 0
vt 0.125 0.25
vt 0.25 0.25
vt 0.25 0.5
vt 0.375 0.5
vt 0.25 0
vt 0.125 0.25
vt 0.25 0.25
vt 0.25 0.5
vt 0.375 0.5
vt 0.25 0.5
vt 0.375 0.75
vt 0.25 0.75
vt 0.125 0.5
vt 0.875 0.75
vt 0.75 0.5
vt 0.75 0.75
vt 0.625 0.5
vt 0.75 0.5
vt 0.875 0.75
vt 0.875 0.5
vt 1 0.75
vt 0.375 0.75
vt 0.25 0.5
vt 0.25 0.75
vt 0.125 0.5
vt 0.875 1
vt 0.75 0.75
vt 0.75 1
vt 0.625 0.75
vt 0.75 0.75
vt 0.875 1
vt 0.875 0.75
vt 1 1
vt 0.875 1
vt 0.75 0.75
vt 0.75 1
vt 0.625 0.75
vt 0.375 1
vt 0.25 0.75
vt 0.25 1
vt 0.125 0.75
vt 0.375 1
vt 0.25 0.75
vt 0.25 1
vt 0.125 0.75
vn -0.9922919 -0.1092824 -0.05843128
vn -0.9922919 -0.1092824 -0.05843128
vn 0.9790572 0.2024582 0.02139181
vn -0.2202929 -0.9738009 -0.05641731
vn -0.2202929 -0.9738009 -0.05641731
vn 0.3179738 0.944793 -0.0791131
vn -0.9849666 0.1408905 -0.09995325
vn -0.9849666 0.1408905 -0.09995325
vn -0.9849666 0.1408905 -0.09995325
vn -0.3889568 -0.9151671 -0.105744
vn -0.3889568 -0.9151671 -0.105744
vn -0.3889569 -0.9151671 -0.105744
vn -0.9963412 0.03063683 -0.07978465
vn -0.9963412 0.03063683 -0.07978466
vn -0.9963412 0.03063683 -0.07978465
vn -0.3063768 -0.9487919 -0.07698783
vn -0.3063768 -0.9487919 -0.07698784
vn -0.3063769 -0.9487919 -0.07698784
vn -0.5707377 -0.8197345 0.04789524
vn -0.5707377 -0.8197345 0.04789524
vn -0.5707377 -0.8197345 0.04789524
vn -0.5850056 -0.8061029 0.08925548
vn -0.5850056 -0.8061029 0.08925548
vn -0.7765803 -0.6300181 -0.0005018315
vn -0.7765804 -0.630018 -0.0005018316
vn -0.7765803 -0.630018 -0.0005018316
vn -0.7610564 -0.6483837 0.01979308
vn -0.7610564 -0.6483837 0.01979307
vn -0.7637141 -0.6445395 -0.03618831
vn -0.7637141 -0.6445395 -0.03618831
vn -0.7637141 -0.6445395 -0.03618831
vn -0.76574 -0.6398087 -0.06547557
vn -0.9805454 0.1943589 -0.02748585
vn -0.9805454 0.1943589 -0.02748585
vn -0.9805454 0.1943589 -0.02748585
vn -0.9734313 0.2188409 -0.06738088
vn -0.9734313 0.2188409 -0.06738088
vn -0.9734313 0.2188409 -0.06738088
vn -0.973048 0.2190849 -0.07196683
vn -0.4895711 -0.8715767 -0.02596293
vn -0.4895711 -0.8715767 -0.02596293
vn -0.4895711 -0.8715767 -0.02596293
vn -0.4769277 -0.8761199 -0.07038343
vn -0.4769277 -0.8761199 -0.07038344
vn -0.4769276 -0.8761199 -0.07038343
vn -0.4765702 -0.8742876 -0.09220657
vn -0.7780697 -0.6251731 0.06136901
vn -0.7780697 -0.625173 0.06136901
vn -0.7780697 -0.625173 0.06136901
vn -0.7996014 -0.599358 0.03751952
vn -0.7996014 -0.599358 0.03751952
vn -0.8321836 -0.5542581 0.01638055
vn -0.8321836 -0.5542581 0.01638055
vn -0.8321837 -0.5542581 0.01638055
vn -0.8193053 -0.5727468 -0.02645771
vn -0.8193052 -0.5727468 -0.02645771
vn -0.8193053 -0.5727468 -0.02645771
vn -0.9862794 -0.1384607 0.08989747
vn -0.9910204 -0.1193141 0.06035518
vn -0.9862794 -0.1384607 0.08989747
vn -0.9910204 -0.1193141 0.06035518
vn -0.9910204 -0.1193141 0.06035518
vn -0.9936779 -0.1074318 0.03259856
vn -0.9936779 -0.1074318 0.03259856
vn -0.2184196 -0.9725752 0.07994014
vn -0.2202626 -0.9744795 0.04329123
vn -0.2184196 -0.9725752 0.07994013
vn -0.2202626 -0.9744795 0.04329123
vn -0.2202627 -0.9744795 0.04329124
vn -0.2182326 -0.9758351 0.01096397
vn -0.2182326 -0.9758351 0.01096397
vn -0.983073 0.1818664 0.02218496
vn -0.983073 0.1818664 0.02218496
vn -0.9802214 0.1939414 0.03940672
vn -0.9804747 0.1818088 0.07493263
vn -0.9804747 0.1818088 0.07493263
vn -0.9802214 0.1939414 0.03940672
vn -0.9802214 0.1939414 0.03940672
vn -0.9780666 0.2082899 0.0009861976
vn -0.9780666 0.2082899 0.0009861976
vn -0.9947605 -0.05952285 0.0831176
vn -0.9947605 -0.05952285 0.08311761
vn -0.9966106 -0.05476569 0.06138402
vn -0.9966106 -0.05476569 0.06138401
vn -0.9986023 -0.04166125 0.03252199
vn -0.9986023 -0.04166125 0.03252199
vn -0.9986023 -0.04166125 0.03252199
vn -0.9982627 -0.04250825 0.04079957
vn -0.3116224 -0.9476295 0.06992736
vn -0.3116224 -0.9476294 0.06992736
vn -0.3130439 -0.9486729 0.0449805
vn -0.313044 -0.9486729 0.0449805
vn -0.2989171 -0.9541836 0.01349726
vn -0.2989171 -0.9541836 0.01349726
vn -0.2989171 -0.9541836 0.01349726
vn -0.298385 -0.9539409 0.03103549
vn -0.2963513 -0.9550604 -0.005960249
vn -0.3072088 -0.9514736 -0.01790722
vn -0.3072088 -0.9514736 -0.01790722
vn -0.3072088 -0.9514736 -0.01790722
vn -0.9431186 0.3247907 0.07098059
vn -0.9431186 0.3247907 0.0709806
vn -0.9466344 0.3210418 0.02855717
vn -0.9584442 0.2836864 0.03011323
vn -0.9381381 0.3462605 -0.000799327
vn -0.9637202 0.2593455 0.06311319
vn -0.9637202 0.2593455 0.06311319
vn -0.9653682 0.2579886 0.03880911
vn -0.9584442 0.2836864 0.03011323
vn -0.9584442 0.2836864 0.03011322
vn -0.9590784 0.283134 0.001916349
vn -0.9544219 0.2984602 -0.0005560012
vn -0.9544219 0.2984602 -0.0005560012
vn -0.9520249 0.3041547 -0.0337436
vn -0.9534894 0.2995176 -0.0338706
vn -0.9490715 0.3074509 -0.06882646
vn -0.9490715 0.3074509 -0.06882647
vn -0.9490715 0.3074509 -0.06882645
vn -0.9381381 0.3462605 -0.0007993269
vn -0.9381381 0.3462605 -0.0007993269
vn -0.9369451 0.3476022 0.03614699
vn -0.9293228 0.369267 0.0009486743
vn -0.9218771 0.3862616 -0.03073333
vn -0.9218771 0.3862616 -0.03073333
vn -0.9218771 0.3862616 -0.03073333
vn -0.9179351 0.3907465 -0.06864645
vn -0.6597973 -0.7456884 0.09282444
vn -0.6597973 -0.7456884 0.09282444
vn -0.6593626 -0.7504306 0.04577075
vn -0.6593626 -0.7504306 0.04577075
vn -0.6492779 -0.7605381 0.004480901
vn -0.6492779 -0.7605381 0.004480902
vn -0.6492779 -0.7605381 0.004480902
vn -0.6495849 -0.7590719 0.04300191
vn -0.6432292 -0.7656714 -0.001862062
vn -0.639096 -0.7681847 -0.03806102
vn -0.639096 -0.7681847 -0.03806102
vn -0.639096 -0.7681847 -0.03806102
vn -0.640048 -0.7641617 -0.07997079
vn -0.8420909 0.5392081 0.01173079
vn -0.8420908 0.5392081 0.01173079
vn -0.8324165 0.5537313 -0.02154802
vn -0.8324167 0.5537313 -0.02154802
vn -0.8324165 0.5537313 -0.02154801
vn -0.8485287 0.5277636 -0.03827177
vn -0.8485287 0.5277636 -0.03827178
vn -0.8485286 0.5277636 -0.03827177
vn -0.8419496 0.5336548 -0.07958139
vn -0.8080499 0.586932 -0.05065615
vn -0.80805 0.586932 -0.05065614
vn -0.80805 0.586932 -0.05065615
vn -0.80183 -0.5889325 0.10113
vn -0.80183 -0.5889324 0.10113
vn -0.80183 -0.5889325 0.10113
vn -0.8483565 -0.5262649 0.05776183
vn -0.8483565 -0.5262649 0.05776183
vn -0.8483565 -0.5262649 0.05776183
vn -0.5852627 -0.8103475 0.02836119
vn -0.5852628 -0.8103475 0.02836119
vn -0.5707438 -0.8210611 -0.01049878
vn -0.5707437 -0.8210611 -0.01049878
vn -0.5707438 -0.8210611 -0.01049878
vn -0.5619448 -0.8271613 0.004708302
vn -0.5619448 -0.8271613 0.004708302
vn -0.5580388 -0.828144 -0.05263313
vn -0.5581295 -0.8256081 -0.08284093
vn -0.5581295 -0.8256081 -0.08284093
vn -0.5581295 -0.8256081 -0.08284093
vn -0.4747642 -0.8800434 -0.01106873
vn -0.4747643 -0.8800434 -0.01106873
vn -0.4893821 -0.8715914 0.02887027
vn -0.4893821 -0.8715915 0.02887028
vn -0.4893821 -0.8715914 0.02887028
vn -0.5024801 -0.8642896 0.02274267
vn -0.5024802 -0.8642896 0.02274267
vn -0.5015454 -0.8622437 0.07062561
vn -0.9993462 0.03512791 -0.008552475
vn -0.9993462 0.03512791 -0.008552475
vn -0.9993462 0.03512791 -0.008552475
vn -0.9999627 -0.003698914 -0.007815387
vn -0.999992 -0.003773409 0.001307821
vn -0.882377 0.4650005 -0.07200974
vn -0.882377 0.4650005 -0.07200974
vn -0.882377 0.4650005 -0.07200974
vn -0.8873979 0.4598165 -0.0330714
vn -0.8966469 0.4427435 -0.001570652
vn -0.8966469 0.4427435 -0.001570652
vn -0.8966469 0.4427435 -0.001570652
vn -0.7071334 -0.7031894 -0.07407503
vn -0.7071334 -0.7031893 -0.07407504
vn -0.7071334 -0.7031894 -0.07407503
vn -0.7056695 -0.7074297 -0.03967113
vn -0.7078047 -0.7052955 -0.03963261
vn -0.7073958 -0.7068174 -0.0003714232
vn -0.7073958 -0.7068176 -0.0003714232
vn -0.7217478 -0.6910969 0.0382782
vn -0.7217478 -0.6910969 0.0382782
vn -0.7217478 -0.6910968 0.0382782
vn -0.7208691 -0.6930692 -0.001657002
vn -0.9893088 0.1407841 -0.03804924
vn -0.9893088 0.1407841 -0.03804924
vn -0.9893088 0.1407841 -0.03804924
vn -0.9942394 0.1031599 -0.02908665
vn -0.9942394 0.1031599 -0.02908665
vn -0.3902668 -0.9197698 -0.04141741
vn -0.3902668 -0.9197698 -0.04141741
vn -0.3902668 -0.9197698 -0.04141741
vn -0.3781623 -0.9248096 -0.04147683
vn -0.3781889 -0.9254361 -0.02326384
vn -0.3837145 -0.9231513 0.02355601
vn -0.3837145 -0.9231513 0.02355601
vn -0.3837145 -0.9231513 0.02355601
vn -0.3842368 -0.9232175 -0.005617393
vn -0.9080456 0.4169491 0.04008181
vn -0.9080456 0.416949 0.04008181
vn -0.9080456 0.416949 0.04008181
vn -0.9097971 0.4150517 0.001075471
vn -0.8690452 0.4947303 -0.001559395
vn -0.8690452 0.4947303 -0.001559395
vn -0.8690452 0.4947304 -0.001559395
vn -0.8683764 0.4957404 0.01280106
vn -0.997683 0.06463402 0.02123768
vn -0.997683 0.06463402 0.02123768
vn -0.997683 0.06463403 0.02123768
vn -0.9978454 0.06558393 0.001790213
vn -0.9164055 0.3917141 0.08222537
vn -0.9164055 0.3917141 0.08222537
vn -0.9164055 0.3917141 0.08222537
vn -0.9214506 0.3868528 0.03569026
vn -0.8840522 0.4656169 0.04065166
vn -0.8840522 0.4656168 0.04065166
vn -0.8840522 0.4656169 0.04065165
vn -0.8821294 0.4676122 0.05644998
vn -0.7377245 -0.6696338 0.08575083
vn -0.7377245 -0.6696339 0.08575084
vn -0.7377245 -0.6696338 0.08575083
vn -0.7364931 -0.6751879 0.04122259
vn -0.9958487 0.04896459 0.07673212
vn -0.9958487 0.04896458 0.07673211
vn -0.9958487 0.04896459 0.07673212
vn -0.9977598 0.05218488 0.04185805
vn -0.4043583 -0.9121333 0.06713676
vn -0.4043583 -0.9121333 0.06713676
vn -0.4043583 -0.9121333 0.06713676
vn -0.4058038 -0.9134144 0.03158233
g Fuka_trail01_0
f 3/3/3 2/2/2 1/1/1
f 6/6/6 5/5/5 4/4/4
f 9/9/9 8/8/8 7/7/7
f 12/12/12 11/11/11 10/10/10
f 15/15/15 14/14/14 13/13/13
f 18/18/18 17/17/17 16/16/16
f 21/21/21 20/20/20 19/19/19
f 23/23/23 21/21/21 22/22/22
f 26/26/26 25/25/25 24/24/24
f 26/26/26 28/28/28 27/27/27
f 30/30/30 26/26/26 29/29/29
f 30/30/30 29/29/29 31/31/31
f 31/31/31 32/32/32 30/30/30
f 35/35/35 34/34/34 33/33/33
f 37/37/37 35/35/35 36/36/36
f 37/37/37 36/36/36 38/38/38
f 38/38/38 39/39/39 37/37/37
f 42/42/42 41/41/41 40/40/40
f 44/44/44 42/42/42 43/43/43
f 44/44/44 43/43/43 45/45/45
f 45/45/45 46/46/46 44/44/44
f 49/49/49 48/48/48 47/47/47
f 49/49/49 51/51/51 50/50/50
f 54/54/54 53/53/53 52/52/52
f 56/56/56 54/54/54 55/55/55
f 56/56/56 55/55/55 57/57/57
f 60/60/60 59/59/59 58/58/58
f 59/59/59 62/62/62 61/61/61
f 62/62/62 64/64/64 63/63/63
f 67/67/67 66/66/66 65/65/65
f 66/66/66 69/69/69 68/68/68
f 69/69/69 71/71/71 70/70/70
f 74/74/74 73/73/73 72/72/72
f 76/76/76 74/74/74 75/75/75
f 74/74/74 78/78/78 77/77/77
f 78/78/78 80/80/80 79/79/79
f 83/83/83 82/82/82 81/81/81
f 85/85/85 83/83/83 84/84/84
f 87/87/87 85/85/85 86/86/86
f 85/85/85 87/87/87 88/88/88
f 91/91/91 90/90/90 89/89/89
f 93/93/93 91/91/91 92/92/92
f 95/95/95 93/93/93 94/94/94
f 93/93/93 95/95/95 96/96/96
f 95/95/95 98/98/98 97/97/97
f 98/98/98 95/95/95 99/99/99
f 98/98/98 99/99/99 100/100/100
f 103/103/103 102/102/102 101/101/101
f 105/105/105 103/103/103 104/104/104
f 107/107/107 104/104/104 106/106/106
f 104/104/104 107/107/107 108/108/108
f 104/104/104 110/110/110 109/109/109
f 110/110/110 104/104/104 111/111/111
f 110/110/110 113/113/113 112/112/112
f 113/113/113 115/115/115 114/114/114
f 117/117/117 114/114/114 116/116/116
f 116/116/116 118/118/118 117/117/117
f 120/120/120 105/105/105 119/119/119
f 105/105/105 120/120/120 121/121/121
f 120/120/120 123/123/123 122/122/122
f 123/123/123 120/120/120 124/124/124
f 123/123/123 124/124/124 125/125/125
f 125/125/125 126/126/126 123/123/123
f 129/129/129 128/128/128 127/127/127
f 131/131/131 129/129/129 130/130/130
f 133/133/133 131/131/131 132/132/132
f 131/131/131 133/133/133 134/134/134
f 133/133/133 136/136/136 135/135/135
f 136/136/136 133/133/133 137/137/137
f 136/136/136 137/137/137 138/138/138
f 138/138/138 139/139/139 136/136/136
f 142/142/142 141/141/141 140/140/140
f 144/144/144 142/142/142 143/143/143
f 143/143/143 145/145/145 144/144/144
f 145/145/145 143/143/143 146/146/146
f 145/145/145 146/146/146 147/147/147
f 147/147/147 148/148/148 145/145/145
f 150/150/150 144/144/144 149/149/149
f 150/150/150 149/149/149 151/151/151
f 154/154/154 153/153/153 152/152/152
f 157/157/157 156/156/156 155/155/155
f 160/160/160 159/159/159 158/158/158
f 162/162/162 160/160/160 161/161/161
f 162/162/162 164/164/164 163/163/163
f 166/166/166 162/162/162 165/165/165
f 166/166/166 165/165/165 167/167/167
f 167/167/167 168/168/168 166/166/166
f 171/171/171 170/170/170 169/169/169
f 173/173/173 171/171/171 172/172/172
f 173/173/173 175/175/175 174/174/174
f 175/175/175 173/173/173 176/176/176
f 179/179/179 178/178/178 177/177/177
f 179/179/179 180/180/180 178/178/178
f 180/180/180 179/179/179 181/181/181
f 184/184/184 183/183/183 182/182/182
f 182/182/182 185/185/185 184/184/184
f 187/187/187 186/186/186 185/185/185
f 186/186/186 187/187/187 188/188/188
f 191/191/191 190/190/190 189/189/189
f 189/189/189 192/192/192 191/191/191
f 194/194/194 193/193/193 192/192/192
f 196/196/196 194/194/194 195/195/195
f 198/198/198 196/196/196 197/197/197
f 196/196/196 198/198/198 199/199/199
f 202/202/202 201/201/201 200/200/200
f 202/202/202 203/203/203 201/201/201
f 203/203/203 202/202/202 204/204/204
f 207/207/207 206/206/206 205/205/205
f 207/207/207 208/208/208 206/206/206
f 210/210/210 207/207/207 209/209/209
f 212/212/212 210/210/210 211/211/211
f 210/210/210 212/212/212 213/213/213
f 216/216/216 215/215/215 214/214/214
f 215/215/215 216/216/216 217/217/217
f 220/220/220 219/219/219 218/218/218
f 219/219/219 220/220/220 221/221/221
f 224/224/224 223/223/223 222/222/222
f 223/223/223 224/224/224 225/225/225
f 228/228/228 227/227/227 226/226/226
f 227/227/227 228/228/228 229/229/229
f 232/232/232 231/231/231 230/230/230
f 231/231/231 232/232/232 233/233/233
f 236/236/236 235/235/235 234/234/234
f 235/235/235 236/236/236 237/237/237
f 240/240/240 239/239/239 238/238/238
f 239/239/239 240/240/240 241/241/241
f 244/244/244 243/243/243 242/242/242
f 243/243/243 244/244/244 245/245/245
