g GeoSphere01
v 0.002880638 -0.004019121 0.6807955
v 0.002880638 0.1109088 0.09270924
v 0.1178086 -0.004019121 0.09270924
v 0.4409418 0.4403721 0.3720373
v 0.2019417 -0.004019121 0.008576193
v 0.6133891 -0.5413365 0.3927129
v 0.002880638 -0.1189471 0.09270924
v 0.002880638 -0.004019121 0.6807955
v 0.002880638 0.1950419 0.008576193
v 0.2019417 0.1109088 -0.1063517
v 0.1178086 0.1950419 -0.1063517
v 0.2019417 -0.1189471 -0.1063517
v 1.269806 -0.004019121 -0.1063517
v 0.2019417 -0.004019121 -0.2212796
v 0.5948974 0.773626 -0.6179616
v 0.1178086 -0.2030801 -0.1063517
v 0.6008435 -0.5966187 -0.799791
v 0.002880638 -0.2030801 0.008576193
v 0.1178086 -0.004019121 -0.3054127
v 0.002880638 0.1950419 -0.2212796
v 0.002880638 1.181319 -0.1063517
v -0.1120473 0.1950419 -0.1063517
v 0.002880638 0.1109088 -0.3054127
v 0.002880638 -0.004019121 -1.621883
v 0.002880638 -0.1189471 -0.3054127
v 0.002880638 -0.004019121 -1.621883
v 0.002880638 -0.2030801 -0.2212796
v -0.5327938 0.5649372 -0.7688872
v -0.5597202 0.5058464 0.3936692
v -0.1120473 -0.004019121 -0.3054127
v 0.002880638 -0.004019121 -1.621883
v -0.1961804 -0.004019121 -0.2212796
v -0.1961804 0.1109088 -0.1063517
v -1.261045 -0.004019121 -0.1063517
v -0.1961804 -0.004019121 0.008576193
v -0.1120473 -0.004019121 0.09270924
v 0.002880638 -0.004019121 0.6807955
v 0.002880638 -0.004019121 0.6807955
v -0.1120473 -0.004019121 0.09270924
v -0.4706208 -0.4136864 0.4605601
v -0.1961804 -0.004019121 0.008576193
v -0.1961804 -0.1189471 -0.1063517
v -1.261045 -0.004019121 -0.1063517
v -0.1961804 -0.004019121 -0.2212796
v -0.1120473 -0.2030801 -0.1063517
v -0.6342209 -0.7073981 -0.7609488
v -0.1120473 -0.004019121 -0.3054127
v 0.002880638 -0.004019121 -1.621883
v 0.002880638 -1.292834 -0.1063517
vt 0.9999999 0.3750001
vt 0.8333333 0.2500001
vt 0.8333333 0.5000001
vt 0.7179528 0.3750001
vt 0.6666667 0.5000001
vt 0.7179528 0.6250001
vt 0.8333333 0.7500001
vt 0.9999999 0.6250001
vt 0.6666667 0.2500001
vt 0.5 0.4166667
vt 0.5 0.3333334
vt 0.5 0.5833334
vt 0.5 0.5
vt 0.3333333 0.5
vt 0.2820471 0.375
vt 0.4999999 0.6666667
vt 0.2820471 0.625
vt 0.6666666 0.7500001
vt 0.1666667 0.5
vt 0.3333333 0.25
vt 0.5 0.2500001
vt 0.5 0.1666667
vt 0.1666667 0.25
vt -1.241846E-08 0.375
vt 0.1666666 0.75
vt -3.129293E-08 0.625
vt 0.3333333 0.75
vt 0.2820471 0.125
vt 0.7179528 0.1250001
vt 0.1666667 0
vt 6.45602E-09 0.125
vt 0.3333334 0
vt 0.5 0.08333343
vt 0.5 5.960464E-08
vt 0.6666667 5.960464E-08
vt 0.8333333 5.960464E-08
vt 1 0.1250001
vt 0.9999999 0.8750001
vt 0.8333333 1
vt 0.7179528 0.8750001
vt 0.6666666 1
vt 0.4999999 0.9166667
vt 0.4999999 1
vt 0.3333333 1
vt 0.4999999 0.8333334
vt 0.2820471 0.875
vt 0.1666666 1
vt -5.016741E-08 0.875
vt 0.4999999 0.7500001
vn 0 0 1
vn -0.0279433 0.5109671 0.859146
vn 0.4956611 -0.01810443 0.8683273
vn 0.5520726 0.5620878 0.6158516
vn 0.8483136 0.05942338 0.526149
vn 0.6518482 -0.5597586 0.511629
vn 0.0747727 -0.5177484 0.8522591
vn 0 0 1
vn -0.003516982 0.8449755 0.5347936
vn 0.8624244 0.5025752 0.06035143
vn 0.5041274 0.8513734 0.1449783
vn 0.850761 -0.5216914 -0.06359022
vn 1 4.861512E-07 -6.482016E-07
vn 0.8399723 0.05065277 -0.5402601
vn 0.5278785 0.7248974 -0.4425698
vn 0.5193698 -0.8540945 -0.0278833
vn 0.542824 -0.537028 -0.6457114
vn -0.02610122 -0.840425 0.541299
vn 0.5451936 0.1185813 -0.829881
vn -0.0734328 0.8653198 -0.4958116
vn 0 1 -4.152508E-07
vn -0.5308439 0.8472615 -0.01877883
vn 0.08708874 0.4984081 -0.8625571
vn 0 7.369243E-07 -1
vn -0.02922513 -0.5070176 -0.8614401
vn 0 7.369243E-07 -1
vn 0.03465932 -0.8662878 -0.4983414
vn -0.512174 0.5507052 -0.6590915
vn -0.6273935 0.557142 0.5440314
vn -0.5294099 -0.0426435 -0.8472937
vn 0 7.369243E-07 -1
vn -0.8563856 0.0088462 -0.5162609
vn -0.8433662 0.5340576 -0.05929586
vn -1 4.834463E-07 -8.05744E-07
vn -0.8660251 -0.0155518 0.4997587
vn -0.4711642 0.07391138 0.8789433
vn 0 0 1
vn 0 0 1
vn -0.4711642 0.07391138 0.8789433
vn -0.5553749 -0.4628289 0.6909039
vn -0.8660251 -0.0155518 0.4997587
vn -0.8362929 -0.5453604 0.05653549
vn -1 4.834463E-07 -8.05744E-07
vn -0.8563856 0.0088462 -0.5162609
vn -0.5435915 -0.8319373 0.1113051
vn -0.5484147 -0.6154488 -0.5660955
vn -0.5294099 -0.0426435 -0.8472937
vn 0 7.369243E-07 -1
vn -3.374187E-07 -1 -1.012256E-06
g GeoSphere01_0
f 3/3/3 2/2/2 1/1/1
f 4/4/4 2/2/2 3/3/3
f 5/5/5 4/4/4 3/3/3
f 6/6/6 5/5/5 3/3/3
f 6/6/6 3/3/3 7/7/7
f 7/7/7 3/3/3 8/8/8
f 4/4/4 9/9/9 2/2/2
f 10/10/10 4/4/4 5/5/5
f 11/11/11 9/9/9 4/4/4
f 10/10/10 11/11/11 4/4/4
f 12/12/12 5/5/5 6/6/6
f 13/13/13 10/10/10 5/5/5
f 12/12/12 13/13/13 5/5/5
f 10/10/10 13/13/13 14/14/14
f 13/13/13 12/12/12 14/14/14
f 11/11/11 10/10/10 15/15/15
f 10/10/10 14/14/14 15/15/15
f 16/16/16 12/12/12 6/6/6
f 12/12/12 17/17/17 14/14/14
f 12/12/12 16/16/16 17/17/17
f 18/18/18 6/6/6 7/7/7
f 16/16/16 6/6/6 18/18/18
f 15/15/15 14/14/14 19/19/19
f 14/14/14 17/17/17 19/19/19
f 11/11/11 15/15/15 20/20/20
f 11/11/11 21/21/21 9/9/9
f 21/21/21 11/11/11 20/20/20
f 21/21/21 22/22/22 9/9/9
f 22/22/22 21/21/21 20/20/20
f 20/20/20 15/15/15 23/23/23
f 15/15/15 19/19/19 23/23/23
f 23/23/23 19/19/19 24/24/24
f 17/17/17 25/25/25 19/19/19
f 19/19/19 25/25/25 26/26/26
f 16/16/16 27/27/27 17/17/17
f 17/17/17 27/27/27 25/25/25
f 28/28/28 20/20/20 23/23/23
f 22/22/22 20/20/20 28/28/28
f 22/22/22 29/29/29 9/9/9
f 9/9/9 29/29/29 2/2/2
f 28/28/28 23/23/23 30/30/30
f 30/30/30 23/23/23 31/31/31
f 32/32/32 28/28/28 30/30/30
f 33/33/33 22/22/22 28/28/28
f 33/33/33 28/28/28 32/32/32
f 22/22/22 33/33/33 29/29/29
f 34/34/34 33/33/33 32/32/32
f 33/33/33 34/34/34 35/35/35
f 33/33/33 35/35/35 29/29/29
f 29/29/29 35/35/35 36/36/36
f 29/29/29 36/36/36 2/2/2
f 2/2/2 36/36/36 37/37/37
f 39/39/39 7/7/7 38/38/38
f 40/40/40 7/7/7 39/39/39
f 41/41/41 40/40/40 39/39/39
f 40/40/40 18/18/18 7/7/7
f 42/42/42 40/40/40 41/41/41
f 43/43/43 42/42/42 41/41/41
f 42/42/42 43/43/43 44/44/44
f 45/45/45 18/18/18 40/40/40
f 42/42/42 45/45/45 40/40/40
f 42/42/42 44/44/44 46/46/46
f 45/45/45 42/42/42 46/46/46
f 46/46/46 44/44/44 47/47/47
f 46/46/46 47/47/47 25/25/25
f 25/25/25 47/47/47 48/48/48
f 27/27/27 46/46/46 25/25/25
f 45/45/45 46/46/46 27/27/27
f 45/45/45 49/49/49 18/18/18
f 49/49/49 45/45/45 27/27/27
f 49/49/49 16/16/16 18/18/18
f 16/16/16 49/49/49 27/27/27
