g GeoSphere004
v -0.1662143 0.1207618 0.1027261
v -0.2572123 0.08357333 0
v -0.1375038 0.1892577 0
v -0.1562206 0.1135009 -0.1193419
v -0.05855612 0.1802172 0.1171122
v -0.1012603 0.07356988 0.2025205
v -0.06287999 0.1935247 -0.1017419
v -0.03794198 0.1167734 -0.1986668
v -7.690829E-09 0.2355903 0
v 0.03914454 0.1204745 0.2049634
v 2.080556E-09 4.960432E-16 0.2438806
v 0.06170443 0.1899067 -0.1234089
v 0.06433393 0.1979995 0.1040945
v 0.1308684 0.1801249 0
v 0.09897185 0.07190725 -0.1979437
v 2.080556E-09 4.960432E-16 -0.2438806
v 0.1523551 0.1106925 0.116389
v 0.1582695 0.1149895 -0.09781593
v 0.1933728 0.06283065 0
v 0.1375109 2.109738E-15 0.2224973
v 0.2152108 -6.851745E-09 -0.1330076
v 0.2242356 1.984215E-15 0.1121178
v 0.2642804 -0.08586992 0
v 0.1240847 -0.09015279 -0.2481693
v 0.2077139 -0.150913 0.1586793
v 0.04811948 -0.1480964 0.2519567
v 0.2185631 -0.1587954 -0.1350794
v 0.1836898 -0.2528273 0
v 0.08123343 -0.2500106 -0.1624667
v -0.0443869 -0.136609 -0.2324131
v 0.0855773 -0.2633798 0.1384669
v -0.1071537 -0.07785172 0.2143074
v -0.1012603 0.07356988 0.2025205
v 7.495212E-08 -0.2939895 0
v -0.0714616 -0.2199363 0.1429233
v -0.2286629 -2.912012E-08 0.1413215
v -0.1662143 0.1207618 0.1027261
v -0.2572123 0.08357333 0
v -0.07477375 -0.2301302 -0.1209866
v -0.1720072 -0.1249706 0.1063063
v -0.134831 -0.185579 0
v -0.2616873 -0.0850274 0
v -0.1635231 -0.1188066 -0.1249206
v -0.2447699 -2.139847E-08 -0.122385
v -0.1562206 0.1135009 -0.1193419
v -0.131405 -1.148779E-08 -0.2126177
v -0.03794198 0.1167734 -0.1986668
vt 0.9 0.6475835
vt 0.95 0.5
vt 0.85 0.5
vt 0.9 0.3237918
vt 0.8 0.6762082
vt 0.9 0.8237918
vt 0.8 0.3524164
vt 0.8 0.1762082
vt 0.75 0.5
vt 0.6999999 0.8237918
vt 0.40002 1
vt 0.6999999 0.3237918
vt 0.6999999 0.6475835
vt 0.65 0.5
vt 0.6 0.1762082
vt 0.30004 0
vt 0.6 0.6762082
vt 0.6 0.3524164
vt 0.55 0.5
vt 0.5 0.8237918
vt 0.5 0.3237918
vt 0.5 0.6475835
vt 0.45 0.5
vt 0.4 0.1762082
vt 0.4 0.6762081
vt 0.3 0.8237918
vt 0.4 0.3524164
vt 0.35 0.5
vt 0.3 0.3237918
vt 0.2 0.1762082
vt 0.3 0.6475835
vt 0.1 0.8237918
vt -0.09999996 0.8237918
vt 0.25 0.5
vt 0.2 0.6762081
vt 3.794549E-08 0.6762081
vt -0.09999996 0.6475835
vt -0.04999995 0.5
vt 0.2000001 0.3524164
vt 0.1 0.6475835
vt 0.1500001 0.5
vt 0.05000002 0.5
vt 0.1 0.3237918
vt 3.794549E-08 0.3524164
vt -0.09999996 0.3237918
vt 3.794549E-08 0.1762082
vt -0.2 0.1762082
vn -0.5889746 0.6481158 0.4827574
vn -0.8854262 0.4647426 0.005881528
vn -0.5231705 0.8522102 0.005516433
vn -0.5742347 0.6078082 -0.5484741
vn -0.2773472 0.8138916 0.5105477
vn -0.3877195 0.4078185 0.8266546
vn -0.2984178 0.8380861 -0.4566818
vn -0.1620615 0.5540196 -0.8165772
vn 0.005811419 0.9999133 0.01181632
vn 0.1475839 0.5791098 0.8017797
vn -0.08092789 0.154642 0.9846504
vn 0.3000316 0.8047671 -0.5121824
vn 0.3039823 0.8512598 0.4277285
vn 0.6704187 0.7419819 -0.001262896
vn 0.4082187 0.4570855 -0.7902091
vn -0.04004081 0.1907702 -0.9808178
vn 0.7187824 0.5706925 0.3970666
vn 0.7549105 0.5619896 -0.3380499
vn 0.8838246 0.4678176 -0.0008673047
vn 0.5112298 0.2235952 0.8298489
vn 0.8462451 0.3049642 -0.436882
vn 0.8872456 0.3108117 0.3408686
vn 0.9997979 -0.01969167 0.004070844
vn 0.3887274 -0.09873971 -0.9160467
vn 0.7571996 -0.3384402 0.5586653
vn 0.05397757 -0.3628594 0.9302793
vn 0.8021426 -0.3737817 -0.4656764
vn 0.6197685 -0.7847844 -0.0005786248
vn 0.1652662 -0.801585 -0.5745856
vn -0.3169815 -0.3860064 -0.8663266
vn 0.1848634 -0.8575521 0.4800312
vn -0.4875711 -0.2277197 0.842863
vn -0.3877195 0.4078185 0.8266546
vn -0.2141344 -0.9767995 -0.003035184
vn -0.4948847 -0.7280132 0.4744323
vn -0.7962775 0.0344681 0.6039487
vn -0.5889746 0.6481158 0.4827574
vn -0.8854262 0.4647426 0.005881528
vn -0.5213624 -0.7600877 -0.3878762
vn -0.6945024 -0.5876017 0.4151995
vn -0.6666467 -0.7453737 -0.0003856981
vn -0.8954812 -0.4449929 0.009728603
vn -0.6847911 -0.5348105 -0.495014
vn -0.8309075 0.03273835 -0.5554466
vn -0.5742347 0.6078082 -0.5484741
vn -0.5060802 0.08659335 -0.8581284
vn -0.1620615 0.5540196 -0.8165772
g GeoSphere004_0
f 3/3/3 2/2/2 1/1/1
f 4/4/4 2/2/2 3/3/3
f 1/1/1 5/5/5 3/3/3
f 5/5/5 1/1/1 6/6/6
f 7/7/7 4/4/4 3/3/3
f 4/4/4 7/7/7 8/8/8
f 3/3/3 9/9/9 7/7/7
f 5/5/5 9/9/9 3/3/3
f 5/5/5 6/6/6 10/10/10
f 10/10/10 6/6/6 11/11/11
f 7/7/7 12/12/12 8/8/8
f 12/12/12 7/7/7 9/9/9
f 5/5/5 13/13/13 9/9/9
f 13/13/13 5/5/5 10/10/10
f 14/14/14 9/9/9 13/13/13
f 12/12/12 9/9/9 14/14/14
f 12/12/12 15/15/15 8/8/8
f 8/8/8 15/15/15 16/16/16
f 17/17/17 13/13/13 10/10/10
f 13/13/13 17/17/17 14/14/14
f 18/18/18 12/12/12 14/14/14
f 12/12/12 18/18/18 15/15/15
f 14/14/14 19/19/19 18/18/18
f 17/17/17 19/19/19 14/14/14
f 17/17/17 10/10/10 20/20/20
f 20/20/20 10/10/10 11/11/11
f 18/18/18 21/21/21 15/15/15
f 21/21/21 18/18/18 19/19/19
f 17/17/17 22/22/22 19/19/19
f 22/22/22 17/17/17 20/20/20
f 23/23/23 19/19/19 22/22/22
f 21/21/21 19/19/19 23/23/23
f 21/21/21 24/24/24 15/15/15
f 15/15/15 24/24/24 16/16/16
f 25/25/25 22/22/22 20/20/20
f 22/22/22 25/25/25 23/23/23
f 26/26/26 20/20/20 11/11/11
f 25/25/25 20/20/20 26/26/26
f 27/27/27 21/21/21 23/23/23
f 21/21/21 27/27/27 24/24/24
f 25/25/25 28/28/28 23/23/23
f 23/23/23 28/28/28 27/27/27
f 27/27/27 29/29/29 24/24/24
f 29/29/29 27/27/27 28/28/28
f 24/24/24 30/30/30 16/16/16
f 29/29/29 30/30/30 24/24/24
f 25/25/25 31/31/31 28/28/28
f 31/31/31 25/25/25 26/26/26
f 32/32/32 26/26/26 11/11/11
f 33/33/33 32/32/32 11/11/11
f 29/29/29 28/28/28 34/34/34
f 34/34/34 28/28/28 31/31/31
f 35/35/35 31/31/31 26/26/26
f 35/35/35 26/26/26 32/32/32
f 31/31/31 35/35/35 34/34/34
f 36/36/36 32/32/32 33/33/33
f 37/37/37 36/36/36 33/33/33
f 36/36/36 37/37/37 38/38/38
f 39/39/39 29/29/29 34/34/34
f 29/29/29 39/39/39 30/30/30
f 40/40/40 35/35/35 32/32/32
f 36/36/36 40/40/40 32/32/32
f 35/35/35 41/41/41 34/34/34
f 34/34/34 41/41/41 39/39/39
f 35/35/35 40/40/40 41/41/41
f 40/40/40 36/36/36 42/42/42
f 36/36/36 38/38/38 42/42/42
f 42/42/42 41/41/41 40/40/40
f 43/43/43 39/39/39 41/41/41
f 39/39/39 43/43/43 30/30/30
f 43/43/43 41/41/41 42/42/42
f 42/42/42 38/38/38 44/44/44
f 44/44/44 43/43/43 42/42/42
f 45/45/45 44/44/44 38/38/38
f 43/43/43 46/46/46 30/30/30
f 43/43/43 44/44/44 46/46/46
f 44/44/44 45/45/45 46/46/46
f 30/30/30 46/46/46 16/16/16
f 45/45/45 47/47/47 46/46/46
f 46/46/46 47/47/47 16/16/16
