g Hedra001
v 0.008415675 -2.741241E-10 0.3040673
v 0.08375414 0.04546949 0.1845596
v 0.09181201 -0.04972456 0.1845596
v 0.1226113 0.08906994 0.1195078
v 0.02623132 0.1467454 4.809905E-11
v 0.1226113 0.08906994 -0.1195078
v -0.02623132 0.1467454 4.225796E-11
v -0.1226113 0.08906994 0.1195078
v -0.1226113 0.08906994 -0.1195078
v -0.0876324 0.0595812 0.1845596
v -0.000517478 -2.741241E-10 0.3040673
v -0.09328158 -0.03917246 0.1845596
v -0.1226113 -0.08906994 0.1195078
v -0.02623132 -0.1467454 4.225825E-11
v -0.1226113 -0.08906994 -0.1195078
v 0.02623132 -0.1467454 4.809926E-11
v 0.1226113 -0.08906994 0.1195078
v 0.1226113 -0.08906994 -0.1195078
v 0.1226113 -0.05767542 -0.1845596
v 0.1226113 0.05767542 -0.1845596
v 0.02623132 -2.78981E-10 -0.3040673
v -0.1226113 -0.05767542 -0.1845596
v -0.02623132 -2.73343E-10 -0.3040673
v -0.1226113 0.05767542 -0.1845596
v -0.1226113 0.08906994 0.1195078
v -0.02623132 0.1467454 4.225796E-11
v 0.02623132 0.1467454 4.809905E-11
v 0.1226113 0.08906994 0.1195078
v -0.0876324 0.0595812 0.1845596
v 0.08375414 0.04546949 0.1845596
v -0.000517478 -2.741241E-10 0.3040673
v 0.008415675 -2.741241E-10 0.3040673
v 0.02623132 -0.1467454 4.809926E-11
v -0.02623132 -0.1467454 4.225825E-11
v -0.1226113 -0.08906994 0.1195078
v 0.1226113 -0.08906994 0.1195078
v 0.09181201 -0.04972456 0.1845596
v -0.09328158 -0.03917246 0.1845596
v 0.008415675 -2.741241E-10 0.3040673
v -0.000517478 -2.741241E-10 0.3040673
v 0.1226113 -0.05767542 -0.1845596
v 0.1226113 -0.08906994 -0.1195078
v 0.1226113 -0.08906994 0.1195078
v 0.09181201 -0.04972456 0.1845596
v 0.1226113 0.05767542 -0.1845596
v 0.08375414 0.04546949 0.1845596
v 0.1226113 0.08906994 0.1195078
v 0.1226113 0.08906994 -0.1195078
v 0.1226113 -0.05767542 -0.1845596
v 0.02623132 -2.78981E-10 -0.3040673
v -0.02623132 -2.73343E-10 -0.3040673
v -0.1226113 -0.05767542 -0.1845596
v 0.1226113 -0.08906994 -0.1195078
v -0.1226113 -0.08906994 -0.1195078
v 0.02623132 -0.1467454 4.809926E-11
v -0.02623132 -0.1467454 4.225825E-11
v -0.1226113 0.05767542 -0.1845596
v -0.02623132 -2.73343E-10 -0.3040673
v 0.02623132 -2.78981E-10 -0.3040673
v 0.1226113 0.05767542 -0.1845596
v -0.1226113 0.08906994 -0.1195078
v 0.1226113 0.08906994 -0.1195078
v -0.02623132 0.1467454 4.225796E-11
v 0.02623132 0.1467454 4.809905E-11
v -0.09328158 -0.03917246 0.1845596
v -0.1226113 -0.08906994 0.1195078
v -0.1226113 -0.08906994 -0.1195078
v -0.1226113 -0.05767542 -0.1845596
v -0.1226113 0.05767542 -0.1845596
v -0.0876324 0.0595812 0.1845596
v -0.1226113 0.08906994 -0.1195078
v -0.1226113 0.08906994 0.1195078
vt 0.1069694 0
vt 0.5 0.1965153
vt 0.5 -0.1965153
vt 0.1965153 0.5
vt 7.909291E-11 0.1069694
vt -0.1965153 0.5
vt 6.948778E-11 -0.1069694
vt 0.1965153 -0.5
vt -0.1965153 -0.5
vt -0.5 0.1965153
vt -0.1069694 0
vt -0.5 -0.1965153
vt 0.1965153 -0.5
vt 6.94883E-11 -0.1069694
vt -0.1965153 -0.5
vt 7.90933E-11 0.1069694
vt 0.1965153 0.5
vt -0.1965153 0.5
vt 0.5 -0.1965153
vt 0.5 0.1965153
vt 0.1069694 -1.654897E-11
vt -0.5 -0.1965153
vt -0.1069694 2.661194E-12
vt -0.5 0.1965153
vt 0.1965153 -0.4999999
vt 6.948778E-11 -0.1069694
vt 7.909291E-11 0.1069694
vt 0.1965153 0.5
vt 0.3034847 -0.5
vt 0.3034847 0.5
vt 0.5 -0.1069694
vt 0.5 0.1069694
vt 7.90933E-11 0.1069694
vt 6.94883E-11 -0.1069694
vt 0.1965153 -0.5
vt 0.1965153 0.4999999
vt 0.3034847 0.5
vt 0.3034847 -0.5
vt 0.5 0.1069694
vt 0.5 -0.1069694
vt -0.1965153 -0.3034847
vt -0.3034847 -0.1965153
vt -0.3034847 0.1965153
vt -0.1965153 0.3034847
vt 0.1965153 -0.3034847
vt 0.1965153 0.3034847
vt 0.3034847 0.1965153
vt 0.3034847 -0.1965153
vt 0.5 -0.1965152
vt 0.1069695 9.313226E-08
vt -0.1069693 8.940697E-08
vt -0.5 -0.1965153
vt 0.5 -0.3034847
vt -0.5 -0.3034847
vt 0.1069694 -0.5
vt -0.1069694 -0.5
vt -0.3034847 -0.5
vt -0.5 -0.1069694
vt -0.5 0.1069694
vt -0.3034847 0.5
vt -0.1965153 -0.5
vt -0.1965153 0.4999999
vt 6.948778E-11 -0.1069694
vt 7.909291E-11 0.1069694
vt -0.1965153 0.3034847
vt -0.3034847 0.1965153
vt -0.3034847 -0.1965153
vt -0.1965153 -0.3034847
vt 0.1965153 -0.3034847
vt 0.1965153 0.3034847
vt 0.3034847 -0.1965153
vt 0.3034847 0.1965153
vn 0.8315393 0.07038721 0.5509883
vn 0.8315393 0.07038721 0.5509883
vn 0.8315393 0.07038721 0.5509883
vn 0.5134965 0.8580918 0
vn 0.5134965 0.8580918 0
vn 0.5134965 0.8580918 0
vn -0.5134965 0.8580918 0
vn -0.5134965 0.8580918 0
vn -0.5134965 0.8580918 0
vn -0.7963061 0.04555254 0.6031762
vn -0.7963061 0.04555254 0.6031762
vn -0.7963061 0.04555255 0.6031762
vn -0.5134965 -0.8580918 0
vn -0.5134965 -0.8580918 0
vn -0.5134965 -0.8580918 0
vn 0.5134965 -0.8580918 0
vn 0.5134965 -0.8580918 0
vn 0.5134965 -0.8580918 0
vn 0.7784041 0 -0.6277636
vn 0.7784041 0 -0.6277636
vn 0.7784041 0 -0.6277635
vn -0.7784041 0 -0.6277636
vn -0.7784041 0 -0.6277635
vn -0.7784041 0 -0.6277636
vn 0.02768668 0.8953719 0.4444576
vn 0.02768668 0.8953719 0.4444576
vn 0.02768668 0.8953719 0.4444576
vn 0.02768668 0.8953719 0.4444577
vn 0.02768668 0.8953719 0.4444577
vn 0.02768668 0.8953719 0.4444577
vn 0.02768668 0.8953719 0.4444577
vn 0.02768668 0.8953719 0.4444577
vn -0.01991938 -0.8873626 0.4606417
vn -0.01991938 -0.8873626 0.4606417
vn -0.01991938 -0.8873627 0.4606417
vn -0.01991938 -0.8873626 0.4606417
vn -0.01991938 -0.8873627 0.4606417
vn -0.01991938 -0.8873626 0.4606417
vn -0.01991938 -0.8873626 0.4606417
vn -0.01991938 -0.8873626 0.4606417
vn 0.9969509 0.004282419 0.07791413
vn 0.9969509 0.004282419 0.07791413
vn 0.9969509 0.004282419 0.07791414
vn 0.9969509 0.004282419 0.07791413
vn 0.9969509 0.004282419 0.07791413
vn 0.9969509 0.004282419 0.07791414
vn 0.9969509 0.004282419 0.07791413
vn 0.9969509 0.004282419 0.07791413
vn 0 -0.9006047 -0.4346392
vn 0 -0.9006047 -0.4346392
vn 0 -0.9006047 -0.4346392
vn 0 -0.9006047 -0.4346392
vn 0 -0.9006047 -0.4346392
vn 0 -0.9006047 -0.4346392
vn 0 -0.9006047 -0.4346392
vn 0 -0.9006047 -0.4346392
vn 0 0.9006047 -0.4346392
vn 0 0.9006047 -0.4346392
vn 0 0.9006047 -0.4346392
vn 0 0.9006047 -0.4346392
vn 0 0.9006047 -0.4346392
vn 0 0.9006047 -0.4346392
vn 0 0.9006047 -0.4346392
vn 0 0.9006047 -0.4346392
vn -0.9973884 0.00299793 0.07216195
vn -0.9973884 0.002997931 0.07216196
vn -0.9973884 0.00299793 0.07216195
vn -0.9973884 0.00299793 0.07216195
vn -0.9973884 0.00299793 0.07216195
vn -0.9973884 0.00299793 0.07216195
vn -0.9973884 0.00299793 0.07216195
vn -0.9973884 0.00299793 0.07216195
g Hedra001_0
f 3/3/3 2/2/2 1/1/1
f 6/6/6 5/5/5 4/4/4
f 9/9/9 8/8/8 7/7/7
f 12/12/12 11/11/11 10/10/10
f 15/15/15 14/14/14 13/13/13
f 18/18/18 17/17/17 16/16/16
f 21/21/21 20/20/20 19/19/19
f 24/24/24 23/23/23 22/22/22
f 27/27/27 26/26/26 25/25/25
f 25/25/25 28/28/28 27/27/27
f 25/25/25 29/29/29 28/28/28
f 29/29/29 30/30/30 28/28/28
f 29/29/29 31/31/31 30/30/30
f 31/31/31 32/32/32 30/30/30
f 35/35/35 34/34/34 33/33/33
f 33/33/33 36/36/36 35/35/35
f 36/36/36 37/37/37 35/35/35
f 37/37/37 38/38/38 35/35/35
f 37/37/37 39/39/39 38/38/38
f 39/39/39 40/40/40 38/38/38
f 43/43/43 42/42/42 41/41/41
f 41/41/41 44/44/44 43/43/43
f 41/41/41 45/45/45 44/44/44
f 45/45/45 46/46/46 44/44/44
f 45/45/45 47/47/47 46/46/46
f 45/45/45 48/48/48 47/47/47
f 51/51/51 50/50/50 49/49/49
f 49/49/49 52/52/52 51/51/51
f 49/49/49 53/53/53 52/52/52
f 53/53/53 54/54/54 52/52/52
f 53/53/53 55/55/55 54/54/54
f 55/55/55 56/56/56 54/54/54
f 59/59/59 58/58/58 57/57/57
f 57/57/57 60/60/60 59/59/59
f 57/57/57 61/61/61 60/60/60
f 61/61/61 62/62/62 60/60/60
f 61/61/61 63/63/63 62/62/62
f 63/63/63 64/64/64 62/62/62
f 67/67/67 66/66/66 65/65/65
f 65/65/65 68/68/68 67/67/67
f 65/65/65 69/69/69 68/68/68
f 65/65/65 70/70/70 69/69/69
f 70/70/70 71/71/71 69/69/69
f 70/70/70 72/72/72 71/71/71
