g instance_0.007
v -0.1357979 0.1430171 -0.1476021
v -0.1451299 0.1336854 -0.1476021
v -0.1383143 0.1408685 0.0851992
v -0.1383143 0.1408685 0.0851992
v -0.1451299 0.1336854 -0.1476021
v -0.1357979 0.1430171 -0.1476021
v -0.1629436 0.1158714 0.08872193
v -0.1680368 0.1107782 0.0851992
v -0.1383143 0.1408685 0.0851992
v -0.1725012 0.1610566 -0.1476021
v -0.1451299 0.1336854 -0.1476021
v -0.1357979 0.1430171 0.08872193
v -0.1383143 0.1408685 0.0851992
v -0.1629436 0.1158714 0.08872193
v -0.1629436 0.1158714 0.08872193
v -0.1383143 0.1408685 0.0851992
v -0.1357979 0.1430171 0.08872193
v 0.03235232 -0.08610562 0.09883266
v 0.05649968 -0.1102525 0.09883266
v 0.05685172 -0.1141102 0.09316897
v -0.1725012 0.1610566 -0.1476021
v -0.1383143 0.1408685 0.0851992
v -0.1451299 0.1336854 -0.1476021
v -0.1656856 0.1682398 0.08523427
v 0.05649968 -0.1102525 0.09883266
v 0.03235232 -0.08610562 0.09883266
v 0.05685172 -0.1141102 0.09316897
v 0.02838413 -0.08564276 0.09373514
v -0.1357979 0.1430171 0.08872193
v -0.1383143 0.1408685 0.0851992
v -0.1357979 0.1430171 -0.1476021
v -0.1031099 0.1103295 0.09193783
v -0.1357979 0.1430171 0.08872193
v -0.1004426 0.107662 0.09140164
v -0.08763415 0.09485362 0.09140164
v -0.08763415 0.09485362 -0.1476021
v -0.1357979 0.1430171 -0.1476021
v -0.1680368 0.1107782 0.0851992
v -0.1954082 0.1381495 0.08523427
v -0.1656856 0.1682398 0.08523427
v -0.1383143 0.1408685 0.0851992
v -0.1004426 0.107662 0.09140164
v -0.1326816 0.07542287 0.09140164
v -0.1302556 0.0831835 0.09193783
v -0.1031099 0.1103295 0.09193783
v -0.07116936 0.1113185 0.09259667
v -0.1198734 0.06261447 0.09259667
v -0.1198734 0.06261447 0.09140164
v -0.08763415 0.09485362 0.09140164
v -0.08763415 0.09485362 -0.1476021
v -0.07397508 0.1085128 -0.1718888
v -0.07116936 0.1113185 -0.1476021
v -0.09948986 0.08299797 -0.1718888
v -0.09948986 0.08299797 -0.1476021
v -0.1725012 0.1610566 -0.1476021
v -0.1954082 0.1381495 0.08523427
v -0.1954082 0.1381495 -0.1476021
v -0.1656856 0.1682398 0.08523427
v -0.07116936 0.1113185 0.09259667
v -0.06712979 0.1072788 0.09373514
v -0.1158335 0.05857478 0.09373514
v -0.1198734 0.06261447 0.09259667
v -0.03282044 0.06041454 0.09373514
v 0.0708105 -0.04321621 0.09373514
v 0.02838413 -0.08564276 0.09373514
v -0.06712979 0.1072788 0.09373514
v -0.02654312 0.06669211 0.09373514
v -0.1158335 0.05857478 0.09373514
v 0.07125276 -0.04720506 0.09883266
v 0.02838413 -0.08564276 0.09373514
v 0.03235232 -0.08610562 0.09883266
v 0.0708105 -0.04321621 0.09373514
v 0.09927809 -0.07168381 0.09316897
v 0.09927809 -0.07168381 0.09373514
v -0.03282044 0.06041454 0.09373514
v 0.0930993 -0.06550521 0.09316897
v 0.04890046 -0.02130623 0.04239794
v 0.04890046 -0.02130623 -0.1476021
v 0.02061629 0.006977806 0.04239794
v 0.0930993 -0.06550521 -0.1687242
v 0.04890046 -0.02130623 -0.1687242
v 0.02061629 0.006977806 -0.1476021
v -0.03484054 0.06243464 -0.1476021
v -0.05827378 0.0390014 -0.1718888
v -0.002816944 -0.01645543 -0.2013475
v -0.05827378 0.0390014 -0.2013475
v -0.002816944 -0.01645543 -0.1476021
v -0.05827378 0.0390014 -0.1476021
v 0.07125276 -0.04720506 0.09883266
v 0.09539976 -0.07135217 0.09883266
v 0.05649968 -0.1102525 0.09883266
v 0.03235232 -0.08610562 0.09883266
v 0.05007471 -0.02013198 -0.2013475
v 0.02546722 -0.04473972 -0.2013475
v 0.02546722 -0.04473972 -0.1476021
v 0.04890046 -0.02130623 -0.1476021
v 0.04890046 -0.02130623 0.04239794
v 0.05425889 -0.01594768 0.04239794
v 0.0930993 -0.06550521 -0.1687242
v 0.100064 -0.05854055 0.09316897
v 0.100064 -0.05854055 -0.1687242
v 0.0930993 -0.06550521 0.09316897
v -0.05827378 0.0390014 -0.1718888
v -0.08429024 0.01298476 -0.1718888
v -0.08429024 0.01298476 -0.2013475
v -0.05827378 0.0390014 -0.2013475
v -0.03136863 0.06590655 -0.1718888
v -0.05827378 0.0390014 -0.1476021
v -0.03484054 0.06243464 -0.1476021
v -0.02856291 0.0687122 -0.1476021
v -0.02654312 0.06669211 0.09373514
v -0.03282044 0.06041454 0.09373514
v 0.1707745 -0.1292513 0.09041358
v 0.1472043 -0.1056809 0.09041358
v 0.1707745 -0.1292513 0.01800631
v 0.100064 -0.05854055 0.09316897
v 0.1337444 -0.09222085 0.09316897
v 0.1707745 -0.1292513 -0.1687242
v 0.100064 -0.05854055 -0.1687242
v 0.1460791 -0.1539467 -0.1687242
v 0.1213837 -0.178642 -0.1687242
v 0.1213837 -0.178642 0.09041358
v 0.1460791 -0.1539467 0.01800631
v 0.1707745 -0.1292513 0.09041358
v 0.1707745 -0.1292513 0.01800631
v 0.1707745 -0.1292513 -0.1687242
v 0.1732058 -0.1374358 -0.1687242
v 0.1732058 -0.1374358 0.01800631
v 0.1707745 -0.1292513 0.01800631
v 0.1513872 -0.1592548 0.01800631
v 0.1513872 -0.1592548 -0.1687242
v 0.1460791 -0.1539467 -0.1687242
v 0.1460791 -0.1539467 0.01800631
v -0.1302556 0.0831835 0.09193783
v -0.1629436 0.1158714 0.08872193
v -0.1357979 0.1430171 0.08872193
v -0.1031099 0.1103295 0.09193783
v -0.1198734 0.06261447 0.09140164
v -0.1326816 0.07542287 0.09140164
v -0.1004426 0.107662 0.09140164
v -0.08763415 0.09485362 0.09140164
v -0.1302556 0.0831835 0.09193783
v -0.1629436 0.1158714 0.08872193
v -0.1680368 0.1107782 0.0851992
v -0.1302556 0.0831835 0.09193783
v -0.1680368 0.1107782 0.0851992
v -0.1326816 0.07542287 0.09140164
v -0.07116936 0.1113185 0.09259667
v -0.07116936 0.1113185 -0.1476021
v -0.02856291 0.0687122 -0.1476021
v -0.02654312 0.06669211 0.09373514
v -0.06712979 0.1072788 0.09373514
v -0.07116936 0.1113185 -0.1476021
v -0.07397508 0.1085128 -0.1718888
v -0.03136863 0.06590655 -0.1718888
v -0.02856291 0.0687122 -0.1476021
v 0.07125276 -0.04720506 0.09883266
v 0.0708105 -0.04321621 0.09373514
v 0.09927809 -0.07168381 0.09373514
v 0.09539976 -0.07135217 0.09883266
v 0.04890046 -0.02130623 0.04239794
v 0.02061629 0.006977806 0.04239794
v 0.02597472 0.01233661 0.04239794
v 0.05425889 -0.01594768 0.04239794
v 0.02597472 0.01233661 0.04239794
v 0.02061629 0.006977806 -0.1476021
v 0.02061629 0.006977806 0.04239794
v 0.02179054 0.00815206 -0.2013475
v -0.002816944 -0.01645543 -0.2013475
v -0.002816944 -0.01645543 -0.1476021
v 0.09927809 -0.07168381 0.09316897
v 0.05685172 -0.1141102 0.09316897
v 0.05685172 -0.1141102 0.09373514
v 0.09927809 -0.07168381 0.09373514
v 0.08435355 -0.1416119 0.09316897
v 0.05685172 -0.1141102 0.09316897
v 0.09927809 -0.07168381 0.09316897
v 0.1337444 -0.09222085 0.09316897
v 0.100064 -0.05854055 0.09316897
v 0.0930993 -0.06550521 0.09316897
v 0.09927809 -0.07168381 0.09373514
v 0.05685172 -0.1141102 0.09373514
v 0.05649968 -0.1102525 0.09883266
v 0.09539976 -0.07135217 0.09883266
v 0.02597472 0.01233661 0.04239794
v 0.02179054 0.00815206 -0.2013475
v 0.05007471 -0.02013198 -0.2013475
v 0.05425889 -0.01594768 0.04239794
v 0.05649968 -0.1102525 0.09883266
v 0.05685172 -0.1141102 0.09316897
v 0.05685172 -0.1141102 0.09373514
v 0.09781318 -0.1550718 0.09041358
v 0.08435355 -0.1416119 0.09316897
v 0.1337444 -0.09222085 0.09316897
v 0.1472043 -0.1056809 0.09041358
v 0.1213837 -0.178642 0.09041358
v 0.09781318 -0.1550718 0.09041358
v 0.1472043 -0.1056809 0.09041358
v 0.1707745 -0.1292513 0.09041358
v 0.1513872 -0.1592548 0.01800631
v 0.1460791 -0.1539467 0.01800631
v 0.1707745 -0.1292513 0.01800631
v 0.1732058 -0.1374358 0.01800631
v 0.1732058 -0.1374358 -0.1687242
v 0.1513872 -0.1592548 -0.1687242
v 0.1513872 -0.1592548 0.01800631
v 0.1732058 -0.1374358 0.01800631
v 0.1707745 -0.1292513 -0.1687242
v 0.1460791 -0.1539467 -0.1687242
v 0.1513872 -0.1592548 -0.1687242
v 0.1732058 -0.1374358 -0.1687242
vn 0.7070993 -0.7071133 0.001116967
vn 0.7070993 -0.7071133 0.001116967
vn 0.7070993 -0.7071133 0.001116967
vn -0.7070993 0.7071133 -0.001116967
vn -0.7070993 0.7071133 -0.001116967
vn -0.7070993 0.7071133 -0.001116967
vn -0.7113845 0.7026904 0.01258232
vn -0.7113845 0.7026904 0.01258232
vn 0.7064676 0.7064694 -0.04248133
vn 0.7064676 0.7064694 -0.04248133
vn 0.7064676 0.7064694 -0.04248133
vn 0.7051899 -0.7051858 -0.07362127
vn 0.7051899 -0.7051858 -0.07362127
vn 0.7051899 -0.7051858 -0.07362127
vn -0.7051899 0.7051858 0.07362127
vn -0.7051899 0.7051858 0.07362127
vn -0.7051899 0.7051858 0.07362127
vn -0.6477674 -0.647783 0.4009671
vn -0.6477674 -0.647783 0.4009671
vn -0.6477674 -0.647783 0.4009671
vn -0.7064676 -0.7064694 0.04248131
vn -0.7064676 -0.7064694 0.04248131
vn -0.7064676 -0.7064694 0.04248131
vn -0.706441 -0.7064964 0.04247494
vn 0.6477675 0.6477828 -0.4009673
vn 0.6326267 0.6412633 -0.4342405
vn 0.6326267 0.6412633 -0.4342405
vn 0.6326267 0.6412633 -0.4342405
vn -0.6493396 0.7604986 0
vn -0.6493396 0.7604986 0
vn -0.6493396 0.7604986 0
vn 0.7071106 0.7071028 -0.000247993
vn 0.7071106 0.7071028 -0.000247993
vn 0.7071106 0.7071028 -0.000247993
vn 0.7071049 0.7071086 0
vn 0.7071049 0.7071087 0
vn 0.7071049 0.7071087 0
vn 0.0006444987 -0.0006366347 0.9999996
vn 0.0006444987 -0.0006366347 0.9999996
vn 0.0006444987 -0.0006366347 0.9999996
vn 0.0006444993 -0.0006366344 0.9999996
vn 0.09951001 -0.09951022 0.9900482
vn 0.09951001 -0.09951022 0.9900482
vn 0.09951001 -0.09951022 0.9900482
vn 0.0995083 -0.09950732 0.9900486
vn -0.7071091 0.7071044 0
vn -0.7071091 0.7071044 0
vn -0.7071091 0.7071044 0
vn -0.7071058 0.7071077 -5.601087E-05
vn -0.7071084 0.7071052 0
vn -0.7071096 0.7071039 1.557268E-07
vn -0.7070976 0.7071159 0
vn -0.7071053 0.7071081 0
vn -0.7071053 0.7071081 0
vn -0.7114403 0.702746 -0.0008549155
vn -0.7114403 0.702746 -0.0008549155
vn -0.7071089 0.7071047 0
vn -0.7114403 0.702746 -0.0008549155
vn -0.1381905 0.1381899 0.9807176
vn -0.1381943 0.1381948 0.9807163
vn -0.1381905 0.1381899 0.9807176
vn -0.1381905 0.1381899 0.9807176
vn 0 0 1
vn 0 0 1
vn 0 0 1
vn 0 0 1
vn 0 0 1
vn 0 0 1
vn 0.6024095 -0.6024083 -0.5236479
vn 0.6024095 -0.6024083 -0.5236479
vn 0.6024095 -0.6024083 -0.5236479
vn 0.6024085 -0.602406 -0.5236516
vn 0.7071598 0.707037 -0.004857291
vn 0.7071115 0.707102 0
vn 0.7071068 0.7071068 0
vn 0.7071068 0.7071068 1.717894E-06
vn 0.7071049 0.7071086 -3.436705E-06
vn 0.7071077 0.7071059 0
vn 0.7071068 0.7071068 0
vn 0.7071077 0.7071059 0
vn 0.7071077 0.7071059 0
vn 0.7071068 0.7071068 0
vn 0.7071068 0.7071068 0
vn -0.7071065 -0.707107 0
vn -0.7071065 -0.707107 0
vn -0.7071065 -0.707107 0
vn -0.7071066 -0.7071068 0
vn -0.707107 -0.7071065 0
vn 0 0 1
vn 4.061102E-07 0 1
vn 0 0 1
vn 0 0 1
vn 0.7071102 -0.7071033 0
vn 0.7071102 -0.7071033 0
vn 0.7071102 -0.7071033 0
vn 0.7071107 -0.7071028 2.309076E-07
vn 0.7071068 -0.7071066 0
vn 0.7071146 -0.7070988 0
vn 0.7071064 -0.7071072 0
vn 0.7071064 -0.7071072 0
vn 0.7071069 -0.7071066 0
vn 0.7071064 -0.7071072 0
vn -0.7071066 0.7071069 0
vn -0.7071094 0.7071041 0
vn -0.7071094 0.7071041 0
vn -0.707109 0.7071044 0
vn -0.7071066 0.7071069 0
vn -0.7071066 0.7071069 0
vn -0.7070711 0.7070433 0.01183675
vn -0.7070534 0.7070611 0.01183584
vn -0.7070711 0.7070433 0.01183675
vn -0.7070711 0.7070433 0.01183675
vn 0.7071103 0.7071032 0
vn 0.7071064 0.7071072 -2.900118E-06
vn 0.7071077 0.7071059 0
vn 0.7071077 0.7071058 0
vn 0.7071068 0.7071068 -2.906591E-05
vn 0.7071077 0.7071058 0
vn 0.7071077 0.7071058 0
vn 0.7071049 -0.7071086 0
vn 0.7071049 -0.7071086 0
vn 0.7071049 -0.7071086 0
vn 0.7071054 -0.7071081 0
vn 0.7071063 -0.7071072 1.055955E-06
vn 0.7071076 -0.7071059 0
vn 0.9585987 0.2847607 0
vn 0.9585987 0.2847607 0
vn 0.9585987 0.2847607 0
vn 0.9585997 0.2847572 0
vn -0.7071043 -0.7071092 0
vn -0.7071043 -0.7071092 0
vn -0.7071043 -0.7071092 0
vn -0.7071065 -0.707107 0
vn -0.04907222 0.04907222 0.997589
vn -0.04907222 0.04907222 0.997589
vn -0.04907222 0.04907222 0.997589
vn -0.04907257 0.04907215 0.997589
vn 0 0 1
vn 0 0 1
vn 0 0 1
vn 0 0 1
vn 0.3541603 0.2659563 -0.89657
vn 0.3541603 0.2659563 -0.89657
vn 0.3541603 0.2659563 -0.89657
vn 0.1831271 0.01067143 -0.9830313
vn 0.1831271 0.01067143 -0.9830313
vn 0.1831271 0.01067143 -0.9830313
vn 0.7071052 0.7071083 0
vn 0.7071052 0.7071083 0
vn 0.7071052 0.7071083 0
vn 0.7071077 0.7071058 8.517291E-07
vn 0.7071035 0.70711 6.421487E-05
vn 0.6978528 0.6978566 -0.1612372
vn 0.6978528 0.6978566 -0.1612372
vn 0.6978528 0.6978566 -0.1612372
vn 0.6978533 0.6978562 -0.1612371
vn 0.6344808 0.634481 0.4414386
vn 0.6344808 0.634481 0.4414386
vn 0.6344808 0.634481 0.4414386
vn 0.6344781 0.6344756 0.44145
vn 3.146116E-07 0 1
vn 3.146116E-07 0 1
vn 3.146116E-07 0 1
vn -3.146176E-07 0 1
vn 0.7071311 -0.7070824 0
vn 0.7071311 -0.7070824 0
vn 0.7071311 -0.7070824 0
vn 0.7071207 -0.7070928 6.01969E-07
vn 0.7071069 -0.7071066 0
vn 0.7071069 -0.7071066 0
vn 0.7070946 -0.7071189 0
vn 0.7070946 -0.7071189 0
vn 0.7070946 -0.7071189 0
vn 0.7071171 -0.7070964 0
vn 3.269364E-07 0 1
vn 3.269364E-07 0 1
vn 3.269364E-07 0 1
vn 0 0 1
vn -8.131271E-07 0 1
vn 1.108086E-06 0 1
vn 0.6106162 -0.6106162 0.5042773
vn 0.6106162 -0.6106162 0.5042773
vn 0.6106162 -0.6106162 0.5042773
vn 0.610611 -0.6106076 0.504294
vn 0.706897 0.7068999 -0.02427057
vn 0.706897 0.7068999 -0.02427057
vn 0.706897 0.7068999 -0.02427057
vn 0.7069 0.706897 -0.02426985
vn 0.9958627 0.09086998 0
vn 0.9958627 0.09086998 0
vn 0.9958627 0.09086998 0
vn 0.1013009 -0.1013006 0.9896849
vn 0.1013009 -0.1013006 0.9896849
vn 0.1013009 -0.1013006 0.9896849
vn 0.1012991 -0.1012994 0.9896853
vn 3.27677E-07 0 1
vn 3.27677E-07 0 1
vn 3.27677E-07 0 1
vn 0 0 1
vn 3.637612E-07 0 1
vn 3.637612E-07 0 1
vn 3.637612E-07 0 1
vn -2.058671E-07 0 1
vn 0.7071133 -0.7071003 0
vn 0.7071133 -0.7071003 0
vn 0.7071133 -0.7071003 0
vn 0.7071127 -0.7071008 0
vn 0 0 -1
vn 0 0 -1
vn 0 0 -1
vn 2.470405E-06 0 -1
g instance_0.007_0
f 3/3/3 2/2/2 1/1/1
f 6/6/6 5/5/5 4/4/4
f 8/8/8 7/7/7 4/4/4
f 4/4/4 8/8/8 7/7/7
f 11/11/11 10/10/10 9/9/9
f 14/14/14 13/13/13 12/12/12
f 17/17/17 16/16/16 15/15/15
f 20/20/20 19/19/19 18/18/18
f 23/23/23 22/22/22 21/21/21
f 21/21/21 22/22/22 24/24/24
f 22/22/22 24/24/24 21/21/21
f 27/27/27 26/26/26 25/25/25
f 27/27/27 28/28/28 26/26/26
f 28/28/28 26/26/26 27/27/27
f 31/31/31 30/30/30 29/29/29
f 29/29/29 31/31/31 30/30/30
f 34/34/34 33/33/33 32/32/32
f 32/32/32 34/34/34 33/33/33
f 33/33/33 34/34/34 35/35/35
f 35/35/35 33/33/33 34/34/34
f 33/33/33 35/35/35 36/36/36
f 36/36/36 33/33/33 35/35/35
f 36/36/36 37/37/37 33/33/33
f 33/33/33 36/36/36 37/37/37
f 40/40/40 39/39/39 38/38/38
f 38/38/38 40/40/40 39/39/39
f 38/38/38 41/41/41 40/40/40
f 40/40/40 38/38/38 41/41/41
f 44/44/44 43/43/43 42/42/42
f 42/42/42 44/44/44 43/43/43
f 42/42/42 45/45/45 44/44/44
f 44/44/44 42/42/42 45/45/45
f 48/48/48 47/47/47 46/46/46
f 46/46/46 48/48/48 47/47/47
f 46/46/46 49/49/49 48/48/48
f 48/48/48 46/46/46 49/49/49
f 46/46/46 50/50/50 49/49/49
f 49/49/49 46/46/46 50/50/50
f 46/46/46 51/51/51 50/50/50
f 50/50/50 46/46/46 51/51/51
f 46/46/46 52/52/52 51/51/51
f 51/51/51 46/46/46 52/52/52
f 50/50/50 51/51/51 53/53/53
f 53/53/53 50/50/50 51/51/51
f 53/53/53 54/54/54 50/50/50
f 50/50/50 53/53/53 54/54/54
f 57/57/57 56/56/56 55/55/55
f 55/55/55 57/57/57 56/56/56
f 55/55/55 56/56/56 58/58/58
f 58/58/58 55/55/55 56/56/56
f 61/61/61 60/60/60 59/59/59
f 59/59/59 61/61/61 60/60/60
f 59/59/59 62/62/62 61/61/61
f 61/61/61 59/59/59 62/62/62
f 65/65/65 64/64/64 63/63/63
f 63/63/63 65/65/65 64/64/64
f 65/65/65 63/63/63 66/66/66
f 66/66/66 65/65/65 63/63/63
f 66/66/66 63/63/63 67/67/67
f 67/67/67 66/66/66 63/63/63
f 66/66/66 68/68/68 65/65/65
f 65/65/65 66/66/66 68/68/68
f 71/71/71 70/70/70 69/69/69
f 70/70/70 69/69/69 71/71/71
f 72/72/72 69/69/69 70/70/70
f 69/69/69 70/70/70 72/72/72
f 75/75/75 74/74/74 73/73/73
f 73/73/73 75/75/75 74/74/74
f 75/75/75 73/73/73 76/76/76
f 76/76/76 75/75/75 73/73/73
f 75/75/75 76/76/76 77/77/77
f 77/77/77 75/75/75 76/76/76
f 78/78/78 77/77/77 76/76/76
f 76/76/76 78/78/78 77/77/77
f 75/75/75 77/77/77 79/79/79
f 79/79/79 75/75/75 77/77/77
f 78/78/78 76/76/76 80/80/80
f 80/80/80 78/78/78 76/76/76
f 80/80/80 81/81/81 78/78/78
f 78/78/78 80/80/80 81/81/81
f 75/75/75 79/79/79 82/82/82
f 82/82/82 75/75/75 79/79/79
f 82/82/82 83/83/83 75/75/75
f 75/75/75 82/82/82 83/83/83
f 86/86/86 85/85/85 84/84/84
f 85/85/85 84/84/84 86/86/86
f 87/87/87 84/84/84 85/85/85
f 84/84/84 85/85/85 87/87/87
f 88/88/88 84/84/84 87/87/87
f 84/84/84 87/87/87 88/88/88
f 91/91/91 90/90/90 89/89/89
f 89/89/89 91/91/91 90/90/90
f 89/89/89 92/92/92 91/91/91
f 91/91/91 89/89/89 92/92/92
f 95/95/95 94/94/94 93/93/93
f 93/93/93 95/95/95 94/94/94
f 93/93/93 96/96/96 95/95/95
f 95/95/95 93/93/93 96/96/96
f 93/93/93 97/97/97 96/96/96
f 96/96/96 93/93/93 97/97/97
f 93/93/93 98/98/98 97/97/97
f 97/97/97 93/93/93 98/98/98
f 101/101/101 100/100/100 99/99/99
f 100/100/100 99/99/99 101/101/101
f 102/102/102 99/99/99 100/100/100
f 99/99/99 100/100/100 102/102/102
f 105/105/105 104/104/104 103/103/103
f 103/103/103 105/105/105 104/104/104
f 103/103/103 106/106/106 105/105/105
f 105/105/105 103/103/103 106/106/106
f 103/103/103 108/108/108 107/107/107
f 108/108/108 107/107/107 103/103/103
f 109/109/109 107/107/107 108/108/108
f 107/107/107 108/108/108 109/109/109
f 110/110/110 107/107/107 109/109/109
f 107/107/107 109/109/109 110/110/110
f 110/110/110 109/109/109 111/111/111
f 109/109/109 111/111/111 110/110/110
f 112/112/112 111/111/111 109/109/109
f 111/111/111 109/109/109 112/112/112
f 115/115/115 114/114/114 113/113/113
f 113/113/113 115/115/115 114/114/114
f 116/116/116 114/114/114 115/115/115
f 115/115/115 116/116/116 114/114/114
f 116/116/116 117/117/117 114/114/114
f 114/114/114 116/116/116 117/117/117
f 116/116/116 115/115/115 118/118/118
f 118/118/118 116/116/116 115/115/115
f 118/118/118 119/119/119 116/116/116
f 116/116/116 118/118/118 119/119/119
f 122/122/122 121/121/121 120/120/120
f 120/120/120 122/122/122 121/121/121
f 120/120/120 123/123/123 122/122/122
f 122/122/122 120/120/120 123/123/123
f 123/123/123 124/124/124 122/122/122
f 122/122/122 123/123/123 124/124/124
f 123/123/123 125/125/125 124/124/124
f 124/124/124 123/123/123 125/125/125
f 128/128/128 127/127/127 126/126/126
f 126/126/126 128/128/128 127/127/127
f 126/126/126 129/129/129 128/128/128
f 128/128/128 126/126/126 129/129/129
f 132/132/132 131/131/131 130/130/130
f 130/130/130 132/132/132 131/131/131
f 130/130/130 133/133/133 132/132/132
f 132/132/132 130/130/130 133/133/133
f 136/136/136 135/135/135 134/134/134
f 134/134/134 136/136/136 135/135/135
f 134/134/134 137/137/137 136/136/136
f 136/136/136 134/134/134 137/137/137
f 140/140/140 139/139/139 138/138/138
f 138/138/138 140/140/140 139/139/139
f 138/138/138 141/141/141 140/140/140
f 140/140/140 138/138/138 141/141/141
f 144/144/144 143/143/143 142/142/142
f 143/143/143 142/142/142 144/144/144
f 147/147/147 146/146/146 145/145/145
f 146/146/146 145/145/145 147/147/147
f 150/150/150 149/149/149 148/148/148
f 148/148/148 150/150/150 149/149/149
f 148/148/148 151/151/151 150/150/150
f 150/150/150 148/148/148 151/151/151
f 148/148/148 152/152/152 151/151/151
f 151/151/151 148/148/148 152/152/152
f 155/155/155 154/154/154 153/153/153
f 153/153/153 155/155/155 154/154/154
f 153/153/153 156/156/156 155/155/155
f 155/155/155 153/153/153 156/156/156
f 159/159/159 158/158/158 157/157/157
f 157/157/157 159/159/159 158/158/158
f 157/157/157 160/160/160 159/159/159
f 159/159/159 157/157/157 160/160/160
f 163/163/163 162/162/162 161/161/161
f 161/161/161 163/163/163 162/162/162
f 161/161/161 164/164/164 163/163/163
f 163/163/163 161/161/161 164/164/164
f 167/167/167 166/166/166 165/165/165
f 166/166/166 165/165/165 167/167/167
f 168/168/168 165/165/165 166/166/166
f 165/165/165 166/166/166 168/168/168
f 168/168/168 166/166/166 169/169/169
f 166/166/166 169/169/169 168/168/168
f 170/170/170 169/169/169 166/166/166
f 169/169/169 166/166/166 170/170/170
f 173/173/173 172/172/172 171/171/171
f 171/171/171 173/173/173 172/172/172
f 171/171/171 174/174/174 173/173/173
f 173/173/173 171/171/171 174/174/174
f 177/177/177 176/176/176 175/175/175
f 175/175/175 177/177/177 176/176/176
f 175/175/175 178/178/178 177/177/177
f 177/177/177 175/175/175 178/178/178
f 178/178/178 179/179/179 177/177/177
f 177/177/177 178/178/178 179/179/179
f 180/180/180 177/177/177 179/179/179
f 179/179/179 180/180/180 177/177/177
f 183/183/183 182/182/182 181/181/181
f 181/181/181 183/183/183 182/182/182
f 181/181/181 184/184/184 183/183/183
f 183/183/183 181/181/181 184/184/184
f 187/187/187 186/186/186 185/185/185
f 185/185/185 187/187/187 186/186/186
f 185/185/185 188/188/188 187/187/187
f 187/187/187 185/185/185 188/188/188
f 191/191/191 190/190/190 189/189/189
f 190/190/190 189/189/189 191/191/191
f 194/194/194 193/193/193 192/192/192
f 192/192/192 194/194/194 193/193/193
f 192/192/192 195/195/195 194/194/194
f 194/194/194 192/192/192 195/195/195
f 198/198/198 197/197/197 196/196/196
f 196/196/196 198/198/198 197/197/197
f 196/196/196 199/199/199 198/198/198
f 198/198/198 196/196/196 199/199/199
f 202/202/202 201/201/201 200/200/200
f 200/200/200 202/202/202 201/201/201
f 200/200/200 203/203/203 202/202/202
f 202/202/202 200/200/200 203/203/203
f 206/206/206 205/205/205 204/204/204
f 204/204/204 206/206/206 205/205/205
f 204/204/204 207/207/207 206/206/206
f 206/206/206 204/204/204 207/207/207
f 210/210/210 209/209/209 208/208/208
f 208/208/208 210/210/210 209/209/209
f 208/208/208 211/211/211 210/210/210
f 210/210/210 208/208/208 211/211/211
