g instance_0.330
v -0.03750008 0.155 0.075
v 0.1575 -0.04 0.075
v 0.0425 -0.155 0.075
v -0.0575 -0.055 0.075
v -0.1475 0.045 0.075
v -0.1175 0.005 0.075
v -0.1475 0.035 0.075
v -0.0975 -0.095 0.075
v -0.1575 -0.035 0.075
v 0.0425 -0.155 -0.07500002
v 0.1575 -0.04 -0.07500002
v -0.03750008 0.155 -0.07500002
v -0.0575 -0.055 -0.07500002
v -0.1475 0.045 -0.07500002
v -0.1175 0.005 -0.07500002
v -0.1475 0.035 -0.07500002
v -0.0975 -0.095 -0.07500002
v -0.1575 -0.035 -0.07500002
v 0.1575 -0.04 0.075
v -0.03750008 0.155 0.075
v -0.03750008 0.155 -0.07500002
v 0.1575 -0.04 -0.07500002
v -0.0975 -0.095 0.075
v -0.0575 -0.055 0.075
v -0.0575 -0.055 -0.07500002
v -0.0975 -0.095 -0.07500002
v -0.1475 0.035 0.075
v -0.1175 0.005 0.075
v -0.1175 0.005 -0.07500002
v -0.1475 0.035 -0.07500002
v -0.03750008 0.155 0.075
v -0.1475 0.045 0.075
v -0.1475 0.045 -0.07500002
v -0.03750008 0.155 -0.07500002
v -0.0575 -0.055 0.075
v 0.0425 -0.155 0.075
v 0.0425 -0.155 -0.07500002
v -0.0575 -0.055 -0.07500002
v -0.1475 0.045 0.075
v -0.1475 0.035 0.075
v -0.1475 0.035 -0.07500002
v -0.1475 0.045 -0.07500002
v 0.0425 -0.155 0.075
v 0.1575 -0.04 0.075
v 0.1575 -0.04 -0.07500002
v 0.0425 -0.155 -0.07500002
v -0.1575 -0.035 0.075
v -0.0975 -0.095 0.075
v -0.0975 -0.095 -0.07500002
v -0.1575 -0.035 -0.07500002
v -0.1175 0.005 0.075
v -0.1575 -0.035 0.075
v -0.1575 -0.035 -0.07500002
v -0.1175 0.005 -0.07500002
vn 0 0 1
vn 0 0 1
vn 0 0 1
vn 0 0 1
vn 0 0 1
vn 0 0 1
vn 0 0 1
vn 0 0 1
vn 0 0 1
vn 0 0 -1
vn 0 0 -1
vn 0 0 -1
vn 0 0 -1
vn 0 0 -1
vn 0 0 -1
vn 0 0 -1
vn 0 0 -1
vn 0 0 -1
vn 0.7071066 0.7071069 0
vn 0.7071066 0.7071069 0
vn 0.7071066 0.7071069 0
vn 0.7071066 0.7071069 0
vn 0.7071068 -0.7071068 0
vn 0.7071068 -0.7071068 0
vn 0.7071068 -0.7071068 0
vn 0.7071068 -0.7071068 0
vn -0.7071066 -0.7071068 0
vn -0.7071066 -0.7071068 0
vn -0.7071066 -0.7071068 0
vn -0.7071066 -0.7071068 0
vn -0.707107 0.7071065 0
vn -0.707107 0.7071065 0
vn -0.707107 0.7071065 0
vn -0.707107 0.7071065 0
vn -0.7071068 -0.7071068 0
vn -0.7071068 -0.7071068 0
vn -0.7071068 -0.7071068 0
vn -0.7071068 -0.7071068 0
vn -1 0 0
vn -1 0 0
vn -1 0 0
vn -1 0 0
vn 0.7071068 -0.7071068 0
vn 0.7071068 -0.7071068 0
vn 0.7071068 -0.7071068 0
vn 0.7071068 -0.7071068 0
vn -0.7071068 -0.7071068 0
vn -0.7071068 -0.7071068 0
vn -0.7071068 -0.7071068 0
vn -0.7071068 -0.7071068 0
vn -0.7071066 0.7071068 0
vn -0.7071066 0.7071068 0
vn -0.7071066 0.7071068 0
vn -0.7071066 0.7071068 0
g instance_0.330_0
f 3/3/3 2/2/2 1/1/1
f 1/1/1 4/4/4 3/3/3
f 1/1/1 5/5/5 4/4/4
f 5/5/5 6/6/6 4/4/4
f 5/5/5 7/7/7 6/6/6
f 4/4/4 6/6/6 8/8/8
f 6/6/6 9/9/9 8/8/8
f 12/12/12 11/11/11 10/10/10
f 10/10/10 13/13/13 12/12/12
f 13/13/13 14/14/14 12/12/12
f 13/13/13 15/15/15 14/14/14
f 15/15/15 16/16/16 14/14/14
f 15/15/15 13/13/13 17/17/17
f 18/18/18 15/15/15 17/17/17
f 21/21/21 20/20/20 19/19/19
f 22/22/22 21/21/21 19/19/19
f 25/25/25 24/24/24 23/23/23
f 26/26/26 25/25/25 23/23/23
f 29/29/29 28/28/28 27/27/27
f 30/30/30 29/29/29 27/27/27
f 33/33/33 32/32/32 31/31/31
f 34/34/34 33/33/33 31/31/31
f 37/37/37 36/36/36 35/35/35
f 38/38/38 37/37/37 35/35/35
f 41/41/41 40/40/40 39/39/39
f 42/42/42 41/41/41 39/39/39
f 45/45/45 44/44/44 43/43/43
f 46/46/46 45/45/45 43/43/43
f 49/49/49 48/48/48 47/47/47
f 50/50/50 49/49/49 47/47/47
f 53/53/53 52/52/52 51/51/51
f 54/54/54 53/53/53 51/51/51
