g instance_0.100
v -0.009234771 -0.04338224 0.009999981
v 0.1307652 0.02661776 0.009999981
v 0.1207652 0.06661776 0.009999981
v 0.01076523 0.06661776 0.009999981
v -0.04923477 0.03661776 0.009999981
v 0.1207652 0.06661776 -0.09000002
v 0.1307652 0.02661776 -0.09000002
v -0.009234771 -0.04338224 -0.09000002
v 0.01076523 0.06661776 -0.09000002
v -0.04923477 0.03661776 -0.09000002
v 0.1207652 0.06661776 0.009999981
v 0.1207652 0.06661776 -0.09000002
v 0.01076523 0.06661776 -0.09000002
v 0.01076523 0.06661776 0.009999981
v -0.04923477 0.03661776 0.009999981
v -0.04923477 0.03661776 -0.09000002
v -0.009234771 -0.04338224 -0.09000002
v -0.009234771 -0.04338224 0.009999981
v 0.1307652 0.02661776 0.009999981
v 0.1307652 0.02661776 -0.09000002
v 0.1207652 0.06661776 -0.09000002
v 0.1207652 0.06661776 0.009999981
v -0.009234771 -0.04338224 0.009999981
v -0.009234771 -0.04338224 -0.09000002
v 0.1307652 0.02661776 -0.09000002
v 0.1307652 0.02661776 0.009999981
v 0.01076523 0.06661776 0.009999981
v 0.01076523 0.06661776 -0.09000002
v -0.04923477 0.03661776 -0.09000002
v -0.04923477 0.03661776 0.009999981
vn 0 0 -1
vn 0 0 -1
vn 0 0 -1
vn 0 0 -1
vn 0 0 -1
vn 0 0 1
vn 0 0 1
vn 0 0 1
vn 0 0 1
vn 0 0 1
vn 0 -1 0
vn 0 -1 0
vn 0 -1 0
vn 0 -1 0
vn 0.8944272 0.4472136 0
vn 0.8944272 0.4472136 0
vn 0.8944272 0.4472136 0
vn 0.8944272 0.4472136 0
vn -0.9701425 -0.2425356 0
vn -0.9701425 -0.2425356 0
vn -0.9701425 -0.2425356 0
vn -0.9701425 -0.2425356 0
vn -0.4472136 0.8944272 0
vn -0.4472136 0.8944272 0
vn -0.4472136 0.8944272 0
vn -0.4472136 0.8944272 0
vn 0.4472136 -0.8944272 0
vn 0.4472136 -0.8944272 0
vn 0.4472136 -0.8944272 0
vn 0.4472136 -0.8944272 0
g instance_0.100_0
f 3/3/3 2/2/2 1/1/1
f 1/1/1 4/4/4 3/3/3
f 1/1/1 5/5/5 4/4/4
f 8/8/8 7/7/7 6/6/6
f 6/6/6 9/9/9 8/8/8
f 9/9/9 10/10/10 8/8/8
f 13/13/13 12/12/12 11/11/11
f 14/14/14 13/13/13 11/11/11
f 17/17/17 16/16/16 15/15/15
f 18/18/18 17/17/17 15/15/15
f 21/21/21 20/20/20 19/19/19
f 22/22/22 21/21/21 19/19/19
f 25/25/25 24/24/24 23/23/23
f 26/26/26 25/25/25 23/23/23
f 29/29/29 28/28/28 27/27/27
f 30/30/30 29/29/29 27/27/27
