g instance_0.008
v -0.08657883 -0.02045345 0.0725347
v -0.01473597 -0.09574907 0.0725347
v -0.01473597 -0.09574907 -0.04978918
v -0.08657883 -0.02045345 -0.04978918
v -0.01999146 0.04307929 0.0725347
v 0.05185147 -0.03221533 0.0725347
v -0.01473597 -0.09574907 0.0725347
v -0.08657883 -0.02045345 0.0725347
v -0.01473597 -0.09574907 -0.04978918
v -0.01618779 -0.08752408 -0.04978918
v -0.08323058 -0.01725885 -0.04978918
v -0.08657883 -0.02045345 -0.04978918
v -0.08323058 -0.01725885 0.06434292
v -0.09056358 -0.009573617 0.06434292
v 0.01235038 0.08862145 0.06434292
v -0.01999146 0.04307929 0.06434292
v 0.04705158 -0.0271847 0.06434292
v 0.08672617 0.01067048 0.06434292
v 0.01235038 0.08862145 0.06434292
v 0.01235038 0.08862145 0.03221599
v 0.04726142 0.05203279 0.03221599
v 0.08672617 0.01067048 0.06434292
v 0.04726142 0.05203279 -0.07965067
v 0.08672617 0.01067048 -0.07965067
v 0.01517334 0.09131374 0.03221599
v 0.01235038 0.08862145 0.03221599
v 0.01517334 0.09131374 -0.07965067
v -0.09056358 -0.009573617 0.06434292
v 0.01235038 0.08862145 0.06434292
v -0.09056358 -0.009573617 -0.07965067
v 0.05008439 0.05472509 -0.07965067
v 0.01517334 0.09131374 -0.07965067
v 0.04726142 0.05203279 -0.07965067
v -0.01618779 -0.08752408 -0.07965067
v 0.08672617 0.01067048 -0.07965067
v -0.09056358 -0.009573617 -0.07965067
v -0.08657883 -0.02045345 0.0725347
v -0.08657883 -0.02045345 -0.04978918
v -0.08323058 -0.01725885 -0.04978918
v -0.08323058 -0.01725885 0.06434292
v -0.01999146 0.04307929 0.06434292
v -0.01999146 0.04307929 0.0725347
v 0.05185147 -0.03221533 -0.03352403
v -0.01473597 -0.09574907 -0.04978918
v -0.01473597 -0.09574907 0.0725347
v 0.05185147 -0.03221533 0.0725347
v 0.04705158 -0.0271847 -0.03352403
v 0.05185147 -0.03221533 -0.03352403
v 0.05185147 -0.03221533 0.0725347
v 0.04705158 -0.0271847 0.06434292
v -0.01999146 0.04307929 0.0725347
v -0.01999146 0.04307929 0.06434292
v -0.09056358 -0.009573617 0.06434292
v -0.08323058 -0.01725885 0.06434292
v -0.08323058 -0.01725885 -0.04978918
v -0.09056358 -0.009573617 -0.07965067
v -0.01618779 -0.08752408 -0.07965067
v -0.01618779 -0.08752408 -0.04978918
v 0.05185147 -0.03221533 -0.03352403
v -0.01473597 -0.09574907 -0.04978918
v -0.01618779 -0.08752408 -0.04978918
v -0.01618779 -0.08752408 -0.07965067
v -0.01618779 -0.08752408 -0.04978918
v 0.04705158 -0.0271847 -0.03352403
v 0.08672617 0.01067048 -0.07965067
v 0.08672617 0.01067048 0.06434292
v 0.04705158 -0.0271847 0.06434292
v 0.05185147 -0.03221533 -0.03352403
v -0.01618779 -0.08752408 -0.04978918
v 0.04705158 -0.0271847 -0.03352403
v 0.05008439 0.05472509 0.03221599
v 0.04726142 0.05203279 -0.07965067
v 0.05008439 0.05472509 -0.07965067
v 0.04726142 0.05203279 0.03221599
v 0.04726142 0.05203279 0.03221599
v 0.01235038 0.08862145 0.03221599
v 0.01517334 0.09131374 0.03221599
v 0.05008439 0.05472509 0.03221599
v 0.01517334 0.09131374 -0.07965067
v 0.05008439 0.05472509 -0.07965067
v 0.05008439 0.05472509 0.03221599
v 0.01517334 0.09131374 0.03221599
vn -0.7235007 -0.6903237 0
vn -0.7235007 -0.6903237 0
vn -0.7235007 -0.6903237 0
vn -0.7235007 -0.6903238 0
vn 0 0 1
vn 0 0 1
vn 0 0 1
vn 0 0 1
vn 1.584116E-06 0 -1
vn -1.697631E-06 0 -1
vn 1.584116E-06 0 -1
vn 1.584116E-06 0 -1
vn -1.009858E-06 0 1
vn -1.009858E-06 0 1
vn -1.009858E-06 0 1
vn 0 0 1
vn 1.432548E-07 0 1
vn -1.291327E-07 0 1
vn 0.7235036 0.6903207 1.135134E-05
vn 0.7234987 0.6903257 0
vn 0.723508 0.690316 0
vn 0.723508 0.690316 0
vn 0.723508 0.690316 0
vn 0.723508 0.690316 0
vn -0.6901609 0.7236559 0
vn -0.6903263 0.7234982 -7.925583E-06
vn -0.6903206 0.7235036 0
vn -0.6903206 0.7235036 0
vn -0.6903248 0.7234995 0
vn -0.6903206 0.7235036 0
vn 0 0 -1
vn 0 0 -1
vn 0 0 -1
vn 0 0 -1
vn -1.876392E-07 0 -1
vn 0 0 -1
vn -0.6903098 0.723514 0
vn -0.6903098 0.723514 0
vn -0.6903098 0.723514 0
vn -0.6903121 0.7235117 0
vn -0.6903169 0.723507 -5.860455E-06
vn -0.6903168 0.7235073 0
vn 0.6903223 -0.7235021 0
vn 0.6903223 -0.7235021 0
vn 0.6903223 -0.7235021 0
vn 0.6903223 -0.723502 0
vn 0.7235054 0.6903186 0
vn 0.7235054 0.6903186 0
vn 0.7235054 0.6903186 0
vn 0.7235055 0.6903186 0
vn 0.7234956 0.690329 1.152208E-05
vn 0.7234953 0.6903294 0
vn -0.7234921 -0.6903327 0
vn -0.7234921 -0.6903327 0
vn -0.7234921 -0.6903327 0
vn -0.7235014 -0.6903229 4.831664E-06
vn -0.7235023 -0.690322 0
vn -0.7235023 -0.690322 0
vn -0.2045011 -0.03609706 0.9782006
vn -0.2045011 -0.03609706 0.9782006
vn -0.2045011 -0.03609706 0.9782006
vn 0.6903232 -0.7235011 6.97677E-07
vn 0.6903233 -0.7235011 0
vn 0.6903232 -0.7235011 6.97677E-07
vn 0.6903232 -0.7235011 6.97677E-07
vn 0.6903227 -0.7235016 0
vn 0.6903228 -0.7235014 0
vn -0.1323607 -0.1262894 0.9831234
vn -0.1323607 -0.1262894 0.9831234
vn -0.1323607 -0.1262894 0.9831234
vn -0.6901618 0.7236551 0
vn -0.6901618 0.7236551 0
vn -0.6901618 0.7236551 0
vn -0.6901609 0.7236559 0
vn -9.064001E-07 0 1
vn -9.064001E-07 0 1
vn -9.064001E-07 0 1
vn 3.021334E-07 0 1
vn 0.7234985 0.6903259 0
vn 0.7234985 0.6903259 0
vn 0.7234985 0.6903259 0
vn 0.7234986 0.6903259 0
g instance_0.008_0
f 3/3/3 2/2/2 1/1/1
f 1/1/1 3/3/3 2/2/2
f 1/1/1 4/4/4 3/3/3
f 3/3/3 1/1/1 4/4/4
f 7/7/7 6/6/6 5/5/5
f 5/5/5 7/7/7 6/6/6
f 5/5/5 8/8/8 7/7/7
f 7/7/7 5/5/5 8/8/8
f 11/11/11 10/10/10 9/9/9
f 9/9/9 11/11/11 10/10/10
f 9/9/9 12/12/12 11/11/11
f 11/11/11 9/9/9 12/12/12
f 15/15/15 14/14/14 13/13/13
f 13/13/13 15/15/15 14/14/14
f 13/13/13 16/16/16 15/15/15
f 15/15/15 13/13/13 16/16/16
f 16/16/16 17/17/17 15/15/15
f 15/15/15 16/16/16 17/17/17
f 17/17/17 18/18/18 15/15/15
f 15/15/15 17/17/17 18/18/18
f 21/21/21 20/20/20 19/19/19
f 19/19/19 21/21/21 20/20/20
f 21/21/21 19/19/19 22/22/22
f 22/22/22 21/21/21 19/19/19
f 23/23/23 21/21/21 22/22/22
f 22/22/22 23/23/23 21/21/21
f 22/22/22 24/24/24 23/23/23
f 23/23/23 22/22/22 24/24/24
f 27/27/27 26/26/26 25/25/25
f 25/25/25 27/27/27 26/26/26
f 28/28/28 26/26/26 27/27/27
f 27/27/27 28/28/28 26/26/26
f 28/28/28 29/29/29 26/26/26
f 26/26/26 28/28/28 29/29/29
f 27/27/27 30/30/30 28/28/28
f 28/28/28 27/27/27 30/30/30
f 33/33/33 32/32/32 31/31/31
f 31/31/31 33/33/33 32/32/32
f 32/32/32 33/33/33 34/34/34
f 34/34/34 32/32/32 33/33/33
f 33/33/33 35/35/35 34/34/34
f 34/34/34 33/33/33 35/35/35
f 34/34/34 36/36/36 32/32/32
f 32/32/32 34/34/34 36/36/36
f 39/39/39 38/38/38 37/37/37
f 37/37/37 39/39/39 38/38/38
f 37/37/37 40/40/40 39/39/39
f 39/39/39 37/37/37 40/40/40
f 37/37/37 41/41/41 40/40/40
f 40/40/40 37/37/37 41/41/41
f 37/37/37 42/42/42 41/41/41
f 41/41/41 37/37/37 42/42/42
f 45/45/45 44/44/44 43/43/43
f 43/43/43 45/45/45 44/44/44
f 43/43/43 46/46/46 45/45/45
f 45/45/45 43/43/43 46/46/46
f 49/49/49 48/48/48 47/47/47
f 47/47/47 49/49/49 48/48/48
f 47/47/47 50/50/50 49/49/49
f 49/49/49 47/47/47 50/50/50
f 50/50/50 51/51/51 49/49/49
f 49/49/49 50/50/50 51/51/51
f 50/50/50 52/52/52 51/51/51
f 51/51/51 50/50/50 52/52/52
f 55/55/55 54/54/54 53/53/53
f 53/53/53 55/55/55 54/54/54
f 55/55/55 53/53/53 56/56/56
f 56/56/56 55/55/55 53/53/53
f 55/55/55 56/56/56 57/57/57
f 57/57/57 55/55/55 56/56/56
f 57/57/57 58/58/58 55/55/55
f 55/55/55 57/57/57 58/58/58
f 61/61/61 60/60/60 59/59/59
f 60/60/60 59/59/59 61/61/61
f 64/64/64 63/63/63 62/62/62
f 62/62/62 64/64/64 63/63/63
f 64/64/64 62/62/62 65/65/65
f 65/65/65 64/64/64 62/62/62
f 65/65/65 66/66/66 64/64/64
f 64/64/64 65/65/65 66/66/66
f 66/66/66 67/67/67 64/64/64
f 64/64/64 66/66/66 67/67/67
f 70/70/70 69/69/69 68/68/68
f 69/69/69 68/68/68 70/70/70
f 73/73/73 72/72/72 71/71/71
f 72/72/72 71/71/71 73/73/73
f 74/74/74 71/71/71 72/72/72
f 71/71/71 72/72/72 74/74/74
f 77/77/77 76/76/76 75/75/75
f 75/75/75 77/77/77 76/76/76
f 75/75/75 78/78/78 77/77/77
f 77/77/77 75/75/75 78/78/78
f 81/81/81 80/80/80 79/79/79
f 79/79/79 81/81/81 80/80/80
f 79/79/79 82/82/82 81/81/81
f 81/81/81 79/79/79 82/82/82
