g instance_0.009
v -0.01002419 -0.08318947 0.08002904
v -0.06185948 -0.02886323 0.08002904
v -0.02568432 0.005652988 0.08002904
v 0.02615102 -0.04867349 0.08002904
v 0.02353245 -0.05117182 -0.08658101
v -0.009047323 -0.08225755 -0.08863433
v -0.01002419 -0.08318947 -0.08457846
v 0.02615102 -0.04867349 -0.08457846
v 0.06232593 -0.01415727 0.08106612
v 0.06232593 -0.01415727 -0.08457846
v 0.02888022 -0.0460695 0.07921953
v -0.01002419 -0.08318947 0.08002904
v 0.02615102 -0.04867349 0.08002904
v -0.06185948 -0.02886323 -0.08457846
v -0.06088261 -0.02793082 -0.08863433
v -0.02830277 0.00315466 -0.08658101
v -0.02568432 0.005652988 -0.08457846
v -0.06185948 -0.02886323 0.08002904
v -0.02152303 0.00962397 -0.08042303
v -0.02152303 0.00962397 0.06267931
v 0.01049065 0.04016921 -0.08457846
v 0.01049065 0.04016921 -0.08042303
v -0.0183399 0.01266081 0.07738948
v -0.02295531 0.008257232 0.07921953
v -0.02568432 0.005652988 0.08002904
v 0.01049065 0.04016921 0.07874405
v 0.01049065 0.04016921 0.08106612
v -0.02152303 0.00962397 -0.08042303
v -0.04617882 0.035465 -0.08042303
v -0.04617882 0.035465 0.06267931
v -0.02152303 0.00962397 0.06267931
v 0.02615102 -0.04867349 0.08002904
v -0.02568432 0.005652988 0.08002904
v -0.02295531 0.008257232 0.07921953
v 0.02888022 -0.0460695 0.07921953
v -0.01002419 -0.08318947 0.08002904
v -0.01002419 -0.08318947 -0.08457846
v -0.06185948 -0.02886323 -0.08457846
v -0.06185948 -0.02886323 0.08002904
v 0.02888022 -0.0460695 0.07921953
v -0.02295531 0.008257232 0.07921953
v 0.01049065 0.04016921 0.08106612
v 0.06232593 -0.01415727 0.08106612
v -0.06185948 -0.02886323 -0.08457846
v -0.01002419 -0.08318947 -0.08457846
v -0.009047323 -0.08225755 -0.08863433
v -0.06088261 -0.02793082 -0.08863433
v -0.02830277 0.00315466 -0.08658101
v -0.06088261 -0.02793082 -0.08863433
v -0.009047323 -0.08225755 -0.08863433
v 0.02353245 -0.05117182 -0.08658101
v -0.02568432 0.005652988 -0.08457846
v -0.02830277 0.00315466 -0.08658101
v 0.02353245 -0.05117182 -0.08658101
v 0.02615102 -0.04867349 -0.08457846
v 0.01049065 0.04016921 -0.08457846
v -0.02568432 0.005652988 -0.08457846
v 0.02615102 -0.04867349 -0.08457846
v 0.06232593 -0.01415727 -0.08457846
v 0.01049065 0.04016921 0.08106612
v 0.01049065 0.04016921 0.07874405
v 0.0543191 -0.005765601 0.07874405
v 0.06232593 -0.01415727 0.08106612
v 0.0543191 -0.005765601 -0.08042303
v 0.06232593 -0.01415727 -0.08457846
v 0.01049065 0.04016921 -0.08457846
v 0.01049065 0.04016921 -0.08042303
v 0.01049065 0.04016921 0.07874405
v -0.0183399 0.01266081 0.07738948
v -0.0429957 0.03850283 0.07738948
v 0.0008019976 0.08029078 0.07879206
v 0.06928631 0.008515201 0.07879206
v 0.0543191 -0.005765601 0.07874405
v -0.0183399 0.01266081 0.07738948
v -0.02152303 0.00962397 0.06267931
v -0.04617882 0.035465 0.06267931
v -0.0429957 0.03850283 0.07738948
v 0.0008019976 0.08029078 -0.08042303
v -0.04617882 0.035465 -0.08042303
v -0.02152303 0.00962397 -0.08042303
v 0.01049065 0.04016921 -0.08042303
v 0.06928631 0.008515201 -0.08042303
v 0.0543191 -0.005765601 -0.08042303
v 0.06928631 0.008515201 0.07879206
v 0.06928631 0.008515201 -0.08042303
v 0.0543191 -0.005765601 -0.08042303
v 0.0543191 -0.005765601 0.07874405
v -0.04617882 0.035465 0.06267931
v -0.04617882 0.035465 -0.08042303
v 0.0008019976 0.08029078 -0.08042303
v 0.0008019976 0.08029078 0.07879206
v -0.0429957 0.03850283 0.07738948
v 0.0008019976 0.08029078 -0.08042303
v 0.06928631 0.008515201 -0.08042303
v 0.06928631 0.008515201 0.07879206
v 0.0008019976 0.08029078 0.07879206
vn -2.032111E-07 0 1
vn -2.032111E-07 0 1
vn -2.032111E-07 0 1
vn 3.048165E-07 0 1
vn 0.6903208 -0.7235035 2.93184E-05
vn 0.6903208 -0.7235035 2.93184E-05
vn 0.6903208 -0.7235035 2.93184E-05
vn 0.6903188 -0.7235053 -4.929001E-05
vn 0.6903253 -0.7234992 0
vn 0.6903253 -0.7234992 0
vn 0.690326 -0.7234983 -3.062899E-06
vn 0.6903195 -0.7235047 0
vn 0.6903175 -0.7235065 1.708249E-05
vn -0.6903207 0.7235035 6.017978E-05
vn -0.6903207 0.7235035 6.017978E-05
vn -0.6903207 0.7235035 6.017978E-05
vn -0.6903216 0.7235026 1.333447E-05
vn -0.6903227 0.7235016 0
vn -0.690362 0.7234641 -1.627194E-05
vn -0.6903276 0.7234969 0
vn -0.6903248 0.7234997 -8.675121E-05
vn -0.6903186 0.7235054 0
vn -0.6903239 0.7235004 1.590431E-05
vn -0.6903284 0.7234961 -9.205088E-05
vn -0.6903198 0.7235042 0.0003416492
vn -0.6903226 0.7235017 -6.07983E-05
vn -0.6903206 0.7235036 0
vn -0.7235042 -0.69032 0
vn -0.7235043 -0.6903199 0
vn -0.7235042 -0.69032 0
vn -0.7235042 -0.69032 0
vn 0.1518033 0.1448434 0.9777403
vn 0.1518033 0.1448434 0.9777403
vn 0.1518033 0.1448434 0.9777403
vn 0.1518067 0.1448447 0.9777396
vn -0.7234991 -0.6903253 0
vn -0.7234991 -0.6903253 0
vn -0.7234991 -0.6903253 0
vn -0.7234991 -0.6903253 0
vn -0.02887779 -0.02755327 0.9992031
vn -0.02887779 -0.02755327 0.9992031
vn -0.02887779 -0.02755327 0.9992031
vn -0.02887705 -0.02755327 0.9992031
vn -0.6864673 -0.6549895 -0.3158348
vn -0.6864673 -0.6549895 -0.3158348
vn -0.6864673 -0.6549895 -0.3158348
vn -0.6864511 -0.6549716 -0.3159069
vn 0.0329567 0.03144499 -0.998962
vn 0.0329567 0.03144499 -0.998962
vn 0.0329567 0.03144499 -0.998962
vn 0.03295603 0.03144496 -0.998962
vn 0.3502849 0.3342213 -0.8749838
vn 0.3502849 0.3342213 -0.8749838
vn 0.3502849 0.3342213 -0.8749838
vn 0.3502776 0.3342151 -0.874989
vn -2.032111E-07 0 -1
vn -2.032111E-07 0 -1
vn -2.032111E-07 0 -1
vn 2.032114E-07 0 -1
vn 0.7235012 0.6903231 1.148609E-05
vn 0.7235003 0.6903241 0
vn 0.7235012 0.6903231 1.148609E-05
vn 0.7235012 0.6903231 1.148609E-05
vn 0.7235023 0.690322 0
vn 0.7235017 0.6903225 0
vn 0.7235026 0.6903217 -6.418431E-06
vn 0.7235003 0.6903241 0
vn -0.02458051 -0.02345213 0.9994228
vn -0.02458051 -0.02345213 0.9994228
vn -0.02458051 -0.02345213 0.9994228
vn -0.001678819 -0.001601688 0.9999974
vn -0.001678819 -0.001601688 0.9999974
vn -0.001679318 -0.001601688 0.9999974
vn -0.6931685 -0.6613752 0.2865315
vn -0.6931685 -0.6613752 0.2865315
vn -0.6931685 -0.6613752 0.2865315
vn -0.693172 -0.6613537 0.2865726
vn 1.644799E-07 0 -1
vn 1.644799E-07 0 -1
vn 1.644799E-07 0 -1
vn 0 0 -1
vn -3.717501E-07 0 -1
vn -4.356596E-07 0 -1
vn 0.6903219 -0.7235024 0
vn 0.6903219 -0.7235024 0
vn 0.6903219 -0.7235024 0
vn 0.6903219 -0.7235023 0
vn -0.6903183 0.7235057 0
vn -0.6903183 0.7235057 0
vn -0.6903183 0.7235057 0
vn -0.6903183 0.7235059 0
vn -0.6903114 0.7235123 -3.76646E-05
vn 0.7235003 0.6903241 0
vn 0.7235003 0.6903241 0
vn 0.7235003 0.6903241 0
vn 0.7235002 0.6903241 0
g instance_0.009_0
f 3/3/3 2/2/2 1/1/1
f 1/1/1 3/3/3 2/2/2
f 1/1/1 4/4/4 3/3/3
f 3/3/3 1/1/1 4/4/4
f 7/7/7 6/6/6 5/5/5
f 5/5/5 7/7/7 6/6/6
f 5/5/5 8/8/8 7/7/7
f 7/7/7 5/5/5 8/8/8
f 9/9/9 7/7/7 8/8/8
f 8/8/8 9/9/9 7/7/7
f 8/8/8 10/10/10 9/9/9
f 9/9/9 8/8/8 10/10/10
f 9/9/9 11/11/11 7/7/7
f 7/7/7 9/9/9 11/11/11
f 12/12/12 7/7/7 11/11/11
f 11/11/11 12/12/12 7/7/7
f 11/11/11 13/13/13 12/12/12
f 12/12/12 11/11/11 13/13/13
f 16/16/16 15/15/15 14/14/14
f 14/14/14 16/16/16 15/15/15
f 14/14/14 17/17/17 16/16/16
f 16/16/16 14/14/14 17/17/17
f 14/14/14 18/18/18 17/17/17
f 17/17/17 14/14/14 18/18/18
f 18/18/18 19/19/19 17/17/17
f 17/17/17 18/18/18 19/19/19
f 18/18/18 20/20/20 19/19/19
f 19/19/19 18/18/18 20/20/20
f 19/19/19 21/21/21 17/17/17
f 17/17/17 19/19/19 21/21/21
f 21/21/21 19/19/19 22/22/22
f 22/22/22 21/21/21 19/19/19
f 18/18/18 23/23/23 20/20/20
f 20/20/20 18/18/18 23/23/23
f 18/18/18 24/24/24 23/23/23
f 23/23/23 18/18/18 24/24/24
f 18/18/18 25/25/25 24/24/24
f 24/24/24 18/18/18 25/25/25
f 24/24/24 26/26/26 23/23/23
f 23/23/23 24/24/24 26/26/26
f 26/26/26 24/24/24 27/27/27
f 27/27/27 26/26/26 24/24/24
f 30/30/30 29/29/29 28/28/28
f 28/28/28 30/30/30 29/29/29
f 28/28/28 31/31/31 30/30/30
f 30/30/30 28/28/28 31/31/31
f 34/34/34 33/33/33 32/32/32
f 32/32/32 34/34/34 33/33/33
f 32/32/32 35/35/35 34/34/34
f 34/34/34 32/32/32 35/35/35
f 38/38/38 37/37/37 36/36/36
f 36/36/36 38/38/38 37/37/37
f 36/36/36 39/39/39 38/38/38
f 38/38/38 36/36/36 39/39/39
f 42/42/42 41/41/41 40/40/40
f 40/40/40 42/42/42 41/41/41
f 40/40/40 43/43/43 42/42/42
f 42/42/42 40/40/40 43/43/43
f 46/46/46 45/45/45 44/44/44
f 44/44/44 46/46/46 45/45/45
f 44/44/44 47/47/47 46/46/46
f 46/46/46 44/44/44 47/47/47
f 50/50/50 49/49/49 48/48/48
f 48/48/48 50/50/50 49/49/49
f 48/48/48 51/51/51 50/50/50
f 50/50/50 48/48/48 51/51/51
f 54/54/54 53/53/53 52/52/52
f 52/52/52 54/54/54 53/53/53
f 52/52/52 55/55/55 54/54/54
f 54/54/54 52/52/52 55/55/55
f 58/58/58 57/57/57 56/56/56
f 56/56/56 58/58/58 57/57/57
f 56/56/56 59/59/59 58/58/58
f 58/58/58 56/56/56 59/59/59
f 62/62/62 61/61/61 60/60/60
f 60/60/60 62/62/62 61/61/61
f 62/62/62 60/60/60 63/63/63
f 63/63/63 62/62/62 60/60/60
f 63/63/63 64/64/64 62/62/62
f 62/62/62 63/63/63 64/64/64
f 64/64/64 63/63/63 65/65/65
f 65/65/65 64/64/64 63/63/63
f 65/65/65 66/66/66 64/64/64
f 64/64/64 65/65/65 66/66/66
f 66/66/66 67/67/67 64/64/64
f 64/64/64 66/66/66 67/67/67
f 70/70/70 69/69/69 68/68/68
f 68/68/68 70/70/70 69/69/69
f 71/71/71 70/70/70 68/68/68
f 68/68/68 71/71/71 70/70/70
f 72/72/72 71/71/71 68/68/68
f 68/68/68 72/72/72 71/71/71
f 68/68/68 73/73/73 72/72/72
f 72/72/72 68/68/68 73/73/73
f 76/76/76 75/75/75 74/74/74
f 74/74/74 76/76/76 75/75/75
f 74/74/74 77/77/77 76/76/76
f 76/76/76 74/74/74 77/77/77
f 80/80/80 79/79/79 78/78/78
f 78/78/78 80/80/80 79/79/79
f 78/78/78 81/81/81 80/80/80
f 80/80/80 78/78/78 81/81/81
f 78/78/78 82/82/82 81/81/81
f 81/81/81 78/78/78 82/82/82
f 82/82/82 83/83/83 81/81/81
f 81/81/81 82/82/82 83/83/83
f 86/86/86 85/85/85 84/84/84
f 84/84/84 86/86/86 85/85/85
f 84/84/84 87/87/87 86/86/86
f 86/86/86 84/84/84 87/87/87
f 90/90/90 89/89/89 88/88/88
f 88/88/88 90/90/90 89/89/89
f 88/88/88 91/91/91 90/90/90
f 90/90/90 88/88/88 91/91/91
f 88/88/88 92/92/92 91/91/91
f 91/91/91 88/88/88 92/92/92
f 95/95/95 94/94/94 93/93/93
f 93/93/93 95/95/95 94/94/94
f 93/93/93 96/96/96 95/95/95
f 95/95/95 93/93/93 96/96/96
