g instance_0.006
v -0.02965772 -0.01856246 -0.09418526
v -0.03451677 -0.02342121 -0.09418526
v -0.003316449 -0.05462166 -0.09418526
v -0.002816324 -0.04540374 -0.09418526
v 0.02542065 -0.02588456 -0.09418526
v 0.02106172 -0.02152563 -0.09418526
v -0.003316449 -0.05462166 0.09489616
v 0.02542065 -0.02588456 0.09489616
v 0.02542065 -0.02588456 -0.09418526
v -0.003316449 -0.05462166 -0.09418526
v -0.02965772 -0.01856246 0.09229722
v -0.00577974 0.005315769 0.09229722
v -0.00577974 0.005315769 0.09489616
v -0.03451677 -0.02342121 0.09489616
v -0.03451677 -0.02342121 -0.09418526
v -0.02965772 -0.01856246 -0.09418526
v -0.002816324 -0.04540374 -0.09418526
v -0.002816324 -0.04540374 -0.1195884
v -0.04872223 0.0005020468 -0.1195884
v -0.02965772 -0.01856246 -0.09418526
v -0.04872223 0.0005020468 0.09229722
v -0.02965772 -0.01856246 0.09229722
v 0.02106172 -0.02152563 0.09229722
v 0.04222037 -0.0003669853 0.09229722
v 0.04222037 -0.0003669853 -0.1195884
v 0.02106172 -0.02152563 -0.09418526
v -0.002816324 -0.04540374 -0.09418526
v -0.002816324 -0.04540374 -0.1195884
v -0.002180022 0.04704407 -0.1195884
v 0.001829842 0.051054 0.08743668
v -0.00368548 0.04553868 0.08743668
v -0.04872223 0.0005020468 -0.1195884
v -0.00368548 0.04553868 0.09229722
v -0.04872223 0.0005020468 0.09229722
v 0.01343056 0.03143362 -0.1195884
v -0.002180022 0.04704407 -0.1195884
v 0.0119251 0.02992809 -0.1195884
v -0.002816324 -0.04540374 -0.1195884
v 0.04222037 -0.0003669853 -0.1195884
v -0.04872223 0.0005020468 -0.1195884
v 0.001829842 0.051054 0.08743668
v 0.01744048 0.03544342 0.08743668
v 0.0119251 0.02992809 0.08743668
v -0.00368548 0.04553868 0.08743668
v -0.00577974 0.005315769 0.09489616
v 0.02106172 -0.02152563 0.09229722
v -0.00577974 0.005315769 0.09229722
v 0.02542065 -0.02588456 0.09489616
v 0.02542065 -0.02588456 -0.09418526
v 0.02106172 -0.02152563 -0.09418526
v -0.003316449 -0.05462166 0.09489616
v -0.03451677 -0.02342121 0.09489616
v -0.00577974 0.005315769 0.09489616
v 0.02542065 -0.02588456 0.09489616
v -0.02965772 -0.01856246 0.09229722
v -0.04872223 0.0005020468 0.09229722
v -0.00368548 0.04553868 0.09229722
v -0.00577974 0.005315769 0.09229722
v 0.02106172 -0.02152563 0.09229722
v 0.04222037 -0.0003669853 0.09229722
v -0.00368548 0.04553868 0.09229722
v -0.00368548 0.04553868 0.08743668
v 0.0119251 0.02992809 0.08743668
v 0.04222037 -0.0003669853 0.09229722
v 0.04222037 -0.0003669853 -0.1195884
v 0.0119251 0.02992809 -0.1195884
v 0.001829842 0.051054 0.08743668
v -0.002180022 0.04704407 -0.1195884
v 0.01343056 0.03143362 -0.1195884
v 0.01744048 0.03544342 0.08743668
v 0.01343056 0.03143362 -0.1195884
v 0.0119251 0.02992809 0.08743668
v 0.0119251 0.02992809 -0.1195884
v 0.01744048 0.03544342 0.08743668
vn 1.25815E-06 0 -1
vn 1.25815E-06 0 -1
vn 1.25815E-06 0 -1
vn 0 0 -1
vn 0 0 -1
vn -1.83253E-06 0 -1
vn 0.7071068 -0.7071068 0
vn 0.7071068 -0.7071068 0
vn 0.7071068 -0.7071068 0
vn 0.7071068 -0.7071068 0
vn -0.7070841 0.7071294 0
vn -0.7071087 0.7071048 0
vn -0.7071073 0.7071062 -8.126217E-05
vn -0.7070841 0.7071294 0
vn -0.7070841 0.7071294 0
vn -0.7070844 0.7071292 0
vn -0.7071058 -0.7071077 0
vn -0.7071058 -0.7071077 0
vn -0.7071058 -0.7071077 0
vn -0.7071055 -0.707108 -2.571382E-06
vn -0.7071066 -0.7071069 0
vn -0.7071068 -0.7071068 0
vn 0.7071068 -0.7071068 0
vn 0.7071066 -0.7071069 0
vn 0.7071072 -0.7071064 0
vn 0.707108 -0.7071055 1.389658E-06
vn 0.7071072 -0.7071064 0
vn 0.7071072 -0.7071064 0
vn -0.7071053 0.7071081 -2.082107E-07
vn -0.7071068 0.7071066 -2.067089E-07
vn -0.7071041 0.7071094 0
vn -0.7071058 0.7071077 0
vn -0.7071058 0.7071077 0
vn -0.7071058 0.7071077 0
vn 0 0 -1
vn 0 0 -1
vn 0 0 -1
vn -5.356328E-07 0 -1
vn -2.795888E-07 0 -1
vn -5.356328E-07 0 -1
vn -5.538348E-07 0 1
vn 5.538303E-07 0 1
vn -5.538348E-07 0 1
vn -5.538348E-07 0 1
vn -0.7071044 -0.7071091 0
vn -0.7071044 -0.7071091 0
vn -0.7071044 -0.7071091 0
vn -0.7071068 -0.7071068 0
vn -0.7071066 -0.7071068 0
vn -0.7071066 -0.7071068 0
vn -4.254598E-07 0 1
vn -4.254598E-07 0 1
vn -4.254598E-07 0 1
vn 4.254589E-07 0 1
vn -4.442914E-07 0 1
vn -4.442914E-07 0 1
vn -4.442914E-07 0 1
vn 0 0 1
vn 3.358438E-07 0 1
vn 5.891098E-07 0 1
vn 0.7071056 0.707108 0
vn 0.7071056 0.707108 0
vn 0.7071056 0.707108 0
vn 0.7071045 0.707109 0
vn 0.7071047 0.7071089 0
vn 0.7071047 0.7071089 0
vn 0.7068388 0.7068444 -0.02738182
vn 0.7068388 0.7068444 -0.02738182
vn 0.7068388 0.7068444 -0.02738182
vn 0.7068403 0.706843 -0.02738159
vn -0.7071213 0.7070922 0
vn -0.7071213 0.7070922 0
vn -0.7071213 0.7070922 0
vn -0.7071028 0.7071107 2.657671E-07
g instance_0.006_0
f 3/3/3 2/2/2 1/1/1
f 1/1/1 3/3/3 2/2/2
f 1/1/1 4/4/4 3/3/3
f 3/3/3 1/1/1 4/4/4
f 4/4/4 5/5/5 3/3/3
f 3/3/3 4/4/4 5/5/5
f 4/4/4 6/6/6 5/5/5
f 5/5/5 4/4/4 6/6/6
f 9/9/9 8/8/8 7/7/7
f 7/7/7 9/9/9 8/8/8
f 7/7/7 10/10/10 9/9/9
f 9/9/9 7/7/7 10/10/10
f 13/13/13 12/12/12 11/11/11
f 11/11/11 13/13/13 12/12/12
f 14/14/14 13/13/13 11/11/11
f 11/11/11 14/14/14 13/13/13
f 11/11/11 15/15/15 14/14/14
f 14/14/14 11/11/11 15/15/15
f 15/15/15 11/11/11 16/16/16
f 16/16/16 15/15/15 11/11/11
f 19/19/19 18/18/18 17/17/17
f 17/17/17 19/19/19 18/18/18
f 17/17/17 20/20/20 19/19/19
f 19/19/19 17/17/17 20/20/20
f 20/20/20 21/21/21 19/19/19
f 19/19/19 20/20/20 21/21/21
f 20/20/20 22/22/22 21/21/21
f 21/21/21 20/20/20 22/22/22
f 25/25/25 24/24/24 23/23/23
f 23/23/23 25/25/25 24/24/24
f 25/25/25 23/23/23 26/26/26
f 26/26/26 25/25/25 23/23/23
f 25/25/25 26/26/26 27/27/27
f 27/27/27 25/25/25 26/26/26
f 27/27/27 28/28/28 25/25/25
f 25/25/25 27/27/27 28/28/28
f 31/31/31 30/30/30 29/29/29
f 29/29/29 31/31/31 30/30/30
f 31/31/31 29/29/29 32/32/32
f 32/32/32 31/31/31 29/29/29
f 33/33/33 31/31/31 32/32/32
f 32/32/32 33/33/33 31/31/31
f 32/32/32 34/34/34 33/33/33
f 33/33/33 32/32/32 34/34/34
f 37/37/37 36/36/36 35/35/35
f 35/35/35 37/37/37 36/36/36
f 36/36/36 37/37/37 38/38/38
f 38/38/38 36/36/36 37/37/37
f 37/37/37 39/39/39 38/38/38
f 38/38/38 37/37/37 39/39/39
f 38/38/38 40/40/40 36/36/36
f 36/36/36 38/38/38 40/40/40
f 43/43/43 42/42/42 41/41/41
f 41/41/41 43/43/43 42/42/42
f 41/41/41 44/44/44 43/43/43
f 43/43/43 41/41/41 44/44/44
f 47/47/47 46/46/46 45/45/45
f 46/46/46 45/45/45 47/47/47
f 45/45/45 46/46/46 48/48/48
f 46/46/46 48/48/48 45/45/45
f 48/48/48 46/46/46 49/49/49
f 46/46/46 49/49/49 48/48/48
f 50/50/50 49/49/49 46/46/46
f 49/49/49 46/46/46 50/50/50
f 53/53/53 52/52/52 51/51/51
f 51/51/51 53/53/53 52/52/52
f 51/51/51 54/54/54 53/53/53
f 53/53/53 51/51/51 54/54/54
f 57/57/57 56/56/56 55/55/55
f 55/55/55 57/57/57 56/56/56
f 55/55/55 58/58/58 57/57/57
f 57/57/57 55/55/55 58/58/58
f 58/58/58 59/59/59 57/57/57
f 57/57/57 58/58/58 59/59/59
f 59/59/59 60/60/60 57/57/57
f 57/57/57 59/59/59 60/60/60
f 63/63/63 62/62/62 61/61/61
f 61/61/61 63/63/63 62/62/62
f 63/63/63 61/61/61 64/64/64
f 64/64/64 63/63/63 61/61/61
f 63/63/63 64/64/64 65/65/65
f 65/65/65 63/63/63 64/64/64
f 65/65/65 66/66/66 63/63/63
f 63/63/63 65/65/65 66/66/66
f 69/69/69 68/68/68 67/67/67
f 67/67/67 69/69/69 68/68/68
f 67/67/67 70/70/70 69/69/69
f 69/69/69 67/67/67 70/70/70
f 73/73/73 72/72/72 71/71/71
f 72/72/72 71/71/71 73/73/73
f 74/74/74 71/71/71 72/72/72
f 71/71/71 72/72/72 74/74/74
