g instance_0.019
v 0.01277137 -0.02621533 0.06047408
v 0.01277137 -0.02621533 -0.03895982
v -0.006618945 -0.04559473 -0.03895982
v -0.006618945 -0.04559473 0.06047408
v 0.01124539 -0.02468823 -0.03895982
v 0.01277137 -0.02621533 -0.03895982
v 0.01277137 -0.02621533 0.06047408
v 0.01124539 -0.02468823 0.05800799
v 0.0077803 -0.0212214 0.05930416
v 0.0077803 -0.0212214 0.05800799
v -0.02097863 0.007554019 0.06047408
v -0.02129637 0.007872015 0.05930416
v -0.006618945 -0.04559473 0.06047408
v -0.03373754 -0.01846064 0.06047408
v -0.02097863 0.007554019 0.06047408
v 0.01277137 -0.02621533 0.06047408
v -0.03373754 -0.01846064 0.06047408
v -0.006618945 -0.04559473 0.06047408
v -0.006618945 -0.04559473 -0.03895982
v -0.04196432 -0.01022933 -0.03895982
v -0.04196432 -0.01022933 0.03017999
v -0.0375107 -0.0057785 -0.03895982
v -0.04196432 -0.01022933 -0.03895982
v -0.006618945 -0.04559473 -0.03895982
v -0.007156711 -0.03614973 -0.03895982
v 0.002754622 -0.02624435 -0.03895982
v 0.006219713 -0.02971155 -0.03895982
v 0.01277137 -0.02621533 -0.03895982
v 0.01124539 -0.02468823 -0.03895982
v 0.01223392 -0.01677032 0.05930416
v 0.01223392 -0.01677032 0.05800799
v 0.0077803 -0.0212214 0.05800799
v 0.0077803 -0.0212214 0.05930416
v 0.0077803 -0.0212214 0.05930416
v -0.02129637 0.007872015 0.05930416
v -0.01836595 0.01384684 0.05930416
v 0.01223392 -0.01677032 0.05930416
v -0.02097863 0.007554019 0.06047408
v -0.03373754 -0.01846064 0.06047408
v -0.04196432 -0.01022933 0.03017999
v -0.0375107 -0.0057785 0.03578882
v -0.04250178 -0.0007845723 0.01740963
v -0.02129637 0.007872015 0.05930416
v -0.02311146 0.01859508 0.04182972
v -0.01836595 0.01384684 0.05930416
v 0.02262231 -0.01331801 -0.0655356
v 0.006697265 -0.02923406 -0.06589424
v 0.006219713 -0.02971155 -0.06518582
v 0.02390242 -0.01203858 -0.06518582
v 0.04158518 0.005634013 -0.04982948
v 0.006219713 -0.02971155 -0.03895982
v 0.01124539 -0.02468823 -0.03895982
v 0.04158518 0.005634013 0.05927747
v 0.02390242 -0.01203858 0.05800799
v 0.01124539 -0.02468823 0.05800799
v 0.02523647 -0.01070533 0.06047408
v 0.01124539 -0.02468823 0.05800799
v 0.0077803 -0.0212214 0.05800799
v 0.01223392 -0.01677032 0.05800799
v 0.02390242 -0.01203858 0.05800799
v -0.008771867 0.02065412 0.05800799
v -0.01697534 0.01245543 0.05800799
v -0.04196432 -0.01022933 0.03017999
v -0.04196432 -0.01022933 -0.03895982
v -0.0375107 -0.0057785 -0.03895982
v -0.0375107 -0.0057785 0.03578882
v 0.002754622 -0.02624435 -0.03895982
v 0.006219713 -0.02971155 -0.03895982
v 0.006219713 -0.02971155 -0.06518582
v 0.002754622 -0.02624435 -0.06518582
v -0.04250178 -0.0007845723 0.01740963
v -0.0375107 -0.0057785 0.03578882
v -0.0375107 -0.0057785 -0.03895982
v -0.04250178 -0.0007845723 -0.06667199
v -0.007156711 -0.03614973 -0.06667199
v -0.007156711 -0.03614973 -0.03895982
v -0.007156711 -0.03614973 -0.03895982
v 0.002754622 -0.02624435 -0.03895982
v 0.002754622 -0.02624435 -0.06518582
v -0.007156711 -0.03614973 -0.06667199
v 0.003232175 -0.02576699 -0.06589424
v 0.01223392 -0.01677032 -0.06569152
v 0.01223392 -0.01677032 -0.06667199
v -0.02311146 0.01859508 -0.06667199
v 0.01223392 -0.01677032 -0.06667199
v 0.01223392 -0.01677032 -0.06569152
v -0.01697534 0.01245543 -0.06569152
v -0.01697534 0.01245543 0.05800799
v -0.01836595 0.01384684 0.05930416
v -0.02311146 0.01859508 0.04182972
v 0.01223392 -0.01677032 0.05930416
v 0.01223392 -0.01677032 0.05800799
v -0.04250178 -0.0007845723 0.01740963
v -0.04250178 -0.0007845723 -0.06667199
v -0.02311146 0.01859508 -0.06667199
v -0.02311146 0.01859508 0.04182972
v 0.02390242 -0.01203858 0.05800799
v -0.008771867 0.02065412 0.05800799
v -0.007437871 0.02198749 0.06047408
v 0.02523647 -0.01070533 0.06047408
v 0.003232175 -0.02576699 -0.06589424
v 0.002754622 -0.02624435 -0.06518582
v 0.006219713 -0.02971155 -0.06518582
v 0.006697265 -0.02923406 -0.06589424
v -0.01005204 0.01937519 -0.0655356
v -0.01697534 0.01245543 -0.06569152
v 0.01223392 -0.01677032 -0.06569152
v 0.02262231 -0.01331801 -0.0655356
v 0.006697265 -0.02923406 -0.06589424
v 0.003232175 -0.02576699 -0.06589424
v -0.008771867 0.02065412 -0.06518582
v -0.01005204 0.01937519 -0.0655356
v 0.02262231 -0.01331801 -0.0655356
v 0.02390242 -0.01203858 -0.06518582
v 0.008910836 0.03832696 -0.04982948
v -0.008771867 0.02065412 -0.06518582
v 0.02390242 -0.01203858 -0.06518582
v 0.04158518 0.005634013 -0.04982948
v 0.008910836 0.03832696 0.05927747
v 0.008910836 0.03832696 0.04850737
v 0.04048708 0.006732364 0.04850737
v 0.04158518 0.005634013 0.05927747
v 0.04048708 0.006732364 -0.04827398
v 0.04158518 0.005634013 -0.04982948
v 0.008910836 0.03832696 -0.04982948
v 0.008910836 0.03832696 -0.04827398
v 0.02523647 -0.01070533 0.06047408
v -0.007437871 0.02198749 0.06047408
v 0.008910836 0.03832696 0.05927747
v 0.04158518 0.005634013 0.05927747
v -0.01697534 0.01245543 0.05800799
v -0.01697534 0.01245543 -0.06569152
v -0.01005204 0.01937519 -0.0655356
v -0.008771867 0.02065412 -0.06518582
v -0.008814036 0.02061245 -0.04827398
v 0.008910836 0.03832696 -0.04982948
v 0.008910836 0.03832696 -0.04827398
v -0.008814036 0.02061245 0.03831536
v -0.005181823 0.02424224 0.04782994
v 0.008910836 0.03832696 0.04850737
v -0.008771867 0.02065412 0.05800799
v 0.008910836 0.03832696 0.05927747
v -0.007437871 0.02198749 0.06047408
v -0.02311146 0.01859508 -0.06667199
v -0.04250178 -0.0007845723 -0.06667199
v -0.007156711 -0.03614973 -0.06667199
v 0.01223392 -0.01677032 -0.06667199
v 0.04133955 0.007584529 0.04853123
v 0.04133955 0.007584529 -0.04827398
v 0.04048708 0.006732364 -0.04827398
v 0.04048708 0.006732364 0.04850737
v 0.04133955 0.007584529 0.04853123
v 0.04048708 0.006732364 0.04850737
v 0.008910836 0.03832696 0.04850737
v 0.006448536 0.04249514 0.04853123
v -0.008496535 0.02755875 0.04782994
v -0.005181823 0.02424224 0.04782994
v 0.006448536 0.04249514 -0.04827398
v -0.0121285 0.02392883 -0.04827398
v -0.008814036 0.02061245 -0.04827398
v 0.008910836 0.03832696 -0.04827398
v 0.04133955 0.007584529 -0.04827398
v 0.04048708 0.006732364 -0.04827398
v -0.005181823 0.02424224 0.04782994
v -0.008814036 0.02061245 0.03831536
v -0.0121285 0.02392883 0.03831536
v -0.008496535 0.02755875 0.04782994
v -0.0121285 0.02392883 0.03831536
v -0.008814036 0.02061245 0.03831536
v -0.008814036 0.02061245 -0.04827398
v -0.0121285 0.02392883 -0.04827398
v 0.006448536 0.04249514 -0.04827398
v 0.04133955 0.007584529 -0.04827398
v 0.04133955 0.007584529 0.04853123
v 0.006448536 0.04249514 0.04853123
v -0.0121285 0.02392883 0.03831536
v -0.0121285 0.02392883 -0.04827398
v 0.006448536 0.04249514 -0.04827398
v 0.006448536 0.04249514 0.04853123
v -0.008496535 0.02755875 0.04782994
vn 0.7069076 -0.7073058 0
vn 0.7069076 -0.7073058 0
vn 0.7069076 -0.7073058 0
vn 0.7069076 -0.7073058 0
vn 0.7073652 0.7068483 0
vn 0.7073652 0.7068483 0
vn 0.7073652 0.7068483 0
vn 0.7073651 0.7068484 0
vn 0.7072973 0.7069161 8.16833E-05
vn 0.7072824 0.7069311 0
vn 0.7073163 0.7068971 -4.695272E-06
vn 0.7073083 0.7069052 3.864531E-05
vn -3.627233E-07 0 1
vn -3.627233E-07 0 1
vn -3.627233E-07 0 1
vn 0 0 1
vn -0.7073087 -0.7069048 0
vn -0.7073087 -0.7069048 0
vn -0.7073087 -0.7069048 0
vn -0.707307 -0.7069064 9.638978E-07
vn -0.7073014 -0.7069121 0
vn 0 0 -1
vn 0 0 -1
vn 0 0 -1
vn 0 0 -1
vn -4.819493E-07 0 -1
vn -2.394943E-07 0 -1
vn 0 0 -1
vn 0 0 -1
vn 0.7069052 -0.7073083 0
vn 0.7069052 -0.7073083 0
vn 0.7069052 -0.7073083 0
vn 0.7069055 -0.707308 0
vn 5.523545E-07 0 1
vn 5.523545E-07 0 1
vn 5.523545E-07 0 1
vn -5.248435E-07 0 1
vn -0.8438215 0.4138528 0.3416009
vn -0.8438215 0.4138528 0.3416009
vn -0.8438215 0.4138528 0.3416009
vn -0.8438078 0.4139221 0.3415509
vn -0.843823 0.4138508 0.3415996
vn -0.8438665 0.4137225 0.3416473
vn -0.8438147 0.4138597 0.3416094
vn -0.8438147 0.4138597 0.3416094
vn 0.7069129 -0.7073006 -0.0001995109
vn 0.7069129 -0.7073006 -0.0001995109
vn 0.7069129 -0.7073006 -0.0001995109
vn 0.7069051 -0.7073084 4.873628E-05
vn 0.7069126 -0.7073009 -2.018326E-05
vn 0.7069076 -0.707306 0
vn 0.7069412 -0.7072722 0.0002154624
vn 0.7069021 -0.7073114 0
vn 0.7069034 -0.7073101 -7.247427E-07
vn 0.7069007 -0.7073128 0
vn 0.7069022 -0.7073112 -1.176851E-05
vn 1.544997E-06 0 1
vn 1.544997E-06 0 1
vn 1.544997E-06 0 1
vn 0 0 1
vn 5.970039E-07 0 1
vn 5.970039E-07 0 1
vn -0.7068853 0.7073283 0
vn -0.7068853 0.7073283 0
vn -0.7068853 0.7073283 0
vn -0.7068854 0.7073281 0
vn -0.7073216 -0.706892 0
vn -0.7073216 -0.706892 0
vn -0.7073216 -0.706892 0
vn -0.7073218 -0.7068918 0
vn -0.7073082 -0.7069052 0
vn -0.7073082 -0.7069052 0
vn -0.7073082 -0.7069052 0
vn -0.7073077 -0.7069058 -4.043618E-07
vn -0.7073074 -0.706906 0
vn -0.7073074 -0.706906 0
vn 0.7068943 -0.7073191 0
vn 0.7068943 -0.7073191 0
vn 0.7068943 -0.7073191 0
vn 0.7068943 -0.7073191 0
vn 0.7068979 -0.7073156 -0.0001003385
vn 0.7069043 -0.7073091 0
vn 0.7069043 -0.7073091 0
vn 0.707309 0.7069044 0
vn 0.707309 0.7069044 0
vn 0.707309 0.7069044 0
vn 0.7072999 0.7069135 5.031746E-05
vn 0.7073102 0.7069032 0
vn 0.707313 0.7069004 -1.858867E-07
vn 0.7073093 0.7069042 0
vn 0.7073064 0.706907 0
vn 0.7073064 0.706907 0
vn -0.7069122 0.7073013 0
vn -0.7069122 0.7073013 0
vn -0.7069122 0.7073013 0
vn -0.7069122 0.7073013 0
vn -0.5618246 -0.5615045 0.6075079
vn -0.5618246 -0.5615045 0.6075079
vn -0.5618246 -0.5615045 0.6075079
vn -0.5618271 -0.5615102 0.6075003
vn -0.5120016 -0.5116916 -0.6899464
vn -0.5120016 -0.5116916 -0.6899464
vn -0.5120016 -0.5116916 -0.6899464
vn -0.5119689 -0.5116689 -0.6899876
vn 0.01126554 0.01125921 -0.9998732
vn 0.01126554 0.01125921 -0.9998732
vn 0.01126554 0.01125921 -0.9998732
vn 0.01126648 0.01125943 -0.9998732
vn 0.01126597 0.01125843 -0.9998732
vn 0.01126597 0.01125843 -0.9998732
vn 0.1342344 0.1341579 -0.9818263
vn 0.1342344 0.1341579 -0.9818263
vn 0.1342344 0.1341579 -0.9818263
vn 0.1342135 0.1341368 -0.981832
vn 0.3702013 0.3699924 -0.8520896
vn 0.3702013 0.3699924 -0.8520896
vn 0.3702013 0.3699924 -0.8520896
vn 0.3702032 0.3699929 -0.8520885
vn 0.7073081 0.7069054 -2.471294E-05
vn 0.707312 0.7069014 0
vn 0.7073081 0.7069054 -2.471294E-05
vn 0.7073081 0.7069054 -2.471294E-05
vn 0.7071867 0.707027 0
vn 0.7071851 0.7070285 0
vn 0.707307 0.7069065 0.0001711098
vn 0.7073116 0.7069018 0
vn 0.03656812 0.03654748 0.9986627
vn 0.03656812 0.03654748 0.9986627
vn 0.03656812 0.03654748 0.9986627
vn 0.03656854 0.03654755 0.9986626
vn -0.7069263 0.7072872 0
vn -0.7069263 0.7072872 0
vn -0.7069263 0.7072872 0
vn -0.7067667 0.7074467 1.796154E-05
vn -0.707054 0.7071595 -2.0453E-05
vn -0.7069007 0.7073128 -1.958177E-05
vn -0.7068996 0.7073138 0
vn -0.7069213 0.7072921 0
vn -0.7068974 0.707316 1.966956E-05
vn -0.7069075 0.7073061 -3.563693E-06
vn -0.7069002 0.7073132 3.22395E-05
vn -0.7069096 0.7073039 0
vn -0.7069095 0.7073039 -3.580815E-05
vn 2.782994E-07 0 -1
vn 2.782994E-07 0 -1
vn 2.782994E-07 0 -1
vn 0 0 -1
vn 0.7069744 -0.7072392 0
vn 0.7069744 -0.7072392 0
vn 0.7069744 -0.7072392 0
vn 0.7069793 -0.7072343 0
vn -0.01401256 -0.01400169 0.9998038
vn -0.01400433 -0.01399641 0.999804
vn -0.01401256 -0.01400169 0.9998038
vn -0.01401256 -0.01400169 0.9998038
vn -0.02403334 -0.02402082 0.9994226
vn -0.02403334 -0.02402082 0.9994226
vn -1.161639E-06 0 -1
vn -1.161639E-06 0 -1
vn -1.161639E-06 0 -1
vn 0 0 -1
vn 0 0 -1
vn 1.107032E-06 0 -1
vn -0.6224458 -0.622085 0.4749437
vn -0.6224458 -0.622085 0.4749437
vn -0.6224458 -0.622085 0.4749437
vn -0.6224361 -0.6220989 0.4749382
vn -0.7073116 -0.7069018 0
vn -0.7073116 -0.7069018 0
vn -0.7073116 -0.7069018 0
vn -0.7073117 -0.7069017 0
vn 0.7073053 0.7069083 0
vn 0.7073053 0.7069083 0
vn 0.7073053 0.7069083 0
vn 0.7073053 0.7069083 0
vn -0.7069025 0.707311 0
vn -0.7069025 0.707311 0
vn -0.7069025 0.707311 0
vn -0.7069025 0.707311 0
vn -0.7069012 0.7073122 -4.528396E-06
g instance_0.019_0
f 3/3/3 2/2/2 1/1/1
f 1/1/1 4/4/4 3/3/3
f 7/7/7 6/6/6 5/5/5
f 5/5/5 8/8/8 7/7/7
f 8/8/8 9/9/9 7/7/7
f 8/8/8 10/10/10 9/9/9
f 9/9/9 11/11/11 7/7/7
f 9/9/9 12/12/12 11/11/11
f 15/15/15 14/14/14 13/13/13
f 13/13/13 16/16/16 15/15/15
f 19/19/19 18/18/18 17/17/17
f 17/17/17 20/20/20 19/19/19
f 17/17/17 21/21/21 20/20/20
f 24/24/24 23/23/23 22/22/22
f 22/22/22 25/25/25 24/24/24
f 25/25/25 26/26/26 24/24/24
f 26/26/26 27/27/27 24/24/24
f 27/27/27 28/28/28 24/24/24
f 27/27/27 29/29/29 28/28/28
f 32/32/32 31/31/31 30/30/30
f 30/30/30 33/33/33 32/32/32
f 36/36/36 35/35/35 34/34/34
f 34/34/34 37/37/37 36/36/36
f 40/40/40 39/39/39 38/38/38
f 38/38/38 41/41/41 40/40/40
f 38/38/38 42/42/42 41/41/41
f 38/38/38 43/43/43 42/42/42
f 42/42/42 43/43/43 44/44/44
f 43/43/43 45/45/45 44/44/44
f 48/48/48 47/47/47 46/46/46
f 46/46/46 49/49/49 48/48/48
f 49/49/49 50/50/50 48/48/48
f 50/50/50 51/51/51 48/48/48
f 50/50/50 52/52/52 51/51/51
f 52/52/52 50/50/50 53/53/53
f 53/53/53 54/54/54 52/52/52
f 52/52/52 54/54/54 55/55/55
f 53/53/53 56/56/56 54/54/54
f 59/59/59 58/58/58 57/57/57
f 57/57/57 60/60/60 59/59/59
f 59/59/59 60/60/60 61/61/61
f 61/61/61 62/62/62 59/59/59
f 65/65/65 64/64/64 63/63/63
f 63/63/63 66/66/66 65/65/65
f 69/69/69 68/68/68 67/67/67
f 67/67/67 70/70/70 69/69/69
f 73/73/73 72/72/72 71/71/71
f 73/73/73 71/71/71 74/74/74
f 73/73/73 74/74/74 75/75/75
f 75/75/75 76/76/76 73/73/73
f 79/79/79 78/78/78 77/77/77
f 79/79/79 77/77/77 80/80/80
f 80/80/80 81/81/81 79/79/79
f 82/82/82 81/81/81 80/80/80
f 80/80/80 83/83/83 82/82/82
f 86/86/86 85/85/85 84/84/84
f 84/84/84 87/87/87 86/86/86
f 84/84/84 88/88/88 87/87/87
f 84/84/84 89/89/89 88/88/88
f 84/84/84 90/90/90 89/89/89
f 88/88/88 89/89/89 91/91/91
f 91/91/91 92/92/92 88/88/88
f 95/95/95 94/94/94 93/93/93
f 93/93/93 96/96/96 95/95/95
f 99/99/99 98/98/98 97/97/97
f 97/97/97 100/100/100 99/99/99
f 103/103/103 102/102/102 101/101/101
f 101/101/101 104/104/104 103/103/103
f 107/107/107 106/106/106 105/105/105
f 105/105/105 108/108/108 107/107/107
f 107/107/107 108/108/108 109/109/109
f 109/109/109 110/110/110 107/107/107
f 113/113/113 112/112/112 111/111/111
f 111/111/111 114/114/114 113/113/113
f 117/117/117 116/116/116 115/115/115
f 115/115/115 118/118/118 117/117/117
f 121/121/121 120/120/120 119/119/119
f 121/121/121 119/119/119 122/122/122
f 122/122/122 123/123/123 121/121/121
f 123/123/123 122/122/122 124/124/124
f 124/124/124 125/125/125 123/123/123
f 125/125/125 126/126/126 123/123/123
f 129/129/129 128/128/128 127/127/127
f 127/127/127 130/130/130 129/129/129
f 133/133/133 132/132/132 131/131/131
f 131/131/131 134/134/134 133/133/133
f 131/131/131 135/135/135 134/134/134
f 135/135/135 136/136/136 134/134/134
f 136/136/136 135/135/135 137/137/137
f 131/131/131 138/138/138 135/135/135
f 131/131/131 139/139/139 138/138/138
f 131/131/131 140/140/140 139/139/139
f 131/131/131 141/141/141 140/140/140
f 141/141/141 142/142/142 140/140/140
f 141/141/141 143/143/143 142/142/142
f 146/146/146 145/145/145 144/144/144
f 144/144/144 147/147/147 146/146/146
f 150/150/150 149/149/149 148/148/148
f 148/148/148 151/151/151 150/150/150
f 154/154/154 153/153/153 152/152/152
f 152/152/152 155/155/155 154/154/154
f 155/155/155 156/156/156 154/154/154
f 156/156/156 157/157/157 154/154/154
f 160/160/160 159/159/159 158/158/158
f 158/158/158 161/161/161 160/160/160
f 158/158/158 162/162/162 161/161/161
f 162/162/162 163/163/163 161/161/161
f 166/166/166 165/165/165 164/164/164
f 164/164/164 167/167/167 166/166/166
f 170/170/170 169/169/169 168/168/168
f 168/168/168 171/171/171 170/170/170
f 174/174/174 173/173/173 172/172/172
f 172/172/172 175/175/175 174/174/174
f 178/178/178 177/177/177 176/176/176
f 176/176/176 179/179/179 178/178/178
f 176/176/176 180/180/180 179/179/179
