g instance_0.230
v -0.3309999 0.1290001 0.2969003
v -0.2609999 0.05900017 0.2969003
v -0.2609999 0.05900017 3.798218E-07
v -0.331 0.1290001 3.798218E-07
v -0.3309999 0.1290001 0.2969003
v -0.2300613 0.2300605 0.2969003
v -0.2609999 0.05900017 0.2969003
v -0.2200913 -0.2200012 0.2969003
v -0.3785229 -0.05925889 0.2969003
v -0.1800613 -0.09993957 0.2969003
v -0.04012239 0.04012158 0.2969003
v -0.14 -0.14 0.2969003
v -0.14 -0.14 0.2969003
v -0.1800613 -0.09993957 0.2969003
v -0.1101224 -0.02987873 0.2669004
v -0.06999996 -0.06999993 0.2669004
v -0.3785229 -0.05925889 0.2969003
v -0.3785228 -0.05925865 3.643188E-07
v -0.2609999 0.05900017 3.798218E-07
v -0.2609999 0.05900017 0.2969003
v -0.2300613 0.2300605 0.2969003
v -0.3309999 0.1290001 0.2969003
v -0.331 0.1290001 3.798218E-07
v -0.2300612 0.2300607 3.643188E-07
v -0.1101224 -0.02987873 0.2669004
v -0.1800613 -0.09993957 0.2969003
v -0.04012239 0.04012158 0.2969003
v -0.04000022 0.03999954 0.2669004
v -0.4730352 -0.01241673 3.798218E-07
v -0.331 0.1290001 3.798218E-07
v -0.331 0.1290001 0.4000004
v -0.4730352 -0.01241673 0.4000004
v -0.331 0.1290001 3.798218E-07
v -0.2609999 0.05900017 3.798218E-07
v -0.2609999 0.05900017 0.4000004
v -0.331 0.1290001 0.4000004
v -0.2609999 0.05900017 3.798218E-07
v -0.4023244 -0.08312745 3.798218E-07
v -0.4023244 -0.08312745 0.4000004
v -0.2609999 0.05900017 0.4000004
v -0.4023244 -0.08312745 3.798218E-07
v -0.4730352 -0.01241673 3.798218E-07
v -0.4730352 -0.01241673 0.4000004
v -0.4023244 -0.08312745 0.4000004
v -0.2609999 0.05900017 0.4000004
v -0.4023244 -0.08312745 0.4000004
v -0.4730352 -0.01241673 0.4000004
v -0.331 0.1290001 0.4000004
v -0.06999996 -0.06999993 0.2669004
v -1.262111E-07 -3.176359E-07 0.2669
v -1.240234E-07 -2.480469E-07 -7.751464E-09
v -0.06999996 -0.07000002 0.2669004
v -0.06999996 -0.07000002 0.2669004
v -1.240234E-07 -2.480469E-07 -7.751464E-09
v -0.0400001 0.04000004 -7.751464E-09
v -0.1100002 -0.03000028 3.488159E-07
v -0.1101224 -0.02987873 0.2669004
v -0.04012233 0.04012158 0.2669
v -1.262111E-07 -3.176359E-07 0.2669
v -0.06999996 -0.06999993 0.2669004
v -0.3785228 -0.05925865 3.643188E-07
v -0.3785229 -0.05925889 0.2969003
v -0.2200913 -0.2200012 0.2969003
v -0.2200932 -0.219999 3.643188E-07
v -0.04000022 0.03999954 0.2669004
v -0.04012239 0.04012158 0.2969003
v -0.2300613 0.2300605 0.2969003
v -0.04012239 0.04012158 0.2669004
v -0.04012233 0.04012158 0.2669
v -0.2300612 0.2300607 3.643188E-07
v -1.262111E-07 -3.176359E-07 0.2669
v -1.240234E-07 -2.480469E-07 -7.751464E-09
v -0.0400001 0.04000004 -7.751464E-09
vt 0 0
vt 0 0
vt 0 0
vt 0 0
vt 0 0
vt 0 0
vt 0 0
vt 0 0
vt 0 0
vt 0 0
vt 0 0
vt 0 0
vt 0 0
vt 0 0
vt 0 0
vt 0 0
vt 0 0
vt 0 0
vt 0 0
vt 0 0
vt 0 0
vt 0 0
vt 0 0
vt 0 0
vt 0 0
vt 0 0
vt 0 0
vt 0 0
vt 0.375 0
vt 0.375 0.25
vt 0.625 0.25
vt 0.625 0
vt 0.375 0.25
vt 0.375 0.5
vt 0.625 0.5
vt 0.625 0.25
vt 0.375 0.5
vt 0.375 0.75
vt 0.625 0.75
vt 0.625 0.5
vt 0.375 0.75
vt 0.375 1
vt 0.625 1
vt 0.625 0.75
vt 0.625 0.5
vt 0.625 0.75
vt 0.875 0.75
vt 0.875 0.5
vt 0 0
vt 0 0
vt 0 0
vt 0 0
vt 0 0
vt 0 0
vt 0 0
vt 0 0
vt 0 0
vt 0 0
vt 0 0
vt 0 0
vt 0 0
vt 0 0
vt 0 0
vt 0 0
vt 0 0
vt 0 0
vt 0 0
vt 0 0
vt 0 0
vt 0 0
vt 0 0
vt 0 0
vt 0 0
vn -0.7071065 -0.7071071 1.706718E-07
vn -0.7071065 -0.7071071 1.706718E-07
vn -0.7071065 -0.7071071 1.706718E-07
vn -0.7071065 -0.7071071 1.706718E-07
vn 0 0 1
vn 0 0 1
vn 0 0 1
vn 0 0 1
vn 0 0 1
vn 0 0 1
vn 0 0 1
vn 0 0 1
vn 0.205073 0.2050782 0.9570204
vn 0.205073 0.2050782 0.9570204
vn 0.205073 0.2050782 0.9570204
vn 0.205073 0.2050782 0.9570204
vn -0.7093107 0.704896 2.715909E-07
vn -0.7093107 0.704896 2.715909E-07
vn -0.7093107 0.704896 2.715909E-07
vn -0.7093107 0.704896 2.715909E-07
vn -0.7075329 0.7066804 3.076387E-07
vn -0.7075329 0.7066804 3.076387E-07
vn -0.7075329 0.7066804 3.076387E-07
vn -0.7075329 0.7066804 3.076387E-07
vn 0.706901 -0.7073119 -0.0009554205
vn 0.706901 -0.7073119 -0.0009554205
vn 0.706901 -0.7073119 -0.0009554205
vn 0.706901 -0.7073119 -0.0009554205
vn -0.7055628 0.7086475 0
vn -0.7055628 0.7086475 0
vn -0.7055628 0.7086475 0
vn -0.7055628 0.7086475 0
vn 0.7071064 0.7071072 0
vn 0.7071064 0.7071072 0
vn 0.7071064 0.7071072 0
vn 0.7071064 0.7071072 0
vn 0.7091074 -0.7051004 0
vn 0.7091074 -0.7051004 0
vn 0.7091074 -0.7051004 0
vn 0.7091074 -0.7051004 0
vn -0.7071068 -0.7071068 0
vn -0.7071068 -0.7071068 0
vn -0.7071068 -0.7071068 0
vn -0.7071068 -0.7071068 0
vn 1.530288E-07 0 1
vn 1.530288E-07 0 1
vn 1.530288E-07 0 1
vn 1.530288E-07 0 1
vn 0.7071059 -0.7071075 0
vn 0.7071059 -0.7071075 0
vn 0.7071059 -0.7071075 0
vn 0.7071059 -0.7071075 0
vn 0.2469238 -0.9053909 -0.3453923
vn 0.2469238 -0.9053909 -0.3453923
vn 0.2469238 -0.9053909 -0.3453923
vn 0.2469238 -0.9053909 -0.3453923
vn 2.58068E-06 2.452331E-06 1
vn 2.58068E-06 2.452331E-06 1
vn 2.58068E-06 2.452331E-06 1
vn 2.58068E-06 2.452331E-06 1
vn -0.7122075 -0.701969 -7.059119E-07
vn -0.7122075 -0.701969 -7.059119E-07
vn -0.7122075 -0.701969 -7.059119E-07
vn -0.7122075 -0.701969 -7.059119E-07
vn 0.7071064 0.7071071 1.189852E-06
vn 0.7071064 0.7071071 1.189852E-06
vn 0.7071064 0.7071071 1.189852E-06
vn 0.7071064 0.7071071 1.189852E-06
vn 0.7071064 0.7071071 1.189852E-06
vn 0.7071064 0.7071071 1.189852E-06
vn 0.7071064 0.7071071 1.189852E-06
vn 0.7071064 0.7071071 1.189852E-06
vn 0.7071064 0.7071071 1.189852E-06
g instance_0.230_0
f 3/3/3 2/2/2 1/1/1
f 4/4/4 3/3/3 1/1/1
f 7/7/7 6/6/6 5/5/5
f 6/6/6 7/7/7 8/8/8
f 7/7/7 9/9/9 8/8/8
f 6/6/6 8/8/8 10/10/10
f 10/10/10 11/11/11 6/6/6
f 12/12/12 10/10/10 8/8/8
f 15/15/15 14/14/14 13/13/13
f 16/16/16 15/15/15 13/13/13
f 19/19/19 18/18/18 17/17/17
f 20/20/20 19/19/19 17/17/17
f 23/23/23 22/22/22 21/21/21
f 24/24/24 23/23/23 21/21/21
f 27/27/27 26/26/26 25/25/25
f 25/25/25 28/28/28 27/27/27
f 31/31/31 30/30/30 29/29/29
f 32/32/32 31/31/31 29/29/29
f 35/35/35 34/34/34 33/33/33
f 36/36/36 35/35/35 33/33/33
f 39/39/39 38/38/38 37/37/37
f 40/40/40 39/39/39 37/37/37
f 43/43/43 42/42/42 41/41/41
f 44/44/44 43/43/43 41/41/41
f 47/47/47 46/46/46 45/45/45
f 48/48/48 47/47/47 45/45/45
f 51/51/51 50/50/50 49/49/49
f 52/52/52 51/51/51 49/49/49
f 55/55/55 54/54/54 53/53/53
f 56/56/56 55/55/55 53/53/53
f 59/59/59 58/58/58 57/57/57
f 60/60/60 59/59/59 57/57/57
f 63/63/63 62/62/62 61/61/61
f 64/64/64 63/63/63 61/61/61
f 67/67/67 66/66/66 65/65/65
f 67/67/67 65/65/65 68/68/68
f 67/67/67 68/68/68 69/69/69
f 69/69/69 70/70/70 67/67/67
f 70/70/70 69/69/69 71/71/71
f 70/70/70 71/71/71 72/72/72
f 72/72/72 73/73/73 70/70/70
