g instance_0.001
v 0.08542709 -0.0831432 0.03393933
v 0.05925542 -0.176061 0.03393933
v 0.072611 -0.1286442 0.03393933
v 0.008106916 -0.06136472 0.03393933
v 0.05696204 -0.1944749 0.03393933
v -0.002973834 -0.2079138 0.03393933
v -0.003072123 -0.022395 0.03393933
v -0.04714745 -0.1545685 0.03393933
v -0.0271429 -0.0835468 0.03393933
v -0.04152137 -0.03342472 0.03393933
v -0.04152137 -0.03342472 -0.04499995
v -0.0271429 -0.0835468 -0.04499995
v -0.003072117 -0.022395 -0.04499995
v -0.04714744 -0.1545685 -0.04499995
v -0.002973828 -0.2079138 -0.04499995
v 0.008106921 -0.06136472 -0.04499995
v 0.05696205 -0.1944749 -0.04499995
v 0.05925542 -0.176061 -0.04499995
v 0.0854271 -0.0831432 -0.04499995
v 0.05696204 -0.1944749 0.03393933
v 0.05925542 -0.176061 0.03393933
v 0.05925542 -0.176061 -0.04499995
v 0.05696205 -0.1944749 -0.04499995
v -0.0271429 -0.0835468 0.03393933
v -0.04714745 -0.1545685 0.03393933
v -0.04714744 -0.1545685 -0.04499995
v -0.0271429 -0.0835468 -0.04499995
v -0.04152137 -0.03342472 0.03393933
v -0.0271429 -0.0835468 0.03393933
v -0.0271429 -0.0835468 -0.04499995
v -0.04152137 -0.03342472 -0.04499995
v 0.08542709 -0.0831432 0.03393933
v 0.008106916 -0.06136472 0.03393933
v 0.008106921 -0.06136472 -0.04499995
v 0.0854271 -0.0831432 -0.04499995
v 0.008106916 -0.06136472 0.03393933
v -0.003072123 -0.022395 0.03393933
v -0.003072117 -0.022395 -0.04499995
v 0.008106921 -0.06136472 -0.04499995
v 0.05925542 -0.176061 0.03393933
v 0.08542709 -0.0831432 0.03393933
v 0.0854271 -0.0831432 -0.04499995
v 0.05925542 -0.176061 -0.04499995
v -0.002973834 -0.2079138 0.03393933
v 0.05696204 -0.1944749 0.03393933
v 0.05696205 -0.1944749 -0.04499995
v -0.002973828 -0.2079138 -0.04499995
v -0.04714745 -0.1545685 0.03393933
v -0.002973834 -0.2079138 0.03393933
v -0.002973828 -0.2079138 -0.04499995
v -0.04714744 -0.1545685 -0.04499995
v -0.003072123 -0.022395 0.03393933
v -0.04152137 -0.03342472 0.03393933
v -0.04152137 -0.03342472 -0.04499995
v -0.003072117 -0.022395 -0.04499995
vn 0 0 1
vn 0 0 1
vn 0 0 1
vn 0 0 1
vn 0 0 1
vn 0 0 1
vn 0 0 1
vn 0 0 1
vn 0 0 1
vn 0 0 1
vn 0 0 -1
vn 0 0 -1
vn 0 0 -1
vn 0 0 -1
vn 0 0 -1
vn 0 0 -1
vn 0 0 -1
vn 0 0 -1
vn 0 0 -1
vn 0.9923333 -0.1235907 0
vn 0.9923333 -0.1235907 0
vn 0.9923333 -0.1235907 0
vn 0.9923333 -0.1235907 0
vn -0.9625461 0.2711183 0
vn -0.9625461 0.2711183 0
vn -0.9625461 0.2711183 0
vn -0.9625461 0.2711183 0
vn -0.9612302 -0.2757471 0
vn -0.9612302 -0.2757471 0
vn -0.9612302 -0.2757471 0
vn -0.9612302 -0.2757471 0
vn 0.2711168 0.9625465 0
vn 0.2711168 0.9625465 0
vn 0.2711168 0.9625465 0
vn 0.2711168 0.9625465 0
vn 0.9612313 0.2757434 0
vn 0.9612313 0.2757434 0
vn 0.9612313 0.2757434 0
vn 0.9612313 0.2757434 0
vn 0.9625468 -0.2711156 0
vn 0.9625468 -0.2711156 0
vn 0.9625468 -0.2711156 0
vn 0.9625468 -0.2711156 0
vn 0.2187891 -0.9757722 1.234437E-07
vn 0.2187891 -0.9757722 1.234437E-07
vn 0.2187891 -0.9757722 1.234437E-07
vn 0.2187891 -0.9757722 1.234437E-07
vn -0.7702115 -0.6377885 0
vn -0.7702115 -0.6377885 0
vn -0.7702115 -0.6377885 0
vn -0.7702115 -0.6377885 0
vn -0.2757429 0.9612314 0
vn -0.2757429 0.9612314 0
vn -0.2757429 0.9612314 0
vn -0.2757429 0.9612314 0
g instance_0.001_0
f 3/3/3 2/2/2 1/1/1
f 2/2/2 1/1/1 4/4/4
f 4/4/4 5/5/5 2/2/2
f 4/4/4 6/6/6 5/5/5
f 4/4/4 7/7/7 6/6/6
f 7/7/7 8/8/8 6/6/6
f 7/7/7 9/9/9 8/8/8
f 9/9/9 7/7/7 10/10/10
f 13/13/13 12/12/12 11/11/11
f 14/14/14 12/12/12 13/13/13
f 15/15/15 14/14/14 13/13/13
f 15/15/15 13/13/13 16/16/16
f 17/17/17 15/15/15 16/16/16
f 18/18/18 17/17/17 16/16/16
f 16/16/16 19/19/19 18/18/18
f 22/22/22 21/21/21 20/20/20
f 23/23/23 22/22/22 20/20/20
f 26/26/26 25/25/25 24/24/24
f 27/27/27 26/26/26 24/24/24
f 30/30/30 29/29/29 28/28/28
f 31/31/31 30/30/30 28/28/28
f 34/34/34 33/33/33 32/32/32
f 35/35/35 34/34/34 32/32/32
f 38/38/38 37/37/37 36/36/36
f 39/39/39 38/38/38 36/36/36
f 42/42/42 41/41/41 40/40/40
f 43/43/43 42/42/42 40/40/40
f 46/46/46 45/45/45 44/44/44
f 47/47/47 46/46/46 44/44/44
f 50/50/50 49/49/49 48/48/48
f 51/51/51 50/50/50 48/48/48
f 54/54/54 53/53/53 52/52/52
f 55/55/55 54/54/54 52/52/52
