g Jet_lightbeam01
v -0.01 -1.110223E-18 0.005
v 0 1.110223E-18 -0.005
v 0 -1.110223E-18 0.005
v -0.01 1.110223E-18 -0.005
v -0.01 0.004330127 -0.0025
v 0 -0.004330127 0.0025
v 0 0.004330127 -0.0025
v -0.01 -0.004330127 0.0025
v -0.01 -0.004330127 -0.0025
v 0 0.004330127 0.0025
v 0 -0.004330127 -0.0025
v -0.01 0.004330127 0.0025
vt 0 0
vt 1 1
vt 1 0
vt 0 1
vt 0 0
vt 1 1
vt 1 0
vt 0 1
vt 0 0
vt 1 1
vt 1 0
vt 0 1
vn 0 1 0
vn 0 1 0
vn 0 1 0
vn 0 1 0
vn 0 -0.5 -0.8660254
vn 0 -0.5 -0.8660254
vn 0 -0.5 -0.8660254
vn 0 -0.5 -0.8660254
vn 0 -0.5 0.8660254
vn 0 -0.5 0.8660254
vn 0 -0.5 0.8660254
vn 0 -0.5 0.8660254
g Jet_lightbeam01_0
f 3/3/3 2/2/2 1/1/1
f 3/3/3 2/2/2 1/1/1
f 2/2/2 4/4/4 1/1/1
f 2/2/2 4/4/4 1/1/1
f 7/7/7 6/6/6 5/5/5
f 7/7/7 6/6/6 5/5/5
f 6/6/6 8/8/8 5/5/5
f 6/6/6 8/8/8 5/5/5
f 11/11/11 10/10/10 9/9/9
f 11/11/11 10/10/10 9/9/9
f 10/10/10 12/12/12 9/9/9
f 10/10/10 12/12/12 9/9/9
