g lift
v -0.04242645 -4.008961E-08 -0.01886701
v -2.36783E-08 -0.04242645 -0.01886701
v 0.04242635 -4.239082E-08 -0.01886701
v 5.601644E-09 0.04242641 -0.01886701
v -0.04242645 -4.008961E-08 -0.00886701
v 5.601644E-09 0.04242641 -0.00886701
v 0.04242635 -4.239082E-08 -0.00886701
v -2.36783E-08 -0.04242645 -0.00886701
v -2.36783E-08 -0.04242645 -0.01886701
v -0.04242645 -4.008961E-08 -0.01886701
v -0.04242645 -4.008961E-08 -0.00886701
v -2.36783E-08 -0.04242645 -0.00886701
v 5.601644E-09 0.04242641 -0.01886701
v 0.04242635 -4.239082E-08 -0.01886701
v 0.04242635 -4.239082E-08 -0.00886701
v 5.601644E-09 0.04242641 -0.00886701
v -0.04242645 -4.008961E-08 -0.01886701
v 5.601644E-09 0.04242641 -0.01886701
v 5.601644E-09 0.04242641 -0.00886701
v -0.04242645 -4.008961E-08 -0.00886701
v 0.04242635 -4.239082E-08 -0.01886701
v -2.36783E-08 -0.04242645 -0.01886701
v -2.36783E-08 -0.04242645 -0.00886701
v 0.04242635 -4.239082E-08 -0.00886701
vn 0 0 -1
vn 0 0 -1
vn 0 0 -1
vn 0 0 -1
vn 0 0 1
vn 0 0 1
vn 0 0 1
vn 0 0 1
vn -0.7071066 -0.7071069 0
vn -0.7071066 -0.7071069 0
vn -0.7071066 -0.7071069 0
vn -0.7071066 -0.7071069 0
vn 0.7071077 0.7071059 0
vn 0.7071077 0.7071059 0
vn 0.7071077 0.7071059 0
vn 0.7071077 0.7071059 0
vn -0.7071066 0.7071069 0
vn -0.7071066 0.7071069 0
vn -0.7071066 0.7071069 0
vn -0.7071066 0.7071069 0
vn 0.7071071 -0.7071064 0
vn 0.7071071 -0.7071064 0
vn 0.7071071 -0.7071064 0
vn 0.7071071 -0.7071064 0
g lift_0
f 3/3/3 2/2/2 1/1/1
f 4/4/4 3/3/3 1/1/1
f 7/7/7 6/6/6 5/5/5
f 8/8/8 7/7/7 5/5/5
f 11/11/11 10/10/10 9/9/9
f 12/12/12 11/11/11 9/9/9
f 15/15/15 14/14/14 13/13/13
f 16/16/16 15/15/15 13/13/13
f 19/19/19 18/18/18 17/17/17
f 20/20/20 19/19/19 17/17/17
f 23/23/23 22/22/22 21/21/21
f 24/24/24 23/23/23 21/21/21
