g Line005
v 0.04641544 -0.0183199 0
v 0.04652618 -0.0181866 0
v 0.04656816 -0.01839548 0
v 0.04607746 -0.01800763 0
v 0.04630942 -0.01773472 0
v 0.04558017 -0.01752321 0
v 0.045936 -0.01710912 0
v 0.04494958 -0.01693121 0
v 0.04542402 -0.01637908 0
v 0.04421167 -0.01629616 0
v 0.04479161 -0.01561388 0
v 0.04339241 -0.01568264 0
v 0.04405684 -0.01488279 0
v 0.04323784 -0.01425509 0
v 0.04251777 -0.01515518 0
v 0.04228921 -0.01370218 0
v 0.04154999 -0.01468126 0
v 0.04117971 -0.01315295 0
v 0.04045335 -0.01419264 0
v 0.03994873 -0.0126129 0
v 0.039257 -0.01370035 0
v 0.0386356 -0.01208754 0
v 0.03799005 -0.0132154 0
v 0.03727971 -0.01158239 0
v 0.03668164 -0.01274883 0
v 0.03592039 -0.01110296 0
v 0.03536091 -0.01231165 0
v 0.03459704 -0.01065475 0
v 0.03405697 -0.01191487 0
v 0.03327918 -0.01022807 0
v 0.03274043 -0.01154933 0
v 0.03192171 -0.009814762 0
v 0.03137561 -0.01120215 0
v 0.03054193 -0.009422714 0
v 0.02998219 -0.01087886 0
v 0.02915717 -0.009059793 0
v 0.02857984 -0.01058495 0
v 0.02778473 -0.008733874 0
v 0.02718825 -0.01032595 0
v 0.02644195 -0.008452826 0
v 0.02582711 -0.01010736 0
v 0.02514614 -0.008224525 0
v 0.02451609 -0.009934687 0
v 0.02393011 -0.008074686 0
v 0.02329035 -0.009831295 0
v 0.02278938 -0.008004884 0
v 0.02214411 -0.009800067 0
v 0.0216854 -0.007986778 0
v 0.02103567 -0.009815811 0
v 0.02057958 -0.007992028 0
v 0.01992328 -0.009853335 0
v 0.01943335 -0.007992291 0
v 0.01876524 -0.009887449 0
v 0.01820813 -0.007959227 0
v 0.01751982 -0.00989296 0
v 0.01686535 -0.007864494 0
v 0.01614529 -0.009844675 0
v 0.01539268 -0.007725414 0
v 0.014628 -0.009757291 0
v 0.01382028 -0.00757295 0
v 0.0130005 -0.009658099 0
v 0.01217337 -0.007399231 0
v 0.01129034 -0.009540798 0
v 0.01047712 -0.007196383 0
v 0.009525069 -0.009399096 0
v 0.008756724 -0.006956537 0
v 0.007732247 -0.009226689 0
v 0.00703738 -0.006671814 0
v 0.005939424 -0.009017282 0
v 0.005344276 -0.006334348 0
v 0.004174156 -0.008764577 0
v 0.003650911 -0.005944399 0
v 0.002425682 -0.008464374 0
v 0.001926054 -0.005509051 0
v 0.0006659247 -0.008120872 0
v 0.0001878135 -0.005030668 0
v -0.001103543 -0.007740369 0
v -0.001545703 -0.00451161 0
v -0.002881144 -0.007329164 0
v -0.00325639 -0.00395424 0
v -0.004665306 -0.006893554 0
v -0.004926141 -0.003360919 0
v -0.006454455 -0.006439837 0
v -0.006536846 -0.002734008 0
v -0.008247013 -0.005974312 0
v -0.008101628 -0.002065636 0
v -0.01009311 -0.00549173 0
v -0.009640956 -0.001351078 0
v -0.01201084 -0.004984743 0
v -0.01114775 -0.0005974212 0
v -0.01395061 -0.004456501 0
v -0.01261491 0.0001882506 0
v -0.01586283 -0.003910152 0
v -0.01403536 0.0009988521 0
v -0.0176979 -0.003348846 0
v -0.01540202 0.001827298 0
v -0.01940623 -0.002775731 0
v -0.0167078 0.002666502 0
v -0.0209382 -0.002193956 0
v -0.0179834 0.003531422 0
v -0.0222844 -0.001611919 0
v -0.01924536 0.004433344 0
v -0.02348574 -0.00102962 0
v -0.02046533 0.00535967 0
v -0.0245682 -0.0004376104 0
v -0.02555777 0.0001735549 0
v -0.02161497 0.006297804 0
v -0.02648042 0.0008133235 0
v -0.02266594 0.007235154 0
v -0.02736214 0.001491143 0
v -0.02822889 0.002216458 0
v -0.02358991 0.008159118 0
v -0.02909644 0.003010528 0
v -0.02994693 0.003872037 0
v -0.02435852 0.009057102 0
v -0.03075595 0.004776583 0
v -0.02496706 0.009934881 0
v -0.03149911 0.00569976 0
v -0.032152 0.006617164 0
v -0.02543915 0.01080558 0
v -0.03269022 0.007504392 0
v -0.03308935 0.008337035 0
v -0.02578895 0.01166761 0
v -0.03333077 0.009127168 0
v -0.03342997 0.009900507 0
v -0.0334137 0.01065311 0
v -0.03330873 0.01138105 0
v -0.03314183 0.01208039 0
v -0.02603064 0.01251941 0
v -0.03293978 0.01274719 0
v -0.03272932 0.01337751 0
v -0.02617837 0.01335941 0
v -0.03250706 0.0139585 0
v -0.03224805 0.01448936 0
v -0.0319468 0.01498428 0
v -0.03159778 0.01545741 0
v -0.02624634 0.01418601 0
v -0.0311955 0.01592294 0
v -0.03073444 0.01639502 0
v -0.0262487 0.01499766 0
v -0.03020908 0.01688784 0
v -0.0296197 0.01739903 0
v -0.02618625 0.01580433 0
v -0.02897128 0.0179152 0
v -0.02604664 0.01661073 0
v -0.02826537 0.01843399 0
v -0.02582438 0.01740742 0
v -0.02750358 0.01895305 0
v -0.02551394 0.01818496 0
v -0.02668747 0.01947001 0
v -0.02510982 0.0189339 0
v -0.02581861 0.01998251 0
v -0.02460651 0.01964478 0
v -0.02489858 0.02048818 0
v -0.02399849 0.02030816 0
v -0.02377335 0.02104765 0
v -0.0231152 0.02097365 0
v -0.02239016 0.02168322 0
v -0.02190468 0.02166616 0
v -0.02090252 0.02233506 0
v -0.02053933 0.02233926 0
v -0.01946395 0.02294334 0
v -0.01919156 0.02294649 0
v -0.01822798 0.02344823 0
v -0.01803379 0.0234414 0
v -0.01734809 0.02378989 0
v -0.0172384 0.02377756 0
v -0.01697782 0.0239085 0
vt 0.542702 0.1152966
vt 0.5448197 0.1159153
vt 0.5426114 0.1136231
vt 0.5445859 0.1204127
vt 0.5489485 0.121647
vt 0.5476475 0.1281832
vt 0.5542867 0.1300323
vt 0.5512713 0.1378199
vt 0.5601237 0.1402853
vt 0.5548419 0.1485345
vt 0.5657485 0.1516201
vt 0.5577437 0.1595389
vt 0.5704501 0.1632509
vt 0.5735177 0.1743917
vt 0.5593613 0.1700449
vt 0.5750496 0.1855998
vt 0.5598778 0.1806012
vt 0.5757104 0.1977595
vt 0.5599011 0.1920916
vt 0.5756388 0.2105754
vt 0.5594535 0.2042298
vt 0.5749735 0.2237524
vt 0.558557 0.2167298
vt 0.5738534 0.2369952
vt 0.5572338 0.2293053
vt 0.5724173 0.2500085
vt 0.5555059 0.2416703
vt 0.5708038 0.2624969
vt 0.5533954 0.2535386
vt 0.5689689 0.2747419
vt 0.5508575 0.26518
vt 0.5667746 0.2870998
vt 0.5478579 0.2769389
vt 0.5642188 0.2993876
vt 0.5444337 0.2886408
vt 0.5612991 0.3114222
vt 0.5406224 0.3001111
vt 0.5580134 0.3230208
vt 0.5364614 0.3111756
vt 0.5543596 0.3340003
vt 0.531988 0.3216596
vt 0.5503355 0.3441778
vt 0.5272397 0.3313886
vt 0.5458115 0.3531015
vt 0.5221267 0.3399194
vt 0.5407465 0.3607833
vt 0.5165855 0.3472593
vt 0.5352705 0.367736
vt 0.5106936 0.3539098
vt 0.529514 0.3744726
vt 0.5045288 0.3603722
vt 0.5236073 0.3815057
vt 0.4981682 0.3671483
vt 0.5176805 0.3893484
vt 0.4916897 0.3747392
vt 0.5118641 0.3985133
vt 0.4851706 0.3836465
vt 0.5058935 0.4089074
vt 0.4783701 0.393811
vt 0.4995645 0.4200439
vt 0.471139 0.4047669
vt 0.4930985 0.4318449
vt 0.4636923 0.4164067
vt 0.4867164 0.4442325
vt 0.456245 0.4286223
vt 0.4806395 0.4571286
vt 0.4490122 0.4413062
vt 0.4750889 0.4704553
vt 0.4422089 0.4543504
vt 0.4702856 0.4841347
vt 0.4360501 0.4676471
vt 0.4660902 0.4983269
vt 0.4305292 0.4813035
vt 0.4622596 0.5131545
vt 0.4254527 0.4954507
vt 0.4588595 0.5284835
vt 0.4207557 0.5100181
vt 0.455956 0.5441796
vt 0.4163731 0.5249343
vt 0.4536146 0.5601087
vt 0.4122401 0.5401285
vt 0.4519015 0.5761367
vt 0.4082915 0.5555297
vt 0.4508824 0.5921295
vt 0.4044625 0.5710668
vt 0.450581 0.6082441
vt 0.4005557 0.5870986
vt 0.4509469 0.6246524
vt 0.3965632 0.6038079
vt 0.4519341 0.6412418
vt 0.3927039 0.6208595
vt 0.4534971 0.6578997
vt 0.3891966 0.6379184
vt 0.45559 0.6745138
vt 0.3862604 0.6546493
vt 0.4581671 0.6909715
vt 0.384114 0.6707173
vt 0.4611827 0.7071602
vt 0.3829764 0.6857872
vt 0.4646522 0.7234142
vt 0.3827988 0.6997193
vt 0.4686214 0.7399448
vt 0.3833703 0.7127647
vt 0.4730903 0.7564554
vt 0.3846667 0.7251751
vt 0.386664 0.7372018
vt 0.4780584 0.7726493
vt 0.389338 0.7490964
vt 0.4835255 0.7882299
vt 0.3926644 0.7611103
vt 0.3966192 0.7734951
vt 0.4894914 0.8029006
vt 0.401368 0.7865543
vt 0.4069874 0.8001657
vt 0.495956 0.8163646
vt 0.41332 0.8139417
vt 0.5030105 0.8286494
vt 0.4202081 0.8274949
vt 0.427494 0.8404378
vt 0.5106854 0.8400275
vt 0.4350204 0.8523829
vt 0.4426295 0.8629426
vt 0.5188898 0.8505707
vt 0.4505575 0.8721201
vt 0.459023 0.8802612
vt 0.4678427 0.8874916
vt 0.4768329 0.8939372
vt 0.48581 0.8997241
vt 0.5275322 0.8603506
vt 0.4945905 0.9049784
vt 0.5029908 0.9098258
vt 0.5365216 0.8694388
vt 0.5108794 0.9141202
vt 0.5183754 0.917701
vt 0.5256717 0.9206722
vt 0.5329612 0.9231381
vt 0.5457662 0.8779069
vt 0.5404367 0.925203
vt 0.5482911 0.9269708
vt 0.5551752 0.8858267
vt 0.5567174 0.9285461
vt 0.5656865 0.9299073
vt 0.5648602 0.8933002
vt 0.5750177 0.9309545
vt 0.5749395 0.9002974
vt 0.5846753 0.9316746
vt 0.5853319 0.9066927
vt 0.5946239 0.932054
vt 0.595956 0.9123603
vt 0.6048279 0.9320798
vt 0.6067307 0.9171742
vt 0.6152517 0.9317381
vt 0.6175745 0.9210087
vt 0.62586 0.9310161
vt 0.6284063 0.9237378
vt 0.6381495 0.9295583
vt 0.6406803 0.9247978
vt 0.652651 0.9272584
vt 0.6549535 0.9241122
vt 0.6678793 0.9244758
vt 0.6697987 0.9222875
vt 0.6823492 0.9215702
vt 0.6837887 0.9199288
vt 0.6945755 0.9189011
vt 0.6954966 0.9176427
vt 0.7030733 0.9168279
vt 0.7034951 0.9160346
vt 0.7063571 0.9157104
vn 0 0 1
vn 0 0 1
vn 0 0 1
vn 0 0 1
vn 0 0 1
vn 0 0 1
vn 0 0 1
vn 0 0 1
vn 0 0 1
vn 0 0 1
vn 0 0 1
vn 0 0 1
vn 0 0 1
vn 0 0 1
vn 0 0 1
vn 0 0 1
vn 0 0 1
vn 0 0 1
vn 0 0 1
vn 0 0 1
vn 0 0 1
vn 0 0 1
vn 0 0 1
vn 0 0 1
vn 0 0 1
vn 0 0 1
vn 0 0 1
vn 0 0 1
vn 0 0 1
vn 0 0 1
vn 0 0 1
vn 0 0 1
vn 0 0 1
vn 0 0 1
vn 0 0 1
vn 0 0 1
vn 0 0 1
vn 0 0 1
vn 0 0 1
vn 0 0 1
vn 0 0 1
vn 0 0 1
vn 0 0 1
vn 0 0 1
vn 0 0 1
vn 0 0 1
vn 0 0 1
vn 0 0 1
vn 0 0 1
vn 0 0 1
vn 0 0 1
vn 0 0 1
vn 0 0 1
vn 0 0 1
vn 0 0 1
vn 0 0 1
vn 0 0 1
vn 0 0 1
vn 0 0 1
vn 0 0 1
vn 0 0 1
vn 0 0 1
vn 0 0 1
vn 0 0 1
vn 0 0 1
vn 0 0 1
vn 0 0 1
vn 0 0 1
vn 0 0 1
vn 0 0 1
vn 0 0 1
vn 0 0 1
vn 0 0 1
vn 0 0 1
vn 0 0 1
vn 0 0 1
vn 0 0 1
vn 0 0 1
vn 0 0 1
vn 0 0 1
vn 0 0 1
vn 0 0 1
vn 0 0 1
vn 0 0 1
vn 0 0 1
vn 0 0 1
vn 0 0 1
vn 0 0 1
vn 0 0 1
vn 0 0 1
vn 0 0 1
vn 0 0 1
vn 0 0 1
vn 0 0 1
vn 0 0 1
vn 0 0 1
vn 0 0 1
vn 0 0 1
vn 0 0 1
vn 0 0 1
vn 0 0 1
vn 0 0 1
vn 0 0 1
vn 0 0 1
vn 0 0 1
vn 0 0 1
vn 0 0 1
vn 0 0 1
vn 0 0 1
vn 0 0 1
vn 0 0 1
vn 0 0 1
vn 0 0 1
vn 0 0 1
vn 0 0 1
vn 0 0 1
vn 0 0 1
vn 0 0 1
vn 0 0 1
vn 0 0 1
vn 0 0 1
vn 0 0 1
vn 0 0 1
vn 0 0 1
vn 0 0 1
vn 0 0 1
vn 0 0 1
vn 0 0 1
vn 0 0 1
vn 0 0 1
vn 0 0 1
vn 0 0 1
vn 0 0 1
vn 0 0 1
vn 0 0 1
vn 0 0 1
vn 0 0 1
vn 0 0 1
vn 0 0 1
vn 0 0 1
vn 0 0 1
vn 0 0 1
vn 0 0 1
vn 0 0 1
vn 0 0 1
vn 0 0 1
vn 0 0 1
vn 0 0 1
vn 0 0 1
vn 0 0 1
vn 0 0 1
vn 0 0 1
vn 0 0 1
vn 0 0 1
vn 0 0 1
vn 0 0 1
vn 0 0 1
vn 0 0 1
vn 0 0 1
vn 0 0 1
vn 0 0 1
vn 0 0 1
vn 0 0 1
vn 0 0 1
vn 0 0 1
vn 0 0 1
vn 0 0 1
vn 0 0 1
g Line005_0
f 3/3/3 2/2/2 1/1/1
f 2/2/2 4/4/4 1/1/1
f 5/5/5 4/4/4 2/2/2
f 6/6/6 4/4/4 5/5/5
f 7/7/7 6/6/6 5/5/5
f 8/8/8 6/6/6 7/7/7
f 9/9/9 8/8/8 7/7/7
f 10/10/10 8/8/8 9/9/9
f 11/11/11 10/10/10 9/9/9
f 12/12/12 10/10/10 11/11/11
f 13/13/13 12/12/12 11/11/11
f 14/14/14 12/12/12 13/13/13
f 15/15/15 12/12/12 14/14/14
f 16/16/16 15/15/15 14/14/14
f 17/17/17 15/15/15 16/16/16
f 18/18/18 17/17/17 16/16/16
f 19/19/19 17/17/17 18/18/18
f 20/20/20 19/19/19 18/18/18
f 21/21/21 19/19/19 20/20/20
f 22/22/22 21/21/21 20/20/20
f 23/23/23 21/21/21 22/22/22
f 24/24/24 23/23/23 22/22/22
f 25/25/25 23/23/23 24/24/24
f 26/26/26 25/25/25 24/24/24
f 27/27/27 25/25/25 26/26/26
f 28/28/28 27/27/27 26/26/26
f 29/29/29 27/27/27 28/28/28
f 30/30/30 29/29/29 28/28/28
f 31/31/31 29/29/29 30/30/30
f 32/32/32 31/31/31 30/30/30
f 33/33/33 31/31/31 32/32/32
f 34/34/34 33/33/33 32/32/32
f 35/35/35 33/33/33 34/34/34
f 36/36/36 35/35/35 34/34/34
f 37/37/37 35/35/35 36/36/36
f 38/38/38 37/37/37 36/36/36
f 39/39/39 37/37/37 38/38/38
f 40/40/40 39/39/39 38/38/38
f 41/41/41 39/39/39 40/40/40
f 42/42/42 41/41/41 40/40/40
f 43/43/43 41/41/41 42/42/42
f 44/44/44 43/43/43 42/42/42
f 45/45/45 43/43/43 44/44/44
f 46/46/46 45/45/45 44/44/44
f 47/47/47 45/45/45 46/46/46
f 48/48/48 47/47/47 46/46/46
f 49/49/49 47/47/47 48/48/48
f 50/50/50 49/49/49 48/48/48
f 51/51/51 49/49/49 50/50/50
f 52/52/52 51/51/51 50/50/50
f 53/53/53 51/51/51 52/52/52
f 54/54/54 53/53/53 52/52/52
f 55/55/55 53/53/53 54/54/54
f 56/56/56 55/55/55 54/54/54
f 57/57/57 55/55/55 56/56/56
f 58/58/58 57/57/57 56/56/56
f 59/59/59 57/57/57 58/58/58
f 60/60/60 59/59/59 58/58/58
f 61/61/61 59/59/59 60/60/60
f 62/62/62 61/61/61 60/60/60
f 63/63/63 61/61/61 62/62/62
f 64/64/64 63/63/63 62/62/62
f 65/65/65 63/63/63 64/64/64
f 66/66/66 65/65/65 64/64/64
f 67/67/67 65/65/65 66/66/66
f 68/68/68 67/67/67 66/66/66
f 69/69/69 67/67/67 68/68/68
f 70/70/70 69/69/69 68/68/68
f 71/71/71 69/69/69 70/70/70
f 72/72/72 71/71/71 70/70/70
f 73/73/73 71/71/71 72/72/72
f 74/74/74 73/73/73 72/72/72
f 75/75/75 73/73/73 74/74/74
f 76/76/76 75/75/75 74/74/74
f 77/77/77 75/75/75 76/76/76
f 78/78/78 77/77/77 76/76/76
f 79/79/79 77/77/77 78/78/78
f 80/80/80 79/79/79 78/78/78
f 81/81/81 79/79/79 80/80/80
f 82/82/82 81/81/81 80/80/80
f 83/83/83 81/81/81 82/82/82
f 84/84/84 83/83/83 82/82/82
f 85/85/85 83/83/83 84/84/84
f 86/86/86 85/85/85 84/84/84
f 87/87/87 85/85/85 86/86/86
f 88/88/88 87/87/87 86/86/86
f 89/89/89 87/87/87 88/88/88
f 90/90/90 89/89/89 88/88/88
f 91/91/91 89/89/89 90/90/90
f 92/92/92 91/91/91 90/90/90
f 93/93/93 91/91/91 92/92/92
f 94/94/94 93/93/93 92/92/92
f 95/95/95 93/93/93 94/94/94
f 96/96/96 95/95/95 94/94/94
f 97/97/97 95/95/95 96/96/96
f 98/98/98 97/97/97 96/96/96
f 99/99/99 97/97/97 98/98/98
f 100/100/100 99/99/99 98/98/98
f 101/101/101 99/99/99 100/100/100
f 102/102/102 101/101/101 100/100/100
f 103/103/103 101/101/101 102/102/102
f 104/104/104 103/103/103 102/102/102
f 105/105/105 103/103/103 104/104/104
f 106/106/106 105/105/105 104/104/104
f 107/107/107 106/106/106 104/104/104
f 108/108/108 106/106/106 107/107/107
f 109/109/109 108/108/108 107/107/107
f 110/110/110 108/108/108 109/109/109
f 111/111/111 110/110/110 109/109/109
f 112/112/112 111/111/111 109/109/109
f 113/113/113 111/111/111 112/112/112
f 114/114/114 113/113/113 112/112/112
f 115/115/115 114/114/114 112/112/112
f 116/116/116 114/114/114 115/115/115
f 117/117/117 116/116/116 115/115/115
f 118/118/118 116/116/116 117/117/117
f 119/119/119 118/118/118 117/117/117
f 120/120/120 119/119/119 117/117/117
f 121/121/121 119/119/119 120/120/120
f 122/122/122 121/121/121 120/120/120
f 123/123/123 122/122/122 120/120/120
f 124/124/124 122/122/122 123/123/123
f 125/125/125 124/124/124 123/123/123
f 126/126/126 125/125/125 123/123/123
f 127/127/127 126/126/126 123/123/123
f 128/128/128 127/127/127 123/123/123
f 129/129/129 128/128/128 123/123/123
f 130/130/130 128/128/128 129/129/129
f 131/131/131 130/130/130 129/129/129
f 132/132/132 131/131/131 129/129/129
f 133/133/133 131/131/131 132/132/132
f 134/134/134 133/133/133 132/132/132
f 135/135/135 134/134/134 132/132/132
f 136/136/136 135/135/135 132/132/132
f 137/137/137 136/136/136 132/132/132
f 138/138/138 136/136/136 137/137/137
f 139/139/139 138/138/138 137/137/137
f 140/140/140 139/139/139 137/137/137
f 141/141/141 139/139/139 140/140/140
f 142/142/142 141/141/141 140/140/140
f 143/143/143 142/142/142 140/140/140
f 144/144/144 142/142/142 143/143/143
f 145/145/145 144/144/144 143/143/143
f 146/146/146 144/144/144 145/145/145
f 147/147/147 146/146/146 145/145/145
f 148/148/148 146/146/146 147/147/147
f 149/149/149 148/148/148 147/147/147
f 150/150/150 148/148/148 149/149/149
f 151/151/151 150/150/150 149/149/149
f 152/152/152 150/150/150 151/151/151
f 153/153/153 152/152/152 151/151/151
f 154/154/154 152/152/152 153/153/153
f 155/155/155 154/154/154 153/153/153
f 156/156/156 154/154/154 155/155/155
f 157/157/157 156/156/156 155/155/155
f 158/158/158 156/156/156 157/157/157
f 159/159/159 158/158/158 157/157/157
f 160/160/160 158/158/158 159/159/159
f 161/161/161 160/160/160 159/159/159
f 162/162/162 160/160/160 161/161/161
f 163/163/163 162/162/162 161/161/161
f 164/164/164 162/162/162 163/163/163
f 165/165/165 164/164/164 163/163/163
f 166/166/166 164/164/164 165/165/165
f 167/167/167 166/166/166 165/165/165
f 168/168/168 166/166/166 167/167/167
