g Maze_M2_3.B02
v 0.2 0.05 0.12
v 0.3 0.04999998 0.12
v 0.3 -0.02000002 0.12
v 0.2347674 -0.02000001 0.12
v 0.09999999 -0.02 0.12
v 0.2347674 -0.14 0.12
v 0.17 0.03 0.12
v 0.09999999 -0.14 0.12
v 0.08 -0.09 0.12
v 0.09999999 0.05 0.12
v -0.08 0.05000001 0.12
v -0.08 -0.01999998 0.12
v -0.09999999 -0.01999998 0.12
v -0.09999999 0.05000002 0.12
v 0.01999999 0.16 0.2
v 0.01999999 0.2 0.2
v 0.09999999 0.2 0.2
v 0.09999999 0.16 0.2
v -4.768371E-09 0.12 0.2
v 0.08 0.09999999 0.2
v 0.09999999 0.06999999 0.2
v 0.01999999 0.06999999 0.2
v 0.09999999 -0.02000001 0.2
v 0.01999999 -0.02000001 0.2
v 0.01 -0.09 0.2
v 0.08 -0.09 0.2
v 0.01999999 -0.17 0.2
v 0.09999999 -0.14 0.2
v 0.01999999 -0.25 0.2
v 0.09999999 -0.25 0.2
v 0.2258455 -0.03072513 0.2853293
v 0.2258455 -0.03072513 0.05789267
v 0.2911851 -0.0298847 0.2831397
v -4.768371E-09 0.12 0.09
v -0.04000002 0.04999999 0.09
v -0.04 0.05000002 0.02
v -4.768371E-09 0.12 -0.1
v -0.04000002 0.04999999 -0.1
v -4.768371E-09 0.12 0.05
v 0.09999999 -0.25 0.2
v 0.09999999 -0.25 0
v 0.01999999 -0.25 0
v 0.01999999 -0.25 0.12
v 0.01999999 -0.25 0.2
v 0.09999999 -0.02000001 0.16
v 0.01999999 -0.02000001 0.16
v 0.01999999 -0.02000001 0
v 0.09999999 -0.02000001 0
v 0.09999999 -0.02000001 0
v 0.08 -0.09 0
v 0.08 -0.09 0.2
v 0.09999999 -0.02000001 0.2
v 0.09999999 -0.02000001 0.16
v 0.01999999 -0.17 0.2
v 0.01999999 -0.25 0.2
v 0.01999999 -0.25 0.12
v 0.01999999 -0.25 0
v 0.01999999 -0.17 0
v 0.01999999 0.16 0.05
v -4.768371E-09 0.12 -0.1
v 0.01999999 0.16 -0.1
v -4.768371E-09 0.12 0.05
v 0.01999999 0.16 0.2
v -4.768371E-09 0.12 0.09
v -4.768371E-09 0.12 0.16
v -4.768371E-09 0.12 0.2
v 0.2347674 -0.02000001 0.12
v 0.2347674 -0.02000001 0.08
v 0.2347674 -0.14 0.08
v 0.2347674 -0.14 0.12
v -0.04 0.05000002 0.02
v -0.04 -0.01999998 0.02
v -0.04 -0.01999998 -0.1
v -0.04 0.05000002 -0.1
v -0.04 0.05000002 0.02
v -0.04 0.05000002 -0.1
v 0.09999999 0.05 -0.1
v 0.09999999 0.05 0.12
v -0.08 0.05000001 0.06
v -0.08 0.05000001 0.12
v -0.09999999 0.05000002 0.12
v -0.09999999 0.05000002 0.06
v 0.3 -0.02000002 0.12
v 0.3 0.04999998 0.12
v 0.3 0.04999998 -0.1
v 0.3 -0.02000002 -0.1
v 0.3 0.12 -0.1
v 0.3 0.04999998 0.05
v 0.3 0.12 0.05
v 0.09999999 -0.02 0.12
v 0.09999999 -0.02 -0.1
v -0.04 -0.01999998 -0.1
v -0.04 -0.01999998 0.02
v -0.08 -0.01999998 0.06
v -0.08 -0.01999998 0.12
v -0.09999999 -0.01999998 0.06
v -0.09999999 -0.01999998 0.12
v 0.08 -0.09 -0.1
v 0.08 -0.09 0.12
v 0.09999999 -0.14 0.12
v 0.09999999 -0.14 -0.1
v 0.2747674 -0.14 0.08
v 0.2747674 -0.14 -0.1
v 0.09999999 -0.14 -0.1
v 0.2347674 -0.14 0.08
v 0.09999999 -0.14 0.12
v 0.2347674 -0.14 0.12
v 0.01999999 0.06999999 0.2
v 0.01999999 -0.02000001 0.2
v 0.01999999 -0.02000001 0.16
v 0.01999999 0.06999999 0.16
v 0.09999999 0.06999999 0.16
v 0.08 0.09999999 0.16
v -4.768371E-09 0.12 0.16
v 0.01999999 0.06999999 0.16
v 0.09999999 -0.02000001 0.16
v 0.01999999 -0.02000001 0.16
v 0.09999999 0.06999999 0.2
v 0.09999999 0.06999999 0.16
v 0.09999999 -0.02000001 0.16
v 0.09999999 -0.02000001 0.2
v 0.08 -0.09 -0.1
v 0.09999999 -0.14 -0.1
v 0.09999999 -0.02 -0.1
v 0.09999999 0.05 -0.1
v -0.04 -0.01999998 -0.1
v -0.04 0.05000002 -0.1
v 0.17 0.03 -0.1
v 0.2 0.05 -0.1
v 0.2747674 -0.14 -0.1
v 0.3 0.04999998 -0.1
v 0.3 -0.02000001 -0.1
v 0.3 -0.02000002 -0.1
v 0.3 -0.11 -0.1
v 0.2 0.04999998 -0.1
v 0.3 0.12 -0.1
v 0.08 0.09999999 -0.1
v 0.09999999 0.04999999 -0.1
v 0.22 0.2 -0.1
v -4.768371E-09 0.12 -0.1
v -0.04000002 0.04999999 -0.1
v 0.09999999 0.16 -0.1
v 0.09999999 0.2 -0.1
v 0.01999999 0.16 -0.1
v 0.01999999 0.2 -0.1
v 0.01 -0.09 0
v 0.09999999 -0.02000001 0
v 0.01999999 -0.02000001 0
v 0.08 -0.09 0
v 0.01999999 -0.17 0
v 0.09999999 -0.14 0
v 0.01999999 -0.25 0
v 0.09999999 -0.25 0
v 0.3 -0.02000001 0.08
v 0.3 -0.02000001 -0.1
v 0.3 -0.11 -0.1
v 0.3 -0.11 0.08
v 0.3 -0.11 0.08
v 0.3 -0.11 -0.1
v 0.2747674 -0.14 -0.1
v 0.2747674 -0.14 0.08
v 0.3 -0.02000002 0.12
v 0.3 -0.02000001 0.08
v 0.2347674 -0.02000001 0.08
v 0.2347674 -0.02000001 0.12
v 0.3 -0.02000001 0.08
v 0.3 -0.11 0.08
v 0.2747674 -0.14 0.08
v 0.2347674 -0.02000001 0.08
v 0.2347674 -0.14 0.08
v 0.09999999 0.04999999 0.05
v 0.09999999 0.04999999 -0.1
v -0.04000002 0.04999999 -0.1
v -0.04 0.05000002 0.02
v -0.04000002 0.04999999 0.09
v 0.09999999 0.04999999 0.09
v 0.09999999 0.16 0.05
v 0.09999999 0.2 0.05
v 0.22 0.2 0.05
v 0.08 0.09999999 0.05
v 0.3 0.12 0.05
v 0.3 0.04999998 0.05
v 0.2 0.04999998 0.05
v 0.17 0.03 0.05
v 0.09999999 0.06999999 0.05
v 0.09999999 0.04999999 0.05
v 0.09999999 0.06999999 0.05
v 0.09999999 0.06999999 0.09
v 0.08 0.09999999 0.09
v 0.08 0.09999999 0.05
v 0.09999999 0.2 0.2
v 0.01999999 0.2 0.2
v 0.01999999 0.2 0.05
v 0.09999999 0.2 0.05
v 0.01999999 0.2 -0.1
v 0.09999999 0.2 -0.1
v 0.22 0.2 0.05
v 0.22 0.2 -0.1
v 0.09999999 0.16 0.2
v 0.09999999 0.2 0.2
v 0.09999999 0.2 0.05
v 0.09999999 0.16 0.05
v 0.22 0.2 0.05
v 0.22 0.2 -0.1
v 0.3 0.12 -0.1
v 0.3 0.12 0.05
v 0.3 0.04999998 0.05
v 0.3 0.04999998 -0.1
v 0.2 0.04999998 -0.1
v 0.2 0.04999998 0.05
v -0.09999999 0.05000002 0.12
v -0.09999999 -0.01999998 0.12
v -0.09999999 -0.01999998 0.06
v -0.09999999 0.05000002 0.06
v -0.08 -0.01999998 0.06
v -0.08 0.05000001 0.06
v -0.09999999 0.05000002 0.06
v -0.09999999 -0.01999998 0.06
v -0.08 0.05000001 0.06
v -0.08 -0.01999998 0.06
v -0.04 -0.01999998 0.02
v -0.04 0.05000002 0.02
v 0.01999999 -0.02000001 0.2
v 0.01 -0.09 0.2
v 0.01 -0.09 0
v 0.01999999 -0.02000001 0
v 0.01999999 -0.02000001 0.16
v 0.01 -0.09 0.2
v 0.01999999 -0.17 0.2
v 0.01999999 -0.17 0
v 0.01 -0.09 0
v 0.09999999 -0.25 0.2
v 0.09999999 -0.14 0.2
v 0.09999999 -0.14 0
v 0.09999999 -0.25 0
v 0.09999999 -0.14 0.2
v 0.08 -0.09 0.2
v 0.08 -0.09 0
v 0.09999999 -0.14 0
v 0.09999999 -0.02 -0.1
v 0.09999999 -0.02 0.12
v 0.08 -0.09 0.12
v 0.08 -0.09 -0.1
v 0.08 0.09999999 0.2
v 0.08 0.09999999 0.16
v 0.09999999 0.06999999 0.16
v 0.09999999 0.06999999 0.2
v -4.768371E-09 0.12 0.2
v 0.01999999 0.06999999 0.2
v 0.01999999 0.06999999 0.16
v -4.768371E-09 0.12 0.16
v 0.01999999 0.2 0.2
v 0.01999999 0.16 0.2
v 0.01999999 0.16 0.05
v 0.01999999 0.2 0.05
v 0.01999999 0.16 -0.1
v 0.01999999 0.2 -0.1
v 0.09999999 0.16 0.05
v 0.08 0.09999999 0.05
v 0.08 0.09999999 0.09
v 0.08 0.09999999 0.16
v 0.08 0.09999999 0.2
v 0.09999999 0.16 0.2
v 0.08 0.09999999 0.09
v 0.09999999 0.06999999 0.09
v 0.09999999 0.04999999 0.09
v -0.04000002 0.04999999 0.09
v -4.768371E-09 0.12 0.09
v -4.768371E-09 0.12 0.16
v 0.08 0.09999999 0.16
v 0.08 0.09999999 0.09
v -4.768371E-09 0.12 0.09
v 0.09999999 0.04999999 0.05
v 0.09999999 0.04999999 0.09
v 0.09999999 0.06999999 0.09
v 0.09999999 0.06999999 0.05
v 0.17 0.03 0.12
v 0.09999999 0.05 0.12
v 0.09999999 0.05 -0.1
v 0.17 0.03 -0.1
v 0.2 0.05 0.12
v 0.17 0.03 0.12
v 0.17 0.03 -0.1
v 0.2 0.05 -0.1
v 0.3 0.04999998 0.12
v 0.2 0.05 0.12
v 0.2 0.05 -0.1
v 0.3 0.04999998 -0.1
v 0.17 0.03 0.05
v 0.2 0.04999998 0.05
v 0.2 0.04999998 -0.1
v 0.17 0.03 -0.1
v 0.09999999 0.04999999 0.05
v 0.17 0.03 0.05
v 0.17 0.03 -0.1
v 0.09999999 0.04999999 -0.1
v 0.2911851 -0.0998847 0.2853293
v 0.2258455 -0.1007251 0.2853293
v 0.2258455 -0.03072513 0.2853293
v 0.2911851 -0.0298847 0.2831397
v 0.3 -0.09000002 0.2831397
v 0.2911851 -0.09000002 0.2831397
v 0.3 -0.02000002 0.2831397
v 0.23 -0.02000002 0.2831397
v 0.23 -0.0298847 0.2831397
v 0.2258455 -0.03072513 0.2853293
v 0.2258455 -0.1007251 0.2853293
v 0.2258455 -0.1007251 0.05789267
v 0.2258455 -0.03072513 0.05789267
v 0.2258455 -0.1007251 0.05789267
v 0.2258455 -0.1007251 0.2853293
v 0.2911851 -0.0998847 0.2853293
v 0.2911851 -0.0998847 0.05789267
v 0.2911851 -0.09000002 0.05789267
v 0.2911851 -0.0998847 0.05789267
v 0.2911851 -0.0998847 0.2853293
v 0.2911851 -0.09000002 0.2831397
v 0.2911851 -0.0298847 0.2831397
v 0.23 -0.0298847 0.05789267
v 0.2258455 -0.03072513 0.05789267
v 0.2258455 -0.1007251 0.05789267
v 0.23 -0.09000002 0.05789267
v 0.2911851 -0.0998847 0.05789267
v 0.2911851 -0.09000002 0.05789267
v 0.2911851 -0.09000002 0.05789267
v 0.2911851 -0.09000002 0.2831397
v 0.3 -0.09000002 0.2831397
v 0.3 -0.09000002 0
v 0.23 -0.09000002 0
v 0.23 -0.09000002 0.05789267
v 0.23 -0.02000002 0.2831397
v 0.23 -0.0298847 0.2831397
v 0.23 -0.0298847 0.05789267
v 0.23 -0.02000002 0
v 0.23 -0.09000002 0
v 0.23 -0.09000002 0.05789267
v 0.3 -0.02000002 0
v 0.3 -0.09000002 0
v 0.3 -0.09000002 0.2831397
v 0.3 -0.02000002 0.2831397
v 0.3 -0.02000002 0
v 0.23 -0.02000002 0
v 0.23 -0.09000002 0
v 0.3 -0.09000002 0
v 0.3 -0.02000002 0
v 0.3 -0.02000002 0.2831397
v 0.23 -0.02000002 0.2831397
v 0.23 -0.02000002 0
vt 0 0
vt 0 0
vt 0 0
vt 0 0
vt 0 0
vt 0 0
vt 0 0
vt 0 0
vt 0 0
vt 0 0
vt 0 0
vt 0 0
vt 0 0
vt 0 0
vt 0 0
vt 0 0
vt 0 0
vt 0 0
vt 0 0
vt 0 0
vt 0 0
vt 0 0
vt 0 0
vt 0 0
vt 0 0
vt 0 0
vt 0 0
vt 0 0
vt 0 0
vt 0 0
vt 0 0
vt 0 0
vt 0 0
vt 0 0
vt 0 0
vt 0 0
vt 0 0
vt 0 0
vt 0 0
vt 0 0
vt 0 0
vt 0 0
vt 0 0
vt 0 0
vt 0 0
vt 0 0
vt 0 0
vt 0 0
vt 0 0
vt 0 0
vt 0 0
vt 0 0
vt 0 0
vt 0 0
vt 0 0
vt 0 0
vt 0 0
vt 0 0
vt 0 0
vt 0 0
vt 0 0
vt 0 0
vt 0 0
vt 0 0
vt 0 0
vt 0 0
vt 0 0
vt 0 0
vt 0 0
vt 0 0
vt 0 0
vt 0 0
vt 0 0
vt 0 0
vt 0 0
vt 0 0
vt 0 0
vt 0 0
vt 0 0
vt 0 0
vt 0 0
vt 0 0
vt 0 0
vt 0 0
vt 0 0
vt 0 0
vt 0 0
vt 0 0
vt 0 0
vt 0 0
vt 0 0
vt 0 0
vt 0 0
vt 0 0
vt 0 0
vt 0 0
vt 0 0
vt 0 0
vt 0 0
vt 0 0
vt 0 0
vt 0 0
vt 0 0
vt 0 0
vt 0 0
vt 0 0
vt 0 0
vt 0 0
vt 0 0
vt 0 0
vt 0 0
vt 0 0
vt 0 0
vt 0 0
vt 0 0
vt 0 0
vt 0 0
vt 0 0
vt 0 0
vt 0 0
vt 0 0
vt 0 0
vt 0 0
vt 0 0
vt 0 0
vt 0 0
vt 0 0
vt 0 0
vt 0 0
vt 0 0
vt 0 0
vt 0 0
vt 0 0
vt 0 0
vt 0 0
vt 0 0
vt 0 0
vt 0 0
vt 0 0
vt 0 0
vt 0 0
vt 0 0
vt 0 0
vt 0 0
vt 0 0
vt 0 0
vt 0 0
vt 0 0
vt 0 0
vt 0 0
vt 0 0
vt 0 0
vt 0 0
vt 0 0
vt 0 0
vt 0 0
vt 0 0
vt 0 0
vt 0 0
vt 0 0
vt 0 0
vt 0 0
vt 0 0
vt 0 0
vt 0 0
vt 0 0
vt 0 0
vt 0 0
vt 0 0
vt 0 0
vt 0 0
vt 0 0
vt 0 0
vt 0 0
vt 0 0
vt 0 0
vt 0 0
vt 0 0
vt 0 0
vt 0 0
vt 0 0
vt 0 0
vt 0 0
vt 0 0
vt 0 0
vt 0 0
vt 0 0
vt 0 0
vt 0 0
vt 0 0
vt 0 0
vt 0 0
vt 0 0
vt 0 0
vt 0 0
vt 0 0
vt 0 0
vt 0 0
vt 0 0
vt 0 0
vt 0 0
vt 0 0
vt 0 0
vt 0 0
vt 0 0
vt 0 0
vt 0 0
vt 0 0
vt 0 0
vt 0 0
vt 0 0
vt 0 0
vt 0 0
vt 0 0
vt 0 0
vt 0 0
vt 0 0
vt 0 0
vt 0 0
vt 0 0
vt 0 0
vt 0 0
vt 0 0
vt 0 0
vt 0 0
vt 0 0
vt 0 0
vt 0 0
vt 0 0
vt 0 0
vt 0 0
vt 0 0
vt 0 0
vt 0 0
vt 0 0
vt 0 0
vt 0 0
vt 0 0
vt 0 0
vt 0 0
vt 0 0
vt 0 0
vt 0 0
vt 0 0
vt 0 0
vt 0 0
vt 0 0
vt 0 0
vt 0 0
vt 0 0
vt 0 0
vt 0 0
vt 0 0
vt 0 0
vt 0 0
vt 0 0
vt 0 0
vt 0 0
vt 0 0
vt 0 0
vt 0 0
vt 0 0
vt 0 0
vt 0 0
vt 0 0
vt 0 0
vt 0 0
vt 0 0
vt 0 0
vt 0 0
vt 0 0
vt 0 0
vt 0 0
vt 0 0
vt 0 0
vt 0 0
vt 0 0
vt 0 0
vt 0 0
vt 0 0
vt 0 0
vt 0 0
vt 0 0
vt 0 0
vt 0 0
vt 0 0
vt 0 0
vt 0 0
vt 0 0
vt 0 0
vt 0 0
vt 0 0
vt 0 0
vt 0 0
vt 0 0
vt 0 0
vt 0 0
vt 0 0
vt 0 0
vt 0 0
vt 0 0
vt 0 0
vt 0 0
vt 0 0
vt 0 0
vt 0 0
vt 0 0
vt 0 0
vt 0 0
vt 0 0
vt 0 0
vt 0 0
vt 0 0
vt 0 0
vt 0 0
vt 0 0
vt 0 0
vt 0 0
vt 0 0
vt 0 0
vt 0 0
vt 0 0
vt 0 0
vt 0 0
vt 0 0
vt 0 0
vt 0 0
vt 0 0
vt 0 0
vt 0 0
vt 0 0
vt 0 0
vt 0 0
vt 0 0
vt 0 0
vt 0 0
vt 0 0
vt 0 0
vt 0 0
vt 0 0
vt 0 0
vt 0 0
vt 0 0
vt 0 0
vt 0 0
vt 0 0
vt 0 0
vt 0 0
vn 0 0 1
vn 0 0 1
vn 0 0 1
vn 0 0 1
vn 0 0 1
vn 0 0 1
vn 0 0 1
vn 0 0 1
vn 0 0 1
vn 0 0 1
vn 0 0 1
vn 0 0 1
vn -2.043588E-07 0 1
vn -2.043588E-07 0 1
vn 0 0 1
vn 0 0 1
vn 0 0 1
vn 0 0 1
vn 0 0 1
vn 0 0 1
vn 0 0 1
vn 0 0 1
vn 0 0 1
vn 0 0 1
vn 0 0 1
vn 0 0 1
vn 0 0 1
vn 0 0 1
vn 0 0 1
vn 0 0 1
vn -0.01286151 0.9999173 0
vn -0.01286151 0.9999173 0
vn -0.01286151 0.9999173 0
vn -0.8682431 0.496139 0
vn -0.8682431 0.496139 0
vn -0.8682431 0.496139 0
vn -0.8682431 0.496139 0
vn -0.8682431 0.496139 0
vn -0.8682431 0.496139 0
vn 0 -1 0
vn 0 -1 0
vn 0 -1 0
vn 0 -1 0
vn 0 -1 0
vn 1.192093E-07 1 0
vn 1.192093E-07 1 0
vn 1.192093E-07 1 0
vn 1.192093E-07 1 0
vn 0.961524 -0.2747212 0
vn 0.961524 -0.2747212 0
vn 0.961524 -0.2747212 0
vn 0.961524 -0.2747212 0
vn 0.961524 -0.2747212 0
vn -1 0 0
vn -1 0 0
vn -1 0 0
vn -1 0 0
vn -1 0 0
vn -0.8944272 0.4472136 0
vn -0.8944272 0.4472136 0
vn -0.8944272 0.4472136 0
vn -0.8944272 0.4472136 0
vn -0.8944272 0.4472136 0
vn -0.8944272 0.4472136 0
vn -0.8944272 0.4472136 0
vn -0.8944272 0.4472136 0
vn 1 0 0
vn 1 0 0
vn 1 0 0
vn 1 0 0
vn -1 0 0
vn -1 0 0
vn -1 0 0
vn -1 0 0
vn 1.12197E-07 1 0
vn 1.12197E-07 1 0
vn 1.12197E-07 1 0
vn 1.12197E-07 1 0
vn 1.12197E-07 1 0
vn 1.12197E-07 1 0
vn 2.384186E-07 1 0
vn 2.384186E-07 1 0
vn 1 0 0
vn 1 0 0
vn 1 0 0
vn 1 0 0
vn 1 0 0
vn 1 0 0
vn 1 0 0
vn -1.192093E-07 -1 0
vn -1.192093E-07 -1 0
vn -1.192093E-07 -1 0
vn -1.192093E-07 -1 0
vn -1.192093E-07 -1 0
vn -1.192093E-07 -1 0
vn 1.192093E-07 -1 0
vn 1.192093E-07 -1 0
vn -0.9284768 -0.3713907 0
vn -0.9284768 -0.3713907 0
vn -0.9284768 -0.3713907 0
vn -0.9284768 -0.3713907 0
vn -1.035229E-07 -1 0
vn -1.035229E-07 -1 0
vn -1.035229E-07 -1 0
vn -1.035229E-07 -1 0
vn -1.035229E-07 -1 0
vn -1.035229E-07 -1 0
vn -1 0 0
vn -1 0 0
vn -1 0 0
vn -1 0 0
vn 0 0 -1
vn 0 0 -1
vn 0 0 -1
vn 0 0 -1
vn 0 0 -1
vn 0 0 -1
vn 1 0 0
vn 1 0 0
vn 1 0 0
vn 1 0 0
vn 0 0 -1
vn 0 0 -1
vn 0 0 -1
vn 0 0 -1
vn 0 0 -1
vn 0 0 -1
vn 0 0 -1
vn 0 0 -1
vn 0 0 -1
vn 0 0 -1
vn 0 0 -1
vn 0 0 -1
vn 0 0 -1
vn 0 0 -1
vn 0 0 -1
vn 0 0 -1
vn 0 0 -1
vn 0 0 -1
vn 0 0 -1
vn 0 0 -1
vn 0 0 -1
vn 0 0 -1
vn 0 0 -1
vn 0 0 -1
vn 0 0 -1
vn 0 0 -1
vn 0 0 -1
vn 0 0 -1
vn 0 0 -1
vn 0 0 -1
vn 0 0 -1
vn 0 0 -1
vn 1 3.767602E-07 0
vn 1 3.767602E-07 0
vn 1 3.767602E-07 0
vn 1 3.767602E-07 0
vn 0.7652948 -0.6436798 0
vn 0.7652948 -0.6436798 0
vn 0.7652948 -0.6436798 0
vn 0.7652948 -0.6436798 0
vn -5.208236E-07 -1 -1.096471E-07
vn -5.208236E-07 -1 -1.096471E-07
vn -5.208236E-07 -1 -1.096471E-07
vn -5.208236E-07 -1 -1.096471E-07
vn 0 0 1
vn 0 0 1
vn 0 0 1
vn 0 0 1
vn 0 0 1
vn -1.532691E-07 -1 0
vn -1.532691E-07 -1 0
vn -1.532691E-07 -1 0
vn -1.532691E-07 -1 0
vn -1.532691E-07 -1 0
vn -1.532691E-07 -1 0
vn 0 0 1
vn 0 0 1
vn 0 0 1
vn 0 0 1
vn 0 0 1
vn 0 0 1
vn 0 0 1
vn 0 0 1
vn 0 0 1
vn 0 0 1
vn 0.8320503 0.5547001 0
vn 0.8320503 0.5547001 0
vn 0.8320503 0.5547001 0
vn 0.8320503 0.5547001 0
vn 0 1 0
vn 0 1 0
vn 0 1 0
vn 0 1 0
vn 0 1 0
vn 0 1 0
vn 1.589457E-07 1 0
vn 1.589457E-07 1 0
vn 1 0 0
vn 1 0 0
vn 1 0 0
vn 1 0 0
vn 0.7071069 0.7071066 0
vn 0.7071069 0.7071066 0
vn 0.7071069 0.7071066 0
vn 0.7071069 0.7071066 0
vn 0 -1 0
vn 0 -1 0
vn 0 -1 0
vn 0 -1 0
vn -1 0 0
vn -1 0 0
vn -1 0 0
vn -1 0 0
vn 0 0 -1
vn 0 0 -1
vn 0 0 -1
vn 0 0 -1
vn -0.7071068 0 -0.7071068
vn -0.7071068 0 -0.7071068
vn -0.7071068 0 -0.7071068
vn -0.7071068 0 -0.7071068
vn -0.9899495 0.1414213 0
vn -0.9899495 0.1414213 0
vn -0.9899495 0.1414213 0
vn -0.9899495 0.1414213 0
vn -0.9899495 0.1414213 0
vn -0.9922779 -0.1240346 0
vn -0.9922779 -0.1240346 0
vn -0.9922779 -0.1240346 0
vn -0.9922779 -0.1240346 0
vn 1 0 0
vn 1 0 0
vn 1 0 0
vn 1 0 0
vn 0.9284768 0.3713907 0
vn 0.9284768 0.3713907 0
vn 0.9284768 0.3713907 0
vn 0.9284768 0.3713907 0
vn -0.961524 0.2747211 0
vn -0.961524 0.2747211 0
vn -0.961524 0.2747211 0
vn -0.961524 0.2747211 0
vn 0.8320503 0.5547002 0
vn 0.8320503 0.5547002 0
vn 0.8320503 0.5547002 0
vn 0.8320503 0.5547002 0
vn -0.9284768 -0.3713907 0
vn -0.9284768 -0.3713907 0
vn -0.9284768 -0.3713907 0
vn -0.9284768 -0.3713907 0
vn -1 0 0
vn -1 0 0
vn -1 0 0
vn -1 0 0
vn -1 0 0
vn -1 0 0
vn 0.9486833 -0.3162278 0
vn 0.9486833 -0.3162278 0
vn 0.9486833 -0.3162278 0
vn 0.9486833 -0.3162278 0
vn 0.9486833 -0.3162278 0
vn 0.9486833 -0.3162278 0
vn 0 0 1
vn 0 0 1
vn 0 0 1
vn 0 0 1
vn 0 0 1
vn -0.2425358 -0.9701425 0
vn -0.2425358 -0.9701425 0
vn -0.2425358 -0.9701425 0
vn -0.2425358 -0.9701425 0
vn 1 0 0
vn 1 0 0
vn 1 0 0
vn 1 0 0
vn 0.2747211 0.961524 0
vn 0.2747211 0.961524 0
vn 0.2747211 0.961524 0
vn 0.2747211 0.961524 0
vn -0.5547002 0.8320503 0
vn -0.5547002 0.8320503 0
vn -0.5547002 0.8320503 0
vn -0.5547002 0.8320503 0
vn 1.907349E-07 1 0
vn 1.907349E-07 1 0
vn 1.907349E-07 1 0
vn 1.907349E-07 1 0
vn 0.5546997 -0.8320506 0
vn 0.5546997 -0.8320506 0
vn 0.5546997 -0.8320506 0
vn 0.5546997 -0.8320506 0
vn -0.274721 -0.9615241 0
vn -0.274721 -0.9615241 0
vn -0.274721 -0.9615241 0
vn -0.274721 -0.9615241 0
vn 0 0 1
vn 0 0 1
vn 0 0 1
vn 0.03307433 0.03124758 0.9989643
vn 0 0 1
vn 0 0 1
vn 0 0 1
vn 0 0 1
vn 0 0 1
vn -1 0 0
vn -1 0 0
vn -1 0 0
vn -1 0 0
vn 0.01286122 -0.9999173 0
vn 0.01286122 -0.9999173 0
vn 0.01286122 -0.9999173 0
vn 0.01286121 -0.9999173 0
vn 1 0 0
vn 1 0 0
vn 1 0 0
vn 1 0 0
vn 1 0 0
vn 2.623447E-06 0 -1
vn 2.623447E-06 0 -1
vn 2.623447E-06 0 -1
vn -3.054816E-06 0 -1
vn 0 0 -1
vn 0 0 -1
vn 0 -1 1.882645E-07
vn 0 -1 0
vn 0 -1 0
vn 0 -1 1.882645E-07
vn 0 -1 1.882645E-07
vn 0 -1 0
vn -1 0 0
vn -1 0 0
vn -1 0 0
vn -1 0 0
vn -1 0 0
vn -1 0 0
vn 1 0 0
vn 1 0 0
vn 1 0 0
vn 1 0 0
vn 0 0 -1
vn 0 0 -1
vn 0 0 -1
vn 0 0 -1
vn 0 1 0
vn 0 1 0
vn 0 1 0
vn 0 1 0
g Maze_M2_3.B02_0
f 3/3/3 2/2/2 1/1/1
f 1/1/1 4/4/4 3/3/3
f 1/1/1 5/5/5 4/4/4
f 6/6/6 4/4/4 5/5/5
f 1/1/1 7/7/7 5/5/5
f 5/5/5 8/8/8 6/6/6
f 5/5/5 9/9/9 8/8/8
f 7/7/7 10/10/10 5/5/5
f 10/10/10 11/11/11 5/5/5
f 11/11/11 12/12/12 5/5/5
f 13/13/13 12/12/12 11/11/11
f 14/14/14 13/13/13 11/11/11
f 17/17/17 16/16/16 15/15/15
f 18/18/18 17/17/17 15/15/15
f 18/18/18 15/15/15 19/19/19
f 20/20/20 18/18/18 19/19/19
f 20/20/20 19/19/19 21/21/21
f 19/19/19 22/22/22 21/21/21
f 21/21/21 22/22/22 23/23/23
f 22/22/22 24/24/24 23/23/23
f 23/23/23 24/24/24 25/25/25
f 26/26/26 23/23/23 25/25/25
f 26/26/26 25/25/25 27/27/27
f 28/28/28 26/26/26 27/27/27
f 28/28/28 27/27/27 29/29/29
f 30/30/30 28/28/28 29/29/29
g Maze_M2_3.B02_1
f 33/33/33 32/32/32 31/31/31
f 36/36/36 35/35/35 34/34/34
f 36/36/36 34/34/34 37/37/37
f 37/37/37 38/38/38 36/36/36
f 34/34/34 39/39/39 37/37/37
f 42/42/42 41/41/41 40/40/40
f 40/40/40 43/43/43 42/42/42
f 40/40/40 44/44/44 43/43/43
f 47/47/47 46/46/46 45/45/45
f 48/48/48 47/47/47 45/45/45
f 51/51/51 50/50/50 49/49/49
f 49/49/49 52/52/52 51/51/51
f 49/49/49 53/53/53 52/52/52
f 56/56/56 55/55/55 54/54/54
f 54/54/54 57/57/57 56/56/56
f 54/54/54 58/58/58 57/57/57
f 61/61/61 60/60/60 59/59/59
f 60/60/60 62/62/62 59/59/59
f 63/63/63 59/59/59 62/62/62
f 63/63/63 62/62/62 64/64/64
f 63/63/63 64/64/64 65/65/65
f 65/65/65 66/66/66 63/63/63
f 69/69/69 68/68/68 67/67/67
f 70/70/70 69/69/69 67/67/67
f 73/73/73 72/72/72 71/71/71
f 74/74/74 73/73/73 71/71/71
f 77/77/77 76/76/76 75/75/75
f 75/75/75 78/78/78 77/77/77
f 75/75/75 79/79/79 78/78/78
f 79/79/79 80/80/80 78/78/78
f 81/81/81 80/80/80 79/79/79
f 82/82/82 81/81/81 79/79/79
f 85/85/85 84/84/84 83/83/83
f 86/86/86 85/85/85 83/83/83
f 88/88/88 85/85/85 87/87/87
f 89/89/89 88/88/88 87/87/87
f 92/92/92 91/91/91 90/90/90
f 90/90/90 93/93/93 92/92/92
f 90/90/90 94/94/94 93/93/93
f 90/90/90 95/95/95 94/94/94
f 96/96/96 94/94/94 95/95/95
f 97/97/97 96/96/96 95/95/95
f 100/100/100 99/99/99 98/98/98
f 101/101/101 100/100/100 98/98/98
f 104/104/104 103/103/103 102/102/102
f 102/102/102 105/105/105 104/104/104
f 105/105/105 106/106/106 104/104/104
f 105/105/105 107/107/107 106/106/106
f 110/110/110 109/109/109 108/108/108
f 111/111/111 110/110/110 108/108/108
f 114/114/114 113/113/113 112/112/112
f 115/115/115 114/114/114 112/112/112
f 115/115/115 112/112/112 116/116/116
f 117/117/117 115/115/115 116/116/116
f 120/120/120 119/119/119 118/118/118
f 121/121/121 120/120/120 118/118/118
f 124/124/124 123/123/123 122/122/122
f 123/123/123 124/124/124 125/125/125
f 124/124/124 126/126/126 125/125/125
f 126/126/126 127/127/127 125/125/125
f 123/123/123 125/125/125 128/128/128
f 123/123/123 128/128/128 129/129/129
f 130/130/130 123/123/123 129/129/129
f 130/130/130 129/129/129 131/131/131
f 130/130/130 131/131/131 132/132/132
f 130/130/130 132/132/132 133/133/133
f 134/134/134 133/133/133 132/132/132
f 133/133/133 134/134/134 130/130/130
f 136/136/136 131/131/131 135/135/135
f 135/135/135 128/128/128 137/137/137
f 135/135/135 137/137/137 136/136/136
f 128/128/128 138/138/138 137/137/137
f 139/139/139 136/136/136 137/137/137
f 137/137/137 138/138/138 140/140/140
f 138/138/138 141/141/141 140/140/140
f 137/137/137 142/142/142 139/139/139
f 137/137/137 140/140/140 142/142/142
f 139/139/139 142/142/142 143/143/143
f 140/140/140 144/144/144 142/142/142
f 142/142/142 144/144/144 143/143/143
f 144/144/144 145/145/145 143/143/143
f 148/148/148 147/147/147 146/146/146
f 147/147/147 149/149/149 146/146/146
f 146/146/146 149/149/149 150/150/150
f 149/149/149 151/151/151 150/150/150
f 150/150/150 151/151/151 152/152/152
f 151/151/151 153/153/153 152/152/152
f 156/156/156 155/155/155 154/154/154
f 157/157/157 156/156/156 154/154/154
f 160/160/160 159/159/159 158/158/158
f 161/161/161 160/160/160 158/158/158
f 164/164/164 163/163/163 162/162/162
f 162/162/162 165/165/165 164/164/164
f 168/168/168 167/167/167 166/166/166
f 166/166/166 169/169/169 168/168/168
f 169/169/169 170/170/170 168/168/168
f 173/173/173 172/172/172 171/171/171
f 171/171/171 174/174/174 173/173/173
f 171/171/171 175/175/175 174/174/174
f 171/171/171 176/176/176 175/175/175
f 179/179/179 178/178/178 177/177/177
f 179/179/179 177/177/177 180/180/180
f 180/180/180 181/181/181 179/179/179
f 182/182/182 181/181/181 180/180/180
f 180/180/180 183/183/183 182/182/182
f 180/180/180 184/184/184 183/183/183
f 180/180/180 185/185/185 184/184/184
f 184/184/184 185/185/185 186/186/186
f 189/189/189 188/188/188 187/187/187
f 190/190/190 189/189/189 187/187/187
f 193/193/193 192/192/192 191/191/191
f 194/194/194 193/193/193 191/191/191
f 195/195/195 193/193/193 194/194/194
f 196/196/196 195/195/195 194/194/194
f 194/194/194 197/197/197 196/196/196
f 197/197/197 198/198/198 196/196/196
f 201/201/201 200/200/200 199/199/199
f 202/202/202 201/201/201 199/199/199
f 205/205/205 204/204/204 203/203/203
f 206/206/206 205/205/205 203/203/203
f 209/209/209 208/208/208 207/207/207
f 207/207/207 210/210/210 209/209/209
f 213/213/213 212/212/212 211/211/211
f 214/214/214 213/213/213 211/211/211
f 217/217/217 216/216/216 215/215/215
f 218/218/218 217/217/217 215/215/215
f 221/221/221 220/220/220 219/219/219
f 222/222/222 221/221/221 219/219/219
f 225/225/225 224/224/224 223/223/223
f 223/223/223 226/226/226 225/225/225
f 223/223/223 227/227/227 226/226/226
f 230/230/230 229/229/229 228/228/228
f 231/231/231 230/230/230 228/228/228
f 234/234/234 233/233/233 232/232/232
f 235/235/235 234/234/234 232/232/232
f 238/238/238 237/237/237 236/236/236
f 239/239/239 238/238/238 236/236/236
f 242/242/242 241/241/241 240/240/240
f 243/243/243 242/242/242 240/240/240
f 246/246/246 245/245/245 244/244/244
f 247/247/247 246/246/246 244/244/244
f 250/250/250 249/249/249 248/248/248
f 251/251/251 250/250/250 248/248/248
f 254/254/254 253/253/253 252/252/252
f 255/255/255 254/254/254 252/252/252
f 256/256/256 254/254/254 255/255/255
f 257/257/257 256/256/256 255/255/255
f 260/260/260 259/259/259 258/258/258
f 258/258/258 261/261/261 260/260/260
f 258/258/258 262/262/262 261/261/261
f 258/258/258 263/263/263 262/262/262
f 266/266/266 265/265/265 264/264/264
f 264/264/264 267/267/267 266/266/266
f 264/264/264 268/268/268 267/267/267
f 271/271/271 270/270/270 269/269/269
f 272/272/272 271/271/271 269/269/269
f 275/275/275 274/274/274 273/273/273
f 276/276/276 275/275/275 273/273/273
f 279/279/279 278/278/278 277/277/277
f 280/280/280 279/279/279 277/277/277
f 283/283/283 282/282/282 281/281/281
f 284/284/284 283/283/283 281/281/281
f 287/287/287 286/286/286 285/285/285
f 288/288/288 287/287/287 285/285/285
f 291/291/291 290/290/290 289/289/289
f 292/292/292 291/291/291 289/289/289
f 295/295/295 294/294/294 293/293/293
f 296/296/296 295/295/295 293/293/293
f 299/299/299 298/298/298 297/297/297
f 297/297/297 300/300/300 299/299/299
f 300/300/300 302/302/302 301/301/301
f 300/300/300 301/301/301 303/303/303
f 300/300/300 303/303/303 304/304/304
f 304/304/304 305/305/305 300/300/300
f 308/308/308 307/307/307 306/306/306
f 306/306/306 309/309/309 308/308/308
f 312/312/312 311/311/311 310/310/310
f 312/312/312 310/310/310 313/313/313
f 316/316/316 315/315/315 314/314/314
f 314/314/314 317/317/317 316/316/316
f 317/317/317 318/318/318 316/316/316
f 321/321/321 320/320/320 319/319/319
f 319/319/319 322/322/322 321/321/321
f 322/322/322 323/323/323 321/321/321
f 322/322/322 324/324/324 323/323/323
f 327/327/327 326/326/326 325/325/325
f 328/328/328 327/327/327 325/325/325
f 325/325/325 329/329/329 328/328/328
f 329/329/329 325/325/325 330/330/330
f 333/333/333 332/332/332 331/331/331
f 333/333/333 331/331/331 334/334/334
f 333/333/333 334/334/334 335/335/335
f 335/335/335 336/336/336 333/333/333
f 339/339/339 338/338/338 337/337/337
f 337/337/337 340/340/340 339/339/339
f 343/343/343 342/342/342 341/341/341
f 341/341/341 344/344/344 343/343/343
f 347/347/347 346/346/346 345/345/345
f 348/348/348 347/347/347 345/345/345
