g Mesh4
v 6.508827 26.82 -39.63026
v 6.508827 32.82 -39.63026
v 11.74129 32.82 -34.46371
v 11.74129 26.82 -34.46371
v 34.58172 32.82 -11.91098
v 34.58172 26.82 -11.91098
v 17.18326 26.82 -50.44087
v 6.508827 26.82 -39.63026
v 11.74129 26.82 -34.46371
v 16.57543 26.82 -34.05295
v 34.58172 26.82 -11.91098
v 24.76423 26.82 -42.34621
v 20.28101 26.82 -47.38215
v 24.91085 26.82 -52.07105
v 28.78566 26.82 -38.37544
v 37.26043 26.82 -39.87703
v 28.34924 26.82 -30.85217
v 24.80889 26.82 -34.34793
v 27.87808 26.82 -22.89268
v 30.9475 26.82 -19.86192
v 36.76279 26.82 -14.11988
v 34.90054 26.82 -30.00473
v 37.96996 26.82 -26.97397
v 6.508827 26.82 -39.63026
v 17.18326 26.82 -50.44087
v 11.74129 26.82 -34.46371
v 16.57543 26.82 -34.05295
v 34.58172 26.82 -11.91098
v 24.76423 26.82 -42.34621
v 20.28101 26.82 -47.38215
v 24.91085 26.82 -52.07105
v 28.78566 26.82 -38.37544
v 37.26043 26.82 -39.87703
v 28.34924 26.82 -30.85217
v 24.80889 26.82 -34.34793
v 27.87808 26.82 -22.89268
v 30.9475 26.82 -19.86192
v 36.76279 26.82 -14.11988
v 34.90054 26.82 -30.00473
v 37.96996 26.82 -26.97397
v 17.18326 32.82 -50.44087
v 17.18326 26.82 -50.44087
v 20.28101 26.82 -47.38215
v 20.28101 32.82 -47.38215
v 17.18326 26.82 -50.44087
v 17.18326 32.82 -50.44087
v 20.28101 26.82 -47.38215
v 20.28101 32.82 -47.38215
v 11.74129 32.82 -34.46371
v 6.508827 32.82 -39.63026
v 17.18326 32.82 -50.44087
v 16.57543 32.82 -34.05295
v 34.58172 32.82 -11.91098
v 24.76423 32.82 -42.34621
v 20.28101 32.82 -47.38215
v 24.91085 32.82 -52.07105
v 28.78566 32.82 -38.37544
v 37.26043 32.82 -39.87703
v 28.34924 32.82 -30.85217
v 24.80889 32.82 -34.34793
v 27.87808 32.82 -22.89268
v 30.9475 32.82 -19.86192
v 36.76279 32.82 -14.11988
v 34.90054 32.82 -30.00473
v 37.96996 32.82 -26.97397
v 6.508827 32.82 -39.63026
v 11.74129 32.82 -34.46371
v 17.18326 32.82 -50.44087
v 16.57543 32.82 -34.05295
v 34.58172 32.82 -11.91098
v 24.76423 32.82 -42.34621
v 20.28101 32.82 -47.38215
v 24.91085 32.82 -52.07105
v 28.78566 32.82 -38.37544
v 37.26043 32.82 -39.87703
v 28.34924 32.82 -30.85217
v 24.80889 32.82 -34.34793
v 27.87808 32.82 -22.89268
v 30.9475 32.82 -19.86192
v 36.76279 32.82 -14.11988
v 34.90054 32.82 -30.00473
v 37.96996 32.82 -26.97397
v 17.18326 32.82 -50.44087
v 6.508827 32.82 -39.63026
v 6.508827 26.82 -39.63026
v 17.18326 26.82 -50.44087
v 6.508827 32.82 -39.63026
v 17.18326 32.82 -50.44087
v 6.508827 26.82 -39.63026
v 17.18326 26.82 -50.44087
v 6.508827 32.82 -39.63026
v 6.508827 26.82 -39.63026
v 11.74129 32.82 -34.46371
v 11.74129 26.82 -34.46371
v 34.58172 32.82 -11.91098
v 34.58172 26.82 -11.91098
v 34.58172 32.82 -11.91098
v 36.76279 32.82 -14.11988
v 36.76279 26.82 -14.11988
v 34.58172 26.82 -11.91098
v 34.58172 26.82 -11.91098
v 36.76279 26.82 -14.11988
v 34.58172 32.82 -11.91098
v 36.76279 32.82 -14.11988
v 16.57543 32.82 -34.05295
v 16.57543 26.82 -34.05295
v 27.87808 26.82 -22.89268
v 27.87808 32.82 -22.89268
v 16.57543 26.82 -34.05295
v 16.57543 32.82 -34.05295
v 27.87808 26.82 -22.89268
v 27.87808 32.82 -22.89268
v 34.90054 32.82 -30.00473
v 27.87808 32.82 -22.89268
v 27.87808 26.82 -22.89268
v 34.90054 26.82 -30.00473
v 27.87808 32.82 -22.89268
v 34.90054 32.82 -30.00473
v 27.87808 26.82 -22.89268
v 34.90054 26.82 -30.00473
v 37.96996 32.82 -26.97397
v 34.90054 32.82 -30.00473
v 34.90054 26.82 -30.00473
v 37.96996 26.82 -26.97397
v 37.96996 26.82 -26.97397
v 34.90054 26.82 -30.00473
v 37.96996 32.82 -26.97397
v 34.90054 32.82 -30.00473
v 30.9475 32.82 -19.86192
v 37.96996 32.82 -26.97397
v 37.96996 26.82 -26.97397
v 30.9475 26.82 -19.86192
v 30.9475 26.82 -19.86192
v 37.96996 26.82 -26.97397
v 30.9475 32.82 -19.86192
v 37.96996 32.82 -26.97397
v 30.9475 32.82 -19.86192
v 30.9475 26.82 -19.86192
v 36.76279 26.82 -14.11988
v 36.76279 32.82 -14.11988
v 30.9475 26.82 -19.86192
v 30.9475 32.82 -19.86192
v 36.76279 26.82 -14.11988
v 36.76279 32.82 -14.11988
v 24.76423 26.82 -42.34621
v 16.57543 26.82 -34.05295
v 16.57543 32.82 -34.05295
v 24.76423 32.82 -42.34621
v 16.57543 26.82 -34.05295
v 24.76423 26.82 -42.34621
v 16.57543 32.82 -34.05295
v 24.76423 32.82 -42.34621
v 24.76423 26.82 -42.34621
v 24.76423 32.82 -42.34621
v 28.78566 32.82 -38.37544
v 28.78566 26.82 -38.37544
v 28.78566 26.82 -38.37544
v 28.78566 32.82 -38.37544
v 24.76423 26.82 -42.34621
v 24.76423 32.82 -42.34621
v 20.28101 26.82 -47.38215
v 24.91085 26.82 -52.07105
v 24.91085 32.82 -52.07105
v 20.28101 32.82 -47.38215
v 20.28101 32.82 -47.38215
v 24.91085 32.82 -52.07105
v 20.28101 26.82 -47.38215
v 24.91085 26.82 -52.07105
v 24.91085 32.82 -52.07105
v 24.91085 26.82 -52.07105
v 37.26043 26.82 -39.87703
v 37.26043 32.82 -39.87703
v 24.91085 26.82 -52.07105
v 24.91085 32.82 -52.07105
v 37.26043 26.82 -39.87703
v 37.26043 32.82 -39.87703
v 28.34924 32.82 -30.85217
v 28.34924 26.82 -30.85217
v 24.80889 26.82 -34.34793
v 24.80889 32.82 -34.34793
v 28.34924 26.82 -30.85217
v 28.34924 32.82 -30.85217
v 24.80889 26.82 -34.34793
v 24.80889 32.82 -34.34793
v 28.78566 32.82 -38.37544
v 24.80889 32.82 -34.34793
v 24.80889 26.82 -34.34793
v 28.78566 26.82 -38.37544
v 24.80889 32.82 -34.34793
v 28.78566 32.82 -38.37544
v 24.80889 26.82 -34.34793
v 28.78566 26.82 -38.37544
v 28.34924 32.82 -30.85217
v 37.26043 32.82 -39.87703
v 37.26043 26.82 -39.87703
v 28.34924 26.82 -30.85217
v 28.34924 26.82 -30.85217
v 37.26043 26.82 -39.87703
v 28.34924 32.82 -30.85217
v 37.26043 32.82 -39.87703
vt -91.33529 0
vt -91.33529 23.62205
vt -62.38502 23.62205
vt -62.38502 0
vt 63.98684 23.62205
vt 63.98684 0
vt -21.42508 151.6925
vt 20.60026 109.131
vt -2.842171E-14 88.79026
vt -19.03205 87.17311
vt -89.92294 3.792696E-31
vt -51.27142 119.8237
vt -33.62092 139.6503
vt -51.84865 158.1105
vt -67.10382 104.1908
vt -100.469 110.1026
vt -65.38562 74.57159
vt -51.44721 88.33443
vt -63.53065 43.23501
vt -75.61497 31.3029
vt -98.50983 8.696434
vt -91.17815 71.23521
vt -103.2625 59.3031
vt 20.60026 109.131
vt -21.42508 151.6925
vt -2.842171E-14 88.79026
vt -19.03205 87.17311
vt -89.92294 3.792696E-31
vt -51.27142 119.8237
vt -33.62092 139.6503
vt -51.84865 158.1105
vt -67.10382 104.1908
vt -100.469 110.1026
vt -65.38562 74.57159
vt -51.44721 88.33443
vt -63.53065 43.23501
vt -75.61497 31.3029
vt -98.50983 8.696434
vt -91.17815 71.23521
vt -103.2625 59.3031
vt 91.33529 23.62205
vt 91.33529 0
vt 74.19604 0
vt 74.19604 23.62205
vt 91.33529 0
vt 91.33529 23.62205
vt 74.19604 0
vt 74.19604 23.62205
vt 2.842171E-14 88.79026
vt -20.60026 109.131
vt 21.42508 151.6925
vt 19.03205 87.17311
vt 89.92294 0
vt 51.27142 119.8237
vt 33.62092 139.6503
vt 51.84865 158.1105
vt 67.10382 104.1908
vt 100.469 110.1026
vt 65.38562 74.57159
vt 51.44721 88.33443
vt 63.53065 43.23501
vt 75.61497 31.3029
vt 98.50983 8.696434
vt 91.17815 71.23521
vt 103.2625 59.3031
vt -20.60026 109.131
vt 2.842171E-14 88.79026
vt 21.42508 151.6925
vt 19.03205 87.17311
vt 89.92294 0
vt 51.27142 119.8237
vt 33.62092 139.6503
vt 51.84865 158.1105
vt 67.10382 104.1908
vt 100.469 110.1026
vt 65.38562 74.57159
vt 51.44721 88.33443
vt 63.53065 43.23501
vt 75.61497 31.3029
vt 98.50983 8.696434
vt 91.17815 71.23521
vt 103.2625 59.3031
vt -122.9939 23.62205
vt -63.18085 23.62205
vt -63.18085 8.17163E-16
vt -122.9939 8.17163E-16
vt -63.18085 23.62205
vt -122.9939 23.62205
vt -63.18085 8.17163E-16
vt -122.9939 8.17163E-16
vt -91.33529 23.62205
vt -91.33529 0
vt -62.38502 23.62205
vt -62.38502 0
vt 63.98684 23.62205
vt 63.98684 0
vt 63.18085 23.62205
vt 75.40225 23.62205
vt 75.40225 0
vt 63.18085 0
vt 63.18085 0
vt 75.40225 0
vt 63.18085 23.62205
vt 75.40225 23.62205
vt 47.70608 23.62205
vt 47.70608 1.769012E-15
vt -14.82937 7.282328E-14
vt -14.82937 23.62205
vt 47.70608 1.769012E-15
vt 47.70608 23.62205
vt -14.82937 7.282328E-14
vt -14.82937 23.62205
vt -114.7519 23.62205
vt -75.40225 23.62205
vt -75.40225 7.105427E-14
vt -114.7519 7.105427E-14
vt -75.40225 23.62205
vt -114.7519 23.62205
vt -75.40225 7.105427E-14
vt -114.7519 7.105427E-14
vt -31.8119 23.62205
vt -14.82937 23.62205
vt -14.82937 7.18401E-14
vt -31.8119 7.858209E-16
vt -31.8119 7.858209E-16
vt -14.82937 7.18401E-14
vt -31.8119 23.62205
vt -14.82937 23.62205
vt 75.40225 23.62205
vt 114.7519 23.62205
vt 114.7519 0
vt 75.40225 0
vt 75.40225 0
vt 114.7519 0
vt 75.40225 23.62205
vt 114.7519 23.62205
vt -31.8119 23.62205
vt -31.8119 0
vt -63.98684 0
vt -63.98684 23.62205
vt -31.8119 0
vt -31.8119 23.62205
vt -63.98684 0
vt -63.98684 23.62205
vt 121.2873 9.704742E-29
vt 75.40225 9.704742E-29
vt 75.40225 23.62205
vt 121.2873 23.62205
vt 75.40225 9.704742E-29
vt 121.2873 9.704742E-29
vt 75.40225 23.62205
vt 121.2873 23.62205
vt -47.70608 -2.197965E-15
vt -47.70608 23.62205
vt -25.45624 23.62205
vt -25.45624 -2.197965E-15
vt -25.45624 -2.197965E-15
vt -25.45624 23.62205
vt -47.70608 -2.197965E-15
vt -47.70608 23.62205
vt -122.9939 0
vt -148.9368 0
vt -148.9368 23.62205
vt -122.9939 23.62205
vt -122.9939 23.62205
vt -148.9368 23.62205
vt -122.9939 0
vt -148.9368 0
vt 74.19604 23.62205
vt 74.19604 7.670531E-15
vt 5.868107 7.670531E-15
vt 5.868107 23.62205
vt 74.19604 7.670531E-15
vt 74.19604 23.62205
vt 5.868107 7.670531E-15
vt 5.868107 23.62205
vt -5.868107 23.62205
vt -5.868107 0
vt -25.45624 0
vt -25.45624 23.62205
vt -5.868107 0
vt -5.868107 23.62205
vt -25.45624 0
vt -25.45624 23.62205
vt -121.2873 23.62205
vt -99.00388 23.62205
vt -99.00388 0
vt -121.2873 0
vt -99.00388 23.62205
vt -121.2873 23.62205
vt -99.00388 0
vt -121.2873 0
vt 99.00388 23.62205
vt 148.9368 23.62205
vt 148.9368 -1.051152E-15
vt 99.00388 -1.051152E-15
vt 99.00388 -1.051152E-15
vt 148.9368 -1.051152E-15
vt 99.00388 23.62205
vt 148.9368 23.62205
vn -0.702611 0 0.7115741
vn -0.702611 0 0.7115741
vn -0.702611 0 0.7115741
vn -0.702611 0 0.7115741
vn -0.702611 0 0.7115741
vn -0.702611 0 0.7115741
vn 0 -1 0
vn 0 -1 0
vn 0 -1 0
vn 0 -1 0
vn 0 -1 0
vn 0 -1 0
vn 0 -1 0
vn 0 -1 0
vn 0 -1 0
vn 0 -1 0
vn 0 -1 0
vn 0 -1 0
vn 0 -1 0
vn 0 -1 0
vn 0 -1 0
vn 0 -1 0
vn 0 -1 0
vn 0 1 0
vn 0 1 0
vn 0 1 0
vn 0 1 0
vn 0 1 0
vn 0 1 0
vn 0 1 0
vn 0 1 0
vn 0 1 0
vn 0 1 0
vn 0 1 0
vn 0 1 0
vn 0 1 0
vn 0 1 0
vn 0 1 0
vn 0 1 0
vn 0 1 0
vn 0.702611 0 -0.7115741
vn 0.702611 0 -0.7115741
vn 0.702611 0 -0.7115741
vn 0.702611 0 -0.7115741
vn -0.702611 0 0.7115741
vn -0.702611 0 0.7115741
vn -0.702611 0 0.7115741
vn -0.702611 0 0.7115741
vn 0 1 0
vn 0 1 0
vn 0 1 0
vn 0 1 0
vn 0 1 0
vn 0 1 0
vn 0 1 0
vn 0 1 0
vn 0 1 0
vn 0 1 0
vn 0 1 0
vn 0 1 0
vn 0 1 0
vn 0 1 0
vn 0 1 0
vn 0 1 0
vn 0 1 0
vn 0 -1 0
vn 0 -1 0
vn 0 -1 0
vn 0 -1 0
vn 0 -1 0
vn 0 -1 0
vn 0 -1 0
vn 0 -1 0
vn 0 -1 0
vn 0 -1 0
vn 0 -1 0
vn 0 -1 0
vn 0 -1 0
vn 0 -1 0
vn 0 -1 0
vn 0 -1 0
vn 0 -1 0
vn -0.7115741 0 -0.702611
vn -0.7115741 0 -0.702611
vn -0.7115741 0 -0.702611
vn -0.7115741 0 -0.702611
vn 0.7115741 0 0.702611
vn 0.7115741 0 0.702611
vn 0.7115741 0 0.702611
vn 0.7115741 0 0.702611
vn 0.702611 0 -0.7115741
vn 0.702611 0 -0.7115741
vn 0.702611 0 -0.7115741
vn 0.702611 0 -0.7115741
vn 0.702611 0 -0.7115741
vn 0.702611 0 -0.7115741
vn 0.7115741 0 0.702611
vn 0.7115741 0 0.702611
vn 0.7115741 0 0.702611
vn 0.7115741 0 0.702611
vn -0.7115741 0 -0.702611
vn -0.7115741 0 -0.702611
vn -0.7115741 0 -0.702611
vn -0.7115741 0 -0.702611
vn 0.702611 0 -0.7115741
vn 0.702611 0 -0.7115741
vn 0.702611 0 -0.7115741
vn 0.702611 0 -0.7115741
vn -0.702611 0 0.7115741
vn -0.702611 0 0.7115741
vn -0.702611 0 0.7115741
vn -0.702611 0 0.7115741
vn -0.7115741 0 -0.702611
vn -0.7115741 0 -0.702611
vn -0.7115741 0 -0.702611
vn -0.7115741 0 -0.702611
vn 0.7115741 0 0.702611
vn 0.7115741 0 0.702611
vn 0.7115741 0 0.702611
vn 0.7115741 0 0.702611
vn 0.702611 0 -0.7115741
vn 0.702611 0 -0.7115741
vn 0.702611 0 -0.7115741
vn 0.702611 0 -0.7115741
vn -0.702611 0 0.7115741
vn -0.702611 0 0.7115741
vn -0.702611 0 0.7115741
vn -0.702611 0 0.7115741
vn 0.7115741 0 0.702611
vn 0.7115741 0 0.702611
vn 0.7115741 0 0.702611
vn 0.7115741 0 0.702611
vn -0.7115741 0 -0.702611
vn -0.7115741 0 -0.702611
vn -0.7115741 0 -0.702611
vn -0.7115741 0 -0.702611
vn 0.702611 0 -0.7115741
vn 0.702611 0 -0.7115741
vn 0.702611 0 -0.7115741
vn 0.702611 0 -0.7115741
vn -0.702611 0 0.7115741
vn -0.702611 0 0.7115741
vn -0.702611 0 0.7115741
vn -0.702611 0 0.7115741
vn 0.7115741 0 0.702611
vn 0.7115741 0 0.702611
vn 0.7115741 0 0.702611
vn 0.7115741 0 0.702611
vn -0.7115741 0 -0.702611
vn -0.7115741 0 -0.702611
vn -0.7115741 0 -0.702611
vn -0.7115741 0 -0.702611
vn -0.702611 0 0.7115741
vn -0.702611 0 0.7115741
vn -0.702611 0 0.7115741
vn -0.702611 0 0.7115741
vn 0.702611 0 -0.7115741
vn 0.702611 0 -0.7115741
vn 0.702611 0 -0.7115741
vn 0.702611 0 -0.7115741
vn -0.7115741 0 -0.702611
vn -0.7115741 0 -0.702611
vn -0.7115741 0 -0.702611
vn -0.7115741 0 -0.702611
vn 0.7115741 0 0.702611
vn 0.7115741 0 0.702611
vn 0.7115741 0 0.702611
vn 0.7115741 0 0.702611
vn 0.702611 0 -0.7115741
vn 0.702611 0 -0.7115741
vn 0.702611 0 -0.7115741
vn 0.702611 0 -0.7115741
vn -0.702611 0 0.7115741
vn -0.702611 0 0.7115741
vn -0.702611 0 0.7115741
vn -0.702611 0 0.7115741
vn -0.702611 0 0.7115741
vn -0.702611 0 0.7115741
vn -0.702611 0 0.7115741
vn -0.702611 0 0.7115741
vn 0.702611 0 -0.7115741
vn 0.702611 0 -0.7115741
vn 0.702611 0 -0.7115741
vn 0.702611 0 -0.7115741
vn -0.7115741 0 -0.702611
vn -0.7115741 0 -0.702611
vn -0.7115741 0 -0.702611
vn -0.7115741 0 -0.702611
vn 0.7115741 0 0.702611
vn 0.7115741 0 0.702611
vn 0.7115741 0 0.702611
vn 0.7115741 0 0.702611
vn 0.7115741 0 0.702611
vn 0.7115741 0 0.702611
vn 0.7115741 0 0.702611
vn 0.7115741 0 0.702611
vn -0.7115741 0 -0.702611
vn -0.7115741 0 -0.702611
vn -0.7115741 0 -0.702611
vn -0.7115741 0 -0.702611
g Mesh4_0
f 3/3/3 2/2/2 1/1/1
f 1/1/1 4/4/4 3/3/3
f 5/5/5 3/3/3 4/4/4
f 4/4/4 6/6/6 5/5/5
f 9/9/9 8/8/8 7/7/7
f 7/7/7 10/10/10 9/9/9
f 11/11/11 9/9/9 10/10/10
f 7/7/7 12/12/12 10/10/10
f 7/7/7 13/13/13 12/12/12
f 13/13/13 14/14/14 12/12/12
f 14/14/14 15/15/15 12/12/12
f 14/14/14 16/16/16 15/15/15
f 15/15/15 16/16/16 17/17/17
f 17/17/17 18/18/18 15/15/15
f 10/10/10 19/19/19 11/11/11
f 19/19/19 20/20/20 11/11/11
f 20/20/20 21/21/21 11/11/11
f 20/20/20 19/19/19 22/22/22
f 22/22/22 23/23/23 20/20/20
f 26/26/26 25/25/25 24/24/24
f 25/25/25 26/26/26 27/27/27
f 28/28/28 27/27/27 26/26/26
f 25/25/25 27/27/27 29/29/29
f 25/25/25 29/29/29 30/30/30
f 30/30/30 29/29/29 31/31/31
f 31/31/31 29/29/29 32/32/32
f 31/31/31 32/32/32 33/33/33
f 32/32/32 34/34/34 33/33/33
f 34/34/34 32/32/32 35/35/35
f 27/27/27 28/28/28 36/36/36
f 36/36/36 28/28/28 37/37/37
f 37/37/37 28/28/28 38/38/38
f 37/37/37 39/39/39 36/36/36
f 39/39/39 37/37/37 40/40/40
f 43/43/43 42/42/42 41/41/41
f 41/41/41 44/44/44 43/43/43
f 47/47/47 46/46/46 45/45/45
f 46/46/46 47/47/47 48/48/48
f 51/51/51 50/50/50 49/49/49
f 49/49/49 52/52/52 51/51/51
f 52/52/52 49/49/49 53/53/53
f 52/52/52 54/54/54 51/51/51
f 54/54/54 55/55/55 51/51/51
f 54/54/54 56/56/56 55/55/55
f 54/54/54 57/57/57 56/56/56
f 57/57/57 58/58/58 56/56/56
f 59/59/59 58/58/58 57/57/57
f 57/57/57 60/60/60 59/59/59
f 53/53/53 61/61/61 52/52/52
f 53/53/53 62/62/62 61/61/61
f 53/53/53 63/63/63 62/62/62
f 64/64/64 61/61/61 62/62/62
f 62/62/62 65/65/65 64/64/64
f 68/68/68 67/67/67 66/66/66
f 67/67/67 68/68/68 69/69/69
f 69/69/69 70/70/70 67/67/67
f 69/69/69 68/68/68 71/71/71
f 71/71/71 68/68/68 72/72/72
f 71/71/71 72/72/72 73/73/73
f 71/71/71 73/73/73 74/74/74
f 74/74/74 73/73/73 75/75/75
f 76/76/76 74/74/74 75/75/75
f 74/74/74 76/76/76 77/77/77
f 70/70/70 69/69/69 78/78/78
f 70/70/70 78/78/78 79/79/79
f 70/70/70 79/79/79 80/80/80
f 81/81/81 79/79/79 78/78/78
f 79/79/79 81/81/81 82/82/82
f 85/85/85 84/84/84 83/83/83
f 83/83/83 86/86/86 85/85/85
f 89/89/89 88/88/88 87/87/87
f 88/88/88 89/89/89 90/90/90
f 93/93/93 92/92/92 91/91/91
f 92/92/92 93/93/93 94/94/94
f 95/95/95 94/94/94 93/93/93
f 94/94/94 95/95/95 96/96/96
f 99/99/99 98/98/98 97/97/97
f 97/97/97 100/100/100 99/99/99
f 103/103/103 102/102/102 101/101/101
f 102/102/102 103/103/103 104/104/104
f 107/107/107 106/106/106 105/105/105
f 105/105/105 108/108/108 107/107/107
f 111/111/111 110/110/110 109/109/109
f 110/110/110 111/111/111 112/112/112
f 115/115/115 114/114/114 113/113/113
f 113/113/113 116/116/116 115/115/115
f 119/119/119 118/118/118 117/117/117
f 118/118/118 119/119/119 120/120/120
f 123/123/123 122/122/122 121/121/121
f 121/121/121 124/124/124 123/123/123
f 127/127/127 126/126/126 125/125/125
f 126/126/126 127/127/127 128/128/128
f 131/131/131 130/130/130 129/129/129
f 129/129/129 132/132/132 131/131/131
f 135/135/135 134/134/134 133/133/133
f 134/134/134 135/135/135 136/136/136
f 139/139/139 138/138/138 137/137/137
f 137/137/137 140/140/140 139/139/139
f 143/143/143 142/142/142 141/141/141
f 142/142/142 143/143/143 144/144/144
f 147/147/147 146/146/146 145/145/145
f 145/145/145 148/148/148 147/147/147
f 151/151/151 150/150/150 149/149/149
f 150/150/150 151/151/151 152/152/152
f 155/155/155 154/154/154 153/153/153
f 153/153/153 156/156/156 155/155/155
f 159/159/159 158/158/158 157/157/157
f 158/158/158 159/159/159 160/160/160
f 163/163/163 162/162/162 161/161/161
f 161/161/161 164/164/164 163/163/163
f 167/167/167 166/166/166 165/165/165
f 166/166/166 167/167/167 168/168/168
f 171/171/171 170/170/170 169/169/169
f 169/169/169 172/172/172 171/171/171
f 175/175/175 174/174/174 173/173/173
f 174/174/174 175/175/175 176/176/176
f 179/179/179 178/178/178 177/177/177
f 177/177/177 180/180/180 179/179/179
f 183/183/183 182/182/182 181/181/181
f 182/182/182 183/183/183 184/184/184
f 187/187/187 186/186/186 185/185/185
f 185/185/185 188/188/188 187/187/187
f 191/191/191 190/190/190 189/189/189
f 190/190/190 191/191/191 192/192/192
f 195/195/195 194/194/194 193/193/193
f 193/193/193 196/196/196 195/195/195
f 199/199/199 198/198/198 197/197/197
f 198/198/198 199/199/199 200/200/200
