g Mesh1
v -82.35 30 -100.2149
v -82.35 30 -90.21485
v -82.35 1.088131E-15 -90.21485
v -82.35 1.088131E-15 -100.2149
v -82.35 30 -129.6554
v -82.35 1.088131E-15 -129.6554
v -82.35 30 -155.545
v -82.35 6.604431E-16 -155.545
v -82.35 30 -170
v -82.35 1.450841E-15 -170
v -82.35 1.088131E-15 -90.21485
v -82.35 30 -90.21485
v 0 30 -90.21485
v 0 4.609896E-33 -90.21485
v 0 4.609896E-33 -90.21485
v -82.35 1.088131E-15 -90.21485
v -82.35 1.088131E-15 -100.2149
v -72.35 1.022064E-15 -100.2149
v -82.35 1.088131E-15 -129.6554
v 0 0 -100.2149
v -72.35 1.088131E-15 -129.6554
v -82.35 6.604431E-16 -155.545
v -72.35 6.604431E-16 -155.545
v -82.35 1.450841E-15 -170
v 0 0 -170
v 0 0 -155.545
v 10 0 -100.2149
v 10 0 -155.545
v 90 0 -10
v 10 0 -10
v 10 0 -170
v 43.01708 0 -170
v 90 0 -170
v 90 0 -11.52443
v 90 0 -21.52443
v 90 0 -81.52443
v 90 0 -91.52442
v 0 4.609896E-33 -90.21485
v 0 0 -100.2149
v 0 30 -100.2149
v 0 30 -90.21485
v 0 0 0
v 0 30 0
v 0 0 0
v 0 30 0
v 100 30 0
v 100 0 0
v 10 30 -100.2149
v 10 30 -10
v 0 30 -100.2149
v 0 30 -90.21485
v -72.35 30 -100.2149
v 0 30 0
v 100 30 0
v 90 30 -10
v 90 30 -11.52443
v 100 30 -11.52443
v 90 30 -21.52443
v 100 30 -21.52443
v -82.35 30 -100.2149
v -82.35 30 -90.21485
v -82.35 30 -129.6554
v -82.35 30 -155.545
v -82.35 30 -170
v -72.35 30 -155.545
v 0 30 -170
v 10 30 -155.545
v 10 30 -170
v 10 30 -160.2148
v 10 0 -100.2149
v 10 30 -100.2149
v 0 30 -100.2149
v 0 0 -100.2149
v -72.35 1.022064E-15 -100.2149
v -72.35 30 -100.2149
v -72.35 1.088131E-15 -129.6554
v -72.35 1.022064E-15 -100.2149
v -72.35 30 -100.2149
v -72.35 30 -155.545
v -72.35 6.604431E-16 -155.545
v -72.35 6.604431E-16 -155.545
v -72.35 30 -155.545
v 10 30 -155.545
v 0 0 -155.545
v 10 0 -155.545
v 0 30 -170
v -82.35 30 -170
v -82.35 1.450841E-15 -170
v 0 0 -170
v 10 0 -170
v 10 30 -170
v 10 0 -170
v 10 0 -155.545
v 10 30 -155.545
v 10 30 -160.2148
v 10 30 -170
v 10 0 -100.2149
v 10 0 -10
v 10 30 -10
v 10 30 -100.2149
v 10 30 -10
v 10 0 -10
v 90 0 -10
v 90 30 -10
v 100 0 -11.52443
v 100 0 0
v 100 30 0
v 100 30 -11.52443
v 100 0 -21.52443
v 100 30 -21.52443
v 100 0 -21.52443
v 100 30 -21.52443
v 90 30 -21.52443
v 90 0 -21.52443
v 100 0 -21.52443
v 90 0 -21.52443
v 90 0 -81.52443
v 100 0 -81.52443
v 142.54 0 -21.52443
v 142.54 0 -81.52443
v 90 30 -11.52443
v 90 30 -10
v 90 0 -10
v 90 0 -11.52443
v 90 30 -21.52443
v 90 0 -21.52443
v 90 30 -91.52442
v 90 30 -81.52443
v 90 0 -81.52443
v 90 0 -91.52442
v 90 30 -170
v 90 0 -170
v 90 0 -81.52443
v 90 30 -81.52443
v 100 30 -81.52443
v 100 0 -81.52443
v 100 30 -81.52443
v 90 30 -81.52443
v 90 30 -91.52442
v 100 30 -91.52442
v 90 30 -170
v 100 30 -170
v 100 30 -133.1541
v 100 0 -91.52442
v 100 0 -81.52443
v 100 30 -81.52443
v 100 30 -91.52442
v 100 0 -133.1541
v 100 30 -133.1541
v 100 0 -170
v 100 30 -170
v 100 0 -170
v 100 30 -170
v 90 30 -170
v 90 0 -170
v -82.35 30 -90.21485
v -82.35 30 -100.2149
v -82.35 1.088131E-15 -90.21485
v -82.35 1.088131E-15 -100.2149
v -82.35 30 -129.6554
v -82.35 1.088131E-15 -129.6554
v -82.35 30 -155.545
v -82.35 6.604431E-16 -155.545
v -82.35 30 -170
v -82.35 1.450841E-15 -170
v 0 4.609896E-33 -90.21485
v 0 30 -90.21485
v -82.35 1.088131E-15 -90.21485
v -82.35 30 -90.21485
v -82.35 1.088131E-15 -90.21485
v 0 4.609896E-33 -90.21485
v -82.35 1.088131E-15 -100.2149
v -72.35 1.022064E-15 -100.2149
v -82.35 1.088131E-15 -129.6554
v 0 0 -100.2149
v -72.35 1.088131E-15 -129.6554
v -82.35 6.604431E-16 -155.545
v -72.35 6.604431E-16 -155.545
v -82.35 1.450841E-15 -170
v 0 0 -170
v 0 0 -155.545
v 10 0 -100.2149
v 10 0 -155.545
v 90 0 -10
v 10 0 -10
v 10 0 -170
v 43.01708 0 -170
v 90 0 -170
v 90 0 -11.52443
v 90 0 -21.52443
v 90 0 -81.52443
v 90 0 -91.52442
v 0 30 0
v 0 30 -90.21485
v 0 0 0
v 0 4.609896E-33 -90.21485
v 0 30 -100.2149
v 0 0 -100.2149
v 100 0 0
v 100 30 0
v 0 0 0
v 0 30 0
v 10 30 -10
v 10 30 -100.2149
v 0 30 -100.2149
v 0 30 -90.21485
v -72.35 30 -100.2149
v 0 30 0
v 100 30 0
v 90 30 -10
v 90 30 -11.52443
v 100 30 -11.52443
v 90 30 -21.52443
v 100 30 -21.52443
v -82.35 30 -100.2149
v -82.35 30 -90.21485
v -82.35 30 -129.6554
v -82.35 30 -155.545
v -82.35 30 -170
v -72.35 30 -155.545
v 0 30 -170
v 10 30 -155.545
v 10 30 -170
v 10 30 -160.2148
v -72.35 1.022064E-15 -100.2149
v -72.35 1.088131E-15 -129.6554
v -72.35 30 -100.2149
v -72.35 30 -155.545
v -72.35 6.604431E-16 -155.545
v -72.35 30 -100.2149
v 0 30 -100.2149
v -72.35 1.022064E-15 -100.2149
v 0 0 -100.2149
v 10 0 -100.2149
v 10 30 -100.2149
v 10 0 -155.545
v 10 30 -155.545
v 0 0 -155.545
v -72.35 6.604431E-16 -155.545
v -72.35 30 -155.545
v 10 30 -170
v 10 0 -170
v 0 30 -170
v 0 0 -170
v -82.35 1.450841E-15 -170
v -82.35 30 -170
v 10 0 -155.545
v 10 0 -170
v 10 30 -155.545
v 10 30 -160.2148
v 10 30 -170
v 10 0 -10
v 10 0 -100.2149
v 10 30 -10
v 10 30 -100.2149
v 10 0 -10
v 10 30 -10
v 90 0 -10
v 90 30 -10
v 100 0 0
v 100 0 -11.52443
v 100 30 0
v 100 30 -11.52443
v 100 0 -21.52443
v 100 30 -21.52443
v 90 0 -21.52443
v 90 30 -21.52443
v 100 0 -21.52443
v 100 30 -21.52443
v 90 0 -21.52443
v 100 0 -21.52443
v 90 0 -81.52443
v 100 0 -81.52443
v 142.54 0 -21.52443
v 142.54 0 -81.52443
v 90 30 -10
v 90 30 -11.52443
v 90 0 -10
v 90 0 -11.52443
v 90 30 -21.52443
v 90 0 -21.52443
v 90 30 -81.52443
v 90 30 -91.52442
v 90 0 -81.52443
v 90 0 -91.52442
v 90 30 -170
v 90 0 -170
v 100 0 -81.52443
v 100 30 -81.52443
v 90 0 -81.52443
v 90 30 -81.52443
v 90 30 -81.52443
v 100 30 -81.52443
v 90 30 -91.52442
v 100 30 -91.52442
v 90 30 -170
v 100 30 -170
v 100 30 -133.1541
v 100 0 -81.52443
v 100 0 -91.52442
v 100 30 -81.52443
v 100 30 -91.52442
v 100 0 -133.1541
v 100 30 -133.1541
v 100 0 -170
v 100 30 -170
v 90 0 -170
v 90 30 -170
v 100 0 -170
v 100 30 -170
vt -394.5467 118.1102
vt -355.1766 118.1102
vt -355.1766 4.283981E-15
vt -394.5467 4.283981E-15
vt -510.4542 118.1102
vt -510.4542 4.283981E-15
vt -612.3817 118.1102
vt -612.3817 2.60017E-15
vt -669.2913 118.1102
vt -669.2913 5.711974E-15
vt 0 4.283981E-15
vt 0 118.1102
vt 324.2126 118.1102
vt 324.2126 1.81492E-32
vt 324.2126 355.1766
vt -5.660634E-32 355.1766
vt -1.415159E-32 394.5467
vt 39.37008 394.5467
vt -1.415159E-32 510.4542
vt 324.2126 394.5467
vt 39.37008 510.4542
vt 0 612.3817
vt 39.37008 612.3817
vt -7.211254E-32 669.2913
vt 324.2126 669.2913
vt 324.2126 612.3817
vt 363.5827 394.5467
vt 363.5827 612.3817
vt 678.5433 39.37008
vt 363.5827 39.37008
vt 363.5827 669.2913
vt 493.5712 669.2913
vt 678.5433 669.2913
vt 678.5433 45.37177
vt 678.5433 84.74184
vt 678.5433 320.9623
vt 678.5433 360.3324
vt -355.1766 9.752199E-15
vt -394.5467 9.752199E-15
vt -394.5467 118.1102
vt -355.1766 118.1102
vt 1.741755E-15 6.501466E-15
vt 1.741755E-15 118.1102
vt 324.2126 0
vt 324.2126 118.1102
vt 717.9134 118.1102
vt 717.9134 0
vt 363.5827 394.5467
vt 363.5827 39.37008
vt 324.2126 394.5467
vt 324.2126 355.1766
vt 39.37008 394.5467
vt 324.2126 0
vt 717.9134 0
vt 678.5433 39.37008
vt 678.5433 45.37177
vt 717.9134 45.37177
vt 678.5433 84.74184
vt 717.9134 84.74184
vt 5.496095E-15 394.5467
vt 5.496095E-15 355.1766
vt 5.496095E-15 510.4542
vt 5.496095E-15 612.3817
vt 5.496095E-15 669.2913
vt 39.37008 612.3817
vt 324.2126 669.2913
vt 363.5827 612.3817
vt 363.5827 669.2913
vt 363.5827 630.7672
vt -363.5827 0
vt -363.5827 118.1102
vt -324.2126 118.1102
vt -324.2126 0
vt -39.37008 4.023872E-15
vt -39.37008 118.1102
vt 510.4542 4.283981E-15
vt 394.5467 4.023872E-15
vt 394.5467 118.1102
vt 612.3817 118.1102
vt 612.3817 2.60017E-15
vt 39.37008 2.60017E-15
vt 39.37008 118.1102
vt 363.5827 118.1102
vt 324.2126 0
vt 363.5827 0
vt -324.2126 118.1102
vt 8.013861E-13 118.1102
vt 8.013861E-13 5.711974E-15
vt -324.2126 1.390834E-28
vt -363.5827 0
vt -363.5827 118.1102
vt 669.2913 0
vt 612.3817 0
vt 612.3817 118.1102
vt 630.7672 118.1102
vt 669.2913 118.1102
vt 394.5467 0
vt 39.37008 0
vt 39.37008 118.1102
vt 394.5467 118.1102
vt -363.5827 118.1102
vt -363.5827 0
vt -678.5433 0
vt -678.5433 118.1102
vt 45.37177 0
vt 0 0
vt 0 118.1102
vt 45.37177 118.1102
vt 84.74184 0
vt 84.74184 118.1102
vt -717.9134 0
vt -717.9134 118.1102
vt -678.5433 118.1102
vt -678.5433 0
vt 717.9134 84.74184
vt 678.5433 84.74184
vt 678.5433 320.9623
vt 717.9134 320.9623
vt 885.3937 84.74184
vt 885.3937 320.9623
vt -45.37177 118.1102
vt -39.37008 118.1102
vt -39.37008 0
vt -45.37177 0
vt -84.74184 118.1102
vt -84.74184 0
vt -360.3324 118.1102
vt -320.9623 118.1102
vt -320.9623 0
vt -360.3324 0
vt -669.2913 118.1102
vt -669.2913 0
vt 678.5433 0
vt 678.5433 118.1102
vt 717.9134 118.1102
vt 717.9134 0
vt 717.9134 320.9623
vt 678.5433 320.9623
vt 678.5433 360.3324
vt 717.9134 360.3324
vt 678.5433 669.2913
vt 717.9134 669.2913
vt 717.9134 524.2289
vt 360.3324 0
vt 320.9623 0
vt 320.9623 118.1102
vt 360.3324 118.1102
vt 524.2289 0
vt 524.2289 118.1102
vt 669.2913 0
vt 669.2913 118.1102
vt -717.9134 0
vt -717.9134 118.1102
vt -678.5433 118.1102
vt -678.5433 0
vt -355.1766 118.1102
vt -394.5467 118.1102
vt -355.1766 4.283981E-15
vt -394.5467 4.283981E-15
vt -510.4542 118.1102
vt -510.4542 4.283981E-15
vt -612.3817 118.1102
vt -612.3817 2.60017E-15
vt -669.2913 118.1102
vt -669.2913 5.711974E-15
vt 324.2126 1.81492E-32
vt 324.2126 118.1102
vt 0 4.283981E-15
vt 0 118.1102
vt -5.660634E-32 355.1766
vt 324.2126 355.1766
vt -1.415159E-32 394.5467
vt 39.37008 394.5467
vt -1.415159E-32 510.4542
vt 324.2126 394.5467
vt 39.37008 510.4542
vt 0 612.3817
vt 39.37008 612.3817
vt -7.211254E-32 669.2913
vt 324.2126 669.2913
vt 324.2126 612.3817
vt 363.5827 394.5467
vt 363.5827 612.3817
vt 678.5433 39.37008
vt 363.5827 39.37008
vt 363.5827 669.2913
vt 493.5712 669.2913
vt 678.5433 669.2913
vt 678.5433 45.37177
vt 678.5433 84.74184
vt 678.5433 320.9623
vt 678.5433 360.3324
vt 1.741755E-15 118.1102
vt -355.1766 118.1102
vt 1.741755E-15 6.501466E-15
vt -355.1766 9.752199E-15
vt -394.5467 118.1102
vt -394.5467 9.752199E-15
vt 717.9134 0
vt 717.9134 118.1102
vt 324.2126 0
vt 324.2126 118.1102
vt 363.5827 39.37008
vt 363.5827 394.5467
vt 324.2126 394.5467
vt 324.2126 355.1766
vt 39.37008 394.5467
vt 324.2126 0
vt 717.9134 0
vt 678.5433 39.37008
vt 678.5433 45.37177
vt 717.9134 45.37177
vt 678.5433 84.74184
vt 717.9134 84.74184
vt 5.496095E-15 394.5467
vt 5.496095E-15 355.1766
vt 5.496095E-15 510.4542
vt 5.496095E-15 612.3817
vt 5.496095E-15 669.2913
vt 39.37008 612.3817
vt 324.2126 669.2913
vt 363.5827 612.3817
vt 363.5827 669.2913
vt 363.5827 630.7672
vt 394.5467 4.023872E-15
vt 510.4542 4.283981E-15
vt 394.5467 118.1102
vt 612.3817 118.1102
vt 612.3817 2.60017E-15
vt -39.37008 118.1102
vt -324.2126 118.1102
vt -39.37008 4.023872E-15
vt -324.2126 0
vt -363.5827 0
vt -363.5827 118.1102
vt 363.5827 0
vt 363.5827 118.1102
vt 324.2126 0
vt 39.37008 2.60017E-15
vt 39.37008 118.1102
vt -363.5827 118.1102
vt -363.5827 0
vt -324.2126 118.1102
vt -324.2126 1.390834E-28
vt 8.013861E-13 5.711974E-15
vt 8.013861E-13 118.1102
vt 612.3817 0
vt 669.2913 0
vt 612.3817 118.1102
vt 630.7672 118.1102
vt 669.2913 118.1102
vt 39.37008 0
vt 394.5467 0
vt 39.37008 118.1102
vt 394.5467 118.1102
vt -363.5827 0
vt -363.5827 118.1102
vt -678.5433 0
vt -678.5433 118.1102
vt 0 0
vt 45.37177 0
vt 0 118.1102
vt 45.37177 118.1102
vt 84.74184 0
vt 84.74184 118.1102
vt -678.5433 0
vt -678.5433 118.1102
vt -717.9134 0
vt -717.9134 118.1102
vt 678.5433 84.74184
vt 717.9134 84.74184
vt 678.5433 320.9623
vt 717.9134 320.9623
vt 885.3937 84.74184
vt 885.3937 320.9623
vt -39.37008 118.1102
vt -45.37177 118.1102
vt -39.37008 0
vt -45.37177 0
vt -84.74184 118.1102
vt -84.74184 0
vt -320.9623 118.1102
vt -360.3324 118.1102
vt -320.9623 0
vt -360.3324 0
vt -669.2913 118.1102
vt -669.2913 0
vt 717.9134 0
vt 717.9134 118.1102
vt 678.5433 0
vt 678.5433 118.1102
vt 678.5433 320.9623
vt 717.9134 320.9623
vt 678.5433 360.3324
vt 717.9134 360.3324
vt 678.5433 669.2913
vt 717.9134 669.2913
vt 717.9134 524.2289
vt 320.9623 0
vt 360.3324 0
vt 320.9623 118.1102
vt 360.3324 118.1102
vt 524.2289 0
vt 524.2289 118.1102
vt 669.2913 0
vt 669.2913 118.1102
vt -678.5433 0
vt -678.5433 118.1102
vt -717.9134 0
vt -717.9134 118.1102
vn -1 0 0
vn -1 0 0
vn -1 0 0
vn -1 0 0
vn -1 0 0
vn -1 0 0
vn -1 0 0
vn -1 0 0
vn -1 0 0
vn -1 0 0
vn 0 0 1
vn 0 0 1
vn 0 0 1
vn 0 0 1
vn 0 1 0
vn 0 1 0
vn 0 1 0
vn 0 1 0
vn 0 1 0
vn 0 1 0
vn 0 1 0
vn 0 1 0
vn 0 1 0
vn 0 1 0
vn 0 1 0
vn 0 1 0
vn 0 1 0
vn 0 1 0
vn 0 1 0
vn 0 1 0
vn 0 1 0
vn 0 1 0
vn 0 1 0
vn 0 1 0
vn 0 1 0
vn 0 1 0
vn 0 1 0
vn -1 0 0
vn -1 0 0
vn -1 0 0
vn -1 0 0
vn -1 0 0
vn -1 0 0
vn 0 0 1
vn 0 0 1
vn 0 0 1
vn 0 0 1
vn 0 1 0
vn 0 1 0
vn 0 1 0
vn 0 1 0
vn 0 1 0
vn 0 1 0
vn 0 1 0
vn 0 1 0
vn 0 1 0
vn 0 1 0
vn 0 1 0
vn 0 1 0
vn 0 1 0
vn 0 1 0
vn 0 1 0
vn 0 1 0
vn 0 1 0
vn 0 1 0
vn 0 1 0
vn 0 1 0
vn 0 1 0
vn 0 1 0
vn 0 0 -1
vn 0 0 -1
vn 0 0 -1
vn 0 0 -1
vn 0 0 -1
vn 0 0 -1
vn 1 0 0
vn 1 0 0
vn 1 0 0
vn 1 0 0
vn 1 0 0
vn 0 0 1
vn 0 0 1
vn 0 0 1
vn 0 0 1
vn 0 0 1
vn 0 0 -1
vn 0 0 -1
vn 0 0 -1
vn 0 0 -1
vn 0 0 -1
vn 0 0 -1
vn 1 0 0
vn 1 0 0
vn 1 0 0
vn 1 0 0
vn 1 0 0
vn 1 0 0
vn 1 0 0
vn 1 0 0
vn 1 0 0
vn 0 0 -1
vn 0 0 -1
vn 0 0 -1
vn 0 0 -1
vn 1 0 0
vn 1 0 0
vn 1 0 0
vn 1 0 0
vn 1 0 0
vn 1 0 0
vn 0 0 -1
vn 0 0 -1
vn 0 0 -1
vn 0 0 -1
vn 0 1 0
vn 0 1 0
vn 0 1 0
vn 0 1 0
vn 0 1 0
vn 0 1 0
vn -1 0 0
vn -1 0 0
vn -1 0 0
vn -1 0 0
vn -1 0 0
vn -1 0 0
vn -1 0 0
vn -1 0 0
vn -1 0 0
vn -1 0 0
vn -1 0 0
vn -1 0 0
vn 0 0 1
vn 0 0 1
vn 0 0 1
vn 0 0 1
vn 0 1 0
vn 0 1 0
vn 0 1 0
vn 0 1 0
vn 0 1 0
vn 0 1 0
vn 0 1 0
vn 1 0 0
vn 1 0 0
vn 1 0 0
vn 1 0 0
vn 1 0 0
vn 1 0 0
vn 1 0 0
vn 1 0 0
vn 0 0 -1
vn 0 0 -1
vn 0 0 -1
vn 0 0 -1
vn 1 0 0
vn 1 0 0
vn 1 0 0
vn 1 0 0
vn 1 0 0
vn 1 0 0
vn 1 0 0
vn 1 0 0
vn 1 0 0
vn 1 0 0
vn 0 0 -1
vn 0 0 -1
vn 0 0 -1
vn 0 0 -1
vn 0 -1 0
vn 0 -1 0
vn 0 -1 0
vn 0 -1 0
vn 0 -1 0
vn 0 -1 0
vn 0 -1 0
vn 0 -1 0
vn 0 -1 0
vn 0 -1 0
vn 0 -1 0
vn 0 -1 0
vn 0 -1 0
vn 0 -1 0
vn 0 -1 0
vn 0 -1 0
vn 0 -1 0
vn 0 -1 0
vn 0 -1 0
vn 0 -1 0
vn 0 -1 0
vn 0 -1 0
vn 0 -1 0
vn 1 0 0
vn 1 0 0
vn 1 0 0
vn 1 0 0
vn 1 0 0
vn 1 0 0
vn 0 0 -1
vn 0 0 -1
vn 0 0 -1
vn 0 0 -1
vn 0 -1 0
vn 0 -1 0
vn 0 -1 0
vn 0 -1 0
vn 0 -1 0
vn 0 -1 0
vn 0 -1 0
vn 0 -1 0
vn 0 -1 0
vn 0 -1 0
vn 0 -1 0
vn 0 -1 0
vn 0 -1 0
vn 0 -1 0
vn 0 -1 0
vn 0 -1 0
vn 0 -1 0
vn 0 -1 0
vn 0 -1 0
vn 0 -1 0
vn 0 -1 0
vn 0 -1 0
vn -1 0 0
vn -1 0 0
vn -1 0 0
vn -1 0 0
vn -1 0 0
vn 0 0 1
vn 0 0 1
vn 0 0 1
vn 0 0 1
vn 0 0 1
vn 0 0 1
vn 0 0 -1
vn 0 0 -1
vn 0 0 -1
vn 0 0 -1
vn 0 0 -1
vn 0 0 1
vn 0 0 1
vn 0 0 1
vn 0 0 1
vn 0 0 1
vn 0 0 1
vn -1 0 0
vn -1 0 0
vn -1 0 0
vn -1 0 0
vn -1 0 0
vn -1 0 0
vn -1 0 0
vn -1 0 0
vn -1 0 0
vn 0 0 1
vn 0 0 1
vn 0 0 1
vn 0 0 1
vn -1 0 0
vn -1 0 0
vn -1 0 0
vn -1 0 0
vn -1 0 0
vn -1 0 0
vn 0 0 1
vn 0 0 1
vn 0 0 1
vn 0 0 1
vn 0 -1 0
vn 0 -1 0
vn 0 -1 0
vn 0 -1 0
vn 0 -1 0
vn 0 -1 0
vn 1 0 0
vn 1 0 0
vn 1 0 0
vn 1 0 0
vn 1 0 0
vn 1 0 0
vn 1 0 0
vn 1 0 0
vn 1 0 0
vn 1 0 0
vn 1 0 0
vn 1 0 0
vn 0 0 -1
vn 0 0 -1
vn 0 0 -1
vn 0 0 -1
vn 0 -1 0
vn 0 -1 0
vn 0 -1 0
vn 0 -1 0
vn 0 -1 0
vn 0 -1 0
vn 0 -1 0
vn -1 0 0
vn -1 0 0
vn -1 0 0
vn -1 0 0
vn -1 0 0
vn -1 0 0
vn -1 0 0
vn -1 0 0
vn 0 0 1
vn 0 0 1
vn 0 0 1
vn 0 0 1
g Mesh1_0
f 3/3/3 2/2/2 1/1/1
f 1/1/1 4/4/4 3/3/3
f 4/4/4 1/1/1 5/5/5
f 5/5/5 6/6/6 4/4/4
f 6/6/6 5/5/5 7/7/7
f 7/7/7 8/8/8 6/6/6
f 8/8/8 7/7/7 9/9/9
f 9/9/9 10/10/10 8/8/8
f 13/13/13 12/12/12 11/11/11
f 11/11/11 14/14/14 13/13/13
f 17/17/17 16/16/16 15/15/15
f 15/15/15 18/18/18 17/17/17
f 19/19/19 17/17/17 18/18/18
f 15/15/15 20/20/20 18/18/18
f 18/18/18 21/21/21 19/19/19
f 21/21/21 18/18/18 20/20/20
f 22/22/22 19/19/19 21/21/21
f 21/21/21 23/23/23 22/22/22
f 20/20/20 23/23/23 21/21/21
f 24/24/24 22/22/22 23/23/23
f 23/23/23 25/25/25 24/24/24
f 23/23/23 26/26/26 25/25/25
f 20/20/20 26/26/26 23/23/23
f 20/20/20 27/27/27 26/26/26
f 27/27/27 28/28/28 26/26/26
f 29/29/29 28/28/28 27/27/27
f 27/27/27 30/30/30 29/29/29
f 29/29/29 31/31/31 28/28/28
f 29/29/29 32/32/32 31/31/31
f 29/29/29 33/33/33 32/32/32
f 29/29/29 34/34/34 33/33/33
f 34/34/34 35/35/35 33/33/33
f 35/35/35 36/36/36 33/33/33
f 36/36/36 37/37/37 33/33/33
f 40/40/40 39/39/39 38/38/38
f 38/38/38 41/41/41 40/40/40
f 41/41/41 38/38/38 42/42/42
f 42/42/42 43/43/43 41/41/41
f 46/46/46 45/45/45 44/44/44
f 44/44/44 47/47/47 46/46/46
f 50/50/50 49/49/49 48/48/48
f 49/49/49 50/50/50 51/51/51
f 51/51/51 50/50/50 52/52/52
f 49/49/49 51/51/51 53/53/53
f 53/53/53 54/54/54 49/49/49
f 54/54/54 55/55/55 49/49/49
f 54/54/54 56/56/56 55/55/55
f 54/54/54 57/57/57 56/56/56
f 58/58/58 56/56/56 57/57/57
f 57/57/57 59/59/59 58/58/58
f 51/51/51 52/52/52 60/60/60
f 60/60/60 61/61/61 51/51/51
f 52/52/52 62/62/62 60/60/60
f 52/52/52 63/63/63 62/62/62
f 52/52/52 64/64/64 63/63/63
f 64/64/64 52/52/52 65/65/65
f 65/65/65 66/66/66 64/64/64
f 65/65/65 67/67/67 66/66/66
f 67/67/67 68/68/68 66/66/66
f 67/67/67 69/69/69 68/68/68
f 72/72/72 71/71/71 70/70/70
f 70/70/70 73/73/73 72/72/72
f 72/72/72 73/73/73 74/74/74
f 74/74/74 75/75/75 72/72/72
f 78/78/78 77/77/77 76/76/76
f 76/76/76 79/79/79 78/78/78
f 76/76/76 80/80/80 79/79/79
f 83/83/83 82/82/82 81/81/81
f 83/83/83 81/81/81 84/84/84
f 84/84/84 85/85/85 83/83/83
f 88/88/88 87/87/87 86/86/86
f 86/86/86 89/89/89 88/88/88
f 90/90/90 89/89/89 86/86/86
f 86/86/86 91/91/91 90/90/90
f 94/94/94 93/93/93 92/92/92
f 92/92/92 95/95/95 94/94/94
f 92/92/92 96/96/96 95/95/95
f 99/99/99 98/98/98 97/97/97
f 97/97/97 100/100/100 99/99/99
f 103/103/103 102/102/102 101/101/101
f 101/101/101 104/104/104 103/103/103
f 107/107/107 106/106/106 105/105/105
f 105/105/105 108/108/108 107/107/107
f 108/108/108 105/105/105 109/109/109
f 109/109/109 110/110/110 108/108/108
f 113/113/113 112/112/112 111/111/111
f 111/111/111 114/114/114 113/113/113
f 117/117/117 116/116/116 115/115/115
f 115/115/115 118/118/118 117/117/117
f 118/118/118 115/115/115 119/119/119
f 119/119/119 120/120/120 118/118/118
f 123/123/123 122/122/122 121/121/121
f 121/121/121 124/124/124 123/123/123
f 124/124/124 121/121/121 125/125/125
f 125/125/125 126/126/126 124/124/124
f 129/129/129 128/128/128 127/127/127
f 127/127/127 130/130/130 129/129/129
f 130/130/130 127/127/127 131/131/131
f 131/131/131 132/132/132 130/130/130
f 135/135/135 134/134/134 133/133/133
f 133/133/133 136/136/136 135/135/135
f 139/139/139 138/138/138 137/137/137
f 137/137/137 140/140/140 139/139/139
f 141/141/141 139/139/139 140/140/140
f 140/140/140 142/142/142 141/141/141
f 140/140/140 143/143/143 142/142/142
f 146/146/146 145/145/145 144/144/144
f 144/144/144 147/147/147 146/146/146
f 147/147/147 144/144/144 148/148/148
f 148/148/148 149/149/149 147/147/147
f 149/149/149 148/148/148 150/150/150
f 150/150/150 151/151/151 149/149/149
f 154/154/154 153/153/153 152/152/152
f 152/152/152 155/155/155 154/154/154
g Mesh1_1
f 158/158/158 157/157/157 156/156/156
f 157/157/157 158/158/158 159/159/159
f 159/159/159 160/160/160 157/157/157
f 160/160/160 159/159/159 161/161/161
f 161/161/161 162/162/162 160/160/160
f 162/162/162 161/161/161 163/163/163
f 163/163/163 164/164/164 162/162/162
f 164/164/164 163/163/163 165/165/165
f 168/168/168 167/167/167 166/166/166
f 167/167/167 168/168/168 169/169/169
f 172/172/172 171/171/171 170/170/170
f 171/171/171 172/172/172 173/173/173
f 174/174/174 173/173/173 172/172/172
f 171/171/171 173/173/173 175/175/175
f 173/173/173 174/174/174 176/176/176
f 176/176/176 175/175/175 173/173/173
f 177/177/177 176/176/176 174/174/174
f 176/176/176 177/177/177 178/178/178
f 175/175/175 176/176/176 178/178/178
f 179/179/179 178/178/178 177/177/177
f 178/178/178 179/179/179 180/180/180
f 178/178/178 180/180/180 181/181/181
f 175/175/175 178/178/178 181/181/181
f 175/175/175 181/181/181 182/182/182
f 182/182/182 181/181/181 183/183/183
f 184/184/184 182/182/182 183/183/183
f 182/182/182 184/184/184 185/185/185
f 184/184/184 183/183/183 186/186/186
f 184/184/184 186/186/186 187/187/187
f 184/184/184 187/187/187 188/188/188
f 184/184/184 188/188/188 189/189/189
f 189/189/189 188/188/188 190/190/190
f 190/190/190 188/188/188 191/191/191
f 191/191/191 188/188/188 192/192/192
f 195/195/195 194/194/194 193/193/193
f 194/194/194 195/195/195 196/196/196
f 196/196/196 197/197/197 194/194/194
f 197/197/197 196/196/196 198/198/198
f 201/201/201 200/200/200 199/199/199
f 200/200/200 201/201/201 202/202/202
f 205/205/205 204/204/204 203/203/203
f 203/203/203 206/206/206 205/205/205
f 206/206/206 207/207/207 205/205/205
f 203/203/203 208/208/208 206/206/206
f 208/208/208 203/203/203 209/209/209
f 209/209/209 203/203/203 210/210/210
f 209/209/209 210/210/210 211/211/211
f 209/209/209 211/211/211 212/212/212
f 213/213/213 212/212/212 211/211/211
f 212/212/212 213/213/213 214/214/214
f 206/206/206 215/215/215 207/207/207
f 215/215/215 206/206/206 216/216/216
f 207/207/207 215/215/215 217/217/217
f 207/207/207 217/217/217 218/218/218
f 207/207/207 218/218/218 219/219/219
f 219/219/219 220/220/220 207/207/207
f 220/220/220 219/219/219 221/221/221
f 220/220/220 221/221/221 222/222/222
f 222/222/222 221/221/221 223/223/223
f 222/222/222 223/223/223 224/224/224
f 227/227/227 226/226/226 225/225/225
f 226/226/226 227/227/227 228/228/228
f 226/226/226 228/228/228 229/229/229
f 232/232/232 231/231/231 230/230/230
f 231/231/231 232/232/232 233/233/233
f 234/234/234 231/231/231 233/233/233
f 231/231/231 234/234/234 235/235/235
f 238/238/238 237/237/237 236/236/236
f 237/237/237 238/238/238 239/239/239
f 237/237/237 239/239/239 240/240/240
f 243/243/243 242/242/242 241/241/241
f 242/242/242 243/243/243 244/244/244
f 243/243/243 245/245/245 244/244/244
f 245/245/245 243/243/243 246/246/246
f 249/249/249 248/248/248 247/247/247
f 248/248/248 249/249/249 250/250/250
f 248/248/248 250/250/250 251/251/251
f 254/254/254 253/253/253 252/252/252
f 253/253/253 254/254/254 255/255/255
f 258/258/258 257/257/257 256/256/256
f 257/257/257 258/258/258 259/259/259
f 262/262/262 261/261/261 260/260/260
f 261/261/261 262/262/262 263/263/263
f 263/263/263 264/264/264 261/261/261
f 264/264/264 263/263/263 265/265/265
f 268/268/268 267/267/267 266/266/266
f 267/267/267 268/268/268 269/269/269
f 272/272/272 271/271/271 270/270/270
f 271/271/271 272/272/272 273/273/273
f 273/273/273 274/274/274 271/271/271
f 274/274/274 273/273/273 275/275/275
f 278/278/278 277/277/277 276/276/276
f 277/277/277 278/278/278 279/279/279
f 279/279/279 280/280/280 277/277/277
f 280/280/280 279/279/279 281/281/281
f 284/284/284 283/283/283 282/282/282
f 283/283/283 284/284/284 285/285/285
f 285/285/285 286/286/286 283/283/283
f 286/286/286 285/285/285 287/287/287
f 290/290/290 289/289/289 288/288/288
f 289/289/289 290/290/290 291/291/291
f 294/294/294 293/293/293 292/292/292
f 293/293/293 294/294/294 295/295/295
f 296/296/296 295/295/295 294/294/294
f 295/295/295 296/296/296 297/297/297
f 295/295/295 297/297/297 298/298/298
f 301/301/301 300/300/300 299/299/299
f 300/300/300 301/301/301 302/302/302
f 302/302/302 303/303/303 300/300/300
f 303/303/303 302/302/302 304/304/304
f 304/304/304 305/305/305 303/303/303
f 305/305/305 304/304/304 306/306/306
f 309/309/309 308/308/308 307/307/307
f 308/308/308 309/309/309 310/310/310
