g Mesh115
v 360.8268 13.92967 28.62531
v 360.9842 13.68778 28.56203
v 361.0017 13.85752 28.681
v 360.9842 13.68778 28.56203
v 360.8268 13.92967 28.62531
v 361.0017 13.85752 28.681
v 360.9842 13.68778 28.56203
v 360.9301 13.73897 28.79037
v 361.0017 13.85752 28.681
v 360.9301 13.73897 28.79037
v 360.9842 13.68778 28.56203
v 361.0017 13.85752 28.681
v 361.0017 13.85752 28.681
v 360.9301 13.73897 28.79037
v 360.7498 13.80333 28.74306
v 360.9301 13.73897 28.79037
v 361.0017 13.85752 28.681
v 360.7498 13.80333 28.74306
v 360.7498 13.80333 28.74306
v 360.9301 13.73897 28.79037
v 360.8838 13.631 28.7285
v 360.9301 13.73897 28.79037
v 360.7498 13.80333 28.74306
v 360.8838 13.631 28.7285
v 360.9842 13.68778 28.56203
v 360.8838 13.631 28.7285
v 360.9301 13.73897 28.79037
v 360.8838 13.631 28.7285
v 360.9842 13.68778 28.56203
v 360.9301 13.73897 28.79037
v 360.9842 13.68778 28.56203
v 360.7141 13.65648 28.6313
v 360.8838 13.631 28.7285
v 360.7141 13.65648 28.6313
v 360.9842 13.68778 28.56203
v 360.8838 13.631 28.7285
v 360.7498 13.80333 28.74306
v 360.8838 13.631 28.7285
v 360.7141 13.65648 28.6313
v 360.8268 13.92967 28.62531
v 360.7498 13.80333 28.74306
v 360.7141 13.65648 28.6313
v 360.7498 13.80333 28.74306
v 360.8268 13.92967 28.62531
v 360.7141 13.65648 28.6313
v 360.8838 13.631 28.7285
v 360.7498 13.80333 28.74306
v 360.7141 13.65648 28.6313
v 360.8242 13.72674 28.45352
v 360.8268 13.92967 28.62531
v 360.7141 13.65648 28.6313
v 360.9842 13.68778 28.56203
v 360.8242 13.72674 28.45352
v 360.7141 13.65648 28.6313
v 360.8242 13.72674 28.45352
v 360.9842 13.68778 28.56203
v 360.7141 13.65648 28.6313
v 360.8268 13.92967 28.62531
v 360.8242 13.72674 28.45352
v 360.7141 13.65648 28.6313
v 360.8268 13.92967 28.62531
v 360.8242 13.72674 28.45352
v 360.9842 13.68778 28.56203
v 360.8242 13.72674 28.45352
v 360.8268 13.92967 28.62531
v 360.9842 13.68778 28.56203
v 360.8268 13.92967 28.62531
v 361.0017 13.85752 28.681
v 360.7498 13.80333 28.74306
v 361.0017 13.85752 28.681
v 360.8268 13.92967 28.62531
v 360.7498 13.80333 28.74306
vt 29.33196 1.695058
vt 25.23106 -9.190366
vt 22.27765 -1.551923
vt 25.23106 -9.190366
vt 29.33196 1.695058
vt 22.27765 -1.551923
vt 68.47173 21.16035
vt 59.25407 23.26717
vt 64.19906 28.14696
vt 59.25407 23.26717
vt 68.47173 21.16035
vt 64.19906 28.14696
vt 14.80994 65.62782
vt 11.75962 59.38595
vt 4.772335 62.77492
vt 11.75962 59.38595
vt 14.80994 65.62782
vt 4.772335 62.77492
vt -21.67649 7.986561
vt -14.39596 5.284504
vt -17.00155 0.7520437
vt -14.39596 5.284504
vt -21.67649 7.986561
vt -17.00155 0.7520437
vt 67.66587 14.03363
vt 60.13247 11.41999
vt 58.50869 16.38946
vt 60.13247 11.41999
vt 67.66587 14.03363
vt 58.50869 16.38946
vt -3.456308 73.49892
vt 6.837845 69.48497
vt -0.2068206 66.21715
vt 6.837845 69.48497
vt -3.456308 73.49892
vt -0.2068206 66.21715
vt -32.66105 3.405379
vt -28.58024 -4.180151
vt -36.2645 -3.05847
vt -65.33189 28.67514
vt -60.16029 23.32046
vt -64.16347 17.09625
vt -60.16029 23.32046
vt -65.33189 28.67514
vt -64.16347 17.09625
vt -28.58024 -4.180151
vt -32.66105 3.405379
vt -36.2645 -3.05847
vt -67.80382 15.99954
vt -61.70299 24.50623
vt -59.6332 13.05407
vt -7.556697 73.23202
vt -1.070323 77.50214
vt 2.946257 69.80138
vt -1.070323 77.50214
vt -7.556697 73.23202
vt 2.946257 69.80138
vt -61.70299 24.50623
vt -67.80382 15.99954
vt -59.6332 13.05407
vt 40.23123 1.597129
vt 44.78067 -7.83083
vt 37.22883 -9.640995
vt 44.78067 -7.83083
vt 40.23123 1.597129
vt 37.22883 -9.640995
vt 7.90603 69.62099
vt 14.66782 65.80203
vt 4.634514 62.93405
vt 14.66782 65.80203
vt 7.90603 69.62099
vt 4.634514 62.93405
vn 0.4404266 0.4843825 -0.7559087
vn 0.4404266 0.4843825 -0.7559087
vn 0.4404266 0.4843825 -0.7559087
vn -0.4404266 -0.4843825 0.7559087
vn -0.4404266 -0.4843825 0.7559087
vn -0.4404266 -0.4843825 0.7559087
vn 0.9140112 -0.2918051 0.281839
vn 0.9140112 -0.2918051 0.281839
vn 0.9140112 -0.2918051 0.281839
vn -0.9140112 0.2918051 -0.281839
vn -0.9140112 0.2918051 -0.281839
vn -0.9140112 0.2918051 -0.281839
vn 0.04111341 0.6639692 0.7466288
vn 0.04111341 0.6639692 0.7466288
vn 0.04111341 0.6639692 0.7466288
vn -0.04111341 -0.6639692 -0.7466288
vn -0.04111341 -0.6639692 -0.7466288
vn -0.04111341 -0.6639692 -0.7466288
vn -0.3518986 -0.3470318 0.8693309
vn -0.3518986 -0.3470318 0.8693309
vn -0.3518986 -0.3470318 0.8693309
vn 0.3518986 0.3470318 -0.8693309
vn 0.3518986 0.3470318 -0.8693309
vn 0.3518986 0.3470318 -0.8693309
vn 0.7990332 -0.5180025 0.3053185
vn 0.7990332 -0.5180025 0.3053185
vn 0.7990332 -0.5180025 0.3053185
vn -0.7990332 0.5180025 -0.3053185
vn -0.7990332 0.5180025 -0.3053185
vn -0.7990332 0.5180025 -0.3053185
vn 0.03197997 -0.9517025 -0.3053517
vn 0.03197997 -0.9517025 -0.3053517
vn 0.03197997 -0.9517025 -0.3053517
vn -0.03197997 0.9517025 0.3053517
vn -0.03197997 0.9517025 0.3053517
vn -0.03197997 0.9517025 0.3053517
vn -0.494117 -0.4471575 0.745586
vn -0.494117 -0.4471575 0.745586
vn -0.494117 -0.4471575 0.745586
vn -0.9079103 0.3703491 -0.1963175
vn -0.9079103 0.3703491 -0.1963175
vn -0.9079103 0.3703491 -0.1963175
vn 0.9079103 -0.3703491 0.1963175
vn 0.9079103 -0.3703491 0.1963175
vn 0.9079103 -0.3703491 0.1963175
vn 0.494117 0.4471575 -0.745586
vn 0.494117 0.4471575 -0.745586
vn 0.494117 0.4471575 -0.745586
vn -0.8531451 0.3434468 -0.3926675
vn -0.8531451 0.3434468 -0.3926675
vn -0.8531451 0.3434468 -0.3926675
vn 0.01612225 -0.9332513 -0.3588621
vn 0.01612225 -0.9332513 -0.3588621
vn 0.01612225 -0.9332513 -0.3588621
vn -0.01612225 0.9332513 0.3588621
vn -0.01612225 0.9332513 0.3588621
vn -0.01612225 0.9332513 0.3588621
vn 0.8531451 -0.3434468 0.3926675
vn 0.8531451 -0.3434468 0.3926675
vn 0.8531451 -0.3434468 0.3926675
vn 0.5602967 0.5309557 -0.6357308
vn 0.5602967 0.5309557 -0.6357308
vn 0.5602967 0.5309557 -0.6357308
vn -0.5602967 -0.5309557 0.6357308
vn -0.5602967 -0.5309557 0.6357308
vn -0.5602967 -0.5309557 0.6357308
vn 0.03922128 0.6683721 0.7427922
vn 0.03922128 0.6683721 0.7427922
vn 0.03922128 0.6683721 0.7427922
vn -0.03922128 -0.6683721 -0.7427922
vn -0.03922128 -0.6683721 -0.7427922
vn -0.03922128 -0.6683721 -0.7427922
g Mesh115_0
f 3/3/3 2/2/2 1/1/1
f 6/6/6 5/5/5 4/4/4
f 9/9/9 8/8/8 7/7/7
f 12/12/12 11/11/11 10/10/10
f 15/15/15 14/14/14 13/13/13
f 18/18/18 17/17/17 16/16/16
f 21/21/21 20/20/20 19/19/19
f 24/24/24 23/23/23 22/22/22
f 27/27/27 26/26/26 25/25/25
f 30/30/30 29/29/29 28/28/28
f 33/33/33 32/32/32 31/31/31
f 36/36/36 35/35/35 34/34/34
f 39/39/39 38/38/38 37/37/37
f 42/42/42 41/41/41 40/40/40
f 45/45/45 44/44/44 43/43/43
f 48/48/48 47/47/47 46/46/46
f 51/51/51 50/50/50 49/49/49
f 54/54/54 53/53/53 52/52/52
f 57/57/57 56/56/56 55/55/55
f 60/60/60 59/59/59 58/58/58
f 63/63/63 62/62/62 61/61/61
f 66/66/66 65/65/65 64/64/64
f 69/69/69 68/68/68 67/67/67
f 72/72/72 71/71/71 70/70/70
