g Mesh104
v 361.0972 13.86669 28.67875
v 361.2821 13.93025 28.9665
v 361.3304 13.52672 28.91161
v 361.2821 13.93025 28.9665
v 361.0972 13.86669 28.67875
v 361.3304 13.52672 28.91161
v 361.6042 14.02043 28.76824
v 361.3304 13.52672 28.91161
v 361.2821 13.93025 28.9665
v 361.3304 13.52672 28.91161
v 361.6042 14.02043 28.76824
v 361.2821 13.93025 28.9665
v 361.6042 14.02043 28.76824
v 361.2821 13.93025 28.9665
v 361.4062 13.95412 28.45946
v 361.4821 13.59922 28.38447
v 361.6042 14.02043 28.76824
v 361.4062 13.95412 28.45946
v 361.6042 14.02043 28.76824
v 361.4821 13.59922 28.38447
v 361.4062 13.95412 28.45946
v 361.2821 13.93025 28.9665
v 361.6042 14.02043 28.76824
v 361.4062 13.95412 28.45946
v 361.4062 13.95412 28.45946
v 361.2821 13.93025 28.9665
v 361.0972 13.86669 28.67875
v 361.4062 13.95412 28.45946
v 361.0972 13.86669 28.67875
v 361.1442 13.6313 28.57423
v 361.0972 13.86669 28.67875
v 361.4062 13.95412 28.45946
v 361.1442 13.6313 28.57423
v 361.1442 13.6313 28.57423
v 361.0972 13.86669 28.67875
v 361.3304 13.52672 28.91161
v 361.0972 13.86669 28.67875
v 361.1442 13.6313 28.57423
v 361.3304 13.52672 28.91161
v 361.4821 13.59922 28.38447
v 361.1442 13.6313 28.57423
v 361.3304 13.52672 28.91161
v 361.6861 13.50279 28.75628
v 361.4821 13.59922 28.38447
v 361.3304 13.52672 28.91161
v 361.4821 13.59922 28.38447
v 361.6861 13.50279 28.75628
v 361.3304 13.52672 28.91161
v 361.1442 13.6313 28.57423
v 361.4821 13.59922 28.38447
v 361.3304 13.52672 28.91161
v 361.4062 13.95412 28.45946
v 361.1442 13.6313 28.57423
v 361.4821 13.59922 28.38447
v 361.1442 13.6313 28.57423
v 361.4062 13.95412 28.45946
v 361.4821 13.59922 28.38447
v 361.6042 14.02043 28.76824
v 361.6861 13.50279 28.75628
v 361.3304 13.52672 28.91161
v 361.6861 13.50279 28.75628
v 361.6042 14.02043 28.76824
v 361.3304 13.52672 28.91161
v 361.4821 13.59922 28.38447
v 361.6861 13.50279 28.75628
v 361.6042 14.02043 28.76824
v 361.6861 13.50279 28.75628
v 361.4821 13.59922 28.38447
v 361.6042 14.02043 28.76824
v 361.2821 13.93025 28.9665
v 361.4062 13.95412 28.45946
v 361.0972 13.86669 28.67875
vt -43.93627 23.30844
vt -30.47709 25.84914
vt -31.17637 9.718482
vt -30.47709 25.84914
vt -43.93627 23.30844
vt -31.17637 9.718482
vt 61.82356 36.57537
vt 49.69379 17.11248
vt 46.93173 33.02029
vt 49.69379 17.11248
vt 61.82356 36.57537
vt 46.93173 33.02029
vt -63.02023 39.43834
vt -54.16309 26.95009
vt -74.46906 30.25523
vt 43.49431 1.264351
vt 28.42217 18.5634
vt 42.84395 15.83991
vt 28.42217 18.5634
vt 43.49431 1.264351
vt 42.84395 15.83991
vt -54.16309 26.95009
vt -63.02023 39.43834
vt -74.46906 30.25523
vt -74.53997 30.18329
vt -54.22335 26.9443
vt -64.8632 18.31885
vt -66.28461 26.04642
vt -51.38629 22.51871
vt -55.38928 13.02067
vt -51.38629 22.51871
vt -66.28461 26.04642
vt -55.38928 13.02067
vt -55.65343 7.265494
vt -52.60617 17.11186
vt -40.55371 2.890732
vt -52.60617 17.11186
vt -55.65343 7.265494
vt -40.55371 2.890732
vt -75.34623 35.05583
vt -60.74934 39.67469
vt -56.22582 24.61887
vt -67.98123 26.47172
vt -70.96888 43.33237
vt -53.25373 30.65586
vt -70.96888 43.33237
vt -67.98123 26.47172
vt -53.25373 30.65586
vt -60.74934 39.67469
vt -75.34623 35.05583
vt -56.22582 24.61887
vt -58.87697 31.45956
vt -47.66187 18.7081
vt -62.91955 17.44074
vt -47.66187 18.7081
vt -58.87697 31.45956
vt -62.91955 17.44074
vt 56.33838 39.9739
vt 59.47749 19.57575
vt 44.19623 20.51873
vt 59.47749 19.57575
vt 56.33838 39.9739
vt 44.19623 20.51873
vt 53.65762 12.30401
vt 36.97039 8.464212
vt 38.00185 29.0767
vt 36.97039 8.464212
vt 53.65762 12.30401
vt 38.00185 29.0767
vt -54.22335 26.9443
vt -74.53997 30.18329
vt -64.8632 18.31885
vn -0.8107426 -0.173103 0.5592242
vn -0.8107426 -0.173103 0.5592242
vn -0.8107426 -0.173103 0.5592242
vn 0.8107426 0.173103 -0.5592242
vn 0.8107426 0.173103 -0.5592242
vn 0.8107426 0.173103 -0.5592242
vn 0.5337293 -0.05094282 0.8441197
vn 0.5337293 -0.05094282 0.8441197
vn 0.5337293 -0.05094282 0.8441197
vn -0.5337293 0.05094282 -0.8441197
vn -0.5337293 0.05094282 -0.8441197
vn -0.5337293 0.05094282 -0.8441197
vn -0.2832724 0.9587339 -0.02420887
vn -0.2832724 0.9587339 -0.02420887
vn -0.2832724 0.9587339 -0.02420887
vn 0.7779682 0.2846704 -0.5601144
vn 0.7779682 0.2846704 -0.5601144
vn 0.7779682 0.2846704 -0.5601144
vn -0.7779682 -0.2846704 0.5601144
vn -0.7779682 -0.2846704 0.5601144
vn -0.7779682 -0.2846704 0.5601144
vn 0.2832724 -0.9587339 0.02420887
vn 0.2832724 -0.9587339 0.02420887
vn 0.2832724 -0.9587339 0.02420887
vn -0.2889723 0.9569929 -0.025686
vn -0.2889723 0.9569929 -0.025686
vn -0.2889723 0.9569929 -0.025686
vn -0.6051206 0.2190755 -0.7653986
vn -0.6051206 0.2190755 -0.7653986
vn -0.6051206 0.2190755 -0.7653986
vn 0.6051206 -0.2190755 0.7653986
vn 0.6051206 -0.2190755 0.7653986
vn 0.6051206 -0.2190755 0.7653986
vn -0.8643885 -0.3378738 0.3723891
vn -0.8643885 -0.3378738 0.3723891
vn -0.8643885 -0.3378738 0.3723891
vn 0.8643885 0.3378738 -0.3723891
vn 0.8643885 0.3378738 -0.3723891
vn 0.8643885 0.3378738 -0.3723891
vn -0.1975349 -0.9618773 -0.1891351
vn -0.1975349 -0.9618773 -0.1891351
vn -0.1975349 -0.9618773 -0.1891351
vn -0.14189 -0.9743205 -0.1748338
vn -0.14189 -0.9743205 -0.1748338
vn -0.14189 -0.9743205 -0.1748338
vn 0.14189 0.9743205 0.1748338
vn 0.14189 0.9743205 0.1748338
vn 0.14189 0.9743205 0.1748338
vn 0.1975349 0.9618773 0.1891351
vn 0.1975349 0.9618773 0.1891351
vn 0.1975349 0.9618773 0.1891351
vn -0.4821346 0.08122735 -0.8723236
vn -0.4821346 0.08122735 -0.8723236
vn -0.4821346 0.08122735 -0.8723236
vn 0.4821346 -0.08122735 0.8723236
vn 0.4821346 -0.08122735 0.8723236
vn 0.4821346 -0.08122735 0.8723236
vn 0.4022137 0.04246461 0.9145606
vn 0.4022137 0.04246461 0.9145606
vn 0.4022137 0.04246461 0.9145606
vn -0.4022137 -0.04246461 -0.9145606
vn -0.4022137 -0.04246461 -0.9145606
vn -0.4022137 -0.04246461 -0.9145606
vn 0.8826675 0.1498493 -0.4454698
vn 0.8826675 0.1498493 -0.4454698
vn 0.8826675 0.1498493 -0.4454698
vn -0.8826675 -0.1498493 0.4454698
vn -0.8826675 -0.1498493 0.4454698
vn -0.8826675 -0.1498493 0.4454698
vn 0.2889723 -0.9569929 0.025686
vn 0.2889723 -0.9569929 0.025686
vn 0.2889723 -0.9569929 0.025686
g Mesh104_0
f 3/3/3 2/2/2 1/1/1
f 6/6/6 5/5/5 4/4/4
f 9/9/9 8/8/8 7/7/7
f 12/12/12 11/11/11 10/10/10
f 15/15/15 14/14/14 13/13/13
f 18/18/18 17/17/17 16/16/16
f 21/21/21 20/20/20 19/19/19
f 24/24/24 23/23/23 22/22/22
f 27/27/27 26/26/26 25/25/25
f 30/30/30 29/29/29 28/28/28
f 33/33/33 32/32/32 31/31/31
f 36/36/36 35/35/35 34/34/34
f 39/39/39 38/38/38 37/37/37
f 42/42/42 41/41/41 40/40/40
f 45/45/45 44/44/44 43/43/43
f 48/48/48 47/47/47 46/46/46
f 51/51/51 50/50/50 49/49/49
f 54/54/54 53/53/53 52/52/52
f 57/57/57 56/56/56 55/55/55
f 60/60/60 59/59/59 58/58/58
f 63/63/63 62/62/62 61/61/61
f 66/66/66 65/65/65 64/64/64
f 69/69/69 68/68/68 67/67/67
f 72/72/72 71/71/71 70/70/70
