g Mesh55
v 374.365 14.0786 28.63942
v 374.33 13.88475 28.68279
v 374.3525 13.9117 28.81029
v 374.33 13.88475 28.68279
v 374.365 14.0786 28.63942
v 374.3525 13.9117 28.81029
v 374.3525 13.9117 28.81029
v 374.33 13.88475 28.68279
v 374.156 13.91363 28.81081
v 374.33 13.88475 28.68279
v 374.3525 13.9117 28.81029
v 374.156 13.91363 28.81081
v 374.33 13.88475 28.68279
v 374.144 13.9082 28.62408
v 374.156 13.91363 28.81081
v 374.144 13.9082 28.62408
v 374.33 13.88475 28.68279
v 374.156 13.91363 28.81081
v 374.144 13.9082 28.62408
v 374.1589 14.09811 28.84853
v 374.156 13.91363 28.81081
v 374.1589 14.09811 28.84853
v 374.144 13.9082 28.62408
v 374.156 13.91363 28.81081
v 374.1589 14.09811 28.84853
v 374.3548 14.0837 28.84627
v 374.156 13.91363 28.81081
v 374.3548 14.0837 28.84627
v 374.1589 14.09811 28.84853
v 374.156 13.91363 28.81081
v 374.3548 14.0837 28.84627
v 374.3525 13.9117 28.81029
v 374.156 13.91363 28.81081
v 374.3525 13.9117 28.81029
v 374.3548 14.0837 28.84627
v 374.156 13.91363 28.81081
v 374.365 14.0786 28.63942
v 374.3525 13.9117 28.81029
v 374.3548 14.0837 28.84627
v 374.3525 13.9117 28.81029
v 374.365 14.0786 28.63942
v 374.3548 14.0837 28.84627
v 374.365 14.0786 28.63942
v 374.3548 14.0837 28.84627
v 374.1589 14.09811 28.84853
v 374.365 14.0786 28.63942
v 374.1589 14.09811 28.84853
v 374.1809 14.12134 28.58567
v 374.1589 14.09811 28.84853
v 374.365 14.0786 28.63942
v 374.1809 14.12134 28.58567
v 374.1809 14.12134 28.58567
v 374.1589 14.09811 28.84853
v 374.144 13.9082 28.62408
v 374.1589 14.09811 28.84853
v 374.1809 14.12134 28.58567
v 374.144 13.9082 28.62408
v 374.1809 14.12134 28.58567
v 374.144 13.9082 28.62408
v 374.365 14.0786 28.63942
v 374.144 13.9082 28.62408
v 374.1809 14.12134 28.58567
v 374.365 14.0786 28.63942
v 374.365 14.0786 28.63942
v 374.144 13.9082 28.62408
v 374.33 13.88475 28.68279
v 374.144 13.9082 28.62408
v 374.365 14.0786 28.63942
v 374.33 13.88475 28.68279
v 374.3548 14.0837 28.84627
v 374.365 14.0786 28.63942
v 374.1589 14.09811 28.84853
vt 22.15893 45.44928
vt 20.64689 37.65335
vt 15.55438 38.7372
vt 20.64689 37.65335
vt 22.15893 45.44928
vt 15.55438 38.7372
vt 169.6927 -44.123
vt 168.589 -49.21125
vt 161.9675 -43.75774
vt 168.589 -49.21125
vt 169.6927 -44.123
vt 161.9675 -43.75774
vt 3.500192 -173.9615
vt -0.6723652 -167.4497
vt 6.541522 -165.9405
vt -0.6723652 -167.4497
vt 3.500192 -173.9615
vt 6.541522 -165.9405
vt -35.05926 3.318849
vt -26.2034 10.79559
vt -27.6923 3.53283
vt -26.2034 10.79559
vt -35.05926 3.318849
vt -27.6923 3.53283
vt 163.7723 2.723513
vt 171.4844 2.144567
vt 163.655 -4.689363
vt 171.4844 2.144567
vt 163.7723 2.723513
vt 163.655 -4.689363
vt 171.6378 2.110307
vt 171.5475 -4.807978
vt 163.8141 -4.73016
vt 171.5475 -4.807978
vt 171.6378 2.110307
vt 163.8141 -4.73016
vt 53.58868 13.70058
vt 46.8455 7.127782
vt 45.43521 13.9014
vt 46.8455 7.127782
vt 53.58868 13.70058
vt 45.43521 13.9014
vt -4.130149 -176.5263
vt -11.84695 -173.8862
vt -9.804776 -166.4268
vt 119.613 -126.1688
vt 108.5588 -122.7039
vt 118.1328 -118.5778
vt 108.5588 -122.7039
vt 119.613 -126.1688
vt 118.1328 -118.5778
vt -58.52628 36.72369
vt -48.14222 35.79747
vt -56.91644 28.22509
vt -48.14222 35.79747
vt -58.52628 36.72369
vt -56.91644 28.22509
vt -149.1661 28.89162
vt -148.1048 20.30724
vt -156.706 27.1704
vt -148.1048 20.30724
vt -149.1661 28.89162
vt -156.706 27.1704
vt -153.4075 32.31192
vt -144.8674 25.37293
vt -152.5421 24.418
vt -144.8674 25.37293
vt -153.4075 32.31192
vt -152.5421 24.418
vt -11.84695 -173.8862
vt -4.130149 -176.5263
vt -9.804776 -166.4268
vn 0.9705404 -0.2040033 -0.1281951
vn 0.9705404 -0.2040033 -0.1281951
vn 0.9705404 -0.2040033 -0.1281951
vn -0.9705404 0.2040033 0.1281951
vn -0.9705404 0.2040033 0.1281951
vn -0.9705404 0.2040033 0.1281951
vn -0.00907448 -0.9780157 0.2083337
vn -0.00907448 -0.9780157 0.2083337
vn -0.00907448 -0.9780157 0.2083337
vn 0.00907448 0.9780157 -0.2083337
vn 0.00907448 0.9780157 -0.2083337
vn 0.00907448 0.9780157 -0.2083337
vn -0.136692 -0.989898 0.03764657
vn -0.136692 -0.989898 0.03764657
vn -0.136692 -0.989898 0.03764657
vn 0.136692 0.989898 -0.03764657
vn 0.136692 0.989898 -0.03764657
vn 0.136692 0.989898 -0.03764657
vn -0.9979199 0.002224076 0.06442846
vn -0.9979199 0.002224076 0.06442846
vn -0.9979199 0.002224076 0.06442846
vn 0.9979199 -0.002224076 -0.06442846
vn 0.9979199 -0.002224076 -0.06442846
vn 0.9979199 -0.002224076 -0.06442846
vn -0.00343396 -0.2002416 0.9797406
vn -0.00343396 -0.2002416 0.9797406
vn -0.00343396 -0.2002416 0.9797406
vn 0.00343396 0.2002416 -0.9797406
vn 0.00343396 0.2002416 -0.9797406
vn 0.00343396 0.2002416 -0.9797406
vn 0.0006062158 -0.204769 0.9788101
vn 0.0006062158 -0.204769 0.9788101
vn 0.0006062158 -0.204769 0.9788101
vn -0.0006062158 0.204769 -0.9788101
vn -0.0006062158 0.204769 -0.9788101
vn -0.0006062158 0.204769 -0.9788101
vn 0.9984732 -0.02385486 0.0498198
vn 0.9984732 -0.02385486 0.0498198
vn 0.9984732 -0.02385486 0.0498198
vn -0.9984732 0.02385486 -0.0498198
vn -0.9984732 0.02385486 -0.0498198
vn -0.9984732 0.02385486 -0.0498198
vn 0.07309068 0.9971046 -0.02097727
vn 0.07309068 0.9971046 -0.02097727
vn 0.07309068 0.9971046 -0.02097727
vn 0.1964425 0.9751273 0.1026504
vn 0.1964425 0.9751273 0.1026504
vn 0.1964425 0.9751273 0.1026504
vn -0.1964425 -0.9751273 -0.1026504
vn -0.1964425 -0.9751273 -0.1026504
vn -0.1964425 -0.9751273 -0.1026504
vn -0.9849786 0.158455 -0.06862281
vn -0.9849786 0.158455 -0.06862281
vn -0.9849786 0.158455 -0.06862281
vn 0.9849786 -0.158455 0.06862281
vn 0.9849786 -0.158455 0.06862281
vn 0.9849786 -0.158455 0.06862281
vn 0.2285967 -0.2109353 -0.9503946
vn 0.2285967 -0.2109353 -0.9503946
vn 0.2285967 -0.2109353 -0.9503946
vn -0.2285967 0.2109353 0.9503946
vn -0.2285967 0.2109353 0.9503946
vn -0.2285967 0.2109353 0.9503946
vn 0.2615668 -0.2554646 -0.9307634
vn 0.2615668 -0.2554646 -0.9307634
vn 0.2615668 -0.2554646 -0.9307634
vn -0.2615668 0.2554646 0.9307634
vn -0.2615668 0.2554646 0.9307634
vn -0.2615668 0.2554646 0.9307634
vn -0.07309068 -0.9971046 0.02097727
vn -0.07309068 -0.9971046 0.02097727
vn -0.07309068 -0.9971046 0.02097727
g Mesh55_0
f 3/3/3 2/2/2 1/1/1
f 6/6/6 5/5/5 4/4/4
f 9/9/9 8/8/8 7/7/7
f 12/12/12 11/11/11 10/10/10
f 15/15/15 14/14/14 13/13/13
f 18/18/18 17/17/17 16/16/16
f 21/21/21 20/20/20 19/19/19
f 24/24/24 23/23/23 22/22/22
f 27/27/27 26/26/26 25/25/25
f 30/30/30 29/29/29 28/28/28
f 33/33/33 32/32/32 31/31/31
f 36/36/36 35/35/35 34/34/34
f 39/39/39 38/38/38 37/37/37
f 42/42/42 41/41/41 40/40/40
f 45/45/45 44/44/44 43/43/43
f 48/48/48 47/47/47 46/46/46
f 51/51/51 50/50/50 49/49/49
f 54/54/54 53/53/53 52/52/52
f 57/57/57 56/56/56 55/55/55
f 60/60/60 59/59/59 58/58/58
f 63/63/63 62/62/62 61/61/61
f 66/66/66 65/65/65 64/64/64
f 69/69/69 68/68/68 67/67/67
f 72/72/72 71/71/71 70/70/70
