g Mesh7
v -823.1642 112.49 -1162.45
v -823.1642 142.49 -1162.45
v -928.2742 142.49 -1162.45
v -928.2742 112.49 -1162.45
v -928.2742 101.49 -1162.45
v -1024.564 112.49 -1162.45
v -1024.564 101.49 -1162.45
v -823.1642 142.49 -1035.99
v -823.1642 142.49 -1162.45
v -823.1642 112.49 -1162.45
v -823.1642 112.49 -1035.99
v -928.2742 142.49 -1035.99
v -823.1642 142.49 -1035.99
v -823.1642 112.49 -1035.99
v -928.2742 112.49 -1035.99
v -823.1642 142.49 -1162.45
v -823.1642 112.49 -1162.45
v -928.2742 142.49 -1162.45
v -928.2742 112.49 -1162.45
v -928.2742 142.49 -1035.99
v -823.1642 142.49 -1035.99
v -928.2742 142.49 -1102.45
v -928.2742 142.49 -1162.45
v -823.1642 142.49 -1162.45
v -823.1642 112.49 -1035.99
v -823.1642 112.49 -1162.45
v -823.1642 142.49 -1035.99
v -823.1642 142.49 -1162.45
v -823.1642 142.49 -1035.99
v -928.2742 142.49 -1035.99
v -823.1642 112.49 -1035.99
v -928.2742 112.49 -1035.99
v -928.2742 112.49 -1035.99
v -928.2742 112.49 -1102.45
v -823.1642 112.49 -1035.99
v -928.2742 112.49 -1162.45
v -823.1642 112.49 -1162.45
v -928.2742 142.49 -1162.45
v -823.1642 142.49 -1162.45
v -823.1642 142.49 -1035.99
v -928.2742 142.49 -1102.45
v -928.2742 142.49 -1035.99
v -928.2742 112.49 -1102.45
v -928.2742 112.49 -1035.99
v -823.1642 112.49 -1035.99
v -928.2742 112.49 -1162.45
v -823.1642 112.49 -1162.45
v -928.2742 101.49 -1162.45
v -928.2742 101.49 -1102.45
v -928.2742 112.49 -1102.45
v -928.2742 112.49 -1162.45
v -928.2742 142.49 -1102.45
v -928.2742 142.49 -1162.45
v -928.2742 101.49 -1102.45
v -928.2742 101.49 -1162.45
v -928.2742 112.49 -1102.45
v -928.2742 112.49 -1162.45
v -928.2742 142.49 -1102.45
v -928.2742 142.49 -1162.45
v -928.2742 112.49 -1162.45
v -928.2742 101.49 -1162.45
v -1024.564 112.49 -1162.45
v -1024.564 101.49 -1162.45
v -1024.564 112.49 -1162.45
v -928.2742 142.49 -1162.45
v -928.2742 142.49 -1102.45
v -1024.564 112.49 -1103.496
v -1024.564 112.49 -1102.45
v -1024.564 112.49 -1102.45
v -928.2742 142.49 -1102.45
v -1024.564 112.49 -1103.496
v -1024.564 112.49 -1162.45
v -928.2742 142.49 -1162.45
v -928.2742 101.49 -1102.45
v -928.2742 101.49 -1162.45
v -1024.564 101.49 -1162.45
v -1024.564 101.49 -1103.496
v -1024.564 101.49 -1102.45
v -1024.564 101.49 -1102.45
v -1024.564 101.49 -1103.496
v -928.2742 101.49 -1102.45
v -1024.564 101.49 -1162.45
v -928.2742 101.49 -1162.45
vt -236.2141 43.30709
vt -236.2141 161.4173
vt 177.6048 161.4173
vt 177.6048 43.30709
vt 177.6048 4.156621E-11
vt 556.6993 43.30709
vt 556.6993 3.951985E-11
vt 254.6805 161.4173
vt 752.5546 161.4173
vt 752.5546 43.30709
vt 254.6805 43.30709
vt -177.6048 161.4173
vt 236.2141 161.4173
vt 236.2141 43.30709
vt -177.6048 43.30709
vt -236.2141 161.4173
vt -236.2141 43.30709
vt 177.6048 161.4173
vt 177.6048 43.30709
vt 65.95285 303.4071
vt 347.3604 5.137118E-12
vt 257.7941 481.3383
vt 430.9881 641.9743
vt 712.3957 338.5673
vt 254.6805 43.30709
vt 752.5546 43.30709
vt 254.6805 161.4173
vt 752.5546 161.4173
vt 236.2141 161.4173
vt -177.6048 161.4173
vt 236.2141 43.30709
vt -177.6048 43.30709
vt -65.95285 303.4071
vt -257.7941 481.3383
vt -347.3604 3.855039E-12
vt -430.9881 641.9743
vt -712.3957 338.5673
vt 430.9881 641.9743
vt 712.3957 338.5673
vt 347.3604 5.137118E-12
vt 257.7941 481.3383
vt 65.95285 303.4071
vt -257.7941 481.3383
vt -65.95285 303.4071
vt -347.3604 3.855039E-12
vt -430.9881 641.9743
vt -712.3957 338.5673
vt 752.5546 3.688149E-11
vt 516.334 2.653599E-11
vt 516.334 43.30709
vt 752.5546 43.30709
vt 516.334 161.4173
vt 752.5546 161.4173
vt 516.334 2.653599E-11
vt 752.5546 3.688149E-11
vt 516.334 43.30709
vt 752.5546 43.30709
vt 516.334 161.4173
vt 752.5546 161.4173
vt 177.6048 43.30709
vt 177.6048 4.156621E-11
vt 556.6993 43.30709
vt 556.6993 3.951985E-11
vt -752.5546 -518.6185
vt -752.5546 -121.551
vt -516.334 -121.551
vt -520.4554 -518.6185
vt -516.334 -518.6185
vt -516.334 -518.6185
vt -516.334 -121.551
vt -520.4554 -518.6185
vt -752.5546 -518.6185
vt -752.5546 -121.551
vt -257.7941 481.3383
vt -430.9881 641.9743
vt -173.194 919.9219
vt -3.021764 762.0884
vt -9.094947E-13 759.2858
vt -9.094947E-13 759.2858
vt -3.021764 762.0884
vt -257.7941 481.3383
vt -173.194 919.9219
vt -430.9881 641.9743
vn 0 0 -1
vn 0 0 -1
vn 0 0 -1
vn 0 0 -1
vn 0 0 -1
vn 0 0 -1
vn 0 0 -1
vn 1 0 0
vn 1 0 0
vn 1 0 0
vn 1 0 0
vn 0 0 1
vn 0 0 1
vn 0 0 1
vn 0 0 1
vn 0 0 1
vn 0 0 1
vn 0 0 1
vn 0 0 1
vn 0 -1 0
vn 0 -1 0
vn 0 -1 0
vn 0 -1 0
vn 0 -1 0
vn -1 0 0
vn -1 0 0
vn -1 0 0
vn -1 0 0
vn 0 0 -1
vn 0 0 -1
vn 0 0 -1
vn 0 0 -1
vn 0 1 0
vn 0 1 0
vn 0 1 0
vn 0 1 0
vn 0 1 0
vn 0 1 0
vn 0 1 0
vn 0 1 0
vn 0 1 0
vn 0 1 0
vn 0 -1 0
vn 0 -1 0
vn 0 -1 0
vn 0 -1 0
vn 0 -1 0
vn 1 0 0
vn 1 0 0
vn 1 0 0
vn 1 0 0
vn 1 0 0
vn 1 0 0
vn -1 0 0
vn -1 0 0
vn -1 0 0
vn -1 0 0
vn -1 0 0
vn -1 0 0
vn 0 0 1
vn 0 0 1
vn 0 0 1
vn 0 0 1
vn -0.2974562 0.9547354 0
vn -0.2974562 0.9547354 0
vn -0.2974562 0.9547354 0
vn -0.2974562 0.9547354 0
vn -0.2974562 0.9547354 0
vn 0.2974562 -0.9547354 0
vn 0.2974562 -0.9547354 0
vn 0.2974562 -0.9547354 0
vn 0.2974562 -0.9547354 0
vn 0.2974562 -0.9547354 0
vn 0 -1 0
vn 0 -1 0
vn 0 -1 0
vn 0 -1 0
vn 0 -1 0
vn 0 1 0
vn 0 1 0
vn 0 1 0
vn 0 1 0
vn 0 1 0
g Mesh7_0
f 3/3/3 2/2/2 1/1/1
f 1/1/1 4/4/4 3/3/3
f 3/3/3 4/4/4 5/5/5
f 5/5/5 6/6/6 3/3/3
f 5/5/5 7/7/7 6/6/6
f 10/10/10 9/9/9 8/8/8
f 8/8/8 11/11/11 10/10/10
f 14/14/14 13/13/13 12/12/12
f 12/12/12 15/15/15 14/14/14
g Mesh7_1
f 18/18/18 17/17/17 16/16/16
f 17/17/17 18/18/18 19/19/19
f 22/22/22 21/21/21 20/20/20
f 21/21/21 22/22/22 23/23/23
f 21/21/21 23/23/23 24/24/24
f 27/27/27 26/26/26 25/25/25
f 26/26/26 27/27/27 28/28/28
f 31/31/31 30/30/30 29/29/29
f 30/30/30 31/31/31 32/32/32
f 35/35/35 34/34/34 33/33/33
f 34/34/34 35/35/35 36/36/36
f 36/36/36 35/35/35 37/37/37
g Mesh7_2
f 40/40/40 39/39/39 38/38/38
f 40/40/40 38/38/38 41/41/41
f 41/41/41 42/42/42 40/40/40
f 45/45/45 44/44/44 43/43/43
f 43/43/43 46/46/46 45/45/45
f 46/46/46 47/47/47 45/45/45
f 50/50/50 49/49/49 48/48/48
f 48/48/48 51/51/51 50/50/50
f 52/52/52 50/50/50 51/51/51
f 51/51/51 53/53/53 52/52/52
f 56/56/56 55/55/55 54/54/54
f 55/55/55 56/56/56 57/57/57
f 58/58/58 57/57/57 56/56/56
f 57/57/57 58/58/58 59/59/59
f 18/18/18 61/61/61 60/60/60
f 61/61/61 18/18/18 62/62/62
f 61/61/61 62/62/62 63/63/63
f 66/66/66 65/65/65 64/64/64
f 66/66/66 64/64/64 67/67/67
f 67/67/67 68/68/68 66/66/66
f 71/71/71 70/70/70 69/69/69
f 70/70/70 71/71/71 72/72/72
f 70/70/70 72/72/72 73/73/73
f 76/76/76 75/75/75 74/74/74
f 77/77/77 76/76/76 74/74/74
f 74/74/74 78/78/78 77/77/77
f 81/81/81 80/80/80 79/79/79
f 80/80/80 81/81/81 82/82/82
f 82/82/82 81/81/81 83/83/83
