g Mesh11
v 327.7933 16.6 -118.9654
v 327.7933 18.1 -118.9654
v 299.6331 16.6 -118.3223
v 299.6331 18.1 -118.3223
v 303.1254 18.1 -112.4005
v 303.8651 18.1 -112.4174
v 303.1254 16.6 -112.4005
v 303.8651 16.6 -112.4174
v 327.9304 16.6 -112.967
v 327.9304 18.1 -112.967
v 327.9304 16.6 -112.967
v 327.7933 16.6 -118.9654
v 303.8651 16.6 -112.4174
v 303.1254 16.6 -112.4005
v 299.6331 16.6 -118.3223
v 327.7933 18.1 -118.9654
v 327.7933 16.6 -118.9654
v 299.6331 16.6 -118.3223
v 299.6331 18.1 -118.3223
v 327.7933 18.1 -118.9654
v 299.6331 18.1 -118.3223
v 303.1254 18.1 -112.4005
v 303.8651 18.1 -112.4174
v 327.9304 18.1 -112.967
v 303.8651 18.1 -112.4174
v 303.1254 18.1 -112.4005
v 303.1254 16.6 -112.4005
v 303.8651 16.6 -112.4174
v 327.9304 16.6 -112.967
v 327.9304 18.1 -112.967
v 327.7933 16.6 -118.9654
v 327.9304 16.6 -112.967
v 303.8651 16.6 -112.4174
v 303.1254 16.6 -112.4005
v 299.6331 16.6 -118.3223
v 299.6331 18.1 -118.3223
v 327.7933 18.1 -118.9654
v 303.1254 18.1 -112.4005
v 303.8651 18.1 -112.4174
v 327.9304 18.1 -112.967
vt 110.8961 4.263256E-14
vt 110.8961 5.905512
vt -2.273737E-13 4.263256E-14
vt -2.273737E-13 5.905512
vt -13.21346 5.905512
vt -16.12651 5.905512
vt -13.21346 2.842171E-14
vt -16.12651 1.421085E-14
vt -110.8961 2.92241E-14
vt -110.8961 5.905512
vt -110.8961 23.62205
vt -110.8961 1.136868E-13
vt -16.12651 23.62205
vt -13.21346 23.62205
vt 2.273737E-13 -2.709559E-29
vt 110.8961 5.905512
vt 110.8961 4.263256E-14
vt -2.273737E-13 4.263256E-14
vt -2.273737E-13 5.905512
vt 110.8961 1.099335E-13
vt -2.275164E-13 -3.753311E-15
vt 13.21346 23.62205
vt 16.12651 23.62205
vt 110.8961 23.62205
vt -16.12651 5.905512
vt -13.21346 5.905512
vt -13.21346 2.842171E-14
vt -16.12651 2.92241E-14
vt -110.8961 2.92241E-14
vt -110.8961 5.905512
vt -110.8961 1.136868E-13
vt -110.8961 23.62205
vt -16.12651 23.62205
vt -13.21346 23.62205
vt 2.273737E-13 -2.709559E-29
vt -2.275164E-13 -3.753311E-15
vt 110.8961 1.099335E-13
vt 13.21346 23.62205
vt 16.12651 23.62205
vt 110.8961 23.62205
vn -0.02283267 0 -0.9997392
vn -0.02283267 0 -0.9997392
vn -0.02283267 0 -0.9997392
vn -0.02283267 0 -0.9997392
vn 0.02283267 0 0.9997392
vn 0.02283267 0 0.9997392
vn 0.02283267 0 0.9997392
vn 0.02283267 0 0.9997392
vn 0.02283267 0 0.9997392
vn 0.02283267 0 0.9997392
vn 0 -1 0
vn 0 -1 0
vn 0 -1 0
vn 0 -1 0
vn 0 -1 0
vn 0.02283267 0 0.9997392
vn 0.02283267 0 0.9997392
vn 0.02283267 0 0.9997392
vn 0.02283267 0 0.9997392
vn 0 -1 0
vn 0 -1 0
vn 0 -1 0
vn 0 -1 0
vn 0 -1 0
vn -0.02283267 0 -0.9997392
vn -0.02283267 0 -0.9997392
vn -0.02283267 0 -0.9997392
vn -0.02283267 0 -0.9997392
vn -0.02283267 0 -0.9997392
vn -0.02283267 0 -0.9997392
vn 0 1 0
vn 0 1 0
vn 0 1 0
vn 0 1 0
vn 0 1 0
vn 0 1 0
vn 0 1 0
vn 0 1 0
vn 0 1 0
vn 0 1 0
g Mesh11_0
f 3/3/3 2/2/2 1/1/1
f 2/2/2 3/3/3 4/4/4
f 7/7/7 6/6/6 5/5/5
f 6/6/6 7/7/7 8/8/8
f 9/9/9 6/6/6 8/8/8
f 6/6/6 9/9/9 10/10/10
f 13/13/13 12/12/12 11/11/11
f 14/14/14 12/12/12 13/13/13
f 12/12/12 14/14/14 15/15/15
g Mesh11_1
f 18/18/18 17/17/17 16/16/16
f 16/16/16 19/19/19 18/18/18
f 22/22/22 21/21/21 20/20/20
f 20/20/20 23/23/23 22/22/22
f 20/20/20 24/24/24 23/23/23
f 27/27/27 26/26/26 25/25/25
f 25/25/25 28/28/28 27/27/27
f 29/29/29 28/28/28 25/25/25
f 25/25/25 30/30/30 29/29/29
f 33/33/33 32/32/32 31/31/31
f 34/34/34 33/33/33 31/31/31
f 31/31/31 35/35/35 34/34/34
g Mesh11_2
f 38/38/38 37/37/37 36/36/36
f 37/37/37 38/38/38 39/39/39
f 37/37/37 39/39/39 40/40/40
