g Mesh3
v 12.56452 28.69 -57.53031
v 11.33755 28.69 -56.28769
v 11.33755 34.69 -56.28769
v 12.56452 34.69 -57.53031
v 27.80649 28.69 -72.96673
v 27.80649 34.69 -72.96673
v 11.33755 28.69 -56.28769
v 12.56452 28.69 -57.53031
v 11.33755 34.69 -56.28769
v 12.56452 34.69 -57.53031
v 27.80649 28.69 -72.96673
v 27.80649 34.69 -72.96673
v 11.33755 34.69 -56.28769
v 11.33755 28.69 -56.28769
v 9.20283 28.69 -58.39553
v 9.20283 34.69 -58.39553
v 11.33755 28.69 -56.28769
v 11.33755 34.69 -56.28769
v 9.20283 28.69 -58.39553
v 9.20283 34.69 -58.39553
v 25.67177 28.69 -75.07456
v 9.20283 28.69 -58.39553
v 11.33755 28.69 -56.28769
v 12.56452 28.69 -57.53031
v 27.80649 28.69 -72.96673
v 9.20283 28.69 -58.39553
v 25.67177 28.69 -75.07456
v 11.33755 28.69 -56.28769
v 12.56452 28.69 -57.53031
v 27.80649 28.69 -72.96673
v 25.67177 34.69 -75.07456
v 25.67177 28.69 -75.07456
v 27.80649 28.69 -72.96673
v 27.80649 34.69 -72.96673
v 25.67177 28.69 -75.07456
v 25.67177 34.69 -75.07456
v 27.80649 28.69 -72.96673
v 27.80649 34.69 -72.96673
v 25.67177 34.69 -75.07456
v 27.80649 34.69 -72.96673
v 12.56452 34.69 -57.53031
v 11.33755 34.69 -56.28769
v 9.20283 34.69 -58.39553
v 9.20283 34.69 -58.39553
v 11.33755 34.69 -56.28769
v 25.67177 34.69 -75.07456
v 12.56452 34.69 -57.53031
v 27.80649 34.69 -72.96673
v 25.67177 34.69 -75.07456
v 9.20283 34.69 -58.39553
v 9.20283 28.69 -58.39553
v 25.67177 28.69 -75.07456
v 9.20283 34.69 -58.39553
v 25.67177 34.69 -75.07456
v 9.20283 28.69 -58.39553
v 25.67177 28.69 -75.07456
vt 6.062518 1.071261E-15
vt -0.8126394 1.071261E-15
vt -0.8126394 23.62205
vt 6.062518 23.62205
vt 91.46936 1.071261E-15
vt 91.46936 23.62205
vt -0.8126394 1.071261E-15
vt 6.062518 1.071261E-15
vt -0.8126394 23.62205
vt 6.062518 23.62205
vt 91.46936 1.071261E-15
vt 91.46936 23.62205
vt 5.980367 23.62205
vt 5.980367 -4.185249E-17
vt -5.830657 -4.185249E-17
vt -5.830657 23.62205
vt 5.980367 -4.185249E-17
vt 5.980367 23.62205
vt -5.830657 -4.185249E-17
vt -5.830657 23.62205
vt -60.11844 69.18391
vt 4.719914 3.518431
vt -3.684505 -4.780125
vt -8.515066 0.1120589
vt -68.52286 60.88536
vt 4.719914 3.518431
vt -60.11844 69.18391
vt -3.684505 -4.780125
vt -8.515066 0.1120589
vt -68.52286 60.88536
vt 5.830657 23.62205
vt 5.830657 4.710848E-15
vt -5.980367 4.710848E-15
vt -5.980367 23.62205
vt 5.830657 4.710848E-15
vt 5.830657 23.62205
vt -5.980367 4.710848E-15
vt -5.980367 23.62205
vt 60.11844 69.18391
vt 68.52286 60.88536
vt 8.515066 0.1120589
vt 3.684505 -4.780125
vt -4.719914 3.518431
vt -4.719914 3.518431
vt 3.684505 -4.780125
vt 60.11844 69.18391
vt 8.515066 0.1120589
vt 68.52286 60.88536
vt -91.46936 23.62205
vt 0.8126394 23.62205
vt 0.8126394 -1.044444E-15
vt -91.46936 -1.044444E-15
vt 0.8126394 23.62205
vt -91.46936 23.62205
vt 0.8126394 -1.044444E-15
vt -91.46936 -1.044444E-15
vn 0.7115741 0 0.702611
vn 0.7115741 0 0.702611
vn 0.7115741 0 0.702611
vn 0.7115741 0 0.702611
vn 0.7115741 0 0.702611
vn 0.7115741 0 0.702611
vn -0.7115741 0 -0.702611
vn -0.7115741 0 -0.702611
vn -0.7115741 0 -0.702611
vn -0.7115741 0 -0.702611
vn -0.7115741 0 -0.702611
vn -0.7115741 0 -0.702611
vn -0.702611 0 0.7115741
vn -0.702611 0 0.7115741
vn -0.702611 0 0.7115741
vn -0.702611 0 0.7115741
vn 0.702611 0 -0.7115741
vn 0.702611 0 -0.7115741
vn 0.702611 0 -0.7115741
vn 0.702611 0 -0.7115741
vn 0 -1 0
vn 0 -1 0
vn 0 -1 0
vn 0 -1 0
vn 0 -1 0
vn 0 1 0
vn 0 1 0
vn 0 1 0
vn 0 1 0
vn 0 1 0
vn 0.702611 0 -0.7115741
vn 0.702611 0 -0.7115741
vn 0.702611 0 -0.7115741
vn 0.702611 0 -0.7115741
vn -0.702611 0 0.7115741
vn -0.702611 0 0.7115741
vn -0.702611 0 0.7115741
vn -0.702611 0 0.7115741
vn 0 1 0
vn 0 1 0
vn 0 1 0
vn 0 1 0
vn 0 1 0
vn 0 -1 0
vn 0 -1 0
vn 0 -1 0
vn 0 -1 0
vn 0 -1 0
vn -0.7115741 0 -0.702611
vn -0.7115741 0 -0.702611
vn -0.7115741 0 -0.702611
vn -0.7115741 0 -0.702611
vn 0.7115741 0 0.702611
vn 0.7115741 0 0.702611
vn 0.7115741 0 0.702611
vn 0.7115741 0 0.702611
g Mesh3_0
f 3/3/3 2/2/2 1/1/1
f 1/1/1 4/4/4 3/3/3
f 4/4/4 1/1/1 5/5/5
f 5/5/5 6/6/6 4/4/4
f 9/9/9 8/8/8 7/7/7
f 8/8/8 9/9/9 10/10/10
f 10/10/10 11/11/11 8/8/8
f 11/11/11 10/10/10 12/12/12
f 15/15/15 14/14/14 13/13/13
f 13/13/13 16/16/16 15/15/15
f 19/19/19 18/18/18 17/17/17
f 18/18/18 19/19/19 20/20/20
f 23/23/23 22/22/22 21/21/21
f 21/21/21 24/24/24 23/23/23
f 21/21/21 25/25/25 24/24/24
f 28/28/28 27/27/27 26/26/26
f 27/27/27 28/28/28 29/29/29
f 27/27/27 29/29/29 30/30/30
f 33/33/33 32/32/32 31/31/31
f 31/31/31 34/34/34 33/33/33
f 37/37/37 36/36/36 35/35/35
f 36/36/36 37/37/37 38/38/38
f 41/41/41 40/40/40 39/39/39
f 42/42/42 41/41/41 39/39/39
f 39/39/39 43/43/43 42/42/42
f 46/46/46 45/45/45 44/44/44
f 45/45/45 46/46/46 47/47/47
f 47/47/47 46/46/46 48/48/48
f 51/51/51 50/50/50 49/49/49
f 49/49/49 52/52/52 51/51/51
f 55/55/55 54/54/54 53/53/53
f 54/54/54 55/55/55 56/56/56
