g Mesh153
v 419.91 40.25071 -88.24478
v 414.8875 40.2517 -91.69043
v 416.3385 40.25301 -93.80558
v 423.0323 40.25353 -92.79591
v 416.6318 40.25479 -97.18687
v 414.9606 40.25328 -94.75091
v 414.9606 40.25328 -94.75091
v 416.3385 40.25301 -93.80558
v 416.6318 40.25479 -97.18687
v 423.0323 40.25353 -92.79591
v 419.91 40.25071 -88.24478
v 414.8875 40.2517 -91.69043
v 416.6318 40.25479 -97.18687
v 414.9606 40.25328 -94.75091
v 414.9621 30.68035 -94.75581
v 416.6338 27.50648 -97.19341
v 413.5115 27.50366 -92.64228
v 413.511 30.67904 -92.64066
v 413.511 30.67904 -92.64066
v 414.9621 30.68035 -94.75581
v 413.5115 27.50366 -92.64228
v 416.6338 27.50648 -97.19341
v 416.6318 40.25479 -97.18687
v 414.9606 40.25328 -94.75091
v 413.511 30.67904 -92.64066
v 414.889 30.67877 -91.69533
v 413.5115 27.50366 -92.64228
v 419.91 40.25071 -88.24478
v 419.912 27.5024 -88.25132
v 414.8875 40.2517 -91.69043
v 414.889 30.67877 -91.69533
v 413.511 30.67904 -92.64066
v 413.5115 27.50366 -92.64228
v 419.91 40.25071 -88.24478
v 414.8875 40.2517 -91.69043
v 419.912 27.5024 -88.25132
v 423.0342 27.50522 -92.80245
v 416.6338 27.50648 -97.19341
v 413.5115 27.50366 -92.64228
v 419.912 27.5024 -88.25132
v 421.4731 27.50381 -90.52689
v 416.6338 27.50648 -97.19341
v 423.0342 27.50522 -92.80245
v 413.5115 27.50366 -92.64228
v 419.912 27.5024 -88.25132
v 421.4731 27.50381 -90.52689
v 414.3939 40.57826 -95.13947
v 414.3954 30.68046 -95.14454
v 414.9621 30.68035 -94.75581
v 414.9606 40.25328 -94.75091
v 416.3385 40.25301 -93.80558
v 416.3385 40.57788 -93.80542
v 414.3954 30.68046 -95.14454
v 414.3939 40.57826 -95.13947
v 414.9621 30.68035 -94.75581
v 414.9606 40.25328 -94.75091
v 416.3385 40.25301 -93.80558
v 416.3385 40.57788 -93.80542
v 414.9621 30.68035 -94.75581
v 414.3954 30.68046 -95.14454
v 412.5085 30.67876 -92.39399
v 413.511 30.67904 -92.64066
v 414.4531 30.67838 -91.05994
v 414.889 30.67877 -91.69533
v 414.3954 30.68046 -95.14454
v 414.9621 30.68035 -94.75581
v 412.5085 30.67876 -92.39399
v 413.511 30.67904 -92.64066
v 414.4531 30.67838 -91.05994
v 414.889 30.67877 -91.69533
v 412.5085 30.67876 -92.39399
v 414.3954 30.68046 -95.14454
v 414.3939 40.57826 -95.13947
v 412.507 40.57656 -92.38892
v 412.507 40.57656 -92.38892
v 414.3939 40.57826 -95.13947
v 412.5085 30.67876 -92.39399
v 414.3954 30.68046 -95.14454
v 412.5085 30.67876 -92.39399
v 412.507 40.57656 -92.38892
v 414.4515 40.57618 -91.05487
v 414.4531 30.67838 -91.05994
v 414.4531 30.67838 -91.05994
v 414.4515 40.57618 -91.05487
v 412.5085 30.67876 -92.39399
v 412.507 40.57656 -92.38892
v 414.889 30.67877 -91.69533
v 414.4531 30.67838 -91.05994
v 414.4515 40.57618 -91.05487
v 414.8875 40.2517 -91.69043
v 416.3385 40.57788 -93.80542
v 416.3385 40.25301 -93.80558
v 414.4531 30.67838 -91.05994
v 414.889 30.67877 -91.69533
v 414.4515 40.57618 -91.05487
v 414.8875 40.2517 -91.69043
v 416.3385 40.57788 -93.80542
v 416.3385 40.25301 -93.80558
v 414.3939 40.57826 -95.13947
v 416.3385 40.57788 -93.80542
v 414.4515 40.57618 -91.05487
v 412.507 40.57656 -92.38892
v 412.507 40.57656 -92.38892
v 414.4515 40.57618 -91.05487
v 414.3939 40.57826 -95.13947
v 416.3385 40.57788 -93.80542
v 421.4731 27.50381 -90.52689
v 419.912 27.5024 -88.25132
v 419.91 40.25071 -88.24478
v 421.4713 38.97805 -90.521
v 423.0323 40.25353 -92.79591
v 423.0324 38.97946 -92.79656
v 419.912 27.5024 -88.25132
v 421.4731 27.50381 -90.52689
v 419.91 40.25071 -88.24478
v 421.4713 38.97805 -90.521
v 423.0323 40.25353 -92.79591
v 423.0324 38.97946 -92.79656
vt 773.3893 102.5609
vt 533.5925 102.5609
vt 533.5925 203.5473
vt 773.3893 319.851
vt 467.8039 319.851
vt 467.8039 203.5473
vt 467.8039 203.5473
vt 533.5925 203.5473
vt 467.8039 319.851
vt 773.3893 319.851
vt 773.3893 102.5609
vt 533.5925 102.5609
vt -319.851 1167.009
vt -203.5473 1167.009
vt -203.5473 790.1217
vt -319.851 665.1066
vt -102.5609 665.1066
vt -102.5609 790.1217
vt -102.5609 790.1217
vt -203.5473 790.1217
vt -102.5609 665.1066
vt -319.851 665.1066
vt -319.851 1167.009
vt -203.5473 1167.009
vt 467.8039 790.1217
vt 533.5925 790.1217
vt 467.8039 665.1066
vt 773.3893 1167.009
vt 773.3893 665.1066
vt 533.5925 1167.009
vt 533.5925 790.1217
vt 467.8039 790.1217
vt 467.8039 665.1066
vt 773.3893 1167.009
vt 533.5925 1167.009
vt 773.3893 665.1066
vt -773.3893 319.851
vt -467.8039 319.851
vt -467.8039 102.5609
vt -773.3893 102.5609
vt -773.3893 211.206
vt -467.8039 319.851
vt -773.3893 319.851
vt -467.8039 102.5609
vt -773.3893 102.5609
vt -773.3893 211.206
vt -440.7504 1179.799
vt -440.7504 790.1217
vt -467.804 790.1217
vt -467.804 1167.009
vt -533.5925 1167.009
vt -533.5925 1179.799
vt -440.7504 790.1217
vt -440.7504 1179.799
vt -467.804 790.1217
vt -467.804 1167.009
vt -533.5925 1167.009
vt -533.5925 1179.799
vt -467.8039 203.5473
vt -440.7504 203.5473
vt -440.7504 72.22449
vt -467.8039 102.5609
vt -533.5925 72.22449
vt -533.5925 102.5609
vt -440.7504 203.5473
vt -467.8039 203.5473
vt -440.7504 72.22449
vt -467.8039 102.5609
vt -533.5925 72.22449
vt -533.5925 102.5609
vt -72.22449 790.1217
vt -203.5473 790.1217
vt -203.5473 1179.799
vt -72.22449 1179.799
vt -72.22449 1179.799
vt -203.5473 1179.799
vt -72.22449 790.1217
vt -203.5473 790.1217
vt 440.7504 790.1217
vt 440.7504 1179.799
vt 533.5925 1179.799
vt 533.5925 790.1217
vt 533.5925 790.1217
vt 533.5925 1179.799
vt 440.7504 790.1217
vt 440.7504 1179.799
vt 102.5609 790.1217
vt 72.22449 790.1217
vt 72.22449 1179.799
vt 102.5609 1167.009
vt 203.5473 1179.799
vt 203.5473 1167.009
vt 72.22449 790.1217
vt 102.5609 790.1217
vt 72.22449 1179.799
vt 102.5609 1167.009
vt 203.5473 1179.799
vt 203.5473 1167.009
vt 440.7504 203.5473
vt 533.5925 203.5473
vt 533.5925 72.22449
vt 440.7504 72.22449
vt 440.7504 72.22449
vt 533.5925 72.22449
vt 440.7504 203.5473
vt 533.5925 203.5473
vt 211.206 665.1066
vt 102.5609 665.1066
vt 102.5609 1167.009
vt 211.206 1116.848
vt 319.851 1167.009
vt 319.851 1116.848
vt 102.5609 665.1066
vt 211.206 665.1066
vt 102.5609 1167.009
vt 211.206 1116.848
vt 319.851 1167.009
vt 319.851 1116.848
vn -0.0001554452 0.9999999 0.0005124842
vn -0.0001554452 0.9999999 0.0005124842
vn -0.0001554452 0.9999999 0.0005124842
vn -0.0001554452 0.9999999 0.0005124842
vn -0.0001554452 0.9999999 0.0005124842
vn -0.0001554452 0.9999999 0.0005124842
vn 0.0001554452 -0.9999999 -0.0005124842
vn 0.0001554452 -0.9999999 -0.0005124842
vn 0.0001554452 -0.9999999 -0.0005124842
vn 0.0001554452 -0.9999999 -0.0005124842
vn 0.0001554452 -0.9999999 -0.0005124842
vn 0.0001554452 -0.9999999 -0.0005124842
vn -0.8246045 0.0001617365 -0.5657098
vn -0.8246045 0.0001617365 -0.5657098
vn -0.8246045 0.0001617365 -0.5657098
vn -0.8246045 0.0001617365 -0.5657098
vn -0.8246045 0.0001617365 -0.5657098
vn -0.8246045 0.0001617365 -0.5657098
vn 0.8246045 -0.0001617365 0.5657098
vn 0.8246045 -0.0001617365 0.5657098
vn 0.8246045 -0.0001617365 0.5657098
vn 0.8246045 -0.0001617365 0.5657098
vn 0.8246045 -0.0001617365 0.5657098
vn 0.8246045 -0.0001617365 0.5657098
vn -0.5657097 -0.0005105335 0.8246043
vn -0.5657097 -0.0005105335 0.8246043
vn -0.5657097 -0.0005105335 0.8246043
vn -0.5657097 -0.0005105335 0.8246043
vn -0.5657097 -0.0005105335 0.8246043
vn -0.5657097 -0.0005105335 0.8246043
vn 0.5657097 0.0005105335 -0.8246043
vn 0.5657097 0.0005105335 -0.8246043
vn 0.5657097 0.0005105335 -0.8246043
vn 0.5657097 0.0005105335 -0.8246043
vn 0.5657097 0.0005105335 -0.8246043
vn 0.5657097 0.0005105335 -0.8246043
vn 0.0001554452 -0.9999999 -0.0005124842
vn 0.0001554452 -0.9999999 -0.0005124842
vn 0.0001554452 -0.9999999 -0.0005124842
vn 0.0001554452 -0.9999999 -0.0005124842
vn 0.0001554452 -0.9999999 -0.0005124842
vn -0.0001554452 0.9999999 0.0005124842
vn -0.0001554452 0.9999999 0.0005124842
vn -0.0001554452 0.9999999 0.0005124842
vn -0.0001554452 0.9999999 0.0005124842
vn -0.0001554452 0.9999999 0.0005124842
vn 0.5657096 0.0005105406 -0.8246044
vn 0.5657096 0.0005105406 -0.8246044
vn 0.5657096 0.0005105406 -0.8246044
vn 0.5657096 0.0005105406 -0.8246044
vn 0.5657096 0.0005105406 -0.8246044
vn 0.5657096 0.0005105406 -0.8246044
vn -0.5657096 -0.0005105406 0.8246044
vn -0.5657096 -0.0005105406 0.8246044
vn -0.5657096 -0.0005105406 0.8246044
vn -0.5657096 -0.0005105406 0.8246044
vn -0.5657096 -0.0005105406 0.8246044
vn -0.5657096 -0.0005105406 0.8246044
vn 0.0001554452 -0.9999999 -0.0005124842
vn 0.0001554452 -0.9999999 -0.0005124842
vn 0.0001554452 -0.9999999 -0.0005124842
vn 0.0001554452 -0.9999999 -0.0005124842
vn 0.0001554452 -0.9999999 -0.0005124842
vn 0.0001554452 -0.9999999 -0.0005124842
vn -0.0001554452 0.9999999 0.0005124842
vn -0.0001554452 0.9999999 0.0005124842
vn -0.0001554452 0.9999999 0.0005124842
vn -0.0001554452 0.9999999 0.0005124842
vn -0.0001554452 0.9999999 0.0005124842
vn -0.0001554452 0.9999999 0.0005124842
vn -0.8246045 0.0001617365 -0.5657098
vn -0.8246045 0.0001617365 -0.5657098
vn -0.8246045 0.0001617365 -0.5657098
vn -0.8246045 0.0001617365 -0.5657098
vn 0.8246045 -0.0001617365 0.5657098
vn 0.8246045 -0.0001617365 0.5657098
vn 0.8246045 -0.0001617365 0.5657098
vn 0.8246045 -0.0001617365 0.5657098
vn -0.5657097 -0.0005105335 0.8246043
vn -0.5657097 -0.0005105335 0.8246043
vn -0.5657097 -0.0005105335 0.8246043
vn -0.5657097 -0.0005105335 0.8246043
vn 0.5657097 0.0005105335 -0.8246043
vn 0.5657097 0.0005105335 -0.8246043
vn 0.5657097 0.0005105335 -0.8246043
vn 0.5657097 0.0005105335 -0.8246043
vn 0.8246045 -0.0001617365 0.5657098
vn 0.8246045 -0.0001617365 0.5657098
vn 0.8246045 -0.0001617365 0.5657098
vn 0.8246045 -0.0001617365 0.5657098
vn 0.8246045 -0.0001617365 0.5657098
vn 0.8246045 -0.0001617365 0.5657098
vn -0.8246045 0.0001617365 -0.5657098
vn -0.8246045 0.0001617365 -0.5657098
vn -0.8246045 0.0001617365 -0.5657098
vn -0.8246045 0.0001617365 -0.5657098
vn -0.8246045 0.0001617365 -0.5657098
vn -0.8246045 0.0001617365 -0.5657098
vn -0.0001554452 0.9999999 0.0005124842
vn -0.0001554452 0.9999999 0.0005124842
vn -0.0001554452 0.9999999 0.0005124842
vn -0.0001554452 0.9999999 0.0005124842
vn 0.0001554452 -0.9999999 -0.0005124842
vn 0.0001554452 -0.9999999 -0.0005124842
vn 0.0001554452 -0.9999999 -0.0005124842
vn 0.0001554452 -0.9999999 -0.0005124842
vn 0.8246045 -0.0001617365 0.5657098
vn 0.8246045 -0.0001617365 0.5657098
vn 0.8246045 -0.0001617365 0.5657098
vn 0.8246045 -0.0001617365 0.5657098
vn 0.8246045 -0.0001617365 0.5657098
vn 0.8246045 -0.0001617365 0.5657098
vn -0.8246045 0.0001617365 -0.5657098
vn -0.8246045 0.0001617365 -0.5657098
vn -0.8246045 0.0001617365 -0.5657098
vn -0.8246045 0.0001617365 -0.5657098
vn -0.8246045 0.0001617365 -0.5657098
vn -0.8246045 0.0001617365 -0.5657098
g Mesh153_0
f 3/3/3 2/2/2 1/1/1
f 3/3/3 1/1/1 4/4/4
f 3/3/3 4/4/4 5/5/5
f 5/5/5 6/6/6 3/3/3
f 9/9/9 8/8/8 7/7/7
f 8/8/8 9/9/9 10/10/10
f 8/8/8 10/10/10 11/11/11
f 8/8/8 11/11/11 12/12/12
f 15/15/15 14/14/14 13/13/13
f 15/15/15 13/13/13 16/16/16
f 15/15/15 16/16/16 17/17/17
f 17/17/17 18/18/18 15/15/15
f 21/21/21 20/20/20 19/19/19
f 20/20/20 21/21/21 22/22/22
f 20/20/20 22/22/22 23/23/23
f 20/20/20 23/23/23 24/24/24
f 27/27/27 26/26/26 25/25/25
f 28/28/28 26/26/26 27/27/27
f 27/27/27 29/29/29 28/28/28
f 28/28/28 30/30/30 26/26/26
f 33/33/33 32/32/32 31/31/31
f 34/34/34 33/33/33 31/31/31
f 34/34/34 31/31/31 35/35/35
f 33/33/33 34/34/34 36/36/36
f 39/39/39 38/38/38 37/37/37
f 37/37/37 40/40/40 39/39/39
f 37/37/37 41/41/41 40/40/40
f 44/44/44 43/43/43 42/42/42
f 43/43/43 44/44/44 45/45/45
f 43/43/43 45/45/45 46/46/46
f 49/49/49 48/48/48 47/47/47
f 47/47/47 50/50/50 49/49/49
f 47/47/47 51/51/51 50/50/50
f 47/47/47 52/52/52 51/51/51
f 55/55/55 54/54/54 53/53/53
f 54/54/54 55/55/55 56/56/56
f 54/54/54 56/56/56 57/57/57
f 54/54/54 57/57/57 58/58/58
f 61/61/61 60/60/60 59/59/59
f 59/59/59 62/62/62 61/61/61
f 62/62/62 63/63/63 61/61/61
f 62/62/62 64/64/64 63/63/63
f 67/67/67 66/66/66 65/65/65
f 66/66/66 67/67/67 68/68/68
f 68/68/68 67/67/67 69/69/69
f 68/68/68 69/69/69 70/70/70
f 73/73/73 72/72/72 71/71/71
f 71/71/71 74/74/74 73/73/73
f 77/77/77 76/76/76 75/75/75
f 76/76/76 77/77/77 78/78/78
f 81/81/81 80/80/80 79/79/79
f 79/79/79 82/82/82 81/81/81
f 85/85/85 84/84/84 83/83/83
f 84/84/84 85/85/85 86/86/86
f 89/89/89 88/88/88 87/87/87
f 87/87/87 90/90/90 89/89/89
f 90/90/90 91/91/91 89/89/89
f 90/90/90 92/92/92 91/91/91
f 95/95/95 94/94/94 93/93/93
f 94/94/94 95/95/95 96/96/96
f 96/96/96 95/95/95 97/97/97
f 96/96/96 97/97/97 98/98/98
f 101/101/101 100/100/100 99/99/99
f 99/99/99 102/102/102 101/101/101
f 105/105/105 104/104/104 103/103/103
f 104/104/104 105/105/105 106/106/106
f 109/109/109 108/108/108 107/107/107
f 107/107/107 110/110/110 109/109/109
f 110/110/110 111/111/111 109/109/109
f 110/110/110 112/112/112 111/111/111
f 115/115/115 114/114/114 113/113/113
f 114/114/114 115/115/115 116/116/116
f 116/116/116 115/115/115 117/117/117
f 116/116/116 117/117/117 118/118/118
