g Mesh50
v -887.3959 289.0053 -1023.125
v -952.7355 289.0053 -1022.284
v -948.581 286.8045 -1023.125
v -952.7355 289.0053 -1022.284
v -887.3959 289.0053 -1023.125
v -948.581 286.8045 -1023.125
v -887.3959 289.0053 -1023.125
v -948.581 286.8045 -1023.125
v -887.3959 286.8045 -1023.125
v -948.581 286.8045 -1023.125
v -887.3959 289.0053 -1023.125
v -887.3959 286.8045 -1023.125
v -887.3959 289.0053 -953.1248
v -952.7355 289.0053 -952.2844
v -952.7355 289.0053 -1022.284
v -887.3959 289.0053 -1023.125
v -952.7355 289.0053 -952.2844
v -887.3959 289.0053 -953.1248
v -952.7355 289.0053 -1022.284
v -887.3959 289.0053 -1023.125
v -952.7355 289.0053 -1022.284
v -952.7355 289.0053 -952.2844
v -952.7355 60.3928 -952.2844
v -952.7355 60.3928 -1022.284
v -952.7355 289.0053 -952.2844
v -952.7355 289.0053 -1022.284
v -952.7355 60.3928 -952.2844
v -952.7355 60.3928 -1022.284
v -952.7355 60.3928 -952.2844
v -952.7355 289.0053 -952.2844
v -887.3959 289.0053 -953.1248
v -887.3959 60.3928 -953.1248
v -887.3959 60.3928 -953.1248
v -887.3959 289.0053 -953.1248
v -952.7355 60.3928 -952.2844
v -952.7355 289.0053 -952.2844
v -948.581 60.3928 -1023.125
v -952.7355 60.3928 -1022.284
v -952.7355 60.3928 -952.2844
v -948.581 60.3928 -963.0095
v -887.3959 60.3928 -953.1248
v -887.3959 60.3928 -963.0095
v -952.7355 60.3928 -1022.284
v -948.581 60.3928 -1023.125
v -952.7355 60.3928 -952.2844
v -948.581 60.3928 -963.0095
v -887.3959 60.3928 -953.1248
v -887.3959 60.3928 -963.0095
v -952.7355 289.0053 -1022.284
v -952.7355 60.3928 -1022.284
v -948.581 60.3928 -1023.125
v -948.581 286.8045 -1023.125
v -952.7355 60.3928 -1022.284
v -952.7355 289.0053 -1022.284
v -948.581 60.3928 -1023.125
v -948.581 286.8045 -1023.125
v -887.3959 289.0053 -1023.125
v -887.3959 286.8045 -1023.125
v -887.3959 286.8045 -963.0095
v -887.3959 289.0053 -953.1248
v -887.3959 60.3928 -963.0095
v -887.3959 60.3928 -953.1248
v -887.3959 60.3928 -953.1248
v -887.3959 60.3928 -963.0095
v -887.3959 289.0053 -953.1248
v -887.3959 286.8045 -963.0095
v -887.3959 289.0053 -1023.125
v -887.3959 286.8045 -1023.125
v -887.3959 60.3928 -963.0095
v -887.3959 286.8045 -963.0095
v -878.581 286.8045 -963.0095
v -878.581 2.2008 -963.0095
v -948.581 2.2008 -963.0095
v -948.581 60.3928 -963.0095
v -948.581 60.3928 -1023.125
v -948.581 60.3928 -963.0095
v -948.581 2.2008 -963.0095
v -948.581 2.2008 -1033.01
v -948.581 286.8045 -1033.01
v -948.581 286.8045 -1023.125
v -948.581 60.3928 -963.0095
v -948.581 60.3928 -1023.125
v -948.581 2.2008 -963.0095
v -948.581 2.2008 -1033.01
v -948.581 286.8045 -1033.01
v -948.581 286.8045 -1023.125
v -887.3959 60.3928 -963.0095
v -948.581 60.3928 -963.0095
v -948.581 2.2008 -963.0095
v -878.581 2.2008 -963.0095
v -878.581 286.8045 -963.0095
v -887.3959 286.8045 -963.0095
v -887.3959 286.8045 -1023.125
v -948.581 286.8045 -1023.125
v -948.581 286.8045 -1033.01
v -878.581 286.8045 -1033.01
v -878.581 286.8045 -963.0095
v -887.3959 286.8045 -963.0095
v -948.581 286.8045 -1023.125
v -887.3959 286.8045 -1023.125
v -948.581 286.8045 -1033.01
v -878.581 286.8045 -1033.01
v -878.581 286.8045 -963.0095
v -887.3959 286.8045 -963.0095
v -878.581 2.2008 -1033.01
v -878.581 2.2008 -963.0095
v -878.581 286.8045 -963.0095
v -878.581 286.8045 -1033.01
v -878.581 2.2008 -963.0095
v -878.581 2.2008 -1033.01
v -878.581 286.8045 -963.0095
v -878.581 286.8045 -1033.01
v -878.581 2.2008 -1033.01
v -878.581 286.8045 -1033.01
v -948.581 286.8045 -1033.01
v -948.581 2.2008 -1033.01
v -948.581 2.2008 -1033.01
v -948.581 286.8045 -1033.01
v -878.581 2.2008 -1033.01
v -878.581 286.8045 -1033.01
v -878.581 2.2008 -1033.01
v -948.581 2.2008 -1033.01
v -948.581 2.2008 -963.0095
v -878.581 2.2008 -963.0095
v -948.581 2.2008 -1033.01
v -878.581 2.2008 -1033.01
v -948.581 2.2008 -963.0095
v -878.581 2.2008 -963.0095
vt -260.8082 970.4494
vt -3.544446 970.4494
vt -19.94206 961.2476
vt -3.544446 970.4494
vt -260.8082 970.4494
vt -19.94206 961.2476
vt -257.2425 1129.152
vt -16.35642 1120.487
vt -257.2425 1120.487
vt -16.35642 1120.487
vt -257.2425 1129.152
vt -257.2425 1120.487
vt 257.2425 3.308701
vt 0 0
vt 0 275.5905
vt 257.2425 278.8993
vt 0 0
vt 257.2425 3.308701
vt 0 275.5905
vt 257.2425 278.8993
vt -275.5905 1129.152
vt 0 1129.152
vt 0 229.1024
vt -275.5905 229.1024
vt 0 1129.152
vt -275.5905 1129.152
vt 0 229.1024
vt -275.5905 229.1024
vt 0 229.1024
vt 0 1129.152
vt 257.2638 1129.152
vt 257.2638 229.1024
vt 257.2638 229.1024
vt 257.2638 1129.152
vt 0 229.1024
vt 0 1129.152
vt -16.35642 278.8993
vt 0 275.5905
vt 0 0
vt -16.35642 42.22484
vt -257.2425 3.308701
vt -257.2425 42.22484
vt 0 275.5905
vt -16.35642 278.8993
vt 0 0
vt -16.35642 42.22484
vt -257.2425 3.308701
vt -257.2425 42.22484
vt -54.64241 1129.152
vt -54.64241 229.1024
vt -71.33013 229.1024
vt -71.33013 1120.487
vt -54.64241 229.1024
vt -54.64241 1129.152
vt -71.33013 229.1024
vt -71.33013 1120.487
vt 278.8993 1129.152
vt 278.8993 1120.487
vt 42.22484 1120.487
vt 3.308701 1129.152
vt 42.22484 229.1024
vt 3.308701 229.1024
vt 3.308701 229.1024
vt 42.22484 229.1024
vt 3.308701 1129.152
vt 42.22484 1120.487
vt 278.8993 1129.152
vt 278.8993 1120.487
vt 257.2425 229.1024
vt 257.2425 1120.487
vt 291.947 1120.487
vt 291.947 0
vt 16.35642 0
vt 16.35642 229.1024
vt -278.8993 229.1024
vt -42.22484 229.1024
vt -42.22484 0
vt -317.8154 0
vt -317.8154 1120.487
vt -278.8993 1120.487
vt -42.22484 229.1024
vt -278.8993 229.1024
vt -42.22484 0
vt -317.8154 0
vt -317.8154 1120.487
vt -278.8993 1120.487
vt 257.2425 229.1024
vt 16.35642 229.1024
vt 16.35642 0
vt 291.947 0
vt 291.947 1120.487
vt 257.2425 1120.487
vt 257.2425 278.8993
vt 16.35642 278.8993
vt 16.35642 317.8154
vt 291.947 317.8154
vt 291.947 42.22484
vt 257.2425 42.22484
vt 16.35642 278.8993
vt 257.2425 278.8993
vt 16.35642 317.8154
vt 291.947 317.8154
vt 291.947 42.22484
vt 257.2425 42.22484
vt 317.8154 0
vt 42.22484 0
vt 42.22484 1120.487
vt 317.8154 1120.487
vt 42.22484 0
vt 317.8154 0
vt 42.22484 1120.487
vt 317.8154 1120.487
vt -291.947 0
vt -291.947 1120.487
vt -16.35642 1120.487
vt -16.35642 0
vt -16.35642 0
vt -16.35642 1120.487
vt -291.947 0
vt -291.947 1120.487
vt -291.947 317.8154
vt -16.35642 317.8154
vt -16.35642 42.22484
vt -291.947 42.22484
vt -16.35642 317.8154
vt -291.947 317.8154
vt -16.35642 42.22484
vt -291.947 42.22484
vn -0.0121104 0.3366847 -0.9415395
vn -0.0121104 0.3366847 -0.9415395
vn -0.0121104 0.3366847 -0.9415395
vn 0.0121104 -0.3366847 0.9415395
vn 0.0121104 -0.3366847 0.9415395
vn 0.0121104 -0.3366847 0.9415395
vn 0 0 -1
vn 0 0 -1
vn 0 0 -1
vn 0 0 1
vn 0 0 1
vn 0 0 1
vn 0 1 0
vn 0 1 0
vn 0 1 0
vn 0 1 0
vn 0 -1 0
vn 0 -1 0
vn 0 -1 0
vn 0 -1 0
vn -1 0 0
vn -1 0 0
vn -1 0 0
vn -1 0 0
vn 1 0 0
vn 1 0 0
vn 1 0 0
vn 1 0 0
vn 0.01286112 0 0.9999173
vn 0.01286112 0 0.9999173
vn 0.01286112 0 0.9999173
vn 0.01286112 0 0.9999173
vn -0.01286112 0 -0.9999173
vn -0.01286112 0 -0.9999173
vn -0.01286112 0 -0.9999173
vn -0.01286112 0 -0.9999173
vn 0 -1 0
vn 0 -1 0
vn 0 -1 0
vn 0 -1 0
vn 0 -1 0
vn 0 -1 0
vn 0 1 0
vn 0 1 0
vn 0 1 0
vn 0 1 0
vn 0 1 0
vn 0 1 0
vn -0.1982739 0 -0.9801467
vn -0.1982739 0 -0.9801467
vn -0.1982739 0 -0.9801467
vn -0.1982739 0 -0.9801467
vn 0.1982739 0 0.9801467
vn 0.1982739 0 0.9801467
vn 0.1982739 0 0.9801467
vn 0.1982739 0 0.9801467
vn 1 0 0
vn 1 0 0
vn 1 0 0
vn 1 0 0
vn 1 0 0
vn 1 0 0
vn -1 0 0
vn -1 0 0
vn -1 0 0
vn -1 0 0
vn -1 0 0
vn -1 0 0
vn 0 0 1
vn 0 0 1
vn 0 0 1
vn 0 0 1
vn 0 0 1
vn 0 0 1
vn -1 0 0
vn -1 0 0
vn -1 0 0
vn -1 0 0
vn -1 0 0
vn -1 0 0
vn 1 0 0
vn 1 0 0
vn 1 0 0
vn 1 0 0
vn 1 0 0
vn 1 0 0
vn 0 0 -1
vn 0 0 -1
vn 0 0 -1
vn 0 0 -1
vn 0 0 -1
vn 0 0 -1
vn 0 1 0
vn 0 1 0
vn 0 1 0
vn 0 1 0
vn 0 1 0
vn 0 1 0
vn 0 -1 0
vn 0 -1 0
vn 0 -1 0
vn 0 -1 0
vn 0 -1 0
vn 0 -1 0
vn 1 0 0
vn 1 0 0
vn 1 0 0
vn 1 0 0
vn -1 0 0
vn -1 0 0
vn -1 0 0
vn -1 0 0
vn 0 0 -1
vn 0 0 -1
vn 0 0 -1
vn 0 0 -1
vn 0 0 1
vn 0 0 1
vn 0 0 1
vn 0 0 1
vn 0 -1 0
vn 0 -1 0
vn 0 -1 0
vn 0 -1 0
vn 0 1 0
vn 0 1 0
vn 0 1 0
vn 0 1 0
g Mesh50_0
f 3/3/3 2/2/2 1/1/1
f 6/6/6 5/5/5 4/4/4
f 9/9/9 8/8/8 7/7/7
f 12/12/12 11/11/11 10/10/10
f 15/15/15 14/14/14 13/13/13
f 13/13/13 16/16/16 15/15/15
f 19/19/19 18/18/18 17/17/17
f 18/18/18 19/19/19 20/20/20
f 23/23/23 22/22/22 21/21/21
f 21/21/21 24/24/24 23/23/23
f 27/27/27 26/26/26 25/25/25
f 26/26/26 27/27/27 28/28/28
f 31/31/31 30/30/30 29/29/29
f 29/29/29 32/32/32 31/31/31
f 35/35/35 34/34/34 33/33/33
f 34/34/34 35/35/35 36/36/36
f 39/39/39 38/38/38 37/37/37
f 37/37/37 40/40/40 39/39/39
f 40/40/40 41/41/41 39/39/39
f 40/40/40 42/42/42 41/41/41
f 45/45/45 44/44/44 43/43/43
f 44/44/44 45/45/45 46/46/46
f 46/46/46 45/45/45 47/47/47
f 46/46/46 47/47/47 48/48/48
f 51/51/51 50/50/50 49/49/49
f 49/49/49 52/52/52 51/51/51
f 55/55/55 54/54/54 53/53/53
f 54/54/54 55/55/55 56/56/56
f 59/59/59 58/58/58 57/57/57
f 59/59/59 57/57/57 60/60/60
f 61/61/61 59/59/59 60/60/60
f 60/60/60 62/62/62 61/61/61
f 65/65/65 64/64/64 63/63/63
f 64/64/64 65/65/65 66/66/66
f 66/66/66 65/65/65 67/67/67
f 66/66/66 67/67/67 68/68/68
f 71/71/71 70/70/70 69/69/69
f 72/72/72 71/71/71 69/69/69
f 69/69/69 73/73/73 72/72/72
f 73/73/73 69/69/69 74/74/74
f 77/77/77 76/76/76 75/75/75
f 75/75/75 78/78/78 77/77/77
f 75/75/75 79/79/79 78/78/78
f 75/75/75 80/80/80 79/79/79
f 83/83/83 82/82/82 81/81/81
f 82/82/82 83/83/83 84/84/84
f 82/82/82 84/84/84 85/85/85
f 82/82/82 85/85/85 86/86/86
f 89/89/89 88/88/88 87/87/87
f 87/87/87 90/90/90 89/89/89
f 90/90/90 87/87/87 91/91/91
f 91/91/91 87/87/87 92/92/92
f 95/95/95 94/94/94 93/93/93
f 93/93/93 96/96/96 95/95/95
f 93/93/93 97/97/97 96/96/96
f 93/93/93 98/98/98 97/97/97
f 101/101/101 100/100/100 99/99/99
f 100/100/100 101/101/101 102/102/102
f 100/100/100 102/102/102 103/103/103
f 100/100/100 103/103/103 104/104/104
f 107/107/107 106/106/106 105/105/105
f 105/105/105 108/108/108 107/107/107
f 111/111/111 110/110/110 109/109/109
f 110/110/110 111/111/111 112/112/112
f 115/115/115 114/114/114 113/113/113
f 113/113/113 116/116/116 115/115/115
f 119/119/119 118/118/118 117/117/117
f 118/118/118 119/119/119 120/120/120
f 123/123/123 122/122/122 121/121/121
f 121/121/121 124/124/124 123/123/123
f 127/127/127 126/126/126 125/125/125
f 126/126/126 127/127/127 128/128/128
