g Mesh2
v 56.36273 23.86 -5.656854
v 42.2206 23.86 -19.79899
v 36.56374 23.86 -14.14214
v 50.70588 23.86 0
v 42.2206 23.86 -19.79899
v 56.36273 23.86 -5.656854
v 36.56374 23.86 -14.14214
v 50.70588 23.86 0
v 36.56374 23.86 -14.14214
v 42.2206 23.86 -19.79899
v 42.2206 26.82 -19.79899
v 36.56374 26.82 -14.14214
v 36.56374 26.82 -14.14214
v 42.2206 26.82 -19.79899
v 36.56374 23.86 -14.14214
v 42.2206 23.86 -19.79899
v 36.56374 23.86 -14.14214
v 36.56374 26.82 -14.14214
v 50.70588 26.82 0
v 50.70588 23.86 0
v 50.70588 23.86 0
v 50.70588 26.82 0
v 36.56374 23.86 -14.14214
v 36.56374 26.82 -14.14214
v 56.36273 23.86 -5.656854
v 50.70588 23.86 0
v 50.70588 26.82 0
v 56.36273 26.82 -5.656854
v 50.70588 23.86 0
v 56.36273 23.86 -5.656854
v 50.70588 26.82 0
v 56.36273 26.82 -5.656854
v 56.36273 23.86 -5.656854
v 56.36273 26.82 -5.656854
v 42.2206 26.82 -19.79899
v 42.2206 23.86 -19.79899
v 42.2206 23.86 -19.79899
v 42.2206 26.82 -19.79899
v 56.36273 23.86 -5.656854
v 56.36273 26.82 -5.656854
v 42.2206 26.82 -19.79899
v 56.36273 26.82 -5.656854
v 50.70588 26.82 0
v 36.56374 26.82 -14.14214
v 36.56374 26.82 -14.14214
v 50.70588 26.82 0
v 42.2206 26.82 -19.79899
v 56.36273 26.82 -5.656854
vt -78.74016 31.49606
vt 0 31.49606
vt 0 0
vt -78.74016 -1.136868E-13
vt 0 31.49606
vt -78.74016 31.49606
vt 0 0
vt -78.74016 -1.136868E-13
vt 0 0
vt -31.49606 0
vt -31.49606 11.65354
vt 0 11.65354
vt 0 11.65354
vt -31.49606 11.65354
vt 0 0
vt -31.49606 0
vt 0 0
vt 0 11.65354
vt 78.74016 11.65354
vt 78.74016 0
vt 78.74016 0
vt 78.74016 11.65354
vt 0 0
vt 0 11.65354
vt 31.49606 0
vt -1.136868E-13 0
vt -1.136868E-13 11.65354
vt 31.49606 11.65354
vt -1.136868E-13 0
vt 31.49606 0
vt -1.136868E-13 11.65354
vt 31.49606 11.65354
vt -78.74016 0
vt -78.74016 11.65354
vt 0 11.65354
vt 0 0
vt 0 0
vt 0 11.65354
vt -78.74016 0
vt -78.74016 11.65354
vt 0 31.49606
vt 78.74016 31.49606
vt 78.74016 -1.136868E-13
vt 0 0
vt 0 0
vt 78.74016 -1.136868E-13
vt 0 31.49606
vt 78.74016 31.49606
vn 0 -1 0
vn 0 -1 0
vn 0 -1 0
vn 0 -1 0
vn 0 1 0
vn 0 1 0
vn 0 1 0
vn 0 1 0
vn -0.7071068 0 -0.7071068
vn -0.7071068 0 -0.7071068
vn -0.7071068 0 -0.7071068
vn -0.7071068 0 -0.7071068
vn 0.7071068 0 0.7071068
vn 0.7071068 0 0.7071068
vn 0.7071068 0 0.7071068
vn 0.7071068 0 0.7071068
vn -0.7071068 0 0.7071068
vn -0.7071068 0 0.7071068
vn -0.7071068 0 0.7071068
vn -0.7071068 0 0.7071068
vn 0.7071068 0 -0.7071068
vn 0.7071068 0 -0.7071068
vn 0.7071068 0 -0.7071068
vn 0.7071068 0 -0.7071068
vn 0.7071068 0 0.7071068
vn 0.7071068 0 0.7071068
vn 0.7071068 0 0.7071068
vn 0.7071068 0 0.7071068
vn -0.7071068 0 -0.7071068
vn -0.7071068 0 -0.7071068
vn -0.7071068 0 -0.7071068
vn -0.7071068 0 -0.7071068
vn 0.7071068 0 -0.7071068
vn 0.7071068 0 -0.7071068
vn 0.7071068 0 -0.7071068
vn 0.7071068 0 -0.7071068
vn -0.7071068 0 0.7071068
vn -0.7071068 0 0.7071068
vn -0.7071068 0 0.7071068
vn -0.7071068 0 0.7071068
vn 0 1 0
vn 0 1 0
vn 0 1 0
vn 0 1 0
vn 0 -1 0
vn 0 -1 0
vn 0 -1 0
vn 0 -1 0
g Mesh2_0
f 3/3/3 2/2/2 1/1/1
f 1/1/1 4/4/4 3/3/3
f 7/7/7 6/6/6 5/5/5
f 6/6/6 7/7/7 8/8/8
f 11/11/11 10/10/10 9/9/9
f 9/9/9 12/12/12 11/11/11
f 15/15/15 14/14/14 13/13/13
f 14/14/14 15/15/15 16/16/16
f 19/19/19 18/18/18 17/17/17
f 17/17/17 20/20/20 19/19/19
f 23/23/23 22/22/22 21/21/21
f 22/22/22 23/23/23 24/24/24
f 27/27/27 26/26/26 25/25/25
f 25/25/25 28/28/28 27/27/27
f 31/31/31 30/30/30 29/29/29
f 30/30/30 31/31/31 32/32/32
f 35/35/35 34/34/34 33/33/33
f 33/33/33 36/36/36 35/35/35
f 39/39/39 38/38/38 37/37/37
f 38/38/38 39/39/39 40/40/40
f 43/43/43 42/42/42 41/41/41
f 41/41/41 44/44/44 43/43/43
f 47/47/47 46/46/46 45/45/45
f 46/46/46 47/47/47 48/48/48
