g Mesh1
v 56.52534 30 -50
v 56.52534 60 -50
v 115.1577 30 -50
v 23.79 60 -50
v 56.52534 70.61 -50
v 23.79 70.61 -50
v 23.79 0 0
v 173.79 0 0
v 173.79 0 -10
v 23.79 0 -10
v 23.79 0 -50
v 0 0 -10
v 0 0 -50
v 173.79 0 -10
v 173.79 30 -50
v 173.79 0 -50
v 173.79 30 -10
v 173.79 0 0
v 173.79 60 0
v 173.79 60 -10
v 56.52534 30 -10
v 115.1577 30 -10
v 56.52534 60 -10
v 173.79 30 -10
v 173.79 60 -10
v 56.52534 70.61 -10
v 23.79 70.61 -10
v 23.79 60 -10
v 56.52534 30 -10
v 56.52534 30 -50
v 115.1577 30 -50
v 115.1577 30 -10
v 173.79 30 -50
v 173.79 30 -10
v 0 60 -10
v 0 60 -50
v 23.79 60 -50
v 56.52534 60 -50
v 56.52534 60 -10
v 23.79 60 -10
v 56.52534 30 -10
v 56.52534 60 -50
v 56.52534 30 -50
v 56.52534 60 -10
v 56.52534 60 0
v 56.52534 70.61 -10
v 56.52534 70.61 0
v 0 0 -50
v 0 60 -50
v 0 60 -10
v 0 0 -10
v 23.79 0 -10
v 0 0 -10
v 0 60 -10
v 23.79 60 -10
v 23.79 60 -50
v 0 60 -50
v 0 0 -50
v 23.79 0 -50
v 23.79 60 -50
v 23.79 0 -50
v 23.79 0 -60
v 23.79 70.61 -60
v 23.79 70.61 -50
v 23.79 70.61 0
v 23.79 0 0
v 23.79 0 -10
v 23.79 60 -10
v 23.79 70.61 -10
v 23.79 70.61 0
v 56.52534 70.61 0
v 56.52534 60 0
v 23.79 0 0
v 173.79 0 0
v 173.79 60 0
v 173.79 60 -60
v 173.79 0 -60
v 173.79 60 -50
v 23.79 0 -60
v 173.79 0 -60
v 173.79 60 -60
v 56.52534 60 -60
v 56.52534 70.61 -60
v 23.79 70.61 -60
v 173.79 60 -60
v 173.79 60 -50
v 56.52534 60 -60
v 23.79 70.61 0
v 23.79 70.61 -10
v 56.52534 70.61 -10
v 56.52534 70.61 0
v 23.79 70.61 -50
v 23.79 70.61 -60
v 56.52534 70.61 -60
v 56.52534 70.61 -50
v 56.52534 70.61 -50
v 56.52534 70.61 -60
v 56.52534 60 -60
v 173.79 60 -10
v 173.79 60 0
v 56.52534 60 0
v 173.79 60 -50
v 173.79 30 -50
v 115.1577 30 -10
v 56.52534 60 -10
v 56.52534 60 -50
v 115.1577 30 -50
vt 128.8793 118.1102
vt 128.8793 236.2205
vt 359.7152 118.1102
vt 0 236.2205
vt 128.8793 277.9921
vt 0 277.9921
vt 0 0
vt -590.5512 0
vt -590.5512 39.37008
vt 0 39.37008
vt 0 196.8504
vt 93.66142 39.37008
vt 93.66142 196.8504
vt 39.37008 0
vt 196.8504 118.1102
vt 196.8504 0
vt 39.37008 118.1102
vt 0 0
vt 0 236.2205
vt 39.37008 236.2205
vt -128.8793 118.1102
vt -359.7152 118.1102
vt -128.8793 236.2205
vt -590.5512 118.1102
vt -590.5512 236.2205
vt -128.8793 277.9921
vt 0 277.9921
vt 0 236.2205
vt 128.8793 39.37008
vt 128.8793 196.8504
vt 359.7152 196.8504
vt 359.7152 39.37008
vt 590.5512 196.8504
vt 590.5512 39.37008
vt -93.66142 39.37008
vt -93.66142 196.8504
vt 0 196.8504
vt 128.8793 196.8504
vt 128.8793 39.37008
vt 0 39.37008
vt 39.37008 118.1102
vt 196.8504 236.2205
vt 196.8504 118.1102
vt 39.37008 236.2205
vt 0 236.2205
vt 39.37008 277.9921
vt 0 277.9921
vt -196.8504 0
vt -196.8504 236.2205
vt -39.37008 236.2205
vt -39.37008 0
vt 0 0
vt -93.66142 0
vt -93.66142 236.2205
vt 0 236.2205
vt 0 236.2205
vt 93.66142 236.2205
vt 93.66142 0
vt 0 0
vt -196.8504 236.2205
vt -196.8504 0
vt -236.2205 0
vt -236.2205 277.9921
vt -196.8504 277.9921
vt 0 277.9921
vt 0 0
vt -39.37008 0
vt -39.37008 236.2205
vt -39.37008 277.9921
vt 0 277.9921
vt 128.8793 277.9921
vt 128.8793 236.2205
vt 0 0
vt 590.5512 0
vt 590.5512 236.2205
vt 236.2205 236.2205
vt 236.2205 0
vt 196.8504 236.2205
vt 0 0
vt -590.5512 0
vt -590.5512 236.2205
vt -128.8793 236.2205
vt -128.8793 277.9921
vt 0 277.9921
vt 590.5512 236.2205
vt 590.5512 196.8504
vt 128.8793 236.2205
vt 0 -4.013714E-13
vt 0 39.37008
vt 128.8793 39.37008
vt 128.8793 -4.013714E-13
vt 0 196.8504
vt 0 236.2205
vt 128.8793 236.2205
vt 128.8793 196.8504
vt 196.8504 277.9921
vt 236.2205 277.9921
vt 236.2205 236.2205
vt 590.5512 39.37008
vt 590.5512 -1.705303E-13
vt 128.8793 -1.705303E-13
vt 590.5512 236.2205
vt 590.5512 118.1102
vt 39.37008 -266.432
vt 39.37008 -7.134343
vt 196.8504 -7.134343
vt 196.8504 -266.432
vn 0 0 1
vn 0 0 1
vn 0 0 1
vn 0 0 1
vn 0 0 1
vn 0 0 1
vn 0 -1 0
vn 0 -1 0
vn 0 -1 0
vn 0 -1 0
vn 0 -1 0
vn 0 -1 0
vn 0 -1 0
vn 1 0 0
vn 1 0 0
vn 1 0 0
vn 1 0 0
vn 1 0 0
vn 1 0 0
vn 1 0 0
vn 0 0 -1
vn 0 0 -1
vn 0 0 -1
vn 0 0 -1
vn 0 0 -1
vn 0 0 -1
vn 0 0 -1
vn 0 0 -1
vn 0 1 0
vn 0 1 0
vn 0 1 0
vn 0 1 0
vn 0 1 0
vn 0 1 0
vn 0 1 0
vn 0 1 0
vn 0 1 0
vn 0 1 0
vn 0 1 0
vn 0 1 0
vn 1 0 0
vn 1 0 0
vn 1 0 0
vn 1 0 0
vn 1 0 0
vn 1 0 0
vn 1 0 0
vn -1 0 0
vn -1 0 0
vn -1 0 0
vn -1 0 0
vn 0 0 1
vn 0 0 1
vn 0 0 1
vn 0 0 1
vn 0 0 -1
vn 0 0 -1
vn 0 0 -1
vn 0 0 -1
vn -1 0 0
vn -1 0 0
vn -1 0 0
vn -1 0 0
vn -1 0 0
vn -1 0 0
vn -1 0 0
vn -1 0 0
vn -1 0 0
vn -1 0 0
vn 0 0 1
vn 0 0 1
vn 0 0 1
vn 0 0 1
vn 0 0 1
vn 0 0 1
vn 1 0 0
vn 1 0 0
vn 1 0 0
vn 0 0 -1
vn 0 0 -1
vn 0 0 -1
vn 0 0 -1
vn 0 0 -1
vn 0 0 -1
vn 0 1 0
vn 0 1 0
vn 0 1 0
vn 0 1 0
vn 0 1 0
vn 0 1 0
vn 0 1 0
vn 0 1 0
vn 0 1 0
vn 0 1 0
vn 0 1 0
vn 1 0 0
vn 1 0 0
vn 1 0 0
vn 0 1 0
vn 0 1 0
vn 0 1 0
vn 0 0 1
vn 0 0 1
vn 0.4555006 0.8902355 0
vn 0.4555006 0.8902355 0
vn 0.4555006 0.8902355 0
vn 0.4555006 0.8902355 0
g Mesh1_0
f 3/3/3 2/2/2 1/1/1
f 2/2/2 5/5/5 4/4/4
f 5/5/5 6/6/6 4/4/4
f 9/9/9 8/8/8 7/7/7
f 10/10/10 9/9/9 7/7/7
f 10/10/10 12/12/12 11/11/11
f 12/12/12 13/13/13 11/11/11
f 16/16/16 15/15/15 14/14/14
f 15/15/15 17/17/17 14/14/14
f 18/18/18 14/14/14 17/17/17
f 17/17/17 19/19/19 18/18/18
f 17/17/17 20/20/20 19/19/19
f 23/23/23 22/22/22 21/21/21
f 22/22/22 23/23/23 24/24/24
f 23/23/23 25/25/25 24/24/24
f 27/27/27 26/26/26 23/23/23
f 28/28/28 27/27/27 23/23/23
f 31/31/31 30/30/30 29/29/29
f 32/32/32 31/31/31 29/29/29
f 31/31/31 32/32/32 33/33/33
f 32/32/32 34/34/34 33/33/33
f 37/37/37 36/36/36 35/35/35
f 35/35/35 38/38/38 37/37/37
f 35/35/35 39/39/39 38/38/38
f 35/35/35 40/40/40 39/39/39
f 43/43/43 42/42/42 41/41/41
f 42/42/42 44/44/44 41/41/41
f 44/44/44 46/46/46 45/45/45
f 46/46/46 47/47/47 45/45/45
f 50/50/50 49/49/49 48/48/48
f 51/51/51 50/50/50 48/48/48
f 54/54/54 53/53/53 52/52/52
f 55/55/55 54/54/54 52/52/52
f 58/58/58 57/57/57 56/56/56
f 59/59/59 58/58/58 56/56/56
g Mesh1_1
f 62/62/62 61/61/61 60/60/60
f 60/60/60 63/63/63 62/62/62
f 60/60/60 64/64/64 63/63/63
f 67/67/67 66/66/66 65/65/65
f 65/65/65 68/68/68 67/67/67
f 65/65/65 69/69/69 68/68/68
f 72/72/72 71/71/71 70/70/70
f 72/72/72 70/70/70 73/73/73
f 72/72/72 73/73/73 74/74/74
f 74/74/74 75/75/75 72/72/72
f 16/16/16 77/77/77 76/76/76
f 76/76/76 15/15/15 16/16/16
f 76/76/76 78/78/78 15/15/15
f 81/81/81 80/80/80 79/79/79
f 79/79/79 82/82/82 81/81/81
f 79/79/79 83/83/83 82/82/82
f 79/79/79 84/84/84 83/83/83
f 38/38/38 86/86/86 85/85/85
f 87/87/87 38/38/38 85/85/85
f 90/90/90 89/89/89 88/88/88
f 91/91/91 90/90/90 88/88/88
f 94/94/94 93/93/93 92/92/92
f 95/95/95 94/94/94 92/92/92
f 97/97/97 96/96/96 42/42/42
f 98/98/98 97/97/97 42/42/42
f 101/101/101 100/100/100 99/99/99
f 39/39/39 101/101/101 99/99/99
f 3/3/3 103/103/103 102/102/102
f 2/2/2 3/3/3 102/102/102
g Mesh1_2
f 106/106/106 105/105/105 104/104/104
f 107/107/107 106/106/106 104/104/104
