g Mesh39
v 374.3486 14.03317 27.3981
v 374.3163 14.04651 27.47092
v 374.3683 13.95371 27.44022
v 374.3163 14.04651 27.47092
v 374.3486 14.03317 27.3981
v 374.3683 13.95371 27.44022
v 374.3683 13.95371 27.44022
v 374.3163 14.04651 27.47092
v 374.3128 13.97378 27.5173
v 374.3163 14.04651 27.47092
v 374.3683 13.95371 27.44022
v 374.3128 13.97378 27.5173
v 374.3163 14.04651 27.47092
v 374.3873 13.99693 27.50984
v 374.3128 13.97378 27.5173
v 374.3873 13.99693 27.50984
v 374.3163 14.04651 27.47092
v 374.3128 13.97378 27.5173
v 374.4114 13.9693 27.45989
v 374.3128 13.97378 27.5173
v 374.3873 13.99693 27.50984
v 374.4114 13.9693 27.45989
v 374.3873 13.99693 27.50984
v 374.3715 14.08719 27.50083
v 374.3873 13.99693 27.50984
v 374.4114 13.9693 27.45989
v 374.3715 14.08719 27.50083
v 374.3715 14.08719 27.50083
v 374.3873 13.99693 27.50984
v 374.3163 14.04651 27.47092
v 374.3715 14.08719 27.50083
v 374.3163 14.04651 27.47092
v 374.3486 14.03317 27.3981
v 374.3486 14.03317 27.3981
v 374.4114 13.9693 27.45989
v 374.3715 14.08719 27.50083
v 374.4114 13.9693 27.45989
v 374.3486 14.03317 27.3981
v 374.3715 14.08719 27.50083
v 374.3163 14.04651 27.47092
v 374.3715 14.08719 27.50083
v 374.3486 14.03317 27.3981
v 374.3873 13.99693 27.50984
v 374.3715 14.08719 27.50083
v 374.3163 14.04651 27.47092
v 374.3486 14.03317 27.3981
v 374.3683 13.95371 27.44022
v 374.4114 13.9693 27.45989
v 374.3683 13.95371 27.44022
v 374.3486 14.03317 27.3981
v 374.4114 13.9693 27.45989
v 374.4114 13.9693 27.45989
v 374.3683 13.95371 27.44022
v 374.3128 13.97378 27.5173
v 374.3683 13.95371 27.44022
v 374.4114 13.9693 27.45989
v 374.3128 13.97378 27.5173
v 374.3128 13.97378 27.5173
v 374.4114 13.9693 27.45989
v 374.3873 13.99693 27.50984
vt -146.636 -42.09243
vt -143.5088 -41.524
vt -145.3406 -45.47774
vt -143.5088 -41.524
vt -146.636 -42.09243
vt -145.3406 -45.47774
vt -169.754 -23.0022
vt -167.6429 -19.19024
vt -166.0214 -22.17774
vt -167.6429 -19.19024
vt -169.754 -23.0022
vt -166.0214 -22.17774
vt 160.2392 64.9796
vt 163.1687 62.66259
vt 160.2789 61.58067
vt 163.1687 62.66259
vt 160.2392 64.9796
vt 160.2789 61.58067
vt 196.4563 2.727039
vt 191.9675 3.002512
vt 194.705 4.426281
vt 145.7626 -20.3712
vt 143.589 -19.26218
vt 143.7083 -15.63945
vt 143.589 -19.26218
vt 145.7626 -20.3712
vt 143.7083 -15.63945
vt 108.1361 10.62793
vt 108.8508 7.074384
vt 105.6664 9.02641
vt -177.7323 71.10069
vt -177.2986 68.18934
vt -180.3302 67.23442
vt 8.821336 -73.98471
vt 5.547294 -76.74936
vt 4.792755 -71.64638
vt 5.547294 -76.74936
vt 8.821336 -73.98471
vt 4.792755 -71.64638
vt -177.2986 68.18934
vt -177.7323 71.10069
vt -180.3302 67.23442
vt 108.8508 7.074384
vt 108.1361 10.62793
vt 105.6664 9.02641
vt -99.31214 60.06692
vt -100.8262 56.7736
vt -102.6819 57.41984
vt -100.8262 56.7736
vt -99.31214 60.06692
vt -102.6819 57.41984
vt 196.2283 -6.600201
vt 195.0161 -8.146805
vt 191.753 -6.1559
vt 195.0161 -8.146805
vt 196.2283 -6.600201
vt 191.753 -6.1559
vt 191.9675 3.002512
vt 196.4563 2.727039
vt 194.705 4.426281
vn -0.869008 -0.3821042 -0.3143588
vn -0.869008 -0.3821042 -0.3143588
vn -0.869008 -0.3821042 -0.3143588
vn 0.869008 0.3821042 0.3143588
vn 0.869008 0.3821042 0.3143588
vn 0.869008 0.3821042 0.3143588
vn -0.8114356 -0.2851237 -0.5101734
vn -0.8114356 -0.2851237 -0.5101734
vn -0.8114356 -0.2851237 -0.5101734
vn 0.8114356 0.2851237 0.5101734
vn 0.8114356 0.2851237 0.5101734
vn 0.8114356 0.2851237 0.5101734
vn -0.08348588 0.5387446 0.8383224
vn -0.08348588 0.5387446 0.8383224
vn -0.08348588 0.5387446 0.8383224
vn 0.08348588 -0.5387446 -0.8383224
vn 0.08348588 -0.5387446 -0.8383224
vn 0.08348588 -0.5387446 -0.8383224
vn 0.2955632 -0.7682202 0.5678733
vn 0.2955632 -0.7682202 0.5678733
vn 0.2955632 -0.7682202 0.5678733
vn 0.9209412 0.1945418 0.3376695
vn 0.9209412 0.1945418 0.3376695
vn 0.9209412 0.1945418 0.3376695
vn -0.9209412 -0.1945418 -0.3376695
vn -0.9209412 -0.1945418 -0.3376695
vn -0.9209412 -0.1945418 -0.3376695
vn -0.4791369 0.003909597 0.8777315
vn -0.4791369 0.003909597 0.8777315
vn -0.4791369 0.003909597 0.8777315
vn -0.4299186 0.8351054 -0.3431748
vn -0.4299186 0.8351054 -0.3431748
vn -0.4299186 0.8351054 -0.3431748
vn 0.816481 0.4156242 -0.4007684
vn 0.816481 0.4156242 -0.4007684
vn 0.816481 0.4156242 -0.4007684
vn -0.816481 -0.4156242 0.4007684
vn -0.816481 -0.4156242 0.4007684
vn -0.816481 -0.4156242 0.4007684
vn 0.4299186 -0.8351054 0.3431748
vn 0.4299186 -0.8351054 0.3431748
vn 0.4299186 -0.8351054 0.3431748
vn 0.4791369 -0.003909597 -0.8777315
vn 0.4791369 -0.003909597 -0.8777315
vn 0.4791369 -0.003909597 -0.8777315
vn 0.4853625 -0.3124547 -0.8165754
vn 0.4853625 -0.3124547 -0.8165754
vn 0.4853625 -0.3124547 -0.8165754
vn -0.4853625 0.3124547 0.8165754
vn -0.4853625 0.3124547 0.8165754
vn -0.4853625 0.3124547 0.8165754
vn 0.1676749 -0.917851 0.3597704
vn 0.1676749 -0.917851 0.3597704
vn 0.1676749 -0.917851 0.3597704
vn -0.1676749 0.917851 -0.3597704
vn -0.1676749 0.917851 -0.3597704
vn -0.1676749 0.917851 -0.3597704
vn -0.2955632 0.7682202 -0.5678733
vn -0.2955632 0.7682202 -0.5678733
vn -0.2955632 0.7682202 -0.5678733
g Mesh39_0
f 3/3/3 2/2/2 1/1/1
f 6/6/6 5/5/5 4/4/4
f 9/9/9 8/8/8 7/7/7
f 12/12/12 11/11/11 10/10/10
f 15/15/15 14/14/14 13/13/13
f 18/18/18 17/17/17 16/16/16
f 21/21/21 20/20/20 19/19/19
f 24/24/24 23/23/23 22/22/22
f 27/27/27 26/26/26 25/25/25
f 30/30/30 29/29/29 28/28/28
f 33/33/33 32/32/32 31/31/31
f 36/36/36 35/35/35 34/34/34
f 39/39/39 38/38/38 37/37/37
f 42/42/42 41/41/41 40/40/40
f 45/45/45 44/44/44 43/43/43
f 48/48/48 47/47/47 46/46/46
f 51/51/51 50/50/50 49/49/49
f 54/54/54 53/53/53 52/52/52
f 57/57/57 56/56/56 55/55/55
f 60/60/60 59/59/59 58/58/58
