g Mesh64
v 7.739556 -7.318399 -1492.809
v -44.64399 -7.318399 -1492.809
v -44.64399 215.6816 -1492.809
v 7.739556 215.6816 -1492.809
v -44.64399 -7.318399 -1492.809
v 7.739556 -7.318399 -1492.809
v -44.64399 215.6816 -1492.809
v 7.739556 215.6816 -1492.809
vt 30.47069 -28.8126
vt -175.7638 -28.8126
vt -175.7638 849.1401
vt 30.47069 849.1401
vt -175.7638 -28.8126
vt 30.47069 -28.8126
vt -175.7638 849.1401
vt 30.47069 849.1401
vn 0 0 1
vn 0 0 1
vn 0 0 1
vn 0 0 1
vn 0 0 -1
vn 0 0 -1
vn 0 0 -1
vn 0 0 -1
g Mesh64_0
f 3/3/3 2/2/2 1/1/1
f 1/1/1 4/4/4 3/3/3
g Mesh64_1
f 7/7/7 6/6/6 5/5/5
f 6/6/6 7/7/7 8/8/8
