g Mesh106
v 363.4292 14.01434 27.31437
v 363.245 13.75722 27.57536
v 362.9233 13.72902 27.3586
v 363.245 13.75722 27.57536
v 363.4292 14.01434 27.31437
v 362.9233 13.72902 27.3586
v 363.245 13.75722 27.57536
v 363.1181 13.49926 27.13897
v 362.9233 13.72902 27.3586
v 363.1181 13.49926 27.13897
v 363.245 13.75722 27.57536
v 362.9233 13.72902 27.3586
v 363.2519 13.72503 26.87733
v 362.9233 13.72902 27.3586
v 363.1181 13.49926 27.13897
v 362.9233 13.72902 27.3586
v 363.2519 13.72503 26.87733
v 363.1181 13.49926 27.13897
v 363.5181 13.65997 27.15324
v 363.2519 13.72503 26.87733
v 363.1181 13.49926 27.13897
v 363.5181 13.65997 27.15324
v 363.1181 13.49926 27.13897
v 363.4277 13.54412 27.36992
v 363.1181 13.49926 27.13897
v 363.5181 13.65997 27.15324
v 363.4277 13.54412 27.36992
v 363.4277 13.54412 27.36992
v 363.1181 13.49926 27.13897
v 363.245 13.75722 27.57536
v 363.1181 13.49926 27.13897
v 363.4277 13.54412 27.36992
v 363.245 13.75722 27.57536
v 363.4292 14.01434 27.31437
v 363.4277 13.54412 27.36992
v 363.245 13.75722 27.57536
v 363.4277 13.54412 27.36992
v 363.4292 14.01434 27.31437
v 363.245 13.75722 27.57536
v 363.5181 13.65997 27.15324
v 363.4277 13.54412 27.36992
v 363.4292 14.01434 27.31437
v 363.2519 13.72503 26.87733
v 363.5181 13.65997 27.15324
v 363.4292 14.01434 27.31437
v 363.2519 13.72503 26.87733
v 363.4292 14.01434 27.31437
v 363.1444 14.10253 27.06468
v 363.4292 14.01434 27.31437
v 363.2519 13.72503 26.87733
v 363.1444 14.10253 27.06468
v 363.4292 14.01434 27.31437
v 362.9233 13.72902 27.3586
v 363.1444 14.10253 27.06468
v 362.9233 13.72902 27.3586
v 363.4292 14.01434 27.31437
v 363.1444 14.10253 27.06468
v 363.2519 13.72503 26.87733
v 363.1444 14.10253 27.06468
v 362.9233 13.72902 27.3586
v 363.1444 14.10253 27.06468
v 363.2519 13.72503 26.87733
v 362.9233 13.72902 27.3586
v 363.5181 13.65997 27.15324
v 363.2519 13.72503 26.87733
v 363.4292 14.01434 27.31437
v 363.4277 13.54412 27.36992
v 363.5181 13.65997 27.15324
v 363.4292 14.01434 27.31437
v 363.2519 13.72503 26.87733
v 363.5181 13.65997 27.15324
v 363.1181 13.49926 27.13897
vt 8.721098 147.3214
vt 9.582114 131.1986
vt -5.625809 129.43
vt 9.582114 131.1986
vt 8.721098 147.3214
vt -5.625809 129.43
vt 35.71715 -93.23812
vt 23.06885 -109.464
vt 20.50986 -95.01215
vt 23.06885 -109.464
vt 35.71715 -93.23812
vt 20.50986 -95.01215
vt -167.5757 25.20788
vt -144.6323 25.36704
vt -156.0962 16.20283
vt -144.6323 25.36704
vt -167.5757 25.20788
vt -156.0962 16.20283
vt -24.16221 144.5898
vt -9.436053 148.7785
vt -10.69636 134.243
vt 20.75162 155.8147
vt 31.52783 142.69
vt 16.66229 146.3535
vt 31.52783 142.69
vt 20.75162 155.8147
vt 16.66229 146.3535
vt 39.3147 -106.9002
vt 24.26915 -109.735
vt 36.81876 -93.43269
vt 24.26915 -109.735
vt 39.3147 -106.9002
vt 36.81876 -93.43269
vt 158.4962 37.18476
vt 156.7485 18.62546
vt 145.9384 27.03648
vt 156.7485 18.62546
vt 158.4962 37.18476
vt 145.9384 27.03648
vt 157.9591 21.7683
vt 148.7182 17.20275
vt 150.7411 35.73408
vt 41.00193 -46.62671
vt 25.95799 -49.47025
vt 23.26415 -33.98201
vt 34.66337 -54.78853
vt 17.15192 -41.8322
vt 31.9439 -37.88261
vt 17.15192 -41.8322
vt 34.66337 -54.78853
vt 31.9439 -37.88261
vt 38.83158 134.67
vt 22.09064 118.9961
vt 24.30818 139.5149
vt 22.09064 118.9961
vt 38.83158 134.67
vt 24.30818 139.5149
vt -167.5851 26.90035
vt -159.1075 41.7777
vt -144.6417 27.05761
vt -159.1075 41.7777
vt -167.5851 26.90035
vt -144.6417 27.05761
vt 25.95799 -49.47025
vt 41.00193 -46.62671
vt 23.26415 -33.98201
vt 148.7182 17.20275
vt 157.9591 21.7683
vt 150.7411 35.73408
vt -9.436053 148.7785
vt -24.16221 144.5898
vt -10.69636 134.243
vn -0.3963822 0.778332 0.4869089
vn -0.3963822 0.778332 0.4869089
vn -0.3963822 0.778332 0.4869089
vn 0.3963822 -0.778332 -0.4869089
vn 0.3963822 -0.778332 -0.4869089
vn 0.3963822 -0.778332 -0.4869089
vn -0.3013206 -0.7798993 0.5486008
vn -0.3013206 -0.7798993 0.5486008
vn -0.3013206 -0.7798993 0.5486008
vn 0.3013206 0.7798993 -0.5486008
vn 0.3013206 0.7798993 -0.5486008
vn 0.3013206 0.7798993 -0.5486008
vn -0.8157754 -0.1604427 -0.5556694
vn -0.8157754 -0.1604427 -0.5556694
vn -0.8157754 -0.1604427 -0.5556694
vn 0.8157754 0.1604427 0.5556694
vn 0.8157754 0.1604427 0.5556694
vn 0.8157754 0.1604427 0.5556694
vn 0.3360904 -0.7912481 -0.5108519
vn 0.3360904 -0.7912481 -0.5108519
vn 0.3360904 -0.7912481 -0.5108519
vn 0.363274 -0.8761346 -0.3168912
vn 0.363274 -0.8761346 -0.3168912
vn 0.363274 -0.8761346 -0.3168912
vn -0.363274 0.8761346 0.3168912
vn -0.363274 0.8761346 0.3168912
vn -0.363274 0.8761346 0.3168912
vn -0.2956568 -0.7822458 0.5483415
vn -0.2956568 -0.7822458 0.5483415
vn -0.2956568 -0.7822458 0.5483415
vn 0.2956568 0.7822458 -0.5483415
vn 0.2956568 0.7822458 -0.5483415
vn 0.2956568 0.7822458 -0.5483415
vn 0.7806017 0.07091824 0.6209924
vn 0.7806017 0.07091824 0.6209924
vn 0.7806017 0.07091824 0.6209924
vn -0.7806017 -0.07091824 -0.6209924
vn -0.7806017 -0.07091824 -0.6209924
vn -0.7806017 -0.07091824 -0.6209924
vn 0.9132153 0.04498323 0.4049868
vn 0.9132153 0.04498323 0.4049868
vn 0.9132153 0.04498323 0.4049868
vn 0.6972407 0.4342555 -0.5703312
vn 0.6972407 0.4342555 -0.5703312
vn 0.6972407 0.4342555 -0.5703312
vn 0.6583688 0.4765935 -0.5825883
vn 0.6583688 0.4765935 -0.5825883
vn 0.6583688 0.4765935 -0.5825883
vn -0.6583688 -0.4765935 0.5825883
vn -0.6583688 -0.4765935 0.5825883
vn -0.6583688 -0.4765935 0.5825883
vn -0.3380631 0.6974099 0.6319278
vn -0.3380631 0.6974099 0.6319278
vn -0.3380631 0.6974099 0.6319278
vn 0.3380631 -0.6974099 -0.6319278
vn 0.3380631 -0.6974099 -0.6319278
vn 0.3380631 -0.6974099 -0.6319278
vn -0.8248519 0.04482976 -0.5635686
vn -0.8248519 0.04482976 -0.5635686
vn -0.8248519 0.04482976 -0.5635686
vn 0.8248519 -0.04482976 0.5635686
vn 0.8248519 -0.04482976 0.5635686
vn 0.8248519 -0.04482976 0.5635686
vn -0.6972407 -0.4342555 0.5703312
vn -0.6972407 -0.4342555 0.5703312
vn -0.6972407 -0.4342555 0.5703312
vn -0.9132153 -0.04498323 -0.4049868
vn -0.9132153 -0.04498323 -0.4049868
vn -0.9132153 -0.04498323 -0.4049868
vn -0.3360904 0.7912481 0.5108519
vn -0.3360904 0.7912481 0.5108519
vn -0.3360904 0.7912481 0.5108519
g Mesh106_0
f 3/3/3 2/2/2 1/1/1
f 6/6/6 5/5/5 4/4/4
f 9/9/9 8/8/8 7/7/7
f 12/12/12 11/11/11 10/10/10
f 15/15/15 14/14/14 13/13/13
f 18/18/18 17/17/17 16/16/16
f 21/21/21 20/20/20 19/19/19
f 24/24/24 23/23/23 22/22/22
f 27/27/27 26/26/26 25/25/25
f 30/30/30 29/29/29 28/28/28
f 33/33/33 32/32/32 31/31/31
f 36/36/36 35/35/35 34/34/34
f 39/39/39 38/38/38 37/37/37
f 42/42/42 41/41/41 40/40/40
f 45/45/45 44/44/44 43/43/43
f 48/48/48 47/47/47 46/46/46
f 51/51/51 50/50/50 49/49/49
f 54/54/54 53/53/53 52/52/52
f 57/57/57 56/56/56 55/55/55
f 60/60/60 59/59/59 58/58/58
f 63/63/63 62/62/62 61/61/61
f 66/66/66 65/65/65 64/64/64
f 69/69/69 68/68/68 67/67/67
f 72/72/72 71/71/71 70/70/70
