g Mesh89
v 363.0302 13.89117 27.4458
v 362.6768 13.68007 27.3585
v 362.9716 13.55984 27.90258
v 362.6768 13.68007 27.3585
v 363.0302 13.89117 27.4458
v 362.9716 13.55984 27.90258
v 362.6768 13.68007 27.3585
v 362.6551 13.38379 27.68825
v 362.9716 13.55984 27.90258
v 362.6551 13.38379 27.68825
v 362.6768 13.68007 27.3585
v 362.9716 13.55984 27.90258
v 362.7061 13.8413 28.01675
v 362.9716 13.55984 27.90258
v 362.6551 13.38379 27.68825
v 362.9716 13.55984 27.90258
v 362.7061 13.8413 28.01675
v 362.6551 13.38379 27.68825
v 362.7061 13.8413 28.01675
v 362.6551 13.38379 27.68825
v 362.4071 13.64707 27.79303
v 362.6551 13.38379 27.68825
v 362.7061 13.8413 28.01675
v 362.4071 13.64707 27.79303
v 362.6768 13.68007 27.3585
v 362.4071 13.64707 27.79303
v 362.6551 13.38379 27.68825
v 362.4071 13.64707 27.79303
v 362.6768 13.68007 27.3585
v 362.6551 13.38379 27.68825
v 362.6768 13.68007 27.3585
v 362.428 13.88751 27.64462
v 362.4071 13.64707 27.79303
v 362.428 13.88751 27.64462
v 362.6768 13.68007 27.3585
v 362.4071 13.64707 27.79303
v 362.428 13.88751 27.64462
v 362.7061 13.8413 28.01675
v 362.4071 13.64707 27.79303
v 362.7061 13.8413 28.01675
v 362.428 13.88751 27.64462
v 362.4071 13.64707 27.79303
v 362.428 13.88751 27.64462
v 362.7564 14.13116 27.74417
v 362.7061 13.8413 28.01675
v 362.7564 14.13116 27.74417
v 362.428 13.88751 27.64462
v 362.7061 13.8413 28.01675
v 362.7564 14.13116 27.74417
v 362.9716 13.55984 27.90258
v 362.7061 13.8413 28.01675
v 362.9716 13.55984 27.90258
v 362.7564 14.13116 27.74417
v 362.7061 13.8413 28.01675
v 363.0302 13.89117 27.4458
v 362.9716 13.55984 27.90258
v 362.7564 14.13116 27.74417
v 362.9716 13.55984 27.90258
v 363.0302 13.89117 27.4458
v 362.7564 14.13116 27.74417
v 362.7564 14.13116 27.74417
v 362.6768 13.68007 27.3585
v 363.0302 13.89117 27.4458
v 362.6768 13.68007 27.3585
v 362.7564 14.13116 27.74417
v 363.0302 13.89117 27.4458
v 362.7564 14.13116 27.74417
v 362.428 13.88751 27.64462
v 362.6768 13.68007 27.3585
v 362.428 13.88751 27.64462
v 362.7564 14.13116 27.74417
v 362.6768 13.68007 27.3585
vt 27.72071 124.6091
vt 39.2814 112.739
vt 15.40047 105.9786
vt 39.2814 112.739
vt 27.72071 124.6091
vt 15.40047 105.9786
vt 47.07412 96.76324
vt 37.14682 82.38338
vt 22.95045 90.92802
vt 37.14682 82.38338
vt 47.07412 96.76324
vt 22.95045 90.92802
vt 49.68784 -33.42621
vt 58.43579 -46.6839
vt 44.09073 -54.97649
vt 58.43579 -46.6839
vt 49.68784 -33.42621
vt 44.09073 -54.97649
vt 48.91677 -33.4504
vt 43.23579 -54.97872
vt 35.096 -42.59013
vt 43.23579 -54.97872
vt 48.91677 -33.4504
vt 35.096 -42.59013
vt -139.1766 21.89041
vt -119.057 20.40142
vt -127.9238 8.522319
vt -119.057 20.40142
vt -139.1766 21.89041
vt -127.9238 8.522319
vt -139.1584 23.48038
vt -124.3863 31.9214
vt -119.0285 22.13754
vt -124.3863 31.9214
vt -139.1584 23.48038
vt -119.0285 22.13754
vt -37.95471 79.41776
vt -19.68558 77.41621
vt -33.96008 69.00271
vt -19.68558 77.41621
vt -37.95471 79.41776
vt -33.96008 69.00271
vt -34.51908 98.05402
vt -23.07437 110.0359
vt -16.28167 95.78161
vt -23.07437 110.0359
vt -34.51908 98.05402
vt -16.28167 95.78161
vt 128.7433 39.62228
vt 129.3544 14.79878
vt 119.2188 27.02828
vt 129.3544 14.79878
vt 128.7433 39.62228
vt 119.2188 27.02828
vt 141.3054 17.13395
vt 124.201 2.769992
vt 125.9699 27.53794
vt 124.201 2.769992
vt 141.3054 17.13395
vt 125.9699 27.53794
vt -105.5601 -16.24376
vt -106.8425 -39.78394
vt -119.2194 -28.76754
vt -106.8425 -39.78394
vt -105.5601 -16.24376
vt -119.2194 -28.76754
vt -110.9543 -10.36928
vt -100.2683 -23.03241
vt -113.4297 -33.81404
vt -100.2683 -23.03241
vt -110.9543 -10.36928
vt -113.4297 -33.81404
vn 0.537289 -0.7139757 -0.4489534
vn 0.537289 -0.7139757 -0.4489534
vn 0.537289 -0.7139757 -0.4489534
vn -0.537289 0.7139757 0.4489534
vn -0.537289 0.7139757 0.4489534
vn -0.537289 0.7139757 0.4489534
vn 0.6520188 -0.5847937 -0.4825844
vn 0.6520188 -0.5847937 -0.4825844
vn 0.6520188 -0.5847937 -0.4825844
vn -0.6520188 0.5847937 0.4825844
vn -0.6520188 0.5847937 0.4825844
vn -0.6520188 0.5847937 0.4825844
vn -0.2373259 -0.5489764 0.8014371
vn -0.2373259 -0.5489764 0.8014371
vn -0.2373259 -0.5489764 0.8014371
vn 0.2373259 0.5489764 -0.8014371
vn 0.2373259 0.5489764 -0.8014371
vn 0.2373259 0.5489764 -0.8014371
vn -0.2432588 -0.5476762 0.8005472
vn -0.2432588 -0.5476762 0.8005472
vn -0.2432588 -0.5476762 0.8005472
vn 0.2432588 0.5476762 -0.8005472
vn 0.2432588 0.5476762 -0.8005472
vn 0.2432588 0.5476762 -0.8005472
vn -0.7243555 -0.4884785 -0.4865162
vn -0.7243555 -0.4884785 -0.4865162
vn -0.7243555 -0.4884785 -0.4865162
vn 0.7243555 0.4884785 0.4865162
vn 0.7243555 0.4884785 0.4865162
vn 0.7243555 0.4884785 0.4865162
vn -0.813445 -0.2526918 -0.5238836
vn -0.813445 -0.2526918 -0.5238836
vn -0.813445 -0.2526918 -0.5238836
vn 0.813445 0.2526918 0.5238836
vn 0.813445 0.2526918 0.5238836
vn 0.813445 0.2526918 0.5238836
vn -0.7025466 0.4169911 0.5766686
vn -0.7025466 0.4169911 0.5766686
vn -0.7025466 0.4169911 0.5766686
vn 0.7025466 -0.4169911 -0.5766686
vn 0.7025466 -0.4169911 -0.5766686
vn 0.7025466 -0.4169911 -0.5766686
vn -0.6038829 0.5992381 0.5255846
vn -0.6038829 0.5992381 0.5255846
vn -0.6038829 0.5992381 0.5255846
vn 0.6038829 -0.5992381 -0.5255846
vn 0.6038829 -0.5992381 -0.5255846
vn 0.6038829 -0.5992381 -0.5255846
vn 0.69722 0.423042 0.5787225
vn 0.69722 0.423042 0.5787225
vn 0.69722 0.423042 0.5787225
vn -0.69722 -0.423042 -0.5787225
vn -0.69722 -0.423042 -0.5787225
vn -0.69722 -0.423042 -0.5787225
vn 0.8114313 0.4186609 0.4078016
vn 0.8114313 0.4186609 0.4078016
vn 0.8114313 0.4186609 0.4078016
vn -0.8114313 -0.4186609 -0.4078016
vn -0.8114313 -0.4186609 -0.4078016
vn -0.8114313 -0.4186609 -0.4078016
vn -0.2132734 0.6563806 -0.7236566
vn -0.2132734 0.6563806 -0.7236566
vn -0.2132734 0.6563806 -0.7236566
vn 0.2132734 -0.6563806 0.7236566
vn 0.2132734 -0.6563806 0.7236566
vn 0.2132734 -0.6563806 0.7236566
vn -0.2697759 0.6528352 -0.7078328
vn -0.2697759 0.6528352 -0.7078328
vn -0.2697759 0.6528352 -0.7078328
vn 0.2697759 -0.6528352 0.7078328
vn 0.2697759 -0.6528352 0.7078328
vn 0.2697759 -0.6528352 0.7078328
g Mesh89_0
f 3/3/3 2/2/2 1/1/1
f 6/6/6 5/5/5 4/4/4
f 9/9/9 8/8/8 7/7/7
f 12/12/12 11/11/11 10/10/10
f 15/15/15 14/14/14 13/13/13
f 18/18/18 17/17/17 16/16/16
f 21/21/21 20/20/20 19/19/19
f 24/24/24 23/23/23 22/22/22
f 27/27/27 26/26/26 25/25/25
f 30/30/30 29/29/29 28/28/28
f 33/33/33 32/32/32 31/31/31
f 36/36/36 35/35/35 34/34/34
f 39/39/39 38/38/38 37/37/37
f 42/42/42 41/41/41 40/40/40
f 45/45/45 44/44/44 43/43/43
f 48/48/48 47/47/47 46/46/46
f 51/51/51 50/50/50 49/49/49
f 54/54/54 53/53/53 52/52/52
f 57/57/57 56/56/56 55/55/55
f 60/60/60 59/59/59 58/58/58
f 63/63/63 62/62/62 61/61/61
f 66/66/66 65/65/65 64/64/64
f 69/69/69 68/68/68 67/67/67
f 72/72/72 71/71/71 70/70/70
