g Mesh49
v 373.7961 14.04649 27.85237
v 373.9212 13.95874 27.98512
v 373.8406 13.86856 27.86964
v 373.9212 13.95874 27.98512
v 373.7961 14.04649 27.85237
v 373.8406 13.86856 27.86964
v 374.039 13.99353 27.93613
v 373.8406 13.86856 27.86964
v 373.9212 13.95874 27.98512
v 373.8406 13.86856 27.86964
v 374.039 13.99353 27.93613
v 373.9212 13.95874 27.98512
v 373.7908 14.10486 28.00073
v 374.039 13.99353 27.93613
v 373.9212 13.95874 27.98512
v 373.7961 14.04649 27.85237
v 373.7908 14.10486 28.00073
v 373.9212 13.95874 27.98512
v 373.7908 14.10486 28.00073
v 373.7961 14.04649 27.85237
v 373.9212 13.95874 27.98512
v 374.039 13.99353 27.93613
v 373.7908 14.10486 28.00073
v 373.9212 13.95874 27.98512
v 374.039 13.99353 27.93613
v 373.7908 14.10486 28.00073
v 373.9286 14.13834 27.79192
v 373.7908 14.10486 28.00073
v 374.039 13.99353 27.93613
v 373.9286 14.13834 27.79192
v 373.9286 14.13834 27.79192
v 373.7908 14.10486 28.00073
v 373.7961 14.04649 27.85237
v 373.7908 14.10486 28.00073
v 373.9286 14.13834 27.79192
v 373.7961 14.04649 27.85237
v 373.9286 14.13834 27.79192
v 373.7961 14.04649 27.85237
v 374.0184 13.96888 27.83459
v 373.9286 14.13834 27.79192
v 374.0184 13.96888 27.83459
v 374.039 13.99353 27.93613
v 374.0184 13.96888 27.83459
v 373.9286 14.13834 27.79192
v 374.039 13.99353 27.93613
v 374.039 13.99353 27.93613
v 374.0184 13.96888 27.83459
v 373.8406 13.86856 27.86964
v 374.0184 13.96888 27.83459
v 374.039 13.99353 27.93613
v 373.8406 13.86856 27.86964
v 373.7961 14.04649 27.85237
v 373.8406 13.86856 27.86964
v 374.0184 13.96888 27.83459
v 373.8406 13.86856 27.86964
v 373.7961 14.04649 27.85237
v 374.0184 13.96888 27.83459
v 373.7961 14.04649 27.85237
v 373.9286 14.13834 27.79192
v 374.0184 13.96888 27.83459
vt 37.0621 -12.83987
vt 44.22947 -16.32377
vt 38.70438 -19.90415
vt 44.22947 -16.32377
vt 37.0621 -12.83987
vt 38.70438 -19.90415
vt 161.5764 59.72851
vt 158.1857 50.75183
vt 157.0087 57.22952
vt 158.1857 50.75183
vt 161.5764 59.72851
vt 157.0087 57.22952
vt 164.2801 13.64576
vt 174.3391 9.178298
vt 169.3232 7.782285
vt -25.43241 -103.3554
vt -19.94931 -100.2929
vt -18.92738 -107.959
vt -19.94931 -100.2929
vt -25.43241 -103.3554
vt -18.92738 -107.959
vt 174.3391 9.178298
vt 164.2801 13.64576
vt 169.3232 7.782285
vt 161.7206 -48.06469
vt 153.2014 -41.09569
vt 162.9167 -39.00013
vt 153.2014 -41.09569
vt 161.7206 -48.06469
vt 162.9167 -39.00013
vt -137.6607 83.81597
vt -127.9015 81.93581
vt -133.2583 78.65744
vt -127.9015 81.93581
vt -137.6607 83.81597
vt -133.2583 78.65744
vt -167.4764 26.51809
vt -161.8833 22.68278
vt -170.5976 19.442
vt 28.73556 -56.64228
vt 26.07931 -63.90572
vt 22.02192 -62.84906
vt 26.07931 -63.90572
vt 28.73556 -56.64228
vt 22.02192 -62.84906
vt 103.9096 123.952
vt 107.6554 122.0684
vt 104.8667 114.4041
vt 107.6554 122.0684
vt 103.9096 123.952
vt 104.8667 114.4041
vt -157.8818 15.51891
vt -159.5359 8.45739
vt -166.6541 12.43868
vt -159.5359 8.45739
vt -157.8818 15.51891
vt -166.6541 12.43868
vt -161.8833 22.68278
vt -167.4764 26.51809
vt -170.5976 19.442
vn -0.7629012 -0.1292859 0.6334563
vn -0.7629012 -0.1292859 0.6334563
vn -0.7629012 -0.1292859 0.6334563
vn 0.7629012 0.1292859 -0.6334563
vn 0.7629012 0.1292859 -0.6334563
vn 0.7629012 0.1292859 -0.6334563
vn 0.401954 -0.8364216 0.3726015
vn 0.401954 -0.8364216 0.3726015
vn 0.401954 -0.8364216 0.3726015
vn -0.401954 0.8364216 -0.3726015
vn -0.401954 0.8364216 -0.3726015
vn -0.401954 0.8364216 -0.3726015
vn 0.3275088 0.1933827 0.9248465
vn 0.3275088 0.1933827 0.9248465
vn 0.3275088 0.1933827 0.9248465
vn -0.7127528 -0.6609581 0.234772
vn -0.7127528 -0.6609581 0.234772
vn -0.7127528 -0.6609581 0.234772
vn 0.7127528 0.6609581 -0.234772
vn 0.7127528 0.6609581 -0.234772
vn 0.7127528 0.6609581 -0.234772
vn -0.3275088 -0.1933827 -0.9248465
vn -0.3275088 -0.1933827 -0.9248465
vn -0.3275088 -0.1933827 -0.9248465
vn 0.4603357 0.777448 0.4285623
vn 0.4603357 0.777448 0.4285623
vn 0.4603357 0.777448 0.4285623
vn -0.4603357 -0.777448 -0.4285623
vn -0.4603357 -0.777448 -0.4285623
vn -0.4603357 -0.777448 -0.4285623
vn -0.6321309 0.7131612 -0.3030041
vn -0.6321309 0.7131612 -0.3030041
vn -0.6321309 0.7131612 -0.3030041
vn 0.6321309 -0.7131612 0.3030041
vn 0.6321309 -0.7131612 0.3030041
vn 0.6321309 -0.7131612 0.3030041
vn -0.1901584 -0.3332137 -0.9234763
vn -0.1901584 -0.3332137 -0.9234763
vn -0.1901584 -0.3332137 -0.9234763
vn 0.876804 0.3953454 -0.2737097
vn 0.876804 0.3953454 -0.2737097
vn 0.876804 0.3953454 -0.2737097
vn -0.876804 -0.3953454 0.2737097
vn -0.876804 -0.3953454 0.2737097
vn -0.876804 -0.3953454 0.2737097
vn 0.5043079 -0.857011 0.1058564
vn 0.5043079 -0.857011 0.1058564
vn 0.5043079 -0.857011 0.1058564
vn -0.5043079 0.857011 -0.1058564
vn -0.5043079 0.857011 -0.1058564
vn -0.5043079 0.857011 -0.1058564
vn -0.1227856 -0.1262706 -0.9843675
vn -0.1227856 -0.1262706 -0.9843675
vn -0.1227856 -0.1262706 -0.9843675
vn 0.1227856 0.1262706 0.9843675
vn 0.1227856 0.1262706 0.9843675
vn 0.1227856 0.1262706 0.9843675
vn 0.1901584 0.3332137 0.9234763
vn 0.1901584 0.3332137 0.9234763
vn 0.1901584 0.3332137 0.9234763
g Mesh49_0
f 3/3/3 2/2/2 1/1/1
f 6/6/6 5/5/5 4/4/4
f 9/9/9 8/8/8 7/7/7
f 12/12/12 11/11/11 10/10/10
f 15/15/15 14/14/14 13/13/13
f 18/18/18 17/17/17 16/16/16
f 21/21/21 20/20/20 19/19/19
f 24/24/24 23/23/23 22/22/22
f 27/27/27 26/26/26 25/25/25
f 30/30/30 29/29/29 28/28/28
f 33/33/33 32/32/32 31/31/31
f 36/36/36 35/35/35 34/34/34
f 39/39/39 38/38/38 37/37/37
f 42/42/42 41/41/41 40/40/40
f 45/45/45 44/44/44 43/43/43
f 48/48/48 47/47/47 46/46/46
f 51/51/51 50/50/50 49/49/49
f 54/54/54 53/53/53 52/52/52
f 57/57/57 56/56/56 55/55/55
f 60/60/60 59/59/59 58/58/58
