g Mesh112
v 362.2628 14.09367 29.92952
v 361.5819 14.08216 29.74219
v 362.0251 13.86319 29.14126
v 361.5819 14.08216 29.74219
v 362.2628 14.09367 29.92952
v 362.0251 13.86319 29.14126
v 362.0251 13.86319 29.14126
v 361.5819 14.08216 29.74219
v 362.0258 13.37842 30.01303
v 362.0251 13.86319 29.14126
v 362.0258 13.37842 30.01303
v 362.3188 13.20745 29.25579
v 362.0258 13.37842 30.01303
v 362.0251 13.86319 29.14126
v 362.3188 13.20745 29.25579
v 362.3926 13.59822 30.15249
v 362.3188 13.20745 29.25579
v 362.0258 13.37842 30.01303
v 362.3188 13.20745 29.25579
v 362.3926 13.59822 30.15249
v 362.0258 13.37842 30.01303
v 361.5819 14.08216 29.74219
v 362.3926 13.59822 30.15249
v 362.0258 13.37842 30.01303
v 361.5819 14.08216 29.74219
v 362.0251 13.86319 29.14126
v 362.0258 13.37842 30.01303
v 362.3926 13.59822 30.15249
v 361.5819 14.08216 29.74219
v 362.0258 13.37842 30.01303
v 362.2628 14.09367 29.92952
v 362.3926 13.59822 30.15249
v 361.5819 14.08216 29.74219
v 362.3926 13.59822 30.15249
v 362.2628 14.09367 29.92952
v 361.5819 14.08216 29.74219
v 362.5843 14.23724 29.17816
v 362.3926 13.59822 30.15249
v 362.2628 14.09367 29.92952
v 362.5843 14.23724 29.17816
v 362.2628 14.09367 29.92952
v 362.0251 13.86319 29.14126
v 362.2628 14.09367 29.92952
v 362.5843 14.23724 29.17816
v 362.0251 13.86319 29.14126
v 362.5843 14.23724 29.17816
v 362.0251 13.86319 29.14126
v 362.3188 13.20745 29.25579
v 362.5843 14.23724 29.17816
v 362.3188 13.20745 29.25579
v 362.3926 13.59822 30.15249
v 362.3188 13.20745 29.25579
v 362.5843 14.23724 29.17816
v 362.3926 13.59822 30.15249
v 362.3926 13.59822 30.15249
v 362.5843 14.23724 29.17816
v 362.2628 14.09367 29.92952
v 362.0251 13.86319 29.14126
v 362.5843 14.23724 29.17816
v 362.3188 13.20745 29.25579
vt -56.39796 -13.47953
vt -28.62856 -14.96215
vt -40.55547 -43.17948
vt -28.62856 -14.96215
vt -56.39796 -13.47953
vt -40.55547 -43.17948
vt -62.62143 8.956659
vt -33.91182 19.64436
vt -31.27872 -14.70466
vt -57.62143 12.67798
vt -24.53583 -8.477787
vt -56.33949 -15.93861
vt -24.53583 -8.477787
vt -57.62143 12.67798
vt -56.33949 -15.93861
vt 48.2709 50.15346
vt 72.68932 20.23344
vt 42.75958 33.32342
vt 72.68932 20.23344
vt 48.2709 50.15346
vt 42.75958 33.32342
vt 22.35641 43.75322
vt 58.0833 24.61248
vt 42.65472 15.91858
vt -33.91182 19.64436
vt -62.62143 8.956659
vt -31.27872 -14.70466
vt 58.0833 24.61248
vt 22.35641 43.75322
vt 42.65472 15.91858
vt 54.75702 49.08037
vt 62.05405 28.3343
vt 26.95225 48.59859
vt 62.05405 28.3343
vt 54.75702 49.08037
vt 26.95225 48.59859
vt 73.20967 24.75721
vt 35.7198 -2.735143
vt 41.13184 18.58048
vt -53.86609 81.56873
vt -22.82021 71.40545
vt -52.26286 55.08975
vt -22.82021 71.40545
vt -53.86609 81.56873
vt -52.26286 55.08975
vt -66.7679 52.4454
vt -44.76345 37.6295
vt -56.84285 11.65564
vt 46.23506 63.24786
vt 42.87651 21.40253
vt 7.672495 37.28157
vt 42.87651 21.40253
vt 46.23506 63.24786
vt 7.672495 37.28157
vt 35.7198 -2.735143
vt 73.20967 24.75721
vt 41.13184 18.58048
vt -44.76345 37.6295
vt -66.7679 52.4454
vt -56.84285 11.65564
vn 0.06597443 0.9521859 -0.2983108
vn 0.06597443 0.9521859 -0.2983108
vn 0.06597443 0.9521859 -0.2983108
vn -0.06597443 -0.9521859 0.2983108
vn -0.06597443 -0.9521859 0.2983108
vn -0.06597443 -0.9521859 0.2983108
vn -0.7368969 -0.5910675 -0.3280581
vn -0.7368969 -0.5910675 -0.3280581
vn -0.7368969 -0.5910675 -0.3280581
vn -0.8698736 -0.4314165 -0.2391646
vn -0.8698736 -0.4314165 -0.2391646
vn -0.8698736 -0.4314165 -0.2391646
vn 0.8698736 0.4314165 0.2391646
vn 0.8698736 0.4314165 0.2391646
vn 0.8698736 0.4314165 0.2391646
vn 0.3838364 -0.8576729 0.3421502
vn 0.3838364 -0.8576729 0.3421502
vn 0.3838364 -0.8576729 0.3421502
vn -0.3838364 0.8576729 -0.3421502
vn -0.3838364 0.8576729 -0.3421502
vn -0.3838364 0.8576729 -0.3421502
vn -0.4033661 0.09577662 0.9100124
vn -0.4033661 0.09577662 0.9100124
vn -0.4033661 0.09577662 0.9100124
vn 0.7368969 0.5910675 0.3280581
vn 0.7368969 0.5910675 0.3280581
vn 0.7368969 0.5910675 0.3280581
vn 0.4033661 -0.09577662 -0.9100124
vn 0.4033661 -0.09577662 -0.9100124
vn 0.4033661 -0.09577662 -0.9100124
vn -0.2547251 0.3405883 0.9050496
vn -0.2547251 0.3405883 0.9050496
vn -0.2547251 0.3405883 0.9050496
vn 0.2547251 -0.3405883 -0.9050496
vn 0.2547251 -0.3405883 -0.9050496
vn 0.2547251 -0.3405883 -0.9050496
vn 0.8109469 0.4032497 0.4239749
vn 0.8109469 0.4032497 0.4239749
vn 0.8109469 0.4032497 0.4239749
vn -0.5508121 0.8310848 -0.07683716
vn -0.5508121 0.8310848 -0.07683716
vn -0.5508121 0.8310848 -0.07683716
vn 0.5508121 -0.8310848 0.07683716
vn 0.5508121 -0.8310848 0.07683716
vn 0.5508121 -0.8310848 0.07683716
vn 0.1384383 -0.109893 -0.9842552
vn 0.1384383 -0.109893 -0.9842552
vn 0.1384383 -0.109893 -0.9842552
vn 0.9684625 -0.247567 0.02812302
vn 0.9684625 -0.247567 0.02812302
vn 0.9684625 -0.247567 0.02812302
vn -0.9684625 0.247567 -0.02812302
vn -0.9684625 0.247567 -0.02812302
vn -0.9684625 0.247567 -0.02812302
vn -0.8109469 -0.4032497 -0.4239749
vn -0.8109469 -0.4032497 -0.4239749
vn -0.8109469 -0.4032497 -0.4239749
vn -0.1384383 0.109893 0.9842552
vn -0.1384383 0.109893 0.9842552
vn -0.1384383 0.109893 0.9842552
g Mesh112_0
f 3/3/3 2/2/2 1/1/1
f 6/6/6 5/5/5 4/4/4
f 9/9/9 8/8/8 7/7/7
f 12/12/12 11/11/11 10/10/10
f 15/15/15 14/14/14 13/13/13
f 18/18/18 17/17/17 16/16/16
f 21/21/21 20/20/20 19/19/19
f 24/24/24 23/23/23 22/22/22
f 27/27/27 26/26/26 25/25/25
f 30/30/30 29/29/29 28/28/28
f 33/33/33 32/32/32 31/31/31
f 36/36/36 35/35/35 34/34/34
f 39/39/39 38/38/38 37/37/37
f 42/42/42 41/41/41 40/40/40
f 45/45/45 44/44/44 43/43/43
f 48/48/48 47/47/47 46/46/46
f 51/51/51 50/50/50 49/49/49
f 54/54/54 53/53/53 52/52/52
f 57/57/57 56/56/56 55/55/55
f 60/60/60 59/59/59 58/58/58
