g Mesh95
v 363.6122 13.92245 29.50528
v 363.0492 13.97586 29.50832
v 363.3035 14.00884 29.23261
v 363.0492 13.97586 29.50832
v 363.6122 13.92245 29.50528
v 363.3035 14.00884 29.23261
v 363.3035 14.00884 29.23261
v 363.0492 13.97586 29.50832
v 363.06 13.56893 29.33146
v 363.0492 13.97586 29.50832
v 363.3035 14.00884 29.23261
v 363.06 13.56893 29.33146
v 363.06 13.56893 29.33146
v 363.0492 13.97586 29.50832
v 363.339 13.88548 29.79983
v 363.0492 13.97586 29.50832
v 363.06 13.56893 29.33146
v 363.339 13.88548 29.79983
v 363.6122 13.92245 29.50528
v 363.339 13.88548 29.79983
v 363.0492 13.97586 29.50832
v 363.339 13.88548 29.79983
v 363.6122 13.92245 29.50528
v 363.0492 13.97586 29.50832
v 363.6569 13.54626 29.37359
v 363.339 13.88548 29.79983
v 363.6122 13.92245 29.50528
v 363.339 13.88548 29.79983
v 363.6569 13.54626 29.37359
v 363.6122 13.92245 29.50528
v 363.39 13.76005 29.12823
v 363.6569 13.54626 29.37359
v 363.6122 13.92245 29.50528
v 363.39 13.76005 29.12823
v 363.6122 13.92245 29.50528
v 363.3035 14.00884 29.23261
v 363.6122 13.92245 29.50528
v 363.39 13.76005 29.12823
v 363.3035 14.00884 29.23261
v 363.3035 14.00884 29.23261
v 363.06 13.56893 29.33146
v 363.39 13.76005 29.12823
v 363.06 13.56893 29.33146
v 363.3035 14.00884 29.23261
v 363.39 13.76005 29.12823
v 363.6569 13.54626 29.37359
v 363.39 13.76005 29.12823
v 363.06 13.56893 29.33146
v 363.6569 13.54626 29.37359
v 363.06 13.56893 29.33146
v 363.2956 13.35402 29.60612
v 363.06 13.56893 29.33146
v 363.6569 13.54626 29.37359
v 363.2956 13.35402 29.60612
v 363.06 13.56893 29.33146
v 363.339 13.88548 29.79983
v 363.2956 13.35402 29.60612
v 363.339 13.88548 29.79983
v 363.06 13.56893 29.33146
v 363.2956 13.35402 29.60612
v 363.339 13.88548 29.79983
v 363.6569 13.54626 29.37359
v 363.2956 13.35402 29.60612
v 363.6569 13.54626 29.37359
v 363.339 13.88548 29.79983
v 363.2956 13.35402 29.60612
v 363.39 13.76005 29.12823
v 363.6569 13.54626 29.37359
v 363.06 13.56893 29.33146
v 363.6569 13.54626 29.37359
v 363.39 13.76005 29.12823
v 363.6122 13.92245 29.50528
vt 116.694 -11.24049
vt 96.51593 -1.828158
vt 110.1528 3.983135
vt 96.51593 -1.828158
vt 116.694 -11.24049
vt 110.1528 3.983135
vt -98.8496 49.12922
vt -84.08718 47.78528
vt -89.59521 31.20236
vt -84.08718 47.78528
vt -98.8496 49.12922
vt -89.59521 31.20236
vt 31.827 -8.02977
vt 36.80485 8.719937
vt 52.95123 4.9996
vt 36.80485 8.719937
vt 31.827 -8.02977
vt 52.95123 4.9996
vt 116.9067 -9.739651
vt 102.3517 -16.09948
vt 96.6259 -0.5507863
vt 102.3517 -16.09948
vt 116.9067 -9.739651
vt 96.6259 -0.5507863
vt 104.673 28.31517
vt 83.83082 41.81267
vt 99.64635 43.28371
vt 83.83082 41.81267
vt 104.673 28.31517
vt 99.64635 43.28371
vt -26.64157 -5.898145
vt -40.68037 -14.69939
vt -43.76101 0.787195
vt -36.34982 -27.1213
vt -53.23194 -19.85747
vt -37.11946 -15.9931
vt -53.23194 -19.85747
vt -36.34982 -27.1213
vt -37.11946 -15.9931
vt -107.3439 40.91132
vt -97.28143 23.42525
vt -112.5048 31.02218
vt -97.28143 23.42525
vt -107.3439 40.91132
vt -112.5048 31.02218
vt -114.7803 42.61454
vt -104.0044 55.20142
vt -91.24307 43.94923
vt -114.9902 42.76462
vt -91.45866 44.19507
vt -100.9802 30.63454
vt -91.45866 44.19507
vt -114.9902 42.76462
vt -100.9802 30.63454
vt 22.88024 6.222909
vt 44.26649 18.81759
vt 37.07286 -2.327963
vt 44.26649 18.81759
vt 22.88024 6.222909
vt 37.07286 -2.327963
vt 90.69003 47.92448
vt 111.1602 33.86921
vt 94.42788 25.90377
vt 111.1602 33.86921
vt 90.69003 47.92448
vt 94.42788 25.90377
vt -104.0044 55.20142
vt -114.7803 42.61454
vt -91.24307 43.94923
vt -40.68037 -14.69939
vt -26.64157 -5.898145
vt -43.76101 0.787195
vn 0.09357103 0.9747208 0.2028889
vn 0.09357103 0.9747208 0.2028889
vn 0.09357103 0.9747208 0.2028889
vn -0.09357103 -0.9747208 -0.2028889
vn -0.09357103 -0.9747208 -0.2028889
vn -0.09357103 -0.9747208 -0.2028889
vn -0.725379 0.2581196 -0.6381218
vn -0.725379 0.2581196 -0.6381218
vn -0.725379 0.2581196 -0.6381218
vn 0.725379 -0.2581196 0.6381218
vn 0.725379 -0.2581196 0.6381218
vn 0.725379 -0.2581196 0.6381218
vn -0.7220461 -0.2917555 0.6273182
vn -0.7220461 -0.2917555 0.6273182
vn -0.7220461 -0.2917555 0.6273182
vn 0.7220461 0.2917555 -0.6273182
vn 0.7220461 0.2917555 -0.6273182
vn 0.7220461 0.2917555 -0.6273182
vn 0.09348372 0.9734592 0.2088965
vn 0.09348372 0.9734592 0.2088965
vn 0.09348372 0.9734592 0.2088965
vn -0.09348372 -0.9734592 -0.2088965
vn -0.09348372 -0.9734592 -0.2088965
vn -0.09348372 -0.9734592 -0.2088965
vn 0.7344226 -0.1449074 0.6630424
vn 0.7344226 -0.1449074 0.6630424
vn 0.7344226 -0.1449074 0.6630424
vn -0.7344226 0.1449074 -0.6630424
vn -0.7344226 0.1449074 -0.6630424
vn -0.7344226 0.1449074 -0.6630424
vn 0.7635564 0.2922338 -0.5758307
vn 0.7635564 0.2922338 -0.5758307
vn 0.7635564 0.2922338 -0.5758307
vn 0.6535575 0.4746318 -0.5895654
vn 0.6535575 0.4746318 -0.5895654
vn 0.6535575 0.4746318 -0.5895654
vn -0.6535575 -0.4746318 0.5895654
vn -0.6535575 -0.4746318 0.5895654
vn -0.6535575 -0.4746318 0.5895654
vn -0.5759797 0.1377467 -0.8057749
vn -0.5759797 0.1377467 -0.8057749
vn -0.5759797 0.1377467 -0.8057749
vn 0.5759797 -0.1377467 0.8057749
vn 0.5759797 -0.1377467 0.8057749
vn 0.5759797 -0.1377467 0.8057749
vn 0.01894121 -0.7435188 -0.6684467
vn 0.01894121 -0.7435188 -0.6684467
vn 0.01894121 -0.7435188 -0.6684467
vn 0.01434798 -0.781462 -0.6237878
vn 0.01434798 -0.781462 -0.6237878
vn 0.01434798 -0.781462 -0.6237878
vn -0.01434798 0.781462 0.6237878
vn -0.01434798 0.781462 0.6237878
vn -0.01434798 0.781462 0.6237878
vn -0.804096 -0.1444974 0.5766714
vn -0.804096 -0.1444974 0.5766714
vn -0.804096 -0.1444974 0.5766714
vn 0.804096 0.1444974 -0.5766714
vn 0.804096 0.1444974 -0.5766714
vn 0.804096 0.1444974 -0.5766714
vn 0.6259348 -0.3117011 0.7148762
vn 0.6259348 -0.3117011 0.7148762
vn 0.6259348 -0.3117011 0.7148762
vn -0.6259348 0.3117011 -0.7148762
vn -0.6259348 0.3117011 -0.7148762
vn -0.6259348 0.3117011 -0.7148762
vn -0.01894121 0.7435188 0.6684467
vn -0.01894121 0.7435188 0.6684467
vn -0.01894121 0.7435188 0.6684467
vn -0.7635564 -0.2922338 0.5758307
vn -0.7635564 -0.2922338 0.5758307
vn -0.7635564 -0.2922338 0.5758307
g Mesh95_0
f 3/3/3 2/2/2 1/1/1
f 6/6/6 5/5/5 4/4/4
f 9/9/9 8/8/8 7/7/7
f 12/12/12 11/11/11 10/10/10
f 15/15/15 14/14/14 13/13/13
f 18/18/18 17/17/17 16/16/16
f 21/21/21 20/20/20 19/19/19
f 24/24/24 23/23/23 22/22/22
f 27/27/27 26/26/26 25/25/25
f 30/30/30 29/29/29 28/28/28
f 33/33/33 32/32/32 31/31/31
f 36/36/36 35/35/35 34/34/34
f 39/39/39 38/38/38 37/37/37
f 42/42/42 41/41/41 40/40/40
f 45/45/45 44/44/44 43/43/43
f 48/48/48 47/47/47 46/46/46
f 51/51/51 50/50/50 49/49/49
f 54/54/54 53/53/53 52/52/52
f 57/57/57 56/56/56 55/55/55
f 60/60/60 59/59/59 58/58/58
f 63/63/63 62/62/62 61/61/61
f 66/66/66 65/65/65 64/64/64
f 69/69/69 68/68/68 67/67/67
f 72/72/72 71/71/71 70/70/70
