g Mesh10
v 259.1315 18.1 -89.93875
v 259.1315 4.11628E-15 -89.93875
v 250.6429 2.495786E-15 -89.93875
v 250.6429 16 -89.93875
v 250.6429 18.1 -89.93875
v 240.5513 16 -89.93875
v 240.5513 18.1 -89.93875
v 236.8492 18.1 -89.93875
v 236.8492 -1.374638E-16 -89.93875
v 240.5513 5.692693E-16 -89.93875
v 236.8492 18.1 -109.004
v 236.8492 18.1 -89.93875
v 236.8492 -1.374638E-16 -89.93875
v 236.8492 1.845924E-15 -109.004
v 247.9904 3.972795E-15 -109.004
v 247.9904 18.1 -109.004
v 236.8492 18.1 -109.004
v 236.8492 1.845924E-15 -109.004
v 259.1315 5.038063E-15 -98.79935
v 259.1315 4.11628E-15 -89.93875
v 259.1315 18.1 -89.93875
v 259.1315 18.1 -98.79935
v 259.1315 5.570306E-15 -103.9155
v 259.1315 18.1 -103.9155
v 259.1315 6.099668E-15 -109.004
v 259.1315 18.1 -109.004
v 259.1315 6.099668E-15 -109.004
v 259.1315 18.1 -109.004
v 253.9904 18.1 -109.004
v 253.9904 5.118213E-15 -109.004
v 259.1315 4.11628E-15 -89.93875
v 259.1315 18.1 -89.93875
v 250.6429 2.495786E-15 -89.93875
v 250.6429 16 -89.93875
v 250.6429 18.1 -89.93875
v 240.5513 16 -89.93875
v 240.5513 18.1 -89.93875
v 236.8492 18.1 -89.93875
v 236.8492 -1.374638E-16 -89.93875
v 240.5513 5.692693E-16 -89.93875
v 236.8492 18.1 -89.93875
v 240.5513 18.1 -89.93875
v 236.8492 18.1 -109.004
v 247.9904 18.1 -109.004
v 250.6429 18.1 -89.93875
v 253.9904 18.1 -109.004
v 259.1315 18.1 -89.93875
v 259.1315 18.1 -109.004
v 259.1315 18.1 -98.79935
v 259.1315 18.1 -103.9155
v 236.8492 18.1 -89.93875
v 236.8492 18.1 -109.004
v 236.8492 -1.374638E-16 -89.93875
v 236.8492 1.845924E-15 -109.004
v 236.8492 1.845924E-15 -109.004
v 236.8492 18.1 -109.004
v 247.9904 3.972795E-15 -109.004
v 247.9904 18.1 -109.004
v 259.1315 4.11628E-15 -89.93875
v 259.1315 5.038063E-15 -98.79935
v 259.1315 18.1 -89.93875
v 259.1315 18.1 -98.79935
v 259.1315 5.570306E-15 -103.9155
v 259.1315 18.1 -103.9155
v 259.1315 6.099668E-15 -109.004
v 259.1315 18.1 -109.004
v 253.9904 5.118213E-15 -109.004
v 253.9904 18.1 -109.004
v 259.1315 6.099668E-15 -109.004
v 259.1315 18.1 -109.004
v 240.5513 18.1 -89.93875
v 236.8492 18.1 -89.93875
v 236.8492 18.1 -109.004
v 247.9904 18.1 -109.004
v 250.6429 18.1 -89.93875
v 253.9904 18.1 -109.004
v 259.1315 18.1 -89.93875
v 259.1315 18.1 -109.004
v 259.1315 18.1 -98.79935
v 259.1315 18.1 -103.9155
vt 8.772538 7.125984
vt 8.772538 0
vt 5.430577 0
vt 5.430577 6.299212
vt 5.430577 7.125984
vt 1.457503 6.299212
vt 1.457503 7.125984
vt 0 7.125984
vt 0 0
vt 1.457503 0
vt -7.505996 7.125984
vt 0 7.125984
vt 0 0
vt -7.505996 0
vt -4.386269 0
vt -4.386269 7.125984
vt 0 7.125984
vt 0 0
vt 3.488424 0
vt 0 0
vt 0 7.125984
vt 3.488424 7.125984
vt 5.502662 0
vt 5.502662 7.125984
vt 7.505996 0
vt 7.505996 7.125984
vt -8.772538 0
vt -8.772538 7.125984
vt -6.748474 7.125984
vt -6.748474 0
vt 8.772538 0
vt 8.772538 7.125984
vt 5.430577 0
vt 5.430577 6.299212
vt 5.430577 7.125984
vt 1.457503 6.299212
vt 1.457503 7.125984
vt 0 7.125984
vt 0 0
vt 1.457503 0
vt 2.146767E-16 -2.012776E-15
vt 1.457503 -2.012776E-15
vt 2.146767E-16 7.505996
vt 4.386269 7.505996
vt 5.430577 -2.012776E-15
vt 6.748474 7.505996
vt 8.772538 -2.012776E-15
vt 8.772538 7.505996
vt 8.772538 3.488424
vt 8.772538 5.502662
vt 0 7.125984
vt -7.505996 7.125984
vt 0 0
vt -7.505996 0
vt 0 0
vt 0 7.125984
vt -4.386269 0
vt -4.386269 7.125984
vt 0 0
vt 3.488424 0
vt 0 7.125984
vt 3.488424 7.125984
vt 5.502662 0
vt 5.502662 7.125984
vt 7.505996 0
vt 7.505996 7.125984
vt -6.748474 0
vt -6.748474 7.125984
vt -8.772538 0
vt -8.772538 7.125984
vt 1.457503 -2.012776E-15
vt 2.146767E-16 -2.012776E-15
vt 2.146767E-16 7.505996
vt 4.386269 7.505996
vt 5.430577 -2.012776E-15
vt 6.748474 7.505996
vt 8.772538 -2.012776E-15
vt 8.772538 7.505996
vt 8.772538 3.488424
vt 8.772538 5.502662
vn 0 0 1
vn 0 0 1
vn 0 0 1
vn 0 0 1
vn 0 0 1
vn 0 0 1
vn 0 0 1
vn 0 0 1
vn 0 0 1
vn 0 0 1
vn -1 0 0
vn -1 0 0
vn -1 0 0
vn -1 0 0
vn 0 0 -1
vn 0 0 -1
vn 0 0 -1
vn 0 0 -1
vn 1 0 0
vn 1 0 0
vn 1 0 0
vn 1 0 0
vn 1 0 0
vn 1 0 0
vn 1 0 0
vn 1 0 0
vn 0 0 -1
vn 0 0 -1
vn 0 0 -1
vn 0 0 -1
vn 0 0 -1
vn 0 0 -1
vn 0 0 -1
vn 0 0 -1
vn 0 0 -1
vn 0 0 -1
vn 0 0 -1
vn 0 0 -1
vn 0 0 -1
vn 0 0 -1
vn 0 -1 0
vn 0 -1 0
vn 0 -1 0
vn 0 -1 0
vn 0 -1 0
vn 0 -1 0
vn 0 -1 0
vn 0 -1 0
vn 0 -1 0
vn 0 -1 0
vn 1 0 0
vn 1 0 0
vn 1 0 0
vn 1 0 0
vn 0 0 1
vn 0 0 1
vn 0 0 1
vn 0 0 1
vn -1 0 0
vn -1 0 0
vn -1 0 0
vn -1 0 0
vn -1 0 0
vn -1 0 0
vn -1 0 0
vn -1 0 0
vn 0 0 1
vn 0 0 1
vn 0 0 1
vn 0 0 1
vn 0 1 0
vn 0 1 0
vn 0 1 0
vn 0 1 0
vn 0 1 0
vn 0 1 0
vn 0 1 0
vn 0 1 0
vn 0 1 0
vn 0 1 0
g Mesh10_0
f 3/3/3 2/2/2 1/1/1
f 1/1/1 4/4/4 3/3/3
f 1/1/1 5/5/5 4/4/4
f 6/6/6 4/4/4 5/5/5
f 5/5/5 7/7/7 6/6/6
f 6/6/6 7/7/7 8/8/8
f 6/6/6 8/8/8 9/9/9
f 9/9/9 10/10/10 6/6/6
f 13/13/13 12/12/12 11/11/11
f 11/11/11 14/14/14 13/13/13
f 17/17/17 16/16/16 15/15/15
f 15/15/15 18/18/18 17/17/17
f 21/21/21 20/20/20 19/19/19
f 19/19/19 22/22/22 21/21/21
f 22/22/22 19/19/19 23/23/23
f 23/23/23 24/24/24 22/22/22
f 24/24/24 23/23/23 25/25/25
f 25/25/25 26/26/26 24/24/24
f 29/29/29 28/28/28 27/27/27
f 27/27/27 30/30/30 29/29/29
g Mesh10_1
f 33/33/33 32/32/32 31/31/31
f 32/32/32 33/33/33 34/34/34
f 32/32/32 34/34/34 35/35/35
f 36/36/36 35/35/35 34/34/34
f 35/35/35 36/36/36 37/37/37
f 36/36/36 38/38/38 37/37/37
f 36/36/36 39/39/39 38/38/38
f 39/39/39 36/36/36 40/40/40
f 43/43/43 42/42/42 41/41/41
f 42/42/42 43/43/43 44/44/44
f 42/42/42 44/44/44 45/45/45
f 45/45/45 44/44/44 46/46/46
f 45/45/45 46/46/46 47/47/47
f 47/47/47 46/46/46 48/48/48
f 47/47/47 48/48/48 49/49/49
f 49/49/49 48/48/48 50/50/50
f 53/53/53 52/52/52 51/51/51
f 52/52/52 53/53/53 54/54/54
f 57/57/57 56/56/56 55/55/55
f 56/56/56 57/57/57 58/58/58
f 61/61/61 60/60/60 59/59/59
f 60/60/60 61/61/61 62/62/62
f 62/62/62 63/63/63 60/60/60
f 63/63/63 62/62/62 64/64/64
f 64/64/64 65/65/65 63/63/63
f 65/65/65 64/64/64 66/66/66
f 69/69/69 68/68/68 67/67/67
f 68/68/68 69/69/69 70/70/70
g Mesh10_2
f 73/73/73 72/72/72 71/71/71
f 71/71/71 74/74/74 73/73/73
f 71/71/71 75/75/75 74/74/74
f 75/75/75 76/76/76 74/74/74
f 75/75/75 77/77/77 76/76/76
f 77/77/77 78/78/78 76/76/76
f 77/77/77 79/79/79 78/78/78
f 79/79/79 80/80/80 78/78/78
