g Mesh33
v 370.0849 13.96658 28.41219
v 370.1687 13.99244 28.49598
v 370.1407 14.05232 28.4362
v 370.1687 13.99244 28.49598
v 370.0849 13.96658 28.41219
v 370.1407 14.05232 28.4362
v 370.1687 13.99244 28.49598
v 370.1005 14.02495 28.56098
v 370.1407 14.05232 28.4362
v 370.1005 14.02495 28.56098
v 370.1687 13.99244 28.49598
v 370.1407 14.05232 28.4362
v 370.1407 14.05232 28.4362
v 370.1005 14.02495 28.56098
v 370.0703 14.08877 28.49666
v 370.0703 14.08877 28.49666
v 370.0849 13.96658 28.41219
v 370.1407 14.05232 28.4362
v 370.0849 13.96658 28.41219
v 370.0703 14.08877 28.49666
v 370.1407 14.05232 28.4362
v 370.1005 14.02495 28.56098
v 370.1407 14.05232 28.4362
v 370.0703 14.08877 28.49666
v 370.0703 14.08877 28.49666
v 370.1005 14.02495 28.56098
v 370.043 13.95077 28.54672
v 370.1005 14.02495 28.56098
v 370.0703 14.08877 28.49666
v 370.043 13.95077 28.54672
v 370.1005 14.02495 28.56098
v 370.1298 13.9379 28.49951
v 370.043 13.95077 28.54672
v 370.1298 13.9379 28.49951
v 370.1005 14.02495 28.56098
v 370.043 13.95077 28.54672
v 370.1298 13.9379 28.49951
v 370.0849 13.96658 28.41219
v 370.043 13.95077 28.54672
v 370.0849 13.96658 28.41219
v 370.1298 13.9379 28.49951
v 370.043 13.95077 28.54672
v 370.0849 13.96658 28.41219
v 369.9958 13.98626 28.45225
v 370.043 13.95077 28.54672
v 369.9958 13.98626 28.45225
v 370.0849 13.96658 28.41219
v 370.043 13.95077 28.54672
v 369.9958 13.98626 28.45225
v 370.0703 14.08877 28.49666
v 370.043 13.95077 28.54672
v 370.0703 14.08877 28.49666
v 369.9958 13.98626 28.45225
v 370.043 13.95077 28.54672
v 370.0703 14.08877 28.49666
v 369.9958 13.98626 28.45225
v 370.0849 13.96658 28.41219
v 369.9958 13.98626 28.45225
v 370.0703 14.08877 28.49666
v 370.0849 13.96658 28.41219
v 370.0849 13.96658 28.41219
v 370.1298 13.9379 28.49951
v 370.1687 13.99244 28.49598
v 370.1298 13.9379 28.49951
v 370.0849 13.96658 28.41219
v 370.1687 13.99244 28.49598
v 370.1005 14.02495 28.56098
v 370.1687 13.99244 28.49598
v 370.1298 13.9379 28.49951
v 370.1687 13.99244 28.49598
v 370.1005 14.02495 28.56098
v 370.1298 13.9379 28.49951
vt 38.32917 16.1746
vt 33.67293 17.23885
vt 36.1709 19.70385
vt 33.67293 17.23885
vt 38.32917 16.1746
vt 36.1709 19.70385
vt 47.82127 16.78375
vt 44.2917 18.49567
vt 49.36216 19.93679
vt 44.2917 18.49567
vt 47.82127 16.78375
vt 49.36216 19.93679
vt 49.31622 20.06667
vt 44.24793 18.61792
vt 45.90052 21.99579
vt -26.48039 -12.18625
vt -28.55197 -17.68494
vt -30.04386 -13.82644
vt -28.55197 -17.68494
vt -26.48039 -12.18625
vt -30.04386 -13.82644
vt 44.24793 18.61792
vt 49.31622 20.06667
vt 45.90052 21.99579
vt -33.00586 23.6347
vt -30.39346 20.92981
vt -32.41563 17.78568
vt -30.39346 20.92981
vt -33.00586 23.6347
vt -32.41563 17.78568
vt 23.95457 -12.02332
vt 26.016 -15.8551
vt 22.13431 -15.28849
vt 26.016 -15.8551
vt 23.95457 -12.02332
vt 22.13431 -15.28849
vt -43.2789 26.68092
vt -44.92035 30.35926
vt -39.7203 28.33164
vt -44.92035 30.35926
vt -43.2789 26.68092
vt -39.7203 28.33164
vt -46.63588 27.53504
vt -43.35934 29.69208
vt -41.33036 25.80208
vt -43.35934 29.69208
vt -46.63588 27.53504
vt -41.33036 25.80208
vt -43.66454 15.63181
vt -40.58277 19.92892
vt -39.53719 14.14393
vt -40.58277 19.92892
vt -43.66454 15.63181
vt -39.53719 14.14393
vt -17.59009 -16.76743
vt -15.29198 -21.5299
vt -19.10674 -22.44429
vt -15.29198 -21.5299
vt -17.59009 -16.76743
vt -19.10674 -22.44429
vt 40.76251 22.93974
vt 36.95705 21.61948
vt 36.13681 24.12977
vt 36.95705 21.61948
vt 40.76251 22.93974
vt 36.13681 24.12977
vt 31.84087 -5.543354
vt 35.51857 -6.908278
vt 34.2024 -9.197824
vt 35.51857 -6.908278
vt 31.84087 -5.543354
vt 34.2024 -9.197824
vn 0.7195874 -0.2918139 -0.6301101
vn 0.7195874 -0.2918139 -0.6301101
vn 0.7195874 -0.2918139 -0.6301101
vn -0.7195874 0.2918139 0.6301101
vn -0.7195874 0.2918139 0.6301101
vn -0.7195874 0.2918139 0.6301101
vn 0.6571218 0.6639722 0.3568359
vn 0.6571218 0.6639722 0.3568359
vn 0.6571218 0.6639722 0.3568359
vn -0.6571218 -0.6639722 -0.3568359
vn -0.6571218 -0.6639722 -0.3568359
vn -0.6571218 -0.6639722 -0.3568359
vn 0.652865 0.668373 0.3564332
vn 0.652865 0.668373 0.3564332
vn 0.652865 0.668373 0.3564332
vn -0.4123152 0.4843788 -0.7716044
vn -0.4123152 0.4843788 -0.7716044
vn -0.4123152 0.4843788 -0.7716044
vn 0.4123152 -0.4843788 0.7716044
vn 0.4123152 -0.4843788 0.7716044
vn 0.4123152 -0.4843788 0.7716044
vn -0.652865 -0.668373 -0.3564332
vn -0.652865 -0.668373 -0.3564332
vn -0.652865 -0.668373 -0.3564332
vn -0.6435834 0.3703513 0.6698062
vn -0.6435834 0.3703513 0.6698062
vn -0.6435834 0.3703513 0.6698062
vn 0.6435834 -0.3703513 -0.6698062
vn 0.6435834 -0.3703513 -0.6698062
vn 0.6435834 -0.3703513 -0.6698062
vn 0.3753493 -0.4471551 0.81189
vn 0.3753493 -0.4471551 0.81189
vn 0.3753493 -0.4471551 0.81189
vn -0.3753493 0.4471551 -0.81189
vn -0.3753493 0.4471551 -0.81189
vn -0.3753493 0.4471551 -0.81189
vn -0.2431391 -0.9517025 -0.1874719
vn -0.2431391 -0.9517025 -0.1874719
vn -0.2431391 -0.9517025 -0.1874719
vn 0.2431391 0.9517025 0.1874719
vn 0.2431391 0.9517025 0.1874719
vn 0.2431391 0.9517025 0.1874719
vn -0.297011 -0.9332512 -0.2020561
vn -0.297011 -0.9332512 -0.2020561
vn -0.297011 -0.9332512 -0.2020561
vn 0.297011 0.9332512 0.2020561
vn 0.297011 0.9332512 0.2020561
vn 0.297011 0.9332512 0.2020561
vn -0.7819844 0.3434472 0.5201388
vn -0.7819844 0.3434472 0.5201388
vn -0.7819844 0.3434472 0.5201388
vn 0.7819844 -0.3434472 -0.5201388
vn 0.7819844 -0.3434472 -0.5201388
vn 0.7819844 -0.3434472 -0.5201388
vn -0.2471021 0.5309545 -0.8105726
vn -0.2471021 0.5309545 -0.8105726
vn -0.2471021 0.5309545 -0.8105726
vn 0.2471021 -0.5309545 0.8105726
vn 0.2471021 -0.5309545 0.8105726
vn 0.2471021 -0.5309545 0.8105726
vn 0.6792356 -0.5179929 -0.5199252
vn 0.6792356 -0.5179929 -0.5199252
vn 0.6792356 -0.5179929 -0.5199252
vn -0.6792356 0.5179929 0.5199252
vn -0.6792356 0.5179929 0.5199252
vn -0.6792356 0.5179929 0.5199252
vn 0.5553146 -0.3470316 0.7557743
vn 0.5553146 -0.3470316 0.7557743
vn 0.5553146 -0.3470316 0.7557743
vn -0.5553146 0.3470316 -0.7557743
vn -0.5553146 0.3470316 -0.7557743
vn -0.5553146 0.3470316 -0.7557743
g Mesh33_0
f 3/3/3 2/2/2 1/1/1
f 6/6/6 5/5/5 4/4/4
f 9/9/9 8/8/8 7/7/7
f 12/12/12 11/11/11 10/10/10
f 15/15/15 14/14/14 13/13/13
f 18/18/18 17/17/17 16/16/16
f 21/21/21 20/20/20 19/19/19
f 24/24/24 23/23/23 22/22/22
f 27/27/27 26/26/26 25/25/25
f 30/30/30 29/29/29 28/28/28
f 33/33/33 32/32/32 31/31/31
f 36/36/36 35/35/35 34/34/34
f 39/39/39 38/38/38 37/37/37
f 42/42/42 41/41/41 40/40/40
f 45/45/45 44/44/44 43/43/43
f 48/48/48 47/47/47 46/46/46
f 51/51/51 50/50/50 49/49/49
f 54/54/54 53/53/53 52/52/52
f 57/57/57 56/56/56 55/55/55
f 60/60/60 59/59/59 58/58/58
f 63/63/63 62/62/62 61/61/61
f 66/66/66 65/65/65 64/64/64
f 69/69/69 68/68/68 67/67/67
f 72/72/72 71/71/71 70/70/70
