g Mesh55
v -202.9046 159.1803 -1171.578
v -245.4894 159.3979 -1190.643
v -205.2304 158.5556 -1232.082
v -245.4894 159.3979 -1190.643
v -202.9046 159.1803 -1171.578
v -205.2304 158.5556 -1232.082
v -245.4894 159.3979 -1190.643
v -247.0206 158.5556 -1230.476
v -205.2304 158.5556 -1232.082
v -247.0206 158.5556 -1230.476
v -245.4894 159.3979 -1190.643
v -205.2304 158.5556 -1232.082
v -307.355 181.4349 -1238.022
v -309.2754 182.0774 -1287.981
v -249.3197 182.0774 -1290.286
v -247.3992 181.4349 -1240.327
v -309.2754 182.0774 -1287.981
v -307.355 181.4349 -1238.022
v -249.3197 182.0774 -1290.286
v -247.3992 181.4349 -1240.327
v -249.3197 182.0774 -1290.286
v -309.2754 182.0774 -1287.981
v -309.3968 -63.91688 -1291.14
v -249.4411 -63.91688 -1293.445
v -309.2754 182.0774 -1287.981
v -249.3197 182.0774 -1290.286
v -309.3968 -63.91688 -1291.14
v -249.4411 -63.91688 -1293.445
v -307.6164 -66.51518 -1244.823
v -309.347 -67.99 -1289.843
v -309.3968 -63.91688 -1291.14
v -307.4764 -64.55936 -1241.181
v -305.5478 -48.49101 -1191.007
v -309.2754 182.0774 -1287.981
v -305.436 177.8145 -1188.101
v -307.355 181.4349 -1238.022
v -307.2094 182.8331 -1234.234
v -309.347 -67.99 -1289.843
v -307.6164 -66.51518 -1244.823
v -309.3968 -63.91688 -1291.14
v -307.4764 -64.55936 -1241.181
v -305.5478 -48.49101 -1191.007
v -309.2754 182.0774 -1287.981
v -305.436 177.8145 -1188.101
v -307.355 181.4349 -1238.022
v -307.2094 182.8331 -1234.234
v -309.3968 -63.91688 -1291.14
v -309.347 -67.99 -1289.843
v -249.3913 -67.99 -1292.148
v -249.4411 -63.91688 -1293.445
v -309.347 -67.99 -1289.843
v -309.3968 -63.91688 -1291.14
v -249.3913 -67.99 -1292.148
v -249.4411 -63.91688 -1293.445
v -247.6607 -66.51519 -1247.128
v -249.3913 -67.99 -1292.148
v -309.347 -67.99 -1289.843
v -307.6164 -66.51518 -1244.823
v -249.3913 -67.99 -1292.148
v -247.6607 -66.51519 -1247.128
v -309.347 -67.99 -1289.843
v -307.6164 -66.51518 -1244.823
v -247.6607 -66.51519 -1247.128
v -307.6164 -66.51518 -1244.823
v -307.4764 -64.55936 -1241.181
v -247.5207 -64.55936 -1243.486
v -307.6164 -66.51518 -1244.823
v -247.6607 -66.51519 -1247.128
v -307.4764 -64.55936 -1241.181
v -247.5207 -64.55936 -1243.486
v -307.4764 -64.55936 -1241.181
v -305.5478 -48.49101 -1191.007
v -245.592 -48.49101 -1193.312
v -247.5207 -64.55936 -1243.486
v -247.5207 -64.55936 -1243.486
v -245.592 -48.49101 -1193.312
v -307.4764 -64.55936 -1241.181
v -305.5478 -48.49101 -1191.007
v -249.4411 -63.91688 -1293.445
v -249.3913 -67.99 -1292.148
v -247.6607 -66.51519 -1247.128
v -247.5207 -64.55936 -1243.486
v -245.592 -48.49101 -1193.312
v -247.2845 -33.57996 -1237.34
v -245.585 -34.14853 -1193.128
v -249.3197 182.0774 -1290.286
v -247.199 139.5845 -1235.116
v -247.0206 158.5556 -1230.476
v -245.4894 159.3979 -1190.643
v -245.4803 177.8145 -1190.406
v -247.3992 181.4349 -1240.327
v -247.2537 182.8331 -1236.539
v -249.3913 -67.99 -1292.148
v -249.4411 -63.91688 -1293.445
v -247.6607 -66.51519 -1247.128
v -247.5207 -64.55936 -1243.486
v -245.592 -48.49101 -1193.312
v -247.2845 -33.57996 -1237.34
v -245.585 -34.14853 -1193.128
v -249.3197 182.0774 -1290.286
v -247.199 139.5845 -1235.116
v -247.0206 158.5556 -1230.476
v -245.4894 159.3979 -1190.643
v -245.4803 177.8145 -1190.406
v -247.3992 181.4349 -1240.327
v -247.2537 182.8331 -1236.539
v -307.2094 182.8331 -1234.234
v -307.355 181.4349 -1238.022
v -247.3992 181.4349 -1240.327
v -247.2537 182.8331 -1236.539
v -307.355 181.4349 -1238.022
v -307.2094 182.8331 -1234.234
v -247.3992 181.4349 -1240.327
v -247.2537 182.8331 -1236.539
v -305.436 177.8145 -1188.101
v -307.2094 182.8331 -1234.234
v -247.2537 182.8331 -1236.539
v -245.4803 177.8145 -1190.406
v -307.2094 182.8331 -1234.234
v -305.436 177.8145 -1188.101
v -247.2537 182.8331 -1236.539
v -245.4803 177.8145 -1190.406
v -245.4803 177.8145 -1190.406
v -245.4894 159.3979 -1190.643
v -302.3411 159.3979 -1188.457
v -305.436 177.8145 -1188.101
v -302.4366 -34.14853 -1190.943
v -305.5478 -48.49101 -1191.007
v -245.592 -48.49101 -1193.312
v -245.585 -34.14853 -1193.128
v -245.4894 159.3979 -1190.643
v -245.4803 177.8145 -1190.406
v -302.3411 159.3979 -1188.457
v -305.436 177.8145 -1188.101
v -302.4366 -34.14853 -1190.943
v -305.5478 -48.49101 -1191.007
v -245.592 -48.49101 -1193.312
v -245.585 -34.14853 -1193.128
v -301.5465 159.1803 -1167.786
v -302.3411 159.3979 -1188.457
v -245.4894 159.3979 -1190.643
v -202.9046 159.1803 -1171.578
v -302.3411 159.3979 -1188.457
v -301.5465 159.1803 -1167.786
v -245.4894 159.3979 -1190.643
v -202.9046 159.1803 -1171.578
v -301.6421 -34.41434 -1170.272
v -301.5465 159.1803 -1167.786
v -202.9046 159.1803 -1171.578
v -203.0002 -34.41435 -1174.064
v -301.5465 159.1803 -1167.786
v -301.6421 -34.41434 -1170.272
v -202.9046 159.1803 -1171.578
v -203.0002 -34.41435 -1174.064
v -302.4366 -34.14853 -1190.943
v -301.6421 -34.41434 -1170.272
v -203.0002 -34.41435 -1174.064
v -245.585 -34.14853 -1193.128
v -247.2845 -33.57996 -1237.34
v -205.4942 -33.57996 -1238.946
v -205.4942 -33.57996 -1238.946
v -203.0002 -34.41435 -1174.064
v -247.2845 -33.57996 -1237.34
v -245.585 -34.14853 -1193.128
v -302.4366 -34.14853 -1190.943
v -301.6421 -34.41434 -1170.272
v -247.199 139.5845 -1235.116
v -247.2845 -33.57996 -1237.34
v -205.4942 -33.57996 -1238.946
v -205.4088 139.5845 -1236.723
v -247.2845 -33.57996 -1237.34
v -247.199 139.5845 -1235.116
v -205.4942 -33.57996 -1238.946
v -205.4088 139.5845 -1236.723
v -247.199 139.5845 -1235.116
v -205.4088 139.5845 -1236.723
v -205.2304 158.5556 -1232.082
v -247.0206 158.5556 -1230.476
v -247.0206 158.5556 -1230.476
v -205.2304 158.5556 -1232.082
v -247.199 139.5845 -1235.116
v -205.4088 139.5845 -1236.723
v -202.9046 159.1803 -1171.578
v -205.2304 158.5556 -1232.082
v -205.4088 139.5845 -1236.723
v -203.0002 -34.41435 -1174.064
v -205.4942 -33.57996 -1238.946
v -205.4942 -33.57996 -1238.946
v -205.4088 139.5845 -1236.723
v -203.0002 -34.41435 -1174.064
v -202.9046 159.1803 -1171.578
v -205.2304 158.5556 -1232.082
v -301.5465 159.1803 -1167.786
v -301.6421 -34.41434 -1170.272
v -302.4366 -34.14853 -1190.943
v -302.3411 159.3979 -1188.457
v -301.6421 -34.41434 -1170.272
v -301.5465 159.1803 -1167.786
v -302.4366 -34.14853 -1190.943
v -302.3411 159.3979 -1188.457
vt -559.4076 293.8963
vt -375.8672 286.4144
vt -462.5225 76.07796
vt -375.8672 286.4144
vt -559.4076 293.8963
vt -462.5225 76.07796
vt -236.2205 424.0573
vt -236.2205 267.0828
vt -400.8703 267.0828
vt -236.2205 267.0828
vt -236.2205 424.0573
vt -400.8703 267.0828
vt 196.8504 0
vt 0 0
vt 4.547474E-13 236.2205
vt 196.8504 236.2205
vt 0 0
vt 196.8504 0
vt 4.547474E-13 236.2205
vt 196.8504 236.2205
vt -236.2205 984.5303
vt 0 984.5303
vt 2.391235E-30 15.9689
vt -236.2205 15.9689
vt 0 984.5303
vt -236.2205 984.5303
vt 2.391235E-30 15.9689
vt -236.2205 15.9689
vt 182.6017 8.085039
vt 5.315984 2.842171E-14
vt 4.547474E-13 15.9689
vt 196.8504 15.9689
vt 393.7008 81.76496
vt 0 984.5303
vt 393.7008 972.8051
vt 196.8504 984.5303
vt 211.7015 990.2264
vt 5.315984 2.842171E-14
vt 182.6017 8.085039
vt 4.547474E-13 15.9689
vt 196.8504 15.9689
vt 393.7008 81.76496
vt 0 984.5303
vt 393.7008 972.8051
vt 196.8504 984.5303
vt 211.7015 990.2264
vt 1.659765E-30 15.15141
vt 4.547668E-13 -1.679077
vt -236.2205 -1.679077
vt -236.2205 15.15141
vt 4.547668E-13 -1.679077
vt 1.659765E-30 15.15141
vt -236.2205 -1.679077
vt -236.2205 15.15141
vt 236.2205 182.7805
vt 236.2205 5.310465
vt -4.547474E-13 5.310465
vt 0 182.7805
vt 236.2205 5.310465
vt 236.2205 182.7805
vt -4.547474E-13 5.310465
vt 0 182.7805
vt 236.2205 163.6893
vt -2.617135E-15 163.6893
vt -2.821354E-15 179.9736
vt 236.2205 179.9736
vt -2.617135E-15 163.6893
vt 236.2205 163.6893
vt -2.821354E-15 179.9736
vt 236.2205 179.9736
vt 4.308841E-15 191.7598
vt -4.461297E-13 399.3151
vt 236.2205 399.3151
vt 236.2205 191.7598
vt 236.2205 191.7598
vt 236.2205 399.3151
vt 4.308841E-15 191.7598
vt -4.461297E-13 399.3151
vt -4.535052E-13 15.9689
vt -5.315984 0
vt -182.6017 8.085039
vt -196.8504 15.9689
vt -393.7008 81.76496
vt -219.4953 138.2361
vt -393.7008 138.2361
vt -4.535052E-13 984.5303
vt -219.4953 820.0421
vt -236.8169 894.9604
vt -393.7008 900.293
vt -393.7008 972.8051
vt -196.8504 984.5303
vt -211.7015 990.2264
vt -5.315984 0
vt -4.535052E-13 15.9689
vt -182.6017 8.085039
vt -196.8504 15.9689
vt -393.7008 81.76496
vt -219.4953 138.2361
vt -393.7008 138.2361
vt -4.535052E-13 984.5303
vt -219.4953 820.0421
vt -236.8169 894.9604
vt -393.7008 900.293
vt -393.7008 972.8051
vt -196.8504 984.5303
vt -211.7015 990.2264
vt 0 552.2691
vt 0 536.3631
vt -236.2205 536.3631
vt -236.2205 552.2691
vt 0 536.3631
vt 0 552.2691
vt -236.2205 536.3631
vt -236.2205 552.2691
vt 0 -299.2147
vt 0 -116.3835
vt 236.2205 -116.3835
vt 236.2205 -299.2147
vt 0 -116.3835
vt 0 -299.2147
vt 236.2205 -116.3835
vt 236.2205 -299.2147
vt 236.2205 972.8051
vt 236.2205 900.293
vt 12.22968 900.293
vt -2.070229E-15 972.8051
vt 12.22968 138.2361
vt -4.568176E-13 81.76496
vt 236.2205 81.76496
vt 236.2205 138.2361
vt 236.2205 900.293
vt 236.2205 972.8051
vt 12.22968 900.293
vt -2.070229E-15 972.8051
vt 12.22968 138.2361
vt -4.568176E-13 81.76496
vt 236.2205 81.76496
vt 236.2205 138.2361
vt -12.22968 477.2425
vt -12.22968 395.7965
vt -236.2205 395.7965
vt -400.8703 477.2425
vt -12.22968 395.7965
vt -12.22968 477.2425
vt -236.2205 395.7965
vt -400.8703 477.2425
vt 12.22968 138.2361
vt 12.22968 900.4827
vt 400.8703 900.4827
vt 400.8703 138.2361
vt 12.22968 900.4827
vt 12.22968 138.2361
vt 400.8703 900.4827
vt 400.8703 138.2361
vt -393.7008 12.22968
vt -475.1466 12.22968
vt -475.1466 400.8703
vt -393.7008 236.2205
vt -219.4953 236.2205
vt -219.4953 400.8703
vt -219.4953 400.8703
vt -475.1466 400.8703
vt -219.4953 236.2205
vt -393.7008 236.2205
vt -393.7008 12.22968
vt -475.1466 12.22968
vt -236.2205 820.0421
vt -236.2205 138.2361
vt -400.8703 138.2361
vt -400.8703 820.0421
vt -236.2205 138.2361
vt -236.2205 820.0421
vt -400.8703 138.2361
vt -400.8703 820.0421
vt -236.2205 848.4095
vt -400.8703 848.4095
vt -400.8703 925.3043
vt -236.2205 925.3043
vt -236.2205 925.3043
vt -400.8703 925.3043
vt -236.2205 848.4095
vt -400.8703 848.4095
vt -475.1466 900.4827
vt -236.8169 894.9604
vt -219.4953 820.0421
vt -475.1466 138.2361
vt -219.4953 138.2361
vt -219.4953 138.2361
vt -219.4953 820.0421
vt -475.1466 138.2361
vt -475.1466 900.4827
vt -236.8169 894.9604
vt 475.1466 900.4827
vt 475.1466 138.2361
vt 393.7008 138.2361
vt 393.7008 900.293
vt 475.1466 138.2361
vt 475.1466 900.4827
vt 393.7008 138.2361
vt 393.7008 900.293
vn 0.009902409 0.9998937 -0.01070415
vn 0.009902409 0.9998937 -0.01070415
vn 0.009902409 0.9998937 -0.01070415
vn -0.009902409 -0.9998937 0.01070415
vn -0.009902409 -0.9998937 0.01070415
vn -0.009902409 -0.9998937 0.01070415
vn -0.0008114412 0.9997768 -0.0211104
vn -0.0008114412 0.9997768 -0.0211104
vn -0.0008114412 0.9997768 -0.0211104
vn 0.0008114412 -0.9997768 0.0211104
vn 0.0008114412 -0.9997768 0.0211104
vn 0.0008114412 -0.9997768 0.0211104
vn 0.0004936018 0.9999175 0.01284
vn 0.0004936018 0.9999175 0.01284
vn 0.0004936018 0.9999175 0.01284
vn 0.0004936018 0.9999175 0.01284
vn -0.0004936018 -0.9999175 -0.01284
vn -0.0004936018 -0.9999175 -0.01284
vn -0.0004936018 -0.9999175 -0.01284
vn -0.0004936018 -0.9999175 -0.01284
vn -0.03840816 0.01284949 -0.9991795
vn -0.03840816 0.01284949 -0.9991795
vn -0.03840816 0.01284949 -0.9991795
vn -0.03840816 0.01284949 -0.9991795
vn 0.03840816 -0.01284949 0.9991795
vn 0.03840816 -0.01284949 0.9991795
vn 0.03840816 -0.01284949 0.9991795
vn 0.03840816 -0.01284949 0.9991795
vn -0.999262 0 0.03841133
vn -0.999262 0 0.03841133
vn -0.999262 0 0.03841133
vn -0.999262 0 0.03841133
vn -0.999262 0 0.03841133
vn -0.999262 0 0.03841133
vn -0.999262 0 0.03841133
vn -0.999262 0 0.03841133
vn -0.999262 0 0.03841133
vn 0.999262 0 -0.03841133
vn 0.999262 0 -0.03841133
vn 0.999262 0 -0.03841133
vn 0.999262 0 -0.03841133
vn 0.999262 0 -0.03841133
vn 0.999262 0 -0.03841133
vn 0.999262 0 -0.03841133
vn 0.999262 0 -0.03841133
vn 0.999262 0 -0.03841133
vn -0.03659786 -0.3036366 -0.9520847
vn -0.03659786 -0.3036366 -0.9520847
vn -0.03659786 -0.3036366 -0.9520847
vn -0.03659786 -0.3036366 -0.9520847
vn 0.03659786 0.3036366 0.9520847
vn 0.03659786 0.3036366 0.9520847
vn 0.03659786 0.3036366 0.9520847
vn 0.03659786 0.3036366 0.9520847
vn 0.001256679 -0.9994647 0.03269317
vn 0.001256679 -0.9994647 0.03269317
vn 0.001256679 -0.9994647 0.03269317
vn 0.001256679 -0.9994647 0.03269317
vn -0.001256679 0.9994647 -0.03269317
vn -0.001256679 0.9994647 -0.03269317
vn -0.001256679 0.9994647 -0.03269317
vn -0.001256679 0.9994647 -0.03269317
vn 0.01816294 -0.8811405 0.4725056
vn 0.01816294 -0.8811405 0.4725056
vn 0.01816294 -0.8811405 0.4725056
vn 0.01816294 -0.8811405 0.4725056
vn -0.01816294 0.8811405 -0.4725056
vn -0.01816294 0.8811405 -0.4725056
vn -0.01816294 0.8811405 -0.4725056
vn -0.01816294 0.8811405 -0.4725056
vn 0.01170743 -0.9524189 0.3045671
vn 0.01170743 -0.9524189 0.3045671
vn 0.01170743 -0.9524189 0.3045671
vn 0.01170743 -0.9524189 0.3045671
vn -0.01170743 0.9524189 -0.3045671
vn -0.01170743 0.9524189 -0.3045671
vn -0.01170743 0.9524189 -0.3045671
vn -0.01170743 0.9524189 -0.3045671
vn 0.999262 0 -0.03841133
vn 0.999262 0 -0.03841133
vn 0.999262 0 -0.03841133
vn 0.999262 0 -0.03841133
vn 0.999262 0 -0.03841133
vn 0.999262 0 -0.03841133
vn 0.999262 0 -0.03841133
vn 0.999262 0 -0.03841133
vn 0.999262 0 -0.03841133
vn 0.999262 0 -0.03841133
vn 0.999262 0 -0.03841133
vn 0.999262 0 -0.03841133
vn 0.999262 0 -0.03841133
vn 0.999262 0 -0.03841133
vn -0.999262 0 0.03841133
vn -0.999262 0 0.03841133
vn -0.999262 0 0.03841133
vn -0.999262 0 0.03841133
vn -0.999262 0 0.03841133
vn -0.999262 0 0.03841133
vn -0.999262 0 0.03841133
vn -0.999262 0 0.03841133
vn -0.999262 0 0.03841133
vn -0.999262 0 0.03841133
vn -0.999262 0 0.03841133
vn -0.999262 0 0.03841133
vn -0.999262 0 0.03841133
vn -0.999262 0 0.03841133
vn -0.01329338 0.9382048 -0.3458253
vn -0.01329338 0.9382048 -0.3458253
vn -0.01329338 0.9382048 -0.3458253
vn -0.01329338 0.9382048 -0.3458253
vn 0.01329338 -0.9382048 0.3458253
vn 0.01329338 -0.9382048 0.3458253
vn 0.01329338 -0.9382048 0.3458253
vn 0.01329338 -0.9382048 0.3458253
vn 0.004151118 0.9941434 0.1079895
vn 0.004151118 0.9941434 0.1079895
vn 0.004151118 0.9941434 0.1079895
vn 0.004151118 0.9941434 0.1079895
vn -0.004151118 -0.9941434 -0.1079895
vn -0.004151118 -0.9941434 -0.1079895
vn -0.004151118 -0.9941434 -0.1079895
vn -0.004151118 -0.9941434 -0.1079895
vn 0.03840816 -0.01284949 0.9991795
vn 0.03840816 -0.01284949 0.9991795
vn 0.03840816 -0.01284949 0.9991795
vn 0.03840816 -0.01284949 0.9991795
vn 0.03840816 -0.01284949 0.9991795
vn 0.03840816 -0.01284949 0.9991795
vn 0.03840816 -0.01284949 0.9991795
vn 0.03840816 -0.01284949 0.9991795
vn -0.03840816 0.01284949 -0.9991795
vn -0.03840816 0.01284949 -0.9991795
vn -0.03840816 0.01284949 -0.9991795
vn -0.03840816 0.01284949 -0.9991795
vn -0.03840816 0.01284949 -0.9991795
vn -0.03840816 0.01284949 -0.9991795
vn -0.03840816 0.01284949 -0.9991795
vn -0.03840816 0.01284949 -0.9991795
vn 0.0004041492 0.9999447 0.01051291
vn 0.0004041492 0.9999447 0.01051291
vn 0.0004041492 0.9999447 0.01051291
vn 0.0004041492 0.9999447 0.01051291
vn -0.0004041492 -0.9999447 -0.01051291
vn -0.0004041492 -0.9999447 -0.01051291
vn -0.0004041492 -0.9999447 -0.01051291
vn -0.0004041492 -0.9999447 -0.01051291
vn 0.03840816 -0.01284949 0.9991795
vn 0.03840816 -0.01284949 0.9991795
vn 0.03840816 -0.01284949 0.9991795
vn 0.03840816 -0.01284949 0.9991795
vn -0.03840816 0.01284949 -0.9991795
vn -0.03840816 0.01284949 -0.9991795
vn -0.03840816 0.01284949 -0.9991795
vn -0.03840816 0.01284949 -0.9991795
vn -0.0004936018 -0.9999175 -0.01284
vn -0.0004936018 -0.9999175 -0.01284
vn -0.0004936018 -0.9999175 -0.01284
vn -0.0004936018 -0.9999175 -0.01284
vn -0.0004936018 -0.9999175 -0.01284
vn -0.0004936018 -0.9999175 -0.01284
vn 0.0004936018 0.9999175 0.01284
vn 0.0004936018 0.9999175 0.01284
vn 0.0004936018 0.9999175 0.01284
vn 0.0004936018 0.9999175 0.01284
vn 0.0004936018 0.9999175 0.01284
vn 0.0004936018 0.9999175 0.01284
vn -0.03840816 0.01284952 -0.9991795
vn -0.03840816 0.01284952 -0.9991795
vn -0.03840816 0.01284952 -0.9991795
vn -0.03840816 0.01284952 -0.9991795
vn 0.03840816 -0.01284952 0.9991795
vn 0.03840816 -0.01284952 0.9991795
vn 0.03840816 -0.01284952 0.9991795
vn 0.03840816 -0.01284952 0.9991795
vn -0.03730979 0.2377647 -0.970606
vn -0.03730979 0.2377647 -0.970606
vn -0.03730979 0.2377647 -0.970606
vn -0.03730979 0.2377647 -0.970606
vn 0.03730979 -0.2377647 0.970606
vn 0.03730979 -0.2377647 0.970606
vn 0.03730979 -0.2377647 0.970606
vn 0.03730979 -0.2377647 0.970606
vn 0.999262 0 -0.03841133
vn 0.999262 0 -0.03841133
vn 0.999262 0 -0.03841133
vn 0.999262 0 -0.03841133
vn 0.999262 0 -0.03841133
vn -0.999262 0 0.03841133
vn -0.999262 0 0.03841133
vn -0.999262 0 0.03841133
vn -0.999262 0 0.03841133
vn -0.999262 0 0.03841133
vn -0.999262 0 0.03841133
vn -0.999262 0 0.03841133
vn -0.999262 0 0.03841133
vn -0.999262 0 0.03841133
vn 0.999262 0 -0.03841133
vn 0.999262 0 -0.03841133
vn 0.999262 0 -0.03841133
vn 0.999262 0 -0.03841133
g Mesh55_0
f 3/3/3 2/2/2 1/1/1
f 6/6/6 5/5/5 4/4/4
f 9/9/9 8/8/8 7/7/7
f 12/12/12 11/11/11 10/10/10
f 15/15/15 14/14/14 13/13/13
f 13/13/13 16/16/16 15/15/15
f 19/19/19 18/18/18 17/17/17
f 18/18/18 19/19/19 20/20/20
f 23/23/23 22/22/22 21/21/21
f 21/21/21 24/24/24 23/23/23
f 27/27/27 26/26/26 25/25/25
f 26/26/26 27/27/27 28/28/28
f 31/31/31 30/30/30 29/29/29
f 29/29/29 32/32/32 31/31/31
f 32/32/32 33/33/33 31/31/31
f 33/33/33 34/34/34 31/31/31
f 33/33/33 35/35/35 34/34/34
f 35/35/35 36/36/36 34/34/34
f 36/36/36 35/35/35 37/37/37
f 40/40/40 39/39/39 38/38/38
f 39/39/39 40/40/40 41/41/41
f 41/41/41 40/40/40 42/42/42
f 42/42/42 40/40/40 43/43/43
f 42/42/42 43/43/43 44/44/44
f 44/44/44 43/43/43 45/45/45
f 45/45/45 46/46/46 44/44/44
f 49/49/49 48/48/48 47/47/47
f 47/47/47 50/50/50 49/49/49
f 53/53/53 52/52/52 51/51/51
f 52/52/52 53/53/53 54/54/54
f 57/57/57 56/56/56 55/55/55
f 55/55/55 58/58/58 57/57/57
f 61/61/61 60/60/60 59/59/59
f 60/60/60 61/61/61 62/62/62
f 65/65/65 64/64/64 63/63/63
f 63/63/63 66/66/66 65/65/65
f 69/69/69 68/68/68 67/67/67
f 68/68/68 69/69/69 70/70/70
f 73/73/73 72/72/72 71/71/71
f 71/71/71 74/74/74 73/73/73
f 77/77/77 76/76/76 75/75/75
f 76/76/76 77/77/77 78/78/78
f 81/81/81 80/80/80 79/79/79
f 79/79/79 82/82/82 81/81/81
f 79/79/79 83/83/83 82/82/82
f 79/79/79 84/84/84 83/83/83
f 83/83/83 84/84/84 85/85/85
f 79/79/79 86/86/86 84/84/84
f 86/86/86 87/87/87 84/84/84
f 86/86/86 88/88/88 87/87/87
f 86/86/86 89/89/89 88/88/88
f 86/86/86 90/90/90 89/89/89
f 86/86/86 91/91/91 90/90/90
f 91/91/91 92/92/92 90/90/90
f 95/95/95 94/94/94 93/93/93
f 94/94/94 95/95/95 96/96/96
f 94/94/94 96/96/96 97/97/97
f 94/94/94 97/97/97 98/98/98
f 97/97/97 99/99/99 98/98/98
f 94/94/94 98/98/98 100/100/100
f 100/100/100 98/98/98 101/101/101
f 100/100/100 101/101/101 102/102/102
f 100/100/100 102/102/102 103/103/103
f 100/100/100 103/103/103 104/104/104
f 100/100/100 104/104/104 105/105/105
f 105/105/105 104/104/104 106/106/106
f 109/109/109 108/108/108 107/107/107
f 107/107/107 110/110/110 109/109/109
f 113/113/113 112/112/112 111/111/111
f 112/112/112 113/113/113 114/114/114
f 117/117/117 116/116/116 115/115/115
f 115/115/115 118/118/118 117/117/117
f 121/121/121 120/120/120 119/119/119
f 120/120/120 121/121/121 122/122/122
f 125/125/125 124/124/124 123/123/123
f 125/125/125 123/123/123 126/126/126
f 126/126/126 127/127/127 125/125/125
f 127/127/127 126/126/126 128/128/128
f 128/128/128 129/129/129 127/127/127
f 129/129/129 130/130/130 127/127/127
f 133/133/133 132/132/132 131/131/131
f 133/133/133 134/134/134 132/132/132
f 134/134/134 133/133/133 135/135/135
f 135/135/135 136/136/136 134/134/134
f 136/136/136 135/135/135 137/137/137
f 137/137/137 135/135/135 138/138/138
f 141/141/141 140/140/140 139/139/139
f 139/139/139 142/142/142 141/141/141
f 145/145/145 144/144/144 143/143/143
f 144/144/144 145/145/145 146/146/146
f 149/149/149 148/148/148 147/147/147
f 147/147/147 150/150/150 149/149/149
f 153/153/153 152/152/152 151/151/151
f 152/152/152 153/153/153 154/154/154
f 157/157/157 156/156/156 155/155/155
f 157/157/157 155/155/155 158/158/158
f 157/157/157 158/158/158 159/159/159
f 159/159/159 160/160/160 157/157/157
f 163/163/163 162/162/162 161/161/161
f 162/162/162 163/163/163 164/164/164
f 162/162/162 164/164/164 165/165/165
f 162/162/162 165/165/165 166/166/166
f 169/169/169 168/168/168 167/167/167
f 167/167/167 170/170/170 169/169/169
f 173/173/173 172/172/172 171/171/171
f 172/172/172 173/173/173 174/174/174
f 177/177/177 176/176/176 175/175/175
f 175/175/175 178/178/178 177/177/177
f 181/181/181 180/180/180 179/179/179
f 180/180/180 181/181/181 182/182/182
f 185/185/185 184/184/184 183/183/183
f 185/185/185 183/183/183 186/186/186
f 186/186/186 187/187/187 185/185/185
f 190/190/190 189/189/189 188/188/188
f 189/189/189 190/190/190 191/191/191
f 189/189/189 191/191/191 192/192/192
f 195/195/195 194/194/194 193/193/193
f 193/193/193 196/196/196 195/195/195
f 199/199/199 198/198/198 197/197/197
f 198/198/198 199/199/199 200/200/200
