g Mesh26
v 338.8436 23.5 -131.3474
v 338.8436 18.1 -131.3474
v 338.8436 18.1 -134.617
v 338.8436 23.5 -134.617
v 338.8436 18.1 -131.3474
v 338.8436 23.5 -131.3474
v 338.8436 18.1 -134.617
v 338.8436 23.5 -134.617
v 338.8436 23.5 -131.3474
v 338.8436 23.5 -134.617
v 340.4111 23.5 -134.617
v 340.4111 23.5 -131.3474
v 340.4111 23.5 -131.3474
v 340.4111 23.5 -134.617
v 338.8436 23.5 -131.3474
v 338.8436 23.5 -134.617
v 338.8436 23.5 -131.3474
v 340.4111 23.5 -131.3474
v 340.4111 18.1 -131.3474
v 338.8436 18.1 -131.3474
v 340.4111 23.5 -131.3474
v 338.8436 23.5 -131.3474
v 340.4111 18.1 -131.3474
v 338.8436 18.1 -131.3474
v 340.4111 18.1 -131.3474
v 340.4111 23.5 -131.3474
v 340.4111 23.5 -134.617
v 340.4111 18.1 -134.617
v 340.4111 18.1 -134.617
v 340.4111 23.5 -134.617
v 340.4111 18.1 -131.3474
v 340.4111 23.5 -131.3474
v 338.8436 18.1 -134.617
v 340.4111 18.1 -134.617
v 340.4111 23.5 -134.617
v 338.8436 23.5 -134.617
v 340.4111 18.1 -134.617
v 338.8436 18.1 -134.617
v 340.4111 23.5 -134.617
v 338.8436 23.5 -134.617
v 338.8436 18.1 -128.324
v 338.8436 18.1 -131.3474
v 340.4111 18.1 -131.3474
v 340.4111 18.1 -128.324
v 340.4111 18.1 -128.324
v 340.4111 18.1 -131.3474
v 338.8436 18.1 -128.324
v 338.8436 18.1 -131.3474
vt -2.380591 2.125984
vt -2.380591 1.776357E-15
vt -3.667844 1.776357E-15
vt -3.667844 2.125984
vt -2.380591 1.776357E-15
vt -2.380591 2.125984
vt -3.667844 1.776357E-15
vt -3.667844 2.125984
vt 2.380591 0.617139
vt 3.667844 0.617139
vt 3.667844 6.119378E-15
vt 2.380591 6.119378E-15
vt 2.380591 6.119378E-15
vt 3.667844 6.119378E-15
vt 2.380591 0.617139
vt 3.667844 0.617139
vt -0.617139 2.125984
vt 0 2.125984
vt 0 0
vt -0.617139 1.776357E-15
vt 0 2.125984
vt -0.617139 2.125984
vt 0 0
vt -0.617139 1.776357E-15
vt 2.380591 0
vt 2.380591 2.125984
vt 3.667844 2.125984
vt 3.667844 0
vt 3.667844 0
vt 3.667844 2.125984
vt 2.380591 0
vt 2.380591 2.125984
vt 0.617139 -9.016317E-14
vt -4.512329E-14 -9.193952E-14
vt -4.512329E-14 2.125984
vt 0.617139 2.125984
vt -4.512329E-14 -9.193952E-14
vt 0.617139 -9.016317E-14
vt -4.512329E-14 2.125984
vt 0.617139 2.125984
vt 1.190296 0.617139
vt 2.380591 0.617139
vt 2.380591 2.55651E-30
vt 1.190296 3.834765E-30
vt 1.190296 3.834765E-30
vt 2.380591 2.55651E-30
vt 1.190296 0.617139
vt 2.380591 0.617139
vn -1 0 0
vn -1 0 0
vn -1 0 0
vn -1 0 0
vn 1 0 0
vn 1 0 0
vn 1 0 0
vn 1 0 0
vn 0 1 0
vn 0 1 0
vn 0 1 0
vn 0 1 0
vn 0 -1 0
vn 0 -1 0
vn 0 -1 0
vn 0 -1 0
vn 0 0 1
vn 0 0 1
vn 0 0 1
vn 0 0 1
vn 0 0 -1
vn 0 0 -1
vn 0 0 -1
vn 0 0 -1
vn 1 0 0
vn 1 0 0
vn 1 0 0
vn 1 0 0
vn -1 0 0
vn -1 0 0
vn -1 0 0
vn -1 0 0
vn 0 0 -1
vn 0 0 -1
vn 0 0 -1
vn 0 0 -1
vn 0 0 1
vn 0 0 1
vn 0 0 1
vn 0 0 1
vn 0 1 0
vn 0 1 0
vn 0 1 0
vn 0 1 0
vn 0 -1 0
vn 0 -1 0
vn 0 -1 0
vn 0 -1 0
g Mesh26_0
f 3/3/3 2/2/2 1/1/1
f 1/1/1 4/4/4 3/3/3
f 7/7/7 6/6/6 5/5/5
f 6/6/6 7/7/7 8/8/8
f 11/11/11 10/10/10 9/9/9
f 9/9/9 12/12/12 11/11/11
f 15/15/15 14/14/14 13/13/13
f 14/14/14 15/15/15 16/16/16
f 19/19/19 18/18/18 17/17/17
f 17/17/17 20/20/20 19/19/19
f 23/23/23 22/22/22 21/21/21
f 22/22/22 23/23/23 24/24/24
f 27/27/27 26/26/26 25/25/25
f 25/25/25 28/28/28 27/27/27
f 31/31/31 30/30/30 29/29/29
f 30/30/30 31/31/31 32/32/32
f 35/35/35 34/34/34 33/33/33
f 33/33/33 36/36/36 35/35/35
f 39/39/39 38/38/38 37/37/37
f 38/38/38 39/39/39 40/40/40
f 43/43/43 42/42/42 41/41/41
f 41/41/41 44/44/44 43/43/43
f 47/47/47 46/46/46 45/45/45
f 46/46/46 47/47/47 48/48/48
