g Mesh60
v 373.2104 14.12619 27.68825
v 373.2451 13.86666 27.64878
v 373.4081 13.91618 27.74658
v 373.2451 13.86666 27.64878
v 373.2104 14.12619 27.68825
v 373.4081 13.91618 27.74658
v 373.4081 13.91618 27.74658
v 373.2451 13.86666 27.64878
v 373.1485 13.88499 27.84524
v 373.4081 13.91618 27.74658
v 373.1485 13.88499 27.84524
v 373.3187 13.94125 27.92562
v 373.4081 13.91618 27.74658
v 373.3187 13.94125 27.92562
v 373.3445 14.07071 27.91769
v 373.3187 13.94125 27.92562
v 373.4081 13.91618 27.74658
v 373.3445 14.07071 27.91769
v 373.1566 14.07142 27.8602
v 373.3445 14.07071 27.91769
v 373.3187 13.94125 27.92562
v 373.1566 14.07142 27.8602
v 373.3187 13.94125 27.92562
v 373.1485 13.88499 27.84524
v 373.3187 13.94125 27.92562
v 373.1566 14.07142 27.8602
v 373.1485 13.88499 27.84524
v 373.1485 13.88499 27.84524
v 373.4081 13.91618 27.74658
v 373.3187 13.94125 27.92562
v 373.2451 13.86666 27.64878
v 373.4081 13.91618 27.74658
v 373.1485 13.88499 27.84524
v 373.2451 13.86666 27.64878
v 373.2104 14.12619 27.68825
v 373.1485 13.88499 27.84524
v 373.2104 14.12619 27.68825
v 373.2451 13.86666 27.64878
v 373.1485 13.88499 27.84524
v 373.2104 14.12619 27.68825
v 373.1566 14.07142 27.8602
v 373.1485 13.88499 27.84524
v 373.1566 14.07142 27.8602
v 373.2104 14.12619 27.68825
v 373.1485 13.88499 27.84524
v 373.3943 14.1226 27.75735
v 373.1566 14.07142 27.8602
v 373.2104 14.12619 27.68825
v 373.1566 14.07142 27.8602
v 373.3943 14.1226 27.75735
v 373.2104 14.12619 27.68825
v 373.2104 14.12619 27.68825
v 373.4081 13.91618 27.74658
v 373.3943 14.1226 27.75735
v 373.4081 13.91618 27.74658
v 373.2104 14.12619 27.68825
v 373.3943 14.1226 27.75735
v 373.4081 13.91618 27.74658
v 373.3445 14.07071 27.91769
v 373.3943 14.1226 27.75735
v 373.3445 14.07071 27.91769
v 373.4081 13.91618 27.74658
v 373.3943 14.1226 27.75735
v 373.3943 14.1226 27.75735
v 373.3445 14.07071 27.91769
v 373.1566 14.07142 27.8602
v 373.3445 14.07071 27.91769
v 373.3943 14.1226 27.75735
v 373.1566 14.07142 27.8602
v 373.3445 14.07071 27.91769
v 373.1566 14.07142 27.8602
v 373.3187 13.94125 27.92562
vt -72.95972 -14.25607
vt -73.43447 -24.67055
vt -80.90866 -22.68319
vt -73.43447 -24.67055
vt -72.95972 -14.25607
vt -80.90866 -22.68319
vt 151.3213 39.3114
vt 149.5805 31.77596
vt 141.3932 34.56628
vt 154.0659 27.0061
vt 143.7969 23.0524
vt 146.7884 30.18432
vt 133.3522 15.23711
vt 125.4739 16.23493
vt 126.2216 21.38752
vt 125.4739 16.23493
vt 133.3522 15.23711
vt 126.2216 21.38752
vt 96.86973 21.94345
vt 104.6036 21.91551
vt 103.7229 16.78396
vt 82.16374 2.748206
vt 89.03725 -2.384161
vt 81.62829 -4.60239
vt 89.03725 -2.384161
vt 82.16374 2.748206
vt 81.62829 -4.60239
vt 143.7969 23.0524
vt 154.0659 27.0061
vt 146.7884 30.18432
vt 149.5805 31.77596
vt 151.3213 39.3114
vt 141.3932 34.56628
vt -131.5529 -2.877532
vt -129.5587 7.355244
vt -122.9335 -2.154465
vt -129.5587 7.355244
vt -131.5529 -2.877532
vt -122.9335 -2.154465
vt -114.6423 17.84127
vt -107.5504 15.6802
vt -108.0258 8.325472
vt -107.5504 15.6802
vt -114.6423 17.84127
vt -108.0258 8.325472
vt 104.3258 114.01
vt 96.5789 107.0826
vt 96.60719 114.4964
vt 96.5789 107.0826
vt 104.3258 114.01
vt 96.60719 114.4964
vt -89.27981 2.697131
vt -97.37177 -5.592749
vt -97.01241 2.555276
vt -97.37177 -5.592749
vt -89.27981 2.697131
vt -97.01241 2.555276
vt 117.9909 -1.608278
vt 110.8093 4.482439
vt 117.419 6.527593
vt 110.8093 4.482439
vt 117.9909 -1.608278
vt 117.419 6.527593
vt 105.9192 112.5121
vt 105.8145 105.594
vt 98.08119 105.688
vt 105.8145 105.594
vt 105.9192 112.5121
vt 98.08119 105.688
vt 104.6036 21.91551
vt 96.86973 21.94345
vt 103.7229 16.78396
vn 0.4609224 0.1932758 -0.866138
vn 0.4609224 0.1932758 -0.866138
vn 0.4609224 0.1932758 -0.866138
vn -0.4609224 -0.1932758 0.866138
vn -0.4609224 -0.1932758 0.866138
vn -0.4609224 -0.1932758 0.866138
vn 0.18484 -0.9659411 0.1810855
vn 0.18484 -0.9659411 0.1810855
vn 0.18484 -0.9659411 0.1810855
vn 0.203368 -0.9505545 0.2347077
vn 0.203368 -0.9505545 0.2347077
vn 0.203368 -0.9505545 0.2347077
vn 0.8765229 -0.1466907 0.4584644
vn 0.8765229 -0.1466907 0.4584644
vn 0.8765229 -0.1466907 0.4584644
vn -0.8765229 0.1466907 -0.4584644
vn -0.8765229 0.1466907 -0.4584644
vn -0.8765229 0.1466907 -0.4584644
vn -0.2902928 0.1160792 0.9498714
vn -0.2902928 0.1160792 0.9498714
vn -0.2902928 0.1160792 0.9498714
vn -0.4115083 -0.05497219 0.9097467
vn -0.4115083 -0.05497219 0.9097467
vn -0.4115083 -0.05497219 0.9097467
vn 0.4115083 0.05497219 -0.9097467
vn 0.4115083 0.05497219 -0.9097467
vn 0.4115083 0.05497219 -0.9097467
vn -0.203368 0.9505545 -0.2347077
vn -0.203368 0.9505545 -0.2347077
vn -0.203368 0.9505545 -0.2347077
vn -0.18484 0.9659411 -0.1810855
vn -0.18484 0.9659411 -0.1810855
vn -0.18484 0.9659411 -0.1810855
vn -0.8980158 -0.05352725 -0.4366949
vn -0.8980158 -0.05352725 -0.4366949
vn -0.8980158 -0.05352725 -0.4366949
vn 0.8980158 0.05352725 0.4366949
vn 0.8980158 0.05352725 0.4366949
vn 0.8980158 0.05352725 0.4366949
vn -0.9580504 0.06435115 -0.2792818
vn -0.9580504 0.06435115 -0.2792818
vn -0.9580504 0.06435115 -0.2792818
vn 0.9580504 -0.06435115 0.2792818
vn 0.9580504 -0.06435115 0.2792818
vn 0.9580504 -0.06435115 0.2792818
vn -0.08576064 0.9567562 0.2779617
vn -0.08576064 0.9567562 0.2779617
vn -0.08576064 0.9567562 0.2779617
vn 0.08576064 -0.9567562 -0.2779617
vn 0.08576064 -0.9567562 -0.2779617
vn 0.08576064 -0.9567562 -0.2779617
vn 0.3521093 0.07224031 -0.9331668
vn 0.3521093 0.07224031 -0.9331668
vn 0.3521093 0.07224031 -0.9331668
vn -0.3521093 -0.07224031 0.9331668
vn -0.3521093 -0.07224031 0.9331668
vn -0.3521093 -0.07224031 0.9331668
vn 0.9494497 0.04737458 0.3103241
vn 0.9494497 0.04737458 0.3103241
vn 0.9494497 0.04737458 0.3103241
vn -0.9494497 -0.04737458 -0.3103241
vn -0.9494497 -0.04737458 -0.3103241
vn -0.9494497 -0.04737458 -0.3103241
vn -0.08313949 0.9554068 0.2833469
vn -0.08313949 0.9554068 0.2833469
vn -0.08313949 0.9554068 0.2833469
vn 0.08313949 -0.9554068 -0.2833469
vn 0.08313949 -0.9554068 -0.2833469
vn 0.08313949 -0.9554068 -0.2833469
vn 0.2902928 -0.1160792 -0.9498714
vn 0.2902928 -0.1160792 -0.9498714
vn 0.2902928 -0.1160792 -0.9498714
g Mesh60_0
f 3/3/3 2/2/2 1/1/1
f 6/6/6 5/5/5 4/4/4
f 9/9/9 8/8/8 7/7/7
f 12/12/12 11/11/11 10/10/10
f 15/15/15 14/14/14 13/13/13
f 18/18/18 17/17/17 16/16/16
f 21/21/21 20/20/20 19/19/19
f 24/24/24 23/23/23 22/22/22
f 27/27/27 26/26/26 25/25/25
f 30/30/30 29/29/29 28/28/28
f 33/33/33 32/32/32 31/31/31
f 36/36/36 35/35/35 34/34/34
f 39/39/39 38/38/38 37/37/37
f 42/42/42 41/41/41 40/40/40
f 45/45/45 44/44/44 43/43/43
f 48/48/48 47/47/47 46/46/46
f 51/51/51 50/50/50 49/49/49
f 54/54/54 53/53/53 52/52/52
f 57/57/57 56/56/56 55/55/55
f 60/60/60 59/59/59 58/58/58
f 63/63/63 62/62/62 61/61/61
f 66/66/66 65/65/65 64/64/64
f 69/69/69 68/68/68 67/67/67
f 72/72/72 71/71/71 70/70/70
