g Mesh66
v 371.975 14.0786 28.65715
v 371.769 14.09811 28.86625
v 371.791 14.12134 28.6034
v 371.769 14.09811 28.86625
v 371.975 14.0786 28.65715
v 371.791 14.12134 28.6034
v 371.791 14.12134 28.6034
v 371.769 14.09811 28.86625
v 371.754 13.9082 28.64181
v 371.769 14.09811 28.86625
v 371.791 14.12134 28.6034
v 371.754 13.9082 28.64181
v 371.754 13.9082 28.64181
v 371.769 14.09811 28.86625
v 371.7661 13.91363 28.82854
v 371.94 13.88475 28.70051
v 371.754 13.9082 28.64181
v 371.7661 13.91363 28.82854
v 371.754 13.9082 28.64181
v 371.94 13.88475 28.70051
v 371.7661 13.91363 28.82854
v 371.769 14.09811 28.86625
v 371.754 13.9082 28.64181
v 371.7661 13.91363 28.82854
v 371.769 14.09811 28.86625
v 371.9648 14.0837 28.864
v 371.7661 13.91363 28.82854
v 371.9648 14.0837 28.864
v 371.769 14.09811 28.86625
v 371.7661 13.91363 28.82854
v 371.9648 14.0837 28.864
v 371.9625 13.9117 28.82801
v 371.7661 13.91363 28.82854
v 371.9625 13.9117 28.82801
v 371.9648 14.0837 28.864
v 371.7661 13.91363 28.82854
v 371.9625 13.9117 28.82801
v 371.94 13.88475 28.70051
v 371.7661 13.91363 28.82854
v 371.94 13.88475 28.70051
v 371.9625 13.9117 28.82801
v 371.7661 13.91363 28.82854
v 371.975 14.0786 28.65715
v 371.94 13.88475 28.70051
v 371.9625 13.9117 28.82801
v 371.94 13.88475 28.70051
v 371.975 14.0786 28.65715
v 371.9625 13.9117 28.82801
v 371.975 14.0786 28.65715
v 371.9625 13.9117 28.82801
v 371.9648 14.0837 28.864
v 371.975 14.0786 28.65715
v 371.9648 14.0837 28.864
v 371.769 14.09811 28.86625
v 371.9648 14.0837 28.864
v 371.975 14.0786 28.65715
v 371.769 14.09811 28.86625
v 371.9625 13.9117 28.82801
v 371.975 14.0786 28.65715
v 371.9648 14.0837 28.864
v 371.975 14.0786 28.65715
v 371.754 13.9082 28.64181
v 371.94 13.88475 28.70051
v 371.754 13.9082 28.64181
v 371.975 14.0786 28.65715
v 371.94 13.88475 28.70051
v 371.791 14.12134 28.6034
v 371.754 13.9082 28.64181
v 371.975 14.0786 28.65715
v 371.754 13.9082 28.64181
v 371.791 14.12134 28.6034
v 371.975 14.0786 28.65715
vt 75.41722 -45.16374
vt 64.36297 -41.69884
vt 73.93703 -37.57282
vt 64.36297 -41.69884
vt 75.41722 -45.16374
vt 73.93703 -37.57282
vt -51.29071 21.85777
vt -40.90665 20.93156
vt -49.68087 13.35917
vt -40.90665 20.93156
vt -51.29071 21.85777
vt -49.68087 13.35917
vt -40.42548 3.109992
vt -31.56961 10.58673
vt -33.05851 3.323972
vt -20.8116 -83.97847
vt -24.98412 -77.46671
vt -17.77023 -75.95747
vt -24.98412 -77.46671
vt -20.8116 -83.97847
vt -17.77023 -75.95747
vt -31.56961 10.58673
vt -40.42548 3.109992
vt -33.05851 3.323972
vt 69.68179 2.929306
vt 77.39398 2.35036
vt 69.56454 -4.483571
vt 77.39398 2.35036
vt 69.68179 2.929306
vt 69.56454 -4.483571
vt 77.54388 2.241289
vt 77.45365 -4.676996
vt 69.72014 -4.599178
vt 77.45365 -4.676996
vt 77.54388 2.241289
vt 69.72014 -4.599178
vt 75.71873 -39.43648
vt 74.61505 -44.52473
vt 67.99346 -39.07122
vt 74.61505 -44.52473
vt 75.71873 -39.43648
vt 67.99346 -39.07122
vt 33.78819 26.4008
vt 32.27616 18.60487
vt 27.18365 19.68872
vt 32.27616 18.60487
vt 33.78819 26.4008
vt 27.18365 19.68872
vt 48.2026 11.45958
vt 41.45942 4.886777
vt 40.04913 11.66039
vt 21.15616 -86.15396
vt 13.43936 -83.51382
vt 15.48155 -76.05442
vt 13.43936 -83.51382
vt 21.15616 -86.15396
vt 15.48155 -76.05442
vt 41.45942 4.886777
vt 48.2026 11.45958
vt 40.04913 11.66039
vt -63.01179 25.63707
vt -54.47168 18.69809
vt -62.14639 17.74315
vt -54.47168 18.69809
vt -63.01179 25.63707
vt -62.14639 17.74315
vt -57.84495 24.10695
vt -56.78371 15.52256
vt -65.38488 22.38573
vt -56.78371 15.52256
vt -57.84495 24.10695
vt -65.38488 22.38573
vn 0.1964424 0.9751272 0.1026511
vn 0.1964424 0.9751272 0.1026511
vn 0.1964424 0.9751272 0.1026511
vn -0.1964424 -0.9751272 -0.1026511
vn -0.1964424 -0.9751272 -0.1026511
vn -0.1964424 -0.9751272 -0.1026511
vn -0.9849785 0.1584543 -0.06862661
vn -0.9849785 0.1584543 -0.06862661
vn -0.9849785 0.1584543 -0.06862661
vn 0.9849785 -0.1584543 0.06862661
vn 0.9849785 -0.1584543 0.06862661
vn 0.9849785 -0.1584543 0.06862661
vn -0.9979202 0.002225175 0.0644231
vn -0.9979202 0.002225175 0.0644231
vn -0.9979202 0.002225175 0.0644231
vn -0.1366922 -0.989898 0.03764585
vn -0.1366922 -0.989898 0.03764585
vn -0.1366922 -0.989898 0.03764585
vn 0.1366922 0.989898 -0.03764585
vn 0.1366922 0.989898 -0.03764585
vn 0.1366922 0.989898 -0.03764585
vn 0.9979202 -0.002225175 -0.0644231
vn 0.9979202 -0.002225175 -0.0644231
vn 0.9979202 -0.002225175 -0.0644231
vn -0.003433947 -0.2002416 0.9797406
vn -0.003433947 -0.2002416 0.9797406
vn -0.003433947 -0.2002416 0.9797406
vn 0.003433947 0.2002416 -0.9797406
vn 0.003433947 0.2002416 -0.9797406
vn 0.003433947 0.2002416 -0.9797406
vn 0.0006062131 -0.204769 0.9788101
vn 0.0006062131 -0.204769 0.9788101
vn 0.0006062131 -0.204769 0.9788101
vn -0.0006062131 0.204769 -0.9788101
vn -0.0006062131 0.204769 -0.9788101
vn -0.0006062131 0.204769 -0.9788101
vn -0.009074439 -0.9780157 0.2083336
vn -0.009074439 -0.9780157 0.2083336
vn -0.009074439 -0.9780157 0.2083336
vn 0.009074439 0.9780157 -0.2083336
vn 0.009074439 0.9780157 -0.2083336
vn 0.009074439 0.9780157 -0.2083336
vn 0.9705394 -0.2040062 -0.128198
vn 0.9705394 -0.2040062 -0.128198
vn 0.9705394 -0.2040062 -0.128198
vn -0.9705394 0.2040062 0.128198
vn -0.9705394 0.2040062 0.128198
vn -0.9705394 0.2040062 0.128198
vn 0.9984732 -0.02385438 0.04982027
vn 0.9984732 -0.02385438 0.04982027
vn 0.9984732 -0.02385438 0.04982027
vn 0.07309039 0.9971047 -0.02097725
vn 0.07309039 0.9971047 -0.02097725
vn 0.07309039 0.9971047 -0.02097725
vn -0.07309039 -0.9971047 0.02097725
vn -0.07309039 -0.9971047 0.02097725
vn -0.07309039 -0.9971047 0.02097725
vn -0.9984732 0.02385438 -0.04982027
vn -0.9984732 0.02385438 -0.04982027
vn -0.9984732 0.02385438 -0.04982027
vn 0.2615671 -0.2554649 -0.9307634
vn 0.2615671 -0.2554649 -0.9307634
vn 0.2615671 -0.2554649 -0.9307634
vn -0.2615671 0.2554649 0.9307634
vn -0.2615671 0.2554649 0.9307634
vn -0.2615671 0.2554649 0.9307634
vn 0.2285968 -0.2109354 -0.9503946
vn 0.2285968 -0.2109354 -0.9503946
vn 0.2285968 -0.2109354 -0.9503946
vn -0.2285968 0.2109354 0.9503946
vn -0.2285968 0.2109354 0.9503946
vn -0.2285968 0.2109354 0.9503946
g Mesh66_0
f 3/3/3 2/2/2 1/1/1
f 6/6/6 5/5/5 4/4/4
f 9/9/9 8/8/8 7/7/7
f 12/12/12 11/11/11 10/10/10
f 15/15/15 14/14/14 13/13/13
f 18/18/18 17/17/17 16/16/16
f 21/21/21 20/20/20 19/19/19
f 24/24/24 23/23/23 22/22/22
f 27/27/27 26/26/26 25/25/25
f 30/30/30 29/29/29 28/28/28
f 33/33/33 32/32/32 31/31/31
f 36/36/36 35/35/35 34/34/34
f 39/39/39 38/38/38 37/37/37
f 42/42/42 41/41/41 40/40/40
f 45/45/45 44/44/44 43/43/43
f 48/48/48 47/47/47 46/46/46
f 51/51/51 50/50/50 49/49/49
f 54/54/54 53/53/53 52/52/52
f 57/57/57 56/56/56 55/55/55
f 60/60/60 59/59/59 58/58/58
f 63/63/63 62/62/62 61/61/61
f 66/66/66 65/65/65 64/64/64
f 69/69/69 68/68/68 67/67/67
f 72/72/72 71/71/71 70/70/70
