g Mesh54
v 374.414 14.10782 29.60916
v 374.5617 14.10146 29.68717
v 374.5625 13.99568 29.76653
v 374.5617 14.10146 29.68717
v 374.414 14.10782 29.60916
v 374.5625 13.99568 29.76653
v 374.6755 14.08697 29.52771
v 374.5625 13.99568 29.76653
v 374.5617 14.10146 29.68717
v 374.5625 13.99568 29.76653
v 374.6755 14.08697 29.52771
v 374.5617 14.10146 29.68717
v 374.6755 14.08697 29.52771
v 374.5617 14.10146 29.68717
v 374.535 14.01455 29.50632
v 374.5617 14.10146 29.68717
v 374.6755 14.08697 29.52771
v 374.535 14.01455 29.50632
v 374.5617 14.10146 29.68717
v 374.414 14.10782 29.60916
v 374.535 14.01455 29.50632
v 374.414 14.10782 29.60916
v 374.5617 14.10146 29.68717
v 374.535 14.01455 29.50632
v 374.535 14.01455 29.50632
v 374.414 14.10782 29.60916
v 374.4766 13.9481 29.72527
v 374.414 14.10782 29.60916
v 374.535 14.01455 29.50632
v 374.4766 13.9481 29.72527
v 374.414 14.10782 29.60916
v 374.5625 13.99568 29.76653
v 374.4766 13.9481 29.72527
v 374.5625 13.99568 29.76653
v 374.414 14.10782 29.60916
v 374.4766 13.9481 29.72527
v 374.5723 13.86192 29.57694
v 374.4766 13.9481 29.72527
v 374.5625 13.99568 29.76653
v 374.4766 13.9481 29.72527
v 374.5723 13.86192 29.57694
v 374.5625 13.99568 29.76653
v 374.6755 14.08697 29.52771
v 374.5723 13.86192 29.57694
v 374.5625 13.99568 29.76653
v 374.5723 13.86192 29.57694
v 374.6755 14.08697 29.52771
v 374.5625 13.99568 29.76653
v 374.6755 14.08697 29.52771
v 374.535 14.01455 29.50632
v 374.5723 13.86192 29.57694
v 374.535 14.01455 29.50632
v 374.6755 14.08697 29.52771
v 374.5723 13.86192 29.57694
v 374.535 14.01455 29.50632
v 374.4766 13.9481 29.72527
v 374.5723 13.86192 29.57694
v 374.4766 13.9481 29.72527
v 374.535 14.01455 29.50632
v 374.5723 13.86192 29.57694
vt 152.785 55.38095
vt 159.3618 55.07944
vt 160.7761 50.06861
vt 159.3618 55.07944
vt 152.785 55.38095
vt 160.7761 50.06861
vt 110.7 -48.25247
vt 100.4084 -52.15448
vt 102.9909 -47.6335
vt 100.4084 -52.15448
vt 110.7 -48.25247
vt 102.9909 -47.6335
vt -131.7903 115.322
vt -124.1337 116.4128
vt -128.6787 109.8667
vt -124.1337 116.4128
vt -131.7903 115.322
vt -128.6787 109.8667
vt -151.5124 -76.78905
vt -144.9459 -76.31261
vt -146.9093 -83.29447
vt -144.9459 -76.31261
vt -151.5124 -76.78905
vt -146.9093 -83.29447
vt -89.10298 -80.8887
vt -83.35935 -76.46014
vt -80.35716 -84.04342
vt -83.35935 -76.46014
vt -89.10298 -80.8887
vt -80.35716 -84.04342
vt 136.7387 46.49179
vt 145.1104 41.8022
vt 141.4197 39.81289
vt 145.1104 41.8022
vt 136.7387 46.49179
vt 141.4197 39.81289
vt 175.215 34.96401
vt 169.958 40.63644
vt 172.7464 43.76756
vt 169.958 40.63644
vt 175.215 34.96401
vt 172.7464 43.76756
vt 66.59393 68.87955
vt 63.49372 59.43675
vt 56.27562 65.04886
vt 63.49372 59.43675
vt 66.59393 68.87955
vt 56.27562 65.04886
vt -170.7453 32.92984
vt -165.243 29.90214
vt -167.5413 23.52174
vt -165.243 29.90214
vt -170.7453 32.92984
vt -167.5413 23.52174
vt -76.06886 -53.26395
vt -67.20791 -56.07909
vt -74.02551 -59.73054
vt -67.20791 -56.07909
vt -76.06886 -53.26395
vt -74.02551 -59.73054
vn -0.3691268 0.5561113 0.744638
vn -0.3691268 0.5561113 0.744638
vn -0.3691268 0.5561113 0.744638
vn 0.3691268 -0.5561113 -0.744638
vn 0.3691268 -0.5561113 -0.744638
vn 0.3691268 -0.5561113 -0.744638
vn 0.7661184 0.3891843 0.5114667
vn 0.7661184 0.3891843 0.5114667
vn 0.7661184 0.3891843 0.5114667
vn -0.7661184 -0.3891843 -0.5114667
vn -0.7661184 -0.3891843 -0.5114667
vn -0.7661184 -0.3891843 -0.5114667
vn -0.3857144 0.8525285 -0.3527313
vn -0.3857144 0.8525285 -0.3527313
vn -0.3857144 0.8525285 -0.3527313
vn 0.3857144 -0.8525285 0.3527313
vn 0.3857144 -0.8525285 0.3527313
vn 0.3857144 -0.8525285 0.3527313
vn 0.2737137 0.8505126 -0.4491205
vn 0.2737137 0.8505126 -0.4491205
vn 0.2737137 0.8505126 -0.4491205
vn -0.2737137 -0.8505126 0.4491205
vn -0.2737137 -0.8505126 0.4491205
vn -0.2737137 -0.8505126 0.4491205
vn -0.7430986 -0.5589603 -0.3679237
vn -0.7430986 -0.5589603 -0.3679237
vn -0.7430986 -0.5589603 -0.3679237
vn 0.7430986 0.5589603 0.3679237
vn 0.7430986 0.5589603 0.3679237
vn 0.7430986 0.5589603 0.3679237
vn -0.5529122 0.3370824 0.7620128
vn -0.5529122 0.3370824 0.7620128
vn -0.5529122 0.3370824 0.7620128
vn 0.5529122 -0.3370824 -0.7620128
vn 0.5529122 -0.3370824 -0.7620128
vn 0.5529122 -0.3370824 -0.7620128
vn 0.1680512 -0.8013815 0.5740614
vn 0.1680512 -0.8013815 0.5740614
vn 0.1680512 -0.8013815 0.5740614
vn -0.1680512 0.8013815 -0.5740614
vn -0.1680512 0.8013815 -0.5740614
vn -0.1680512 0.8013815 -0.5740614
vn 0.892292 -0.3458054 0.2902302
vn 0.892292 -0.3458054 0.2902302
vn 0.892292 -0.3458054 0.2902302
vn -0.892292 0.3458054 -0.2902302
vn -0.892292 0.3458054 -0.2902302
vn -0.892292 0.3458054 -0.2902302
vn 0.3088001 -0.3362652 -0.8897012
vn 0.3088001 -0.3362652 -0.8897012
vn 0.3088001 -0.3362652 -0.8897012
vn -0.3088001 0.3362652 0.8897012
vn -0.3088001 0.3362652 0.8897012
vn -0.3088001 0.3362652 0.8897012
vn -0.8637385 -0.3695364 -0.3426347
vn -0.8637385 -0.3695364 -0.3426347
vn -0.8637385 -0.3695364 -0.3426347
vn 0.8637385 0.3695364 0.3426347
vn 0.8637385 0.3695364 0.3426347
vn 0.8637385 0.3695364 0.3426347
g Mesh54_0
f 3/3/3 2/2/2 1/1/1
f 6/6/6 5/5/5 4/4/4
f 9/9/9 8/8/8 7/7/7
f 12/12/12 11/11/11 10/10/10
f 15/15/15 14/14/14 13/13/13
f 18/18/18 17/17/17 16/16/16
f 21/21/21 20/20/20 19/19/19
f 24/24/24 23/23/23 22/22/22
f 27/27/27 26/26/26 25/25/25
f 30/30/30 29/29/29 28/28/28
f 33/33/33 32/32/32 31/31/31
f 36/36/36 35/35/35 34/34/34
f 39/39/39 38/38/38 37/37/37
f 42/42/42 41/41/41 40/40/40
f 45/45/45 44/44/44 43/43/43
f 48/48/48 47/47/47 46/46/46
f 51/51/51 50/50/50 49/49/49
f 54/54/54 53/53/53 52/52/52
f 57/57/57 56/56/56 55/55/55
f 60/60/60 59/59/59 58/58/58
