g Mesh1
v 260 30 -10
v 10 30 -10
v 10 30 -149.2636
v 10 30 -189.2636
v 10 30 -260
v 110.5136 30 -260
v 150.5136 30 -260
v 260 30 -260
v 260 30 -70.54617
v 260 30 -200.1814
v 10 30 -10
v 260 30 -10
v 10 30 -149.2636
v 10 30 -189.2636
v 0 30 -189.2636
v 0 30 -149.2636
v 10 30 -260
v 110.5136 30 -260
v 150.5136 30 -260
v 110.5136 30 -270
v 150.5136 30 -270
v 260 30 -260
v 260 30 -70.54617
v 260 30 -200.1814
v 260 30 -200.1814
v 270 30 -200.1814
v 270 30 -260
v 270 30 -10
v 260 30 -70.54617
v 270 30 -70.54617
v 270 30 -70
v 10 30 -149.2636
v 10 30 -10
v 10 60 -10
v 10 60 -149.2636
v 10 30 -10
v 10 30 -149.2636
v 10 60 -10
v 10 60 -149.2636
v 10 60 -10
v 10 30 -10
v 260 30 -10
v 260 60 -10
v 270 60 -10
v 270 30 -10
v 10 30 -10
v 10 60 -10
v 260 30 -10
v 260 60 -10
v 270 60 -10
v 270 30 -10
v 10 60 -149.2636
v 10 60 -10
v 0 60 -149.2636
v 0 60 -119.4636
v 0 60 -109.4636
v 0 60 -69.46364
v 0 60 -59.46363
v 0 60 -1.155058E-13
v 270 60 0
v 260 60 -10
v 270 60 -10
v 10 60 -10
v 10 60 -149.2636
v 0 60 -149.2636
v 0 60 -119.4636
v 0 60 -109.4636
v 0 60 -69.46364
v 0 60 -59.46363
v 0 60 -1.155058E-13
v 270 60 0
v 260 60 -10
v 270 60 -10
v 10 60 -149.2636
v 0 60 -149.2636
v 0 30 -149.2636
v 10 30 -149.2636
v 10 30 -149.2636
v 0 30 -149.2636
v 10 60 -149.2636
v 0 60 -149.2636
v 0 60 -59.46363
v 0 60 -1.155058E-13
v 0 0 -1.155058E-13
v 0 0 -59.46363
v 0 60 -69.46364
v 0 0 -69.46364
v 0 60 -109.4636
v 0 0 -109.4636
v 0 60 -119.4636
v 0 0 -119.4636
v 0 60 -149.2636
v 0 30 -149.2636
v 0 0 -270
v 0 30 -189.2636
v 0 60 -270
v 0 60 -189.2636
v 0 60 -1.155058E-13
v 0 60 -59.46363
v 0 0 -1.155058E-13
v 0 0 -59.46363
v 0 60 -69.46364
v 0 0 -69.46364
v 0 60 -109.4636
v 0 0 -109.4636
v 0 60 -119.4636
v 0 0 -119.4636
v 0 60 -149.2636
v 0 30 -149.2636
v 0 0 -270
v 0 30 -189.2636
v 0 60 -270
v 0 60 -189.2636
v 0 0 -1.155058E-13
v 0 60 -1.155058E-13
v 270 60 0
v 270 0 0
v 270 0 0
v 270 60 0
v 0 0 -1.155058E-13
v 0 60 -1.155058E-13
v 270 0 -10
v 270 0 0
v 270 60 0
v 270 60 -10
v 270 30 -10
v 270 0 -60
v 270 30 -70
v 270 28.44633 -70
v 270 0 -70
v 270 30 -70.54617
v 270 0 -190
v 270 39.14 -70.54617
v 270 39.14 -190
v 270 0 -200
v 270 39.14 -200
v 270 0 -200.1814
v 270 39.14 -200.1814
v 270 30 -200.1814
v 270 0 -260
v 270 30 -260
v 270 0 -270
v 270 60 -260
v 270 60 -270
v 270 0 0
v 270 0 -10
v 270 60 0
v 270 60 -10
v 270 30 -10
v 270 0 -60
v 270 30 -70
v 270 28.44633 -70
v 270 0 -70
v 270 30 -70.54617
v 270 0 -190
v 270 39.14 -70.54617
v 270 39.14 -190
v 270 0 -200
v 270 39.14 -200
v 270 0 -200.1814
v 270 39.14 -200.1814
v 270 30 -200.1814
v 270 0 -260
v 270 30 -260
v 270 0 -270
v 270 60 -260
v 270 60 -270
v 270 0 -270
v 270 60 -270
v 160.5136 60 -270
v 160.5136 0 -270
v 150.5136 30 -270
v 150.5136 60 -270
v 150.5136 0 -270
v 110.5136 30 -270
v 110.5136 0 -270
v 100.5136 60 -270
v 110.5136 60 -270
v 100.5136 0 -270
v 0 60 -270
v 0 0 -270
v 270 60 -270
v 270 0 -270
v 160.5136 60 -270
v 160.5136 0 -270
v 150.5136 30 -270
v 150.5136 60 -270
v 150.5136 0 -270
v 110.5136 30 -270
v 110.5136 0 -270
v 100.5136 60 -270
v 110.5136 60 -270
v 100.5136 0 -270
v 0 60 -270
v 0 0 -270
v 260 60 -260
v 150.5136 60 -260
v 150.5136 60 -270
v 160.5136 60 -270
v 270 60 -270
v 270 60 -260
v 150.5136 60 -260
v 260 60 -260
v 150.5136 60 -270
v 160.5136 60 -270
v 270 60 -270
v 270 60 -260
v 150.5136 30 -270
v 150.5136 60 -270
v 150.5136 60 -260
v 150.5136 30 -260
v 150.5136 30 -260
v 150.5136 60 -260
v 150.5136 30 -270
v 150.5136 60 -270
v 110.5136 30 -270
v 150.5136 30 -270
v 110.5136 30 -270
v 110.5136 30 -260
v 110.5136 60 -260
v 110.5136 60 -270
v 110.5136 30 -260
v 110.5136 30 -270
v 110.5136 60 -260
v 110.5136 60 -270
v 110.5136 60 -260
v 110.5136 30 -260
v 10 30 -260
v 10 60 -260
v 110.5136 30 -260
v 110.5136 60 -260
v 10 30 -260
v 10 60 -260
v 270 30 -10
v 260 30 -70.54617
v 270 30 -70.54617
v 270 30 -70
v 270 39.14 -70.54617
v 270 30 -70.54617
v 260 30 -70.54617
v 260 39.14 -70.54617
v 270 30 -70.54617
v 270 39.14 -70.54617
v 260 30 -70.54617
v 260 39.14 -70.54617
v 270 39.14 -70.54617
v 260 39.14 -70.54617
v 260 39.14 -200.1814
v 270 39.14 -200.1814
v 270 39.14 -190
v 270 39.14 -200
v 260 39.14 -70.54617
v 270 39.14 -70.54617
v 260 39.14 -200.1814
v 270 39.14 -200.1814
v 270 39.14 -190
v 270 39.14 -200
v 260 39.14 -200.1814
v 260 39.14 -70.54617
v 260 30 -70.54617
v 260 30 -200.1814
v 260 39.14 -70.54617
v 260 39.14 -200.1814
v 260 30 -70.54617
v 260 30 -200.1814
v 270 39.14 -200.1814
v 260 39.14 -200.1814
v 260 30 -200.1814
v 270 30 -200.1814
v 270 30 -200.1814
v 260 30 -200.1814
v 270 39.14 -200.1814
v 260 39.14 -200.1814
v 270 30 -200.1814
v 260 30 -200.1814
v 270 30 -260
v 270 60 -260
v 270 30 -260
v 260 30 -260
v 260 60 -260
v 150.5136 30 -260
v 150.5136 60 -260
v 270 30 -260
v 270 60 -260
v 260 30 -260
v 260 60 -260
v 150.5136 30 -260
v 150.5136 60 -260
v 100.5136 60 -270
v 110.5136 60 -270
v 110.5136 60 -260
v 10 60 -260
v 0 60 -270
v 10 60 -189.2636
v 0 60 -189.2636
v 0 60 -189.2636
v 10 60 -189.2636
v 0 60 -270
v 10 60 -260
v 100.5136 60 -270
v 110.5136 60 -260
v 110.5136 60 -270
v 0 30 -149.2636
v 0 30 -189.2636
v 10 60 -189.2636
v 10 30 -189.2636
v 0 30 -189.2636
v 0 60 -189.2636
v 10 30 -189.2636
v 10 60 -189.2636
v 0 30 -189.2636
v 0 60 -189.2636
v 10 60 -189.2636
v 10 60 -260
v 10 30 -260
v 10 30 -189.2636
v 10 30 -189.2636
v 10 30 -260
v 10 60 -189.2636
v 10 60 -260
vt 1023.5 39.375
vt 39.375 39.375
vt 39.375 587.5
vt 39.375 745
vt 39.375 1023.5
vt 435 1023.5
vt 592.5 1023.5
vt 1023.5 1023.5
vt 1023.5 277.75
vt 1023.5 788
vt 39.375 39.375
vt 1023.5 39.375
vt 39.375 587.5
vt 39.375 745
vt 0 745
vt 0 587.5
vt 39.375 1023.5
vt 435 1023.5
vt 592.5 1023.5
vt 435 1063
vt 592.5 1063
vt 1023.5 1023.5
vt 1023.5 277.75
vt 1023.5 788
vt 1023.5 788
vt 1063 788
vt 1063 1023.5
vt 1063 39.375
vt 1023.5 277.75
vt 1063 277.75
vt 1063 275.5
vt 587.5 118.125
vt 39.375 118.125
vt 39.375 236.25
vt 587.5 236.25
vt 39.375 118.125
vt 587.5 118.125
vt 39.375 236.25
vt 587.5 236.25
vt -39.375 236.25
vt -39.375 118.125
vt -1023.5 118.125
vt -1023.5 236.25
vt -1063 236.25
vt -1063 118.125
vt -39.375 118.125
vt -39.375 236.25
vt -1023.5 118.125
vt -1023.5 236.25
vt -1063 236.25
vt -1063 118.125
vt 39.375 587.5
vt 39.375 39.375
vt 0 587.5
vt 0 470.25
vt 0 431
vt 0 273.5
vt 0 234.125
vt 0 0
vt 1063 0
vt 1023.5 39.375
vt 1063 39.375
vt 39.375 39.375
vt 39.375 587.5
vt 0 587.5
vt 0 470.25
vt 0 431
vt 0 273.5
vt 0 234.125
vt 0 0
vt 1063 0
vt 1023.5 39.375
vt 1063 39.375
vt -39.375 236.25
vt 0 236.25
vt 0 118.125
vt -39.375 118.125
vt -39.375 118.125
vt 0 118.125
vt -39.375 236.25
vt 0 236.25
vt -234.125 236.25
vt 0 236.25
vt 0 0
vt -234.125 0
vt -273.5 236.25
vt -273.5 0
vt -431 236.25
vt -431 0
vt -470.25 236.25
vt -470.25 0
vt -587.5 236.25
vt -587.5 118.125
vt -1063 0
vt -745 118.125
vt -1063 236.25
vt -745 236.25
vt 0 236.25
vt -234.125 236.25
vt 0 0
vt -234.125 0
vt -273.5 236.25
vt -273.5 0
vt -431 236.25
vt -431 0
vt -470.25 236.25
vt -470.25 0
vt -587.5 236.25
vt -587.5 118.125
vt -1063 0
vt -745 118.125
vt -1063 236.25
vt -745 236.25
vt 0 0
vt 0 236.25
vt 1063 236.25
vt 1063 0
vt 1063 0
vt 1063 236.25
vt 0 0
vt 0 236.25
vt 39.375 0
vt 0 0
vt 0 236.25
vt 39.375 236.25
vt 39.375 118.125
vt 236.25 0
vt 275.5 118.125
vt 275.5 112
vt 275.5 0
vt 277.75 118.125
vt 748 0
vt 277.75 154.125
vt 748 154.125
vt 787.5 0
vt 787.5 154.125
vt 788 0
vt 788 154.125
vt 788 118.125
vt 1023.5 0
vt 1023.5 118.125
vt 1063 0
vt 1023.5 236.25
vt 1063 236.25
vt 0 0
vt 39.375 0
vt 0 236.25
vt 39.375 236.25
vt 39.375 118.125
vt 236.25 0
vt 275.5 118.125
vt 275.5 112
vt 275.5 0
vt 277.75 118.125
vt 748 0
vt 277.75 154.125
vt 748 154.125
vt 787.5 0
vt 787.5 154.125
vt 788 0
vt 788 154.125
vt 788 118.125
vt 1023.5 0
vt 1023.5 118.125
vt 1063 0
vt 1023.5 236.25
vt 1063 236.25
vt -1063 0
vt -1063 236.25
vt -632 236.25
vt -632 0
vt -592.5 118.125
vt -592.5 236.25
vt -592.5 0
vt -435 118.125
vt -435 0
vt -395.75 236.25
vt -435 236.25
vt -395.75 0
vt 0 236.25
vt 0 0
vt -1063 236.25
vt -1063 0
vt -632 236.25
vt -632 0
vt -592.5 118.125
vt -592.5 236.25
vt -592.5 0
vt -435 118.125
vt -435 0
vt -395.75 236.25
vt -435 236.25
vt -395.75 0
vt 0 236.25
vt 0 0
vt 1023.5 1023.5
vt 592.5 1023.5
vt 592.5 1063
vt 632 1063
vt 1063 1063
vt 1063 1023.5
vt 592.5 1023.5
vt 1023.5 1023.5
vt 592.5 1063
vt 632 1063
vt 1063 1063
vt 1063 1023.5
vt -1063 118.125
vt -1063 236.25
vt -1023.5 236.25
vt -1023.5 118.125
vt -1023.5 118.125
vt -1023.5 236.25
vt -1063 118.125
vt -1063 236.25
vt 435 1063
vt 592.5 1063
vt 1063 118.125
vt 1023.5 118.125
vt 1023.5 236.25
vt 1063 236.25
vt 1023.5 118.125
vt 1063 118.125
vt 1023.5 236.25
vt 1063 236.25
vt 435 236.25
vt 435 118.125
vt 39.375 118.125
vt 39.375 236.25
vt 435 118.125
vt 435 236.25
vt 39.375 118.125
vt 39.375 236.25
vt 1063 39.375
vt 1023.5 277.75
vt 1063 277.75
vt 1063 275.5
vt 1063 154.125
vt 1063 118.125
vt 1023.5 118.125
vt 1023.5 154.125
vt 1063 118.125
vt 1063 154.125
vt 1023.5 118.125
vt 1023.5 154.125
vt 1063 277.75
vt 1023.5 277.75
vt 1023.5 788
vt 1063 788
vt 1063 748
vt 1063 787.5
vt 1023.5 277.75
vt 1063 277.75
vt 1023.5 788
vt 1063 788
vt 1063 748
vt 1063 787.5
vt -788 154.125
vt -277.75 154.125
vt -277.75 118.125
vt -788 118.125
vt -277.75 154.125
vt -788 154.125
vt -277.75 118.125
vt -788 118.125
vt -1063 154.125
vt -1023.5 154.125
vt -1023.5 118.125
vt -1063 118.125
vt -1063 118.125
vt -1023.5 118.125
vt -1063 154.125
vt -1023.5 154.125
vt 1063 788
vt 1023.5 788
vt 1063 1023.5
vt 1063 236.25
vt 1063 118.125
vt 1023.5 118.125
vt 1023.5 236.25
vt 592.5 118.125
vt 592.5 236.25
vt 1063 118.125
vt 1063 236.25
vt 1023.5 118.125
vt 1023.5 236.25
vt 592.5 118.125
vt 592.5 236.25
vt 395.75 1063
vt 435 1063
vt 435 1023.5
vt 39.375 1023.5
vt 0 1063
vt 39.375 745
vt 0 745
vt 0 745
vt 39.375 745
vt 0 1063
vt 39.375 1023.5
vt 395.75 1063
vt 435 1023.5
vt 435 1063
vt 0 587.5
vt 0 745
vt 39.375 236.25
vt 39.375 118.125
vt 0 118.125
vt 0 236.25
vt 39.375 118.125
vt 39.375 236.25
vt 0 118.125
vt 0 236.25
vt 745 236.25
vt 1023.5 236.25
vt 1023.5 118.125
vt 745 118.125
vt 745 118.125
vt 1023.5 118.125
vt 745 236.25
vt 1023.5 236.25
vn 0 1 0
vn 0 1 0
vn 0 1 0
vn 0 1 0
vn 0 1 0
vn 0 1 0
vn 0 1 0
vn 0 1 0
vn 0 1 0
vn 0 1 0
vn 0 -1 0
vn 0 -1 0
vn 0 -1 0
vn 0 -1 0
vn 0 -1 0
vn 0 -1 0
vn 0 -1 0
vn 0 -1 0
vn 0 -1 0
vn 0 -1 0
vn 0 -1 0
vn 0 -1 0
vn 0 -1 0
vn 0 -1 0
vn 0 -1 0
vn 0 -1 0
vn 0 -1 0
vn 0 -1 0
vn 0 -1 0
vn 0 -1 0
vn 0 -1 0
vn 1 0 0
vn 1 0 0
vn 1 0 0
vn 1 0 0
vn -1 0 0
vn -1 0 0
vn -1 0 0
vn -1 0 0
vn 0 0 -1
vn 0 0 -1
vn 0 0 -1
vn 0 0 -1
vn 0 0 -1
vn 0 0 -1
vn 0 0 1
vn 0 0 1
vn 0 0 1
vn 0 0 1
vn 0 0 1
vn 0 0 1
vn 0 1 0
vn 0 1 0
vn 0 1 0
vn 0 1 0
vn 0 1 0
vn 0 1 0
vn 0 1 0
vn 0 1 0
vn 0 1 0
vn 0 1 0
vn 0 1 0
vn 0 -1 0
vn 0 -1 0
vn 0 -1 0
vn 0 -1 0
vn 0 -1 0
vn 0 -1 0
vn 0 -1 0
vn 0 -1 0
vn 0 -1 0
vn 0 -1 0
vn 0 -1 0
vn 0 0 -1
vn 0 0 -1
vn 0 0 -1
vn 0 0 -1
vn 0 0 1
vn 0 0 1
vn 0 0 1
vn 0 0 1
vn -1 0 0
vn -1 0 0
vn -1 0 0
vn -1 0 0
vn -1 0 0
vn -1 0 0
vn -1 0 0
vn -1 0 0
vn -1 0 0
vn -1 0 0
vn -1 0 0
vn -1 0 0
vn -1 0 0
vn -1 0 0
vn -1 0 0
vn -1 0 0
vn 1 0 0
vn 1 0 0
vn 1 0 0
vn 1 0 0
vn 1 0 0
vn 1 0 0
vn 1 0 0
vn 1 0 0
vn 1 0 0
vn 1 0 0
vn 1 0 0
vn 1 0 0
vn 1 0 0
vn 1 0 0
vn 1 0 0
vn 1 0 0
vn 0 0 1
vn 0 0 1
vn 0 0 1
vn 0 0 1
vn 0 0 -1
vn 0 0 -1
vn 0 0 -1
vn 0 0 -1
vn 1 0 0
vn 1 0 0
vn 1 0 0
vn 1 0 0
vn 1 0 0
vn 1 0 0
vn 1 0 0
vn 1 0 0
vn 1 0 0
vn 1 0 0
vn 1 0 0
vn 1 0 0
vn 1 0 0
vn 1 0 0
vn 1 0 0
vn 1 0 0
vn 1 0 0
vn 1 0 0
vn 1 0 0
vn 1 0 0
vn 1 0 0
vn 1 0 0
vn 1 0 0
vn -1 0 0
vn -1 0 0
vn -1 0 0
vn -1 0 0
vn -1 0 0
vn -1 0 0
vn -1 0 0
vn -1 0 0
vn -1 0 0
vn -1 0 0
vn -1 0 0
vn -1 0 0
vn -1 0 0
vn -1 0 0
vn -1 0 0
vn -1 0 0
vn -1 0 0
vn -1 0 0
vn -1 0 0
vn -1 0 0
vn -1 0 0
vn -1 0 0
vn -1 0 0
vn 0 0 -1
vn 0 0 -1
vn 0 0 -1
vn 0 0 -1
vn 0 0 -1
vn 0 0 -1
vn 0 0 -1
vn 0 0 -1
vn 0 0 -1
vn 0 0 -1
vn 0 0 -1
vn 0 0 -1
vn 0 0 -1
vn 0 0 -1
vn 0 0 1
vn 0 0 1
vn 0 0 1
vn 0 0 1
vn 0 0 1
vn 0 0 1
vn 0 0 1
vn 0 0 1
vn 0 0 1
vn 0 0 1
vn 0 0 1
vn 0 0 1
vn 0 0 1
vn 0 0 1
vn 0 1 0
vn 0 1 0
vn 0 1 0
vn 0 1 0
vn 0 1 0
vn 0 1 0
vn 0 -1 0
vn 0 -1 0
vn 0 -1 0
vn 0 -1 0
vn 0 -1 0
vn 0 -1 0
vn -1 0 0
vn -1 0 0
vn -1 0 0
vn -1 0 0
vn 1 0 0
vn 1 0 0
vn 1 0 0
vn 1 0 0
vn 0 1 0
vn 0 1 0
vn 1 0 0
vn 1 0 0
vn 1 0 0
vn 1 0 0
vn -1 0 0
vn -1 0 0
vn -1 0 0
vn -1 0 0
vn 0 0 1
vn 0 0 1
vn 0 0 1
vn 0 0 1
vn 0 0 -1
vn 0 0 -1
vn 0 0 -1
vn 0 0 -1
vn 0 1 0
vn 0 1 0
vn 0 1 0
vn 0 1 0
vn 0 0 1
vn 0 0 1
vn 0 0 1
vn 0 0 1
vn 0 0 -1
vn 0 0 -1
vn 0 0 -1
vn 0 0 -1
vn 0 1 0
vn 0 1 0
vn 0 1 0
vn 0 1 0
vn 0 1 0
vn 0 1 0
vn 0 -1 0
vn 0 -1 0
vn 0 -1 0
vn 0 -1 0
vn 0 -1 0
vn 0 -1 0
vn -1 0 0
vn -1 0 0
vn -1 0 0
vn -1 0 0
vn 1 0 0
vn 1 0 0
vn 1 0 0
vn 1 0 0
vn 0 0 -1
vn 0 0 -1
vn 0 0 -1
vn 0 0 -1
vn 0 0 1
vn 0 0 1
vn 0 0 1
vn 0 0 1
vn 0 1 0
vn 0 1 0
vn 0 1 0
vn 0 0 1
vn 0 0 1
vn 0 0 1
vn 0 0 1
vn 0 0 1
vn 0 0 1
vn 0 0 -1
vn 0 0 -1
vn 0 0 -1
vn 0 0 -1
vn 0 0 -1
vn 0 0 -1
vn 0 1 0
vn 0 1 0
vn 0 1 0
vn 0 1 0
vn 0 1 0
vn 0 1 0
vn 0 1 0
vn 0 -1 0
vn 0 -1 0
vn 0 -1 0
vn 0 -1 0
vn 0 -1 0
vn 0 -1 0
vn 0 -1 0
vn 0 1 0
vn 0 1 0
vn 0 0 1
vn 0 0 1
vn 0 0 1
vn 0 0 1
vn 0 0 -1
vn 0 0 -1
vn 0 0 -1
vn 0 0 -1
vn 1 0 0
vn 1 0 0
vn 1 0 0
vn 1 0 0
vn -1 0 0
vn -1 0 0
vn -1 0 0
vn -1 0 0
g Mesh1_0
f 3/3/3 2/2/2 1/1/1
f 1/1/1 4/4/4 3/3/3
f 1/1/1 5/5/5 4/4/4
f 1/1/1 6/6/6 5/5/5
f 1/1/1 7/7/7 6/6/6
f 1/1/1 8/8/8 7/7/7
f 1/1/1 9/9/9 8/8/8
f 9/9/9 10/10/10 8/8/8
g Mesh1_1
f 13/13/13 12/12/12 11/11/11
f 12/12/12 13/13/13 14/14/14
f 13/13/13 15/15/15 14/14/14
f 15/15/15 13/13/13 16/16/16
f 12/12/12 14/14/14 17/17/17
f 12/12/12 17/17/17 18/18/18
f 12/12/12 18/18/18 19/19/19
f 20/20/20 19/19/19 18/18/18
f 19/19/19 20/20/20 21/21/21
f 12/12/12 19/19/19 22/22/22
f 12/12/12 22/22/22 23/23/23
f 23/23/23 22/22/22 24/24/24
f 22/22/22 26/26/26 25/25/25
f 26/26/26 22/22/22 27/27/27
f 29/29/29 28/28/28 12/12/12
f 28/28/28 29/29/29 30/30/30
f 28/28/28 30/30/30 31/31/31
f 34/34/34 33/33/33 32/32/32
f 32/32/32 35/35/35 34/34/34
f 38/38/38 37/37/37 36/36/36
f 37/37/37 38/38/38 39/39/39
f 42/42/42 41/41/41 40/40/40
f 40/40/40 43/43/43 42/42/42
f 42/42/42 43/43/43 44/44/44
f 44/44/44 45/45/45 42/42/42
f 48/48/48 47/47/47 46/46/46
f 47/47/47 48/48/48 49/49/49
f 48/48/48 50/50/50 49/49/49
f 50/50/50 48/48/48 51/51/51
f 54/54/54 53/53/53 52/52/52
f 53/53/53 54/54/54 55/55/55
f 53/53/53 55/55/55 56/56/56
f 53/53/53 56/56/56 57/57/57
f 53/53/53 57/57/57 58/58/58
f 53/53/53 58/58/58 59/59/59
f 59/59/59 60/60/60 53/53/53
f 60/60/60 61/61/61 53/53/53
f 60/60/60 62/62/62 61/61/61
f 65/65/65 64/64/64 63/63/63
f 63/63/63 66/66/66 65/65/65
f 63/63/63 67/67/67 66/66/66
f 63/63/63 68/68/68 67/67/67
f 63/63/63 69/69/69 68/68/68
f 63/63/63 70/70/70 69/69/69
f 70/70/70 63/63/63 71/71/71
f 71/71/71 63/63/63 72/72/72
f 71/71/71 72/72/72 73/73/73
f 76/76/76 75/75/75 74/74/74
f 74/74/74 77/77/77 76/76/76
f 80/80/80 79/79/79 78/78/78
f 79/79/79 80/80/80 81/81/81
f 84/84/84 83/83/83 82/82/82
f 82/82/82 85/85/85 84/84/84
f 85/85/85 82/82/82 86/86/86
f 86/86/86 87/87/87 85/85/85
f 87/87/87 86/86/86 88/88/88
f 88/88/88 89/89/89 87/87/87
f 89/89/89 88/88/88 90/90/90
f 90/90/90 91/91/91 89/89/89
f 91/91/91 90/90/90 92/92/92
f 92/92/92 93/93/93 91/91/91
f 93/93/93 94/94/94 91/91/91
f 93/93/93 95/95/95 94/94/94
f 95/95/95 96/96/96 94/94/94
f 95/95/95 97/97/97 96/96/96
f 100/100/100 99/99/99 98/98/98
f 99/99/99 100/100/100 101/101/101
f 101/101/101 102/102/102 99/99/99
f 102/102/102 101/101/101 103/103/103
f 103/103/103 104/104/104 102/102/102
f 104/104/104 103/103/103 105/105/105
f 105/105/105 106/106/106 104/104/104
f 106/106/106 105/105/105 107/107/107
f 107/107/107 108/108/108 106/106/106
f 108/108/108 107/107/107 109/109/109
f 109/109/109 107/107/107 110/110/110
f 109/109/109 110/110/110 111/111/111
f 111/111/111 110/110/110 112/112/112
f 111/111/111 112/112/112 113/113/113
f 116/116/116 115/115/115 114/114/114
f 114/114/114 117/117/117 116/116/116
f 120/120/120 119/119/119 118/118/118
f 119/119/119 120/120/120 121/121/121
f 124/124/124 123/123/123 122/122/122
f 122/122/122 125/125/125 124/124/124
f 122/122/122 126/126/126 125/125/125
f 126/126/126 122/122/122 127/127/127
f 127/127/127 128/128/128 126/126/126
f 127/127/127 129/129/129 128/128/128
f 127/127/127 130/130/130 129/129/129
f 128/128/128 129/129/129 131/131/131
f 129/129/129 130/130/130 132/132/132
f 132/132/132 131/131/131 129/129/129
f 132/132/132 133/133/133 131/131/131
f 132/132/132 134/134/134 133/133/133
f 134/134/134 132/132/132 135/135/135
f 135/135/135 136/136/136 134/134/134
f 136/136/136 135/135/135 137/137/137
f 137/137/137 138/138/138 136/136/136
f 137/137/137 139/139/139 138/138/138
f 139/139/139 137/137/137 140/140/140
f 140/140/140 141/141/141 139/139/139
f 141/141/141 140/140/140 142/142/142
f 142/142/142 143/143/143 141/141/141
f 142/142/142 144/144/144 143/143/143
f 147/147/147 146/146/146 145/145/145
f 146/146/146 147/147/147 148/148/148
f 146/146/146 148/148/148 149/149/149
f 149/149/149 150/150/150 146/146/146
f 150/150/150 149/149/149 151/151/151
f 150/150/150 151/151/151 152/152/152
f 150/150/150 152/152/152 153/153/153
f 151/151/151 154/154/154 152/152/152
f 152/152/152 155/155/155 153/153/153
f 155/155/155 152/152/152 154/154/154
f 155/155/155 154/154/154 156/156/156
f 155/155/155 156/156/156 157/157/157
f 157/157/157 158/158/158 155/155/155
f 158/158/158 157/157/157 159/159/159
f 159/159/159 160/160/160 158/158/158
f 160/160/160 159/159/159 161/161/161
f 160/160/160 161/161/161 162/162/162
f 162/162/162 163/163/163 160/160/160
f 163/163/163 162/162/162 164/164/164
f 164/164/164 165/165/165 163/163/163
f 165/165/165 164/164/164 166/166/166
f 165/165/165 166/166/166 167/167/167
f 170/170/170 169/169/169 168/168/168
f 168/168/168 171/171/171 170/170/170
f 172/172/172 170/170/170 171/171/171
f 172/172/172 173/173/173 170/170/170
f 171/171/171 174/174/174 172/172/172
f 175/175/175 172/172/172 174/174/174
f 174/174/174 176/176/176 175/175/175
f 177/177/177 175/175/175 176/176/176
f 177/177/177 178/178/178 175/175/175
f 176/176/176 179/179/179 177/177/177
f 180/180/180 177/177/177 179/179/179
f 179/179/179 181/181/181 180/180/180
f 184/184/184 183/183/183 182/182/182
f 183/183/183 184/184/184 185/185/185
f 186/186/186 185/185/185 184/184/184
f 186/186/186 184/184/184 187/187/187
f 185/185/185 186/186/186 188/188/188
f 189/189/189 188/188/188 186/186/186
f 188/188/188 189/189/189 190/190/190
f 191/191/191 190/190/190 189/189/189
f 191/191/191 189/189/189 192/192/192
f 190/190/190 191/191/191 193/193/193
f 194/194/194 193/193/193 191/191/191
f 193/193/193 194/194/194 195/195/195
f 198/198/198 197/197/197 196/196/196
f 196/196/196 199/199/199 198/198/198
f 196/196/196 200/200/200 199/199/199
f 196/196/196 201/201/201 200/200/200
f 204/204/204 203/203/203 202/202/202
f 203/203/203 204/204/204 205/205/205
f 203/203/203 205/205/205 206/206/206
f 203/203/203 206/206/206 207/207/207
f 210/210/210 209/209/209 208/208/208
f 208/208/208 211/211/211 210/210/210
f 214/214/214 213/213/213 212/212/212
f 213/213/213 214/214/214 215/215/215
f 7/7/7 217/217/217 216/216/216
f 216/216/216 6/6/6 7/7/7
f 220/220/220 219/219/219 218/218/218
f 218/218/218 221/221/221 220/220/220
f 224/224/224 223/223/223 222/222/222
f 223/223/223 224/224/224 225/225/225
f 228/228/228 227/227/227 226/226/226
f 226/226/226 229/229/229 228/228/228
f 232/232/232 231/231/231 230/230/230
f 231/231/231 232/232/232 233/233/233
f 235/235/235 1/1/1 234/234/234
f 234/234/234 236/236/236 235/235/235
f 234/234/234 237/237/237 236/236/236
f 240/240/240 239/239/239 238/238/238
f 238/238/238 241/241/241 240/240/240
f 244/244/244 243/243/243 242/242/242
f 243/243/243 244/244/244 245/245/245
f 248/248/248 247/247/247 246/246/246
f 246/246/246 249/249/249 248/248/248
f 246/246/246 250/250/250 249/249/249
f 250/250/250 251/251/251 249/249/249
f 254/254/254 253/253/253 252/252/252
f 253/253/253 254/254/254 255/255/255
f 253/253/253 255/255/255 256/256/256
f 256/256/256 255/255/255 257/257/257
f 260/260/260 259/259/259 258/258/258
f 258/258/258 261/261/261 260/260/260
f 264/264/264 263/263/263 262/262/262
f 263/263/263 264/264/264 265/265/265
f 268/268/268 267/267/267 266/266/266
f 266/266/266 269/269/269 268/268/268
f 272/272/272 271/271/271 270/270/270
f 271/271/271 272/272/272 273/273/273
f 8/8/8 275/275/275 274/274/274
f 274/274/274 276/276/276 8/8/8
f 279/279/279 278/278/278 277/277/277
f 277/277/277 280/280/280 279/279/279
f 281/281/281 279/279/279 280/280/280
f 280/280/280 282/282/282 281/281/281
f 285/285/285 284/284/284 283/283/283
f 284/284/284 285/285/285 286/286/286
f 287/287/287 286/286/286 285/285/285
f 286/286/286 287/287/287 288/288/288
f 291/291/291 290/290/290 289/289/289
f 292/292/292 291/291/291 289/289/289
f 292/292/292 289/289/289 293/293/293
f 294/294/294 292/292/292 293/293/293
f 293/293/293 295/295/295 294/294/294
f 298/298/298 297/297/297 296/296/296
f 297/297/297 298/298/298 299/299/299
f 299/299/299 298/298/298 300/300/300
f 299/299/299 300/300/300 301/301/301
f 301/301/301 300/300/300 302/302/302
f 304/304/304 303/303/303 3/3/3
f 3/3/3 4/4/4 304/304/304
f 307/307/307 306/306/306 305/305/305
f 305/305/305 308/308/308 307/307/307
f 311/311/311 310/310/310 309/309/309
f 310/310/310 311/311/311 312/312/312
f 315/315/315 314/314/314 313/313/313
f 313/313/313 316/316/316 315/315/315
f 319/319/319 318/318/318 317/317/317
f 318/318/318 319/319/319 320/320/320
