g Mesh68
v 372.2856 14.08697 29.54544
v 372.1718 14.10146 29.7049
v 372.1451 14.01455 29.52404
v 372.1718 14.10146 29.7049
v 372.2856 14.08697 29.54544
v 372.1451 14.01455 29.52404
v 372.1718 14.10146 29.7049
v 372.024 14.10782 29.62688
v 372.1451 14.01455 29.52404
v 372.024 14.10782 29.62688
v 372.1718 14.10146 29.7049
v 372.1451 14.01455 29.52404
v 372.1451 14.01455 29.52404
v 372.024 14.10782 29.62688
v 372.0866 13.9481 29.74299
v 372.024 14.10782 29.62688
v 372.1451 14.01455 29.52404
v 372.0866 13.9481 29.74299
v 372.024 14.10782 29.62688
v 372.1725 13.99568 29.78426
v 372.0866 13.9481 29.74299
v 372.1725 13.99568 29.78426
v 372.024 14.10782 29.62688
v 372.0866 13.9481 29.74299
v 372.1823 13.86192 29.59467
v 372.0866 13.9481 29.74299
v 372.1725 13.99568 29.78426
v 372.2856 14.08697 29.54544
v 372.1823 13.86192 29.59467
v 372.1725 13.99568 29.78426
v 372.2856 14.08697 29.54544
v 372.1725 13.99568 29.78426
v 372.1718 14.10146 29.7049
v 372.1725 13.99568 29.78426
v 372.2856 14.08697 29.54544
v 372.1718 14.10146 29.7049
v 372.024 14.10782 29.62688
v 372.1718 14.10146 29.7049
v 372.1725 13.99568 29.78426
v 372.1718 14.10146 29.7049
v 372.024 14.10782 29.62688
v 372.1725 13.99568 29.78426
v 372.1823 13.86192 29.59467
v 372.2856 14.08697 29.54544
v 372.1725 13.99568 29.78426
v 372.0866 13.9481 29.74299
v 372.1823 13.86192 29.59467
v 372.1725 13.99568 29.78426
v 372.1451 14.01455 29.52404
v 372.0866 13.9481 29.74299
v 372.1823 13.86192 29.59467
v 372.2856 14.08697 29.54544
v 372.1451 14.01455 29.52404
v 372.1823 13.86192 29.59467
v 372.1451 14.01455 29.52404
v 372.2856 14.08697 29.54544
v 372.1823 13.86192 29.59467
v 372.0866 13.9481 29.74299
v 372.1451 14.01455 29.52404
v 372.1823 13.86192 29.59467
vt -67.77633 56.52668
vt -60.11976 57.61754
vt -64.66468 51.07136
vt -60.11976 57.61754
vt -67.77633 56.52668
vt -64.66468 51.07136
vt -71.52777 -34.63477
vt -64.96129 -34.15832
vt -66.92468 -41.14018
vt -64.96129 -34.15832
vt -71.52777 -34.63477
vt -66.92468 -41.14018
vt -46.72693 -33.9282
vt -40.98332 -29.49963
vt -37.98108 -37.08292
vt -40.98332 -29.49963
vt -46.72693 -33.9282
vt -37.98108 -37.08292
vt 60.9912 27.67469
vt 69.3629 22.98509
vt 65.67219 20.99577
vt 69.3629 22.98509
vt 60.9912 27.67469
vt 65.67219 20.99577
vt 84.71519 14.31645
vt 79.45808 19.98886
vt 82.24644 23.11997
vt 36.82612 38.01168
vt 33.72591 28.56888
vt 26.50781 34.18098
vt 57.875 -17.94701
vt 47.58344 -21.84901
vt 50.16592 -17.32804
vt 47.58344 -21.84901
vt 57.875 -17.94701
vt 50.16592 -17.32804
vt 68.79111 31.79308
vt 75.36794 31.49157
vt 76.78215 26.48074
vt 75.36794 31.49157
vt 68.79111 31.79308
vt 76.78215 26.48074
vt 33.72591 28.56888
vt 36.82612 38.01168
vt 26.50781 34.18098
vt 79.45808 19.98886
vt 84.71519 14.31645
vt 82.24644 23.11997
vt -40.72451 -21.03849
vt -31.86352 -23.85364
vt -38.68116 -27.50508
vt -82.08275 22.33337
vt -76.58039 19.30567
vt -78.87878 12.92527
vt -76.58039 19.30567
vt -82.08275 22.33337
vt -78.87878 12.92527
vt -31.86352 -23.85364
vt -40.72451 -21.03849
vt -38.68116 -27.50508
vn -0.3857134 0.852529 -0.3527313
vn -0.3857134 0.852529 -0.3527313
vn -0.3857134 0.852529 -0.3527313
vn 0.3857134 -0.852529 0.3527313
vn 0.3857134 -0.852529 0.3527313
vn 0.3857134 -0.852529 0.3527313
vn 0.2737143 0.8505122 -0.4491207
vn 0.2737143 0.8505122 -0.4491207
vn 0.2737143 0.8505122 -0.4491207
vn -0.2737143 -0.8505122 0.4491207
vn -0.2737143 -0.8505122 0.4491207
vn -0.2737143 -0.8505122 0.4491207
vn -0.7430998 -0.5589597 -0.3679221
vn -0.7430998 -0.5589597 -0.3679221
vn -0.7430998 -0.5589597 -0.3679221
vn 0.7430998 0.5589597 0.3679221
vn 0.7430998 0.5589597 0.3679221
vn 0.7430998 0.5589597 0.3679221
vn -0.5529076 0.3370905 0.7620125
vn -0.5529076 0.3370905 0.7620125
vn -0.5529076 0.3370905 0.7620125
vn 0.5529076 -0.3370905 -0.7620125
vn 0.5529076 -0.3370905 -0.7620125
vn 0.5529076 -0.3370905 -0.7620125
vn 0.1680571 -0.8013802 0.5740615
vn 0.1680571 -0.8013802 0.5740615
vn 0.1680571 -0.8013802 0.5740615
vn 0.8922918 -0.345804 0.2902324
vn 0.8922918 -0.345804 0.2902324
vn 0.8922918 -0.345804 0.2902324
vn 0.7661179 0.3891838 0.5114678
vn 0.7661179 0.3891838 0.5114678
vn 0.7661179 0.3891838 0.5114678
vn -0.7661179 -0.3891838 -0.5114678
vn -0.7661179 -0.3891838 -0.5114678
vn -0.7661179 -0.3891838 -0.5114678
vn -0.3691273 0.5561116 0.7446374
vn -0.3691273 0.5561116 0.7446374
vn -0.3691273 0.5561116 0.7446374
vn 0.3691273 -0.5561116 -0.7446374
vn 0.3691273 -0.5561116 -0.7446374
vn 0.3691273 -0.5561116 -0.7446374
vn -0.8922918 0.345804 -0.2902324
vn -0.8922918 0.345804 -0.2902324
vn -0.8922918 0.345804 -0.2902324
vn -0.1680571 0.8013802 -0.5740615
vn -0.1680571 0.8013802 -0.5740615
vn -0.1680571 0.8013802 -0.5740615
vn -0.8637375 -0.3695397 -0.3426339
vn -0.8637375 -0.3695397 -0.3426339
vn -0.8637375 -0.3695397 -0.3426339
vn 0.3087987 -0.3362644 -0.8897019
vn 0.3087987 -0.3362644 -0.8897019
vn 0.3087987 -0.3362644 -0.8897019
vn -0.3087987 0.3362644 0.8897019
vn -0.3087987 0.3362644 0.8897019
vn -0.3087987 0.3362644 0.8897019
vn 0.8637375 0.3695397 0.3426339
vn 0.8637375 0.3695397 0.3426339
vn 0.8637375 0.3695397 0.3426339
g Mesh68_0
f 3/3/3 2/2/2 1/1/1
f 6/6/6 5/5/5 4/4/4
f 9/9/9 8/8/8 7/7/7
f 12/12/12 11/11/11 10/10/10
f 15/15/15 14/14/14 13/13/13
f 18/18/18 17/17/17 16/16/16
f 21/21/21 20/20/20 19/19/19
f 24/24/24 23/23/23 22/22/22
f 27/27/27 26/26/26 25/25/25
f 30/30/30 29/29/29 28/28/28
f 33/33/33 32/32/32 31/31/31
f 36/36/36 35/35/35 34/34/34
f 39/39/39 38/38/38 37/37/37
f 42/42/42 41/41/41 40/40/40
f 45/45/45 44/44/44 43/43/43
f 48/48/48 47/47/47 46/46/46
f 51/51/51 50/50/50 49/49/49
f 54/54/54 53/53/53 52/52/52
f 57/57/57 56/56/56 55/55/55
f 60/60/60 59/59/59 58/58/58
