g Mesh3
v 332.5506 18.1 -149.8863
v 332.5506 18.1 -148.3187
v 332.5506 23.5 -148.3187
v 332.5506 23.5 -149.8863
v 332.5506 18.1 -148.3187
v 332.5506 18.1 -149.8863
v 332.5506 23.5 -148.3187
v 332.5506 23.5 -149.8863
vt 0.617139 1.776357E-15
vt 0 1.776357E-15
vt 0 2.125984
vt 0.617139 2.125984
vt 0 1.776357E-15
vt 0.617139 1.776357E-15
vt 0 2.125984
vt 0.617139 2.125984
vn 1 0 0
vn 1 0 0
vn 1 0 0
vn 1 0 0
vn -1 0 0
vn -1 0 0
vn -1 0 0
vn -1 0 0
g Mesh3_0
f 3/3/3 2/2/2 1/1/1
f 1/1/1 4/4/4 3/3/3
f 7/7/7 6/6/6 5/5/5
f 6/6/6 7/7/7 8/8/8
