g Mesh97
v 362.5633 13.94954 28.93334
v 362.145 13.92459 28.97237
v 362.2304 13.4762 29.08731
v 362.145 13.92459 28.97237
v 362.5633 13.94954 28.93334
v 362.2304 13.4762 29.08731
v 362.145 13.92459 28.97237
v 362.3163 13.93346 29.51314
v 362.2304 13.4762 29.08731
v 362.3163 13.93346 29.51314
v 362.145 13.92459 28.97237
v 362.2304 13.4762 29.08731
v 362.2304 13.4762 29.08731
v 362.3163 13.93346 29.51314
v 362.3922 13.54253 29.4483
v 362.3163 13.93346 29.51314
v 362.2304 13.4762 29.08731
v 362.3922 13.54253 29.4483
v 362.6979 14.00846 29.35215
v 362.3922 13.54253 29.4483
v 362.3163 13.93346 29.51314
v 362.6979 14.00846 29.35215
v 362.3163 13.93346 29.51314
v 362.5633 13.94954 28.93334
v 362.5633 13.94954 28.93334
v 362.7686 13.64394 29.2898
v 362.6979 14.00846 29.35215
v 362.7686 13.64394 29.2898
v 362.5633 13.94954 28.93334
v 362.6979 14.00846 29.35215
v 362.6979 14.00846 29.35215
v 362.7686 13.64394 29.2898
v 362.3922 13.54253 29.4483
v 362.7686 13.64394 29.2898
v 362.6979 14.00846 29.35215
v 362.3922 13.54253 29.4483
v 362.7686 13.64394 29.2898
v 362.6447 13.54317 29.05574
v 362.3922 13.54253 29.4483
v 362.6447 13.54317 29.05574
v 362.7686 13.64394 29.2898
v 362.3922 13.54253 29.4483
v 362.6447 13.54317 29.05574
v 362.2304 13.4762 29.08731
v 362.3922 13.54253 29.4483
v 362.2304 13.4762 29.08731
v 362.6447 13.54317 29.05574
v 362.3922 13.54253 29.4483
v 362.5633 13.94954 28.93334
v 362.2304 13.4762 29.08731
v 362.6447 13.54317 29.05574
v 362.5633 13.94954 28.93334
v 362.6447 13.54317 29.05574
v 362.7686 13.64394 29.2898
v 362.6447 13.54317 29.05574
v 362.5633 13.94954 28.93334
v 362.7686 13.64394 29.2898
v 362.2304 13.4762 29.08731
v 362.5633 13.94954 28.93334
v 362.6447 13.54317 29.05574
v 362.3922 13.54253 29.4483
v 362.6979 14.00846 29.35215
v 362.3163 13.93346 29.51314
v 362.3163 13.93346 29.51314
v 362.6979 14.00846 29.35215
v 362.5633 13.94954 28.93334
v 362.5633 13.94954 28.93334
v 362.3163 13.93346 29.51314
v 362.145 13.92459 28.97237
v 362.3163 13.93346 29.51314
v 362.5633 13.94954 28.93334
v 362.145 13.92459 28.97237
vt -76.72409 46.76682
vt -60.18577 45.74924
vt -63.19114 27.46289
vt -60.18577 45.74924
vt -76.72409 46.76682
vt -63.19114 27.46289
vt -32.65056 27.1353
vt -10.31758 27.48626
vt -27.31793 9.387457
vt -10.31758 27.48626
vt -32.65056 27.1353
vt -27.31793 9.387457
vt -16.03518 -1.603643
vt 0.4767897 16.94179
vt -0.4760642 1.086671
vt 0.4767897 16.94179
vt -16.03518 -1.603643
vt -0.4760642 1.086671
vt 86.49302 37.48265
vt 73.94723 19.08846
vt 70.19026 34.52147
vt -58.3064 70.90843
vt -47.88602 58.02573
vt -72.55118 60.78832
vt 26.13008 14.26062
vt 10.19562 1.886975
vt 8.820009 16.64637
vt 10.19562 1.886975
vt 26.13008 14.26062
vt 8.820009 16.64637
vt 86.5062 37.49712
vt 90.0458 23.10256
vt 73.96748 19.0981
vt 90.0458 23.10256
vt 86.5062 37.49712
vt 73.96748 19.0981
vt 77.0291 52.23971
vt 82.16786 42.33909
vt 63.78944 42.27682
vt 82.16786 42.33909
vt 77.0291 52.23971
vt 63.78944 42.27682
vt 82.02982 41.08697
vt 72.24616 27.71427
vt 63.65173 40.9604
vt 72.24616 27.71427
vt 82.02982 41.08697
vt 63.65173 40.9604
vt -74.21181 49.0929
vt -60.9494 29.60211
vt -77.28786 32.35958
vt 12.37717 32.60111
vt 6.611985 16.59396
vt -3.812609 20.56346
vt 6.611985 16.59396
vt 12.37717 32.60111
vt -3.812609 20.56346
vt -60.9494 29.60211
vt -74.21181 49.0929
vt -77.28786 32.35958
vt 73.94723 19.08846
vt 86.49302 37.48265
vt 70.19026 34.52147
vt -47.88602 58.02573
vt -58.3064 70.90843
vt -72.55118 60.78832
vt -50.73438 76.91505
vt -28.32417 66.24807
vt -49.87199 60.36792
vt -28.32417 66.24807
vt -50.73438 76.91505
vt -49.87199 60.36792
vn -0.07425468 -0.2608727 -0.9625133
vn -0.07425468 -0.2608727 -0.9625133
vn -0.07425468 -0.2608727 -0.9625133
vn 0.07425468 0.2608727 0.9625133
vn 0.07425468 0.2608727 0.9625133
vn 0.07425468 0.2608727 0.9625133
vn -0.9477196 -0.1031605 0.3019695
vn -0.9477196 -0.1031605 0.3019695
vn -0.9477196 -0.1031605 0.3019695
vn 0.9477196 0.1031605 -0.3019695
vn 0.9477196 0.1031605 -0.3019695
vn 0.9477196 0.1031605 -0.3019695
vn -0.8686686 -0.2402549 0.433235
vn -0.8686686 -0.2402549 0.433235
vn -0.8686686 -0.2402549 0.433235
vn 0.8686686 0.2402549 -0.433235
vn 0.8686686 0.2402549 -0.433235
vn 0.8686686 0.2402549 -0.433235
vn 0.3999838 -0.07398465 0.9135312
vn 0.3999838 -0.07398465 0.9135312
vn 0.3999838 -0.07398465 0.9135312
vn -0.2193849 0.9733731 -0.06644665
vn -0.2193849 0.9733731 -0.06644665
vn -0.2193849 0.9733731 -0.06644665
vn 0.9156821 0.2335162 -0.3271031
vn 0.9156821 0.2335162 -0.3271031
vn 0.9156821 0.2335162 -0.3271031
vn -0.9156821 -0.2335162 0.3271031
vn -0.9156821 -0.2335162 0.3271031
vn -0.9156821 -0.2335162 0.3271031
vn 0.404518 -0.07743182 0.9112461
vn 0.404518 -0.07743182 0.9112461
vn 0.404518 -0.07743182 0.9112461
vn -0.404518 0.07743182 -0.9112461
vn -0.404518 0.07743182 -0.9112461
vn -0.404518 0.07743182 -0.9112461
vn 0.3376584 -0.9161959 0.2158054
vn 0.3376584 -0.9161959 0.2158054
vn 0.3376584 -0.9161959 0.2158054
vn -0.3376584 0.9161959 -0.2158054
vn -0.3376584 0.9161959 -0.2158054
vn -0.3376584 0.9161959 -0.2158054
vn 0.1665086 -0.9803727 0.1055661
vn 0.1665086 -0.9803727 0.1055661
vn 0.1665086 -0.9803727 0.1055661
vn -0.1665086 0.9803727 -0.1055661
vn -0.1665086 0.9803727 -0.1055661
vn -0.1665086 0.9803727 -0.1055661
vn -0.02548127 -0.2929821 -0.9557783
vn -0.02548127 -0.2929821 -0.9557783
vn -0.02548127 -0.2929821 -0.9557783
vn 0.8777108 0.03185001 -0.4781314
vn 0.8777108 0.03185001 -0.4781314
vn 0.8777108 0.03185001 -0.4781314
vn -0.8777108 -0.03185001 0.4781314
vn -0.8777108 -0.03185001 0.4781314
vn -0.8777108 -0.03185001 0.4781314
vn 0.02548127 0.2929821 0.9557783
vn 0.02548127 0.2929821 0.9557783
vn 0.02548127 0.2929821 0.9557783
vn -0.3999838 0.07398465 -0.9135312
vn -0.3999838 0.07398465 -0.9135312
vn -0.3999838 0.07398465 -0.9135312
vn 0.2193849 -0.9733731 0.06644665
vn 0.2193849 -0.9733731 0.06644665
vn 0.2193849 -0.9733731 0.06644665
vn -0.05931672 0.9982363 0.002426369
vn -0.05931672 0.9982363 0.002426369
vn -0.05931672 0.9982363 0.002426369
vn 0.05931672 -0.9982363 -0.002426369
vn 0.05931672 -0.9982363 -0.002426369
vn 0.05931672 -0.9982363 -0.002426369
g Mesh97_0
f 3/3/3 2/2/2 1/1/1
f 6/6/6 5/5/5 4/4/4
f 9/9/9 8/8/8 7/7/7
f 12/12/12 11/11/11 10/10/10
f 15/15/15 14/14/14 13/13/13
f 18/18/18 17/17/17 16/16/16
f 21/21/21 20/20/20 19/19/19
f 24/24/24 23/23/23 22/22/22
f 27/27/27 26/26/26 25/25/25
f 30/30/30 29/29/29 28/28/28
f 33/33/33 32/32/32 31/31/31
f 36/36/36 35/35/35 34/34/34
f 39/39/39 38/38/38 37/37/37
f 42/42/42 41/41/41 40/40/40
f 45/45/45 44/44/44 43/43/43
f 48/48/48 47/47/47 46/46/46
f 51/51/51 50/50/50 49/49/49
f 54/54/54 53/53/53 52/52/52
f 57/57/57 56/56/56 55/55/55
f 60/60/60 59/59/59 58/58/58
f 63/63/63 62/62/62 61/61/61
f 66/66/66 65/65/65 64/64/64
f 69/69/69 68/68/68 67/67/67
f 72/72/72 71/71/71 70/70/70
