g Mesh121
v 278.6134 27.66498 47.73078
v 279.8043 27.66498 50.95618
v 279.226 27.66498 51.1697
v 277.2963 27.66498 45.94321
v 283.3864 27.66498 43.69455
v 284.1253 27.66498 45.69563
v 283.3864 9.856388 43.69455
v 283.3864 27.66498 43.69455
v 277.2963 27.66498 45.94321
v 277.2963 9.856388 45.94321
v 277.2963 9.856388 45.94321
v 277.2963 27.66498 45.94321
v 283.3864 9.856388 43.69455
v 283.3864 27.66498 43.69455
v 283.3864 9.856388 43.69455
v 277.2963 9.856388 45.94321
v 279.226 9.856388 51.1697
v 285.3162 9.856388 48.92104
v 277.2963 9.856388 45.94321
v 283.3864 9.856388 43.69455
v 279.226 9.856388 51.1697
v 285.3162 9.856388 48.92104
v 279.226 9.856388 51.1697
v 277.2963 9.856388 45.94321
v 277.2963 27.66498 45.94321
v 279.226 27.66498 51.1697
v 279.226 27.66498 51.1697
v 277.2963 27.66498 45.94321
v 279.226 9.856388 51.1697
v 277.2963 9.856388 45.94321
v 285.3162 20.11239 48.92104
v 285.3162 9.856388 48.92104
v 279.226 9.856388 51.1697
v 279.8043 20.11239 50.95618
v 279.226 27.66498 51.1697
v 279.8043 27.66498 50.95618
v 285.3162 9.856388 48.92104
v 285.3162 20.11239 48.92104
v 279.226 9.856388 51.1697
v 279.8043 20.11239 50.95618
v 279.226 27.66498 51.1697
v 279.8043 27.66498 50.95618
v 283.3864 9.856388 43.69455
v 285.3162 9.856388 48.92104
v 285.3162 20.11239 48.92104
v 284.1253 20.11239 45.69563
v 284.1253 27.66498 45.69563
v 283.3864 27.66498 43.69455
v 285.3162 9.856388 48.92104
v 283.3864 9.856388 43.69455
v 285.3162 20.11239 48.92104
v 284.1253 20.11239 45.69563
v 284.1253 27.66498 45.69563
v 283.3864 27.66498 43.69455
v 284.1253 27.66498 45.69563
v 283.3864 27.66498 43.69455
v 278.6134 27.66498 47.73078
v 277.2963 27.66498 45.94321
v 279.226 27.66498 51.1697
v 279.8043 27.66498 50.95618
v 278.6134 31.42591 47.73078
v 278.6134 27.66498 47.73078
v 284.1253 27.66498 45.69563
v 284.7036 31.42591 45.48212
v 284.7036 20.11239 45.48212
v 284.1253 20.11239 45.69563
v 284.1253 20.11239 45.69563
v 284.1253 27.66498 45.69563
v 284.7036 20.11239 45.48212
v 284.7036 31.42591 45.48212
v 278.6134 31.42591 47.73078
v 278.6134 27.66498 47.73078
v 284.7036 20.11239 45.48212
v 284.1253 20.11239 45.69563
v 285.3162 20.11239 48.92104
v 286.1325 20.11239 49.35214
v 280.0423 20.11239 51.6008
v 279.8043 20.11239 50.95618
v 284.1253 20.11239 45.69563
v 284.7036 20.11239 45.48212
v 285.3162 20.11239 48.92104
v 286.1325 20.11239 49.35214
v 280.0423 20.11239 51.6008
v 279.8043 20.11239 50.95618
v 284.7036 20.11239 45.48212
v 286.1325 20.11239 49.35214
v 286.1325 31.42591 49.35214
v 284.7036 31.42591 45.48212
v 286.1325 20.11239 49.35214
v 284.7036 20.11239 45.48212
v 286.1325 31.42591 49.35214
v 284.7036 31.42591 45.48212
v 286.1325 31.42591 49.35214
v 286.1325 20.11239 49.35214
v 280.0423 20.11239 51.6008
v 280.0423 31.42591 51.6008
v 286.1325 20.11239 49.35214
v 286.1325 31.42591 49.35214
v 280.0423 20.11239 51.6008
v 280.0423 31.42591 51.6008
v 279.8043 20.11239 50.95618
v 279.8043 27.66498 50.95618
v 280.0423 20.11239 51.6008
v 280.0423 31.42591 51.6008
v 278.6134 31.42591 47.73078
v 278.6134 27.66498 47.73078
v 279.8043 27.66498 50.95618
v 279.8043 20.11239 50.95618
v 280.0423 20.11239 51.6008
v 280.0423 31.42591 51.6008
v 278.6134 31.42591 47.73078
v 278.6134 27.66498 47.73078
v 280.0423 31.42591 51.6008
v 278.6134 31.42591 47.73078
v 284.7036 31.42591 45.48212
v 286.1325 31.42591 49.35214
v 278.6134 31.42591 47.73078
v 280.0423 31.42591 51.6008
v 284.7036 31.42591 45.48212
v 286.1325 31.42591 49.35214
vt 1027.411 197.0945
vt 1074.297 70.10984
vt 1051.531 61.70374
vt 975.5558 267.4711
vt 1215.327 356.0009
vt 1244.415 277.2182
vt -1263.404 388.0468
vt -1263.404 1089.172
vt -1007.811 1089.172
vt -1007.811 388.0468
vt -1007.811 388.0468
vt -1007.811 1089.172
vt -1263.404 388.0468
vt -1263.404 1089.172
vt -1215.327 356.0009
vt -975.5558 267.4711
vt -1051.531 61.70374
vt -1291.302 150.2336
vt -975.5558 267.4711
vt -1215.327 356.0009
vt -1051.531 61.70374
vt -1291.302 150.2336
vt 306.3352 388.0468
vt 86.98988 388.0468
vt 86.98988 1089.172
vt 306.3352 1089.172
vt 306.3352 1089.172
vt 86.98988 1089.172
vt 306.3352 388.0468
vt 86.98988 388.0468
vt 1263.404 791.8265
vt 1263.404 388.0468
vt 1007.811 388.0468
vt 1032.08 791.8265
vt 1007.811 1089.172
vt 1032.08 1089.172
vt 1263.404 388.0468
vt 1263.404 791.8265
vt 1007.811 388.0468
vt 1032.08 791.8265
vt 1007.811 1089.172
vt 1032.08 1089.172
vt -86.99002 388.0467
vt -306.3353 388.0467
vt -306.3353 791.8264
vt -170.9713 791.8264
vt -170.9713 1089.172
vt -86.99002 1089.172
vt -306.3353 388.0467
vt -86.99002 388.0467
vt -306.3353 791.8264
vt -170.9713 791.8264
vt -170.9713 1089.172
vt -86.99002 1089.172
vt 1244.415 277.2182
vt 1215.327 356.0009
vt 1027.411 197.0945
vt 975.5558 267.4711
vt 1051.531 61.70374
vt 1074.297 70.10984
vt -1032.08 1237.241
vt -1032.08 1089.172
vt -1263.404 1089.172
vt -1287.673 1237.241
vt -1287.673 791.8265
vt -1263.403 791.8265
vt -1263.403 791.8265
vt -1263.404 1089.172
vt -1287.673 791.8265
vt -1287.673 1237.241
vt -1032.08 1237.241
vt -1032.08 1089.172
vt -1267.182 285.6244
vt -1244.415 277.2182
vt -1291.302 150.2336
vt -1323.439 133.2612
vt -1083.668 44.73126
vt -1074.297 70.10984
vt -1244.415 277.2182
vt -1267.182 285.6244
vt -1291.302 150.2336
vt -1323.439 133.2612
vt -1083.668 44.73126
vt -1074.297 70.10984
vt -170.9722 791.8265
vt -333.3895 791.8265
vt -333.3895 1237.241
vt -170.9722 1237.241
vt -333.3895 791.8265
vt -170.9722 791.8265
vt -333.3895 1237.241
vt -170.9722 1237.241
vt 1287.673 1237.241
vt 1287.673 791.8265
vt 1032.08 791.8265
vt 1032.08 1237.241
vt 1287.673 791.8265
vt 1287.673 1237.241
vt 1032.08 791.8265
vt 1032.08 1237.241
vt 306.335 791.8265
vt 306.3352 1089.172
vt 333.3882 791.8265
vt 333.3882 1237.241
vt 170.971 1237.241
vt 170.971 1089.172
vt 306.3352 1089.172
vt 306.335 791.8265
vt 333.3882 791.8265
vt 333.3882 1237.241
vt 170.971 1237.241
vt 170.971 1089.172
vt 1083.668 44.73126
vt 1027.411 197.0945
vt 1267.182 285.6244
vt 1323.439 133.2612
vt 1027.411 197.0945
vt 1083.668 44.73126
vt 1267.182 285.6244
vt 1323.439 133.2612
vn 0 1 0
vn 0 1 0
vn 0 1 0
vn 0 1 0
vn 0 1 0
vn 0 1 0
vn -0.3463709 0 -0.9380977
vn -0.3463709 0 -0.9380977
vn -0.3463709 0 -0.9380977
vn -0.3463709 0 -0.9380977
vn 0.3463709 0 0.9380977
vn 0.3463709 0 0.9380977
vn 0.3463709 0 0.9380977
vn 0.3463709 0 0.9380977
vn 0 -1 0
vn 0 -1 0
vn 0 -1 0
vn 0 -1 0
vn 0 1 0
vn 0 1 0
vn 0 1 0
vn 0 1 0
vn -0.9380978 0 0.3463706
vn -0.9380978 0 0.3463706
vn -0.9380978 0 0.3463706
vn -0.9380978 0 0.3463706
vn 0.9380978 0 -0.3463706
vn 0.9380978 0 -0.3463706
vn 0.9380978 0 -0.3463706
vn 0.9380978 0 -0.3463706
vn 0.3463709 0 0.9380977
vn 0.3463709 0 0.9380977
vn 0.3463709 0 0.9380977
vn 0.3463709 0 0.9380977
vn 0.3463709 0 0.9380977
vn 0.3463709 0 0.9380977
vn -0.3463709 0 -0.9380977
vn -0.3463709 0 -0.9380977
vn -0.3463709 0 -0.9380977
vn -0.3463709 0 -0.9380977
vn -0.3463709 0 -0.9380977
vn -0.3463709 0 -0.9380977
vn 0.9380977 0 -0.3463708
vn 0.9380977 0 -0.3463708
vn 0.9380977 0 -0.3463708
vn 0.9380977 0 -0.3463708
vn 0.9380977 0 -0.3463708
vn 0.9380977 0 -0.3463708
vn -0.9380977 0 0.3463708
vn -0.9380977 0 0.3463708
vn -0.9380977 0 0.3463708
vn -0.9380977 0 0.3463708
vn -0.9380977 0 0.3463708
vn -0.9380977 0 0.3463708
vn 0 -1 0
vn 0 -1 0
vn 0 -1 0
vn 0 -1 0
vn 0 -1 0
vn 0 -1 0
vn -0.3463708 0 -0.9380977
vn -0.3463708 0 -0.9380977
vn -0.3463708 0 -0.9380977
vn -0.3463708 0 -0.9380977
vn -0.3463708 0 -0.9380977
vn -0.3463708 0 -0.9380977
vn 0.3463708 0 0.9380977
vn 0.3463708 0 0.9380977
vn 0.3463708 0 0.9380977
vn 0.3463708 0 0.9380977
vn 0.3463708 0 0.9380977
vn 0.3463708 0 0.9380977
vn 0 -1 0
vn 0 -1 0
vn 0 -1 0
vn 0 -1 0
vn 0 -1 0
vn 0 -1 0
vn 0 1 0
vn 0 1 0
vn 0 1 0
vn 0 1 0
vn 0 1 0
vn 0 1 0
vn 0.9380974 0 -0.3463714
vn 0.9380974 0 -0.3463714
vn 0.9380974 0 -0.3463714
vn 0.9380974 0 -0.3463714
vn -0.9380974 0 0.3463714
vn -0.9380974 0 0.3463714
vn -0.9380974 0 0.3463714
vn -0.9380974 0 0.3463714
vn 0.3463707 0 0.9380978
vn 0.3463707 0 0.9380978
vn 0.3463707 0 0.9380978
vn 0.3463707 0 0.9380978
vn -0.3463707 0 -0.9380978
vn -0.3463707 0 -0.9380978
vn -0.3463707 0 -0.9380978
vn -0.3463707 0 -0.9380978
vn -0.9380978 0 0.3463705
vn -0.9380978 0 0.3463705
vn -0.9380978 0 0.3463705
vn -0.9380978 0 0.3463705
vn -0.9380978 0 0.3463705
vn -0.9380978 0 0.3463705
vn 0.9380978 0 -0.3463705
vn 0.9380978 0 -0.3463705
vn 0.9380978 0 -0.3463705
vn 0.9380978 0 -0.3463705
vn 0.9380978 0 -0.3463705
vn 0.9380978 0 -0.3463705
vn 0 1 0
vn 0 1 0
vn 0 1 0
vn 0 1 0
vn 0 -1 0
vn 0 -1 0
vn 0 -1 0
vn 0 -1 0
g Mesh121_0
f 3/3/3 2/2/2 1/1/1
f 1/1/1 4/4/4 3/3/3
f 5/5/5 4/4/4 1/1/1
f 1/1/1 6/6/6 5/5/5
f 9/9/9 8/8/8 7/7/7
f 7/7/7 10/10/10 9/9/9
f 13/13/13 12/12/12 11/11/11
f 12/12/12 13/13/13 14/14/14
f 17/17/17 16/16/16 15/15/15
f 15/15/15 18/18/18 17/17/17
f 21/21/21 20/20/20 19/19/19
f 20/20/20 21/21/21 22/22/22
f 25/25/25 24/24/24 23/23/23
f 23/23/23 26/26/26 25/25/25
f 29/29/29 28/28/28 27/27/27
f 28/28/28 29/29/29 30/30/30
f 33/33/33 32/32/32 31/31/31
f 31/31/31 34/34/34 33/33/33
f 34/34/34 35/35/35 33/33/33
f 34/34/34 36/36/36 35/35/35
f 39/39/39 38/38/38 37/37/37
f 38/38/38 39/39/39 40/40/40
f 40/40/40 39/39/39 41/41/41
f 40/40/40 41/41/41 42/42/42
f 45/45/45 44/44/44 43/43/43
f 43/43/43 46/46/46 45/45/45
f 43/43/43 47/47/47 46/46/46
f 43/43/43 48/48/48 47/47/47
f 51/51/51 50/50/50 49/49/49
f 50/50/50 51/51/51 52/52/52
f 50/50/50 52/52/52 53/53/53
f 50/50/50 53/53/53 54/54/54
f 57/57/57 56/56/56 55/55/55
f 56/56/56 57/57/57 58/58/58
f 57/57/57 59/59/59 58/58/58
f 59/59/59 57/57/57 60/60/60
f 63/63/63 62/62/62 61/61/61
f 63/63/63 61/61/61 64/64/64
f 63/63/63 64/64/64 65/65/65
f 65/65/65 66/66/66 63/63/63
f 69/69/69 68/68/68 67/67/67
f 68/68/68 69/69/69 70/70/70
f 68/68/68 70/70/70 71/71/71
f 68/68/68 71/71/71 72/72/72
f 75/75/75 74/74/74 73/73/73
f 73/73/73 76/76/76 75/75/75
f 75/75/75 76/76/76 77/77/77
f 77/77/77 78/78/78 75/75/75
f 81/81/81 80/80/80 79/79/79
f 80/80/80 81/81/81 82/82/82
f 81/81/81 83/83/83 82/82/82
f 83/83/83 81/81/81 84/84/84
f 87/87/87 86/86/86 85/85/85
f 85/85/85 88/88/88 87/87/87
f 91/91/91 90/90/90 89/89/89
f 90/90/90 91/91/91 92/92/92
f 95/95/95 94/94/94 93/93/93
f 93/93/93 96/96/96 95/95/95
f 99/99/99 98/98/98 97/97/97
f 98/98/98 99/99/99 100/100/100
f 103/103/103 102/102/102 101/101/101
f 102/102/102 103/103/103 104/104/104
f 104/104/104 105/105/105 102/102/102
f 105/105/105 106/106/106 102/102/102
f 109/109/109 108/108/108 107/107/107
f 107/107/107 110/110/110 109/109/109
f 110/110/110 107/107/107 111/111/111
f 111/111/111 107/107/107 112/112/112
f 115/115/115 114/114/114 113/113/113
f 113/113/113 116/116/116 115/115/115
f 119/119/119 118/118/118 117/117/117
f 118/118/118 119/119/119 120/120/120
