g Mesh5
v 39.8987 30.69 -45.14141
v 41.12566 30.69 -46.38403
v 41.12566 35.185 -46.38403
v 39.8987 35.185 -45.14141
v 36.96149 33.185 -42.16673
v 36.96149 35.185 -42.16673
v 29.47898 30.69 -34.58877
v 34.21079 33.185 -39.38094
v 29.47898 35.185 -34.58877
v 34.21079 35.185 -39.38094
v 41.12566 30.69 -46.38403
v 39.8987 30.69 -45.14141
v 41.12566 35.185 -46.38403
v 39.8987 35.185 -45.14141
v 36.96149 33.185 -42.16673
v 36.96149 35.185 -42.16673
v 29.47898 30.69 -34.58877
v 34.21079 33.185 -39.38094
v 29.47898 35.185 -34.58877
v 34.21079 35.185 -39.38094
v 41.12566 35.185 -46.38403
v 41.12566 30.69 -46.38403
v 43.26038 30.69 -44.2762
v 43.26038 35.185 -44.2762
v 41.12566 30.69 -46.38403
v 41.12566 35.185 -46.38403
v 43.26038 30.69 -44.2762
v 43.26038 35.185 -44.2762
v 31.6137 30.69 -32.48093
v 43.26038 30.69 -44.2762
v 41.12566 30.69 -46.38403
v 39.8987 30.69 -45.14141
v 29.47898 30.69 -34.58877
v 43.26038 30.69 -44.2762
v 31.6137 30.69 -32.48093
v 41.12566 30.69 -46.38403
v 39.8987 30.69 -45.14141
v 29.47898 30.69 -34.58877
v 31.6137 35.185 -32.48093
v 31.6137 30.69 -32.48093
v 29.47898 30.69 -34.58877
v 29.47898 35.185 -34.58877
v 31.6137 30.69 -32.48093
v 31.6137 35.185 -32.48093
v 29.47898 30.69 -34.58877
v 29.47898 35.185 -34.58877
v 31.6137 35.185 -32.48093
v 29.47898 35.185 -34.58877
v 34.21079 35.185 -39.38094
v 36.33554 35.185 -37.26301
v 36.33554 35.185 -37.26301
v 34.21079 35.185 -39.38094
v 31.6137 35.185 -32.48093
v 29.47898 35.185 -34.58877
v 31.6137 35.185 -32.48093
v 36.33554 35.185 -37.26301
v 36.33554 33.185 -37.26301
v 31.6137 30.69 -32.48093
v 39.09621 33.185 -40.0589
v 43.26038 30.69 -44.2762
v 43.26038 35.185 -44.2762
v 39.09621 35.185 -40.0589
v 36.96149 33.185 -42.16673
v 39.09621 33.185 -40.0589
v 36.33554 33.185 -37.26301
v 34.21079 33.185 -39.38094
v 39.09621 33.185 -40.0589
v 36.96149 33.185 -42.16673
v 36.33554 33.185 -37.26301
v 34.21079 33.185 -39.38094
v 36.96149 33.185 -42.16673
v 36.96149 35.185 -42.16673
v 39.09621 35.185 -40.0589
v 39.09621 33.185 -40.0589
v 39.09621 33.185 -40.0589
v 39.09621 35.185 -40.0589
v 36.96149 33.185 -42.16673
v 36.96149 35.185 -42.16673
v 39.09621 35.185 -40.0589
v 36.96149 35.185 -42.16673
v 39.8987 35.185 -45.14141
v 41.12566 35.185 -46.38403
v 43.26038 35.185 -44.2762
v 43.26038 35.185 -44.2762
v 41.12566 35.185 -46.38403
v 39.09621 35.185 -40.0589
v 39.8987 35.185 -45.14141
v 36.96149 35.185 -42.16673
v 39.09621 35.185 -40.0589
v 39.09621 33.185 -40.0589
v 43.26038 35.185 -44.2762
v 43.26038 30.69 -44.2762
v 31.6137 30.69 -32.48093
v 36.33554 33.185 -37.26301
v 31.6137 35.185 -32.48093
v 36.33554 35.185 -37.26301
v 34.21079 35.185 -39.38094
v 34.21079 33.185 -39.38094
v 36.33554 33.185 -37.26301
v 36.33554 35.185 -37.26301
v 34.21079 33.185 -39.38094
v 34.21079 35.185 -39.38094
v 36.33554 33.185 -37.26301
v 36.33554 35.185 -37.26301
vt 6.062518 1.071261E-15
vt -0.8126394 1.071261E-15
vt -0.8126394 17.69685
vt 6.062518 17.69685
vt 22.52088 9.822835
vt 22.52088 17.69685
vt 64.44834 2.949297E-14
vt 37.93412 9.822835
vt 64.44834 17.69685
vt 37.93412 17.69685
vt -0.8126394 1.071261E-15
vt 6.062518 1.071261E-15
vt -0.8126394 17.69685
vt 6.062518 17.69685
vt 22.52088 9.822835
vt 22.52088 17.69685
vt 64.44834 2.949297E-14
vt 37.93412 9.822835
vt 64.44834 17.69685
vt 37.93412 17.69685
vt 5.980367 17.69685
vt 5.980367 -4.185249E-17
vt -5.830657 4.259071E-14
vt -5.830657 17.69685
vt 5.980367 -4.185249E-17
vt 5.980367 17.69685
vt -5.830657 4.259071E-14
vt -5.830657 17.69685
vt -41.13317 49.95646
vt 4.719914 3.518431
vt -3.684505 -4.780125
vt -8.515066 0.1120589
vt -49.53759 41.6579
vt 4.719914 3.518431
vt -41.13317 49.95646
vt -3.684505 -4.780125
vt -8.515066 0.1120589
vt -49.53759 41.6579
vt 5.830657 17.69685
vt 5.830657 3.319214E-15
vt -5.980367 3.174092E-14
vt -5.980367 17.69685
vt 5.830657 3.319214E-15
vt 5.830657 17.69685
vt -5.980367 3.174092E-14
vt -5.980367 17.69685
vt 41.13317 49.95646
vt 49.53759 41.6579
vt 30.90841 22.79107
vt 22.54325 31.12938
vt 22.54325 31.12938
vt 30.90841 22.79107
vt 41.13317 49.95646
vt 49.53759 41.6579
vt -64.44834 17.69685
vt -37.98999 17.69685
vt -37.98999 9.822835
vt -64.44834 -1.044444E-15
vt -22.52088 9.822835
vt 0.8126394 4.158812E-14
vt 0.8126394 17.69685
vt -22.52088 17.69685
vt 20.07889 11.8234
vt 11.67447 20.12196
vt 22.54325 31.12938
vt 30.90841 22.79107
vt 11.67447 20.12196
vt 20.07889 11.8234
vt 22.54325 31.12938
vt 30.90841 22.79107
vt -5.980367 9.822835
vt -5.980367 17.69685
vt 5.830657 17.69685
vt 5.830657 9.822835
vt 5.830657 9.822835
vt 5.830657 17.69685
vt -5.980367 9.822835
vt -5.980367 17.69685
vt 11.67447 20.12196
vt 20.07889 11.8234
vt 8.515066 0.1120589
vt 3.684505 -4.780125
vt -4.719914 3.518431
vt -4.719914 3.518431
vt 3.684505 -4.780125
vt 11.67447 20.12196
vt 8.515066 0.1120589
vt 20.07889 11.8234
vt -22.52088 17.69685
vt -22.52088 9.822835
vt 0.8126394 17.69685
vt 0.8126394 4.158812E-14
vt -64.44834 -1.044444E-15
vt -37.98999 9.822835
vt -64.44834 17.69685
vt -37.98999 17.69685
vt 5.800856 17.69685
vt 5.800856 9.822835
vt -6.0103 9.822835
vt -6.0103 17.69685
vt 5.800856 9.822835
vt 5.800856 17.69685
vt -6.0103 9.822835
vt -6.0103 17.69685
vn -0.7115741 0 -0.702611
vn -0.7115741 0 -0.702611
vn -0.7115741 0 -0.702611
vn -0.7115741 0 -0.702611
vn -0.7115741 0 -0.702611
vn -0.7115741 0 -0.702611
vn -0.7115741 0 -0.702611
vn -0.7115741 0 -0.702611
vn -0.7115741 0 -0.702611
vn -0.7115741 0 -0.702611
vn 0.7115741 0 0.702611
vn 0.7115741 0 0.702611
vn 0.7115741 0 0.702611
vn 0.7115741 0 0.702611
vn 0.7115741 0 0.702611
vn 0.7115741 0 0.702611
vn 0.7115741 0 0.702611
vn 0.7115741 0 0.702611
vn 0.7115741 0 0.702611
vn 0.7115741 0 0.702611
vn 0.702611 0 -0.7115741
vn 0.702611 0 -0.7115741
vn 0.702611 0 -0.7115741
vn 0.702611 0 -0.7115741
vn -0.702611 0 0.7115741
vn -0.702611 0 0.7115741
vn -0.702611 0 0.7115741
vn -0.702611 0 0.7115741
vn 0 -1 0
vn 0 -1 0
vn 0 -1 0
vn 0 -1 0
vn 0 -1 0
vn 0 1 0
vn 0 1 0
vn 0 1 0
vn 0 1 0
vn 0 1 0
vn -0.702611 0 0.7115741
vn -0.702611 0 0.7115741
vn -0.702611 0 0.7115741
vn -0.702611 0 0.7115741
vn 0.702611 0 -0.7115741
vn 0.702611 0 -0.7115741
vn 0.702611 0 -0.7115741
vn 0.702611 0 -0.7115741
vn 0 1 0
vn 0 1 0
vn 0 1 0
vn 0 1 0
vn 0 -1 0
vn 0 -1 0
vn 0 -1 0
vn 0 -1 0
vn 0.7115741 0 0.702611
vn 0.7115741 0 0.702611
vn 0.7115741 0 0.702611
vn 0.7115741 0 0.702611
vn 0.7115741 0 0.702611
vn 0.7115741 0 0.702611
vn 0.7115741 0 0.702611
vn 0.7115741 0 0.702611
vn 0 1 0
vn 0 1 0
vn 0 1 0
vn 0 1 0
vn 0 -1 0
vn 0 -1 0
vn 0 -1 0
vn 0 -1 0
vn -0.702611 0 0.7115741
vn -0.702611 0 0.7115741
vn -0.702611 0 0.7115741
vn -0.702611 0 0.7115741
vn 0.702611 0 -0.7115741
vn 0.702611 0 -0.7115741
vn 0.702611 0 -0.7115741
vn 0.702611 0 -0.7115741
vn 0 1 0
vn 0 1 0
vn 0 1 0
vn 0 1 0
vn 0 1 0
vn 0 -1 0
vn 0 -1 0
vn 0 -1 0
vn 0 -1 0
vn 0 -1 0
vn -0.7115741 0 -0.702611
vn -0.7115741 0 -0.702611
vn -0.7115741 0 -0.702611
vn -0.7115741 0 -0.702611
vn -0.7115741 0 -0.702611
vn -0.7115741 0 -0.702611
vn -0.7115741 0 -0.702611
vn -0.7115741 0 -0.702611
vn 0.7059692 0 -0.7082425
vn 0.7059692 0 -0.7082425
vn 0.7059692 0 -0.7082425
vn 0.7059692 0 -0.7082425
vn -0.7059692 0 0.7082425
vn -0.7059692 0 0.7082425
vn -0.7059692 0 0.7082425
vn -0.7059692 0 0.7082425
g Mesh5_0
f 3/3/3 2/2/2 1/1/1
f 1/1/1 4/4/4 3/3/3
f 5/5/5 4/4/4 1/1/1
f 5/5/5 6/6/6 4/4/4
f 1/1/1 7/7/7 5/5/5
f 7/7/7 8/8/8 5/5/5
f 8/8/8 7/7/7 9/9/9
f 9/9/9 10/10/10 8/8/8
f 13/13/13 12/12/12 11/11/11
f 12/12/12 13/13/13 14/14/14
f 15/15/15 12/12/12 14/14/14
f 15/15/15 14/14/14 16/16/16
f 12/12/12 15/15/15 17/17/17
f 17/17/17 15/15/15 18/18/18
f 18/18/18 19/19/19 17/17/17
f 19/19/19 18/18/18 20/20/20
f 23/23/23 22/22/22 21/21/21
f 21/21/21 24/24/24 23/23/23
f 27/27/27 26/26/26 25/25/25
f 26/26/26 27/27/27 28/28/28
f 31/31/31 30/30/30 29/29/29
f 29/29/29 32/32/32 31/31/31
f 29/29/29 33/33/33 32/32/32
f 36/36/36 35/35/35 34/34/34
f 35/35/35 36/36/36 37/37/37
f 35/35/35 37/37/37 38/38/38
f 41/41/41 40/40/40 39/39/39
f 39/39/39 42/42/42 41/41/41
f 45/45/45 44/44/44 43/43/43
f 44/44/44 45/45/45 46/46/46
f 49/49/49 48/48/48 47/47/47
f 47/47/47 50/50/50 49/49/49
f 53/53/53 52/52/52 51/51/51
f 52/52/52 53/53/53 54/54/54
f 57/57/57 56/56/56 55/55/55
f 57/57/57 55/55/55 58/58/58
f 59/59/59 57/57/57 58/58/58
f 59/59/59 58/58/58 60/60/60
f 60/60/60 61/61/61 59/59/59
f 61/61/61 62/62/62 59/59/59
f 65/65/65 64/64/64 63/63/63
f 63/63/63 66/66/66 65/65/65
f 69/69/69 68/68/68 67/67/67
f 68/68/68 69/69/69 70/70/70
f 73/73/73 72/72/72 71/71/71
f 71/71/71 74/74/74 73/73/73
f 77/77/77 76/76/76 75/75/75
f 76/76/76 77/77/77 78/78/78
f 81/81/81 80/80/80 79/79/79
f 82/82/82 81/81/81 79/79/79
f 79/79/79 83/83/83 82/82/82
f 86/86/86 85/85/85 84/84/84
f 85/85/85 86/86/86 87/87/87
f 87/87/87 86/86/86 88/88/88
f 91/91/91 90/90/90 89/89/89
f 92/92/92 90/90/90 91/91/91
f 90/90/90 92/92/92 93/93/93
f 90/90/90 93/93/93 94/94/94
f 94/94/94 93/93/93 95/95/95
f 94/94/94 95/95/95 96/96/96
f 99/99/99 98/98/98 97/97/97
f 97/97/97 100/100/100 99/99/99
f 103/103/103 102/102/102 101/101/101
f 102/102/102 103/103/103 104/104/104
