g Mesh62
v -286.6304 -7.318399 -1482.857
v -286.6304 -7.318399 -1496.69
v -286.6304 155.6816 -1496.69
v -286.6304 155.6816 -1482.857
v -286.6304 215.6816 -1496.69
v -286.6304 215.6816 -1482.857
v -132.4904 215.6816 -1482.857
v -132.4904 -7.318399 -1482.857
v -286.6304 -7.318399 -1482.857
v -286.6304 155.6816 -1482.857
v -286.6304 215.6816 -1482.857
v -132.4904 -7.318399 -1482.857
v -132.4904 215.6816 -1482.857
v -286.6304 -7.318399 -1482.857
v -286.6304 155.6816 -1482.857
v -286.6304 215.6816 -1482.857
v -286.6304 215.6816 -1482.857
v -286.6304 215.6816 -1496.69
v -286.6304 155.6816 -1482.857
v -286.6304 155.6816 -1496.69
v -286.6304 -7.318399 -1482.857
v -286.6304 -7.318399 -1496.69
vt -5838.02 -28.8126
vt -5892.481 -28.8126
vt -5892.481 612.9197
vt -5838.02 612.9197
vt -5892.481 849.1401
vt -5838.02 849.1401
vt -521.6159 849.1401
vt -521.6159 -28.8126
vt -1128.466 -28.8126
vt -1128.466 612.9197
vt -1128.466 849.1401
vt -521.6159 -28.8126
vt -521.6159 849.1401
vt -1128.466 -28.8126
vt -1128.466 612.9197
vt -1128.466 849.1401
vt -5838.02 849.1401
vt -5892.481 849.1401
vt -5838.02 612.9197
vt -5892.481 612.9197
vt -5838.02 -28.8126
vt -5892.481 -28.8126
vn -1 0 0
vn -1 0 0
vn -1 0 0
vn -1 0 0
vn -1 0 0
vn -1 0 0
vn 0 0 1
vn 0 0 1
vn 0 0 1
vn 0 0 1
vn 0 0 1
vn 0 0 -1
vn 0 0 -1
vn 0 0 -1
vn 0 0 -1
vn 0 0 -1
vn 1 0 0
vn 1 0 0
vn 1 0 0
vn 1 0 0
vn 1 0 0
vn 1 0 0
g Mesh62_0
f 3/3/3 2/2/2 1/1/1
f 1/1/1 4/4/4 3/3/3
f 5/5/5 3/3/3 4/4/4
f 4/4/4 6/6/6 5/5/5
f 9/9/9 8/8/8 7/7/7
f 7/7/7 10/10/10 9/9/9
f 7/7/7 11/11/11 10/10/10
g Mesh62_1
f 14/14/14 13/13/13 12/12/12
f 13/13/13 14/14/14 15/15/15
f 13/13/13 15/15/15 16/16/16
f 19/19/19 18/18/18 17/17/17
f 18/18/18 19/19/19 20/20/20
f 21/21/21 20/20/20 19/19/19
f 20/20/20 21/21/21 22/22/22
