g Mesh155
v 429.4599 32.59717 -80.60648
v 424.6148 32.59812 -83.93038
v 424.4319 32.59795 -83.66376
v 429.7853 32.5969 -79.99114
v 431.4049 32.59892 -83.44167
v 431.9133 32.59882 -83.09295
v 424.6148 32.59812 -83.93038
v 429.4599 32.59717 -80.60648
v 424.4319 32.59795 -83.66376
v 429.7853 32.5969 -79.99114
v 431.4049 32.59892 -83.44167
v 431.9133 32.59882 -83.09295
v 424.6148 32.59812 -83.93038
v 424.6136 40.22321 -83.92648
v 424.4319 32.59795 -83.66376
v 424.4307 40.48294 -83.65972
v 426.5587 40.48487 -86.76152
v 426.5587 40.22497 -86.76166
v 424.6136 40.22321 -83.92648
v 424.6148 32.59812 -83.93038
v 424.4319 32.59795 -83.66376
v 424.4307 40.48294 -83.65972
v 426.5587 40.48487 -86.76152
v 426.5587 40.22497 -86.76166
v 429.7841 40.4819 -79.98711
v 424.4307 40.48294 -83.65972
v 426.5587 40.48487 -86.76152
v 431.912 40.48382 -83.08891
v 424.4307 40.48294 -83.65972
v 429.7841 40.4819 -79.98711
v 426.5587 40.48487 -86.76152
v 431.912 40.48382 -83.08891
v 429.7841 40.4819 -79.98711
v 431.912 40.48382 -83.08891
v 431.9133 32.59882 -83.09295
v 429.7853 32.5969 -79.99114
v 429.7853 32.5969 -79.99114
v 431.9133 32.59882 -83.09295
v 429.7841 40.4819 -79.98711
v 431.912 40.48382 -83.08891
v 429.7841 40.4819 -79.98711
v 429.7853 32.5969 -79.99114
v 424.4319 32.59795 -83.66376
v 424.4307 40.48294 -83.65972
v 429.7853 32.5969 -79.99114
v 429.7841 40.4819 -79.98711
v 424.4319 32.59795 -83.66376
v 424.4307 40.48294 -83.65972
v 431.9289 22.34339 -84.20836
v 429.4615 22.34116 -80.61174
v 429.4599 32.59717 -80.60648
v 431.4049 32.59892 -83.44167
v 431.4038 40.22402 -83.43776
v 431.9261 40.22449 -84.1992
v 429.4615 22.34116 -80.61174
v 431.9289 22.34339 -84.20836
v 429.4599 32.59717 -80.60648
v 431.4049 32.59892 -83.44167
v 431.4038 40.22402 -83.43776
v 431.9261 40.22449 -84.1992
v 429.4599 32.59717 -80.60648
v 429.4615 22.34116 -80.61174
v 424.1081 22.34221 -84.28436
v 424.6148 32.59812 -83.93038
v 424.1053 40.22331 -84.27519
v 424.6136 40.22321 -83.92648
v 429.4615 22.34116 -80.61174
v 429.4599 32.59717 -80.60648
v 424.1081 22.34221 -84.28436
v 424.6148 32.59812 -83.93038
v 424.1053 40.22331 -84.27519
v 424.6136 40.22321 -83.92648
v 426.5755 22.34444 -87.88097
v 424.1081 22.34221 -84.28436
v 429.4615 22.34116 -80.61174
v 429.0804 22.3447 -87.62962
v 431.9289 22.34339 -84.20836
v 424.1081 22.34221 -84.28436
v 426.5755 22.34444 -87.88097
v 429.4615 22.34116 -80.61174
v 429.0804 22.3447 -87.62962
v 431.9289 22.34339 -84.20836
v 424.1081 22.34221 -84.28436
v 426.5755 22.34444 -87.88097
v 426.5728 40.22554 -87.87181
v 424.1053 40.22331 -84.27519
v 424.1053 40.22331 -84.27519
v 426.5728 40.22554 -87.87181
v 424.1081 22.34221 -84.28436
v 426.5755 22.34444 -87.88097
v 424.6136 40.22321 -83.92648
v 424.1053 40.22331 -84.27519
v 426.5728 40.22554 -87.87181
v 426.5587 40.22497 -86.76166
v 431.9261 40.22449 -84.1992
v 431.4038 40.22402 -83.43776
v 424.1053 40.22331 -84.27519
v 424.6136 40.22321 -83.92648
v 426.5728 40.22554 -87.87181
v 426.5587 40.22497 -86.76166
v 431.9261 40.22449 -84.1992
v 431.4038 40.22402 -83.43776
v 426.5587 40.48487 -86.76152
v 426.5587 40.22497 -86.76166
v 431.4038 40.22402 -83.43776
v 431.912 40.48382 -83.08891
v 431.9133 32.59882 -83.09295
v 431.4049 32.59892 -83.44167
v 431.4049 32.59892 -83.44167
v 431.4038 40.22402 -83.43776
v 431.9133 32.59882 -83.09295
v 431.912 40.48382 -83.08891
v 426.5587 40.48487 -86.76152
v 426.5587 40.22497 -86.76166
vt -1253.594 67.12744
vt -1022.27 67.12744
vt -1022.27 54.39846
vt -1277.863 54.39843
vt -1253.594 202.4914
vt -1277.863 202.4914
vt -1022.27 67.12744
vt -1253.594 67.12744
vt -1022.27 54.39846
vt -1277.863 54.39843
vt -1253.594 202.4914
vt -1277.863 202.4914
vt -67.12801 865.7836
vt -67.12801 1165.984
vt -54.39903 865.7836
vt -54.39903 1176.217
vt -202.492 1176.217
vt -202.492 1165.984
vt -67.12801 1165.984
vt -67.12801 865.7836
vt -54.39903 865.7836
vt -54.39903 1176.217
vt -202.492 1176.217
vt -202.492 1165.984
vt 1277.863 54.39843
vt 1022.27 54.39846
vt 1022.27 202.4914
vt 1277.863 202.4914
vt 1022.27 54.39846
vt 1277.863 54.39843
vt 1022.27 202.4914
vt 1277.863 202.4914
vt 54.39843 1176.217
vt 202.4914 1176.217
vt 202.4914 865.7836
vt 54.39843 865.7836
vt 54.39843 865.7836
vt 202.4914 865.7836
vt 54.39843 1176.217
vt 202.4914 1176.217
vt 1277.863 1176.217
vt 1277.863 865.7836
vt 1022.27 865.7836
vt 1022.27 1176.217
vt 1277.863 865.7836
vt 1277.863 1176.217
vt 1022.27 865.7836
vt 1022.27 1176.217
vt 238.846 462.0039
vt 67.12804 462.0039
vt 67.12804 865.7836
vt 202.492 865.7836
vt 202.492 1165.984
vt 238.846 1165.984
vt 67.12804 462.0039
vt 238.846 462.0039
vt 67.12804 865.7836
vt 202.492 865.7836
vt 202.492 1165.984
vt 238.846 1165.984
vt 1253.594 865.7836
vt 1253.594 462.0039
vt 998.0011 462.0039
vt 1022.27 865.7836
vt 998.0011 1165.984
vt 1022.27 1165.984
vt 1253.594 462.0039
vt 1253.594 865.7836
vt 998.0011 462.0039
vt 1022.27 865.7836
vt 998.0011 1165.984
vt 1022.27 1165.984
vt -998.0012 238.8454
vt -998.0011 67.12744
vt -1253.594 67.12744
vt -1084.917 286.4727
vt -1253.594 238.8454
vt -998.0011 67.12744
vt -998.0012 238.8454
vt -1253.594 67.12744
vt -1084.917 286.4727
vt -1253.594 238.8454
vt -67.12788 462.0039
vt -238.8458 462.0039
vt -238.8458 1165.984
vt -67.12788 1165.984
vt -67.12788 1165.984
vt -238.8458 1165.984
vt -67.12788 462.0039
vt -238.8458 462.0039
vt 1022.27 67.12744
vt 998.0011 67.12744
vt 998.0012 238.8454
vt 1022.27 202.4914
vt 1253.594 238.8454
vt 1253.594 202.4914
vt 998.0011 67.12744
vt 1022.27 67.12744
vt 998.0012 238.8454
vt 1022.27 202.4914
vt 1253.594 238.8454
vt 1253.594 202.4914
vt -1022.27 1176.217
vt -1022.27 1165.984
vt -1253.594 1165.984
vt -1277.863 1176.217
vt -1277.863 865.7836
vt -1253.594 865.7836
vt -1253.594 865.7836
vt -1253.594 1165.984
vt -1277.863 865.7836
vt -1277.863 1176.217
vt -1022.27 1176.217
vt -1022.27 1165.984
vn 0.0001554452 -0.9999999 -0.0005124842
vn 0.0001554452 -0.9999999 -0.0005124842
vn 0.0001554452 -0.9999999 -0.0005124842
vn 0.0001554452 -0.9999999 -0.0005124842
vn 0.0001554452 -0.9999999 -0.0005124842
vn 0.0001554452 -0.9999999 -0.0005124842
vn -0.0001554452 0.9999999 0.0005124842
vn -0.0001554452 0.9999999 0.0005124842
vn -0.0001554452 0.9999999 0.0005124842
vn -0.0001554452 0.9999999 0.0005124842
vn -0.0001554452 0.9999999 0.0005124842
vn -0.0001554452 0.9999999 0.0005124842
vn -0.8246042 0.0001617382 -0.5657102
vn -0.8246042 0.0001617382 -0.5657102
vn -0.8246042 0.0001617382 -0.5657102
vn -0.8246042 0.0001617382 -0.5657102
vn -0.8246042 0.0001617382 -0.5657102
vn -0.8246042 0.0001617382 -0.5657102
vn 0.8246042 -0.0001617382 0.5657102
vn 0.8246042 -0.0001617382 0.5657102
vn 0.8246042 -0.0001617382 0.5657102
vn 0.8246042 -0.0001617382 0.5657102
vn 0.8246042 -0.0001617382 0.5657102
vn 0.8246042 -0.0001617382 0.5657102
vn -0.0001554452 0.9999999 0.0005124842
vn -0.0001554452 0.9999999 0.0005124842
vn -0.0001554452 0.9999999 0.0005124842
vn -0.0001554452 0.9999999 0.0005124842
vn 0.0001554452 -0.9999999 -0.0005124842
vn 0.0001554452 -0.9999999 -0.0005124842
vn 0.0001554452 -0.9999999 -0.0005124842
vn 0.0001554452 -0.9999999 -0.0005124842
vn 0.8246045 -0.0001617365 0.5657098
vn 0.8246045 -0.0001617365 0.5657098
vn 0.8246045 -0.0001617365 0.5657098
vn 0.8246045 -0.0001617365 0.5657098
vn -0.8246045 0.0001617365 -0.5657098
vn -0.8246045 0.0001617365 -0.5657098
vn -0.8246045 0.0001617365 -0.5657098
vn -0.8246045 0.0001617365 -0.5657098
vn -0.5657099 -0.0005105335 0.8246042
vn -0.5657099 -0.0005105335 0.8246042
vn -0.5657099 -0.0005105335 0.8246042
vn -0.5657099 -0.0005105335 0.8246042
vn 0.5657099 0.0005105335 -0.8246042
vn 0.5657099 0.0005105335 -0.8246042
vn 0.5657099 0.0005105335 -0.8246042
vn 0.5657099 0.0005105335 -0.8246042
vn 0.8246042 -0.0001617474 0.5657101
vn 0.8246042 -0.0001617474 0.5657101
vn 0.8246042 -0.0001617474 0.5657101
vn 0.8246042 -0.0001617474 0.5657101
vn 0.8246042 -0.0001617474 0.5657101
vn 0.8246042 -0.0001617474 0.5657101
vn -0.8246042 0.0001617474 -0.5657101
vn -0.8246042 0.0001617474 -0.5657101
vn -0.8246042 0.0001617474 -0.5657101
vn -0.8246042 0.0001617474 -0.5657101
vn -0.8246042 0.0001617474 -0.5657101
vn -0.8246042 0.0001617474 -0.5657101
vn -0.5657097 -0.0005105335 0.8246043
vn -0.5657097 -0.0005105335 0.8246043
vn -0.5657097 -0.0005105335 0.8246043
vn -0.5657097 -0.0005105335 0.8246043
vn -0.5657097 -0.0005105335 0.8246043
vn -0.5657097 -0.0005105335 0.8246043
vn 0.5657097 0.0005105335 -0.8246043
vn 0.5657097 0.0005105335 -0.8246043
vn 0.5657097 0.0005105335 -0.8246043
vn 0.5657097 0.0005105335 -0.8246043
vn 0.5657097 0.0005105335 -0.8246043
vn 0.5657097 0.0005105335 -0.8246043
vn 0.0001554452 -0.9999999 -0.0005124842
vn 0.0001554452 -0.9999999 -0.0005124842
vn 0.0001554452 -0.9999999 -0.0005124842
vn 0.0001554452 -0.9999999 -0.0005124842
vn 0.0001554452 -0.9999999 -0.0005124842
vn -0.0001554452 0.9999999 0.0005124842
vn -0.0001554452 0.9999999 0.0005124842
vn -0.0001554452 0.9999999 0.0005124842
vn -0.0001554452 0.9999999 0.0005124842
vn -0.0001554452 0.9999999 0.0005124842
vn -0.8246042 0.0001617367 -0.5657101
vn -0.8246042 0.0001617367 -0.5657101
vn -0.8246042 0.0001617367 -0.5657101
vn -0.8246042 0.0001617367 -0.5657101
vn 0.8246042 -0.0001617367 0.5657101
vn 0.8246042 -0.0001617367 0.5657101
vn 0.8246042 -0.0001617367 0.5657101
vn 0.8246042 -0.0001617367 0.5657101
vn -0.0001554452 0.9999999 0.0005124842
vn -0.0001554452 0.9999999 0.0005124842
vn -0.0001554452 0.9999999 0.0005124842
vn -0.0001554452 0.9999999 0.0005124842
vn -0.0001554452 0.9999999 0.0005124842
vn -0.0001554452 0.9999999 0.0005124842
vn 0.0001554452 -0.9999999 -0.0005124842
vn 0.0001554452 -0.9999999 -0.0005124842
vn 0.0001554452 -0.9999999 -0.0005124842
vn 0.0001554452 -0.9999999 -0.0005124842
vn 0.0001554452 -0.9999999 -0.0005124842
vn 0.0001554452 -0.9999999 -0.0005124842
vn 0.5657098 0.0005105332 -0.8246042
vn 0.5657098 0.0005105332 -0.8246042
vn 0.5657098 0.0005105332 -0.8246042
vn 0.5657098 0.0005105332 -0.8246042
vn 0.5657098 0.0005105332 -0.8246042
vn 0.5657098 0.0005105332 -0.8246042
vn -0.5657098 -0.0005105332 0.8246042
vn -0.5657098 -0.0005105332 0.8246042
vn -0.5657098 -0.0005105332 0.8246042
vn -0.5657098 -0.0005105332 0.8246042
vn -0.5657098 -0.0005105332 0.8246042
vn -0.5657098 -0.0005105332 0.8246042
g Mesh155_0
f 3/3/3 2/2/2 1/1/1
f 1/1/1 4/4/4 3/3/3
f 1/1/1 5/5/5 4/4/4
f 5/5/5 6/6/6 4/4/4
f 9/9/9 8/8/8 7/7/7
f 8/8/8 9/9/9 10/10/10
f 8/8/8 10/10/10 11/11/11
f 11/11/11 10/10/10 12/12/12
f 15/15/15 14/14/14 13/13/13
f 14/14/14 15/15/15 16/16/16
f 16/16/16 17/17/17 14/14/14
f 17/17/17 18/18/18 14/14/14
f 21/21/21 20/20/20 19/19/19
f 19/19/19 22/22/22 21/21/21
f 22/22/22 19/19/19 23/23/23
f 23/23/23 19/19/19 24/24/24
f 27/27/27 26/26/26 25/25/25
f 25/25/25 28/28/28 27/27/27
f 31/31/31 30/30/30 29/29/29
f 30/30/30 31/31/31 32/32/32
f 35/35/35 34/34/34 33/33/33
f 33/33/33 36/36/36 35/35/35
f 39/39/39 38/38/38 37/37/37
f 38/38/38 39/39/39 40/40/40
f 43/43/43 42/42/42 41/41/41
f 41/41/41 44/44/44 43/43/43
f 47/47/47 46/46/46 45/45/45
f 46/46/46 47/47/47 48/48/48
f 51/51/51 50/50/50 49/49/49
f 49/49/49 52/52/52 51/51/51
f 49/49/49 53/53/53 52/52/52
f 49/49/49 54/54/54 53/53/53
f 57/57/57 56/56/56 55/55/55
f 56/56/56 57/57/57 58/58/58
f 56/56/56 58/58/58 59/59/59
f 56/56/56 59/59/59 60/60/60
f 63/63/63 62/62/62 61/61/61
f 61/61/61 64/64/64 63/63/63
f 64/64/64 65/65/65 63/63/63
f 64/64/64 66/66/66 65/65/65
f 69/69/69 68/68/68 67/67/67
f 68/68/68 69/69/69 70/70/70
f 70/70/70 69/69/69 71/71/71
f 70/70/70 71/71/71 72/72/72
f 75/75/75 74/74/74 73/73/73
f 73/73/73 76/76/76 75/75/75
f 76/76/76 77/77/77 75/75/75
f 80/80/80 79/79/79 78/78/78
f 79/79/79 80/80/80 81/81/81
f 81/81/81 80/80/80 82/82/82
f 85/85/85 84/84/84 83/83/83
f 83/83/83 86/86/86 85/85/85
f 89/89/89 88/88/88 87/87/87
f 88/88/88 89/89/89 90/90/90
f 93/93/93 92/92/92 91/91/91
f 91/91/91 94/94/94 93/93/93
f 94/94/94 95/95/95 93/93/93
f 94/94/94 96/96/96 95/95/95
f 99/99/99 98/98/98 97/97/97
f 98/98/98 99/99/99 100/100/100
f 100/100/100 99/99/99 101/101/101
f 100/100/100 101/101/101 102/102/102
f 105/105/105 104/104/104 103/103/103
f 105/105/105 103/103/103 106/106/106
f 105/105/105 106/106/106 107/107/107
f 107/107/107 108/108/108 105/105/105
f 111/111/111 110/110/110 109/109/109
f 110/110/110 111/111/111 112/112/112
f 110/110/110 112/112/112 113/113/113
f 110/110/110 113/113/113 114/114/114
