g Mesh131
v 332.4527 22.90372 -37.63276
v 332.4527 22.90372 -38.32807
v 323.712 21.27722 -38.32807
v 332.4527 22.90372 -37.63276
v 323.712 21.27722 -38.32807
v 323.2492 21.27722 -37.63276
v 323.712 21.27722 -38.32807
v 332.4527 22.90372 -37.63276
v 323.2492 21.27722 -37.63276
v 332.4527 22.90372 -38.32807
v 332.4527 22.90372 -37.63276
v 323.712 21.27722 -38.32807
v 323.2492 33.50962 -48.03988
v 323.2492 33.50962 -37.63276
v 323.2492 21.27722 -37.63276
v 323.2492 21.27722 -48.03988
v 323.2492 33.50962 -37.63276
v 323.2492 33.50962 -48.03988
v 323.2492 21.27722 -37.63276
v 323.2492 21.27722 -48.03988
v 332.4527 22.90372 -37.63276
v 323.2492 21.27722 -37.63276
v 323.2492 33.50962 -37.63276
v 332.4527 33.50962 -37.63276
v 323.2492 21.27722 -37.63276
v 332.4527 22.90372 -37.63276
v 323.2492 33.50962 -37.63276
v 332.4527 33.50962 -37.63276
v 332.4527 22.90372 -38.32807
v 332.4527 22.90372 -37.63276
v 332.4527 33.50962 -37.63276
v 332.4527 32.69042 -38.32807
v 332.4527 33.50962 -48.03988
v 332.4527 32.69042 -48.03988
v 332.4527 22.90372 -37.63276
v 332.4527 22.90372 -38.32807
v 332.4527 33.50962 -37.63276
v 332.4527 32.69042 -38.32807
v 332.4527 33.50962 -48.03988
v 332.4527 32.69042 -48.03988
v 332.4527 22.90372 -38.32807
v 332.4527 32.69042 -38.32807
v 337.9364 32.69042 -38.32807
v 337.9364 18.29108 -38.32807
v 323.712 18.29108 -38.32807
v 323.712 21.27722 -38.32807
v 323.712 21.27722 -38.32807
v 323.712 18.29108 -38.32807
v 332.4527 22.90372 -38.32807
v 337.9364 18.29108 -38.32807
v 337.9364 32.69042 -38.32807
v 332.4527 32.69042 -38.32807
v 323.2492 21.27722 -37.63276
v 323.712 21.27722 -38.32807
v 323.712 21.27722 -48.03988
v 323.2492 21.27722 -48.03988
v 323.2492 21.27722 -48.03988
v 323.712 21.27722 -48.03988
v 323.2492 21.27722 -37.63276
v 323.712 21.27722 -38.32807
v 323.2492 33.50962 -48.03988
v 323.2492 21.27722 -48.03988
v 323.712 21.27722 -48.03988
v 323.712 32.69042 -48.03988
v 332.4527 32.69042 -48.03988
v 332.4527 33.50962 -48.03988
v 323.2492 21.27722 -48.03988
v 323.2492 33.50962 -48.03988
v 323.712 21.27722 -48.03988
v 323.712 32.69042 -48.03988
v 332.4527 32.69042 -48.03988
v 332.4527 33.50962 -48.03988
v 323.2492 33.50962 -48.03988
v 332.4527 33.50962 -48.03988
v 332.4527 33.50962 -37.63276
v 323.2492 33.50962 -37.63276
v 323.2492 33.50962 -37.63276
v 332.4527 33.50962 -37.63276
v 323.2492 33.50962 -48.03988
v 332.4527 33.50962 -48.03988
v 337.9364 32.69042 -38.32807
v 332.4527 32.69042 -38.32807
v 332.4527 32.69042 -48.03988
v 337.9364 32.69042 -49.10212
v 323.712 32.69042 -49.10212
v 323.712 32.69042 -48.03988
v 323.712 32.69042 -48.03988
v 332.4527 32.69042 -48.03988
v 323.712 32.69042 -49.10212
v 337.9364 32.69042 -49.10212
v 337.9364 32.69042 -38.32807
v 332.4527 32.69042 -38.32807
v 323.712 32.69042 -49.10212
v 323.712 32.69042 -48.03988
v 323.712 21.27722 -48.03988
v 323.712 18.29108 -49.10212
v 323.712 18.29108 -38.32807
v 323.712 21.27722 -38.32807
v 323.712 21.27722 -38.32807
v 323.712 21.27722 -48.03988
v 323.712 18.29108 -38.32807
v 323.712 18.29108 -49.10212
v 323.712 32.69042 -49.10212
v 323.712 32.69042 -48.03988
v 323.712 32.69042 -49.10212
v 323.712 18.29108 -49.10212
v 338.3266 18.29108 -49.10212
v 337.9364 29.47775 -49.10212
v 338.3266 29.47775 -49.10212
v 337.9364 32.69042 -49.10212
v 323.712 18.29108 -49.10212
v 323.712 32.69042 -49.10212
v 338.3266 18.29108 -49.10212
v 337.9364 29.47775 -49.10212
v 337.9364 32.69042 -49.10212
v 338.3266 29.47775 -49.10212
v 338.3266 18.29108 -49.10212
v 323.712 18.29108 -49.10212
v 323.712 18.29108 -38.32807
v 337.9364 18.29108 -44.0449
v 337.9364 18.29108 -38.32807
v 338.3266 18.29108 -44.0449
v 323.712 18.29108 -49.10212
v 338.3266 18.29108 -49.10212
v 323.712 18.29108 -38.32807
v 337.9364 18.29108 -44.0449
v 338.3266 18.29108 -44.0449
v 337.9364 18.29108 -38.32807
v 338.3266 18.29108 -49.10212
v 338.3266 18.29108 -44.0449
v 338.3266 29.47775 -44.0449
v 338.3266 29.47775 -49.10212
v 338.3266 18.29108 -44.0449
v 338.3266 18.29108 -49.10212
v 338.3266 29.47775 -44.0449
v 338.3266 29.47775 -49.10212
v 338.3266 29.47775 -44.0449
v 338.3266 18.29108 -44.0449
v 337.9364 18.29108 -44.0449
v 337.9364 29.47775 -44.0449
v 338.3266 18.29108 -44.0449
v 338.3266 29.47775 -44.0449
v 337.9364 18.29108 -44.0449
v 337.9364 29.47775 -44.0449
v 338.3266 29.47775 -44.0449
v 337.9364 29.47775 -44.0449
v 337.9364 29.47775 -49.10212
v 338.3266 29.47775 -49.10212
v 337.9364 29.47775 -44.0449
v 338.3266 29.47775 -44.0449
v 337.9364 29.47775 -49.10212
v 338.3266 29.47775 -49.10212
v 337.9364 32.69042 -49.10212
v 337.9364 29.47775 -49.10212
v 337.9364 29.47775 -44.0449
v 337.9364 32.69042 -38.32807
v 337.9364 18.29108 -44.0449
v 337.9364 18.29108 -38.32807
v 337.9364 18.29108 -38.32807
v 337.9364 18.29108 -44.0449
v 337.9364 32.69042 -38.32807
v 337.9364 29.47775 -44.0449
v 337.9364 32.69042 -49.10212
v 337.9364 29.47775 -49.10212
vt 0 400.4821
vt 27.37445 400.4821
vt 27.37445 50.45179
vt 200.7579 345.3014
vt 32.88304 36.93701
vt 0 36.93701
vt 32.88304 36.93701
vt 200.7579 345.3014
vt 0 36.93701
vt 27.37445 400.4821
vt 0 400.4821
vt 27.37445 50.45179
vt -409.7292 659.4609
vt 0 659.4609
vt 0 177.8704
vt -409.7292 177.8704
vt 0 659.4609
vt -409.7292 659.4609
vt 0 177.8704
vt -409.7292 177.8704
vt 362.342 241.9061
vt 0 177.8704
vt 0 659.4609
vt 362.342 659.4609
vt 0 177.8704
vt 362.342 241.9061
vt 0 659.4609
vt 362.342 659.4609
vt 27.37445 241.9061
vt 0 241.9061
vt 0 659.4609
vt 27.37445 627.209
vt 409.7292 659.4609
vt 409.7292 627.209
vt 0 241.9061
vt 27.37445 241.9061
vt 0 659.4609
vt 27.37445 627.209
vt 409.7292 659.4609
vt 409.7292 627.209
vt 362.342 241.9061
vt 362.342 627.209
vt 578.2352 627.209
vt 578.2352 60.30595
vt 18.21906 60.30595
vt 18.21906 177.8704
vt 18.21906 177.8704
vt 18.21906 60.30595
vt 362.342 241.9061
vt 578.2352 60.30595
vt 578.2352 627.209
vt 362.342 627.209
vt 0 0
vt -18.21906 27.37445
vt -18.21906 409.7292
vt 0 409.7292
vt 0 409.7292
vt -18.21906 409.7292
vt 0 0
vt -18.21906 27.37445
vt 0 659.4609
vt 0 177.8704
vt -18.21906 177.8704
vt -18.21906 627.209
vt -362.342 627.209
vt -362.342 659.4609
vt 0 177.8704
vt 0 659.4609
vt -18.21906 177.8704
vt -18.21906 627.209
vt -362.342 627.209
vt -362.342 659.4609
vt 0 409.7292
vt 362.342 409.7292
vt 362.342 0
vt 0 0
vt 0 0
vt 362.342 0
vt 0 409.7292
vt 362.342 409.7292
vt 578.2352 27.37445
vt 362.342 27.37445
vt 362.342 409.7292
vt 578.2352 451.5496
vt 18.21906 451.5496
vt 18.21906 409.7292
vt 18.21906 409.7292
vt 362.342 409.7292
vt 18.21906 451.5496
vt 578.2352 451.5496
vt 578.2352 27.37445
vt 362.342 27.37445
vt -451.5496 627.209
vt -409.7292 627.209
vt -409.7292 177.8704
vt -451.5496 60.30595
vt -27.37445 60.30595
vt -27.37445 177.8704
vt -27.37445 177.8704
vt -409.7292 177.8704
vt -27.37445 60.30595
vt -451.5496 60.30595
vt -451.5496 627.209
vt -409.7292 627.209
vt -18.21906 627.209
vt -18.21906 60.30595
vt -593.5962 60.30595
vt -578.2352 500.7259
vt -593.5962 500.7259
vt -578.2352 627.209
vt -18.21906 60.30595
vt -18.21906 627.209
vt -593.5962 60.30595
vt -578.2352 500.7259
vt -578.2352 627.209
vt -593.5962 500.7259
vt -593.5962 451.5496
vt -18.21906 451.5496
vt -18.21906 27.37445
vt -578.2352 252.4466
vt -578.2352 27.37445
vt -593.5962 252.4466
vt -18.21906 451.5496
vt -593.5962 451.5496
vt -18.21906 27.37445
vt -578.2352 252.4466
vt -593.5962 252.4466
vt -578.2352 27.37445
vt 451.5496 60.30595
vt 252.4466 60.30595
vt 252.4466 500.7259
vt 451.5496 500.7259
vt 252.4466 60.30595
vt 451.5496 60.30595
vt 252.4466 500.7259
vt 451.5496 500.7259
vt 593.5962 500.7259
vt 593.5962 60.30595
vt 578.2352 60.30595
vt 578.2352 500.7259
vt 593.5962 60.30595
vt 593.5962 500.7259
vt 578.2352 60.30595
vt 578.2352 500.7259
vt 593.5962 252.4466
vt 578.2352 252.4466
vt 578.2352 451.5496
vt 593.5962 451.5496
vt 578.2352 252.4466
vt 593.5962 252.4466
vt 578.2352 451.5496
vt 593.5962 451.5496
vt 451.5496 627.209
vt 451.5496 500.7259
vt 252.4466 500.7259
vt 27.37445 627.209
vt 252.4466 60.30595
vt 27.37445 60.30595
vt 27.37445 60.30595
vt 252.4466 60.30595
vt 27.37445 627.209
vt 252.4466 500.7259
vt 451.5496 627.209
vt 451.5496 500.7259
vn 0.1829433 -0.9831234 0
vn 0.1829433 -0.9831234 0
vn 0.1829433 -0.9831234 0
vn 0.1728747 -0.9782006 0.1150567
vn 0.1728747 -0.9782006 0.1150567
vn 0.1728747 -0.9782006 0.1150567
vn -0.1728747 0.9782006 -0.1150567
vn -0.1728747 0.9782006 -0.1150567
vn -0.1728747 0.9782006 -0.1150567
vn -0.1829433 0.9831234 0
vn -0.1829433 0.9831234 0
vn -0.1829433 0.9831234 0
vn -1 0 0
vn -1 0 0
vn -1 0 0
vn -1 0 0
vn 1 0 0
vn 1 0 0
vn 1 0 0
vn 1 0 0
vn 0 0 1
vn 0 0 1
vn 0 0 1
vn 0 0 1
vn 0 0 -1
vn 0 0 -1
vn 0 0 -1
vn 0 0 -1
vn 1 0 0
vn 1 0 0
vn 1 0 0
vn 1 0 0
vn 1 0 0
vn 1 0 0
vn -1 0 0
vn -1 0 0
vn -1 0 0
vn -1 0 0
vn -1 0 0
vn -1 0 0
vn 0 0 1
vn 0 0 1
vn 0 0 1
vn 0 0 1
vn 0 0 1
vn 0 0 1
vn 0 0 -1
vn 0 0 -1
vn 0 0 -1
vn 0 0 -1
vn 0 0 -1
vn 0 0 -1
vn 0 -1 0
vn 0 -1 0
vn 0 -1 0
vn 0 -1 0
vn 0 1 0
vn 0 1 0
vn 0 1 0
vn 0 1 0
vn 0 0 -1
vn 0 0 -1
vn 0 0 -1
vn 0 0 -1
vn 0 0 -1
vn 0 0 -1
vn 0 0 1
vn 0 0 1
vn 0 0 1
vn 0 0 1
vn 0 0 1
vn 0 0 1
vn 0 1 0
vn 0 1 0
vn 0 1 0
vn 0 1 0
vn 0 -1 0
vn 0 -1 0
vn 0 -1 0
vn 0 -1 0
vn 0 1 0
vn 0 1 0
vn 0 1 0
vn 0 1 0
vn 0 1 0
vn 0 1 0
vn 0 -1 0
vn 0 -1 0
vn 0 -1 0
vn 0 -1 0
vn 0 -1 0
vn 0 -1 0
vn -1 0 0
vn -1 0 0
vn -1 0 0
vn -1 0 0
vn -1 0 0
vn -1 0 0
vn 1 0 0
vn 1 0 0
vn 1 0 0
vn 1 0 0
vn 1 0 0
vn 1 0 0
vn 0 0 -1
vn 0 0 -1
vn 0 0 -1
vn 0 0 -1
vn 0 0 -1
vn 0 0 -1
vn 0 0 1
vn 0 0 1
vn 0 0 1
vn 0 0 1
vn 0 0 1
vn 0 0 1
vn 0 -1 0
vn 0 -1 0
vn 0 -1 0
vn 0 -1 0
vn 0 -1 0
vn 0 -1 0
vn 0 1 0
vn 0 1 0
vn 0 1 0
vn 0 1 0
vn 0 1 0
vn 0 1 0
vn 1 0 0
vn 1 0 0
vn 1 0 0
vn 1 0 0
vn -1 0 0
vn -1 0 0
vn -1 0 0
vn -1 0 0
vn 0 0 1
vn 0 0 1
vn 0 0 1
vn 0 0 1
vn 0 0 -1
vn 0 0 -1
vn 0 0 -1
vn 0 0 -1
vn 0 1 0
vn 0 1 0
vn 0 1 0
vn 0 1 0
vn 0 -1 0
vn 0 -1 0
vn 0 -1 0
vn 0 -1 0
vn 1 0 0
vn 1 0 0
vn 1 0 0
vn 1 0 0
vn 1 0 0
vn 1 0 0
vn -1 0 0
vn -1 0 0
vn -1 0 0
vn -1 0 0
vn -1 0 0
vn -1 0 0
g Mesh131_0
f 3/3/3 2/2/2 1/1/1
f 6/6/6 5/5/5 4/4/4
f 9/9/9 8/8/8 7/7/7
f 12/12/12 11/11/11 10/10/10
f 15/15/15 14/14/14 13/13/13
f 13/13/13 16/16/16 15/15/15
f 19/19/19 18/18/18 17/17/17
f 18/18/18 19/19/19 20/20/20
f 23/23/23 22/22/22 21/21/21
f 21/21/21 24/24/24 23/23/23
f 27/27/27 26/26/26 25/25/25
f 26/26/26 27/27/27 28/28/28
f 31/31/31 30/30/30 29/29/29
f 29/29/29 32/32/32 31/31/31
f 32/32/32 33/33/33 31/31/31
f 32/32/32 34/34/34 33/33/33
f 37/37/37 36/36/36 35/35/35
f 36/36/36 37/37/37 38/38/38
f 38/38/38 37/37/37 39/39/39
f 38/38/38 39/39/39 40/40/40
f 43/43/43 42/42/42 41/41/41
f 44/44/44 43/43/43 41/41/41
f 41/41/41 45/45/45 44/44/44
f 41/41/41 46/46/46 45/45/45
f 49/49/49 48/48/48 47/47/47
f 49/49/49 50/50/50 48/48/48
f 50/50/50 49/49/49 51/51/51
f 51/51/51 49/49/49 52/52/52
f 55/55/55 54/54/54 53/53/53
f 53/53/53 56/56/56 55/55/55
f 59/59/59 58/58/58 57/57/57
f 58/58/58 59/59/59 60/60/60
f 63/63/63 62/62/62 61/61/61
f 61/61/61 64/64/64 63/63/63
f 61/61/61 65/65/65 64/64/64
f 61/61/61 66/66/66 65/65/65
f 69/69/69 68/68/68 67/67/67
f 68/68/68 69/69/69 70/70/70
f 68/68/68 70/70/70 71/71/71
f 68/68/68 71/71/71 72/72/72
f 75/75/75 74/74/74 73/73/73
f 73/73/73 76/76/76 75/75/75
f 79/79/79 78/78/78 77/77/77
f 78/78/78 79/79/79 80/80/80
f 83/83/83 82/82/82 81/81/81
f 83/83/83 81/81/81 84/84/84
f 83/83/83 84/84/84 85/85/85
f 85/85/85 86/86/86 83/83/83
f 89/89/89 88/88/88 87/87/87
f 88/88/88 89/89/89 90/90/90
f 88/88/88 90/90/90 91/91/91
f 88/88/88 91/91/91 92/92/92
f 95/95/95 94/94/94 93/93/93
f 95/95/95 93/93/93 96/96/96
f 95/95/95 96/96/96 97/97/97
f 97/97/97 98/98/98 95/95/95
f 101/101/101 100/100/100 99/99/99
f 100/100/100 101/101/101 102/102/102
f 100/100/100 102/102/102 103/103/103
f 100/100/100 103/103/103 104/104/104
f 107/107/107 106/106/106 105/105/105
f 105/105/105 108/108/108 107/107/107
f 107/107/107 108/108/108 109/109/109
f 105/105/105 110/110/110 108/108/108
f 113/113/113 112/112/112 111/111/111
f 112/112/112 113/113/113 114/114/114
f 112/112/112 114/114/114 115/115/115
f 113/113/113 116/116/116 114/114/114
f 119/119/119 118/118/118 117/117/117
f 117/117/117 120/120/120 119/119/119
f 119/119/119 120/120/120 121/121/121
f 117/117/117 122/122/122 120/120/120
f 125/125/125 124/124/124 123/123/123
f 124/124/124 125/125/125 126/126/126
f 124/124/124 126/126/126 127/127/127
f 125/125/125 128/128/128 126/126/126
f 131/131/131 130/130/130 129/129/129
f 129/129/129 132/132/132 131/131/131
f 135/135/135 134/134/134 133/133/133
f 134/134/134 135/135/135 136/136/136
f 139/139/139 138/138/138 137/137/137
f 137/137/137 140/140/140 139/139/139
f 143/143/143 142/142/142 141/141/141
f 142/142/142 143/143/143 144/144/144
f 147/147/147 146/146/146 145/145/145
f 145/145/145 148/148/148 147/147/147
f 151/151/151 150/150/150 149/149/149
f 150/150/150 151/151/151 152/152/152
f 155/155/155 154/154/154 153/153/153
f 155/155/155 153/153/153 156/156/156
f 157/157/157 155/155/155 156/156/156
f 156/156/156 158/158/158 157/157/157
f 161/161/161 160/160/160 159/159/159
f 160/160/160 161/161/161 162/162/162
f 162/162/162 161/161/161 163/163/163
f 162/162/162 163/163/163 164/164/164
