g Mesh42
v 375.1153 14.05866 28.19524
v 375.1235 13.96192 28.19581
v 375.0478 14.03434 28.23561
v 375.1235 13.96192 28.19581
v 375.1153 14.05866 28.19524
v 375.0478 14.03434 28.23561
v 375.0478 14.03434 28.23561
v 375.1235 13.96192 28.19581
v 375.0363 13.97367 28.23031
v 375.0002 14.03467 28.15679
v 375.0478 14.03434 28.23561
v 375.0363 13.97367 28.23031
v 375.0478 14.03434 28.23561
v 375.0002 14.03467 28.15679
v 375.0363 13.97367 28.23031
v 375.1235 13.96192 28.19581
v 375.0478 14.03434 28.23561
v 375.0363 13.97367 28.23031
v 375.1235 13.96192 28.19581
v 375.002 13.9473 28.14901
v 375.0363 13.97367 28.23031
v 375.002 13.9473 28.14901
v 375.1235 13.96192 28.19581
v 375.0363 13.97367 28.23031
v 375.002 13.9473 28.14901
v 375.0002 14.03467 28.15679
v 375.0363 13.97367 28.23031
v 375.0002 14.03467 28.15679
v 375.002 13.9473 28.14901
v 375.0363 13.97367 28.23031
v 375.0728 14.06034 28.11361
v 375.0002 14.03467 28.15679
v 375.002 13.9473 28.14901
v 375.0002 14.03467 28.15679
v 375.0728 14.06034 28.11361
v 375.002 13.9473 28.14901
v 375.0728 14.06034 28.11361
v 375.002 13.9473 28.14901
v 375.0972 13.9387 28.11068
v 375.0972 13.9387 28.11068
v 375.1235 13.96192 28.19581
v 375.0728 14.06034 28.11361
v 375.1235 13.96192 28.19581
v 375.0972 13.9387 28.11068
v 375.0728 14.06034 28.11361
v 375.0728 14.06034 28.11361
v 375.1235 13.96192 28.19581
v 375.1153 14.05866 28.19524
v 375.1235 13.96192 28.19581
v 375.0728 14.06034 28.11361
v 375.1153 14.05866 28.19524
v 375.1153 14.05866 28.19524
v 375.0002 14.03467 28.15679
v 375.0728 14.06034 28.11361
v 375.0002 14.03467 28.15679
v 375.1153 14.05866 28.19524
v 375.0728 14.06034 28.11361
v 375.1153 14.05866 28.19524
v 375.0478 14.03434 28.23561
v 375.0002 14.03467 28.15679
v 375.0478 14.03434 28.23561
v 375.1153 14.05866 28.19524
v 375.0002 14.03467 28.15679
v 375.002 13.9473 28.14901
v 375.0728 14.06034 28.11361
v 375.0972 13.9387 28.11068
v 375.1235 13.96192 28.19581
v 375.0972 13.9387 28.11068
v 375.002 13.9473 28.14901
v 375.0972 13.9387 28.11068
v 375.1235 13.96192 28.19581
v 375.002 13.9473 28.14901
vt 205.8121 6.651724
vt 206.0801 2.838632
vt 202.7143 5.693207
vt 206.0801 2.838632
vt 205.8121 6.651724
vt 202.7143 5.693207
vt 207.6503 9.677949
vt 210.9923 6.795397
vt 207.2999 7.263047
vt 47.01474 31.29788
vt 50.63939 31.28478
vt 50.22664 28.87974
vt 50.63939 31.28478
vt 47.01474 31.29788
vt 50.22664 28.87974
vt 210.9923 6.795397
vt 207.6503 9.677949
vt 207.2999 7.263047
vt 200.7949 -61.10102
vt 195.9821 -62.95404
vt 197.3841 -59.61147
vt 195.9821 -62.95404
vt 200.7949 -61.10102
vt 197.3841 -59.61147
vt 20.5815 -6.859863
vt 20.83246 -3.414807
vt 24.0539 -5.820232
vt 20.83246 -3.414807
vt 20.5815 -6.859863
vt 24.0539 -5.820232
vt -204.4735 12.11895
vt -201.1497 11.1061
vt -201.3726 7.659113
vt -201.1497 11.1061
vt -204.4735 12.11895
vt -201.3726 7.659113
vt -209.9179 8.145647
vt -206.8129 3.688666
vt -210.8526 3.349782
vt -7.165252 -36.75835
vt -10.66823 -35.82692
vt -6.942735 -31.87733
vt -10.66823 -35.82692
vt -7.165252 -36.75835
vt -6.942735 -31.87733
vt -33.78185 -6.08683
vt -37.57438 -9.972102
vt -37.40596 -6.153315
vt -37.57438 -9.972102
vt -33.78185 -6.08683
vt -37.40596 -6.153315
vt 50.10933 198.7224
vt 46.47853 195.4757
vt 46.49179 198.9503
vt 46.47853 195.4757
vt 50.10933 198.7224
vt 46.49179 198.9503
vt 52.94352 197.8032
vt 52.89445 194.5609
vt 49.27004 194.6049
vt 52.89445 194.5609
vt 52.94352 197.8032
vt 49.27004 194.6049
vt -206.8129 3.688666
vt -209.9179 8.145647
vt -210.8526 3.349782
vt 205.5048 -46.3414
vt 204.6889 -49.87309
vt 200.8518 -48.56533
vt 204.6889 -49.87309
vt 205.5048 -46.3414
vt 200.8518 -48.56533
vn 0.4998191 0.04737269 0.8648334
vn 0.4998191 0.04737269 0.8648334
vn 0.4998191 0.04737269 0.8648334
vn -0.4998191 -0.04737269 -0.8648334
vn -0.4998191 -0.04737269 -0.8648334
vn -0.4998191 -0.04737269 -0.8648334
vn 0.3466372 -0.1466884 0.9264585
vn 0.3466372 -0.1466884 0.9264585
vn 0.3466372 -0.1466884 0.9264585
vn -0.8501998 0.1160811 0.5135032
vn -0.8501998 0.1160811 0.5135032
vn -0.8501998 0.1160811 0.5135032
vn 0.8501998 -0.1160811 -0.5135032
vn 0.8501998 -0.1160811 -0.5135032
vn 0.8501998 -0.1160811 -0.5135032
vn -0.3466372 0.1466884 -0.9264585
vn -0.3466372 0.1466884 -0.9264585
vn -0.3466372 0.1466884 -0.9264585
vn -0.005238611 -0.9505548 0.3105127
vn -0.005238611 -0.9505548 0.3105127
vn -0.005238611 -0.9505548 0.3105127
vn 0.005238611 0.9505548 -0.3105127
vn 0.005238611 0.9505548 -0.3105127
vn 0.005238611 0.9505548 -0.3105127
vn -0.9136751 -0.05497434 0.4027104
vn -0.9136751 -0.05497434 0.4027104
vn -0.9136751 -0.05497434 0.4027104
vn 0.9136751 0.05497434 -0.4027104
vn 0.9136751 0.05497434 -0.4027104
vn 0.9136751 0.05497434 -0.4027104
vn -0.5269537 0.06435056 -0.8474542
vn -0.5269537 0.06435056 -0.8474542
vn -0.5269537 0.06435056 -0.8474542
vn 0.5269537 -0.06435056 0.8474542
vn 0.5269537 -0.06435056 0.8474542
vn 0.5269537 -0.06435056 0.8474542
vn -0.3771732 -0.05353035 -0.9245943
vn -0.3771732 -0.05353035 -0.9245943
vn -0.3771732 -0.05353035 -0.9245943
vn 0.9213555 0.1932792 -0.3372641
vn 0.9213555 0.1932792 -0.3372641
vn 0.9213555 0.1932792 -0.3372641
vn -0.9213555 -0.1932792 0.3372641
vn -0.9213555 -0.1932792 0.3372641
vn -0.9213555 -0.1932792 0.3372641
vn 0.8850725 0.07223707 -0.4598135
vn 0.8850725 0.07223707 -0.4598135
vn 0.8850725 0.07223707 -0.4598135
vn -0.8850725 -0.07223707 0.4598135
vn -0.8850725 -0.07223707 0.4598135
vn -0.8850725 -0.07223707 0.4598135
vn -0.2493982 0.9567559 0.1497286
vn -0.2493982 0.9567559 0.1497286
vn -0.2493982 0.9567559 0.1497286
vn 0.2493982 -0.9567559 -0.1497286
vn 0.2493982 -0.9567559 -0.1497286
vn 0.2493982 -0.9567559 -0.1497286
vn -0.2510399 0.9554076 0.1554838
vn -0.2510399 0.9554076 0.1554838
vn -0.2510399 0.9554076 0.1554838
vn 0.2510399 -0.9554076 -0.1554838
vn 0.2510399 -0.9554076 -0.1554838
vn 0.2510399 -0.9554076 -0.1554838
vn 0.3771732 0.05353035 0.9245943
vn 0.3771732 0.05353035 0.9245943
vn 0.3771732 0.05353035 0.9245943
vn 0.01675801 -0.9659411 0.2582189
vn 0.01675801 -0.9659411 0.2582189
vn 0.01675801 -0.9659411 0.2582189
vn -0.01675801 0.9659411 -0.2582189
vn -0.01675801 0.9659411 -0.2582189
vn -0.01675801 0.9659411 -0.2582189
g Mesh42_0
f 3/3/3 2/2/2 1/1/1
f 6/6/6 5/5/5 4/4/4
f 9/9/9 8/8/8 7/7/7
f 12/12/12 11/11/11 10/10/10
f 15/15/15 14/14/14 13/13/13
f 18/18/18 17/17/17 16/16/16
f 21/21/21 20/20/20 19/19/19
f 24/24/24 23/23/23 22/22/22
f 27/27/27 26/26/26 25/25/25
f 30/30/30 29/29/29 28/28/28
f 33/33/33 32/32/32 31/31/31
f 36/36/36 35/35/35 34/34/34
f 39/39/39 38/38/38 37/37/37
f 42/42/42 41/41/41 40/40/40
f 45/45/45 44/44/44 43/43/43
f 48/48/48 47/47/47 46/46/46
f 51/51/51 50/50/50 49/49/49
f 54/54/54 53/53/53 52/52/52
f 57/57/57 56/56/56 55/55/55
f 60/60/60 59/59/59 58/58/58
f 63/63/63 62/62/62 61/61/61
f 66/66/66 65/65/65 64/64/64
f 69/69/69 68/68/68 67/67/67
f 72/72/72 71/71/71 70/70/70
