g Mesh120
v 283.2207 31.15902 50.25576
v 283.2207 7.000002 50.25576
v 276.8201 7.000002 52.58538
v 278.5222 31.07494 51.96586
v 276.8201 31.07494 52.58538
v 278.8767 31.38027 51.83685
v 283.2207 7.000002 50.25576
v 283.2207 31.15902 50.25576
v 276.8201 7.000002 52.58538
v 278.5222 31.07494 51.96586
v 278.8767 31.38027 51.83685
v 276.8201 31.07494 52.58538
v 280.896 31.15902 43.86872
v 283.2207 31.15902 50.25576
v 278.8767 31.38027 51.83685
v 276.552 31.38027 45.44981
v 276.552 31.38027 45.44981
v 278.8767 31.38027 51.83685
v 280.896 31.15902 43.86872
v 283.2207 31.15902 50.25576
v 280.896 31.15902 43.86872
v 280.896 30.99489 43.86872
v 282.9197 30.99489 49.42881
v 283.2207 31.15902 50.25576
v 282.9197 7.000002 49.42881
v 283.2207 7.000002 50.25576
v 280.896 30.99489 43.86872
v 280.896 31.15902 43.86872
v 282.9197 30.99489 49.42881
v 283.2207 31.15902 50.25576
v 282.9197 7.000002 49.42881
v 283.2207 7.000002 50.25576
v 282.9197 30.99489 49.42881
v 280.896 30.99489 43.86872
v 284.5334 30.9973 42.54482
v 286.5571 30.9973 48.1049
v 280.896 30.99489 43.86872
v 282.9197 30.99489 49.42881
v 284.5334 30.9973 42.54482
v 286.5571 30.9973 48.1049
v 282.9197 7.000002 49.42881
v 282.9197 30.99489 49.42881
v 286.5571 30.9973 48.1049
v 286.5571 7.000002 48.1049
v 286.5571 7.000002 48.1049
v 286.5571 30.9973 48.1049
v 282.9197 7.000002 49.42881
v 282.9197 30.99489 49.42881
v 284.5334 7.000002 42.54482
v 286.5571 7.000002 48.1049
v 286.5571 30.9973 48.1049
v 284.5334 30.9973 42.54482
v 286.5571 7.000002 48.1049
v 284.5334 7.000002 42.54482
v 286.5571 30.9973 48.1049
v 284.5334 30.9973 42.54482
v 276.552 31.38027 45.44981
v 278.8767 31.38027 51.83685
v 278.5222 31.07494 51.96586
v 276.1975 31.07494 45.57883
v 276.1975 31.07494 45.57883
v 278.5222 31.07494 51.96586
v 276.552 31.38027 45.44981
v 278.8767 31.38027 51.83685
v 276.1975 31.07494 45.57883
v 278.5222 31.07494 51.96586
v 276.8201 31.07494 52.58538
v 274.4954 31.07494 46.19835
v 274.4954 31.07494 46.19835
v 276.8201 31.07494 52.58538
v 276.1975 31.07494 45.57883
v 278.5222 31.07494 51.96586
vt 1169.311 1226.733
vt 1169.311 275.5906
vt 901.1467 275.5906
vt 972.4606 1223.423
vt 901.1467 1223.423
vt 987.3117 1235.444
vt 1169.311 275.5906
vt 1169.311 1226.733
vt 901.1467 275.5906
vt 972.4606 1223.423
vt 987.3117 1235.444
vt 901.1467 1223.423
vt -54.04342 -1109.329
vt -321.6395 -1109.329
vt -321.6395 -927.1211
vt -54.04345 -927.1211
vt -54.04345 -927.1211
vt -321.6395 -927.1211
vt -54.04342 -1109.329
vt -321.6395 -1109.329
vt -54.04359 1226.733
vt -54.04359 1220.271
vt -286.9932 1220.271
vt -321.6396 1226.733
vt -286.9932 275.5906
vt -321.6396 275.5906
vt -54.04359 1220.271
vt -54.04359 1226.733
vt -286.9932 1220.271
vt -321.6396 1226.733
vt -286.9932 275.5906
vt -321.6396 275.5906
vt 1197.664 130.5025
vt 1117.99 349.4034
vt 1261.196 401.526
vt 1340.87 182.6251
vt 1117.99 349.4034
vt 1197.664 130.5025
vt 1261.196 401.526
vt 1340.87 182.6251
vt 1169.311 275.5906
vt 1169.311 1220.271
vt 1321.707 1220.366
vt 1321.707 275.5906
vt 1321.707 275.5906
vt 1321.707 1220.366
vt 1169.311 275.5906
vt 1169.311 1220.271
vt -54.04431 275.5906
vt -286.9939 275.5906
vt -286.9939 1220.366
vt -54.04431 1220.366
vt -286.9939 275.5906
vt -54.04431 275.5906
vt -286.9939 1220.366
vt -54.04431 1220.366
vt 54.04341 1544.701
vt 321.6394 1544.701
vt 321.6394 1525.595
vt 54.04339 1525.595
vt 54.04339 1525.595
vt 321.6394 1525.595
vt 54.04341 1544.701
vt 321.6394 1544.701
vt 932.2979 281.8169
vt 1023.821 30.35894
vt 956.808 5.96815
vt 865.2849 257.4262
vt 865.2849 257.4262
vt 956.808 5.96815
vt 932.2979 281.8169
vt 1023.821 30.35894
vn 0.3420201 0 0.9396926
vn 0.3420201 0 0.9396926
vn 0.3420201 0 0.9396926
vn 0.3420201 0 0.9396926
vn 0.3420201 0 0.9396926
vn 0.3420201 0 0.9396926
vn -0.3420201 0 -0.9396926
vn -0.3420201 0 -0.9396926
vn -0.3420201 0 -0.9396926
vn -0.3420201 0 -0.9396926
vn -0.3420201 0 -0.9396926
vn -0.3420201 0 -0.9396926
vn 0.04492303 0.9988567 -0.01635065
vn 0.04492303 0.9988567 -0.01635065
vn 0.04492303 0.9988567 -0.01635065
vn 0.04492303 0.9988567 -0.01635065
vn -0.04492303 -0.9988567 0.01635065
vn -0.04492303 -0.9988567 0.01635065
vn -0.04492303 -0.9988567 0.01635065
vn -0.04492303 -0.9988567 0.01635065
vn 0.9396926 0 -0.3420204
vn 0.9396926 0 -0.3420204
vn 0.9396926 0 -0.3420204
vn 0.9396926 0 -0.3420204
vn 0.9396926 0 -0.3420204
vn 0.9396926 0 -0.3420204
vn -0.9396926 0 0.3420204
vn -0.9396926 0 0.3420204
vn -0.9396926 0 0.3420204
vn -0.9396926 0 0.3420204
vn -0.9396926 0 0.3420204
vn -0.9396926 0 0.3420204
vn -0.0005850524 0.9999999 0.000212942
vn -0.0005850524 0.9999999 0.000212942
vn -0.0005850524 0.9999999 0.000212942
vn -0.0005850524 0.9999999 0.000212942
vn 0.0005850524 -0.9999999 -0.000212942
vn 0.0005850524 -0.9999999 -0.000212942
vn 0.0005850524 -0.9999999 -0.000212942
vn 0.0005850524 -0.9999999 -0.000212942
vn 0.3420203 0 0.9396926
vn 0.3420203 0 0.9396926
vn 0.3420203 0 0.9396926
vn 0.3420203 0 0.9396926
vn -0.3420203 0 -0.9396926
vn -0.3420203 0 -0.9396926
vn -0.3420203 0 -0.9396926
vn -0.3420203 0 -0.9396926
vn 0.9396924 0 -0.3420208
vn 0.9396924 0 -0.3420208
vn 0.9396924 0 -0.3420208
vn 0.9396924 0 -0.3420208
vn -0.9396924 0 0.3420208
vn -0.9396924 0 0.3420208
vn -0.9396924 0 0.3420208
vn -0.9396924 0 0.3420208
vn -0.5912088 0.7772829 0.2151824
vn -0.5912088 0.7772829 0.2151824
vn -0.5912088 0.7772829 0.2151824
vn -0.5912088 0.7772829 0.2151824
vn 0.5912088 -0.7772829 -0.2151824
vn 0.5912088 -0.7772829 -0.2151824
vn 0.5912088 -0.7772829 -0.2151824
vn 0.5912088 -0.7772829 -0.2151824
vn 0 1 0
vn 0 1 0
vn 0 1 0
vn 0 1 0
vn 0 -1 0
vn 0 -1 0
vn 0 -1 0
vn 0 -1 0
g Mesh120_0
f 3/3/3 2/2/2 1/1/1
f 1/1/1 4/4/4 3/3/3
f 3/3/3 4/4/4 5/5/5
f 1/1/1 6/6/6 4/4/4
f 9/9/9 8/8/8 7/7/7
f 8/8/8 9/9/9 10/10/10
f 8/8/8 10/10/10 11/11/11
f 9/9/9 12/12/12 10/10/10
f 15/15/15 14/14/14 13/13/13
f 13/13/13 16/16/16 15/15/15
f 19/19/19 18/18/18 17/17/17
f 18/18/18 19/19/19 20/20/20
f 23/23/23 22/22/22 21/21/21
f 21/21/21 24/24/24 23/23/23
f 25/25/25 23/23/23 24/24/24
f 24/24/24 26/26/26 25/25/25
f 29/29/29 28/28/28 27/27/27
f 28/28/28 29/29/29 30/30/30
f 31/31/31 30/30/30 29/29/29
f 30/30/30 31/31/31 32/32/32
f 35/35/35 34/34/34 33/33/33
f 33/33/33 36/36/36 35/35/35
f 39/39/39 38/38/38 37/37/37
f 38/38/38 39/39/39 40/40/40
f 43/43/43 42/42/42 41/41/41
f 41/41/41 44/44/44 43/43/43
f 47/47/47 46/46/46 45/45/45
f 46/46/46 47/47/47 48/48/48
f 51/51/51 50/50/50 49/49/49
f 49/49/49 52/52/52 51/51/51
f 55/55/55 54/54/54 53/53/53
f 54/54/54 55/55/55 56/56/56
f 59/59/59 58/58/58 57/57/57
f 57/57/57 60/60/60 59/59/59
f 63/63/63 62/62/62 61/61/61
f 62/62/62 63/63/63 64/64/64
f 67/67/67 66/66/66 65/65/65
f 65/65/65 68/68/68 67/67/67
f 71/71/71 70/70/70 69/69/69
f 70/70/70 71/71/71 72/72/72
