g NPC_W1_Lady_Item_A_Lod2
v -0.0663686 1.580604 -0.1210057
v 0.07781588 1.644403 -0.03278393
v -0.05851895 1.50015 0.06669696
v 0.008314767 1.494243 0.06550699
v -0.01597053 1.5713 -0.1316552
v 0.05851902 1.50015 0.06669696
v -0.06519666 1.631171 0.0740196
v 0.02283602 1.601542 0.06616233
v 0.02283602 1.601542 0.06616233
v 0.02283602 1.601542 0.06616233
v 0.01923315 1.658756 0.06069119
v -0.08537748 1.553247 0.06024785
v -0.08537748 1.553247 0.06024785
v -0.1086629 1.533203 -0.06715029
v 0.0246398 1.636162 0.07667214
v 0.06636788 1.508863 -0.01071235
v -0.06636789 1.508863 -0.01071234
v -0.05813997 1.493585 0.06559614
v -0.1074175 1.539534 0.003135652
v -0.1074175 1.539534 0.003135652
v 0.06779592 1.596615 -0.0857611
v 0.06779592 1.596615 -0.0857611
v -0.05813997 1.493585 0.06559614
v 0.01892999 1.670368 -0.03482247
v -0.1274687 1.565673 -0.03152459
v -0.0588967 1.635093 -0.07366326
v 0.06636788 1.508863 -0.01071235
v 0.05609042 1.494252 0.06596467
v 0.05813997 1.493585 0.0655962
v 0.07958367 1.638099 0.0247798
v 0.06844536 1.611584 0.02305255
v 0.06844536 1.611584 0.02305255
v 0.07907083 1.605234 -0.02944343
v 0.07907083 1.605234 -0.02944343
v 0.04408654 1.635111 -0.1027472
v 0.07602438 1.593588 -0.05698409
v -0.01820373 1.597712 0.08017543
v -0.01820373 1.597712 0.08017543
v -0.01820373 1.597712 0.08017543
v -0.08734167 1.543119 0.02694263
v 0.01260233 1.48761 0.06570631
v 0.01260233 1.48761 0.06570631
v 0.021809 1.4784 0.06287795
v 0.021809 1.4784 0.06287795
v -0.05851895 1.50015 0.06669696
v -0.0244859 1.615651 0.08832302
v 0.008314767 1.494243 0.06550699
v 0.05851902 1.50015 0.06669696
v 0.03353762 1.478613 0.06404944
v -0.06636789 1.508863 -0.01071234
v 0.05813997 1.493585 0.0655962
v 0.03353762 1.478613 0.06404944
v -0.05264598 1.557384 -0.1091174
v -0.03555621 1.575073 0.08310759
v -0.03555621 1.575073 0.08310759
v 0.02310693 1.480216 0.06313714
vt 0.08574236 0.9077216
vt 0.3166951 0.8789909
vt 0.04925006 0.6052609
vt 0.04925006 0.577761
vt 0.1178335 0.9688756
vt 0.04925006 0.6052609
vt 0.2104816 0.6851098
vt 0.3373877 0.6960114
vt 0.5582315 0.9915753
vt 0.3373877 0.6960114
vt 0.2996287 0.7433521
vt 0.01633805 0.7125285
vt 0.1278722 0.6380004
vt 0.008682301 0.8171801
vt 0.3176973 0.7194846
vt 0.04925006 0.577761
vt 0.04925006 0.577761
vt 0.04925006 0.591511
vt 0.02105721 0.6414747
vt 0.04626688 0.706324
vt 0.2832372 0.9735695
vt 0.3684274 0.9702808
vt 0.04925006 0.591511
vt 0.2572348 0.8490597
vt 0.05262095 0.7648896
vt 0.1451575 0.853658
vt 0.04925006 0.577761
vt 0.1042501 0.550261
vt 0.04925006 0.591511
vt 0.3564096 0.8153669
vt 0.3857729 0.8136583
vt 0.3857729 0.8136583
vt 0.4310306 0.9667646
vt 0.3595655 0.9068261
vt 0.2423956 0.9343657
vt 0.3992102 0.9915753
vt 0.2697574 0.6449308
vt 0.2697574 0.6449308
vt 0.6028432 0.9714453
vt 0.004685976 0.6795369
vt 0.07675009 0.550261
vt 0.07675009 0.550261
vt 0.07675009 0.550261
vt 0.07675009 0.550261
vt 0.04925006 0.6052609
vt 0.2587173 0.6725737
vt 0.04925006 0.577761
vt 0.04925006 0.6052609
vt 0.07675009 0.550261
vt 0.04925006 0.577761
vt 0.04925006 0.591511
vt 0.07675009 0.550261
vt 0.06471667 0.9281957
vt 0.6319131 0.9915753
vt 0.2270431 0.6278134
vt 0.1042501 0.550261
vn -0.4168118 0.2442363 -0.8755664
vn 0.6069854 0.7733673 -0.1829524
vn -0.9925149 -0.008266304 0.1218433
vn -0.1021726 -0.107221 -0.9889714
vn 0.002154049 -0.2368563 -0.9715423
vn 0.9946011 -0.01802079 0.1021959
vn -0.6383755 0.5282128 0.5598822
vn 0.3060223 0.4957859 0.8127403
vn 0.3060223 0.4957859 0.8127403
vn 0.3060223 0.4957859 0.8127403
vn 0.1015164 0.8410239 0.5313879
vn -0.3433827 -0.6650453 0.6631764
vn -0.3433827 -0.6650453 0.6631764
vn -0.4555717 -0.8271521 -0.32905
vn 0.2993407 0.4320572 0.8507182
vn -0.9747855 0.2084277 -0.07969406
vn -0.9946012 -0.01802014 0.1021939
vn 0.9946014 0.01801951 -0.1021933
vn -0.6126137 -0.7361625 0.2876965
vn -0.6126137 -0.7361625 0.2876965
vn 0.8169749 -0.004691657 -0.576654
vn 0.8169749 -0.004691657 -0.576654
vn -0.9946014 -0.01802014 0.1021939
vn 0.05843387 0.9787741 -0.1964349
vn -0.9549035 0.2951465 -0.03236892
vn -0.52641 0.7484156 -0.4034432
vn 0.9946011 -0.01802079 0.1021959
vn -0.003478472 0.1785392 -0.9839266
vn -0.9946014 0.01801899 -0.1021938
vn 0.8691846 0.3482091 0.3510964
vn 0.7086129 -0.3125937 0.6325764
vn 0.7086129 -0.3125937 0.6325764
vn 0.999494 -0.01906246 -0.0254633
vn 0.999494 -0.01906246 -0.0254633
vn 0.2562202 0.7706387 -0.5834957
vn 0.7887302 0.5275725 -0.3155501
vn 0.421 -0.4106289 0.808791
vn 0.421 -0.4106289 0.808791
vn 0.421 -0.4106289 0.808791
vn -0.290269 -0.8531189 0.4335114
vn -0.1156044 -0.2051399 0.9718813
vn -0.1156044 -0.2051399 0.9718813
vn -2.04994E-06 0.1736482 -0.9848077
vn -2.04994E-06 0.1736482 -0.9848077
vn 0.9763749 0.2059748 -0.06531735
vn -0.1185745 0.2389347 0.9637688
vn 0.01866315 0.1761857 -0.98418
vn -0.9763735 0.2059816 -0.0653168
vn -0.004106089 -0.3074237 0.9515638
vn 0.9747868 0.2084208 -0.07969505
vn 0.9946011 -0.01802079 0.1021959
vn -7.309086E-05 -0.2074668 0.978242
vn -0.1625733 -0.495475 -0.8532727
vn -0.3248897 -0.004129283 0.9457429
vn -0.3248897 -0.004129283 0.9457429
vn -2.04994E-06 0.1736482 -0.9848077
g NPC_W1_Lady_Item_A_Lod2_0
f 18/18/18 50/50/50 45/45/45
f 23/23/23 3/3/3 17/17/17
f 16/16/16 29/29/29 48/48/48
f 6/6/6 51/51/51 27/27/27
f 11/11/11 2/2/2 24/24/24
f 2/2/2 11/11/11 30/30/30
f 30/30/30 34/34/34 2/2/2
f 2/2/2 34/34/34 21/21/21
f 7/7/7 11/11/11 24/24/24
f 24/24/24 2/2/2 35/35/35
f 2/2/2 21/21/21 35/35/35
f 24/24/24 35/35/35 26/26/26
f 24/24/24 26/26/26 7/7/7
f 26/26/26 25/25/25 7/7/7
f 35/35/35 1/1/1 26/26/26
f 21/21/21 5/5/5 35/35/35
f 35/35/35 5/5/5 1/1/1
f 5/5/5 53/53/53 1/1/1
f 25/25/25 26/26/26 1/1/1
f 53/53/53 14/14/14 1/1/1
f 14/14/14 25/25/25 1/1/1
f 25/25/25 14/14/14 20/20/20
f 20/20/20 13/13/13 25/25/25
f 25/25/25 13/13/13 7/7/7
f 11/11/11 7/7/7 46/46/46
f 46/46/46 15/15/15 11/11/11
f 7/7/7 13/13/13 55/55/55
f 46/46/46 7/7/7 55/55/55
f 38/38/38 15/15/15 46/46/46
f 37/37/37 46/46/46 55/55/55
f 15/15/15 30/30/30 11/11/11
f 34/34/34 30/30/30 32/32/32
f 30/30/30 15/15/15 32/32/32
f 10/10/10 15/15/15 38/38/38
f 31/31/31 15/15/15 8/8/8
f 22/22/22 33/33/33 36/36/36
f 39/39/39 54/54/54 9/9/9
f 40/40/40 12/12/12 19/19/19
f 52/52/52 44/44/44 28/28/28
f 43/43/43 56/56/56 28/28/28
f 56/56/56 52/52/52 28/28/28
f 56/56/56 43/43/43 47/47/47
f 49/49/49 41/41/41 43/43/43
f 42/42/42 49/49/49 56/56/56
f 47/47/47 42/42/42 56/56/56
f 43/43/43 42/42/42 4/4/4
