g Object1033
v 0.6352659 0.07813519 6.325839
v 0.6498089 -0.03823589 6.238714
v 0.644756 -0.0437866 6.257965
v 0.653874 0.08892898 6.298972
v 0.6167334 0.1923232 6.37393
v 0.6636032 0.104464 6.219871
v 0.6467434 -0.02241644 6.203485
v 0.6387429 0.193757 6.3431
v 0.6016414 0.2387705 6.384616
v 0.6544643 0.1092747 6.1649
v 0.6378459 -0.004211695 6.155578
v 0.6255519 0.007136283 6.122631
v 0.6406485 0.1061285 6.134947
v 0.6529874 0.1925315 6.291924
v 0.6166631 0.2471275 6.350302
v 0.5809789 0.2781063 6.372181
v 0.6461236 0.1749623 6.132933
v 0.6215428 0.1632721 6.096017
v 0.6584197 0.1830139 6.206781
v 0.6334835 0.2542804 6.284542
v 0.5856598 0.302248 6.334509
v 0.5097687 0.3621414 6.3109
v 0.6198527 0.2441102 6.102766
v 0.5966544 0.2266106 6.055805
v 0.6354831 0.2551833 6.187959
v 0.5234751 0.3754858 6.286338
v 0.4335939 0.4330809 6.246719
v 0.5933003 0.3200938 6.261352
v 0.5810549 0.3102595 6.085018
v 0.5628878 0.2903506 6.023876
v 0.5919573 0.3235626 6.163617
v 0.4438699 0.4454535 6.226794
v 0.3493378 0.4996701 6.1861
v 0.532714 0.3933603 6.217914
v 0.5144663 0.3912046 6.071704
v 0.4984405 0.3793516 6.012619
v 0.5329077 0.3992762 6.142609
v 0.4470331 0.45848 6.173857
v 0.363049 0.5041755 6.16998
v 0.2919272 0.5456862 6.130416
v 0.2768859 0.5341276 6.150317
v 0.2648992 0.5427387 6.13087
v 0.2668933 0.5421945 6.10661
v 0.3320494 0.513595 6.072859
v 0.4467522 0.461897 6.080234
v 0.4329425 0.4548827 6.032904
v 0.4488055 0.4610649 6.13398
v 0.3585417 0.5114252 6.129498
v 0.3521542 0.5169241 6.098052
v -0.3852993 0.51109 6.325839
v -0.2917905 0.5818703 6.238714
v -0.284457 0.5802696 6.257965
v -0.403951 0.5218082 6.298972
v -0.4749228 0.4379464 6.37393
v -0.4222693 0.5224665 6.219871
v -0.3039578 0.5713057 6.203485
v -0.4871692 0.4562903 6.3431
v -0.5076014 0.4016527 6.384616
v -0.4218662 0.5121467 6.1649
v -0.3152749 0.554498 6.155578
v -0.3189555 0.538177 6.122631
v -0.4122336 0.5017549 6.134947
v -0.4932302 0.4692392 6.291924
v -0.5223495 0.4104834 6.350302
v -0.5313359 0.3640905 6.372181
v -0.4745829 0.4720795 6.132933
v -0.4521685 0.4566371 6.096017
v -0.4877039 0.4787025 6.206781
v -0.5369543 0.4214738 6.284542
v -0.5545837 0.3560734 6.334509
v -0.5685073 0.2604032 6.3109
v -0.5213313 0.4147543 6.102766
v -0.494577 0.4034138 6.055805
v -0.538736 0.422754 6.187959
v -0.586917 0.265601 6.286338
v -0.5918553 0.1589641 6.246719
v -0.5738589 0.3537675 6.261352
v -0.5592194 0.3480797 6.085018
v -0.5328943 0.3423011 6.023877
v -0.5761914 0.35087 6.163617
v -0.6077083 0.1616771 6.226794
v -0.6073953 0.05270161 6.1861
v -0.6070164 0.264665 6.217914
v -0.5960256 0.2499398 6.071704
v -0.5777477 0.2419876 6.012619
v -0.6122364 0.2618747 6.142609
v -0.6205712 0.1579032 6.173857
v -0.6181525 0.06232307 6.16998
v -0.618541 -0.02002545 6.130416
v -0.6010103 -0.02727236 6.150317
v -0.6024743 -0.04195872 6.13087
v -0.6030001 -0.03995965 6.10661
v -0.6108103 0.03076697 6.072859
v -0.6233899 0.1559515 6.080234
v -0.6104105 0.147499 6.032904
v -0.623696 0.1581457 6.13398
v -0.6221773 0.05479484 6.129498
v -0.6237457 0.04651364 6.098052
v -0.2499665 -0.5892227 6.325839
v -0.3580184 -0.5436319 6.238714
v -0.360299 -0.5364805 6.257965
v -0.2499229 -0.6107348 6.298972
v -0.1418106 -0.6302671 6.37393
v -0.2413338 -0.626928 6.219871
v -0.3427856 -0.5488867 6.203485
v -0.1515736 -0.6500448 6.3431
v -0.09404001 -0.6404207 6.384616
v -0.2325982 -0.6214189 6.1649
v -0.3225711 -0.5502838 6.155578
v -0.3065964 -0.5453108 6.122631
v -0.228415 -0.6078809 6.134947
v -0.1597572 -0.6617682 6.291924
v -0.09431349 -0.6576084 6.350302
v -0.04964296 -0.6421943 6.372181
v -0.1715407 -0.6470393 6.132933
v -0.1693743 -0.6199067 6.096017
v -0.1707158 -0.661714 6.206781
v -0.0965291 -0.6757517 6.284542
v -0.03107605 -0.658319 6.334509
v 0.05873862 -0.6225421 6.3109
v -0.09852141 -0.658862 6.102766
v -0.1020773 -0.6300219 6.055805
v -0.09674694 -0.6779349 6.187959
v 0.0634421 -0.6410844 6.286338
v 0.1582615 -0.5920425 6.246719
v -0.01944142 -0.6738589 6.261352
v -0.02183546 -0.6583368 6.085018
v -0.02999357 -0.6326492 6.023876
v -0.01576588 -0.6744301 6.163617
v 0.1638384 -0.607128 6.226794
v 0.2580574 -0.5523692 6.1861
v 0.07430235 -0.6580228 6.217914
v 0.08155938 -0.6411419 6.071704
v 0.07930721 -0.6213366 6.012619
v 0.07932884 -0.6611484 6.142609
v 0.1735382 -0.6163807 6.173857
v 0.2551037 -0.5664961 6.16998
v 0.3266138 -0.5256582 6.130416
v 0.3241245 -0.5068527 6.150317
v 0.3375753 -0.5007775 6.13087
v 0.3361069 -0.5022324 6.10661
v 0.2787609 -0.5443594 6.072859
v 0.1766378 -0.6178459 6.080234
v 0.1774681 -0.6023792 6.032904
v 0.1748905 -0.6192082 6.13398
v 0.2636357 -0.5662175 6.129498
v 0.2715917 -0.5634353 6.098052
vt 0.2152645 0.283959
vt 0.160727 0.2416819
vt 0.1583816 0.2510155
vt 0.2201706 0.2688701
vt 0.2711211 0.3060582
vt 0.2265199 0.2314888
vt 0.1674869 0.2245361
vt 0.2697984 0.288745
vt 0.2961774 0.3104235
vt 0.2290311 0.2052679
vt 0.1756885 0.2010654
vt 0.1804743 0.1843352
vt 0.2276198 0.1898029
vt 0.2674443 0.2645583
vt 0.2966402 0.2926251
vt 0.3188234 0.3045102
vt 0.2599361 0.1906716
vt 0.2562257 0.1698671
vt 0.2621251 0.2253332
vt 0.2962033 0.2610675
vt 0.3261511 0.2850549
vt 0.3724552 0.2772185
vt 0.294112 0.1764024
vt 0.2901937 0.1512385
vt 0.2960663 0.2165735
vt 0.3711497 0.2628959
vt 0.4218419 0.246829
vt 0.3307125 0.2503865
vt 0.3295729 0.1678773
vt 0.3261158 0.1371419
vt 0.3322626 0.2050597
vt 0.4204336 0.2349647
vt 0.4717019 0.2172476
vt 0.3736607 0.2300006
vt 0.3782843 0.1614043
vt 0.3789957 0.1324787
vt 0.375477 0.1952305
vt 0.4228245 0.2095249
vt 0.4668643 0.2084134
vt 0.5047134 0.1900254
vt 0.5101016 0.2012516
vt 0.516888 0.1909567
vt 0.5157706 0.178772
vt 0.4823344 0.1616286
vt 0.4236674 0.1658953
vt 0.4267595 0.1430466
vt 0.4229119 0.1907895
vt 0.4705138 0.1892135
vt 0.474295 0.174369
vt 0.2152645 0.283959
vt 0.160727 0.2416819
vt 0.1583816 0.2510155
vt 0.2201706 0.2688701
vt 0.2711211 0.3060582
vt 0.2265199 0.2314888
vt 0.1674869 0.2245361
vt 0.2697984 0.288745
vt 0.2961774 0.3104235
vt 0.2290311 0.2052679
vt 0.1756885 0.2010654
vt 0.1804743 0.1843352
vt 0.2276198 0.1898029
vt 0.2674443 0.2645583
vt 0.2966402 0.2926251
vt 0.3188234 0.3045102
vt 0.2599361 0.1906716
vt 0.2562257 0.1698671
vt 0.2621251 0.2253332
vt 0.2962033 0.2610675
vt 0.3261511 0.2850549
vt 0.3724552 0.2772185
vt 0.294112 0.1764024
vt 0.2901937 0.1512385
vt 0.2960663 0.2165735
vt 0.3711497 0.2628959
vt 0.4218419 0.246829
vt 0.3307125 0.2503865
vt 0.3295729 0.1678773
vt 0.3261158 0.1371419
vt 0.3322626 0.2050597
vt 0.4204336 0.2349647
vt 0.4717019 0.2172476
vt 0.3736607 0.2300006
vt 0.3782843 0.1614043
vt 0.3789957 0.1324787
vt 0.375477 0.1952305
vt 0.4228245 0.2095249
vt 0.4668643 0.2084134
vt 0.5047134 0.1900254
vt 0.5101016 0.2012516
vt 0.516888 0.1909567
vt 0.5157706 0.178772
vt 0.4823344 0.1616286
vt 0.4236674 0.1658953
vt 0.4267595 0.1430466
vt 0.4229119 0.1907895
vt 0.4705138 0.1892135
vt 0.474295 0.174369
vt 0.2152645 0.283959
vt 0.160727 0.2416819
vt 0.1583816 0.2510155
vt 0.2201706 0.2688701
vt 0.2711211 0.3060582
vt 0.2265199 0.2314888
vt 0.1674869 0.2245361
vt 0.2697984 0.288745
vt 0.2961774 0.3104235
vt 0.2290311 0.2052679
vt 0.1756885 0.2010654
vt 0.1804743 0.1843352
vt 0.2276198 0.1898029
vt 0.2674443 0.2645583
vt 0.2966402 0.2926251
vt 0.3188234 0.3045102
vt 0.2599361 0.1906716
vt 0.2562257 0.1698671
vt 0.2621251 0.2253332
vt 0.2962033 0.2610675
vt 0.3261511 0.2850549
vt 0.3724552 0.2772185
vt 0.294112 0.1764024
vt 0.2901937 0.1512385
vt 0.2960663 0.2165735
vt 0.3711497 0.2628959
vt 0.4218419 0.246829
vt 0.3307125 0.2503865
vt 0.3295729 0.1678773
vt 0.3261158 0.1371419
vt 0.3322626 0.2050597
vt 0.4204336 0.2349647
vt 0.4717019 0.2172476
vt 0.3736607 0.2300006
vt 0.3782843 0.1614043
vt 0.3789957 0.1324787
vt 0.375477 0.1952305
vt 0.4228245 0.2095249
vt 0.4668643 0.2084134
vt 0.5047134 0.1900254
vt 0.5101016 0.2012516
vt 0.516888 0.1909567
vt 0.5157706 0.178772
vt 0.4823344 0.1616286
vt 0.4236674 0.1658953
vt 0.4267595 0.1430466
vt 0.4229119 0.1907895
vt 0.4705138 0.1892135
vt 0.474295 0.174369
vn 0.8482267 -0.1594877 0.5050495
vn 0.9893752 -0.098243 0.1071679
vn 0.9695781 -0.05704706 0.2380414
vn 0.9369589 -0.1038283 0.333658
vn 0.8147508 0.03299034 0.578872
vn 0.9991628 -0.02618029 -0.03143717
vn 0.9790618 -0.1154386 -0.1676666
vn 0.8981478 0.1075911 0.426327
vn 0.7947204 0.3752957 0.4770457
vn 0.9613639 -0.05090766 -0.2705327
vn 0.949137 -0.1149076 -0.293147
vn 0.9178208 -0.1009105 -0.3839559
vn 0.8982114 -0.08559153 -0.4311502
vn 0.9708059 0.1787997 0.1598955
vn 0.8269494 0.4267208 0.3661478
vn 0.6572825 0.591996 0.466391
vn 0.9270703 0.08100451 -0.3660314
vn 0.8464255 0.007410436 -0.5324554
vn 0.9831678 0.1705719 -0.06546886
vn 0.8897339 0.4333839 0.1433599
vn 0.6401187 0.6617527 0.3902966
vn 0.3356281 0.7426744 0.5794727
vn 0.8847914 0.2848378 -0.3687976
vn 0.8644287 0.2108969 -0.4563831
vn 0.9113088 0.4011215 -0.09283124
vn 0.4664512 0.7702913 0.4348272
vn 0.2194677 0.7761365 0.5911396
vn 0.7684907 0.6256483 0.1341132
vn 0.8211321 0.4741498 -0.3176855
vn 0.8239789 0.4301679 -0.3688012
vn 0.8255974 0.555834 -0.09714632
vn 0.3637401 0.8296767 0.4234734
vn 0.2461682 0.8426445 0.4789066
vn 0.6444662 0.7482889 0.1572483
vn 0.7140777 0.6418651 -0.2794677
vn 0.7328583 0.6023179 -0.3164363
vn 0.6994415 0.7079933 -0.09760699
vn 0.5136698 0.8449496 0.149008
vn 0.3747054 0.879232 0.2941885
vn 0.1585977 0.9800889 0.1194669
vn 0.0300488 0.8543022 0.5189075
vn -0.1036001 0.9779507 0.1813269
vn 0.08453273 0.9692615 -0.2310549
vn 0.2905308 0.8870063 -0.3589031
vn 0.6000071 0.7861378 -0.1482527
vn 0.5729193 0.7649177 -0.2943881
vn 0.5646887 0.825261 0.008428589
vn 0.4746526 0.8770879 0.07363244
vn 0.4056538 0.8986598 -0.1668995
vn -0.2859929 0.8143296 0.5050498
vn -0.409607 0.9059454 0.1071683
vn -0.4353849 0.8682027 0.2380421
vn -0.3785615 0.8633444 0.333658
vn -0.4359454 0.6890998 0.5788723
vn -0.4769085 0.8783906 -0.03143638
vn -0.3895587 0.9056115 -0.1676658
vn -0.5422505 0.7240234 0.4263268
vn -0.7223758 0.5006002 0.4770457
vn -0.4365946 0.8580195 -0.2705322
vn -0.3750559 0.8794304 -0.2931468
vn -0.3715195 0.8453109 -0.3839565
vn -0.3749811 0.8206695 -0.4311504
vn -0.6402479 0.7513428 0.1598955
vn -0.7830258 0.5027988 0.3661475
vn -0.8413249 0.2732255 0.4663908
vn -0.5336874 0.7623639 -0.3660316
vn -0.4296301 0.7293206 -0.5324562
vn -0.6393038 0.7661623 -0.06546856
vn -0.8201885 0.5538399 0.1433597
vn -0.8931541 0.2234827 0.3902964
vn -0.8109897 -0.08067433 0.5794718
vn -0.6890727 0.6238329 -0.3687973
vn -0.6148562 0.6431688 -0.4563831
vn -0.8030362 0.5886556 -0.09283113
vn -0.9003174 0.01881306 0.434827
vn -0.7818881 -0.1980032 0.5911394
vn -0.9260726 0.3527085 0.1341132
vn -0.8211917 0.4740463 -0.3176857
vn -0.7845256 0.4985027 -0.3688014
vn -0.894165 0.4370715 -0.09714616
vn -0.9003912 -0.09982999 0.4234734
vn -0.8528383 -0.2081323 0.4789028
vn -0.9702702 0.1839797 0.1572485
vn -0.9129105 0.2974766 -0.2794676
vn -0.8880519 0.3335149 -0.3164361
vn -0.962861 0.251737 -0.09760725
vn -0.9885828 0.0223759 0.1490076
vn -0.9487908 -0.1151105 0.2941861
vn -0.9280809 -0.3526946 0.1194663
vn -0.7548723 -0.401128 0.5189067
vn -0.7951307 -0.5786949 0.1813263
vn -0.8816715 -0.4114229 -0.2310555
vn -0.9134354 -0.1918963 -0.3589033
vn -0.9808189 0.1265524 -0.1482524
vn -0.948898 0.1137035 -0.294388
vn -0.9970413 0.07640394 0.008427934
vn -0.9969067 -0.02748261 0.07363275
vn -0.9810892 -0.09802333 -0.1668991
vn -0.5622339 -0.6548415 0.5050501
vn -0.5797681 -0.8077028 0.1071681
vn -0.5341928 -0.8111564 0.2380407
vn -0.5583975 -0.759516 0.333658
vn -0.3788049 -0.7220898 0.5788721
vn -0.5222543 -0.8522102 -0.03143628
vn -0.5895035 -0.7901735 -0.167665
vn -0.3558973 -0.8316144 0.426327
vn -0.07234459 -0.8758957 0.4770462
vn -0.5247692 -0.8071119 -0.2705322
vn -0.5740814 -0.7645231 -0.2931468
vn -0.5463012 -0.7444007 -0.3839564
vn -0.5232298 -0.7350782 -0.4311505
vn -0.330558 -0.9301423 0.1598956
vn -0.04392356 -0.9295194 0.3661479
vn 0.1840425 -0.8652211 0.4663913
vn -0.3933825 -0.8433689 -0.3660315
vn -0.4167948 -0.7367315 -0.5324556
vn -0.3438641 -0.9367345 -0.06546868
vn -0.06954532 -0.9872241 0.1433598
vn 0.2530354 -0.8852352 0.3902967
vn 0.475361 -0.6619993 0.5794729
vn -0.1957186 -0.9086708 -0.3687974
vn -0.249572 -0.8540657 -0.456383
vn -0.1082724 -0.9897774 -0.09283154
vn 0.4338664 -0.789104 0.4348274
vn 0.5624201 -0.578133 0.5911394
vn 0.1575818 -0.9783567 0.134113
vn 5.981757E-05 -0.9481962 -0.3176852
vn -0.0394531 -0.9286708 -0.3688009
vn 0.06856759 -0.9929054 -0.09714664
vn 0.536651 -0.7298465 0.4234733
vn 0.6066672 -0.6345112 0.4789054
vn 0.3258041 -0.9322686 0.1572479
vn 0.1988328 -0.9393419 -0.2794676
vn 0.1551937 -0.9358328 -0.3164361
vn 0.2634196 -0.9597306 -0.09760735
vn 0.4749131 -0.8673259 0.149008
vn 0.5740843 -0.7641208 0.2941878
vn 0.7694829 -0.6273945 0.1194665
vn 0.7248231 -0.4531745 0.5189069
vn 0.89873 -0.3992559 0.1813264
vn 0.7971382 -0.5578387 -0.2310554
vn 0.622905 -0.6951094 -0.3589043
vn 0.3808115 -0.9126903 -0.1482526
vn 0.3759784 -0.8786217 -0.2943878
vn 0.4323527 -0.9016652 0.008428329
vn 0.5222539 -0.8496053 0.07363268
vn 0.5754355 -0.8006363 -0.1668998
g Object1033_0
f 3/3/3 2/2/2 1/1/1
f 4/4/4 1/1/1 2/2/2
f 1/1/1 4/4/4 5/5/5
f 4/4/4 2/2/2 6/6/6
f 7/7/7 6/6/6 2/2/2
f 8/8/8 5/5/5 4/4/4
f 5/5/5 8/8/8 9/9/9
f 6/6/6 7/7/7 10/10/10
f 11/11/11 10/10/10 7/7/7
f 11/11/11 12/12/12 10/10/10
f 13/13/13 10/10/10 12/12/12
f 6/6/6 14/14/14 4/4/4
f 4/4/4 14/14/14 8/8/8
f 15/15/15 9/9/9 8/8/8
f 9/9/9 15/15/15 16/16/16
f 10/10/10 13/13/13 17/17/17
f 18/18/18 17/17/17 13/13/13
f 6/6/6 10/10/10 19/19/19
f 19/19/19 14/14/14 6/6/6
f 17/17/17 19/19/19 10/10/10
f 14/14/14 20/20/20 8/8/8
f 15/15/15 8/8/8 20/20/20
f 14/14/14 19/19/19 20/20/20
f 21/21/21 16/16/16 15/15/15
f 15/15/15 20/20/20 21/21/21
f 16/16/16 21/21/21 22/22/22
f 17/17/17 18/18/18 23/23/23
f 24/24/24 23/23/23 18/18/18
f 19/19/19 17/17/17 25/25/25
f 25/25/25 20/20/20 19/19/19
f 23/23/23 25/25/25 17/17/17
f 26/26/26 22/22/22 21/21/21
f 22/22/22 26/26/26 27/27/27
f 28/28/28 21/21/21 20/20/20
f 20/20/20 25/25/25 28/28/28
f 21/21/21 28/28/28 26/26/26
f 23/23/23 24/24/24 29/29/29
f 30/30/30 29/29/29 24/24/24
f 25/25/25 23/23/23 31/31/31
f 31/31/31 28/28/28 25/25/25
f 29/29/29 31/31/31 23/23/23
f 32/32/32 27/27/27 26/26/26
f 27/27/27 32/32/32 33/33/33
f 34/34/34 26/26/26 28/28/28
f 28/28/28 31/31/31 34/34/34
f 26/26/26 34/34/34 32/32/32
f 29/29/29 30/30/30 35/35/35
f 36/36/36 35/35/35 30/30/30
f 31/31/31 29/29/29 37/37/37
f 37/37/37 34/34/34 31/31/31
f 35/35/35 37/37/37 29/29/29
f 38/38/38 32/32/32 34/34/34
f 34/34/34 37/37/37 38/38/38
f 39/39/39 33/33/33 32/32/32
f 32/32/32 38/38/38 39/39/39
f 39/39/39 40/40/40 33/33/33
f 41/41/41 33/33/33 40/40/40
f 41/41/41 40/40/40 42/42/42
f 43/43/43 42/42/42 40/40/40
f 43/43/43 40/40/40 44/44/44
f 35/35/35 36/36/36 45/45/45
f 46/46/46 45/45/45 36/36/36
f 37/37/37 35/35/35 47/47/47
f 47/47/47 38/38/38 37/37/37
f 45/45/45 47/47/47 35/35/35
f 38/38/38 48/48/48 39/39/39
f 47/47/47 48/48/48 38/38/38
f 39/39/39 48/48/48 40/40/40
f 47/47/47 45/45/45 48/48/48
f 49/49/49 44/44/44 40/40/40
f 44/44/44 49/49/49 46/46/46
f 40/40/40 48/48/48 49/49/49
f 45/45/45 46/46/46 49/49/49
f 49/49/49 48/48/48 45/45/45
f 52/52/52 51/51/51 50/50/50
f 53/53/53 50/50/50 51/51/51
f 50/50/50 53/53/53 54/54/54
f 53/53/53 51/51/51 55/55/55
f 56/56/56 55/55/55 51/51/51
f 57/57/57 54/54/54 53/53/53
f 54/54/54 57/57/57 58/58/58
f 55/55/55 56/56/56 59/59/59
f 60/60/60 59/59/59 56/56/56
f 60/60/60 61/61/61 59/59/59
f 62/62/62 59/59/59 61/61/61
f 55/55/55 63/63/63 53/53/53
f 53/53/53 63/63/63 57/57/57
f 64/64/64 58/58/58 57/57/57
f 58/58/58 64/64/64 65/65/65
f 59/59/59 62/62/62 66/66/66
f 67/67/67 66/66/66 62/62/62
f 55/55/55 59/59/59 68/68/68
f 68/68/68 63/63/63 55/55/55
f 66/66/66 68/68/68 59/59/59
f 63/63/63 69/69/69 57/57/57
f 64/64/64 57/57/57 69/69/69
f 63/63/63 68/68/68 69/69/69
f 70/70/70 65/65/65 64/64/64
f 64/64/64 69/69/69 70/70/70
f 65/65/65 70/70/70 71/71/71
f 66/66/66 67/67/67 72/72/72
f 73/73/73 72/72/72 67/67/67
f 68/68/68 66/66/66 74/74/74
f 74/74/74 69/69/69 68/68/68
f 72/72/72 74/74/74 66/66/66
f 75/75/75 71/71/71 70/70/70
f 71/71/71 75/75/75 76/76/76
f 77/77/77 70/70/70 69/69/69
f 69/69/69 74/74/74 77/77/77
f 70/70/70 77/77/77 75/75/75
f 72/72/72 73/73/73 78/78/78
f 79/79/79 78/78/78 73/73/73
f 74/74/74 72/72/72 80/80/80
f 80/80/80 77/77/77 74/74/74
f 78/78/78 80/80/80 72/72/72
f 81/81/81 76/76/76 75/75/75
f 76/76/76 81/81/81 82/82/82
f 83/83/83 75/75/75 77/77/77
f 77/77/77 80/80/80 83/83/83
f 75/75/75 83/83/83 81/81/81
f 78/78/78 79/79/79 84/84/84
f 85/85/85 84/84/84 79/79/79
f 80/80/80 78/78/78 86/86/86
f 86/86/86 83/83/83 80/80/80
f 84/84/84 86/86/86 78/78/78
f 87/87/87 81/81/81 83/83/83
f 83/83/83 86/86/86 87/87/87
f 88/88/88 82/82/82 81/81/81
f 81/81/81 87/87/87 88/88/88
f 88/88/88 89/89/89 82/82/82
f 90/90/90 82/82/82 89/89/89
f 90/90/90 89/89/89 91/91/91
f 92/92/92 91/91/91 89/89/89
f 92/92/92 89/89/89 93/93/93
f 84/84/84 85/85/85 94/94/94
f 95/95/95 94/94/94 85/85/85
f 86/86/86 84/84/84 96/96/96
f 96/96/96 87/87/87 86/86/86
f 94/94/94 96/96/96 84/84/84
f 87/87/87 97/97/97 88/88/88
f 96/96/96 97/97/97 87/87/87
f 88/88/88 97/97/97 89/89/89
f 96/96/96 94/94/94 97/97/97
f 98/98/98 93/93/93 89/89/89
f 93/93/93 98/98/98 95/95/95
f 89/89/89 97/97/97 98/98/98
f 94/94/94 95/95/95 98/98/98
f 98/98/98 97/97/97 94/94/94
f 101/101/101 100/100/100 99/99/99
f 102/102/102 99/99/99 100/100/100
f 99/99/99 102/102/102 103/103/103
f 102/102/102 100/100/100 104/104/104
f 105/105/105 104/104/104 100/100/100
f 106/106/106 103/103/103 102/102/102
f 103/103/103 106/106/106 107/107/107
f 104/104/104 105/105/105 108/108/108
f 109/109/109 108/108/108 105/105/105
f 109/109/109 110/110/110 108/108/108
f 111/111/111 108/108/108 110/110/110
f 104/104/104 112/112/112 102/102/102
f 102/102/102 112/112/112 106/106/106
f 113/113/113 107/107/107 106/106/106
f 107/107/107 113/113/113 114/114/114
f 108/108/108 111/111/111 115/115/115
f 116/116/116 115/115/115 111/111/111
f 104/104/104 108/108/108 117/117/117
f 117/117/117 112/112/112 104/104/104
f 115/115/115 117/117/117 108/108/108
f 112/112/112 118/118/118 106/106/106
f 113/113/113 106/106/106 118/118/118
f 112/112/112 117/117/117 118/118/118
f 119/119/119 114/114/114 113/113/113
f 113/113/113 118/118/118 119/119/119
f 114/114/114 119/119/119 120/120/120
f 115/115/115 116/116/116 121/121/121
f 122/122/122 121/121/121 116/116/116
f 117/117/117 115/115/115 123/123/123
f 123/123/123 118/118/118 117/117/117
f 121/121/121 123/123/123 115/115/115
f 124/124/124 120/120/120 119/119/119
f 120/120/120 124/124/124 125/125/125
f 126/126/126 119/119/119 118/118/118
f 118/118/118 123/123/123 126/126/126
f 119/119/119 126/126/126 124/124/124
f 121/121/121 122/122/122 127/127/127
f 128/128/128 127/127/127 122/122/122
f 123/123/123 121/121/121 129/129/129
f 129/129/129 126/126/126 123/123/123
f 127/127/127 129/129/129 121/121/121
f 130/130/130 125/125/125 124/124/124
f 125/125/125 130/130/130 131/131/131
f 132/132/132 124/124/124 126/126/126
f 126/126/126 129/129/129 132/132/132
f 124/124/124 132/132/132 130/130/130
f 127/127/127 128/128/128 133/133/133
f 134/134/134 133/133/133 128/128/128
f 129/129/129 127/127/127 135/135/135
f 135/135/135 132/132/132 129/129/129
f 133/133/133 135/135/135 127/127/127
f 136/136/136 130/130/130 132/132/132
f 132/132/132 135/135/135 136/136/136
f 137/137/137 131/131/131 130/130/130
f 130/130/130 136/136/136 137/137/137
f 137/137/137 138/138/138 131/131/131
f 139/139/139 131/131/131 138/138/138
f 139/139/139 138/138/138 140/140/140
f 141/141/141 140/140/140 138/138/138
f 141/141/141 138/138/138 142/142/142
f 133/133/133 134/134/134 143/143/143
f 144/144/144 143/143/143 134/134/134
f 135/135/135 133/133/133 145/145/145
f 145/145/145 136/136/136 135/135/135
f 143/143/143 145/145/145 133/133/133
f 136/136/136 146/146/146 137/137/137
f 145/145/145 146/146/146 136/136/136
f 137/137/137 146/146/146 138/138/138
f 145/145/145 143/143/143 146/146/146
f 147/147/147 142/142/142 138/138/138
f 142/142/142 147/147/147 144/144/144
f 138/138/138 146/146/146 147/147/147
f 143/143/143 144/144/144 147/147/147
f 147/147/147 146/146/146 143/143/143
