g Object001
v -0.8361713 0.4309595 1.138183
v -0.9935144 -0.1422018 0.8578399
v -0.9330853 -0.1988486 0.9132963
v -0.9902478 0.5817302 0.9438221
v -0.5838177 0.9426802 1.281173
v -1.600421 0.8292638 0.2986025
v -1.270732 -0.08764847 0.2757909
v -1.369053 1.602758 0.4277907
v -0.7553899 1.160684 1.169616
v -0.144688 1.262229 1.151179
v -0.7713689 2.173242 0.7299834
v -0.2795303 1.556296 1.388244
v 0.4043994 1.39033 1.195016
v 0.09074852 2.436811 0.978465
v 0.3686791 1.742443 1.473655
v 0.9676939 1.345007 1.212557
v 1.074677 2.411129 1.181727
v 1.072069 1.713611 1.530378
v 1.459881 1.072451 1.261653
v 1.996176 2.110311 1.649842
v 1.730593 1.492208 1.577781
v 1.906304 0.5979226 1.333845
v 2.727341 1.30809 1.832204
v 2.293967 0.9095741 1.708398
v 2.146917 -0.003077545 1.430582
v 3.164066 0.3718885 2.060615
v 2.617283 0.1327554 1.876848
v 2.25799 -0.5719465 1.487562
v 3.334224 -0.43688 2.179658
v 2.764114 -0.5719863 1.973361
v 2.240175 -1.060625 1.487852
v 3.21012 -1.201784 2.269794
v 2.71801 -1.191851 2.011478
v 2.038765 -1.54881 1.492648
v 2.802387 -1.89649 2.355245
v 2.436926 -1.792856 2.0538
v 1.636702 -1.982773 1.504944
v 2.147626 -2.450382 2.436886
v 1.920098 -2.306544 2.10099
v 1.044145 -2.298618 1.525336
v 1.302059 -2.798624 2.515319
v 1.196989 -2.663863 2.153418
v 0.3051996 -2.435949 1.554002
v 0.3551236 -2.890547 2.590786
v 0.3330381 -2.803147 2.211043
v -0.5037839 -2.352299 1.590501
v -0.5879198 -2.705403 2.663088
v -0.5789527 -2.684538 2.273449
v -1.288119 -2.024048 1.604958
v -1.430138 -2.265987 2.73199
v -1.442132 -2.303681 2.339618
v -1.97834 -1.433539 1.604007
v -2.113709 -1.634674 2.798583
v -2.190396 -1.694038 2.407454
v -2.543725 -0.733454 1.639311
v -2.620624 -0.8760273 2.865105
v -2.776395 -0.9134121 2.467703
v -2.934412 0.07019234 1.666688
v -2.927357 -0.02646797 2.935475
v -3.157974 0.001388779 2.51558
v -3.077078 0.9969648 1.739274
v -2.979927 0.835806 3.007502
v -3.275662 0.959142 2.599894
v -2.91289 1.884227 1.821195
v -2.744029 1.618625 3.078792
v -3.077296 1.84831 2.689961
v -2.445959 2.656276 2.103443
v -2.224875 2.243831 3.165042
v -2.567872 2.591855 2.898894
v -1.582194 3.163501 2.252326
v -1.470903 2.668932 3.241843
v -1.706997 3.110373 3.022447
v -0.4360614 3.476546 2.383032
v -0.5452856 2.902363 3.319302
v -0.5901833 3.406152 3.147569
v 0.9242362 3.545126 2.526119
v 0.5222339 2.939429 3.403749
v 0.7241607 3.463691 3.28229
v 2.333297 3.337171 2.679061
v 1.259879 2.805285 3.492862
v 2.065253 3.254732 3.423138
v 2.89233 3.003121 3.168907
v 1.910691 2.448936 3.561576
v 2.351474 2.940956 3.569381
v 3.356657 2.370886 3.515049
v 2.410807 1.929303 3.628752
v 2.989197 2.295746 3.703295
v 3.744886 1.378476 3.899961
v 2.770868 1.221677 3.701893
v 3.421721 1.435814 3.822635
v 3.923829 0.3018768 4.3594
v 2.920926 0.3817348 3.779273
v 3.587922 0.4532577 3.944663
v 3.796122 -0.8276439 4.505748
v 2.848308 -0.4557308 3.855331
v 3.477504 -0.5628821 4.069061
v 3.408522 -1.79413 4.656241
v 2.584258 -1.224778 3.934965
v 3.131934 -1.448203 4.195658
v 2.781911 -2.667444 4.810584
v 2.140183 -1.913166 4.016904
v 2.574287 -2.225869 4.324116
v 2.093893 -3.208028 4.967539
v 1.548548 -2.468787 4.100855
v 1.855865 -2.818967 4.453285
v 1.093157 -3.466144 5.126371
v 0.8921403 -2.504557 4.186358
v 1.045478 -3.009474 4.58229
v 0.08075164 -3.680804 5.285433
v 0.1105535 -2.700142 4.273501
v 0.128082 -3.207366 4.710248
v -0.8988113 -3.591348 5.444445
v -0.6675071 -2.676058 4.36349
v -0.7639657 -3.139955 4.838076
v -1.746575 -3.195701 5.607897
v -1.364814 -2.423166 4.459016
v -1.534474 -2.804835 4.969347
v -2.467466 -2.546461 5.773756
v -1.956193 -1.961861 4.559156
v -2.173212 -2.242581 5.102026
v -3.035212 -1.70326 5.93839
v -2.433282 -1.33165 4.662598
v -2.671587 -1.514323 5.233226
v -3.42423 -0.7045182 6.102652
v -2.768134 -0.580928 4.769108
v -2.992786 -0.6578296 5.362759
v -3.547092 0.4280753 6.26369
v -2.915698 0.3122961 4.877219
v -3.103086 0.3372506 5.489436
v -3.401062 1.523985 6.417044
v -2.860749 1.22243 4.985644
v -2.973839 1.316864 5.61122
v -2.570816 2.082807 5.096205
v -2.609066 2.200808 5.728708
v -2.979506 2.489351 6.563592
v -2.298989 2.511888 5.834516
v -2.530036 2.925122 6.696286
v -2.609066 2.200808 5.728708
v -1.012864 3.607123 6.814094
v -2.246757 2.391106 5.200478
v -2.570816 2.082807 5.096205
v -0.8106827 3.212837 5.980723
v -0.7575248 3.10587 5.346818
v 0.7728272 3.341503 5.401999
v 0.7276819 3.44286 6.034426
v 0.780238 3.858878 6.86529
v 1.730412 3.664367 6.96156
v 1.643031 3.244689 6.167954
v 1.655266 3.105844 5.53923
v 2.555867 2.285041 5.905315
v 2.514708 2.597438 6.486259
v 2.730543 2.994642 7.207893
v 3.423461 1.720851 7.442366
v 3.122831 1.296988 6.789017
v 3.05933 0.9250726 6.213523
v 3.033458 -0.01400463 6.298663
v 3.165791 0.1507183 6.890449
v 3.552899 0.1412878 7.569145
v 3.110276 -1.433625 7.716442
v 2.778677 -1.253003 7.035054
v 2.538078 -1.421054 6.453339
v 1.821079 -2.220126 6.567999
v 1.985464 -2.237528 7.161865
v 2.434182 -2.35708 7.818302
v 0.9478297 -3.120792 7.927643
v 0.7243826 -2.739348 7.266167
v 0.5679529 -2.62976 6.684187
v -0.4050357 -3.229696 7.983766
v -0.4579336 -2.939863 7.321881
v -0.452038 -2.870012 6.737055
v -2.126089 -2.46987 8.059724
v -1.793701 -2.296001 7.389704
v -1.52383 -2.400226 6.795565
v -2.998082 -1.145438 8.067977
v -2.540356 -1.206526 7.36643
v -2.231554 -1.36765 6.796559
v -1.861131 0.03651356 6.686051
v -2.267609 0.3196276 7.211523
v -2.467913 0.5230057 7.980541
v -1.53088 1.509479 7.969358
v -1.455979 1.462529 7.254272
v 0.02789844 1.474571 7.958004
v -1.214126 1.341155 6.845598
v -0.00780365 1.576339 7.294368
v 0.07844541 1.604587 7.000924
vt 0.02090154 0.9311644
vt 0.004876079 0.5402562
vt 0.004876079 0.9311644
vt 0.02090154 0.538369
vt 0.03692696 0.9311644
vt 0.02090154 0.07240931
vt 0.004876079 0.07240931
vt 0.03692696 0.07240931
vt 0.03692696 0.5364773
vt 0.05295238 0.9311644
vt 0.05295238 0.07240931
vt 0.05295238 0.5345806
vt 0.06897784 0.9311644
vt 0.06897784 0.07240931
vt 0.06897784 0.5326788
vt 0.08500328 0.9311644
vt 0.08500328 0.07240931
vt 0.08500328 0.5307725
vt 0.1010287 0.9311644
vt 0.1010287 0.07240931
vt 0.1010287 0.5288643
vt 0.1170541 0.9311644
vt 0.1170541 0.07240931
vt 0.1170541 0.5269523
vt 0.1330795 0.9311644
vt 0.1330795 0.07240931
vt 0.1330795 0.5250378
vt 0.149105 0.9311644
vt 0.149105 0.07240931
vt 0.149105 0.523122
vt 0.1651305 0.9311644
vt 0.1651305 0.07240931
vt 0.1651305 0.5212043
vt 0.1811559 0.9311644
vt 0.1811559 0.07240931
vt 0.1811559 0.5192866
vt 0.1971814 0.9311644
vt 0.1971814 0.07240931
vt 0.1971814 0.5173676
vt 0.2132068 0.9311644
vt 0.2132068 0.07240931
vt 0.2132068 0.5154492
vt 0.2292323 0.9311644
vt 0.2292323 0.07240931
vt 0.2292323 0.5135303
vt 0.2452577 0.9311644
vt 0.2452577 0.07240931
vt 0.2452577 0.5116138
vt 0.2612831 0.9311644
vt 0.2612831 0.07240931
vt 0.2612831 0.5096974
vt 0.2773085 0.9311644
vt 0.2773085 0.07240931
vt 0.2773085 0.5077816
vt 0.293334 0.9311644
vt 0.293334 0.07240931
vt 0.293334 0.5058689
vt 0.3093594 0.9311644
vt 0.3093594 0.07240931
vt 0.3093594 0.5039582
vt 0.3253849 0.9311644
vt 0.3253849 0.07240931
vt 0.3253849 0.5020506
vt 0.3414103 0.9311644
vt 0.3414103 0.07240931
vt 0.3414103 0.5001456
vt 0.3574358 0.9311644
vt 0.3574358 0.07240931
vt 0.3574358 0.4982438
vt 0.3734612 0.9311644
vt 0.3734612 0.07240931
vt 0.3734612 0.4963458
vt 0.3894867 0.9311644
vt 0.3894867 0.07240931
vt 0.3894867 0.4944522
vt 0.4055119 0.9311644
vt 0.4055119 0.07240931
vt 0.4055119 0.4925625
vt 0.4215376 0.9311644
vt 0.4215376 0.07240931
vt 0.4215376 0.4906772
vt 0.4375629 0.9311644
vt 0.4375629 0.07240931
vt 0.4375629 0.488797
vt 0.4535885 0.9311644
vt 0.4535885 0.07240931
vt 0.4535885 0.4869218
vt 0.4696138 0.9311644
vt 0.4696138 0.07240931
vt 0.4696138 0.4850512
vt 0.4856393 0.9311644
vt 0.4856393 0.07240931
vt 0.4856393 0.4831862
vt 0.5016648 0.9311644
vt 0.5016648 0.07240931
vt 0.5016648 0.4813282
vt 0.5176902 0.9311644
vt 0.5176902 0.07240931
vt 0.5176902 0.4794747
vt 0.5337158 0.9311644
vt 0.5337158 0.07240931
vt 0.5337158 0.4776282
vt 0.5497411 0.9311644
vt 0.5497411 0.07240931
vt 0.5497411 0.4757874
vt 0.5657665 0.9311644
vt 0.5657665 0.07240931
vt 0.5657665 0.4739536
vt 0.5817918 0.9311644
vt 0.5817918 0.07240931
vt 0.5817918 0.4721274
vt 0.5978174 0.9311644
vt 0.5978174 0.07240931
vt 0.5978174 0.4703069
vt 0.6138427 0.9311644
vt 0.6138427 0.07240931
vt 0.6138427 0.4684941
vt 0.6298683 0.9311644
vt 0.6298683 0.07240931
vt 0.6298683 0.4666889
vt 0.6458936 0.9311644
vt 0.6458936 0.07240931
vt 0.6458936 0.4648907
vt 0.6619191 0.9311644
vt 0.6619191 0.07240931
vt 0.6619191 0.4630995
vt 0.6779445 0.9311644
vt 0.6779445 0.07240931
vt 0.6779445 0.4613171
vt 0.69397 0.9311644
vt 0.69397 0.07240931
vt 0.69397 0.4595418
vt 0.7099954 0.07240931
vt 0.7099954 0.4577729
vt 0.7099954 0.9311644
vt 0.7255126 0.4553466
vt 0.7253809 0.93169
vt 0.7099684 0.4552907
vt 0.7451161 0.9324262
vt 0.7249098 0.06552918
vt 0.7099627 0.06547005
vt 0.7472585 0.4555398
vt 0.7475284 0.06568808
vt 0.7685046 0.06559465
vt 0.7676122 0.455536
vt 0.7659959 0.9327001
vt 0.7806022 0.9326474
vt 0.7834958 0.4555042
vt 0.7841243 0.06556413
vt 0.8062142 0.06557048
vt 0.8042094 0.4554343
vt 0.801356 0.9323067
vt 0.8216354 0.9325914
vt 0.8260263 0.4555678
vt 0.8284645 0.06580884
vt 0.8422506 0.06566138
vt 0.8420681 0.4554674
vt 0.8421652 0.9322953
vt 0.8619524 0.9315254
vt 0.8614411 0.4552824
vt 0.8629539 0.06538234
vt 0.8784286 0.06512619
vt 0.8782008 0.4550765
vt 0.8747514 0.9307671
vt 0.8949999 0.931256
vt 0.8959326 0.4552551
vt 0.8970904 0.06543956
vt 0.908564 0.9310786
vt 0.9104775 0.4552544
vt 0.9115615 0.06536455
vt 0.9251027 0.9320841
vt 0.9262657 0.4553866
vt 0.926623 0.065437
vt 0.9404608 0.931678
vt 0.9410596 0.455236
vt 0.9420329 0.06519229
vt 0.9605703 0.06515796
vt 0.9607965 0.4552913
vt 0.9619582 0.931685
vt 0.9778636 0.9319888
vt 0.9779538 0.4555252
vt 0.9958547 0.9321604
vt 0.9786562 0.06538553
vt 0.9948018 0.455299
vt 0.9956623 0.0652552
vn 0.7654131 -0.03523697 -0.6425738
vn 0.7824003 0.1552186 -0.6031228
vn 0.7323688 0.1262228 -0.6691067
vn 0.7393054 -0.01115478 -0.6732779
vn 0.3979968 -0.1995834 -0.8954133
vn 0.7619383 0.02694528 -0.6470889
vn 0.8663702 0.3210324 -0.3825452
vn 0.6922334 -0.1775431 -0.6994937
vn 0.5250462 -0.119818 -0.8425973
vn -0.08280756 0.4842435 -0.8710059
vn 0.5362988 -0.3913979 -0.7477909
vn 0.241453 0.04058041 -0.9695637
vn -0.0005965094 0.6188416 -0.7855157
vn 0.2647402 -0.5191178 -0.812668
vn 0.1167158 0.02101997 -0.9929429
vn 0.2296688 0.5945051 -0.7705945
vn 0.1848203 -0.4697646 -0.863228
vn 0.2001006 0.09157161 -0.9754868
vn 0.3826382 0.4173943 -0.8242391
vn 0.2248583 -0.1005807 -0.9691864
vn 0.2685157 0.2037262 -0.9414855
vn 0.5689973 0.2253494 -0.7908601
vn 0.290221 -0.02390751 -0.956661
vn 0.4379468 0.08769211 -0.8947138
vn 0.6650854 0.0924559 -0.7410219
vn 0.3414033 -0.06558429 -0.937626
vn 0.5116996 0.006050837 -0.8591431
vn 0.6890839 0.01522392 -0.7245216
vn 0.3584048 -0.108014 -0.9272966
vn 0.539588 -0.06222097 -0.839627
vn 0.6943917 -0.169142 -0.6994362
vn 0.4258165 -0.2234472 -0.8767848
vn 0.5836392 -0.2272586 -0.7795632
vn 0.6226391 -0.4323601 -0.6522158
vn 0.4683665 -0.440128 -0.7661071
vn 0.5553099 -0.4747128 -0.6828461
vn 0.4639919 -0.6560855 -0.5952004
vn 0.4040844 -0.6883502 -0.6024034
vn 0.4310728 -0.7027187 -0.5660059
vn 0.2477124 -0.8035722 -0.5412117
vn 0.2175835 -0.8827355 -0.4164558
vn 0.2294297 -0.8635507 -0.4490458
vn 0.005618903 -0.8682802 -0.4960423
vn -0.04392426 -0.9695947 -0.2407425
vn -0.01802893 -0.9397445 -0.3414018
vn -0.2426567 -0.85735 -0.4539479
vn -0.3207257 -0.9440251 -0.07714639
vn -0.2820197 -0.9293373 -0.2383215
vn -0.4925874 -0.7690811 -0.4072739
vn -0.5575122 -0.8265492 0.07743803
vn -0.5322872 -0.8344783 -0.1425354
vn -0.6692172 -0.63595 -0.3843381
vn -0.7185832 -0.658851 0.2226061
vn -0.7245106 -0.6865968 -0.06057433
vn -0.8052861 -0.4838652 -0.3426205
vn -0.8149473 -0.4637389 0.3475733
vn -0.8673679 -0.4968404 0.02868089
vn -0.9237226 -0.2601284 -0.2811933
vn -0.8627122 -0.2358759 0.4473143
vn -0.9622435 -0.2501013 0.10741
vn -0.9720866 0.03932378 -0.231303
vn -0.8171724 0.01229839 0.5762621
vn -0.9776474 0.04129596 0.2061559
vn -0.9109188 0.3772144 -0.1671411
vn -0.6696168 0.2530874 0.6982551
vn -0.8873 0.3481637 0.3024577
vn -0.6855099 0.7256286 -0.05949263
vn -0.4214528 0.3033091 0.8546235
vn -0.6590509 0.5822062 0.4761174
vn -0.3880034 0.9216499 0.003820966
vn -0.2311702 0.3430837 0.9104142
vn -0.3888623 0.7527095 0.5312386
vn -0.1545518 0.9863072 0.05754771
vn -0.1339772 0.3172236 0.9388393
vn -0.18382 0.7881087 0.5874478
vn 0.04617618 0.9920384 0.1171653
vn -0.09028435 0.2654787 0.9598801
vn -0.02996664 0.771117 0.6359879
vn 0.234786 0.9538154 0.1873813
vn -0.0480251 0.2314693 0.9716562
vn 0.1241006 0.7312887 0.6706831
vn 0.3952213 0.7498047 0.5306532
vn -0.08240232 0.1226312 0.9890255
vn 0.1021652 0.4173856 0.9029682
vn 0.3452452 0.5041269 0.7916198
vn -0.135464 0.03991736 0.9899778
vn 0.0898551 0.2774009 0.9565431
vn -0.1176514 0.3044633 0.9452303
vn -0.1872728 0.04431124 0.9813079
vn -0.2463624 0.08219146 0.9656863
vn -0.7176033 0.1302194 0.6841699
vn -0.240149 0.08954313 0.9665973
vn -0.560214 0.06575248 0.8257342
vn -0.6791013 0.2905969 0.6740733
vn -0.2823637 0.1645578 0.9450881
vn -0.5367702 0.219162 0.8147673
vn -0.574751 0.4471773 0.685342
vn -0.3086331 0.2697117 0.912141
vn -0.4858558 0.3640698 0.7946051
vn -0.408286 0.5812635 0.7038717
vn -0.3066324 0.3956869 0.8656839
vn -0.4009683 0.4979708 0.7689275
vn -0.2325544 0.7120998 0.6624442
vn -0.1100978 0.6401259 0.7603403
vn -0.2117452 0.664683 0.7164918
vn -0.07162322 0.7634455 0.6418886
vn -0.02925015 0.6309599 0.7752639
vn -0.05404104 0.6954533 0.7165363
vn 0.06908802 0.7654069 0.6398274
vn 0.02502843 0.6434467 0.7650818
vn 0.03884185 0.724566 0.6881099
vn 0.3112153 0.7241175 0.6154665
vn 0.22674 0.6625682 0.7138573
vn 0.2698332 0.7140366 0.6460199
vn 0.5328587 0.6258588 0.5695283
vn 0.4585257 0.6185794 0.6380546
vn 0.5042875 0.6361115 0.5840002
vn 0.6962566 0.4848215 0.5293154
vn 0.6547431 0.5184516 0.5500177
vn 0.6844625 0.5078236 0.5230929
vn 0.8011284 0.3236897 0.5034067
vn 0.7946936 0.3833853 0.4706143
vn 0.8063686 0.3547403 0.4732113
vn 0.8552086 0.1175409 0.5047795
vn 0.8993183 0.2057666 0.3858582
vn 0.8866969 0.1620242 0.4330323
vn 0.857893 -0.09307526 0.5053282
vn 0.9514366 0.004482524 0.307812
vn 0.9181831 -0.04705219 0.393352
vn 0.8029289 -0.3117203 0.5080705
vn 0.9485735 -0.220508 0.2271226
vn 0.8931908 -0.2768008 0.354389
vn 0.8267277 -0.5357174 0.1718374
vn 0.7436765 -0.5787581 0.3346408
vn 0.6513526 -0.5756786 0.4943013
vn 0.4861701 -0.7980705 0.3559805
vn 0.4229194 -0.76766 0.4814951
vn 0.7436765 -0.5787581 0.3346408
vn 0.2301961 -0.8565611 0.461858
vn 0.5485712 -0.8137298 0.192129
vn 0.8267277 -0.5357174 0.1718374
vn 0.2529976 -0.9086227 0.3322605
vn 0.2823304 -0.9417798 0.1825933
vn -0.05337067 -0.9841706 0.1689964
vn -0.04840901 -0.9493071 0.3106004
vn -0.06683166 -0.8904773 0.4500931
vn -0.4367861 -0.7665777 0.4707191
vn -0.4767797 -0.8151199 0.3290299
vn -0.4906051 -0.8528423 0.178792
vn -0.8205798 -0.5254623 0.224807
vn -0.7502338 -0.5388449 0.3831387
vn -0.7012663 -0.5148375 0.4931205
vn -0.8534821 -0.1800476 0.4890308
vn -0.923327 -0.1452243 0.3554955
vn -0.9827648 -0.0856768 0.1638077
vn -0.9700499 0.167629 0.1757947
vn -0.9315183 0.1213453 0.3428543
vn -0.8605725 0.1293025 0.4926415
vn -0.747696 0.4406916 0.4967309
vn -0.8161978 0.4547035 0.356463
vn -0.8149027 0.5516952 0.1776688
vn -0.5437271 0.8198649 0.1793946
vn -0.5410634 0.764167 0.35114
vn -0.5542842 0.6653592 0.5000662
vn -0.1888464 0.836836 0.5138507
vn -0.2027251 0.9035869 0.3774035
vn -0.2223158 0.9500791 0.2189184
vn 0.1324815 0.901976 0.4109599
vn 0.1432863 0.9502591 0.2765444
vn 0.09864523 0.9892408 0.1080357
vn 0.6091301 0.6463133 0.4596083
vn 0.628351 0.7012498 0.3367844
vn 0.569111 0.8138907 0.117024
vn 0.8542783 0.154524 0.4963174
vn 0.845158 0.1998735 0.4957405
vn 0.8787738 0.2529959 0.4046597
vn 0.7253268 -0.2538298 0.6398997
vn 0.7789019 -0.3601758 0.5134057
vn 0.8113533 -0.4772499 0.3375475
vn 0.4404262 -0.8850848 0.1504981
vn 0.4764314 -0.8287621 0.2935415
vn 0.05151126 -0.9944629 -0.09159803
vn 0.420576 -0.7874799 0.4505456
vn 0.1345058 -0.9892614 -0.05718537
vn 0.2035447 -0.9784625 -0.03436395
g Object001_0
f 3/3/3 2/2/2 1/1/1
f 4/4/4 1/1/1 2/2/2
f 1/1/1 4/4/4 5/5/5
f 4/4/4 2/2/2 6/6/6
f 7/7/7 6/6/6 2/2/2
f 6/6/6 8/8/8 4/4/4
f 9/9/9 5/5/5 4/4/4
f 9/9/9 4/4/4 8/8/8
f 5/5/5 9/9/9 10/10/10
f 8/8/8 11/11/11 9/9/9
f 12/12/12 10/10/10 9/9/9
f 12/12/12 9/9/9 11/11/11
f 10/10/10 12/12/12 13/13/13
f 11/11/11 14/14/14 12/12/12
f 15/15/15 13/13/13 12/12/12
f 15/15/15 12/12/12 14/14/14
f 13/13/13 15/15/15 16/16/16
f 14/14/14 17/17/17 15/15/15
f 18/18/18 16/16/16 15/15/15
f 18/18/18 15/15/15 17/17/17
f 16/16/16 18/18/18 19/19/19
f 17/17/17 20/20/20 18/18/18
f 21/21/21 19/19/19 18/18/18
f 21/21/21 18/18/18 20/20/20
f 19/19/19 21/21/21 22/22/22
f 20/20/20 23/23/23 21/21/21
f 24/24/24 22/22/22 21/21/21
f 24/24/24 21/21/21 23/23/23
f 22/22/22 24/24/24 25/25/25
f 23/23/23 26/26/26 24/24/24
f 27/27/27 25/25/25 24/24/24
f 27/27/27 24/24/24 26/26/26
f 25/25/25 27/27/27 28/28/28
f 26/26/26 29/29/29 27/27/27
f 30/30/30 28/28/28 27/27/27
f 30/30/30 27/27/27 29/29/29
f 28/28/28 30/30/30 31/31/31
f 29/29/29 32/32/32 30/30/30
f 33/33/33 31/31/31 30/30/30
f 33/33/33 30/30/30 32/32/32
f 31/31/31 33/33/33 34/34/34
f 32/32/32 35/35/35 33/33/33
f 36/36/36 34/34/34 33/33/33
f 36/36/36 33/33/33 35/35/35
f 34/34/34 36/36/36 37/37/37
f 35/35/35 38/38/38 36/36/36
f 39/39/39 37/37/37 36/36/36
f 39/39/39 36/36/36 38/38/38
f 37/37/37 39/39/39 40/40/40
f 38/38/38 41/41/41 39/39/39
f 42/42/42 40/40/40 39/39/39
f 42/42/42 39/39/39 41/41/41
f 40/40/40 42/42/42 43/43/43
f 41/41/41 44/44/44 42/42/42
f 45/45/45 43/43/43 42/42/42
f 45/45/45 42/42/42 44/44/44
f 43/43/43 45/45/45 46/46/46
f 44/44/44 47/47/47 45/45/45
f 48/48/48 46/46/46 45/45/45
f 48/48/48 45/45/45 47/47/47
f 46/46/46 48/48/48 49/49/49
f 47/47/47 50/50/50 48/48/48
f 51/51/51 49/49/49 48/48/48
f 51/51/51 48/48/48 50/50/50
f 49/49/49 51/51/51 52/52/52
f 50/50/50 53/53/53 51/51/51
f 54/54/54 52/52/52 51/51/51
f 54/54/54 51/51/51 53/53/53
f 52/52/52 54/54/54 55/55/55
f 53/53/53 56/56/56 54/54/54
f 57/57/57 55/55/55 54/54/54
f 57/57/57 54/54/54 56/56/56
f 55/55/55 57/57/57 58/58/58
f 56/56/56 59/59/59 57/57/57
f 60/60/60 58/58/58 57/57/57
f 60/60/60 57/57/57 59/59/59
f 58/58/58 60/60/60 61/61/61
f 59/59/59 62/62/62 60/60/60
f 63/63/63 61/61/61 60/60/60
f 63/63/63 60/60/60 62/62/62
f 61/61/61 63/63/63 64/64/64
f 62/62/62 65/65/65 63/63/63
f 66/66/66 64/64/64 63/63/63
f 66/66/66 63/63/63 65/65/65
f 64/64/64 66/66/66 67/67/67
f 65/65/65 68/68/68 66/66/66
f 69/69/69 67/67/67 66/66/66
f 69/69/69 66/66/66 68/68/68
f 67/67/67 69/69/69 70/70/70
f 68/68/68 71/71/71 69/69/69
f 72/72/72 70/70/70 69/69/69
f 72/72/72 69/69/69 71/71/71
f 70/70/70 72/72/72 73/73/73
f 71/71/71 74/74/74 72/72/72
f 75/75/75 73/73/73 72/72/72
f 75/75/75 72/72/72 74/74/74
f 73/73/73 75/75/75 76/76/76
f 74/74/74 77/77/77 75/75/75
f 78/78/78 76/76/76 75/75/75
f 78/78/78 75/75/75 77/77/77
f 76/76/76 78/78/78 79/79/79
f 77/77/77 80/80/80 78/78/78
f 81/81/81 79/79/79 78/78/78
f 81/81/81 78/78/78 80/80/80
f 79/79/79 81/81/81 82/82/82
f 80/80/80 83/83/83 81/81/81
f 84/84/84 82/82/82 81/81/81
f 84/84/84 81/81/81 83/83/83
f 82/82/82 84/84/84 85/85/85
f 83/83/83 86/86/86 84/84/84
f 87/87/87 85/85/85 84/84/84
f 87/87/87 84/84/84 86/86/86
f 85/85/85 87/87/87 88/88/88
f 86/86/86 89/89/89 87/87/87
f 90/90/90 88/88/88 87/87/87
f 90/90/90 87/87/87 89/89/89
f 88/88/88 90/90/90 91/91/91
f 89/89/89 92/92/92 90/90/90
f 93/93/93 91/91/91 90/90/90
f 93/93/93 90/90/90 92/92/92
f 91/91/91 93/93/93 94/94/94
f 92/92/92 95/95/95 93/93/93
f 96/96/96 94/94/94 93/93/93
f 96/96/96 93/93/93 95/95/95
f 94/94/94 96/96/96 97/97/97
f 95/95/95 98/98/98 96/96/96
f 99/99/99 97/97/97 96/96/96
f 99/99/99 96/96/96 98/98/98
f 97/97/97 99/99/99 100/100/100
f 98/98/98 101/101/101 99/99/99
f 102/102/102 100/100/100 99/99/99
f 102/102/102 99/99/99 101/101/101
f 100/100/100 102/102/102 103/103/103
f 101/101/101 104/104/104 102/102/102
f 105/105/105 103/103/103 102/102/102
f 105/105/105 102/102/102 104/104/104
f 103/103/103 105/105/105 106/106/106
f 104/104/104 107/107/107 105/105/105
f 108/108/108 106/106/106 105/105/105
f 108/108/108 105/105/105 107/107/107
f 106/106/106 108/108/108 109/109/109
f 107/107/107 110/110/110 108/108/108
f 111/111/111 109/109/109 108/108/108
f 111/111/111 108/108/108 110/110/110
f 109/109/109 111/111/111 112/112/112
f 110/110/110 113/113/113 111/111/111
f 114/114/114 112/112/112 111/111/111
f 114/114/114 111/111/111 113/113/113
f 112/112/112 114/114/114 115/115/115
f 113/113/113 116/116/116 114/114/114
f 117/117/117 115/115/115 114/114/114
f 117/117/117 114/114/114 116/116/116
f 115/115/115 117/117/117 118/118/118
f 116/116/116 119/119/119 117/117/117
f 120/120/120 118/118/118 117/117/117
f 120/120/120 117/117/117 119/119/119
f 118/118/118 120/120/120 121/121/121
f 119/119/119 122/122/122 120/120/120
f 123/123/123 121/121/121 120/120/120
f 123/123/123 120/120/120 122/122/122
f 121/121/121 123/123/123 124/124/124
f 122/122/122 125/125/125 123/123/123
f 126/126/126 124/124/124 123/123/123
f 126/126/126 123/123/123 125/125/125
f 124/124/124 126/126/126 127/127/127
f 125/125/125 128/128/128 126/126/126
f 129/129/129 127/127/127 126/126/126
f 129/129/129 126/126/126 128/128/128
f 127/127/127 129/129/129 130/130/130
f 128/128/128 131/131/131 129/129/129
f 132/132/132 130/130/130 129/129/129
f 132/132/132 129/129/129 131/131/131
f 131/131/131 133/133/133 132/132/132
f 134/134/134 132/132/132 133/133/133
f 130/130/130 132/132/132 135/135/135
f 134/134/134 135/135/135 132/132/132
f 137/137/137 135/135/135 136/136/136
f 138/138/138 136/136/136 135/135/135
f 137/137/137 136/136/136 139/139/139
f 136/136/136 138/138/138 140/140/140
f 141/141/141 140/140/140 138/138/138
f 136/136/136 140/140/140 142/142/142
f 142/142/142 139/139/139 136/136/136
f 143/143/143 142/142/142 140/140/140
f 143/143/143 144/144/144 142/142/142
f 142/142/142 145/145/145 139/139/139
f 145/145/145 142/142/142 144/144/144
f 146/146/146 139/139/139 145/145/145
f 146/146/146 145/145/145 147/147/147
f 145/145/145 144/144/144 148/148/148
f 148/148/148 147/147/147 145/145/145
f 149/149/149 148/148/148 144/144/144
f 149/149/149 150/150/150 148/148/148
f 148/148/148 151/151/151 147/147/147
f 151/151/151 148/148/148 150/150/150
f 152/152/152 147/147/147 151/151/151
f 152/152/152 151/151/151 153/153/153
f 151/151/151 150/150/150 154/154/154
f 154/154/154 153/153/153 151/151/151
f 155/155/155 154/154/154 150/150/150
f 155/155/155 156/156/156 154/154/154
f 154/154/154 157/157/157 153/153/153
f 157/157/157 154/154/154 156/156/156
f 158/158/158 153/153/153 157/157/157
f 158/158/158 157/157/157 159/159/159
f 157/157/157 156/156/156 160/160/160
f 160/160/160 159/159/159 157/157/157
f 161/161/161 160/160/160 156/156/156
f 161/161/161 162/162/162 160/160/160
f 160/160/160 163/163/163 159/159/159
f 163/163/163 160/160/160 162/162/162
f 164/164/164 159/159/159 163/163/163
f 164/164/164 163/163/163 165/165/165
f 163/163/163 162/162/162 166/166/166
f 166/166/166 165/165/165 163/163/163
f 167/167/167 166/166/166 162/162/162
f 165/165/165 166/166/166 168/168/168
f 166/166/166 167/167/167 169/169/169
f 169/169/169 168/168/168 166/166/166
f 170/170/170 169/169/169 167/167/167
f 168/168/168 169/169/169 171/171/171
f 169/169/169 170/170/170 172/172/172
f 172/172/172 171/171/171 169/169/169
f 173/173/173 172/172/172 170/170/170
f 171/171/171 172/172/172 174/174/174
f 172/172/172 173/173/173 175/175/175
f 175/175/175 174/174/174 172/172/172
f 176/176/176 175/175/175 173/173/173
f 176/176/176 177/177/177 175/175/175
f 175/175/175 178/178/178 174/174/174
f 178/178/178 175/175/175 177/177/177
f 179/179/179 174/174/174 178/178/178
f 179/179/179 178/178/178 180/180/180
f 178/178/178 177/177/177 181/181/181
f 181/181/181 180/180/180 178/178/178
f 180/180/180 181/181/181 182/182/182
f 183/183/183 181/181/181 177/177/177
f 184/184/184 182/182/182 181/181/181
f 181/181/181 183/183/183 184/184/184
f 185/185/185 184/184/184 183/183/183
