g pCube71
v -0.01254756 0.05518761 0.05773573
v 0.01559948 0.05518761 0.05376265
v 0.01870755 0.02759381 0.07816862
v 0.03532338 -0.05518761 0.09522024
v 0.04115139 -0.03449224 0.09284421
v 0.05206921 -0.04655346 0.07747807
v 0.05705975 -0.1260572 -0.003648734
v 0.06567913 -0.09061886 0.01031054
v 0.05548298 -0.09059808 -0.01717573
v 0.05548298 -0.09059808 -0.01717573
v 0.04222805 -0.02061195 -0.03832742
v -0.02416103 -0.05518761 -0.08173582
v -0.07891452 0.0275938 0.01434081
v -0.06129001 0.05518761 -0.007106071
v -0.06043063 0.05518761 0.02642584
v -0.02416103 -0.05518761 -0.08173582
v 0.007906841 0.03161331 -0.06076825
v -0.043521 0.03161331 -0.06110815
v -0.06043063 0.05518761 0.02642584
v -0.01254756 0.05518761 0.05773573
v -0.0566217 0.02759381 0.06191285
v -0.02416103 -0.05518761 -0.08173582
v 0.04222805 -0.02061195 -0.03832742
v 0.007906841 0.03161331 -0.06076825
v -0.05503574 0.05518761 -0.03130826
v -0.06129001 0.05518761 -0.007106071
v -0.07891452 0.0275938 0.01434081
v 0.02524212 0.05518761 -0.03077676
v 0.007906841 0.03161331 -0.06076825
v 0.04222805 -0.02061195 -0.03832742
v -0.07576846 -0.03354242 -0.008189331
v -0.07891452 0.0275938 0.01434081
v -0.06847262 -0.05518761 0.02116679
v -0.07576846 -0.03354242 -0.008189331
v -0.06847262 -0.05518761 0.02116679
v -0.07472019 -0.05518761 -0.007805229
v -0.07891452 0.0275938 0.01434081
v -0.06043063 0.05518761 0.02642584
v -0.0566217 0.02759381 0.06191285
v -0.03091857 -0.03449224 0.07871725
v -0.004604564 -0.05518761 0.08767275
v -0.00851337 -0.072905 0.07954918
v -0.07891452 0.0275938 0.01434081
v -0.0566217 0.02759381 0.06191285
v -0.06847262 -0.05518761 0.02116679
v -0.0566217 0.02759381 0.06191285
v 0.01870755 0.02759381 0.07816862
v -0.03091857 -0.03449224 0.07871725
v 0.005484432 -0.1260572 0.04724898
v -0.0584859 -0.07890505 0.0202426
v -0.00851337 -0.072905 0.07954918
v -0.03091857 -0.03449224 0.07871725
v -0.06847262 -0.05518761 0.02116679
v -0.0566217 0.02759381 0.06191285
v -0.01254756 0.05518761 0.05773573
v 0.01870755 0.02759381 0.07816862
v -0.0566217 0.02759381 0.06191285
v 0.03532338 -0.05518761 0.09522024
v 0.05206921 -0.04655346 0.07747807
v 0.05289555 -0.06404541 0.07587939
v 0.03532338 -0.05518761 0.09522024
v 0.05289555 -0.06404541 0.07587939
v 0.04472309 -0.072905 0.08961128
v 0.04115139 -0.03449224 0.09284421
v 0.03532338 -0.05518761 0.09522024
v -0.004604564 -0.05518761 0.08767275
v 0.03299664 -0.1260572 0.06523813
v 0.005484432 -0.1260572 0.04724898
v -0.00851337 -0.072905 0.07954918
v 0.01796284 -0.1260572 -0.02920618
v 0.05705975 -0.1260572 -0.003648734
v 0.05548298 -0.09059808 -0.01717573
v -0.02416103 -0.05518761 -0.08173582
v -0.01893909 -0.09062595 -0.06582566
v 0.062374 -0.02065105 0.01670771
v 0.03620762 0.05518761 0.0001051946
v 0.02524212 0.05518761 -0.03077676
v 0.04222805 -0.02061195 -0.03832742
v 0.05548298 -0.09059808 -0.01717573
v 0.06567913 -0.09061886 0.01031054
v 0.062374 -0.02065105 0.01670771
v 0.04222805 -0.02061195 -0.03832742
v 0.01870755 0.02759381 0.07816862
v 0.01559948 0.05518761 0.05376265
v 0.03620762 0.05518761 0.0001051946
v 0.062374 -0.02065105 0.01670771
v 0.04115139 -0.03449224 0.09284421
v 0.05206921 -0.04655346 0.07747807
v 0.02524212 0.05518761 -0.03077676
v -0.05503574 0.05518761 -0.03130826
v -0.043521 0.03161331 -0.06110815
v 0.007906841 0.03161331 -0.06076825
v -0.043521 0.03161331 -0.06110815
v -0.07891452 0.0275938 0.01434081
v -0.07576846 -0.03354242 -0.008189331
v -0.05503574 0.05518761 -0.03130826
v -0.02416103 -0.05518761 -0.08173582
v -0.043521 0.03161331 -0.06110815
v -0.07576846 -0.03354242 -0.008189331
v -0.07472019 -0.05518761 -0.007805229
v -0.06043063 0.05518761 0.02642584
v -0.06129001 0.05518761 -0.007106071
v -0.05503574 0.05518761 -0.03130826
v 0.02524212 0.05518761 -0.03077676
v -0.01254756 0.05518761 0.05773573
v 0.03620762 0.05518761 0.0001051946
v 0.01559948 0.05518761 0.05376265
v 0.005484432 -0.1260572 0.04724898
v 0.03299664 -0.1260572 0.06523813
v 0.05705975 -0.1260572 -0.003648734
v 0.01796284 -0.1260572 -0.02920618
v -0.01109729 -0.1260572 0.0132873
v -0.06847262 -0.05518761 0.02116679
v -0.0584859 -0.07890505 0.0202426
v -0.05879947 -0.0906262 -0.007540565
v -0.07472019 -0.05518761 -0.007805229
v -0.0584859 -0.07890505 0.0202426
v 0.005484432 -0.1260572 0.04724898
v -0.01109729 -0.1260572 0.0132873
v -0.05879947 -0.0906262 -0.007540565
v -0.05879947 -0.0906262 -0.007540565
v -0.01893909 -0.09062595 -0.06582566
v -0.02416103 -0.05518761 -0.08173582
v -0.07472019 -0.05518761 -0.007805229
v -0.01109729 -0.1260572 0.0132873
v 0.01796284 -0.1260572 -0.02920618
v -0.01893909 -0.09062595 -0.06582566
v -0.05879947 -0.0906262 -0.007540565
v -0.03091857 -0.03449224 0.07871725
v -0.00851337 -0.072905 0.07954918
v -0.0584859 -0.07890505 0.0202426
v -0.06847262 -0.05518761 0.02116679
v 0.04472309 -0.072905 0.08961128
v -0.004604564 -0.05518761 0.08767275
v 0.03532338 -0.05518761 0.09522024
v -0.00851337 -0.072905 0.07954918
v 0.03299664 -0.1260572 0.06523813
v 0.05705975 -0.1260572 -0.003648734
v 0.05289555 -0.06404541 0.07587939
v 0.06567913 -0.09061886 0.01031054
v 0.04472309 -0.072905 0.08961128
v 0.03299664 -0.1260572 0.06523813
v 0.062374 -0.02065105 0.01670771
v 0.06567913 -0.09061886 0.01031054
v 0.05289555 -0.06404541 0.07587939
v 0.05206921 -0.04655346 0.07747807
v 0.01870755 0.02759381 0.07816862
v 0.04115139 -0.03449224 0.09284421
v -0.004604564 -0.05518761 0.08767275
v -0.03091857 -0.03449224 0.07871725
vt 0.5392187 0.9435419
vt 0.5265191 0.946825
vt 0.5224314 0.9302645
vt 0.4402831 0.9967037
vt 0.4317069 0.9917566
vt 0.4391648 0.9853203
vt 0.6751797 0.8615164
vt 0.6831805 0.8776367
vt 0.6700997 0.8776169
vt 0.6700997 0.8776169
vt 0.6591462 0.9078081
vt 0.6245465 0.8934049
vt 0.5866198 0.9943291
vt 0.5989178 0.9817408
vt 0.6023608 0.9965103
vt 0.6245465 0.8934049
vt 0.6426358 0.9293495
vt 0.6214785 0.933579
vt 0.5665202 0.9438765
vt 0.5392187 0.9435419
vt 0.5553232 0.9284158
vt 0.6245465 0.8934049
vt 0.6591462 0.9078081
vt 0.6426358 0.9293495
vt 0.5977866 0.9705311
vt 0.5989178 0.9817408
vt 0.5866198 0.9943291
vt 0.6554117 0.9413936
vt 0.6426358 0.9293495
vt 0.6591462 0.9078081
vt 0.5869099 0.9007692
vt 0.5779431 0.9303834
vt 0.5721369 0.8918523
vt 0.5869099 0.9007692
vt 0.5721369 0.8918523
vt 0.5856572 0.8897712
vt 0.5779431 0.9303834
vt 0.5665202 0.9438765
vt 0.5553232 0.9284158
vt 0.5430076 0.9024568
vt 0.5318134 0.893221
vt 0.5353551 0.8855593
vt 0.5779431 0.9303834
vt 0.5553232 0.9284158
vt 0.5721369 0.8918523
vt 0.5553232 0.9284158
vt 0.5224314 0.9302645
vt 0.5430076 0.9024568
vt 0.5393746 0.8574591
vt 0.5691016 0.8809985
vt 0.5353551 0.8855593
vt 0.5430076 0.9024568
vt 0.5721369 0.8918523
vt 0.5553232 0.9284158
vt 0.5392187 0.9435419
vt 0.5224314 0.9302645
vt 0.5553232 0.9284158
vt 0.4402831 0.9967037
vt 0.4391648 0.9853203
vt 0.4467705 0.9862745
vt 0.4402831 0.9967037
vt 0.4467705 0.9862745
vt 0.4493894 0.9939121
vt 0.5111341 0.9015663
vt 0.5139141 0.891549
vt 0.5318134 0.893221
vt 0.5240293 0.8570297
vt 0.5393746 0.8574591
vt 0.5353551 0.8855593
vt 0.6540205 0.8604246
vt 0.6751797 0.8615164
vt 0.6700997 0.8776169
vt 0.6245465 0.8934049
vt 0.6303167 0.8769165
vt 0.6845281 0.9094091
vt 0.6700284 0.9430678
vt 0.6554117 0.9413936
vt 0.6591462 0.9078081
vt 0.6700997 0.8776169
vt 0.6831805 0.8776367
vt 0.6845281 0.9094091
vt 0.6591462 0.9078081
vt 0.4035598 0.9818228
vt 0.3931808 0.9692322
vt 0.3995898 0.9446831
vt 0.4338061 0.9563957
vt 0.4317069 0.9917566
vt 0.4391648 0.9853203
vt 0.6554117 0.9413936
vt 0.6212329 0.9513114
vt 0.6214785 0.933579
vt 0.6426358 0.9293495
vt 0.5863026 0.9568227
vt 0.5866198 0.9943291
vt 0.5585783 0.9860876
vt 0.5977866 0.9705311
vt 0.5466679 0.9465045
vt 0.5863026 0.9568227
vt 0.5585783 0.9860876
vt 0.5489227 0.986483
vt 0.6425914 0.994992
vt 0.6582009 0.9953207
vt 0.6694525 0.9923576
vt 0.6690342 0.954993
vt 0.6279164 0.9727722
vt 0.6546363 0.9499552
vt 0.6297055 0.9596616
vt 0.4900244 0.9899311
vt 0.4755132 0.9905413
vt 0.4818979 0.9588967
vt 0.5026124 0.9579611
vt 0.5040151 0.9807881
vt 0.5721369 0.8918523
vt 0.5691016 0.8809985
vt 0.5792253 0.8716474
vt 0.5856572 0.8897712
vt 0.5691016 0.8809985
vt 0.5393746 0.8574591
vt 0.5562694 0.8534247
vt 0.5792253 0.8716474
vt 0.5318636 0.9835027
vt 0.5300289 0.9520646
vt 0.5466679 0.9465045
vt 0.5489227 0.986483
vt 0.5040151 0.9807881
vt 0.5026124 0.9579611
vt 0.5300289 0.9520646
vt 0.5318636 0.9835027
vt 0.5430076 0.9024568
vt 0.5353551 0.8855593
vt 0.5691016 0.8809985
vt 0.5721369 0.8918523
vt 0.511488 0.8818189
vt 0.5318134 0.893221
vt 0.5139141 0.891549
vt 0.5353551 0.8855593
vt 0.5240293 0.8570297
vt 0.4818979 0.9588967
vt 0.4467705 0.9862745
vt 0.4646631 0.960111
vt 0.4493894 0.9939121
vt 0.4755132 0.9905413
vt 0.4338061 0.9563957
vt 0.4646631 0.960111
vt 0.4467705 0.9862745
vt 0.4391648 0.9853203
vt 0.5224314 0.9302645
vt 0.5111341 0.9015663
vt 0.5318134 0.893221
vt 0.5430076 0.9024568
vn 0.1043274 0.6654662 0.7391011
vn 0.1043274 0.6654662 0.7391011
vn 0.1043274 0.6654663 0.7391011
vn 0.7529418 -0.1381595 0.643421
vn 0.7529418 -0.1381595 0.643421
vn 0.7529418 -0.1381596 0.643421
vn 0.9336891 -0.09063535 -0.3464247
vn 0.9336891 -0.09063534 -0.3464247
vn 0.9336891 -0.09063535 -0.3464247
vn 0.5890151 -0.1295224 -0.7976748
vn 0.5890151 -0.1295224 -0.797675
vn 0.5890151 -0.1295224 -0.797675
vn -0.8349436 0.5499194 0.02139864
vn -0.8349436 0.5499194 0.02139864
vn -0.8349436 0.5499193 0.02139864
vn 0.006428079 0.2325565 -0.9725617
vn 0.006428079 0.2325564 -0.9725617
vn 0.006428079 0.2325564 -0.9725617
vn -0.3868193 0.7073976 0.5915737
vn -0.3868193 0.7073976 0.5915737
vn -0.3868194 0.7073976 0.5915737
vn 0.5472504 0 -0.8369689
vn 0.5472504 0 -0.8369689
vn 0.5472505 0 -0.8369689
vn -0.8913996 0.3903124 -0.2303537
vn -0.8913996 0.3903124 -0.2303538
vn -0.8913996 0.3903124 -0.2303538
vn 0.753166 0.2301639 -0.6162513
vn 0.753166 0.2301638 -0.6162512
vn 0.753166 0.2301639 -0.6162512
vn -0.9805463 -0.1102956 0.1623694
vn -0.9805463 -0.1102956 0.1623694
vn -0.9805463 -0.1102956 0.1623694
vn -0.9766023 -0.04356196 0.2105954
vn -0.9766023 -0.04356196 0.2105954
vn -0.9766023 -0.04356197 0.2105954
vn -0.8346471 0.3877954 0.3911254
vn -0.8346471 0.3877954 0.3911253
vn -0.8346471 0.3877954 0.3911254
vn -0.4937338 -0.2700811 0.8266094
vn -0.4937338 -0.2700811 0.8266094
vn -0.4937338 -0.2700811 0.8266094
vn -0.9026781 -0.07898247 0.4230057
vn -0.9026781 -0.07898248 0.4230057
vn -0.9026781 -0.07898247 0.4230057
vn -0.2077035 0.1745251 0.9624969
vn -0.2077035 0.1745251 0.9624969
vn -0.2077035 0.1745251 0.9624969
vn -0.6274006 -0.5183571 0.5810977
vn -0.6274006 -0.5183571 0.5810977
vn -0.6274006 -0.5183572 0.5810977
vn -0.7955132 -0.1720836 0.5809873
vn -0.795513 -0.1720836 0.5809873
vn -0.795513 -0.1720836 0.5809872
vn -0.1898037 0.4363086 0.8795506
vn -0.1898037 0.4363086 0.8795506
vn -0.1898037 0.4363086 0.8795506
vn 0.7335805 -0.02741165 0.6790495
vn 0.7335805 -0.02741165 0.6790495
vn 0.7335805 -0.02741165 0.6790494
vn 0.7699868 0.2187553 0.5993884
vn 0.7699868 0.2187552 0.5993884
vn 0.7699869 0.2187553 0.5993884
vn -0.1832574 0.1629124 0.9694722
vn -0.1832574 0.1629125 0.9694722
vn -0.1832574 0.1629124 0.9694722
vn -0.4582704 -0.5466004 0.7008682
vn -0.4582704 -0.5466004 0.7008682
vn -0.4582704 -0.5466004 0.7008682
vn 0.5248041 -0.2829272 -0.802828
vn 0.5248042 -0.2829271 -0.802828
vn 0.5248042 -0.2829272 -0.802828
vn 0.5248653 -0.2830374 -0.8027492
vn 0.5248654 -0.2830374 -0.8027492
vn 0.9127993 0.2400355 -0.3304248
vn 0.9127993 0.2400355 -0.3304248
vn 0.9127993 0.2400355 -0.3304248
vn 0.9127993 0.2400355 -0.3304248
vn 0.9359772 0.07447303 -0.3440934
vn 0.9359772 0.07447304 -0.3440934
vn 0.9359773 0.07447305 -0.3440934
vn 0.9359773 0.07447304 -0.3440933
vn 0.8673513 0.3751537 0.3270498
vn 0.8673513 0.3751537 0.3270498
vn 0.8673513 0.3751537 0.3270497
vn 0.8673513 0.3751537 0.3270498
vn 0.8674435 0.3873782 0.3122176
vn 0.8674258 0.3874148 0.3122216
vn 0.004098275 0.7850343 -0.6194388
vn 0.004098275 0.7850343 -0.6194388
vn 0.004098275 0.7850342 -0.6194388
vn 0.004098275 0.7850342 -0.6194388
vn -0.9022832 0.1074424 -0.4175419
vn -0.9022832 0.1074424 -0.4175419
vn -0.9022832 0.1074424 -0.4175418
vn -0.903587 0.08850531 -0.4191625
vn -0.8244044 -0.04989924 -0.5637975
vn -0.8244044 -0.04989924 -0.5637974
vn -0.8244044 -0.04989924 -0.5637975
vn -0.8244044 -0.04989924 -0.5637974
vn 0 1 -1.009306E-07
vn 0 1 0
vn 0 1 0
vn 0 1 -1.009306E-07
vn 0 1 -1.009306E-07
vn 0 1 -1.009306E-07
vn 0 1 0
vn 0 -1 0
vn 0 -1 0
vn 0 -1 0
vn 0 -1 0
vn 0 -1 0
vn -0.899305 -0.3959229 0.1857301
vn -0.899305 -0.3959229 0.1857301
vn -0.899305 -0.3959229 0.1857301
vn -0.899305 -0.3959229 0.1857301
vn -0.6475281 -0.6964108 0.3093852
vn -0.6475282 -0.6964108 0.3093853
vn -0.6475282 -0.6964108 0.3093853
vn -0.6475281 -0.6964108 0.3093853
vn -0.7728649 -0.3511669 -0.5285469
vn -0.7728649 -0.3511669 -0.5285469
vn -0.7728649 -0.3511669 -0.5285469
vn -0.7728649 -0.3511669 -0.5285469
vn -0.4701317 -0.8219512 -0.3215161
vn -0.4701317 -0.8219512 -0.3215161
vn -0.4701316 -0.8219512 -0.3215161
vn -0.4701317 -0.8219512 -0.3215161
vn -0.702333 -0.3670716 0.6099072
vn -0.702333 -0.3670716 0.6099072
vn -0.7023331 -0.3670716 0.6099071
vn -0.702333 -0.3670716 0.6099072
vn -0.1718703 -0.3790213 0.9092873
vn -0.1718703 -0.3790213 0.9092873
vn -0.1718703 -0.3790213 0.9092873
vn -0.1718703 -0.3790213 0.9092873
vn -0.1718614 -0.3790393 0.9092816
vn 0.8883759 -0.3383444 0.3103408
vn 0.8883759 -0.3383444 0.3103408
vn 0.8883759 -0.3383444 0.3103408
vn 0.8883759 -0.3383444 0.3103408
vn 0.8883964 -0.3383009 0.3103291
vn 0.9832928 0.03003616 0.1795363
vn 0.9832928 0.03003616 0.1795363
vn 0.9832928 0.03003616 0.1795363
vn 0.9832928 0.03003616 0.1795363
vn -0.1897343 0.1645607 0.9679466
vn -0.1897343 0.1645607 0.9679466
vn -0.1897343 0.1645607 0.9679466
vn -0.1897343 0.1645607 0.9679466
g pCube71_0
f 3/3/3 2/2/2 1/1/1
f 6/6/6 5/5/5 4/4/4
f 9/9/9 8/8/8 7/7/7
f 12/12/12 11/11/11 10/10/10
f 15/15/15 14/14/14 13/13/13
f 18/18/18 17/17/17 16/16/16
f 21/21/21 20/20/20 19/19/19
f 24/24/24 23/23/23 22/22/22
f 27/27/27 26/26/26 25/25/25
f 30/30/30 29/29/29 28/28/28
f 33/33/33 32/32/32 31/31/31
f 36/36/36 35/35/35 34/34/34
f 39/39/39 38/38/38 37/37/37
f 42/42/42 41/41/41 40/40/40
f 45/45/45 44/44/44 43/43/43
f 48/48/48 47/47/47 46/46/46
f 51/51/51 50/50/50 49/49/49
f 54/54/54 53/53/53 52/52/52
f 57/57/57 56/56/56 55/55/55
f 60/60/60 59/59/59 58/58/58
f 63/63/63 62/62/62 61/61/61
f 66/66/66 65/65/65 64/64/64
f 69/69/69 68/68/68 67/67/67
f 72/72/72 71/71/71 70/70/70
f 72/72/72 70/70/70 73/73/73
f 70/70/70 74/74/74 73/73/73
f 77/77/77 76/76/76 75/75/75
f 78/78/78 77/77/77 75/75/75
f 81/81/81 80/80/80 79/79/79
f 82/82/82 81/81/81 79/79/79
f 85/85/85 84/84/84 83/83/83
f 86/86/86 85/85/85 83/83/83
f 86/86/86 83/83/83 87/87/87
f 88/88/88 86/86/86 87/87/87
f 91/91/91 90/90/90 89/89/89
f 92/92/92 91/91/91 89/89/89
f 95/95/95 94/94/94 93/93/93
f 94/94/94 96/96/96 93/93/93
f 99/99/99 98/98/98 97/97/97
f 100/100/100 99/99/99 97/97/97
f 103/103/103 102/102/102 101/101/101
f 104/104/104 103/103/103 101/101/101
f 104/104/104 101/101/101 105/105/105
f 106/106/106 104/104/104 105/105/105
f 107/107/107 106/106/106 105/105/105
f 110/110/110 109/109/109 108/108/108
f 111/111/111 110/110/110 108/108/108
f 112/112/112 111/111/111 108/108/108
f 115/115/115 114/114/114 113/113/113
f 116/116/116 115/115/115 113/113/113
f 119/119/119 118/118/118 117/117/117
f 120/120/120 119/119/119 117/117/117
f 123/123/123 122/122/122 121/121/121
f 124/124/124 123/123/123 121/121/121
f 127/127/127 126/126/126 125/125/125
f 128/128/128 127/127/127 125/125/125
f 131/131/131 130/130/130 129/129/129
f 132/132/132 131/131/131 129/129/129
f 135/135/135 134/134/134 133/133/133
f 134/134/134 136/136/136 133/133/133
f 136/136/136 137/137/137 133/133/133
f 140/140/140 139/139/139 138/138/138
f 139/139/139 141/141/141 138/138/138
f 141/141/141 142/142/142 138/138/138
f 145/145/145 144/144/144 143/143/143
f 146/146/146 145/145/145 143/143/143
f 149/149/149 148/148/148 147/147/147
f 150/150/150 149/149/149 147/147/147
