g pCube77
v -0.02403886 -0.02703757 0.1205263
v 0.03618338 0.05110811 0.01516923
v 0.05192015 -0.03687495 0.05613203
v 0.03618338 0.05110811 0.01516923
v 0.02485228 0.1093205 -0.09009509
v 0.0386027 0.09150831 -0.07976931
v -0.09476178 0.05295604 -0.1244405
v -0.07168363 0.09110815 -0.08136319
v -0.08673917 0.07157174 -0.05502362
v -0.08247887 -0.154427 -0.04309187
v -0.04495507 -0.2325475 -0.09430511
v -0.05314592 -0.1379345 -0.1487894
v -0.08247887 -0.154427 -0.04309187
v -0.03861139 -0.2910042 0.07971822
v -0.04495507 -0.2325475 -0.09430511
v -0.007727902 -0.1015004 0.1661987
v 0.05192015 -0.03687495 0.05613203
v 0.0616181 -0.1722029 0.08106141
v 0.01990386 -0.1569869 -0.1321158
v -0.01002301 -0.1106089 -0.1689452
v 0.01272441 -0.1914761 -0.1239075
v 0.01990386 -0.1569869 -0.1321158
v 0.0208121 -0.1214175 -0.1295738
v -0.01002301 -0.1106089 -0.1689452
v -0.04495507 -0.2325475 -0.09430511
v 0.04857607 -0.3403088 0.03216523
v 0.01272441 -0.1914761 -0.1239075
v -0.09476178 0.05295604 -0.1244405
v -0.08673917 0.07157174 -0.05502362
v -0.08680985 -0.1015004 -0.05522284
v -0.09476178 0.05295604 -0.1244405
v -0.07829972 0.1087572 -0.1147441
v -0.07168363 0.09110815 -0.08136319
v -0.03861139 -0.2910042 0.07971822
v -0.007727902 -0.1015004 0.1661987
v 0.03204287 -0.3470222 0.09510732
v 0.07019942 -0.1811688 0.008695996
v 0.01990386 -0.1569869 -0.1321158
v 0.01272441 -0.1914761 -0.1239075
v -0.09476178 0.05295604 -0.1244405
v -0.005402233 0.1340882 -0.1466199
v -0.07829972 0.1087572 -0.1147441
v -0.007727902 -0.1015004 0.1661987
v -0.02403886 -0.02703757 0.1205263
v 0.05192015 -0.03687495 0.05613203
v 0.01858554 -0.08756804 -0.13581
v 0.011398 0.1031969 -0.1559361
v -0.01076764 -0.1015004 -0.171034
v 0.0208121 -0.1214175 -0.1295738
v -0.01002301 -0.1106089 -0.1689452
v -0.03861139 -0.2910042 0.07971822
v -0.08247887 -0.154427 -0.04309187
v -0.007727902 -0.1015004 0.1661987
v -0.08680985 -0.1015004 -0.05522284
v -0.08673917 0.07157174 -0.05502362
v -0.02403886 -0.02703757 0.1205263
v 0.07019942 -0.1811688 0.008695996
v 0.05847109 -0.3354904 0.05986766
v 0.05727454 -0.3372974 0.06900228
v 0.0616181 -0.1722029 0.08106141
v 0.05192015 -0.03687495 0.05613203
v 0.03618338 0.05110811 0.01516923
v 0.0386027 0.09150831 -0.07976931
v 0.06129324 -0.04577107 -0.01624495
v 0.005343082 0.1344839 -0.1447195
v -0.005402233 0.1340882 -0.1466199
v 0.011398 0.1031969 -0.1559361
v 0.01430327 0.1228486 -0.1477976
v 0.02485228 0.1093205 -0.09009509
v 0.005343082 0.1344839 -0.1447195
v 0.01430327 0.1228486 -0.1477976
v 0.0386027 0.09150831 -0.07976931
v -0.03861139 -0.2910042 0.07971822
v 0.03204287 -0.3470222 0.09510732
v 0.04168429 -0.3505642 0.08439664
v 0.04857607 -0.3403088 0.03216523
v -0.04495507 -0.2325475 -0.09430511
v -0.08680985 -0.1015004 -0.05522284
v -0.08247887 -0.154427 -0.04309187
v -0.05314592 -0.1379345 -0.1487894
v -0.0561268 -0.1015004 -0.1571411
v -0.09476178 0.05295604 -0.1244405
v 0.0616181 -0.1722029 0.08106141
v 0.03204287 -0.3470222 0.09510732
v -0.007727902 -0.1015004 0.1661987
v 0.05727454 -0.3372974 0.06900228
v 0.04168429 -0.3505642 0.08439664
v 0.07019942 -0.1811688 0.008695996
v 0.0616181 -0.1722029 0.08106141
v 0.05192015 -0.03687495 0.05613203
v 0.06129324 -0.04577107 -0.01624495
v 0.05727454 -0.3372974 0.06900228
v 0.05847109 -0.3354904 0.05986766
v 0.04857607 -0.3403088 0.03216523
v 0.04168429 -0.3505642 0.08439664
v -0.04495507 -0.2325475 -0.09430511
v 0.01272441 -0.1914761 -0.1239075
v -0.01002301 -0.1106089 -0.1689452
v -0.05314592 -0.1379345 -0.1487894
v -0.05314592 -0.1379345 -0.1487894
v -0.01002301 -0.1106089 -0.1689452
v -0.01076764 -0.1015004 -0.171034
v -0.0561268 -0.1015004 -0.1571411
v 0.0386027 0.09150831 -0.07976931
v 0.01430327 0.1228486 -0.1477976
v 0.011398 0.1031969 -0.1559361
v 0.06129324 -0.04577107 -0.01624495
v 0.01858554 -0.08756804 -0.13581
v 0.0208121 -0.1214175 -0.1295738
v 0.07019942 -0.1811688 0.008695996
v 0.01990386 -0.1569869 -0.1321158
v -0.02403886 -0.02703757 0.1205263
v -0.08673917 0.07157174 -0.05502362
v -0.07168363 0.09110815 -0.08136319
v 0.03618338 0.05110811 0.01516923
v -0.07829972 0.1087572 -0.1147441
v 0.03618338 0.05110811 0.01516923
v -0.07168363 0.09110815 -0.08136319
v 0.02485228 0.1093205 -0.09009509
v 0.005343082 0.1344839 -0.1447195
v -0.005402233 0.1340882 -0.1466199
v -0.09476178 0.05295604 -0.1244405
v -0.0561268 -0.1015004 -0.1571411
v -0.01076764 -0.1015004 -0.171034
v 0.011398 0.1031969 -0.1559361
v -0.005402233 0.1340882 -0.1466199
v 0.04857607 -0.3403088 0.03216523
v 0.05847109 -0.3354904 0.05986766
v 0.07019942 -0.1811688 0.008695996
v 0.01272441 -0.1914761 -0.1239075
vt 0.1027426 0.8410139
vt 0.1484548 0.8758678
vt 0.1422623 0.836126
vt 0.1484548 0.8758678
vt 0.1639468 0.922036
vt 0.1681904 0.9132986
vt 0.05143004 0.7826576
vt 0.07404099 0.7887961
vt 0.07785915 0.7757055
vt 0.04077505 0.7005886
vt 0.008909451 0.6803652
vt 0.006153332 0.7229704
vt 0.04077505 0.7005886
vt 0.0570616 0.6372224
vt 0.008909451 0.6803652
vt 0.09355961 0.8074031
vt 0.1422623 0.836126
vt 0.1381018 0.7800707
vt 0.08679724 0.8529901
vt 0.103132 0.8730955
vt 0.08745681 0.8388813
vt 0.08679724 0.8529901
vt 0.08395045 0.866476
vt 0.103132 0.8730955
vt 0.1474939 0.7418867
vt 0.1640567 0.6720906
vt 0.1738233 0.7537666
vt 0.05143004 0.7826576
vt 0.07785915 0.7757055
vt 0.04603599 0.7196566
vt 0.05143004 0.7826576
vt 0.06514369 0.8002287
vt 0.07404099 0.7887961
vt 0.0570616 0.6372224
vt 0.1212042 0.6755986
vt 0.05730419 0.6034462
vt 0.03107725 0.8350922
vt 0.08679724 0.8529901
vt 0.08745681 0.8388813
vt 0.1505317 0.8569086
vt 0.1897555 0.8817723
vt 0.158399 0.8777664
vt 0.09355961 0.8074031
vt 0.1027426 0.8410139
vt 0.1422623 0.836126
vt 0.08466338 0.879907
vt 0.08161033 0.9553713
vt 0.1034057 0.8769284
vt 0.08395045 0.866476
vt 0.103132 0.8730955
vt 0.0570616 0.6372224
vt 0.04077505 0.7005886
vt 0.1212042 0.6755986
vt 0.04603599 0.7196566
vt 0.07785915 0.7757055
vt 0.1197708 0.7087327
vt 0.03107725 0.8350922
vt 0.02226048 0.7722566
vt 0.01890209 0.7707487
vt 0.002439934 0.8339089
vt 0.004144683 0.8884643
vt 0.01541638 0.9259818
vt 0.05100115 0.9461603
vt 0.03306672 0.8886552
vt 0.1939219 0.8817988
vt 0.1897555 0.8817723
vt 0.1949506 0.868975
vt 0.196892 0.8769288
vt 0.1639468 0.922036
vt 0.1629255 0.945711
vt 0.1688698 0.9441181
vt 0.1681904 0.9132986
vt 0.0570616 0.6372224
vt 0.05730419 0.6034462
vt 0.05103539 0.601119
vt 0.02859484 0.6101341
vt 0.008909451 0.6803652
vt 0.04603599 0.7196566
vt 0.04077505 0.7005886
vt 0.006153332 0.7229704
vt 0.01000701 0.7370988
vt 0.05143004 0.7826576
vt 0.1381018 0.7800707
vt 0.1249107 0.7132971
vt 0.09355961 0.8074031
vt 0.1393876 0.7174138
vt 0.1306678 0.7119449
vt 0.03107725 0.8350922
vt 0.002439934 0.8339089
vt 0.004144683 0.8884643
vt 0.03306672 0.8886552
vt 0.01890209 0.7707487
vt 0.02226048 0.7722566
vt 0.03396845 0.7718359
vt 0.01548499 0.7611263
vt 0.1474939 0.7418867
vt 0.1738233 0.7537666
vt 0.1756386 0.7896407
vt 0.1563597 0.7821249
vt 0.1563597 0.7821249
vt 0.1756386 0.7896407
vt 0.1761944 0.7931512
vt 0.1585127 0.7960367
vt 0.05100115 0.9461603
vt 0.0771281 0.9624722
vt 0.08161033 0.9553713
vt 0.03306672 0.8886552
vt 0.08466338 0.879907
vt 0.08395045 0.866476
vt 0.03107725 0.8350922
vt 0.08679724 0.8529901
vt 0.1027426 0.8410139
vt 0.1162596 0.9220296
vt 0.126854 0.9307018
vt 0.1484548 0.8758678
vt 0.1298431 0.9441994
vt 0.1484548 0.8758678
vt 0.126854 0.9307018
vt 0.1639468 0.922036
vt 0.1629255 0.945711
vt 0.1597416 0.9475657
vt 0.1505317 0.8569086
vt 0.1585127 0.7960367
vt 0.1761944 0.7931512
vt 0.1949506 0.868975
vt 0.1897555 0.8817723
vt 0.03396845 0.7718359
vt 0.02226048 0.7722566
vt 0.03107725 0.8350922
vt 0.08745681 0.8388813
vn 0.6178904 0.4199847 0.6646988
vn 0.6178904 0.4199847 0.6646987
vn 0.6178903 0.4199847 0.6646988
vn 0.6577324 0.686922 0.309073
vn 0.6577324 0.6869221 0.309073
vn 0.6577324 0.6869221 0.309073
vn -0.8254964 0.5616987 -0.05522875
vn -0.8254964 0.5616987 -0.05522875
vn -0.8254964 0.5616987 -0.05522875
vn -0.9223237 -0.2496815 -0.2949205
vn -0.9223237 -0.2496815 -0.2949205
vn -0.9223237 -0.2496815 -0.2949205
vn -0.9200926 -0.3802105 -0.09417752
vn -0.9200926 -0.3802105 -0.09417752
vn -0.9200926 -0.3802105 -0.09417752
vn 0.8259727 0.1588277 0.5408723
vn 0.8259727 0.1588277 0.5408722
vn 0.8259728 0.1588277 0.5408722
vn 0.5210059 -0.2987488 -0.7995637
vn 0.5210059 -0.2987488 -0.7995637
vn 0.5210059 -0.2987487 -0.7995637
vn 0.7901982 0.02358786 -0.6123973
vn 0.7901982 0.02358786 -0.6123973
vn 0.7901982 0.02358786 -0.6123974
vn 0.1395005 -0.7004159 -0.6999695
vn 0.1395005 -0.700416 -0.6999694
vn 0.1395005 -0.7004159 -0.6999695
vn -0.9933961 0.0002731127 0.114735
vn -0.9933961 0.0002731127 0.114735
vn -0.9933961 0.0002731127 0.114735
vn -0.9276083 0.2213711 0.3008947
vn -0.9276083 0.2213711 0.3008947
vn -0.9276083 0.2213711 0.3008947
vn -0.4334501 -0.3147201 0.8444361
vn -0.4334501 -0.3147202 0.8444361
vn -0.4334501 -0.3147201 0.8444361
vn 0.8904229 -0.2721745 -0.3647847
vn 0.8904231 -0.2721746 -0.3647847
vn 0.8904231 -0.2721746 -0.3647847
vn -0.4651135 0.2829699 -0.8388072
vn -0.4651134 0.2829699 -0.8388072
vn -0.4651134 0.2829699 -0.8388072
vn 0.5932983 0.5113096 0.6217391
vn 0.5932984 0.5113097 0.6217391
vn 0.5932983 0.5113096 0.6217391
vn 0.7749068 -0.03737216 -0.6309698
vn 0.7749067 -0.03737216 -0.6309699
vn 0.7749068 -0.03737216 -0.6309698
vn 0.7778681 -0.0672834 -0.6248153
vn 0.7778681 -0.0672834 -0.6248153
vn -0.9417338 -2.359167E-05 0.3363591
vn -0.9417338 -2.359167E-05 0.3363591
vn -0.9417338 -2.359167E-05 0.3363591
vn -0.9417381 2.942844E-05 0.3363472
vn -0.9417366 3.677473E-06 0.3363514
vn -0.9417366 3.677474E-06 0.3363514
vn 0.9919051 -0.03496101 0.1220735
vn 0.9919051 -0.03496101 0.1220735
vn 0.9919051 -0.03496101 0.1220735
vn 0.9919051 -0.03496101 0.1220735
vn 0.9702572 0.21611 0.1090754
vn 0.9702572 0.21611 0.1090754
vn 0.9702572 0.21611 0.1090754
vn 0.9702572 0.2161099 0.1090754
vn 0.1498505 0.3592373 -0.921137
vn 0.1498505 0.3592373 -0.921137
vn 0.1498505 0.3592373 -0.921137
vn 0.1498505 0.3592373 -0.921137
vn 0.7920582 0.6104434 -0.001685999
vn 0.7920582 0.6104433 -0.001685999
vn 0.7920582 0.6104434 -0.001685999
vn 0.7920582 0.6104433 -0.001685999
vn -0.5704167 -0.7873724 -0.2338151
vn -0.5704167 -0.7873724 -0.2338151
vn -0.5704167 -0.7873724 -0.2338151
vn -0.5704167 -0.7873724 -0.2338151
vn -0.5742119 -0.7821811 -0.2418128
vn -0.9477149 -0.1429433 -0.2853136
vn -0.9477149 -0.1429433 -0.2853135
vn -0.9477149 -0.1429433 -0.2853136
vn -0.9477149 -0.1429433 -0.2853136
vn -0.9426505 -0.1757076 -0.2837903
vn 0.7430933 -0.07226197 0.6652747
vn 0.7430933 -0.07226198 0.6652747
vn 0.7430933 -0.07226198 0.6652747
vn 0.7300229 -0.06887189 0.6799434
vn 0.7300291 -0.0689077 0.6799332
vn 0.9897671 0.088618 0.1118385
vn 0.9897671 0.08861799 0.1118385
vn 0.9897671 0.088618 0.1118385
vn 0.9897671 0.088618 0.1118385
vn 0.6014764 -0.7951688 -0.07702437
vn 0.6014764 -0.7951688 -0.07702437
vn 0.6014763 -0.7951688 -0.07702436
vn 0.6014763 -0.7951689 -0.07702436
vn -0.08361118 -0.5027099 -0.8604022
vn -0.08361118 -0.5027099 -0.8604022
vn -0.08361118 -0.5027099 -0.8604022
vn -0.08361118 -0.5027099 -0.8604022
vn -0.2845561 -0.2362694 -0.9290881
vn -0.2845561 -0.2362694 -0.9290881
vn -0.2845561 -0.2362694 -0.9290881
vn -0.2845561 -0.2362694 -0.9290881
vn 0.9417365 7.221282E-05 -0.3363516
vn 0.9417365 7.22128E-05 -0.3363515
vn 0.9417365 7.221281E-05 -0.3363516
vn 0.9417287 -1.814632E-05 -0.3363736
vn 0.9417287 -1.814632E-05 -0.3363737
vn 0.9417287 -1.814632E-05 -0.3363736
vn 0.9417287 -1.814632E-05 -0.3363736
vn 0.9417295 -9.069492E-06 -0.336371
vn -0.161754 0.8345957 0.5265791
vn -0.161754 0.8345959 0.5265791
vn -0.161754 0.8345957 0.5265791
vn -0.161754 0.8345957 0.5265791
vn -0.1189139 0.8644781 0.4884025
vn -0.1189139 0.8644781 0.4884025
vn -0.118914 0.8644781 0.4884026
vn -0.118914 0.8644781 0.4884025
vn -0.1120107 0.886737 0.4484987
vn -0.1120107 0.886737 0.4484987
vn -0.3186921 0.1106705 -0.9413753
vn -0.3186921 0.1106705 -0.9413753
vn -0.3186921 0.1106705 -0.9413753
vn -0.3186921 0.1106705 -0.9413753
vn -0.3280842 0.104702 -0.9388282
vn 0.9130383 -0.1781692 -0.3669014
vn 0.9130383 -0.1781692 -0.3669014
vn 0.9130383 -0.1781692 -0.3669014
vn 0.9130383 -0.1781692 -0.3669014
g pCube77_0
f 3/3/3 2/2/2 1/1/1
f 6/6/6 5/5/5 4/4/4
f 9/9/9 8/8/8 7/7/7
f 12/12/12 11/11/11 10/10/10
f 15/15/15 14/14/14 13/13/13
f 18/18/18 17/17/17 16/16/16
f 21/21/21 20/20/20 19/19/19
f 24/24/24 23/23/23 22/22/22
f 27/27/27 26/26/26 25/25/25
f 30/30/30 29/29/29 28/28/28
f 33/33/33 32/32/32 31/31/31
f 36/36/36 35/35/35 34/34/34
f 39/39/39 38/38/38 37/37/37
f 42/42/42 41/41/41 40/40/40
f 45/45/45 44/44/44 43/43/43
f 48/48/48 47/47/47 46/46/46
f 48/48/48 46/46/46 49/49/49
f 50/50/50 48/48/48 49/49/49
f 53/53/53 52/52/52 51/51/51
f 54/54/54 52/52/52 53/53/53
f 54/54/54 53/53/53 55/55/55
f 53/53/53 56/56/56 55/55/55
f 59/59/59 58/58/58 57/57/57
f 60/60/60 59/59/59 57/57/57
f 63/63/63 62/62/62 61/61/61
f 64/64/64 63/63/63 61/61/61
f 67/67/67 66/66/66 65/65/65
f 68/68/68 67/67/67 65/65/65
f 71/71/71 70/70/70 69/69/69
f 72/72/72 71/71/71 69/69/69
f 75/75/75 74/74/74 73/73/73
f 76/76/76 75/75/75 73/73/73
f 77/77/77 76/76/76 73/73/73
f 80/80/80 79/79/79 78/78/78
f 81/81/81 80/80/80 78/78/78
f 82/82/82 81/81/81 78/78/78
f 85/85/85 84/84/84 83/83/83
f 84/84/84 86/86/86 83/83/83
f 84/84/84 87/87/87 86/86/86
f 90/90/90 89/89/89 88/88/88
f 91/91/91 90/90/90 88/88/88
f 94/94/94 93/93/93 92/92/92
f 95/95/95 94/94/94 92/92/92
f 98/98/98 97/97/97 96/96/96
f 99/99/99 98/98/98 96/96/96
f 102/102/102 101/101/101 100/100/100
f 103/103/103 102/102/102 100/100/100
f 106/106/106 105/105/105 104/104/104
f 106/106/106 104/104/104 107/107/107
f 108/108/108 106/106/106 107/107/107
f 108/108/108 107/107/107 109/109/109
f 107/107/107 110/110/110 109/109/109
f 111/111/111 109/109/109 110/110/110
f 114/114/114 113/113/113 112/112/112
f 115/115/115 114/114/114 112/112/112
f 118/118/118 117/117/117 116/116/116
f 117/117/117 119/119/119 116/116/116
f 119/119/119 120/120/120 116/116/116
f 120/120/120 121/121/121 116/116/116
f 124/124/124 123/123/123 122/122/122
f 125/125/125 124/124/124 122/122/122
f 126/126/126 125/125/125 122/122/122
f 129/129/129 128/128/128 127/127/127
f 130/130/130 129/129/129 127/127/127
