g Plane001
v 0.9790089 -4.103985E-07 -1.654697E-07
v 1.129646 -4.735451E-07 -1.654697E-07
v 0.9601974 -0.1909956 -1.467792E-07
v 1.10794 -0.2203835 -1.454946E-07
v 1.280282 -5.366917E-07 -1.654697E-07
v 0.9044861 -0.374651 -1.284095E-07
v 1.255682 -0.2497713 -1.442101E-07
v 1.430919 -5.998384E-07 -1.654697E-07
v 1.403424 -0.2791592 -1.429255E-07
v 1.043656 -0.4322973 -1.258897E-07
v 0.8140158 -0.5439087 -1.106692E-07
v 1.182827 -0.4899436 -1.233699E-07
v 1.321997 -0.5475898 -1.208501E-07
v 0.9392655 -0.6275981 -1.07011E-07
v 0.6922633 -0.6922643 -9.384248E-08
v 1.064515 -0.7112875 -1.033528E-07
v 1.189765 -0.7949769 -9.969462E-08
v 0.7987796 -0.7987807 -8.918651E-08
v 0.5439075 -0.8140166 -7.817865E-08
v 0.9052957 -0.905297 -8.453053E-08
v 1.011812 -1.011813 -7.987455E-08
v 0.6275967 -0.9392666 -7.270381E-08
v 0.3746498 -0.9044865 -6.388223E-08
v 0.711286 -1.064517 -6.722895E-08
v 0.7949751 -1.189767 -6.17541E-08
v 0.4322958 -1.043657 -5.779891E-08
v 0.1909944 -0.9601976 -5.110517E-08
v 0.489942 -1.182827 -5.171558E-08
v 0.5475881 -1.321997 -4.563226E-08
v 0.2203821 -1.10794 -4.464714E-08
v -6.866455E-07 -0.9790089 -3.994104E-08
v 0.2497697 -1.255682 -3.818912E-08
v 0.2791574 -1.403425 -3.17311E-08
v -7.629394E-07 -1.129646 -3.33565E-08
v -0.1909957 -0.9601973 -3.042147E-08
v -8.392334E-07 -1.280282 -2.677195E-08
v -9.918213E-07 -1.430919 -2.018741E-08
v -0.2203836 -1.10794 -2.396344E-08
v -0.374651 -0.904486 -2.251483E-08
v -0.2497715 -1.255682 -1.750542E-08
v -0.2791594 -1.403424 -1.10474E-08
v -0.4322973 -1.043656 -1.643151E-08
v -0.5439086 -0.8140158 -1.612755E-08
v -0.4899435 -1.182826 -1.034819E-08
v -0.5475898 -1.321997 -4.264866E-09
v -0.627598 -0.9392657 -1.065271E-08
v -0.6922641 -0.6922634 -1.110766E-08
v -0.7112874 -1.064515 -5.177862E-09
v -0.7949768 -1.189765 2.969864E-10
v -0.7987805 -0.7987797 -6.451689E-09
v -0.8140163 -0.5439078 -7.250637E-09
v -0.9052969 -0.9052958 -1.79572E-09
v -1.011813 -1.011812 2.860256E-09
v -0.9392663 -0.627597 -3.592465E-09
v -0.9044864 -0.37465 -4.307274E-09
v -1.064516 -0.7112862 6.570644E-11
v -1.189766 -0.7949755 3.723881E-09
v -1.043657 -0.4322962 -1.78748E-09
v -0.9601974 -0.1909947 -1.993244E-09
v -1.182827 -0.4899423 7.323115E-10
v -1.321997 -0.5475885 3.252105E-09
v -1.10794 -0.2203824 -7.086669E-10
v -0.9790088 4.030052E-07 -5.050866E-14
v -1.255682 -0.2497702 5.759114E-10
v -1.403425 -0.2791579 1.86049E-09
v -1.129646 4.650143E-07 -5.321916E-14
v -0.9601973 0.1909955 1.993144E-09
v -1.280282 5.270234E-07 -5.592966E-14
v -1.430919 5.890324E-07 -5.864017E-14
v -1.10794 0.2203833 7.085612E-10
v -0.9044861 0.3746508 4.307174E-09
v -1.255682 0.2497712 -5.760228E-10
v -1.403424 0.279159 -1.860606E-09
v -1.043656 0.4322971 1.787376E-09
v -0.8140159 0.5439084 7.250544E-09
v -1.182827 0.4899433 -7.324206E-10
v -1.321997 0.5475895 -3.252219E-09
v -0.9392657 0.6275978 3.592365E-09
v -0.6922635 0.692264 1.110757E-08
v -1.064516 0.7112871 -6.581331E-11
v -1.189766 0.7949765 -3.72399E-09
v -0.7987798 0.7987803 6.451598E-09
v -0.5439079 0.8140162 1.612747E-08
v -0.9052961 0.9052966 1.79562E-09
v -1.011812 1.011813 -2.860356E-09
v -0.6275972 0.9392662 1.065262E-08
v -0.3746502 0.9044863 2.251475E-08
v -0.7112864 1.064516 5.177772E-09
v -0.7949758 1.189766 -2.970773E-10
v -0.4322964 1.043657 1.643143E-08
v -0.1909949 0.9601975 3.04214E-08
v -0.4899426 1.182827 1.03481E-08
v -0.5475887 1.321997 4.26478E-09
v -0.2203826 1.10794 2.396338E-08
v 2.288818E-07 0.9790089 3.994099E-08
v -0.2497704 1.255682 1.750535E-08
v -0.2791582 1.403425 1.104733E-08
v 2.288818E-07 1.129646 3.335645E-08
v 0.1909953 0.9601974 5.110511E-08
v 3.051758E-07 1.280282 2.67719E-08
v 3.051758E-07 1.430919 2.018736E-08
v 0.2203831 1.10794 4.464709E-08
v 0.3746506 0.9044862 6.388218E-08
v 0.249771 1.255682 3.818907E-08
v 0.2791588 1.403425 3.173104E-08
v 0.4322968 1.043656 5.779886E-08
v 0.5439084 0.814016 7.817862E-08
v 0.4899431 1.182827 5.171553E-08
v 0.5475892 1.321997 4.563221E-08
v 0.6275976 0.9392659 7.270378E-08
v 0.692264 0.6922636 9.384244E-08
v 0.7112871 1.064516 6.722893E-08
v 0.7949764 1.189766 6.175409E-08
v 0.7987803 0.7987799 8.918646E-08
v 0.8140162 0.5439079 1.106691E-07
v 0.9052966 0.9052961 8.45305E-08
v 1.011813 1.011812 7.987452E-08
v 0.9392663 0.6275972 1.07011E-07
v 0.9044864 0.3746501 1.284095E-07
v 1.064516 0.7112864 1.033528E-07
v 1.189766 0.7949757 9.969462E-08
v 1.043657 0.4322962 1.258897E-07
v 0.9601976 0.1909947 1.467792E-07
v 1.182827 0.4899423 1.233699E-07
v 1.321997 0.5475885 1.208501E-07
v 1.10794 0.2203824 1.454946E-07
v 0.9790089 -5.815738E-07 1.654697E-07
v 1.129646 -6.710587E-07 1.654697E-07
v 1.255682 0.2497701 1.4421E-07
v 1.403425 0.2791578 1.429255E-07
v 1.280282 -7.605435E-07 1.654697E-07
v 1.430919 -8.500283E-07 1.654697E-07
vt 0.9999999 1
vt 1 0.6666669
vt 0.9687499 1
vt 0.96875 0.6666669
vt 1 0.3333335
vt 0.9374999 1
vt 0.96875 0.3333335
vt 1 1.490116E-07
vt 0.96875 1.476456E-07
vt 0.9375 0.6666669
vt 0.9062499 1
vt 0.9375 0.3333335
vt 0.9375 1.462796E-07
vt 0.90625 0.6666669
vt 0.8749999 1
vt 0.90625 0.3333335
vt 0.90625 1.449137E-07
vt 0.875 0.6666669
vt 0.8437499 1
vt 0.875 0.3333335
vt 0.875 1.435477E-07
vt 0.84375 0.6666669
vt 0.8124999 1
vt 0.84375 0.3333335
vt 0.84375 1.421817E-07
vt 0.8125 0.6666669
vt 0.7812499 1
vt 0.8125 0.3333335
vt 0.8125 1.408157E-07
vt 0.78125 0.6666669
vt 0.75 1
vt 0.78125 0.3333335
vt 0.78125 1.394498E-07
vt 0.75 0.6666669
vt 0.71875 1
vt 0.75 0.3333335
vt 0.75 1.380838E-07
vt 0.71875 0.6666669
vt 0.6875 1
vt 0.71875 0.3333335
vt 0.71875 1.367178E-07
vt 0.6875 0.6666669
vt 0.65625 1
vt 0.6875 0.3333335
vt 0.6875 1.353518E-07
vt 0.65625 0.6666669
vt 0.625 1
vt 0.65625 0.3333335
vt 0.65625 1.339858E-07
vt 0.625 0.6666669
vt 0.59375 1
vt 0.625 0.3333335
vt 0.625 1.326198E-07
vt 0.59375 0.6666669
vt 0.5625 1
vt 0.59375 0.3333335
vt 0.59375 1.312539E-07
vt 0.5625 0.6666669
vt 0.53125 1
vt 0.5625 0.3333335
vt 0.5625 1.298879E-07
vt 0.53125 0.6666669
vt 0.4999999 1
vt 0.53125 0.3333335
vt 0.53125 1.285219E-07
vt 0.5 0.6666669
vt 0.4687499 1
vt 0.5 0.3333335
vt 0.5 1.271559E-07
vt 0.46875 0.6666669
vt 0.4374999 1
vt 0.46875 0.3333335
vt 0.46875 1.257899E-07
vt 0.4375 0.6666669
vt 0.4062499 1
vt 0.4375 0.3333335
vt 0.4375 1.24424E-07
vt 0.40625 0.6666669
vt 0.3749999 1
vt 0.40625 0.3333335
vt 0.40625 1.23058E-07
vt 0.375 0.6666669
vt 0.3437499 1
vt 0.375 0.3333335
vt 0.375 1.21692E-07
vt 0.34375 0.6666669
vt 0.3124999 1
vt 0.34375 0.3333335
vt 0.34375 1.20326E-07
vt 0.3125 0.6666667
vt 0.2812499 1
vt 0.3125 0.3333335
vt 0.3125 1.1896E-07
vt 0.28125 0.6666667
vt 0.2499999 1
vt 0.28125 0.3333335
vt 0.28125 1.175941E-07
vt 0.25 0.6666667
vt 0.2187499 1
vt 0.25 0.3333335
vt 0.25 1.162281E-07
vt 0.21875 0.6666667
vt 0.1874999 1
vt 0.21875 0.3333335
vt 0.21875 1.148621E-07
vt 0.1875 0.6666667
vt 0.1562499 1
vt 0.1875 0.3333335
vt 0.1875 1.134961E-07
vt 0.15625 0.6666667
vt 0.1249999 1
vt 0.15625 0.3333335
vt 0.15625 1.121301E-07
vt 0.125 0.6666667
vt 0.09374994 1
vt 0.125 0.3333335
vt 0.125 1.107641E-07
vt 0.09375 0.6666667
vt 0.06249994 1
vt 0.09375 0.3333335
vt 0.09375 1.093982E-07
vt 0.0625 0.6666667
vt 0.03124994 1
vt 0.0625 0.3333335
vt 0.0625 1.080322E-07
vt 0.03125 0.6666667
vt 0 1
vt 0 0.6666667
vt 0.03125 0.3333335
vt 0.03125 1.066662E-07
vt 0 0.3333335
vt 0 1.053002E-07
vn 0 0 1
vn 0 0 1
vn 0 0 1
vn 0 0 1
vn 0 0 1
vn 0 0 1
vn 0 0 1
vn 0 0 1
vn 0 0 1
vn 0 0 1
vn 0 0 1
vn 0 0 1
vn 0 0 1
vn 0 0 1
vn 0 0 1
vn 0 0 1
vn 0 0 1
vn 0 0 1
vn 0 0 1
vn 0 0 1
vn 0 0 1
vn 0 0 1
vn 0 0 1
vn 0 0 1
vn 0 0 1
vn 0 0 1
vn 0 0 1
vn 0 0 1
vn 0 0 1
vn 0 0 1
vn 0 0 1
vn 0 0 1
vn 0 0 1
vn 0 0 1
vn 0 0 1
vn 0 0 1
vn 0 0 1
vn 0 0 1
vn 0 0 1
vn 0 0 1
vn 0 0 1
vn 0 0 1
vn 0 0 1
vn 0 0 1
vn 0 0 1
vn 0 0 1
vn 0 0 1
vn 0 0 1
vn 0 0 1
vn 0 0 1
vn 0 0 1
vn 0 0 1
vn 0 0 1
vn 0 0 1
vn 0 0 1
vn 0 0 1
vn 0 0 1
vn 0 0 1
vn 0 0 1
vn 0 0 1
vn 0 0 1
vn 0 0 1
vn 0 0 1
vn 0 0 1
vn 0 0 1
vn 0 0 1
vn 0 0 1
vn 0 0 1
vn 0 0 1
vn 0 0 1
vn 0 0 1
vn 0 0 1
vn 0 0 1
vn 0 0 1
vn 0 0 1
vn 0 0 1
vn 0 0 1
vn 0 0 1
vn 0 0 1
vn 0 0 1
vn 0 0 1
vn 0 0 1
vn 0 0 1
vn 0 0 1
vn 0 0 1
vn 0 0 1
vn 0 0 1
vn 0 0 1
vn 0 0 1
vn 0 0 1
vn 0 0 1
vn 0 0 1
vn 0 0 1
vn 0 0 1
vn 0 0 1
vn 0 0 1
vn 0 0 1
vn 0 0 1
vn 0 0 1
vn 0 0 1
vn 0 0 1
vn 0 0 1
vn 0 0 1
vn 0 0 1
vn 0 0 1
vn 0 0 1
vn 0 0 1
vn 0 0 1
vn 0 0 1
vn 0 0 1
vn 0 0 1
vn 0 0 1
vn 0 0 1
vn 0 0 1
vn 0 0 1
vn 0 0 1
vn 0 0 1
vn 0 0 1
vn 0 0 1
vn 0 0 1
vn 0 0 1
vn 0 0 1
vn 0 0 1
vn 0 0 1
vn 0 0 1
vn 0 0 1
vn 0 0 1
vn 0 0 1
vn 0 0 1
vn 0 0 1
vn 0 0 1
vn 0 0 1
g Plane001_0
f 3/3/3 2/2/2 1/1/1
f 2/2/2 3/3/3 4/4/4
f 4/4/4 5/5/5 2/2/2
f 6/6/6 4/4/4 3/3/3
f 5/5/5 4/4/4 7/7/7
f 7/7/7 8/8/8 5/5/5
f 8/8/8 7/7/7 9/9/9
f 4/4/4 6/6/6 10/10/10
f 10/10/10 7/7/7 4/4/4
f 11/11/11 10/10/10 6/6/6
f 12/12/12 9/9/9 7/7/7
f 7/7/7 10/10/10 12/12/12
f 9/9/9 12/12/12 13/13/13
f 10/10/10 11/11/11 14/14/14
f 14/14/14 12/12/12 10/10/10
f 15/15/15 14/14/14 11/11/11
f 16/16/16 13/13/13 12/12/12
f 12/12/12 14/14/14 16/16/16
f 13/13/13 16/16/16 17/17/17
f 14/14/14 15/15/15 18/18/18
f 18/18/18 16/16/16 14/14/14
f 19/19/19 18/18/18 15/15/15
f 20/20/20 17/17/17 16/16/16
f 16/16/16 18/18/18 20/20/20
f 17/17/17 20/20/20 21/21/21
f 18/18/18 19/19/19 22/22/22
f 22/22/22 20/20/20 18/18/18
f 23/23/23 22/22/22 19/19/19
f 24/24/24 21/21/21 20/20/20
f 20/20/20 22/22/22 24/24/24
f 21/21/21 24/24/24 25/25/25
f 22/22/22 23/23/23 26/26/26
f 26/26/26 24/24/24 22/22/22
f 27/27/27 26/26/26 23/23/23
f 28/28/28 25/25/25 24/24/24
f 24/24/24 26/26/26 28/28/28
f 25/25/25 28/28/28 29/29/29
f 26/26/26 27/27/27 30/30/30
f 30/30/30 28/28/28 26/26/26
f 31/31/31 30/30/30 27/27/27
f 32/32/32 29/29/29 28/28/28
f 28/28/28 30/30/30 32/32/32
f 29/29/29 32/32/32 33/33/33
f 30/30/30 31/31/31 34/34/34
f 34/34/34 32/32/32 30/30/30
f 35/35/35 34/34/34 31/31/31
f 36/36/36 33/33/33 32/32/32
f 32/32/32 34/34/34 36/36/36
f 33/33/33 36/36/36 37/37/37
f 34/34/34 35/35/35 38/38/38
f 38/38/38 36/36/36 34/34/34
f 39/39/39 38/38/38 35/35/35
f 40/40/40 37/37/37 36/36/36
f 36/36/36 38/38/38 40/40/40
f 37/37/37 40/40/40 41/41/41
f 38/38/38 39/39/39 42/42/42
f 42/42/42 40/40/40 38/38/38
f 43/43/43 42/42/42 39/39/39
f 44/44/44 41/41/41 40/40/40
f 40/40/40 42/42/42 44/44/44
f 41/41/41 44/44/44 45/45/45
f 42/42/42 43/43/43 46/46/46
f 46/46/46 44/44/44 42/42/42
f 47/47/47 46/46/46 43/43/43
f 48/48/48 45/45/45 44/44/44
f 44/44/44 46/46/46 48/48/48
f 45/45/45 48/48/48 49/49/49
f 46/46/46 47/47/47 50/50/50
f 50/50/50 48/48/48 46/46/46
f 51/51/51 50/50/50 47/47/47
f 52/52/52 49/49/49 48/48/48
f 48/48/48 50/50/50 52/52/52
f 49/49/49 52/52/52 53/53/53
f 50/50/50 51/51/51 54/54/54
f 54/54/54 52/52/52 50/50/50
f 55/55/55 54/54/54 51/51/51
f 56/56/56 53/53/53 52/52/52
f 52/52/52 54/54/54 56/56/56
f 53/53/53 56/56/56 57/57/57
f 54/54/54 55/55/55 58/58/58
f 58/58/58 56/56/56 54/54/54
f 59/59/59 58/58/58 55/55/55
f 60/60/60 57/57/57 56/56/56
f 56/56/56 58/58/58 60/60/60
f 57/57/57 60/60/60 61/61/61
f 58/58/58 59/59/59 62/62/62
f 62/62/62 60/60/60 58/58/58
f 63/63/63 62/62/62 59/59/59
f 64/64/64 61/61/61 60/60/60
f 60/60/60 62/62/62 64/64/64
f 61/61/61 64/64/64 65/65/65
f 62/62/62 63/63/63 66/66/66
f 66/66/66 64/64/64 62/62/62
f 67/67/67 66/66/66 63/63/63
f 68/68/68 65/65/65 64/64/64
f 64/64/64 66/66/66 68/68/68
f 65/65/65 68/68/68 69/69/69
f 66/66/66 67/67/67 70/70/70
f 70/70/70 68/68/68 66/66/66
f 71/71/71 70/70/70 67/67/67
f 72/72/72 69/69/69 68/68/68
f 68/68/68 70/70/70 72/72/72
f 69/69/69 72/72/72 73/73/73
f 70/70/70 71/71/71 74/74/74
f 74/74/74 72/72/72 70/70/70
f 75/75/75 74/74/74 71/71/71
f 76/76/76 73/73/73 72/72/72
f 72/72/72 74/74/74 76/76/76
f 73/73/73 76/76/76 77/77/77
f 74/74/74 75/75/75 78/78/78
f 78/78/78 76/76/76 74/74/74
f 79/79/79 78/78/78 75/75/75
f 80/80/80 77/77/77 76/76/76
f 76/76/76 78/78/78 80/80/80
f 77/77/77 80/80/80 81/81/81
f 78/78/78 79/79/79 82/82/82
f 82/82/82 80/80/80 78/78/78
f 83/83/83 82/82/82 79/79/79
f 84/84/84 81/81/81 80/80/80
f 80/80/80 82/82/82 84/84/84
f 81/81/81 84/84/84 85/85/85
f 82/82/82 83/83/83 86/86/86
f 86/86/86 84/84/84 82/82/82
f 87/87/87 86/86/86 83/83/83
f 88/88/88 85/85/85 84/84/84
f 84/84/84 86/86/86 88/88/88
f 85/85/85 88/88/88 89/89/89
f 86/86/86 87/87/87 90/90/90
f 90/90/90 88/88/88 86/86/86
f 91/91/91 90/90/90 87/87/87
f 92/92/92 89/89/89 88/88/88
f 88/88/88 90/90/90 92/92/92
f 89/89/89 92/92/92 93/93/93
f 90/90/90 91/91/91 94/94/94
f 94/94/94 92/92/92 90/90/90
f 95/95/95 94/94/94 91/91/91
f 96/96/96 93/93/93 92/92/92
f 92/92/92 94/94/94 96/96/96
f 93/93/93 96/96/96 97/97/97
f 94/94/94 95/95/95 98/98/98
f 98/98/98 96/96/96 94/94/94
f 99/99/99 98/98/98 95/95/95
f 100/100/100 97/97/97 96/96/96
f 96/96/96 98/98/98 100/100/100
f 97/97/97 100/100/100 101/101/101
f 98/98/98 99/99/99 102/102/102
f 102/102/102 100/100/100 98/98/98
f 103/103/103 102/102/102 99/99/99
f 104/104/104 101/101/101 100/100/100
f 100/100/100 102/102/102 104/104/104
f 101/101/101 104/104/104 105/105/105
f 102/102/102 103/103/103 106/106/106
f 106/106/106 104/104/104 102/102/102
f 107/107/107 106/106/106 103/103/103
f 108/108/108 105/105/105 104/104/104
f 104/104/104 106/106/106 108/108/108
f 105/105/105 108/108/108 109/109/109
f 106/106/106 107/107/107 110/110/110
f 110/110/110 108/108/108 106/106/106
f 111/111/111 110/110/110 107/107/107
f 112/112/112 109/109/109 108/108/108
f 108/108/108 110/110/110 112/112/112
f 109/109/109 112/112/112 113/113/113
f 110/110/110 111/111/111 114/114/114
f 114/114/114 112/112/112 110/110/110
f 115/115/115 114/114/114 111/111/111
f 116/116/116 113/113/113 112/112/112
f 112/112/112 114/114/114 116/116/116
f 113/113/113 116/116/116 117/117/117
f 114/114/114 115/115/115 118/118/118
f 118/118/118 116/116/116 114/114/114
f 119/119/119 118/118/118 115/115/115
f 120/120/120 117/117/117 116/116/116
f 116/116/116 118/118/118 120/120/120
f 117/117/117 120/120/120 121/121/121
f 118/118/118 119/119/119 122/122/122
f 122/122/122 120/120/120 118/118/118
f 123/123/123 122/122/122 119/119/119
f 124/124/124 121/121/121 120/120/120
f 120/120/120 122/122/122 124/124/124
f 121/121/121 124/124/124 125/125/125
f 122/122/122 123/123/123 126/126/126
f 126/126/126 124/124/124 122/122/122
f 127/127/127 126/126/126 123/123/123
f 126/126/126 127/127/127 128/128/128
f 129/129/129 125/125/125 124/124/124
f 124/124/124 126/126/126 129/129/129
f 128/128/128 129/129/129 126/126/126
f 125/125/125 129/129/129 130/130/130
f 129/129/129 128/128/128 131/131/131
f 131/131/131 130/130/130 129/129/129
f 130/130/130 131/131/131 132/132/132
