g Plane001
v -1.477647 1.293762 -1.178092E-06
v -1.632985 1.085069 -1.143874E-06
v -3.276021 2.829718 -1.27E-06
v -3.620415 2.367035 -1.216416E-06
v -1.759054 0.8574965 -1.11011E-06
v -3.899917 1.862494 -1.163839E-06
v -1.853594 0.6151229 -1.077078E-06
v -4.109518 1.325139 -1.112882E-06
v -1.914912 0.362293 -1.04504E-06
v -4.245461 0.7646018 -1.064132E-06
v -1.941906 0.1035383 -1.014244E-06
v -4.30531 0.1909283 -1.018135E-06
v -1.934095 -0.1565036 -9.84913E-07
v -4.287992 -0.3855982 -9.753851E-07
v -1.891617 -0.4131715 -9.572447E-07
v -4.193816 -0.9546446 -9.363221E-07
v -1.815235 -0.6618652 -9.31407E-07
v -4.024472 -1.506012 -9.013175E-07
v -1.706316 -0.8981268 -9.075349E-07
v -3.782995 -2.029816 -8.706709E-07
v -1.566815 -1.117722 -8.857282E-07
v -3.473711 -2.51667 -8.446033E-07
v -1.39923 -1.316715 -8.660496E-07
v -3.102167 -2.957848 -8.232539E-07
v -1.206565 -1.491538 -8.485237E-07
v -2.67502 -3.345441 -8.066772E-07
v -0.9922748 -1.639059 -8.331366E-07
v -2.199926 -3.672502 -7.948422E-07
v -0.7601991 -1.756633 -8.19836E-07
v -1.685402 -3.933169 -7.876328E-07
v -0.5144979 -1.842152 -8.08532E-07
v -1.140669 -4.122771 -7.848504E-07
v -0.2595748 -1.894085 -7.990993E-07
v -0.5754912 -4.237909 -7.862166E-07
v 7.226731E-07 -1.9115 -7.913787E-07
v 1.602205E-06 -4.276518 -7.913787E-07
v 0.2595763 -1.894085 -7.851807E-07
v 0.5754944 -4.237908 -7.999164E-07
v 0.5144992 -1.842152 -7.802881E-07
v 1.140672 -4.12277 -8.113481E-07
v 0.7602004 -1.756632 -7.764605E-07
v 1.685405 -3.933168 -8.251413E-07
v 0.9922761 -1.639058 -7.734384E-07
v 2.199929 -3.6725 -8.407202E-07
v 1.206566 -1.491537 -7.70948E-07
v 2.675022 -3.345439 -8.574778E-07
v 1.399231 -1.316714 -7.687057E-07
v 3.102169 -2.957845 -8.747855E-07
v 1.566815 -1.117721 -7.664235E-07
v 3.473713 -2.516668 -8.92005E-07
v 1.706317 -0.8981256 -7.638145E-07
v 3.782996 -2.029814 -9.084995E-07
v 1.815235 -0.6618639 -7.60597E-07
v 4.024473 -1.506009 -9.236454E-07
v 1.891617 -0.4131701 -7.565008E-07
v 4.193817 -0.9546415 -9.368429E-07
v 1.934095 -0.1565023 -7.512712E-07
v 4.287992 -0.3855951 -9.475276E-07
v 1.941906 0.1035396 -7.446736E-07
v 4.30531 0.1909318 -9.551795E-07
v 1.914911 0.3622946 -7.364985E-07
v 4.245461 0.7646049 -9.593339E-07
v 1.853594 0.6151245 -7.265641E-07
v 4.109517 1.325142 -9.595876E-07
v 1.759053 0.8574976 -7.147203E-07
v 3.899915 1.862497 -9.556085E-07
v 1.632984 1.08507 -7.008514E-07
v 3.620413 2.367038 -9.471394E-07
v 1.477646 1.293763 -6.848779E-07
v 3.276019 2.829721 -9.340044E-07
vt 1 0
vt 0.9705887 0
vt 1 1
vt 0.9705887 1
vt 0.941177 0
vt 0.941177 1
vt 0.9117652 0
vt 0.9117652 1
vt 0.8823534 0
vt 0.8823534 1
vt 0.8529416 0
vt 0.8529416 1
vt 0.8235299 0
vt 0.8235299 1
vt 0.7941181 0
vt 0.7941181 1
vt 0.7647064 0
vt 0.7647064 1
vt 0.7352946 0
vt 0.7352946 1
vt 0.7058828 0
vt 0.7058828 1
vt 0.6764711 0
vt 0.6764711 1
vt 0.6470593 0
vt 0.6470593 1
vt 0.6176475 0
vt 0.6176475 1
vt 0.5882357 0
vt 0.5882357 1
vt 0.558824 0
vt 0.558824 1
vt 0.5294123 0
vt 0.5294123 1
vt 0.5000005 0
vt 0.5000005 1
vt 0.4705887 0
vt 0.4705887 1
vt 0.4411769 0
vt 0.4411769 1
vt 0.4117651 0
vt 0.4117651 1
vt 0.3823533 0
vt 0.3823533 1
vt 0.3529415 0
vt 0.3529415 1
vt 0.3235297 0
vt 0.3235297 1
vt 0.2941179 0
vt 0.2941179 1
vt 0.2647061 0
vt 0.2647061 1
vt 0.2352943 0
vt 0.2352943 1
vt 0.2058825 0
vt 0.2058825 1
vt 0.1764708 0
vt 0.1764708 1
vt 0.147059 0
vt 0.147059 1
vt 0.1176472 0
vt 0.1176472 1
vt 0.08823538 0
vt 0.08823538 1
vt 0.05882359 0
vt 0.05882359 1
vt 0.02941179 0
vt 0.02941179 1
vt 0 0
vt 0 1
vn 0 0 1
vn 0 0 1
vn 0 0 1
vn 0 0 1
vn 0 0 1
vn 0 0 1
vn 0 0 1
vn 0 0 1
vn 0 0 1
vn 0 0 1
vn 0 0 1
vn 0 0 1
vn 0 0 1
vn 0 0 1
vn 0 0 1
vn 0 0 1
vn 0 0 1
vn 0 0 1
vn 0 0 1
vn 0 0 1
vn 0 0 1
vn 0 0 1
vn 0 0 1
vn 0 0 1
vn 0 0 1
vn 0 0 1
vn 0 0 1
vn 0 0 1
vn 0 0 1
vn 0 0 1
vn 0 0 1
vn 0 0 1
vn 0 0 1
vn 0 0 1
vn 0 0 1
vn 0 0 1
vn 0 0 1
vn 0 0 1
vn 0 0 1
vn 0 0 1
vn 0 0 1
vn 0 0 1
vn 0 0 1
vn 0 0 1
vn 0 0 1
vn 0 0 1
vn 0 0 1
vn 0 0 1
vn 0 0 1
vn 0 0 1
vn 0 0 1
vn 0 0 1
vn 0 0 1
vn 0 0 1
vn 0 0 1
vn 0 0 1
vn 0 0 1
vn 0 0 1
vn 0 0 1
vn 0 0 1
vn 0 0 1
vn 0 0 1
vn 0 0 1
vn 0 0 1
vn 0 0 1
vn 0 0 1
vn 0 0 1
vn 0 0 1
vn 0 0 1
vn 0 0 1
g Plane001_0
f 3/3/3 2/2/2 1/1/1
f 2/2/2 3/3/3 4/4/4
f 4/4/4 5/5/5 2/2/2
f 5/5/5 4/4/4 6/6/6
f 6/6/6 7/7/7 5/5/5
f 7/7/7 6/6/6 8/8/8
f 8/8/8 9/9/9 7/7/7
f 9/9/9 8/8/8 10/10/10
f 10/10/10 11/11/11 9/9/9
f 11/11/11 10/10/10 12/12/12
f 12/12/12 13/13/13 11/11/11
f 13/13/13 12/12/12 14/14/14
f 14/14/14 15/15/15 13/13/13
f 15/15/15 14/14/14 16/16/16
f 16/16/16 17/17/17 15/15/15
f 17/17/17 16/16/16 18/18/18
f 18/18/18 19/19/19 17/17/17
f 19/19/19 18/18/18 20/20/20
f 20/20/20 21/21/21 19/19/19
f 21/21/21 20/20/20 22/22/22
f 22/22/22 23/23/23 21/21/21
f 23/23/23 22/22/22 24/24/24
f 24/24/24 25/25/25 23/23/23
f 25/25/25 24/24/24 26/26/26
f 26/26/26 27/27/27 25/25/25
f 27/27/27 26/26/26 28/28/28
f 28/28/28 29/29/29 27/27/27
f 29/29/29 28/28/28 30/30/30
f 30/30/30 31/31/31 29/29/29
f 31/31/31 30/30/30 32/32/32
f 32/32/32 33/33/33 31/31/31
f 33/33/33 32/32/32 34/34/34
f 34/34/34 35/35/35 33/33/33
f 35/35/35 34/34/34 36/36/36
f 36/36/36 37/37/37 35/35/35
f 37/37/37 36/36/36 38/38/38
f 38/38/38 39/39/39 37/37/37
f 39/39/39 38/38/38 40/40/40
f 40/40/40 41/41/41 39/39/39
f 41/41/41 40/40/40 42/42/42
f 42/42/42 43/43/43 41/41/41
f 43/43/43 42/42/42 44/44/44
f 44/44/44 45/45/45 43/43/43
f 45/45/45 44/44/44 46/46/46
f 46/46/46 47/47/47 45/45/45
f 47/47/47 46/46/46 48/48/48
f 48/48/48 49/49/49 47/47/47
f 49/49/49 48/48/48 50/50/50
f 50/50/50 51/51/51 49/49/49
f 51/51/51 50/50/50 52/52/52
f 52/52/52 53/53/53 51/51/51
f 53/53/53 52/52/52 54/54/54
f 54/54/54 55/55/55 53/53/53
f 55/55/55 54/54/54 56/56/56
f 56/56/56 57/57/57 55/55/55
f 57/57/57 56/56/56 58/58/58
f 58/58/58 59/59/59 57/57/57
f 59/59/59 58/58/58 60/60/60
f 60/60/60 61/61/61 59/59/59
f 61/61/61 60/60/60 62/62/62
f 62/62/62 63/63/63 61/61/61
f 63/63/63 62/62/62 64/64/64
f 64/64/64 65/65/65 63/63/63
f 65/65/65 64/64/64 66/66/66
f 66/66/66 67/67/67 65/65/65
f 67/67/67 66/66/66 68/68/68
f 68/68/68 69/69/69 67/67/67
f 69/69/69 68/68/68 70/70/70
