g Plane001
v 0.138087 -3.155554 9.011078E-06
v 0.4289056 -2.985618 -0.04286317
v 0.2790039 -3.135777 -0.05593729
v 0.2678668 -3.103977 0.01009127
v 0.02289298 -3.107604 0.07236779
v 0.476971 -2.791516 -0.0241264
v 0.1504469 -2.951433 0.1110809
v 0.2764713 -3.003552 0.02867149
v 0.5029567 -2.624566 -0.01385516
v 0.172669 -2.725902 0.1508182
v 0.3018211 -2.871162 0.04901711
v 0.4519123 -2.534572 0.02497216
v 0.1886316 -2.501072 0.1803171
v 0.3113732 -2.644443 0.0801862
v 0.4079202 -2.385844 0.06276529
v 0.2133937 -2.40717 0.1650019
v 0.3127061 -2.396165 0.1058137
v 0.3945192 -2.25058 0.08129539
v 0.2343321 -2.271614 0.1539327
v 0.298715 -2.138706 0.123383
v 0.4165648 -2.178799 0.08442902
v 0.202538 -2.084511 0.1641151
v 0.2917377 -1.930949 0.1240196
v 0.4370664 -2.084801 0.09437286
v 0.1710464 -1.95771 0.1638823
v 0.2541062 -1.785775 0.130328
v 0.4211696 -1.883488 0.1152178
v 0.08162133 -1.837899 0.1716996
v 0.2055697 -1.660897 0.1361585
v 0.3208495 -1.590017 0.1264037
v 0.02816989 -1.70733 0.1574503
v 0.1852229 -1.499372 0.1243998
v 0.2636856 -1.338392 0.122003
v 0.05547612 -1.4513 0.1186415
v 0.13843 -1.268765 0.1059019
v 0.1431807 -1.067896 0.1107737
v 0.01528187 -1.220271 0.08645939
v 0.05686654 -1.076557 0.09309392
v 0.1032743 -0.8776659 0.1344014
v -0.05196834 -1.006437 0.06500734
v -0.06358802 -0.9253258 0.08574551
v 0.1003162 -0.7064165 0.1461677
v -0.2813403 -0.8070491 0.0118469
v -0.1234218 -0.7829193 0.06944641
v 0.09712348 -0.5418695 0.1418912
v -0.4188972 -0.6108539 -0.04527264
v -0.1401887 -0.6196995 0.04766741
v 0.08527546 -0.4008595 0.1382458
v -0.4574343 -0.4652725 -0.07625258
v -0.1668624 -0.4555961 0.02958695
v 0.1459271 -0.3852349 0.1349088
v -0.4707391 -0.3324625 -0.09883682
v -0.139527 -0.2977784 0.01473776
v 0.2573323 -0.3587823 0.1267448
v -0.4628125 -0.2126681 -0.1121233
v -0.08258289 -0.211401 0.008378376
v 0.3276473 -0.295458 0.1155589
v -0.4063409 -0.1260955 -0.1149618
v 0.08573861 0.08181816 1.150608E-06
v 0.4323838 -0.02741742 0.09968007
v -0.1752488 -0.1217246 -0.1072694
v 0.1749968 0.03298394 0.0001716102
v -0.07441702 -0.03014225 -0.09793329
vt 0.5 0
vt 1 0.05
vt 1 0
vt 0.5 0.05
vt 0 0
vt 1 0.1
vt 0 0.05
vt 0.5 0.1
vt 1 0.15
vt 0 0.1
vt 0.5 0.15
vt 1 0.2
vt 0 0.15
vt 0.5 0.2
vt 1 0.25
vt 0 0.2
vt 0.5 0.25
vt 1 0.3
vt 0 0.25
vt 0.5 0.3
vt 1 0.35
vt 0 0.3
vt 0.5 0.35
vt 1 0.4
vt 0 0.35
vt 0.5 0.4
vt 1 0.45
vt 0 0.4
vt 0.5 0.45
vt 1 0.5000001
vt 0 0.45
vt 0.5 0.5000001
vt 1 0.5500001
vt 0 0.5000001
vt 0.5 0.5500001
vt 1 0.6000001
vt 0 0.5500001
vt 0.5 0.6000001
vt 1 0.6500001
vt 0 0.6000001
vt 0.5 0.6500001
vt 1 0.7000001
vt 0 0.6500001
vt 0.5 0.7000001
vt 1 0.7500001
vt 0 0.7000001
vt 0.5 0.7500001
vt 1 0.8000001
vt 0 0.7500001
vt 0.5 0.8000001
vt 1 0.8500001
vt 0 0.8000001
vt 0.5 0.8500001
vt 1 0.9000002
vt 0 0.8500001
vt 0.5 0.9000002
vt 1 0.9500002
vt 0 0.9000002
vt 0.5 0.9500002
vt 1 1
vt 0 0.9500002
vt 0.5 1
vt 0 1
vn 0.2818689 -0.5394715 0.7934232
vn 0.4568145 -0.2743893 0.8461862
vn 0.5001304 -0.7441926 0.4427719
vn 0.4471211 -0.5512354 0.7044305
vn 0.2232545 -0.4762994 0.8504683
vn 0.441896 -0.1716114 0.8804984
vn 0.394807 -0.3007784 0.8681358
vn 0.4584424 -0.191709 0.8678007
vn 0.4468392 -0.1437493 0.8829898
vn 0.4797585 -0.1790061 0.8589462
vn 0.4664908 -0.1627904 0.8694168
vn 0.4355802 -0.1156546 0.892689
vn 0.5454179 -0.1112642 0.8307464
vn 0.496409 -0.1101301 0.8610747
vn 0.4049548 -0.08004379 0.9108264
vn 0.5259783 -0.07163335 0.847476
vn 0.4537585 -0.06615177 0.8886659
vn 0.3589408 -0.05001695 0.9320192
vn 0.4622288 -0.02217484 0.8864834
vn 0.3694474 -0.01432686 0.9291413
vn 0.2691085 -0.03551772 0.9624547
vn 0.3796994 0.02522064 0.924766
vn 0.2274632 -0.003259791 0.9737812
vn 0.1260027 -0.05953414 0.9902418
vn 0.2949172 0.0556074 0.9539034
vn 0.1268552 0.001989263 0.9919192
vn 0.0516676 -0.05796822 0.9969805
vn 0.1927802 0.08214414 0.9777976
vn 0.08591139 0.06091157 0.9944391
vn 0.04434114 0.02434643 0.9987197
vn 0.105439 0.1046823 0.9889005
vn -0.0009508565 0.07166705 0.9974281
vn -0.07207709 0.02483786 0.9970898
vn -0.01837273 0.1059972 0.9941967
vn -0.1169232 0.03204947 0.9926237
vn -0.1885227 -0.0771191 0.9790362
vn -0.1542985 0.03800793 0.987293
vn -0.2120137 -0.06690007 0.9749741
vn -0.2605426 -0.09122993 0.9611423
vn -0.3904671 -0.2286896 0.8917604
vn -0.3468665 -0.1619076 0.9238341
vn -0.334801 0.01299459 0.9421992
vn -0.3515776 -0.0199189 0.9359468
vn -0.3313583 0.01819677 0.9433296
vn -0.3765478 0.03166008 0.925856
vn -0.3165782 0.09016421 0.9442715
vn -0.3482702 0.06661616 0.9350241
vn -0.3736876 0.186848 0.9085403
vn -0.3346042 0.08853178 0.9381909
vn -0.3576248 0.1167808 0.9265348
vn -0.2297242 0.3749415 0.8981345
vn -0.337589 0.117319 0.9339539
vn -0.3001926 0.2569313 0.9186243
vn -0.2062974 0.2519942 0.9454842
vn -0.3150352 0.1883 0.9302128
vn -0.2820604 0.3660213 0.8868316
vn -0.2058855 0.2107317 0.9556167
vn -0.316754 0.2996533 0.8999304
vn -0.3450242 0.8896679 0.2990805
vn -0.1968371 0.2422774 0.9500299
vn -0.4135861 0.6161277 0.6703234
vn -0.2586195 0.510652 0.8199698
vn -0.1382039 0.7566673 -0.639026
g Plane001_0
f 3/3/3 2/2/2 1/1/1
f 2/2/2 4/4/4 1/1/1
f 1/1/1 4/4/4 5/5/5
f 2/2/2 6/6/6 4/4/4
f 4/4/4 7/7/7 5/5/5
f 6/6/6 8/8/8 4/4/4
f 4/4/4 8/8/8 7/7/7
f 6/6/6 9/9/9 8/8/8
f 8/8/8 10/10/10 7/7/7
f 9/9/9 11/11/11 8/8/8
f 8/8/8 11/11/11 10/10/10
f 9/9/9 12/12/12 11/11/11
f 11/11/11 13/13/13 10/10/10
f 12/12/12 14/14/14 11/11/11
f 11/11/11 14/14/14 13/13/13
f 12/12/12 15/15/15 14/14/14
f 14/14/14 16/16/16 13/13/13
f 15/15/15 17/17/17 14/14/14
f 14/14/14 17/17/17 16/16/16
f 15/15/15 18/18/18 17/17/17
f 17/17/17 19/19/19 16/16/16
f 18/18/18 20/20/20 17/17/17
f 17/17/17 20/20/20 19/19/19
f 18/18/18 21/21/21 20/20/20
f 20/20/20 22/22/22 19/19/19
f 21/21/21 23/23/23 20/20/20
f 20/20/20 23/23/23 22/22/22
f 21/21/21 24/24/24 23/23/23
f 23/23/23 25/25/25 22/22/22
f 24/24/24 26/26/26 23/23/23
f 23/23/23 26/26/26 25/25/25
f 24/24/24 27/27/27 26/26/26
f 26/26/26 28/28/28 25/25/25
f 27/27/27 29/29/29 26/26/26
f 26/26/26 29/29/29 28/28/28
f 27/27/27 30/30/30 29/29/29
f 29/29/29 31/31/31 28/28/28
f 30/30/30 32/32/32 29/29/29
f 29/29/29 32/32/32 31/31/31
f 30/30/30 33/33/33 32/32/32
f 32/32/32 34/34/34 31/31/31
f 33/33/33 35/35/35 32/32/32
f 32/32/32 35/35/35 34/34/34
f 33/33/33 36/36/36 35/35/35
f 35/35/35 37/37/37 34/34/34
f 36/36/36 38/38/38 35/35/35
f 35/35/35 38/38/38 37/37/37
f 36/36/36 39/39/39 38/38/38
f 38/38/38 40/40/40 37/37/37
f 39/39/39 41/41/41 38/38/38
f 38/38/38 41/41/41 40/40/40
f 39/39/39 42/42/42 41/41/41
f 41/41/41 43/43/43 40/40/40
f 42/42/42 44/44/44 41/41/41
f 41/41/41 44/44/44 43/43/43
f 42/42/42 45/45/45 44/44/44
f 44/44/44 46/46/46 43/43/43
f 45/45/45 47/47/47 44/44/44
f 44/44/44 47/47/47 46/46/46
f 45/45/45 48/48/48 47/47/47
f 47/47/47 49/49/49 46/46/46
f 48/48/48 50/50/50 47/47/47
f 47/47/47 50/50/50 49/49/49
f 48/48/48 51/51/51 50/50/50
f 50/50/50 52/52/52 49/49/49
f 51/51/51 53/53/53 50/50/50
f 50/50/50 53/53/53 52/52/52
f 51/51/51 54/54/54 53/53/53
f 53/53/53 55/55/55 52/52/52
f 54/54/54 56/56/56 53/53/53
f 53/53/53 56/56/56 55/55/55
f 54/54/54 57/57/57 56/56/56
f 56/56/56 58/58/58 55/55/55
f 57/57/57 59/59/59 56/56/56
f 56/56/56 59/59/59 58/58/58
f 57/57/57 60/60/60 59/59/59
f 59/59/59 61/61/61 58/58/58
f 60/60/60 62/62/62 59/59/59
f 59/59/59 62/62/62 61/61/61
f 62/62/62 63/63/63 61/61/61
