g Plane013
v -1.740748 -0.9568771 -0.0006559545
v -1.554346 -0.8753485 0.0009182222
v -1.50976 -0.9724959 -0.0008303912
v -1.692825 -1.061263 -0.00253391
v -1.462792 -1.064 -0.002173361
v -1.64155 -1.161146 -0.003999514
v -1.413978 -1.148746 -0.003092153
v -1.587596 -1.254804 -0.005014497
v -1.363386 -1.226751 -0.003591764
v -1.530894 -1.342216 -0.005573852
v -1.311089 -1.29805 -0.003678191
v -1.471374 -1.423348 -0.005671587
v -1.257155 -1.362701 -0.003358325
v -1.408966 -1.498144 -0.005300811
v -1.201646 -1.420786 -0.002639674
v -1.343609 -1.56652 -0.004454017
v -1.144601 -1.472415 -0.001529802
v -1.275262 -1.628365 -0.003123631
v -1.086031 -1.517724 -3.551438E-05
v -1.203916 -1.683545 -0.001302861
v -1.019791 -1.559538 0.001904523
v -1.117311 -1.7381 0.001236139
v -0.9434477 -1.595261 0.004075275
v -1.018773 -1.784261 0.004071813
v -0.8608388 -1.623168 0.006583912
v -0.916161 -1.818959 0.007296695
v -0.7741627 -1.643345 0.009638326
v -0.8114834 -1.843345 0.0112153
v -0.6857387 -1.656044 0.01344384
v -0.706628 -1.858409 0.01613471
v -0.5979386 -1.661658 0.01819117
v -0.6034291 -1.864998 0.02237659
v -0.5131674 -1.660699 0.02403832
v -0.5036888 -1.86384 0.03029532
v -0.4338737 -1.653799 0.03107816
v -0.4091651 -1.85554 0.04031043
v -0.3578062 -1.639097 0.0401304
v -0.3070086 -1.835696 0.05291604
v -0.2788597 -1.612655 0.05060659
v -0.2054872 -1.801756 0.0664866
v -0.1992668 -1.576058 0.06252341
v -0.1084824 -1.757167 0.08130668
v -0.1213346 -1.531443 0.07611199
v -0.01692215 -1.704705 0.09787658
v -0.04719787 -1.481172 0.09159845
v 0.06809425 -1.646921 0.1167017
v 0.02117363 -1.427712 0.1091751
v 0.1453019 -1.586261 0.1383213
v 0.08196892 -1.37357 0.1289555
v 0.2132773 -1.525129 0.1633532
v 0.1364924 -1.316555 0.1538052
v 0.2784426 -1.456519 0.1944907
v 0.1837202 -1.254378 0.1830864
v 0.3365687 -1.380011 0.2305088
v 0.2232008 -1.187991 0.2155262
v 0.3845835 -1.299321 0.2698995
v 0.2555575 -1.117311 0.2509902
v 0.4232278 -1.215004 0.3121278
v 0.281306 -1.042359 0.2892933
v 0.4533494 -1.127513 0.3567095
v 0.3009211 -0.9632588 0.3301918
v 0.4758376 -1.037194 0.4032195
v 0.3135744 -0.8871797 0.3697006
v 0.4905745 -0.9484079 0.4491818
v 0.3183365 -0.8128297 0.4081737
v 0.4961957 -0.8612855 0.4942746
v 0.3172585 -0.7312791 0.450469
v 0.4949988 -0.7706583 0.5413143
v 0.3112228 -0.6457126 0.4951805
v 0.4884696 -0.6785493 0.5895229
v 0.301284 -0.5590757 0.5410295
v 0.4779214 -0.5872213 0.6379946
v 0.2885672 -0.4741609 0.5868157
v 0.4645972 -0.4990886 0.6857463
v 0.2742266 -0.3936439 0.6313925
v 0.4497108 -0.4166821 0.7317405
v 0.2594252 -0.3200804 0.6736661
v 0.4344676 -0.3426542 0.7748873
v 0.2382258 -0.2339702 0.7264988
v 0.4118786 -0.2511491 0.8311163
v 0.2122227 -0.152964 0.779377
v 0.3838891 -0.1639344 0.8880299
v 0.1826585 -0.07983328 0.8299471
v 0.3516833 -0.08418652 0.9431148
v 0.1503733 -0.01525301 0.8771308
v 0.3158398 -0.01230322 0.9954834
v 0.1163106 0.04004722 0.9198011
v 0.2768337 0.05137169 1.044297
v 0.07333443 0.09271722 0.9636638
v 0.2202042 0.1204822 1.101698
v 0.01138596 0.138024 1.009835
v 0.1368295 0.1816602 1.163962
v -0.05628166 0.169052 1.050229
v 0.05339958 0.2199693 1.213852
v -0.1199361 0.1904445 1.084129
v -0.0159761 0.2431281 1.250899
v -0.1832664 0.1941405 1.109669
v -0.1486947 0.2483117 1.302711
v -0.2178002 0.1785301 1.115255
v -0.2603529 0.2005624 1.31299
v -0.2130188 0.1673438 1.10572
v -0.3220845 0.06107958 1.240656
vt -1.788139E-07 1
vt 0.9999998 1
vt 0.9999998 0.9800002
vt -1.77304E-07 0.9800001
vt 0.9999998 0.9600002
vt -1.75794E-07 0.9600001
vt 0.9999998 0.9400002
vt -1.742841E-07 0.9400001
vt 0.9999998 0.9200002
vt -1.727741E-07 0.9200001
vt 0.9999998 0.9000002
vt -1.712641E-07 0.9000001
vt 0.9999998 0.8800002
vt -1.697542E-07 0.8800001
vt 0.9999998 0.8600002
vt -1.682442E-07 0.8600001
vt 0.9999998 0.8400002
vt -1.667343E-07 0.8400002
vt 0.9999998 0.8200002
vt -1.652243E-07 0.8200002
vt 0.9999998 0.8000002
vt -1.637144E-07 0.8000001
vt 0.9999998 0.7800002
vt -1.622044E-07 0.7800002
vt 0.9999998 0.7600002
vt -1.606944E-07 0.7600002
vt 0.9999998 0.7400002
vt -1.591845E-07 0.7400001
vt 0.9999998 0.7200003
vt -1.576745E-07 0.7200001
vt 0.9999998 0.7000002
vt -1.561646E-07 0.7000002
vt 0.9999998 0.6800002
vt -1.546546E-07 0.6800001
vt 0.9999998 0.6600002
vt -1.531446E-07 0.6600001
vt 0.9999998 0.6400002
vt -1.516347E-07 0.6400001
vt 0.9999998 0.6200002
vt -1.501247E-07 0.6200001
vt 0.9999998 0.6000001
vt -1.486148E-07 0.6000001
vt 0.9999998 0.5800002
vt -1.471048E-07 0.58
vt 0.9999998 0.5600002
vt -1.455949E-07 0.5600001
vt 0.9999998 0.5400001
vt -1.440849E-07 0.5400001
vt 0.9999998 0.5200001
vt -1.425749E-07 0.52
vt 0.9999998 0.5000001
vt -1.41065E-07 0.5000001
vt 0.9999998 0.4800001
vt -1.39555E-07 0.4800001
vt 0.9999998 0.4600002
vt -1.380451E-07 0.4600001
vt 0.9999998 0.4400002
vt -1.365351E-07 0.4400001
vt 0.9999998 0.4200002
vt -1.350251E-07 0.4200001
vt 0.9999998 0.4000002
vt -1.335152E-07 0.4000002
vt 0.9999998 0.3800002
vt -1.320052E-07 0.3800002
vt 0.9999998 0.3600003
vt -1.304953E-07 0.3600002
vt 0.9999998 0.3400003
vt -1.289853E-07 0.3400002
vt 0.9999998 0.3200003
vt -1.274754E-07 0.3200002
vt 0.9999998 0.3000003
vt -1.259654E-07 0.3000003
vt 0.9999998 0.2800003
vt -1.244555E-07 0.2800003
vt 0.9999998 0.2600003
vt -1.229455E-07 0.2600003
vt 0.9999998 0.2400004
vt -1.214355E-07 0.2400003
vt 0.9999998 0.2200004
vt -1.199256E-07 0.2200003
vt 0.9999999 0.2000004
vt -1.184156E-07 0.2000003
vt 0.9999999 0.1800004
vt -1.169057E-07 0.1800004
vt 0.9999999 0.1600004
vt -1.153957E-07 0.1600004
vt 0.9999999 0.1400005
vt -1.138858E-07 0.1400004
vt 0.9999999 0.1200005
vt -1.123758E-07 0.1200004
vt 0.9999999 0.1000005
vt -1.108658E-07 0.1000004
vt 0.9999999 0.08000052
vt -1.093559E-07 0.08000046
vt 0.9999999 0.06000054
vt -1.078459E-07 0.06000048
vt 0.9999999 0.04000056
vt -1.06336E-07 0.0400005
vt 0.9999999 0.02000058
vt -1.04826E-07 0.02000052
vt 0.9999999 5.960464E-07
vt -1.033161E-07 5.364418E-07
vn -0.000476296 -0.01821056 0.9998341
vn -0.000476296 -0.01821056 0.9998341
vn -0.001114652 -0.01689105 0.9998567
vn -0.001114102 -0.01689219 0.9998567
vn -0.002522925 -0.01415347 0.9998966
vn -0.002522404 -0.01415442 0.9998966
vn -0.004210773 -0.01123091 0.9999281
vn -0.004210107 -0.011232 0.9999281
vn -0.006216647 -0.008146423 0.9999475
vn -0.006215808 -0.008147639 0.9999475
vn -0.008587207 -0.004923278 0.999951
vn -0.008586186 -0.004924584 0.999951
vn -0.01136773 -0.001599236 0.9999341
vn -0.01136653 -0.001600577 0.9999342
vn -0.01459718 0.00177111 0.9998919
vn -0.01459584 0.0017698 0.9998919
vn -0.01830168 0.005115445 0.9998195
vn -0.01830027 0.005114265 0.9998195
vn -0.02191987 0.007946233 0.9997281
vn -0.02190386 0.007934793 0.9997286
vn -0.02385264 0.00932136 0.9996721
vn -0.02385275 0.009321435 0.9996721
vn -0.02567408 0.01030311 0.9996172
vn -0.02567924 0.01030573 0.9996171
vn -0.03022412 0.01232012 0.9994672
vn -0.03023225 0.01232346 0.999467
vn -0.03796735 0.01516729 0.9991639
vn -0.03797678 0.01517049 0.9991635
vn -0.04939865 0.01866855 0.9986047
vn -0.04940771 0.01867111 0.9986042
vn -0.06538971 0.02272288 0.9976011
vn -0.06539617 0.02272438 0.9976006
vn -0.0874231 0.02723547 0.9957989
vn -0.08742266 0.02723539 0.9957989
vn -0.1134253 0.03021803 0.9930869
vn -0.113218 0.03020823 0.9931109
vn -0.133845 0.02945646 0.9905645
vn -0.1338774 0.02945042 0.9905602
vn -0.1503214 0.02490627 0.9883233
vn -0.1503625 0.0248919 0.9883175
vn -0.1706901 0.01700414 0.9851779
vn -0.1707288 0.01698794 0.9851716
vn -0.1960447 0.005643194 0.9805787
vn -0.1960804 0.005626298 0.9805717
vn -0.2279709 -0.01015877 0.9736149
vn -0.2280038 -0.01017563 0.9736071
vn -0.2690808 -0.03214271 0.9625812
vn -0.2691095 -0.03215856 0.9625726
vn -0.3201191 -0.06515877 0.9451339
vn -0.3199307 -0.06502162 0.9452072
vn -0.369456 -0.1085756 0.9228833
vn -0.3694266 -0.1085441 0.9228988
vn -0.4077283 -0.1565426 0.8995844
vn -0.4077491 -0.1565736 0.8995695
vn -0.4363025 -0.2045958 0.876231
vn -0.4363215 -0.2046326 0.8762129
vn -0.456568 -0.2492466 0.854062
vn -0.4565822 -0.2492832 0.8540437
vn -0.4698135 -0.2889979 0.8341196
vn -0.4698224 -0.2890302 0.8341034
vn -0.4778331 -0.3234407 0.8167384
vn -0.477834 -0.3234458 0.8167359
vn -0.4828708 -0.3583271 0.7990229
vn -0.4828741 -0.3583578 0.7990071
vn -0.4852286 -0.3924693 0.7813584
vn -0.48523 -0.3925285 0.7813279
vn -0.4851334 -0.4198753 0.76704
vn -0.4851322 -0.4199087 0.7670225
vn -0.4839295 -0.4424286 0.7550292
vn -0.483928 -0.4424501 0.7550177
vn -0.4822704 -0.4622893 0.7441128
vn -0.4822689 -0.4623054 0.7441038
vn -0.4804336 -0.4811632 0.7332569
vn -0.4804321 -0.4811777 0.7332484
vn -0.4785288 -0.5007473 0.7212921
vn -0.4785272 -0.5007635 0.7212818
vn -0.4748129 -0.527061 0.7048116
vn -0.4748362 -0.5269278 0.7048955
vn -0.4663477 -0.563663 0.6817653
vn -0.4663514 -0.5636498 0.6817737
vn -0.4533531 -0.6041241 0.6553664
vn -0.453357 -0.6041134 0.6553736
vn -0.4372646 -0.6432558 0.6285074
vn -0.4372726 -0.6432385 0.6285195
vn -0.4174353 -0.6816885 0.6008731
vn -0.417451 -0.6816612 0.6008932
vn -0.3876602 -0.7279317 0.5655397
vn -0.387934 -0.7275442 0.5658503
vn -0.322149 -0.8012956 0.5041284
vn -0.3223965 -0.8010606 0.5043436
vn -0.2254909 -0.8738288 0.4307866
vn -0.2248369 -0.8742057 0.4303634
vn -0.1456677 -0.9128485 0.3814298
vn -0.1452332 -0.9130186 0.3811878
vn -0.02389727 -0.9494419 0.3130319
vn -0.03241196 -0.9475508 0.3179573
vn 0.2332513 -0.9453999 0.2276243
vn 0.2388564 -0.9443091 0.2263361
vn 0.6871083 -0.6850277 0.2421139
vn 0.6384196 -0.7336532 0.2327517
vn 0.844359 -0.4643664 0.2672486
vn 0.844359 -0.4643663 0.2672486
g Plane013_0
f 3/3/3 2/2/2 1/1/1
f 4/4/4 3/3/3 1/1/1
f 5/5/5 3/3/3 4/4/4
f 6/6/6 5/5/5 4/4/4
f 7/7/7 5/5/5 6/6/6
f 8/8/8 7/7/7 6/6/6
f 9/9/9 7/7/7 8/8/8
f 10/10/10 9/9/9 8/8/8
f 11/11/11 9/9/9 10/10/10
f 12/12/12 11/11/11 10/10/10
f 13/13/13 11/11/11 12/12/12
f 14/14/14 13/13/13 12/12/12
f 15/15/15 13/13/13 14/14/14
f 16/16/16 15/15/15 14/14/14
f 17/17/17 15/15/15 16/16/16
f 18/18/18 17/17/17 16/16/16
f 19/19/19 17/17/17 18/18/18
f 20/20/20 19/19/19 18/18/18
f 21/21/21 19/19/19 20/20/20
f 22/22/22 21/21/21 20/20/20
f 23/23/23 21/21/21 22/22/22
f 24/24/24 23/23/23 22/22/22
f 25/25/25 23/23/23 24/24/24
f 26/26/26 25/25/25 24/24/24
f 27/27/27 25/25/25 26/26/26
f 28/28/28 27/27/27 26/26/26
f 29/29/29 27/27/27 28/28/28
f 30/30/30 29/29/29 28/28/28
f 31/31/31 29/29/29 30/30/30
f 32/32/32 31/31/31 30/30/30
f 33/33/33 31/31/31 32/32/32
f 34/34/34 33/33/33 32/32/32
f 35/35/35 33/33/33 34/34/34
f 36/36/36 35/35/35 34/34/34
f 37/37/37 35/35/35 36/36/36
f 38/38/38 37/37/37 36/36/36
f 39/39/39 37/37/37 38/38/38
f 40/40/40 39/39/39 38/38/38
f 41/41/41 39/39/39 40/40/40
f 42/42/42 41/41/41 40/40/40
f 43/43/43 41/41/41 42/42/42
f 44/44/44 43/43/43 42/42/42
f 45/45/45 43/43/43 44/44/44
f 46/46/46 45/45/45 44/44/44
f 47/47/47 45/45/45 46/46/46
f 48/48/48 47/47/47 46/46/46
f 49/49/49 47/47/47 48/48/48
f 50/50/50 49/49/49 48/48/48
f 51/51/51 49/49/49 50/50/50
f 52/52/52 51/51/51 50/50/50
f 53/53/53 51/51/51 52/52/52
f 54/54/54 53/53/53 52/52/52
f 55/55/55 53/53/53 54/54/54
f 56/56/56 55/55/55 54/54/54
f 57/57/57 55/55/55 56/56/56
f 58/58/58 57/57/57 56/56/56
f 59/59/59 57/57/57 58/58/58
f 60/60/60 59/59/59 58/58/58
f 61/61/61 59/59/59 60/60/60
f 62/62/62 61/61/61 60/60/60
f 63/63/63 61/61/61 62/62/62
f 64/64/64 63/63/63 62/62/62
f 65/65/65 63/63/63 64/64/64
f 66/66/66 65/65/65 64/64/64
f 67/67/67 65/65/65 66/66/66
f 68/68/68 67/67/67 66/66/66
f 69/69/69 67/67/67 68/68/68
f 70/70/70 69/69/69 68/68/68
f 71/71/71 69/69/69 70/70/70
f 72/72/72 71/71/71 70/70/70
f 73/73/73 71/71/71 72/72/72
f 74/74/74 73/73/73 72/72/72
f 75/75/75 73/73/73 74/74/74
f 76/76/76 75/75/75 74/74/74
f 77/77/77 75/75/75 76/76/76
f 78/78/78 77/77/77 76/76/76
f 79/79/79 77/77/77 78/78/78
f 80/80/80 79/79/79 78/78/78
f 81/81/81 79/79/79 80/80/80
f 82/82/82 81/81/81 80/80/80
f 83/83/83 81/81/81 82/82/82
f 84/84/84 83/83/83 82/82/82
f 85/85/85 83/83/83 84/84/84
f 86/86/86 85/85/85 84/84/84
f 87/87/87 85/85/85 86/86/86
f 88/88/88 87/87/87 86/86/86
f 89/89/89 87/87/87 88/88/88
f 90/90/90 89/89/89 88/88/88
f 91/91/91 89/89/89 90/90/90
f 92/92/92 91/91/91 90/90/90
f 93/93/93 91/91/91 92/92/92
f 94/94/94 93/93/93 92/92/92
f 95/95/95 93/93/93 94/94/94
f 96/96/96 95/95/95 94/94/94
f 97/97/97 95/95/95 96/96/96
f 98/98/98 97/97/97 96/96/96
f 99/99/99 97/97/97 98/98/98
f 100/100/100 99/99/99 98/98/98
f 101/101/101 99/99/99 100/100/100
f 102/102/102 101/101/101 100/100/100
