g Plane002
v -0.4178387 -0.03908743 0.1281798
v -0.4863555 -0.04324846 0.1177344
v -0.4508993 -0.03135799 0.1500111
v -0.4418713 -0.05518488 0.08417434
v -0.5220935 -0.05462908 0.0926712
v -0.4712648 -0.07281078 0.04311294
v -0.5540458 -0.06367946 0.0790332
v -0.5040161 -0.09077043 0.01026337
v -0.5804578 -0.06988161 0.07578186
v -0.5418811 -0.1095821 -0.01333649
v -0.5987548 -0.07243297 0.08030937
v -0.5887896 -0.1296174 -0.0250164
v -0.6205798 -0.07133932 0.09056602
v -0.6464593 -0.14277 -0.02140381
v -0.6480079 -0.06771024 0.1071651
v -0.7009641 -0.1544362 -0.003266067
v -0.6731554 -0.06263399 0.1281994
v -0.7410411 -0.1762079 0.03039276
v -0.7005858 -0.06549818 0.163253
v -0.742941 -0.2109507 0.06841003
v -0.6980659 -0.07206716 0.1871378
v -0.7434322 -0.235493 0.09576172
v -0.6912666 -0.08337797 0.2195517
v -0.738799 -0.2611872 0.1263387
v -0.6802381 -0.09823244 0.2575278
v -0.729992 -0.2883615 0.1593039
v -0.6653565 -0.1160186 0.2988597
v -0.7176369 -0.3167582 0.1930601
v -0.6470105 -0.1363896 0.3416898
v -0.7023461 -0.3458545 0.2256612
v -0.6255006 -0.1592373 0.3843986
v -0.6848199 -0.3748884 0.2549228
v -0.600923 -0.1848193 0.4255948
v -0.6659644 -0.4027327 0.2784331
v -0.5729527 -0.2140352 0.4640182
v -0.6471441 -0.4275743 0.2936104
v -0.5449285 -0.2391673 0.4913763
v -0.6301649 -0.452915 0.3066339
v -0.5147398 -0.26634 0.5169141
v -0.6098237 -0.4816005 0.3199199
v -0.4825603 -0.2948393 0.5404835
v -0.5867632 -0.5125163 0.3326483
v -0.4486398 -0.3238728 0.5617688
v -0.5615491 -0.5446274 0.344169
v -0.413271 -0.3525888 0.5803561
v -0.5347049 -0.5769571 0.353927
v -0.3767736 -0.3800822 0.5957646
v -0.5067267 -0.6085824 0.3614364
v -0.339497 -0.4053831 0.6074481
v -0.4780813 -0.6386458 0.3662762
v -0.3018513 -0.4274219 0.6147876
v -0.4491744 -0.6663883 0.3680974
v -0.2644037 -0.4449695 0.6170906
v -0.4202548 -0.6912112 0.3666257
v -0.2237965 -0.4613297 0.6151503
v -0.3924373 -0.7106137 0.3598653
v -0.181508 -0.4756871 0.6083563
v -0.3624854 -0.7279726 0.3484573
v -0.1388072 -0.4873845 0.5972456
v -0.3303425 -0.7438421 0.3330783
v -0.09612388 -0.4965486 0.5825948
v -0.2965804 -0.7580609 0.3141611
v -0.05389374 -0.5032635 0.5651112
v -0.2617676 -0.7705109 0.2922086
v -0.01258286 -0.507574 0.5454678
v -0.2264391 -0.7811128 0.2677565
v 0.0272942 -0.5094948 0.5243294
v -0.1910854 -0.7898167 0.2413509
v 0.06516621 -0.5090196 0.502369
v -0.1561363 -0.7965955 0.2135269
v 0.1003806 -0.5061265 0.4802907
v -0.1219423 -0.8014362 0.1847906
v 0.1322571 -0.5018585 0.4598857
v -0.08993313 -0.8032511 0.155426
v 0.1654013 -0.495677 0.4371848
v -0.05845219 -0.8025517 0.1246741
v 0.1995619 -0.4874246 0.4119682
v -0.02760902 -0.7997663 0.09271149
v 0.2340276 -0.4771811 0.3845703
v 0.00202713 -0.7951034 0.05986
v 0.2681463 -0.4650302 0.3552656
v 0.0298283 -0.7887692 0.02649971
v 0.3013118 -0.4510417 0.3242625
v 0.05512089 -0.7809829 -0.006922684
v 0.3329517 -0.4352551 0.291685
v 0.077196 -0.7719939 -0.03987564
v 0.3625144 -0.4176562 0.2575388
v 0.09532558 -0.7621052 -0.07171005
v 0.389434 -0.398144 0.2216642
v 0.1087956 -0.7517071 -0.1016106
v 0.4137144 -0.3749474 0.1811536
v 0.1164692 -0.7426208 -0.1265776
v 0.4326926 -0.3453194 0.1315018
v 0.119755 -0.73641 -0.146818
v 0.4433881 -0.316516 0.0853527
v 0.1218755 -0.7263007 -0.1740803
v 0.4483801 -0.2886263 0.04353432
v 0.12215 -0.7122381 -0.2077397
v 0.4496099 -0.2617014 0.006578522
v 0.1205346 -0.6942036 -0.2468777
v 0.4484963 -0.2359576 -0.02488541
v 0.117509 -0.6720147 -0.2906717
v 0.4460471 -0.2119053 -0.04999283
v 0.1139632 -0.6451947 -0.3385351
v 0.4428677 -0.1904689 -0.06764495
v 0.1111895 -0.6128516 -0.3901159
v 0.4390258 -0.1731143 -0.07664818
v 0.1110183 -0.5735535 -0.4451564
v 0.4337596 -0.1618875 -0.07610534
v 0.1161092 -0.5252876 -0.5031022
v 0.4363053 -0.1319497 -0.09593811
v 0.1164666 -0.493684 -0.5362957
v 0.4396658 -0.1039607 -0.1141822
v 0.1158471 -0.4601468 -0.5695403
v 0.4427584 -0.08085091 -0.1270919
v 0.1154094 -0.4204269 -0.6055011
v 0.4456192 -0.06244753 -0.1348738
v 0.115232 -0.3732595 -0.6429254
v 0.4482852 -0.04824722 -0.1383804
v 0.115394 -0.3177147 -0.6799126
v 0.4508123 -0.0370288 -0.1389521
v 0.1159551 -0.2535779 -0.7140751
v 0.4532934 -0.02664032 -0.1379618
v 0.1169374 -0.1815659 -0.7429933
v 0.455862 -0.01420955 -0.1362303
v 0.1183237 -0.1031165 -0.7647987
v 0.4586737 0.003265133 -0.1336781
v 0.1200733 -0.0197944 -0.7785243
v 0.4614337 0.01640889 -0.1295521
v 0.1206414 0.04595155 -0.784095
v 0.4641318 0.03331453 -0.1240248
v 0.1197386 0.1010031 -0.785125
v 0.4667316 0.05719746 -0.1166459
v 0.1181995 0.1547172 -0.7833186
v 0.4691927 0.08643216 -0.1072955
v 0.1163102 0.2078377 -0.779439
v 0.4715548 0.1197906 -0.09609413
v 0.1142769 0.2607147 -0.7740101
v 0.473894 0.1563048 -0.08326942
v 0.1122699 0.3134338 -0.7674479
v 0.4763041 0.1951816 -0.06909718
v 0.1104415 0.3659068 -0.760121
v 0.478885 0.2357487 -0.05387131
v 0.108937 0.4179264 -0.7523791
v 0.4817394 0.2774213 -0.03789093
v 0.1079006 0.4691971 -0.7445669
v 0.4849679 0.3196843 -0.02145203
v 0.1074773 0.5193519 -0.7370329
v 0.4886681 0.3620895 -0.004840851
v 0.1078156 0.5679612 -0.730134
v 0.4929339 0.4042557 0.01166847
v 0.1090673 0.6145227 -0.7242405
v 0.4978572 0.4458932 0.02782013
v 0.1113872 0.6584482 -0.7197402
v 0.5035336 0.4868354 0.04337921
v 0.1149252 0.6990201 -0.7170429
v 0.5100811 0.527118 0.05813332
v 0.1198095 0.7353256 -0.7165792
v 0.5176907 0.567102 0.07187393
v 0.1260948 0.7661207 -0.7187851
v 0.5328751 0.6175469 0.08399208
v 0.1343615 0.812181 -0.7187411
v 0.5494993 0.6656233 0.09460052
v 0.1443427 0.8594404 -0.7197045
v 0.567237 0.7103232 0.1038695
v 0.1561629 0.9069139 -0.7217805
v 0.5859406 0.7510155 0.1119537
v 0.170033 0.954406 -0.7248963
v 0.6053676 0.7869859 0.1189998
v 0.1862621 1.001812 -0.7289706
v 0.6251238 0.8174207 0.1251497
v 0.2053073 1.049118 -0.7339189
v 0.6445834 0.8414158 0.1305449
v 0.2278604 1.096408 -0.7396549
v 0.6627719 0.8580162 0.1353252
v 0.2549591 1.143811 -0.7460914
v 0.6782301 0.8663559 0.1396271
v 0.2881289 1.191371 -0.7531374
v 0.6889316 0.8659573 0.1435625
v 0.3294588 1.23874 -0.7606775
v 0.6949044 0.8602 0.1476747
v 0.3800851 1.28241 -0.7691353
v 0.7066293 0.8616249 0.153577
v 0.4329637 1.312128 -0.7809094
v 0.7187553 0.8615484 0.1594098
v 0.4893759 1.334434 -0.7941311
v 0.732583 0.8602272 0.165019
v 0.5480194 1.349069 -0.8086451
v 0.7492535 0.8574164 0.1702186
v 0.6077542 1.35628 -0.8242665
v 0.7695375 0.8525508 0.1748419
v 0.6678097 1.356632 -0.840828
v 0.7938064 0.8449652 0.1787686
v 0.7278146 1.350789 -0.8582089
v 0.822121 0.8340509 0.181927
v 0.7877075 1.33936 -0.8763383
v 0.8543533 0.8193262 0.1842878
v 0.8476181 1.322827 -0.895187
v 0.8902835 0.8004439 0.1858484
v 0.9077634 1.301537 -0.9147516
v 0.9286386 0.7778779 0.1868442
v 0.9599612 1.280222 -0.9333616
vt 0 0
vt 1 0.01
vt 1 0
vt 0 0.01
vt 1 0.02
vt 0 0.02
vt 1 0.03
vt 0 0.03
vt 1 0.04
vt 0 0.04
vt 1 0.05
vt 0 0.05
vt 1 0.05999999
vt 0 0.05999999
vt 1 0.06999999
vt 0 0.06999999
vt 1 0.07999999
vt 0 0.07999999
vt 1 0.08999999
vt 0 0.08999999
vt 1 0.09999999
vt 0 0.09999999
vt 1 0.11
vt 0 0.11
vt 1 0.12
vt 0 0.12
vt 1 0.13
vt 0 0.13
vt 1 0.14
vt 0 0.14
vt 1 0.15
vt 0 0.15
vt 1 0.16
vt 0 0.16
vt 1 0.17
vt 0 0.17
vt 1 0.18
vt 0 0.18
vt 1 0.19
vt 0 0.19
vt 1 0.2
vt 0 0.2
vt 1 0.21
vt 0 0.21
vt 1 0.22
vt 0 0.22
vt 1 0.23
vt 0 0.23
vt 1 0.24
vt 0 0.24
vt 1 0.25
vt 0 0.25
vt 1 0.26
vt 0 0.26
vt 1 0.27
vt 0 0.27
vt 1 0.28
vt 0 0.28
vt 1 0.29
vt 0 0.29
vt 1 0.3
vt 0 0.3
vt 1 0.31
vt 0 0.31
vt 1 0.32
vt 0 0.32
vt 1 0.33
vt 0 0.33
vt 1 0.3399999
vt 0 0.3399999
vt 1 0.3499999
vt 0 0.3499999
vt 1 0.3599999
vt 0 0.3599999
vt 1 0.3699999
vt 0 0.3699999
vt 1 0.3799999
vt 0 0.3799999
vt 1 0.3899999
vt 0 0.3899999
vt 1 0.3999999
vt 0 0.3999999
vt 1 0.4099999
vt 0 0.4099999
vt 1 0.4199999
vt 0 0.4199999
vt 1 0.4299999
vt 0 0.4299999
vt 1 0.4399998
vt 0 0.4399998
vt 1 0.4499998
vt 0 0.4499998
vt 1 0.4599998
vt 0 0.4599998
vt 1 0.4699998
vt 0 0.4699998
vt 1 0.4799998
vt 0 0.4799998
vt 1 0.4899998
vt 0 0.4899998
vt 1 0.4999998
vt 0 0.4999998
vt 1 0.5099998
vt 0 0.5099998
vt 1 0.5199998
vt 0 0.5199998
vt 1 0.5299998
vt 0 0.5299998
vt 1 0.5399998
vt 0 0.5399998
vt 1 0.5499998
vt 0 0.5499998
vt 1 0.5599998
vt 0 0.5599998
vt 1 0.5699998
vt 0 0.5699998
vt 1 0.5799997
vt 0 0.5799997
vt 1 0.5899997
vt 0 0.5899997
vt 1 0.5999997
vt 0 0.5999997
vt 1 0.6099997
vt 0 0.6099997
vt 1 0.6199997
vt 0 0.6199997
vt 1 0.6299997
vt 0 0.6299997
vt 1 0.6399997
vt 0 0.6399997
vt 1 0.6499997
vt 0 0.6499997
vt 1 0.6599997
vt 0 0.6599997
vt 1 0.6699997
vt 0 0.6699997
vt 1 0.6799996
vt 0 0.6799996
vt 1 0.6899996
vt 0 0.6899996
vt 1 0.6999996
vt 0 0.6999996
vt 1 0.7099996
vt 0 0.7099996
vt 1 0.7199996
vt 0 0.7199996
vt 1 0.7299996
vt 0 0.7299996
vt 1 0.7399996
vt 0 0.7399996
vt 1 0.7499996
vt 0 0.7499996
vt 1 0.7599996
vt 0 0.7599996
vt 1 0.7699996
vt 0 0.7699996
vt 1 0.7799996
vt 0 0.7799996
vt 1 0.7899995
vt 0 0.7899995
vt 1 0.7999995
vt 0 0.7999995
vt 1 0.8099995
vt 0 0.8099995
vt 1 0.8199995
vt 0 0.8199995
vt 1 0.8299995
vt 0 0.8299995
vt 1 0.8399995
vt 0 0.8399995
vt 1 0.8499995
vt 0 0.8499995
vt 1 0.8599995
vt 0 0.8599995
vt 1 0.8699995
vt 0 0.8699995
vt 1 0.8799995
vt 0 0.8799995
vt 1 0.8899994
vt 0 0.8899994
vt 1 0.8999994
vt 0 0.8999994
vt 1 0.9099994
vt 0 0.9099994
vt 1 0.9199994
vt 0 0.9199994
vt 1 0.9299994
vt 0 0.9299994
vt 1 0.9399994
vt 0 0.9399994
vt 1 0.9499994
vt 0 0.9499994
vt 1 0.9599994
vt 0 0.9599994
vt 1 0.9699994
vt 0 0.9699994
vt 1 0.9799994
vt 0 0.9799994
vt 1 0.9899994
vt 0 0.9899994
vt 1 0.9999993
vt 0 0.9999993
vn 0.005117127 -0.9400771 0.3409235
vn 0.02073162 -0.9329693 0.3593583
vn 0.005117127 -0.9400771 0.3409235
vn 0.02051245 -0.9330732 0.3591011
vn 0.05959928 -0.9157793 0.3972356
vn 0.05904083 -0.9160272 0.3967473
vn 0.1210778 -0.8903208 0.4389408
vn 0.1193473 -0.8910424 0.4379494
vn 0.204359 -0.8581362 0.4709985
vn 0.1998706 -0.8598619 0.4697757
vn 0.2237442 -0.8461107 0.4837719
vn 0.2251902 -0.8459078 0.4834557
vn 0.2562862 -0.8354806 0.4860963
vn 0.2538606 -0.8362087 0.4861172
vn 0.4290894 -0.7861137 0.4448679
vn 0.4232829 -0.7881639 0.4467988
vn 0.7514821 -0.6085876 0.2547461
vn 0.7470354 -0.6124176 0.258617
vn 0.9513217 -0.3055246 -0.040518
vn 0.9485984 -0.3149041 -0.03156837
vn 0.966391 -0.1517086 -0.2075401
vn 0.9665717 -0.1526023 -0.206038
vn 0.952575 -0.1041657 -0.2859204
vn 0.9526182 -0.1042806 -0.2857343
vn 0.9365544 -0.06652471 -0.3441518
vn 0.9365341 -0.06648195 -0.344215
vn 0.9187736 -0.03081319 -0.3935805
vn 0.9187057 -0.03068372 -0.3937492
vn 0.8978524 0.008131046 -0.4402215
vn 0.8977119 0.008383611 -0.4405031
vn 0.8713209 0.05527849 -0.4875902
vn 0.8710218 0.05579356 -0.4880655
vn 0.8351993 0.1170517 -0.5373463
vn 0.8344871 0.118228 -0.5381945
vn 0.7926314 0.1822402 -0.5818282
vn 0.792129 0.1829553 -0.5822877
vn 0.7577239 0.2266518 -0.6119506
vn 0.7573889 0.2270231 -0.6122276
vn 0.7291374 0.2578744 -0.6339239
vn 0.7289048 0.2581238 -0.6340898
vn 0.6984781 0.2900032 -0.6542373
vn 0.6982868 0.2901985 -0.6543548
vn 0.6635389 0.3246087 -0.6740515
vn 0.663358 0.324782 -0.674146
vn 0.6216379 0.3632717 -0.6939741
vn 0.6214457 0.3634422 -0.6940569
vn 0.5691254 0.4076769 -0.7140699
vn 0.5689004 0.407858 -0.7141457
vn 0.5007123 0.4595493 -0.7335541
vn 0.5004314 0.4597497 -0.7336203
vn 0.4087009 0.5201129 -0.7499641
vn 0.4083511 0.520325 -0.7500075
vn 0.2893941 0.5878804 -0.7554123
vn 0.288287 0.5884607 -0.7553837
vn 0.1654874 0.6492942 -0.7423146
vn 0.1645111 0.649749 -0.7421336
vn 0.05928567 0.6952713 -0.716298
vn 0.0586561 0.6955229 -0.7161057
vn -0.02975434 0.7277935 -0.6851506
vn -0.03010889 0.7279107 -0.6850106
vn -0.1050958 0.7502899 -0.6527022
vn -0.1052864 0.7503405 -0.6526131
vn -0.1700422 0.7655551 -0.6204926
vn -0.1701318 0.7655733 -0.6204456
vn -0.2275677 0.7754405 -0.5889863
vn -0.2275879 0.7754434 -0.5889748
vn -0.2802558 0.7810551 -0.5580409
vn -0.2802177 0.7810523 -0.5580639
vn -0.3304389 0.7829078 -0.5271294
vn -0.3303364 0.7829077 -0.527194
vn -0.3799005 0.7819057 -0.4942664
vn -0.379702 0.7819143 -0.4944051
vn -0.4272834 0.7790014 -0.4588963
vn -0.4271385 0.7790131 -0.459011
vn -0.4702508 0.7743249 -0.4234205
vn -0.4701945 0.7743327 -0.4234689
vn -0.5095474 0.76778 -0.3884265
vn -0.5095536 0.7677788 -0.388421
vn -0.5470736 0.7593142 -0.3523526
vn -0.5471295 0.7592998 -0.3522967
vn -0.5840743 0.7486905 -0.3135596
vn -0.5841823 0.7486559 -0.3134412
vn -0.621482 0.7353587 -0.2701997
vn -0.6216561 0.7352896 -0.2699867
vn -0.6598961 0.7184151 -0.2200383
vn -0.6601645 0.7182829 -0.2196648
vn -0.6994311 0.6965029 -0.1602495
vn -0.699838 0.6962472 -0.159582
vn -0.7397726 0.6671759 -0.0872518
vn -0.740502 0.6665557 -0.0857916
vn -0.7803735 0.6252962 0.004672345
vn -0.7817362 0.623555 0.008219549
vn -0.8114546 0.5751309 0.1037593
vn -0.8121554 0.573608 0.1066649
vn -0.8273523 0.5289546 0.1889317
vn -0.8274946 0.5283356 0.1900372
vn -0.8336632 0.4894474 0.2558262
vn -0.833678 0.4892893 0.2560801
vn -0.835939 0.4553344 0.3063929
vn -0.8359339 0.4554506 0.3062342
vn -0.8376591 0.4253676 0.3426217
vn -0.8376349 0.4256947 0.3422746
vn -0.8410226 0.3987186 0.3656563
vn -0.840925 0.3992635 0.3652858
vn -0.8475093 0.375288 0.3753491
vn -0.847205 0.3761084 0.3752148
vn -0.8580736 0.356254 0.3698551
vn -0.8572695 0.3573477 0.370664
vn -0.8673282 0.346475 0.3573471
vn -0.8669701 0.3467267 0.3579715
vn -0.8710332 0.3403002 0.3542554
vn -0.8710198 0.3403885 0.3542036
vn -0.8719012 0.3291993 0.3625138
vn -0.8718889 0.3294929 0.3622764
vn -0.872741 0.3102748 0.3768986
vn -0.8727071 0.3111165 0.3762828
vn -0.8739606 0.2825501 0.3954218
vn -0.8738856 0.2844287 0.394239
vn -0.8755803 0.2461039 0.4156826
vn -0.8754388 0.2495956 0.4138949
vn -0.8775659 0.2026894 0.4345054
vn -0.87735 0.2078168 0.4325147
vn -0.8797961 0.1560447 0.4490088
vn -0.8795503 0.161509 0.4475558
vn -0.8821236 0.109755 0.4580519
vn -0.8819219 0.1138787 0.4574335
vn -0.884437 0.06417254 0.4622263
vn -0.8842801 0.06739576 0.4620678
vn -0.8866221 0.01429501 0.4622734
vn -0.8864928 0.01807505 0.4623893
vn -0.8876972 -0.02714598 0.4596267
vn -0.8876633 -0.02548205 0.4597875
vn -0.8881689 -0.05591529 0.4561025
vn -0.8881592 -0.05523622 0.456204
vn -0.8884428 -0.07606019 0.4526414
vn -0.8884382 -0.07575402 0.4527018
vn -0.8886939 -0.08934529 0.4497117
vn -0.8886903 -0.08920821 0.4497459
vn -0.8890023 -0.09701948 0.4475065
vn -0.8889989 -0.0969677 0.4475245
vn -0.8893945 -0.0998612 0.4461
vn -0.8893912 -0.09985565 0.4461076
vn -0.8898628 -0.09826825 0.4455195
vn -0.8898599 -0.09828891 0.4455207
vn -0.89037 -0.09233566 0.4457752
vn -0.8903677 -0.09237032 0.4457724
vn -0.8908437 -0.08187916 0.4468705
vn -0.8908424 -0.08191822 0.446866
vn -0.8911587 -0.06640378 0.4488057
vn -0.8911585 -0.06643519 0.4488018
vn -0.8911014 -0.04504758 0.4515629
vn -0.8911014 -0.04504999 0.4515625
vn -0.8903028 -0.0164653 0.4550714
vn -0.8902997 -0.01639356 0.4550798
vn -0.8881119 0.02136561 0.4591303
vn -0.8880932 0.02161607 0.4591548
vn -0.883349 0.07145246 0.4632376
vn -0.8832685 0.07214139 0.4632842
vn -0.8749325 0.1270653 0.4672767
vn -0.874821 0.1276665 0.4673215
vn -0.8646038 0.1737238 0.4714662
vn -0.8645626 0.1738815 0.4714834
vn -0.8529761 0.2149724 0.4756246
vn -0.8529613 0.215021 0.475629
vn -0.838496 0.2592212 0.4793003
vn -0.8385304 0.2591234 0.4792931
vn -0.8202292 0.3072671 0.4825048
vn -0.8203627 0.3069407 0.4824858
vn -0.7967554 0.3600897 0.4853001
vn -0.7970933 0.3593842 0.4852683
vn -0.7660302 0.4187181 0.4877222
vn -0.766803 0.4173548 0.4876764
vn -0.7250715 0.4841273 0.4897878
vn -0.726814 0.4815685 0.4897277
vn -0.6694456 0.5570098 0.4915104
vn -0.673509 0.5521523 0.4914401
vn -0.5922544 0.6373733 0.4929402
vn -0.6023192 0.6279162 0.4928821
vn -0.4859848 0.7213489 0.4934314
vn -0.5081461 0.7057404 0.4936781
vn -0.3677583 0.7907838 0.4893004
vn -0.3966056 0.775699 0.4909125
vn -0.2607071 0.8375578 0.480134
vn -0.2793644 0.8303657 0.4821288
vn -0.1420075 0.8727766 0.4670064
vn -0.1600706 0.8684605 0.4692053
vn -0.02823924 0.8911698 0.4527902
vn -0.04293096 0.8895749 0.4547673
vn 0.07722215 0.8955313 0.438247
vn 0.06667421 0.8956233 0.4397879
vn 0.1724513 0.8890949 0.4239939
vn 0.16539 0.8899078 0.4251003
vn 0.2564887 0.8750389 0.4105123
vn 0.2519064 0.8760111 0.4112755
vn 0.3293487 0.8561782 0.3981058
vn 0.3264024 0.8570652 0.3986236
vn 0.3918201 0.8347357 0.3869022
vn 0.3899192 0.835463 0.3872524
vn 0.4427623 0.813362 0.3773645
vn 0.4417572 0.8138196 0.3775557
vn 0.462358 0.8041825 0.3735178
vn 0.462358 0.8041825 0.3735178
g Plane002_0
f 3/3/3 2/2/2 1/1/1
f 2/2/2 4/4/4 1/1/1
f 2/2/2 5/5/5 4/4/4
f 5/5/5 6/6/6 4/4/4
f 5/5/5 7/7/7 6/6/6
f 7/7/7 8/8/8 6/6/6
f 7/7/7 9/9/9 8/8/8
f 9/9/9 10/10/10 8/8/8
f 9/9/9 11/11/11 10/10/10
f 11/11/11 12/12/12 10/10/10
f 11/11/11 13/13/13 12/12/12
f 13/13/13 14/14/14 12/12/12
f 13/13/13 15/15/15 14/14/14
f 15/15/15 16/16/16 14/14/14
f 15/15/15 17/17/17 16/16/16
f 17/17/17 18/18/18 16/16/16
f 17/17/17 19/19/19 18/18/18
f 19/19/19 20/20/20 18/18/18
f 19/19/19 21/21/21 20/20/20
f 21/21/21 22/22/22 20/20/20
f 21/21/21 23/23/23 22/22/22
f 23/23/23 24/24/24 22/22/22
f 23/23/23 25/25/25 24/24/24
f 25/25/25 26/26/26 24/24/24
f 25/25/25 27/27/27 26/26/26
f 27/27/27 28/28/28 26/26/26
f 27/27/27 29/29/29 28/28/28
f 29/29/29 30/30/30 28/28/28
f 29/29/29 31/31/31 30/30/30
f 31/31/31 32/32/32 30/30/30
f 31/31/31 33/33/33 32/32/32
f 33/33/33 34/34/34 32/32/32
f 33/33/33 35/35/35 34/34/34
f 35/35/35 36/36/36 34/34/34
f 35/35/35 37/37/37 36/36/36
f 37/37/37 38/38/38 36/36/36
f 37/37/37 39/39/39 38/38/38
f 39/39/39 40/40/40 38/38/38
f 39/39/39 41/41/41 40/40/40
f 41/41/41 42/42/42 40/40/40
f 41/41/41 43/43/43 42/42/42
f 43/43/43 44/44/44 42/42/42
f 43/43/43 45/45/45 44/44/44
f 45/45/45 46/46/46 44/44/44
f 45/45/45 47/47/47 46/46/46
f 47/47/47 48/48/48 46/46/46
f 47/47/47 49/49/49 48/48/48
f 49/49/49 50/50/50 48/48/48
f 49/49/49 51/51/51 50/50/50
f 51/51/51 52/52/52 50/50/50
f 51/51/51 53/53/53 52/52/52
f 53/53/53 54/54/54 52/52/52
f 53/53/53 55/55/55 54/54/54
f 55/55/55 56/56/56 54/54/54
f 55/55/55 57/57/57 56/56/56
f 57/57/57 58/58/58 56/56/56
f 57/57/57 59/59/59 58/58/58
f 59/59/59 60/60/60 58/58/58
f 59/59/59 61/61/61 60/60/60
f 61/61/61 62/62/62 60/60/60
f 61/61/61 63/63/63 62/62/62
f 63/63/63 64/64/64 62/62/62
f 63/63/63 65/65/65 64/64/64
f 65/65/65 66/66/66 64/64/64
f 65/65/65 67/67/67 66/66/66
f 67/67/67 68/68/68 66/66/66
f 67/67/67 69/69/69 68/68/68
f 69/69/69 70/70/70 68/68/68
f 69/69/69 71/71/71 70/70/70
f 71/71/71 72/72/72 70/70/70
f 71/71/71 73/73/73 72/72/72
f 73/73/73 74/74/74 72/72/72
f 73/73/73 75/75/75 74/74/74
f 75/75/75 76/76/76 74/74/74
f 75/75/75 77/77/77 76/76/76
f 77/77/77 78/78/78 76/76/76
f 77/77/77 79/79/79 78/78/78
f 79/79/79 80/80/80 78/78/78
f 79/79/79 81/81/81 80/80/80
f 81/81/81 82/82/82 80/80/80
f 81/81/81 83/83/83 82/82/82
f 83/83/83 84/84/84 82/82/82
f 83/83/83 85/85/85 84/84/84
f 85/85/85 86/86/86 84/84/84
f 85/85/85 87/87/87 86/86/86
f 87/87/87 88/88/88 86/86/86
f 87/87/87 89/89/89 88/88/88
f 89/89/89 90/90/90 88/88/88
f 89/89/89 91/91/91 90/90/90
f 91/91/91 92/92/92 90/90/90
f 91/91/91 93/93/93 92/92/92
f 93/93/93 94/94/94 92/92/92
f 93/93/93 95/95/95 94/94/94
f 95/95/95 96/96/96 94/94/94
f 95/95/95 97/97/97 96/96/96
f 97/97/97 98/98/98 96/96/96
f 97/97/97 99/99/99 98/98/98
f 99/99/99 100/100/100 98/98/98
f 99/99/99 101/101/101 100/100/100
f 101/101/101 102/102/102 100/100/100
f 101/101/101 103/103/103 102/102/102
f 103/103/103 104/104/104 102/102/102
f 103/103/103 105/105/105 104/104/104
f 105/105/105 106/106/106 104/104/104
f 105/105/105 107/107/107 106/106/106
f 107/107/107 108/108/108 106/106/106
f 107/107/107 109/109/109 108/108/108
f 109/109/109 110/110/110 108/108/108
f 109/109/109 111/111/111 110/110/110
f 111/111/111 112/112/112 110/110/110
f 111/111/111 113/113/113 112/112/112
f 113/113/113 114/114/114 112/112/112
f 113/113/113 115/115/115 114/114/114
f 115/115/115 116/116/116 114/114/114
f 115/115/115 117/117/117 116/116/116
f 117/117/117 118/118/118 116/116/116
f 117/117/117 119/119/119 118/118/118
f 119/119/119 120/120/120 118/118/118
f 119/119/119 121/121/121 120/120/120
f 121/121/121 122/122/122 120/120/120
f 121/121/121 123/123/123 122/122/122
f 123/123/123 124/124/124 122/122/122
f 123/123/123 125/125/125 124/124/124
f 125/125/125 126/126/126 124/124/124
f 125/125/125 127/127/127 126/126/126
f 127/127/127 128/128/128 126/126/126
f 127/127/127 129/129/129 128/128/128
f 129/129/129 130/130/130 128/128/128
f 129/129/129 131/131/131 130/130/130
f 131/131/131 132/132/132 130/130/130
f 131/131/131 133/133/133 132/132/132
f 133/133/133 134/134/134 132/132/132
f 133/133/133 135/135/135 134/134/134
f 135/135/135 136/136/136 134/134/134
f 135/135/135 137/137/137 136/136/136
f 137/137/137 138/138/138 136/136/136
f 137/137/137 139/139/139 138/138/138
f 139/139/139 140/140/140 138/138/138
f 139/139/139 141/141/141 140/140/140
f 141/141/141 142/142/142 140/140/140
f 141/141/141 143/143/143 142/142/142
f 143/143/143 144/144/144 142/142/142
f 143/143/143 145/145/145 144/144/144
f 145/145/145 146/146/146 144/144/144
f 145/145/145 147/147/147 146/146/146
f 147/147/147 148/148/148 146/146/146
f 147/147/147 149/149/149 148/148/148
f 149/149/149 150/150/150 148/148/148
f 149/149/149 151/151/151 150/150/150
f 151/151/151 152/152/152 150/150/150
f 151/151/151 153/153/153 152/152/152
f 153/153/153 154/154/154 152/152/152
f 153/153/153 155/155/155 154/154/154
f 155/155/155 156/156/156 154/154/154
f 155/155/155 157/157/157 156/156/156
f 157/157/157 158/158/158 156/156/156
f 157/157/157 159/159/159 158/158/158
f 159/159/159 160/160/160 158/158/158
f 159/159/159 161/161/161 160/160/160
f 161/161/161 162/162/162 160/160/160
f 161/161/161 163/163/163 162/162/162
f 163/163/163 164/164/164 162/162/162
f 163/163/163 165/165/165 164/164/164
f 165/165/165 166/166/166 164/164/164
f 165/165/165 167/167/167 166/166/166
f 167/167/167 168/168/168 166/166/166
f 167/167/167 169/169/169 168/168/168
f 169/169/169 170/170/170 168/168/168
f 169/169/169 171/171/171 170/170/170
f 171/171/171 172/172/172 170/170/170
f 171/171/171 173/173/173 172/172/172
f 173/173/173 174/174/174 172/172/172
f 173/173/173 175/175/175 174/174/174
f 175/175/175 176/176/176 174/174/174
f 175/175/175 177/177/177 176/176/176
f 177/177/177 178/178/178 176/176/176
f 177/177/177 179/179/179 178/178/178
f 179/179/179 180/180/180 178/178/178
f 179/179/179 181/181/181 180/180/180
f 181/181/181 182/182/182 180/180/180
f 181/181/181 183/183/183 182/182/182
f 183/183/183 184/184/184 182/182/182
f 183/183/183 185/185/185 184/184/184
f 185/185/185 186/186/186 184/184/184
f 185/185/185 187/187/187 186/186/186
f 187/187/187 188/188/188 186/186/186
f 187/187/187 189/189/189 188/188/188
f 189/189/189 190/190/190 188/188/188
f 189/189/189 191/191/191 190/190/190
f 191/191/191 192/192/192 190/190/190
f 191/191/191 193/193/193 192/192/192
f 193/193/193 194/194/194 192/192/192
f 193/193/193 195/195/195 194/194/194
f 195/195/195 196/196/196 194/194/194
f 195/195/195 197/197/197 196/196/196
f 197/197/197 198/198/198 196/196/196
f 197/197/197 199/199/199 198/198/198
f 199/199/199 200/200/200 198/198/198
f 199/199/199 201/201/201 200/200/200
f 201/201/201 202/202/202 200/200/200
