g Plane001
v -0.4343653 -0.02842653 0.1366865
v -0.4639386 -0.0587228 0.1045598
v -0.4343653 -0.04201181 0.1414964
v -0.4642816 -0.039704 0.09734062
v -0.495957 -0.07572222 0.07302979
v -0.4973959 -0.05171173 0.06274521
v -0.5272236 -0.0914537 0.05156303
v -0.5308347 -0.06299108 0.03772346
v -0.5574646 -0.1058368 0.03999626
v -0.564873 -0.07362272 0.02243866
v -0.5887154 -0.1191309 0.03795059
v -0.5988303 -0.08291647 0.01733177
v -0.6281707 -0.1274123 0.04632751
v -0.6388715 -0.08669428 0.02282478
v -0.6644978 -0.1326587 0.06410698
v -0.6844794 -0.0894857 0.03978348
v -0.6867867 -0.1387551 0.08764343
v -0.7274179 -0.1000868 0.07094269
v -0.6909775 -0.1455447 0.1133032
v -0.7525576 -0.130908 0.1183569
v -0.6877234 -0.159013 0.1344057
v -0.7537828 -0.1485516 0.1484923
v -0.6802195 -0.1761401 0.1625445
v -0.7498536 -0.1684296 0.1833449
v -0.6687186 -0.1959498 0.195108
v -0.7415189 -0.1906489 0.2217232
v -0.6537149 -0.2177486 0.2298647
v -0.7292852 -0.2150331 0.2620549
v -0.6357754 -0.2409031 0.2647212
v -0.7135876 -0.2413456 0.3026297
v -0.615525 -0.2647482 0.2976411
v -0.6948019 -0.2693824 0.3416806
v -0.5936776 -0.2885122 0.3266391
v -0.6732157 -0.2990445 0.3773889
v -0.5711031 -0.3112274 0.3498529
v -0.6489994 -0.3303868 0.4077757
v -0.5485322 -0.3344507 0.3675905
v -0.6265664 -0.3576363 0.4304198
v -0.5233469 -0.3603023 0.384685
v -0.6012217 -0.3876427 0.4521489
v -0.4960651 -0.3877854 0.4005663
v -0.573263 -0.4195746 0.4725657
v -0.4672224 -0.4159003 0.4146982
v -0.5429708 -0.4526046 0.4912395
v -0.4373941 -0.4436349 0.4265674
v -0.5105858 -0.4859155 0.5077158
v -0.4072271 -0.4699626 0.4356879
v -0.4762771 -0.5187066 0.5215132
v -0.3774839 -0.4938438 0.4416232
v -0.4400979 -0.5501895 0.5321011
v -0.3491034 -0.5142555 0.4440405
v -0.4019254 -0.5795591 0.5388446
v -0.3232508 -0.5302906 0.4428214
v -0.3614098 -0.6058949 0.540895
v -0.2971005 -0.543066 0.4383307
v -0.3191353 -0.6288818 0.5366853
v -0.2679248 -0.5549068 0.4300202
v -0.2760704 -0.6487573 0.5267934
v -0.2365565 -0.5655566 0.4180004
v -0.2325944 -0.665674 0.5123232
v -0.2036422 -0.5747821 0.4026509
v -0.1890633 -0.6798315 0.4941047
v -0.1698569 -0.5824057 0.3844658
v -0.1458051 -0.6913725 0.4728538
v -0.1358684 -0.5883036 0.3640083
v -0.1031545 -0.7003869 0.4492155
v -0.1023323 -0.5923948 0.3418858
v -0.06145939 -0.7069202 0.4237938
v -0.06989574 -0.5946373 0.3187336
v -0.02107445 -0.710981 0.3971615
v -0.03921078 -0.5950266 0.2952113
v 0.01764912 -0.7125392 0.3698691
v -0.01126152 -0.5933244 0.2726823
v 0.05358547 -0.7117885 0.3426285
v 0.01743229 -0.58961 0.2483134
v 0.08951664 -0.7086217 0.3135444
v 0.0465498 -0.5840274 0.2221149
v 0.1254033 -0.7031657 0.2825636
v 0.07533344 -0.5767157 0.1945332
v 0.1607213 -0.6955714 0.2498959
v 0.1030553 -0.5678394 0.166019
v 0.1949195 -0.6859625 0.2157449
v 0.1290086 -0.5575874 0.1370417
v 0.2274238 -0.6744394 0.1802967
v 0.1525102 -0.5461769 0.1081041
v 0.2576374 -0.661074 0.1437038
v 0.1729129 -0.5338615 0.07975769
v 0.2849272 -0.6459018 0.1060696
v 0.1896366 -0.5209432 0.05261856
v 0.3085926 -0.6289095 0.06743347
v 0.2021002 -0.5079156 0.02735428
v 0.3280827 -0.6096539 0.02722015
v 0.2103238 -0.4941759 0.0008298492
v 0.3421228 -0.5875548 -0.01614769
v 0.2153069 -0.478363 -0.02892265
v 0.3499559 -0.5644547 -0.05980656
v 0.2173406 -0.4605288 -0.06118996
v 0.3531885 -0.5403366 -0.1030173
v 0.2169272 -0.4407872 -0.0950949
v 0.3532164 -0.5151188 -0.1452056
v 0.2147361 -0.4192509 -0.1297553
v 0.351268 -0.4887224 -0.1858031
v 0.2115415 -0.395999 -0.1643514
v 0.3484673 -0.4611015 -0.2241782
v 0.2081789 -0.3710548 -0.1981551
v 0.3458766 -0.4322663 -0.2596075
v 0.2055313 -0.3443511 -0.2305449
v 0.344511 -0.402317 -0.2912614
v 0.2045559 -0.3156728 -0.2610067
v 0.3453112 -0.3715024 -0.3182025
v 0.2061353 -0.2852938 -0.2877031
v 0.3466346 -0.3403403 -0.3445319
v 0.2077923 -0.2554798 -0.3128955
v 0.3477188 -0.3086281 -0.3708281
v 0.2094329 -0.2256612 -0.3363688
v 0.3487327 -0.2756156 -0.3962262
v 0.2111135 -0.1951426 -0.357721
v 0.3497354 -0.2405641 -0.4200796
v 0.2128916 -0.1631793 -0.3766173
v 0.3507853 -0.2027821 -0.441677
v 0.2148269 -0.1289407 -0.3927595
v 0.351938 -0.1616652 -0.4602691
v 0.2169832 -0.09149837 -0.4058296
v 0.3532449 -0.1167069 -0.4751268
v 0.219429 -0.04986324 -0.4154253
v 0.3547538 -0.06746057 -0.4856051
v 0.2222338 -0.003061628 -0.4210342
v 0.3565103 -0.01346698 -0.491169
v 0.2244909 0.03237345 -0.4221231
v 0.3575809 0.02998834 -0.4915249
v 0.2261284 0.06521664 -0.4204938
v 0.3577385 0.06910242 -0.4886569
v 0.2275004 0.1018746 -0.4166174
v 0.3574269 0.1100416 -0.4833474
v 0.2286991 0.141635 -0.410734
v 0.3567998 0.152637 -0.476001
v 0.2298337 0.1838816 -0.4031322
v 0.3559941 0.1966264 -0.4669723
v 0.2310213 0.2280575 -0.3941223
v 0.3551384 0.241683 -0.4565955
v 0.2323834 0.273649 -0.3840235
v 0.3543576 0.2874419 -0.445195
v 0.2340438 0.3201696 -0.3731587
v 0.3537734 0.3335084 -0.4330918
v 0.2361286 0.3671544 -0.3618526
v 0.3535067 0.3794675 -0.4206052
v 0.2387653 0.4141538 -0.3504307
v 0.3536747 0.424885 -0.4080545
v 0.2420847 0.4607388 -0.3392178
v 0.3543937 0.469315 -0.395757
v 0.2462217 0.5064924 -0.3285418
v 0.3557741 0.5122891 -0.3840304
v 0.2513189 0.551022 -0.3187321
v 0.3579197 0.5533216 -0.3731884
v 0.2575319 0.5939606 -0.3101259
v 0.3609211 0.5918981 -0.3635378
v 0.2650396 0.6349796 -0.3030745
v 0.3648452 0.6274674 -0.3553718
v 0.2740649 0.6737998 -0.2979603
v 0.3697147 0.6594263 -0.3489514
v 0.2879215 0.7239397 -0.2924901
v 0.3793096 0.7057935 -0.342259
v 0.3034682 0.7733651 -0.2883559
v 0.3903682 0.7517043 -0.3367486
v 0.3206317 0.8211735 -0.2855215
v 0.4027622 0.7960691 -0.33239
v 0.3394696 0.8669669 -0.2838662
v 0.4164981 0.8384605 -0.329077
v 0.360049 0.9103451 -0.2832711
v 0.4315748 0.8784591 -0.3267004
v 0.3824458 0.950895 -0.2836193
v 0.4479795 0.9156505 -0.3251506
v 0.4067495 0.9881913 -0.2847947
v 0.465689 0.9496403 -0.3243163
v 0.4330578 1.021776 -0.2866808
v 0.4846683 0.9800596 -0.3240861
v 0.4614694 1.051144 -0.2891603
v 0.5048851 1.006591 -0.3243508
v 0.4920499 1.075717 -0.2921108
v 0.5263374 1.02899 -0.3250051
v 0.5251837 1.095153 -0.2955236
v 0.5498036 1.047467 -0.325938
v 0.5617569 1.110331 -0.3000082
v 0.5778359 1.063433 -0.3273257
v 0.5998417 1.120289 -0.30529
v 0.60829 1.075704 -0.3294328
v 0.6392265 1.125135 -0.3113272
v 0.6413779 1.084172 -0.3323009
v 0.6797947 1.125042 -0.3180846
v 0.6772175 1.088666 -0.3359655
v 0.721526 1.120191 -0.32554
v 0.7158266 1.089002 -0.3404483
v 0.7644747 1.110736 -0.3336847
v 0.7571533 1.085029 -0.3457586
v 0.8087317 1.096788 -0.3425196
v 0.8011061 1.076633 -0.3518951
v 0.8543971 1.078416 -0.3520518
v 0.8475842 1.063747 -0.358851
v 0.9015656 1.055658 -0.3622905
v 0.8964926 1.046332 -0.3666168
v 0.9455466 1.031156 -0.3722836
v 0.9430633 1.026954 -0.3742376
vt 0 0
vt 1 0.01
vt 1 0
vt 0 0.01
vt 1 0.02
vt 0 0.02
vt 1 0.03
vt 0 0.03
vt 1 0.04
vt 0 0.04
vt 1 0.05
vt 0 0.05
vt 1 0.05999999
vt 0 0.05999999
vt 1 0.06999999
vt 0 0.06999999
vt 1 0.07999999
vt 0 0.07999999
vt 1 0.08999999
vt 0 0.08999999
vt 1 0.09999999
vt 0 0.09999999
vt 1 0.11
vt 0 0.11
vt 1 0.12
vt 0 0.12
vt 1 0.13
vt 0 0.13
vt 1 0.14
vt 0 0.14
vt 1 0.15
vt 0 0.15
vt 1 0.16
vt 0 0.16
vt 1 0.17
vt 0 0.17
vt 1 0.18
vt 0 0.18
vt 1 0.19
vt 0 0.19
vt 1 0.2
vt 0 0.2
vt 1 0.21
vt 0 0.21
vt 1 0.22
vt 0 0.22
vt 1 0.23
vt 0 0.23
vt 1 0.24
vt 0 0.24
vt 1 0.25
vt 0 0.25
vt 1 0.26
vt 0 0.26
vt 1 0.27
vt 0 0.27
vt 1 0.28
vt 0 0.28
vt 1 0.29
vt 0 0.29
vt 1 0.3
vt 0 0.3
vt 1 0.31
vt 0 0.31
vt 1 0.32
vt 0 0.32
vt 1 0.33
vt 0 0.33
vt 1 0.3399999
vt 0 0.3399999
vt 1 0.3499999
vt 0 0.3499999
vt 1 0.3599999
vt 0 0.3599999
vt 1 0.3699999
vt 0 0.3699999
vt 1 0.3799999
vt 0 0.3799999
vt 1 0.3899999
vt 0 0.3899999
vt 1 0.3999999
vt 0 0.3999999
vt 1 0.4099999
vt 0 0.4099999
vt 1 0.4199999
vt 0 0.4199999
vt 1 0.4299999
vt 0 0.4299999
vt 1 0.4399998
vt 0 0.4399998
vt 1 0.4499998
vt 0 0.4499998
vt 1 0.4599998
vt 0 0.4599998
vt 1 0.4699998
vt 0 0.4699998
vt 1 0.4799998
vt 0 0.4799998
vt 1 0.4899998
vt 0 0.4899998
vt 1 0.4999998
vt 0 0.4999998
vt 1 0.5099998
vt 0 0.5099998
vt 1 0.5199998
vt 0 0.5199998
vt 1 0.5299998
vt 0 0.5299998
vt 1 0.5399998
vt 0 0.5399998
vt 1 0.5499998
vt 0 0.5499998
vt 1 0.5599998
vt 0 0.5599998
vt 1 0.5699998
vt 0 0.5699998
vt 1 0.5799997
vt 0 0.5799997
vt 1 0.5899997
vt 0 0.5899997
vt 1 0.5999997
vt 0 0.5999997
vt 1 0.6099997
vt 0 0.6099997
vt 1 0.6199997
vt 0 0.6199997
vt 1 0.6299997
vt 0 0.6299997
vt 1 0.6399997
vt 0 0.6399997
vt 1 0.6499997
vt 0 0.6499997
vt 1 0.6599997
vt 0 0.6599997
vt 1 0.6699997
vt 0 0.6699997
vt 1 0.6799996
vt 0 0.6799996
vt 1 0.6899996
vt 0 0.6899996
vt 1 0.6999996
vt 0 0.6999996
vt 1 0.7099996
vt 0 0.7099996
vt 1 0.7199996
vt 0 0.7199996
vt 1 0.7299996
vt 0 0.7299996
vt 1 0.7399996
vt 0 0.7399996
vt 1 0.7499996
vt 0 0.7499996
vt 1 0.7599996
vt 0 0.7599996
vt 1 0.7699996
vt 0 0.7699996
vt 1 0.7799996
vt 0 0.7799996
vt 1 0.7899995
vt 0 0.7899995
vt 1 0.7999995
vt 0 0.7999995
vt 1 0.8099995
vt 0 0.8099995
vt 1 0.8199995
vt 0 0.8199995
vt 1 0.8299995
vt 0 0.8299995
vt 1 0.8399995
vt 0 0.8399995
vt 1 0.8499995
vt 0 0.8499995
vt 1 0.8599995
vt 0 0.8599995
vt 1 0.8699995
vt 0 0.8699995
vt 1 0.8799995
vt 0 0.8799995
vt 1 0.8899994
vt 0 0.8899994
vt 1 0.8999994
vt 0 0.8999994
vt 1 0.9099994
vt 0 0.9099994
vt 1 0.9199994
vt 0 0.9199994
vt 1 0.9299994
vt 0 0.9299994
vt 1 0.9399994
vt 0 0.9399994
vt 1 0.9499994
vt 0 0.9499994
vt 1 0.9599994
vt 0 0.9599994
vt 1 0.9699994
vt 0 0.9699994
vt 1 0.9799994
vt 0 0.9799994
vt 1 0.9899994
vt 0 0.9899994
vt 1 0.9999993
vt 0 0.9999993
vn 0.8068472 -0.1969958 -0.5569472
vn 0.774027 -0.2124261 -0.596454
vn 0.8068472 -0.1969958 -0.5569472
vn 0.7741669 -0.2123638 -0.5962945
vn 0.6874245 -0.2506849 -0.6816191
vn 0.6875843 -0.2506175 -0.6814827
vn 0.5514342 -0.3071015 -0.7756346
vn 0.5517837 -0.306964 -0.7754405
vn 0.3544546 -0.3855282 -0.8518978
vn 0.3540962 -0.3856652 -0.8519849
vn 0.08003659 -0.4757813 -0.8759145
vn 0.07830802 -0.4762486 -0.8758169
vn -0.1826804 -0.5351484 -0.824769
vn -0.1790133 -0.5344527 -0.8260232
vn -0.343754 -0.5948454 -0.7266307
vn -0.3408251 -0.5929086 -0.7295874
vn -0.3705505 -0.7084953 -0.6006052
vn -0.3721649 -0.7044187 -0.6043904
vn -0.2906696 -0.8051392 -0.5169739
vn -0.2846405 -0.8087056 -0.5147573
vn -0.2357875 -0.8460229 -0.478173
vn -0.2357888 -0.8460178 -0.4781813
vn -0.2305702 -0.8605047 -0.4542786
vn -0.2305716 -0.8605024 -0.4542822
vn -0.2265441 -0.8642741 -0.4491192
vn -0.2265464 -0.8642741 -0.4491179
vn -0.2245623 -0.8609357 -0.4564662
vn -0.2245634 -0.8609437 -0.4564506
vn -0.2252093 -0.8508813 -0.4746386
vn -0.2252054 -0.8509067 -0.474595
vn -0.2296784 -0.8323929 -0.5043509
vn -0.2296599 -0.8324584 -0.5042515
vn -0.2405942 -0.801128 -0.5480041
vn -0.2405316 -0.8012944 -0.5477882
vn -0.2622623 -0.76002 -0.5946327
vn -0.2624829 -0.759682 -0.5949672
vn -0.2882446 -0.7250525 -0.6254709
vn -0.2882135 -0.725087 -0.6254454
vn -0.3094706 -0.7019196 -0.6415114
vn -0.3094435 -0.7019483 -0.641493
vn -0.3269844 -0.6838393 -0.6522613
vn -0.3269579 -0.6838658 -0.6522471
vn -0.342189 -0.6694773 -0.6593229
vn -0.3421601 -0.6695031 -0.6593118
vn -0.3560256 -0.6580546 -0.6634831
vn -0.3559912 -0.6580806 -0.6634758
vn -0.3691437 -0.6492227 -0.6650134
vn -0.3690997 -0.6492487 -0.6650124
vn -0.3819278 -0.6430676 -0.6637735
vn -0.3818685 -0.64309 -0.6637859
vn -0.3943381 -0.6402431 -0.6592315
vn -0.3942578 -0.6402496 -0.6592733
vn -0.4079606 -0.6380018 -0.6530864
vn -0.4078826 -0.6380196 -0.6531177
vn -0.426743 -0.6314448 -0.6474317
vn -0.4266981 -0.631464 -0.6474426
vn -0.4463557 -0.6233578 -0.6420216
vn -0.4463341 -0.6233662 -0.6420284
vn -0.4609521 -0.6181937 -0.6366786
vn -0.4609412 -0.618197 -0.6366833
vn -0.471137 -0.6155509 -0.6317649
vn -0.4711311 -0.6155521 -0.6317682
vn -0.477511 -0.6147819 -0.6277152
vn -0.4775079 -0.6147819 -0.6277177
vn -0.4804671 -0.6154741 -0.6247743
vn -0.4804662 -0.6154731 -0.6247761
vn -0.4801569 -0.6173849 -0.6231254
vn -0.4801586 -0.6173828 -0.6231261
vn -0.4764587 -0.6203902 -0.6229792
vn -0.4764644 -0.6203866 -0.6229786
vn -0.4693131 -0.6232927 -0.6255009
vn -0.4693266 -0.6232892 -0.6254943
vn -0.4611311 -0.6243348 -0.6305268
vn -0.4611357 -0.6243349 -0.6305235
vn -0.4556456 -0.6239131 -0.634917
vn -0.455648 -0.6239135 -0.6349147
vn -0.4538748 -0.6233616 -0.6367244
vn -0.4538749 -0.6233619 -0.6367241
vn -0.4552249 -0.6231335 -0.6359835
vn -0.4552223 -0.6231335 -0.6359853
vn -0.4594747 -0.6234416 -0.6326164
vn -0.4594686 -0.623441 -0.6326215
vn -0.4666007 -0.6245359 -0.6262897
vn -0.4665895 -0.6245339 -0.6263
vn -0.4767142 -0.6267654 -0.6163673
vn -0.4766957 -0.6267608 -0.6163863
vn -0.4899915 -0.6306571 -0.6018138
vn -0.4899623 -0.6306476 -0.6018475
vn -0.5064998 -0.637499 -0.5805627
vn -0.5064509 -0.6374753 -0.5806313
vn -0.5276286 -0.6549218 -0.5410041
vn -0.5275716 -0.6548606 -0.5411338
vn -0.5451758 -0.6808772 -0.4890702
vn -0.5451946 -0.6809207 -0.4889887
vn -0.5518962 -0.702715 -0.4490015
vn -0.5518999 -0.7027442 -0.4489513
vn -0.5517427 -0.7156518 -0.4282785
vn -0.551739 -0.7156653 -0.4282608
vn -0.5483473 -0.7198991 -0.425512
vn -0.548341 -0.719899 -0.4255203
vn -0.5434073 -0.7151459 -0.4396305
vn -0.5433999 -0.7151332 -0.4396601
vn -0.537171 -0.7001518 -0.4703559
vn -0.537162 -0.7001252 -0.4704058
vn -0.5285599 -0.67243 -0.5181335
vn -0.5285464 -0.6723846 -0.5182063
vn -0.5148408 -0.6279629 -0.5836107
vn -0.5148169 -0.6278887 -0.5837117
vn -0.498562 -0.5779729 -0.6460521
vn -0.4985816 -0.5780337 -0.6459826
vn -0.4900658 -0.5510774 -0.6753882
vn -0.4900677 -0.5510854 -0.6753803
vn -0.4885615 -0.5350552 -0.6892195
vn -0.4885625 -0.5350748 -0.6892036
vn -0.487132 -0.5030331 -0.7139048
vn -0.4871332 -0.5030587 -0.713886
vn -0.4849759 -0.4541504 -0.7473592
vn -0.4849769 -0.454172 -0.7473454
vn -0.4820617 -0.3885633 -0.7852612
vn -0.4820618 -0.3885677 -0.7852588
vn -0.4784109 -0.3084107 -0.8221957
vn -0.4784098 -0.3083884 -0.8222048
vn -0.4741443 -0.2182286 -0.8529732
vn -0.474142 -0.21818 -0.8529871
vn -0.469485 -0.124242 -0.8741555
vn -0.4694818 -0.1241783 -0.8741663
vn -0.4649525 -0.03719375 -0.884554
vn -0.4649491 -0.03712712 -0.8845586
vn -0.4617329 0.03446114 -0.8863494
vn -0.4617254 0.03468465 -0.8863446
vn -0.4601247 0.08832321 -0.8834502
vn -0.460123 0.0884164 -0.8834417
vn -0.4594401 0.1270283 -0.8790783
vn -0.4594393 0.1270777 -0.8790715
vn -0.4589818 0.1567687 -0.8745051
vn -0.4589814 0.1567965 -0.8745003
vn -0.4585149 0.1799754 -0.8702718
vn -0.4585145 0.1799917 -0.8702685
vn -0.4579139 0.198265 -0.8666059
vn -0.4579135 0.198275 -0.8666038
vn -0.4571044 0.2127247 -0.8635993
vn -0.457104 0.2127309 -0.8635979
vn -0.4560347 0.2240801 -0.86129
vn -0.4560342 0.224084 -0.8612893
vn -0.4546602 0.2328056 -0.859701
vn -0.4546597 0.232808 -0.8597006
vn -0.4529358 0.2391819 -0.8588603
vn -0.4529354 0.2391833 -0.8588602
vn -0.4508114 0.2433175 -0.8588164
vn -0.450811 0.2433181 -0.8588164
vn -0.4482316 0.245151 -0.8596449
vn -0.4482313 0.2451511 -0.8596451
vn -0.445138 0.2444254 -0.8614572
vn -0.445138 0.2444254 -0.8614572
vn -0.4414846 0.2405961 -0.8644102
vn -0.4414853 0.2405971 -0.8644094
vn -0.4372802 0.2326987 -0.8686986
vn -0.4372827 0.2327044 -0.8686959
vn -0.4343946 0.2216507 -0.8730249
vn -0.4344013 0.2217175 -0.8730044
vn -0.4344552 0.2129039 -0.8751689
vn -0.4344545 0.2129066 -0.8751686
vn -0.4355141 0.2090833 -0.8755636
vn -0.4355138 0.2090843 -0.8755636
vn -0.4357358 0.2091291 -0.8754424
vn -0.435736 0.209128 -0.8754426
vn -0.4346963 0.2133482 -0.8749409
vn -0.4346974 0.2133448 -0.8749413
vn -0.4318757 0.2221913 -0.8741364
vn -0.4318781 0.2221844 -0.874137
vn -0.4264775 0.2362723 -0.8730936
vn -0.4264824 0.2362602 -0.8730944
vn -0.4172819 0.256352 -0.8718712
vn -0.4172922 0.2563312 -0.8718724
vn -0.4024621 0.2832177 -0.870524
vn -0.4024836 0.2831818 -0.8705257
vn -0.3793666 0.3174171 -0.8690958
vn -0.3794119 0.317356 -0.8690982
vn -0.3441415 0.358149 -0.8679262
vn -0.3442169 0.3580724 -0.8679278
vn -0.3003409 0.395339 -0.8680452
vn -0.3005356 0.3952067 -0.8680381
vn -0.2560809 0.4194814 -0.8708949
vn -0.2562044 0.4194318 -0.8708825
vn -0.2119036 0.4340045 -0.8756352
vn -0.2120203 0.433975 -0.8756215
vn -0.1683668 0.4422249 -0.8809596
vn -0.1684626 0.4422135 -0.8809469
vn -0.1274997 0.4447989 -0.8865087
vn -0.1275693 0.444799 -0.8864987
vn -0.09059577 0.4429241 -0.89197
vn -0.09064142 0.4429291 -0.8919629
vn -0.05819546 0.4379271 -0.8971249
vn -0.05822285 0.4379328 -0.8971204
vn -0.03026476 0.4309834 -0.9018522
vn -0.0302801 0.430988 -0.9018495
vn -0.006434203 0.4230019 -0.9061059
vn -0.006441992 0.4230048 -0.9061046
vn 0.01305967 0.4149566 -0.9097475
vn 0.01303113 0.4149696 -0.909742
vn 0.02184813 0.4109299 -0.9114051
vn 0.02184813 0.4109299 -0.9114051
g Plane001_0
f 3/3/3 2/2/2 1/1/1
f 2/2/2 4/4/4 1/1/1
f 2/2/2 5/5/5 4/4/4
f 5/5/5 6/6/6 4/4/4
f 5/5/5 7/7/7 6/6/6
f 7/7/7 8/8/8 6/6/6
f 7/7/7 9/9/9 8/8/8
f 9/9/9 10/10/10 8/8/8
f 9/9/9 11/11/11 10/10/10
f 11/11/11 12/12/12 10/10/10
f 11/11/11 13/13/13 12/12/12
f 13/13/13 14/14/14 12/12/12
f 13/13/13 15/15/15 14/14/14
f 15/15/15 16/16/16 14/14/14
f 15/15/15 17/17/17 16/16/16
f 17/17/17 18/18/18 16/16/16
f 17/17/17 19/19/19 18/18/18
f 19/19/19 20/20/20 18/18/18
f 19/19/19 21/21/21 20/20/20
f 21/21/21 22/22/22 20/20/20
f 21/21/21 23/23/23 22/22/22
f 23/23/23 24/24/24 22/22/22
f 23/23/23 25/25/25 24/24/24
f 25/25/25 26/26/26 24/24/24
f 25/25/25 27/27/27 26/26/26
f 27/27/27 28/28/28 26/26/26
f 27/27/27 29/29/29 28/28/28
f 29/29/29 30/30/30 28/28/28
f 29/29/29 31/31/31 30/30/30
f 31/31/31 32/32/32 30/30/30
f 31/31/31 33/33/33 32/32/32
f 33/33/33 34/34/34 32/32/32
f 33/33/33 35/35/35 34/34/34
f 35/35/35 36/36/36 34/34/34
f 35/35/35 37/37/37 36/36/36
f 37/37/37 38/38/38 36/36/36
f 37/37/37 39/39/39 38/38/38
f 39/39/39 40/40/40 38/38/38
f 39/39/39 41/41/41 40/40/40
f 41/41/41 42/42/42 40/40/40
f 41/41/41 43/43/43 42/42/42
f 43/43/43 44/44/44 42/42/42
f 43/43/43 45/45/45 44/44/44
f 45/45/45 46/46/46 44/44/44
f 45/45/45 47/47/47 46/46/46
f 47/47/47 48/48/48 46/46/46
f 47/47/47 49/49/49 48/48/48
f 49/49/49 50/50/50 48/48/48
f 49/49/49 51/51/51 50/50/50
f 51/51/51 52/52/52 50/50/50
f 51/51/51 53/53/53 52/52/52
f 53/53/53 54/54/54 52/52/52
f 53/53/53 55/55/55 54/54/54
f 55/55/55 56/56/56 54/54/54
f 55/55/55 57/57/57 56/56/56
f 57/57/57 58/58/58 56/56/56
f 57/57/57 59/59/59 58/58/58
f 59/59/59 60/60/60 58/58/58
f 59/59/59 61/61/61 60/60/60
f 61/61/61 62/62/62 60/60/60
f 61/61/61 63/63/63 62/62/62
f 63/63/63 64/64/64 62/62/62
f 63/63/63 65/65/65 64/64/64
f 65/65/65 66/66/66 64/64/64
f 65/65/65 67/67/67 66/66/66
f 67/67/67 68/68/68 66/66/66
f 67/67/67 69/69/69 68/68/68
f 69/69/69 70/70/70 68/68/68
f 69/69/69 71/71/71 70/70/70
f 71/71/71 72/72/72 70/70/70
f 71/71/71 73/73/73 72/72/72
f 73/73/73 74/74/74 72/72/72
f 73/73/73 75/75/75 74/74/74
f 75/75/75 76/76/76 74/74/74
f 75/75/75 77/77/77 76/76/76
f 77/77/77 78/78/78 76/76/76
f 77/77/77 79/79/79 78/78/78
f 79/79/79 80/80/80 78/78/78
f 79/79/79 81/81/81 80/80/80
f 81/81/81 82/82/82 80/80/80
f 81/81/81 83/83/83 82/82/82
f 83/83/83 84/84/84 82/82/82
f 83/83/83 85/85/85 84/84/84
f 85/85/85 86/86/86 84/84/84
f 85/85/85 87/87/87 86/86/86
f 87/87/87 88/88/88 86/86/86
f 87/87/87 89/89/89 88/88/88
f 89/89/89 90/90/90 88/88/88
f 89/89/89 91/91/91 90/90/90
f 91/91/91 92/92/92 90/90/90
f 91/91/91 93/93/93 92/92/92
f 93/93/93 94/94/94 92/92/92
f 93/93/93 95/95/95 94/94/94
f 95/95/95 96/96/96 94/94/94
f 95/95/95 97/97/97 96/96/96
f 97/97/97 98/98/98 96/96/96
f 97/97/97 99/99/99 98/98/98
f 99/99/99 100/100/100 98/98/98
f 99/99/99 101/101/101 100/100/100
f 101/101/101 102/102/102 100/100/100
f 101/101/101 103/103/103 102/102/102
f 103/103/103 104/104/104 102/102/102
f 103/103/103 105/105/105 104/104/104
f 105/105/105 106/106/106 104/104/104
f 105/105/105 107/107/107 106/106/106
f 107/107/107 108/108/108 106/106/106
f 107/107/107 109/109/109 108/108/108
f 109/109/109 110/110/110 108/108/108
f 109/109/109 111/111/111 110/110/110
f 111/111/111 112/112/112 110/110/110
f 111/111/111 113/113/113 112/112/112
f 113/113/113 114/114/114 112/112/112
f 113/113/113 115/115/115 114/114/114
f 115/115/115 116/116/116 114/114/114
f 115/115/115 117/117/117 116/116/116
f 117/117/117 118/118/118 116/116/116
f 117/117/117 119/119/119 118/118/118
f 119/119/119 120/120/120 118/118/118
f 119/119/119 121/121/121 120/120/120
f 121/121/121 122/122/122 120/120/120
f 121/121/121 123/123/123 122/122/122
f 123/123/123 124/124/124 122/122/122
f 123/123/123 125/125/125 124/124/124
f 125/125/125 126/126/126 124/124/124
f 125/125/125 127/127/127 126/126/126
f 127/127/127 128/128/128 126/126/126
f 127/127/127 129/129/129 128/128/128
f 129/129/129 130/130/130 128/128/128
f 129/129/129 131/131/131 130/130/130
f 131/131/131 132/132/132 130/130/130
f 131/131/131 133/133/133 132/132/132
f 133/133/133 134/134/134 132/132/132
f 133/133/133 135/135/135 134/134/134
f 135/135/135 136/136/136 134/134/134
f 135/135/135 137/137/137 136/136/136
f 137/137/137 138/138/138 136/136/136
f 137/137/137 139/139/139 138/138/138
f 139/139/139 140/140/140 138/138/138
f 139/139/139 141/141/141 140/140/140
f 141/141/141 142/142/142 140/140/140
f 141/141/141 143/143/143 142/142/142
f 143/143/143 144/144/144 142/142/142
f 143/143/143 145/145/145 144/144/144
f 145/145/145 146/146/146 144/144/144
f 145/145/145 147/147/147 146/146/146
f 147/147/147 148/148/148 146/146/146
f 147/147/147 149/149/149 148/148/148
f 149/149/149 150/150/150 148/148/148
f 149/149/149 151/151/151 150/150/150
f 151/151/151 152/152/152 150/150/150
f 151/151/151 153/153/153 152/152/152
f 153/153/153 154/154/154 152/152/152
f 153/153/153 155/155/155 154/154/154
f 155/155/155 156/156/156 154/154/154
f 155/155/155 157/157/157 156/156/156
f 157/157/157 158/158/158 156/156/156
f 157/157/157 159/159/159 158/158/158
f 159/159/159 160/160/160 158/158/158
f 159/159/159 161/161/161 160/160/160
f 161/161/161 162/162/162 160/160/160
f 161/161/161 163/163/163 162/162/162
f 163/163/163 164/164/164 162/162/162
f 163/163/163 165/165/165 164/164/164
f 165/165/165 166/166/166 164/164/164
f 165/165/165 167/167/167 166/166/166
f 167/167/167 168/168/168 166/166/166
f 167/167/167 169/169/169 168/168/168
f 169/169/169 170/170/170 168/168/168
f 169/169/169 171/171/171 170/170/170
f 171/171/171 172/172/172 170/170/170
f 171/171/171 173/173/173 172/172/172
f 173/173/173 174/174/174 172/172/172
f 173/173/173 175/175/175 174/174/174
f 175/175/175 176/176/176 174/174/174
f 175/175/175 177/177/177 176/176/176
f 177/177/177 178/178/178 176/176/176
f 177/177/177 179/179/179 178/178/178
f 179/179/179 180/180/180 178/178/178
f 179/179/179 181/181/181 180/180/180
f 181/181/181 182/182/182 180/180/180
f 181/181/181 183/183/183 182/182/182
f 183/183/183 184/184/184 182/182/182
f 183/183/183 185/185/185 184/184/184
f 185/185/185 186/186/186 184/184/184
f 185/185/185 187/187/187 186/186/186
f 187/187/187 188/188/188 186/186/186
f 187/187/187 189/189/189 188/188/188
f 189/189/189 190/190/190 188/188/188
f 189/189/189 191/191/191 190/190/190
f 191/191/191 192/192/192 190/190/190
f 191/191/191 193/193/193 192/192/192
f 193/193/193 194/194/194 192/192/192
f 193/193/193 195/195/195 194/194/194
f 195/195/195 196/196/196 194/194/194
f 195/195/195 197/197/197 196/196/196
f 197/197/197 198/198/198 196/196/196
f 197/197/197 199/199/199 198/198/198
f 199/199/199 200/200/200 198/198/198
f 199/199/199 201/201/201 200/200/200
f 201/201/201 202/202/202 200/200/200
