g Plane001
v -5.625 9.838211 -1.048398
v -5.625 10.96585 0.3283763
v -4.21875 10.96585 0.3283768
v -4.21875 9.838213 -1.204675
v -5.625 8.615818 -2.296091
v -2.8125 9.838207 -1.316302
v -2.8125 10.96585 0.3283758
v -1.40625 10.96585 0.3283753
v -4.21875 8.615816 -2.576408
v -5.625 7.310452 -3.392862
v -2.8125 8.615818 -2.776634
v -1.40625 9.838209 -1.383276
v -4.21875 7.310452 -3.763734
v -5.625 5.934681 -4.319096
v -2.8125 7.310453 -4.028643
v -4.21875 5.934681 -4.750306
v -5.625 4.501757 -5.057936
v -4.768372E-07 9.838209 -1.405602
v -4.768372E-07 10.96585 0.3283758
v 1.40625 10.96585 0.3283758
v -1.40625 8.615814 -2.896769
v -2.8125 5.934685 -5.058313
v -4.21875 4.501758 -5.525341
v -5.625 3.025476 -5.595756
v 4.768372E-07 8.615818 -2.936815
v 1.40625 9.838211 -1.383276
v -1.40625 7.310452 -4.187588
v -2.8125 4.501755 -5.8592
v -4.21875 3.025472 -6.082291
v -5.625 1.520058 -5.922536
v 0 7.31045 -4.240569
v -1.40625 5.934677 -5.243118
v -2.8125 3.025477 -6.429816
v -4.21875 1.520056 -6.41757
v -5.625 1.696253E-06 -6.032151
v 1.40625 8.615816 -2.89677
v 0 5.934679 -5.304719
v -1.40625 4.501754 -6.059517
v -2.8125 1.520054 -6.771165
v -4.21875 1.696253E-06 -6.52949
v -5.625 -1.520054 -5.922537
v 1.406249 7.31045 -4.187588
v 0 4.501758 -6.126289
v -1.40625 3.025474 -6.638331
v -2.8125 1.696253E-06 -6.884733
v -4.21875 -1.520056 -6.41757
v -5.625 -3.02547 -5.595757
v 1.40625 5.934681 -5.243118
v -9.536743E-07 3.025476 -6.707836
v -1.40625 1.520058 -6.983322
v -2.8125 -1.520056 -6.771166
v -4.21875 -3.025472 -6.082291
v -5.625 -4.501749 -5.057937
v 1.40625 4.501752 -6.059517
v -4.768372E-07 1.520059 -7.054042
v -1.40625 1.696253E-06 -7.097878
v -2.8125 -3.02547 -6.429816
v -4.21875 -4.501748 -5.525341
v -5.625 -5.934674 -4.319096
v 1.40625 3.025474 -6.638331
v 0 2.649927E-06 -7.168927
v -1.406251 -1.520054 -6.983323
v -2.8125 -4.501749 -5.859201
v -4.21875 -5.934675 -4.750307
v -5.625 -7.310448 -3.392862
v 1.40625 1.520056 -6.983323
v -4.768372E-07 -1.520053 -7.054042
v -1.40625 -3.025469 -6.638331
v -2.812501 -5.934675 -5.058314
v -4.21875 -7.310448 -3.763735
v -5.625 -8.615813 -2.296091
v 1.40625 1.696253E-06 -7.097879
v 4.768372E-07 -3.02547 -6.707836
v -1.40625 -4.501749 -6.059517
v -2.8125 -7.310447 -4.028643
v -4.21875 -8.615813 -2.576408
v -5.625 -9.838207 -1.048399
v 1.40625 -1.520054 -6.983323
v -4.768372E-07 -4.501749 -6.126289
v -1.40625 -5.934674 -5.243119
v -2.8125 -8.615813 -2.776634
v -4.21875 -9.838207 -1.204675
v -5.625 -10.96585 0.3283758
v -4.21875 -10.96585 0.3283763
v -2.8125 -10.96585 0.3283758
v -2.812501 -9.838207 -1.316302
v -1.406252 -7.310447 -4.187588
v -4.768372E-07 -5.934675 -5.30472
v -1.40625 -9.838207 -1.383276
v -1.40625 -10.96585 0.3283763
v -4.768372E-07 -10.96585 0.3283763
v -1.40625 -8.615813 -2.89677
v -9.536743E-07 -7.310448 -4.24057
v -9.536743E-07 -9.838206 -1.405602
v -4.768372E-07 -8.615813 -2.936815
v 1.406249 -9.838207 -1.383277
v 1.40625 -10.96585 0.3283768
v 2.8125 -10.96585 0.3283768
v 1.40625 -8.615814 -2.89677
v 1.406249 -7.310447 -4.187588
v 1.406252 -5.934673 -5.243118
v 2.812499 -9.838206 -1.316301
v 2.8125 -8.615814 -2.776634
v 4.218749 -9.838206 -1.204675
v 4.21875 -10.96585 0.3283768
v 5.625 -10.96585 0.3283768
v 5.624998 -9.838206 -1.048399
v 4.218751 -8.615814 -2.576408
v 5.624999 -8.615814 -2.296091
v 4.21875 -7.310447 -3.763734
v 5.624997 -7.310447 -3.392862
v 2.812497 -7.310448 -4.028643
v 4.218751 -5.934674 -4.750307
v 5.625001 -5.934673 -4.319096
v 2.812499 -5.934675 -5.058314
v 4.21875 -4.50175 -5.525341
v 5.625 -4.50175 -5.057936
v 1.40625 -4.50175 -6.059517
v 2.812501 -4.501749 -5.859201
v 4.218751 -3.02547 -6.082292
v 5.625001 -3.02547 -5.595757
v 1.40625 -3.02547 -6.638331
v 2.8125 -3.025469 -6.429817
v 4.218751 -1.520054 -6.41757
v 5.625 -1.520052 -5.922537
v 2.8125 -1.520052 -6.771166
v 4.21875 2.649927E-06 -6.52949
v 5.625 3.603602E-06 -6.032151
v 2.812499 2.649927E-06 -6.884733
v 4.218749 1.520058 -6.41757
v 5.624999 1.520059 -5.922536
v 2.8125 1.520058 -6.771165
v 4.218751 3.025474 -6.082291
v 5.625 3.025476 -5.595756
v 2.812501 3.025477 -6.429816
v 4.218752 4.501757 -5.525341
v 5.625001 4.501758 -5.057936
v 2.812501 4.501755 -5.859201
v 4.218751 5.934681 -4.750306
v 5.625001 5.934683 -4.319095
v 2.812501 5.934683 -5.058313
v 4.218749 7.310446 -3.763734
v 5.625 7.310452 -3.392862
v 2.812499 7.310452 -4.028643
v 4.21875 8.615818 -2.576408
v 5.625 8.615818 -2.296091
v 2.8125 8.615818 -2.776634
v 4.21875 9.838209 -1.204675
v 5.625 9.838209 -1.048398
v 2.8125 9.838211 -1.3163
v 2.8125 10.96586 0.3283758
v 4.21875 10.96585 0.3283758
v 5.625 10.96585 0.3283768
vt 0.0625 7.822986E-08
vt 0 7.54979E-08
vt 0 0.1250001
vt 0.0625 0.1250001
vt 0.125 8.096183E-08
vt 0.0625 0.2500001
vt 0 0.2500001
vt 0 0.3750001
vt 0.125 0.1250001
vt 0.1875 8.369379E-08
vt 0.125 0.2500001
vt 0.0625 0.3750001
vt 0.1875 0.1250001
vt 0.25 8.642575E-08
vt 0.1875 0.2500001
vt 0.25 0.1250001
vt 0.3125 8.915771E-08
vt 0.0625 0.5000001
vt 0 0.5000001
vt 0 0.6250001
vt 0.125 0.3750001
vt 0.25 0.2500001
vt 0.3125 0.1250001
vt 0.375 9.188967E-08
vt 0.125 0.5000001
vt 0.06249999 0.6250001
vt 0.1875 0.3750001
vt 0.3125 0.2500001
vt 0.375 0.1250001
vt 0.4375 9.462163E-08
vt 0.1875 0.5000001
vt 0.25 0.3750001
vt 0.375 0.2500001
vt 0.4375 0.1250001
vt 0.5 9.735359E-08
vt 0.125 0.6250001
vt 0.25 0.5000001
vt 0.3125 0.3750001
vt 0.4375 0.2500001
vt 0.5 0.1250001
vt 0.5625 1.000856E-07
vt 0.1875 0.6250001
vt 0.3125 0.5000001
vt 0.375 0.3750001
vt 0.5 0.2500001
vt 0.5625 0.1250001
vt 0.625 1.028175E-07
vt 0.25 0.6250001
vt 0.375 0.5000001
vt 0.4375 0.3750001
vt 0.5625 0.2500001
vt 0.625 0.1250001
vt 0.6875 1.055495E-07
vt 0.3125 0.6250001
vt 0.4375 0.5000001
vt 0.5 0.3750001
vt 0.625 0.2500001
vt 0.6875 0.1250001
vt 0.75 1.082814E-07
vt 0.375 0.6250001
vt 0.5 0.5000001
vt 0.5625 0.3750001
vt 0.6875 0.2500001
vt 0.75 0.1250001
vt 0.8125 1.110134E-07
vt 0.4375 0.6250001
vt 0.5625 0.5000001
vt 0.625 0.3750001
vt 0.75 0.2500001
vt 0.8125 0.1250001
vt 0.875 1.137454E-07
vt 0.5 0.6250001
vt 0.625 0.5000001
vt 0.6875 0.3750001
vt 0.8125 0.2500001
vt 0.875 0.1250001
vt 0.9375 1.164773E-07
vt 0.5625 0.6250001
vt 0.6875 0.5000001
vt 0.75 0.3750001
vt 0.875 0.2500001
vt 0.9375 0.1250001
vt 1 1.192093E-07
vt 1 0.1250001
vt 1 0.2500001
vt 0.9375 0.2500001
vt 0.8125 0.3750001
vt 0.75 0.5000001
vt 0.9375 0.3750001
vt 1 0.3750001
vt 1 0.5000001
vt 0.875 0.3750001
vt 0.8125 0.5000001
vt 0.9375 0.5000001
vt 0.875 0.5000001
vt 0.9375 0.6250001
vt 1 0.6250001
vt 0.9999999 0.7500001
vt 0.875 0.6250001
vt 0.8125 0.6250001
vt 0.75 0.6250001
vt 0.9375 0.7500001
vt 0.875 0.7500001
vt 0.9375 0.8750001
vt 0.9999999 0.8750001
vt 0.9999999 1
vt 0.9375 1
vt 0.875 0.8750001
vt 0.875 1
vt 0.8125 0.8750001
vt 0.8125 1
vt 0.8125 0.7500001
vt 0.75 0.8750001
vt 0.75 1
vt 0.75 0.7500001
vt 0.6875 0.8750001
vt 0.6875 1
vt 0.6875 0.6250001
vt 0.6875 0.7500001
vt 0.625 0.8750001
vt 0.625 1
vt 0.625 0.6250001
vt 0.625 0.7500001
vt 0.5625 0.8750001
vt 0.5625 1
vt 0.5625 0.7500001
vt 0.4999999 0.8750001
vt 0.4999999 1
vt 0.4999999 0.7500001
vt 0.4374999 0.8750001
vt 0.4374999 1
vt 0.4374999 0.7500001
vt 0.3749999 0.8750001
vt 0.3749999 1
vt 0.3749999 0.7500001
vt 0.3124999 0.8750001
vt 0.3124999 1
vt 0.3124999 0.7500001
vt 0.2499999 0.875
vt 0.2499999 1
vt 0.2499999 0.7500001
vt 0.1875 0.875
vt 0.1875 1
vt 0.1875 0.7500001
vt 0.125 0.875
vt 0.125 1
vt 0.125 0.7500001
vt 0.06249999 0.875
vt 0.06249999 1
vt 0.06249999 0.7500001
vt 0 0.7500001
vt 0 0.875
vt 0 1
vn 0.06792501 -0.7613842 0.6447327
vn 0.03401982 -0.7899357 0.6122453
vn 0.02849817 -0.8027968 0.5955712
vn 0.05922778 -0.7730033 0.6316311
vn 0.135946 -0.6923851 0.7086053
vn 0.03804536 -0.7939433 0.6068001
vn 0.01812359 -0.8226894 0.5682021
vn 0.008814243 -0.8333462 0.5526811
vn 0.1182007 -0.7032551 0.7010427
vn 0.1974642 -0.6078862 0.7690789
vn 0.07693455 -0.7260758 0.6832973
vn 0.01860667 -0.805328 0.5925374
vn 0.1713638 -0.6174483 0.7677187
vn 0.248352 -0.5086432 0.8243806
vn 0.1131497 -0.640466 0.7596054
vn 0.2153178 -0.5162253 0.828945
vn 0.286823 -0.395931 0.8723367
vn 0 -0.8089421 0.5878883
vn 0 -0.8367057 0.5476528
vn -0.008812979 -0.8333461 0.5526813
vn 0.03791222 -0.7388663 0.6727847
vn 0.1439963 -0.537092 0.8311421
vn 0.2485776 -0.4011183 0.8816537
vn 0.3129818 -0.2715428 0.9101137
vn 0 -0.7429865 0.6693065
vn -0.01860589 -0.8053279 0.5925375
vn 0.05623472 -0.6537901 0.7545835
vn 0.1678587 -0.4177227 0.892934
vn 0.2712038 -0.2744662 0.92256
vn 0.3279139 -0.1382309 0.9345399
vn 0 -0.6581509 0.7528861
vn 0.07212515 -0.5495362 0.8323508
vn 0.1842925 -0.285632 0.9404524
vn 0.2841108 -0.139445 0.948597
vn 0.3327385 0 0.9430192
vn -0.03791223 -0.7388659 0.6727851
vn 0 -0.5536712 0.8327354
vn 0.08458896 -0.4278656 0.8998754
vn 0.1937047 -0.1449461 0.9702933
vn 0.2882773 0 0.9575469
vn 0.3279141 0.1382307 0.9345397
vn -0.0562351 -0.6537901 0.7545835
vn 0 -0.4312775 0.9022194
vn 0.09324222 -0.2925671 0.9516882
vn 0.1967432 0 0.9804551
vn 0.2841109 0.1394451 0.9485968
vn 0.3129822 0.2715431 0.9101134
vn -0.07212543 -0.5495365 0.8323507
vn 0 -0.2949204 0.9555218
vn 0.09821339 -0.1483961 0.9840389
vn 0.1937046 0.1449465 0.9702933
vn 0.2712039 0.2744669 0.9225597
vn 0.286823 0.3959311 0.8723366
vn -0.08458896 -0.4278654 0.8998755
vn 0 -0.1495726 0.9887508
vn 0.09981873 0 0.9950057
vn 0.1842923 0.2856323 0.9404523
vn 0.2485776 0.4011184 0.8816536
vn 0.2483521 0.5086424 0.8243809
vn -0.09324206 -0.2925673 0.9516881
vn 0 0 1
vn 0.0982132 0.1483963 0.9840389
vn 0.167859 0.4177229 0.8929339
vn 0.2153175 0.5162249 0.8289454
vn 0.1974645 0.6078859 0.769079
vn -0.09821326 -0.148396 0.984039
vn 0 0.1495726 0.9887508
vn 0.09324192 0.2925674 0.9516881
vn 0.1439968 0.5370917 0.8311423
vn 0.1713634 0.617448 0.7677191
vn 0.1359461 0.6923852 0.7086053
vn -0.09981874 0 0.9950057
vn 0 0.2949205 0.9555218
vn 0.08458889 0.4278653 0.8998755
vn 0.1131501 0.6404655 0.7596058
vn 0.1182008 0.7032549 0.7010428
vn 0.06792466 0.7613836 0.6447335
vn -0.09821328 0.1483962 0.9840389
vn 0 0.4312771 0.9022195
vn 0.07212579 0.549536 0.8323509
vn 0.07693509 0.7260752 0.6832977
vn 0.05922855 0.7730026 0.631632
vn 0.03401932 0.7899345 0.6122468
vn 0.02849912 0.8027957 0.5955727
vn 0.01812427 0.8226886 0.5682033
vn 0.03804606 0.7939427 0.6068009
vn 0.05623565 0.6537898 0.7545838
vn 0 0.5536707 0.8327357
vn 0.0186062 0.8053275 0.5925381
vn 0.008813651 0.8333455 0.5526822
vn 0 0.836705 0.5476539
vn 0.03791232 0.738866 0.672785
vn 0 0.6581507 0.7528862
vn 0 0.8089417 0.587889
vn 0 0.7429864 0.6693065
vn -0.01860649 0.8053277 0.5925378
vn -0.008814118 0.8333457 0.552682
vn -0.01812444 0.8226886 0.5682034
vn -0.03791231 0.738866 0.6727849
vn -0.05623552 0.6537896 0.7545838
vn -0.07212588 0.549536 0.8323509
vn -0.03804622 0.793943 0.6068006
vn -0.07693525 0.7260753 0.6832976
vn -0.05922833 0.7730028 0.6316317
vn -0.02849889 0.8027956 0.5955728
vn -0.03401944 0.7899343 0.6122469
vn -0.06792469 0.7613838 0.6447332
vn -0.1182008 0.703255 0.7010427
vn -0.1359461 0.6923853 0.7086052
vn -0.1713636 0.6174478 0.7677193
vn -0.1974646 0.6078857 0.7690791
vn -0.1131501 0.6404654 0.7596059
vn -0.2153175 0.516225 0.8289451
vn -0.2483522 0.5086427 0.8243808
vn -0.1439969 0.5370919 0.8311421
vn -0.2485775 0.4011186 0.8816535
vn -0.2868232 0.3959312 0.8723364
vn -0.08458894 0.4278656 0.8998754
vn -0.1678591 0.4177229 0.8929338
vn -0.2712039 0.2744667 0.9225597
vn -0.3129824 0.2715429 0.9101134
vn -0.09324205 0.2925675 0.9516881
vn -0.1842924 0.285632 0.9404523
vn -0.2841109 0.139445 0.9485968
vn -0.3279144 0.1382306 0.9345397
vn -0.1937047 0.1449462 0.9702933
vn -0.2882772 0 0.9575469
vn -0.3327386 0 0.9430192
vn -0.1967432 0 0.9804551
vn -0.2841109 -0.139445 0.9485968
vn -0.327914 -0.1382308 0.9345399
vn -0.1937047 -0.1449462 0.9702933
vn -0.271204 -0.2744662 0.9225599
vn -0.3129821 -0.2715425 0.9101137
vn -0.1842923 -0.2856321 0.9404524
vn -0.2485775 -0.4011184 0.8816537
vn -0.2868229 -0.395931 0.8723367
vn -0.1678586 -0.4177229 0.892934
vn -0.2153173 -0.5162259 0.8289446
vn -0.2483507 -0.508644 0.8243804
vn -0.1439967 -0.5370924 0.8311418
vn -0.1713633 -0.6174483 0.7677189
vn -0.1974628 -0.6078864 0.7690791
vn -0.1131504 -0.6404659 0.7596054
vn -0.1182009 -0.7032548 0.701043
vn -0.1359455 -0.6923853 0.7086053
vn -0.07693534 -0.7260751 0.6832978
vn -0.05922887 -0.7730031 0.6316314
vn -0.06792484 -0.7613842 0.6447327
vn -0.03804614 -0.7939432 0.6068004
vn -0.0181245 -0.8226888 0.568203
vn -0.02849976 -0.802796 0.5955723
vn -0.0340197 -0.7899349 0.6122463
g Plane001_0
f 3/3/3 2/2/2 1/1/1
f 4/4/4 3/3/3 1/1/1
f 4/4/4 1/1/1 5/5/5
f 3/3/3 4/4/4 6/6/6
f 7/7/7 3/3/3 6/6/6
f 8/8/8 7/7/7 6/6/6
f 9/9/9 4/4/4 5/5/5
f 9/9/9 5/5/5 10/10/10
f 6/6/6 4/4/4 11/11/11
f 4/4/4 9/9/9 11/11/11
f 12/12/12 8/8/8 6/6/6
f 12/12/12 6/6/6 11/11/11
f 13/13/13 9/9/9 10/10/10
f 13/13/13 10/10/10 14/14/14
f 11/11/11 9/9/9 15/15/15
f 9/9/9 13/13/13 15/15/15
f 16/16/16 13/13/13 14/14/14
f 16/16/16 14/14/14 17/17/17
f 8/8/8 12/12/12 18/18/18
f 19/19/19 8/8/8 18/18/18
f 20/20/20 19/19/19 18/18/18
f 21/21/21 12/12/12 11/11/11
f 21/21/21 11/11/11 15/15/15
f 15/15/15 13/13/13 22/22/22
f 13/13/13 16/16/16 22/22/22
f 23/23/23 16/16/16 17/17/17
f 23/23/23 17/17/17 24/24/24
f 18/18/18 12/12/12 25/25/25
f 12/12/12 21/21/21 25/25/25
f 26/26/26 20/20/20 18/18/18
f 26/26/26 18/18/18 25/25/25
f 27/27/27 21/21/21 15/15/15
f 27/27/27 15/15/15 22/22/22
f 22/22/22 16/16/16 28/28/28
f 16/16/16 23/23/23 28/28/28
f 29/29/29 23/23/23 24/24/24
f 29/29/29 24/24/24 30/30/30
f 25/25/25 21/21/21 31/31/31
f 21/21/21 27/27/27 31/31/31
f 32/32/32 27/27/27 22/22/22
f 32/32/32 22/22/22 28/28/28
f 28/28/28 23/23/23 33/33/33
f 23/23/23 29/29/29 33/33/33
f 34/34/34 29/29/29 30/30/30
f 34/34/34 30/30/30 35/35/35
f 36/36/36 25/25/25 31/31/31
f 36/36/36 26/26/26 25/25/25
f 31/31/31 27/27/27 37/37/37
f 27/27/27 32/32/32 37/37/37
f 38/38/38 32/32/32 28/28/28
f 38/38/38 28/28/28 33/33/33
f 33/33/33 29/29/29 39/39/39
f 29/29/29 34/34/34 39/39/39
f 40/40/40 34/34/34 35/35/35
f 40/40/40 35/35/35 41/41/41
f 42/42/42 36/36/36 31/31/31
f 42/42/42 31/31/31 37/37/37
f 37/37/37 32/32/32 43/43/43
f 32/32/32 38/38/38 43/43/43
f 44/44/44 38/38/38 33/33/33
f 44/44/44 33/33/33 39/39/39
f 39/39/39 34/34/34 45/45/45
f 34/34/34 40/40/40 45/45/45
f 46/46/46 40/40/40 41/41/41
f 46/46/46 41/41/41 47/47/47
f 48/48/48 42/42/42 37/37/37
f 48/48/48 37/37/37 43/43/43
f 43/43/43 38/38/38 49/49/49
f 38/38/38 44/44/44 49/49/49
f 50/50/50 44/44/44 39/39/39
f 50/50/50 39/39/39 45/45/45
f 45/45/45 40/40/40 51/51/51
f 40/40/40 46/46/46 51/51/51
f 52/52/52 46/46/46 47/47/47
f 52/52/52 47/47/47 53/53/53
f 54/54/54 48/48/48 43/43/43
f 54/54/54 43/43/43 49/49/49
f 49/49/49 44/44/44 55/55/55
f 44/44/44 50/50/50 55/55/55
f 56/56/56 50/50/50 45/45/45
f 56/56/56 45/45/45 51/51/51
f 51/51/51 46/46/46 57/57/57
f 46/46/46 52/52/52 57/57/57
f 58/58/58 52/52/52 53/53/53
f 58/58/58 53/53/53 59/59/59
f 60/60/60 54/54/54 49/49/49
f 60/60/60 49/49/49 55/55/55
f 55/55/55 50/50/50 61/61/61
f 50/50/50 56/56/56 61/61/61
f 62/62/62 56/56/56 51/51/51
f 62/62/62 51/51/51 57/57/57
f 57/57/57 52/52/52 63/63/63
f 52/52/52 58/58/58 63/63/63
f 64/64/64 58/58/58 59/59/59
f 64/64/64 59/59/59 65/65/65
f 66/66/66 60/60/60 55/55/55
f 66/66/66 55/55/55 61/61/61
f 61/61/61 56/56/56 67/67/67
f 56/56/56 62/62/62 67/67/67
f 68/68/68 62/62/62 57/57/57
f 68/68/68 57/57/57 63/63/63
f 63/63/63 58/58/58 69/69/69
f 58/58/58 64/64/64 69/69/69
f 70/70/70 64/64/64 65/65/65
f 70/70/70 65/65/65 71/71/71
f 72/72/72 66/66/66 61/61/61
f 72/72/72 61/61/61 67/67/67
f 67/67/67 62/62/62 73/73/73
f 62/62/62 68/68/68 73/73/73
f 74/74/74 68/68/68 63/63/63
f 74/74/74 63/63/63 69/69/69
f 69/69/69 64/64/64 75/75/75
f 64/64/64 70/70/70 75/75/75
f 76/76/76 70/70/70 71/71/71
f 76/76/76 71/71/71 77/77/77
f 78/78/78 72/72/72 67/67/67
f 78/78/78 67/67/67 73/73/73
f 73/73/73 68/68/68 79/79/79
f 68/68/68 74/74/74 79/79/79
f 80/80/80 74/74/74 69/69/69
f 80/80/80 69/69/69 75/75/75
f 75/75/75 70/70/70 81/81/81
f 70/70/70 76/76/76 81/81/81
f 82/82/82 76/76/76 77/77/77
f 82/82/82 77/77/77 83/83/83
f 84/84/84 82/82/82 83/83/83
f 82/82/82 84/84/84 85/85/85
f 76/76/76 82/82/82 86/86/86
f 86/86/86 82/82/82 85/85/85
f 81/81/81 76/76/76 86/86/86
f 87/87/87 75/75/75 81/81/81
f 87/87/87 80/80/80 75/75/75
f 74/74/74 80/80/80 88/88/88
f 79/79/79 74/74/74 88/88/88
f 89/89/89 86/86/86 85/85/85
f 90/90/90 89/89/89 85/85/85
f 89/89/89 90/90/90 91/91/91
f 92/92/92 81/81/81 86/86/86
f 89/89/89 92/92/92 86/86/86
f 92/92/92 87/87/87 81/81/81
f 80/80/80 87/87/87 93/93/93
f 88/88/88 80/80/80 93/93/93
f 94/94/94 89/89/89 91/91/91
f 92/92/92 89/89/89 94/94/94
f 87/87/87 92/92/92 95/95/95
f 93/93/93 87/87/87 95/95/95
f 95/95/95 92/92/92 94/94/94
f 96/96/96 94/94/94 91/91/91
f 97/97/97 96/96/96 91/91/91
f 96/96/96 97/97/97 98/98/98
f 99/99/99 95/95/95 94/94/94
f 96/96/96 99/99/99 94/94/94
f 100/100/100 93/93/93 95/95/95
f 99/99/99 100/100/100 95/95/95
f 101/101/101 88/88/88 93/93/93
f 100/100/100 101/101/101 93/93/93
f 102/102/102 96/96/96 98/98/98
f 99/99/99 96/96/96 102/102/102
f 100/100/100 99/99/99 103/103/103
f 103/103/103 99/99/99 102/102/102
f 104/104/104 102/102/102 98/98/98
f 105/105/105 104/104/104 98/98/98
f 104/104/104 105/105/105 106/106/106
f 107/107/107 104/104/104 106/106/106
f 104/104/104 108/108/108 102/102/102
f 108/108/108 104/104/104 107/107/107
f 108/108/108 103/103/103 102/102/102
f 109/109/109 108/108/108 107/107/107
f 110/110/110 108/108/108 109/109/109
f 108/108/108 110/110/110 103/103/103
f 111/111/111 110/110/110 109/109/109
f 112/112/112 100/100/100 103/103/103
f 110/110/110 112/112/112 103/103/103
f 101/101/101 100/100/100 112/112/112
f 113/113/113 110/110/110 111/111/111
f 110/110/110 113/113/113 112/112/112
f 114/114/114 113/113/113 111/111/111
f 115/115/115 101/101/101 112/112/112
f 113/113/113 115/115/115 112/112/112
f 116/116/116 113/113/113 114/114/114
f 113/113/113 116/116/116 115/115/115
f 117/117/117 116/116/116 114/114/114
f 118/118/118 101/101/101 115/115/115
f 101/101/101 118/118/118 88/88/88
f 118/118/118 79/79/79 88/88/88
f 116/116/116 119/119/119 115/115/115
f 119/119/119 118/118/118 115/115/115
f 120/120/120 116/116/116 117/117/117
f 116/116/116 120/120/120 119/119/119
f 121/121/121 120/120/120 117/117/117
f 118/118/118 122/122/122 79/79/79
f 122/122/122 118/118/118 119/119/119
f 122/122/122 73/73/73 79/79/79
f 122/122/122 78/78/78 73/73/73
f 123/123/123 122/122/122 119/119/119
f 120/120/120 123/123/123 119/119/119
f 78/78/78 122/122/122 123/123/123
f 124/124/124 120/120/120 121/121/121
f 120/120/120 124/124/124 123/123/123
f 125/125/125 124/124/124 121/121/121
f 126/126/126 78/78/78 123/123/123
f 124/124/124 126/126/126 123/123/123
f 72/72/72 78/78/78 126/126/126
f 127/127/127 124/124/124 125/125/125
f 124/124/124 127/127/127 126/126/126
f 128/128/128 127/127/127 125/125/125
f 129/129/129 72/72/72 126/126/126
f 127/127/127 129/129/129 126/126/126
f 66/66/66 72/72/72 129/129/129
f 130/130/130 127/127/127 128/128/128
f 127/127/127 130/130/130 129/129/129
f 131/131/131 130/130/130 128/128/128
f 132/132/132 66/66/66 129/129/129
f 130/130/130 132/132/132 129/129/129
f 60/60/60 66/66/66 132/132/132
f 133/133/133 130/130/130 131/131/131
f 130/130/130 133/133/133 132/132/132
f 134/134/134 133/133/133 131/131/131
f 135/135/135 60/60/60 132/132/132
f 133/133/133 135/135/135 132/132/132
f 54/54/54 60/60/60 135/135/135
f 136/136/136 133/133/133 134/134/134
f 133/133/133 136/136/136 135/135/135
f 137/137/137 136/136/136 134/134/134
f 138/138/138 54/54/54 135/135/135
f 136/136/136 138/138/138 135/135/135
f 48/48/48 54/54/54 138/138/138
f 139/139/139 136/136/136 137/137/137
f 136/136/136 139/139/139 138/138/138
f 140/140/140 139/139/139 137/137/137
f 141/141/141 48/48/48 138/138/138
f 139/139/139 141/141/141 138/138/138
f 42/42/42 48/48/48 141/141/141
f 142/142/142 139/139/139 140/140/140
f 139/139/139 142/142/142 141/141/141
f 143/143/143 142/142/142 140/140/140
f 144/144/144 42/42/42 141/141/141
f 142/142/142 144/144/144 141/141/141
f 36/36/36 42/42/42 144/144/144
f 145/145/145 142/142/142 143/143/143
f 142/142/142 145/145/145 144/144/144
f 146/146/146 145/145/145 143/143/143
f 147/147/147 36/36/36 144/144/144
f 145/145/145 147/147/147 144/144/144
f 26/26/26 36/36/36 147/147/147
f 148/148/148 145/145/145 146/146/146
f 145/145/145 148/148/148 147/147/147
f 149/149/149 148/148/148 146/146/146
f 150/150/150 26/26/26 147/147/147
f 148/148/148 150/150/150 147/147/147
f 20/20/20 26/26/26 150/150/150
f 151/151/151 20/20/20 150/150/150
f 152/152/152 151/151/151 150/150/150
f 148/148/148 152/152/152 150/150/150
f 152/152/152 148/148/148 149/149/149
f 153/153/153 152/152/152 149/149/149
