g Plane024
v -0.9287849 -0.2062565 3.278354E-09
v -0.8711232 -0.3570019 -3.250448E-09
v -0.9316415 -0.3562293 -3.278354E-09
v -0.8702093 -0.2070056 3.306224E-09
v -0.8136671 -0.3569424 -3.055098E-09
v -0.8149384 -0.2069544 3.501316E-09
v -0.7593152 -0.3560413 -2.524868E-09
v -0.7630452 -0.2061103 4.030851E-09
v -0.7080416 -0.3542884 -1.492317E-09
v -0.7145554 -0.2044836 5.062049E-09
v -0.6598135 -0.3516699 2.099981E-10
v -0.6695013 -0.2020879 6.762134E-09
v -0.6145903 -0.3481669 2.749519E-09
v -0.6279237 -0.1989421 9.298328E-09
v -0.5722207 -0.3437413 6.293687E-09
v -0.5897586 -0.195059 1.283785E-08
v -0.5101289 -0.3356739 1.100994E-08
v -0.5322571 -0.1877483 1.754792E-08
v -0.4550771 -0.3249885 1.706571E-08
v -0.4912472 -0.1800434 2.359576E-08
v -0.402338 -0.3074284 2.462846E-08
v -0.4603715 -0.1700173 3.11486E-08
v -0.3511457 -0.2805986 3.386562E-08
v -0.4294354 -0.1539577 4.037366E-08
v -0.3057993 -0.2482447 4.494464E-08
v -0.3989209 -0.1325004 5.143815E-08
v -0.2636823 -0.2098774 5.803292E-08
v -0.3690727 -0.105739 6.450928E-08
v -0.2250697 -0.1659962 7.329798E-08
v -0.3405491 -0.07390355 7.975434E-08
v -0.1902708 -0.1170319 9.090716E-08
v -0.3139747 -0.03729346 9.734044E-08
v -0.1615261 -0.06405573 1.11028E-07
v -0.2957243 -0.005110858 1.174349E-07
v -0.1420266 -0.01024441 1.338279E-07
v -0.2810738 0.03391014 1.402049E-07
v -0.1269428 0.04222174 1.594742E-07
v -0.2665204 0.08194686 1.658176E-07
v -0.1130633 0.0904627 1.881345E-07
v -0.2503716 0.1347094 1.944403E-07
v -0.09863979 0.1305139 2.199761E-07
v -0.2294726 0.1889912 2.262403E-07
v -0.08173809 0.1614279 2.551666E-07
v -0.199227 0.241627 2.613846E-07
v -0.05486843 0.197491 2.938734E-07
v -0.162261 0.2889983 3.000407E-07
v -0.02448177 0.2305782 3.362638E-07
v -0.1209856 0.3317551 3.423755E-07
v 0.007453537 0.2588503 3.825053E-07
v -0.07647844 0.3689385 3.885565E-07
v 0.03863138 0.2806359 4.327655E-07
v -0.02948027 0.3994209 4.387508E-07
v 0.06856513 0.2950799 4.872117E-07
v 0.02788645 0.4241146 4.931256E-07
v 0.1062828 0.3034729 5.460112E-07
v 0.092305 0.4362713 5.518481E-07
v 0.1486957 0.3057595 6.093317E-07
v 0.1529871 0.4373233 6.150856E-07
v 0.1901521 0.3033268 6.773408E-07
v 0.206927 0.4318314 6.830056E-07
v 0.2268792 0.2969953 7.502053E-07
v 0.2662699 0.4181635 7.557746E-07
v 0.2590158 0.283406 8.280932E-07
v 0.3235877 0.3905239 8.335603E-07
v 0.2914748 0.2613381 9.111717E-07
v 0.3700344 0.3554409 9.1653E-07
v 0.3234021 0.2336791 9.996081E-07
v 0.4094341 0.3172401 1.004851E-06
v 0.3523102 0.2020253 1.09357E-06
v 0.446459 0.2716829 1.09869E-06
v 0.3744303 0.1688486 1.193226E-06
v 0.4773139 0.2182474 1.198214E-06
v 0.3871413 0.1360224 1.298741E-06
v 0.4955458 0.1597222 1.303591E-06
v 0.394137 0.09480549 1.410285E-06
v 0.5016212 0.1002264 1.414989E-06
v 0.3947993 0.05126799 1.528023E-06
v 0.4983248 0.04043263 1.532573E-06
v 0.3892755 0.01330466 1.652125E-06
v 0.4851573 -0.01637521 1.656512E-06
v 0.3749649 -0.02470954 1.782756E-06
v 0.4594226 -0.07129582 1.786973E-06
v 0.3527338 -0.06112982 1.920086E-06
v 0.4238828 -0.1199848 1.924122E-06
v 0.3272377 -0.08917562 2.064281E-06
v 0.3806063 -0.1591629 2.068128E-06
v 0.296192 -0.1080299 2.215507E-06
v 0.3249094 -0.186415 2.219157E-06
v 0.2539488 -0.1211934 2.373934E-06
v 0.2665289 -0.1989122 2.377376E-06
v 0.2115486 -0.1273517 2.539728E-06
v 0.2122386 -0.2011082 2.542952E-06
v 0.1684988 -0.1252337 2.713058E-06
v 0.1531136 -0.1920485 2.716055E-06
v 0.1281774 -0.1135138 2.89409E-06
v 0.09877884 -0.1693874 2.896849E-06
v 0.09843075 -0.09427468 3.082991E-06
v 0.05580362 -0.1328237 3.085503E-06
v 0.07579241 -0.06342732 3.279929E-06
v 0.02817925 -0.08323326 3.282183E-06
v 0.06135796 -0.0186942 3.485072E-06
v 0.01629497 -0.0243624 3.487057E-06
vt 0.005888939 0.9950072
vt 0.02565357 0.004992343
vt 0.005889118 0.004992343
vt 0.02565339 0.9950072
vt 0.04541799 0.004992343
vt 0.04541788 0.9950072
vt 0.06518248 0.004992343
vt 0.0651823 0.9950072
vt 0.0849469 0.004992343
vt 0.08494672 0.9950072
vt 0.1047113 0.004992343
vt 0.1047112 0.9950072
vt 0.1244757 0.004992343
vt 0.1244756 0.9950072
vt 0.1442402 0.004992343
vt 0.1442401 0.9950072
vt 0.1640047 0.004992343
vt 0.1640045 0.9950072
vt 0.1837691 0.004992343
vt 0.1837689 0.9950072
vt 0.2035335 0.004992343
vt 0.2035334 0.9950072
vt 0.223298 0.004992343
vt 0.2232979 0.9950072
vt 0.2430625 0.004992343
vt 0.2430623 0.9950072
vt 0.2628269 0.004992343
vt 0.2628268 0.9950072
vt 0.2825913 0.004992343
vt 0.2825912 0.9950072
vt 0.3023558 0.004992343
vt 0.3023556 0.9950072
vt 0.3221203 0.004992343
vt 0.3221201 0.9950072
vt 0.3418847 0.004992343
vt 0.3418846 0.9950072
vt 0.3616491 0.004992343
vt 0.361649 0.9950072
vt 0.3814136 0.004992343
vt 0.3814134 0.9950072
vt 0.4011781 0.004992343
vt 0.4011779 0.9950072
vt 0.4209426 0.004992343
vt 0.4209425 0.9950072
vt 0.440707 0.004992343
vt 0.4407069 0.9950072
vt 0.4604715 0.004992343
vt 0.4604713 0.9950072
vt 0.480236 0.004992343
vt 0.4802358 0.9950072
vt 0.5000004 0.004992343
vt 0.5000002 0.9950072
vt 0.5197649 0.004992343
vt 0.5197648 0.9950072
vt 0.5395293 0.004992343
vt 0.5395292 0.9950072
vt 0.5592937 0.004992343
vt 0.5592936 0.9950072
vt 0.5790582 0.004992343
vt 0.5790581 0.9950072
vt 0.5988226 0.004992343
vt 0.5988225 0.9950072
vt 0.618587 0.004992343
vt 0.6185869 0.9950072
vt 0.6383514 0.004992343
vt 0.6383513 0.9950072
vt 0.6581159 0.004992343
vt 0.6581157 0.9950072
vt 0.6778803 0.004992343
vt 0.6778802 0.9950072
vt 0.6976447 0.004992343
vt 0.6976446 0.9950072
vt 0.7174091 0.004992343
vt 0.717409 0.9950072
vt 0.7371736 0.004992343
vt 0.7371734 0.9950072
vt 0.756938 0.004992343
vt 0.7569379 0.9950072
vt 0.7767024 0.004992343
vt 0.7767023 0.9950072
vt 0.7964668 0.004992403
vt 0.7964667 0.9950073
vt 0.8162313 0.004992403
vt 0.8162311 0.9950073
vt 0.8359957 0.004992403
vt 0.8359956 0.9950073
vt 0.8557601 0.004992403
vt 0.85576 0.9950073
vt 0.8755245 0.004992403
vt 0.8755244 0.9950073
vt 0.8952891 0.004992403
vt 0.8952889 0.9950073
vt 0.9150535 0.004992403
vt 0.9150534 0.9950073
vt 0.9348179 0.004992403
vt 0.9348178 0.9950073
vt 0.9545823 0.004992403
vt 0.9545822 0.9950073
vt 0.9743468 0.004992403
vt 0.9743466 0.9950073
vt 0.9941112 0.004992403
vt 0.9941111 0.9950073
vn 0 0 1
vn 0 0 1
vn 0 0 1
vn 0 0 1
vn 0 0 1
vn 0 0 1
vn 0 0 1
vn 0 0 1
vn 0 0 1
vn 0 0 1
vn 0 0 1
vn 0 0 1
vn 0 0 1
vn 0 0 1
vn 0 0 1
vn 0 0 1
vn 0 0 1
vn -1.000739E-07 0 1
vn -1.115173E-07 0 1
vn -1.580252E-07 0 1
vn -1.287986E-07 0 1
vn -1.945816E-07 -1.466112E-07 1
vn -1.416188E-07 -1.266864E-07 1
vn -1.990158E-07 -1.910857E-07 1
vn -1.51945E-07 -1.650731E-07 1
vn -1.975931E-07 -2.333596E-07 1
vn -1.547453E-07 -2.033611E-07 1
vn -1.906522E-07 -2.756414E-07 1
vn -1.527542E-07 -2.4343E-07 1
vn -1.794323E-07 -3.187579E-07 1
vn -1.478634E-07 -2.878761E-07 1
vn -1.737106E-07 -4.104194E-07 1
vn -1.3413E-07 -3.591879E-07 1
vn -1.527685E-07 -5.110135E-07 1
vn -1.102147E-07 -4.343275E-07 1
vn -1.116495E-07 -5.154413E-07 1
vn -1.070129E-07 -5.152939E-07 1
vn -1.071555E-07 -5.108334E-07 1
vn -1.517173E-07 -6.380048E-07 1
vn -1.500388E-07 -5.305782E-07 1
vn -2.788513E-07 -8.064577E-07 1
vn -2.414844E-07 -5.428956E-07 1
vn -3.995472E-07 -7.835706E-07 1
vn -3.432507E-07 -5.314852E-07 1
vn -5.063227E-07 -7.151091E-07 1
vn -4.430806E-07 -5.424023E-07 1
vn -6.553105E-07 -7.363933E-07 1
vn -5.591338E-07 -5.452193E-07 1
vn -8.714601E-07 -7.765937E-07 1
vn -7.033302E-07 -5.312638E-07 1
vn -1.182519E-06 -8.044983E-07 1
vn -8.315703E-07 -4.385466E-07 1
vn -1.347746E-06 -6.086597E-07 1
vn -9.033047E-07 -2.54655E-07 1
vn -1.384312E-06 -3.018799E-07 1
vn -1.008534E-06 0 1
vn -1.499996E-06 0 1
vn -1.183274E-06 0 1
vn -1.74405E-06 1.22438E-07 1
vn -1.273085E-06 2.102253E-07 1
vn -1.937001E-06 4.435665E-07 1
vn -1.207412E-06 4.642281E-07 1
vn -1.840302E-06 8.413993E-07 1
vn -1.169014E-06 7.545457E-07 1
vn -1.640949E-06 1.155672E-06 1
vn -1.189819E-06 1.020835E-06 1
vn -1.534285E-06 1.399541E-06 1
vn -1.135124E-06 1.221864E-06 1
vn -1.460117E-06 1.720805E-06 1
vn -9.49833E-07 1.405124E-06 1
vn -1.315282E-06 2.250402E-06 1
vn -6.712747E-07 1.653768E-06 1
vn -8.435346E-07 2.489628E-06 1
vn -3.325353E-07 1.854223E-06 1
vn -3.272447E-07 2.533413E-06 1
vn 0 2.001627E-06 1
vn 1.063157E-07 2.837258E-06 1
vn 3.344149E-07 2.138925E-06 1
vn 6.41493E-07 2.970281E-06 1
vn 7.783289E-07 2.129553E-06 1
vn 1.221693E-06 2.765572E-06 1
vn 1.219255E-06 1.992674E-06 1
vn 1.92611E-06 2.712173E-06 1
vn 1.730304E-06 1.84773E-06 1
vn 2.759516E-06 2.519691E-06 1
vn 2.237363E-06 1.442475E-06 1
vn 3.124116E-06 1.615768E-06 1
vn 2.565208E-06 8.098207E-07 1
vn 3.424649E-06 8.165841E-07 1
vn 2.951174E-06 3.722594E-07 1
vn 3.771158E-06 2.640473E-07 1
vn 3.153673E-06 -1.327545E-07 1
vn 3.856467E-06 -5.577482E-07 1
vn 3.063101E-06 -9.024529E-07 1
vn 4.142075E-06 -1.77463E-06 1
vn 2.95529E-06 -1.904516E-06 1
vn 3.569925E-06 -3.105705E-06 1
vn 2.274241E-06 -2.94262E-06 1
vn 2.104334E-06 -3.757036E-06 1
vn 1.247455E-06 -3.448892E-06 1
vn 1.031186E-06 -3.673771E-06 1
vn 4.698639E-07 -3.385203E-06 1
g Plane024_0
f 3/3/3 2/2/2 1/1/1
f 4/4/4 1/1/1 2/2/2
f 2/2/2 5/5/5 4/4/4
f 6/6/6 4/4/4 5/5/5
f 5/5/5 7/7/7 6/6/6
f 8/8/8 6/6/6 7/7/7
f 7/7/7 9/9/9 8/8/8
f 10/10/10 8/8/8 9/9/9
f 9/9/9 11/11/11 10/10/10
f 12/12/12 10/10/10 11/11/11
f 11/11/11 13/13/13 12/12/12
f 14/14/14 12/12/12 13/13/13
f 13/13/13 15/15/15 14/14/14
f 16/16/16 14/14/14 15/15/15
f 15/15/15 17/17/17 16/16/16
f 18/18/18 16/16/16 17/17/17
f 17/17/17 19/19/19 18/18/18
f 20/20/20 18/18/18 19/19/19
f 19/19/19 21/21/21 20/20/20
f 22/22/22 20/20/20 21/21/21
f 21/21/21 23/23/23 22/22/22
f 24/24/24 22/22/22 23/23/23
f 23/23/23 25/25/25 24/24/24
f 26/26/26 24/24/24 25/25/25
f 25/25/25 27/27/27 26/26/26
f 28/28/28 26/26/26 27/27/27
f 27/27/27 29/29/29 28/28/28
f 30/30/30 28/28/28 29/29/29
f 29/29/29 31/31/31 30/30/30
f 32/32/32 30/30/30 31/31/31
f 31/31/31 33/33/33 32/32/32
f 34/34/34 32/32/32 33/33/33
f 33/33/33 35/35/35 34/34/34
f 36/36/36 34/34/34 35/35/35
f 35/35/35 37/37/37 36/36/36
f 38/38/38 36/36/36 37/37/37
f 37/37/37 39/39/39 38/38/38
f 40/40/40 38/38/38 39/39/39
f 39/39/39 41/41/41 40/40/40
f 42/42/42 40/40/40 41/41/41
f 41/41/41 43/43/43 42/42/42
f 44/44/44 42/42/42 43/43/43
f 43/43/43 45/45/45 44/44/44
f 46/46/46 44/44/44 45/45/45
f 45/45/45 47/47/47 46/46/46
f 48/48/48 46/46/46 47/47/47
f 47/47/47 49/49/49 48/48/48
f 50/50/50 48/48/48 49/49/49
f 49/49/49 51/51/51 50/50/50
f 52/52/52 50/50/50 51/51/51
f 51/51/51 53/53/53 52/52/52
f 54/54/54 52/52/52 53/53/53
f 53/53/53 55/55/55 54/54/54
f 56/56/56 54/54/54 55/55/55
f 55/55/55 57/57/57 56/56/56
f 58/58/58 56/56/56 57/57/57
f 57/57/57 59/59/59 58/58/58
f 60/60/60 58/58/58 59/59/59
f 59/59/59 61/61/61 60/60/60
f 62/62/62 60/60/60 61/61/61
f 61/61/61 63/63/63 62/62/62
f 64/64/64 62/62/62 63/63/63
f 63/63/63 65/65/65 64/64/64
f 66/66/66 64/64/64 65/65/65
f 65/65/65 67/67/67 66/66/66
f 68/68/68 66/66/66 67/67/67
f 67/67/67 69/69/69 68/68/68
f 70/70/70 68/68/68 69/69/69
f 69/69/69 71/71/71 70/70/70
f 72/72/72 70/70/70 71/71/71
f 71/71/71 73/73/73 72/72/72
f 74/74/74 72/72/72 73/73/73
f 73/73/73 75/75/75 74/74/74
f 76/76/76 74/74/74 75/75/75
f 75/75/75 77/77/77 76/76/76
f 78/78/78 76/76/76 77/77/77
f 77/77/77 79/79/79 78/78/78
f 80/80/80 78/78/78 79/79/79
f 79/79/79 81/81/81 80/80/80
f 82/82/82 80/80/80 81/81/81
f 81/81/81 83/83/83 82/82/82
f 84/84/84 82/82/82 83/83/83
f 83/83/83 85/85/85 84/84/84
f 86/86/86 84/84/84 85/85/85
f 85/85/85 87/87/87 86/86/86
f 88/88/88 86/86/86 87/87/87
f 87/87/87 89/89/89 88/88/88
f 90/90/90 88/88/88 89/89/89
f 89/89/89 91/91/91 90/90/90
f 92/92/92 90/90/90 91/91/91
f 91/91/91 93/93/93 92/92/92
f 94/94/94 92/92/92 93/93/93
f 93/93/93 95/95/95 94/94/94
f 96/96/96 94/94/94 95/95/95
f 95/95/95 97/97/97 96/96/96
f 98/98/98 96/96/96 97/97/97
f 97/97/97 99/99/99 98/98/98
f 100/100/100 98/98/98 99/99/99
f 99/99/99 101/101/101 100/100/100
f 102/102/102 100/100/100 101/101/101
