g Plane004
v -0.05822657 0.05693273 -5.960464E-10
v -0.03381827 0.04210979 5.960464E-10
v -0.06002321 0.05397427 -5.960464E-10
v -0.03561492 0.03915133 5.960464E-10
v -0.06181986 0.05101581 -5.960464E-10
v -0.03741157 0.03619287 5.960464E-10
v -0.0643283 0.04659773 -5.960464E-10
v -0.03876485 0.03387002 5.960464E-10
v -0.06663581 0.04077272 -5.960464E-10
v -0.03923406 0.03273356 5.960464E-10
v -0.06777685 0.03435209 -5.960464E-10
v -0.03927198 0.03263268 5.960464E-10
v -0.06729495 0.02754761 -5.960464E-10
v -0.03933513 0.03335559 5.960464E-10
v -0.06521374 0.02146276 -5.960464E-10
v -0.03950328 0.03389082 5.960464E-10
v -0.06175186 0.01605967 -5.960464E-10
v -0.03968872 0.03418981 5.960464E-10
v -0.05708339 0.01153073 -5.960464E-10
v -0.03951431 0.03404322 5.960464E-10
v -0.05158267 0.00802268 -5.960464E-10
v -0.03839641 0.03335264 5.960464E-10
v -0.04685774 0.005922055 -5.960464E-10
v -0.03688967 0.03268251 5.960464E-10
v -0.04305036 0.004668879 -5.960464E-10
v -0.03504281 0.03207989 5.960464E-10
v -0.03921258 0.00365325 -5.960464E-10
v -0.03252387 0.03141556 5.960464E-10
v -0.03532632 0.002786531 -5.960464E-10
v -0.02952245 0.03074721 5.960464E-10
v -0.03141859 0.002019992 -5.960464E-10
v -0.02618306 0.03009264 5.960464E-10
v -0.02754337 0.001322455 -5.960464E-10
v -0.02262328 0.0294521 5.960464E-10
v -0.02377248 0.0006716347 -5.960464E-10
v -0.01894278 0.02881694 5.960464E-10
v -0.02008795 4.249096E-05 -5.960464E-10
v -0.01555876 0.02823772 5.960464E-10
v -0.01625116 -0.0005080223 -5.960464E-10
v -0.01260334 0.02781472 5.960464E-10
v -0.01241882 -0.0009614897 -5.960464E-10
v -0.009305253 0.02742495 5.960464E-10
v -0.008637974 -0.001356344 -5.960464E-10
v -0.00577611 0.02705657 5.960464E-10
v -0.00497509 -0.00172286 -5.960464E-10
v -0.002108068 0.02668954 5.960464E-10
v -0.001512818 -0.002085733 -5.960464E-10
v 0.001622887 0.02629827 5.960464E-10
v 0.001648636 -0.002463612 -5.960464E-10
v 0.005358348 0.02585109 5.960464E-10
v 0.004384479 -0.002864685 -5.960464E-10
v 0.009064445 0.0253059 5.960464E-10
v 0.006698026 -0.003310542 -5.960464E-10
v 0.0128218 0.02458182 5.960464E-10
v 0.01025502 -0.00414701 -5.960464E-10
v 0.0172986 0.02352739 5.960464E-10
v 0.01318702 -0.004964123 -5.960464E-10
v 0.021603 0.02232426 5.960464E-10
v 0.01547876 -0.005751638 -5.960464E-10
v 0.02579259 0.02087747 5.960464E-10
v 0.01713931 -0.006476941 -5.960464E-10
v 0.02990071 0.01906971 5.960464E-10
v 0.01823279 -0.00709764 -5.960464E-10
v 0.03390555 0.01677387 5.960464E-10
v 0.01867937 -0.007434306 -5.960464E-10
v 0.03881819 0.01281199 5.960464E-10
v 0.01893956 -0.007768655 -5.960464E-10
v 0.04283199 0.00787219 5.960464E-10
v 0.01953721 -0.008890429 -5.960464E-10
v 0.04544492 0.003121014 5.960464E-10
v 0.0204998 -0.01122131 -5.960464E-10
v 0.04714487 -0.000948801 5.960464E-10
v 0.02127779 -0.01341415 -5.960464E-10
v 0.04855912 -0.004975357 5.960464E-10
v 0.0218613 -0.01560577 -5.960464E-10
v 0.04972369 -0.009347052 5.960464E-10
v 0.02227869 -0.01789961 -5.960464E-10
v 0.05056427 -0.01397403 5.960464E-10
v 0.02248937 -0.0201502 -5.960464E-10
v 0.05101587 -0.01883758 5.960464E-10
v 0.02248252 -0.02217655 -5.960464E-10
v 0.05099452 -0.02377363 5.960464E-10
v 0.02226248 -0.02435262 -5.960464E-10
v 0.05054362 -0.02831005 5.960464E-10
v 0.02181855 -0.026881 -5.960464E-10
v 0.04977626 -0.03269913 5.960464E-10
v 0.02117825 -0.02956803 -5.960464E-10
v 0.04876756 -0.03693788 5.960464E-10
v 0.02038939 -0.03224636 -5.960464E-10
v 0.0475723 -0.04099701 5.960464E-10
v 0.01950566 -0.03477554 -5.960464E-10
v 0.04619628 -0.04492913 5.960464E-10
v 0.01850341 -0.037187 -5.960464E-10
v 0.04452355 -0.0489529 5.960464E-10
v 0.01737178 -0.03949656 -5.960464E-10
v 0.04261175 -0.05285427 5.960464E-10
v 0.01610803 -0.04171406 -5.960464E-10
v 0.04046361 -0.05662346 5.960464E-10
v 0.01470752 -0.04384879 -5.960464E-10
v 0.03808376 -0.0602511 5.960464E-10
v 0.01290449 -0.04629383 -5.960464E-10
v 0.03578791 -0.06337695 5.960464E-10
vt 0.0003432035 0.009391975
vt 0.0003430843 0.9906075
vt 0.02032948 0.009391975
vt 0.02032924 0.9906075
vt 0.04031563 0.009391975
vt 0.04031563 0.9906075
vt 0.06030202 0.009391975
vt 0.06030178 0.9906075
vt 0.08028829 0.009391975
vt 0.08028817 0.9906075
vt 0.1002746 0.009391975
vt 0.1002743 0.9906075
vt 0.1202607 0.009391975
vt 0.1202607 0.9906075
vt 0.1402472 0.009391975
vt 0.140247 0.9906075
vt 0.1602334 0.009391975
vt 0.1602333 0.9906075
vt 0.1802198 0.009391975
vt 0.1802195 0.9906075
vt 0.200206 0.009391975
vt 0.2002059 0.9906075
vt 0.2201924 0.009391975
vt 0.2201922 0.9906075
vt 0.2401786 0.009391975
vt 0.2401785 0.9906075
vt 0.2601647 0.009391975
vt 0.2601646 0.9906075
vt 0.2801511 0.009391975
vt 0.280151 0.9906075
vt 0.3001375 0.009391975
vt 0.3001373 0.9906075
vt 0.3201237 0.009391975
vt 0.3201236 0.9906075
vt 0.3401102 0.009391975
vt 0.3401099 0.9906075
vt 0.3600963 0.009391975
vt 0.3600963 0.9906075
vt 0.3800827 0.009391975
vt 0.3800825 0.9906075
vt 0.400069 0.009391975
vt 0.400069 0.9906075
vt 0.4200553 0.009391975
vt 0.420055 0.9906075
vt 0.4400414 0.009391975
vt 0.4400414 0.9906075
vt 0.4600278 0.009391975
vt 0.4600276 0.9906075
vt 0.4800142 0.009391975
vt 0.4800141 0.9906075
vt 0.5000005 0.009391975
vt 0.5000002 0.9906075
vt 0.5199866 0.009391975
vt 0.5199866 0.9906075
vt 0.539973 0.009391975
vt 0.539973 0.9906075
vt 0.5599592 0.009391975
vt 0.5599592 0.9906075
vt 0.5799456 0.009391975
vt 0.5799456 0.9906075
vt 0.5999317 0.009391975
vt 0.5999315 0.9906075
vt 0.6199183 0.009391975
vt 0.6199181 0.9906075
vt 0.6399045 0.009391975
vt 0.6399045 0.9906075
vt 0.6598907 0.009391975
vt 0.6598907 0.9906075
vt 0.6798768 0.009391975
vt 0.6798768 0.9906075
vt 0.699863 0.009391975
vt 0.6998627 0.9906075
vt 0.7198496 0.009391975
vt 0.7198493 0.9906075
vt 0.7398357 0.009391975
vt 0.7398357 0.9906075
vt 0.7598219 0.009391975
vt 0.7598219 0.9906075
vt 0.779808 0.009391975
vt 0.779808 0.9906075
vt 0.7997947 0.009392032
vt 0.7997944 0.9906076
vt 0.8197808 0.009392032
vt 0.8197806 0.9906076
vt 0.8397672 0.009392032
vt 0.8397672 0.9906076
vt 0.8597534 0.009392032
vt 0.8597534 0.9906076
vt 0.8797395 0.009392032
vt 0.8797393 0.9906076
vt 0.8997259 0.009392032
vt 0.8997257 0.9906076
vt 0.9197123 0.009392032
vt 0.9197121 0.9906076
vt 0.9396985 0.009392032
vt 0.9396985 0.9906076
vt 0.9596846 0.009392032
vt 0.9596846 0.9906076
vt 0.9796712 0.009392032
vt 0.979671 0.9906076
vt 0.9996572 0.009392032
vt 0.9996569 0.9906076
vn 0 0 1
vn 0 0 1
vn 0 0 1
vn 0 0 1
vn 0 0 1
vn 0 0 1
vn 0 0 1
vn 0 0 1
vn 0 0 1
vn 0 0 1
vn 0 0 1
vn 0 0 1
vn 0 0 1
vn 0 0 -1
vn 0 0 1
vn 0 0 -1
vn 0 0 1
vn 0 0 1
vn 0 0 1
vn 0 0 1
vn 0 0 1
vn 0 0 1
vn 0 0 1
vn 0 0 1
vn 0 0 1
vn 0 0 1
vn 0 0 1
vn 0 0 1
vn 0 0 1
vn 0 0 1
vn 0 0 1
vn 0 0 1
vn 0 0 1
vn 0 0 1
vn 0 0 1
vn 0 0 1
vn 0 0 1
vn 0 0 1
vn 0 0 1
vn 0 0 1
vn 0 0 1
vn 0 0 1
vn 0 0 1
vn 0 0 1
vn 0 0 1
vn 0 0 1
vn 0 0 1
vn 0 0 1
vn 0 0 1
vn 0 0 1
vn 0 0 1
vn 0 0 1
vn 0 0 1
vn 0 0 1
vn 0 0 1
vn 0 0 1
vn 0 0 1
vn 0 0 1
vn 0 0 1
vn 0 0 1
vn 0 0 1
vn 0 0 1
vn 0 0 1
vn 0 0 1
vn 0 0 1
vn 0 0 1
vn 0 0 1
vn 0 0 1
vn 0 0 1
vn 0 0 1
vn 0 0 1
vn 0 0 1
vn 0 0 1
vn 0 0 1
vn 0 0 1
vn 0 0 1
vn 0 0 1
vn 0 0 1
vn 0 0 1
vn 0 0 1
vn 0 0 1
vn 0 0 1
vn 0 0 1
vn 0 0 1
vn 0 0 1
vn 0 0 1
vn 0 0 1
vn 0 0 1
vn 0 0 1
vn 0 0 1
vn 0 0 1
vn 0 0 1
vn 0 0 1
vn 0 0 1
vn 0 0 1
vn 0 0 1
vn 0 0 1
vn 0 0 1
vn 0 0 1
vn 0 0 1
vn 0 0 1
vn 0 0 1
g Plane004_0
f 3/3/3 2/2/2 1/1/1
f 2/2/2 3/3/3 4/4/4
f 5/5/5 4/4/4 3/3/3
f 4/4/4 5/5/5 6/6/6
f 7/7/7 6/6/6 5/5/5
f 6/6/6 7/7/7 8/8/8
f 9/9/9 8/8/8 7/7/7
f 8/8/8 9/9/9 10/10/10
f 11/11/11 10/10/10 9/9/9
f 10/10/10 11/11/11 12/12/12
f 13/13/13 12/12/12 11/11/11
f 12/12/12 13/13/13 14/14/14
f 15/15/15 14/14/14 13/13/13
f 14/14/14 15/15/15 16/16/16
f 17/17/17 16/16/16 15/15/15
f 16/16/16 17/17/17 18/18/18
f 19/19/19 18/18/18 17/17/17
f 18/18/18 19/19/19 20/20/20
f 21/21/21 20/20/20 19/19/19
f 20/20/20 21/21/21 22/22/22
f 23/23/23 22/22/22 21/21/21
f 22/22/22 23/23/23 24/24/24
f 25/25/25 24/24/24 23/23/23
f 24/24/24 25/25/25 26/26/26
f 27/27/27 26/26/26 25/25/25
f 26/26/26 27/27/27 28/28/28
f 29/29/29 28/28/28 27/27/27
f 28/28/28 29/29/29 30/30/30
f 31/31/31 30/30/30 29/29/29
f 30/30/30 31/31/31 32/32/32
f 33/33/33 32/32/32 31/31/31
f 32/32/32 33/33/33 34/34/34
f 35/35/35 34/34/34 33/33/33
f 34/34/34 35/35/35 36/36/36
f 37/37/37 36/36/36 35/35/35
f 36/36/36 37/37/37 38/38/38
f 39/39/39 38/38/38 37/37/37
f 38/38/38 39/39/39 40/40/40
f 41/41/41 40/40/40 39/39/39
f 40/40/40 41/41/41 42/42/42
f 43/43/43 42/42/42 41/41/41
f 42/42/42 43/43/43 44/44/44
f 45/45/45 44/44/44 43/43/43
f 44/44/44 45/45/45 46/46/46
f 47/47/47 46/46/46 45/45/45
f 46/46/46 47/47/47 48/48/48
f 49/49/49 48/48/48 47/47/47
f 48/48/48 49/49/49 50/50/50
f 51/51/51 50/50/50 49/49/49
f 50/50/50 51/51/51 52/52/52
f 53/53/53 52/52/52 51/51/51
f 52/52/52 53/53/53 54/54/54
f 55/55/55 54/54/54 53/53/53
f 54/54/54 55/55/55 56/56/56
f 57/57/57 56/56/56 55/55/55
f 56/56/56 57/57/57 58/58/58
f 59/59/59 58/58/58 57/57/57
f 58/58/58 59/59/59 60/60/60
f 61/61/61 60/60/60 59/59/59
f 60/60/60 61/61/61 62/62/62
f 63/63/63 62/62/62 61/61/61
f 62/62/62 63/63/63 64/64/64
f 65/65/65 64/64/64 63/63/63
f 64/64/64 65/65/65 66/66/66
f 67/67/67 66/66/66 65/65/65
f 66/66/66 67/67/67 68/68/68
f 69/69/69 68/68/68 67/67/67
f 68/68/68 69/69/69 70/70/70
f 71/71/71 70/70/70 69/69/69
f 70/70/70 71/71/71 72/72/72
f 73/73/73 72/72/72 71/71/71
f 72/72/72 73/73/73 74/74/74
f 75/75/75 74/74/74 73/73/73
f 74/74/74 75/75/75 76/76/76
f 77/77/77 76/76/76 75/75/75
f 76/76/76 77/77/77 78/78/78
f 79/79/79 78/78/78 77/77/77
f 78/78/78 79/79/79 80/80/80
f 81/81/81 80/80/80 79/79/79
f 80/80/80 81/81/81 82/82/82
f 83/83/83 82/82/82 81/81/81
f 82/82/82 83/83/83 84/84/84
f 85/85/85 84/84/84 83/83/83
f 84/84/84 85/85/85 86/86/86
f 87/87/87 86/86/86 85/85/85
f 86/86/86 87/87/87 88/88/88
f 89/89/89 88/88/88 87/87/87
f 88/88/88 89/89/89 90/90/90
f 91/91/91 90/90/90 89/89/89
f 90/90/90 91/91/91 92/92/92
f 93/93/93 92/92/92 91/91/91
f 92/92/92 93/93/93 94/94/94
f 95/95/95 94/94/94 93/93/93
f 94/94/94 95/95/95 96/96/96
f 97/97/97 96/96/96 95/95/95
f 96/96/96 97/97/97 98/98/98
f 99/99/99 98/98/98 97/97/97
f 98/98/98 99/99/99 100/100/100
f 101/101/101 100/100/100 99/99/99
f 100/100/100 101/101/101 102/102/102
