g Plane001
v 0.1066777 -0.06886104 -0.4136466
v 2.514126E-07 -1.430511E-08 -0.4637941
v -7.504008E-08 -0.06886104 -0.4271231
v 0.1157974 -1.907349E-08 -0.4491655
v -7.504008E-08 0.06886102 -0.4271231
v 0.2066522 -0.06886104 -0.3740639
v 0.1066777 0.06886102 -0.4136466
v 0.2243186 -1.430511E-08 -0.406199
v 0.2936424 -0.06886104 -0.3108619
v 0.2066522 0.06886102 -0.3740639
v 0.3187456 -1.430511E-08 -0.3375938
v 0.3621819 -0.06886104 -0.228012
v 0.2936424 0.06886102 -0.3108619
v 0.3931442 -9.536743E-09 -0.2476613
v 0.4079641 -0.06886104 -0.13072
v 0.3621819 0.06886102 -0.228012
v 0.4428403 -1.907349E-08 -0.1420519
v 0.4281124 -0.06886104 -0.02509884
v 0.4079641 0.06886102 -0.13072
v 0.4647111 -1.907349E-08 -0.02740131
v 0.4213609 -0.06886104 0.08221462
v 0.4281124 0.06886102 -0.02509884
v 0.4573823 -1.907349E-08 0.08908638
v 0.3881337 -0.06886104 0.1844774
v 0.4213609 0.06886102 0.08221462
v 0.4213145 -1.430511E-08 0.2000915
v 0.3305186 -0.06886104 0.2752644
v 0.3881337 0.06886102 0.1844774
v 0.3587739 -1.907349E-08 0.2986396
v 0.2521358 -0.06886104 0.3488708
v 0.3305186 0.06886102 0.2752644
v 0.2736904 -1.430511E-08 0.3785383
v 0.1579105 -0.06886104 0.4006716
v 0.2521358 0.06886102 0.3488708
v 0.17141 -1.430511E-08 0.4347675
v 0.05376296 -0.06886104 0.4274122
v 0.1579105 0.06886102 0.4006716
v 0.05835908 -1.430511E-08 0.4637941
v -0.05376266 -0.06886104 0.4274122
v 0.05376296 0.06886102 0.4274122
v -0.05835875 -9.536743E-09 0.4637941
v -0.1579102 -0.06886104 0.4006718
v -0.05376266 0.06886104 0.4274122
v -0.1714098 -9.536743E-09 0.4347676
v -0.2521356 -0.06886104 0.3488709
v -0.1579102 0.06886102 0.4006718
v -0.2736903 -1.907349E-08 0.3785384
v -0.3305184 -0.06886104 0.2752647
v -0.2521356 0.06886102 0.3488709
v -0.358774 -9.536743E-09 0.2986395
v -0.3881335 -0.06886104 0.1844778
v -0.3305184 0.06886104 0.2752647
v -0.4213145 -9.536743E-09 0.2000915
v -0.4213608 -0.06886104 0.08221477
v -0.3881335 0.06886102 0.1844778
v -0.4573823 -1.430511E-08 0.08908619
v -0.4281124 -0.06886104 -0.02509861
v -0.4213608 0.06886102 0.08221477
v -0.4647111 -9.536743E-09 -0.02740124
v -0.4079642 -0.06886104 -0.1307197
v -0.4281124 0.06886104 -0.02509861
v -0.4428404 -2.384186E-08 -0.1420517
v -0.362182 -0.06886104 -0.2280118
v -0.4079642 0.06886102 -0.1307197
v -0.3931444 -1.907349E-08 -0.2476611
v -0.2936426 -0.06886104 -0.3108617
v -0.362182 0.06886102 -0.2280118
v -0.3187456 -1.430511E-08 -0.3375938
v -0.2066525 -0.06886104 -0.3740637
v -0.2936426 0.06886102 -0.3108617
v -0.2243189 -2.384186E-08 -0.4061988
v -0.1066778 -0.06886104 -0.4136464
v -0.2066525 0.06886101 -0.3740637
v -0.1157975 -1.430511E-08 -0.4491655
v -3.851938E-11 -0.06886104 -0.427123
v -0.1066778 0.06886102 -0.4136464
v 1.561134E-09 -1.430511E-08 -0.4637941
v -3.851938E-11 0.06886102 -0.427123
vt 0.9600002 0
vt 1 0.5
vt 1 0
vt 0.9600002 0.5
vt 1 1
vt 0.9200001 0
vt 0.9600002 1
vt 0.9200001 0.5
vt 0.8800001 0
vt 0.9200001 1
vt 0.8800001 0.5
vt 0.8400001 0
vt 0.8800001 1
vt 0.8400001 0.5
vt 0.8000001 0
vt 0.8400001 1
vt 0.8000001 0.5
vt 0.7600001 0
vt 0.8000001 1
vt 0.7600001 0.5
vt 0.72 0
vt 0.7600001 1
vt 0.72 0.5
vt 0.68 0
vt 0.72 1
vt 0.68 0.5
vt 0.64 0
vt 0.68 1
vt 0.64 0.5
vt 0.6 0
vt 0.64 1
vt 0.6 0.5
vt 0.5599999 0
vt 0.6 1
vt 0.5599999 0.5
vt 0.5199999 0
vt 0.5599999 1
vt 0.5199999 0.5
vt 0.4799999 0
vt 0.5199999 1
vt 0.4799999 0.5
vt 0.4399999 0
vt 0.4799999 1
vt 0.4399999 0.5
vt 0.3999999 0
vt 0.4399999 1
vt 0.3999999 0.5
vt 0.36 0
vt 0.3999999 1
vt 0.36 0.5
vt 0.32 0
vt 0.36 1
vt 0.32 0.5
vt 0.28 0
vt 0.32 1
vt 0.28 0.5
vt 0.24 0
vt 0.28 1
vt 0.24 0.5
vt 0.2 0
vt 0.24 1
vt 0.2 0.5
vt 0.16 0
vt 0.2 1
vt 0.16 0.5
vt 0.12 0
vt 0.16 1
vt 0.12 0.5
vt 0.08 0
vt 0.12 1
vt 0.08 0.5
vt 0.04 0
vt 0.08 1
vt 0.04 0.5
vt 0 0
vt 0.04 1
vt 0 0.5
vt 0 1
vn 0.2195047 -0.4700409 -0.8549148
vn 0.1253334 0 -0.9921146
vn 0.1108174 -0.4671457 -0.8772083
vn 0.2486898 0 -0.9685832
vn 0.1108174 0.4671456 -0.8772083
vn 0.4252171 -0.4700408 -0.7734676
vn 0.2195048 0.4700407 -0.8549148
vn 0.4817534 0 -0.8763069
vn 0.6042114 -0.4700409 -0.6434205
vn 0.4252171 0.4700408 -0.7734676
vn 0.6845471 0 -0.7289687
vn 0.7452413 -0.4700409 -0.4729449
vn 0.6042116 0.4700409 -0.6434205
vn 0.8443277 0 -0.5358272
vn 0.8394447 -0.470041 -0.2727526
vn 0.7452413 0.4700409 -0.472945
vn 0.9510565 0 -0.3090171
vn 0.8809028 -0.4700411 -0.05542218
vn 0.8394448 0.4700409 -0.2727525
vn 0.9980267 0 -0.0627905
vn 0.8670107 -0.4700409 0.1653906
vn 0.8809029 0.4700407 -0.05542206
vn 0.9822872 0 0.1873816
vn 0.7986409 -0.4700409 0.3758114
vn 0.8670109 0.4700405 0.1653906
vn 0.9048268 1.29213E-07 0.4257797
vn 0.6800897 -0.4700409 0.5626186
vn 0.7986411 0.4700406 0.3758115
vn 0.770513 0 0.6374243
vn 0.5188057 -0.4700408 0.7140744
vn 0.6800899 0.4700406 0.5626186
vn 0.5877854 0 0.8090169
vn 0.3249234 -0.4700409 0.8206621
vn 0.5188057 0.4700407 0.7140744
vn 0.3681248 0 0.9297764
vn 0.110625 -0.4700409 0.8756847
vn 0.3249234 0.4700408 0.8206621
vn 0.1253336 0 0.9921146
vn -0.1106244 -0.4700409 0.8756847
vn 0.1106251 0.4700409 0.8756847
vn -0.1253329 0 0.9921147
vn -0.3249229 -0.4700409 0.8206624
vn -0.1106244 0.4700408 0.8756849
vn -0.3681244 0 0.9297765
vn -0.5188053 -0.470041 0.7140746
vn -0.3249229 0.4700409 0.8206624
vn -0.5877851 0 0.8090171
vn -0.6800892 -0.4700409 0.5626191
vn -0.5188053 0.4700408 0.7140747
vn -0.7705132 0 0.637424
vn -0.7986405 -0.4700411 0.3758121
vn -0.6800892 0.4700407 0.5626192
vn -0.9048271 0 0.4257793
vn -0.8670105 -0.4700408 0.1653914
vn -0.7986406 0.4700409 0.3758119
vn -0.9822872 0 0.1873815
vn -0.8809029 -0.4700408 -0.05542143
vn -0.8670105 0.4700407 0.1653915
vn -0.9980267 0 -0.06279034
vn -0.839445 -0.4700407 -0.2727523
vn -0.8809031 0.4700406 -0.05542142
vn -0.9510565 0 -0.3090168
vn -0.7452415 -0.4700408 -0.4729447
vn -0.8394451 0.4700406 -0.2727522
vn -0.844328 0 -0.5358267
vn -0.6042119 -0.4700409 -0.6434202
vn -0.7452415 0.4700408 -0.4729447
vn -0.6845469 0 -0.7289687
vn -0.4252172 -0.4700407 -0.7734676
vn -0.6042118 0.4700408 -0.6434204
vn -0.4817536 0 -0.8763067
vn -0.2195049 -0.4700412 -0.8549145
vn -0.4252174 0.4700407 -0.7734675
vn -0.2486898 0 -0.9685832
vn -0.1108171 -0.4671462 -0.8772081
vn -0.2195047 0.4700412 -0.8549145
vn -0.1253331 0 -0.9921146
vn -0.1108173 0.467146 -0.8772081
g Plane001_0
f 3/3/3 2/2/2 1/1/1
f 4/4/4 1/1/1 2/2/2
f 2/2/2 5/5/5 4/4/4
f 1/1/1 4/4/4 6/6/6
f 7/7/7 4/4/4 5/5/5
f 8/8/8 6/6/6 4/4/4
f 4/4/4 7/7/7 8/8/8
f 6/6/6 8/8/8 9/9/9
f 10/10/10 8/8/8 7/7/7
f 11/11/11 9/9/9 8/8/8
f 8/8/8 10/10/10 11/11/11
f 9/9/9 11/11/11 12/12/12
f 13/13/13 11/11/11 10/10/10
f 14/14/14 12/12/12 11/11/11
f 11/11/11 13/13/13 14/14/14
f 12/12/12 14/14/14 15/15/15
f 16/16/16 14/14/14 13/13/13
f 17/17/17 15/15/15 14/14/14
f 14/14/14 16/16/16 17/17/17
f 15/15/15 17/17/17 18/18/18
f 19/19/19 17/17/17 16/16/16
f 20/20/20 18/18/18 17/17/17
f 17/17/17 19/19/19 20/20/20
f 18/18/18 20/20/20 21/21/21
f 22/22/22 20/20/20 19/19/19
f 23/23/23 21/21/21 20/20/20
f 20/20/20 22/22/22 23/23/23
f 21/21/21 23/23/23 24/24/24
f 25/25/25 23/23/23 22/22/22
f 26/26/26 24/24/24 23/23/23
f 23/23/23 25/25/25 26/26/26
f 24/24/24 26/26/26 27/27/27
f 28/28/28 26/26/26 25/25/25
f 29/29/29 27/27/27 26/26/26
f 26/26/26 28/28/28 29/29/29
f 27/27/27 29/29/29 30/30/30
f 31/31/31 29/29/29 28/28/28
f 32/32/32 30/30/30 29/29/29
f 29/29/29 31/31/31 32/32/32
f 30/30/30 32/32/32 33/33/33
f 34/34/34 32/32/32 31/31/31
f 35/35/35 33/33/33 32/32/32
f 32/32/32 34/34/34 35/35/35
f 33/33/33 35/35/35 36/36/36
f 37/37/37 35/35/35 34/34/34
f 38/38/38 36/36/36 35/35/35
f 35/35/35 37/37/37 38/38/38
f 36/36/36 38/38/38 39/39/39
f 40/40/40 38/38/38 37/37/37
f 41/41/41 39/39/39 38/38/38
f 38/38/38 40/40/40 41/41/41
f 39/39/39 41/41/41 42/42/42
f 43/43/43 41/41/41 40/40/40
f 44/44/44 42/42/42 41/41/41
f 41/41/41 43/43/43 44/44/44
f 42/42/42 44/44/44 45/45/45
f 46/46/46 44/44/44 43/43/43
f 47/47/47 45/45/45 44/44/44
f 44/44/44 46/46/46 47/47/47
f 45/45/45 47/47/47 48/48/48
f 49/49/49 47/47/47 46/46/46
f 50/50/50 48/48/48 47/47/47
f 47/47/47 49/49/49 50/50/50
f 48/48/48 50/50/50 51/51/51
f 52/52/52 50/50/50 49/49/49
f 53/53/53 51/51/51 50/50/50
f 50/50/50 52/52/52 53/53/53
f 51/51/51 53/53/53 54/54/54
f 55/55/55 53/53/53 52/52/52
f 56/56/56 54/54/54 53/53/53
f 53/53/53 55/55/55 56/56/56
f 54/54/54 56/56/56 57/57/57
f 58/58/58 56/56/56 55/55/55
f 59/59/59 57/57/57 56/56/56
f 56/56/56 58/58/58 59/59/59
f 57/57/57 59/59/59 60/60/60
f 61/61/61 59/59/59 58/58/58
f 62/62/62 60/60/60 59/59/59
f 59/59/59 61/61/61 62/62/62
f 60/60/60 62/62/62 63/63/63
f 64/64/64 62/62/62 61/61/61
f 65/65/65 63/63/63 62/62/62
f 62/62/62 64/64/64 65/65/65
f 63/63/63 65/65/65 66/66/66
f 67/67/67 65/65/65 64/64/64
f 68/68/68 66/66/66 65/65/65
f 65/65/65 67/67/67 68/68/68
f 66/66/66 68/68/68 69/69/69
f 70/70/70 68/68/68 67/67/67
f 71/71/71 69/69/69 68/68/68
f 68/68/68 70/70/70 71/71/71
f 69/69/69 71/71/71 72/72/72
f 73/73/73 71/71/71 70/70/70
f 74/74/74 72/72/72 71/71/71
f 71/71/71 73/73/73 74/74/74
f 72/72/72 74/74/74 75/75/75
f 76/76/76 74/74/74 73/73/73
f 77/77/77 75/75/75 74/74/74
f 74/74/74 76/76/76 77/77/77
f 78/78/78 77/77/77 76/76/76
