g Plane017
v -1.741299 -0.9556249 -0.0001028229
v -1.554902 -0.874069 0.0001534649
v -1.50973 -0.9725505 -2.457004E-05
v -1.692787 -1.061349 -0.0002928479
v -1.462029 -1.065394 0.0001304414
v -1.640709 -1.162701 -0.000123257
v -1.412425 -1.151273 0.0006197621
v -1.585868 -1.257634 0.0004181126
v -1.360993 -1.230205 0.001438289
v -1.528196 -1.346129 0.001336355
v -1.307803 -1.302229 0.002580156
v -1.467614 -1.428148 0.00263735
v -1.25293 -1.367405 0.004038914
v -1.404053 -1.503629 0.004327537
v -1.196435 -1.425823 0.005807946
v -1.33745 -1.572485 0.006413541
v -1.13836 -1.477599 0.007881087
v -1.267765 -1.634598 0.008901512
v -1.078707 -1.522878 0.0102536
v -1.194992 -1.689823 0.01179621
v -1.009803 -1.56481 0.01315581
v -1.10391 -1.74518 0.01563519
v -0.9314051 -1.599605 0.01647401
v -1.003007 -1.790016 0.01993119
v -0.8468103 -1.626289 0.02021606
v -0.8983535 -1.823061 0.0246361
v -0.7582917 -1.645079 0.02444858
v -0.7920197 -1.845649 0.02987536
v -0.6682468 -1.656365 0.0292323
v -0.685951 -1.858946 0.03578042
v -0.5791242 -1.660681 0.03461635
v -0.582043 -1.863966 0.04249413
v -0.4934053 -1.658683 0.04062705
v -0.4821569 -1.861605 0.05018233
v -0.4134686 -1.65111 0.04729222
v -0.3871259 -1.852509 0.05911506
v -0.332463 -1.63433 0.05539332
v -0.2803138 -1.830462 0.06980892
v -0.2493843 -1.606502 0.06429286
v -0.1766433 -1.795776 0.08100042
v -0.1668385 -1.569333 0.07409612
v -0.07732171 -1.751057 0.09302318
v -0.08732299 -1.524834 0.08491039
v 0.01633475 -1.698606 0.1062088
v -0.01321555 -1.475207 0.09682243
v 0.1028897 -1.640539 0.1209095
v 0.05319785 -1.422798 0.1098595
v 0.1808155 -1.57882 0.1375368
v 0.1103259 -1.36941 0.1242532
v 0.2502388 -1.51346 0.1569555
v 0.161402 -1.308221 0.1413407
v 0.3181226 -1.432164 0.179707
v 0.2042163 -1.240354 0.159477
v 0.3732794 -1.344703 0.2033412
v 0.2395713 -1.166107 0.1796666
v 0.4168657 -1.252898 0.2289532
v 0.2680738 -1.086043 0.2029303
v 0.4502341 -1.158304 0.2576217
v 0.2902956 -1.000962 0.2303225
v 0.4747721 -1.062242 0.290392
v 0.3064426 -0.914084 0.262166
v 0.491688 -0.9668727 0.3276841
v 0.3132295 -0.8384233 0.2935027
v 0.4997975 -0.8770666 0.364877
v 0.3138768 -0.754667 0.3297421
v 0.5005276 -0.7833572 0.4054621
v 0.3091136 -0.6663377 0.3695749
v 0.4953435 -0.6878398 0.44864
v 0.2998851 -0.576662 0.4117837
v 0.4854935 -0.5929065 0.4935201
v 0.2872243 -0.4886865 0.4552069
v 0.4721382 -0.5011281 0.5391546
v 0.2722026 -0.4053374 0.4987177
v 0.4564 -0.4151968 0.5845624
v 0.2559099 -0.3294326 0.5412124
v 0.439383 -0.3379125 0.6287389
v 0.2329289 -0.2476995 0.5924459
v 0.4141925 -0.2486931 0.6848457
v 0.2033376 -0.170585 0.646516
v 0.3819713 -0.1647357 0.7437323
v 0.1692393 -0.1000522 0.7013142
v 0.345321 -0.08900173 0.8026471
v 0.1323002 -0.03608486 0.7559649
v 0.3061709 -0.02138565 0.8605983
v 0.09420027 0.02136196 0.8095993
v 0.2664375 0.03818928 0.9165871
v 0.05268331 0.07659923 0.8666503
v 0.2231465 0.09534168 0.9761319
v -0.002198706 0.1306465 0.9388469
v 0.1638657 0.1538073 1.054092
v -0.05888985 0.170618 1.008444
v 0.101352 0.1983786 1.130702
v -0.1112535 0.1976489 1.066476
v 0.0395135 0.2319597 1.198716
v -0.1548284 0.2130269 1.105391
v -0.04285771 0.263898 1.267471
v -0.1888764 0.2124848 1.114241
v -0.194626 0.2497684 1.314171
v -0.2312948 0.1971721 1.11254
v -0.2726706 0.1721572 1.310169
v -0.2338887 0.1370766 1.087196
v -0.2885291 0.04496433 1.260184
vt -1.788139E-07 1
vt 0.9999998 1
vt 0.9999998 0.9800002
vt -1.77304E-07 0.9800001
vt 0.9999998 0.9600002
vt -1.75794E-07 0.9600001
vt 0.9999998 0.9400002
vt -1.742841E-07 0.9400001
vt 0.9999998 0.9200002
vt -1.727741E-07 0.9200001
vt 0.9999998 0.9000002
vt -1.712641E-07 0.9000001
vt 0.9999998 0.8800002
vt -1.697542E-07 0.8800001
vt 0.9999998 0.8600002
vt -1.682442E-07 0.8600001
vt 0.9999998 0.8400002
vt -1.667343E-07 0.8400002
vt 0.9999998 0.8200002
vt -1.652243E-07 0.8200002
vt 0.9999998 0.8000002
vt -1.637144E-07 0.8000001
vt 0.9999998 0.7800002
vt -1.622044E-07 0.7800002
vt 0.9999998 0.7600002
vt -1.606944E-07 0.7600002
vt 0.9999998 0.7400002
vt -1.591845E-07 0.7400001
vt 0.9999998 0.7200003
vt -1.576745E-07 0.7200001
vt 0.9999998 0.7000002
vt -1.561646E-07 0.7000002
vt 0.9999998 0.6800002
vt -1.546546E-07 0.6800001
vt 0.9999998 0.6600002
vt -1.531446E-07 0.6600001
vt 0.9999998 0.6400002
vt -1.516347E-07 0.6400001
vt 0.9999998 0.6200002
vt -1.501247E-07 0.6200001
vt 0.9999998 0.6000001
vt -1.486148E-07 0.6000001
vt 0.9999998 0.5800002
vt -1.471048E-07 0.58
vt 0.9999998 0.5600002
vt -1.455949E-07 0.5600001
vt 0.9999998 0.5400001
vt -1.440849E-07 0.5400001
vt 0.9999998 0.5200001
vt -1.425749E-07 0.52
vt 0.9999998 0.5000001
vt -1.41065E-07 0.5000001
vt 0.9999998 0.4800001
vt -1.39555E-07 0.4800001
vt 0.9999998 0.4600002
vt -1.380451E-07 0.4600001
vt 0.9999998 0.4400002
vt -1.365351E-07 0.4400001
vt 0.9999998 0.4200002
vt -1.350251E-07 0.4200001
vt 0.9999998 0.4000002
vt -1.335152E-07 0.4000002
vt 0.9999998 0.3800002
vt -1.320052E-07 0.3800002
vt 0.9999998 0.3600003
vt -1.304953E-07 0.3600002
vt 0.9999998 0.3400003
vt -1.289853E-07 0.3400002
vt 0.9999998 0.3200003
vt -1.274754E-07 0.3200002
vt 0.9999998 0.3000003
vt -1.259654E-07 0.3000003
vt 0.9999998 0.2800003
vt -1.244555E-07 0.2800003
vt 0.9999998 0.2600003
vt -1.229455E-07 0.2600003
vt 0.9999998 0.2400004
vt -1.214355E-07 0.2400003
vt 0.9999998 0.2200004
vt -1.199256E-07 0.2200003
vt 0.9999999 0.2000004
vt -1.184156E-07 0.2000003
vt 0.9999999 0.1800004
vt -1.169057E-07 0.1800004
vt 0.9999999 0.1600004
vt -1.153957E-07 0.1600004
vt 0.9999999 0.1400005
vt -1.138858E-07 0.1400004
vt 0.9999999 0.1200005
vt -1.123758E-07 0.1200004
vt 0.9999999 0.1000005
vt -1.108658E-07 0.1000004
vt 0.9999999 0.08000052
vt -1.093559E-07 0.08000046
vt 0.9999999 0.06000054
vt -1.078459E-07 0.06000048
vt 0.9999999 0.04000056
vt -1.06336E-07 0.0400005
vt 0.9999999 0.02000058
vt -1.04826E-07 0.02000052
vt 0.9999999 5.960464E-07
vt -1.033161E-07 5.364418E-07
vn -0.0004859572 -0.002025338 0.9999979
vn -0.0004859572 -0.002025338 0.9999979
vn -0.001153988 -0.0006442519 0.9999992
vn -0.001153366 -0.0006455383 0.9999992
vn -0.002631312 0.002224728 0.999994
vn -0.002630747 0.002223688 0.999994
vn -0.004407916 0.005292255 0.9999763
vn -0.004407191 0.005291071 0.9999763
vn -0.00652413 0.008530956 0.9999423
vn -0.006523219 0.008529641 0.9999424
vn -0.009030212 0.01191501 0.9998883
vn -0.009029099 0.01191359 0.9998883
vn -0.01197468 0.01540267 0.9998097
vn -0.01197338 0.01540122 0.9998097
vn -0.01539876 0.01893369 0.9997022
vn -0.0153973 0.01893229 0.9997022
vn -0.01932888 0.02242842 0.9995616
vn -0.01932737 0.02242718 0.9995616
vn -0.02353848 0.02563538 0.9993942
vn -0.02351076 0.025616 0.9993954
vn -0.02754966 0.02813254 0.9992245
vn -0.02755389 0.02813481 0.9992243
vn -0.03207785 0.0302612 0.9990271
vn -0.03208727 0.03026515 0.9990268
vn -0.03803989 0.03249201 0.9987478
vn -0.0380496 0.03249531 0.9987473
vn -0.04563851 0.03482016 0.998351
vn -0.04564785 0.03482279 0.9983505
vn -0.05526334 0.03727191 0.9977759
vn -0.05527174 0.03727388 0.9977754
vn -0.06757553 0.03988356 0.9969167
vn -0.06758192 0.0398848 0.9969162
vn -0.08368839 0.0425985 0.9955811
vn -0.08368833 0.04259849 0.9955811
vn -0.1007535 0.04404499 0.993936
vn -0.1006157 0.04404354 0.99395
vn -0.1144692 0.04259878 0.9925131
vn -0.114496 0.04259193 0.9925102
vn -0.1277499 0.03855654 0.9910567
vn -0.1277739 0.0385483 0.9910539
vn -0.1440015 0.03235643 0.9890484
vn -0.1440216 0.03234815 0.9890457
vn -0.1640992 0.02342638 0.9861656
vn -0.1641141 0.02341937 0.9861633
vn -0.1895058 0.0106874 0.9818215
vn -0.1895121 0.0106841 0.9818203
vn -0.2223903 -0.008185707 0.9749234
vn -0.2223642 -0.008169789 0.9749295
vn -0.2555314 -0.03166483 0.9662821
vn -0.2553529 -0.03151636 0.9663341
vn -0.2807686 -0.05808958 0.958016
vn -0.280804 -0.0581368 0.9580027
vn -0.3031296 -0.09153198 0.9485433
vn -0.3031727 -0.0916033 0.9485226
vn -0.326207 -0.1334438 0.9358321
vn -0.3262522 -0.1335332 0.9358036
vn -0.3492796 -0.1826342 0.9190476
vn -0.3493233 -0.1827343 0.9190111
vn -0.3718093 -0.2375928 0.8973892
vn -0.3718495 -0.2376976 0.8973449
vn -0.3893917 -0.2937518 0.8729742
vn -0.3893295 -0.2934919 0.8730894
vn -0.3967542 -0.3413918 0.8520785
vn -0.3967581 -0.3414768 0.8520426
vn -0.3973887 -0.3787254 0.8358524
vn -0.397388 -0.3787723 0.8358316
vn -0.3962201 -0.4102677 0.8213952
vn -0.3962185 -0.4102975 0.8213811
vn -0.3941366 -0.4391838 0.8073251
vn -0.3941347 -0.4392059 0.807314
vn -0.3914405 -0.4680713 0.7922649
vn -0.3914385 -0.4680907 0.7922544
vn -0.388106 -0.4996679 0.7744068
vn -0.3881036 -0.4996886 0.7743946
vn -0.3814205 -0.5417773 0.7489965
vn -0.3814714 -0.5415173 0.7491586
vn -0.3671968 -0.5957181 0.7143433
vn -0.367185 -0.5957547 0.714319
vn -0.3470112 -0.6494725 0.676586
vn -0.3469909 -0.6495196 0.6765512
vn -0.3254263 -0.6950701 0.6410733
vn -0.3254054 -0.6951103 0.6410405
vn -0.3042358 -0.7331454 0.6082257
vn -0.3042147 -0.7331806 0.6081937
vn -0.2826639 -0.767377 0.5755292
vn -0.2826527 -0.7673936 0.5755124
vn -0.242298 -0.8199282 0.5186612
vn -0.2424716 -0.8197252 0.5189008
vn -0.1816616 -0.8797186 0.4394249
vn -0.1817048 -0.8796829 0.4394784
vn -0.1269269 -0.9174905 0.3769625
vn -0.1270191 -0.9174397 0.3770551
vn -0.08582319 -0.9353187 0.3432393
vn -0.08632214 -0.9351681 0.3435243
vn 0.03833278 -0.9637672 0.2639764
vn 0.02756399 -0.962133 0.2711828
vn 0.3689781 -0.9165092 0.1544864
vn 0.3973032 -0.905606 0.1484183
vn 0.8450605 -0.5110815 0.1570623
vn 0.8403171 -0.5192372 0.155756
vn 0.9652731 -0.1736159 0.1952054
vn 0.9652731 -0.1736159 0.1952054
g Plane017_0
f 3/3/3 2/2/2 1/1/1
f 4/4/4 3/3/3 1/1/1
f 5/5/5 3/3/3 4/4/4
f 6/6/6 5/5/5 4/4/4
f 7/7/7 5/5/5 6/6/6
f 8/8/8 7/7/7 6/6/6
f 9/9/9 7/7/7 8/8/8
f 10/10/10 9/9/9 8/8/8
f 11/11/11 9/9/9 10/10/10
f 12/12/12 11/11/11 10/10/10
f 13/13/13 11/11/11 12/12/12
f 14/14/14 13/13/13 12/12/12
f 15/15/15 13/13/13 14/14/14
f 16/16/16 15/15/15 14/14/14
f 17/17/17 15/15/15 16/16/16
f 18/18/18 17/17/17 16/16/16
f 19/19/19 17/17/17 18/18/18
f 20/20/20 19/19/19 18/18/18
f 21/21/21 19/19/19 20/20/20
f 22/22/22 21/21/21 20/20/20
f 23/23/23 21/21/21 22/22/22
f 24/24/24 23/23/23 22/22/22
f 25/25/25 23/23/23 24/24/24
f 26/26/26 25/25/25 24/24/24
f 27/27/27 25/25/25 26/26/26
f 28/28/28 27/27/27 26/26/26
f 29/29/29 27/27/27 28/28/28
f 30/30/30 29/29/29 28/28/28
f 31/31/31 29/29/29 30/30/30
f 32/32/32 31/31/31 30/30/30
f 33/33/33 31/31/31 32/32/32
f 34/34/34 33/33/33 32/32/32
f 35/35/35 33/33/33 34/34/34
f 36/36/36 35/35/35 34/34/34
f 37/37/37 35/35/35 36/36/36
f 38/38/38 37/37/37 36/36/36
f 39/39/39 37/37/37 38/38/38
f 40/40/40 39/39/39 38/38/38
f 41/41/41 39/39/39 40/40/40
f 42/42/42 41/41/41 40/40/40
f 43/43/43 41/41/41 42/42/42
f 44/44/44 43/43/43 42/42/42
f 45/45/45 43/43/43 44/44/44
f 46/46/46 45/45/45 44/44/44
f 47/47/47 45/45/45 46/46/46
f 48/48/48 47/47/47 46/46/46
f 49/49/49 47/47/47 48/48/48
f 50/50/50 49/49/49 48/48/48
f 51/51/51 49/49/49 50/50/50
f 52/52/52 51/51/51 50/50/50
f 53/53/53 51/51/51 52/52/52
f 54/54/54 53/53/53 52/52/52
f 55/55/55 53/53/53 54/54/54
f 56/56/56 55/55/55 54/54/54
f 57/57/57 55/55/55 56/56/56
f 58/58/58 57/57/57 56/56/56
f 59/59/59 57/57/57 58/58/58
f 60/60/60 59/59/59 58/58/58
f 61/61/61 59/59/59 60/60/60
f 62/62/62 61/61/61 60/60/60
f 63/63/63 61/61/61 62/62/62
f 64/64/64 63/63/63 62/62/62
f 65/65/65 63/63/63 64/64/64
f 66/66/66 65/65/65 64/64/64
f 67/67/67 65/65/65 66/66/66
f 68/68/68 67/67/67 66/66/66
f 69/69/69 67/67/67 68/68/68
f 70/70/70 69/69/69 68/68/68
f 71/71/71 69/69/69 70/70/70
f 72/72/72 71/71/71 70/70/70
f 73/73/73 71/71/71 72/72/72
f 74/74/74 73/73/73 72/72/72
f 75/75/75 73/73/73 74/74/74
f 76/76/76 75/75/75 74/74/74
f 77/77/77 75/75/75 76/76/76
f 78/78/78 77/77/77 76/76/76
f 79/79/79 77/77/77 78/78/78
f 80/80/80 79/79/79 78/78/78
f 81/81/81 79/79/79 80/80/80
f 82/82/82 81/81/81 80/80/80
f 83/83/83 81/81/81 82/82/82
f 84/84/84 83/83/83 82/82/82
f 85/85/85 83/83/83 84/84/84
f 86/86/86 85/85/85 84/84/84
f 87/87/87 85/85/85 86/86/86
f 88/88/88 87/87/87 86/86/86
f 89/89/89 87/87/87 88/88/88
f 90/90/90 89/89/89 88/88/88
f 91/91/91 89/89/89 90/90/90
f 92/92/92 91/91/91 90/90/90
f 93/93/93 91/91/91 92/92/92
f 94/94/94 93/93/93 92/92/92
f 95/95/95 93/93/93 94/94/94
f 96/96/96 95/95/95 94/94/94
f 97/97/97 95/95/95 96/96/96
f 98/98/98 97/97/97 96/96/96
f 99/99/99 97/97/97 98/98/98
f 100/100/100 99/99/99 98/98/98
f 101/101/101 99/99/99 100/100/100
f 102/102/102 101/101/101 100/100/100
