g Plane003
v 0.004338834 -0.5674269 -1.257321E-06
v 0.1478976 -0.9063959 -1.255477E-06
v 0.004338543 -0.9176942 -1.272632E-06
v 0.09310396 -0.560441 -1.244768E-06
v 0.2879217 -0.8727793 -1.239607E-06
v 0.1796834 -0.5396552 -1.233009E-06
v 0.420963 -0.8176718 -1.225286E-06
v 0.2619453 -0.5055813 -1.222208E-06
v 0.5437458 -0.7424306 -1.212742E-06
v 0.3378641 -0.4590583 -1.212506E-06
v 0.6532465 -0.6489083 -1.202159E-06
v 0.4055704 -0.4012317 -1.204016E-06
v 0.746769 -0.5394077 -1.193671E-06
v 0.463397 -0.3335255 -1.196822E-06
v 0.8220105 -0.4166251 -1.187362E-06
v 0.5099201 -0.2576068 -1.190975E-06
v 0.8771181 -0.2835837 -1.183261E-06
v 0.5439942 -0.1753449 -1.186493E-06
v 0.910735 -0.1435596 -1.181344E-06
v 0.5647802 -0.0887655 -1.183362E-06
v 0.9220334 -5.986461E-07 -1.181533E-06
v 0.5717661 -3.701537E-07 -1.181533E-06
v 0.9107352 0.1435584 -1.183697E-06
v 0.5647802 0.08876477 -1.180925E-06
v 0.8771185 0.2835826 -1.187658E-06
v 0.5439944 0.1753442 -1.181428E-06
v 0.8220109 0.416624 -1.193193E-06
v 0.5099205 0.2576061 -1.182904E-06
v 0.7467697 0.5394067 -1.200039E-06
v 0.4633974 0.3335249 -1.185191E-06
v 0.6532474 0.6489074 -1.207903E-06
v 0.4055709 0.4012312 -1.188108E-06
v 0.5437468 0.7424299 -1.216465E-06
v 0.3378646 0.4590578 -1.191456E-06
v 0.4209641 0.8176713 -1.225389E-06
v 0.2619459 0.5055809 -1.195028E-06
v 0.2879228 0.8727789 -1.234331E-06
v 0.1796841 0.539655 -1.19861E-06
v 0.1478987 0.9063957 -1.242943E-06
v 0.09310468 0.5604409 -1.201989E-06
v 0.004339755 0.9176942 -1.250888E-06
v 0.004339561 0.5674269 -1.204956E-06
vt 0.995832 0.002926499
vt 0.9462488 0.9970734
vt 0.995832 0.9970734
vt 0.9462487 0.002926503
vt 0.8966656 0.9970734
vt 0.8966655 0.002926507
vt 0.8470823 0.9970734
vt 0.8470823 0.00292651
vt 0.7974991 0.9970734
vt 0.7974991 0.002926514
vt 0.7479159 0.9970734
vt 0.7479158 0.002926518
vt 0.6983327 0.9970734
vt 0.6983326 0.002926521
vt 0.6487495 0.9970734
vt 0.6487494 0.002926525
vt 0.5991663 0.9970734
vt 0.5991662 0.002926529
vt 0.549583 0.9970734
vt 0.5495829 0.002926533
vt 0.4999998 0.9970734
vt 0.4999998 0.002926536
vt 0.4504167 0.9970734
vt 0.4504166 0.00292654
vt 0.4008335 0.9970734
vt 0.4008334 0.002926544
vt 0.3512503 0.9970734
vt 0.3512502 0.002926548
vt 0.3016672 0.9970734
vt 0.3016672 0.002926551
vt 0.252084 0.9970734
vt 0.252084 0.002926555
vt 0.2025008 0.9970734
vt 0.2025008 0.002926559
vt 0.1529176 0.9970734
vt 0.1529176 0.002926563
vt 0.1033345 0.9970734
vt 0.1033345 0.002926566
vt 0.05375135 0.9970734
vt 0.05375129 0.00292657
vt 0.004168153 0.9970734
vt 0.004168093 0.002926574
vn 0 0 1
vn 0 0 1
vn 0 0 1
vn 0 0 1
vn 0 0 1
vn 0 0 1
vn 0 0 1
vn 0 0 1
vn 0 0 1
vn 0 0 1
vn 0 0 1
vn 0 0 1
vn 0 0 1
vn 0 0 1
vn 0 0 1
vn 0 0 1
vn 0 0 1
vn 0 0 1
vn 0 0 1
vn 0 0 1
vn 0 0 1
vn 0 0 1
vn 0 0 1
vn 0 0 1
vn 0 0 1
vn 0 0 1
vn 0 0 1
vn 0 0 1
vn 0 0 1
vn 0 0 1
vn 0 0 1
vn 0 0 1
vn 0 0 1
vn 0 0 1
vn 0 0 1
vn 0 0 1
vn 0 0 1
vn 0 0 1
vn 0 0 1
vn 0 0 1
vn 0 0 1
vn 0 0 1
g Plane003_0
f 3/3/3 2/2/2 1/1/1
f 2/2/2 4/4/4 1/1/1
f 2/2/2 5/5/5 4/4/4
f 5/5/5 6/6/6 4/4/4
f 5/5/5 7/7/7 6/6/6
f 7/7/7 8/8/8 6/6/6
f 7/7/7 9/9/9 8/8/8
f 9/9/9 10/10/10 8/8/8
f 9/9/9 11/11/11 10/10/10
f 11/11/11 12/12/12 10/10/10
f 11/11/11 13/13/13 12/12/12
f 13/13/13 14/14/14 12/12/12
f 13/13/13 15/15/15 14/14/14
f 15/15/15 16/16/16 14/14/14
f 15/15/15 17/17/17 16/16/16
f 17/17/17 18/18/18 16/16/16
f 17/17/17 19/19/19 18/18/18
f 19/19/19 20/20/20 18/18/18
f 19/19/19 21/21/21 20/20/20
f 21/21/21 22/22/22 20/20/20
f 21/21/21 23/23/23 22/22/22
f 23/23/23 24/24/24 22/22/22
f 23/23/23 25/25/25 24/24/24
f 25/25/25 26/26/26 24/24/24
f 25/25/25 27/27/27 26/26/26
f 27/27/27 28/28/28 26/26/26
f 27/27/27 29/29/29 28/28/28
f 29/29/29 30/30/30 28/28/28
f 29/29/29 31/31/31 30/30/30
f 31/31/31 32/32/32 30/30/30
f 31/31/31 33/33/33 32/32/32
f 33/33/33 34/34/34 32/32/32
f 33/33/33 35/35/35 34/34/34
f 35/35/35 36/36/36 34/34/34
f 35/35/35 37/37/37 36/36/36
f 37/37/37 38/38/38 36/36/36
f 37/37/37 39/39/39 38/38/38
f 39/39/39 40/40/40 38/38/38
f 39/39/39 41/41/41 40/40/40
f 41/41/41 42/42/42 40/40/40
