g Plane004
v -0.3973513 0.01678566 0.180076
v -0.4596183 0.0180625 0.1588619
v -0.4343864 0.01582113 0.196102
v -0.4073325 0.01942415 0.1362359
v -0.4878763 0.02019684 0.1157694
v -0.4220568 0.02207466 0.0836058
v -0.5183226 0.01889523 0.07766716
v -0.4436767 0.02086777 0.02877335
v -0.5456017 0.01403913 0.05516579
v -0.4697319 0.01354799 -0.01729698
v -0.5668182 0.007878494 0.04759132
v -0.5031168 -0.002134437 -0.05393112
v -0.5809826 0.002815666 0.05020294
v -0.5443982 -0.02828037 -0.07631984
v -0.595795 -0.003506069 0.05807503
v -0.5881057 -0.05920227 -0.08108959
v -0.6176741 -0.01506657 0.07211052
v -0.6311222 -0.09324405 -0.07208657
v -0.6403118 -0.02927095 0.09291061
v -0.6700159 -0.132007 -0.05036087
v -0.6599054 -0.04485565 0.1200458
v -0.6988479 -0.1757597 -0.01593254
v -0.6723387 -0.05954521 0.1503657
v -0.7111323 -0.2202483 0.02678596
v -0.6740078 -0.06704444 0.174461
v -0.7181627 -0.2508416 0.06223655
v -0.6757638 -0.07871074 0.2093414
v -0.7232316 -0.2795711 0.1011921
v -0.6764688 -0.09286247 0.2512684
v -0.7260154 -0.3078751 0.1426004
v -0.6752646 -0.1089413 0.2974326
v -0.7259105 -0.3360671 0.1844795
v -0.6713556 -0.1268602 0.3455717
v -0.72225 -0.363991 0.224302
v -0.6638541 -0.1469615 0.3939176
v -0.7144598 -0.3910597 0.259044
v -0.6514446 -0.1703107 0.4412655
v -0.7023934 -0.4159645 0.2851211
v -0.631555 -0.1993121 0.4866705
v -0.6871603 -0.4360565 0.2986869
v -0.6012629 -0.2329103 0.523367
v -0.6725031 -0.4499772 0.30066
v -0.5670445 -0.2569668 0.5420136
v -0.655193 -0.4695974 0.3047918
v -0.5281909 -0.280932 0.5553954
v -0.631269 -0.491943 0.3069753
v -0.4856361 -0.3049936 0.5646182
v -0.6020306 -0.516032 0.3067003
v -0.4402149 -0.3291523 0.5703671
v -0.5688767 -0.5410689 0.3038761
v -0.3927855 -0.3532802 0.5731226
v -0.533182 -0.5663872 0.2986181
v -0.3442325 -0.3771861 0.573265
v -0.4962954 -0.5913839 0.2911405
v -0.2954377 -0.4006653 0.5711191
v -0.4595692 -0.6154689 0.2817138
v -0.2472372 -0.4235461 0.5669657
v -0.4243997 -0.6380191 0.2706522
v -0.2003573 -0.4457535 0.5610291
v -0.3922952 -0.6583152 0.2583266
v -0.1552917 -0.4674263 0.5534223
v -0.3649946 -0.675424 0.245219
v -0.1057579 -0.4915422 0.5406121
v -0.3437567 -0.6896901 0.2323769
v -0.05261127 -0.5176541 0.5200953
v -0.3222169 -0.7056686 0.2173135
v -0.003279304 -0.5419136 0.4958644
v -0.2993121 -0.7227489 0.1987333
v 0.04249996 -0.5634837 0.4688314
v -0.2756316 -0.7402275 0.1769385
v 0.08481018 -0.5815039 0.4398372
v -0.2515849 -0.7574248 0.152301
v 0.1235271 -0.5950517 0.4097511
v -0.2273741 -0.7737237 0.1251656
v 0.1582681 -0.6031374 0.379577
v -0.202943 -0.788574 0.09574043
v 0.1882921 -0.6047617 0.3506026
v -0.177877 -0.801434 0.06395256
v 0.2123566 -0.5991296 0.3245857
v -0.1512598 -0.8115592 0.02925644
v 0.2402742 -0.589376 0.2912561
v -0.1328143 -0.8141423 0.0003656006
v 0.2685999 -0.5752792 0.2504784
v -0.1214403 -0.8091738 -0.02773868
v 0.2905035 -0.5563775 0.2118215
v -0.109861 -0.7987263 -0.06254295
v 0.3078013 -0.5342716 0.176094
v -0.09833343 -0.7828122 -0.1028225
v 0.3217227 -0.5102123 0.1440845
v -0.08652733 -0.7617932 -0.147333
v 0.3329702 -0.4854004 0.11684
v -0.07358544 -0.7360811 -0.1950883
v 0.3417161 -0.4611784 0.09571587
v -0.05812095 -0.7059477 -0.2454088
v 0.347425 -0.439158 0.08231651
v -0.03803852 -0.671393 -0.2978672
v 0.3484397 -0.4212839 0.07825454
v -0.01012165 -0.6320865 -0.3520414
v 0.3545067 -0.4134256 0.07674446
v 0.01752846 -0.578836 -0.401329
v 0.3656086 -0.3970842 0.07042915
v 0.0439399 -0.5272383 -0.4400476
v 0.381032 -0.3729371 0.06133568
v 0.06792846 -0.4783398 -0.4712155
v 0.3998495 -0.3420136 0.05048851
v 0.08852608 -0.4328307 -0.4968528
v 0.4211343 -0.3050666 0.03809044
v 0.1047639 -0.3916778 -0.5181581
v 0.4440568 -0.2623143 0.02363815
v 0.1155765 -0.3563824 -0.5356238
v 0.4678222 -0.2131866 0.005831757
v 0.1198634 -0.3292339 -0.548946
v 0.4913402 -0.1560155 -0.01782314
v 0.1168189 -0.3136202 -0.5566258
v 0.509404 -0.07236915 -0.05720009
v 0.1097964 -0.3222778 -0.5538649
v 0.5057358 0.01727428 -0.1044285
v 0.1077355 -0.3357107 -0.5511298
v 0.4912851 0.07931928 -0.1378518
v 0.1027911 -0.3268178 -0.5629862
v 0.4788115 0.1143989 -0.1518016
v 0.08903725 -0.292206 -0.5920182
v 0.4736797 0.1220652 -0.1462209
v 0.06794304 -0.2274035 -0.6351945
v 0.4726222 0.1005628 -0.1266625
v 0.04960956 -0.1266295 -0.6838771
v 0.4656637 0.05905977 -0.1051608
v 0.05084587 0.004974346 -0.7229446
v 0.4625191 0.04124563 -0.09637581
v 0.06205082 0.1018347 -0.7356368
v 0.4659675 0.04395441 -0.09160278
v 0.07108841 0.1715186 -0.7373558
v 0.4716097 0.05587251 -0.08556282
v 0.08207573 0.2357305 -0.7352448
v 0.4796857 0.07539499 -0.07760082
v 0.09423859 0.2957156 -0.7306949
v 0.4901489 0.1011922 -0.06753315
v 0.1070892 0.3524459 -0.7246252
v 0.5028134 0.1322425 -0.05544205
v 0.1202791 0.406582 -0.7176899
v 0.5174327 0.1677919 -0.04155205
v 0.1335202 0.4585194 -0.7104
v 0.5337399 0.2073047 -0.02616352
v 0.1465453 0.5084344 -0.7031912
v 0.551466 0.2504244 -0.009618148
v 0.1590895 0.5563256 -0.6964569
v 0.5703464 0.2969464 0.007714843
v 0.1708814 0.6020348 -0.6905651
v 0.5879157 0.340286 0.02400169
v 0.180693 0.6431421 -0.6861636
v 0.6021457 0.3778124 0.0396122
v 0.1887234 0.6840883 -0.6811584
v 0.6156979 0.4170872 0.05649994
v 0.1965526 0.728862 -0.674547
v 0.6289095 0.4574536 0.07432182
v 0.2044186 0.7766263 -0.666693
v 0.6420578 0.4981637 0.09272239
v 0.2126164 0.8266317 -0.6579482
v 0.655373 0.538393 0.1113326
v 0.2214905 0.8782092 -0.6486501
v 0.6690297 0.5772423 0.1297703
v 0.2314405 0.9307625 -0.6391231
v 0.6831235 0.6137298 0.1476401
v 0.2429433 0.9837762 -0.6296797
v 0.6976259 0.6467764 0.1645374
v 0.2566019 1.036836 -0.6206214
v 0.7123011 0.6751928 0.18006
v 0.2732256 1.089636 -0.612253
v 0.7265651 0.697696 0.1938411
v 0.2939728 1.141963 -0.6049145
v 0.7392781 0.7130405 0.2056396
v 0.3205564 1.193569 -0.5990711
v 0.7485567 0.7204438 0.2155344
v 0.355434 1.24374 -0.5955095
v 0.7551287 0.7223746 0.2241434
v 0.3997429 1.289715 -0.5953299
v 0.7717297 0.7279832 0.2317628
v 0.4443869 1.328131 -0.597159
v 0.788604 0.7314296 0.2387786
v 0.4930835 1.361663 -0.6013974
v 0.8064364 0.7331772 0.2452491
v 0.5451492 1.389847 -0.6081033
v 0.825994 0.733438 0.2511361
v 0.5998186 1.412472 -0.6172391
v 0.8479797 0.7321715 0.2563261
v 0.6563858 1.429577 -0.6286908
v 0.8729295 0.7291468 0.2606663
v 0.7143158 1.441395 -0.6423057
v 0.9011818 0.724035 0.2639993
v 0.7732718 1.448253 -0.6579266
v 0.932892 0.7164872 0.2661884
v 0.8330973 1.4505 -0.6754167
v 0.9680845 0.7061859 0.2671272
v 0.8937678 1.448455 -0.6946695
v 1.006697 0.6928667 0.2667392
v 0.9553452 1.442381 -0.7156088
v 1.048623 0.6763237 0.2649744
v 1.017938 1.432484 -0.7381848
v 1.091415 0.6574286 0.2624924
v 1.069868 1.42298 -0.7592567
v 1.132738 0.6385854 0.260451
v 1.11084 1.41656 -0.7778782
vt 0 0
vt 1 0.01
vt 1 0
vt 0 0.01
vt 1 0.02
vt 0 0.02
vt 1 0.03
vt 0 0.03
vt 1 0.04
vt 0 0.04
vt 1 0.05
vt 0 0.05
vt 1 0.05999999
vt 0 0.05999999
vt 1 0.06999999
vt 0 0.06999999
vt 1 0.07999999
vt 0 0.07999999
vt 1 0.08999999
vt 0 0.08999999
vt 1 0.09999999
vt 0 0.09999999
vt 1 0.11
vt 0 0.11
vt 1 0.12
vt 0 0.12
vt 1 0.13
vt 0 0.13
vt 1 0.14
vt 0 0.14
vt 1 0.15
vt 0 0.15
vt 1 0.16
vt 0 0.16
vt 1 0.17
vt 0 0.17
vt 1 0.18
vt 0 0.18
vt 1 0.19
vt 0 0.19
vt 1 0.2
vt 0 0.2
vt 1 0.21
vt 0 0.21
vt 1 0.22
vt 0 0.22
vt 1 0.23
vt 0 0.23
vt 1 0.24
vt 0 0.24
vt 1 0.25
vt 0 0.25
vt 1 0.26
vt 0 0.26
vt 1 0.27
vt 0 0.27
vt 1 0.28
vt 0 0.28
vt 1 0.29
vt 0 0.29
vt 1 0.3
vt 0 0.3
vt 1 0.31
vt 0 0.31
vt 1 0.32
vt 0 0.32
vt 1 0.33
vt 0 0.33
vt 1 0.3399999
vt 0 0.3399999
vt 1 0.3499999
vt 0 0.3499999
vt 1 0.3599999
vt 0 0.3599999
vt 1 0.3699999
vt 0 0.3699999
vt 1 0.3799999
vt 0 0.3799999
vt 1 0.3899999
vt 0 0.3899999
vt 1 0.3999999
vt 0 0.3999999
vt 1 0.4099999
vt 0 0.4099999
vt 1 0.4199999
vt 0 0.4199999
vt 1 0.4299999
vt 0 0.4299999
vt 1 0.4399998
vt 0 0.4399998
vt 1 0.4499998
vt 0 0.4499998
vt 1 0.4599998
vt 0 0.4599998
vt 1 0.4699998
vt 0 0.4699998
vt 1 0.4799998
vt 0 0.4799998
vt 1 0.4899998
vt 0 0.4899998
vt 1 0.4999998
vt 0 0.4999998
vt 1 0.5099998
vt 0 0.5099998
vt 1 0.5199998
vt 0 0.5199998
vt 1 0.5299998
vt 0 0.5299998
vt 1 0.5399998
vt 0 0.5399998
vt 1 0.5499998
vt 0 0.5499998
vt 1 0.5599998
vt 0 0.5599998
vt 1 0.5699998
vt 0 0.5699998
vt 1 0.5799997
vt 0 0.5799997
vt 1 0.5899997
vt 0 0.5899997
vt 1 0.5999997
vt 0 0.5999997
vt 1 0.6099997
vt 0 0.6099997
vt 1 0.6199997
vt 0 0.6199997
vt 1 0.6299997
vt 0 0.6299997
vt 1 0.6399997
vt 0 0.6399997
vt 1 0.6499997
vt 0 0.6499997
vt 1 0.6599997
vt 0 0.6599997
vt 1 0.6699997
vt 0 0.6699997
vt 1 0.6799996
vt 0 0.6799996
vt 1 0.6899996
vt 0 0.6899996
vt 1 0.6999996
vt 0 0.6999996
vt 1 0.7099996
vt 0 0.7099996
vt 1 0.7199996
vt 0 0.7199996
vt 1 0.7299996
vt 0 0.7299996
vt 1 0.7399996
vt 0 0.7399996
vt 1 0.7499996
vt 0 0.7499996
vt 1 0.7599996
vt 0 0.7599996
vt 1 0.7699996
vt 0 0.7699996
vt 1 0.7799996
vt 0 0.7799996
vt 1 0.7899995
vt 0 0.7899995
vt 1 0.7999995
vt 0 0.7999995
vt 1 0.8099995
vt 0 0.8099995
vt 1 0.8199995
vt 0 0.8199995
vt 1 0.8299995
vt 0 0.8299995
vt 1 0.8399995
vt 0 0.8399995
vt 1 0.8499995
vt 0 0.8499995
vt 1 0.8599995
vt 0 0.8599995
vt 1 0.8699995
vt 0 0.8699995
vt 1 0.8799995
vt 0 0.8799995
vt 1 0.8899994
vt 0 0.8899994
vt 1 0.8999994
vt 0 0.8999994
vt 1 0.9099994
vt 0 0.9099994
vt 1 0.9199994
vt 0 0.9199994
vt 1 0.9299994
vt 0 0.9299994
vt 1 0.9399994
vt 0 0.9399994
vt 1 0.9499994
vt 0 0.9499994
vt 1 0.9599994
vt 0 0.9599994
vt 1 0.9699994
vt 0 0.9699994
vt 1 0.9799994
vt 0 0.9799994
vt 1 0.9899994
vt 0 0.9899994
vt 1 0.9999993
vt 0 0.9999993
vn -1.049452E-06 -0.9981938 -0.06007641
vn 0.001951301 -0.998468 -0.05529637
vn -1.049452E-06 -0.9981938 -0.0600764
vn 0.001934122 -0.9984658 -0.05533844
vn 0.01953891 -0.9996443 -0.01815235
vn 0.01924117 -0.9996387 -0.01877218
vn 0.06648707 -0.9958721 0.06179294
vn 0.06557987 -0.9960191 0.06037731
vn 0.1575534 -0.9724097 0.1720358
vn 0.1537075 -0.9737402 0.1679405
vn 0.3106361 -0.9069909 0.2843812
vn 0.2987832 -0.9131047 0.2774319
vn 0.467061 -0.8179265 0.335932
vn 0.4549769 -0.8254028 0.3342248
vn 0.5796298 -0.7438608 0.3327167
vn 0.5739546 -0.7478102 0.3337003
vn 0.6842941 -0.6639986 0.3014091
vn 0.6811383 -0.6666709 0.3026561
vn 0.8015515 -0.549198 0.2364251
vn 0.7988188 -0.5523362 0.2383553
vn 0.910897 -0.3927713 0.1264807
vn 0.9089273 -0.3964262 0.1292184
vn 0.9634984 -0.2664379 0.02611179
vn 0.9628896 -0.2684503 0.02789475
vn 0.9747621 -0.2224901 -0.01835514
vn 0.9747001 -0.222802 -0.01785785
vn 0.9775277 -0.2058535 -0.04543185
vn 0.9775109 -0.2059774 -0.04522828
vn 0.9796262 -0.1833347 -0.08198155
vn 0.9796244 -0.1833686 -0.08192696
vn 0.9797238 -0.1523553 -0.1301115
vn 0.9797207 -0.1522856 -0.1302171
vn 0.9751111 -0.1081877 -0.1935295
vn 0.9750632 -0.1078943 -0.1939345
vn 0.9599209 -0.04257595 -0.2770181
vn 0.9596399 -0.0416484 -0.2781306
vn 0.921697 0.05813996 -0.3835288
vn 0.9203357 0.06105559 -0.386335
vn 0.8387218 0.206734 -0.5037924
vn 0.8337524 0.2141284 -0.5089263
vn 0.7112762 0.3677964 -0.5990092
vn 0.7063341 0.3731119 -0.6015643
vn 0.5918935 0.4783782 -0.6487036
vn 0.5897233 0.4800874 -0.649417
vn 0.5027596 0.5447146 -0.6712071
vn 0.5017765 0.5454081 -0.6713795
vn 0.434624 0.591001 -0.6795732
vn 0.4341088 0.5913389 -0.6796086
vn 0.3815524 0.6250012 -0.6810223
vn 0.3812366 0.6251991 -0.6810173
vn 0.3390119 0.6513764 -0.6788076
vn 0.3387858 0.6515152 -0.6787873
vn 0.3037824 0.6730241 -0.6743551
vn 0.3035934 0.6731405 -0.674324
vn 0.2735513 0.6918936 -0.6681713
vn 0.273367 0.6920102 -0.6681261
vn 0.2465601 0.7094765 -0.6601902
vn 0.2463487 0.7096177 -0.6601173
vn 0.2213406 0.7271602 -0.6498049
vn 0.22105 0.727372 -0.6496668
vn 0.1948433 0.746189 -0.6365831
vn 0.1942179 0.7466296 -0.6362576
vn 0.162888 0.7669665 -0.6206691
vn 0.1619719 0.7675203 -0.6202238
vn 0.1253034 0.7888283 -0.6017051
vn 0.1244914 0.7892807 -0.6012803
vn 0.08425471 0.8114254 -0.5783508
vn 0.0835989 0.8117788 -0.5779501
vn 0.03935605 0.8347225 -0.5492626
vn 0.03880485 0.8349956 -0.5488866
vn -0.01159927 0.8582988 -0.5130193
vn -0.01205716 0.8584948 -0.5126806
vn -0.07136903 0.8811337 -0.4674503
vn -0.0716945 0.8812431 -0.4671943
vn -0.1433782 0.9009439 -0.4095642
vn -0.1434397 0.9009571 -0.4095135
vn -0.2316124 0.913034 -0.3357449
vn -0.2310958 0.9130021 -0.3361873
vn -0.3369514 0.910932 -0.2380478
vn -0.3373663 0.9108864 -0.2376339
vn -0.4448108 0.8888738 -0.1097577
vn -0.4462757 0.8883897 -0.1077122
vn -0.5260308 0.8501835 0.02190212
vn -0.526767 0.8496897 0.02332535
vn -0.5762842 0.8074096 0.126437
vn -0.576387 0.8072997 0.126669
vn -0.6093606 0.7666559 0.2022834
vn -0.6092523 0.7668079 0.2020331
vn -0.6336716 0.730535 0.2545172
vn -0.6334601 0.7308618 0.254105
vn -0.6542372 0.6997483 0.2869251
vn -0.6539123 0.7002134 0.2865307
vn -0.6739117 0.6746985 0.3010398
vn -0.6733899 0.6752892 0.3008831
vn -0.6939041 0.6565705 0.2956558
vn -0.693027 0.6572124 0.2962858
vn -0.7118648 0.6406142 0.2878575
vn -0.7104559 0.6420678 0.2880995
vn -0.7271303 0.6179325 0.2990666
vn -0.7256788 0.6205596 0.2971467
vn -0.7407238 0.5928838 0.3159383
vn -0.7402134 0.5938433 0.3153322
vn -0.7543232 0.566431 0.3318923
vn -0.7540936 0.566893 0.331625
vn -0.7674624 0.538489 0.3478953
vn -0.767386 0.5386604 0.3477983
vn -0.7800079 0.5078889 0.3655635
vn -0.7800553 0.5077633 0.3656368
vn -0.7915747 0.4730639 0.3868075
vn -0.7917569 0.472438 0.3871993
vn -0.801053 0.4321976 0.4141489
vn -0.8013909 0.430304 0.4154648
vn -0.8086044 0.3790502 0.4499776
vn -0.8090726 0.3745398 0.4529034
vn -0.8130982 0.2969089 0.5007159
vn -0.8130955 0.2852615 0.5074462
vn -0.8052791 0.1991342 0.5584542
vn -0.8034394 0.1884867 0.5647635
vn -0.7885959 0.1191625 0.6032551
vn -0.7880157 0.116846 0.6044651
vn -0.7783705 0.06286205 0.6246501
vn -0.7786102 0.06557123 0.6240727
vn -0.7855914 0.03640989 0.6176736
vn -0.7843831 0.03756997 0.6191378
vn -0.8070626 0.04610836 0.5886629
vn -0.8061222 0.04514017 0.5900249
vn -0.8278354 0.08922316 0.5538301
vn -0.8271582 0.0866602 0.5552471
vn -0.8351693 0.1184983 0.5370758
vn -0.83478 0.1169296 0.5380239
vn -0.835406 0.1243032 0.5353929
vn -0.8355709 0.1234561 0.5353316
vn -0.8348336 0.1269327 0.5356687
vn -0.8348848 0.1267081 0.535642
vn -0.8341904 0.1296091 0.5360296
vn -0.8342161 0.1295067 0.5360146
vn -0.8335722 0.1320303 0.5364004
vn -0.8335864 0.1319758 0.5363917
vn -0.8329964 0.1342436 0.5367455
vn -0.8330041 0.1342137 0.5367409
vn -0.8324674 0.1363112 0.5370449
vn -0.8324713 0.1362963 0.5370429
vn -0.8319853 0.1382912 0.5372858
vn -0.8319862 0.1382869 0.5372854
vn -0.8315501 0.1402297 0.5374569
vn -0.8315492 0.1402345 0.5374573
vn -0.8319394 0.13969 0.5369949
vn -0.8319452 0.1396754 0.5369895
vn -0.8388318 0.1180845 0.5314296
vn -0.8388687 0.1179625 0.5313982
vn -0.8483148 0.0849109 0.5226396
vn -0.8483139 0.08491419 0.5226406
vn -0.8541083 0.06250416 0.5163258
vn -0.8540998 0.06253807 0.5163358
vn -0.8568598 0.05146809 0.5129739
vn -0.856854 0.05149108 0.5129815
vn -0.8573344 0.05009563 0.5123164
vn -0.8573369 0.05008114 0.5123137
vn -0.8557017 0.05770486 0.514242
vn -0.8557205 0.05762163 0.51422
vn -0.8516575 0.07442756 0.5187872
vn -0.8517094 0.07422259 0.5187314
vn -0.8443635 0.1011707 0.526132
vn -0.8444877 0.1007411 0.526015
vn -0.8322023 0.1396895 0.5365875
vn -0.8324965 0.1388213 0.5363563
vn -0.8122486 0.192737 0.5505493
vn -0.8129756 0.1909582 0.5500959
vn -0.7792018 0.2642438 0.5683481
vn -0.7811373 0.2604357 0.5674484
vn -0.7231767 0.3593709 0.5898033
vn -0.7288939 0.3506559 0.5880085
vn -0.6269035 0.4808973 0.612968
vn -0.643351 0.4625721 0.6100218
vn -0.5207671 0.5788956 0.6274406
vn -0.539185 0.5638736 0.6255604
vn -0.4331691 0.6401197 0.6345165
vn -0.442107 0.6345106 0.6339856
vn -0.3365998 0.6926195 0.6379489
vn -0.3464224 0.6878643 0.6378356
vn -0.2378471 0.7332087 0.6370509
vn -0.247421 0.7297801 0.6373413
vn -0.140767 0.7617829 0.6323539
vn -0.1491478 0.759717 0.6329179
vn -0.048344 0.7794045 0.624653
vn -0.0550852 0.7784144 0.6253292
vn 0.03741686 0.7877806 0.6148184
vn 0.03230599 0.7874879 0.6154827
vn 0.1153912 0.7888418 0.6036667
vn 0.1116599 0.7889306 0.6042523
vn 0.1852161 0.784456 0.5918815
vn 0.1825482 0.784716 0.5923657
vn 0.247089 0.7762517 0.5799829
vn 0.2452 0.7765628 0.5803681
vn 0.3015567 0.7655454 0.5683343
vn 0.3002217 0.7658475 0.5686339
vn 0.3457664 0.7543433 0.5580429
vn 0.3451008 0.7545295 0.558203
vn 0.365776 0.748519 0.5531069
vn 0.3657401 0.7485299 0.5531157
vn 0.3682666 0.7477521 0.5524911
vn 0.3682666 0.7477521 0.5524911
g Plane004_0
f 3/3/3 2/2/2 1/1/1
f 2/2/2 4/4/4 1/1/1
f 2/2/2 5/5/5 4/4/4
f 5/5/5 6/6/6 4/4/4
f 5/5/5 7/7/7 6/6/6
f 7/7/7 8/8/8 6/6/6
f 7/7/7 9/9/9 8/8/8
f 9/9/9 10/10/10 8/8/8
f 9/9/9 11/11/11 10/10/10
f 11/11/11 12/12/12 10/10/10
f 11/11/11 13/13/13 12/12/12
f 13/13/13 14/14/14 12/12/12
f 13/13/13 15/15/15 14/14/14
f 15/15/15 16/16/16 14/14/14
f 15/15/15 17/17/17 16/16/16
f 17/17/17 18/18/18 16/16/16
f 17/17/17 19/19/19 18/18/18
f 19/19/19 20/20/20 18/18/18
f 19/19/19 21/21/21 20/20/20
f 21/21/21 22/22/22 20/20/20
f 21/21/21 23/23/23 22/22/22
f 23/23/23 24/24/24 22/22/22
f 23/23/23 25/25/25 24/24/24
f 25/25/25 26/26/26 24/24/24
f 25/25/25 27/27/27 26/26/26
f 27/27/27 28/28/28 26/26/26
f 27/27/27 29/29/29 28/28/28
f 29/29/29 30/30/30 28/28/28
f 29/29/29 31/31/31 30/30/30
f 31/31/31 32/32/32 30/30/30
f 31/31/31 33/33/33 32/32/32
f 33/33/33 34/34/34 32/32/32
f 33/33/33 35/35/35 34/34/34
f 35/35/35 36/36/36 34/34/34
f 35/35/35 37/37/37 36/36/36
f 37/37/37 38/38/38 36/36/36
f 37/37/37 39/39/39 38/38/38
f 39/39/39 40/40/40 38/38/38
f 39/39/39 41/41/41 40/40/40
f 41/41/41 42/42/42 40/40/40
f 41/41/41 43/43/43 42/42/42
f 43/43/43 44/44/44 42/42/42
f 43/43/43 45/45/45 44/44/44
f 45/45/45 46/46/46 44/44/44
f 45/45/45 47/47/47 46/46/46
f 47/47/47 48/48/48 46/46/46
f 47/47/47 49/49/49 48/48/48
f 49/49/49 50/50/50 48/48/48
f 49/49/49 51/51/51 50/50/50
f 51/51/51 52/52/52 50/50/50
f 51/51/51 53/53/53 52/52/52
f 53/53/53 54/54/54 52/52/52
f 53/53/53 55/55/55 54/54/54
f 55/55/55 56/56/56 54/54/54
f 55/55/55 57/57/57 56/56/56
f 57/57/57 58/58/58 56/56/56
f 57/57/57 59/59/59 58/58/58
f 59/59/59 60/60/60 58/58/58
f 59/59/59 61/61/61 60/60/60
f 61/61/61 62/62/62 60/60/60
f 61/61/61 63/63/63 62/62/62
f 63/63/63 64/64/64 62/62/62
f 63/63/63 65/65/65 64/64/64
f 65/65/65 66/66/66 64/64/64
f 65/65/65 67/67/67 66/66/66
f 67/67/67 68/68/68 66/66/66
f 67/67/67 69/69/69 68/68/68
f 69/69/69 70/70/70 68/68/68
f 69/69/69 71/71/71 70/70/70
f 71/71/71 72/72/72 70/70/70
f 71/71/71 73/73/73 72/72/72
f 73/73/73 74/74/74 72/72/72
f 73/73/73 75/75/75 74/74/74
f 75/75/75 76/76/76 74/74/74
f 75/75/75 77/77/77 76/76/76
f 77/77/77 78/78/78 76/76/76
f 77/77/77 79/79/79 78/78/78
f 79/79/79 80/80/80 78/78/78
f 79/79/79 81/81/81 80/80/80
f 81/81/81 82/82/82 80/80/80
f 81/81/81 83/83/83 82/82/82
f 83/83/83 84/84/84 82/82/82
f 83/83/83 85/85/85 84/84/84
f 85/85/85 86/86/86 84/84/84
f 85/85/85 87/87/87 86/86/86
f 87/87/87 88/88/88 86/86/86
f 87/87/87 89/89/89 88/88/88
f 89/89/89 90/90/90 88/88/88
f 89/89/89 91/91/91 90/90/90
f 91/91/91 92/92/92 90/90/90
f 91/91/91 93/93/93 92/92/92
f 93/93/93 94/94/94 92/92/92
f 93/93/93 95/95/95 94/94/94
f 95/95/95 96/96/96 94/94/94
f 95/95/95 97/97/97 96/96/96
f 97/97/97 98/98/98 96/96/96
f 97/97/97 99/99/99 98/98/98
f 99/99/99 100/100/100 98/98/98
f 99/99/99 101/101/101 100/100/100
f 101/101/101 102/102/102 100/100/100
f 101/101/101 103/103/103 102/102/102
f 103/103/103 104/104/104 102/102/102
f 103/103/103 105/105/105 104/104/104
f 105/105/105 106/106/106 104/104/104
f 105/105/105 107/107/107 106/106/106
f 107/107/107 108/108/108 106/106/106
f 107/107/107 109/109/109 108/108/108
f 109/109/109 110/110/110 108/108/108
f 109/109/109 111/111/111 110/110/110
f 111/111/111 112/112/112 110/110/110
f 111/111/111 113/113/113 112/112/112
f 113/113/113 114/114/114 112/112/112
f 113/113/113 115/115/115 114/114/114
f 115/115/115 116/116/116 114/114/114
f 115/115/115 117/117/117 116/116/116
f 117/117/117 118/118/118 116/116/116
f 117/117/117 119/119/119 118/118/118
f 119/119/119 120/120/120 118/118/118
f 119/119/119 121/121/121 120/120/120
f 121/121/121 122/122/122 120/120/120
f 121/121/121 123/123/123 122/122/122
f 123/123/123 124/124/124 122/122/122
f 123/123/123 125/125/125 124/124/124
f 125/125/125 126/126/126 124/124/124
f 125/125/125 127/127/127 126/126/126
f 127/127/127 128/128/128 126/126/126
f 127/127/127 129/129/129 128/128/128
f 129/129/129 130/130/130 128/128/128
f 129/129/129 131/131/131 130/130/130
f 131/131/131 132/132/132 130/130/130
f 131/131/131 133/133/133 132/132/132
f 133/133/133 134/134/134 132/132/132
f 133/133/133 135/135/135 134/134/134
f 135/135/135 136/136/136 134/134/134
f 135/135/135 137/137/137 136/136/136
f 137/137/137 138/138/138 136/136/136
f 137/137/137 139/139/139 138/138/138
f 139/139/139 140/140/140 138/138/138
f 139/139/139 141/141/141 140/140/140
f 141/141/141 142/142/142 140/140/140
f 141/141/141 143/143/143 142/142/142
f 143/143/143 144/144/144 142/142/142
f 143/143/143 145/145/145 144/144/144
f 145/145/145 146/146/146 144/144/144
f 145/145/145 147/147/147 146/146/146
f 147/147/147 148/148/148 146/146/146
f 147/147/147 149/149/149 148/148/148
f 149/149/149 150/150/150 148/148/148
f 149/149/149 151/151/151 150/150/150
f 151/151/151 152/152/152 150/150/150
f 151/151/151 153/153/153 152/152/152
f 153/153/153 154/154/154 152/152/152
f 153/153/153 155/155/155 154/154/154
f 155/155/155 156/156/156 154/154/154
f 155/155/155 157/157/157 156/156/156
f 157/157/157 158/158/158 156/156/156
f 157/157/157 159/159/159 158/158/158
f 159/159/159 160/160/160 158/158/158
f 159/159/159 161/161/161 160/160/160
f 161/161/161 162/162/162 160/160/160
f 161/161/161 163/163/163 162/162/162
f 163/163/163 164/164/164 162/162/162
f 163/163/163 165/165/165 164/164/164
f 165/165/165 166/166/166 164/164/164
f 165/165/165 167/167/167 166/166/166
f 167/167/167 168/168/168 166/166/166
f 167/167/167 169/169/169 168/168/168
f 169/169/169 170/170/170 168/168/168
f 169/169/169 171/171/171 170/170/170
f 171/171/171 172/172/172 170/170/170
f 171/171/171 173/173/173 172/172/172
f 173/173/173 174/174/174 172/172/172
f 173/173/173 175/175/175 174/174/174
f 175/175/175 176/176/176 174/174/174
f 175/175/175 177/177/177 176/176/176
f 177/177/177 178/178/178 176/176/176
f 177/177/177 179/179/179 178/178/178
f 179/179/179 180/180/180 178/178/178
f 179/179/179 181/181/181 180/180/180
f 181/181/181 182/182/182 180/180/180
f 181/181/181 183/183/183 182/182/182
f 183/183/183 184/184/184 182/182/182
f 183/183/183 185/185/185 184/184/184
f 185/185/185 186/186/186 184/184/184
f 185/185/185 187/187/187 186/186/186
f 187/187/187 188/188/188 186/186/186
f 187/187/187 189/189/189 188/188/188
f 189/189/189 190/190/190 188/188/188
f 189/189/189 191/191/191 190/190/190
f 191/191/191 192/192/192 190/190/190
f 191/191/191 193/193/193 192/192/192
f 193/193/193 194/194/194 192/192/192
f 193/193/193 195/195/195 194/194/194
f 195/195/195 196/196/196 194/194/194
f 195/195/195 197/197/197 196/196/196
f 197/197/197 198/198/198 196/196/196
f 197/197/197 199/199/199 198/198/198
f 199/199/199 200/200/200 198/198/198
f 199/199/199 201/201/201 200/200/200
f 201/201/201 202/202/202 200/200/200
