g Plane002
v 1.090391 0.02371566 -1.934053
v 0.9350948 -0.01118797 -2.129506
v 1.070766 -0.05827313 -1.903883
v 0.9102185 -0.0902228 -2.095562
v 1.052594 -0.1411808 -1.875013
v 0.8838888 -0.1683382 -2.060319
v 1.021851 -0.2304519 -1.841665
v 0.8525479 -0.2331404 -2.028391
v 0.990254 -0.3089539 -1.81206
v 0.8139566 -0.3055084 -1.992185
v 0.9437563 -0.3911244 -1.777591
v 0.7714955 -0.3628446 -1.959426
v 0.8996803 -0.4630336 -1.747198
v 0.721799 -0.4275273 -1.922226
v 0.8384826 -0.5348452 -1.711499
v 0.6693067 -0.4750853 -1.888546
v 0.7737787 -0.6033869 -1.675531
v 0.6165022 -0.5215867 -1.854724
v 0.7091506 -0.6564543 -1.643214
v 0.5490994 -0.5659153 -1.81562
v 0.6322493 -0.7100182 -1.605827
v 0.4881683 -0.5995824 -1.780704
v 0.5599732 -0.7513227 -1.572549
v 0.4148369 -0.6318842 -1.740499
v 0.4739649 -0.7871617 -1.533605
v 0.3483852 -0.6507505 -1.704365
v 0.3857621 -0.816587 -1.494222
v 0.2812254 -0.6667551 -1.667888
v 0.3048493 -0.8315923 -1.45865
v 0.2024458 -0.6728417 -1.625531
v 0.2133402 -0.8401643 -1.417467
v 0.1342178 -0.6718359 -1.587592
v 0.1315686 -0.8412797 -1.380731
v 0.05620753 -0.6646433 -1.544003
v 0.04150548 -0.8282473 -1.337577
v -0.009140507 -0.6462299 -1.504436
v -0.0460428 -0.8070226 -1.293753
v -0.07265668 -0.6232541 -1.464217
v -0.1223132 -0.7812818 -1.254286
v -0.1424198 -0.5908316 -1.418182
v -0.2005922 -0.7393867 -1.208184
v -0.1967999 -0.5513396 -1.375998
v -0.2728103 -0.6899939 -1.161256
v -0.2470226 -0.5072075 -1.3329
v -0.3380183 -0.6333643 -1.113462
v -0.2924924 -0.4580477 -1.288759
v -0.390101 -0.5753704 -1.069173
v -0.3351692 -0.397119 -1.238721
v -0.4358828 -0.5048441 -1.01862
v -0.3630552 -0.3369931 -1.191997
v -0.4713283 -0.4306171 -0.9670225
v -0.3832459 -0.2740643 -1.143856
v -0.49571 -0.3540442 -0.9143437
v -0.3948213 -0.2089824 -1.09411
v -0.5084832 -0.2767743 -0.8605493
v -0.3968545 -0.1427867 -1.042549
v -0.509397 -0.2007195 -0.8056118
v -0.3885502 -0.07692946 -0.9889408
v -0.4987872 -0.1302523 -0.7512137
v -0.3682512 -0.01144946 -0.9311683
v -0.4759871 -0.06237603 -0.6927544
v -0.3377524 0.04592009 -0.8735874
v -0.4434017 -0.002272748 -0.6330342
v -0.2978351 0.09680389 -0.8133994
v -0.402659 0.04816969 -0.5720692
v -0.2494039 0.1391111 -0.7503384
v -0.3558991 0.08735878 -0.5098952
v -0.1939858 0.1707764 -0.684145
v -0.3057242 0.1141608 -0.4465708
v -0.1337791 0.1899576 -0.6145799
v -0.2605709 0.1270137 -0.3888055
v -0.06641283 0.1947906 -0.5345666
v -0.2142542 0.1282098 -0.3250414
v -0.00570246 0.1827813 -0.4556764
v -0.1739961 0.118306 -0.2604399
v 0.04828593 0.156251 -0.3730819
v -0.1425244 0.09937464 -0.1951088
v 0.09150735 0.1171928 -0.2870272
v -0.1219761 0.07422663 -0.1291677
v 0.1204669 0.06886226 -0.1979422
v -0.1155623 0.05432624 -0.07836828
v 0.1318437 0.007670913 -0.09065551
v -0.120029 0.02796499 -0.0117239
v 0.1211749 -0.04380387 0.002673674
vt 0.9999998 0.9999996
vt 0.9999998 -3.576279E-07
vt 0.9756096 0.9999996
vt 0.9756095 -3.557865E-07
vt 0.9512193 0.9999996
vt 0.9512193 -3.53945E-07
vt 0.9268291 0.9999996
vt 0.926829 -3.521036E-07
vt 0.9024389 0.9999996
vt 0.9024388 -3.502622E-07
vt 0.8780486 0.9999996
vt 0.8780485 -3.484208E-07
vt 0.8536584 0.9999996
vt 0.8536583 -3.465794E-07
vt 0.8292682 0.9999996
vt 0.8292681 -3.44738E-07
vt 0.8048779 0.9999996
vt 0.8048778 -3.428966E-07
vt 0.7804877 0.9999996
vt 0.7804875 -3.410552E-07
vt 0.7560974 0.9999996
vt 0.7560973 -3.392138E-07
vt 0.7317072 0.9999996
vt 0.7317071 -3.373723E-07
vt 0.7073169 0.9999996
vt 0.7073168 -3.355309E-07
vt 0.6829267 0.9999996
vt 0.6829265 -3.336895E-07
vt 0.6585364 0.9999996
vt 0.6585363 -3.318481E-07
vt 0.6341462 0.9999996
vt 0.6341461 -3.300067E-07
vt 0.6097559 0.9999996
vt 0.6097558 -3.281653E-07
vt 0.5853657 0.9999996
vt 0.5853655 -3.263239E-07
vt 0.5609754 0.9999996
vt 0.5609753 -3.244824E-07
vt 0.5365852 0.9999996
vt 0.5365851 -3.22641E-07
vt 0.5121949 0.9999996
vt 0.5121948 -3.207996E-07
vt 0.4878047 0.9999996
vt 0.4878046 -3.189582E-07
vt 0.4634144 0.9999996
vt 0.4634144 -3.171168E-07
vt 0.4390242 0.9999996
vt 0.4390242 -3.152754E-07
vt 0.414634 0.9999996
vt 0.4146339 -3.13434E-07
vt 0.3902438 0.9999996
vt 0.3902437 -3.115926E-07
vt 0.3658535 0.9999996
vt 0.3658535 -3.097512E-07
vt 0.3414633 0.9999996
vt 0.3414633 -3.079097E-07
vt 0.3170731 0.9999996
vt 0.317073 -3.060683E-07
vt 0.2926829 0.9999996
vt 0.2926828 -3.042269E-07
vt 0.2682927 0.9999996
vt 0.2682926 -3.023855E-07
vt 0.2439024 0.9999996
vt 0.2439024 -3.005441E-07
vt 0.2195122 0.9999996
vt 0.2195122 -2.987027E-07
vt 0.195122 0.9999998
vt 0.1951219 -2.968613E-07
vt 0.1707318 0.9999998
vt 0.1707317 -2.950199E-07
vt 0.1463416 0.9999998
vt 0.1463415 -2.931785E-07
vt 0.1219513 0.9999998
vt 0.1219513 -2.91337E-07
vt 0.09756112 0.9999998
vt 0.09756106 -2.894956E-07
vt 0.0731709 0.9999998
vt 0.07317084 -2.876542E-07
vt 0.04878068 0.9999998
vt 0.04878062 -2.858128E-07
vt 0.02439046 0.9999998
vt 0.0243904 -2.839714E-07
vt 2.384186E-07 0.9999998
vt 1.788139E-07 -2.8213E-07
vn 0.7566648 -0.3775356 -0.5337838
vn 0.727827 -0.436647 -0.528779
vn 0.746725 -0.3767826 -0.5481209
vn 0.7083865 -0.4532673 -0.5410519
vn 0.7130003 -0.417327 -0.5634437
vn 0.6583952 -0.5106882 -0.5529135
vn 0.6651861 -0.4780985 -0.5735412
vn 0.6021533 -0.5675696 -0.5614946
vn 0.6093481 -0.5391427 -0.581395
vn 0.5378699 -0.6224673 -0.5685336
vn 0.5514171 -0.5896484 -0.5901305
vn 0.4724466 -0.667291 -0.575775
vn 0.4846005 -0.6401199 -0.5961618
vn 0.3973415 -0.7107121 -0.580524
vn 0.408072 -0.6905059 -0.5972258
vn 0.3173882 -0.7488609 -0.5817835
vn 0.3373224 -0.7212203 -0.6050248
vn 0.2472308 -0.7673954 -0.5915923
vn 0.2542957 -0.7538986 -0.6057811
vn 0.1576467 -0.7914291 -0.5905824
vn 0.181113 -0.7693326 -0.6126382
vn 0.08015276 -0.799139 -0.5957788
vn 0.09230942 -0.7858458 -0.6114944
vn -0.01391116 -0.8052812 -0.5927298
vn 0.006434413 -0.7911356 -0.6116069
vn -0.09698796 -0.7992839 -0.5930755
vn -0.08029936 -0.7876981 -0.6108059
vn -0.1795991 -0.7844169 -0.5936616
vn -0.1751316 -0.7770377 -0.6046001
vn -0.2779907 -0.762208 -0.5846027
vn -0.2466478 -0.7544661 -0.6082315
vn -0.3493854 -0.7307835 -0.5864173
vn -0.3385776 -0.7249029 -0.5999008
vn -0.4424742 -0.6882126 -0.5749608
vn -0.4341299 -0.683696 -0.5865927
vn -0.5320681 -0.6347 -0.5604101
vn -0.4977857 -0.6383446 -0.5871331
vn -0.5858754 -0.583047 -0.5628553
vn -0.5806718 -0.5784112 -0.5729403
vn -0.6661274 -0.5094621 -0.5447226
vn -0.6644324 -0.5038661 -0.5519497
vn -0.7404492 -0.423715 -0.5217285
vn -0.7228252 -0.4293381 -0.5414726
vn -0.7835078 -0.3480284 -0.5147735
vn -0.7759096 -0.3470356 -0.5268117
vn -0.8257955 -0.2606439 -0.5001267
vn -0.8290737 -0.247116 -0.501568
vn -0.8700649 -0.1489012 -0.4699102
vn -0.8706412 -0.1372858 -0.4723734
vn -0.8982218 -0.03344503 -0.4382683
vn -0.8941685 -0.02896745 -0.4467925
vn -0.9072528 0.072165 -0.4143483
vn -0.905292 0.08560765 -0.4160741
vn -0.9047245 0.1836529 -0.3843763
vn -0.9019688 0.2051844 -0.3799364
vn -0.8882288 0.2999704 -0.3479471
vn -0.8821526 0.3283595 -0.3376193
vn -0.8547488 0.4214269 -0.3029916
vn -0.8434813 0.4539659 -0.2871486
vn -0.8010393 0.5449139 -0.2478001
vn -0.7853559 0.5741081 -0.2315511
vn -0.7295886 0.6571024 -0.1895179
vn -0.7096357 0.6830616 -0.1727548
vn -0.643701 0.7542096 -0.1296794
vn -0.6168659 0.7796678 -0.1076788
vn -0.5427133 0.8375405 -0.06315073
vn -0.5097882 0.8595085 -0.03689352
vn -0.4299984 0.9027823 0.009247615
vn -0.3947802 0.9180637 0.03616101
vn -0.3081753 0.947208 0.08845817
vn -0.2748806 0.9546699 0.1142185
vn -0.1817666 0.9672573 0.1771272
vn -0.1578951 0.9683415 0.1933491
vn -0.067265 0.9626251 0.2623515
vn -0.05396138 0.9628885 0.2644499
vn 0.02752808 0.9414457 0.336039
vn 0.03384179 0.9452506 0.3245862
vn 0.1032961 0.9112634 0.398659
vn 0.1014748 0.9288792 0.3562109
vn 0.1594403 0.8812327 0.4449806
vn 0.1634885 0.9109962 0.3786257
vn 0.2015256 0.8589432 0.4707484
vn 0.1980419 0.8939107 0.4021234
vn 0.2215529 0.8429533 0.4902489
g Plane002_0
f 3/3/3 2/2/2 1/1/1
f 2/2/2 3/3/3 4/4/4
f 5/5/5 4/4/4 3/3/3
f 4/4/4 5/5/5 6/6/6
f 7/7/7 6/6/6 5/5/5
f 6/6/6 7/7/7 8/8/8
f 9/9/9 8/8/8 7/7/7
f 8/8/8 9/9/9 10/10/10
f 11/11/11 10/10/10 9/9/9
f 10/10/10 11/11/11 12/12/12
f 13/13/13 12/12/12 11/11/11
f 12/12/12 13/13/13 14/14/14
f 15/15/15 14/14/14 13/13/13
f 14/14/14 15/15/15 16/16/16
f 17/17/17 16/16/16 15/15/15
f 16/16/16 17/17/17 18/18/18
f 19/19/19 18/18/18 17/17/17
f 18/18/18 19/19/19 20/20/20
f 21/21/21 20/20/20 19/19/19
f 20/20/20 21/21/21 22/22/22
f 23/23/23 22/22/22 21/21/21
f 22/22/22 23/23/23 24/24/24
f 25/25/25 24/24/24 23/23/23
f 24/24/24 25/25/25 26/26/26
f 27/27/27 26/26/26 25/25/25
f 26/26/26 27/27/27 28/28/28
f 29/29/29 28/28/28 27/27/27
f 28/28/28 29/29/29 30/30/30
f 31/31/31 30/30/30 29/29/29
f 30/30/30 31/31/31 32/32/32
f 33/33/33 32/32/32 31/31/31
f 32/32/32 33/33/33 34/34/34
f 35/35/35 34/34/34 33/33/33
f 34/34/34 35/35/35 36/36/36
f 37/37/37 36/36/36 35/35/35
f 36/36/36 37/37/37 38/38/38
f 39/39/39 38/38/38 37/37/37
f 38/38/38 39/39/39 40/40/40
f 41/41/41 40/40/40 39/39/39
f 40/40/40 41/41/41 42/42/42
f 43/43/43 42/42/42 41/41/41
f 42/42/42 43/43/43 44/44/44
f 45/45/45 44/44/44 43/43/43
f 44/44/44 45/45/45 46/46/46
f 47/47/47 46/46/46 45/45/45
f 46/46/46 47/47/47 48/48/48
f 49/49/49 48/48/48 47/47/47
f 48/48/48 49/49/49 50/50/50
f 51/51/51 50/50/50 49/49/49
f 50/50/50 51/51/51 52/52/52
f 53/53/53 52/52/52 51/51/51
f 52/52/52 53/53/53 54/54/54
f 55/55/55 54/54/54 53/53/53
f 54/54/54 55/55/55 56/56/56
f 57/57/57 56/56/56 55/55/55
f 56/56/56 57/57/57 58/58/58
f 59/59/59 58/58/58 57/57/57
f 58/58/58 59/59/59 60/60/60
f 61/61/61 60/60/60 59/59/59
f 60/60/60 61/61/61 62/62/62
f 63/63/63 62/62/62 61/61/61
f 62/62/62 63/63/63 64/64/64
f 65/65/65 64/64/64 63/63/63
f 64/64/64 65/65/65 66/66/66
f 67/67/67 66/66/66 65/65/65
f 66/66/66 67/67/67 68/68/68
f 69/69/69 68/68/68 67/67/67
f 68/68/68 69/69/69 70/70/70
f 71/71/71 70/70/70 69/69/69
f 70/70/70 71/71/71 72/72/72
f 73/73/73 72/72/72 71/71/71
f 72/72/72 73/73/73 74/74/74
f 75/75/75 74/74/74 73/73/73
f 74/74/74 75/75/75 76/76/76
f 77/77/77 76/76/76 75/75/75
f 76/76/76 77/77/77 78/78/78
f 79/79/79 78/78/78 77/77/77
f 78/78/78 79/79/79 80/80/80
f 81/81/81 80/80/80 79/79/79
f 80/80/80 81/81/81 82/82/82
f 83/83/83 82/82/82 81/81/81
f 82/82/82 83/83/83 84/84/84
