g Plane001_Alpha
v 0.9285067 -1.097326 0
v 1.097326 -0.9285067 0
v 1.097326 -1.097326 0
v 0.9285067 -0.9285067 0
v 0.7596872 -1.097326 0
v 1.097326 -0.7596873 0
v 0.7596872 -0.9285067 0
v 0.5908679 -1.097326 0
v 0.9285067 -0.7596873 0
v 1.097326 -0.5908679 0
v 0.5908679 -0.9285067 0
v 0.4220484 -1.097326 0
v 0.7596872 -0.7596873 0
v 0.9285067 -0.5908679 0
v 1.097326 -0.4220485 0
v 0.4220484 -0.9285067 0
v 0.2532291 -1.097326 0
v 0.5908679 -0.7596873 0
v 0.7596872 -0.5908679 0
v 0.9285067 -0.4220485 0
v 1.097326 -0.2532291 0
v 0.2532291 -0.9285067 0
v 0.08440967 -1.097326 0
v 0.4220484 -0.7596873 0
v 0.5908679 -0.5908679 0
v 0.7596872 -0.4220485 0
v 0.9285067 -0.2532291 0
v 1.097326 -0.08440972 0
v 0.08440967 -0.9285067 0
v -0.08440972 -1.097326 0
v 0.2532291 -0.7596873 0
v 0.4220484 -0.5908679 0
v 0.5908679 -0.4220485 0
v 0.7596872 -0.2532291 0
v 0.9285067 -0.08440972 0
v 1.097326 0.08440967 0
v -0.08440972 -0.9285067 0
v -0.2532291 -1.097326 0
v 0.08440967 -0.7596873 0
v 0.2532291 -0.5908679 0
v 0.4220484 -0.4220485 0
v 0.5908679 -0.2532291 0
v 0.7596872 -0.08440972 0
v 0.9285067 0.08440967 0
v 1.097326 0.2532291 0
v 0.9285067 0.2532291 0
v 1.097326 0.4220484 0
v 0.7596872 0.08440967 0
v 0.5908679 -0.08440972 0
v 0.4220484 -0.2532291 0
v 0.2532291 -0.4220485 0
v 0.9285067 0.4220484 0
v 1.097326 0.5908679 0
v 0.7596872 0.2532291 0
v 0.5908679 0.08440967 0
v 0.4220484 -0.08440972 0
v 0.9285067 0.5908679 0
v 1.097326 0.7596872 0
v 0.7596872 0.4220484 0
v 0.5908679 0.2532291 0
v 0.9285067 0.7596872 0
v 1.097326 0.9285067 0
v 0.7596872 0.5908679 0
v 0.9285067 0.9285067 0
v 1.097326 1.097326 0
v 0.9285067 1.097326 0
v 0.7596872 0.7596872 0
v 0.7596872 0.9285067 0
v 0.7596872 1.097326 0
v 0.5908679 0.4220484 0
v 0.4220484 0.08440967 0
v 0.5908679 0.5908679 0
v 0.5908679 0.7596872 0
v 0.5908679 0.9285067 0
v 0.5908679 1.097326 0
v 0.4220484 0.2532291 0
v 0.4220484 0.4220484 0
v 0.4220484 0.5908679 0
v 0.4220484 0.7596872 0
v 0.4220484 0.9285067 0
v 0.4220484 1.097326 0
v 0.2532291 0.9285067 0
v 0.2532291 1.097326 0
v 0.2532291 0.7596872 0
v 0.2532291 0.5908679 0
v 0.2532291 0.4220484 0
v 0.2532291 0.2532291 0
v 0.08440967 0.9285067 0
v 0.08440967 1.097326 0
v 0.08440967 0.7596872 0
v 0.08440967 0.5908679 0
v 0.08440967 0.4220484 0
v -0.08440972 0.9285067 0
v -0.08440972 1.097326 0
v -0.08440972 0.7596872 0
v -0.08440972 0.5908679 0
v -0.2532291 0.9285067 0
v -0.2532291 1.097326 0
v -0.2532291 0.7596872 0
v -0.4220485 0.9285067 0
v -0.4220485 1.097326 0
v 0.08440967 0.2532291 0
v -0.08440972 0.4220484 0
v -0.2532291 0.5908679 0
v -0.4220485 0.7596872 0
v -0.5908679 0.9285067 0
v -0.5908679 1.097326 0
v -0.08440972 0.2532291 0
v -0.2532291 0.4220484 0
v -0.4220485 0.5908679 0
v -0.5908679 0.7596872 0
v -0.7596873 0.9285067 0
v -0.7596873 1.097326 0
v -0.2532291 0.2532291 0
v -0.4220485 0.4220484 0
v -0.5908679 0.5908679 0
v -0.7596873 0.7596872 0
v -0.9285067 0.9285067 0
v -0.9285067 1.097326 0
v -1.097326 0.9285067 0
v -1.097326 1.097326 0
v -1.097326 0.7596872 0
v -0.9285067 0.7596872 0
v -1.097326 0.5908679 0
v -0.9285067 0.5908679 0
v -1.097326 0.4220484 0
v -0.7596873 0.5908679 0
v -0.9285067 0.4220484 0
v -1.097326 0.2532291 0
v -0.7596873 0.4220484 0
v -0.9285067 0.2532291 0
v -1.097326 0.08440967 0
v -0.5908679 0.4220484 0
v -0.9285067 0.08440967 0
v -1.097326 -0.08440972 0
v -0.7596873 0.2532291 0
v -0.5908679 0.2532291 0
v -0.9285067 -0.08440972 0
v -1.097326 -0.2532291 0
v -0.7596873 0.08440967 0
v -0.4220485 0.2532291 0
v -0.9285067 -0.2532291 0
v -1.097326 -0.4220485 0
v -0.7596873 -0.08440972 0
v -0.5908679 0.08440967 0
v -0.4220485 0.08440967 0
v -0.9285067 -0.4220485 0
v -1.097326 -0.5908679 0
v -0.7596873 -0.2532291 0
v -0.5908679 -0.08440972 0
v -0.2532291 0.08440967 0
v -0.9285067 -0.5908679 0
v -1.097326 -0.7596873 0
v -0.7596873 -0.4220485 0
v -0.5908679 -0.2532291 0
v -0.4220485 -0.08440972 0
v -0.08440972 0.08440967 0
v -0.9285067 -0.7596873 0
v -1.097326 -0.9285067 0
v -0.7596873 -0.5908679 0
v -0.5908679 -0.4220485 0
v -0.4220485 -0.2532291 0
v -0.2532291 -0.08440972 0
v 0.08440967 0.08440967 0
v -0.9285067 -0.9285067 0
v -1.097326 -1.097326 0
v -0.9285067 -1.097326 0
v -0.08440972 -0.08440972 0
v -0.2532291 -0.2532291 0
v 0.2532291 0.08440967 0
v -0.7596873 -0.7596873 0
v -0.7596873 -0.9285067 0
v -0.7596873 -1.097326 0
v 0.08440967 -0.08440972 0
v 0.2532291 -0.08440972 0
v -0.5908679 -0.5908679 0
v -0.5908679 -0.9285067 0
v -0.5908679 -1.097326 0
v -0.5908679 -0.7596873 0
v -0.08440972 -0.2532291 0
v 0.08440967 -0.2532291 0
v 0.2532291 -0.2532291 0
v -0.4220485 -0.9285067 0
v -0.4220485 -1.097326 0
v -0.4220485 -0.7596873 0
v 0.08440967 -0.4220485 0
v -0.08440972 -0.4220485 0
v -0.2532291 -0.9285067 0
v 0.08440967 -0.5908679 0
v -0.08440972 -0.7596873 0
v -0.2532291 -0.7596873 0
v -0.08440972 -0.5908679 0
v -0.2532291 -0.5908679 0
v -0.4220485 -0.5908679 0
v -0.2532291 -0.4220485 0
v -0.4220485 -0.4220485 0
vt 0.07692295 1
vt -5.960464E-08 0.923077
vt -5.960464E-08 1
vt 0.07692295 0.923077
vt 0.153846 1
vt -5.960464E-08 0.8461539
vt 0.153846 0.923077
vt 0.2307691 1
vt 0.07692295 0.8461539
vt -1.788139E-07 0.7692307
vt 0.2307691 0.923077
vt 0.3076922 1
vt 0.153846 0.8461539
vt 0.07692295 0.7692307
vt -1.788139E-07 0.6923077
vt 0.3076922 0.923077
vt 0.3846152 1
vt 0.2307691 0.8461539
vt 0.153846 0.7692307
vt 0.07692295 0.6923077
vt -1.788139E-07 0.6153846
vt 0.3846152 0.923077
vt 0.4615383 1
vt 0.3076922 0.8461539
vt 0.2307691 0.7692307
vt 0.153846 0.6923077
vt 0.07692295 0.6153846
vt 0 0.5384616
vt 0.4615383 0.923077
vt 0.5384614 1
vt 0.3846152 0.8461539
vt 0.3076922 0.7692307
vt 0.2307691 0.6923077
vt 0.153846 0.6153846
vt 0.07692301 0.5384616
vt 0 0.4615385
vt 0.5384614 0.923077
vt 0.6153845 1
vt 0.4615383 0.8461539
vt 0.3846152 0.7692308
vt 0.3076922 0.6923077
vt 0.2307691 0.6153846
vt 0.1538461 0.5384616
vt 0.07692301 0.4615385
vt -5.960464E-08 0.3846154
vt 0.07692295 0.3846154
vt -5.960464E-08 0.3076923
vt 0.1538461 0.4615385
vt 0.2307692 0.5384616
vt 0.3076922 0.6153846
vt 0.3846152 0.6923077
vt 0.07692295 0.3076923
vt -5.960464E-08 0.2307693
vt 0.153846 0.3846154
vt 0.2307692 0.4615385
vt 0.3076922 0.5384616
vt 0.07692295 0.2307693
vt -5.960464E-08 0.1538462
vt 0.153846 0.3076923
vt 0.2307691 0.3846154
vt 0.07692295 0.1538462
vt -5.960464E-08 0.07692312
vt 0.153846 0.2307692
vt 0.07692295 0.07692311
vt -5.960464E-08 -1.390907E-08
vt 0.07692295 -1.971659E-08
vt 0.153846 0.1538462
vt 0.153846 0.07692311
vt 0.153846 -2.552412E-08
vt 0.2307691 0.3076923
vt 0.3076922 0.4615385
vt 0.2307691 0.2307692
vt 0.2307691 0.1538462
vt 0.2307691 0.0769231
vt 0.2307691 8.787764E-08
vt 0.3076922 0.3846154
vt 0.3076922 0.3076923
vt 0.3076922 0.2307692
vt 0.3076922 0.1538462
vt 0.3076922 0.07692309
vt 0.3076922 8.20701E-08
vt 0.3846152 0.07692309
vt 0.3846152 7.626258E-08
vt 0.3846152 0.1538462
vt 0.3846152 0.2307692
vt 0.3846152 0.3076923
vt 0.3846152 0.3846154
vt 0.4615383 0.07692308
vt 0.4615383 7.045504E-08
vt 0.4615383 0.1538462
vt 0.4615383 0.2307692
vt 0.4615383 0.3076923
vt 0.5384614 0.07692308
vt 0.5384614 6.464751E-08
vt 0.5384614 0.1538461
vt 0.5384614 0.2307692
vt 0.6153845 0.07692313
vt 0.6153845 5.883998E-08
vt 0.6153845 0.1538462
vt 0.6923075 0.07692312
vt 0.6923076 5.303245E-08
vt 0.4615383 0.3846154
vt 0.5384614 0.3076923
vt 0.6153846 0.2307693
vt 0.6923075 0.1538462
vt 0.7692307 0.07692312
vt 0.7692307 4.722492E-08
vt 0.5384614 0.3846154
vt 0.6153846 0.3076923
vt 0.6923076 0.2307693
vt 0.7692307 0.1538462
vt 0.8461537 0.07692312
vt 0.8461537 4.141739E-08
vt 0.6153846 0.3846154
vt 0.6923076 0.3076923
vt 0.7692307 0.2307693
vt 0.8461537 0.1538462
vt 0.9230768 0.07692311
vt 0.9230768 3.560986E-08
vt 0.9999999 0.0769231
vt 0.9999999 2.980232E-08
vt 0.9999999 0.1538462
vt 0.9230768 0.1538462
vt 0.9999998 0.2307692
vt 0.9230768 0.2307692
vt 0.9999998 0.3076923
vt 0.8461537 0.2307693
vt 0.9230768 0.3076923
vt 0.9999998 0.3846154
vt 0.8461537 0.3076923
vt 0.9230769 0.3846154
vt 0.9999999 0.4615385
vt 0.7692307 0.3076923
vt 0.9230769 0.4615385
vt 0.9999999 0.5384616
vt 0.8461537 0.3846154
vt 0.7692306 0.3846154
vt 0.9230769 0.5384616
vt 0.9999999 0.6153847
vt 0.8461537 0.4615385
vt 0.6923076 0.3846154
vt 0.9230768 0.6153847
vt 0.9999999 0.6923077
vt 0.8461537 0.5384616
vt 0.7692306 0.4615385
vt 0.6923076 0.4615385
vt 0.9230768 0.6923077
vt 0.9999999 0.7692308
vt 0.8461537 0.6153847
vt 0.7692307 0.5384616
vt 0.6153845 0.4615385
vt 0.9230768 0.7692308
vt 0.9999999 0.8461539
vt 0.8461537 0.6923077
vt 0.7692307 0.6153846
vt 0.6923076 0.5384616
vt 0.5384614 0.4615384
vt 0.9230768 0.8461539
vt 0.9999999 0.923077
vt 0.8461537 0.7692307
vt 0.7692307 0.6923077
vt 0.6923076 0.6153846
vt 0.6153845 0.5384616
vt 0.4615384 0.4615384
vt 0.9230768 0.923077
vt 0.9999999 1
vt 0.9230768 1
vt 0.5384614 0.5384616
vt 0.6153845 0.6153846
vt 0.3846153 0.4615385
vt 0.8461537 0.8461539
vt 0.8461537 0.923077
vt 0.8461537 1
vt 0.4615384 0.5384616
vt 0.3846153 0.5384616
vt 0.7692307 0.7692307
vt 0.7692306 0.923077
vt 0.7692306 1
vt 0.7692307 0.8461539
vt 0.5384614 0.6153847
vt 0.4615383 0.6153847
vt 0.3846152 0.6153846
vt 0.6923076 0.923077
vt 0.6923076 1
vt 0.6923076 0.8461539
vt 0.4615383 0.6923077
vt 0.5384614 0.6923077
vt 0.6153845 0.9230769
vt 0.4615383 0.7692308
vt 0.5384614 0.8461539
vt 0.6153845 0.8461539
vt 0.5384614 0.7692308
vt 0.6153845 0.7692307
vt 0.6923076 0.7692307
vt 0.6153845 0.6923077
vt 0.6923076 0.6923077
vn 0 0 1
vn 0 0 1
vn 0 0 1
vn 0 0 1
vn 0 0 1
vn 0 0 1
vn 0 0 1
vn 0 0 1
vn 0 0 1
vn 0 0 1
vn 0 0 1
vn 0 0 1
vn 0 0 1
vn 0 0 1
vn 0 0 1
vn 0 0 1
vn 0 0 1
vn 0 0 1
vn 0 0 1
vn 0 0 1
vn 0 0 1
vn 0 0 1
vn 0 0 1
vn 0 0 1
vn 0 0 1
vn 0 0 1
vn 0 0 1
vn 0 0 1
vn 0 0 1
vn 0 0 1
vn 0 0 1
vn 0 0 1
vn 0 0 1
vn 0 0 1
vn 0 0 1
vn 0 0 1
vn 0 0 1
vn 0 0 1
vn 0 0 1
vn 0 0 1
vn 0 0 1
vn 0 0 1
vn 0 0 1
vn 0 0 1
vn 0 0 1
vn 0 0 1
vn 0 0 1
vn 0 0 1
vn 0 0 1
vn 0 0 1
vn 0 0 1
vn 0 0 1
vn 0 0 1
vn 0 0 1
vn 0 0 1
vn 0 0 1
vn 0 0 1
vn 0 0 1
vn 0 0 1
vn 0 0 1
vn 0 0 1
vn 0 0 1
vn 0 0 1
vn 0 0 1
vn 0 0 1
vn 0 0 1
vn 0 0 1
vn 0 0 1
vn 0 0 1
vn 0 0 1
vn 0 0 1
vn 0 0 1
vn 0 0 1
vn 0 0 1
vn 0 0 1
vn 0 0 1
vn 0 0 1
vn 0 0 1
vn 0 0 1
vn 0 0 1
vn 0 0 1
vn 0 0 1
vn 0 0 1
vn 0 0 1
vn 0 0 1
vn 0 0 1
vn 0 0 1
vn 0 0 1
vn 0 0 1
vn 0 0 1
vn 0 0 1
vn 0 0 1
vn 0 0 1
vn 0 0 1
vn 0 0 1
vn 0 0 1
vn 0 0 1
vn 0 0 1
vn 0 0 1
vn 0 0 1
vn 0 0 1
vn 0 0 1
vn 0 0 1
vn 0 0 1
vn 0 0 1
vn 0 0 1
vn 0 0 1
vn 0 0 1
vn 0 0 1
vn 0 0 1
vn 0 0 1
vn 0 0 1
vn 0 0 1
vn 0 0 1
vn 0 0 1
vn 0 0 1
vn 0 0 1
vn 0 0 1
vn 0 0 1
vn 0 0 1
vn 0 0 1
vn 0 0 1
vn 0 0 1
vn 0 0 1
vn 0 0 1
vn 0 0 1
vn 0 0 1
vn 0 0 1
vn 0 0 1
vn 0 0 1
vn 0 0 1
vn 0 0 1
vn 0 0 1
vn 0 0 1
vn 0 0 1
vn 0 0 1
vn 0 0 1
vn 0 0 1
vn 0 0 1
vn 0 0 1
vn 0 0 1
vn 0 0 1
vn 0 0 1
vn 0 0 1
vn 0 0 1
vn 0 0 1
vn 0 0 1
vn 0 0 1
vn 0 0 1
vn 0 0 1
vn 0 0 1
vn 0 0 1
vn 0 0 1
vn 0 0 1
vn 0 0 1
vn 0 0 1
vn 0 0 1
vn 0 0 1
vn 0 0 1
vn 0 0 1
vn 0 0 1
vn 0 0 1
vn 0 0 1
vn 0 0 1
vn 0 0 1
vn 0 0 1
vn 0 0 1
vn 0 0 1
vn 0 0 1
vn 0 0 1
vn 0 0 1
vn 0 0 1
vn 0 0 1
vn 0 0 1
vn 0 0 1
vn 0 0 1
vn 0 0 1
vn 0 0 1
vn 0 0 1
vn 0 0 1
vn 0 0 1
vn 0 0 1
vn 0 0 1
vn 0 0 1
vn 0 0 1
vn 0 0 1
vn 0 0 1
vn 0 0 1
vn 0 0 1
vn 0 0 1
vn 0 0 1
vn 0 0 1
vn 0 0 1
vn 0 0 1
vn 0 0 1
vn 0 0 1
g Plane001_Alpha_0
f 3/3/3 2/2/2 1/1/1
f 2/2/2 4/4/4 1/1/1
f 1/1/1 4/4/4 5/5/5
f 2/2/2 6/6/6 4/4/4
f 4/4/4 7/7/7 5/5/5
f 5/5/5 7/7/7 8/8/8
f 6/6/6 9/9/9 4/4/4
f 4/4/4 9/9/9 7/7/7
f 6/6/6 10/10/10 9/9/9
f 7/7/7 11/11/11 8/8/8
f 8/8/8 11/11/11 12/12/12
f 9/9/9 13/13/13 7/7/7
f 7/7/7 13/13/13 11/11/11
f 10/10/10 14/14/14 9/9/9
f 9/9/9 14/14/14 13/13/13
f 10/10/10 15/15/15 14/14/14
f 11/11/11 16/16/16 12/12/12
f 12/12/12 16/16/16 17/17/17
f 13/13/13 18/18/18 11/11/11
f 11/11/11 18/18/18 16/16/16
f 14/14/14 19/19/19 13/13/13
f 13/13/13 19/19/19 18/18/18
f 15/15/15 20/20/20 14/14/14
f 14/14/14 20/20/20 19/19/19
f 15/15/15 21/21/21 20/20/20
f 16/16/16 22/22/22 17/17/17
f 17/17/17 22/22/22 23/23/23
f 18/18/18 24/24/24 16/16/16
f 16/16/16 24/24/24 22/22/22
f 19/19/19 25/25/25 18/18/18
f 18/18/18 25/25/25 24/24/24
f 20/20/20 26/26/26 19/19/19
f 19/19/19 26/26/26 25/25/25
f 21/21/21 27/27/27 20/20/20
f 20/20/20 27/27/27 26/26/26
f 21/21/21 28/28/28 27/27/27
f 22/22/22 29/29/29 23/23/23
f 23/23/23 29/29/29 30/30/30
f 24/24/24 31/31/31 22/22/22
f 22/22/22 31/31/31 29/29/29
f 25/25/25 32/32/32 24/24/24
f 24/24/24 32/32/32 31/31/31
f 26/26/26 33/33/33 25/25/25
f 25/25/25 33/33/33 32/32/32
f 27/27/27 34/34/34 26/26/26
f 26/26/26 34/34/34 33/33/33
f 28/28/28 35/35/35 27/27/27
f 27/27/27 35/35/35 34/34/34
f 28/28/28 36/36/36 35/35/35
f 29/29/29 37/37/37 30/30/30
f 30/30/30 37/37/37 38/38/38
f 31/31/31 39/39/39 29/29/29
f 29/29/29 39/39/39 37/37/37
f 32/32/32 40/40/40 31/31/31
f 31/31/31 40/40/40 39/39/39
f 33/33/33 41/41/41 32/32/32
f 32/32/32 41/41/41 40/40/40
f 34/34/34 42/42/42 33/33/33
f 33/33/33 42/42/42 41/41/41
f 35/35/35 43/43/43 34/34/34
f 34/34/34 43/43/43 42/42/42
f 36/36/36 44/44/44 35/35/35
f 35/35/35 44/44/44 43/43/43
f 36/36/36 45/45/45 44/44/44
f 45/45/45 46/46/46 44/44/44
f 45/45/45 47/47/47 46/46/46
f 44/44/44 48/48/48 43/43/43
f 44/44/44 46/46/46 48/48/48
f 43/43/43 49/49/49 42/42/42
f 43/43/43 48/48/48 49/49/49
f 42/42/42 50/50/50 41/41/41
f 42/42/42 49/49/49 50/50/50
f 41/41/41 51/51/51 40/40/40
f 41/41/41 50/50/50 51/51/51
f 47/47/47 52/52/52 46/46/46
f 47/47/47 53/53/53 52/52/52
f 46/46/46 54/54/54 48/48/48
f 46/46/46 52/52/52 54/54/54
f 48/48/48 55/55/55 49/49/49
f 48/48/48 54/54/54 55/55/55
f 49/49/49 56/56/56 50/50/50
f 49/49/49 55/55/55 56/56/56
f 53/53/53 57/57/57 52/52/52
f 53/53/53 58/58/58 57/57/57
f 52/52/52 59/59/59 54/54/54
f 52/52/52 57/57/57 59/59/59
f 54/54/54 60/60/60 55/55/55
f 54/54/54 59/59/59 60/60/60
f 58/58/58 61/61/61 57/57/57
f 58/58/58 62/62/62 61/61/61
f 57/57/57 63/63/63 59/59/59
f 57/57/57 61/61/61 63/63/63
f 62/62/62 64/64/64 61/61/61
f 62/62/62 65/65/65 64/64/64
f 65/65/65 66/66/66 64/64/64
f 61/61/61 64/64/64 67/67/67
f 61/61/61 67/67/67 63/63/63
f 64/64/64 66/66/66 68/68/68
f 64/64/64 68/68/68 67/67/67
f 66/66/66 69/69/69 68/68/68
f 59/59/59 63/63/63 70/70/70
f 59/59/59 70/70/70 60/60/60
f 55/55/55 60/60/60 71/71/71
f 55/55/55 71/71/71 56/56/56
f 63/63/63 67/67/67 72/72/72
f 63/63/63 72/72/72 70/70/70
f 67/67/67 68/68/68 73/73/73
f 67/67/67 73/73/73 72/72/72
f 68/68/68 69/69/69 74/74/74
f 68/68/68 74/74/74 73/73/73
f 69/69/69 75/75/75 74/74/74
f 60/60/60 70/70/70 76/76/76
f 60/60/60 76/76/76 71/71/71
f 70/70/70 72/72/72 77/77/77
f 70/70/70 77/77/77 76/76/76
f 72/72/72 73/73/73 78/78/78
f 72/72/72 78/78/78 77/77/77
f 73/73/73 74/74/74 79/79/79
f 73/73/73 79/79/79 78/78/78
f 74/74/74 75/75/75 80/80/80
f 74/74/74 80/80/80 79/79/79
f 75/75/75 81/81/81 80/80/80
f 80/80/80 81/81/81 82/82/82
f 81/81/81 83/83/83 82/82/82
f 79/79/79 80/80/80 84/84/84
f 80/80/80 82/82/82 84/84/84
f 78/78/78 79/79/79 85/85/85
f 79/79/79 84/84/84 85/85/85
f 77/77/77 78/78/78 86/86/86
f 78/78/78 85/85/85 86/86/86
f 76/76/76 77/77/77 87/87/87
f 77/77/77 86/86/86 87/87/87
f 82/82/82 83/83/83 88/88/88
f 83/83/83 89/89/89 88/88/88
f 84/84/84 82/82/82 90/90/90
f 82/82/82 88/88/88 90/90/90
f 85/85/85 84/84/84 91/91/91
f 84/84/84 90/90/90 91/91/91
f 86/86/86 85/85/85 92/92/92
f 85/85/85 91/91/91 92/92/92
f 88/88/88 89/89/89 93/93/93
f 89/89/89 94/94/94 93/93/93
f 90/90/90 88/88/88 95/95/95
f 88/88/88 93/93/93 95/95/95
f 91/91/91 90/90/90 96/96/96
f 90/90/90 95/95/95 96/96/96
f 93/93/93 94/94/94 97/97/97
f 94/94/94 98/98/98 97/97/97
f 95/95/95 93/93/93 99/99/99
f 93/93/93 97/97/97 99/99/99
f 97/97/97 98/98/98 100/100/100
f 98/98/98 101/101/101 100/100/100
f 86/86/86 92/92/92 102/102/102
f 87/87/87 86/86/86 102/102/102
f 92/92/92 91/91/91 103/103/103
f 91/91/91 96/96/96 103/103/103
f 96/96/96 95/95/95 104/104/104
f 95/95/95 99/99/99 104/104/104
f 99/99/99 97/97/97 105/105/105
f 97/97/97 100/100/100 105/105/105
f 100/100/100 101/101/101 106/106/106
f 101/101/101 107/107/107 106/106/106
f 102/102/102 92/92/92 108/108/108
f 92/92/92 103/103/103 108/108/108
f 103/103/103 96/96/96 109/109/109
f 96/96/96 104/104/104 109/109/109
f 104/104/104 99/99/99 110/110/110
f 99/99/99 105/105/105 110/110/110
f 105/105/105 100/100/100 111/111/111
f 100/100/100 106/106/106 111/111/111
f 106/106/106 107/107/107 112/112/112
f 107/107/107 113/113/113 112/112/112
f 108/108/108 103/103/103 114/114/114
f 103/103/103 109/109/109 114/114/114
f 109/109/109 104/104/104 115/115/115
f 104/104/104 110/110/110 115/115/115
f 110/110/110 105/105/105 116/116/116
f 105/105/105 111/111/111 116/116/116
f 111/111/111 106/106/106 117/117/117
f 106/106/106 112/112/112 117/117/117
f 112/112/112 113/113/113 118/118/118
f 113/113/113 119/119/119 118/118/118
f 118/118/118 119/119/119 120/120/120
f 119/119/119 121/121/121 120/120/120
f 118/118/118 120/120/120 122/122/122
f 112/112/112 118/118/118 123/123/123
f 123/123/123 118/118/118 122/122/122
f 117/117/117 112/112/112 123/123/123
f 123/123/123 122/122/122 124/124/124
f 125/125/125 123/123/123 124/124/124
f 117/117/117 123/123/123 125/125/125
f 125/125/125 124/124/124 126/126/126
f 111/111/111 117/117/117 127/127/127
f 127/127/127 117/117/117 125/125/125
f 116/116/116 111/111/111 127/127/127
f 128/128/128 125/125/125 126/126/126
f 127/127/127 125/125/125 128/128/128
f 128/128/128 126/126/126 129/129/129
f 116/116/116 127/127/127 130/130/130
f 130/130/130 127/127/127 128/128/128
f 131/131/131 128/128/128 129/129/129
f 130/130/130 128/128/128 131/131/131
f 131/131/131 129/129/129 132/132/132
f 133/133/133 116/116/116 130/130/130
f 110/110/110 116/116/116 133/133/133
f 115/115/115 110/110/110 133/133/133
f 134/134/134 131/131/131 132/132/132
f 134/134/134 132/132/132 135/135/135
f 136/136/136 130/130/130 131/131/131
f 133/133/133 130/130/130 136/136/136
f 136/136/136 131/131/131 134/134/134
f 115/115/115 133/133/133 137/137/137
f 137/137/137 133/133/133 136/136/136
f 138/138/138 134/134/134 135/135/135
f 138/138/138 135/135/135 139/139/139
f 140/140/140 136/136/136 134/134/134
f 137/137/137 136/136/136 140/140/140
f 140/140/140 134/134/134 138/138/138
f 141/141/141 115/115/115 137/137/137
f 109/109/109 115/115/115 141/141/141
f 114/114/114 109/109/109 141/141/141
f 142/142/142 138/138/138 139/139/139
f 142/142/142 139/139/139 143/143/143
f 144/144/144 140/140/140 138/138/138
f 144/144/144 138/138/138 142/142/142
f 145/145/145 137/137/137 140/140/140
f 141/141/141 137/137/137 145/145/145
f 145/145/145 140/140/140 144/144/144
f 114/114/114 141/141/141 146/146/146
f 146/146/146 141/141/141 145/145/145
f 147/147/147 142/142/142 143/143/143
f 147/147/147 143/143/143 148/148/148
f 149/149/149 144/144/144 142/142/142
f 149/149/149 142/142/142 147/147/147
f 150/150/150 145/145/145 144/144/144
f 146/146/146 145/145/145 150/150/150
f 150/150/150 144/144/144 149/149/149
f 151/151/151 114/114/114 146/146/146
f 108/108/108 114/114/114 151/151/151
f 152/152/152 147/147/147 148/148/148
f 152/152/152 148/148/148 153/153/153
f 154/154/154 149/149/149 147/147/147
f 154/154/154 147/147/147 152/152/152
f 155/155/155 150/150/150 149/149/149
f 155/155/155 149/149/149 154/154/154
f 156/156/156 146/146/146 150/150/150
f 151/151/151 146/146/146 156/156/156
f 156/156/156 150/150/150 155/155/155
f 157/157/157 108/108/108 151/151/151
f 102/102/102 108/108/108 157/157/157
f 158/158/158 152/152/152 153/153/153
f 158/158/158 153/153/153 159/159/159
f 160/160/160 154/154/154 152/152/152
f 160/160/160 152/152/152 158/158/158
f 161/161/161 155/155/155 154/154/154
f 161/161/161 154/154/154 160/160/160
f 162/162/162 156/156/156 155/155/155
f 162/162/162 155/155/155 161/161/161
f 163/163/163 151/151/151 156/156/156
f 157/157/157 151/151/151 163/163/163
f 163/163/163 156/156/156 162/162/162
f 164/164/164 102/102/102 157/157/157
f 87/87/87 102/102/102 164/164/164
f 165/165/165 158/158/158 159/159/159
f 165/165/165 159/159/159 166/166/166
f 167/167/167 165/165/165 166/166/166
f 168/168/168 157/157/157 163/163/163
f 164/164/164 157/157/157 168/168/168
f 169/169/169 163/163/163 162/162/162
f 168/168/168 163/163/163 169/169/169
f 170/170/170 87/87/87 164/164/164
f 76/76/76 87/87/87 170/170/170
f 71/71/71 76/76/76 170/170/170
f 171/171/171 158/158/158 165/165/165
f 171/171/171 160/160/160 158/158/158
f 172/172/172 165/165/165 167/167/167
f 172/172/172 171/171/171 165/165/165
f 173/173/173 172/172/172 167/167/167
f 174/174/174 164/164/164 168/168/168
f 170/170/170 164/164/164 174/174/174
f 71/71/71 170/170/170 175/175/175
f 175/175/175 170/170/170 174/174/174
f 56/56/56 71/71/71 175/175/175
f 176/176/176 160/160/160 171/171/171
f 176/176/176 161/161/161 160/160/160
f 177/177/177 172/172/172 173/173/173
f 178/178/178 177/177/177 173/173/173
f 179/179/179 171/171/171 172/172/172
f 179/179/179 176/176/176 171/171/171
f 177/177/177 179/179/179 172/172/172
f 174/174/174 168/168/168 180/180/180
f 180/180/180 168/168/168 169/169/169
f 175/175/175 174/174/174 181/181/181
f 181/181/181 174/174/174 180/180/180
f 56/56/56 175/175/175 182/182/182
f 182/182/182 175/175/175 181/181/181
f 50/50/50 56/56/56 182/182/182
f 50/50/50 182/182/182 51/51/51
f 183/183/183 177/177/177 178/178/178
f 184/184/184 183/183/183 178/178/178
f 185/185/185 179/179/179 177/177/177
f 183/183/183 185/185/185 177/177/177
f 182/182/182 181/181/181 186/186/186
f 51/51/51 182/182/182 186/186/186
f 181/181/181 180/180/180 187/187/187
f 186/186/186 181/181/181 187/187/187
f 188/188/188 183/183/183 184/184/184
f 38/38/38 188/188/188 184/184/184
f 37/37/37 188/188/188 38/38/38
f 51/51/51 186/186/186 189/189/189
f 40/40/40 51/51/51 189/189/189
f 40/40/40 189/189/189 39/39/39
f 39/39/39 190/190/190 37/37/37
f 37/37/37 190/190/190 188/188/188
f 39/39/39 189/189/189 190/190/190
f 188/188/188 191/191/191 183/183/183
f 190/190/190 191/191/191 188/188/188
f 191/191/191 185/185/185 183/183/183
f 189/189/189 186/186/186 192/192/192
f 189/189/189 192/192/192 190/190/190
f 190/190/190 192/192/192 191/191/191
f 186/186/186 187/187/187 192/192/192
f 192/192/192 193/193/193 191/191/191
f 191/191/191 193/193/193 185/185/185
f 192/192/192 187/187/187 193/193/193
f 193/193/193 194/194/194 185/185/185
f 185/185/185 194/194/194 179/179/179
f 194/194/194 176/176/176 179/179/179
f 187/187/187 195/195/195 193/193/193
f 193/193/193 195/195/195 194/194/194
f 187/187/187 180/180/180 195/195/195
f 180/180/180 169/169/169 195/195/195
f 194/194/194 196/196/196 176/176/176
f 195/195/195 196/196/196 194/194/194
f 195/195/195 169/169/169 196/196/196
f 196/196/196 161/161/161 176/176/176
f 169/169/169 162/162/162 196/196/196
f 196/196/196 162/162/162 161/161/161
