g Plane01_uv2
v -0.445795 0.1035441 0.2573781
v -0.341731 -0.0006708455 0.1972919
v -0.6834601 -0.0006708384 0.3945893
v -0.2228966 0.1035507 0.1286877
v -0.3095142 0.1932188 0.178698
v -1.901219E-06 -0.0006708527 -5.443721E-06
v -0.1547571 0.1932188 0.08934896
v -0.258788 0.2866375 0.1494113
v -4.192143E-07 0.1035529 -1.440782E-06
v 0.341727 -0.0006708598 -0.1973028
v -0.129394 0.2866376 0.07470565
v -0.2408205 0.3807299 0.1390378
v 0.2228958 0.1035507 -0.1286906
v 0.683456 -0.0006708669 -0.3946
v 0.4457939 0.1035441 -0.2573809
v 5.074214E-08 0.1932188 -1.03484E-07
v 0.1547572 0.1932188 -0.08934914
v 0.3095142 0.1932188 -0.1786982
v -0.1204102 0.3807299 0.06951889
v -0.2408205 0.4747459 0.1390378
v 4.229749E-08 0.2866375 -6.294756E-09
v 0.1293941 0.2866376 -0.07470568
v 0.2587881 0.2866375 -0.1494113
v -0.1204103 0.4747459 0.0695189
v -0.2408205 0.5687619 0.1390378
v 3.698235E-08 0.3807299 -1.932031E-08
v 0.1204103 0.3807299 -0.06951892
v 0.2408206 0.3807299 -0.1390378
v -0.1204102 0.5687619 0.06951889
v -0.2408205 0.662778 0.1390378
v 6.00089E-09 0.4747459 -7.974254E-10
v 0.1204103 0.4747459 -0.06951891
v 0.2408206 0.4747459 -0.1390378
v -0.1204102 0.662778 0.06951889
v -0.2408205 0.7567941 0.1390378
v 4.109193E-08 0.5687619 -2.042148E-08
v 0.1204103 0.5687619 -0.06951892
v 0.2408206 0.5687619 -0.1390378
v -0.1204102 0.7567941 0.06951889
v -0.2408205 0.8508102 0.1390378
v 4.314671E-08 0.662778 -2.097206E-08
v 0.1204103 0.662778 -0.06951893
v 0.2408206 0.662778 -0.1390378
v -0.1204103 0.8508102 0.06951889
v -0.2408205 0.9448262 0.1390378
v 4.52015E-08 0.7567941 -2.152265E-08
v 0.1204103 0.7567941 -0.06951892
v 0.2408206 0.7567941 -0.1390378
v -0.1204103 0.9448262 0.06951889
v -0.2408205 1.038842 0.1390378
v 4.725628E-08 0.8508102 -2.207321E-08
v 0.1204104 0.8508102 -0.06951892
v 0.2408206 0.8508102 -0.1390378
v -0.1204102 1.038842 0.06951889
v -0.2408205 1.132859 0.1390378
v 4.931107E-08 0.9448262 -2.262379E-08
v 0.1204104 0.9448262 -0.06951893
v 0.2408206 0.9448262 -0.1390378
v -0.1204102 1.132859 0.06951889
v -0.2408205 1.226874 0.1390378
v 5.136588E-08 1.038842 -2.317437E-08
v 0.1204104 1.038842 -0.06951893
v 0.2408206 1.038842 -0.1390378
v -0.1204102 1.226874 0.06951889
v -0.2408205 1.32089 0.1390378
v 5.342065E-08 1.132859 -2.372495E-08
v 0.1204104 1.132859 -0.06951893
v 0.2408206 1.132859 -0.1390378
v -0.1204102 1.32089 0.06951889
v -0.2408205 1.414907 0.1390378
v 5.547544E-08 1.226874 -2.427553E-08
v 0.1204104 1.226874 -0.06951893
v 0.2408206 1.226874 -0.1390378
v -0.1204102 1.414907 0.06951888
v -0.2408205 1.508923 0.1390378
v -0.1204102 1.508923 0.06951888
v 2.449397E-08 1.32089 -5.752605E-09
v 0.1204103 1.32089 -0.06951892
v 0.2408206 1.32089 -0.1390378
v 5.9585E-08 1.414907 -2.537669E-08
v 6.163979E-08 1.508923 -2.592726E-08
v 0.1204104 1.414907 -0.06951893
v 0.2408206 1.414907 -0.1390378
v 0.1204104 1.508923 -0.06951893
v 0.2408206 1.508923 -0.1390378
v 0.4457939 0.1035441 0.2573809
v 0.341727 -0.0006708581 0.1973028
v 0.6834562 -0.0006708637 0.3946001
v 0.2228956 0.1035507 0.1286905
v 0.3095142 0.1932188 0.1786981
v -2.054749E-06 -0.0006708527 5.359367E-06
v 0.1547571 0.1932188 0.08934908
v 0.2587881 0.2866375 0.1494113
v -6.178955E-07 0.1035529 1.352671E-06
v -0.3417311 -0.0006708471 -0.197292
v 0.129394 0.2866376 0.07470563
v 0.2408206 0.3807299 0.1390378
v -0.2228967 0.1035507 -0.1286878
v -0.68346 -0.0006708416 -0.3945892
v -0.4457952 0.1035441 -0.2573782
v -7.13553E-08 0.1932188 2.681515E-08
v -0.1547572 0.1932188 -0.089349
v -0.3095143 0.1932188 -0.178698
v 0.1204103 0.3807299 0.06951889
v 0.2408206 0.4747459 0.1390378
v 1.007259E-08 0.2866375 -3.164247E-08
v -0.129394 0.2866376 -0.07470569
v -0.258788 0.2866375 -0.1494114
v 0.1204103 0.4747459 0.06951888
v 0.2408206 0.5687619 0.1390378
v 7.072475E-09 0.3807299 -2.753911E-08
v -0.1204103 0.3807299 -0.06951892
v -0.2408206 0.3807299 -0.1390378
v 0.1204103 0.5687619 0.06951886
v 0.2408206 0.662778 0.1390378
v 4.21635E-08 0.4747459 -1.613422E-08
v -0.1204103 0.4747459 -0.06951892
v -0.2408206 0.4747459 -0.1390378
v 0.1204103 0.662778 0.06951886
v 0.2408206 0.7567941 0.1390378
v 1.118204E-08 0.5687619 -4.287626E-08
v -0.1204103 0.5687619 -0.06951894
v -0.2408206 0.5687619 -0.1390379
v 0.1204103 0.7567941 0.06951885
v 0.2408206 0.8508102 0.1390378
v 1.323682E-08 0.662778 -5.054482E-08
v -0.1204103 0.662778 -0.06951895
v -0.2408206 0.662778 -0.1390379
v 0.1204103 0.8508102 0.06951885
v 0.2408206 0.9448262 0.1390378
v 1.529161E-08 0.7567941 -5.821338E-08
v -0.1204103 0.7567941 -0.06951896
v -0.2408206 0.7567941 -0.1390379
v 0.1204103 0.9448262 0.06951883
v 0.2408206 1.038842 0.1390377
v 1.734639E-08 0.8508102 -6.588197E-08
v -0.1204103 0.8508102 -0.06951897
v -0.2408206 0.8508102 -0.1390379
v 0.1204103 1.038842 0.06951883
v 0.2408206 1.132859 0.1390377
v 1.94012E-08 0.9448262 -7.355054E-08
v -0.1204103 0.9448262 -0.06951898
v -0.2408206 0.9448262 -0.1390379
v 0.1204103 1.132859 0.06951882
v 0.2408206 1.226874 0.1390377
v 2.145597E-08 1.038842 -8.121908E-08
v -0.1204103 1.038842 -0.06951898
v -0.2408206 1.038842 -0.1390379
v 0.1204103 1.226874 0.0695188
v 0.2408206 1.32089 0.1390377
v 2.351077E-08 1.132859 -8.888765E-08
v -0.1204103 1.132859 -0.06951898
v -0.2408206 1.132859 -0.1390379
v 0.1204103 1.32089 0.06951881
v 0.2408206 1.414907 0.1390377
v 2.556556E-08 1.226874 -9.655622E-08
v -0.1204103 1.226874 -0.069519
v -0.2408205 1.226874 -0.1390379
v 0.1204103 1.414907 0.0695188
v 0.2408206 1.508923 0.1390377
v 0.1204103 1.508923 0.06951879
v 6.06566E-08 1.32089 -8.515129E-08
v -0.1204102 1.32089 -0.06951899
v -0.2408205 1.32089 -0.1390379
v 2.967511E-08 1.414907 -1.118934E-07
v 3.17299E-08 1.508923 -1.195619E-07
v -0.1204103 1.414907 -0.06951901
v -0.2408205 1.414907 -0.1390379
v -0.1204103 1.508923 -0.06951902
v -0.2408206 1.508923 -0.1390379
vt 0.04746022 0.7838044
vt 0.004560233 0.5765126
vt 0.004560219 0.7508826
vt 0.05431975 0.6149728
vt 0.09241784 0.7323641
vt 0.006617863 0.3507023
vt 0.09927737 0.5635325
vt 0.129145 0.7072611
vt 0.05637738 0.3562408
vt 0.005400353 0.1775498
vt 0.129145 0.5328912
vt 0.1823331 0.6969731
vt 0.04830036 0.1775498
vt 0.005400367 0.003179848
vt 0.04830037 0.003179848
vt 0.0885778 0.3589157
vt 0.0768482 0.1875298
vt 0.0875478 0.01048499
vt 0.1839159 0.5067753
vt 0.2314059 0.6891541
vt 0.132643 0.3480273
vt 0.1261901 0.1869283
vt 0.128865 0.01523334
vt 0.2288735 0.4968987
vt 0.2666927 0.6967673
vt 0.1771258 0.3295247
vt 0.1739602 0.1757308
vt 0.1766351 0.006710649
vt 0.2625775 0.5203397
vt 0.3127583 0.7030984
vt 0.1917727 0.3204712
vt 0.1943051 0.1639866
vt 0.2211179 0.001962304
vt 0.3127583 0.5287284
vt 0.3529834 0.7057734
vt 0.2664232 0.336299
vt 0.2681034 0.1688567
vt 0.2615828 0.006832421
vt 0.3529834 0.5314033
vt 0.3890775 0.6844058
vt 0.3295516 0.353393
vt 0.3312318 0.1941811
vt 0.308598 0.01712048
vt 0.3890775 0.5100358
vt 0.4319775 0.6844058
vt 0.3498179 0.353393
vt 0.3539331 0.189311
vt 0.3539331 0.01225036
vt 0.4319775 0.5100358
vt 0.4785178 0.6994423
vt 0.3846932 0.3507023
vt 0.3846932 0.1763322
vt 0.3927179 0.001962304
vt 0.4801006 0.5044961
vt 0.5214179 0.7105217
vt 0.4131899 0.363048
vt 0.4131899 0.1940278
vt 0.4356179 0.007312179
vt 0.5230007 0.5129006
vt 0.5663755 0.7002336
vt 0.4656973 0.3424719
vt 0.4641145 0.1940278
vt 0.4785179 0.007312179
vt 0.5679584 0.513692
vt 0.5950304 0.6812403
vt 0.5193603 0.3045011
vt 0.5161947 0.1723754
vt 0.5198351 0.02095574
vt 0.5966133 0.4973736
vt 0.6631696 0.6830909
vt 0.5622603 0.3203288
vt 0.5590947 0.1771237
vt 0.5627351 0.02095574
vt 0.6631697 0.5087209
vt 0.7203146 0.6910049
vt 0.7203146 0.5166348
vt 0.6088006 0.345954
vt 0.6024696 0.193363
vt 0.6024696 0.01424474
vt 0.6500205 0.346855
vt 0.6929204 0.346855
vt 0.6771712 0.1872023
vt 0.6772686 0.01667976
vt 0.7248195 0.17492
vt 0.7249169 0.004397392
vt 0.3475223 0.2772104
vt 0.316839 0.4354793
vt 0.3041768 0.2772104
vt 0.3540117 0.4313641
vt 0.388177 0.2756276
vt 0.3014861 0.6079934
vt 0.3820041 0.4503574
vt 0.4316333 0.2830508
vt 0.3339103 0.5991298
vt 0.2723629 0.8094723
vt 0.4316332 0.4618959
vt 0.4749787 0.2830508
vt 0.3191905 0.7820902
vt 0.2850251 0.9930658
vt 0.336601 0.970432
vt 0.3772558 0.6244543
vt 0.3869107 0.7847809
vt 0.3916591 0.9683744
vt 0.4696289 0.4565461
vt 0.5182134 0.2756276
vt 0.4315224 0.6333178
vt 0.4156946 0.8042491
vt 0.4156946 0.9830943
vt 0.5128636 0.4491229
vt 0.5615588 0.2756276
vt 0.4736333 0.6238528
vt 0.4740764 0.8083643
vt 0.4699612 0.9913247
vt 0.5615588 0.4544727
vt 0.6033216 0.2851243
vt 0.5169787 0.6238528
vt 0.5506604 0.8131127
vt 0.5465451 0.9960731
vt 0.5959141 0.456562
vt 0.6537431 0.2893783
vt 0.5615587 0.6333178
vt 0.5837177 0.8089975
vt 0.5837177 0.9878426
vt 0.6504509 0.4464127
vt 0.6923404 0.2751333
vt 0.603828 0.6338243
vt 0.6112354 0.8200769
vt 0.6049043 0.9910082
vt 0.7074133 0.4395751
vt 0.7362227 0.251058
vt 0.6348277 0.6585157
vt 0.6381199 0.8591716
vt 0.6482497 0.9910082
vt 0.7368923 0.4237303
vt 0.7835251 0.2189751
vt 0.7046106 0.653894
vt 0.6752926 0.8423941
vt 0.6773502 0.9862598
vt 0.7684888 0.3489124
vt 0.8192574 0.2387964
vt 0.7436824 0.6230298
vt 0.7145227 0.806465
vt 0.7064506 0.9894254
vt 0.818007 0.3901961
vt 0.8674486 0.2179803
vt 0.7672067 0.6049861
vt 0.767998 0.8359047
vt 0.7640411 0.9941738
vt 0.8709465 0.4121151
vt 0.9266218 0.1994618
vt 0.8108845 0.6228082
vt 0.7931415 0.8370126
vt 0.8026382 0.998922
vt 0.9266218 0.3947678
vt 0.9674957 0.2571091
vt 0.8535968 0.6424347
vt 0.833163 0.8056736
vt 0.8480412 0.9906916
vt 0.9674957 0.4524151
vt 0.9950134 0.2756276
vt 0.9950134 0.4544727
vt 0.8969265 0.6277782
vt 0.892653 0.7771836
vt 0.9040489 0.9780294
vt 0.9353652 0.6303106
vt 0.9950134 0.6333179
vt 0.9290341 0.7879465
vt 0.9453367 0.9862599
vt 0.9950134 0.8121631
vt 0.9950134 0.9910082
vn 0.4999999 -3.631657E-05 0.8660255
vn 0.4999999 -4.019343E-05 0.8660255
vn 0.4999999 -4.013933E-05 0.8660255
vn 0.4999999 -2.804884E-05 0.8660255
vn 0.4999999 -1.160819E-05 0.8660254
vn 0.5 -4.040794E-05 0.8660254
vn 0.5 -8.204264E-06 0.8660254
vn 0.5 -3.944508E-07 0.8660254
vn 0.5 -2.802668E-05 0.8660254
vn 0.5 -4.033496E-05 0.8660254
vn 0.5 -3.251209E-07 0.8660254
vn 0.5 0 0.8660254
vn 0.5000001 -2.798154E-05 0.8660253
vn 0.5 -4.031411E-05 0.8660254
vn 0.5 -3.641917E-05 0.8660254
vn 0.5 -8.220381E-06 0.8660254
vn 0.5 -8.233054E-06 0.8660254
vn 0.5000001 -1.144331E-05 0.8660253
vn 0.5 0 0.8660254
vn 0.4999999 0 0.8660254
vn 0.4999999 -3.358749E-07 0.8660254
vn 0.5 -3.749731E-07 0.8660254
vn 0.5000001 -5.139048E-07 0.8660254
vn 0.4999999 0 0.8660254
vn 0.4999999 0 0.8660254
vn 0.4999999 0 0.8660254
vn 0.4999999 0 0.8660254
vn 0.5 0 0.8660254
vn 0.4999999 0 0.8660254
vn 0.4999999 0 0.8660254
vn 0.4999999 0 0.8660254
vn 0.4999999 0 0.8660254
vn 0.4999999 0 0.8660254
vn 0.5 0 0.8660254
vn 0.4999999 0 0.8660254
vn 0.4999999 0 0.8660254
vn 0.4999999 0 0.8660254
vn 0.5 0 0.8660254
vn 0.4999999 0 0.8660254
vn 0.4999999 0 0.8660254
vn 0.5 0 0.8660254
vn 0.5 0 0.8660254
vn 0.5 0 0.8660254
vn 0.4999999 0 0.8660254
vn 0.4999999 0 0.8660254
vn 0.4999999 0 0.8660254
vn 0.5 0 0.8660254
vn 0.5 0 0.8660254
vn 0.5 0 0.8660254
vn 0.4999999 0 0.8660254
vn 0.4999999 0 0.8660254
vn 0.5 0 0.8660254
vn 0.5 0 0.8660254
vn 0.4999999 0 0.8660254
vn 0.4999999 0 0.8660255
vn 0.4999999 0 0.8660254
vn 0.4999999 0 0.8660254
vn 0.5 0 0.8660254
vn 0.4999999 0 0.8660254
vn 0.5 0 0.8660254
vn 0.5 0 0.8660254
vn 0.5 0 0.8660254
vn 0.5 0 0.8660254
vn 0.5 0 0.8660254
vn 0.5 0 0.8660254
vn 0.4999999 0 0.8660254
vn 0.5 0 0.8660254
vn 0.5 0 0.8660254
vn 0.5 0 0.8660254
vn 0.5 0 0.8660254
vn 0.5 0 0.8660254
vn 0.5 0 0.8660254
vn 0.5 0 0.8660254
vn 0.5 0 0.8660254
vn 0.4999999 0 0.8660255
vn 0.4999999 0 0.8660254
vn 0.5 0 0.8660254
vn 0.5 0 0.8660254
vn 0.5 0 0.8660254
vn 0.5 0 0.8660254
vn 0.5 0 0.8660254
vn 0.5 0 0.8660254
vn 0.5 0 0.8660254
vn 0.5 0 0.8660254
vn 0.5 0 0.8660254
vn 0.5 -3.72774E-05 -0.8660254
vn 0.4999999 -4.119269E-05 -0.8660255
vn 0.4999999 -4.130578E-05 -0.8660255
vn 0.5 -2.829581E-05 -0.8660254
vn 0.5 -1.156326E-05 -0.8660254
vn 0.5000001 -4.048942E-05 -0.8660253
vn 0.4999999 -8.352126E-06 -0.8660255
vn 0.4999999 -5.071968E-07 -0.8660255
vn 0.5 -2.816061E-05 -0.8660254
vn 0.5 -4.031973E-05 -0.8660254
vn 0.4999999 -3.865013E-07 -0.8660255
vn 0.4999999 0 -0.8660255
vn 0.5 -2.787041E-05 -0.8660254
vn 0.5 -4.034574E-05 -0.8660254
vn 0.5 -3.642375E-05 -0.8660254
vn 0.4999999 -8.381278E-06 -0.8660255
vn 0.5 -8.438463E-06 -0.8660254
vn 0.4999999 -1.147151E-05 -0.8660255
vn 0.4999999 0 -0.8660255
vn 0.4999999 -1.441054E-07 -0.8660255
vn 0.5 -4.207556E-07 -0.8660254
vn 0.5 -4.964628E-07 -0.8660254
vn 0.4999999 -7.408811E-07 -0.8660255
vn 0.4999999 -1.29514E-07 -0.8660255
vn 0.4999999 -1.149227E-07 -0.8660255
vn 0.5 0 -0.8660254
vn 0.5 0 -0.8660254
vn 0.5000001 0 -0.8660254
vn 0.4999999 -1.07627E-07 -0.8660255
vn 0.4999999 0 -0.8660255
vn 0.4999999 -1.003314E-07 -0.8660255
vn 0.5 0 -0.8660254
vn 0.5000001 -1.07627E-07 -0.8660253
vn 0.4999999 0 -0.8660255
vn 0.4999999 0 -0.8660255
vn 0.4999999 -1.003314E-07 -0.8660255
vn 0.5 0 -0.8660254
vn 0.5000001 0 -0.8660253
vn 0.4999999 0 -0.8660255
vn 0.5 0 -0.8660254
vn 0.4999999 0 -0.8660255
vn 0.5 0 -0.8660254
vn 0.5000001 0 -0.8660253
vn 0.4999999 0 -0.8660255
vn 0.4999999 0 -0.8660255
vn 0.4999999 0 -0.8660255
vn 0.5 0 -0.8660254
vn 0.5000001 0 -0.8660253
vn 0.5 0 -0.8660254
vn 0.4999999 -1.222183E-07 -0.8660255
vn 0.4999999 0 -0.8660255
vn 0.5 0 -0.8660254
vn 0.5 0 -0.8660254
vn 0.4999999 -1.076269E-07 -0.8660255
vn 0.4999999 -1.441053E-07 -0.8660255
vn 0.5 0 -0.8660254
vn 0.5 0 -0.8660254
vn 0.5 0 -0.8660254
vn 0.5 -1.295139E-07 -0.8660254
vn 0.5 0 -0.8660254
vn 0.5 0 -0.8660254
vn 0.5 0 -0.8660254
vn 0.5000001 -1.003313E-07 -0.8660253
vn 0.5 0 -0.8660254
vn 0.5 0 -0.8660254
vn 0.4999999 -1.112748E-07 -0.8660255
vn 0.5 -1.258662E-07 -0.8660254
vn 0.5000001 -1.441053E-07 -0.8660253
vn 0.4999999 0 -0.8660255
vn 0.4999999 -1.368096E-07 -0.8660255
vn 0.4999999 0 -0.8660255
vn 0.5 -1.222184E-07 -0.8660254
vn 0.5000001 -1.149228E-07 -0.8660253
vn 0.4999999 -1.149226E-07 -0.8660255
vn 0.5 -1.29514E-07 -0.8660254
vn 0.5 -1.003313E-07 -0.8660254
vn 0.5 0 -0.8660254
vn 0.5000001 0 -0.8660253
vn 0.5000001 0 -0.8660253
vn 0.4999999 0 -0.8660255
vn 0.4999999 -1.149226E-07 -0.8660255
vn 0.5 0 -0.8660254
vn 0.5000001 -1.003313E-07 -0.8660253
vn 0.5 -1.659923E-07 -0.8660254
vn 0.5000001 -1.73288E-07 -0.8660253
g Plane01_uv2_0
f 3/3/3 2/2/2 1/1/1
f 2/2/2 4/4/4 1/1/1
f 1/1/1 4/4/4 5/5/5
f 2/2/2 6/6/6 4/4/4
f 4/4/4 7/7/7 5/5/5
f 5/5/5 7/7/7 8/8/8
f 6/6/6 9/9/9 4/4/4
f 4/4/4 9/9/9 7/7/7
f 6/6/6 10/10/10 9/9/9
f 7/7/7 11/11/11 8/8/8
f 8/8/8 11/11/11 12/12/12
f 10/10/10 13/13/13 9/9/9
f 10/10/10 14/14/14 13/13/13
f 14/14/14 15/15/15 13/13/13
f 9/9/9 16/16/16 7/7/7
f 9/9/9 13/13/13 16/16/16
f 7/7/7 16/16/16 11/11/11
f 13/13/13 15/15/15 17/17/17
f 13/13/13 17/17/17 16/16/16
f 15/15/15 18/18/18 17/17/17
f 11/11/11 19/19/19 12/12/12
f 12/12/12 19/19/19 20/20/20
f 16/16/16 21/21/21 11/11/11
f 16/16/16 17/17/17 21/21/21
f 11/11/11 21/21/21 19/19/19
f 17/17/17 18/18/18 22/22/22
f 17/17/17 22/22/22 21/21/21
f 18/18/18 23/23/23 22/22/22
f 19/19/19 24/24/24 20/20/20
f 20/20/20 24/24/24 25/25/25
f 21/21/21 26/26/26 19/19/19
f 21/21/21 22/22/22 26/26/26
f 19/19/19 26/26/26 24/24/24
f 22/22/22 23/23/23 27/27/27
f 22/22/22 27/27/27 26/26/26
f 23/23/23 28/28/28 27/27/27
f 24/24/24 29/29/29 25/25/25
f 25/25/25 29/29/29 30/30/30
f 26/26/26 31/31/31 24/24/24
f 26/26/26 27/27/27 31/31/31
f 24/24/24 31/31/31 29/29/29
f 27/27/27 28/28/28 32/32/32
f 27/27/27 32/32/32 31/31/31
f 28/28/28 33/33/33 32/32/32
f 29/29/29 34/34/34 30/30/30
f 30/30/30 34/34/34 35/35/35
f 31/31/31 36/36/36 29/29/29
f 31/31/31 32/32/32 36/36/36
f 29/29/29 36/36/36 34/34/34
f 32/32/32 33/33/33 37/37/37
f 32/32/32 37/37/37 36/36/36
f 33/33/33 38/38/38 37/37/37
f 34/34/34 39/39/39 35/35/35
f 35/35/35 39/39/39 40/40/40
f 36/36/36 41/41/41 34/34/34
f 36/36/36 37/37/37 41/41/41
f 34/34/34 41/41/41 39/39/39
f 37/37/37 38/38/38 42/42/42
f 37/37/37 42/42/42 41/41/41
f 38/38/38 43/43/43 42/42/42
f 39/39/39 44/44/44 40/40/40
f 40/40/40 44/44/44 45/45/45
f 41/41/41 46/46/46 39/39/39
f 41/41/41 42/42/42 46/46/46
f 39/39/39 46/46/46 44/44/44
f 42/42/42 43/43/43 47/47/47
f 42/42/42 47/47/47 46/46/46
f 43/43/43 48/48/48 47/47/47
f 44/44/44 49/49/49 45/45/45
f 45/45/45 49/49/49 50/50/50
f 46/46/46 51/51/51 44/44/44
f 46/46/46 47/47/47 51/51/51
f 44/44/44 51/51/51 49/49/49
f 47/47/47 48/48/48 52/52/52
f 47/47/47 52/52/52 51/51/51
f 48/48/48 53/53/53 52/52/52
f 49/49/49 54/54/54 50/50/50
f 50/50/50 54/54/54 55/55/55
f 51/51/51 56/56/56 49/49/49
f 51/51/51 52/52/52 56/56/56
f 49/49/49 56/56/56 54/54/54
f 52/52/52 53/53/53 57/57/57
f 52/52/52 57/57/57 56/56/56
f 53/53/53 58/58/58 57/57/57
f 54/54/54 59/59/59 55/55/55
f 55/55/55 59/59/59 60/60/60
f 56/56/56 61/61/61 54/54/54
f 56/56/56 57/57/57 61/61/61
f 54/54/54 61/61/61 59/59/59
f 57/57/57 58/58/58 62/62/62
f 57/57/57 62/62/62 61/61/61
f 58/58/58 63/63/63 62/62/62
f 59/59/59 64/64/64 60/60/60
f 60/60/60 64/64/64 65/65/65
f 61/61/61 66/66/66 59/59/59
f 61/61/61 62/62/62 66/66/66
f 59/59/59 66/66/66 64/64/64
f 62/62/62 63/63/63 67/67/67
f 62/62/62 67/67/67 66/66/66
f 63/63/63 68/68/68 67/67/67
f 64/64/64 69/69/69 65/65/65
f 65/65/65 69/69/69 70/70/70
f 66/66/66 71/71/71 64/64/64
f 66/66/66 67/67/67 71/71/71
f 64/64/64 71/71/71 69/69/69
f 67/67/67 68/68/68 72/72/72
f 67/67/67 72/72/72 71/71/71
f 68/68/68 73/73/73 72/72/72
f 69/69/69 74/74/74 70/70/70
f 70/70/70 74/74/74 75/75/75
f 74/74/74 76/76/76 75/75/75
f 71/71/71 77/77/77 69/69/69
f 71/71/71 72/72/72 77/77/77
f 69/69/69 77/77/77 74/74/74
f 72/72/72 73/73/73 78/78/78
f 72/72/72 78/78/78 77/77/77
f 73/73/73 79/79/79 78/78/78
f 74/74/74 80/80/80 76/76/76
f 77/77/77 80/80/80 74/74/74
f 77/77/77 78/78/78 80/80/80
f 80/80/80 81/81/81 76/76/76
f 78/78/78 79/79/79 82/82/82
f 78/78/78 82/82/82 80/80/80
f 80/80/80 82/82/82 81/81/81
f 79/79/79 83/83/83 82/82/82
f 82/82/82 84/84/84 81/81/81
f 82/82/82 83/83/83 84/84/84
f 83/83/83 85/85/85 84/84/84
f 88/88/88 87/87/87 86/86/86
f 87/87/87 89/89/89 86/86/86
f 86/86/86 89/89/89 90/90/90
f 87/87/87 91/91/91 89/89/89
f 89/89/89 92/92/92 90/90/90
f 90/90/90 92/92/92 93/93/93
f 91/91/91 94/94/94 89/89/89
f 89/89/89 94/94/94 92/92/92
f 91/91/91 95/95/95 94/94/94
f 92/92/92 96/96/96 93/93/93
f 93/93/93 96/96/96 97/97/97
f 95/95/95 98/98/98 94/94/94
f 95/95/95 99/99/99 98/98/98
f 99/99/99 100/100/100 98/98/98
f 94/94/94 101/101/101 92/92/92
f 94/94/94 98/98/98 101/101/101
f 92/92/92 101/101/101 96/96/96
f 98/98/98 100/100/100 102/102/102
f 98/98/98 102/102/102 101/101/101
f 100/100/100 103/103/103 102/102/102
f 96/96/96 104/104/104 97/97/97
f 97/97/97 104/104/104 105/105/105
f 101/101/101 106/106/106 96/96/96
f 101/101/101 102/102/102 106/106/106
f 96/96/96 106/106/106 104/104/104
f 102/102/102 103/103/103 107/107/107
f 102/102/102 107/107/107 106/106/106
f 103/103/103 108/108/108 107/107/107
f 104/104/104 109/109/109 105/105/105
f 105/105/105 109/109/109 110/110/110
f 106/106/106 111/111/111 104/104/104
f 106/106/106 107/107/107 111/111/111
f 104/104/104 111/111/111 109/109/109
f 107/107/107 108/108/108 112/112/112
f 107/107/107 112/112/112 111/111/111
f 108/108/108 113/113/113 112/112/112
f 109/109/109 114/114/114 110/110/110
f 110/110/110 114/114/114 115/115/115
f 111/111/111 116/116/116 109/109/109
f 111/111/111 112/112/112 116/116/116
f 109/109/109 116/116/116 114/114/114
f 112/112/112 113/113/113 117/117/117
f 112/112/112 117/117/117 116/116/116
f 113/113/113 118/118/118 117/117/117
f 114/114/114 119/119/119 115/115/115
f 115/115/115 119/119/119 120/120/120
f 116/116/116 121/121/121 114/114/114
f 116/116/116 117/117/117 121/121/121
f 114/114/114 121/121/121 119/119/119
f 117/117/117 118/118/118 122/122/122
f 117/117/117 122/122/122 121/121/121
f 118/118/118 123/123/123 122/122/122
f 119/119/119 124/124/124 120/120/120
f 120/120/120 124/124/124 125/125/125
f 121/121/121 126/126/126 119/119/119
f 121/121/121 122/122/122 126/126/126
f 119/119/119 126/126/126 124/124/124
f 122/122/122 123/123/123 127/127/127
f 122/122/122 127/127/127 126/126/126
f 123/123/123 128/128/128 127/127/127
f 124/124/124 129/129/129 125/125/125
f 125/125/125 129/129/129 130/130/130
f 126/126/126 131/131/131 124/124/124
f 126/126/126 127/127/127 131/131/131
f 124/124/124 131/131/131 129/129/129
f 127/127/127 128/128/128 132/132/132
f 127/127/127 132/132/132 131/131/131
f 128/128/128 133/133/133 132/132/132
f 129/129/129 134/134/134 130/130/130
f 130/130/130 134/134/134 135/135/135
f 131/131/131 136/136/136 129/129/129
f 131/131/131 132/132/132 136/136/136
f 129/129/129 136/136/136 134/134/134
f 132/132/132 133/133/133 137/137/137
f 132/132/132 137/137/137 136/136/136
f 133/133/133 138/138/138 137/137/137
f 134/134/134 139/139/139 135/135/135
f 135/135/135 139/139/139 140/140/140
f 136/136/136 141/141/141 134/134/134
f 136/136/136 137/137/137 141/141/141
f 134/134/134 141/141/141 139/139/139
f 137/137/137 138/138/138 142/142/142
f 137/137/137 142/142/142 141/141/141
f 138/138/138 143/143/143 142/142/142
f 139/139/139 144/144/144 140/140/140
f 140/140/140 144/144/144 145/145/145
f 141/141/141 146/146/146 139/139/139
f 141/141/141 142/142/142 146/146/146
f 139/139/139 146/146/146 144/144/144
f 142/142/142 143/143/143 147/147/147
f 142/142/142 147/147/147 146/146/146
f 143/143/143 148/148/148 147/147/147
f 144/144/144 149/149/149 145/145/145
f 145/145/145 149/149/149 150/150/150
f 146/146/146 151/151/151 144/144/144
f 146/146/146 147/147/147 151/151/151
f 144/144/144 151/151/151 149/149/149
f 147/147/147 148/148/148 152/152/152
f 147/147/147 152/152/152 151/151/151
f 148/148/148 153/153/153 152/152/152
f 149/149/149 154/154/154 150/150/150
f 150/150/150 154/154/154 155/155/155
f 151/151/151 156/156/156 149/149/149
f 151/151/151 152/152/152 156/156/156
f 149/149/149 156/156/156 154/154/154
f 152/152/152 153/153/153 157/157/157
f 152/152/152 157/157/157 156/156/156
f 153/153/153 158/158/158 157/157/157
f 154/154/154 159/159/159 155/155/155
f 155/155/155 159/159/159 160/160/160
f 159/159/159 161/161/161 160/160/160
f 156/156/156 162/162/162 154/154/154
f 156/156/156 157/157/157 162/162/162
f 154/154/154 162/162/162 159/159/159
f 157/157/157 158/158/158 163/163/163
f 157/157/157 163/163/163 162/162/162
f 158/158/158 164/164/164 163/163/163
f 159/159/159 165/165/165 161/161/161
f 162/162/162 165/165/165 159/159/159
f 162/162/162 163/163/163 165/165/165
f 165/165/165 166/166/166 161/161/161
f 163/163/163 164/164/164 167/167/167
f 163/163/163 167/167/167 165/165/165
f 165/165/165 167/167/167 166/166/166
f 164/164/164 168/168/168 167/167/167
f 167/167/167 169/169/169 166/166/166
f 167/167/167 168/168/168 169/169/169
f 168/168/168 170/170/170 169/169/169
