g Plane016
v -0.2854333 0.09601753 0.4988917
v -0.2852413 0.1128587 0.7016515
v -0.1983701 0.1932934 0.6806898
v -0.2368002 0.1426378 0.4874223
v -0.09300962 0.2107355 0.6445143
v -0.1643542 0.1533395 0.4628254
v 0.009360656 0.1502553 0.583505
v -0.1491078 0.1363213 0.4566635
v 0.02381102 0.03874519 0.5513511
v -0.145234 0.08858521 0.4496901
v -0.04561292 -0.1045579 0.4828914
v -0.1731998 0.05008224 0.448204
v -0.117931 -0.1579162 0.446744
v -0.2171331 0.01855469 0.4264425
v -0.2009276 -0.2048936 0.4089706
v -0.291275 -0.02332916 0.3926348
v -0.2867552 -0.2511763 0.3710562
v -0.3791069 -0.07072559 0.3536231
v -0.363522 -0.2970818 0.3370417
v -0.4681537 -0.124159 0.3136939
v -0.4195628 -0.3413885 0.3111719
v -0.548273 -0.1878534 0.2757339
v -0.4805846 -0.402221 0.2818832
v -0.6174849 -0.2569586 0.2424833
v -0.5289735 -0.4604812 0.2583013
v -0.6813477 -0.3342006 0.2110729
v -0.564391 -0.5206091 0.2391065
v -0.7347032 -0.4254668 0.1813406
v -0.5878376 -0.5898598 0.2222823
v -0.7710559 -0.5338299 0.1538212
v -0.5978503 -0.6597914 0.209663
v -0.7854683 -0.632846 0.135713
v -0.6010401 -0.7475061 0.1979223
v -0.7893292 -0.7390829 0.1212972
v -0.5971423 -0.8428749 0.1872613
v -0.7846797 -0.8488753 0.1085914
v -0.5866371 -0.9359161 0.1775411
v -0.77222 -0.9557055 0.0965317
v -0.5706386 -1.016717 0.1687113
v -0.7520161 -1.052987 0.08396599
v -0.5454226 -1.092246 0.1576569
v -0.7201982 -1.146185 0.06855429
v -0.5123979 -1.159373 0.1446241
v -0.6729696 -1.241297 0.0502828
v -0.4741318 -1.203979 0.1339812
v -0.6005444 -1.326088 0.03148957
v -0.4173849 -1.237915 0.1241551
v -0.4970177 -1.390629 0.01583886
v -0.3469051 -1.261523 0.1173704
v -0.4009189 -1.423981 0.00743874
v -0.2678871 -1.281749 0.1131117
v -0.3103267 -1.447148 0.00248908
v -0.176149 -1.299606 0.1096651
v -0.206817 -1.467183 -0.001567778
v -0.07934877 -1.311478 0.1068925
v -0.09579673 -1.480553 -0.005081896
v 0.01473576 -1.314172 0.104652
v 0.01744755 -1.483309 -0.008399652
v 0.09777546 -1.305403 0.102881
v 0.1281802 -1.470586 -0.01194671
v 0.1612553 -1.285248 0.1017124
v 0.2318516 -1.435162 -0.01634378
v 0.212919 -1.250228 0.09985996
v 0.3154481 -1.378853 -0.01988364
v 0.2696604 -1.19477 0.09776862
v 0.3899644 -1.306211 -0.02265942
v 0.3257685 -1.124018 0.0957454
v 0.4577561 -1.22073 -0.02517272
v 0.3769397 -1.04356 0.09380116
v 0.5176329 -1.126431 -0.02757829
v 0.4196839 -0.9590569 0.09192219
v 0.567593 -1.027259 -0.03000607
v 0.450951 -0.8764358 0.09011053
v 0.605193 -0.9268963 -0.03260193
v 0.4682482 -0.8023453 0.08843964
v 0.6274327 -0.828304 -0.03558307
v 0.4700948 -0.73826 0.08674442
v 0.6297361 -0.7266841 -0.03885757
v 0.4552471 -0.6633548 0.08497535
v 0.6091338 -0.6215791 -0.04139258
v 0.4248551 -0.5811378 0.08327912
v 0.5711096 -0.5187433 -0.04365284
v 0.3820558 -0.4978622 0.08145122
v 0.5203415 -0.4203729 -0.04609356
v 0.3307886 -0.4190304 0.07925688
v 0.4607052 -0.3294144 -0.0491402
v 0.275403 -0.3497124 0.07650351
v 0.3956654 -0.2492456 -0.05326006
v 0.2208144 -0.2947661 0.07316533
v 0.3281226 -0.1834583 -0.05908716
v 0.1609338 -0.251229 0.06768317
v 0.2490494 -0.1267029 -0.06694256
v 0.09362774 -0.218554 0.06078926
v 0.1594958 -0.08322567 -0.07611516
v 0.01993381 -0.1976558 0.05287264
v 0.06281244 -0.05576946 -0.0865005
v -0.06114817 -0.1886164 0.04381677
v -0.04000074 -0.04425213 -0.09798209
v -0.1502662 -0.1919094 0.0335359
v -0.1482949 -0.04819977 -0.1104738
v -0.2476472 -0.2081063 0.02198975
v -0.2618459 -0.0670417 -0.1239361
vt -1.788139E-07 1
vt 0.9999998 1
vt 0.9999998 0.9800002
vt -1.77304E-07 0.9800001
vt 0.9999998 0.9600002
vt -1.75794E-07 0.9600001
vt 0.9999998 0.9400002
vt -1.742841E-07 0.9400001
vt 0.9999998 0.9200002
vt -1.727741E-07 0.9200001
vt 0.9999998 0.9000002
vt -1.712641E-07 0.9000001
vt 0.9999998 0.8800002
vt -1.697542E-07 0.8800001
vt 0.9999998 0.8600002
vt -1.682442E-07 0.8600001
vt 0.9999998 0.8400002
vt -1.667343E-07 0.8400002
vt 0.9999998 0.8200002
vt -1.652243E-07 0.8200002
vt 0.9999998 0.8000002
vt -1.637144E-07 0.8000001
vt 0.9999998 0.7800002
vt -1.622044E-07 0.7800002
vt 0.9999998 0.7600002
vt -1.606944E-07 0.7600002
vt 0.9999998 0.7400002
vt -1.591845E-07 0.7400001
vt 0.9999998 0.7200003
vt -1.576745E-07 0.7200001
vt 0.9999998 0.7000002
vt -1.561646E-07 0.7000002
vt 0.9999998 0.6800002
vt -1.546546E-07 0.6800001
vt 0.9999998 0.6600002
vt -1.531446E-07 0.6600001
vt 0.9999998 0.6400002
vt -1.516347E-07 0.6400001
vt 0.9999998 0.6200002
vt -1.501247E-07 0.6200001
vt 0.9999998 0.6000001
vt -1.486148E-07 0.6000001
vt 0.9999998 0.5800002
vt -1.471048E-07 0.58
vt 0.9999998 0.5600002
vt -1.455949E-07 0.5600001
vt 0.9999998 0.5400001
vt -1.440849E-07 0.5400001
vt 0.9999998 0.5200001
vt -1.425749E-07 0.52
vt 0.9999998 0.5000001
vt -1.41065E-07 0.5000001
vt 0.9999998 0.4800001
vt -1.39555E-07 0.4800001
vt 0.9999998 0.4600002
vt -1.380451E-07 0.4600001
vt 0.9999998 0.4400002
vt -1.365351E-07 0.4400001
vt 0.9999998 0.4200002
vt -1.350251E-07 0.4200001
vt 0.9999998 0.4000002
vt -1.335152E-07 0.4000002
vt 0.9999998 0.3800002
vt -1.320052E-07 0.3800002
vt 0.9999998 0.3600003
vt -1.304953E-07 0.3600002
vt 0.9999998 0.3400003
vt -1.289853E-07 0.3400002
vt 0.9999998 0.3200003
vt -1.274754E-07 0.3200002
vt 0.9999998 0.3000003
vt -1.259654E-07 0.3000003
vt 0.9999998 0.2800003
vt -1.244555E-07 0.2800003
vt 0.9999998 0.2600003
vt -1.229455E-07 0.2600003
vt 0.9999998 0.2400004
vt -1.214355E-07 0.2400003
vt 0.9999998 0.2200004
vt -1.199256E-07 0.2200003
vt 0.9999999 0.2000004
vt -1.184156E-07 0.2000003
vt 0.9999999 0.1800004
vt -1.169057E-07 0.1800004
vt 0.9999999 0.1600004
vt -1.153957E-07 0.1600004
vt 0.9999999 0.1400005
vt -1.138858E-07 0.1400004
vt 0.9999999 0.1200005
vt -1.123758E-07 0.1200004
vt 0.9999999 0.1000005
vt -1.108658E-07 0.1000004
vt 0.9999999 0.08000052
vt -1.093559E-07 0.08000046
vt 0.9999999 0.06000054
vt -1.078459E-07 0.06000048
vt 0.9999999 0.04000056
vt -1.06336E-07 0.0400005
vt 0.9999999 0.02000058
vt -1.04826E-07 0.02000052
vt 0.9999999 5.960464E-07
vt -1.033161E-07 5.364418E-07
vn 0.6899976 -0.721665 0.05570555
vn 0.6899976 -0.721665 0.05570556
vn 0.4699741 -0.8716641 0.1390182
vn 0.4778902 -0.8677621 0.1364183
vn -0.02893432 -0.9448228 0.3263013
vn -0.05792262 -0.9392734 0.3382462
vn -0.4828119 -0.5765936 0.659115
vn -0.4675943 -0.6112658 0.6385214
vn -0.5248487 -0.1785427 0.8322597
vn -0.521091 -0.1725572 0.8358757
vn -0.4199944 -0.09895033 0.9021161
vn -0.4246733 -0.09796575 0.9000307
vn -0.3724701 -0.1030247 0.9223079
vn -0.3726296 -0.1031218 0.9222327
vn -0.3627513 -0.09695015 0.926829
vn -0.3627898 -0.09697569 0.9268113
vn -0.3592624 -0.09388086 0.9285025
vn -0.3592703 -0.09389583 0.9284979
vn -0.3603826 -0.09224314 0.9282325
vn -0.3603469 -0.09225337 0.9282454
vn -0.3608099 -0.08935769 0.9283488
vn -0.3607599 -0.0892629 0.9283773
vn -0.3578681 -0.08471727 0.9299212
vn -0.3578901 -0.08474628 0.9299101
vn -0.3591836 -0.08511737 0.9293773
vn -0.3591478 -0.0850865 0.929394
vn -0.3679138 -0.09598302 0.9248928
vn -0.3678751 -0.09592737 0.9249139
vn -0.3758605 -0.1083633 0.9203185
vn -0.3758902 -0.1084185 0.9203
vn -0.3782754 -0.1113322 0.9189738
vn -0.3782776 -0.1113208 0.9189743
vn -0.3791414 -0.1152279 0.9181364
vn -0.3791438 -0.1152466 0.9181331
vn -0.380412 -0.1318041 0.9153767
vn -0.3804124 -0.1318115 0.9153754
vn -0.3809277 -0.1648214 0.9097956
vn -0.380928 -0.1647693 0.9098049
vn -0.3747171 -0.2255312 0.8992901
vn -0.3747502 -0.2253242 0.8993282
vn -0.3554482 -0.301889 0.8846014
vn -0.3556595 -0.3012821 0.8847234
vn -0.3110149 -0.3871785 0.8679645
vn -0.3117158 -0.3861208 0.8681843
vn -0.2298567 -0.4730467 0.850525
vn -0.2301287 -0.4728372 0.8505678
vn -0.1437953 -0.5229238 0.8401629
vn -0.1426559 -0.5233101 0.8401165
vn -0.09927952 -0.536096 0.8382986
vn -0.09917425 -0.5361099 0.8383023
vn -0.08242934 -0.5394831 0.8379519
vn -0.08243771 -0.5394809 0.8379524
vn -0.05712781 -0.5450532 0.8364528
vn -0.05717158 -0.5450447 0.8364555
vn -0.01672452 -0.5512955 0.8341424
vn -0.01684553 -0.5512806 0.8341498
vn 0.04620865 -0.5552322 0.8304107
vn 0.04588888 -0.5552264 0.8304322
vn 0.1458237 -0.54776 0.8238291
vn 0.1449817 -0.5478808 0.8238974
vn 0.2792687 -0.5067889 0.815582
vn 0.2797105 -0.506588 0.8155554
vn 0.3901169 -0.4410092 0.808282
vn 0.3905499 -0.4406536 0.8082669
vn 0.4528827 -0.3819113 0.8056309
vn 0.453005 -0.3817749 0.8056267
vn 0.4946499 -0.3302633 0.8038953
vn 0.494688 -0.3302103 0.8038936
vn 0.5272401 -0.2802087 0.8021851
vn 0.5272409 -0.2802075 0.8021851
vn 0.5561157 -0.2250479 0.8000554
vn 0.5560865 -0.2251104 0.8000582
vn 0.5838726 -0.1552843 0.7968561
vn 0.583802 -0.1554916 0.7968674
vn 0.608061 -0.05325221 0.7921023
vn 0.6079138 -0.05417208 0.7921529
vn 0.6126917 0.0730162 0.7869418
vn 0.6126449 0.0735879 0.7869251
vn 0.5934937 0.1845706 0.7833894
vn 0.5933875 0.1849416 0.7833823
vn 0.5647458 0.2661859 0.7811576
vn 0.5646749 0.2663502 0.7811529
vn 0.5329767 0.3313095 0.778569
vn 0.5329366 0.3313824 0.7785655
vn 0.497059 0.3908043 0.7747285
vn 0.4970478 0.3908214 0.7747272
vn 0.4514062 0.45421 0.7680662
vn 0.4514492 0.4541548 0.7680736
vn 0.3819894 0.5290493 0.7577538
vn 0.3823359 0.5287248 0.7578055
vn 0.2856722 0.6022402 0.7454516
vn 0.2857644 0.6021835 0.7454621
vn 0.1736617 0.657311 0.7333375
vn 0.1736243 0.6573252 0.7333335
vn 0.05676655 0.6908364 0.7207792
vn 0.05667352 0.6908544 0.7207692
vn -0.05406617 0.7037342 0.7084031
vn -0.05417819 0.7037381 0.7083907
vn -0.1522152 0.7006418 0.6970879
vn -0.1523156 0.7006315 0.6970764
vn -0.1974297 0.6952108 0.6911611
vn -0.1974297 0.6952108 0.691161
g Plane016_0
f 3/3/3 2/2/2 1/1/1
f 4/4/4 3/3/3 1/1/1
f 5/5/5 3/3/3 4/4/4
f 6/6/6 5/5/5 4/4/4
f 7/7/7 5/5/5 6/6/6
f 8/8/8 7/7/7 6/6/6
f 9/9/9 7/7/7 8/8/8
f 10/10/10 9/9/9 8/8/8
f 11/11/11 9/9/9 10/10/10
f 12/12/12 11/11/11 10/10/10
f 13/13/13 11/11/11 12/12/12
f 14/14/14 13/13/13 12/12/12
f 15/15/15 13/13/13 14/14/14
f 16/16/16 15/15/15 14/14/14
f 17/17/17 15/15/15 16/16/16
f 18/18/18 17/17/17 16/16/16
f 19/19/19 17/17/17 18/18/18
f 20/20/20 19/19/19 18/18/18
f 21/21/21 19/19/19 20/20/20
f 22/22/22 21/21/21 20/20/20
f 23/23/23 21/21/21 22/22/22
f 24/24/24 23/23/23 22/22/22
f 25/25/25 23/23/23 24/24/24
f 26/26/26 25/25/25 24/24/24
f 27/27/27 25/25/25 26/26/26
f 28/28/28 27/27/27 26/26/26
f 29/29/29 27/27/27 28/28/28
f 30/30/30 29/29/29 28/28/28
f 31/31/31 29/29/29 30/30/30
f 32/32/32 31/31/31 30/30/30
f 33/33/33 31/31/31 32/32/32
f 34/34/34 33/33/33 32/32/32
f 35/35/35 33/33/33 34/34/34
f 36/36/36 35/35/35 34/34/34
f 37/37/37 35/35/35 36/36/36
f 38/38/38 37/37/37 36/36/36
f 39/39/39 37/37/37 38/38/38
f 40/40/40 39/39/39 38/38/38
f 41/41/41 39/39/39 40/40/40
f 42/42/42 41/41/41 40/40/40
f 43/43/43 41/41/41 42/42/42
f 44/44/44 43/43/43 42/42/42
f 45/45/45 43/43/43 44/44/44
f 46/46/46 45/45/45 44/44/44
f 47/47/47 45/45/45 46/46/46
f 48/48/48 47/47/47 46/46/46
f 49/49/49 47/47/47 48/48/48
f 50/50/50 49/49/49 48/48/48
f 51/51/51 49/49/49 50/50/50
f 52/52/52 51/51/51 50/50/50
f 53/53/53 51/51/51 52/52/52
f 54/54/54 53/53/53 52/52/52
f 55/55/55 53/53/53 54/54/54
f 56/56/56 55/55/55 54/54/54
f 57/57/57 55/55/55 56/56/56
f 58/58/58 57/57/57 56/56/56
f 59/59/59 57/57/57 58/58/58
f 60/60/60 59/59/59 58/58/58
f 61/61/61 59/59/59 60/60/60
f 62/62/62 61/61/61 60/60/60
f 63/63/63 61/61/61 62/62/62
f 64/64/64 63/63/63 62/62/62
f 65/65/65 63/63/63 64/64/64
f 66/66/66 65/65/65 64/64/64
f 67/67/67 65/65/65 66/66/66
f 68/68/68 67/67/67 66/66/66
f 69/69/69 67/67/67 68/68/68
f 70/70/70 69/69/69 68/68/68
f 71/71/71 69/69/69 70/70/70
f 72/72/72 71/71/71 70/70/70
f 73/73/73 71/71/71 72/72/72
f 74/74/74 73/73/73 72/72/72
f 75/75/75 73/73/73 74/74/74
f 76/76/76 75/75/75 74/74/74
f 77/77/77 75/75/75 76/76/76
f 78/78/78 77/77/77 76/76/76
f 79/79/79 77/77/77 78/78/78
f 80/80/80 79/79/79 78/78/78
f 81/81/81 79/79/79 80/80/80
f 82/82/82 81/81/81 80/80/80
f 83/83/83 81/81/81 82/82/82
f 84/84/84 83/83/83 82/82/82
f 85/85/85 83/83/83 84/84/84
f 86/86/86 85/85/85 84/84/84
f 87/87/87 85/85/85 86/86/86
f 88/88/88 87/87/87 86/86/86
f 89/89/89 87/87/87 88/88/88
f 90/90/90 89/89/89 88/88/88
f 91/91/91 89/89/89 90/90/90
f 92/92/92 91/91/91 90/90/90
f 93/93/93 91/91/91 92/92/92
f 94/94/94 93/93/93 92/92/92
f 95/95/95 93/93/93 94/94/94
f 96/96/96 95/95/95 94/94/94
f 97/97/97 95/95/95 96/96/96
f 98/98/98 97/97/97 96/96/96
f 99/99/99 97/97/97 98/98/98
f 100/100/100 99/99/99 98/98/98
f 101/101/101 99/99/99 100/100/100
f 102/102/102 101/101/101 100/100/100
