g Plane052
v -0.928142 -0.1562597 5.463924E-09
v -0.8801901 -0.4069393 -5.463924E-09
v -0.9329031 -0.4062143 -5.463924E-09
v -0.8781685 -0.1569474 5.463924E-09
v -0.8295891 -0.4070467 -5.463924E-09
v -0.8306223 -0.1570488 5.463924E-09
v -0.7812242 -0.4065283 -5.463924E-09
v -0.7856337 -0.1565672 5.463924E-09
v -0.7350695 -0.4053767 -5.463924E-09
v -0.7432279 -0.1555099 5.463924E-09
v -0.691094 -0.4035821 -5.463924E-09
v -0.7034366 -0.1538869 5.463924E-09
v -0.6492596 -0.4011307 -5.463924E-09
v -0.6662974 -0.1517119 5.463924E-09
v -0.6095195 -0.3980036 -5.463924E-09
v -0.6318577 -0.1490036 5.463924E-09
v -0.5718155 -0.3941747 -5.463924E-09
v -0.600175 -0.1457884 5.463924E-09
v -0.5189546 -0.3876463 -5.463924E-09
v -0.5525388 -0.1399124 5.463924E-09
v -0.4671848 -0.3792215 -5.463924E-09
v -0.516057 -0.134045 5.463924E-09
v -0.4156043 -0.366049 -5.463924E-09
v -0.4919235 -0.1279832 5.463924E-09
v -0.3641175 -0.3454389 -5.463924E-09
v -0.4731835 -0.1204842 5.463924E-09
v -0.3155096 -0.317865 -5.463924E-09
v -0.4516751 -0.1082011 5.463924E-09
v -0.2723825 -0.2864553 -5.463924E-09
v -0.4298643 -0.09229178 5.463924E-09
v -0.2322288 -0.2504342 -5.463924E-09
v -0.4079843 -0.07264214 5.463924E-09
v -0.1951375 -0.2101721 -5.463924E-09
v -0.38654 -0.04934587 5.463924E-09
v -0.1612276 -0.1659722 -5.463924E-09
v -0.3660057 -0.02256383 5.463924E-09
v -0.1303614 -0.1174724 -5.463924E-09
v -0.3483502 0.004924064 5.463924E-09
v -0.1059137 -0.06476206 -5.463924E-09
v -0.339151 0.02523994 5.463924E-09
v -0.08903629 -0.01515032 -5.463924E-09
v -0.3281368 0.05786313 5.463924E-09
v -0.07574058 0.03055547 -5.463924E-09
v -0.3161773 0.09904044 5.463924E-09
v -0.06390034 0.07061715 -5.463924E-09
v -0.3022803 0.1459495 5.463924E-09
v -0.05271025 0.1022467 -5.463924E-09
v -0.2841326 0.1968177 5.463924E-09
v -0.04320616 0.1219526 -5.463924E-09
v -0.2575797 0.2505761 5.463924E-09
v -0.02601814 0.1465738 -5.463924E-09
v -0.2246377 0.298397 5.463924E-09
v -0.004147205 0.1726637 -5.463924E-09
v -0.188416 0.3416164 5.463924E-09
v 0.01947538 0.1962486 -5.463924E-09
v -0.1489531 0.3809966 5.463924E-09
v 0.04325413 0.2159853 -5.463924E-09
v -0.1065914 0.4161011 5.463924E-09
v 0.06519397 0.2306855 -5.463924E-09
v -0.06127329 0.446338 5.463924E-09
v 0.08182861 0.2390157 -5.463924E-09
v -0.005605717 0.4732276 5.463924E-09
v 0.1019428 0.2441495 -5.463924E-09
v 0.0606493 0.4907156 5.463924E-09
v 0.1294594 0.2466653 -5.463924E-09
v 0.1224337 0.4965666 5.463924E-09
v 0.160242 0.2458925 -5.463924E-09
v 0.1783773 0.4952339 5.463924E-09
v 0.1901496 0.2425396 -5.463924E-09
v 0.227114 0.4897918 5.463924E-09
v 0.2096639 0.2381171 -5.463924E-09
v 0.2924192 0.4740229 5.463924E-09
v 0.2258101 0.2304831 -5.463924E-09
v 0.3528638 0.4457907 5.463924E-09
v 0.2456046 0.2165534 -5.463924E-09
v 0.4016186 0.4118983 5.463924E-09
v 0.269401 0.1957763 -5.463924E-09
v 0.4409046 0.3776732 5.463924E-09
v 0.2913214 0.1731693 -5.463924E-09
v 0.4795269 0.3377254 5.463924E-09
v 0.3074734 0.1521616 -5.463924E-09
v 0.5173709 0.2879667 5.463924E-09
v 0.314043 0.1399001 -5.463924E-09
v 0.549275 0.2245517 5.463924E-09
v 0.3159474 0.1294598 -5.463924E-09
v 0.5644168 0.1570809 5.463924E-09
v 0.3162549 0.1102403 -5.463924E-09
v 0.5656166 0.0923873 5.463924E-09
v 0.3128578 0.08943555 -5.463924E-09
v 0.5548854 0.02680434 5.463924E-09
v 0.3059909 0.0705255 -5.463924E-09
v 0.531048 -0.03832891 5.463924E-09
v 0.2956306 0.05289758 -5.463924E-09
v 0.5027448 -0.08711564 5.463924E-09
v 0.280454 0.03315002 -5.463924E-09
v 0.4700885 -0.1297572 5.463924E-09
v 0.2598437 0.01156147 -5.463924E-09
v 0.4323356 -0.1693987 5.463924E-09
v 0.2334239 -0.01145155 -5.463924E-09
v 0.389862 -0.2064569 5.463924E-09
v 0.201022 -0.03546952 -5.463924E-09
v 0.3430231 -0.2412259 5.463924E-09
vt 0.0004514456 0.9921659
vt 0.02043366 0.007833689
vt 0.000451684 0.007833689
vt 0.02043343 0.9921659
vt 0.04041553 0.007833689
vt 0.04041553 0.9921659
vt 0.06039751 0.007833689
vt 0.06039739 0.9921659
vt 0.08037949 0.007833689
vt 0.08037925 0.9921659
vt 0.1003615 0.007833689
vt 0.1003612 0.9921659
vt 0.1203433 0.007833689
vt 0.1203432 0.9921659
vt 0.1403252 0.007833689
vt 0.1403251 0.9921659
vt 0.1603072 0.007833689
vt 0.1603069 0.9921659
vt 0.1802893 0.007833689
vt 0.180289 0.9921659
vt 0.2002711 0.007833689
vt 0.200271 0.9921659
vt 0.220253 0.007833689
vt 0.2202529 0.9921659
vt 0.240235 0.007833689
vt 0.2402347 0.9921659
vt 0.260217 0.007833689
vt 0.2602167 0.9921659
vt 0.2801988 0.007833689
vt 0.2801987 0.9921659
vt 0.3001807 0.007833689
vt 0.3001806 0.9921659
vt 0.3201628 0.007833689
vt 0.3201627 0.9921659
vt 0.3401448 0.007833689
vt 0.3401446 0.9921659
vt 0.3601267 0.007833689
vt 0.3601265 0.9921659
vt 0.3801086 0.007833689
vt 0.3801085 0.9921659
vt 0.4000906 0.007833689
vt 0.4000905 0.9921659
vt 0.4200724 0.007833689
vt 0.4200724 0.9921659
vt 0.4400545 0.007833689
vt 0.4400544 0.9921659
vt 0.4600365 0.007833689
vt 0.4600363 0.9921659
vt 0.4800184 0.007833689
vt 0.4800181 0.9921659
vt 0.5000002 0.007833689
vt 0.5 0.9921659
vt 0.5199823 0.007833689
vt 0.5199821 0.9921659
vt 0.5399642 0.007833689
vt 0.539964 0.9921659
vt 0.5599463 0.007833689
vt 0.5599458 0.9921659
vt 0.5799279 0.007833689
vt 0.5799277 0.9921659
vt 0.59991 0.007833689
vt 0.5999098 0.9921659
vt 0.6198916 0.007833689
vt 0.6198916 0.9921659
vt 0.6398737 0.007833689
vt 0.6398737 0.9921659
vt 0.6598558 0.007833689
vt 0.6598556 0.9921659
vt 0.6798377 0.007833689
vt 0.6798372 0.9921659
vt 0.6998198 0.007833689
vt 0.6998193 0.9921659
vt 0.7198014 0.007833689
vt 0.7198012 0.9921659
vt 0.7397835 0.007833689
vt 0.7397833 0.9921659
vt 0.7597651 0.007833689
vt 0.7597651 0.9921659
vt 0.7797472 0.007833689
vt 0.779747 0.9921659
vt 0.7997293 0.007833749
vt 0.7997291 0.992166
vt 0.8197112 0.007833749
vt 0.8197107 0.992166
vt 0.8396931 0.007833749
vt 0.8396928 0.992166
vt 0.8596749 0.007833749
vt 0.8596747 0.992166
vt 0.8796568 0.007833749
vt 0.8796568 0.992166
vt 0.8996387 0.007833749
vt 0.8996387 0.992166
vt 0.9196208 0.007833749
vt 0.9196205 0.992166
vt 0.9396029 0.007833749
vt 0.9396024 0.992166
vt 0.9595847 0.007833749
vt 0.9595842 0.992166
vt 0.9795666 0.007833749
vt 0.9795663 0.992166
vt 0.9995484 0.007833749
vt 0.9995482 0.992166
vn 0 0 1
vn 0 0 1
vn 0 0 1
vn 0 0 1
vn 0 0 1
vn 0 0 1
vn 0 0 1
vn 0 0 1
vn 0 0 1
vn 0 0 1
vn 0 0 1
vn 0 0 1
vn 0 0 1
vn 0 0 1
vn 0 0 1
vn 0 0 1
vn 0 0 1
vn 0 0 1
vn 0 0 1
vn 0 0 1
vn 0 0 1
vn 0 0 1
vn 0 0 1
vn 0 0 1
vn 0 0 1
vn 0 0 1
vn 0 0 1
vn 0 0 1
vn 0 0 1
vn 0 0 1
vn 0 0 1
vn 0 0 1
vn 0 0 1
vn 0 0 1
vn 0 0 1
vn 0 0 1
vn 0 0 1
vn 0 0 1
vn 0 0 1
vn 0 0 1
vn 0 0 1
vn 0 0 1
vn 0 0 1
vn 0 0 1
vn 0 0 1
vn 0 0 1
vn 0 0 1
vn 0 0 1
vn 0 0 1
vn 0 0 1
vn 0 0 1
vn 0 0 1
vn 0 0 1
vn 0 0 1
vn 0 0 1
vn 0 0 1
vn 0 0 1
vn 0 0 1
vn 0 0 1
vn 0 0 1
vn 0 0 1
vn 0 0 1
vn 0 0 1
vn 0 0 1
vn 0 0 1
vn 0 0 1
vn 0 0 1
vn 0 0 1
vn 0 0 1
vn 0 0 1
vn 0 0 1
vn 0 0 1
vn 0 0 1
vn 0 0 1
vn 0 0 1
vn 0 0 1
vn 0 0 1
vn 0 0 1
vn 0 0 1
vn 0 0 1
vn 0 0 1
vn 0 0 1
vn 0 0 1
vn 0 0 1
vn 0 0 1
vn 0 0 1
vn 0 0 1
vn 0 0 1
vn 0 0 1
vn 0 0 1
vn 0 0 1
vn 0 0 1
vn 0 0 1
vn 0 0 1
vn 0 0 1
vn 0 0 1
vn 0 0 1
vn 0 0 1
vn 0 0 1
vn 0 0 1
vn 0 0 1
vn 0 0 1
g Plane052_0
f 3/3/3 2/2/2 1/1/1
f 4/4/4 1/1/1 2/2/2
f 2/2/2 5/5/5 4/4/4
f 6/6/6 4/4/4 5/5/5
f 5/5/5 7/7/7 6/6/6
f 8/8/8 6/6/6 7/7/7
f 7/7/7 9/9/9 8/8/8
f 10/10/10 8/8/8 9/9/9
f 9/9/9 11/11/11 10/10/10
f 12/12/12 10/10/10 11/11/11
f 11/11/11 13/13/13 12/12/12
f 14/14/14 12/12/12 13/13/13
f 13/13/13 15/15/15 14/14/14
f 16/16/16 14/14/14 15/15/15
f 15/15/15 17/17/17 16/16/16
f 18/18/18 16/16/16 17/17/17
f 17/17/17 19/19/19 18/18/18
f 20/20/20 18/18/18 19/19/19
f 19/19/19 21/21/21 20/20/20
f 22/22/22 20/20/20 21/21/21
f 21/21/21 23/23/23 22/22/22
f 24/24/24 22/22/22 23/23/23
f 23/23/23 25/25/25 24/24/24
f 26/26/26 24/24/24 25/25/25
f 25/25/25 27/27/27 26/26/26
f 28/28/28 26/26/26 27/27/27
f 27/27/27 29/29/29 28/28/28
f 30/30/30 28/28/28 29/29/29
f 29/29/29 31/31/31 30/30/30
f 32/32/32 30/30/30 31/31/31
f 31/31/31 33/33/33 32/32/32
f 34/34/34 32/32/32 33/33/33
f 33/33/33 35/35/35 34/34/34
f 36/36/36 34/34/34 35/35/35
f 35/35/35 37/37/37 36/36/36
f 38/38/38 36/36/36 37/37/37
f 37/37/37 39/39/39 38/38/38
f 40/40/40 38/38/38 39/39/39
f 39/39/39 41/41/41 40/40/40
f 42/42/42 40/40/40 41/41/41
f 41/41/41 43/43/43 42/42/42
f 44/44/44 42/42/42 43/43/43
f 43/43/43 45/45/45 44/44/44
f 46/46/46 44/44/44 45/45/45
f 45/45/45 47/47/47 46/46/46
f 48/48/48 46/46/46 47/47/47
f 47/47/47 49/49/49 48/48/48
f 50/50/50 48/48/48 49/49/49
f 49/49/49 51/51/51 50/50/50
f 52/52/52 50/50/50 51/51/51
f 51/51/51 53/53/53 52/52/52
f 54/54/54 52/52/52 53/53/53
f 53/53/53 55/55/55 54/54/54
f 56/56/56 54/54/54 55/55/55
f 55/55/55 57/57/57 56/56/56
f 58/58/58 56/56/56 57/57/57
f 57/57/57 59/59/59 58/58/58
f 60/60/60 58/58/58 59/59/59
f 59/59/59 61/61/61 60/60/60
f 62/62/62 60/60/60 61/61/61
f 61/61/61 63/63/63 62/62/62
f 64/64/64 62/62/62 63/63/63
f 63/63/63 65/65/65 64/64/64
f 66/66/66 64/64/64 65/65/65
f 65/65/65 67/67/67 66/66/66
f 68/68/68 66/66/66 67/67/67
f 67/67/67 69/69/69 68/68/68
f 70/70/70 68/68/68 69/69/69
f 69/69/69 71/71/71 70/70/70
f 72/72/72 70/70/70 71/71/71
f 71/71/71 73/73/73 72/72/72
f 74/74/74 72/72/72 73/73/73
f 73/73/73 75/75/75 74/74/74
f 76/76/76 74/74/74 75/75/75
f 75/75/75 77/77/77 76/76/76
f 78/78/78 76/76/76 77/77/77
f 77/77/77 79/79/79 78/78/78
f 80/80/80 78/78/78 79/79/79
f 79/79/79 81/81/81 80/80/80
f 82/82/82 80/80/80 81/81/81
f 81/81/81 83/83/83 82/82/82
f 84/84/84 82/82/82 83/83/83
f 83/83/83 85/85/85 84/84/84
f 86/86/86 84/84/84 85/85/85
f 85/85/85 87/87/87 86/86/86
f 88/88/88 86/86/86 87/87/87
f 87/87/87 89/89/89 88/88/88
f 90/90/90 88/88/88 89/89/89
f 89/89/89 91/91/91 90/90/90
f 92/92/92 90/90/90 91/91/91
f 91/91/91 93/93/93 92/92/92
f 94/94/94 92/92/92 93/93/93
f 93/93/93 95/95/95 94/94/94
f 96/96/96 94/94/94 95/95/95
f 95/95/95 97/97/97 96/96/96
f 98/98/98 96/96/96 97/97/97
f 97/97/97 99/99/99 98/98/98
f 100/100/100 98/98/98 99/99/99
f 99/99/99 101/101/101 100/100/100
f 102/102/102 100/100/100 101/101/101
