g Plane002
v -0.4284672 -0.03660252 0.1351983
v -0.4720544 -0.04708591 0.1069452
v -0.4402708 -0.03384288 0.1429927
v -0.4561726 -0.05134746 0.0949636
v -0.5057516 -0.06047464 0.07673775
v -0.4876067 -0.06696514 0.0590464
v -0.5379587 -0.07239059 0.05692016
v -0.5201033 -0.08205929 0.0323764
v -0.5680508 -0.08264998 0.04711983
v -0.5542881 -0.09681368 0.01532562
v -0.5955489 -0.09082981 0.04642502
v -0.5919955 -0.1112205 0.008868103
v -0.6289086 -0.09432793 0.05453056
v -0.6381304 -0.1197814 0.01463158
v -0.6650588 -0.09563425 0.07160842
v -0.6839132 -0.1265121 0.03229072
v -0.6950256 -0.09922287 0.09669014
v -0.7191711 -0.139619 0.06190224
v -0.7142398 -0.1123875 0.1326785
v -0.729287 -0.1640613 0.09898452
v -0.7127016 -0.1247899 0.1576591
v -0.7287965 -0.1827701 0.1252406
v -0.7066139 -0.1407895 0.1894548
v -0.7234514 -0.2037755 0.1564356
v -0.696318 -0.1596801 0.2257829
v -0.713912 -0.2269138 0.1910489
v -0.6822707 -0.1809637 0.2646306
v -0.7007226 -0.251813 0.2272894
v -0.6649337 -0.204236 0.3041077
v -0.6844226 -0.2780079 0.2632434
v -0.6447387 -0.2291761 0.3424078
v -0.6655818 -0.3049496 0.2969137
v -0.6220458 -0.255589 0.3778023
v -0.6448414 -0.3319629 0.3262254
v -0.5970831 -0.2834876 0.4085939
v -0.6230137 -0.3581217 0.3490346
v -0.5726956 -0.3087991 0.4311934
v -0.6023977 -0.3832831 0.3668168
v -0.5457682 -0.3365852 0.4526295
v -0.5787953 -0.4113552 0.3842044
v -0.5166269 -0.3660036 0.4725367
v -0.5526963 -0.4413518 0.4005951
v -0.4856249 -0.3961847 0.4904903
v -0.5245637 -0.4723157 0.4154472
v -0.4531311 -0.4262371 0.5060313
v -0.4948444 -0.5033088 0.4282516
v -0.4195241 -0.4552518 0.5186777
v -0.4639761 -0.5334129 0.4385231
v -0.3851929 -0.4822977 0.5279253
v -0.4323854 -0.5617311 0.4457986
v -0.3505477 -0.5064102 0.5332462
v -0.4004779 -0.5873998 0.4496387
v -0.3160515 -0.5265723 0.5340881
v -0.3686065 -0.6096083 0.4496278
v -0.2798339 -0.5441637 0.530322
v -0.3363998 -0.6277793 0.4446936
v -0.2418149 -0.5597557 0.5217503
v -0.3021785 -0.6439036 0.4350629
v -0.202821 -0.573096 0.5089567
v -0.2663284 -0.6581299 0.4213666
v -0.1633262 -0.5842194 0.4926032
v -0.2293782 -0.6703895 0.4041522
v -0.1238066 -0.593145 0.4733273
v -0.1918545 -0.6806288 0.3839921
v -0.08474854 -0.5998791 0.4517542
v -0.1542735 -0.688807 0.3614697
v -0.04665378 -0.6044175 0.4285065
v -0.1171373 -0.6948933 0.3371733
v -0.01004147 -0.6067494 0.4042081
v -0.08092846 -0.6988648 0.3116872
v 0.02454418 -0.606859 0.3794925
v -0.04610569 -0.7007027 0.2855881
v 0.05617336 -0.6050628 0.3556305
v -0.01384952 -0.700046 0.2596806
v 0.08844234 -0.6011773 0.3297462
v 0.01850651 -0.6970505 0.2321122
v 0.1211413 -0.5952458 0.3017589
v 0.05081142 -0.6919437 0.2029201
v 0.1536004 -0.587394 0.2720036
v 0.08245395 -0.6848895 0.1724263
v 0.1851686 -0.577749 0.2407957
v 0.1128056 -0.6760494 0.1409689
v 0.2152085 -0.5664349 0.2084334
v 0.1412235 -0.6655885 0.1089059
v 0.2430914 -0.5535677 0.1751907
v 0.1670555 -0.6536798 0.07661812
v 0.2681938 -0.5392494 0.1413106
v 0.1896455 -0.6405107 0.04451774
v 0.2898861 -0.5235582 0.1069927
v 0.2083426 -0.6262913 0.01306046
v 0.3077536 -0.5060126 0.07145515
v 0.2224288 -0.6115538 -0.0168795
v 0.3205727 -0.4854382 0.03178543
v 0.2318732 -0.5962896 -0.0471019
v 0.3276002 -0.4640919 -0.008077621
v 0.2376618 -0.5787231 -0.0806501
v 0.3302731 -0.4419871 -0.04743546
v 0.2402553 -0.5588756 -0.1167702
v 0.3298317 -0.4191234 -0.08567478
v 0.2403112 -0.5367799 -0.1546242
v 0.3273616 -0.3955436 -0.1221568
v 0.2386415 -0.5124272 -0.1933999
v 0.3238331 -0.3713625 -0.1561813
v 0.2361749 -0.4857355 -0.2323463
v 0.3201108 -0.3467938 -0.1869927
v 0.2339438 -0.4565249 -0.2707679
v 0.3169282 -0.3221714 -0.2138199
v 0.2331131 -0.4244945 -0.3079841
v 0.3148261 -0.2979478 -0.2359775
v 0.2350399 -0.3892253 -0.3432292
v 0.3158428 -0.268189 -0.2617896
v 0.236926 -0.357443 -0.370443
v 0.3169722 -0.2389158 -0.2867129
v 0.2385379 -0.3251901 -0.3970084
v 0.3179733 -0.2102937 -0.3094581
v 0.2401911 -0.2909811 -0.4231343
v 0.3189022 -0.1816542 -0.3297292
v 0.2419458 -0.2540508 -0.4480685
v 0.3198148 -0.1522386 -0.3473665
v 0.2438608 -0.2137213 -0.4709249
v 0.3207729 -0.121122 -0.3622929
v 0.2459907 -0.1694827 -0.4907326
v 0.3218457 -0.08718336 -0.3744031
v 0.2483812 -0.1210209 -0.50655
v 0.3231112 -0.04917406 -0.3834357
v 0.2510703 -0.06814913 -0.5175912
v 0.32465 -0.005861635 -0.3889136
v 0.2540928 -0.01066669 -0.523286
v 0.3256705 0.02817833 -0.3902999
v 0.2564 0.03418341 -0.5233442
v 0.3260424 0.06045526 -0.3890964
v 0.2578232 0.07386346 -0.5200502
v 0.3260696 0.09655456 -0.3856975
v 0.2588563 0.115361 -0.5142633
v 0.3258408 0.1357506 -0.3803342
v 0.2596567 0.1585207 -0.5063967
v 0.3254623 0.1774149 -0.3732898
v 0.260364 0.2030922 -0.4968104
v 0.3250485 0.2209788 -0.3648719
v 0.2611098 0.2487607 -0.4858415
v 0.3247181 0.2659165 -0.3553975
v 0.2620212 0.2951733 -0.4738165
v 0.3245917 0.3117284 -0.3451879
v 0.2632239 0.3419484 -0.4610578
v 0.3247906 0.357934 -0.3345661
v 0.2648427 0.3886867 -0.4478869
v 0.3254363 0.4040648 -0.3238552
v 0.2670018 0.4349728 -0.4346249
v 0.3266507 0.4496678 -0.3133763
v 0.2698258 0.4803848 -0.4215934
v 0.3285554 0.4942947 -0.3034512
v 0.2734385 0.5244856 -0.4091156
v 0.3312727 0.5375116 -0.2943991
v 0.2779639 0.566831 -0.3975158
v 0.3349262 0.578896 -0.2865382
v 0.2835247 0.6069617 -0.3871197
v 0.3396427 0.6180451 -0.2801861
v 0.2902398 0.6444013 -0.3782539
v 0.3455582 0.6545834 -0.2756622
v 0.2982192 0.6786423 -0.3712432
v 0.3565647 0.7036576 -0.2711421
v 0.3106641 0.7260754 -0.3636005
v 0.3690923 0.7519267 -0.26798
v 0.3247418 0.7731428 -0.3571177
v 0.3830197 0.7984236 -0.2661227
v 0.340372 0.8188194 -0.3517818
v 0.3983687 0.8427446 -0.2654491
v 0.3575968 0.8626833 -0.3474866
v 0.4151566 0.8844861 -0.26584
v 0.376465 0.9043187 -0.344124
v 0.4333929 0.9232389 -0.2671766
v 0.3970301 0.9433076 -0.3415855
v 0.4530797 0.9585989 -0.2693413
v 0.4193568 0.979234 -0.3397613
v 0.4742055 0.9901658 -0.2722171
v 0.4435188 1.011671 -0.3385413
v 0.4967498 1.01756 -0.2756879
v 0.4696031 1.040177 -0.3378145
v 0.5206876 1.040434 -0.279639
v 0.4976985 1.064275 -0.3374678
v 0.5466768 1.058995 -0.2839817
v 0.5283098 1.083627 -0.3374704
v 0.5770154 1.074999 -0.2890105
v 0.5625772 1.098768 -0.3383136
v 0.6094803 1.086836 -0.2948486
v 0.5986516 1.10916 -0.339864
v 0.6441501 1.094465 -0.3015118
v 0.6364552 1.114846 -0.3421061
v 0.6810688 1.097823 -0.3090129
v 0.6759448 1.115889 -0.3450267
v 0.7202426 1.096842 -0.3173602
v 0.7171121 1.112355 -0.3486175
v 0.7616528 1.091465 -0.326557
v 0.759978 1.104303 -0.3528752
v 0.8052652 1.081652 -0.336603
v 0.8045758 1.091773 -0.3578004
v 0.851042 1.067375 -0.3474958
v 0.8509429 1.074791 -0.3633955
v 0.8989482 1.048622 -0.3592316
v 0.8991139 1.053372 -0.3696636
v 0.9442401 1.027981 -0.3708566
v 0.9443742 1.030132 -0.3756525
vt 0 0
vt 1 0.01
vt 1 0
vt 0 0.01
vt 1 0.02
vt 0 0.02
vt 1 0.03
vt 0 0.03
vt 1 0.04
vt 0 0.04
vt 1 0.05
vt 0 0.05
vt 1 0.05999999
vt 0 0.05999999
vt 1 0.06999999
vt 0 0.06999999
vt 1 0.07999999
vt 0 0.07999999
vt 1 0.08999999
vt 0 0.08999999
vt 1 0.09999999
vt 0 0.09999999
vt 1 0.11
vt 0 0.11
vt 1 0.12
vt 0 0.12
vt 1 0.13
vt 0 0.13
vt 1 0.14
vt 0 0.14
vt 1 0.15
vt 0 0.15
vt 1 0.16
vt 0 0.16
vt 1 0.17
vt 0 0.17
vt 1 0.18
vt 0 0.18
vt 1 0.19
vt 0 0.19
vt 1 0.2
vt 0 0.2
vt 1 0.21
vt 0 0.21
vt 1 0.22
vt 0 0.22
vt 1 0.23
vt 0 0.23
vt 1 0.24
vt 0 0.24
vt 1 0.25
vt 0 0.25
vt 1 0.26
vt 0 0.26
vt 1 0.27
vt 0 0.27
vt 1 0.28
vt 0 0.28
vt 1 0.29
vt 0 0.29
vt 1 0.3
vt 0 0.3
vt 1 0.31
vt 0 0.31
vt 1 0.32
vt 0 0.32
vt 1 0.33
vt 0 0.33
vt 1 0.3399999
vt 0 0.3399999
vt 1 0.3499999
vt 0 0.3499999
vt 1 0.3599999
vt 0 0.3599999
vt 1 0.3699999
vt 0 0.3699999
vt 1 0.3799999
vt 0 0.3799999
vt 1 0.3899999
vt 0 0.3899999
vt 1 0.3999999
vt 0 0.3999999
vt 1 0.4099999
vt 0 0.4099999
vt 1 0.4199999
vt 0 0.4199999
vt 1 0.4299999
vt 0 0.4299999
vt 1 0.4399998
vt 0 0.4399998
vt 1 0.4499998
vt 0 0.4499998
vt 1 0.4599998
vt 0 0.4599998
vt 1 0.4699998
vt 0 0.4699998
vt 1 0.4799998
vt 0 0.4799998
vt 1 0.4899998
vt 0 0.4899998
vt 1 0.4999998
vt 0 0.4999998
vt 1 0.5099998
vt 0 0.5099998
vt 1 0.5199998
vt 0 0.5199998
vt 1 0.5299998
vt 0 0.5299998
vt 1 0.5399998
vt 0 0.5399998
vt 1 0.5499998
vt 0 0.5499998
vt 1 0.5599998
vt 0 0.5599998
vt 1 0.5699998
vt 0 0.5699998
vt 1 0.5799997
vt 0 0.5799997
vt 1 0.5899997
vt 0 0.5899997
vt 1 0.5999997
vt 0 0.5999997
vt 1 0.6099997
vt 0 0.6099997
vt 1 0.6199997
vt 0 0.6199997
vt 1 0.6299997
vt 0 0.6299997
vt 1 0.6399997
vt 0 0.6399997
vt 1 0.6499997
vt 0 0.6499997
vt 1 0.6599997
vt 0 0.6599997
vt 1 0.6699997
vt 0 0.6699997
vt 1 0.6799996
vt 0 0.6799996
vt 1 0.6899996
vt 0 0.6899996
vt 1 0.6999996
vt 0 0.6999996
vt 1 0.7099996
vt 0 0.7099996
vt 1 0.7199996
vt 0 0.7199996
vt 1 0.7299996
vt 0 0.7299996
vt 1 0.7399996
vt 0 0.7399996
vt 1 0.7499996
vt 0 0.7499996
vt 1 0.7599996
vt 0 0.7599996
vt 1 0.7699996
vt 0 0.7699996
vt 1 0.7799996
vt 0 0.7799996
vt 1 0.7899995
vt 0 0.7899995
vt 1 0.7999995
vt 0 0.7999995
vt 1 0.8099995
vt 0 0.8099995
vt 1 0.8199995
vt 0 0.8199995
vt 1 0.8299995
vt 0 0.8299995
vt 1 0.8399995
vt 0 0.8399995
vt 1 0.8499995
vt 0 0.8499995
vt 1 0.8599995
vt 0 0.8599995
vt 1 0.8699995
vt 0 0.8699995
vt 1 0.8799995
vt 0 0.8799995
vt 1 0.8899994
vt 0 0.8899994
vt 1 0.8999994
vt 0 0.8999994
vt 1 0.9099994
vt 0 0.9099994
vt 1 0.9199994
vt 0 0.9199994
vt 1 0.9299994
vt 0 0.9299994
vt 1 0.9399994
vt 0 0.9399994
vt 1 0.9499994
vt 0 0.9499994
vt 1 0.9599994
vt 0 0.9599994
vt 1 0.9699994
vt 0 0.9699994
vt 1 0.9799994
vt 0 0.9799994
vt 1 0.9899994
vt 0 0.9899994
vt 1 0.9999993
vt 0 0.9999993
vn 0.005116906 -0.9400768 0.3409244
vn 0.01974783 -0.9334345 0.3582037
vn 0.005116906 -0.9400768 0.3409244
vn 0.01961049 -0.9334993 0.3580424
vn 0.05770356 -0.9166185 0.3955767
vn 0.05754529 -0.9166883 0.3954381
vn 0.1174129 -0.8918442 0.4368389
vn 0.1170661 -0.8919873 0.4366396
vn 0.1980112 -0.8605703 0.4692659
vn 0.1972427 -0.8608618 0.4690547
vn 0.2258819 -0.8458103 0.4833035
vn 0.2258917 -0.8458089 0.4833013
vn 0.2516102 -0.8368809 0.4861303
vn 0.2520092 -0.8367624 0.4861275
vn 0.4174609 -0.7901884 0.4486966
vn 0.4172163 -0.7902722 0.4487764
vn 0.7379681 -0.6200572 0.2663307
vn 0.7384162 -0.6196865 0.2659516
vn 0.9471183 -0.3197501 -0.02696033
vn 0.9454255 -0.325108 -0.02180579
vn 0.9670087 -0.1548248 -0.2022955
vn 0.9669898 -0.1547265 -0.2024609
vn 0.9531554 -0.1057186 -0.283405
vn 0.9531325 -0.1056572 -0.2835046
vn 0.9370797 -0.06764179 -0.3424998
vn 0.9370567 -0.06759258 -0.3425727
vn 0.9193001 -0.03182259 -0.3922688
vn 0.9192722 -0.03176922 -0.3923383
vn 0.8984435 0.007058952 -0.4390324
vn 0.898402 0.007133825 -0.439116
vn 0.8720508 0.05400732 -0.4864265
vn 0.8719764 0.05413613 -0.4865456
vn 0.8361652 0.1154339 -0.5361927
vn 0.836009 0.1156936 -0.5363805
vn 0.7936551 0.1807703 -0.5808904
vn 0.7938186 0.1805363 -0.5807397
vn 0.7584692 0.2258241 -0.611333
vn 0.7584668 0.2258268 -0.6113349
vn 0.7298859 0.2570707 -0.6333886
vn 0.7298844 0.2570723 -0.6333897
vn 0.6992877 0.2891767 -0.6537382
vn 0.6992858 0.2891786 -0.6537393
vn 0.6644774 0.3237095 -0.6735591
vn 0.6644744 0.3237123 -0.6735607
vn 0.6227937 0.3622481 -0.6934727
vn 0.6227889 0.3622523 -0.6934747
vn 0.5706295 0.4064678 -0.7135586
vn 0.5706221 0.4064738 -0.7135612
vn 0.5027772 0.4580808 -0.7330601
vn 0.5027665 0.4580884 -0.7330626
vn 0.4116612 0.5183235 -0.7495837
vn 0.4116494 0.5183308 -0.7495852
vn 0.293131 0.5859215 -0.7554935
vn 0.2927734 0.5861102 -0.7554857
vn 0.1685989 0.6478403 -0.7428845
vn 0.168578 0.6478503 -0.7428806
vn 0.06183321 0.6942505 -0.7170724
vn 0.06183763 0.6942487 -0.7170739
vn -0.02762532 0.7270883 -0.6859879
vn -0.02761416 0.7270846 -0.6859924
vn -0.1032855 0.7498077 -0.6535446
vn -0.1032716 0.749804 -0.653551
vn -0.1684587 0.7652336 -0.6213204
vn -0.1684436 0.7652306 -0.6213284
vn -0.2261236 0.7752401 -0.5898059
vn -0.226107 0.7752377 -0.5898154
vn -0.2788714 0.7809561 -0.5588723
vn -0.2788522 0.7809547 -0.5588839
vn -0.3290322 0.7829102 -0.5280052
vn -0.3290086 0.7829101 -0.52802
vn -0.3783887 0.7819741 -0.4953165
vn -0.3783512 0.7819757 -0.4953428
vn -0.4258468 0.7791176 -0.4600329
vn -0.4258632 0.7791163 -0.4600199
vn -0.4690506 0.7744889 -0.4244509
vn -0.4690658 0.7744868 -0.4244379
vn -0.5084769 0.7679892 -0.3894148
vn -0.5084923 0.7679862 -0.3894005
vn -0.5460668 0.7595703 -0.353361
vn -0.5460833 0.7595661 -0.3533445
vn -0.5830893 0.7490036 -0.3146434
vn -0.5831079 0.7489976 -0.3146229
vn -0.6204854 0.7357495 -0.271423
vn -0.6205077 0.7357408 -0.2713958
vn -0.6588696 0.7189156 -0.2214755
vn -0.6588971 0.7189021 -0.2214371
vn -0.6983794 0.697156 -0.1619868
vn -0.6984142 0.6971344 -0.1619301
vn -0.7387426 0.6680417 -0.08932932
vn -0.7388021 0.6679916 -0.0892107
vn -0.7794327 0.6264821 0.00222924
vn -0.7795776 0.6263002 0.002602487
vn -0.8109109 0.5762935 0.1015337
vn -0.8108613 0.5763991 0.1013312
vn -0.8270917 0.530063 0.1869559
vn -0.8270707 0.530152 0.1867963
vn -0.8335557 0.4905091 0.254137
vn -0.8335487 0.490582 0.2540198
vn -0.835881 0.4563787 0.3049943
vn -0.8358781 0.4564401 0.3049105
vn -0.8375631 0.4264416 0.3415197
vn -0.837559 0.4264959 0.341462
vn -0.8407938 0.399884 0.364909
vn -0.8407848 0.3999338 0.3648749
vn -0.8469958 0.3766173 0.3751766
vn -0.846979 0.3766625 0.3751692
vn -0.8569816 0.3577289 0.3709617
vn -0.8569556 0.3577642 0.3709877
vn -0.8666283 0.346981 0.358552
vn -0.8667336 0.3469068 0.3583692
vn -0.87098 0.3406296 0.3540696
vn -0.8709781 0.3406418 0.3540626
vn -0.8718708 0.3299243 0.3619274
vn -0.8718698 0.3299488 0.3619073
vn -0.872681 0.3117471 0.3758212
vn -0.8726798 0.3117779 0.3757986
vn -0.8738509 0.2852511 0.3937212
vn -0.8738497 0.2852776 0.3937045
vn -0.8753951 0.2505912 0.4133855
vn -0.8753947 0.2506 0.413381
vn -0.8772974 0.2089502 0.4320753
vn -0.8772983 0.2089316 0.4320826
vn -0.8794906 0.1627116 0.4472374
vn -0.8794928 0.1626661 0.4472496
vn -0.8818587 0.1150653 0.4572583
vn -0.8818619 0.1150045 0.4572675
vn -0.8842065 0.06881598 0.4619991
vn -0.8842171 0.06860779 0.4620097
vn -0.8864184 0.02008123 0.4624493
vn -0.8864275 0.01983536 0.4624422
vn -0.8876323 -0.02408343 0.4599227
vn -0.8876341 -0.02416489 0.459915
vn -0.8881437 -0.05425446 0.4563519
vn -0.8881444 -0.05429452 0.456346
vn -0.8884268 -0.07508475 0.4528356
vn -0.8884271 -0.07510465 0.4528316
vn -0.8886775 -0.08878748 0.4498546
vn -0.8886778 -0.08879697 0.4498521
vn -0.8889824 -0.09675668 0.4476031
vn -0.8889826 -0.09676043 0.4476018
vn -0.88937 -0.09983058 0.4461555
vn -0.8893703 -0.09983099 0.446155
vn -0.8898342 -0.09844609 0.4455372
vn -0.8898344 -0.09844437 0.4455371
vn -0.8903394 -0.09272756 0.4457549
vn -0.8903396 -0.09272434 0.445755
vn -0.890815 -0.0825066 0.4468125
vn -0.8908151 -0.08250217 0.4468129
vn -0.8911392 -0.06731439 0.448709
vn -0.8911392 -0.06730884 0.4487097
vn -0.8911049 -0.04632503 0.4514266
vn -0.8911049 -0.04631841 0.4514274
vn -0.8903559 -0.01823419 0.4548997
vn -0.8903557 -0.01822663 0.4549006
vn -0.8882663 0.01891807 0.4589392
vn -0.8882657 0.01892588 0.4589399
vn -0.8837041 0.06804846 0.4630728
vn -0.8837035 0.06805386 0.4630733
vn -0.8754779 0.1239719 0.467086
vn -0.8754895 0.1239081 0.4670811
vn -0.8651226 0.1717229 0.4712475
vn -0.8651277 0.171703 0.4712453
vn -0.8536627 0.2127028 0.475413
vn -0.8536685 0.2126834 0.4754111
vn -0.8394231 0.2565797 0.4790987
vn -0.8394296 0.2565611 0.4790975
vn -0.8215202 0.3041105 0.4823083
vn -0.8215275 0.3040925 0.4823072
vn -0.7986202 0.3562028 0.4851034
vn -0.7986282 0.3561858 0.4851026
vn -0.7688428 0.4137695 0.4875198
vn -0.768851 0.4137546 0.4875193
vn -0.7295623 0.4775525 0.4895738
vn -0.729569 0.4775426 0.4895736
vn -0.6772096 0.5477517 0.4912794
vn -0.6772094 0.5477518 0.4912794
vn -0.6072447 0.6233032 0.4926938
vn -0.607226 0.6233212 0.492694
vn -0.5145836 0.7011786 0.4935101
vn -0.5145403 0.7012104 0.4935102
vn -0.4040629 0.7716924 0.4911457
vn -0.403666 0.7719104 0.4911294
vn -0.2869937 0.8273157 0.4828905
vn -0.2868713 0.8273652 0.4828786
vn -0.1678882 0.8664944 0.4701073
vn -0.1677721 0.8665242 0.4700942
vn -0.05048678 0.8886778 0.4557444
vn -0.05039131 0.8886895 0.4557322
vn 0.05972651 0.8956289 0.4407739
vn 0.05979614 0.895629 0.4407642
vn 0.1592513 0.8905767 0.4260423
vn 0.159297 0.890572 0.4260354
vn 0.2466249 0.8771061 0.4121422
vn 0.2466523 0.8771005 0.4121377
vn 0.3219428 0.8583907 0.3993973
vn 0.3219579 0.8583863 0.3993947
vn 0.3862002 0.836875 0.3879299
vn 0.386208 0.8368722 0.3879285
vn 0.4387072 0.8152029 0.3781271
vn 0.4387358 0.8151901 0.3781218
vn 0.462353 0.8041896 0.3735091
vn 0.4623529 0.8041894 0.3735091
g Plane002_0
f 3/3/3 2/2/2 1/1/1
f 2/2/2 4/4/4 1/1/1
f 2/2/2 5/5/5 4/4/4
f 5/5/5 6/6/6 4/4/4
f 5/5/5 7/7/7 6/6/6
f 7/7/7 8/8/8 6/6/6
f 7/7/7 9/9/9 8/8/8
f 9/9/9 10/10/10 8/8/8
f 9/9/9 11/11/11 10/10/10
f 11/11/11 12/12/12 10/10/10
f 11/11/11 13/13/13 12/12/12
f 13/13/13 14/14/14 12/12/12
f 13/13/13 15/15/15 14/14/14
f 15/15/15 16/16/16 14/14/14
f 15/15/15 17/17/17 16/16/16
f 17/17/17 18/18/18 16/16/16
f 17/17/17 19/19/19 18/18/18
f 19/19/19 20/20/20 18/18/18
f 19/19/19 21/21/21 20/20/20
f 21/21/21 22/22/22 20/20/20
f 21/21/21 23/23/23 22/22/22
f 23/23/23 24/24/24 22/22/22
f 23/23/23 25/25/25 24/24/24
f 25/25/25 26/26/26 24/24/24
f 25/25/25 27/27/27 26/26/26
f 27/27/27 28/28/28 26/26/26
f 27/27/27 29/29/29 28/28/28
f 29/29/29 30/30/30 28/28/28
f 29/29/29 31/31/31 30/30/30
f 31/31/31 32/32/32 30/30/30
f 31/31/31 33/33/33 32/32/32
f 33/33/33 34/34/34 32/32/32
f 33/33/33 35/35/35 34/34/34
f 35/35/35 36/36/36 34/34/34
f 35/35/35 37/37/37 36/36/36
f 37/37/37 38/38/38 36/36/36
f 37/37/37 39/39/39 38/38/38
f 39/39/39 40/40/40 38/38/38
f 39/39/39 41/41/41 40/40/40
f 41/41/41 42/42/42 40/40/40
f 41/41/41 43/43/43 42/42/42
f 43/43/43 44/44/44 42/42/42
f 43/43/43 45/45/45 44/44/44
f 45/45/45 46/46/46 44/44/44
f 45/45/45 47/47/47 46/46/46
f 47/47/47 48/48/48 46/46/46
f 47/47/47 49/49/49 48/48/48
f 49/49/49 50/50/50 48/48/48
f 49/49/49 51/51/51 50/50/50
f 51/51/51 52/52/52 50/50/50
f 51/51/51 53/53/53 52/52/52
f 53/53/53 54/54/54 52/52/52
f 53/53/53 55/55/55 54/54/54
f 55/55/55 56/56/56 54/54/54
f 55/55/55 57/57/57 56/56/56
f 57/57/57 58/58/58 56/56/56
f 57/57/57 59/59/59 58/58/58
f 59/59/59 60/60/60 58/58/58
f 59/59/59 61/61/61 60/60/60
f 61/61/61 62/62/62 60/60/60
f 61/61/61 63/63/63 62/62/62
f 63/63/63 64/64/64 62/62/62
f 63/63/63 65/65/65 64/64/64
f 65/65/65 66/66/66 64/64/64
f 65/65/65 67/67/67 66/66/66
f 67/67/67 68/68/68 66/66/66
f 67/67/67 69/69/69 68/68/68
f 69/69/69 70/70/70 68/68/68
f 69/69/69 71/71/71 70/70/70
f 71/71/71 72/72/72 70/70/70
f 71/71/71 73/73/73 72/72/72
f 73/73/73 74/74/74 72/72/72
f 73/73/73 75/75/75 74/74/74
f 75/75/75 76/76/76 74/74/74
f 75/75/75 77/77/77 76/76/76
f 77/77/77 78/78/78 76/76/76
f 77/77/77 79/79/79 78/78/78
f 79/79/79 80/80/80 78/78/78
f 79/79/79 81/81/81 80/80/80
f 81/81/81 82/82/82 80/80/80
f 81/81/81 83/83/83 82/82/82
f 83/83/83 84/84/84 82/82/82
f 83/83/83 85/85/85 84/84/84
f 85/85/85 86/86/86 84/84/84
f 85/85/85 87/87/87 86/86/86
f 87/87/87 88/88/88 86/86/86
f 87/87/87 89/89/89 88/88/88
f 89/89/89 90/90/90 88/88/88
f 89/89/89 91/91/91 90/90/90
f 91/91/91 92/92/92 90/90/90
f 91/91/91 93/93/93 92/92/92
f 93/93/93 94/94/94 92/92/92
f 93/93/93 95/95/95 94/94/94
f 95/95/95 96/96/96 94/94/94
f 95/95/95 97/97/97 96/96/96
f 97/97/97 98/98/98 96/96/96
f 97/97/97 99/99/99 98/98/98
f 99/99/99 100/100/100 98/98/98
f 99/99/99 101/101/101 100/100/100
f 101/101/101 102/102/102 100/100/100
f 101/101/101 103/103/103 102/102/102
f 103/103/103 104/104/104 102/102/102
f 103/103/103 105/105/105 104/104/104
f 105/105/105 106/106/106 104/104/104
f 105/105/105 107/107/107 106/106/106
f 107/107/107 108/108/108 106/106/106
f 107/107/107 109/109/109 108/108/108
f 109/109/109 110/110/110 108/108/108
f 109/109/109 111/111/111 110/110/110
f 111/111/111 112/112/112 110/110/110
f 111/111/111 113/113/113 112/112/112
f 113/113/113 114/114/114 112/112/112
f 113/113/113 115/115/115 114/114/114
f 115/115/115 116/116/116 114/114/114
f 115/115/115 117/117/117 116/116/116
f 117/117/117 118/118/118 116/116/116
f 117/117/117 119/119/119 118/118/118
f 119/119/119 120/120/120 118/118/118
f 119/119/119 121/121/121 120/120/120
f 121/121/121 122/122/122 120/120/120
f 121/121/121 123/123/123 122/122/122
f 123/123/123 124/124/124 122/122/122
f 123/123/123 125/125/125 124/124/124
f 125/125/125 126/126/126 124/124/124
f 125/125/125 127/127/127 126/126/126
f 127/127/127 128/128/128 126/126/126
f 127/127/127 129/129/129 128/128/128
f 129/129/129 130/130/130 128/128/128
f 129/129/129 131/131/131 130/130/130
f 131/131/131 132/132/132 130/130/130
f 131/131/131 133/133/133 132/132/132
f 133/133/133 134/134/134 132/132/132
f 133/133/133 135/135/135 134/134/134
f 135/135/135 136/136/136 134/134/134
f 135/135/135 137/137/137 136/136/136
f 137/137/137 138/138/138 136/136/136
f 137/137/137 139/139/139 138/138/138
f 139/139/139 140/140/140 138/138/138
f 139/139/139 141/141/141 140/140/140
f 141/141/141 142/142/142 140/140/140
f 141/141/141 143/143/143 142/142/142
f 143/143/143 144/144/144 142/142/142
f 143/143/143 145/145/145 144/144/144
f 145/145/145 146/146/146 144/144/144
f 145/145/145 147/147/147 146/146/146
f 147/147/147 148/148/148 146/146/146
f 147/147/147 149/149/149 148/148/148
f 149/149/149 150/150/150 148/148/148
f 149/149/149 151/151/151 150/150/150
f 151/151/151 152/152/152 150/150/150
f 151/151/151 153/153/153 152/152/152
f 153/153/153 154/154/154 152/152/152
f 153/153/153 155/155/155 154/154/154
f 155/155/155 156/156/156 154/154/154
f 155/155/155 157/157/157 156/156/156
f 157/157/157 158/158/158 156/156/156
f 157/157/157 159/159/159 158/158/158
f 159/159/159 160/160/160 158/158/158
f 159/159/159 161/161/161 160/160/160
f 161/161/161 162/162/162 160/160/160
f 161/161/161 163/163/163 162/162/162
f 163/163/163 164/164/164 162/162/162
f 163/163/163 165/165/165 164/164/164
f 165/165/165 166/166/166 164/164/164
f 165/165/165 167/167/167 166/166/166
f 167/167/167 168/168/168 166/166/166
f 167/167/167 169/169/169 168/168/168
f 169/169/169 170/170/170 168/168/168
f 169/169/169 171/171/171 170/170/170
f 171/171/171 172/172/172 170/170/170
f 171/171/171 173/173/173 172/172/172
f 173/173/173 174/174/174 172/172/172
f 173/173/173 175/175/175 174/174/174
f 175/175/175 176/176/176 174/174/174
f 175/175/175 177/177/177 176/176/176
f 177/177/177 178/178/178 176/176/176
f 177/177/177 179/179/179 178/178/178
f 179/179/179 180/180/180 178/178/178
f 179/179/179 181/181/181 180/180/180
f 181/181/181 182/182/182 180/180/180
f 181/181/181 183/183/183 182/182/182
f 183/183/183 184/184/184 182/182/182
f 183/183/183 185/185/185 184/184/184
f 185/185/185 186/186/186 184/184/184
f 185/185/185 187/187/187 186/186/186
f 187/187/187 188/188/188 186/186/186
f 187/187/187 189/189/189 188/188/188
f 189/189/189 190/190/190 188/188/188
f 189/189/189 191/191/191 190/190/190
f 191/191/191 192/192/192 190/190/190
f 191/191/191 193/193/193 192/192/192
f 193/193/193 194/194/194 192/192/192
f 193/193/193 195/195/195 194/194/194
f 195/195/195 196/196/196 194/194/194
f 195/195/195 197/197/197 196/196/196
f 197/197/197 198/198/198 196/196/196
f 197/197/197 199/199/199 198/198/198
f 199/199/199 200/200/200 198/198/198
f 199/199/199 201/201/201 200/200/200
f 201/201/201 202/202/202 200/200/200
