g Plane003
v -0.4156074 0.03641888 0.1898924
v -0.4332192 -0.009729194 0.1464163
v -0.4156073 -0.003873501 0.1874673
v -0.4332193 0.04715538 0.1498394
v -0.4540954 -0.01549654 0.09932289
v -0.4551087 0.05774368 0.1015255
v -0.4779924 -0.02455444 0.05601242
v -0.483277 0.06442623 0.05153465
v -0.4998392 -0.03736084 0.02747177
v -0.5147646 0.06518392 0.01115005
v -0.5174925 -0.05226463 0.01322922
v -0.5517148 0.05836552 -0.01915436
v -0.5307667 -0.06784393 0.009713974
v -0.5939475 0.04280418 -0.0357486
v -0.5492753 -0.0877782 0.013424
v -0.6338341 0.02559505 -0.03661175
v -0.5689859 -0.1095947 0.02488045
v -0.67902 0.001892147 -0.02526672
v -0.5846255 -0.1310431 0.0427504
v -0.7250298 -0.02956036 -0.0008309173
v -0.592338 -0.1494251 0.06470177
v -0.76597 -0.07046543 0.03857819
v -0.5915563 -0.1641161 0.08861808
v -0.7918181 -0.1152607 0.08795211
v -0.5891272 -0.1834085 0.116327
v -0.8029619 -0.1340451 0.1196192
v -0.585844 -0.2031501 0.1499613
v -0.8131001 -0.1546873 0.1597117
v -0.5810657 -0.2230121 0.1869236
v -0.8214114 -0.1772729 0.2060335
v -0.5742284 -0.2424503 0.2243783
v -0.8269964 -0.2021007 0.2566236
v -0.5649715 -0.2606003 0.2592422
v -0.8287515 -0.2297923 0.309772
v -0.5534097 -0.2760197 0.2881757
v -0.8250995 -0.2615452 0.3640223
v -0.5407214 -0.2862724 0.3078733
v -0.8133982 -0.2995512 0.4178857
v -0.5300454 -0.2877302 0.3165963
v -0.7890457 -0.3471951 0.4683057
v -0.5248112 -0.2810084 0.3172555
v -0.7493548 -0.4015147 0.5065376
v -0.5140995 -0.2844742 0.3167098
v -0.7086292 -0.4417126 0.5299335
v -0.4945998 -0.2937406 0.3171203
v -0.6654171 -0.478752 0.545151
v -0.4679229 -0.3067698 0.3165113
v -0.6203432 -0.5138755 0.5547608
v -0.4359014 -0.3220993 0.3141078
v -0.5738106 -0.5477508 0.5601348
v -0.4002365 -0.3386726 0.3097112
v -0.5263526 -0.5806392 0.5620663
v -0.3624802 -0.3556667 0.3034005
v -0.4786533 -0.6125683 0.5610723
v -0.3240784 -0.3723829 0.2954015
v -0.4315015 -0.6434419 0.5575224
v -0.2864157 -0.3881741 0.2860412
v -0.3857486 -0.6731113 0.5516853
v -0.2508551 -0.4023897 0.2757503
v -0.3422668 -0.7014324 0.5437261
v -0.218775 -0.4143082 0.2651221
v -0.3019134 -0.7283313 0.5336469
v -0.18921 -0.4253885 0.2528298
v -0.2607285 -0.7556139 0.5203354
v -0.1595954 -0.4380954 0.2361559
v -0.2156221 -0.7850097 0.5014608
v -0.1320126 -0.4500818 0.21717
v -0.1709339 -0.8143824 0.4776574
v -0.1070447 -0.4606093 0.1967104
v -0.1264073 -0.8429294 0.4493011
v -0.08539955 -0.46899 0.1757761
v -0.08166145 -0.8697976 0.4166075
v -0.06794559 -0.474676 0.1555629
v -0.03615368 -0.8939932 0.3795949
v -0.05575401 -0.4774233 0.1374984
v 0.01085998 -0.9142187 0.3380502
v -0.05009186 -0.4775843 0.1232211
v 0.06031982 -0.9285802 0.2915494
v -0.05225052 -0.4765639 0.1143454
v 0.1131909 -0.9341311 0.2396923
v -0.06031017 -0.47501 0.1168696
v 0.1676426 -0.9285505 0.1749467
v -0.06310585 -0.4715497 0.1174734
v 0.21017 -0.912971 0.1054565
v -0.0617149 -0.4646243 0.108419
v 0.2422853 -0.8905622 0.04103714
v -0.05844803 -0.4531783 0.09125503
v 0.2678611 -0.8639946 -0.01782505
v -0.05460014 -0.4372961 0.06807388
v 0.2897529 -0.8347972 -0.07118725
v -0.05065666 -0.4175424 0.04068214
v 0.3100073 -0.8040197 -0.1188214
v -0.04657913 -0.3945613 0.01034767
v 0.3301463 -0.7726334 -0.1599586
v -0.04192177 -0.3688057 -0.0223238
v 0.3512858 -0.7417987 -0.1931712
v -0.03567638 -0.3402408 -0.05753559
v 0.373978 -0.7131657 -0.2162192
v -0.02594616 -0.3147827 -0.07563102
v 0.3979717 -0.6775012 -0.2489381
v -0.01432789 -0.2861842 -0.09161323
v 0.4238772 -0.6381423 -0.2780035
v -0.001691017 -0.2553098 -0.1056777
v 0.4506639 -0.5959489 -0.3042117
v 0.01101993 -0.2233213 -0.117785
v 0.4773788 -0.5514826 -0.3285975
v 0.02286659 -0.1914992 -0.1279087
v 0.5030637 -0.5051818 -0.3521851
v 0.03300114 -0.1612403 -0.135934
v 0.5266693 -0.4573718 -0.3760854
v 0.04080227 -0.1340523 -0.1415313
v 0.54692 -0.4082654 -0.4016249
v 0.04614098 -0.1114512 -0.1440022
v 0.5620477 -0.3580678 -0.4304985
v 0.04697876 -0.09925193 -0.1435778
v 0.5722316 -0.2952415 -0.4675691
v 0.04313179 -0.09438232 -0.1441494
v 0.5703126 -0.223892 -0.5115089
v 0.03608021 -0.08456749 -0.1493927
v 0.5579388 -0.1627533 -0.5515587
v 0.02357792 -0.06774269 -0.1609646
v 0.5441965 -0.1098622 -0.5829716
v 0.005554237 -0.04146362 -0.1786549
v 0.5359966 -0.06363411 -0.6028685
v -0.01514961 0.0001656341 -0.2009808
v 0.5373381 -0.02593677 -0.6096426
v -0.03071636 0.06365988 -0.2228573
v 0.547244 0.0007427025 -0.6052887
v -0.03209503 0.1137944 -0.2275835
v 0.5567108 0.0295702 -0.6044262
v -0.02908642 0.1518717 -0.2237667
v 0.5662103 0.06392211 -0.6051649
v -0.0240202 0.1916408 -0.217321
v 0.5777959 0.1003192 -0.6034364
v -0.01718468 0.2329682 -0.2086476
v 0.5912209 0.1385372 -0.5995749
v -0.008857727 0.2757126 -0.198134
v 0.6062285 0.178357 -0.5939305
v 0.0006867981 0.3197283 -0.1861583
v 0.6225578 0.2195649 -0.5868609
v 0.01117813 0.3648619 -0.1730942
v 0.6399447 0.2619548 -0.5787289
v 0.02234547 0.410955 -0.1593142
v 0.6581252 0.3053245 -0.5698988
v 0.0339191 0.4578483 -0.145189
v 0.6768345 0.3494763 -0.5607361
v 0.04562721 0.5053758 -0.1310911
v 0.6958086 0.394213 -0.5516049
v 0.05273224 0.5397639 -0.1204562
v 0.7160395 0.4441764 -0.5415725
v 0.05571682 0.5648097 -0.111525
v 0.735314 0.4976703 -0.5298592
v 0.06003185 0.5981494 -0.09985115
v 0.7523831 0.5484404 -0.5180082
v 0.06531391 0.6379433 -0.08590756
v 0.7681847 0.5968268 -0.5062546
v 0.07157196 0.6828933 -0.07011657
v 0.783284 0.6426339 -0.4948831
v 0.07904587 0.7320911 -0.05284149
v 0.7980154 0.685272 -0.4842382
v 0.08816872 0.7849571 -0.03438495
v 0.8125206 0.7238247 -0.4747246
v 0.09959655 0.8412345 -0.01498928
v 0.8267174 0.7570521 -0.4668076
v 0.1143138 0.9010223 0.005159378
v 0.8401956 0.7833586 -0.4610082
v 0.1338486 0.964837 0.02591255
v 0.8520019 0.8007315 -0.4578857
v 0.1606657 1.033628 0.04708839
v 0.8602458 0.8067254 -0.4579654
v 0.1988096 1.108556 0.06826416
v 0.8614575 0.7986825 -0.4615322
v 0.2546656 1.190018 0.08826294
v 0.8498268 0.7747103 -0.4681168
v 0.3306409 1.269765 0.1040224
v 0.8248735 0.7428262 -0.4751258
v 0.3996281 1.324768 0.1144406
v 0.8171956 0.731783 -0.4797844
v 0.4752711 1.37256 0.1214855
v 0.8071904 0.7209 -0.484085
v 0.5558478 1.412036 0.125041
v 0.7965816 0.7112826 -0.4879105
v 0.6394553 1.442719 0.1252279
v 0.7872707 0.7034073 -0.4913822
v 0.7243744 1.464758 0.1223512
v 0.780977 0.6971269 -0.4948051
v 0.8093107 1.478757 0.1168072
v 0.7789955 0.6918358 -0.4985749
v 0.8934718 1.485552 0.1089956
v 0.7821196 0.6866984 -0.5030921
v 0.9765064 1.486016 0.09926323
v 0.7906993 0.6808415 -0.5087032
v 1.058391 1.480936 0.08787994
v 0.8047597 0.6734783 -0.5156784
v 1.139305 1.470961 0.07503952
v 0.8241203 0.66396 -0.5242105
v 1.219534 1.456594 0.06086922
v 0.848495 0.6517841 -0.5344282
v 1.280461 1.444577 0.05039177
v 0.881969 0.6354619 -0.5474368
v 1.324338 1.437459 0.04413383
v 0.9204112 0.6173094 -0.5618474
vt 0 0
vt 1 0.01
vt 1 0
vt 0 0.01
vt 1 0.02
vt 0 0.02
vt 1 0.03
vt 0 0.03
vt 1 0.04
vt 0 0.04
vt 1 0.05
vt 0 0.05
vt 1 0.05999999
vt 0 0.05999999
vt 1 0.06999999
vt 0 0.06999999
vt 1 0.07999999
vt 0 0.07999999
vt 1 0.08999999
vt 0 0.08999999
vt 1 0.09999999
vt 0 0.09999999
vt 1 0.11
vt 0 0.11
vt 1 0.12
vt 0 0.12
vt 1 0.13
vt 0 0.13
vt 1 0.14
vt 0 0.14
vt 1 0.15
vt 0 0.15
vt 1 0.16
vt 0 0.16
vt 1 0.17
vt 0 0.17
vt 1 0.18
vt 0 0.18
vt 1 0.19
vt 0 0.19
vt 1 0.2
vt 0 0.2
vt 1 0.21
vt 0 0.21
vt 1 0.22
vt 0 0.22
vt 1 0.23
vt 0 0.23
vt 1 0.24
vt 0 0.24
vt 1 0.25
vt 0 0.25
vt 1 0.26
vt 0 0.26
vt 1 0.27
vt 0 0.27
vt 1 0.28
vt 0 0.28
vt 1 0.29
vt 0 0.29
vt 1 0.3
vt 0 0.3
vt 1 0.31
vt 0 0.31
vt 1 0.32
vt 0 0.32
vt 1 0.33
vt 0 0.33
vt 1 0.3399999
vt 0 0.3399999
vt 1 0.3499999
vt 0 0.3499999
vt 1 0.3599999
vt 0 0.3599999
vt 1 0.3699999
vt 0 0.3699999
vt 1 0.3799999
vt 0 0.3799999
vt 1 0.3899999
vt 0 0.3899999
vt 1 0.3999999
vt 0 0.3999999
vt 1 0.4099999
vt 0 0.4099999
vt 1 0.4199999
vt 0 0.4199999
vt 1 0.4299999
vt 0 0.4299999
vt 1 0.4399998
vt 0 0.4399998
vt 1 0.4499998
vt 0 0.4499998
vt 1 0.4599998
vt 0 0.4599998
vt 1 0.4699998
vt 0 0.4699998
vt 1 0.4799998
vt 0 0.4799998
vt 1 0.4899998
vt 0 0.4899998
vt 1 0.4999998
vt 0 0.4999998
vt 1 0.5099998
vt 0 0.5099998
vt 1 0.5199998
vt 0 0.5199998
vt 1 0.5299998
vt 0 0.5299998
vt 1 0.5399998
vt 0 0.5399998
vt 1 0.5499998
vt 0 0.5499998
vt 1 0.5599998
vt 0 0.5599998
vt 1 0.5699998
vt 0 0.5699998
vt 1 0.5799997
vt 0 0.5799997
vt 1 0.5899997
vt 0 0.5899997
vt 1 0.5999997
vt 0 0.5999997
vt 1 0.6099997
vt 0 0.6099997
vt 1 0.6199997
vt 0 0.6199997
vt 1 0.6299997
vt 0 0.6299997
vt 1 0.6399997
vt 0 0.6399997
vt 1 0.6499997
vt 0 0.6499997
vt 1 0.6599997
vt 0 0.6599997
vt 1 0.6699997
vt 0 0.6699997
vt 1 0.6799996
vt 0 0.6799996
vt 1 0.6899996
vt 0 0.6899996
vt 1 0.6999996
vt 0 0.6999996
vt 1 0.7099996
vt 0 0.7099996
vt 1 0.7199996
vt 0 0.7199996
vt 1 0.7299996
vt 0 0.7299996
vt 1 0.7399996
vt 0 0.7399996
vt 1 0.7499996
vt 0 0.7499996
vt 1 0.7599996
vt 0 0.7599996
vt 1 0.7699996
vt 0 0.7699996
vt 1 0.7799996
vt 0 0.7799996
vt 1 0.7899995
vt 0 0.7899995
vt 1 0.7999995
vt 0 0.7999995
vt 1 0.8099995
vt 0 0.8099995
vt 1 0.8199995
vt 0 0.8199995
vt 1 0.8299995
vt 0 0.8299995
vt 1 0.8399995
vt 0 0.8399995
vt 1 0.8499995
vt 0 0.8499995
vt 1 0.8599995
vt 0 0.8599995
vt 1 0.8699995
vt 0 0.8699995
vt 1 0.8799995
vt 0 0.8799995
vt 1 0.8899994
vt 0 0.8899994
vt 1 0.8999994
vt 0 0.8999994
vt 1 0.9099994
vt 0 0.9099994
vt 1 0.9199994
vt 0 0.9199994
vt 1 0.9299994
vt 0 0.9299994
vt 1 0.9399994
vt 0 0.9399994
vt 1 0.9499994
vt 0 0.9499994
vt 1 0.9599994
vt 0 0.9599994
vt 1 0.9699994
vt 0 0.9699994
vt 1 0.9799994
vt 0 0.9799994
vt 1 0.9899994
vt 0 0.9899994
vt 1 0.9999993
vt 0 0.9999993
vn 0.9174936 0.02389469 -0.3970322
vn 0.9148466 0.02436587 -0.4030658
vn 0.9174936 0.02389469 -0.3970322
vn 0.9148632 0.02436294 -0.4030283
vn 0.8914596 0.02603497 -0.4523516
vn 0.8917701 0.02601739 -0.4517401
vn 0.8286085 0.02131169 -0.5594228
vn 0.8295265 0.02142522 -0.5580562
vn 0.7070641 -0.00930088 -0.7070883
vn 0.7108639 -0.008180579 -0.7032821
vn 0.5048673 -0.09551626 -0.8578961
vn 0.515339 -0.09063042 -0.8521807
vn 0.2556549 -0.2395911 -0.9366091
vn 0.263296 -0.2348039 -0.9357042
vn 0.04960991 -0.3747283 -0.9258064
vn 0.05460522 -0.3712632 -0.9269207
vn -0.0835207 -0.4814005 -0.8725124
vn -0.08024077 -0.4783572 -0.8744918
vn -0.1652743 -0.5829887 -0.7954927
vn -0.1629894 -0.5792302 -0.7987032
vn -0.1974283 -0.684517 -0.7017539
vn -0.1970677 -0.6806224 -0.7056327
vn -0.1987409 -0.7757092 -0.5989802
vn -0.1987303 -0.7758856 -0.5987551
vn -0.2001066 -0.8342732 -0.5137564
vn -0.2000497 -0.8339544 -0.5142958
vn -0.2029925 -0.8608968 -0.4665305
vn -0.2029935 -0.8607339 -0.4668305
vn -0.2006 -0.8732367 -0.4440916
vn -0.2006449 -0.8731536 -0.4442347
vn -0.1947031 -0.876949 -0.439376
vn -0.1948044 -0.8769443 -0.4393405
vn -0.1862308 -0.872825 -0.4511037
vn -0.1864244 -0.8729864 -0.4507113
vn -0.1766833 -0.8580015 -0.4823033
vn -0.1770114 -0.8587062 -0.4809269
vn -0.1708479 -0.8236655 -0.5407274
vn -0.1710566 -0.8266833 -0.5360358
vn -0.1869482 -0.754752 -0.6288082
vn -0.1837527 -0.7646545 -0.617688
vn -0.2317705 -0.6781514 -0.6974189
vn -0.2223532 -0.6908994 -0.6879078
vn -0.2697876 -0.6407607 -0.7187769
vn -0.2659407 -0.6437789 -0.7175125
vn -0.3022996 -0.616621 -0.7269068
vn -0.3011425 -0.6174404 -0.7266915
vn -0.330136 -0.5974776 -0.7307741
vn -0.3296067 -0.5978308 -0.7307241
vn -0.3538595 -0.5818642 -0.7322688
vn -0.3535559 -0.5820612 -0.7322588
vn -0.3750303 -0.5681535 -0.7324983
vn -0.3748212 -0.5682887 -0.7325005
vn -0.3950525 -0.5551072 -0.7319764
vn -0.3948819 -0.5552194 -0.7319835
vn -0.4152381 -0.5416519 -0.7308834
vn -0.4150728 -0.5417637 -0.7308944
vn -0.4370225 -0.5266244 -0.7291625
vn -0.4368308 -0.5267593 -0.7291801
vn -0.4622987 -0.5084385 -0.726478
vn -0.462027 -0.5086383 -0.7265109
vn -0.4967129 -0.4844838 -0.7201054
vn -0.4961717 -0.4848528 -0.72023
vn -0.5479292 -0.4528419 -0.7033546
vn -0.5470235 -0.4533804 -0.7037127
vn -0.6032293 -0.4209274 -0.677447
vn -0.6024587 -0.4213593 -0.6778643
vn -0.647972 -0.3963306 -0.6504264
vn -0.6473151 -0.3966818 -0.6508661
vn -0.6816461 -0.3795268 -0.6255541
vn -0.6810682 -0.37979 -0.6260237
vn -0.7059126 -0.370466 -0.6036904
vn -0.7054048 -0.3706043 -0.6041991
vn -0.7213967 -0.3694019 -0.5857721
vn -0.7210006 -0.3693131 -0.5863155
vn -0.7274801 -0.3769459 -0.5733103
vn -0.7273894 -0.3763574 -0.5738117
vn -0.7217112 -0.3939126 -0.56918
vn -0.7226679 -0.3921354 -0.5691932
vn -0.7089954 -0.4129793 -0.5716411
vn -0.7106041 -0.4108641 -0.5711676
vn -0.7188085 -0.4295455 -0.5466306
vn -0.7144859 -0.4265519 -0.5545838
vn -0.7349108 -0.4420828 -0.5142655
vn -0.7301384 -0.4381702 -0.5243136
vn -0.7368063 -0.4465863 -0.507619
vn -0.7366861 -0.446128 -0.5081963
vn -0.7344519 -0.4497665 -0.5082229
vn -0.7346281 -0.4497314 -0.5079991
vn -0.7257414 -0.4474526 -0.5225758
vn -0.7259591 -0.4475501 -0.52219
vn -0.7104475 -0.438289 -0.5506063
vn -0.7106604 -0.4384337 -0.550216
vn -0.6866396 -0.4206828 -0.5929182
vn -0.6868078 -0.4208125 -0.5926314
vn -0.6500578 -0.3922764 -0.6508027
vn -0.6500607 -0.3922785 -0.6507986
vn -0.6011055 -0.3415064 -0.7225273
vn -0.6018131 -0.3423693 -0.7215291
vn -0.5552943 -0.2732181 -0.7854935
vn -0.5558307 -0.2741882 -0.7847758
vn -0.5222215 -0.2123498 -0.8259493
vn -0.5225602 -0.2129938 -0.8255692
vn -0.5009688 -0.169944 -0.8486161
vn -0.5011579 -0.1703528 -0.8484224
vn -0.4910586 -0.1449008 -0.8589908
vn -0.4911183 -0.1451193 -0.8589197
vn -0.4921382 -0.1369494 -0.8596772
vn -0.4920473 -0.1369485 -0.8597293
vn -0.5041742 -0.1475413 -0.8509055
vn -0.5038518 -0.1471696 -0.8511606
vn -0.5272433 -0.180639 -0.8302915
vn -0.5265062 -0.1794634 -0.8310139
vn -0.559444 -0.2523298 -0.7895265
vn -0.5575736 -0.2472544 -0.79245
vn -0.5820398 -0.3888834 -0.7141423
vn -0.5808046 -0.3697773 -0.7252108
vn -0.5703703 -0.5150048 -0.639881
vn -0.5739117 -0.4982971 -0.6498656
vn -0.5528676 -0.5662884 -0.6112731
vn -0.5537951 -0.5646117 -0.6119841
vn -0.5484927 -0.5539342 -0.6263488
vn -0.5484096 -0.554785 -0.6256681
vn -0.5620207 -0.4648538 -0.6841372
vn -0.5620652 -0.464542 -0.6843125
vn -0.5748712 -0.2940647 -0.7635765
vn -0.5749198 -0.2900992 -0.7650554
vn -0.5608773 -0.083337 -0.8236939
vn -0.5603343 -0.07957138 -0.8244355
vn -0.5331512 0.07394893 -0.8427819
vn -0.5329549 0.07492349 -0.8428199
vn -0.5144548 0.1660678 -0.8412833
vn -0.5144215 0.1662368 -0.8412704
vn -0.5003867 0.2306852 -0.8345044
vn -0.5003632 0.2307831 -0.8344913
vn -0.4881998 0.2785202 -0.8270957
vn -0.4881842 0.2785777 -0.8270857
vn -0.4783725 0.3130752 -0.8204533
vn -0.4783624 0.3131092 -0.8204462
vn -0.4710102 0.3369337 -0.8152453
vn -0.471004 0.3369534 -0.8152409
vn -0.4660639 0.3519026 -0.8117567
vn -0.4660604 0.3519127 -0.8117543
vn -0.4634335 0.359182 -0.8100727
vn -0.4634321 0.3591853 -0.810072
vn -0.4630154 0.3594974 -0.8101718
vn -0.4630159 0.3594951 -0.8101725
vn -0.46458 0.3538293 -0.8117698
vn -0.4645627 0.3538879 -0.8117542
vn -0.4662759 0.3479473 -0.8133386
vn -0.4662535 0.3480278 -0.8133169
vn -0.4667261 0.3462378 -0.8138096
vn -0.4667274 0.3462363 -0.8138096
vn -0.4663586 0.3474345 -0.8135102
vn -0.4663647 0.3474137 -0.8135157
vn -0.4654614 0.3505917 -0.8126691
vn -0.4654647 0.35058 -0.8126723
vn -0.4640289 0.3556356 -0.8112956
vn -0.4640249 0.3556495 -0.8112918
vn -0.4619527 0.3626528 -0.8093718
vn -0.4619346 0.3627128 -0.8093552
vn -0.4590153 0.3718722 -0.8068557
vn -0.4589679 0.3720156 -0.8068165
vn -0.4548433 0.3836847 -0.8036813
vn -0.4547292 0.3839927 -0.8035988
vn -0.4488259 0.3986505 -0.7997707
vn -0.4485326 0.3993379 -0.7995923
vn -0.4399625 0.4175053 -0.7950613
vn -0.4389844 0.4194428 -0.794582
vn -0.4266138 0.4410994 -0.7895771
vn -0.4241762 0.4450538 -0.7886708
vn -0.4061686 0.470091 -0.783608
vn -0.402581 0.4746772 -0.7826941
vn -0.3748814 0.5042927 -0.7779156
vn -0.3733538 0.5057695 -0.7776915
vn -0.3377841 0.5357876 -0.7738434
vn -0.3353883 0.5375478 -0.7736648
vn -0.3035447 0.5592703 -0.7714126
vn -0.2998039 0.5616432 -0.7711513
vn -0.2697652 0.5781642 -0.7700344
vn -0.2658832 0.5800655 -0.7699546
vn -0.2347884 0.5930263 -0.770191
vn -0.2303231 0.5946444 -0.7702917
vn -0.2000498 0.6036552 -0.7717386
vn -0.1943253 0.6050814 -0.7720843
vn -0.1667802 0.6103069 -0.7744094
vn -0.1585958 0.6115153 -0.775175
vn -0.1358583 0.6135479 -0.7778828
vn -0.1244924 0.6141869 -0.7792793
vn -0.1077722 0.6140819 -0.7818495
vn -0.1003871 0.6139029 -0.7829722
vn -0.08267789 0.6126071 -0.7860515
vn -0.07934982 0.6122838 -0.7866461
vn -0.06049642 0.6097326 -0.7902951
vn -0.05868644 0.6094353 -0.7906608
vn -0.0410183 0.6059479 -0.7944461
vn -0.03992612 0.6057011 -0.7946899
vn -0.02514023 0.6019452 -0.7981415
vn -0.02467352 0.6018132 -0.7982557
vn -0.01773934 0.5998054 -0.7999493
vn -0.01771976 0.5997991 -0.7999544
vn -0.01685956 0.5995275 -0.8001765
vn -0.01685956 0.5995275 -0.8001765
g Plane003_0
f 3/3/3 2/2/2 1/1/1
f 2/2/2 4/4/4 1/1/1
f 2/2/2 5/5/5 4/4/4
f 5/5/5 6/6/6 4/4/4
f 5/5/5 7/7/7 6/6/6
f 7/7/7 8/8/8 6/6/6
f 7/7/7 9/9/9 8/8/8
f 9/9/9 10/10/10 8/8/8
f 9/9/9 11/11/11 10/10/10
f 11/11/11 12/12/12 10/10/10
f 11/11/11 13/13/13 12/12/12
f 13/13/13 14/14/14 12/12/12
f 13/13/13 15/15/15 14/14/14
f 15/15/15 16/16/16 14/14/14
f 15/15/15 17/17/17 16/16/16
f 17/17/17 18/18/18 16/16/16
f 17/17/17 19/19/19 18/18/18
f 19/19/19 20/20/20 18/18/18
f 19/19/19 21/21/21 20/20/20
f 21/21/21 22/22/22 20/20/20
f 21/21/21 23/23/23 22/22/22
f 23/23/23 24/24/24 22/22/22
f 23/23/23 25/25/25 24/24/24
f 25/25/25 26/26/26 24/24/24
f 25/25/25 27/27/27 26/26/26
f 27/27/27 28/28/28 26/26/26
f 27/27/27 29/29/29 28/28/28
f 29/29/29 30/30/30 28/28/28
f 29/29/29 31/31/31 30/30/30
f 31/31/31 32/32/32 30/30/30
f 31/31/31 33/33/33 32/32/32
f 33/33/33 34/34/34 32/32/32
f 33/33/33 35/35/35 34/34/34
f 35/35/35 36/36/36 34/34/34
f 35/35/35 37/37/37 36/36/36
f 37/37/37 38/38/38 36/36/36
f 37/37/37 39/39/39 38/38/38
f 39/39/39 40/40/40 38/38/38
f 39/39/39 41/41/41 40/40/40
f 41/41/41 42/42/42 40/40/40
f 41/41/41 43/43/43 42/42/42
f 43/43/43 44/44/44 42/42/42
f 43/43/43 45/45/45 44/44/44
f 45/45/45 46/46/46 44/44/44
f 45/45/45 47/47/47 46/46/46
f 47/47/47 48/48/48 46/46/46
f 47/47/47 49/49/49 48/48/48
f 49/49/49 50/50/50 48/48/48
f 49/49/49 51/51/51 50/50/50
f 51/51/51 52/52/52 50/50/50
f 51/51/51 53/53/53 52/52/52
f 53/53/53 54/54/54 52/52/52
f 53/53/53 55/55/55 54/54/54
f 55/55/55 56/56/56 54/54/54
f 55/55/55 57/57/57 56/56/56
f 57/57/57 58/58/58 56/56/56
f 57/57/57 59/59/59 58/58/58
f 59/59/59 60/60/60 58/58/58
f 59/59/59 61/61/61 60/60/60
f 61/61/61 62/62/62 60/60/60
f 61/61/61 63/63/63 62/62/62
f 63/63/63 64/64/64 62/62/62
f 63/63/63 65/65/65 64/64/64
f 65/65/65 66/66/66 64/64/64
f 65/65/65 67/67/67 66/66/66
f 67/67/67 68/68/68 66/66/66
f 67/67/67 69/69/69 68/68/68
f 69/69/69 70/70/70 68/68/68
f 69/69/69 71/71/71 70/70/70
f 71/71/71 72/72/72 70/70/70
f 71/71/71 73/73/73 72/72/72
f 73/73/73 74/74/74 72/72/72
f 73/73/73 75/75/75 74/74/74
f 75/75/75 76/76/76 74/74/74
f 75/75/75 77/77/77 76/76/76
f 77/77/77 78/78/78 76/76/76
f 77/77/77 79/79/79 78/78/78
f 79/79/79 80/80/80 78/78/78
f 79/79/79 81/81/81 80/80/80
f 81/81/81 82/82/82 80/80/80
f 81/81/81 83/83/83 82/82/82
f 83/83/83 84/84/84 82/82/82
f 83/83/83 85/85/85 84/84/84
f 85/85/85 86/86/86 84/84/84
f 85/85/85 87/87/87 86/86/86
f 87/87/87 88/88/88 86/86/86
f 87/87/87 89/89/89 88/88/88
f 89/89/89 90/90/90 88/88/88
f 89/89/89 91/91/91 90/90/90
f 91/91/91 92/92/92 90/90/90
f 91/91/91 93/93/93 92/92/92
f 93/93/93 94/94/94 92/92/92
f 93/93/93 95/95/95 94/94/94
f 95/95/95 96/96/96 94/94/94
f 95/95/95 97/97/97 96/96/96
f 97/97/97 98/98/98 96/96/96
f 97/97/97 99/99/99 98/98/98
f 99/99/99 100/100/100 98/98/98
f 99/99/99 101/101/101 100/100/100
f 101/101/101 102/102/102 100/100/100
f 101/101/101 103/103/103 102/102/102
f 103/103/103 104/104/104 102/102/102
f 103/103/103 105/105/105 104/104/104
f 105/105/105 106/106/106 104/104/104
f 105/105/105 107/107/107 106/106/106
f 107/107/107 108/108/108 106/106/106
f 107/107/107 109/109/109 108/108/108
f 109/109/109 110/110/110 108/108/108
f 109/109/109 111/111/111 110/110/110
f 111/111/111 112/112/112 110/110/110
f 111/111/111 113/113/113 112/112/112
f 113/113/113 114/114/114 112/112/112
f 113/113/113 115/115/115 114/114/114
f 115/115/115 116/116/116 114/114/114
f 115/115/115 117/117/117 116/116/116
f 117/117/117 118/118/118 116/116/116
f 117/117/117 119/119/119 118/118/118
f 119/119/119 120/120/120 118/118/118
f 119/119/119 121/121/121 120/120/120
f 121/121/121 122/122/122 120/120/120
f 121/121/121 123/123/123 122/122/122
f 123/123/123 124/124/124 122/122/122
f 123/123/123 125/125/125 124/124/124
f 125/125/125 126/126/126 124/124/124
f 125/125/125 127/127/127 126/126/126
f 127/127/127 128/128/128 126/126/126
f 127/127/127 129/129/129 128/128/128
f 129/129/129 130/130/130 128/128/128
f 129/129/129 131/131/131 130/130/130
f 131/131/131 132/132/132 130/130/130
f 131/131/131 133/133/133 132/132/132
f 133/133/133 134/134/134 132/132/132
f 133/133/133 135/135/135 134/134/134
f 135/135/135 136/136/136 134/134/134
f 135/135/135 137/137/137 136/136/136
f 137/137/137 138/138/138 136/136/136
f 137/137/137 139/139/139 138/138/138
f 139/139/139 140/140/140 138/138/138
f 139/139/139 141/141/141 140/140/140
f 141/141/141 142/142/142 140/140/140
f 141/141/141 143/143/143 142/142/142
f 143/143/143 144/144/144 142/142/142
f 143/143/143 145/145/145 144/144/144
f 145/145/145 146/146/146 144/144/144
f 145/145/145 147/147/147 146/146/146
f 147/147/147 148/148/148 146/146/146
f 147/147/147 149/149/149 148/148/148
f 149/149/149 150/150/150 148/148/148
f 149/149/149 151/151/151 150/150/150
f 151/151/151 152/152/152 150/150/150
f 151/151/151 153/153/153 152/152/152
f 153/153/153 154/154/154 152/152/152
f 153/153/153 155/155/155 154/154/154
f 155/155/155 156/156/156 154/154/154
f 155/155/155 157/157/157 156/156/156
f 157/157/157 158/158/158 156/156/156
f 157/157/157 159/159/159 158/158/158
f 159/159/159 160/160/160 158/158/158
f 159/159/159 161/161/161 160/160/160
f 161/161/161 162/162/162 160/160/160
f 161/161/161 163/163/163 162/162/162
f 163/163/163 164/164/164 162/162/162
f 163/163/163 165/165/165 164/164/164
f 165/165/165 166/166/166 164/164/164
f 165/165/165 167/167/167 166/166/166
f 167/167/167 168/168/168 166/166/166
f 167/167/167 169/169/169 168/168/168
f 169/169/169 170/170/170 168/168/168
f 169/169/169 171/171/171 170/170/170
f 171/171/171 172/172/172 170/170/170
f 171/171/171 173/173/173 172/172/172
f 173/173/173 174/174/174 172/172/172
f 173/173/173 175/175/175 174/174/174
f 175/175/175 176/176/176 174/174/174
f 175/175/175 177/177/177 176/176/176
f 177/177/177 178/178/178 176/176/176
f 177/177/177 179/179/179 178/178/178
f 179/179/179 180/180/180 178/178/178
f 179/179/179 181/181/181 180/180/180
f 181/181/181 182/182/182 180/180/180
f 181/181/181 183/183/183 182/182/182
f 183/183/183 184/184/184 182/182/182
f 183/183/183 185/185/185 184/184/184
f 185/185/185 186/186/186 184/184/184
f 185/185/185 187/187/187 186/186/186
f 187/187/187 188/188/188 186/186/186
f 187/187/187 189/189/189 188/188/188
f 189/189/189 190/190/190 188/188/188
f 189/189/189 191/191/191 190/190/190
f 191/191/191 192/192/192 190/190/190
f 191/191/191 193/193/193 192/192/192
f 193/193/193 194/194/194 192/192/192
f 193/193/193 195/195/195 194/194/194
f 195/195/195 196/196/196 194/194/194
f 195/195/195 197/197/197 196/196/196
f 197/197/197 198/198/198 196/196/196
f 197/197/197 199/199/199 198/198/198
f 199/199/199 200/200/200 198/198/198
f 199/199/199 201/201/201 200/200/200
f 201/201/201 202/202/202 200/200/200
