g Plane003
v -0.3029308 7.303574E-09 0.2030741
v 0.3029308 -7.303574E-09 -0.2030741
v 0.3029308 7.303574E-09 0.2030741
v -0.3029308 -7.303574E-09 -0.2030741
v -0.3029308 0.1009205 -4.778137E-08
v 0.3029308 -0.1009205 4.778137E-08
v 0.3029308 0.1009205 -4.778137E-08
v -0.3029308 -0.1009205 4.778137E-08
vt 0 0
vt 1 1
vt 1 0
vt 0 1
vt 0 0
vt 1 1
vt 1 0
vt 0 1
vn 0 1 0
vn 0 1 0
vn 0 1 0
vn 0 1 0
vn 0 -4.734557E-07 -1
vn 0 -4.734557E-07 -1
vn 0 -4.734557E-07 -1
vn 0 -4.734557E-07 -1
g Plane003_0
f 3/3/3 2/2/2 1/1/1
f 4/4/4 1/1/1 2/2/2
f 7/7/7 6/6/6 5/5/5
f 8/8/8 5/5/5 6/6/6
