g polySurface5
v 0.2279217 0.05249936 0.09175686
v 0.2227841 0.05806426 0.1540746
v 0.19517 0.1248328 0.1458357
v 0.2003076 0.1192678 0.08351795
v 0.1481998 0.1796541 0.1370679
v 0.1533374 0.1740892 0.07475016
v 0.08647142 0.2171621 0.1286295
v 0.09160902 0.2115971 0.0663117
v 0.01602712 0.233685 0.1213464
v 0.02116472 0.2281201 0.05902866
v -0.05623748 0.2276056 0.1159316
v -0.05109987 0.2220407 0.05361387
v -0.1232486 0.199519 0.1129152
v -0.118111 0.1939541 0.05059746
v -0.1784467 0.1521744 0.1125924
v -0.1733091 0.1466095 0.05027464
v -0.2164287 0.09020628 0.1149948
v -0.2112911 0.08464137 0.05267699
v -0.2334766 0.01968053 0.1198872
v -0.228339 0.01411561 0.05756941
v -0.2279216 -0.05249933 0.1267907
v -0.222784 -0.05806423 0.06447295
v -0.2003075 -0.1192678 0.1350296
v -0.1951699 -0.1248327 0.07271187
v -0.1533374 -0.1740891 0.1437975
v -0.1481998 -0.179654 0.08147967
v -0.091609 -0.2115971 0.1522359
v -0.08647139 -0.217162 0.08991808
v -0.02116473 -0.22812 0.1595189
v -0.01602713 -0.2336849 0.09720115
v 0.05109982 -0.2220406 0.1649337
v 0.05623743 -0.2276056 0.1026159
v 0.1181109 -0.193954 0.1679501
v 0.1232485 -0.1995189 0.1056324
v 0.1733091 -0.1466094 0.1682729
v 0.1784467 -0.1521743 0.1059552
v 0.211291 -0.08464134 0.1658706
v 0.2164286 -0.09020626 0.1035528
v 0.2283389 -0.0141156 0.1609782
v 0.2334765 -0.01968052 0.09866041
v 0.2227841 0.05806426 0.1540746
v 0.2279217 0.05249936 0.09175686
v 0.1006886 -0.1324015 0.01193149
v 0.1006886 -0.1414022 0.06614879
v 0.1386446 -0.1040073 0.07235676
v 0.1386446 -0.09500661 0.01813948
v 0.163029 -0.05687203 0.08018178
v 0.163029 -0.04787134 0.02596448
v 0.171455 -0.004610233 0.08885785
v 0.171455 0.004390466 0.03464055
v 0.1630978 0.0476623 0.09753571
v 0.1630978 0.05666301 0.04331841
v 0.1387755 0.09482881 0.1053659
v 0.1387755 0.1038295 0.05114859
v 0.1008688 0.1322723 0.1115819
v 0.1008688 0.141273 0.05736464
v 0.05308844 0.1563275 0.1155754
v 0.05308844 0.1653282 0.06135809
v 0.0001113844 0.1646397 0.1169553
v 0.0001113844 0.1736404 0.06273802
v -0.05287656 0.1563954 0.1155867
v -0.05287656 0.1653961 0.06136936
v -0.1006886 0.1324014 0.1116034
v -0.1006886 0.1414021 0.05738608
v -0.1386445 0.09500658 0.1053954
v -0.1386445 0.1040073 0.0511781
v -0.1630289 0.04787131 0.0975704
v -0.1630289 0.05687201 0.0433531
v -0.1714549 -0.004390468 0.08889433
v -0.1714549 0.004610238 0.03467704
v -0.1630978 -0.05666299 0.08021648
v -0.1630978 -0.04766229 0.02599918
v -0.1387754 -0.1038295 0.07238629
v -0.1387754 -0.09482878 0.018169
v -0.1008688 -0.1412729 0.06617025
v -0.1008688 -0.1322722 0.01195295
v -0.05308843 -0.1653281 0.06217681
v -0.05308843 -0.1563274 0.007959508
v -0.0001113892 -0.1736404 0.06079686
v -0.0001113892 -0.1646397 0.00657957
v 0.05287655 -0.165396 0.06216554
v 0.05287655 -0.1563953 0.007948226
v 0.1006886 -0.1414022 0.06614879
v 0.1006886 -0.1324015 0.01193149
v 0.07312824 -0.09434779 -0.00673646
v 0.06149265 -0.09434777 0.05611808
v 0.08686624 -0.0685766 0.06081522
v 0.09850182 -0.0685766 -0.002039328
v 0.1031673 -0.03609266 0.06383286
v 0.1148028 -0.03609266 0.0009783077
v 0.1088 -7.572651E-05 0.0648756
v 0.1204356 -7.572651E-05 0.002021047
v 0.1032133 0.03594862 0.06384137
v 0.1148489 0.03594862 0.000986824
v 0.08695376 0.06845406 0.06083142
v 0.09858934 0.06845406 -0.00202312
v 0.06161312 0.09425873 0.05614038
v 0.0732487 0.09425873 -0.006714163
v 0.02967188 0.1108367 0.05022745
v 0.04130746 0.1108367 -0.0126271
v -0.005743331 0.1165652 0.04367141
v 0.00589225 0.1165652 -0.01918313
v -0.04116583 0.1108835 0.03711403
v -0.02953024 0.1108835 -0.02574052
v -0.07312821 0.09434773 0.03119718
v -0.06149262 0.09434772 -0.03165736
v -0.09850178 0.06857657 0.02650005
v -0.08686619 0.06857657 -0.0363545
v -0.1148028 0.03609264 0.02348242
v -0.1031672 0.03609265 -0.03937213
v -0.1204356 7.573127E-05 0.02243967
v -0.1088 7.572531E-05 -0.04041488
v -0.1148488 -0.0359486 0.0234739
v -0.1032132 -0.0359486 -0.03938064
v -0.0985893 -0.06845403 0.02648384
v -0.08695372 -0.06845403 -0.03637069
v -0.07324868 -0.09425869 0.03117488
v -0.06161309 -0.09425869 -0.03167967
v -0.04130746 -0.1108367 0.03708781
v -0.02967187 -0.1108367 -0.02576673
v -0.005892252 -0.1165652 0.04364385
v 0.005743329 -0.1165652 -0.0192107
v 0.02953024 -0.1108835 0.05020123
v 0.04116582 -0.1108835 -0.01265331
v 0.06149265 -0.09434777 0.05611808
v 0.07312824 -0.09434779 -0.00673646
vt 0.5 -0.992061
vt 0.3 -0.9920613
vt 0.3 -0.8924292
vt 0.5 -0.8924292
vt 0.3 -0.7927974
vt 0.5 -0.7927972
vt 0.3 -0.6931651
vt 0.5 -0.6931648
vt 0.3 -0.5935329
vt 0.5 -0.5935329
vt 0.3 -0.493901
vt 0.5 -0.4939011
vt 0.3 -0.3942691
vt 0.5 -0.3942692
vt 0.3 -0.294637
vt 0.5 -0.2946365
vt 0.3 -0.1950051
vt 0.5 -0.1950051
vt 0.3 -0.09537292
vt 0.5 -0.09537277
vt 0.3 0.004258931
vt 0.5 0.00425896
vt 0.3 0.1038912
vt 0.5 0.1038912
vt 0.3 0.203523
vt 0.5 0.203523
vt 0.3 0.303156
vt 0.5 0.3031557
vt 0.3 0.4027874
vt 0.5 0.4027873
vt 0.3 0.5024193
vt 0.5 0.5024191
vt 0.3 0.6020512
vt 0.5 0.6020509
vt 0.3 0.7016835
vt 0.5 0.701683
vt 0.3 0.8013161
vt 0.5 0.8013153
vt 0.3 0.9009474
vt 0.5 0.9009474
vt 0.3 1.00058
vt 0.5 1.000579
vt 0.7 -0.992061
vt 0.5 -0.9920613
vt 0.5 -0.8924292
vt 0.7 -0.8924292
vt 0.5 -0.7927974
vt 0.7 -0.7927972
vt 0.5 -0.6931651
vt 0.7 -0.6931648
vt 0.5 -0.5935329
vt 0.7 -0.5935329
vt 0.5 -0.493901
vt 0.7 -0.4939011
vt 0.5 -0.3942691
vt 0.7 -0.3942692
vt 0.5 -0.294637
vt 0.7 -0.2946365
vt 0.5 -0.1950051
vt 0.7 -0.1950051
vt 0.5 -0.09537292
vt 0.7 -0.09537277
vt 0.5 0.004258931
vt 0.7 0.00425896
vt 0.5 0.1038912
vt 0.7 0.1038912
vt 0.5 0.203523
vt 0.7 0.203523
vt 0.5 0.303156
vt 0.7 0.3031557
vt 0.5 0.4027874
vt 0.7 0.4027873
vt 0.5 0.5024193
vt 0.7 0.5024191
vt 0.5 0.6020512
vt 0.7 0.6020509
vt 0.5 0.7016835
vt 0.7 0.701683
vt 0.5 0.8013161
vt 0.7 0.8013153
vt 0.5 0.9009474
vt 0.7 0.9009474
vt 0.5 1.00058
vt 0.7 1.000579
vt 1 0.003465094
vt 0.8 0.003464974
vt 0.8 0.05292363
vt 1 0.05292363
vt 0.8 0.1023822
vt 1 0.1023823
vt 0.8 0.151841
vt 1 0.1518411
vt 0.8 0.2012997
vt 1 0.2012997
vt 0.8 0.2507583
vt 1 0.2507583
vt 0.8 0.3002169
vt 1 0.3002169
vt 0.8 0.3496756
vt 1 0.3496758
vt 0.8 0.3991342
vt 1 0.3991342
vt 0.8 0.4485929
vt 1 0.448593
vt 0.8 0.4980514
vt 1 0.4980515
vt 0.8 0.5475103
vt 1 0.5475103
vt 0.8 0.5969688
vt 1 0.5969688
vt 0.8 0.646428
vt 1 0.6464278
vt 0.8 0.6958863
vt 1 0.6958863
vt 0.8 0.7453449
vt 1 0.7453448
vt 0.8 0.7948034
vt 1 0.7948033
vt 0.8 0.8442622
vt 1 0.844262
vt 0.8 0.8937212
vt 1 0.8937208
vt 0.8 0.9431795
vt 1 0.9431795
vt 0.8 0.9926385
vt 1 0.9926382
vn 0.9695303 0.2378366 0.05869166
vn 0.9695303 0.2378366 0.05869165
vn 0.8507265 0.5250942 0.02324548
vn 0.8507265 0.5250942 0.02324549
vn 0.6486481 0.7609508 -0.01447599
vn 0.6486481 0.7609507 -0.01447599
vn 0.3830754 0.9223202 -0.05078058
vn 0.3830754 0.9223202 -0.05078058
vn 0.08000478 0.9934065 -0.08211435
vn 0.08000474 0.9934065 -0.08211438
vn -0.2308975 0.9672513 -0.1054103
vn -0.2308975 0.9672513 -0.1054103
vn -0.5191981 0.8464146 -0.1183879
vn -0.519198 0.8464146 -0.1183879
vn -0.7566756 0.6427251 -0.1197766
vn -0.7566755 0.6427251 -0.1197766
vn -0.9200844 0.3761216 -0.1094409
vn -0.9200844 0.3761216 -0.1094409
vn -0.9934291 0.07270012 -0.0883924
vn -0.9934291 0.07270011 -0.08839239
vn -0.9695301 -0.2378377 -0.05869143
vn -0.9695301 -0.2378377 -0.05869142
vn -0.8507267 -0.5250941 -0.0232453
vn -0.8507267 -0.5250942 -0.0232453
vn -0.6486482 -0.7609507 0.01447617
vn -0.6486481 -0.7609507 0.01447617
vn -0.3830755 -0.9223202 0.05078072
vn -0.3830755 -0.9223202 0.05078072
vn -0.08000487 -0.9934064 0.08211469
vn -0.08000486 -0.9934064 0.08211468
vn 0.2308972 -0.9672513 0.1054104
vn 0.2308973 -0.9672513 0.1054104
vn 0.5191979 -0.8464147 0.1183877
vn 0.5191978 -0.8464148 0.1183877
vn 0.7566754 -0.6427254 0.1197766
vn 0.7566754 -0.6427254 0.1197766
vn 0.9200844 -0.3761215 0.109441
vn 0.9200844 -0.3761216 0.109441
vn 0.993429 -0.07270127 0.08839262
vn 0.993429 -0.07270128 0.08839262
vn 0.9695303 0.2378366 0.05869165
vn 0.9695303 0.2378366 0.05869166
vn 0.5872586 -0.7984713 -0.1325554
vn 0.5872587 -0.7984712 -0.1325554
vn 0.8086349 -0.5803677 -0.09634778
vn 0.8086349 -0.5803677 -0.09634778
vn 0.9508556 -0.3054542 -0.05070893
vn 0.9508556 -0.3054543 -0.05070894
vn 0.9999998 -0.0006407205 -0.0001063415
vn 0.9999998 -0.0006407466 -0.0001063442
vn 0.9512571 0.3042354 0.05050664
vn 0.9512571 0.3042355 0.05050665
vn 0.8093986 0.5793307 0.09617561
vn 0.8093986 0.5793307 0.09617561
vn 0.5883105 0.7977173 0.1324303
vn 0.5883105 0.7977174 0.1324303
vn 0.3096346 0.9380177 0.1557217
vn 0.3096346 0.9380177 0.1557217
vn 0.0006497174 0.9864984 0.1637701
vn 0.0006497175 0.9864984 0.1637701
vn -0.3083991 0.9384137 0.1557876
vn -0.3083991 0.9384137 0.1557876
vn -0.5872596 0.7984705 0.1325555
vn -0.5872597 0.7984705 0.1325555
vn -0.8086351 0.5803674 0.09634781
vn -0.8086351 0.5803674 0.09634782
vn -0.9508556 0.3054542 0.05070896
vn -0.9508556 0.3054542 0.05070896
vn -0.9999998 0.000640997 0.0001063937
vn -0.9999998 0.0006410076 0.0001063963
vn -0.9512572 -0.3042352 -0.05050653
vn -0.9512571 -0.3042352 -0.05050653
vn -0.8093987 -0.5793307 -0.09617535
vn -0.8093987 -0.5793308 -0.09617537
vn -0.5883107 -0.7977173 -0.13243
vn -0.5883105 -0.7977173 -0.13243
vn -0.3096347 -0.9380177 -0.1557217
vn -0.3096347 -0.9380177 -0.1557216
vn -0.0006496446 -0.9864984 -0.1637702
vn -0.0006496396 -0.9864984 -0.1637702
vn 0.3083981 -0.9384139 -0.1557875
vn 0.3083981 -0.938414 -0.1557875
vn 0.5872587 -0.7984712 -0.1325554
vn 0.5872586 -0.7984713 -0.1325554
vn 0.5774478 -0.8093992 0.1068967
vn 0.5774479 -0.8093992 0.1068968
vn 0.7951257 -0.5883105 0.147193
vn 0.7951257 -0.5883105 0.147193
vn 0.9349702 -0.3096347 0.1730809
vn 0.9349702 -0.3096347 0.1730809
vn 0.9832934 -0.0006497838 0.1820265
vn 0.9832934 -0.000649764 0.1820265
vn 0.935365 0.308399 0.173154
vn 0.935365 0.3083991 0.173154
vn 0.7958764 0.5872597 0.147332
vn 0.7958764 0.5872597 0.147332
vn 0.5784819 0.8086352 0.1070881
vn 0.578482 0.8086352 0.1070881
vn 0.3044617 0.9508556 0.05636168
vn 0.3044617 0.9508556 0.05636168
vn 0.0006387357 0.9999998 0.0001182913
vn 0.000638729 0.9999998 0.0001182913
vn -0.3032469 0.9512571 -0.05613691
vn -0.3032469 0.9512571 -0.05613691
vn -0.5774485 0.8093986 -0.106897
vn -0.5774485 0.8093987 -0.106897
vn -0.7951256 0.5883107 -0.147193
vn -0.7951256 0.5883106 -0.147193
vn -0.9349702 0.3096348 -0.1730809
vn -0.9349702 0.3096348 -0.1730809
vn -0.9832934 0.0006496257 -0.1820265
vn -0.9832934 0.0006496126 -0.1820265
vn -0.9353649 -0.3083991 -0.173154
vn -0.9353649 -0.3083992 -0.173154
vn -0.7958766 -0.5872596 -0.147332
vn -0.7958764 -0.5872596 -0.147332
vn -0.5784822 -0.8086349 -0.1070882
vn -0.5784822 -0.8086349 -0.1070882
vn -0.3044621 -0.9508555 -0.05636182
vn -0.3044621 -0.9508555 -0.05636181
vn -0.0006387819 -0.9999998 -0.0001182073
vn -0.0006388017 -0.9999998 -0.0001182105
vn 0.303246 -0.9512573 0.0561368
vn 0.303246 -0.9512573 0.0561368
vn 0.5774479 -0.8093992 0.1068968
vn 0.5774478 -0.8093992 0.1068967
g polySurface5_0
f 3/3/3 2/2/2 1/1/1
f 4/4/4 3/3/3 1/1/1
f 5/5/5 3/3/3 4/4/4
f 6/6/6 5/5/5 4/4/4
f 7/7/7 5/5/5 6/6/6
f 8/8/8 7/7/7 6/6/6
f 9/9/9 7/7/7 8/8/8
f 10/10/10 9/9/9 8/8/8
f 11/11/11 9/9/9 10/10/10
f 12/12/12 11/11/11 10/10/10
f 13/13/13 11/11/11 12/12/12
f 14/14/14 13/13/13 12/12/12
f 15/15/15 13/13/13 14/14/14
f 16/16/16 15/15/15 14/14/14
f 17/17/17 15/15/15 16/16/16
f 18/18/18 17/17/17 16/16/16
f 19/19/19 17/17/17 18/18/18
f 20/20/20 19/19/19 18/18/18
f 21/21/21 19/19/19 20/20/20
f 22/22/22 21/21/21 20/20/20
f 23/23/23 21/21/21 22/22/22
f 24/24/24 23/23/23 22/22/22
f 25/25/25 23/23/23 24/24/24
f 26/26/26 25/25/25 24/24/24
f 27/27/27 25/25/25 26/26/26
f 28/28/28 27/27/27 26/26/26
f 29/29/29 27/27/27 28/28/28
f 30/30/30 29/29/29 28/28/28
f 31/31/31 29/29/29 30/30/30
f 32/32/32 31/31/31 30/30/30
f 33/33/33 31/31/31 32/32/32
f 34/34/34 33/33/33 32/32/32
f 35/35/35 33/33/33 34/34/34
f 36/36/36 35/35/35 34/34/34
f 37/37/37 35/35/35 36/36/36
f 38/38/38 37/37/37 36/36/36
f 39/39/39 37/37/37 38/38/38
f 40/40/40 39/39/39 38/38/38
f 41/41/41 39/39/39 40/40/40
f 42/42/42 41/41/41 40/40/40
f 45/45/45 44/44/44 43/43/43
f 46/46/46 45/45/45 43/43/43
f 47/47/47 45/45/45 46/46/46
f 48/48/48 47/47/47 46/46/46
f 49/49/49 47/47/47 48/48/48
f 50/50/50 49/49/49 48/48/48
f 51/51/51 49/49/49 50/50/50
f 52/52/52 51/51/51 50/50/50
f 53/53/53 51/51/51 52/52/52
f 54/54/54 53/53/53 52/52/52
f 55/55/55 53/53/53 54/54/54
f 56/56/56 55/55/55 54/54/54
f 57/57/57 55/55/55 56/56/56
f 58/58/58 57/57/57 56/56/56
f 59/59/59 57/57/57 58/58/58
f 60/60/60 59/59/59 58/58/58
f 61/61/61 59/59/59 60/60/60
f 62/62/62 61/61/61 60/60/60
f 63/63/63 61/61/61 62/62/62
f 64/64/64 63/63/63 62/62/62
f 65/65/65 63/63/63 64/64/64
f 66/66/66 65/65/65 64/64/64
f 67/67/67 65/65/65 66/66/66
f 68/68/68 67/67/67 66/66/66
f 69/69/69 67/67/67 68/68/68
f 70/70/70 69/69/69 68/68/68
f 71/71/71 69/69/69 70/70/70
f 72/72/72 71/71/71 70/70/70
f 73/73/73 71/71/71 72/72/72
f 74/74/74 73/73/73 72/72/72
f 75/75/75 73/73/73 74/74/74
f 76/76/76 75/75/75 74/74/74
f 77/77/77 75/75/75 76/76/76
f 78/78/78 77/77/77 76/76/76
f 79/79/79 77/77/77 78/78/78
f 80/80/80 79/79/79 78/78/78
f 81/81/81 79/79/79 80/80/80
f 82/82/82 81/81/81 80/80/80
f 83/83/83 81/81/81 82/82/82
f 84/84/84 83/83/83 82/82/82
f 87/87/87 86/86/86 85/85/85
f 88/88/88 87/87/87 85/85/85
f 89/89/89 87/87/87 88/88/88
f 90/90/90 89/89/89 88/88/88
f 91/91/91 89/89/89 90/90/90
f 92/92/92 91/91/91 90/90/90
f 93/93/93 91/91/91 92/92/92
f 94/94/94 93/93/93 92/92/92
f 95/95/95 93/93/93 94/94/94
f 96/96/96 95/95/95 94/94/94
f 97/97/97 95/95/95 96/96/96
f 98/98/98 97/97/97 96/96/96
f 99/99/99 97/97/97 98/98/98
f 100/100/100 99/99/99 98/98/98
f 101/101/101 99/99/99 100/100/100
f 102/102/102 101/101/101 100/100/100
f 103/103/103 101/101/101 102/102/102
f 104/104/104 103/103/103 102/102/102
f 105/105/105 103/103/103 104/104/104
f 106/106/106 105/105/105 104/104/104
f 107/107/107 105/105/105 106/106/106
f 108/108/108 107/107/107 106/106/106
f 109/109/109 107/107/107 108/108/108
f 110/110/110 109/109/109 108/108/108
f 111/111/111 109/109/109 110/110/110
f 112/112/112 111/111/111 110/110/110
f 113/113/113 111/111/111 112/112/112
f 114/114/114 113/113/113 112/112/112
f 115/115/115 113/113/113 114/114/114
f 116/116/116 115/115/115 114/114/114
f 117/117/117 115/115/115 116/116/116
f 118/118/118 117/117/117 116/116/116
f 119/119/119 117/117/117 118/118/118
f 120/120/120 119/119/119 118/118/118
f 121/121/121 119/119/119 120/120/120
f 122/122/122 121/121/121 120/120/120
f 123/123/123 121/121/121 122/122/122
f 124/124/124 123/123/123 122/122/122
f 125/125/125 123/123/123 124/124/124
f 126/126/126 125/125/125 124/124/124
