g RingWave001
v 0.384398 0.1248985 0
v 0.5 0 0
v 0.40418 -1.550102E-09 0
v 0.4755282 0.1545085 0
v 0.3269885 0.237571 0
v 0.4045085 0.2938926 0
v 0.237571 0.3269885 0
v 0.2938926 0.4045085 0
v 0.1248985 0.384398 0
v 0.1545085 0.4755282 0
v -1.855304E-08 0.40418 0
v -2.185569E-08 0.5 0
v -0.1248985 0.384398 0
v -0.1545086 0.4755282 0
v -0.237571 0.3269885 0
v -0.2938926 0.4045085 0
v -0.3269885 0.237571 0
v -0.4045085 0.2938926 0
v -0.384398 0.1248985 0
v -0.4755282 0.1545085 0
v -0.40418 -3.688464E-08 0
v -0.5 -4.371139E-08 0
v -0.384398 -0.1248986 0
v -0.4755282 -0.1545086 0
v -0.3269884 -0.2375712 0
v -0.4045084 -0.2938928 0
v -0.2375711 -0.3269884 0
v -0.2938927 -0.4045084 0
v -0.1248985 -0.384398 0
v -0.1545085 -0.4755282 0
v 3.934026E-09 -0.40418 0
v 5.96244E-09 -0.5 0
v 0.1248985 -0.384398 0
v 0.1545086 -0.4755282 0
v 0.2375711 -0.3269884 0
v 0.2938927 -0.4045084 0
v 0.3269884 -0.237571 0
v 0.4045085 -0.2938927 0
v 0.384398 -0.1248985 0
v 0.4755282 -0.1545085 0
v 0.40418 -1.550102E-09 0
v 0.5 0 0
vt 0.05 0.01
vt 0 0.99
vt 0 0.01
vt 0.05 0.99
vt 0.1 0.01
vt 0.1 0.99
vt 0.15 0.01
vt 0.15 0.99
vt 0.2 0.01
vt 0.2 0.99
vt 0.25 0.01
vt 0.25 0.99
vt 0.3 0.01
vt 0.3 0.99
vt 0.35 0.01
vt 0.35 0.99
vt 0.4 0.01
vt 0.4 0.99
vt 0.45 0.01
vt 0.45 0.99
vt 0.5 0.01
vt 0.5 0.99
vt 0.55 0.01
vt 0.55 0.99
vt 0.6 0.01
vt 0.6 0.99
vt 0.65 0.01
vt 0.65 0.99
vt 0.7 0.01
vt 0.7 0.99
vt 0.75 0.01
vt 0.75 0.99
vt 0.8 0.01
vt 0.8 0.99
vt 0.85 0.01
vt 0.85 0.99
vt 0.9 0.01
vt 0.9 0.99
vt 0.95 0.01
vt 0.95 0.99
vt 0.999 0.01
vt 0.999 0.99
vn 0 0 1
vn 0 0 1
vn 0 0 1
vn 0 0 1
vn 0 0 1
vn 0 0 1
vn 0 0 1
vn 0 0 1
vn 0 0 1
vn 0 0 1
vn 0 0 1
vn 0 0 1
vn 0 0 1
vn 0 0 1
vn 0 0 1
vn 0 0 1
vn 0 0 1
vn 0 0 1
vn 0 0 1
vn 0 0 1
vn 0 0 1
vn 0 0 1
vn 0 0 1
vn 0 0 1
vn 0 0 1
vn 0 0 1
vn 0 0 1
vn 0 0 1
vn 0 0 1
vn 0 0 1
vn 0 0 1
vn 0 0 1
vn 0 0 1
vn 0 0 1
vn 0 0 1
vn 0 0 1
vn 0 0 1
vn 0 0 1
vn 0 0 1
vn 0 0 1
vn 0 0 1
vn 0 0 1
g RingWave001_0
f 3/3/3 2/2/2 1/1/1
f 4/4/4 1/1/1 2/2/2
f 1/1/1 4/4/4 5/5/5
f 6/6/6 5/5/5 4/4/4
f 5/5/5 6/6/6 7/7/7
f 8/8/8 7/7/7 6/6/6
f 7/7/7 8/8/8 9/9/9
f 10/10/10 9/9/9 8/8/8
f 9/9/9 10/10/10 11/11/11
f 12/12/12 11/11/11 10/10/10
f 11/11/11 12/12/12 13/13/13
f 14/14/14 13/13/13 12/12/12
f 13/13/13 14/14/14 15/15/15
f 16/16/16 15/15/15 14/14/14
f 15/15/15 16/16/16 17/17/17
f 18/18/18 17/17/17 16/16/16
f 17/17/17 18/18/18 19/19/19
f 20/20/20 19/19/19 18/18/18
f 19/19/19 20/20/20 21/21/21
f 22/22/22 21/21/21 20/20/20
f 21/21/21 22/22/22 23/23/23
f 24/24/24 23/23/23 22/22/22
f 23/23/23 24/24/24 25/25/25
f 26/26/26 25/25/25 24/24/24
f 25/25/25 26/26/26 27/27/27
f 28/28/28 27/27/27 26/26/26
f 27/27/27 28/28/28 29/29/29
f 30/30/30 29/29/29 28/28/28
f 29/29/29 30/30/30 31/31/31
f 32/32/32 31/31/31 30/30/30
f 31/31/31 32/32/32 33/33/33
f 34/34/34 33/33/33 32/32/32
f 33/33/33 34/34/34 35/35/35
f 36/36/36 35/35/35 34/34/34
f 35/35/35 36/36/36 37/37/37
f 38/38/38 37/37/37 36/36/36
f 37/37/37 38/38/38 39/39/39
f 40/40/40 39/39/39 38/38/38
f 39/39/39 40/40/40 41/41/41
f 42/42/42 41/41/41 40/40/40
