g Rock05.018
v -0.04530892 0.02120345 0.06079061
v -0.04530892 0.03284119 0.03049661
v -0.03901254 0.03284119 0.03610526
v -0.01789444 0.03103408 0.0596207
v -0.01789444 0.03058464 0.06079061
v -0.04530892 0.02120345 0.06079061
v 0.025 -0.015 0.05959406
v 0.025 0.03122162 0.05959406
v 0.025 -0.01344683 0.0488238
v 0.025 0.03122162 0.05959406
v 0.025 0.03122162 0.0488238
v 0.025 -0.01344683 0.0488238
v 0.025 -0.01344683 -0.04795741
v 0.025 -0.015 0.05959406
v 0.025 -0.015 -0.04951295
v 0.025 0.03122162 -0.04951295
v 0.025 0.03122162 -0.04795741
v 0.025 -0.01344683 0.0488238
v 0.025 0.03122162 0.0488238
v 0.02620509 -0.01344683 0.0488479
v -1.788139E-09 0.03122162 -0.06486931
v -5.937606E-05 0.03122162 -0.04795741
v -0.01159805 0.03122162 0.05832463
v 0.025 0.03122162 0.0488238
v 0 0.03122162 0.05832463
v -0.01159805 0.03122162 0.05832463
v -0.01159805 0.03318869 0.0596207
v -0.01789444 0.03103408 0.0596207
v -0.01159805 0.03990168 0.04214621
v -0.04530892 0.02120345 0.06079061
v -0.03901254 0.03284119 0.03610526
v -0.03901254 0.03990168 0.01772617
v -0.03901254 0.03990168 -0.06635543
v -0.03901254 -0.01009831 -0.06635543
v -0.01159805 -0.01009831 -0.06635543
v -0.01159805 0.03990168 -0.06635543
v -0.01789444 -0.01715881 -0.03864338
v -0.04530892 -0.01715881 -0.03864338
v -0.04530892 -0.01715881 0.06079061
v -0.01789444 -0.01715881 0.06079061
v -0.01789444 0.03058464 0.06079061
v -0.01789444 -0.01715881 0.06079061
v -0.04530892 -0.01715881 0.06079061
v -0.04530892 0.02120345 0.06079061
v -0.03901254 0.03990168 0.01772617
v -0.03901254 0.03284119 0.03610526
v -0.03901254 0.03284119 -0.03864338
v -0.03901254 0.03990168 -0.06635543
v -0.03901254 -0.01009831 -0.06635543
v -0.03901254 -0.01009831 -0.03864338
v 0.02620509 0.03591053 0.0488479
v 0.02620509 -0.01344683 0.0488479
v 0.025 0.03122162 0.0488238
v 0.005075746 0.03591053 0.04814656
v 0.005075746 0.03122162 0.04814656
v -1.788139E-09 0.03122162 -0.06486931
v -1.788139E-09 -0.015 -0.06486931
v 0.025 -0.015 -0.04951295
v 0.025 0.03122162 -0.04951295
v -1.788139E-09 0.03122162 -0.06486931
v -0.001809581 0.03122162 -0.0652191
v -0.001809581 -0.015 -0.0652191
v -1.788139E-09 -0.015 -0.06486931
v 0.025 -0.01344683 -0.04795741
v 0.02620508 -0.01344683 -0.04795741
v 0.02620508 0.03591053 -0.04795741
v 0.025 0.03122162 -0.04795741
v -5.937606E-05 0.03591053 -0.04795741
v -5.937606E-05 0.03122162 -0.04795741
v 0.025 0.03122162 0.05959406
v 0.025 -0.015 0.05959406
v 0.001886094 -0.015 0.06079061
v 0.001886094 0.03122162 0.06079061
v 0 0.03122162 0.05832463
v 0.001886094 0.03122162 0.06079061
v 0.001886094 -0.015 0.06079061
v 0 -0.015 0.05832463
v 0.02620508 -0.01344683 -0.04795741
v 0.02620509 -0.01344683 0.0488479
v 0.02620509 0.03591053 0.0488479
v 0.02620508 0.03591053 -0.04795741
v -5.937398E-05 0.03591053 0.03863194
v -5.937398E-05 0.03122162 0.03863194
v -5.937606E-05 0.03122162 -0.04795741
v -5.937606E-05 0.03591053 -0.04795741
v 0.02620509 -0.01344683 0.0488479
v 0.02620508 -0.01344683 -0.04795741
v 0.025 -0.01344683 -0.04795741
v 0.025 -0.01344683 0.0488238
v -5.937398E-05 0.03591053 0.03863194
v -5.937606E-05 0.03591053 -0.04795741
v 0.02620508 0.03591053 -0.04795741
v 0.02620509 0.03591053 0.0488479
v 0.005075746 0.03591053 0.04814656
v 0.005075746 0.03591053 0.04814656
v 0.005075746 0.03122162 0.04814656
v -5.937398E-05 0.03122162 0.03863194
v -5.937398E-05 0.03591053 0.03863194
v -0.01159805 -0.01009831 -0.06537504
v -0.01159805 -0.01009831 -0.06635543
v -0.03901254 -0.01009831 -0.06635543
v -0.02432487 -0.01009831 -0.06557779
v -0.025 -0.01009831 -0.06486931
v -0.03901254 -0.01009831 -0.03864338
v -0.025 -0.01009831 -0.03864338
v -0.01159805 -0.01009831 0.05832463
v -0.01789444 -0.01009831 0.05832463
v -0.01789444 -0.01009831 0.0596207
v -0.01159805 -0.01009831 0.0596207
v -0.04530892 -0.01715881 -0.03864338
v -0.01789444 -0.01715881 -0.03864338
v -0.01789444 -0.015 -0.03864338
v -0.025 -0.015 -0.03864338
v -0.025 -0.01009831 -0.03864338
v -0.03901254 -0.01009831 -0.03864338
v -0.03901254 0.03284119 -0.03864338
v -0.04530892 0.03284119 -0.03864338
v -0.025 -0.01009831 -0.06486931
v -0.025 -0.01009831 -0.03864338
v -0.025 -0.015 -0.03864338
v -0.025 -0.015 -0.06486931
v -0.001809581 -0.015 -0.0652191
v -0.02432487 -0.015 -0.06557779
v -0.025 -0.015 -0.06486931
v -1.788139E-09 -0.015 -0.06486931
v 0.025 -0.015 -0.04951295
v -0.025 -0.015 -0.03864338
v -0.01789444 -0.015 -0.03864338
v 0.025 -0.015 0.05959406
v 0 -0.015 0.05832463
v -0.01789444 -0.015 0.05832463
v 0.001886094 -0.015 0.06079061
v -0.01159805 0.03122162 0.05832463
v 0 0.03122162 0.05832463
v 0 -0.015 0.05832463
v -0.01159805 -0.01009831 0.05832463
v -0.01789444 -0.015 0.05832463
v -0.01789444 -0.01009831 0.05832463
v -0.01159805 -0.01009831 -0.06537504
v -0.02432487 -0.01009831 -0.06557779
v -0.02432487 -0.015 -0.06557779
v -0.001809581 -0.015 -0.0652191
v -0.001809581 0.03122162 -0.0652191
v -0.01159805 0.03122162 -0.06537504
v -0.02432487 -0.015 -0.06557779
v -0.02432487 -0.01009831 -0.06557779
v -0.025 -0.01009831 -0.06486931
v -0.025 -0.015 -0.06486931
v -0.01159805 0.03122162 0.05832463
v -0.01159805 0.03122162 -0.06537504
v -0.001809581 0.03122162 -0.0652191
v -1.788139E-09 0.03122162 -0.06486931
v -5.937606E-05 0.03122162 -0.04795741
v -5.937398E-05 0.03122162 0.03863194
v 0.005075746 0.03122162 0.04814656
v 0.025 0.03122162 0.0488238
v 0.025 0.03122162 0.05959406
v 0 0.03122162 0.05832463
v 0.001886094 0.03122162 0.06079061
v -1.788139E-09 0.03122162 -0.06486931
v 0.025 0.03122162 -0.04951295
v -5.937606E-05 0.03122162 -0.04795741
v 0.025 0.03122162 -0.04795741
v -0.01789444 -0.015 -0.03864338
v -0.01789444 -0.01715881 -0.03864338
v -0.01789444 -0.01715881 0.06079061
v -0.01789444 -0.015 0.05832463
v -0.01789444 -0.01009831 0.0596207
v -0.01789444 -0.01009831 0.05832463
v -0.01789444 0.03058464 0.06079061
v -0.01789444 0.03103408 0.0596207
v -0.03901254 0.03284119 -0.03864338
v -0.03901254 0.03284119 0.03610526
v -0.04530892 0.03284119 0.03049661
v -0.04530892 0.03284119 -0.03864338
v -0.04530892 0.02120345 0.06079061
v -0.04530892 -0.01715881 0.06079061
v -0.04530892 -0.01715881 -0.03864338
v -0.04530892 0.03284119 -0.03864338
v -0.04530892 0.03284119 0.03049661
v -0.01159805 -0.01009831 0.0596207
v -0.01789444 -0.01009831 0.0596207
v -0.01789444 0.03103408 0.0596207
v -0.01159805 0.03318869 0.0596207
v -0.01159805 0.03990168 -0.06635543
v -0.01159805 -0.01009831 -0.06635543
v -0.01159805 -0.01009831 -0.06537504
v -0.01159805 0.03122162 -0.06537504
v -0.01159805 0.03122162 0.05832463
v -0.01159805 0.03318869 0.0596207
v -0.01159805 0.03990168 0.04214621
v -0.01159805 -0.01009831 0.0596207
v -0.01159805 -0.01009831 0.05832463
v -0.03901254 0.03990168 -0.06635543
v -0.01159805 0.03990168 -0.06635543
v -0.01159805 0.03990168 0.04214621
v -0.03901254 0.03990168 0.01772617
vt 0.6138679 0.1918113
vt 0.5532798 0.3629276
vt 0.5814077 0.2146975
vt 0.6564819 0.544338
vt 0.625 0.5112827
vt 0.6138679 0.1918113
vt 0.6061274 0.7500002
vt 0.6455151 0.3648199
vt 0.6217914 0.737057
vt 0.6455151 0.3648199
vt 0.6433998 0.3648199
vt 0.6217914 0.737057
vt 0.3587039 0.737057
vt 0.6061274 0.7500002
vt 0.3533392 0.7500002
vt 0.3743444 0.3648199
vt 0.3780446 0.3648199
vt 0.1372182 0.75
vt 0.3179398 0.4000155
vt 0.1649243 0.6626099
vt 0.3683897 0.3834314
vt 0.388448 0.3762448
vt 0.6408039 0.3149084
vt 0.6217914 0.5
vt 0.6314579 0.3704795
vt 0.6408039 0.3149084
vt 0.625 0.533565
vt 0.6564819 0.544338
vt 0.5914761 0.4999999
vt 0.6138679 0.1918113
vt 0.5814077 0.2146975
vt 0.550776 0.3629275
vt 0.2379276 0.5
vt 0.2379276 0.75
vt 0.375 0.75
vt 0.375 0.5
vt 0.415 0.75
vt 0.415 0.8870724
vt 0.613868 0.8870725
vt 0.6138679 0.75
vt 0.625 0.5112827
vt 0.625 0.75
vt 0.7620724 0.75
vt 0.7620724 0.5581887
vt 0.550776 0.25
vt 0.5814077 0.2146975
vt 0.4568267 0.2146975
vt 0.41064 0.25
vt 0.4106399 -3.543908E-10
vt 0.4568267 -7.450581E-09
vt 0.336863 0.4019821
vt 0.1649243 0.6626099
vt 0.3179398 0.4000155
vt 0.2486713 0.3804159
vt 0.2332826 0.4240568
vt 0.2297278 0.3648199
vt 0.2297278 0.75
vt 0.3421663 0.75
vt 0.3421663 0.3648199
vt 0.25 0.3648199
vt 0.25 0.3648199
vt 0.25 0.7499999
vt 0.25 0.75
vt 0.8606205 0.75
vt 0.8666459 0.75
vt 0.8666462 0.338689
vt 0.8606208 0.3777632
vt 0.735324 0.338689
vt 0.7353238 0.3777631
vt 0.6247643 0.3648198
vt 0.6247644 0.7499999
vt 0.7492433 0.7499999
vt 0.7492432 0.3648199
vt 0.75 0.3648198
vt 0.7500001 0.3648199
vt 0.75 0.75
vt 0.75 0.75
vt 0.671117 7.450581E-09
vt 0.3400637 0
vt 0.3400637 0.4113113
vt 0.6711171 0.4113114
vt 0.375 0.375
vt 0.3469704 0.4059319
vt 0.8346362 0.375556
vt 0.8378328 0.3374104
vt 0.3749361 0.9941379
vt 0.6654651 0.9909398
vt 0.6654641 0.9848757
vt 0.375 0.9877818
vt 0.3757317 0.3898798
vt 0.6701965 0.3894204
vt 0.6702478 0.2581124
vt 0.3470055 0.2602844
vt 0.3651633 0.3703134
vt 0.2472292 0.3378837
vt 0.246744 0.376817
vt 0.3551835 0.4083177
vt 0.3822243 0.3770986
vt 0.4122739 0.75
vt 0.4106399 0.75
vt 0.4106399 0.8870724
vt 0.411936 0.8136342
vt 0.4131168 0.8170097
vt 0.4568267 0.8870724
vt 0.4568266 0.8170097
vt 0.6184403 0.7500001
vt 0.6184403 0.7814822
vt 0.6206005 0.7814821
vt 0.6206003 0.75
vt 0.2379276 0.75
vt 0.375 0.75
vt 0.375 0.739206
vt 0.3394722 0.7392059
vt 0.3394722 0.7146975
vt 0.2694095 0.7146975
vt 0.2694095 0.5
vt 0.2379275 0.4999998
vt 0.3378267 0.04084737
vt 0.4033916 0.04084737
vt 0.4033916 0
vt 0.3378267 0
vt 0.3673049 0.8768593
vt 0.3705265 0.9992098
vt 0.3718691 1.002998
vt 0.3672921 0.8668922
vt 0.3687022 0.74647
vt 0.4291444 1.002584
vt 0.4249442 0.9659755
vt 0.6238201 0.751142
vt 0.6339915 0.879044
vt 0.6456089 0.965954
vt 0.6372313 0.8700395
vt 0.8079902 0.3648199
vt 0.75 0.3648199
vt 0.75 0.75
vt 0.8079903 0.7091527
vt 0.8394722 0.75
vt 0.8394721 0.7091526
vt 0.1951731 0.7091527
vt 0.1246119 0.7091525
vt 0.1246119 0.7499999
vt 0.2494432 0.75
vt 0.2494432 0.3648198
vt 0.1951731 0.3648198
vt 0.375 -2.328306E-10
vt 0.375 0.04084736
vt 0.375 0.04084736
vt 0.375 0
vt 0.6408039 0.3149084
vt 0.3693845 0.3200748
vt 0.3680467 0.3733318
vt 0.3683897 0.3834314
vt 0.388448 0.3762448
vt 0.5952195 0.3741628
vt 0.6156474 0.3992558
vt 0.6217914 0.5
vt 0.6269974 0.4984123
vt 0.6314579 0.3704795
vt 0.6338102 0.379217
vt 0.3683897 0.3834314
vt 0.3602007 0.5008054
vt 0.388448 0.3762448
vt 0.3624852 0.5003812
vt 0.415 0.739206
vt 0.415 0.75
vt 0.6138681 0.75
vt 0.6089361 0.7392059
vt 0.6115282 0.7146976
vt 0.6089361 0.7146975
vt 0.6138682 0.5112828
vt 0.6115283 0.5090355
vt 0.4149998 0.3944094
vt 0.5644971 0.3944095
vt 0.5532798 0.3629276
vt 0.4149998 0.3629275
vt 0.6138679 0.1918113
vt 0.6138679 0
vt 0.415 0
vt 0.415 0.25
vt 0.5532799 0.25
vt 0.625 0.75
vt 0.6564819 0.75
vt 0.6564819 0.544338
vt 0.625 0.533565
vt 0.4106399 0.5
vt 0.41064 0.75
vt 0.412274 0.75
vt 0.4122739 0.5434003
vt 0.6184401 0.5434002
vt 0.6206003 0.5335649
vt 0.5914761 0.4999999
vt 0.6206006 0.7499995
vt 0.6184404 0.7499995
vt 0.4106399 0.3629276
vt 0.41064 0.5
vt 0.5914761 0.4999999
vt 0.550776 0.3629275
vn -0.3042902 0.8892215 0.341603
vn -0.3042902 0.8892215 0.341603
vn -0.3042902 0.8892215 0.341603
vn -0.3042902 0.8892215 0.341603
vn -0.3042902 0.8892215 0.341603
vn -0.3042902 0.8892215 0.341603
vn 1 2.648964E-07 0
vn 1 2.648964E-07 0
vn 1 2.648964E-07 0
vn 1 2.648964E-07 0
vn 1 2.648964E-07 0
vn 1 2.648964E-07 0
vn 1 2.648964E-07 0
vn 1 2.648964E-07 0
vn 1 2.648964E-07 0
vn 1 2.648964E-07 0
vn 1 2.648964E-07 0
vn -0.02853069 0.001098806 0.9995924
vn -0.02853069 0.001098806 0.9995924
vn -0.02853069 0.001098806 0.9995924
vn 0 1 0
vn 0 1 0
vn 0 1 0
vn 0 1 0
vn 0 1 0
vn 0 1 0
vn -0.3042902 0.8892215 0.341603
vn -0.3042902 0.8892215 0.341603
vn -0.3042902 0.8892215 0.341603
vn -0.3042902 0.8892215 0.341603
vn -0.3042902 0.8892215 0.341603
vn -0.3042902 0.8892215 0.341603
vn 0 0 -1
vn 0 0 -1
vn 0 0 -1
vn 0 0 -1
vn 0 -1 0
vn 0 -1 0
vn 0 -1 0
vn 0 -1 0
vn 0 0 1
vn 0 0 1
vn 0 0 1
vn 0 0 1
vn -1 0 0
vn -1 0 0
vn -1 0 0
vn -1 0 0
vn -1 0 0
vn -1 0 0
vn -0.02853069 0.001098806 0.9995924
vn -0.02853069 0.001098806 0.9995924
vn -0.02853069 0.001098806 0.9995924
vn -0.02853069 0.001098806 0.9995924
vn -0.02853069 0.001098806 0.9995924
vn 0.5233988 0 -0.8520879
vn 0.5233988 0 -0.8520879
vn 0.5233988 0 -0.8520879
vn 0.5233988 0 -0.8520879
vn 0.1897835 0 -0.9818259
vn 0.1897835 0 -0.9818259
vn 0.1897835 0 -0.9818259
vn 0.1897835 0 -0.9818259
vn 1.077715E-06 0 -1
vn 1.077715E-06 0 -1
vn 1.077715E-06 0 -1
vn 1.077715E-06 0 -1
vn 1.077715E-06 0 -1
vn 1.077715E-06 0 -1
vn 0.05169827 0 0.9986628
vn 0.05169827 0 0.9986628
vn 0.05169827 0 0.9986628
vn 0.05169827 0 0.9986628
vn -0.7943044 0 0.6075199
vn -0.7943044 0 0.6075199
vn -0.7943044 0 0.6075199
vn -0.7943044 0 0.6075199
vn 1 0 0
vn 1 0 0
vn 1 0 0
vn 1 0 0
vn -1 0 0
vn -1 0 0
vn -1 0 0
vn -1 0 0
vn 0 -1 0
vn 0 -1 0
vn 0 -1 0
vn 0 -1 0
vn 0 1 0
vn 0 1 0
vn 0 1 0
vn 0 1 0
vn 0 1 0
vn -0.8800128 0 0.47495
vn -0.8800128 0 0.47495
vn -0.8800128 0 0.47495
vn -0.8800128 0 0.47495
vn 0 -1 0
vn 0 -1 0
vn 0 -1 0
vn 0 -1 0
vn 0 -1 0
vn 0 -1 0
vn 0 -1 0
vn 0 -1 0
vn 0 -1 0
vn 0 -1 0
vn 0 -1 0
vn 0 0 -1
vn 0 0 -1
vn 0 0 -1
vn 0 0 -1
vn 0 0 -1
vn 0 0 -1
vn 0 0 -1
vn 0 0 -1
vn -1 0 0
vn -1 0 0
vn -1 0 0
vn -1 0 0
vn 0 -1 0
vn 0 -1 0
vn 0 -1 0
vn 0 -1 0
vn 0 -1 0
vn 0 -1 0
vn 0 -1 0
vn 0 -1 0
vn 0 -1 0
vn 0 -1 0
vn 0 -1 0
vn 0 0 1
vn 0 0 1
vn 0 0 1
vn 0 0 1
vn 0 0 1
vn 0 0 1
vn 0.01592892 0 -0.9998732
vn 0.01592892 0 -0.9998732
vn 0.01592892 0 -0.9998732
vn 0.01592892 0 -0.9998732
vn 0.01592892 0 -0.9998732
vn 0.01592892 0 -0.9998732
vn -0.7239355 0 -0.6898677
vn -0.7239355 0 -0.6898677
vn -0.7239355 0 -0.6898677
vn -0.7239355 0 -0.6898677
vn 0 1 0
vn 0 1 0
vn 0 1 0
vn 0 1 0
vn 0 1 0
vn 0 1 0
vn 0 1 0
vn 0 1 0
vn 0 1 0
vn 0 1 0
vn 0 1 0
vn 0 1 0
vn 0 1 0
vn 0 1 0
vn 0 1 0
vn 1 6.945778E-07 0
vn 1 6.945778E-07 0
vn 1 6.945778E-07 0
vn 1 6.945778E-07 0
vn 1 6.945778E-07 0
vn 1 6.945778E-07 0
vn 1 6.945778E-07 0
vn 1 6.945778E-07 0
vn 0 1 0
vn 0 1 0
vn 0 1 0
vn 0 1 0
vn -1 0 0
vn -1 0 0
vn -1 0 0
vn -1 0 0
vn -1 0 0
vn -7.176727E-07 0 1
vn -7.176727E-07 0 1
vn -7.176727E-07 0 1
vn -7.176727E-07 0 1
vn 1 0 0
vn 1 0 0
vn 1 0 0
vn 1 0 0
vn 1 0 0
vn 1 0 0
vn 1 0 0
vn 1 0 0
vn 1 0 0
vn 0 1 0
vn 0 1 0
vn 0 1 0
vn 0 1 0
g Rock05.018_0
f 3/3/3 2/2/2 1/1/1
f 6/6/6 5/5/5 4/4/4
f 9/9/9 8/8/8 7/7/7
f 12/12/12 11/11/11 10/10/10
f 14/14/14 13/13/13 12/12/12
f 13/13/13 14/14/14 15/15/15
f 15/15/15 16/16/16 13/13/13
f 16/16/16 17/17/17 13/13/13
f 20/20/20 19/19/19 18/18/18
f 23/23/23 22/22/22 21/21/21
f 26/26/26 25/25/25 24/24/24
f 29/29/29 28/28/28 27/27/27
f 30/30/30 28/28/28 29/29/29
f 30/30/30 29/29/29 31/31/31
f 32/32/32 31/31/31 29/29/29
f 35/35/35 34/34/34 33/33/33
f 36/36/36 35/35/35 33/33/33
f 39/39/39 38/38/38 37/37/37
f 40/40/40 39/39/39 37/37/37
f 43/43/43 42/42/42 41/41/41
f 44/44/44 43/43/43 41/41/41
f 47/47/47 46/46/46 45/45/45
f 47/47/47 45/45/45 48/48/48
f 47/47/47 48/48/48 49/49/49
f 49/49/49 50/50/50 47/47/47
f 53/53/53 52/52/52 51/51/51
f 51/51/51 54/54/54 53/53/53
f 54/54/54 55/55/55 53/53/53
f 58/58/58 57/57/57 56/56/56
f 59/59/59 58/58/58 56/56/56
f 62/62/62 61/61/61 60/60/60
f 63/63/63 62/62/62 60/60/60
f 66/66/66 65/65/65 64/64/64
f 64/64/64 67/67/67 66/66/66
f 67/67/67 68/68/68 66/66/66
f 67/67/67 69/69/69 68/68/68
f 72/72/72 71/71/71 70/70/70
f 73/73/73 72/72/72 70/70/70
f 76/76/76 75/75/75 74/74/74
f 77/77/77 76/76/76 74/74/74
f 80/80/80 79/79/79 78/78/78
f 81/81/81 80/80/80 78/78/78
f 84/84/84 83/83/83 82/82/82
f 85/85/85 84/84/84 82/82/82
f 88/88/88 87/87/87 86/86/86
f 89/89/89 88/88/88 86/86/86
f 92/92/92 91/91/91 90/90/90
f 90/90/90 93/93/93 92/92/92
f 90/90/90 94/94/94 93/93/93
f 97/97/97 96/96/96 95/95/95
f 98/98/98 97/97/97 95/95/95
f 101/101/101 100/100/100 99/99/99
f 99/99/99 102/102/102 101/101/101
f 101/101/101 102/102/102 103/103/103
f 103/103/103 104/104/104 101/101/101
f 103/103/103 105/105/105 104/104/104
f 108/108/108 107/107/107 106/106/106
f 109/109/109 108/108/108 106/106/106
f 112/112/112 111/111/111 110/110/110
f 110/110/110 113/113/113 112/112/112
f 110/110/110 114/114/114 113/113/113
f 110/110/110 115/115/115 114/114/114
f 110/110/110 116/116/116 115/115/115
f 110/110/110 117/117/117 116/116/116
f 120/120/120 119/119/119 118/118/118
f 121/121/121 120/120/120 118/118/118
f 124/124/124 123/123/123 122/122/122
f 122/122/122 125/125/125 124/124/124
f 125/125/125 126/126/126 124/124/124
f 126/126/126 127/127/127 124/124/124
f 126/126/126 128/128/128 127/127/127
f 128/128/128 126/126/126 129/129/129
f 129/129/129 130/130/130 128/128/128
f 128/128/128 130/130/130 131/131/131
f 129/129/129 132/132/132 130/130/130
f 135/135/135 134/134/134 133/133/133
f 133/133/133 136/136/136 135/135/135
f 136/136/136 137/137/137 135/135/135
f 136/136/136 138/138/138 137/137/137
f 141/141/141 140/140/140 139/139/139
f 142/142/142 141/141/141 139/139/139
f 139/139/139 143/143/143 142/142/142
f 143/143/143 139/139/139 144/144/144
f 147/147/147 146/146/146 145/145/145
f 148/148/148 147/147/147 145/145/145
f 151/151/151 150/150/150 149/149/149
f 149/149/149 152/152/152 151/151/151
f 149/149/149 154/154/154 153/153/153
f 149/149/149 155/155/155 154/154/154
f 149/149/149 156/156/156 155/155/155
f 158/158/158 157/157/157 156/156/156
f 158/158/158 159/159/159 157/157/157
f 162/162/162 161/161/161 160/160/160
f 161/161/161 162/162/162 163/163/163
f 166/166/166 165/165/165 164/164/164
f 164/164/164 167/167/167 166/166/166
f 167/167/167 168/168/168 166/166/166
f 167/167/167 169/169/169 168/168/168
f 168/168/168 170/170/170 166/166/166
f 168/168/168 171/171/171 170/170/170
f 174/174/174 173/173/173 172/172/172
f 175/175/175 174/174/174 172/172/172
f 178/178/178 177/177/177 176/176/176
f 176/176/176 179/179/179 178/178/178
f 176/176/176 180/180/180 179/179/179
f 183/183/183 182/182/182 181/181/181
f 184/184/184 183/183/183 181/181/181
f 187/187/187 186/186/186 185/185/185
f 185/185/185 188/188/188 187/187/187
f 185/185/185 189/189/189 188/188/188
f 185/185/185 190/190/190 189/189/189
f 185/185/185 191/191/191 190/190/190
f 189/189/189 190/190/190 192/192/192
f 192/192/192 193/193/193 189/189/189
f 196/196/196 195/195/195 194/194/194
f 197/197/197 196/196/196 194/194/194
