g Sakura_light01
v -0.02133667 0.06121567 -0.4580202
v 0.1298035 -0.2333356 -0.3205432
v 0.131261 -0.2433566 -0.3214384
v -0.02181458 0.06438041 -0.4579858
v 0.1283465 -0.2233147 -0.319648
v 0.1298035 -0.2333356 -0.3205432
v -0.02133667 0.06121567 -0.4580202
v -0.02181458 0.06438041 -0.4579858
v 0.1283465 -0.2233147 -0.319648
v -0.02229248 0.06754517 -0.4579513
v 9.308822 1.802204 2.304355
v 7.332668 2.461079 3.411776
v 9.270894 2.14877 2.20821
v 7.332668 2.461079 3.411776
v 9.308822 1.802204 2.304355
v 7.475202 1.995224 3.440013
v 5.174557 -0.9458604 1.44926
v 4.140913 -1.246555 1.372436
v 5.132948 -0.8696548 1.369408
v 4.140913 -1.246555 1.372436
v 5.174557 -0.9458604 1.44926
v 4.211112 -1.438702 1.498393
v 13.96201 -0.8405212 -0.6677526
v 14.9828 -1.375932 -0.2403297
v 13.94502 -0.9053888 -0.6665267
v 13.979 -0.775654 -0.6689782
v 15.00276 -1.267463 -0.1909591
v 14.9828 -1.375932 -0.2403297
v 13.96201 -0.8405212 -0.6677526
v 15.00276 -1.267463 -0.1909591
v 13.979 -0.775654 -0.6689782
v 15.02273 -1.158993 -0.1415881
v 7.475202 1.995224 3.440013
v 7.157447 1.281017 2.479443
v 7.332668 2.461079 3.411776
v 7.157447 1.281017 2.479443
v 7.475202 1.995224 3.440013
v 7.285681 1.220794 2.523671
v 6.863955 0.1009553 1.664512
v 7.026597 0.7735378 1.950318
v 7.09096 0.6909862 2.101328
v 7.026597 0.7735378 1.950318
v 6.863955 0.1009553 1.664512
v 6.835165 0.1380733 1.658204
v 6.643204 -0.1489983 1.483711
v 6.892745 0.06383728 1.670819
v 5.174557 -0.9458604 1.44926
v 5.988609 -0.4474677 1.283123
v 5.197051 -1.022065 1.300072
v 5.988609 -0.4474677 1.283123
v 5.174557 -0.9458604 1.44926
v 5.968406 -0.4260205 1.331871
v 3.223688 -1.215971 0.7490951
v 2.193905 -0.9577296 0.3385247
v 3.202509 -1.101204 0.9184587
v 2.193905 -0.9577296 0.3385247
v 3.223688 -1.215971 0.7490951
v 2.198976 -0.9951159 0.3301257
v 2.193905 -0.9577296 0.3385247
v 3.164874 -0.9864375 0.8596799
v 3.202509 -1.101204 0.9184587
v 3.164874 -0.9864375 0.8596799
v 2.193905 -0.9577296 0.3385247
v 2.188835 -0.9203435 0.3469236
v 16.15835 -2.091981 1.858312
v 17.51115 -1.558643 1.224571
v 16.10906 -2.316476 1.427406
v 17.51115 -1.558643 1.224571
v 16.15835 -2.091981 1.858312
v 17.54483 -1.399272 1.444922
v 17.56104 -1.239903 1.423018
v 16.15835 -2.091981 1.858312
v 16.16982 -1.867489 1.764883
v 16.15835 -2.091981 1.858312
v 17.56104 -1.239903 1.423018
v 17.54483 -1.399272 1.444922
v 15.00276 -1.267463 -0.1909591
v 16.10906 -2.316476 1.427406
v 14.9828 -1.375932 -0.2403297
v 16.10906 -2.316476 1.427406
v 15.00276 -1.267463 -0.1909591
v 16.15835 -2.091981 1.858312
v 15.02273 -1.158993 -0.1415881
v 16.15835 -2.091981 1.858312
v 15.00276 -1.267463 -0.1909591
v 16.15835 -2.091981 1.858312
v 15.02273 -1.158993 -0.1415881
v 16.16982 -1.867489 1.764883
v 18.42493 -0.9984142 0.8890666
v 17.51115 -1.558643 1.224571
v 17.54483 -1.399272 1.444922
v 17.51115 -1.558643 1.224571
v 18.42493 -0.9984142 0.8890666
v 18.4103 -1.069649 0.8043529
v 17.56104 -1.239903 1.423018
v 18.42493 -0.9984142 0.8890666
v 17.54483 -1.399272 1.444922
v 19.59118 -1.104804 -0.3415687
v 19.44501 -1.016445 -0.0007432175
v 19.44896 -0.9958345 0.007682953
v 19.59237 -1.100274 -0.3416544
v 19.45291 -0.9752244 0.0161087
v 19.44501 -1.016445 -0.0007432175
v 19.59118 -1.104804 -0.3415687
v 19.58999 -1.109334 -0.3414831
v 19.44896 -0.9958345 0.007682953
v 19.59237 -1.100274 -0.3416544
v 9.270894 2.14877 2.20821
v 11.14326 1.552322 0.3345111
v 9.308822 1.802204 2.304355
v 11.14326 1.552322 0.3345111
v 9.270894 2.14877 2.20821
v 11.11466 1.741677 0.3365743
v 9.213472 2.269426 1.84182
v 11.11466 1.741677 0.3365743
v 9.270894 2.14877 2.20821
v 11.11466 1.741677 0.3365743
v 9.213472 2.269426 1.84182
v 11.08606 1.931032 0.3386376
v 6.863955 0.1009553 1.664512
v 6.643204 -0.1489983 1.483711
v 6.637419 -0.1420828 1.492966
v 6.835165 0.1380733 1.658204
v 6.637419 -0.1420828 1.492966
v 6.631002 -0.1351674 1.486055
v 6.637419 -0.1420828 1.492966
v 6.835165 0.1380733 1.658204
v 6.863955 0.1009553 1.664512
v 1.086046 -0.7199951 0.07582267
v 0.4002576 -0.4939536 -0.1853416
v 0.3970318 -0.471647 -0.1831007
v 1.082205 -0.6926621 0.0801165
v 0.3938061 -0.4493405 -0.1808596
v 0.4002576 -0.4939536 -0.1853416
v 1.086046 -0.7199951 0.07582267
v 1.089886 -0.7473282 0.07152925
v 0.3970318 -0.471647 -0.1831007
v 1.082205 -0.6926621 0.0801165
v 18.42493 -0.9984142 0.8890666
v 19.30003 -1.082516 0.3399968
v 18.4103 -1.069649 0.8043529
v 19.30003 -1.082516 0.3399968
v 18.42493 -0.9984142 0.8890666
v 19.30674 -1.045825 0.3569347
v 18.43339 -0.92718 0.8882385
v 19.31345 -1.009135 0.3738718
v 13.81146 -0.3040138 -0.4457162
v 13.96201 -0.8405212 -0.6677526
v 13.94502 -0.9053888 -0.6665267
v 13.81589 -0.2713777 -0.4462926
v 13.979 -0.775654 -0.6689782
v 13.96201 -0.8405212 -0.6677526
v 13.81146 -0.3040138 -0.4457162
v 13.81589 -0.2713777 -0.4462926
v 13.979 -0.775654 -0.6689782
v 13.82033 -0.2387419 -0.446869
v 5.968406 -0.4260205 1.331871
v 6.643204 -0.1489983 1.483711
v 5.988609 -0.4474677 1.283123
v 6.643204 -0.1489983 1.483711
v 5.968406 -0.4260205 1.331871
v 6.637419 -0.1420828 1.492966
v 7.285681 1.220794 2.523671
v 7.09096 0.6909862 2.101328
v 7.157447 1.281017 2.479443
v 7.157447 1.281017 2.479443
v 7.22518 2.679931 2.826658
v 7.332668 2.461079 3.411776
v 7.22518 2.679931 2.826658
v 7.157447 1.281017 2.479443
v 7.101066 1.600266 2.35802
v 7.09096 0.6909862 2.101328
v 7.101066 1.600266 2.35802
v 7.157447 1.281017 2.479443
v 7.101066 1.600266 2.35802
v 7.09096 0.6909862 2.101328
v 7.026597 0.7735378 1.950318
v 6.863955 0.1009553 1.664512
v 7.132287 0.5466841 2.113118
v 6.892745 0.06383728 1.670819
v 4.248399 -1.630849 1.168065
v 3.202509 -1.101204 0.9184587
v 4.211112 -1.438702 1.498393
v 3.202509 -1.101204 0.9184587
v 4.248399 -1.630849 1.168065
v 3.223688 -1.215971 0.7490951
v 3.202509 -1.101204 0.9184587
v 4.140913 -1.246555 1.372436
v 4.211112 -1.438702 1.498393
v 4.140913 -1.246555 1.372436
v 3.202509 -1.101204 0.9184587
v 3.164874 -0.9864375 0.8596799
v 5.197051 -1.022065 1.300072
v 4.211112 -1.438702 1.498393
v 5.174557 -0.9458604 1.44926
v 4.248399 -1.630849 1.168065
v 11.14326 1.552322 0.3345111
v 13.35964 0.2977656 -0.2248327
v 13.35774 0.2619969 -0.2246955
v 11.11466 1.741677 0.3365743
v 13.36154 0.3335344 -0.2249699
v 11.08606 1.931032 0.3386376
v 9.270894 2.14877 2.20821
v 7.22518 2.679931 2.826658
v 9.213472 2.269426 1.84182
v 7.332668 2.461079 3.411776
v 5.132948 -0.8696548 1.369408
v 5.968406 -0.4260205 1.331871
v 5.174557 -0.9458604 1.44926
v 5.942854 -0.4045731 1.306486
v 13.35774 0.2619969 -0.2246955
v 13.81589 -0.2713777 -0.4462926
v 13.81146 -0.3040138 -0.4457162
v 13.35964 0.2977656 -0.2248327
v 13.82033 -0.2387419 -0.446869
v 13.36154 0.3335344 -0.2249699
v 18.42493 -0.9984142 0.8890666
v 17.56104 -1.239903 1.423018
v 18.43339 -0.92718 0.8882385
v 19.30674 -1.045825 0.3569347
v 1.089886 -0.7473282 0.07152925
v 1.639976 -0.9046202 0.2071737
v 1.644431 -0.9369798 0.2008275
v 1.086046 -0.7199951 0.07582267
v 1.63552 -0.8722606 0.2135201
v 1.082205 -0.6926621 0.0801165
v 19.30003 -1.082516 0.3399968
v 19.44896 -0.9958345 0.007682953
v 19.44501 -1.016445 -0.0007432175
v 19.30674 -1.045825 0.3569347
v 19.45291 -0.9752244 0.0161087
v 19.31345 -1.009135 0.3738718
v 6.631002 -0.1351674 1.486055
v 5.968406 -0.4260205 1.331871
v 5.942854 -0.4045731 1.306486
v 6.637419 -0.1420828 1.492966
v 7.09096 0.6909862 2.101328
v 7.285681 1.220794 2.523671
v 7.132287 0.5466841 2.113118
v 6.863955 0.1009553 1.664512
v 1.644431 -0.9369798 0.2008275
v 2.193905 -0.9577296 0.3385247
v 2.198976 -0.9951159 0.3301257
v 1.639976 -0.9046202 0.2071737
v 2.188835 -0.9203435 0.3469236
v 1.63552 -0.8722606 0.2135201
v 0.131261 -0.2433566 -0.3214384
v 0.3970318 -0.471647 -0.1831007
v 0.4002576 -0.4939536 -0.1853416
v 0.1298035 -0.2333356 -0.3205432
v 0.3938061 -0.4493405 -0.1808596
v 0.1283465 -0.2233147 -0.319648
vt 1 0
vt 0.984375 0.5
vt 0.984375 0
vt 1 0.5
vt 0.984375 1
vt 0.984375 0.5
vt 1 0
vt 1 0.5
vt 0.984375 1
vt 1 1
vt 0.375 0
vt 0.5 0.5
vt 0.375 0.5
vt 0.5 0.5
vt 0.375 0
vt 0.5 0
vt 0.6875 0.5
vt 0.75 1
vt 0.6875 1
vt 0.75 1
vt 0.6875 0.5
vt 0.75 0.5
vt 0.125 0.5
vt 0.09375 0
vt 0.125 0
vt 0.125 1
vt 0.09375 0.5
vt 0.09375 0
vt 0.125 0.5
vt 0.09375 0.5
vt 0.125 1
vt 0.09375 1
vt 0.5 0
vt 0.5625 0.5
vt 0.5 0.5
vt 0.5625 0.5
vt 0.5 0
vt 0.5625 0
vt 0.625 0.5
vt 0.59375 1
vt 0.59375 0.5
vt 0.59375 1
vt 0.625 0.5
vt 0.625 1
vt 0.640625 0
vt 0.625 0
vt 0.6875 0.5
vt 0.65625 0
vt 0.6875 0
vt 0.65625 0
vt 0.6875 0.5
vt 0.65625 0.5
vt 0.8125 0
vt 0.875 0.5
vt 0.8125 0.5
vt 0.875 0.5
vt 0.8125 0
vt 0.875 0
vt 0.875 0.5
vt 0.8125 1
vt 0.8125 0.5
vt 0.8125 1
vt 0.875 0.5
vt 0.875 1
vt 0.0625 0.5
vt 0.03125 0
vt 0.0625 0
vt 0.03125 0
vt 0.0625 0.5
vt 0.03125 0.5
vt 0.03125 1
vt 0.0625 0.5
vt 0.0625 1
vt 0.0625 0.5
vt 0.03125 1
vt 0.03125 0.5
vt 0.09375 0.5
vt 0.0625 0
vt 0.09375 0
vt 0.0625 0
vt 0.09375 0.5
vt 0.0625 0.5
vt 0.09375 1
vt 0.0625 0.5
vt 0.09375 0.5
vt 0.0625 0.5
vt 0.09375 1
vt 0.0625 1
vt 0.0234375 0.5
vt 0.03125 0
vt 0.03125 0.5
vt 0.03125 0
vt 0.0234375 0.5
vt 0.0234375 0
vt 0.03125 1
vt 0.0234375 0.5
vt 0.03125 0.5
vt 0 0.5
vt 0.0078125 0
vt 0.0078125 0.5
vt 0 1
vt 0.0078125 1
vt 0.0078125 0
vt 0 0.5
vt 0 0
vt 0.0078125 0.5
vt 0 1
vt 0.375 0.5
vt 0.25 0
vt 0.375 0
vt 0.25 0
vt 0.375 0.5
vt 0.25 0.5
vt 0.375 1
vt 0.25 0.5
vt 0.375 0.5
vt 0.25 0.5
vt 0.375 1
vt 0.25 1
vt 0.625 0.5
vt 0.640625 0
vt 0.640625 0.5
vt 0.625 1
vt 0.640625 0.5
vt 0.640625 1
vt 0.640625 0.5
vt 0.625 1
vt 0.625 0.5
vt 0.9375 0.5
vt 0.96875 0
vt 0.96875 0.5
vt 0.9375 1
vt 0.96875 1
vt 0.96875 0
vt 0.9375 0.5
vt 0.9375 0
vt 0.96875 0.5
vt 0.9375 1
vt 0.0234375 0.5
vt 0.015625 0
vt 0.0234375 0
vt 0.015625 0
vt 0.0234375 0.5
vt 0.015625 0.5
vt 0.0234375 1
vt 0.015625 1
vt 0.15625 0
vt 0.125 0.5
vt 0.125 0
vt 0.15625 0.5
vt 0.125 1
vt 0.125 0.5
vt 0.15625 0
vt 0.15625 0.5
vt 0.125 1
vt 0.15625 1
vt 0.65625 0.5
vt 0.640625 0
vt 0.65625 0
vt 0.640625 0
vt 0.65625 0.5
vt 0.640625 0.5
vt 0.5625 0
vt 0.59375 0.5
vt 0.5625 0.5
vt 0.5625 0.5
vt 0.5 1
vt 0.5 0.5
vt 0.5 1
vt 0.5625 0.5
vt 0.5625 1
vt 0.59375 0.5
vt 0.5625 1
vt 0.5625 0.5
vt 0.5625 1
vt 0.59375 0.5
vt 0.59375 1
vt 0.625 0.5
vt 0.59375 0
vt 0.625 0
vt 0.75 0
vt 0.8125 0.5
vt 0.75 0.5
vt 0.8125 0.5
vt 0.75 0
vt 0.8125 0
vt 0.8125 0.5
vt 0.75 1
vt 0.75 0.5
vt 0.75 1
vt 0.8125 0.5
vt 0.8125 1
vt 0.6875 0
vt 0.75 0.5
vt 0.6875 0.5
vt 0.75 0
vt 0.25 0
vt 0.1875 0.5
vt 0.1875 0
vt 0.25 0.5
vt 0.1875 1
vt 0.25 1
vt 0.375 0.5
vt 0.5 1
vt 0.375 1
vt 0.5 0.5
vt 0.6875 1
vt 0.65625 0.5
vt 0.6875 0.5
vt 0.65625 1
vt 0.1875 0
vt 0.15625 0.5
vt 0.15625 0
vt 0.1875 0.5
vt 0.15625 1
vt 0.1875 1
vt 0.0234375 0.5
vt 0.03125 1
vt 0.0234375 1
vt 0.015625 0.5
vt 0.9375 0
vt 0.90625 0.5
vt 0.90625 0
vt 0.9375 0.5
vt 0.90625 1
vt 0.9375 1
vt 0.015625 0
vt 0.0078125 0.5
vt 0.0078125 0
vt 0.015625 0.5
vt 0.0078125 1
vt 0.015625 1
vt 0.640625 1
vt 0.65625 0.5
vt 0.65625 1
vt 0.640625 0.5
vt 0.59375 0.5
vt 0.5625 0
vt 0.59375 0
vt 0.625 0.5
vt 0.90625 0
vt 0.875 0.5
vt 0.875 0
vt 0.90625 0.5
vt 0.875 1
vt 0.90625 1
vt 0.984375 0
vt 0.96875 0.5
vt 0.96875 0
vt 0.984375 0.5
vt 0.96875 1
vt 0.984375 1
vn -0.8222657 -0.1681617 0.5436918
vn -0.8222657 -0.1681617 0.5436918
vn -0.8222657 -0.1681617 0.5436918
vn -0.8225743 -0.1681245 0.5432363
vn -0.8225743 -0.1681245 0.5432363
vn -0.7905337 -0.1259083 0.5993361
vn -0.7905337 -0.1259083 0.599336
vn -0.7905337 -0.1259083 0.599336
vn -0.7919659 -0.1261035 0.597401
vn -0.7919659 -0.1261035 0.597401
vn 0.5386084 0.279455 0.7948622
vn 0.5386084 0.279455 0.7948621
vn 0.5386084 0.279455 0.7948622
vn 0.5306031 0.2120882 0.8206576
vn 0.5306031 0.2120882 0.8206576
vn 0.5306031 0.2120883 0.8206576
vn -0.2397354 0.6368908 0.7327325
vn -0.2397355 0.6368909 0.7327325
vn -0.2397355 0.6368909 0.7327325
vn -0.2039255 0.4835133 0.8512515
vn -0.2039255 0.4835133 0.8512515
vn -0.2039255 0.4835133 0.8512515
vn -0.3363389 0.1057926 0.9357799
vn -0.336339 0.1057926 0.9357799
vn -0.336339 0.1057926 0.9357799
vn -0.3741958 0.1154067 0.9201407
vn -0.3741958 0.1154067 0.9201407
vn -0.4931153 -0.2835854 0.8224455
vn -0.4931154 -0.2835854 0.8224455
vn -0.4931154 -0.2835854 0.8224455
vn -0.5122855 -0.2758961 0.8132927
vn -0.5122855 -0.2758961 0.8132927
vn -0.85742 -0.2345748 0.4580455
vn -0.85742 -0.2345748 0.4580455
vn -0.85742 -0.2345748 0.4580455
vn -0.4986686 -0.6084451 0.6173527
vn -0.4986686 -0.6084451 0.6173527
vn -0.4986685 -0.608445 0.6173527
vn -0.909932 0.04482332 0.4123281
vn -0.909932 0.04482332 0.4123281
vn -0.909932 0.04482331 0.4123281
vn -0.4902629 -0.2377638 0.838517
vn -0.4902629 -0.2377638 0.838517
vn -0.4902629 -0.2377638 0.838517
vn -0.4632337 -0.2131233 0.8602284
vn -0.4632338 -0.2131233 0.8602284
vn 0.5316055 -0.7191331 0.4474854
vn 0.5316055 -0.7191331 0.4474854
vn 0.5316055 -0.7191331 0.4474854
vn 0.5215164 -0.6800361 0.5153365
vn 0.5215164 -0.680036 0.5153365
vn 0.5215163 -0.680036 0.5153365
vn -0.3892346 -0.7844252 0.4828804
vn -0.3892346 -0.7844253 0.4828804
vn -0.3892347 -0.7844253 0.4828804
vn -0.4123273 -0.2525763 0.8753235
vn -0.4123273 -0.2525763 0.8753235
vn -0.4123273 -0.2525763 0.8753235
vn -0.4463193 0.2876382 0.8473862
vn -0.4463193 0.2876382 0.8473862
vn -0.4463193 0.2876382 0.8473862
vn -0.4632724 -0.2535946 0.8491575
vn -0.4632724 -0.2535946 0.8491575
vn -0.4632724 -0.2535945 0.8491575
vn 0.4833553 -0.7978148 0.3603598
vn 0.4833553 -0.7978147 0.3603598
vn 0.4833553 -0.7978147 0.3603598
vn 0.502848 -0.7350659 0.4547769
vn 0.502848 -0.7350658 0.4547769
vn 0.502848 -0.7350659 0.4547769
vn 0.05477727 0.3812703 0.9228393
vn 0.05477727 0.3812703 0.9228393
vn 0.05477727 0.3812703 0.9228393
vn 0.2335984 0.1090476 0.966199
vn 0.2335983 0.1090476 0.966199
vn 0.2335983 0.1090476 0.966199
vn -0.8469704 -0.08312203 0.5251017
vn -0.8469704 -0.08312203 0.5251017
vn -0.8469704 -0.08312203 0.5251017
vn -0.8535922 -0.4155687 0.3141387
vn -0.8535921 -0.4155686 0.3141387
vn -0.8535921 -0.4155686 0.3141387
vn -0.8789164 -0.05395077 0.473915
vn -0.8789163 -0.05395076 0.473915
vn -0.8789164 -0.05395077 0.473915
vn -0.7746899 0.2762831 0.568791
vn -0.7746899 0.2762831 0.568791
vn -0.7746899 0.2762831 0.568791
vn 0.5814177 -0.6988642 0.4165839
vn 0.5814177 -0.6988642 0.416584
vn 0.5814177 -0.6988642 0.416584
vn 0.5806001 -0.6697747 0.4629313
vn 0.5806001 -0.6697747 0.4629313
vn 0.5806001 -0.6697747 0.4629313
vn 0.5112448 0.0657929 0.856913
vn 0.5112448 0.0657929 0.8569131
vn 0.5112448 0.0657929 0.856913
vn 0.8290116 -0.3403137 0.4437636
vn 0.8290116 -0.3403137 0.4437636
vn 0.8290116 -0.3403137 0.4437636
vn 0.8299525 -0.3398998 0.4423199
vn 0.8299525 -0.3398998 0.4423199
vn 0.8743114 -0.2208358 0.4322166
vn 0.8743114 -0.2208358 0.4322166
vn 0.8743114 -0.2208358 0.4322165
vn 0.8770134 -0.2216481 0.4262859
vn 0.8770134 -0.2216481 0.4262859
vn 0.7232784 0.2569702 0.6409639
vn 0.7232784 0.2569702 0.6409639
vn 0.7232784 0.2569702 0.6409639
vn 0.7196509 0.1012196 0.6869186
vn 0.7196509 0.1012196 0.6869187
vn 0.7196509 0.1012196 0.6869186
vn 0.4209929 0.8790938 0.2235149
vn 0.4209929 0.8790938 0.2235149
vn 0.4209929 0.8790939 0.2235149
vn 0.6331474 0.08725951 0.769097
vn 0.6331474 0.08725952 0.769097
vn 0.6331474 0.08725951 0.769097
vn 0.2406942 -0.699381 0.6730027
vn 0.2406942 -0.699381 0.6730027
vn 0.2406941 -0.699381 0.6730027
vn -0.6956264 0.06925846 0.7150574
vn -0.6956265 0.06925847 0.7150574
vn -0.6956264 0.06925846 0.7150575
vn -0.447227 -0.1986822 0.8720742
vn -0.447227 -0.1986821 0.8720742
vn -0.447227 -0.1986822 0.8720742
vn -0.3942285 -0.148123 0.906997
vn -0.3942285 -0.148123 0.906997
vn -0.3942285 -0.148123 0.906997
vn -0.3959694 -0.1483056 0.9062084
vn -0.3959694 -0.1483056 0.9062084
vn -0.4049874 -0.1971517 0.8928137
vn -0.4049874 -0.1971517 0.8928138
vn -0.4049874 -0.1971517 0.8928137
vn -0.4063643 -0.1972563 0.8921648
vn -0.4063644 -0.1972563 0.8921648
vn 0.2942836 -0.7559074 0.5848086
vn 0.2942836 -0.7559074 0.5848086
vn 0.2942836 -0.7559074 0.5848086
vn 0.4461825 -0.4411032 0.7786843
vn 0.4461824 -0.4411032 0.7786843
vn 0.4461825 -0.4411032 0.7786843
vn 0.4214329 -0.442513 0.7915658
vn 0.4214329 -0.442513 0.7915658
vn 0.6167782 -0.1469581 0.7732968
vn 0.6167782 -0.1469581 0.7732968
vn 0.6167782 -0.1469581 0.7732968
vn 0.6116744 -0.1455382 0.7776072
vn 0.6116744 -0.1455382 0.7776072
vn 0.7169821 -0.08514186 0.6918724
vn 0.7169821 -0.08514186 0.6918724
vn 0.7169821 -0.08514187 0.6918724
vn 0.7046561 -0.08324485 0.7046489
vn 0.7046561 -0.08324485 0.7046489
vn 0.2414662 -0.8473876 0.4728937
vn 0.2414662 -0.8473876 0.4728937
vn 0.2414662 -0.8473876 0.4728937
vn 0.1575436 -0.7413385 0.6523782
vn 0.1575435 -0.7413384 0.6523782
vn 0.1575435 -0.7413384 0.6523782
vn -0.4700224 -0.4380875 0.7662625
vn -0.4700223 -0.4380875 0.7662625
vn -0.4700224 -0.4380875 0.7662625
vn -0.9833696 0.002540119 0.1815978
vn -0.9833696 0.002540118 0.1815978
vn -0.9833696 0.002540118 0.1815979
vn -0.9408016 -0.03804653 0.3368156
vn -0.9408016 -0.03804653 0.3368156
vn -0.9408016 -0.03804654 0.3368156
vn -0.9600329 -0.066107 0.2719683
vn -0.9600329 -0.066107 0.2719683
vn -0.9600329 -0.066107 0.2719683
vn -0.9328305 -0.08825178 0.3493406
vn -0.9328305 -0.08825177 0.3493406
vn -0.9328305 -0.08825177 0.3493406
vn -0.6081368 -0.3506727 0.7121785
vn -0.6081368 -0.3506727 0.7121785
vn -0.6081368 -0.3506727 0.7121785
vn -0.488298 -0.7771707 0.3969519
vn -0.4882979 -0.7771707 0.3969519
vn -0.488298 -0.7771707 0.3969519
vn -0.4867189 -0.7502239 0.4475139
vn -0.4867189 -0.7502239 0.4475139
vn -0.4867189 -0.750224 0.4475139
vn -0.3398045 0.4256263 0.8386747
vn -0.3398045 0.4256262 0.8386747
vn -0.3398045 0.4256263 0.8386747
vn -0.3708262 0.3241314 0.8703027
vn -0.3708261 0.3241314 0.8703027
vn -0.3708262 0.3241314 0.8703027
vn 0.4224562 -0.7797916 0.4620127
vn 0.4224563 -0.7797916 0.4620127
vn 0.4224563 -0.7797916 0.4620127
vn 0.4210384 -0.7625855 0.4911108
vn 0.2598562 0.02873471 0.9652196
vn 0.2598562 0.02873471 0.9652196
vn 0.2398797 -0.009027561 0.9707607
vn 0.2598562 0.02873472 0.9652196
vn 0.2592201 0.0286372 0.9653936
vn 0.2592201 0.02863721 0.9653937
vn 0.3139155 0.9153343 0.2522305
vn 0.3139155 0.9153343 0.2522305
vn 0.3139155 0.9153343 0.2522305
vn 0.3196559 0.9052575 0.2798734
vn -0.2916555 0.6114858 0.7355421
vn -0.2916555 0.6114858 0.7355421
vn -0.2916555 0.6114858 0.7355421
vn -0.2739927 0.580844 0.7665169
vn 0.3989138 -0.03798836 0.9162012
vn 0.3989138 -0.03798836 0.9162012
vn 0.3989138 -0.03798836 0.9162012
vn 0.4175991 -0.01871304 0.9084387
vn 0.3977692 -0.03782652 0.9167054
vn 0.4163784 -0.01865823 0.909
vn 0.5358403 -0.05383897 0.8426011
vn 0.5358403 -0.05383897 0.8426011
vn 0.5358403 -0.05383896 0.8426011
vn 0.5139779 -0.05108365 0.856281
vn -0.2929594 -0.2226909 0.9298299
vn -0.2929593 -0.2226909 0.9298299
vn -0.2929594 -0.2226909 0.9298299
vn -0.285431 -0.1877367 0.939832
vn -0.2946195 -0.2228156 0.9292753
vn -0.287435 -0.18793 0.9391823
vn 0.8948544 -0.3113615 0.3198276
vn 0.8948544 -0.3113615 0.3198277
vn 0.8965034 -0.3036995 0.3225653
vn 0.8948544 -0.3113615 0.3198277
vn 0.8950628 -0.3112013 0.3194
vn 0.8950628 -0.3112014 0.3194
vn -0.3907193 0.4707806 0.7910146
vn -0.3907193 0.4707806 0.7910146
vn -0.3907193 0.4707806 0.7910146
vn -0.3847571 0.4490224 0.8064371
vn -0.7894545 -0.1781042 0.5874016
vn -0.7894545 -0.1781042 0.5874016
vn -0.7894545 -0.1781042 0.5874016
vn -0.7636435 -0.167766 0.6234607
vn -0.2443948 -0.2439845 0.9384789
vn -0.2443948 -0.2439845 0.9384789
vn -0.2443948 -0.2439845 0.9384789
vn -0.2449552 -0.2189557 0.9444868
vn -0.2458439 -0.2440833 0.9380748
vn -0.2466406 -0.2191001 0.9440146
vn -0.5619306 -0.1627325 0.8110192
vn -0.5619305 -0.1627325 0.8110192
vn -0.5619305 -0.1627325 0.8110192
vn -0.5570118 -0.1539168 0.8161174
vn -0.562183 -0.1627599 0.8108388
vn -0.5575595 -0.1539403 0.8157387
g Sakura_light01_0
f 3/3/3 2/2/2 1/1/1
f 2/2/2 5/5/5 4/4/4
f 8/8/8 7/7/7 6/6/6
f 10/10/10 8/8/8 9/9/9
f 13/13/13 12/12/12 11/11/11
f 16/16/16 15/15/15 14/14/14
f 19/19/19 18/18/18 17/17/17
f 22/22/22 21/21/21 20/20/20
f 25/25/25 24/24/24 23/23/23
f 23/23/23 27/27/27 26/26/26
f 30/30/30 29/29/29 28/28/28
f 32/32/32 31/31/31 30/30/30
f 35/35/35 34/34/34 33/33/33
f 38/38/38 37/37/37 36/36/36
f 41/41/41 40/40/40 39/39/39
f 44/44/44 43/43/43 42/42/42
f 46/46/46 43/43/43 45/45/45
f 49/49/49 48/48/48 47/47/47
f 52/52/52 51/51/51 50/50/50
f 55/55/55 54/54/54 53/53/53
f 58/58/58 57/57/57 56/56/56
f 61/61/61 60/60/60 59/59/59
f 64/64/64 63/63/63 62/62/62
f 67/67/67 66/66/66 65/65/65
f 70/70/70 69/69/69 68/68/68
f 73/73/73 72/72/72 71/71/71
f 76/76/76 75/75/75 74/74/74
f 79/79/79 78/78/78 77/77/77
f 82/82/82 81/81/81 80/80/80
f 85/85/85 84/84/84 83/83/83
f 88/88/88 87/87/87 86/86/86
f 91/91/91 90/90/90 89/89/89
f 94/94/94 93/93/93 92/92/92
f 97/97/97 96/96/96 95/95/95
f 100/100/100 99/99/99 98/98/98
f 102/102/102 100/100/100 101/101/101
f 105/105/105 104/104/104 103/103/103
f 104/104/104 107/107/107 106/106/106
f 110/110/110 109/109/109 108/108/108
f 113/113/113 112/112/112 111/111/111
f 116/116/116 115/115/115 114/114/114
f 119/119/119 118/118/118 117/117/117
f 122/122/122 121/121/121 120/120/120
f 125/125/125 124/124/124 123/123/123
f 128/128/128 127/127/127 126/126/126
f 131/131/131 130/130/130 129/129/129
f 133/133/133 131/131/131 132/132/132
f 136/136/136 135/135/135 134/134/134
f 135/135/135 138/138/138 137/137/137
f 141/141/141 140/140/140 139/139/139
f 144/144/144 143/143/143 142/142/142
f 146/146/146 145/145/145 144/144/144
f 149/149/149 148/148/148 147/147/147
f 148/148/148 151/151/151 150/150/150
f 154/154/154 153/153/153 152/152/152
f 156/156/156 154/154/154 155/155/155
f 159/159/159 158/158/158 157/157/157
f 162/162/162 161/161/161 160/160/160
f 165/165/165 164/164/164 163/163/163
f 168/168/168 167/167/167 166/166/166
f 171/171/171 170/170/170 169/169/169
f 174/174/174 173/173/173 172/172/172
f 177/177/177 176/176/176 175/175/175
f 180/180/180 179/179/179 178/178/178
f 183/183/183 182/182/182 181/181/181
f 186/186/186 185/185/185 184/184/184
f 189/189/189 188/188/188 187/187/187
f 192/192/192 191/191/191 190/190/190
f 195/195/195 194/194/194 193/193/193
f 196/196/196 193/193/193 194/194/194
f 199/199/199 198/198/198 197/197/197
f 200/200/200 197/197/197 198/198/198
f 198/198/198 201/201/201 200/200/200
f 202/202/202 200/200/200 201/201/201
f 205/205/205 204/204/204 203/203/203
f 206/206/206 203/203/203 204/204/204
f 209/209/209 208/208/208 207/207/207
f 210/210/210 207/207/207 208/208/208
f 213/213/213 212/212/212 211/211/211
f 214/214/214 211/211/211 212/212/212
f 212/212/212 215/215/215 214/214/214
f 216/216/216 214/214/214 215/215/215
f 219/219/219 218/218/218 217/217/217
f 217/217/217 220/220/220 219/219/219
f 223/223/223 222/222/222 221/221/221
f 224/224/224 221/221/221 222/222/222
f 222/222/222 225/225/225 224/224/224
f 226/226/226 224/224/224 225/225/225
f 229/229/229 228/228/228 227/227/227
f 230/230/230 227/227/227 228/228/228
f 228/228/228 231/231/231 230/230/230
f 232/232/232 230/230/230 231/231/231
f 235/235/235 234/234/234 233/233/233
f 236/236/236 233/233/233 234/234/234
f 239/239/239 238/238/238 237/237/237
f 237/237/237 240/240/240 239/239/239
f 243/243/243 242/242/242 241/241/241
f 244/244/244 241/241/241 242/242/242
f 242/242/242 245/245/245 244/244/244
f 246/246/246 244/244/244 245/245/245
f 249/249/249 248/248/248 247/247/247
f 250/250/250 247/247/247 248/248/248
f 248/248/248 251/251/251 250/250/250
f 252/252/252 250/250/250 251/251/251
