g ScreenEffect_Crack002_v_084
v 0.04722379 -0.005975399 0.007570132
v 0.04725436 -0.006022186 0.007886775
v 0.04702683 -0.005689125 0.007886775
v -0.02975567 0.02289492 -0.01211323
v 0.02238838 -0.02217501 -0.01211323
v 0.03551193 -0.01124157 -0.01211323
v -0.03324989 0.02176872 -0.01211323
v -0.02149105 0.0301473 0.007886775
v -0.002267883 -0.02300938 0.007886775
v -0.05563698 0.01914211 0.007886775
v 0.02057404 0.008146305 0.007886775
v 0.04702683 -0.005689125 0.007886775
v 0.04725436 -0.006022186 0.007886775
v 0.01268691 -0.03482084 0.007886775
v -0.02149105 0.0301473 0.007886775
v -0.03324989 0.02176872 -0.01211323
v -0.02975567 0.02289492 -0.01211323
v -0.05563698 0.01914211 0.007886775
v -0.002267883 -0.02300938 0.007886775
v -0.03324989 0.02176872 -0.01211323
v -0.05563698 0.01914211 0.007886775
v 0.02238838 -0.02217501 -0.01211323
v 0.01268691 -0.03482084 0.007886775
v 0.03551193 -0.01124157 -0.01211323
v -0.02149105 0.0301473 0.007886775
v -0.02975567 0.02289492 -0.01211323
v 0.02057404 0.008146305 0.007886775
v 0.04702683 -0.005689125 0.007886775
v 0.04722379 -0.005975399 0.007570132
v 0.04725436 -0.006022186 0.007886775
v 0.02238838 -0.02217501 -0.01211323
v 0.01268691 -0.03482084 0.007886775
v 0.03551193 -0.01124157 -0.01211323
v 0.04722379 -0.005975399 0.007570132
vt 0.0006349952 0.725629
vt 1.98162E-06 0.7255157
vt 0 0.7263225
vt 0.5534944 0.3284469
vt 0.5013503 0.283377
vt 0.4882268 0.2943104
vt 0.5569886 0.3273207
vt 0.4547702 0.3356993
vt 0.4739934 0.2825426
vt 0.4206243 0.3246941
vt 0.4968353 0.3136983
vt 0.5232881 0.2998629
vt 0.5235157 0.2995298
vt 0.4889482 0.2707311
vt 0.0857209 0
vt 0.05819668 0.04094263
vt 0.06553911 0.04094263
vt 0.01396971 0
vt 0.1494272 0.1220336
vt 0.2413025 0.05119028
vt 0.2094924 0
vt 0.1786833 0.1784126
vt 0.132596 0.1562292
vt 0.1963348 0.04495342
vt 0.05694786 5.961155E-09
vt 0.04902341 0.04495341
vt 0.1518903 0
vt 0.2115952 1.504121E-09
vt 0.2122096 0.0007117107
vt 1.291275E-05 0
vt 0.05890053 0.04060998
vt 0.08999672 9.536743E-09
vt 0.02473812 0.04060999
vt 0 0.0006429434
vn 0 0 1
vn 0 0 1
vn 0 0 1
vn 0 0 -1
vn 0 0 -1
vn 0 0 -1
vn 0 0 -1
vn 0 0 1
vn 0 0 1
vn 0 0 1
vn 0 0 1
vn 0 0 1
vn 0 0 1
vn 0 0 1
vn -0.2996999 0.929873 -0.2133447
vn -0.2996999 0.929873 -0.2133447
vn -0.2996999 0.929873 -0.2133447
vn -0.2996971 0.9298736 -0.2133466
vn -0.4847329 -0.6137331 -0.62319
vn -0.484733 -0.6137331 -0.62319
vn -0.4847329 -0.6137331 -0.62319
vn -0.4847333 -0.6137331 -0.6231897
vn -0.4847333 -0.6137331 -0.6231897
vn 0.4123919 0.7884769 -0.4563301
vn 0.4123919 0.7884769 -0.4563301
vn 0.4123919 0.7884769 -0.4563301
vn 0.4123912 0.7884766 -0.4563313
vn 0.4123916 0.7884765 -0.456331
vn 0.4123965 0.7884728 -0.4563328
vn 0.630471 -0.7567637 -0.1726706
vn 0.6304709 -0.7567637 -0.1726706
vn 0.6304709 -0.7567637 -0.1726706
vn 0.6304713 -0.756763 -0.1726716
vn 0.6304996 -0.756734 -0.1726958
g ScreenEffect_Crack002_v_084_0
f 3/3/3 2/2/2 1/1/1
f 6/6/6 5/5/5 4/4/4
f 7/7/7 4/4/4 5/5/5
f 10/10/10 9/9/9 8/8/8
f 11/11/11 8/8/8 9/9/9
f 11/11/11 9/9/9 12/12/12
f 12/12/12 9/9/9 13/13/13
f 9/9/9 14/14/14 13/13/13
f 17/17/17 16/16/16 15/15/15
f 18/18/18 15/15/15 16/16/16
f 21/21/21 20/20/20 19/19/19
f 20/20/20 22/22/22 19/19/19
f 22/22/22 23/23/23 19/19/19
f 26/26/26 25/25/25 24/24/24
f 25/25/25 27/27/27 24/24/24
f 27/27/27 28/28/28 24/24/24
f 28/28/28 29/29/29 24/24/24
f 32/32/32 31/31/31 30/30/30
f 31/31/31 33/33/33 30/30/30
f 30/30/30 33/33/33 34/34/34
