g ScreenEffect_Crack002_v_034
v 0.01195269 -0.095252 -0.01016947
v -0.1201183 0.05898716 -0.01016947
v -0.1276066 0.05898716 0.005487949
v 0.01195269 -0.095252 -0.01016947
v -0.1296835 0.05898716 0.009830528
v 0.005930958 -0.0993903 0.009830528
v 0.08819947 0.01093044 -0.01016947
v 0.04474382 -0.08532753 0.009830528
v 0.09080545 0.008871727 0.009830528
v 0.04151596 -0.08454059 -0.01016947
v 0.04474382 -0.08532753 0.009830528
v 0.01195269 -0.095252 -0.01016947
v 0.005930958 -0.0993903 0.009830528
v 0.04151596 -0.08454059 -0.01016947
v 0.08819947 0.01093044 -0.01016947
v 0.01195269 -0.095252 -0.01016947
v 0.04151596 -0.08454059 -0.01016947
v 0.06972946 0.05898716 -0.01016947
v -0.1201183 0.05898716 -0.01016947
v -0.1276066 0.05898716 0.005487949
v 0.07154419 0.05898716 0.009830528
v -0.1296835 0.05898716 0.009830528
v 0.07065941 0.05898716 7.936954E-05
v -0.1201183 0.05898716 -0.01016947
v 0.06972946 0.05898716 -0.01016947
v 0.005930958 -0.0993903 0.009830528
v 0.09080545 0.008871727 0.009830528
v 0.04474382 -0.08532753 0.009830528
v -0.1296835 0.05898716 0.009830528
v 0.07154419 0.05898716 0.009830528
v 0.09080545 0.008871727 0.009830528
v 0.06972946 0.05898716 -0.01016947
v 0.08819947 0.01093044 -0.01016947
v 0.07065941 0.05898716 7.936954E-05
v 0.07154419 0.05898716 0.009830528
vt 0 0.01045837
vt 0.1139655 0.4002555
vt 0.1486774 0.4002554
vt 0 0.01045837
vt 0.1583048 0.4002555
vt 0.0412816 0
vt 0.04900149 1.718514
vt 0.02508761 1.504869
vt 0.008712049 1.713945
vt 0.06559814 1.506616
vt 0 4.768371E-09
vt 0.06842136 0.04016883
vt 0.08256391 4.210145E-09
vt 0.005533466 0.04016883
vt 0.625005 0.9519433
vt 0.7012518 0.8457609
vt 0.6716885 0.8564723
vt 0.643475 1
vt 0.8333228 1
vt 0.1591889 0.2171289
vt 0.3583397 0
vt 0.157112 0
vt 0.3574549 0.4875579
vt 0.1666772 1
vt 0.3565249 1
vt 0.2927265 0.8416225
vt 0.377601 0.9498845
vt 0.3315393 0.8556853
vt 0.157112 1
vt 0.3583397 1
vt 0 0
vt 0.04364544 0.1073224
vt 0.04030732 0.004408722
vt 0.02306355 0.1073224
vt 0.003481116 0.1073224
vn 0 0 -1
vn 0 0 -1
vn -0.7139319 -0.6113207 -0.3414501
vn -0.7139325 -0.6113217 -0.341447
vn -0.7139325 -0.6113217 -0.341447
vn -0.7139325 -0.6113218 -0.341447
vn 0.8867526 -0.433605 -0.1601765
vn 0.8867526 -0.433605 -0.1601766
vn 0.8867526 -0.433605 -0.1601765
vn 0.8867525 -0.433605 -0.1601767
vn 0.33922 -0.9362381 -0.09158709
vn 0.33922 -0.9362381 -0.09158709
vn 0.33922 -0.9362381 -0.09158709
vn 0.3392191 -0.9362385 -0.09158554
vn 0 0 -1
vn 0 0 -1
vn 0 0 -1
vn 0 0 -1
vn 0 0 -1
vn 0 1 0
vn 0 1 0
vn 0 1 0
vn 0 1 0
vn 0 1 0
vn 0 1 0
vn 0 0 1
vn 0 0 1
vn 0 0 1
vn 0 0 1
vn 0 0 1
vn 0.9301023 0.3574734 -0.08439467
vn 0.9301023 0.3574734 -0.08439467
vn 0.9301023 0.3574734 -0.08439467
vn 0.9301022 0.3574735 -0.08439446
vn 0.9301023 0.3574737 -0.08439373
g ScreenEffect_Crack002_v_034_0
f 3/3/3 2/2/2 1/1/1
f 5/5/5 3/3/3 4/4/4
f 6/6/6 5/5/5 4/4/4
f 9/9/9 8/8/8 7/7/7
f 10/10/10 7/7/7 8/8/8
f 13/13/13 12/12/12 11/11/11
f 14/14/14 11/11/11 12/12/12
f 17/17/17 16/16/16 15/15/15
f 15/15/15 16/16/16 18/18/18
f 18/18/18 16/16/16 19/19/19
f 22/22/22 21/21/21 20/20/20
f 23/23/23 20/20/20 21/21/21
f 20/20/20 23/23/23 24/24/24
f 25/25/25 24/24/24 23/23/23
f 28/28/28 27/27/27 26/26/26
f 26/26/26 27/27/27 29/29/29
f 29/29/29 27/27/27 30/30/30
f 33/33/33 32/32/32 31/31/31
f 32/32/32 34/34/34 31/31/31
f 34/34/34 35/35/35 31/31/31
