g ScreenEffect_Crack002_v_080
v -0.006397209 0.05506792 -0.01024995
v 0.02207741 0.02055879 0.009750053
v -0.009843692 0.05909861 0.009750053
v 0.02207741 0.02055879 0.009750053
v 0.02263721 0.02001336 -0.01024995
v 0.02207741 0.02055879 0.009750053
v 0.03382309 -0.03647148 -0.01024995
v 0.03391956 -0.03923974 0.009750053
v 0.02207741 0.02055879 0.009750053
v 0.02263721 0.02001336 -0.01024995
v -0.03335253 -0.02680623 -0.01024995
v 0.02263721 0.02001336 -0.01024995
v -0.006397209 0.05506792 -0.01024995
v 0.03382309 -0.03647148 -0.01024995
v -0.03335253 -0.02680623 -0.01024995
v -0.009843692 0.05909861 0.009750053
v -0.03877596 -0.0287803 0.009750053
v -0.006397209 0.05506792 -0.01024995
v 0.03391956 -0.03923974 0.009750053
v -0.009843692 0.05909861 0.009750053
v 0.02207741 0.02055879 0.009750053
v -0.03877596 -0.0287803 0.009750053
v 0.03391956 -0.03923974 0.009750053
v -0.03335253 -0.02680623 -0.01024995
v -0.03877596 -0.0287803 0.009750053
v 0.03382309 -0.03647148 -0.01024995
vt 0.04003664 0.2608962
vt 0.0003448139 0.1712787
vt 0 0.2713636
vt 0.0003448139 0.1712787
vt 0.04035027 0.1698622
vt 0 0.1219185
vt 0.04052028 0.005643978
vt 0.0005348325 0
vt 0 0.1219185
vt 0.04001508 0.1208064
vt 0.218821 0.4511985
vt 0.1628312 0.4980181
vt 0.1918656 0.5330727
vt 0.1516453 0.4415332
vt 0.08389118 0.9475382
vt 0.1118831 1.127943
vt 0.1253165 0.9433926
vt 0.07137568 1.119478
vt 0.8484511 0.438765
vt 0.8046879 0.5371034
vt 0.836609 0.4985635
vt 0.7757556 0.4492244
vt 0.306219 1.611281E-09
vt 0.4429332 0.04036993
vt 0.4531072 2.384186E-09
vt 0.3071984 0.04036992
vn 0.7701316 0.6378715 0.004159115
vn 0 0 1
vn 0 0 1
vn 0.7701313 0.6378718 0.004160207
vn 0.7701313 0.6378718 0.004160208
vn 0 0 1
vn 0.9807091 0.1942139 0.0221511
vn 0.9807091 0.1942139 0.02215109
vn 0.9807092 0.194213 0.02215381
vn 0.9807092 0.194213 0.02215381
vn 0 0 -1
vn 0 0 -1
vn 0 0 -1
vn 0 0 -1
vn -0.92634 0.3049778 -0.2210947
vn -0.92634 0.3049778 -0.2210947
vn -0.92634 0.3049778 -0.2210947
vn -0.9263401 0.3049777 -0.2210944
vn 0 0 1
vn 0 0 1
vn 0 0 1
vn 0 0 1
vn -0.1411086 -0.9807372 -0.1350667
vn -0.1411086 -0.9807372 -0.1350667
vn -0.1411086 -0.9807372 -0.1350667
vn -0.1411088 -0.9807372 -0.1350661
g ScreenEffect_Crack002_v_080_0
f 3/3/3 2/2/2 1/1/1
f 5/5/5 1/1/1 4/4/4
f 8/8/8 7/7/7 6/6/6
f 10/10/10 9/9/9 7/7/7
f 13/13/13 12/12/12 11/11/11
f 14/14/14 11/11/11 12/12/12
f 17/17/17 16/16/16 15/15/15
f 18/18/18 15/15/15 16/16/16
f 21/21/21 20/20/20 19/19/19
f 22/22/22 19/19/19 20/20/20
f 25/25/25 24/24/24 23/23/23
f 26/26/26 23/23/23 24/24/24
