g ScreenEffect_Crack002_v_062
v 0.01153621 -0.08362262 -0.002711811
v 0.0159764 -0.0835315 -0.009618969
v 0.01266917 -0.08327201 -0.009618969
v 0.02958188 0.04567482 -0.009618969
v 0.03481184 0.02285744 -0.009618969
v 0.02846581 0.04589168 0.006655843
v 0.02008199 0.05038226 0.01038103
v 0.02168813 0.04998757 -0.009618969
v 0.02627573 0.04699831 0.01038103
v 0.02846581 0.04589168 0.006655843
v 0.02958188 0.04567482 -0.009618969
v 0.02627573 0.04699831 0.01038103
v -0.03326566 0.04015045 0.01038103
v -0.03030196 1.059532E-05 -0.009618969
v -0.03220203 0.03965171 -0.009618969
v -0.03105856 -0.005896196 0.01038103
v -0.03030196 1.059532E-05 -0.009618969
v 0.02168813 0.04998757 -0.009618969
v -0.03220203 0.03965171 -0.009618969
v 0.03481184 0.02285744 -0.009618969
v 0.02958188 0.04567482 -0.009618969
v 0.0159764 -0.0835315 -0.009618969
v 0.01266917 -0.08327201 -0.009618969
v 0.01300864 -0.02793869 0.01038103
v 0.004656322 -0.07511544 0.01038103
v -0.006180626 -0.05411227 0.01038103
v -0.03105856 -0.005896196 0.01038103
v 0.02627573 0.04699831 0.01038103
v 0.02008199 0.05038226 0.01038103
v -0.03326566 0.04015045 0.01038103
v -0.006180626 -0.05411227 0.01038103
v -0.03030196 1.059532E-05 -0.009618969
v -0.03105856 -0.005896196 0.01038103
v 0.004656322 -0.07511544 0.01038103
v 0.01266917 -0.08327201 -0.009618969
v 0.01153621 -0.08362262 -0.002711811
v 0.01300864 -0.02793869 0.01038103
v 0.01153621 -0.08362262 -0.002711811
v 0.004656322 -0.07511544 0.01038103
v 0.02627573 0.04699831 0.01038103
v 0.02846581 0.04589168 0.006655843
v 0.03481184 0.02285744 -0.009618969
v 0.0159764 -0.0835315 -0.009618969
v 0.01300864 -0.02793869 0.01038103
v 0.02008199 0.05038226 0.01038103
v -0.03220203 0.03965171 -0.009618969
v 0.02168813 0.04998757 -0.009618969
v -0.03326566 0.04015045 0.01038103
vt 0.9497733 0.02623831
vt 0.9409344 0.04008039
vt 0.9475692 0.04008039
vt 0.03262592 0.04681318
vt 0.03330981 0
vt 0 0.04725811
vt 0.1192806 0
vt 0.122478 0.04000897
vt 0.1333963 0
vt 0.1383013 0.007452047
vt 0.1404681 0.04000897
vt 0.1333963 0
vt 0.04216642 0.8498511
vt 0.001912627 0.7694795
vt 0.002109918 0.8488525
vt 0.04193725 0.7576525
vt 0.5152047 0.3842998
vt 0.4632146 0.4342767
vt 0.5171047 0.4239409
vt 0.4500909 0.4071466
vt 0.4553208 0.4299639
vt 0.4689263 0.3007576
vt 0.4722335 0.3010171
vt 0.528106 0.3563505
vt 0.5197536 0.3091737
vt 0.5089167 0.3301769
vt 0.4840388 0.378393
vt 0.541373 0.4312875
vt 0.5351793 0.4346714
vt 0.4818317 0.4244396
vt 0.1043859 0.7403407
vt 0.07410528 0.861698
vt 0.1136835 0.8484535
vt 0.1003358 0.6932463
vt 0.05804573 0.6749571
vt 0.07204014 0.6741711
vt 0.009009733 0.1125987
vt 0.02947181 0
vt 0 0.01720241
vt 0.02332108 0.2641291
vt 0.03195734 0.2618914
vt 0.06621221 0.2153138
vt 0.04589422 0.0001842499
vt 0.009009733 0.1125987
vt 0.10864 0
vt 0.001901307 0.04002381
vt 0.1116461 0.0400238
vt 0 0
vn -0.07806548 -0.9949361 -0.06330799
vn 0 0 -1
vn 0 0 -1
vn 0.9727414 0.2229616 0.06373648
vn 0.9727414 0.2229616 0.06373647
vn 0.9727414 0.2229616 0.06373648
vn 0 0 1
vn 0.4793501 0.8773682 0.02118094
vn 0 0 1
vn 0.4793501 0.8773682 0.02118094
vn 0.4793501 0.8773682 0.02118094
vn 0.4793512 0.8773676 0.02118035
vn -0.9975094 -0.0478124 -0.05185702
vn -0.9975094 -0.0478124 -0.05185702
vn -0.9975094 -0.04781241 -0.05185702
vn -0.9975094 -0.04781251 -0.05185682
vn 0 0 -1
vn 0 0 -1
vn 0 0 -1
vn 0 0 -1
vn 0 0 -1
vn 0 0 -1
vn 0 0 -1
vn 0 0 1
vn 0 0 1
vn 0 0 1
vn 0 0 1
vn 0 0 1
vn 0 0 1
vn 0 0 1
vn -0.876248 -0.4521155 -0.1666762
vn -0.876248 -0.4521156 -0.1666762
vn -0.876248 -0.4521156 -0.1666762
vn -0.8762482 -0.4521154 -0.1666753
vn -0.8762479 -0.4521156 -0.1666766
vn -0.8762487 -0.4521139 -0.1666775
vn 0 0 1
vn 0.8328735 -0.1474545 0.5334594
vn 0 0 1
vn 0 0 1
vn 0.8328735 -0.1474546 0.5334593
vn 0.8328739 -0.1474547 0.5334588
vn 0.8328739 -0.1474547 0.5334588
vn 0.8328735 -0.1474545 0.5334594
vn -0.1882497 0.9815155 -0.03448733
vn -0.1882497 0.9815155 -0.03448733
vn -0.1882497 0.9815155 -0.03448733
vn -0.1882496 0.9815155 -0.03448742
g ScreenEffect_Crack002_v_062_0
f 3/3/3 2/2/2 1/1/1
f 6/6/6 5/5/5 4/4/4
f 9/9/9 8/8/8 7/7/7
f 11/11/11 8/8/8 10/10/10
f 10/10/10 8/8/8 12/12/12
f 15/15/15 14/14/14 13/13/13
f 16/16/16 13/13/13 14/14/14
f 19/19/19 18/18/18 17/17/17
f 18/18/18 20/20/20 17/17/17
f 21/21/21 20/20/20 18/18/18
f 20/20/20 22/22/22 17/17/17
f 17/17/17 22/22/22 23/23/23
f 26/26/26 25/25/25 24/24/24
f 26/26/26 24/24/24 27/27/27
f 24/24/24 28/28/28 27/27/27
f 28/28/28 29/29/29 27/27/27
f 27/27/27 29/29/29 30/30/30
f 33/33/33 32/32/32 31/31/31
f 31/31/31 32/32/32 34/34/34
f 32/32/32 35/35/35 34/34/34
f 35/35/35 36/36/36 34/34/34
f 39/39/39 38/38/38 37/37/37
f 41/41/41 40/40/40 37/37/37
f 43/43/43 42/42/42 38/38/38
f 42/42/42 41/41/41 44/44/44
f 38/38/38 42/42/42 44/44/44
f 47/47/47 46/46/46 45/45/45
f 48/48/48 45/45/45 46/46/46
