g ScreenEffect_Crack002_v_025
v 0.03359268 -0.03688999 -0.01006129
v 0.05548123 0.009577134 0.00993871
v 0.05549789 0.00921375 -0.01006129
v 0.05548123 0.009577134 0.00993871
v 0.0322541 -0.03930888 0.00993871
v 0.03359268 -0.03688999 -0.01006129
v -0.04070078 0.02957249 -0.01006129
v -0.0286375 -0.07286907 -0.01006129
v 0.0007977295 0.06712095 -0.01006129
v 0.05549789 0.00921375 -0.01006129
v -0.03299599 0.05084402 -0.01006129
v -0.03009678 -0.07535772 0.00993871
v 0.05548123 0.009577134 0.00993871
v 0.0322541 -0.03930888 0.00993871
v 0.0006291771 0.06764514 0.00993871
v -0.03284155 0.05152376 0.00993871
v -0.04204571 0.02611274 0.00993871
v -0.0286375 -0.07286907 -0.01006129
v 0.0322541 -0.03930888 0.00993871
v 0.03359268 -0.03688999 -0.01006129
v -0.03009678 -0.07535772 0.00993871
v -0.0286375 -0.07286907 -0.01006129
v -0.04204571 0.02611274 0.00993871
v -0.03009678 -0.07535772 0.00993871
v -0.04070078 0.02957249 -0.01006129
v 0.05548123 0.009577134 0.00993871
v 0.0007977295 0.06712095 -0.01006129
v 0.05549789 0.00921375 -0.01006129
v 0.0006291771 0.06764514 0.00993871
v -0.03284155 0.05152376 0.00993871
v 0.0007977295 0.06712095 -0.01006129
v 0.0006291771 0.06764514 0.00993871
v -0.03299599 0.05084402 -0.01006129
v -0.04070078 0.02957249 -0.01006129
v -0.03284155 0.05152376 0.00993871
v -0.04204571 0.02611274 0.00993871
v -0.03299599 0.05084402 -0.01006129
vt 0.04445719 1.096919
vt 0.004873309 1.199809
vt 0.04487184 1.199004
vt 0.004873309 1.199809
vt 0.004433642 1.091563
vt 0.6401274 0.4953905
vt 0.7144209 0.5618531
vt 0.7023576 0.4594115
vt 0.6729224 0.5994015
vt 0.6182222 0.5414943
vt 0.7067161 0.5831245
vt 0.2961831 0.4569228
vt 0.3817611 0.5418577
vt 0.358534 0.4929716
vt 0.3269091 0.5999256
vt 0.2934383 0.5838042
vt 0.2842342 0.5583932
vt 0.143765 0.04010128
vt 0.004739132 0
vt 0 0.04010128
vt 0.1487829 8.29244E-10
vt 0 0.005011425
vt 0.04218797 0.2043325
vt 0.04010208 0
vt 0.002105847 0.2112995
vt 0 0.000999794
vt 0.04178078 0.1593054
vt 0.03999412 0
vt 0.001791622 0.1607476
vt 0.02562185 1.772846E-09
vt 0.09977242 0.04001488
vt 0.09992363 0
vt 0.02475367 0.04001488
vt 7.070661E-05 0.007359409
vt 0.03999816 0.05405312
vt 0.04008263 0
vt 0 0.0526072
vn 0.9031994 -0.429136 0.00854944
vn 0.9031994 -0.4291361 0.00854944
vn 0.9031994 -0.429136 0.008549439
vn 0 0 1
vn 0 0 1
vn 0 0 -1
vn 0 0 -1
vn 0 0 -1
vn 0 0 -1
vn 0 0 -1
vn 0 0 -1
vn 0 0 1
vn 0 0 1
vn 0 0 1
vn 0 0 1
vn 0 0 1
vn 0 0 1
vn 0.4992625 -0.8635349 -0.07102457
vn 0.4992625 -0.8635349 -0.07102456
vn 0.4992625 -0.8635349 -0.07102457
vn 0.4992623 -0.8635351 -0.07102367
vn -0.9893992 -0.1165094 -0.08668777
vn -0.9893992 -0.1165094 -0.08668778
vn -0.9893992 -0.1165094 -0.08668778
vn -0.9893992 -0.1165093 -0.08668824
vn 0.7268991 0.6866418 -0.01187017
vn 0.726899 0.6866418 -0.01187017
vn 0.7268991 0.6866418 -0.01187017
vn 0.7268991 0.6866416 -0.01187041
vn -0.433782 0.9006054 -0.02726003
vn -0.433782 0.9006054 -0.02726004
vn -0.4337821 0.9006054 -0.02726004
vn -0.4337817 0.9006056 -0.02725931
vn -0.9402143 0.3405562 -0.004314028
vn -0.9402143 0.3405562 -0.004314028
vn -0.9402143 0.3405561 -0.004314028
vn -0.9402142 0.3405564 -0.004314264
g ScreenEffect_Crack002_v_025_0
f 3/3/3 2/2/2 1/1/1
f 5/5/5 1/1/1 4/4/4
f 8/8/8 7/7/7 6/6/6
f 7/7/7 9/9/9 6/6/6
f 6/6/6 9/9/9 10/10/10
f 11/11/11 9/9/9 7/7/7
f 14/14/14 13/13/13 12/12/12
f 13/13/13 15/15/15 12/12/12
f 15/15/15 16/16/16 12/12/12
f 16/16/16 17/17/17 12/12/12
f 20/20/20 19/19/19 18/18/18
f 21/21/21 18/18/18 19/19/19
f 24/24/24 23/23/23 22/22/22
f 25/25/25 22/22/22 23/23/23
f 28/28/28 27/27/27 26/26/26
f 29/29/29 26/26/26 27/27/27
f 32/32/32 31/31/31 30/30/30
f 33/33/33 30/30/30 31/31/31
f 36/36/36 35/35/35 34/34/34
f 37/37/37 34/34/34 35/35/35
