g ScreenEffect_Crack002_v_076
v -0.05215983 0.021096 -0.01015972
v -0.006053171 0.06144338 0.009840277
v -0.05496487 0.02608133 0.009840277
v -0.001844377 0.05747295 -0.01015972
v -0.001844377 0.05747295 -0.01015972
v 0.04765614 0.01195465 0.009840277
v -0.006053171 0.06144338 0.009840277
v 0.04743174 0.01206905 -0.01015972
v -0.05695107 -0.01861782 -0.01015972
v 0.0442129 -0.05358131 0.009840277
v 0.04465465 -0.05142898 -0.01015972
v -0.05905029 -0.02023491 0.009840277
v -0.006053171 0.06144338 0.009840277
v -0.06459332 -0.01118656 0.009840277
v -0.05496487 0.02608133 0.009840277
v 0.0442129 -0.05358131 0.009840277
v -0.05905029 -0.02023491 0.009840277
v 0.05966829 -0.03357124 0.009840277
v 0.04765614 0.01195465 0.009840277
v 0.04765614 0.01195465 0.009840277
v 0.05921272 -0.03258072 -0.01015972
v 0.05966829 -0.03357124 0.009840277
v 0.04743174 0.01206905 -0.01015972
v 0.04743174 0.01206905 -0.01015972
v 0.04465465 -0.05142898 -0.01015972
v 0.05921272 -0.03258072 -0.01015972
v -0.05695107 -0.01861782 -0.01015972
v -0.001844377 0.05747295 -0.01015972
v -0.05215983 0.021096 -0.01015972
v -0.06079787 -0.01233837 -0.01015972
v -0.06079787 -0.01233837 -0.01015972
v -0.05905029 -0.02023491 0.009840277
v -0.05695107 -0.01861782 -0.01015972
v -0.06459332 -0.01118656 0.009840277
v -0.05215983 0.021096 -0.01015972
v -0.06459332 -0.01118656 0.009840277
v -0.06079787 -0.01233837 -0.01015972
v -0.05496487 0.02608133 0.009840277
v 0.04465465 -0.05142898 -0.01015972
v 0.05966829 -0.03357124 0.009840277
v 0.05921272 -0.03258072 -0.01015972
v 0.0442129 -0.05358131 0.009840277
vt 0.6082211 0.04158378
vt 0.7302284 1.907349E-08
vt 0.6095166 1.907349E-08
vt 0.7323973 0.04158378
vt 0.01157127 0.04000023
vt 0.1460661 0
vt 0 0
vt 0.1455809 0.04000023
vt 0.4553074 0.04023778
vt 0.241281 2.109323E-09
vt 0.2417631 0.04023777
vt 0.4583089 4.00662E-09
vt 0.573874 0.2495617
vt 0.5153339 0.1769318
vt 0.5249623 0.2141996
vt 0.6241401 0.134537
vt 0.5208769 0.1678834
vt 0.6395954 0.154547
vt 0.6275833 0.200073
vt 0.0003733397 0.1506973
vt 0.04014701 0.05857856
vt 0.0001400474 0.05652966
vt 0.04037581 0.150934
vt 0.3726411 0.2001873
vt 0.3754182 0.1366893
vt 0.3608601 0.1555376
vt 0.4770239 0.1695005
vt 0.4219172 0.2455912
vt 0.4722326 0.2092143
vt 0.4808707 0.1757799
vt 0.00117467 0.01846193
vt 0.04017204 0
vt 0 0.003780746
vt 0.04186468 0.02115484
vt 0 0.0689775
vt 0.04417352 0.002376289
vt 0.003463793 0
vt 0.04031258 0.07926258
vt 0.04175497 0.005435371
vt 0 0.05053257
vt 0.03998122 0.05303406
vt 0.001883079 0
vn -0.5635783 0.7795241 -0.2733525
vn -0.5635782 0.7795241 -0.2733525
vn -0.5635783 0.7795241 -0.2733525
vn -0.5635787 0.7795242 -0.2733517
vn 0.6776173 0.735407 -0.00339661
vn 0.6776173 0.7354069 -0.00339661
vn 0.6776173 0.7354069 -0.00339661
vn 0.6776171 0.7354071 -0.00339622
vn -0.3054849 -0.9459893 -0.1085513
vn -0.3054849 -0.9459893 -0.1085513
vn -0.3054849 -0.9459893 -0.1085513
vn -0.3054849 -0.9459893 -0.1085513
vn 0 0 1
vn 0 0 1
vn 0 0 1
vn 0 0 1
vn 0 0 1
vn 0 0 1
vn 0 0 1
vn 0.9668663 0.2551106 -0.00938911
vn 0.9668663 0.2551107 -0.00938911
vn 0.9668663 0.2551106 -0.009389109
vn 0.9668663 0.2551106 -0.009388951
vn 0 0 -1
vn 0 0 -1
vn 0 0 -1
vn 0 0 -1
vn 0 0 -1
vn 0 0 -1
vn 0 0 -1
vn -0.8454117 -0.5178999 -0.1306096
vn -0.8454117 -0.5178999 -0.1306096
vn -0.8454117 -0.5178999 -0.1306096
vn -0.8454111 -0.5179007 -0.13061
vn -0.9497437 0.2453739 -0.1943668
vn -0.9497437 0.2453739 -0.1943668
vn -0.9497437 0.2453739 -0.1943668
vn -0.9497437 0.2453736 -0.1943672
vn 0.7904953 -0.610565 -0.04824528
vn 0.7904953 -0.610565 -0.04824528
vn 0.7904953 -0.610565 -0.04824528
vn 0.7904961 -0.6105638 -0.04824693
g ScreenEffect_Crack002_v_076_0
f 3/3/3 2/2/2 1/1/1
f 4/4/4 1/1/1 2/2/2
f 7/7/7 6/6/6 5/5/5
f 8/8/8 5/5/5 6/6/6
f 11/11/11 10/10/10 9/9/9
f 12/12/12 9/9/9 10/10/10
f 15/15/15 14/14/14 13/13/13
f 14/14/14 16/16/16 13/13/13
f 17/17/17 16/16/16 14/14/14
f 16/16/16 18/18/18 13/13/13
f 13/13/13 18/18/18 19/19/19
f 22/22/22 21/21/21 20/20/20
f 23/23/23 20/20/20 21/21/21
f 26/26/26 25/25/25 24/24/24
f 25/25/25 27/27/27 24/24/24
f 24/24/24 27/27/27 28/28/28
f 28/28/28 27/27/27 29/29/29
f 27/27/27 30/30/30 29/29/29
f 33/33/33 32/32/32 31/31/31
f 34/34/34 31/31/31 32/32/32
f 37/37/37 36/36/36 35/35/35
f 38/38/38 35/35/35 36/36/36
f 41/41/41 40/40/40 39/39/39
f 42/42/42 39/39/39 40/40/40
