g ScreenEffect_Crack002_v_042
v -0.06023083 -0.01539501 0.01003334
v 0.03262684 0.111407 -0.0008712446
v 0.03262684 0.1100658 0.01003334
v -0.06023083 -0.01539501 0.01003334
v 0.03262684 0.1125257 -0.009966658
v -0.06108936 -0.01409506 -0.009966658
v -0.06108936 -0.01409506 -0.009966658
v 0.03262684 -0.08279835 -0.009966658
v 0.03262684 0.1125257 -0.009966658
v -0.02478435 -0.05773964 -0.009966658
v 0.03262684 0.1100658 0.01003334
v 0.03262684 -0.08305626 0.003018019
v 0.03262684 -0.0831956 0.01003334
v 0.03262684 0.111407 -0.0008712446
v 0.03262684 -0.08279835 -0.009966658
v 0.03262684 0.1125257 -0.009966658
v 0.03262684 -0.0831956 0.01003334
v -0.06023083 -0.01539501 0.01003334
v 0.03262684 0.1100658 0.01003334
v -0.02461533 -0.0582107 0.01003334
v -0.06023083 -0.01539501 0.01003334
v -0.02478435 -0.05773964 -0.009966658
v -0.06108936 -0.01409506 -0.009966658
v -0.02461533 -0.0582107 0.01003334
v 0.03262684 -0.08305626 0.003018019
v -0.02461533 -0.0582107 0.01003334
v 0.03262684 -0.0831956 0.01003334
v 0.03262684 -0.08279835 -0.009966658
v -0.02478435 -0.05773964 -0.009966658
vt 0.09631719 1.039619
vt 0.09143434 1.35467
vt 0.1131537 1.351338
vt 0.09631719 1.039619
vt 0.07331842 1.35745
vt 0.05632625 1.042849
vt 0.09371618 0.4197273
vt 0 0.351024
vt 0 0.546348
vt 0.05741119 0.3760827
vt 0 0.5438882
vt 0.3507661 0.3507661
vt 0 0.3506267
vt 0.5452293 0.5452293
vt 1 0.351024
vt 1 0.546348
vt 1 0.3506267
vt 0.9071423 0.4184273
vt 1 0.5438882
vt 0.9427578 0.3756117
vt 0.04206626 0.2903982
vt 0.001279044 0.1802416
vt 0.00208787 0.2937799
vt 0.0412728 0.1790162
vt 0.0001114655 0.01403297
vt 0.1249145 0
vt 0 0
vt 0.0003178406 0.04000663
vt 0.1256012 0.04000663
vn 0 0 1
vn -0.8016481 0.5933258 0.07297196
vn 0 0 1
vn -0.8016473 0.593326 0.07297913
vn -0.8016473 0.593326 0.07297914
vn -0.8016476 0.5933259 0.07297695
vn 0 0 -1
vn 0 0 -1
vn 0 0 -1
vn 0 0 -1
vn 1 0 0
vn 1 0 0
vn 1 0 0
vn 1 0 0
vn 1 0 0
vn 1 0 0
vn 0 0 1
vn 0 0 1
vn 0 0 1
vn 0 0 1
vn -0.76876 -0.63948 -0.008564317
vn -0.76876 -0.6394801 -0.008564318
vn -0.76876 -0.6394801 -0.008564318
vn -0.7687601 -0.6394799 -0.008564458
vn -0.3999657 -0.9163493 -0.01820092
vn -0.3999657 -0.9163493 -0.01820092
vn -0.3999657 -0.9163493 -0.01820092
vn -0.3999657 -0.9163493 -0.01820124
vn -0.399966 -0.9163492 -0.01820238
g ScreenEffect_Crack002_v_042_0
f 3/3/3 2/2/2 1/1/1
f 2/2/2 5/5/5 4/4/4
f 5/5/5 6/6/6 4/4/4
f 9/9/9 8/8/8 7/7/7
f 10/10/10 7/7/7 8/8/8
f 13/13/13 12/12/12 11/11/11
f 14/14/14 11/11/11 12/12/12
f 12/12/12 15/15/15 14/14/14
f 16/16/16 14/14/14 15/15/15
f 19/19/19 18/18/18 17/17/17
f 20/20/20 17/17/17 18/18/18
f 23/23/23 22/22/22 21/21/21
f 24/24/24 21/21/21 22/22/22
f 27/27/27 26/26/26 25/25/25
f 25/25/25 26/26/26 28/28/28
f 26/26/26 29/29/29 28/28/28
