g ScreenEffect_Crack002_v_068
v -0.03047361 0.04463473 -0.009953006
v 0.03679853 0.03220125 0.01004699
v -0.03589685 0.04266068 0.01004699
v 0.03679853 0.03220125 0.01004699
v 0.0367021 0.03496948 -0.009953006
v 0.06100466 0.008221435 0.01004699
v -0.01716803 -0.06467149 -0.009953006
v -0.01786054 -0.06356552 0.01004699
v 0.06100466 0.008221435 0.01004699
v 0.06332411 0.008596363 -0.009953006
v -0.0456761 0.0419025 -0.009953006
v -0.03589685 0.04266068 0.01004699
v -0.04806412 0.04047395 0.01004699
v -0.03047361 0.04463473 -0.009953006
v -0.03216541 -0.03810446 0.01004699
v -0.0456761 0.0419025 -0.009953006
v -0.04806412 0.04047395 0.01004699
v -0.02802177 -0.04535305 -0.009953006
v 0.03679853 0.03220125 0.01004699
v 0.06332411 0.008596363 -0.009953006
v 0.06100466 0.008221435 0.01004699
v 0.0367021 0.03496948 -0.009953006
v -0.02802177 -0.04535305 -0.009953006
v -0.03047361 0.04463473 -0.009953006
v -0.0456761 0.0419025 -0.009953006
v 0.06332411 0.008596363 -0.009953006
v -0.01716803 -0.06467149 -0.009953006
v 0.0367021 0.03496948 -0.009953006
v 0.03679853 0.03220125 0.01004699
v -0.04806412 0.04047395 0.01004699
v -0.03589685 0.04266068 0.01004699
v -0.03216541 -0.03810446 0.01004699
v -0.01786054 -0.06356552 0.01004699
v 0.06100466 0.008221435 0.01004699
v -0.01786054 -0.06356552 0.01004699
v -0.02802177 -0.04535305 -0.009953006
v -0.03216541 -0.03810446 0.01004699
v -0.01716803 -0.06467149 -0.009953006
vt 0.01017364 0.04036992
vt 0.146888 0
vt 0 0
vt 0.146888 0
vt 0.1459086 0.04036992
vt 0.00393528 0
vt 0.2176894 0.04008236
vt 0.2172247 4.768371E-09
vt 0.00393528 0
vt 0 0.04008236
vt 0.6445988 0.04004835
vt 0.6641171 1.143875E-09
vt 0.6393927 1.076577E-09
vt 0.6754909 0.04004835
vt 0.06013758 0.7515907
vt 0.02407604 0.9147906
vt 0.06435609 0.9118765
vt 0.0193917 0.7368049
vt 0.004033432 0
vt 0.07494725 0.04017986
vt 0.07217944 3.80814E-10
vt 0 0.04017986
vt 0.2163692 0.3612107
vt 0.2188211 0.4511985
vt 0.2340236 0.4484663
vt 0.1250234 0.4151601
vt 0.2055155 0.3418923
vt 0.1516454 0.4415333
vt 0.8484511 0.438765
vt 0.7635884 0.4470377
vt 0.7757557 0.4492244
vt 0.7794871 0.3684593
vt 0.793792 0.3429982
vt 0.8726573 0.4147852
vt 0.04137136 0.786851
vt 0.001443911 0.8286312
vt 0.04147314 0.8452597
vt 0.001366687 0.7843139
vn 0.1411086 0.9807374 0.1350649
vn 0 0 1
vn 0.1411086 0.9807374 0.1350649
vn 0.1411086 0.9807374 0.135065
vn 0.1411086 0.9807374 0.135065
vn 0 0 1
vn 0.6717584 -0.7379943 0.06407052
vn 0 0 1
vn 0.6717584 -0.7379943 0.06407079
vn 0.6717584 -0.7379943 0.0640708
vn -0.1766746 0.9830428 0.04912148
vn -0.1766746 0.9830428 0.04912148
vn -0.1766746 0.9830428 0.04912148
vn -0.1766749 0.9830428 0.04912163
vn -0.9718114 -0.1966258 -0.1300798
vn -0.9718114 -0.1966258 -0.1300798
vn -0.9718114 -0.1966258 -0.1300798
vn -0.9718117 -0.1966256 -0.1300789
vn 0.7006279 0.7072399 0.09451175
vn 0.7006279 0.7072399 0.09451175
vn 0 0 1
vn 0.7006279 0.7072398 0.09451187
vn 0 0 -1
vn 0 0 -1
vn 0 0 -1
vn 0 0 -1
vn 0 0 -1
vn 0 0 -1
vn 0 0 1
vn 0 0 1
vn 0 0 1
vn 0 0 1
vn 0 0 1
vn 0 0 1
vn -0.8718197 -0.4898171 -0.003101066
vn -0.8718197 -0.4898171 -0.003101066
vn -0.8718197 -0.4898171 -0.003101066
vn -0.8718196 -0.4898174 -0.003101316
g ScreenEffect_Crack002_v_068_0
f 3/3/3 2/2/2 1/1/1
f 5/5/5 1/1/1 4/4/4
f 8/8/8 7/7/7 6/6/6
f 10/10/10 9/9/9 7/7/7
f 13/13/13 12/12/12 11/11/11
f 14/14/14 11/11/11 12/12/12
f 17/17/17 16/16/16 15/15/15
f 18/18/18 15/15/15 16/16/16
f 21/21/21 20/20/20 19/19/19
f 22/22/22 19/19/19 20/20/20
f 25/25/25 24/24/24 23/23/23
f 24/24/24 26/26/26 23/23/23
f 23/23/23 26/26/26 27/27/27
f 28/28/28 26/26/26 24/24/24
f 31/31/31 30/30/30 29/29/29
f 30/30/30 32/32/32 29/29/29
f 32/32/32 33/33/33 29/29/29
f 29/29/29 33/33/33 34/34/34
f 37/37/37 36/36/36 35/35/35
f 38/38/38 35/35/35 36/36/36
