g shandian_002
v -0.2671982 -0.9861204 -0.001064785
v -0.3378009 -1.149608 -0.03534622
v -0.1572707 -1.080265 0.003908894
v -0.3601423 -1.012518 -0.06592053
v -0.3190971 -0.8504915 -0.04588545
v -0.1502728 -1.023796 0.02255023
v -0.3371911 -0.811259 -0.0114143
v -0.238655 -0.8982583 0.02138774
v 0.04353174 -0.9100307 0.06479119
v -0.2988436 -0.7265605 -0.01359572
v -0.09621331 -0.7978158 0.02059544
v 0.1879571 -0.8912169 -0.05749963
v -0.222537 -0.6707535 0.01831508
v 0.02179436 -0.7990419 -0.04753054
v 0.36123 -0.882636 -0.1038358
v -0.1135694 -0.6661621 -0.01013996
v 0.2134555 -0.7545944 -0.06312992
v 0.6001987 -0.7933581 -0.1422814
v 0.01056273 -0.6742008 -0.02423517
v 0.3841722 -0.7212256 -0.1333839
v 0.746532 -0.7900023 -0.1676717
v 0.178004 -0.6458486 -0.04076646
v 0.6032536 -0.6024973 -0.06371816
v 0.8927678 -0.6615178 -0.02643004
v 0.3983026 -0.5502007 0.04326121
v 0.7377023 -0.5467259 0.02990111
v 0.9866423 -0.5671744 -0.04602075
v 0.5445597 -0.4934713 0.05420193
v 0.839341 -0.4223125 -0.01193661
v 1.064795 -0.4396418 0.02997303
v 0.6413445 -0.4148153 0.07558941
v 0.8836817 -0.4059993 0.04597907
v 1.13937 -0.2625706 0.07358998
v 0.6938309 -0.3365049 0.105003
v 0.9135322 -0.3051817 0.1255755
v 1.132838 -0.1192451 0.07021098
v 0.7229404 -0.2125888 0.1423452
v 0.9255443 -0.1021094 0.1162024
v 1.008324 0.04931187 0.1036639
v 0.722914 -0.1078106 0.139866
v 0.8416112 0.0003367164 0.1713777
v 0.8489383 0.07590556 -0.01141215
v 0.6808539 0.01976446 0.2191954
v 0.7341626 0.1533069 0.2101308
v 0.7591264 0.2164021 0.0065274
v 0.5302951 0.07255499 0.3092563
v 0.5883987 0.1956598 0.1279368
v 0.6085219 0.3407769 -0.06117754
v 0.4109057 0.223576 0.3338094
v 0.3717937 0.280814 0.1306968
v 0.4801472 0.4540576 -0.08521007
v 0.2031402 0.3290531 0.3243203
v 0.2012754 0.4290597 0.08745881
v 0.4225106 0.6208794 -0.2221457
v 0.006414967 0.3847591 0.3185044
v 0.1141777 0.4804865 -0.006607604
v 0.4493034 0.7790871 -0.2339396
v -0.143893 0.4519274 0.1111934
v 0.07339223 0.6146106 -0.190292
v 0.5118399 0.916333 -0.2726609
v -0.2073925 0.4660403 -0.1304784
v 0.03958673 0.7786375 -0.2114094
v 0.4186599 1.126489 -0.1705737
v -0.2881731 0.5261989 -0.2362224
v 0.03627405 0.9041681 -0.1712441
v 0.3318725 1.259135 -0.09351798
v -0.3909923 0.7048712 -0.3010911
v 0.003798557 1.05174 -0.2377879
v 0.1966911 1.307074 -0.06248844
v -0.3807412 0.8638132 -0.2564458
v -0.06158083 1.201097 -0.09632602
v 0.09077963 1.307185 0.02417388
v -0.2927368 0.9742692 -0.1186256
v -0.1226402 1.243291 -0.120507
v -0.02500899 1.363701 -0.0001901057
v -0.3565209 1.030482 -0.06643143
v -0.1875112 1.210517 0.04094218
v -0.2858631 1.360639 0.07156115
v -0.4476473 0.994305 -0.008311666
v -0.3488927 1.097052 0.04012023
v -0.5937579 0.9735758 0.02407371
vt 0.5 0
vt 1 0.03846154
vt 1 0
vt 0.5 0.03846154
vt 0 0
vt 1 0.07692308
vt 0 0.03846154
vt 0.5 0.07692308
vt 1 0.1153846
vt 0 0.07692308
vt 0.5 0.1153846
vt 1 0.1538462
vt 0 0.1153846
vt 0.5 0.1538462
vt 1 0.1923077
vt 0 0.1538462
vt 0.5 0.1923077
vt 1 0.2307692
vt 0 0.1923077
vt 0.5 0.2307692
vt 1 0.2692308
vt 0 0.2307692
vt 0.5 0.2692308
vt 1 0.3076923
vt 0 0.2692308
vt 0.5 0.3076923
vt 1 0.3461539
vt 0 0.3076923
vt 0.5 0.3461539
vt 1 0.3846154
vt 0 0.3461539
vt 0.5 0.3846154
vt 1 0.4230769
vt 0 0.3846154
vt 0.5 0.4230769
vt 1 0.4615385
vt 0 0.4230769
vt 0.5 0.4615385
vt 1 0.5
vt 0 0.4615385
vt 0.5 0.5
vt 1 0.5384616
vt 0 0.5
vt 0.5 0.5384616
vt 1 0.5769231
vt 0 0.5384616
vt 0.5 0.5769231
vt 1 0.6153847
vt 0 0.5769231
vt 0.5 0.6153847
vt 1 0.6538463
vt 0 0.6153847
vt 0.5 0.6538463
vt 1 0.6923078
vt 0 0.6538463
vt 0.5 0.6923078
vt 1 0.7307694
vt 0 0.6923078
vt 0.5 0.7307694
vt 1 0.769231
vt 0 0.7307694
vt 0.5 0.769231
vt 1 0.8076925
vt 0 0.769231
vt 0.5 0.8076925
vt 1 0.8461541
vt 0 0.8076925
vt 0.5 0.8461541
vt 1 0.8846157
vt 0 0.8461541
vt 0.5 0.8846157
vt 1 0.9230772
vt 0 0.8846157
vt 0.5 0.9230772
vt 1 0.9615388
vt 0 0.9230772
vt 0.5 0.9615388
vt 1 1
vt 0 0.9615388
vt 0.5 1
vt 0 1
vn 0.4417709 0.00877438 -0.897085
vn 0.2292206 0.7139783 -0.6615836
vn 0.1606404 0.1354568 -0.9776739
vn 0.6919009 -0.5931668 0.4116144
vn -0.4821054 0.2292476 -0.8455884
vn -0.2662453 -0.09955591 0.9587502
vn -0.4974635 0.07618124 0.8641334
vn -0.2750619 -0.05150257 0.9600461
vn 0.2163466 0.5303734 0.819694
vn -0.1914248 0.01544363 0.9813858
vn 0.1515168 0.3518852 0.9236987
vn 0.30439 0.4687912 0.8292054
vn -0.03698336 -0.08044833 0.9960724
vn 0.2960081 0.263203 0.9182066
vn 0.2224513 -0.0289988 0.9745125
vn 0.2250841 -0.05546102 0.9727596
vn 0.2591843 0.1438006 0.9550628
vn 0.1990724 0.2242425 0.953984
vn 0.129608 -0.2201431 0.9668189
vn 0.2170329 -0.07075501 0.9735966
vn -0.1540224 -0.5230662 0.8382593
vn 0.1280916 -0.6217781 0.7726478
vn -0.09378912 -0.7287719 0.6783031
vn 0.05686485 -0.3619886 0.9304464
vn 0.01145002 -0.7906242 0.6121947
vn 0.04616397 -0.3237201 0.945026
vn 0.05953018 -0.20702 0.9765239
vn 0.1003211 -0.2960045 0.9499037
vn 0.08984637 -0.5803692 0.809382
vn -0.09518068 -0.3847203 0.9181128
vn 0.2405547 -0.5677855 0.787244
vn -0.008774484 -0.7494554 0.6619967
vn 0.1772718 -0.1276051 0.9758543
vn 0.03319097 -0.3689156 0.9288701
vn 0.1448436 -0.2808973 0.9487449
vn 0.2329087 0.1058331 0.9667227
vn 0.04309201 -0.009152285 0.9990292
vn 0.210606 0.04523848 0.9765238
vn 0.2928278 0.3131005 0.9034489
vn 0.06370457 -0.1266462 0.9899003
vn 0.2942371 0.2478976 0.9230229
vn 0.6475973 0.7194738 0.2509483
vn 0.2811619 0.09422518 0.9550233
vn 0.5047143 0.6266931 0.5937333
vn 0.562311 0.7322619 0.384186
vn 0.4861768 0.5258269 0.6979528
vn 0.4267561 0.7515504 0.503042
vn 0.4919933 0.6082294 0.6228961
vn 0.6554433 0.6774477 0.333854
vn 0.5513359 0.6987372 0.4558454
vn 0.5062934 0.5688033 0.6481743
vn 0.5346425 0.7681198 0.3523485
vn 0.3969771 0.7372699 0.5466647
vn 0.6455356 0.2692515 0.7146939
vn 0.251229 0.8466075 0.4691903
vn 0.1342415 0.7728939 0.6201727
vn 0.0213641 0.3898948 0.9206114
vn -0.05515692 0.8741421 0.4825279
vn -0.1256784 0.5201534 0.8447753
vn 0.2470104 -0.07143374 0.9663763
vn -0.5394815 0.6270123 0.5619745
vn 0.1082439 -0.00989224 0.9940751
vn 0.3890847 -0.2738747 0.8795486
vn -0.5788331 0.3223881 0.7490114
vn -0.2404513 0.02932791 0.9702181
vn -0.09551352 -0.2937707 0.9510921
vn -0.4015741 0.08288197 0.9120684
vn -0.3444192 -0.0695871 0.9362335
vn 0.3139423 -0.5570594 0.7688466
vn 0.4182167 -0.3428946 0.841141
vn 0.08559549 -0.342382 0.9356538
vn 0.1751393 -0.5735247 0.8002474
vn 0.5506987 -0.2611278 0.7928073
vn 0.3395484 -0.3479009 0.8738831
vn -0.1340896 -0.3375096 0.9317227
vn 0.532553 -0.3139475 0.7860179
vn 0.5441508 -0.333263 0.7699583
vn 0.2449815 -0.1280754 0.9610311
vn 0.5643326 -0.47219 0.6771746
vn 0.5387272 -0.428586 0.7253186
vn 0.6008397 -0.4737941 0.6438251
g shandian_002_0
f 3/3/3 2/2/2 1/1/1
f 2/2/2 4/4/4 1/1/1
f 1/1/1 4/4/4 5/5/5
f 2/2/2 6/6/6 4/4/4
f 4/4/4 7/7/7 5/5/5
f 6/6/6 8/8/8 4/4/4
f 4/4/4 8/8/8 7/7/7
f 6/6/6 9/9/9 8/8/8
f 8/8/8 10/10/10 7/7/7
f 9/9/9 11/11/11 8/8/8
f 8/8/8 11/11/11 10/10/10
f 9/9/9 12/12/12 11/11/11
f 11/11/11 13/13/13 10/10/10
f 12/12/12 14/14/14 11/11/11
f 11/11/11 14/14/14 13/13/13
f 12/12/12 15/15/15 14/14/14
f 14/14/14 16/16/16 13/13/13
f 15/15/15 17/17/17 14/14/14
f 14/14/14 17/17/17 16/16/16
f 15/15/15 18/18/18 17/17/17
f 17/17/17 19/19/19 16/16/16
f 18/18/18 20/20/20 17/17/17
f 17/17/17 20/20/20 19/19/19
f 18/18/18 21/21/21 20/20/20
f 20/20/20 22/22/22 19/19/19
f 21/21/21 23/23/23 20/20/20
f 20/20/20 23/23/23 22/22/22
f 21/21/21 24/24/24 23/23/23
f 23/23/23 25/25/25 22/22/22
f 24/24/24 26/26/26 23/23/23
f 23/23/23 26/26/26 25/25/25
f 24/24/24 27/27/27 26/26/26
f 26/26/26 28/28/28 25/25/25
f 27/27/27 29/29/29 26/26/26
f 26/26/26 29/29/29 28/28/28
f 27/27/27 30/30/30 29/29/29
f 29/29/29 31/31/31 28/28/28
f 30/30/30 32/32/32 29/29/29
f 29/29/29 32/32/32 31/31/31
f 30/30/30 33/33/33 32/32/32
f 32/32/32 34/34/34 31/31/31
f 33/33/33 35/35/35 32/32/32
f 32/32/32 35/35/35 34/34/34
f 33/33/33 36/36/36 35/35/35
f 35/35/35 37/37/37 34/34/34
f 36/36/36 38/38/38 35/35/35
f 35/35/35 38/38/38 37/37/37
f 36/36/36 39/39/39 38/38/38
f 38/38/38 40/40/40 37/37/37
f 39/39/39 41/41/41 38/38/38
f 38/38/38 41/41/41 40/40/40
f 39/39/39 42/42/42 41/41/41
f 41/41/41 43/43/43 40/40/40
f 42/42/42 44/44/44 41/41/41
f 41/41/41 44/44/44 43/43/43
f 42/42/42 45/45/45 44/44/44
f 44/44/44 46/46/46 43/43/43
f 45/45/45 47/47/47 44/44/44
f 44/44/44 47/47/47 46/46/46
f 45/45/45 48/48/48 47/47/47
f 47/47/47 49/49/49 46/46/46
f 48/48/48 50/50/50 47/47/47
f 47/47/47 50/50/50 49/49/49
f 48/48/48 51/51/51 50/50/50
f 50/50/50 52/52/52 49/49/49
f 51/51/51 53/53/53 50/50/50
f 50/50/50 53/53/53 52/52/52
f 51/51/51 54/54/54 53/53/53
f 53/53/53 55/55/55 52/52/52
f 54/54/54 56/56/56 53/53/53
f 53/53/53 56/56/56 55/55/55
f 54/54/54 57/57/57 56/56/56
f 56/56/56 58/58/58 55/55/55
f 57/57/57 59/59/59 56/56/56
f 56/56/56 59/59/59 58/58/58
f 57/57/57 60/60/60 59/59/59
f 59/59/59 61/61/61 58/58/58
f 60/60/60 62/62/62 59/59/59
f 59/59/59 62/62/62 61/61/61
f 60/60/60 63/63/63 62/62/62
f 62/62/62 64/64/64 61/61/61
f 63/63/63 65/65/65 62/62/62
f 62/62/62 65/65/65 64/64/64
f 63/63/63 66/66/66 65/65/65
f 65/65/65 67/67/67 64/64/64
f 66/66/66 68/68/68 65/65/65
f 65/65/65 68/68/68 67/67/67
f 66/66/66 69/69/69 68/68/68
f 68/68/68 70/70/70 67/67/67
f 69/69/69 71/71/71 68/68/68
f 68/68/68 71/71/71 70/70/70
f 69/69/69 72/72/72 71/71/71
f 71/71/71 73/73/73 70/70/70
f 72/72/72 74/74/74 71/71/71
f 71/71/71 74/74/74 73/73/73
f 72/72/72 75/75/75 74/74/74
f 74/74/74 76/76/76 73/73/73
f 75/75/75 77/77/77 74/74/74
f 74/74/74 77/77/77 76/76/76
f 75/75/75 78/78/78 77/77/77
f 77/77/77 79/79/79 76/76/76
f 78/78/78 80/80/80 77/77/77
f 77/77/77 80/80/80 79/79/79
f 80/80/80 81/81/81 79/79/79
