g ShockWave_A
v 4.290138E-08 0.5748525 -0.3154228
v -0.09982203 0.5661192 0.3154228
v -0.09982203 0.5661192 -0.3154228
v 4.290138E-08 0.5748525 0.3154228
v 0.09982213 0.5661192 -0.3154228
v 0.09982213 0.5661192 0.3154228
v 0.1966111 0.5401847 -0.3154228
v 0.1966111 0.5401846 0.3154227
v 0.2874262 0.497837 -0.3154228
v 0.2874262 0.4978369 0.3154227
v 0.3695081 0.4403626 -0.3154228
v 0.3695081 0.4403626 0.3154227
v 0.4403625 0.3695081 -0.3154228
v 0.4403625 0.3695081 0.3154227
v 0.497837 0.2874263 -0.3154228
v 0.497837 0.2874263 0.3154227
v 0.5401847 0.1966112 -0.3154228
v 0.5401847 0.1966112 0.3154228
v 0.5661192 0.09982219 -0.3154228
v 0.5661192 0.09982218 0.3154228
v 0.5748525 7.377645E-08 -0.3154228
v 0.5748525 6.404124E-08 0.3154228
v 0.5661191 -0.09982243 -0.3154228
v 0.5661191 -0.09982244 0.3154228
v 0.5401846 -0.1966114 -0.3154228
v 0.5401846 -0.1966114 0.3154228
v 0.4978367 -0.2874265 -0.3154228
v 0.4978367 -0.2874265 0.3154228
v 0.4403623 -0.3695083 -0.3154228
v 0.4403623 -0.3695084 0.3154228
v 0.3695078 -0.4403628 -0.3154228
v 0.3695078 -0.4403628 0.3154228
v 0.287426 -0.4978371 -0.3154228
v 0.287426 -0.4978371 0.3154228
v 0.1966109 -0.5401848 -0.3154228
v 0.1966109 -0.5401848 0.3154228
v 0.09982181 -0.5661192 -0.3154228
v 0.09982181 -0.5661193 0.3154228
v -2.677548E-07 -0.5748525 -0.3154228
v -2.677548E-07 -0.5748525 0.3154228
v -0.09982232 -0.5661191 -0.3154228
v -0.09982232 -0.5661191 0.3154228
v -0.1966113 -0.5401846 -0.3154228
v -0.1966113 -0.5401846 0.3154228
v -0.2874264 -0.4978367 -0.3154228
v -0.2874264 -0.4978368 0.3154228
v -0.3695082 -0.4403625 -0.3154228
v -0.3695082 -0.4403625 0.3154228
v -0.4403628 -0.3695077 -0.3154228
v -0.4403628 -0.3695078 0.3154228
v -0.497837 -0.2874259 -0.3154228
v -0.497837 -0.2874259 0.3154228
v -0.5401848 -0.1966108 -0.3154228
v -0.5401848 -0.1966108 0.3154228
v -0.5661192 -0.09982178 -0.3154228
v -0.5661192 -0.09982178 0.3154228
v -0.5748525 2.976323E-07 -0.3154228
v -0.5748525 2.878971E-07 0.3154228
v -0.5661191 0.09982238 -0.3154228
v -0.5661191 0.09982236 0.3154228
v -0.5401846 0.1966114 -0.3154228
v -0.5401846 0.1966114 0.3154228
v -0.4978368 0.2874265 -0.3154228
v -0.4978368 0.2874265 0.3154227
v -0.4403625 0.3695083 -0.3154228
v -0.4403625 0.3695082 0.3154227
v -0.369508 0.4403627 -0.3154228
v -0.369508 0.4403626 0.3154227
v -0.2874262 0.497837 -0.3154228
v -0.2874262 0.4978369 0.3154227
v -0.1966111 0.5401847 -0.3154228
v -0.1966111 0.5401847 0.3154227
v -0.09982203 0.5661192 -0.3154228
v -0.09982203 0.5661192 0.3154228
vt 0.9999999 0
vt 1.027778 1
vt 1.027778 0
vt 0.9999999 1
vt 0.9722222 0
vt 0.9722222 1
vt 0.9444444 0
vt 0.9444444 1
vt 0.9166667 0
vt 0.9166667 1
vt 0.8888889 0
vt 0.8888889 1
vt 0.861111 0
vt 0.861111 1
vt 0.8333333 0
vt 0.8333333 1
vt 0.8055555 0
vt 0.8055555 1
vt 0.7777777 0
vt 0.7777777 1
vt 0.75 0
vt 0.75 1
vt 0.722222 0
vt 0.722222 1
vt 0.6944443 0
vt 0.6944443 1
vt 0.6666666 0
vt 0.6666666 1
vt 0.6388888 0
vt 0.6388888 1
vt 0.611111 0
vt 0.611111 1
vt 0.5833333 0
vt 0.5833333 1
vt 0.5555555 0
vt 0.5555555 1
vt 0.5277777 0
vt 0.5277777 1
vt 0.4999999 0
vt 0.4999999 1
vt 0.4722221 0
vt 0.4722221 1
vt 0.4444444 0
vt 0.4444444 1
vt 0.4166666 0
vt 0.4166666 1
vt 0.3888888 0
vt 0.3888888 1
vt 0.361111 0
vt 0.361111 1
vt 0.3333333 0
vt 0.3333333 1
vt 0.3055555 0
vt 0.3055555 1
vt 0.2777777 0
vt 0.2777777 1
vt 0.2499999 0
vt 0.2499999 1
vt 0.2222222 0
vt 0.2222222 1
vt 0.1944444 0
vt 0.1944444 1
vt 0.1666666 0
vt 0.1666666 1
vt 0.1388889 0
vt 0.1388889 1
vt 0.1111111 0
vt 0.1111111 1
vt 0.08333331 0
vt 0.08333331 1
vt 0.05555554 0
vt 0.05555554 1
vt 0.02777777 0
vt 0.02777777 1
vn 0 1 0
vn -0.173648 0.9848077 0
vn -0.173648 0.9848077 0
vn 0 1 0
vn 0.1736483 0.9848077 0
vn 0.1736483 0.9848077 0
vn 0.3420201 0.9396926 0
vn 0.3420201 0.9396926 0
vn 0.4999998 0.8660256 0
vn 0.4999998 0.8660256 0
vn 0.6427876 0.7660444 0
vn 0.6427876 0.7660444 0
vn 0.7660445 0.6427875 0
vn 0.7660445 0.6427875 0
vn 0.8660254 0.5 0
vn 0.8660254 0.5 0
vn 0.9396926 0.3420202 0
vn 0.9396926 0.3420202 0
vn 0.9848077 0.1736482 0
vn 0.9848077 0.1736482 0
vn 1 -3.666205E-07 0
vn 1 -3.666205E-07 0
vn 0.9848077 -0.1736487 0
vn 0.9848077 -0.1736487 0
vn 0.9396924 -0.3420206 0
vn 0.9396924 -0.3420206 0
vn 0.8660251 -0.5000006 0
vn 0.8660251 -0.5000006 0
vn 0.766044 -0.6427881 0
vn 0.766044 -0.6427881 0
vn 0.642787 -0.7660449 0
vn 0.642787 -0.7660449 0
vn 0.4999993 -0.8660258 0
vn 0.4999993 -0.8660258 0
vn 0.3420198 -0.9396927 0
vn 0.3420198 -0.9396927 0
vn 0.1736477 -0.9848078 0
vn 0.1736477 -0.9848078 0
vn -5.570727E-07 -1 0
vn -5.570727E-07 -1 0
vn -0.1736486 -0.9848077 0
vn -0.1736486 -0.9848077 0
vn -0.3420206 -0.9396926 0
vn -0.3420206 -0.9396926 0
vn -0.5000002 -0.8660253 0
vn -0.5000002 -0.8660253 0
vn -0.6427878 -0.7660443 0
vn -0.6427878 -0.7660443 0
vn -0.7660449 -0.642787 0
vn -0.7660449 -0.642787 0
vn -0.8660257 -0.4999995 0
vn -0.8660257 -0.4999995 0
vn -0.9396926 -0.3420199 0
vn -0.9396926 -0.3420199 0
vn -0.9848078 -0.1736478 0
vn -0.9848078 -0.1736478 0
vn -1 5.523115E-07 0
vn -1 5.523115E-07 0
vn -0.9848077 0.1736486 0
vn -0.9848077 0.1736486 0
vn -0.9396926 0.3420203 0
vn -0.9396926 0.3420203 0
vn -0.8660253 0.5000002 0
vn -0.8660253 0.5000002 0
vn -0.7660443 0.6427879 0
vn -0.7660443 0.6427879 0
vn -0.6427874 0.7660446 0
vn -0.6427874 0.7660446 0
vn -0.4999999 0.8660255 0
vn -0.4999999 0.8660255 0
vn -0.34202 0.9396926 0
vn -0.34202 0.9396926 0
vn -0.173648 0.9848077 0
vn -0.173648 0.9848077 0
g ShockWave_A_0
f 3/3/3 2/2/2 1/1/1
f 2/2/2 4/4/4 1/1/1
f 1/1/1 4/4/4 5/5/5
f 4/4/4 6/6/6 5/5/5
f 5/5/5 6/6/6 7/7/7
f 6/6/6 8/8/8 7/7/7
f 7/7/7 8/8/8 9/9/9
f 8/8/8 10/10/10 9/9/9
f 9/9/9 10/10/10 11/11/11
f 10/10/10 12/12/12 11/11/11
f 11/11/11 12/12/12 13/13/13
f 12/12/12 14/14/14 13/13/13
f 13/13/13 14/14/14 15/15/15
f 14/14/14 16/16/16 15/15/15
f 15/15/15 16/16/16 17/17/17
f 16/16/16 18/18/18 17/17/17
f 17/17/17 18/18/18 19/19/19
f 18/18/18 20/20/20 19/19/19
f 19/19/19 20/20/20 21/21/21
f 20/20/20 22/22/22 21/21/21
f 21/21/21 22/22/22 23/23/23
f 22/22/22 24/24/24 23/23/23
f 23/23/23 24/24/24 25/25/25
f 24/24/24 26/26/26 25/25/25
f 25/25/25 26/26/26 27/27/27
f 26/26/26 28/28/28 27/27/27
f 27/27/27 28/28/28 29/29/29
f 28/28/28 30/30/30 29/29/29
f 29/29/29 30/30/30 31/31/31
f 30/30/30 32/32/32 31/31/31
f 31/31/31 32/32/32 33/33/33
f 32/32/32 34/34/34 33/33/33
f 33/33/33 34/34/34 35/35/35
f 34/34/34 36/36/36 35/35/35
f 35/35/35 36/36/36 37/37/37
f 36/36/36 38/38/38 37/37/37
f 37/37/37 38/38/38 39/39/39
f 38/38/38 40/40/40 39/39/39
f 39/39/39 40/40/40 41/41/41
f 40/40/40 42/42/42 41/41/41
f 41/41/41 42/42/42 43/43/43
f 42/42/42 44/44/44 43/43/43
f 43/43/43 44/44/44 45/45/45
f 44/44/44 46/46/46 45/45/45
f 45/45/45 46/46/46 47/47/47
f 46/46/46 48/48/48 47/47/47
f 47/47/47 48/48/48 49/49/49
f 48/48/48 50/50/50 49/49/49
f 49/49/49 50/50/50 51/51/51
f 50/50/50 52/52/52 51/51/51
f 51/51/51 52/52/52 53/53/53
f 52/52/52 54/54/54 53/53/53
f 53/53/53 54/54/54 55/55/55
f 54/54/54 56/56/56 55/55/55
f 55/55/55 56/56/56 57/57/57
f 56/56/56 58/58/58 57/57/57
f 57/57/57 58/58/58 59/59/59
f 58/58/58 60/60/60 59/59/59
f 59/59/59 60/60/60 61/61/61
f 60/60/60 62/62/62 61/61/61
f 61/61/61 62/62/62 63/63/63
f 62/62/62 64/64/64 63/63/63
f 63/63/63 64/64/64 65/65/65
f 64/64/64 66/66/66 65/65/65
f 65/65/65 66/66/66 67/67/67
f 66/66/66 68/68/68 67/67/67
f 67/67/67 68/68/68 69/69/69
f 68/68/68 70/70/70 69/69/69
f 69/69/69 70/70/70 71/71/71
f 70/70/70 72/72/72 71/71/71
f 71/71/71 72/72/72 73/73/73
f 72/72/72 74/74/74 73/73/73
