g shop_zhuangshi_05
v 0 -0.2899554 3.051758E-07
v 0.1508901 -0.2174665 3.051758E-07
v 0.1092631 -0.2899554 3.051758E-07
v 0 -0.2174665 3.051758E-07
v 0.2159155 -0.1449777 3.051758E-07
v 0 -0.1449777 3.051758E-07
v 0.3149057 -0.07248884 3.051758E-07
v 0 -0.07248884 3.051758E-07
v 0.4718061 0 3.051758E-07
v 0 0 3.051758E-07
v 0 -0.2174665 -0.1769086
v 0 -0.2899554 -0.1769086
v 0.1092631 -0.2899554 -0.1769086
v 0.1508901 -0.2174665 -0.1769086
v 0 -0.1449777 -0.1769086
v 0.2159155 -0.1449777 -0.1769086
v 0 -0.07248884 -0.1769086
v 0.3149057 -0.07248884 -0.1769086
v 0 0 -0.1769086
v 0.4718061 0 -0.1769086
v 0 -0.2899554 -0.1769086
v 0 -0.2899554 3.051758E-07
v 0.1092631 -0.2899554 3.051758E-07
v 0.1092631 -0.2899554 -0.1769086
v 0.1092631 -0.2899554 3.051758E-07
v 0.1508901 -0.2174665 -0.1769086
v 0.1092631 -0.2899554 -0.1769086
v 0.1508901 -0.2174665 3.051758E-07
v 0.2159155 -0.1449777 -0.1769086
v 0.2159155 -0.1449777 3.051758E-07
v 0.3149057 -0.07248884 -0.1769086
v 0.3149057 -0.07248884 3.051758E-07
v 0.4718061 0 -0.1769086
v 0.4718061 0 3.051758E-07
vt 0.03594977 0.3030654
vt 0.07664168 0.2183626
vt 0.03594977 0.24173
vt 0.07664168 0.3030654
vt 0.1173337 0.1818602
vt 0.1173337 0.3030654
vt 0.1580256 0.1262916
vt 0.1580256 0.3030654
vt 0.1987175 0.03821483
vt 0.1987175 0.3030654
vt 0.07664168 0.3030654
vt 0.03594971 0.3030654
vt 0.03594971 0.24173
vt 0.07664168 0.2183626
vt 0.1173337 0.3030654
vt 0.1173337 0.1818603
vt 0.1580255 0.3030654
vt 0.1580255 0.1262916
vt 0.1987175 0.3030654
vt 0.1987175 0.03821481
vt 0.3069737 0.03300722
vt 0.2076651 0.03300722
vt 0.2076651 0.09434254
vt 0.3069737 0.09434254
vt 0.2076651 0.09434254
vt 0.3069737 0.1350345
vt 0.3069737 0.09434254
vt 0.2076651 0.1350345
vt 0.3069737 0.1757264
vt 0.2076651 0.1757264
vt 0.3069737 0.2164184
vt 0.2076651 0.2164184
vt 0.3069737 0.3044951
vt 0.2076651 0.3044951
vn 0 0 1
vn 0 0 1
vn 0 0 1
vn 0 0 1
vn 0 0 1
vn 0 0 1
vn 0 0 1
vn 0 0 1
vn 0 0 1
vn 0 0 1
vn 0 0 -1
vn 0 0 -1
vn 0 0 -1
vn 0 0 -1
vn 0 0 -1
vn 0 0 -1
vn 0 0 -1
vn 0 0 -1
vn 0 0 -1
vn 0 0 -1
vn 0 -1 0
vn 0 -1 0
vn 0 -1 0
vn 0 -1 0
vn 0.8671861 -0.4979844 0
vn 0.8055153 -0.5925749 0
vn 0.8671861 -0.4979844 0
vn 0.8055153 -0.5925749 0
vn 0.6622839 -0.749253 0
vn 0.6622839 -0.749253 0
vn 0.492943 -0.8700616 0
vn 0.492943 -0.8700616 0
vn 0.4194076 -0.9077981 0
vn 0.4194076 -0.9077981 0
g shop_zhuangshi_05_0
f 3/3/3 2/2/2 1/1/1
f 2/2/2 4/4/4 1/1/1
f 2/2/2 5/5/5 4/4/4
f 5/5/5 6/6/6 4/4/4
f 5/5/5 7/7/7 6/6/6
f 7/7/7 8/8/8 6/6/6
f 7/7/7 9/9/9 8/8/8
f 9/9/9 10/10/10 8/8/8
f 13/13/13 12/12/12 11/11/11
f 14/14/14 13/13/13 11/11/11
f 14/14/14 11/11/11 15/15/15
f 16/16/16 14/14/14 15/15/15
f 16/16/16 15/15/15 17/17/17
f 18/18/18 16/16/16 17/17/17
f 18/18/18 17/17/17 19/19/19
f 20/20/20 18/18/18 19/19/19
f 23/23/23 22/22/22 21/21/21
f 24/24/24 23/23/23 21/21/21
f 27/27/27 26/26/26 25/25/25
f 26/26/26 28/28/28 25/25/25
f 26/26/26 29/29/29 28/28/28
f 29/29/29 30/30/30 28/28/28
f 29/29/29 31/31/31 30/30/30
f 31/31/31 32/32/32 30/30/30
f 31/31/31 33/33/33 32/32/32
f 33/33/33 34/34/34 32/32/32
