g shop_split22
v -0.06017813 0.4914215 0.1360693
v -0.06017813 0.4914215 3.662109E-06
v -0.06017822 -3.04939E-06 3.662109E-06
v -0.06017822 -3.04939E-06 0.1360693
v -0.110179 0.5562298 0.7588318
v -0.110179 0.5562298 0.8471313
v -0.1101785 3.96542 0.8471301
v -0.1101785 3.96542 0.7588318
v -0.1101787 0.5562298 0.04776977
v -0.1101785 3.96542 0.04776977
v -0.3629782 3.96542 -0.004431152
v -0.3629794 0.5562299 -0.004431152
v -0.06017822 -3.04939E-06 3.662109E-06
v -0.06017813 0.4914215 3.662109E-06
v -0.3629794 0.491424 -0.0584375
v -0.3629788 -1.779354E-06 -0.0584375
v -0.3629794 0.491424 0.9533435
v -0.06017844 0.4914215 0.8948999
v -0.06017822 -3.04939E-06 0.8948999
v -0.3629788 -1.779354E-06 0.9533411
v -0.3629782 3.96542 0.8993347
v -0.1101785 3.96542 0.8471301
v -0.110179 0.5562298 0.8471313
v -0.3629794 0.5562299 0.8993396
v -0.110179 0.5562298 0.8471313
v -0.110179 0.5562298 0.7588318
v -0.06017844 0.4914215 0.758833
v -0.06017844 0.4914215 0.8948999
v -0.3629794 0.5562299 -0.004431152
v -0.3629794 0.491424 -0.0584375
v -0.06017813 0.4914215 3.662109E-06
v -0.1101787 0.5562298 0.04776977
v -0.110179 0.5562298 0.8471313
v -0.06017844 0.4914215 0.8948999
v -0.3629794 0.491424 0.9533435
v -0.3629794 0.5562299 0.8993396
v -0.06017844 0.4914215 0.8948999
v -0.06017844 0.4914215 0.758833
v -0.06017822 -3.04939E-06 0.758833
v -0.06017822 -3.04939E-06 0.8948999
v -0.1101787 0.5562298 0.04776977
v -0.1101787 0.5562298 0.1360681
v -0.1101785 3.96542 0.1360681
v -0.1101785 3.96542 0.04776977
v -0.06017813 0.4914215 0.1360693
v -0.1101787 0.5562298 0.1360681
v -0.1101787 0.5562298 0.04776977
v -0.06017813 0.4914215 3.662109E-06
v -2.357436E-06 0.4914215 0.1617151
v -0.06017813 0.4914215 0.1360693
v -0.06017822 -3.04939E-06 0.1360693
v -2.437499E-06 -3.059194E-06 0.1617151
v -0.05000295 0.5562286 0.7331873
v -0.110179 0.5562298 0.7588318
v -0.1101785 3.96542 0.7588318
v -0.0500024 3.965419 0.7331873
v -2.357436E-06 0.4914215 0.7331873
v -0.06017844 0.4914215 0.758833
v -0.110179 0.5562298 0.7588318
v -0.05000295 0.5562286 0.7331873
v -0.06017844 0.4914215 0.758833
v -2.357436E-06 0.4914215 0.7331873
v -2.437499E-06 -3.059194E-06 0.7331873
v -0.06017822 -3.04939E-06 0.758833
v -0.1101787 0.5562298 0.1360681
v -0.05000295 0.5562286 0.1617151
v -0.0500024 3.965419 0.1617151
v -0.1101785 3.96542 0.1360681
v -0.06017813 0.4914215 0.1360693
v -2.357436E-06 0.4914215 0.1617151
v -0.05000295 0.5562286 0.1617151
v -0.1101787 0.5562298 0.1360681
v -2.357436E-06 0.4914215 0.1617151
v -2.437499E-06 -3.059194E-06 0.1617151
v -2.437499E-06 -3.059194E-06 0.7331873
v -2.357436E-06 0.4914215 0.7331873
v -0.05000295 0.5562286 0.7331873
v -0.0500024 3.965419 0.7331873
v -0.0500024 3.965419 0.1617151
v -0.05000295 0.5562286 0.1617151
v -2.357436E-06 0.4914215 0.7331873
v -0.05000295 0.5562286 0.7331873
v -0.05000295 0.5562286 0.1617151
v -2.357436E-06 0.4914215 0.1617151
vt 0.5869883 0.05962581
vt 0.625 0.05962581
vt 0.625 0
vt 0.5869883 0
vt 0.4026157 0.05962581
vt 0.375 0.05962581
vt 0.375 0.25
vt 0.4026154 0.25
vt 0.625 0.05962581
vt 0.625 0.25
vt 0.75 0.25
vt 0.75 0.05962581
vt 0.625 0
vt 0.625 0.05962581
vt 0.75 0.05962581
vt 0.75 0
vt 0.25 0.05962581
vt 0.375 0.05962581
vt 0.375 0
vt 0.25 0
vt 0.25 0.25
vt 0.375 0.25
vt 0.375 0.05962581
vt 0.25 0.05962581
vt 0.375 0.05962581
vt 0.4026157 0.05962581
vt 0.4130119 0.05962581
vt 0.375 0.05962581
vt 0.75 0.05962581
vt 0.75 0.05962581
vt 0.625 0.05962581
vt 0.625 0.05962581
vt 0.375 0.05962581
vt 0.375 0.05962581
vt 0.25 0.05962581
vt 0.25 0.05962581
vt 0.375 0.05962581
vt 0.4130119 0.05962581
vt 0.4130119 0
vt 0.375 0
vt 0.625 0.05962581
vt 0.5973846 0.05962581
vt 0.5973846 0.25
vt 0.625 0.25
vt 0.5869883 0.05962581
vt 0.5973846 0.05962581
vt 0.625 0.05962581
vt 0.625 0.05962581
vt 0.5798238 0.05962581
vt 0.5869883 0.05962581
vt 0.5869883 0
vt 0.5798238 0
vt 0.4106365 0.05962581
vt 0.4026157 0.05962581
vt 0.4026154 0.25
vt 0.4106362 0.25
vt 0.4201764 0.05962581
vt 0.4130119 0.05962581
vt 0.4026157 0.05962581
vt 0.4106365 0.05962581
vt 0.4130119 0.05962581
vt 0.4201764 0.05962581
vt 0.4201764 0
vt 0.4130119 0
vt 0.5973846 0.05962581
vt 0.5893638 0.05962581
vt 0.5893638 0.25
vt 0.5973846 0.25
vt 0.5869883 0.05962581
vt 0.5798238 0.05962581
vt 0.5893638 0.05962581
vt 0.5973846 0.05962581
vt 0.5798238 0.05962581
vt 0.5798238 0
vt 0.4201764 0
vt 0.4201764 0.05962581
vt 0.4106365 0.05962581
vt 0.4106362 0.25
vt 0.5893638 0.25
vt 0.5893638 0.05962581
vt 0.4201764 0.05962581
vt 0.4106365 0.05962581
vt 0.5893638 0.05962581
vt 0.5798238 0.05962581
vn 1 -1.629207E-07 0
vn 1 -1.629207E-07 0
vn 1 -1.629207E-07 0
vn 1 -1.629207E-07 0
vn 1 -1.629207E-07 0
vn 0.9999256 -1.629086E-07 0.01219421
vn 0.9999256 -1.629086E-07 -0.01219421
vn 1 -1.629207E-07 0
vn 0.2338384 0 -0.9722755
vn 0.2338384 0 -0.9722755
vn 0.2309267 0 -0.9729711
vn 0.2338384 0 -0.9722755
vn 0.2162761 0 -0.9763323
vn 0.2162761 0 -0.9763323
vn 0.2189168 0 -0.9757436
vn 0.2189168 0 -0.9757436
vn 0.2162761 0 0.9763323
vn 0.2189168 0 0.9757436
vn 0.2189168 0 0.9757436
vn 0.2162761 0 0.9763323
vn 0.2309267 0 0.9729711
vn 0.2366694 0 0.9715902
vn 0.2338384 0 0.9722755
vn 0.2338384 0 0.9722755
vn 0.7985235 0.6019637 0
vn 0.7985235 0.6019637 0
vn 0.790341 0.6126671 0
vn 0.790341 0.6126671 0
vn 0.1693432 0.6648284 -0.727548
vn 0.1664355 0.6657414 -0.7273842
vn 0.1650736 0.6725219 -0.7214326
vn 0.1738361 0.6580932 -0.7325943
vn 0.1738361 0.6580932 0.7325943
vn 0.1665367 0.6784825 0.7154908
vn 0.1664355 0.6657414 0.7273842
vn 0.1678056 0.6587918 0.733372
vn 1 4.580816E-07 0
vn 1 4.580816E-07 0
vn 1 4.580816E-07 0
vn 1 4.580816E-07 0
vn 1 0 0
vn 1 0 0
vn 1 0 0
vn 1 0 0
vn 0.7917492 0.6108462 0
vn 0.7917492 0.6108462 0
vn 0.7917492 0.6108462 0
vn 0.7917492 0.6108462 0
vn 0.3920603 0 -0.9199395
vn 0.3920603 0 -0.9199395
vn 0.3920603 0 -0.9199395
vn 0.3920603 0 -0.9199395
vn 0.392043 0 0.919947
vn 0.3920429 0 0.919947
vn 0.392043 0 0.919947
vn 0.3920429 0 0.919947
vn 0.3752613 0.2895306 0.8805401
vn 0.3752613 0.2895306 0.8805401
vn 0.3752613 0.2895306 0.8805401
vn 0.3752613 0.2895306 0.8805401
vn 0.3920595 0 0.9199399
vn 0.3920595 0 0.9199399
vn 0.3920595 0 0.9199399
vn 0.3920595 0 0.9199399
vn 0.3920754 0 -0.9199331
vn 0.3920754 0 -0.9199331
vn 0.3920754 0 -0.9199331
vn 0.3920753 0 -0.9199331
vn 0.3752784 0.2895273 -0.880534
vn 0.3752784 0.2895272 -0.880534
vn 0.3752784 0.2895273 -0.8805339
vn 0.3752784 0.2895272 -0.880534
vn 1 -1.629207E-07 0
vn 1 -1.629207E-07 0
vn 1 -1.629207E-07 0
vn 1 -1.629207E-07 0
vn 1 -1.629207E-07 0
vn 1 -1.629207E-07 0
vn 1 -1.629207E-07 0
vn 1 -1.629207E-07 0
vn 0.7917438 0.6108534 0
vn 0.7917438 0.6108534 0
vn 0.7917438 0.6108534 0
vn 0.7917438 0.6108534 0
g shop_split22_0
f 3/3/3 2/2/2 1/1/1
f 4/4/4 3/3/3 1/1/1
f 7/7/7 6/6/6 5/5/5
f 8/8/8 7/7/7 5/5/5
f 11/11/11 10/10/10 9/9/9
f 12/12/12 11/11/11 9/9/9
f 15/15/15 14/14/14 13/13/13
f 16/16/16 15/15/15 13/13/13
f 19/19/19 18/18/18 17/17/17
f 20/20/20 19/19/19 17/17/17
f 23/23/23 22/22/22 21/21/21
f 24/24/24 23/23/23 21/21/21
f 27/27/27 26/26/26 25/25/25
f 28/28/28 27/27/27 25/25/25
f 31/31/31 30/30/30 29/29/29
f 32/32/32 31/31/31 29/29/29
f 35/35/35 34/34/34 33/33/33
f 36/36/36 35/35/35 33/33/33
f 39/39/39 38/38/38 37/37/37
f 40/40/40 39/39/39 37/37/37
f 43/43/43 42/42/42 41/41/41
f 44/44/44 43/43/43 41/41/41
f 47/47/47 46/46/46 45/45/45
f 48/48/48 47/47/47 45/45/45
f 51/51/51 50/50/50 49/49/49
f 52/52/52 51/51/51 49/49/49
f 55/55/55 54/54/54 53/53/53
f 56/56/56 55/55/55 53/53/53
f 59/59/59 58/58/58 57/57/57
f 60/60/60 59/59/59 57/57/57
f 63/63/63 62/62/62 61/61/61
f 64/64/64 63/63/63 61/61/61
f 67/67/67 66/66/66 65/65/65
f 68/68/68 67/67/67 65/65/65
f 71/71/71 70/70/70 69/69/69
f 72/72/72 71/71/71 69/69/69
f 75/75/75 74/74/74 73/73/73
f 76/76/76 75/75/75 73/73/73
f 79/79/79 78/78/78 77/77/77
f 80/80/80 79/79/79 77/77/77
f 83/83/83 82/82/82 81/81/81
f 84/84/84 83/83/83 81/81/81
