g shop_split11
v 4.283236 -0.2250641 12.70244
v 5.002456 -0.2250639 13.34938
v 5.00336 -0.2239055 6.73832
v 4.285837 -0.2239055 6.73832
v 4.285837 -0.2239072 0.6881347
v 5.002457 -0.2250664 0.1320703
v 5.002456 -0.2250639 13.34938
v 5.002455 -0.09336386 13.34938
v 5.00336 -0.09220539 6.73832
v 5.00336 -0.2239055 6.73832
v 5.002457 -0.2250664 0.1320703
v 5.002456 -0.09336632 0.1320703
v 5.054564 -0.08019327 13.39589
v 5.054564 -0.0004179085 13.39589
v 5.055469 3.256612E-06 6.73832
v 5.055469 -0.07903483 6.73832
v 5.054564 -0.08019567 0.08338867
v 5.054564 -0.000420306 0.08338867
v 5.002455 -0.09336386 13.34938
v 5.054564 -0.08019327 13.39589
v 5.055469 -0.07903483 6.73832
v 5.00336 -0.09220539 6.73832
v 5.002456 -0.09336632 0.1320703
v 5.054564 -0.08019567 0.08338867
v 4.285837 -0.2239055 6.73832
v 4.283236 -0.5134386 12.70244
v 4.283236 -0.2250641 12.70244
v 4.285837 -0.513681 6.73831
v 4.285837 -0.5139284 0.6881347
v 4.285837 -0.2239072 0.6881347
v 4.285837 -0.513681 6.73831
v 4.227115 -0.5898579 12.70244
v 4.283236 -0.5134386 12.70244
v 4.222085 -0.5898609 6.73831
v 4.227111 -0.5898642 0.6881347
v 4.285837 -0.5139284 0.6881347
v 5.054564 -0.0004179085 13.39589
v 5.009695 0.07337115 13.35102
v 5.009692 0.07379232 6.73832
v 5.055469 3.256612E-06 6.73832
v 5.054564 -0.000420306 0.08338867
v 5.009695 0.07336875 0.128252
v 4.222085 -0.7422546 6.73831
v 3.827072 -0.9124094 12.70244
v 4.227115 -0.7422514 12.70244
v 3.827073 -0.9126068 6.73832
v 3.827072 -0.9126698 0.6881348
v 4.227111 -0.7422578 0.6881348
v 4.283236 -0.2250641 12.70244
v -5.897522E-05 -0.2239051 12.70505
v -8.106231E-07 -0.2239049 13.35028
v 5.002456 -0.2250639 13.34938
v 5.002456 -0.2250639 13.34938
v -8.106231E-07 -0.2239049 13.35028
v -7.486343E-07 -0.09220484 13.35028
v 5.002455 -0.09336386 13.34938
v 5.054564 -0.08019327 13.39589
v -7.390976E-07 -0.07903429 13.3968
v -7.486343E-07 3.792941E-06 13.3968
v 5.054564 -0.0004179085 13.39589
v 5.002455 -0.09336386 13.34938
v -7.486343E-07 -0.09220484 13.35028
v -7.390976E-07 -0.07903429 13.3968
v 5.054564 -0.08019327 13.39589
v 5.054564 -0.0004179085 13.39589
v -7.486343E-07 3.792941E-06 13.3968
v 9.908676E-06 0.07379285 13.35102
v 5.009695 0.07337115 13.35102
v 5.009692 0.07379232 6.73832
v 5.009695 0.07337115 13.35102
v 4.383567 0.07347602 12.64004
v 4.383566 0.07368786 6.738325
v 4.383568 0.07347362 0.6707031
v 5.009695 0.07336875 0.128252
v 5.009695 0.07337115 13.35102
v 9.908676E-06 0.07379285 13.35102
v 0.003756788 0.07368907 12.64003
v 4.383567 0.07347602 12.64004
v 4.285837 -0.2239072 0.6881347
v 5.002457 -0.2250664 0.1320703
v -1.096725E-07 -0.2239098 0.1311719
v 0.002465749 -0.2239072 0.6881347
v 5.002457 -0.2250664 0.1320703
v 5.002456 -0.09336632 0.1320703
v -4.291534E-07 -0.09220972 0.1311719
v -1.096725E-07 -0.2239098 0.1311719
v 5.054564 -0.08019567 0.08338867
v 5.054564 -0.000420306 0.08338867
v -4.529953E-07 -1.046061E-06 0.08248047
v -4.386902E-07 -0.07903913 0.08248047
v 5.002456 -0.09336632 0.1320703
v 5.054564 -0.08019567 0.08338867
v -4.386902E-07 -0.07903913 0.08248047
v -4.291534E-07 -0.09220972 0.1311719
v 5.054564 -0.000420306 0.08338867
v 5.009695 0.07336875 0.128252
v 1.022339E-05 0.07378801 0.128252
v -4.529953E-07 -1.046061E-06 0.08248047
v 5.009695 0.07336875 0.128252
v 4.383568 0.07347362 0.6707031
v 0.003757172 0.07368423 0.6707031
v 1.022339E-05 0.07378801 0.128252
v 0.002465749 -0.2239072 0.6881347
v 0.002465749 -0.5400051 0.6881347
v 4.285837 -0.5400051 0.6881347
v 4.285837 -0.2239072 0.6881347
v 0.002465749 -0.5400051 0.6881347
v 0.002465739 -0.5400051 0.8241992
v 4.285837 -0.5400051 0.8241992
v 4.285837 -0.5400051 0.6881347
v 4.222085 -0.5898609 6.73831
v 4.227115 -0.7422514 12.70244
v 4.227115 -0.5898579 12.70244
v 4.222085 -0.7422546 6.73831
v 4.227111 -0.5898642 0.6881347
v 4.227111 -0.7422578 0.6881348
vt 0.04016879 0.2332501
vt 0.003493577 0.2738544
vt 0.3782704 0.2738544
vt 0.3782551 0.2332501
vt 0.7212191 0.2332501
vt 0.752774 0.2738544
vt 0.003493577 0.2738544
vt 0.003493935 0.2815895
vt 0.3782727 0.2816482
vt 0.3782704 0.2738544
vt 0.752774 0.2738544
vt 0.7527785 0.2815895
vt 0.0008578598 0.2846363
vt 0.0008580983 0.2891583
vt 0.3782752 0.2891752
vt 0.3782738 0.2846949
vt 0.7555404 0.2846363
vt 0.7555442 0.2888888
vt 0.003493935 0.2815895
vt 0.0008578598 0.2846363
vt 0.3782738 0.2846949
vt 0.3782727 0.2816482
vt 0.7527785 0.2815895
vt 0.7555404 0.2846363
vt 0.3826995 0.07245198
vt 0.04459742 0.05607644
vt 0.04459745 0.07245198
vt 0.3827 0.05607644
vt 0.7256805 0.05607644
vt 0.7256805 0.07245198
vt 0.3827 0.05607644
vt 0.04459742 0.05177182
vt 0.04459742 0.05607644
vt 0.3827 0.05177182
vt 0.7256805 0.05177182
vt 0.7256805 0.05607644
vt 0.0008580983 0.2891583
vt 0.003401071 0.2940535
vt 0.378277 0.2940976
vt 0.3782752 0.2891752
vt 0.7555442 0.2888888
vt 0.7530053 0.2937878
vt 0.3827 0.04306167
vt 0.04459742 0.0205963
vt 0.04459745 0.04306167
vt 0.3826994 0.0205963
vt 0.7256802 0.0205963
vt 0.7256804 0.04306167
vt 0.6475023 0.130224
vt 0.3830903 0.1303024
vt 0.3830903 0.170157
vt 0.6919098 0.1702116
vt 0.6919098 0.1702116
vt 0.3830903 0.170157
vt 0.3830903 0.1782923
vt 0.6919017 0.1782923
vt 0.695117 0.1813337
vt 0.3830903 0.1812788
vt 0.3830903 0.1861615
vt 0.6951089 0.1862592
vt 0.6919017 0.1782923
vt 0.3830903 0.1782923
vt 0.3830903 0.1812788
vt 0.695117 0.1813337
vt 0.6951089 0.1862592
vt 0.3830903 0.1861615
vt 0.3830903 0.191526
vt 0.6923281 0.1915896
vt 0.378277 0.2940976
vt 0.003401071 0.2940535
vt 0.03390434 0.3293122
vt 0.3782884 0.3293121
vt 0.7222822 0.3293122
vt 0.7530053 0.2937878
vt 0.6923281 0.1915896
vt 0.3830903 0.191526
vt 0.3830903 0.2247779
vt 0.6535828 0.2247779
vt 0.1004314 0.1303899
vt 0.05388293 0.1665252
vt 0.3786385 0.1665252
vt 0.3786385 0.1303899
vt 0.05388293 0.1665252
vt 0.05388454 0.1750812
vt 0.3786385 0.175072
vt 0.3786385 0.1665252
vt 0.05049992 0.1783584
vt 0.05050129 0.1835414
vt 0.3786385 0.1835414
vt 0.3786385 0.1783489
vt 0.05388454 0.1750812
vt 0.05049992 0.1783584
vt 0.3786385 0.1783489
vt 0.3786385 0.175072
vt 0.05050129 0.1835414
vt 0.05341747 0.189151
vt 0.3786385 0.189151
vt 0.3786385 0.1835414
vt 0.05341747 0.189151
vt 0.09409744 0.224389
vt 0.3786385 0.2243892
vt 0.3786385 0.189151
vt 0.9779428 0.0463635
vt 0.9779428 0.02844408
vt 0.7351214 0.02844408
vt 0.7351214 0.04636359
vt 0.9779428 0.02844408
vt 0.9779428 0.02073053
vt 0.7351214 0.0207305
vt 0.7351214 0.02844408
vt 0.3827 0.05177182
vt 0.04459745 0.04306167
vt 0.04459742 0.05177182
vt 0.3827 0.04306167
vt 0.7256805 0.05177182
vt 0.7256804 0.04306167
vn 8.311494E-05 -1 -0.0001842298
vn 8.311493E-05 -1 -0.0001842298
vn 8.311492E-05 -1 -0.0001842298
vn 8.311493E-05 -1 -0.0001842298
vn -0.0007726301 -0.9999998 9.191394E-05
vn -0.0007726302 -0.9999998 9.191395E-05
vn 1 0 0.0001367766
vn 1 0 0.0001367766
vn 1 0 0.0001367766
vn 1 0 0.0001367766
vn 1 0 -0.0001367838
vn 1 0 -0.0001367838
vn 1 0 0.0001358666
vn 1 0 0.0001358665
vn 1 0 0.0001358666
vn 1 0 0.0001358666
vn 1 0 -0.0001358287
vn 1 0 -0.0001358287
vn 0.245105 -0.9694966 -0.0001358718
vn 0.245105 -0.9694966 -0.0001358718
vn 0.245105 -0.9694966 -0.0001358718
vn 0.245105 -0.9694966 -0.0001358717
vn 0.2451077 -0.9694958 0.0001363257
vn 0.2451077 -0.9694958 0.0001363257
vn 0.9999999 1.935073E-07 0.0004361609
vn 0.9999999 1.935073E-07 0.0004361608
vn 0.9999999 1.935073E-07 0.0004361608
vn 0.9999999 1.935074E-07 0.0004361609
vn 1 8.908529E-07 0
vn 1 8.908529E-07 0
vn 0.7863834 -0.6177387 -0.0001473945
vn 0.7863835 -0.6177386 -0.0001473944
vn 0.7863835 -0.6177387 -0.0001473945
vn 0.7863835 -0.6177387 -0.0001473945
vn 0.7788998 -0.6271484 0.0003365513
vn 0.7788998 -0.6271484 0.0003365513
vn 0.8520884 0.5233979 9.114698E-05
vn 0.8520884 0.523398 9.114699E-05
vn 0.8520884 0.523398 9.114698E-05
vn 0.8520884 0.5233979 9.114699E-05
vn 0.8520865 0.5234009 -9.133354E-05
vn 0.8520865 0.5234009 -9.133354E-05
vn 0.3936972 -0.9192402 -0.000150534
vn 0.3936973 -0.9192402 -0.000150534
vn 0.3936973 -0.9192402 -0.000150534
vn 0.3936973 -0.9192402 -0.000150534
vn 0.3939472 -0.9191331 0.0001686601
vn 0.3939472 -0.9191331 0.0001686601
vn -0.0002495795 -1 0.0001393396
vn -0.0002495795 -1 0.0001393396
vn -0.0002495795 -1 0.0001393396
vn -0.0002495795 -1 0.0001393396
vn 0.0001797452 0 1
vn 0.0001797452 0 1
vn 0.0001797452 0 1
vn 0.0001797452 0 1
vn 0.0001797373 0 1
vn 0.0001797373 0 1
vn 0.0001797373 0 1
vn 0.0001797373 0 1
vn -0.0001727884 -0.9621389 0.2725595
vn -0.0001727884 -0.9621389 0.2725596
vn -0.0001727883 -0.9621389 0.2725595
vn -0.0001727883 -0.9621389 0.2725595
vn 0.0001202088 0.5234001 0.8520871
vn 0.0001202087 0.5234001 0.8520871
vn 0.0001202087 0.5234001 0.8520871
vn 0.0001202087 0.5234001 0.8520871
vn -2.837984E-05 1 5.058311E-05
vn -2.837983E-05 1 5.05831E-05
vn -2.837983E-05 1 5.058311E-05
vn -2.837983E-05 1 5.05831E-05
vn -2.145023E-05 1 -5.030931E-05
vn -2.145023E-05 1 -5.030931E-05
vn 6.76023E-05 1 -2.883248E-05
vn 6.76023E-05 1 -2.883248E-05
vn 6.76023E-05 1 -2.883249E-05
vn 6.76023E-05 1 -2.883248E-05
vn -0.0001246462 -0.9999995 0.0009637907
vn -0.0001246462 -0.9999995 0.0009637907
vn -0.0001246462 -0.9999995 0.0009637907
vn -0.0001246462 -0.9999995 0.0009637907
vn 0.0001795992 0 -1
vn 0.0001795992 0 -1
vn 0.0001795992 0 -1
vn 0.0001795992 0 -1
vn 0.0001796783 0 -1
vn 0.0001796783 0 -1
vn 0.0001796783 0 -1
vn 0.0001796783 0 -1
vn -0.000175091 -0.9652794 -0.2612198
vn -0.000175091 -0.9652794 -0.2612198
vn -0.000175091 -0.9652794 -0.2612198
vn -0.000175091 -0.9652794 -0.2612198
vn 0.0001205003 0.5233593 -0.8521121
vn 0.0001205003 0.5233594 -0.8521121
vn 0.0001205003 0.5233594 -0.8521121
vn 0.0001205003 0.5233592 -0.8521121
vn 6.708226E-05 1 3.746585E-05
vn 6.708227E-05 1 3.746586E-05
vn 6.708225E-05 1 3.746585E-05
vn 6.708226E-05 1 3.746585E-05
vn 0 0 -1
vn 0 0 -1
vn 0 0 -1
vn 0 0 -1
vn 0 -1 3.439556E-07
vn 0 -1 3.439556E-07
vn 0 -1 3.439556E-07
vn 0 -1 3.439556E-07
vn 0.9999996 0 -0.0008433596
vn 0.9999996 0 -0.0008433596
vn 0.9999996 0 -0.0008433595
vn 0.9999996 0 -0.0008433595
vn 0.9999996 3.497832E-07 0.0008307597
vn 0.9999996 3.497831E-07 0.0008307598
g shop_split11_0
f 3/3/3 2/2/2 1/1/1
f 4/4/4 3/3/3 1/1/1
f 3/3/3 4/4/4 5/5/5
f 6/6/6 3/3/3 5/5/5
f 9/9/9 8/8/8 7/7/7
f 10/10/10 9/9/9 7/7/7
f 9/9/9 10/10/10 11/11/11
f 12/12/12 9/9/9 11/11/11
f 15/15/15 14/14/14 13/13/13
f 16/16/16 15/15/15 13/13/13
f 15/15/15 16/16/16 17/17/17
f 18/18/18 15/15/15 17/17/17
f 21/21/21 20/20/20 19/19/19
f 22/22/22 21/21/21 19/19/19
f 21/21/21 22/22/22 23/23/23
f 24/24/24 21/21/21 23/23/23
f 27/27/27 26/26/26 25/25/25
f 26/26/26 28/28/28 25/25/25
f 25/25/25 28/28/28 29/29/29
f 30/30/30 25/25/25 29/29/29
f 33/33/33 32/32/32 31/31/31
f 32/32/32 34/34/34 31/31/31
f 34/34/34 35/35/35 31/31/31
f 35/35/35 36/36/36 31/31/31
f 39/39/39 38/38/38 37/37/37
f 40/40/40 39/39/39 37/37/37
f 39/39/39 40/40/40 41/41/41
f 42/42/42 39/39/39 41/41/41
f 45/45/45 44/44/44 43/43/43
f 44/44/44 46/46/46 43/43/43
f 46/46/46 47/47/47 43/43/43
f 47/47/47 48/48/48 43/43/43
f 51/51/51 50/50/50 49/49/49
f 52/52/52 51/51/51 49/49/49
f 55/55/55 54/54/54 53/53/53
f 56/56/56 55/55/55 53/53/53
f 59/59/59 58/58/58 57/57/57
f 60/60/60 59/59/59 57/57/57
f 63/63/63 62/62/62 61/61/61
f 64/64/64 63/63/63 61/61/61
f 67/67/67 66/66/66 65/65/65
f 68/68/68 67/67/67 65/65/65
f 71/71/71 70/70/70 69/69/69
f 72/72/72 71/71/71 69/69/69
f 73/73/73 72/72/72 69/69/69
f 74/74/74 73/73/73 69/69/69
f 77/77/77 76/76/76 75/75/75
f 78/78/78 77/77/77 75/75/75
f 81/81/81 80/80/80 79/79/79
f 82/82/82 81/81/81 79/79/79
f 85/85/85 84/84/84 83/83/83
f 86/86/86 85/85/85 83/83/83
f 89/89/89 88/88/88 87/87/87
f 90/90/90 89/89/89 87/87/87
f 93/93/93 92/92/92 91/91/91
f 94/94/94 93/93/93 91/91/91
f 97/97/97 96/96/96 95/95/95
f 98/98/98 97/97/97 95/95/95
f 101/101/101 100/100/100 99/99/99
f 102/102/102 101/101/101 99/99/99
f 105/105/105 104/104/104 103/103/103
f 106/106/106 105/105/105 103/103/103
f 109/109/109 108/108/108 107/107/107
f 110/110/110 109/109/109 107/107/107
f 113/113/113 112/112/112 111/111/111
f 112/112/112 114/114/114 111/111/111
f 111/111/111 114/114/114 115/115/115
f 114/114/114 116/116/116 115/115/115
