g SkillTrail_02_Outside
v 0.07635991 -0.1714354 -1.642462
v -0.4289027 -0.267043 -1.929697
v -0.04973616 -0.2755791 -2.016715
v -0.2620547 -0.1638206 -1.566286
v -0.7886248 -0.2586509 -1.771852
v -0.5812707 -0.1563743 -1.42639
v -1.115957 -0.2503694 -1.547337
v -0.8696654 -0.149064 -1.227063
v -1.413816 -0.2415271 -1.234537
v -1.099608 -0.1422575 -0.9855619
v -1.626802 -0.2333436 -0.8887527
v -1.286353 -0.1351269 -0.6850242
v -1.772874 -0.2251474 -0.5058861
v -1.412875 -0.1280165 -0.352782
v -1.845749 -0.2169015 -0.09859804
v -1.473968 -0.1208902 -0.0003845824
v -1.838148 -0.2154239 0.4701326
v -1.459457 -0.1141986 0.3350191
v -1.737325 -0.2069431 0.8801447
v -1.374443 -0.1069545 0.6855645
v -1.560398 -0.2063995 1.267411
v -1.22315 -0.09961543 1.014959
v -1.299919 -0.2130626 1.633017
v -1.019084 -0.09245322 1.300416
v -0.9510661 -0.2259248 1.934584
v -0.7562273 -0.08517765 1.534887
v -0.5749578 -0.2383132 2.158033
v -0.4405676 -0.07749663 1.723323
v -0.1605876 -0.2425321 2.308689
v -0.09279098 -0.0697113 1.848329
v 0.3210887 -0.2322004 2.379174
v 0.2433074 -0.06252012 1.899524
v 0.7689193 -0.2226589 2.34749
v 0.6157371 -0.054591 1.875729
v 1.206013 -0.2130613 2.232148
v 0.9781712 -0.04663417 1.780371
v 1.617129 -0.203448 2.035946
v 1.317391 -0.03868335 1.616184
v 2.017225 -0.1929103 1.728566
v 1.589933 -0.03152947 1.405333
v 2.317652 -0.1834239 1.376054
v 1.838369 -0.02373281 1.109325
v 2.548741 -0.1740769 0.9643337
v 2.027572 -0.01606903 0.7692689
v 2.701609 -0.1649147 0.5128049
v 2.150026 -0.008577867 0.3967761
v 2.761782 -0.1551027 -0.01363824
v 2.187853 -0.002059564 0.04346292
v 2.719738 -0.1465119 -0.4963054
v 2.154864 0.004938119 -0.3513412
v 2.589259 -0.1382355 -0.9658299
v 2.045428 0.01166043 -0.7345766
v 2.358594 -0.129885 -1.428537
v 1.874942 0.01774712 -1.07419
v 2.029308 -0.1219928 -1.831885
v 1.626149 0.02349401 -1.370693
v 1.641925 -0.1148723 -2.151537
v 1.309396 0.02925175 -1.631674
v 1.198494 -0.1081167 -2.397016
v 0.947795 0.03469541 -1.830218
v 0.661109 -0.1010592 -2.567504
v 0.5970526 0.03926674 -1.945112
v 0.1511328 -0.09506803 -2.617124
v 0.1844532 0.04409416 -1.990135
v -0.3604516 -0.08937419 -2.573204
v -0.2392089 0.04866995 -1.951404
v -0.8631295 -0.08393819 -2.432595
v -0.6506442 0.05302617 -1.83476
v -1.382012 -0.078171 -2.164665
v -0.9890205 0.05671088 -1.662905
v -1.792703 -0.07315164 -1.832907
v -1.324914 0.06073282 -1.39972
v -2.136152 -0.06823566 -1.432808
v -1.604894 0.06466509 -1.079829
v -2.400469 -0.06337588 -0.9774399
v -1.819138 0.06854819 -0.7143418
v -2.579957 -0.05798319 -0.4237787
v -1.93594 0.07197022 -0.3570354
v -2.637722 -0.05307229 0.09971205
v -1.989552 0.07588747 0.06430364
v -2.59741 -0.0480725 0.6260489
v -1.961963 0.07987652 0.4855334
v -2.450438 -0.04266493 1.162379
v -1.862272 0.08371378 0.8677902
v -2.188267 -0.03707816 1.649561
v -1.681486 0.08768268 1.216478
v -1.856107 -0.03161653 2.053942
v -1.423425 0.09202839 1.540458
v -1.453806 -0.02599555 2.387259
v -1.09826 0.0968077 1.810678
v -0.9411399 -0.01966207 2.655864
v -0.7265089 0.1027259 2.005213
v -0.3684308 -0.01186459 2.807892
v -0.2665783 0.109678 2.123424
v 0.2260228 -0.003781504 2.843418
v 0.2234969 0.1188683 2.137839
v 0.8269595 0.006256401 2.755823
v 0.7139562 0.128126 2.054478
v 1.466761 0.01765018 2.505424
v 1.116338 0.1362861 1.89668
v 1.974597 0.02792795 2.156937
v 1.51652 0.1455331 1.621319
v 2.395116 0.03807476 1.712457
v 1.841402 0.1547047 1.266259
v 2.710456 0.04799455 1.191404
v 2.078464 0.1637603 0.849126
v 2.913511 0.05881279 0.5480073
v 2.192606 0.1715536 0.44465
v 2.959426 0.06828827 -0.05717275
v 2.226313 0.1801941 -0.03002987
v 2.87549 0.07738229 -0.6548043
v 2.160134 0.1885604 -0.4965678
v 2.654378 0.08651604 -1.248015
v 1.999902 0.1961336 -0.905312
v 2.294919 0.09521197 -1.76457
v 1.739435 0.203361 -1.257124
v 1.855484 0.1029894 -2.163543
v 1.395606 0.2106757 -1.56271
v 1.34068 0.1102396 -2.453739
v 1.000687 0.217597 -1.78254
v 0.7126109 0.1177202 -2.627517
v 0.6170549 0.2233577 -1.885841
v 0.1213602 0.1239839 -2.632296
v 0.1638684 0.2294915 -1.883815
v -0.4598056 0.1298366 -2.498937
v -0.2787692 0.2352662 -1.771308
v -1.00186 0.1351998 -2.241203
v -0.6864403 0.2407178 -1.550311
v -1.51806 0.1407625 -1.8157
v -0.9919935 0.2452496 -1.268707
v -1.878662 0.1455633 -1.314594
v -1.255027 0.250137 -0.8657559
v -2.119436 0.1501664 -0.7327778
v -1.418961 0.2548968 -0.3997913
v -2.225723 0.1545547 -0.09770903
v -1.471037 0.2597801 0.1074749
v -2.165133 0.1590956 0.6285887
v -1.404967 0.2644928 0.5690393
v -1.961987 0.1659029 1.263133
v -1.216069 0.2701396 1.077963
v -1.650596 0.1710016 1.834327
v -0.9234016 0.2748168 1.546559
v -1.287064 0.1716609 2.310158
v -0.6098517 0.2753131 1.914658
vt 0.4090424 0.9987411
vt 0.417298 0.004089355
vt 0.4090424 0.004089355
vt 0.417298 0.9987411
vt 0.4255536 0.004089355
vt 0.4255536 0.9987411
vt 0.433809 0.004089355
vt 0.4338092 0.9987411
vt 0.4420648 0.004089355
vt 0.4420648 0.9987411
vt 0.4503204 0.004089355
vt 0.4503204 0.9987411
vt 0.458576 0.004089355
vt 0.4585756 0.9987411
vt 0.4668317 0.004089355
vt 0.4668312 0.9987411
vt 0.4750873 0.004089355
vt 0.4750868 0.9987411
vt 0.483342 0.004089355
vt 0.4833424 0.9987411
vt 0.4915976 0.004089355
vt 0.491598 0.9987411
vt 0.4998532 0.004089355
vt 0.4998532 0.9987411
vt 0.5081088 0.004089355
vt 0.5081088 0.9987411
vt 0.5163645 0.004089355
vt 0.5163645 0.9987411
vt 0.5246201 0.004089355
vt 0.5246201 0.9987411
vt 0.5328757 0.004089355
vt 0.5328757 0.9987411
vt 0.5411313 0.004089355
vt 0.5411313 0.9987411
vt 0.5493869 0.004081726
vt 0.5493869 0.9987411
vt 0.5576426 0.004081726
vt 0.5576421 0.9987411
vt 0.5658977 0.004081726
vt 0.5658977 0.9987411
vt 0.5741534 0.004081726
vt 0.5741534 0.9987411
vt 0.582409 0.004081726
vt 0.582409 0.9987411
vt 0.5906641 0.004081726
vt 0.5906641 0.9987411
vt 0.5989197 0.004081726
vt 0.5989197 0.9987411
vt 0.6071754 0.004081726
vt 0.6071754 0.9987411
vt 0.615431 0.004081726
vt 0.615431 0.9987411
vt 0.6236866 0.004081726
vt 0.6236866 0.9987411
vt 0.6319422 0.004081726
vt 0.6319422 0.9987411
vt 0.6401979 0.004081726
vt 0.6401979 0.9987411
vt 0.6484535 0.004081726
vt 0.6484535 0.9987411
vt 0.656709 0.004081726
vt 0.6567086 0.9987411
vt 0.6649646 0.004081726
vt 0.6649642 0.9987411
vt 0.6732202 0.004081726
vt 0.6732199 0.9987411
vt 0.681475 0.004081726
vt 0.681475 0.9987411
vt 0.6897306 0.004081726
vt 0.6897306 0.9987411
vt 0.6979862 0.004081726
vt 0.6979862 0.9987411
vt 0.7062418 0.004081726
vt 0.7062418 0.9987411
vt 0.7144974 0.004081726
vt 0.7144974 0.9987411
vt 0.722753 0.004081726
vt 0.722753 0.9987411
vt 0.7310086 0.004081726
vt 0.7310086 0.9987411
vt 0.7392642 0.004081726
vt 0.7392642 0.9987411
vt 0.7475195 0.004081726
vt 0.7475195 0.9987411
vt 0.7557751 0.004081726
vt 0.7557751 0.9987411
vt 0.7640307 0.004081726
vt 0.7640307 0.9987411
vt 0.7722864 0.004081726
vt 0.7722859 0.9987411
vt 0.7805419 0.004081726
vt 0.7805415 0.9987411
vt 0.7887975 0.004081726
vt 0.7887971 0.9987411
vt 0.7970526 0.004081726
vt 0.7970527 0.9987411
vt 0.8053084 0.004081726
vt 0.8053085 0.9987411
vt 0.813564 0.004081726
vt 0.8135641 0.9987411
vt 0.8218191 0.004081726
vt 0.8218197 0.9987411
vt 0.8300748 0.004081726
vt 0.8300753 0.9987411
vt 0.8383304 0.004081726
vt 0.8383309 0.9987411
vt 0.846586 0.004081726
vt 0.846586 0.9987411
vt 0.8548416 0.004081726
vt 0.8548416 0.9987411
vt 0.8630968 0.004081726
vt 0.8630968 0.9987411
vt 0.8713524 0.004081726
vt 0.8713524 0.9987411
vt 0.879608 0.004081726
vt 0.879608 0.9987411
vt 0.8878636 0.004081726
vt 0.8878636 0.9987411
vt 0.8961192 0.004081726
vt 0.8961192 0.9987411
vt 0.9043748 0.004081726
vt 0.9043748 0.9987411
vt 0.9126301 0.004081726
vt 0.9126304 0.9987411
vt 0.9208857 0.004081726
vt 0.9208862 0.9987411
vt 0.9291413 0.004081726
vt 0.9291418 0.9987411
vt 0.9373969 0.004081726
vt 0.9373969 0.9987411
vt 0.9456525 0.004081726
vt 0.9456525 0.9987411
vt 0.9539081 0.004081726
vt 0.9539081 0.9987411
vt 0.9621637 0.004081726
vt 0.9621633 0.9987411
vt 0.9704194 0.004081726
vt 0.970419 0.9987411
vt 0.9786751 0.004081726
vt 0.9786747 0.9987411
vt 0.9869306 0.004081726
vt 0.9869303 0.9987411
vt 0.9951859 0.004081726
vt 0.9951859 0.9987411
vn -0.0794429 0.3094135 -0.9476034
vn -0.2669299 0.3284152 -0.9060308
vn -0.08184339 0.3096716 -0.9473147
vn -0.2663208 0.3283556 -0.9062316
vn -0.4289769 0.3446112 -0.8349982
vn -0.429457 0.3446602 -0.834731
vn -0.5800909 0.3598506 -0.7307544
vn -0.5819214 0.3600274 -0.7292103
vn -0.7134313 0.3768512 -0.5907614
vn -0.7120153 0.3766143 -0.5926178
vn -0.8086429 0.3936203 -0.4372183
vn -0.8084465 0.3935821 -0.4376156
vn -0.8698691 0.4082471 -0.276879
vn -0.8701329 0.4083299 -0.2759268
vn -0.9009798 0.4225411 -0.09845907
vn -0.9012412 0.4227853 -0.09495789
vn -0.8943486 0.4384286 0.08900071
vn -0.8946431 0.4382223 0.08703407
vn -0.8533804 0.4545939 0.2551198
vn -0.8534213 0.4545831 0.2550024
vn -0.784716 0.4682927 0.406107
vn -0.7839652 0.4684113 0.4074181
vn -0.6789764 0.4840156 0.5520145
vn -0.6789258 0.4840221 0.5520711
vn -0.5465547 0.4999224 0.6718299
vn -0.5477312 0.4997805 0.6709768
vn -0.4081448 0.5149677 0.7538077
vn -0.4078903 0.5149929 0.7539283
vn -0.2551133 0.52806 0.8099815
vn -0.2527843 0.528227 0.8106024
vn -0.08120041 0.5442793 0.834965
vn -0.08524559 0.5438355 0.834851
vn 0.08394188 0.5606061 0.8238171
vn 0.08287226 0.5605062 0.8239934
vn 0.2328925 0.574621 0.7845839
vn 0.2335998 0.5746881 0.7843243
vn 0.3765727 0.5875598 0.7162168
vn 0.379493 0.5877957 0.7144797
vn 0.5102586 0.6026432 0.6135612
vn 0.5078871 0.6022813 0.6158797
vn 0.610949 0.6176702 0.4952018
vn 0.6105655 0.6176117 0.4957473
vn 0.6840473 0.6302337 0.3672667
vn 0.6845631 0.630337 0.3661266
vn 0.7343315 0.6418961 0.2207408
vn 0.735381 0.6421744 0.2163951
vn 0.7534876 0.6546784 0.06043591
vn 0.7535034 0.6544229 0.06295493
vn 0.7398542 0.6674346 -0.084539
vn 0.7398901 0.6674195 -0.08434398
vn 0.7020785 0.6771538 -0.2203375
vn 0.7014477 0.677264 -0.2220007
vn 0.6321488 0.6878329 -0.3567545
vn 0.6321433 0.6878337 -0.3567629
vn 0.5365274 0.697939 -0.4743622
vn 0.5377486 0.6978127 -0.4731636
vn 0.431332 0.7070144 -0.5604316
vn 0.4310932 0.7070317 -0.5605934
vn 0.3113662 0.7136073 -0.6275476
vn 0.3089498 0.7136976 -0.6286381
vn 0.1688326 0.7220287 -0.6709471
vn 0.1732598 0.7216988 -0.670173
vn 0.0301137 0.7303278 -0.6824327
vn 0.03132479 0.7302656 -0.6824449
vn -0.09863371 0.7366305 -0.6690642
vn -0.09939791 0.7366663 -0.6689117
vn -0.2266884 0.7415304 -0.6314627
vn -0.230014 0.7416154 -0.6301588
vn -0.3514362 0.7477698 -0.563323
vn -0.3486073 0.7475454 -0.565375
vn -0.4497625 0.7544491 -0.478038
vn -0.4492686 0.754419 -0.4785496
vn -0.5268271 0.7594318 -0.3817284
vn -0.5275189 0.7594806 -0.3806745
vn -0.5877198 0.7635814 -0.2674488
vn -0.5894783 0.7636721 -0.2632875
vn -0.6246414 0.7688127 -0.1369312
vn -0.6242816 0.7686526 -0.1394483
vn -0.6317855 0.7749891 -0.01545432
vn -0.6317908 0.7749805 -0.01566963
vn -0.6184835 0.77921 0.1015384
vn -0.6181333 0.7792639 0.1032413
vn -0.5784934 0.784482 0.2234579
vn -0.5785103 0.7844802 0.2234203
vn -0.5147815 0.7899615 0.3331078
vn -0.5157841 0.7898727 0.3317646
vn -0.4390429 0.7954404 0.417751
vn -0.438852 0.7954519 0.4179296
vn -0.3489743 0.7993941 0.4890663
vn -0.3468664 0.7994528 0.4904681
vn -0.2363888 0.805328 0.5436609
vn -0.2404774 0.8050426 0.5422886
vn -0.1231317 0.8117014 0.5709461
vn -0.1242801 0.8116448 0.5707777
vn -0.01477174 0.8168617 0.5766444
vn -0.01404558 0.8168954 0.5766149
vn 0.09633455 0.8212082 0.5624382
vn 0.09961376 0.821301 0.5617312
vn 0.2091993 0.8269091 0.521974
vn 0.2062766 0.8266873 0.5234864
vn 0.3019743 0.8329991 0.4635991
vn 0.301433 0.8329669 0.4640089
vn 0.3788222 0.8377187 0.393346
vn 0.379609 0.8377694 0.3924785
vn 0.4448381 0.8417423 0.3059234
vn 0.4470693 0.8418468 0.3023623
vn 0.4930455 0.8464465 0.2010831
vn 0.4923654 0.8463001 0.2033528
vn 0.5147063 0.8515328 0.09984603
vn 0.5146788 0.8515247 0.1000568
vn 0.5189847 0.8547834 -0.0005509405
vn 0.5189112 0.8548253 -0.002153367
vn 0.5012062 0.8584203 -0.1091188
vn 0.501228 0.8584177 -0.1090393
vn 0.4615541 0.861721 -0.210724
vn 0.4622866 0.8616643 -0.2093458
vn 0.4081449 0.8646519 -0.2929076
vn 0.4079972 0.8646577 -0.2930963
vn 0.3407487 0.8659437 -0.3661036
vn 0.3390326 0.865945 -0.3676902
vn 0.2510709 0.8680871 -0.4282386
vn 0.2546376 0.867951 -0.4264045
vn 0.1568548 0.8702762 -0.4669217
vn 0.1578948 0.8702608 -0.4665998
vn 0.06357615 0.8713439 -0.4865367
vn 0.06291158 0.8713494 -0.4866131
vn -0.03522756 0.8713238 -0.4894425
vn -0.03834243 0.8712863 -0.4892749
vn -0.1399202 0.8718226 -0.469412
vn -0.1369988 0.8717561 -0.4703963
vn -0.2297808 0.8727966 -0.4306121
vn -0.2292166 0.8727955 -0.4309151
vn -0.3077316 0.8727477 -0.3789627
vn -0.3085827 0.8727449 -0.3782767
vn -0.3789634 0.8718636 -0.3102265
vn -0.3815616 0.8717845 -0.3072501
vn -0.4371863 0.8713763 -0.2226464
vn -0.436217 0.8713405 -0.2246785
vn -0.4711556 0.8718314 -0.1338745
vn -0.4710972 0.8718324 -0.1340736
vn -0.4889629 0.8712534 -0.04281133
vn -0.489111 0.8712417 -0.04133056
vn -0.4931622 0.8699252 0.004589736
vn -0.4931622 0.8699252 0.004589796
g SkillTrail_02_Outside_0
f 3/3/3 2/2/2 1/1/1
f 2/2/2 4/4/4 1/1/1
f 2/2/2 5/5/5 4/4/4
f 5/5/5 6/6/6 4/4/4
f 5/5/5 7/7/7 6/6/6
f 7/7/7 8/8/8 6/6/6
f 7/7/7 9/9/9 8/8/8
f 9/9/9 10/10/10 8/8/8
f 9/9/9 11/11/11 10/10/10
f 11/11/11 12/12/12 10/10/10
f 11/11/11 13/13/13 12/12/12
f 13/13/13 14/14/14 12/12/12
f 13/13/13 15/15/15 14/14/14
f 15/15/15 16/16/16 14/14/14
f 15/15/15 17/17/17 16/16/16
f 17/17/17 18/18/18 16/16/16
f 17/17/17 19/19/19 18/18/18
f 19/19/19 20/20/20 18/18/18
f 19/19/19 21/21/21 20/20/20
f 21/21/21 22/22/22 20/20/20
f 21/21/21 23/23/23 22/22/22
f 23/23/23 24/24/24 22/22/22
f 23/23/23 25/25/25 24/24/24
f 25/25/25 26/26/26 24/24/24
f 25/25/25 27/27/27 26/26/26
f 27/27/27 28/28/28 26/26/26
f 27/27/27 29/29/29 28/28/28
f 29/29/29 30/30/30 28/28/28
f 29/29/29 31/31/31 30/30/30
f 31/31/31 32/32/32 30/30/30
f 31/31/31 33/33/33 32/32/32
f 33/33/33 34/34/34 32/32/32
f 33/33/33 35/35/35 34/34/34
f 35/35/35 36/36/36 34/34/34
f 35/35/35 37/37/37 36/36/36
f 37/37/37 38/38/38 36/36/36
f 37/37/37 39/39/39 38/38/38
f 39/39/39 40/40/40 38/38/38
f 39/39/39 41/41/41 40/40/40
f 41/41/41 42/42/42 40/40/40
f 41/41/41 43/43/43 42/42/42
f 43/43/43 44/44/44 42/42/42
f 43/43/43 45/45/45 44/44/44
f 45/45/45 46/46/46 44/44/44
f 45/45/45 47/47/47 46/46/46
f 47/47/47 48/48/48 46/46/46
f 47/47/47 49/49/49 48/48/48
f 49/49/49 50/50/50 48/48/48
f 49/49/49 51/51/51 50/50/50
f 51/51/51 52/52/52 50/50/50
f 51/51/51 53/53/53 52/52/52
f 53/53/53 54/54/54 52/52/52
f 53/53/53 55/55/55 54/54/54
f 55/55/55 56/56/56 54/54/54
f 55/55/55 57/57/57 56/56/56
f 57/57/57 58/58/58 56/56/56
f 57/57/57 59/59/59 58/58/58
f 59/59/59 60/60/60 58/58/58
f 59/59/59 61/61/61 60/60/60
f 61/61/61 62/62/62 60/60/60
f 61/61/61 63/63/63 62/62/62
f 63/63/63 64/64/64 62/62/62
f 63/63/63 65/65/65 64/64/64
f 65/65/65 66/66/66 64/64/64
f 65/65/65 67/67/67 66/66/66
f 67/67/67 68/68/68 66/66/66
f 67/67/67 69/69/69 68/68/68
f 69/69/69 70/70/70 68/68/68
f 69/69/69 71/71/71 70/70/70
f 71/71/71 72/72/72 70/70/70
f 71/71/71 73/73/73 72/72/72
f 73/73/73 74/74/74 72/72/72
f 73/73/73 75/75/75 74/74/74
f 75/75/75 76/76/76 74/74/74
f 75/75/75 77/77/77 76/76/76
f 77/77/77 78/78/78 76/76/76
f 77/77/77 79/79/79 78/78/78
f 79/79/79 80/80/80 78/78/78
f 79/79/79 81/81/81 80/80/80
f 81/81/81 82/82/82 80/80/80
f 81/81/81 83/83/83 82/82/82
f 83/83/83 84/84/84 82/82/82
f 83/83/83 85/85/85 84/84/84
f 85/85/85 86/86/86 84/84/84
f 85/85/85 87/87/87 86/86/86
f 87/87/87 88/88/88 86/86/86
f 87/87/87 89/89/89 88/88/88
f 89/89/89 90/90/90 88/88/88
f 89/89/89 91/91/91 90/90/90
f 91/91/91 92/92/92 90/90/90
f 91/91/91 93/93/93 92/92/92
f 93/93/93 94/94/94 92/92/92
f 93/93/93 95/95/95 94/94/94
f 95/95/95 96/96/96 94/94/94
f 95/95/95 97/97/97 96/96/96
f 97/97/97 98/98/98 96/96/96
f 97/97/97 99/99/99 98/98/98
f 99/99/99 100/100/100 98/98/98
f 99/99/99 101/101/101 100/100/100
f 101/101/101 102/102/102 100/100/100
f 101/101/101 103/103/103 102/102/102
f 103/103/103 104/104/104 102/102/102
f 103/103/103 105/105/105 104/104/104
f 105/105/105 106/106/106 104/104/104
f 105/105/105 107/107/107 106/106/106
f 107/107/107 108/108/108 106/106/106
f 107/107/107 109/109/109 108/108/108
f 109/109/109 110/110/110 108/108/108
f 109/109/109 111/111/111 110/110/110
f 111/111/111 112/112/112 110/110/110
f 111/111/111 113/113/113 112/112/112
f 113/113/113 114/114/114 112/112/112
f 113/113/113 115/115/115 114/114/114
f 115/115/115 116/116/116 114/114/114
f 115/115/115 117/117/117 116/116/116
f 117/117/117 118/118/118 116/116/116
f 117/117/117 119/119/119 118/118/118
f 119/119/119 120/120/120 118/118/118
f 119/119/119 121/121/121 120/120/120
f 121/121/121 122/122/122 120/120/120
f 121/121/121 123/123/123 122/122/122
f 123/123/123 124/124/124 122/122/122
f 123/123/123 125/125/125 124/124/124
f 125/125/125 126/126/126 124/124/124
f 125/125/125 127/127/127 126/126/126
f 127/127/127 128/128/128 126/126/126
f 127/127/127 129/129/129 128/128/128
f 129/129/129 130/130/130 128/128/128
f 129/129/129 131/131/131 130/130/130
f 131/131/131 132/132/132 130/130/130
f 131/131/131 133/133/133 132/132/132
f 133/133/133 134/134/134 132/132/132
f 133/133/133 135/135/135 134/134/134
f 135/135/135 136/136/136 134/134/134
f 135/135/135 137/137/137 136/136/136
f 137/137/137 138/138/138 136/136/136
f 137/137/137 139/139/139 138/138/138
f 139/139/139 140/140/140 138/138/138
f 139/139/139 141/141/141 140/140/140
f 141/141/141 142/142/142 140/140/140
f 141/141/141 143/143/143 142/142/142
f 143/143/143 144/144/144 142/142/142
