g SmokeTrail_Plane03
v 0.5 -4.11362 2.875
v -0.5 -4.11362 2.875
v -0.4999997 0.001156712 0.002003483
v 0.4999999 0.001156712 0.002003483
v 0 -4.546633 2.125
v 0.5 -4.11362 2.875
v 0.2484973 0.2165063 0.3749999
v -0.2515026 -0.2165064 -0.3750001
v 0 -4.546633 2.125
v -0.5 -4.11362 2.875
v -0.2504363 0.2165063 0.3749999
v 0.2495634 -0.2165064 -0.3750001
vt 0 0
vt 0 1
vt 1 1
vt 1 0
vt 0 0
vt 0 1
vt 1 1
vt 1 0
vt 0 0
vt 0 1
vt 1 1
vt 1 0
vn 0 0.5724793 0.8199192
vn 0 0.5724793 0.8199192
vn 0 0.5724793 0.8199192
vn 0 0.5724793 0.8199192
vn 0.8652049 -0.2120735 -0.4543626
vn 0.8652049 -0.2120735 -0.4543626
vn 0.8652049 -0.2120735 -0.4543626
vn 0.8652049 -0.2120735 -0.4543626
vn 0.8652175 0.2123671 0.4542013
vn 0.8652175 0.2123671 0.4542014
vn 0.8652175 0.2123671 0.4542013
vn 0.8652175 0.2123671 0.4542014
g SmokeTrail_Plane03_0
f 3/3/3 2/2/2 1/1/1
f 4/4/4 3/3/3 1/1/1
f 7/7/7 6/6/6 5/5/5
f 8/8/8 7/7/7 5/5/5
f 11/11/11 10/10/10 9/9/9
f 12/12/12 11/11/11 9/9/9
