g Stone_06
v 0.03453438 0.01251082 -0.1679678
v 0.02197152 0.01335258 -0.1885812
v 0.02327202 -0.01249322 -0.1674137
v 0.02327202 -0.01249322 -0.1674137
v 0.02197152 0.01335258 -0.1885812
v 0.0006406403 -0.02111821 -0.1673396
v 0.02197152 0.01335258 -0.1885812
v 0.001488634 0.01463237 -0.2178273
v 0.0006406403 -0.02111821 -0.1673396
v 0.0006406403 -0.02111821 -0.1673396
v 0.001488634 0.01463237 -0.2178273
v -0.008872692 0.01387116 -0.1662743
v -0.01105872 -0.01038809 -0.1535163
v 0.0006406403 -0.02111821 -0.1673396
v -0.008872692 0.01387116 -0.1662743
v -0.01105872 -0.01038809 -0.1535163
v -0.008872692 0.01387116 -0.1662743
v -0.01646571 0.01377523 -0.1502515
v -0.01293641 -0.01375023 -0.1196562
v -0.01105872 -0.01038809 -0.1535163
v -0.01646571 0.01377523 -0.1502515
v -0.02278172 0.01333431 -0.1199134
v -0.01293641 -0.01375023 -0.1196562
v -0.01646571 0.01377523 -0.1502515
v -0.01293641 -0.01375023 -0.1196562
v -0.02278172 0.01333431 -0.1199134
v -0.01678063 0.01249253 -0.08935658
v -0.003700608 0.006589392 0.1680995
v -0.001700734 -0.001842771 0.1716609
v -0.01138083 -0.01106778 -0.08988892
v -0.01138083 -0.01106778 -0.08988892
v -0.001700734 -0.001842771 0.1716609
v 0.001274138 -0.01785708 -0.07755767
v 0.03453438 0.01251082 -0.1679678
v 0.02202953 0.03823268 -0.1663218
v 0.02197152 0.01335258 -0.1885812
v 0.02202953 0.03823268 -0.1663218
v 0.002870189 0.04819077 -0.1658681
v 0.02197152 0.01335258 -0.1885812
v 0.002870189 0.04819077 -0.1658681
v 0.001488634 0.01463237 -0.2178273
v 0.02197152 0.01335258 -0.1885812
v 0.001488634 0.01463237 -0.2178273
v 0.002870189 0.04819077 -0.1658681
v -0.008872692 0.01387116 -0.1662743
v 0.002870189 0.04819077 -0.1658681
v -0.009513128 0.03765795 -0.1524963
v -0.008872692 0.01387116 -0.1662743
v -0.009513128 0.03765795 -0.1524963
v -0.01646571 0.01377523 -0.1502515
v -0.008872692 0.01387116 -0.1662743
v -0.009513128 0.03765795 -0.1524963
v -0.01551423 0.03983282 -0.1184962
v -0.01646571 0.01377523 -0.1502515
v -0.01551423 0.03983282 -0.1184962
v -0.02278172 0.01333431 -0.1199134
v -0.01646571 0.01377523 -0.1502515
v 0.01059619 -0.004036829 0.160693
v -0.001488606 0.005359731 0.2234427
v 0.01391118 0.006142732 0.1624535
v 0.02652837 -0.016777 -0.08291666
v 0.01059619 -0.004036829 0.160693
v 0.01391118 0.006142732 0.1624535
v 0.03610202 0.01079804 -0.08966819
v 0.02652837 -0.016777 -0.08291666
v 0.01391118 0.006142732 0.1624535
v 0.02652837 -0.016777 -0.08291666
v 0.001274138 -0.01785708 -0.07755767
v 0.01059619 -0.004036829 0.160693
v 0.03610202 0.01079804 -0.08966819
v 0.0272874 0.01184872 -0.1258012
v 0.02652837 -0.016777 -0.08291666
v 0.02652837 -0.016777 -0.08291666
v 0.0180764 -0.01736142 -0.1241191
v 0.001274138 -0.01785708 -0.07755767
v 0.0272874 0.01184872 -0.1258012
v 0.0180764 -0.01736142 -0.1241191
v 0.02652837 -0.016777 -0.08291666
v 0.0272874 0.01184872 -0.1258012
v 0.03453438 0.01251082 -0.1679678
v 0.02327202 -0.01249322 -0.1674137
v 0.0180764 -0.01736142 -0.1241191
v 0.0272874 0.01184872 -0.1258012
v 0.02327202 -0.01249322 -0.1674137
v 0.0180764 -0.01736142 -0.1241191
v 0.02327202 -0.01249322 -0.1674137
v 0.0006406403 -0.02111821 -0.1673396
v 0.0180764 -0.01736142 -0.1241191
v 0.0008243546 -0.02466489 -0.1168822
v 0.001274138 -0.01785708 -0.07755767
v 0.0008243546 -0.02466489 -0.1168822
v 0.0180764 -0.01736142 -0.1241191
v 0.0006406403 -0.02111821 -0.1673396
v 0.001274138 -0.01785708 -0.07755767
v 0.0008243546 -0.02466489 -0.1168822
v -0.01138083 -0.01106778 -0.08988892
v 0.0008243546 -0.02466489 -0.1168822
v 0.0006406403 -0.02111821 -0.1673396
v -0.01105872 -0.01038809 -0.1535163
v 0.0008243546 -0.02466489 -0.1168822
v -0.01293641 -0.01375023 -0.1196562
v -0.01138083 -0.01106778 -0.08988892
v -0.01293641 -0.01375023 -0.1196562
v 0.0008243546 -0.02466489 -0.1168822
v -0.01105872 -0.01038809 -0.1535163
v -0.001488606 0.005359731 0.2234427
v -0.001700734 -0.001842771 0.1716609
v -0.003700608 0.006589392 0.1680995
v -0.001488606 0.005359731 0.2234427
v 0.002740641 -0.004542575 0.1702317
v -0.001700734 -0.001842771 0.1716609
v -0.001700734 -0.001842771 0.1716609
v 0.002740641 -0.004542575 0.1702317
v 0.001274138 -0.01785708 -0.07755767
v 0.002740641 -0.004542575 0.1702317
v -0.001488606 0.005359731 0.2234427
v 0.01059619 -0.004036829 0.160693
v 0.001274138 -0.01785708 -0.07755767
v 0.002740641 -0.004542575 0.1702317
v 0.01059619 -0.004036829 0.160693
v -0.001291297 0.01504363 0.1645463
v -0.003700608 0.006589392 0.1680995
v -0.01678063 0.01249253 -0.08935658
v -0.009877647 0.03565864 -0.08889685
v -0.001291297 0.01504363 0.1645463
v -0.01678063 0.01249253 -0.08935658
v -0.001291297 0.01504363 0.1645463
v -0.009877647 0.03565864 -0.08889685
v 0.003170448 0.04109203 -0.07630612
v -0.009877647 0.03565864 -0.08889685
v -0.01551423 0.03983282 -0.1184962
v 0.003212401 0.04957583 -0.1153061
v 0.003170448 0.04109203 -0.07630612
v -0.009877647 0.03565864 -0.08889685
v 0.003212401 0.04957583 -0.1153061
v 0.003212401 0.04957583 -0.1153061
v -0.01551423 0.03983282 -0.1184962
v -0.009513128 0.03765795 -0.1524963
v 0.002870189 0.04819077 -0.1658681
v 0.003212401 0.04957583 -0.1153061
v -0.009513128 0.03765795 -0.1524963
v 0.02427938 0.0387492 -0.08171678
v 0.003170448 0.04109203 -0.07630612
v 0.003212401 0.04957583 -0.1153061
v 0.02427938 0.0387492 -0.08171678
v 0.01117448 0.016328 0.1664519
v 0.003170448 0.04109203 -0.07630612
v 0.01391118 0.006142732 0.1624535
v 0.01117448 0.016328 0.1664519
v 0.02427938 0.0387492 -0.08171678
v 0.03610202 0.01079804 -0.08966819
v 0.01391118 0.006142732 0.1624535
v 0.02427938 0.0387492 -0.08171678
v 0.03610202 0.01079804 -0.08966819
v 0.02427938 0.0387492 -0.08171678
v 0.0272874 0.01184872 -0.1258012
v 0.02456479 0.04134533 -0.1228967
v 0.003212401 0.04957583 -0.1153061
v 0.002870189 0.04819077 -0.1658681
v 0.02456479 0.04134533 -0.1228967
v 0.02427938 0.0387492 -0.08171678
v 0.003212401 0.04957583 -0.1153061
v 0.02427938 0.0387492 -0.08171678
v 0.02456479 0.04134533 -0.1228967
v 0.0272874 0.01184872 -0.1258012
v 0.02202953 0.03823268 -0.1663218
v 0.02456479 0.04134533 -0.1228967
v 0.002870189 0.04819077 -0.1658681
v 0.0272874 0.01184872 -0.1258012
v 0.02456479 0.04134533 -0.1228967
v 0.02202953 0.03823268 -0.1663218
v 0.03453438 0.01251082 -0.1679678
v 0.0272874 0.01184872 -0.1258012
v 0.02202953 0.03823268 -0.1663218
v 0.01391118 0.006142732 0.1624535
v -0.001488606 0.005359731 0.2234427
v 0.01117448 0.016328 0.1664519
v 0.01117448 0.016328 0.1664519
v -0.001488606 0.005359731 0.2234427
v 0.003415541 0.01746298 0.1651278
v 0.01117448 0.016328 0.1664519
v 0.003415541 0.01746298 0.1651278
v 0.003170448 0.04109203 -0.07630612
v 0.003415541 0.01746298 0.1651278
v -0.001291297 0.01504363 0.1645463
v 0.003170448 0.04109203 -0.07630612
v -0.001488606 0.005359731 0.2234427
v -0.001291297 0.01504363 0.1645463
v 0.003415541 0.01746298 0.1651278
v -0.001488606 0.005359731 0.2234427
v -0.003700608 0.006589392 0.1680995
v -0.001291297 0.01504363 0.1645463
v -0.01138083 -0.01106778 -0.08988892
v -0.01293641 -0.01375023 -0.1196562
v -0.01678063 0.01249253 -0.08935658
v -0.003700608 0.006589392 0.1680995
v -0.01678063 0.01249253 -0.08935658
v -0.02278172 0.01333431 -0.1199134
v -0.01551423 0.03983282 -0.1184962
v -0.009877647 0.03565864 -0.08889685
vt 0.6176758 0.7890625
vt 0.6401367 0.8297119
vt 0.6396484 0.7823486
vt 0.6396484 0.7823486
vt 0.6401367 0.8297119
vt 0.6748047 0.776001
vt 0.6401367 0.8297119
vt 0.6850586 0.8724365
vt 0.6748047 0.776001
vt 0.6748047 0.776001
vt 0.6850586 0.8724365
vt 0.7158203 0.8205566
vt 0.7070313 0.769165
vt 0.6748047 0.776001
vt 0.7158203 0.8205566
vt 0.7070313 0.769165
vt 0.7158203 0.8205566
vt 0.730957 0.7701416
vt 0.7119141 0.7097168
vt 0.7070313 0.769165
vt 0.730957 0.7701416
vt 0.734375 0.7109375
vt 0.7119141 0.7097168
vt 0.730957 0.7701416
vt 0.7119141 0.7097168
vt 0.734375 0.7109375
vt 0.7265625 0.6533203
vt 0.7011719 0.371582
vt 0.6953125 0.3706055
vt 0.7138672 0.6533203
vt 0.7138672 0.6533203
vt 0.6953125 0.3706055
vt 0.6855469 0.6533203
vt 0.6176758 0.7890625
vt 0.6396484 0.7823486
vt 0.6401367 0.8297119
vt 0.6396484 0.7823486
vt 0.6748047 0.776001
vt 0.6401367 0.8297119
vt 0.6748047 0.776001
vt 0.6850586 0.8724365
vt 0.6401367 0.8297119
vt 0.6850586 0.8724365
vt 0.6748047 0.776001
vt 0.7158203 0.8205566
vt 0.6748047 0.776001
vt 0.7070313 0.769165
vt 0.7158203 0.8205566
vt 0.7070313 0.769165
vt 0.730957 0.7701416
vt 0.7158203 0.8205566
vt 0.7070313 0.769165
vt 0.7119141 0.7097168
vt 0.730957 0.7701416
vt 0.7119141 0.7097168
vt 0.734375 0.7109375
vt 0.730957 0.7701416
vt 0.6796875 0.3745117
vt 0.6904297 0.3012695
vt 0.671875 0.3725586
vt 0.6445313 0.6533203
vt 0.6796875 0.3745117
vt 0.671875 0.3725586
vt 0.6225586 0.6506348
vt 0.6445313 0.6533203
vt 0.671875 0.3725586
vt 0.6445313 0.6533203
vt 0.6855469 0.6533203
vt 0.6796875 0.3745117
vt 0.6225586 0.6506348
vt 0.6157227 0.71875
vt 0.6445313 0.6533203
vt 0.6445313 0.6533203
vt 0.6381836 0.7133789
vt 0.6855469 0.6533203
vt 0.6157227 0.71875
vt 0.6381836 0.7133789
vt 0.6445313 0.6533203
vt 0.6157227 0.71875
vt 0.6176758 0.7890625
vt 0.6396484 0.7823486
vt 0.6381836 0.7133789
vt 0.6157227 0.71875
vt 0.6396484 0.7823486
vt 0.6381836 0.7133789
vt 0.6396484 0.7823486
vt 0.6748047 0.776001
vt 0.6381836 0.7133789
vt 0.6777344 0.7106934
vt 0.6855469 0.6533203
vt 0.6777344 0.7106934
vt 0.6381836 0.7133789
vt 0.6748047 0.776001
vt 0.6855469 0.6533203
vt 0.6777344 0.7106934
vt 0.7138672 0.6533203
vt 0.6777344 0.7106934
vt 0.6748047 0.776001
vt 0.7070313 0.769165
vt 0.6777344 0.7106934
vt 0.7119141 0.7097168
vt 0.7138672 0.6533203
vt 0.7119141 0.7097168
vt 0.6777344 0.7106934
vt 0.7070313 0.769165
vt 0.6904297 0.3012695
vt 0.6953125 0.3706055
vt 0.7011719 0.371582
vt 0.6904297 0.3012695
vt 0.6899414 0.3740234
vt 0.6953125 0.3706055
vt 0.6953125 0.3706055
vt 0.6899414 0.3740234
vt 0.6855469 0.6533203
vt 0.6899414 0.3740234
vt 0.6904297 0.3012695
vt 0.6796875 0.3745117
vt 0.6855469 0.6533203
vt 0.6899414 0.3740234
vt 0.6796875 0.3745117
vt 0.6953125 0.3720703
vt 0.7011719 0.371582
vt 0.7265625 0.6533203
vt 0.7138672 0.6533203
vt 0.6953125 0.3720703
vt 0.7265625 0.6533203
vt 0.6953125 0.3720703
vt 0.7138672 0.6533203
vt 0.6855469 0.6533203
vt 0.7138672 0.6533203
vt 0.7119141 0.7097168
vt 0.6777344 0.7106934
vt 0.6855469 0.6533203
vt 0.7138672 0.6533203
vt 0.6777344 0.7106934
vt 0.6777344 0.7106934
vt 0.7119141 0.7097168
vt 0.7070313 0.769165
vt 0.6748047 0.776001
vt 0.6777344 0.7106934
vt 0.7070313 0.769165
vt 0.6445313 0.6533203
vt 0.6855469 0.6533203
vt 0.6777344 0.7106934
vt 0.6445313 0.6533203
vt 0.6796875 0.3735352
vt 0.6855469 0.6533203
vt 0.671875 0.3725586
vt 0.6796875 0.3735352
vt 0.6445313 0.6533203
vt 0.6225586 0.6506348
vt 0.671875 0.3725586
vt 0.6445313 0.6533203
vt 0.6225586 0.6506348
vt 0.6445313 0.6533203
vt 0.6157227 0.71875
vt 0.6381836 0.7133789
vt 0.6777344 0.7106934
vt 0.6748047 0.776001
vt 0.6381836 0.7133789
vt 0.6445313 0.6533203
vt 0.6777344 0.7106934
vt 0.6445313 0.6533203
vt 0.6381836 0.7133789
vt 0.6157227 0.71875
vt 0.6396484 0.7823486
vt 0.6381836 0.7133789
vt 0.6748047 0.776001
vt 0.6157227 0.71875
vt 0.6381836 0.7133789
vt 0.6396484 0.7823486
vt 0.6176758 0.7890625
vt 0.6157227 0.71875
vt 0.6396484 0.7823486
vt 0.671875 0.3725586
vt 0.6904297 0.3012695
vt 0.6796875 0.3735352
vt 0.6796875 0.3735352
vt 0.6904297 0.3012695
vt 0.6899414 0.375
vt 0.6796875 0.3735352
vt 0.6899414 0.375
vt 0.6855469 0.6533203
vt 0.6899414 0.375
vt 0.6953125 0.3720703
vt 0.6855469 0.6533203
vt 0.6904297 0.3012695
vt 0.6953125 0.3720703
vt 0.6899414 0.375
vt 0.6904297 0.3012695
vt 0.7011719 0.371582
vt 0.6953125 0.3720703
vt 0.7138672 0.6533203
vt 0.7119141 0.7097168
vt 0.7265625 0.6533203
vt 0.7011719 0.371582
vt 0.7265625 0.6533203
vt 0.734375 0.7109375
vt 0.7119141 0.7097168
vt 0.7138672 0.6533203
vn 0.7879838 -0.365896 -0.4951782
vn 0.7879808 -0.3658983 -0.4951814
vn 0.7879587 -0.3658844 -0.495227
vn 0.2298733 -0.6096868 -0.7585778
vn 0.2298733 -0.6096868 -0.7585778
vn 0.2298848 -0.6097166 -0.7585504
vn 0.6058661 -0.6540321 -0.452955
vn 0.6058651 -0.6540327 -0.4529555
vn 0.6058814 -0.654054 -0.4529029
vn -0.9480659 -0.2518593 -0.1942631
vn -0.9480659 -0.2518592 -0.1942631
vn -0.9480548 -0.2518524 -0.1943254
vn -0.8200687 -0.2067219 -0.5336229
vn -0.8200826 -0.2067326 -0.5335973
vn -0.8200546 -0.2067219 -0.5336446
vn -0.8940999 -0.1427051 -0.4245241
vn -0.8940873 -0.1427034 -0.4245513
vn -0.8940994 -0.142709 -0.4245238
vn -0.9752382 -0.2081259 -0.07479298
vn -0.9752403 -0.2081272 -0.07476117
vn -0.9752402 -0.2081281 -0.07476147
vn -0.9208941 -0.3366115 -0.1965874
vn -0.9208876 -0.3366106 -0.1966192
vn -0.9208941 -0.3366115 -0.1965874
vn -0.926249 -0.3350516 0.1726362
vn -0.9262425 -0.3350533 0.1726673
vn -0.9262374 -0.3350514 0.1726986
vn -0.9760634 -0.2130623 0.043643
vn -0.9760631 -0.2130639 0.04364302
vn -0.9760633 -0.2130629 0.04364314
vn -0.5089491 -0.8593934 0.04913079
vn -0.5089495 -0.8593932 0.04913072
vn -0.5089492 -0.8593923 0.04914687
vn 0.7856366 0.4115045 -0.4619949
vn 0.7856322 0.4115105 -0.461997
vn 0.7856335 0.4115071 -0.4619978
vn 0.3122414 0.6330292 -0.7083638
vn 0.3122288 0.6329954 -0.7083997
vn 0.3122272 0.6330002 -0.708396
vn 0.6472483 0.6323711 -0.4256481
vn 0.6472661 0.6323885 -0.4255952
vn 0.6472427 0.6323776 -0.425647
vn -0.9296726 0.3202528 -0.1820631
vn -0.9296606 0.3202525 -0.1821253
vn -0.9296604 0.3202528 -0.1821254
vn -0.8043668 0.2814166 -0.5232579
vn -0.80438 0.2814215 -0.5232349
vn -0.8043664 0.2814168 -0.5232583
vn -0.8824909 0.217723 -0.416901
vn -0.882493 0.217718 -0.4168992
vn -0.8824795 0.2177197 -0.416927
vn -0.9482716 0.2587685 -0.183902
vn -0.9482716 0.2587685 -0.183902
vn -0.9482716 0.2587685 -0.183902
vn -0.9436665 0.2691048 -0.192552
vn -0.9436654 0.2691085 -0.1925519
vn -0.9436654 0.2691085 -0.1925519
vn 0.9139383 -0.3367863 0.2264771
vn 0.9139515 -0.3367913 0.2264159
vn 0.9139383 -0.3367863 0.2264771
vn 0.9438389 -0.3209439 0.07850596
vn 0.9438405 -0.3209391 0.07850576
vn 0.9438353 -0.3209387 0.07857022
vn 0.9475678 -0.3099647 0.07769899
vn 0.947571 -0.3099631 0.07766631
vn 0.9475659 -0.3099628 0.07773079
vn 0.05445716 -0.9969622 0.05568382
vn 0.05445812 -0.9969613 0.0556999
vn 0.05445695 -0.9969605 0.05571589
vn 0.9004141 -0.3690218 -0.2303854
vn 0.9004087 -0.3690155 -0.2304163
vn 0.9004157 -0.3690191 -0.2303837
vn 0.04382852 -0.9990257 0.005164842
vn 0.04382449 -0.9990257 0.005197122
vn 0.0438255 -0.9990257 0.005180981
vn 0.9336987 -0.30521 -0.1872256
vn 0.9336983 -0.3052111 -0.1872263
vn 0.9336987 -0.30521 -0.1872256
vn 0.9028551 -0.4033699 0.1488134
vn 0.9028479 -0.403363 0.1488754
vn 0.9028566 -0.403367 0.1488123
vn 0.951902 -0.2955046 0.08099199
vn 0.9518988 -0.2955063 0.08102365
vn 0.9519038 -0.2955079 0.08095951
vn 0.3552545 -0.9326954 -0.06223672
vn 0.3552532 -0.932696 -0.0622365
vn 0.3552537 -0.9327002 -0.06217194
vn 0.437702 -0.886779 0.1484589
vn 0.4377055 -0.8867719 0.1484907
vn 0.4377019 -0.8867685 0.1485217
vn 0.3651595 -0.9285601 -0.06659434
vn 0.3651598 -0.9285576 -0.06662674
vn 0.3651604 -0.9285619 -0.06656218
vn -0.5743927 -0.8054538 0.1460037
vn -0.5743908 -0.8054554 0.1460033
vn -0.5743938 -0.805453 0.1460043
vn -0.7048734 -0.7077615 -0.04719378
vn -0.7048755 -0.7077637 -0.04712937
vn -0.704876 -0.707761 -0.04716175
vn -0.6307428 -0.7692239 0.1022641
vn -0.6307464 -0.7692211 0.1022642
vn -0.6307439 -0.769223 0.1022645
vn -0.6035889 -0.7894064 -0.1118835
vn -0.6035888 -0.7894065 -0.1118835
vn -0.6035911 -0.7894093 -0.1118516
vn -0.9755855 -0.2169483 0.03415263
vn -0.9755854 -0.2169487 0.03415262
vn -0.9755829 -0.2169495 0.03421707
vn -0.4865009 -0.8650808 0.1222788
vn -0.4864996 -0.8650815 0.1222786
vn -0.4865004 -0.8650811 0.1222785
vn -0.5071885 -0.8604262 0.04925973
vn -0.5071881 -0.8604264 0.04925974
vn -0.5071884 -0.8604271 0.04924358
vn 0.2999283 -0.9332951 0.1974922
vn 0.2999286 -0.9332951 0.1974923
vn 0.2999304 -0.9332944 0.1974922
vn 0.1274739 -0.9904522 0.05248797
vn 0.1274743 -0.9904554 0.05242337
vn 0.1274753 -0.9904553 0.05242336
vn -0.9538857 0.2950511 0.05519951
vn -0.9538819 0.2950514 0.05526375
vn -0.9538841 0.2950504 0.05523167
vn -0.9571829 0.2841092 0.05552255
vn -0.957181 0.2841158 0.05552226
vn -0.9571783 0.2841187 0.05555433
vn -0.4537284 0.8868358 0.08747992
vn -0.4537309 0.8868346 0.0874802
vn -0.4537327 0.886832 0.08749688
vn -0.4792188 0.851863 0.2113739
vn -0.4792155 0.8518651 0.2113724
vn -0.4792155 0.8518651 0.2113724
vn -0.521666 0.8337682 0.1808182
vn -0.5216675 0.8337706 0.1808025
vn -0.5216675 0.8337706 0.1808025
vn -0.4392553 0.8882593 -0.134351
vn -0.4392572 0.8882632 -0.1343193
vn -0.4392524 0.8882657 -0.1343184
vn -0.6578907 0.7529404 -0.0161402
vn -0.6578904 0.7529399 -0.01617247
vn -0.6578893 0.752941 -0.01617249
vn 0.1608448 0.9643907 0.2099512
vn 0.1608516 0.9643896 0.209951
vn 0.1608516 0.9643896 0.209951
vn 0.1341168 0.9862855 0.09619542
vn 0.1341216 0.9862911 0.09613141
vn 0.1341216 0.9862832 0.09621213
vn 0.9699633 0.2322762 0.07224307
vn 0.9699687 0.2322734 0.07217892
vn 0.9699641 0.2322824 0.07221145
vn 0.9261681 0.3666308 0.08828642
vn 0.9261649 0.3666311 0.08831877
vn 0.9261697 0.3666265 0.08828734
vn 0.8800265 0.4297441 -0.2021717
vn 0.8800232 0.4297504 -0.2021728
vn 0.8800247 0.4297471 -0.2021732
vn 0.3508385 0.9360158 -0.02805158
vn 0.3508379 0.9360169 -0.02801934
vn 0.3508379 0.9360169 -0.02801934
vn 0.3777628 0.9239008 0.06084878
vn 0.377762 0.9238989 0.06088094
vn 0.3777645 0.9239001 0.06084873
vn 0.9958013 0.09066752 0.01262163
vn 0.995802 0.09065951 0.01262164
vn 0.9958006 0.09067551 0.01262162
vn 0.4576173 0.8845762 -0.09006277
vn 0.4576243 0.8845661 -0.09012712
vn 0.4576227 0.8845669 -0.09012721
vn 0.9930548 0.09805946 -0.06501251
vn 0.9930555 0.09805147 -0.06501256
vn 0.9930581 0.09806786 -0.06494816
vn 0.8917544 0.4232975 0.1599788
vn 0.891762 0.4233049 0.1599171
vn 0.8917543 0.4232973 0.1599803
vn 0.9563633 0.1613542 0.2435858
vn 0.9563631 0.161356 0.2435855
vn 0.9563784 0.1613581 0.2435241
vn 0.1062107 0.971786 0.2105975
vn 0.1062089 0.9717861 0.2105979
vn 0.1062076 0.9717728 0.21066
vn 0.1279267 0.9870822 0.09645344
vn 0.1279272 0.9870821 0.09645383
vn 0.1279276 0.9870805 0.09647099
vn -0.4638868 0.8816348 0.08676977
vn -0.4638878 0.8816407 0.08670539
vn -0.4638901 0.881633 0.08677039
vn -0.4663417 0.8731381 0.1419695
vn -0.4663417 0.8731381 0.1419695
vn -0.4663374 0.87313 0.1420327
vn -0.9556446 0.2911141 0.04467598
vn -0.9556448 0.2911137 0.04467592
vn -0.955644 0.2911159 0.04467595
vn -0.9719183 -0.2243568 0.07098459
vn -0.9719183 -0.2243568 0.07098459
vn -0.9719159 -0.2243572 0.07101699
vn -0.9735494 -0.2241301 0.04435312
vn -0.9487997 0.2498821 0.1932301
vn -0.9487997 0.2498821 0.1932301
vn -0.9487997 0.2498821 0.1932301
vn -0.9366683 0.274795 0.217118
g Stone_06_0
f 3/3/3 2/2/2 1/1/1
f 6/6/6 5/5/5 4/4/4
f 9/9/9 8/8/8 7/7/7
f 12/12/12 11/11/11 10/10/10
f 15/15/15 14/14/14 13/13/13
f 18/18/18 17/17/17 16/16/16
f 21/21/21 20/20/20 19/19/19
f 24/24/24 23/23/23 22/22/22
f 27/27/27 26/26/26 25/25/25
f 30/30/30 29/29/29 28/28/28
f 33/33/33 32/32/32 31/31/31
f 36/36/36 35/35/35 34/34/34
f 39/39/39 38/38/38 37/37/37
f 42/42/42 41/41/41 40/40/40
f 45/45/45 44/44/44 43/43/43
f 48/48/48 47/47/47 46/46/46
f 51/51/51 50/50/50 49/49/49
f 54/54/54 53/53/53 52/52/52
f 57/57/57 56/56/56 55/55/55
f 60/60/60 59/59/59 58/58/58
f 63/63/63 62/62/62 61/61/61
f 66/66/66 65/65/65 64/64/64
f 69/69/69 68/68/68 67/67/67
f 72/72/72 71/71/71 70/70/70
f 75/75/75 74/74/74 73/73/73
f 78/78/78 77/77/77 76/76/76
f 81/81/81 80/80/80 79/79/79
f 84/84/84 83/83/83 82/82/82
f 87/87/87 86/86/86 85/85/85
f 90/90/90 89/89/89 88/88/88
f 93/93/93 92/92/92 91/91/91
f 96/96/96 95/95/95 94/94/94
f 99/99/99 98/98/98 97/97/97
f 102/102/102 101/101/101 100/100/100
f 105/105/105 104/104/104 103/103/103
f 108/108/108 107/107/107 106/106/106
f 111/111/111 110/110/110 109/109/109
f 114/114/114 113/113/113 112/112/112
f 117/117/117 116/116/116 115/115/115
f 120/120/120 119/119/119 118/118/118
f 123/123/123 122/122/122 121/121/121
f 126/126/126 125/125/125 124/124/124
f 129/129/129 128/128/128 127/127/127
f 132/132/132 131/131/131 130/130/130
f 135/135/135 134/134/134 133/133/133
f 138/138/138 137/137/137 136/136/136
f 141/141/141 140/140/140 139/139/139
f 144/144/144 143/143/143 142/142/142
f 147/147/147 146/146/146 145/145/145
f 150/150/150 149/149/149 148/148/148
f 153/153/153 152/152/152 151/151/151
f 156/156/156 155/155/155 154/154/154
f 159/159/159 158/158/158 157/157/157
f 162/162/162 161/161/161 160/160/160
f 165/165/165 164/164/164 163/163/163
f 168/168/168 167/167/167 166/166/166
f 171/171/171 170/170/170 169/169/169
f 174/174/174 173/173/173 172/172/172
f 177/177/177 176/176/176 175/175/175
f 180/180/180 179/179/179 178/178/178
f 183/183/183 182/182/182 181/181/181
f 186/186/186 185/185/185 184/184/184
f 189/189/189 188/188/188 187/187/187
f 192/192/192 191/191/191 190/190/190
f 195/195/195 194/194/194 193/193/193
f 193/193/193 196/196/196 195/195/195
f 199/199/199 198/198/198 197/197/197
f 199/199/199 197/197/197 200/200/200
