g Stone_09
v 0.008765965 -0.1680088 0.006024599
v 0.05093361 -0.07524235 -0.02015369
v 0.05118568 -0.07718074 -0.02080021
v 0.007179413 -0.1694493 0.009704585
v 0.05093361 -0.07524235 -0.02015369
v 0.008765965 -0.1680088 0.006024599
v 0.05092516 -0.07522938 -0.02016061
v 0.0485539 -0.07608555 -0.02183218
v 0.05118568 -0.07718074 -0.02080021
v 0.05691391 0.04618389 -0.02358417
v 0.007845744 0.1743149 0.00339047
v -0.017554 0.07485946 -0.05477148
v -0.017554 0.07485946 -0.05477148
v 0.007845744 0.1743149 0.00339047
v -0.04663925 0.07474194 0.008362012
v 0.01855265 -0.0752679 0.04992315
v -0.03233248 -0.05588039 0.0589272
v 0.02702677 -0.01131676 0.07778998
v 0.0485539 -0.07608555 -0.02183218
v 0.008765965 -0.1680088 0.006024599
v 0.05118568 -0.07718074 -0.02080021
v 0.0485539 -0.07608555 -0.02183218
v 0.008600388 -0.06172848 -0.05184162
v 0.007442818 -0.06805386 -0.04817023
v 0.05118568 -0.07718074 -0.02080021
v 0.05093361 -0.07524235 -0.02015369
v 0.05092516 -0.07522938 -0.02016061
v 0.06738897 -0.009168739 -0.01240891
v 0.01855265 -0.0752679 0.04992315
v 0.02702677 -0.01131676 0.07778998
v 0.06738897 -0.009168739 -0.01240891
v 0.05092516 -0.07522938 -0.02016061
v 0.05093361 -0.07524235 -0.02015369
v 0.0485539 -0.07608555 -0.02183218
v 0.05092516 -0.07522938 -0.02016061
v 0.008600388 -0.06172848 -0.05184162
v -0.01778473 0.02174965 -0.07640372
v 0.05691391 0.04618389 -0.02358417
v -0.017554 0.07485946 -0.05477148
v 0.008600388 -0.06172848 -0.05184162
v -0.02707846 -0.07109509 -0.03207401
v 0.007442818 -0.06805386 -0.04817023
v -0.02707846 -0.07109509 -0.03207401
v -0.0009194755 -0.1636169 -0.002033768
v -0.01276777 -0.1575275 0.0005923033
v -0.01778473 0.02174965 -0.07640372
v 0.008600388 -0.06172848 -0.05184162
v -0.03617382 -0.01725849 -0.05201256
v -0.04461122 -0.08131702 0.0150385
v -0.01087786 -0.160697 0.01302927
v -0.0161484 -0.1570445 0.007835116
v -0.0009194755 -0.1636169 -0.002033768
v 0.007179413 -0.1694493 0.009704585
v 0.008765965 -0.1680088 0.006024599
v -0.01778473 0.02174965 -0.07640372
v 0.06738897 -0.009168739 -0.01240891
v 0.05691391 0.04618389 -0.02358417
v 0.01958117 0.05744083 0.05064074
v 0.007845744 0.1743149 0.00339047
v 0.05691391 0.04618389 -0.02358417
v 0.02702677 -0.01131676 0.07778998
v 0.06738897 -0.009168739 -0.01240891
v -0.03233248 -0.05588039 0.0589272
v -0.07075538 -0.01483913 0.02396705
v 0.02702677 -0.01131676 0.07778998
v -0.04663925 0.07474194 0.008362012
v -0.03233248 -0.05588039 0.0589272
v -0.04461122 -0.08131702 0.0150385
v -0.07075538 -0.01483913 0.02396705
v -0.01087786 -0.160697 0.01302927
v 0.01855265 -0.0752679 0.04992315
v -0.01087786 -0.160697 0.01302927
v -0.03233248 -0.05588039 0.0589272
v 0.007179413 -0.1694493 0.009704585
v -0.07075538 -0.01483913 0.02396705
v -0.03617382 -0.01725849 -0.05201256
v -0.01778473 0.02174965 -0.07640372
v -0.04663925 0.07474194 0.008362012
v -0.017554 0.07485946 -0.05477148
v 0.01855265 -0.0752679 0.04992315
v 0.05093361 -0.07524235 -0.02015369
v 0.007179413 -0.1694493 0.009704585
v 0.06738897 -0.009168739 -0.01240891
v 0.01958117 0.05744083 0.05064074
v -0.04663925 0.07474194 0.008362012
v 0.007845744 0.1743149 0.00339047
v 0.02702677 -0.01131676 0.07778998
v -0.04461122 -0.08131702 0.0150385
v -0.03617382 -0.01725849 -0.05201256
v -0.07075538 -0.01483913 0.02396705
v -0.02707846 -0.07109509 -0.03207401
v -0.01276777 -0.1575275 0.0005923033
v -0.0161484 -0.1570445 0.007835116
v 0.008765965 -0.1680088 0.006024599
v 0.007442818 -0.06805386 -0.04817023
v -0.0009194755 -0.1636169 -0.002033768
v 0.0485539 -0.07608555 -0.02183218
v 0.008600388 -0.06172848 -0.05184162
v 0.06738897 -0.009168739 -0.01240891
v -0.01778473 0.02174965 -0.07640372
v 0.05092516 -0.07522938 -0.02016061
v -0.01087786 -0.160697 0.01302927
v -0.01276777 -0.1575275 0.0005923033
v -0.0161484 -0.1570445 0.007835116
v -0.0009194755 -0.1636169 -0.002033768
v 0.007179413 -0.1694493 0.009704585
vt 0.4913678 0.1054237
vt 0.4804909 0.18079
vt 0.4811358 0.1807461
vt 0.4893925 0.103037
vt 0.4804909 0.18079
vt 0.4913678 0.1054237
vt 0.1844993 0.3376488
vt 0.1839827 0.3355332
vt 0.1831131 0.3376055
vt 0.2715485 0.3509687
vt 0.3752675 0.3382433
vt 0.2998766 0.2973796
vt 0.2998766 0.2973796
vt 0.3752675 0.3382433
vt 0.3359897 0.2661944
vt 0.3710863 0.1418565
vt 0.342094 0.1690629
vt 0.3933327 0.1904646
vt 0.1839827 0.3355332
vt 0.1107084 0.3150411
vt 0.1831131 0.3376055
vt 0.1839827 0.3355332
vt 0.1981962 0.3001928
vt 0.1926917 0.3004217
vt 0.1831131 0.3376055
vt 0.1844496 0.3376425
vt 0.1844993 0.3376488
vt 0.4584619 0.2237031
vt 0.431387 0.152819
vt 0.3933327 0.1904646
vt 0.2306077 0.3556845
vt 0.1844993 0.3376488
vt 0.1844496 0.3376425
vt 0.1839827 0.3355332
vt 0.1844993 0.3376488
vt 0.1981962 0.3001928
vt 0.2624331 0.2803705
vt 0.2715485 0.3509687
vt 0.2998766 0.2973796
vt 0.2208358 0.227475
vt 0.2434852 0.2067097
vt 0.2200561 0.2220414
vt 0.2434852 0.2067097
vt 0.2010932 0.1464068
vt 0.2110917 0.1464635
vt 0.2624331 0.2803705
vt 0.2208358 0.227475
vt 0.2631289 0.2439037
vt 0.3098219 0.1499096
vt 0.3233235 0.086859
vt 0.3175963 0.08981795
vt 0.1149298 0.3062685
vt 0.1077631 0.3150236
vt 0.1107084 0.3150411
vt 0.2624331 0.2803705
vt 0.2306077 0.3556845
vt 0.2715485 0.3509687
vt 0.3881304 0.2454277
vt 0.3752675 0.3382433
vt 0.4460756 0.2632895
vt 0.3933327 0.1904646
vt 0.4584619 0.2237031
vt 0.342094 0.1690629
vt 0.3102306 0.2045026
vt 0.3933327 0.1904646
vt 0.3359897 0.2661944
vt 0.342094 0.1690629
vt 0.3098219 0.1499096
vt 0.3102306 0.2045026
vt 0.3233235 0.086859
vt 0.3710863 0.1418565
vt 0.3233235 0.086859
vt 0.342094 0.1690629
vt 0.3332204 0.07527754
vt 0.3102306 0.2045026
vt 0.2631289 0.2439037
vt 0.2624331 0.2803705
vt 0.3359897 0.2661944
vt 0.2998766 0.2973796
vt 0.431387 0.152819
vt 0.4804909 0.18079
vt 0.4893925 0.103037
vt 0.4584619 0.2237031
vt 0.3881304 0.2454277
vt 0.3359897 0.2661944
vt 0.3752675 0.3382433
vt 0.3933327 0.1904646
vt 0.2652059 0.1759575
vt 0.2631289 0.2439037
vt 0.3102306 0.2045026
vt 0.2434852 0.2067097
vt 0.2110917 0.1464635
vt 0.2156682 0.1427129
vt 0.1107084 0.3150411
vt 0.1926917 0.3004217
vt 0.1149298 0.3062685
vt 0.1839827 0.3355332
vt 0.1981962 0.3001928
vt 0.2306077 0.3556845
vt 0.2624331 0.2803705
vt 0.1844993 0.3376488
vt 0.102602 0.3010874
vt 0.1112126 0.2970852
vt 0.1054918 0.2957909
vt 0.1149298 0.3062685
vt 0.1077631 0.3150236
vn 0.7186497 -0.1341208 0.6823153
vn 0.7186497 -0.1341208 0.6823153
vn 0.7186497 -0.1341208 0.6823153
vn 0.9049597 -0.3386635 0.2575945
vn 0.9049597 -0.3386636 0.2575945
vn 0.9049597 -0.3386636 0.2575945
vn 0.4607513 0.3313816 -0.8233434
vn 0.4607514 0.3313816 -0.8233434
vn 0.4607513 0.3313816 -0.8233434
vn 0.4735477 0.3513748 -0.8076437
vn 0.4735477 0.3513748 -0.8076437
vn 0.4735477 0.3513748 -0.8076437
vn -0.8202891 0.430023 -0.3771022
vn -0.8202891 0.430023 -0.3771022
vn -0.8202891 0.430023 -0.3771022
vn 0.009528594 -0.400516 0.9162402
vn 0.009528594 -0.400516 0.9162402
vn 0.009528594 -0.400516 0.9162402
vn 0.2048067 -0.3639951 -0.9086043
vn 0.2048067 -0.3639951 -0.9086044
vn 0.2048067 -0.3639951 -0.9086044
vn 0.3889638 -0.5146716 -0.7640814
vn 0.3889637 -0.5146715 -0.7640814
vn 0.3889637 -0.5146715 -0.7640814
vn 0.8245988 0.2725738 -0.4957219
vn 0.8245988 0.2725739 -0.4957219
vn 0.8245988 0.2725738 -0.4957219
vn 0.87758 -0.2844552 0.3859254
vn 0.87758 -0.2844552 0.3859255
vn 0.87758 -0.2844553 0.3859255
vn 0.5851256 -0.05085607 -0.8093464
vn 0.5851256 -0.05085607 -0.8093464
vn 0.5851256 -0.05085607 -0.8093464
vn 0.5878072 -0.05174933 -0.8073441
vn 0.5878074 -0.05174933 -0.8073441
vn 0.5878074 -0.05174934 -0.8073441
vn 0.4701481 0.3311779 -0.8180966
vn 0.4701481 0.3311779 -0.8180966
vn 0.4701481 0.3311779 -0.8180966
vn -0.3526889 -0.4206181 -0.8358774
vn -0.3526889 -0.4206181 -0.8358773
vn -0.3634128 -0.3790619 -0.8510249
vn -0.3745546 -0.3687043 -0.8507444
vn -0.3825376 -0.3813925 -0.841549
vn -0.3825377 -0.3813925 -0.841549
vn -0.3745546 -0.3687043 -0.8507444
vn -0.3745546 -0.3687043 -0.8507444
vn -0.3426354 -0.3766366 -0.8606659
vn -0.7690599 -0.3405119 0.5409237
vn -0.7690599 -0.3405119 0.5409237
vn -0.7690599 -0.3405119 0.5409237
vn -0.08602209 -0.9146081 -0.395085
vn -0.08602209 -0.9146081 -0.395085
vn -0.08602209 -0.9146081 -0.395085
vn 0.5878057 -0.05175883 -0.8073447
vn 0.5878057 -0.05175883 -0.8073447
vn 0.5878056 -0.05175882 -0.8073447
vn 0.8793914 0.2516855 0.404135
vn 0.8793914 0.2516856 0.404135
vn 0.8793914 0.2516856 0.404135
vn 0.8788956 0.2544822 0.4034615
vn 0.882095 0.2478121 0.4006215
vn -0.4714257 0.2729872 0.8385916
vn -0.4714257 0.2729872 0.8385916
vn -0.4714257 0.2729872 0.8385916
vn -0.4714248 0.2729948 0.8385895
vn -0.8107314 -0.3787905 0.4463546
vn -0.8107314 -0.3787904 0.4463546
vn -0.8107314 -0.3787905 0.4463546
vn -0.822744 -0.3607523 0.4392609
vn 0.01005294 -0.3993694 0.9167349
vn 0.01005294 -0.3993695 0.9167349
vn 0.01005294 -0.3993695 0.9167349
vn -0.01987768 -0.390615 0.9203395
vn -0.8958431 0.1640972 -0.4129617
vn -0.8958431 0.1640971 -0.4129616
vn -0.8958431 0.1640971 -0.4129617
vn -0.8957613 0.1695648 -0.4109252
vn -0.8948872 0.1716799 -0.4119501
vn 0.8721896 -0.2773841 0.4029184
vn 0.8721896 -0.2773841 0.4029184
vn 0.8721897 -0.2773841 0.4029184
vn 0.8752618 -0.2653752 0.4043424
vn -0.4589525 0.2930104 0.8387535
vn -0.4589525 0.2930104 0.8387535
vn -0.4589525 0.2930105 0.8387535
vn -0.4629675 0.2817087 0.8404173
vn -0.8740811 -0.2915699 -0.3885475
vn -0.8740811 -0.29157 -0.3885475
vn -0.8740811 -0.2915699 -0.3885475
vn -0.8740808 -0.2915706 -0.388548
vn -0.8740808 -0.2915702 -0.388548
vn -0.8740838 -0.2915733 -0.3885387
vn 0.4614116 -0.4181408 -0.782469
vn 0.4614116 -0.4181408 -0.782469
vn 0.4614116 -0.4181408 -0.782469
vn 0.4273575 -0.4265439 -0.797136
vn 0.5878056 -0.0517594 -0.8073448
vn 0.5878056 -0.0517594 -0.8073448
vn 0.5878055 -0.0517594 -0.8073448
vn 0.5878051 -0.05175872 -0.8073452
vn -0.4778336 -0.8658841 -0.1480535
vn -0.4778336 -0.8658841 -0.1480535
vn -0.455613 -0.876722 -0.1541921
vn -0.4778336 -0.8658841 -0.1480535
vn -0.4514951 -0.8831468 -0.1272945
g Stone_09_0
f 3/3/3 2/2/2 1/1/1
f 6/6/6 5/5/5 4/4/4
f 9/9/9 8/8/8 7/7/7
f 12/12/12 11/11/11 10/10/10
f 15/15/15 14/14/14 13/13/13
f 18/18/18 17/17/17 16/16/16
f 21/21/21 20/20/20 19/19/19
f 24/24/24 23/23/23 22/22/22
f 27/27/27 26/26/26 25/25/25
f 30/30/30 29/29/29 28/28/28
f 33/33/33 32/32/32 31/31/31
f 36/36/36 35/35/35 34/34/34
f 39/39/39 38/38/38 37/37/37
f 42/42/42 41/41/41 40/40/40
f 44/44/44 43/43/43 42/42/42
f 45/45/45 43/43/43 44/44/44
f 47/47/47 43/43/43 46/46/46
f 48/48/48 46/46/46 43/43/43
f 51/51/51 50/50/50 49/49/49
f 54/54/54 53/53/53 52/52/52
f 57/57/57 56/56/56 55/55/55
f 60/60/60 59/59/59 58/58/58
f 58/58/58 61/61/61 60/60/60
f 62/62/62 60/60/60 61/61/61
f 65/65/65 64/64/64 63/63/63
f 64/64/64 65/65/65 66/66/66
f 69/69/69 68/68/68 67/67/67
f 67/67/67 68/68/68 70/70/70
f 73/73/73 72/72/72 71/71/71
f 74/74/74 71/71/71 72/72/72
f 77/77/77 76/76/76 75/75/75
f 78/78/78 77/77/77 75/75/75
f 79/79/79 77/77/77 78/78/78
f 82/82/82 81/81/81 80/80/80
f 81/81/81 83/83/83 80/80/80
f 86/86/86 85/85/85 84/84/84
f 84/84/84 85/85/85 87/87/87
f 90/90/90 89/89/89 88/88/88
f 91/91/91 88/88/88 89/89/89
f 91/91/91 92/92/92 88/88/88
f 93/93/93 88/88/88 92/92/92
f 96/96/96 95/95/95 94/94/94
f 94/94/94 95/95/95 97/97/97
f 100/100/100 99/99/99 98/98/98
f 99/99/99 101/101/101 98/98/98
f 104/104/104 103/103/103 102/102/102
f 105/105/105 102/102/102 103/103/103
f 102/102/102 105/105/105 106/106/106
