g Torus001
v 0.09516016 -0.01000174 0
v 0.09100121 -0.02956808 0
v 0.08603984 -0.02795604 0.01946892
v 0.08997206 -0.009456445 0.01946892
v 0.07248516 -0.02355186 0.03372116
v 0.0757979 -0.00796668 0.03372116
v 0.07579788 -0.007966678 -0.03372117
v 0.07248514 -0.02355185 -0.03372117
v 0.08603984 -0.02795604 -0.01946894
v 0.08997205 -0.009456444 -0.01946894
v 0.09100121 -0.02956808 0
v 0.09516016 -0.01000174 0
v 0.09100121 -0.02956808 0
v 0.08286506 -0.04784216 0
v 0.07834728 -0.04523382 0.01946892
v 0.08603984 -0.02795604 0.01946892
v 0.06600448 -0.0381077 0.03372116
v 0.07248516 -0.02355186 0.03372116
v 0.07248514 -0.02355185 -0.03372117
v 0.06600446 -0.03810769 -0.03372117
v 0.07834727 -0.04523382 -0.01946894
v 0.08603984 -0.02795604 -0.01946894
v 0.08286506 -0.04784216 0
v 0.09100121 -0.02956808 0
v 0.07110731 -0.06402532 0
v 0.06723056 -0.06053467 0.01946892
v 0.07834728 -0.04523382 0.01946892
v 0.05663909 -0.05099807 0.03372116
v 0.06600448 -0.0381077 0.03372116
v 0.06600446 -0.03810769 -0.03372117
v 0.05663907 -0.05099805 -0.03372117
v 0.06723055 -0.06053467 -0.01946894
v 0.07834727 -0.04523382 -0.01946894
v 0.07110731 -0.06402532 0
v 0.08286506 -0.04784216 0
v 0.07110731 -0.06402532 0
v 0.05624184 -0.07741025 0
v 0.05317555 -0.07318987 0.01946892
v 0.06723056 -0.06053467 0.01946892
v 0.0447983 -0.06165956 0.03372116
v 0.05663909 -0.05099807 0.03372116
v 0.05663907 -0.05099805 -0.03372117
v 0.04479828 -0.06165954 -0.03372117
v 0.05317554 -0.07318986 -0.01946894
v 0.06723055 -0.06053467 -0.01946894
v 0.05624184 -0.07741025 0
v 0.07110731 -0.06402532 0
v 0.03891832 -0.08741199 0
v 0.0367965 -0.08264631 0.01946892
v 0.05317555 -0.07318987 0.01946892
v 0.0309996 -0.06962625 0.03372116
v 0.0447983 -0.06165956 0.03372116
v 0.04479828 -0.06165954 -0.03372117
v 0.03099959 -0.06962623 -0.03372117
v 0.0367965 -0.0826463 -0.01946894
v 0.05317554 -0.07318986 -0.01946894
v 0.03891832 -0.08741199 0
v 0.05624184 -0.07741025 0
v 0.03891832 -0.08741199 0
v 0.01989389 -0.0935934 0
v 0.01880928 -0.08849071 0.01946892
v 0.0367965 -0.08264631 0.01946892
v 0.01584607 -0.07454992 0.03372116
v 0.0309996 -0.06962625 0.03372116
v 0.03099959 -0.06962623 -0.03372117
v 0.01584607 -0.0745499 -0.03372117
v 0.01880928 -0.0884907 -0.01946894
v 0.0367965 -0.0826463 -0.01946894
v 0.01989389 -0.0935934 0
v 0.03891832 -0.08741199 0
v -4.182495E-09 -0.09568433 0
v -3.954467E-09 -0.09046765 0.01946892
v 0.01880928 -0.08849071 0.01946892
v -3.331482E-09 -0.07621541 0.03372116
v 0.01584607 -0.07454992 0.03372116
v 0.01584607 -0.0745499 -0.03372117
v -3.33148E-09 -0.07621539 -0.03372117
v -3.954467E-09 -0.09046764 -0.01946894
v 0.01880928 -0.0884907 -0.01946894
v -4.182495E-09 -0.09568433 0
v 0.01989389 -0.0935934 0
v -4.182495E-09 -0.09568433 0
v -0.0198939 -0.0935934 0
v -0.01880929 -0.08849071 0.01946892
v -3.954467E-09 -0.09046765 0.01946892
v -0.01584608 -0.07454992 0.03372116
v -3.331482E-09 -0.07621541 0.03372116
v -3.33148E-09 -0.07621539 -0.03372117
v -0.01584608 -0.0745499 -0.03372117
v -0.01880929 -0.0884907 -0.01946894
v -3.954467E-09 -0.09046764 -0.01946894
v -0.0198939 -0.0935934 0
v -4.182495E-09 -0.09568433 0
v -0.03891833 -0.08741198 0
v -0.03679651 -0.0826463 0.01946892
v -0.01880929 -0.08849071 0.01946892
v -0.0309996 -0.06962624 0.03372116
v -0.01584608 -0.07454992 0.03372116
v -0.01584608 -0.0745499 -0.03372117
v -0.0309996 -0.06962623 -0.03372117
v -0.03679651 -0.0826463 -0.01946894
v -0.01880929 -0.0884907 -0.01946894
v -0.03891833 -0.08741198 0
v -0.0198939 -0.0935934 0
v -0.03891833 -0.08741198 0
v -0.05624183 -0.07741025 0
v -0.05317554 -0.07318987 0.01946892
v -0.03679651 -0.0826463 0.01946892
v -0.04479829 -0.06165956 0.03372116
v -0.0309996 -0.06962624 0.03372116
v -0.0309996 -0.06962623 -0.03372117
v -0.04479828 -0.06165954 -0.03372117
v -0.05317554 -0.07318986 -0.01946894
v -0.03679651 -0.0826463 -0.01946894
v -0.05624183 -0.07741025 0
v -0.03891833 -0.08741198 0
v -0.05624183 -0.07741025 0
v -0.07110731 -0.06402532 0
v -0.06723056 -0.06053467 0.01946892
v -0.05317554 -0.07318987 0.01946892
v -0.05317554 -0.07318987 0.01946892
v -0.06723056 -0.06053467 0.01946892
v -0.05663909 -0.05099807 0.03372116
v -0.04479829 -0.06165956 0.03372116
v -0.04479828 -0.06165954 -0.03372117
v -0.05663907 -0.05099805 -0.03372117
v -0.06723055 -0.06053467 -0.01946894
v -0.05317554 -0.07318986 -0.01946894
v -0.05317554 -0.07318986 -0.01946894
v -0.06723055 -0.06053467 -0.01946894
v -0.07110731 -0.06402532 0
v -0.05624183 -0.07741025 0
v -0.07110731 -0.06402532 0
v -0.08286506 -0.04784217 0
v -0.07834728 -0.04523383 0.01946892
v -0.06723056 -0.06053467 0.01946892
v -0.06723056 -0.06053467 0.01946892
v -0.07834728 -0.04523383 0.01946892
v -0.06600448 -0.03810771 0.03372116
v -0.05663909 -0.05099807 0.03372116
v -0.05663907 -0.05099805 -0.03372117
v -0.06600446 -0.0381077 -0.03372117
v -0.07834727 -0.04523382 -0.01946894
v -0.06723055 -0.06053467 -0.01946894
v -0.06723055 -0.06053467 -0.01946894
v -0.07834727 -0.04523382 -0.01946894
v -0.08286506 -0.04784217 0
v -0.07110731 -0.06402532 0
v -0.08286506 -0.04784217 0
v -0.09100121 -0.02956809 0
v -0.08603984 -0.02795604 0.01946892
v -0.07834728 -0.04523383 0.01946892
v -0.07834728 -0.04523383 0.01946892
v -0.08603984 -0.02795604 0.01946892
v -0.07248516 -0.02355186 0.03372116
v -0.06600448 -0.03810771 0.03372116
v -0.06600446 -0.0381077 -0.03372117
v -0.07248514 -0.02355185 -0.03372117
v -0.08603983 -0.02795604 -0.01946894
v -0.07834727 -0.04523382 -0.01946894
v -0.07834727 -0.04523382 -0.01946894
v -0.08603983 -0.02795604 -0.01946894
v -0.09100121 -0.02956809 0
v -0.08286506 -0.04784217 0
v -0.09100121 -0.02956809 0
v -0.09516016 -0.01000174 0
v -0.08997206 -0.009456447 0.01946892
v -0.08603984 -0.02795604 0.01946892
v -0.08603984 -0.02795604 0.01946892
v -0.08997206 -0.009456447 0.01946892
v -0.0757979 -0.007966682 0.03372116
v -0.07248516 -0.02355186 0.03372116
v -0.07248514 -0.02355185 -0.03372117
v -0.07579788 -0.00796668 -0.03372117
v -0.08997205 -0.009456446 -0.01946894
v -0.08603983 -0.02795604 -0.01946894
v -0.08603983 -0.02795604 -0.01946894
v -0.08997205 -0.009456446 -0.01946894
v -0.09516016 -0.01000174 0
v -0.09100121 -0.02956809 0
v -0.09516016 -0.01000174 0
v -0.09516016 0.01000173 0
v -0.08997206 0.009456442 0.01946892
v -0.08997206 -0.009456447 0.01946892
v -0.08997206 -0.009456447 0.01946892
v -0.08997206 0.009456442 0.01946892
v -0.0757979 0.007966678 0.03372116
v -0.0757979 -0.007966682 0.03372116
v -0.07579788 -0.00796668 -0.03372117
v -0.07579788 0.007966675 -0.03372117
v -0.08997205 0.009456441 -0.01946894
v -0.08997205 -0.009456446 -0.01946894
v -0.08997205 -0.009456446 -0.01946894
v -0.08997205 0.009456441 -0.01946894
v -0.09516016 0.01000173 0
v -0.09516016 -0.01000174 0
vt 0.008887053 0.5047675
vt 0.07436877 0.5047675
vt 0.07436877 0.7555478
vt 0.008887053 0.7555478
vt 0.07436872 0.9943835
vt 0.008886993 0.9943835
vt 0.008887112 0.009479046
vt 0.07436883 0.009479046
vt 0.07436877 0.3163823
vt 0.008887053 0.3163823
vt 0.07436877 0.5047675
vt 0.008887053 0.5047675
vt 0.07436877 0.5047675
vt 0.1398504 0.5047675
vt 0.1398504 0.7555478
vt 0.07436877 0.7555478
vt 0.1398504 0.9943835
vt 0.07436872 0.9943835
vt 0.07436883 0.009479046
vt 0.1398505 0.009479046
vt 0.1398504 0.3163823
vt 0.07436877 0.3163823
vt 0.1398504 0.5047675
vt 0.07436877 0.5047675
vt 0.2053322 0.5047675
vt 0.2053322 0.7555478
vt 0.1398504 0.7555478
vt 0.2053321 0.9943835
vt 0.1398504 0.9943835
vt 0.1398505 0.009479046
vt 0.2053322 0.009479046
vt 0.2053322 0.3163823
vt 0.1398504 0.3163823
vt 0.2053322 0.5047675
vt 0.1398504 0.5047675
vt 0.2053322 0.5047675
vt 0.2708138 0.5047675
vt 0.2708138 0.7555478
vt 0.2053322 0.7555478
vt 0.2708138 0.9943835
vt 0.2053321 0.9943835
vt 0.2053322 0.009479046
vt 0.2708139 0.009479046
vt 0.2708138 0.3163823
vt 0.2053322 0.3163823
vt 0.2708138 0.5047675
vt 0.2053322 0.5047675
vt 0.3362956 0.5047676
vt 0.3362956 0.755548
vt 0.2708138 0.7555478
vt 0.3362955 0.9943837
vt 0.2708138 0.9943835
vt 0.2708139 0.009479046
vt 0.3362957 0.009479165
vt 0.3362956 0.3163825
vt 0.2708138 0.3163823
vt 0.3362956 0.5047676
vt 0.2708138 0.5047675
vt 0.3362956 0.5047676
vt 0.4017773 0.5047677
vt 0.4017773 0.755548
vt 0.3362956 0.755548
vt 0.4017772 0.9943837
vt 0.3362955 0.9943837
vt 0.3362957 0.009479165
vt 0.4017773 0.009479165
vt 0.4017773 0.3163825
vt 0.3362956 0.3163825
vt 0.4017773 0.5047677
vt 0.3362956 0.5047676
vt 0.4672589 0.5047677
vt 0.4672589 0.755548
vt 0.4017773 0.755548
vt 0.4672589 0.9943837
vt 0.4017772 0.9943837
vt 0.4017773 0.009479165
vt 0.467259 0.009479165
vt 0.4672589 0.3163825
vt 0.4017773 0.3163825
vt 0.4672589 0.5047677
vt 0.4017773 0.5047677
vt 0.4672589 0.5047677
vt 0.5327407 0.5047677
vt 0.5327407 0.755548
vt 0.4672589 0.755548
vt 0.5327407 0.9943837
vt 0.4672589 0.9943837
vt 0.467259 0.009479165
vt 0.5327408 0.009479165
vt 0.5327407 0.3163825
vt 0.4672589 0.3163825
vt 0.5327407 0.5047677
vt 0.4672589 0.5047677
vt 0.5982224 0.5047677
vt 0.5982224 0.755548
vt 0.5327407 0.755548
vt 0.5982224 0.9943837
vt 0.5327407 0.9943837
vt 0.5327408 0.009479165
vt 0.5982225 0.009479165
vt 0.5982224 0.3163825
vt 0.5327407 0.3163825
vt 0.5982224 0.5047677
vt 0.5327407 0.5047677
vt 0.5982224 0.5047677
vt 0.6637041 0.5047677
vt 0.6637041 0.755548
vt 0.5982224 0.755548
vt 0.663704 0.9943839
vt 0.5982224 0.9943837
vt 0.5982225 0.009479165
vt 0.6637042 0.009479254
vt 0.6637041 0.3163826
vt 0.5982224 0.3163825
vt 0.6637041 0.5047677
vt 0.5982224 0.5047677
vt 0.6637041 0.5047677
vt 0.7291858 0.5047677
vt 0.7291858 0.755548
vt 0.6637041 0.755548
vt 0.6637041 0.755548
vt 0.7291858 0.755548
vt 0.7291857 0.9943839
vt 0.663704 0.9943839
vt 0.6637042 0.009479254
vt 0.7291858 0.009479493
vt 0.7291858 0.3163828
vt 0.6637041 0.3163826
vt 0.6637041 0.3163826
vt 0.7291858 0.3163828
vt 0.7291858 0.5047677
vt 0.6637041 0.5047677
vt 0.7291858 0.5047677
vt 0.7946675 0.5047677
vt 0.7946675 0.755548
vt 0.7291858 0.755548
vt 0.7291858 0.755548
vt 0.7946675 0.755548
vt 0.7946675 0.9943839
vt 0.7291857 0.9943839
vt 0.7291858 0.009479493
vt 0.7946676 0.009479493
vt 0.7946675 0.3163828
vt 0.7291858 0.3163828
vt 0.7291858 0.3163828
vt 0.7946675 0.3163828
vt 0.7946675 0.5047677
vt 0.7291858 0.5047677
vt 0.7946675 0.5047677
vt 0.8601492 0.5047677
vt 0.8601492 0.755548
vt 0.7946675 0.755548
vt 0.7946675 0.755548
vt 0.8601492 0.755548
vt 0.8601492 0.9943839
vt 0.7946675 0.9943839
vt 0.7946676 0.009479493
vt 0.8601493 0.009479493
vt 0.8601492 0.3163828
vt 0.7946675 0.3163828
vt 0.7946675 0.3163828
vt 0.8601492 0.3163828
vt 0.8601492 0.5047677
vt 0.7946675 0.5047677
vt 0.8601492 0.5047677
vt 0.925631 0.5047677
vt 0.925631 0.755548
vt 0.8601492 0.755548
vt 0.8601492 0.755548
vt 0.925631 0.755548
vt 0.925631 0.9943839
vt 0.8601492 0.9943839
vt 0.8601493 0.009479493
vt 0.925631 0.009479493
vt 0.925631 0.3163828
vt 0.8601492 0.3163828
vt 0.8601492 0.3163828
vt 0.925631 0.3163828
vt 0.925631 0.5047677
vt 0.8601492 0.5047677
vt 0.925631 0.5047677
vt 0.9911125 0.5047677
vt 0.9911125 0.755548
vt 0.925631 0.755548
vt 0.925631 0.755548
vt 0.9911125 0.755548
vt 0.9911125 0.9943839
vt 0.925631 0.9943839
vt 0.925631 0.009479493
vt 0.9911126 0.009479493
vt 0.9911125 0.3163828
vt 0.925631 0.3163828
vt 0.925631 0.3163828
vt 0.9911125 0.3163828
vt 0.9911125 0.5047677
vt 0.925631 0.5047677
vn 0.9781477 -0.2079116 3.995797E-08
vn 0.9510565 -0.309017 3.515582E-08
vn 0.8276188 -0.2689097 0.4926813
vn 0.8523247 -0.1811673 0.4906333
vn 0.4876222 -0.1584381 0.8585581
vn 0.5035442 -0.1070317 0.8573142
vn 0.9510565 -0.309017 3.515582E-08
vn 0.8660253 -0.5000001 -1.004452E-08
vn 0.7536238 -0.435105 0.4926813
vn 0.8276188 -0.2689097 0.4926813
vn 0.4440253 -0.2563581 0.8585581
vn 0.4876222 -0.1584381 0.8585581
vn 0.4876216 -0.158438 -0.8585585
vn 0.4440248 -0.2563579 -0.8585585
vn 0.7536235 -0.4351048 -0.4926818
vn 0.8276185 -0.2689096 -0.4926818
vn 0.8660253 -0.5000001 -1.004452E-08
vn 0.9510565 -0.309017 3.515582E-08
vn 0.4440248 -0.2563579 -0.8585585
vn 0.3810221 -0.3430738 -0.8585585
vn 0.6466917 -0.5822839 -0.4926817
vn 0.7536235 -0.4351048 -0.4926818
vn 0.7431449 -0.6691306 -7.533389E-08
vn 0.8660253 -0.5000001 -1.004452E-08
vn 0.5877854 -0.809017 -5.524486E-08
vn 0.5114965 -0.7040145 0.4926813
vn 0.646692 -0.582284 0.4926813
vn 0.3013671 -0.4147962 0.8585581
vn 0.3810225 -0.3430741 0.8585581
vn 0.5877854 -0.809017 -5.524486E-08
vn 0.4067366 -0.9135454 -3.013356E-08
vn 0.3539461 -0.7949762 0.4926814
vn 0.5114965 -0.7040145 0.4926813
vn 0.2085405 -0.4683897 0.8585581
vn 0.3013671 -0.4147962 0.8585581
vn 0.3013668 -0.4147958 -0.8585585
vn 0.2085402 -0.4683891 -0.8585585
vn 0.3539461 -0.794976 -0.4926818
vn 0.5114963 -0.7040143 -0.4926818
vn 0.4067366 -0.9135454 -3.013356E-08
vn 0.5877854 -0.809017 -5.524486E-08
vn 0.2085402 -0.4683891 -0.8585585
vn 0.1065996 -0.5015116 -0.8585585
vn 0.1809266 -0.8511934 -0.4926818
vn 0.3539461 -0.794976 -0.4926818
vn 0.2079116 -0.9781477 -2.51113E-08
vn 0.4067366 -0.9135454 -3.013356E-08
vn -9.542292E-08 -1 -3.013356E-08
vn -4.379077E-08 -0.8702099 0.4926813
vn 0.1809267 -0.8511937 0.4926814
vn 0 -0.5127164 0.858558
vn 0.1065997 -0.5015123 0.858558
vn -9.542292E-08 -1 -3.013356E-08
vn -0.2079117 -0.9781476 -4.520033E-08
vn -0.1809268 -0.8511937 0.4926813
vn -4.379077E-08 -0.8702099 0.4926813
vn -0.1065998 -0.5015122 0.858558
vn 0 -0.5127164 0.858558
vn 0 -0.5127157 -0.8585585
vn -0.1065996 -0.5015118 -0.8585585
vn -0.1809268 -0.8511934 -0.4926817
vn -5.254893E-08 -0.8702096 -0.4926818
vn -0.2079117 -0.9781476 -4.520033E-08
vn -9.542292E-08 -1 -3.013356E-08
vn -0.1065996 -0.5015118 -0.8585585
vn -0.2085404 -0.4683892 -0.8585585
vn -0.3539462 -0.794976 -0.4926817
vn -0.1809268 -0.8511934 -0.4926817
vn -0.4067366 -0.9135454 -5.022259E-08
vn -0.2079117 -0.9781476 -4.520033E-08
vn -0.5877853 -0.809017 -7.031163E-08
vn -0.5114965 -0.7040145 0.4926813
vn -0.3539463 -0.7949762 0.4926813
vn -0.3013671 -0.4147962 0.8585581
vn -0.2085405 -0.4683896 0.8585581
vn -0.5877853 -0.809017 -7.031163E-08
vn -0.7431448 -0.6691306 -7.533389E-08
vn -0.6466919 -0.5822841 0.4926813
vn -0.5114965 -0.7040145 0.4926813
vn -0.3810225 -0.3430742 0.8585581
vn -0.3013671 -0.4147962 0.8585581
vn -0.3013668 -0.4147958 -0.8585585
vn -0.3810221 -0.3430739 -0.8585585
vn -0.6466917 -0.5822839 -0.4926817
vn -0.5114964 -0.7040143 -0.4926817
vn -0.7431448 -0.6691306 -7.533389E-08
vn -0.5877853 -0.809017 -7.031163E-08
vn -0.3810221 -0.3430739 -0.8585585
vn -0.4440249 -0.2563579 -0.8585585
vn -0.7536235 -0.4351048 -0.4926818
vn -0.6466917 -0.5822839 -0.4926817
vn -0.8660254 -0.5 -6.528938E-08
vn -0.7431448 -0.6691306 -7.533389E-08
vn -0.9510565 -0.309017 -5.524485E-08
vn -0.8276188 -0.2689097 0.4926813
vn -0.7536238 -0.435105 0.4926813
vn -0.4876222 -0.1584381 0.8585581
vn -0.4440253 -0.2563581 0.8585581
vn -0.9510565 -0.309017 -5.524485E-08
vn -0.9945219 -0.1045285 -5.022259E-08
vn -0.8654428 -0.09096178 0.4926813
vn -0.8276188 -0.2689097 0.4926813
vn -0.5099076 -0.05359352 0.858558
vn -0.4876222 -0.1584381 0.8585581
vn -0.4876216 -0.158438 -0.8585585
vn -0.5099071 -0.05359346 -0.8585585
vn -0.8654425 -0.09096175 -0.4926817
vn -0.8276184 -0.2689096 -0.4926817
vn -0.9945219 -0.1045285 -5.022259E-08
vn -0.9510565 -0.309017 -5.524485E-08
vn -0.5099071 -0.05359346 -0.8585585
vn -0.514793 0 -0.8573145
vn -0.8713659 0 -0.4906337
vn -0.8654425 -0.09096175 -0.4926817
vn -1 0 -3.995797E-08
vn -0.9945219 -0.1045285 -5.022259E-08
vn -0.6465672 -0.7180857 0.2574954
vn -0.6465672 -0.7180857 0.2574954
vn -0.6465672 -0.7180858 0.2574954
vn -0.6465672 -0.7180857 0.2574954
vn -0.4744445 -0.5269241 0.7051619
vn -0.4744445 -0.5269241 0.7051619
vn -0.4744445 -0.526924 0.7051619
vn -0.4744445 -0.526924 0.7051619
vn -0.4744441 -0.5269237 -0.7051626
vn -0.4744441 -0.5269237 -0.7051626
vn -0.4744441 -0.5269237 -0.7051626
vn -0.4744441 -0.5269237 -0.7051626
vn -0.6465672 -0.7180856 -0.2574956
vn -0.6465672 -0.7180856 -0.2574956
vn -0.6465672 -0.7180855 -0.2574955
vn -0.6465672 -0.7180856 -0.2574956
vn -0.7817364 -0.567965 0.2574956
vn -0.7817364 -0.567965 0.2574956
vn -0.7817364 -0.567965 0.2574956
vn -0.7817364 -0.567965 0.2574956
vn -0.5736305 -0.416767 0.7051619
vn -0.5736305 -0.416767 0.7051619
vn -0.5736305 -0.416767 0.7051619
vn -0.5736305 -0.416767 0.7051619
vn -0.57363 -0.4167666 -0.7051626
vn -0.57363 -0.4167666 -0.7051626
vn -0.57363 -0.4167666 -0.7051626
vn -0.57363 -0.4167666 -0.7051626
vn -0.7817364 -0.567965 -0.2574957
vn -0.7817364 -0.567965 -0.2574957
vn -0.7817364 -0.567965 -0.2574957
vn -0.7817364 -0.567965 -0.2574957
vn -0.8827402 -0.3930211 0.2574956
vn -0.8827402 -0.3930211 0.2574955
vn -0.8827402 -0.3930211 0.2574955
vn -0.8827402 -0.3930211 0.2574955
vn -0.647746 -0.2883952 0.7051618
vn -0.647746 -0.2883952 0.7051618
vn -0.647746 -0.2883952 0.7051619
vn -0.647746 -0.2883952 0.7051619
vn -0.6477453 -0.2883949 -0.7051626
vn -0.6477454 -0.2883949 -0.7051626
vn -0.6477454 -0.2883949 -0.7051626
vn -0.6477453 -0.2883949 -0.7051626
vn -0.8827402 -0.3930211 -0.2574956
vn -0.8827402 -0.3930212 -0.2574956
vn -0.8827402 -0.3930212 -0.2574956
vn -0.8827402 -0.3930211 -0.2574956
vn -0.945164 -0.2009009 0.2574954
vn -0.945164 -0.2009009 0.2574954
vn -0.945164 -0.2009009 0.2574954
vn -0.945164 -0.2009009 0.2574954
vn -0.693552 -0.1474192 0.7051618
vn -0.693552 -0.1474192 0.7051618
vn -0.693552 -0.1474192 0.7051618
vn -0.693552 -0.1474192 0.7051618
vn -0.6935512 -0.147419 -0.7051626
vn -0.6935512 -0.1474191 -0.7051626
vn -0.6935512 -0.1474191 -0.7051626
vn -0.6935513 -0.147419 -0.7051626
vn -0.945164 -0.2009009 -0.2574955
vn -0.945164 -0.2009009 -0.2574955
vn -0.945164 -0.2009009 -0.2574955
vn -0.945164 -0.2009009 -0.2574955
vn -0.9662796 0 0.2574954
vn -0.9662796 0 0.2574954
vn -0.9662796 0 0.2574954
vn -0.9662796 0 0.2574954
vn -0.7090465 0 0.7051617
vn -0.7090464 0 0.7051617
vn -0.7090464 0 0.7051617
vn -0.7090464 0 0.7051617
vn -0.7090457 0 -0.7051625
vn -0.7090457 0 -0.7051625
vn -0.7090457 0 -0.7051625
vn -0.7090457 0 -0.7051625
vn -0.9662796 0 -0.2574955
vn -0.9662796 0 -0.2574955
vn -0.9662796 0 -0.2574955
vn -0.9662796 0 -0.2574955
g Torus001_0
f 3/3/3 2/2/2 1/1/1
f 4/4/4 3/3/3 1/1/1
f 5/5/5 3/3/3 4/4/4
f 6/6/6 5/5/5 4/4/4
f 9/9/9 8/8/8 7/7/7
f 10/10/10 9/9/9 7/7/7
f 11/11/11 9/9/9 10/10/10
f 12/12/12 11/11/11 10/10/10
f 15/15/15 14/14/14 13/13/13
f 16/16/16 15/15/15 13/13/13
f 17/17/17 15/15/15 16/16/16
f 18/18/18 17/17/17 16/16/16
f 21/21/21 20/20/20 19/19/19
f 22/22/22 21/21/21 19/19/19
f 23/23/23 21/21/21 22/22/22
f 24/24/24 23/23/23 22/22/22
f 26/26/26 25/25/25 23/23/23
f 27/27/27 26/26/26 23/23/23
f 28/28/28 26/26/26 27/27/27
f 29/29/29 28/28/28 27/27/27
f 32/32/32 31/31/31 30/30/30
f 33/33/33 32/32/32 30/30/30
f 34/34/34 32/32/32 33/33/33
f 35/35/35 34/34/34 33/33/33
f 38/38/38 37/37/37 36/36/36
f 39/39/39 38/38/38 36/36/36
f 40/40/40 38/38/38 39/39/39
f 41/41/41 40/40/40 39/39/39
f 44/44/44 43/43/43 42/42/42
f 45/45/45 44/44/44 42/42/42
f 46/46/46 44/44/44 45/45/45
f 47/47/47 46/46/46 45/45/45
f 49/49/49 48/48/48 46/46/46
f 50/50/50 49/49/49 46/46/46
f 51/51/51 49/49/49 50/50/50
f 52/52/52 51/51/51 50/50/50
f 55/55/55 54/54/54 53/53/53
f 56/56/56 55/55/55 53/53/53
f 57/57/57 55/55/55 56/56/56
f 58/58/58 57/57/57 56/56/56
f 61/61/61 60/60/60 59/59/59
f 62/62/62 61/61/61 59/59/59
f 63/63/63 61/61/61 62/62/62
f 64/64/64 63/63/63 62/62/62
f 67/67/67 66/66/66 65/65/65
f 68/68/68 67/67/67 65/65/65
f 69/69/69 67/67/67 68/68/68
f 70/70/70 69/69/69 68/68/68
f 72/72/72 71/71/71 69/69/69
f 73/73/73 72/72/72 69/69/69
f 74/74/74 72/72/72 73/73/73
f 75/75/75 74/74/74 73/73/73
f 78/78/78 77/77/77 76/76/76
f 79/79/79 78/78/78 76/76/76
f 80/80/80 78/78/78 79/79/79
f 81/81/81 80/80/80 79/79/79
f 84/84/84 83/83/83 82/82/82
f 85/85/85 84/84/84 82/82/82
f 86/86/86 84/84/84 85/85/85
f 87/87/87 86/86/86 85/85/85
f 90/90/90 89/89/89 88/88/88
f 91/91/91 90/90/90 88/88/88
f 92/92/92 90/90/90 91/91/91
f 93/93/93 92/92/92 91/91/91
f 95/95/95 94/94/94 92/92/92
f 96/96/96 95/95/95 92/92/92
f 97/97/97 95/95/95 96/96/96
f 98/98/98 97/97/97 96/96/96
f 101/101/101 100/100/100 99/99/99
f 102/102/102 101/101/101 99/99/99
f 103/103/103 101/101/101 102/102/102
f 104/104/104 103/103/103 102/102/102
f 107/107/107 106/106/106 105/105/105
f 108/108/108 107/107/107 105/105/105
f 109/109/109 107/107/107 108/108/108
f 110/110/110 109/109/109 108/108/108
f 113/113/113 112/112/112 111/111/111
f 114/114/114 113/113/113 111/111/111
f 115/115/115 113/113/113 114/114/114
f 116/116/116 115/115/115 114/114/114
f 119/119/119 118/118/118 117/117/117
f 120/120/120 119/119/119 117/117/117
f 123/123/123 122/122/122 121/121/121
f 124/124/124 123/123/123 121/121/121
f 127/127/127 126/126/126 125/125/125
f 128/128/128 127/127/127 125/125/125
f 131/131/131 130/130/130 129/129/129
f 132/132/132 131/131/131 129/129/129
f 135/135/135 134/134/134 133/133/133
f 136/136/136 135/135/135 133/133/133
f 139/139/139 138/138/138 137/137/137
f 140/140/140 139/139/139 137/137/137
f 143/143/143 142/142/142 141/141/141
f 144/144/144 143/143/143 141/141/141
f 147/147/147 146/146/146 145/145/145
f 148/148/148 147/147/147 145/145/145
f 151/151/151 150/150/150 149/149/149
f 152/152/152 151/151/151 149/149/149
f 155/155/155 154/154/154 153/153/153
f 156/156/156 155/155/155 153/153/153
f 159/159/159 158/158/158 157/157/157
f 160/160/160 159/159/159 157/157/157
f 163/163/163 162/162/162 161/161/161
f 164/164/164 163/163/163 161/161/161
f 167/167/167 166/166/166 165/165/165
f 168/168/168 167/167/167 165/165/165
f 171/171/171 170/170/170 169/169/169
f 172/172/172 171/171/171 169/169/169
f 175/175/175 174/174/174 173/173/173
f 176/176/176 175/175/175 173/173/173
f 179/179/179 178/178/178 177/177/177
f 180/180/180 179/179/179 177/177/177
f 183/183/183 182/182/182 181/181/181
f 184/184/184 183/183/183 181/181/181
f 187/187/187 186/186/186 185/185/185
f 188/188/188 187/187/187 185/185/185
f 191/191/191 190/190/190 189/189/189
f 192/192/192 191/191/191 189/189/189
f 195/195/195 194/194/194 193/193/193
f 196/196/196 195/195/195 193/193/193
