g Tube001
v 0.00445649 0.05690988 -1.267183E-06
v 0.00530236 0.01701496 -1.271725E-06
v -0.0008043899 0.0181785 -1.270211E-06
v 0.01668005 0.05368812 -1.267183E-06
v 0.009940656 0.01512485 -1.270211E-06
v 0.0274081 0.04952192 -1.265669E-06
v 0.01534162 0.01213404 -1.267183E-06
v 0.03824844 0.0443294 -1.267183E-06
v 0.01928591 0.0080518 -1.265669E-06
v 0.04455467 0.03365184 -1.265669E-06
v 0.02183532 0.004036342 -1.268697E-06
v 0.04725958 0.01895897 -1.267183E-06
v 0.02345234 -0.0003207254 -1.267183E-06
v 0.04598006 0.003006094 -1.265669E-06
v 0.02421554 -0.004804563 -1.265669E-06
v 0.04504174 -0.008735863 -1.265669E-06
v 0.02254904 -0.01075447 -1.265669E-06
v 0.04262902 -0.02175279 -1.265669E-06
v 0.01920183 -0.01602883 -1.265669E-06
v 0.04219326 -0.04232025 -1.264155E-06
v 0.0146481 -0.02030507 -1.265669E-06
v 0.03318364 -0.0563059 -1.264155E-06
v 0.009173973 -0.0233145 -1.265669E-06
v 0.01803003 -0.06640156 -1.264155E-06
v 0.003123412 -0.02486802 -1.265669E-06
v 0.00386572 -0.07237519 -1.262641E-06
v -0.003123405 -0.02486802 -1.265669E-06
v -0.01335657 -0.06948134 -1.262641E-06
v -0.009173967 -0.0233145 -1.265669E-06
v -0.02949799 -0.06352988 -1.262641E-06
v -0.0146481 -0.02030507 -1.265669E-06
v -0.04334693 -0.05637413 -1.264155E-06
v -0.01920183 -0.01602883 -1.265669E-06
v -0.05615764 -0.04175574 -1.264155E-06
v -0.02254905 -0.01072986 -1.265669E-06
v -0.06721286 -0.02136452 -1.265669E-06
v -0.02462816 -0.005073113 -1.265669E-06
v -0.07234537 -0.004434734 -1.267183E-06
v -0.02543514 -0.0008808862 -1.265669E-06
v -0.07050356 0.01269072 -1.265669E-06
v -0.02530302 0.003615508 -1.268697E-06
v -0.06779716 0.02396581 -1.265669E-06
v -0.02377986 0.007566188 -1.265669E-06
v -0.05469656 0.03612274 -1.264155E-06
v -0.01985924 0.0125796 -1.265669E-06
v -0.03951285 0.04881266 -1.265669E-06
v -0.01258991 0.01638611 -1.271725E-06
v -0.02744955 0.05444905 -1.267183E-06
v -0.006295626 0.01797266 -1.270211E-06
v -0.01521407 0.05720052 -1.267183E-06
v -0.0008043899 0.0181785 -1.270211E-06
v 0.00445649 0.05690988 -1.267183E-06
vt 0.25 0
vt 0.5 0.04
vt 0.5 0
vt 0.25 0.04
vt 0.5 0.08
vt 0.25 0.08
vt 0.5 0.12
vt 0.25 0.12
vt 0.5 0.16
vt 0.25 0.16
vt 0.5 0.2
vt 0.25 0.2
vt 0.5 0.24
vt 0.25 0.24
vt 0.5 0.28
vt 0.25 0.28
vt 0.5 0.32
vt 0.25 0.32
vt 0.5 0.36
vt 0.25 0.36
vt 0.5 0.4
vt 0.25 0.4
vt 0.5 0.44
vt 0.25 0.44
vt 0.5 0.48
vt 0.25 0.48
vt 0.5 0.52
vt 0.25 0.52
vt 0.5 0.56
vt 0.25 0.56
vt 0.5 0.6
vt 0.25 0.6
vt 0.5 0.64
vt 0.25 0.64
vt 0.5 0.68
vt 0.25 0.68
vt 0.5 0.72
vt 0.25 0.72
vt 0.5 0.76
vt 0.25 0.76
vt 0.5 0.8
vt 0.25 0.8
vt 0.5 0.84
vt 0.25 0.84
vt 0.5 0.88
vt 0.25 0.88
vt 0.5 0.92
vt 0.25 0.92
vt 0.5 0.96
vt 0.25 0.96
vt 0.5 1
vt 0.25 1
vn 0 0 1
vn 0 0 1
vn 0 0 1
vn 0 0 1
vn 0 0 1
vn 0 0 1
vn 0 0 1
vn 0 0 1
vn 0 0 1
vn 0 0 1
vn 0 0 1
vn 0 0 1
vn 0 0 1
vn 0 0 1
vn 0 0 1
vn 0 0 1
vn 0 0 1
vn 0 0 1
vn 0 0 1
vn 0 0 1
vn 0 0 1
vn 0 0 1
vn 0 0 1
vn 0 0 1
vn 0 0 1
vn 0 0 1
vn 0 0 1
vn 0 0 1
vn 0 0 1
vn 0 0 1
vn 0 0 1
vn 0 0 1
vn 0 0 1
vn 0 0 1
vn 0 0 1
vn 0 0 1
vn 0 0 1
vn 0 0 1
vn 0 0 1
vn 0 0 1
vn 0 0 1
vn 0 0 1
vn 0 0 1
vn 0 0 1
vn 0 0 1
vn 0 0 1
vn 0 0 1
vn 0 0 1
vn 0 0 1
vn 0 0 1
vn 0 0 1
vn 0 0 1
g Tube001_0
f 3/3/3 2/2/2 1/1/1
f 2/2/2 4/4/4 1/1/1
f 2/2/2 5/5/5 4/4/4
f 5/5/5 6/6/6 4/4/4
f 5/5/5 7/7/7 6/6/6
f 7/7/7 8/8/8 6/6/6
f 7/7/7 9/9/9 8/8/8
f 9/9/9 10/10/10 8/8/8
f 9/9/9 11/11/11 10/10/10
f 11/11/11 12/12/12 10/10/10
f 11/11/11 13/13/13 12/12/12
f 13/13/13 14/14/14 12/12/12
f 13/13/13 15/15/15 14/14/14
f 15/15/15 16/16/16 14/14/14
f 15/15/15 17/17/17 16/16/16
f 17/17/17 18/18/18 16/16/16
f 17/17/17 19/19/19 18/18/18
f 19/19/19 20/20/20 18/18/18
f 19/19/19 21/21/21 20/20/20
f 21/21/21 22/22/22 20/20/20
f 21/21/21 23/23/23 22/22/22
f 23/23/23 24/24/24 22/22/22
f 23/23/23 25/25/25 24/24/24
f 25/25/25 26/26/26 24/24/24
f 25/25/25 27/27/27 26/26/26
f 27/27/27 28/28/28 26/26/26
f 27/27/27 29/29/29 28/28/28
f 29/29/29 30/30/30 28/28/28
f 29/29/29 31/31/31 30/30/30
f 31/31/31 32/32/32 30/30/30
f 31/31/31 33/33/33 32/32/32
f 33/33/33 34/34/34 32/32/32
f 33/33/33 35/35/35 34/34/34
f 35/35/35 36/36/36 34/34/34
f 35/35/35 37/37/37 36/36/36
f 37/37/37 38/38/38 36/36/36
f 37/37/37 39/39/39 38/38/38
f 39/39/39 40/40/40 38/38/38
f 39/39/39 41/41/41 40/40/40
f 41/41/41 42/42/42 40/40/40
f 41/41/41 43/43/43 42/42/42
f 43/43/43 44/44/44 42/42/42
f 43/43/43 45/45/45 44/44/44
f 45/45/45 46/46/46 44/44/44
f 45/45/45 47/47/47 46/46/46
f 47/47/47 48/48/48 46/46/46
f 47/47/47 49/49/49 48/48/48
f 49/49/49 50/50/50 48/48/48
f 49/49/49 51/51/51 50/50/50
f 51/51/51 52/52/52 50/50/50
