g UptownBuildingParts.001
v 0.07000002 0.01000002 0.06
v 0.07000001 -0.009999989 0.06
v 0.07000001 -0.009999989 0.08
v 0.07000002 1.10467E-08 0.09
v 0.07000002 0.01000002 0.08
v -9.536743E-09 -9.536743E-09 0.09
v -1.756353E-08 -0.009999999 0.08
v -1.756353E-08 -0.009999999 0.06
v -1.509958E-09 0.009999988 0.06
v -1.509958E-09 0.009999988 0.08
v 0.07000002 0.01000002 0.06
v -1.509958E-09 0.009999988 0.06
v -1.756353E-08 -0.009999999 0.06
v 0.07000001 -0.009999989 0.06
v 0.07000001 -0.009999989 0.06
v -1.756353E-08 -0.009999999 0.06
v -1.756353E-08 -0.009999999 0.08
v 0.07000001 -0.009999989 0.08
v 0.07000002 1.10467E-08 0.09
v 0.07000001 -0.009999989 0.08
v -1.756353E-08 -0.009999999 0.08
v -9.536743E-09 -9.536743E-09 0.09
v -1.509958E-09 0.009999988 0.06
v 0.07000002 0.01000002 0.06
v 0.07000002 0.01000002 0.08
v -1.509958E-09 0.009999988 0.08
v 0.07000002 0.01000002 0.08
v 0.07000002 1.10467E-08 0.09
v -9.536743E-09 -9.536743E-09 0.09
v -1.509958E-09 0.009999988 0.08
vt 0.375 0.5
vt 0.375 0.75
vt 0.625 0.75
vt 0.625 0.625
vt 0.625 0.5
vt 0.75 0.625
vt 0.5416666 0.875
vt 0.375 0.875
vt 0.375 0.375
vt 0.75 0.5
vt 0.375 0.5
vt 0.375 0.375
vt 0.375 0.875
vt 0.375 0.75
vt 0.375 0.75
vt 0.375 0.875
vt 0.5416666 0.875
vt 0.625 0.75
vt 0.625 0.625
vt 0.625 0.75
vt 0.75 0.75
vt 0.75 0.625
vt 0.375 0.375
vt 0.375 0.5
vt 0.625 0.5
vt 0.625 0.375
vt 0.625 0.5
vt 0.625 0.625
vt 0.75 0.625
vt 0.75 0.5
vn 1 -3.814696E-07 0
vn 1 -3.814696E-07 0
vn 1 -3.814696E-07 0
vn 1 -3.814696E-07 0
vn 1 -3.814696E-07 0
vn -1 8.026792E-07 0
vn -1 8.026792E-07 0
vn -1 8.026792E-07 0
vn -1 8.026792E-07 0
vn -1 8.026792E-07 0
vn 0 0 -1
vn 0 0 -1
vn 0 0 -1
vn 0 0 -1
vn 1.362391E-07 -1 0
vn 1.362391E-07 -1 0
vn 1.362391E-07 -1 0
vn 1.362391E-07 -1 0
vn 0 -0.7071069 0.7071066
vn 0 -0.7071069 0.7071066
vn 0 -0.7071069 0.7071066
vn 0 -0.7071069 0.7071066
vn -4.427772E-07 1 0
vn -4.427772E-07 1 0
vn -4.427772E-07 1 0
vn -4.427772E-07 1 0
vn -2.336114E-07 0.7071066 0.7071069
vn -2.336114E-07 0.7071066 0.7071069
vn -2.336114E-07 0.7071066 0.7071069
vn -2.336114E-07 0.7071066 0.7071069
g UptownBuildingParts.001_0
f 3/3/3 2/2/2 1/1/1
f 1/1/1 4/4/4 3/3/3
f 1/1/1 5/5/5 4/4/4
f 8/8/8 7/7/7 6/6/6
f 6/6/6 9/9/9 8/8/8
f 6/6/6 10/10/10 9/9/9
f 13/13/13 12/12/12 11/11/11
f 14/14/14 13/13/13 11/11/11
g UptownBuildingParts.001_1
f 17/17/17 16/16/16 15/15/15
f 18/18/18 17/17/17 15/15/15
f 21/21/21 20/20/20 19/19/19
f 22/22/22 21/21/21 19/19/19
f 25/25/25 24/24/24 23/23/23
f 26/26/26 25/25/25 23/23/23
f 29/29/29 28/28/28 27/27/27
f 30/30/30 29/29/29 27/27/27
