g wall01.016
v 6.40621E-07 0 0.9088302
v 4.896229E-07 0 -9.89115
v 4.896229E-07 6 -9.89115
v 6.40621E-07 6 0.9088302
v 4.896229E-07 0 -9.89115
v 1 0 -9.89115
v 1 6 -9.89115
v 0.5000004 6 -9.89115
v 4.896229E-07 6 -9.89115
v 1 0 -9.89115
v 1.000001 0 0.9088302
v 1.000001 6 0.9088302
v 1 6 -9.89115
v 0.5000007 6 0.9088302
v 1.000001 6 0.9088302
v 1.000001 0 0.9088302
v 6.40621E-07 0 0.9088302
v 6.40621E-07 6 0.9088302
v 4.896229E-07 0 -9.89115
v 6.40621E-07 0 0.9088302
v 1.000001 0 0.9088302
v 1 0 -9.89115
v 0.5000007 6 0.9088302
v 0.5000007 7 0.9088302
v 0.5000004 7 -9.89115
v 0.5000004 6 -9.89115
v 1 6 -9.89115
v 1.000001 6 0.9088302
v 0.5000007 6 0.9088302
v 0.5000004 6 -9.89115
v 0.2500005 7.176791 -9.89115
v 0.2500006 7.176791 0.9088302
v 6.40621E-07 7 0.9088302
v 4.896229E-07 7 -9.89115
v 4.896229E-07 6 -9.89115
v 0.5000004 6 -9.89115
v 0.5000004 7 -9.89115
v 0.2500005 7.176791 -9.89115
v 4.896229E-07 7 -9.89115
v 4.896229E-07 6 -9.89115
v 4.896229E-07 7 -9.89115
v 6.40621E-07 7 0.9088302
v 6.40621E-07 6 0.9088302
v 0.2500006 7.176791 0.9088302
v 0.5000007 7 0.9088302
v 0.5000007 6 0.9088302
v 6.40621E-07 6 0.9088302
v 6.40621E-07 7 0.9088302
v 0.5000004 7 -9.89115
v 0.5000007 7 0.9088302
v 0.2500006 7.176791 0.9088302
v 0.2500005 7.176791 -9.89115
vt 0.375 0
vt 0.375 0.25
vt 0.625 0.25
vt 0.625 0
vt 0.375 0.25
vt 0.375 0.5
vt 0.625 0.5
vt 0.625 0.375
vt 0.625 0.25
vt 0.375 0.5
vt 0.375 0.75
vt 0.625 0.75
vt 0.625 0.5
vt 0.625 0.875
vt 0.625 0.75
vt 0.375 0.75
vt 0.375 1
vt 0.625 1
vt 0.125 0.5
vt 0.125 0.75
vt 0.375 0.75
vt 0.375 0.5
vt 0.75 0.75
vt 0.75 0.75
vt 0.75 0.5
vt 0.75 0.5
vt 0.625 0.5
vt 0.625 0.75
vt 0.75 0.75
vt 0.75 0.5
vt 0.8125 0.5
vt 0.8125 0.75
vt 0.875 0.75
vt 0.875 0.5
vt 0.625 0.25
vt 0.625 0.375
vt 0.625 0.375
vt 0.625 0.3125
vt 0.625 0.25
vt 0.625 0.25
vt 0.625 0.25
vt 0.625 0
vt 0.625 0
vt 0.625 0.9375
vt 0.625 0.875
vt 0.625 0.875
vt 0.625 1
vt 0.625 1
vt 0.75 0.5
vt 0.75 0.75
vt 0.8125 0.75
vt 0.8125 0.5
vn -1 0 0
vn -1 0 0
vn -1 0 0
vn -1 0 0
vn 0 0 -1
vn 0 0 -1
vn 0 0 -1
vn 0 0 -1
vn 0 0 -1
vn 1 0 0
vn 1 0 0
vn 1 0 0
vn 1 0 0
vn 0 0 1
vn 0 0 1
vn 0 0 1
vn 0 0 1
vn 0 0 1
vn 0 -1 0
vn 0 -1 0
vn 0 -1 0
vn 0 -1 0
vn 1 0 0
vn 1 0 0
vn 1 0 0
vn 1 0 0
vn 0 1 0
vn 0 1 0
vn 0 1 0
vn 0 1 0
vn -0.5773831 0.8164734 0
vn -0.5773831 0.8164734 0
vn -0.5773831 0.8164734 0
vn -0.5773831 0.8164734 0
vn 0 4.3811E-07 -1
vn 0 4.3811E-07 -1
vn 0 4.3811E-07 -1
vn 0 4.3811E-07 -1
vn 0 4.3811E-07 -1
vn -1 0 0
vn -1 0 0
vn -1 0 0
vn -1 0 0
vn 0 0 1
vn 0 0 1
vn 0 0 1
vn 0 0 1
vn 0 0 1
vn 0.577383 0.8164734 0
vn 0.577383 0.8164734 0
vn 0.577383 0.8164734 0
vn 0.577383 0.8164734 0
g wall01.016_0
f 3/3/3 2/2/2 1/1/1
f 4/4/4 3/3/3 1/1/1
f 7/7/7 6/6/6 5/5/5
f 5/5/5 8/8/8 7/7/7
f 5/5/5 9/9/9 8/8/8
f 12/12/12 11/11/11 10/10/10
f 13/13/13 12/12/12 10/10/10
f 16/16/16 15/15/15 14/14/14
f 14/14/14 17/17/17 16/16/16
f 14/14/14 18/18/18 17/17/17
f 21/21/21 20/20/20 19/19/19
f 22/22/22 21/21/21 19/19/19
f 25/25/25 24/24/24 23/23/23
f 26/26/26 25/25/25 23/23/23
f 29/29/29 28/28/28 27/27/27
f 30/30/30 29/29/29 27/27/27
f 33/33/33 32/32/32 31/31/31
f 34/34/34 33/33/33 31/31/31
f 37/37/37 36/36/36 35/35/35
f 35/35/35 38/38/38 37/37/37
f 35/35/35 39/39/39 38/38/38
f 42/42/42 41/41/41 40/40/40
f 43/43/43 42/42/42 40/40/40
f 46/46/46 45/45/45 44/44/44
f 44/44/44 47/47/47 46/46/46
f 44/44/44 48/48/48 47/47/47
f 51/51/51 50/50/50 49/49/49
f 52/52/52 51/51/51 49/49/49
