g wall01.018
v -1 0 12.9
v -1 0 0
v -1 0.5 0
v -1 0.5 12.9
v -1 0 0
v 0 0 0
v 0 0.5 0
v -0.5 0.5 0
v -1 0.5 0
v -0.5 1.5 0
v -0.75 1.676792 0
v -1 1.5 0
v 0 0 0
v 0 0 12.9
v 0 0.5 12.9
v 0 0.5 0
v -0.5 0.5 12.9
v 0 0.5 12.9
v 0 0 12.9
v -1 0 12.9
v -1 0.5 12.9
v -0.75 1.676792 12.9
v -0.5 1.5 12.9
v -1 1.5 12.9
v -1 0 0
v -1 0 12.9
v 0 0 12.9
v 0 0 0
v -0.5 0.5 12.9
v -0.5 1.5 12.9
v -0.5 1.5 0
v -0.5 0.5 0
v 0 0.5 0
v 0 0.5 12.9
v -0.5 0.5 12.9
v -0.5 0.5 0
v -0.75 1.676792 0
v -0.75 1.676792 12.9
v -1 1.5 12.9
v -1 1.5 0
v -1 0.5 0
v -1 1.5 0
v -1 1.5 12.9
v -1 0.5 12.9
v -0.5 1.5 0
v -0.5 1.5 12.9
v -0.75 1.676792 12.9
v -0.75 1.676792 0
v -1.1 0 6.419997
v -1.1 0 5.579998
v -1.1 3 5.579998
v -1.1 3 6.419997
v -1.1 0 5.579998
v -0.3999999 0 5.579998
v -0.3999999 3 5.579998
v -1.1 3 5.579998
v -0.3999999 0 5.579998
v -0.3999999 0 6.419997
v -0.3999999 3 6.419997
v -0.3999999 3 5.579998
v -0.3999999 0 6.419997
v -1.1 0 6.419997
v -1.1 3 6.419997
v -0.3999999 3 6.419997
v -1.1 0 5.579998
v -1.1 0 6.419997
v -0.3999999 0 6.419997
v -0.3999999 0 5.579998
v -0.3999999 3 5.579998
v -0.3999999 3 6.419997
v -1.1 3 6.419997
v -1.1 3 5.579998
v -1.1 0 0.4199982
v -1.1 0 -0.4200029
v -1.1 3 -0.4200029
v -1.1 3 0.4199982
v -1.1 0 -0.4200029
v -0.3999999 0 -0.4200029
v -0.3999999 3 -0.4200029
v -1.1 3 -0.4200029
v -0.3999999 0 -0.4200029
v -0.3999999 0 0.4199982
v -0.3999999 3 0.4199982
v -0.3999999 3 -0.4200029
v -0.3999999 0 0.4199982
v -1.1 0 0.4199982
v -1.1 3 0.4199982
v -0.3999999 3 0.4199982
v -1.1 0 -0.4200029
v -1.1 0 0.4199982
v -0.3999999 0 0.4199982
v -0.3999999 0 -0.4200029
v -0.3999999 3 -0.4200029
v -0.3999999 3 0.4199982
v -1.1 3 0.4199982
v -1.1 3 -0.4200029
vt 0.375 0
vt 0.375 0.25
vt 0.625 0.25
vt 0.625 0
vt 0.375 0.25
vt 0.375 0.5
vt 0.625 0.5
vt 0.625 0.375
vt 0.625 0.25
vt 0.625 0.375
vt 0.625 0.3125
vt 0.625 0.25
vt 0.375 0.5
vt 0.375 0.75
vt 0.625 0.75
vt 0.625 0.5
vt 0.625 0.875
vt 0.625 0.75
vt 0.375 0.75
vt 0.375 1
vt 0.625 1
vt 0.625 0.9375
vt 0.625 0.875
vt 0.625 1
vt 0.125 0.5
vt 0.125 0.75
vt 0.375 0.75
vt 0.375 0.5
vt 0.75 0.75
vt 0.75 0.75
vt 0.75 0.5
vt 0.75 0.5
vt 0.625 0.5
vt 0.625 0.75
vt 0.75 0.75
vt 0.75 0.5
vt 0.8125 0.5
vt 0.8125 0.75
vt 0.875 0.75
vt 0.875 0.5
vt 0.625 0.25
vt 0.625 0.25
vt 0.625 0
vt 0.625 0
vt 0.75 0.5
vt 0.75 0.75
vt 0.8125 0.75
vt 0.8125 0.5
vt 0.375 0
vt 0.375 0.25
vt 0.625 0.25
vt 0.625 0
vt 0.375 0.25
vt 0.375 0.5
vt 0.625 0.5
vt 0.625 0.25
vt 0.375 0.5
vt 0.375 0.75
vt 0.625 0.75
vt 0.625 0.5
vt 0.375 0.75
vt 0.375 1
vt 0.625 1
vt 0.625 0.75
vt 0.125 0.5
vt 0.125 0.75
vt 0.375 0.75
vt 0.375 0.5
vt 0.625 0.5
vt 0.625 0.75
vt 0.875 0.75
vt 0.875 0.5
vt 0.375 0
vt 0.375 0.25
vt 0.625 0.25
vt 0.625 0
vt 0.375 0.25
vt 0.375 0.5
vt 0.625 0.5
vt 0.625 0.25
vt 0.375 0.5
vt 0.375 0.75
vt 0.625 0.75
vt 0.625 0.5
vt 0.375 0.75
vt 0.375 1
vt 0.625 1
vt 0.625 0.75
vt 0.125 0.5
vt 0.125 0.75
vt 0.375 0.75
vt 0.375 0.5
vt 0.625 0.5
vt 0.625 0.75
vt 0.875 0.75
vt 0.875 0.5
vn -1 0 0
vn -1 0 0
vn -1 0 0
vn -1 0 0
vn 0 0 -1
vn 0 0 -1
vn 0 0 -1
vn 0 0 -1
vn 0 0 -1
vn 0 0 -1
vn 0 0 -1
vn 0 0 -1
vn 1 0 0
vn 1 0 0
vn 1 0 0
vn 1 0 0
vn 0 0 1
vn 0 0 1
vn 0 0 1
vn 0 0 1
vn 0 0 1
vn 0 0 1
vn 0 0 1
vn 0 0 1
vn 0 -1 0
vn 0 -1 0
vn 0 -1 0
vn 0 -1 0
vn 1 0 0
vn 1 0 0
vn 1 0 0
vn 1 0 0
vn 0 1 0
vn 0 1 0
vn 0 1 0
vn 0 1 0
vn -0.5773829 0.8164735 0
vn -0.5773829 0.8164735 0
vn -0.5773829 0.8164735 0
vn -0.5773829 0.8164735 0
vn -1 0 0
vn -1 0 0
vn -1 0 0
vn -1 0 0
vn 0.5773829 0.8164735 0
vn 0.5773829 0.8164735 0
vn 0.5773829 0.8164735 0
vn 0.5773829 0.8164735 0
vn -1 0 0
vn -1 0 0
vn -1 0 0
vn -1 0 0
vn 0 0 -1
vn 0 0 -1
vn 0 0 -1
vn 0 0 -1
vn 1 0 0
vn 1 0 0
vn 1 0 0
vn 1 0 0
vn 0 0 1
vn 0 0 1
vn 0 0 1
vn 0 0 1
vn 0 -1 0
vn 0 -1 0
vn 0 -1 0
vn 0 -1 0
vn 0 1 0
vn 0 1 0
vn 0 1 0
vn 0 1 0
vn -1 0 0
vn -1 0 0
vn -1 0 0
vn -1 0 0
vn 0 0 -1
vn 0 0 -1
vn 0 0 -1
vn 0 0 -1
vn 1 0 0
vn 1 0 0
vn 1 0 0
vn 1 0 0
vn 0 0 1
vn 0 0 1
vn 0 0 1
vn 0 0 1
vn 0 -1 0
vn 0 -1 0
vn 0 -1 0
vn 0 -1 0
vn 0 1 0
vn 0 1 0
vn 0 1 0
vn 0 1 0
g wall01.018_0
f 3/3/3 2/2/2 1/1/1
f 4/4/4 3/3/3 1/1/1
f 7/7/7 6/6/6 5/5/5
f 5/5/5 8/8/8 7/7/7
f 5/5/5 9/9/9 8/8/8
f 10/10/10 8/8/8 9/9/9
f 9/9/9 11/11/11 10/10/10
f 9/9/9 12/12/12 11/11/11
f 15/15/15 14/14/14 13/13/13
f 16/16/16 15/15/15 13/13/13
f 19/19/19 18/18/18 17/17/17
f 17/17/17 20/20/20 19/19/19
f 17/17/17 21/21/21 20/20/20
f 22/22/22 21/21/21 17/17/17
f 17/17/17 23/23/23 22/22/22
f 22/22/22 24/24/24 21/21/21
f 27/27/27 26/26/26 25/25/25
f 28/28/28 27/27/27 25/25/25
f 31/31/31 30/30/30 29/29/29
f 32/32/32 31/31/31 29/29/29
f 35/35/35 34/34/34 33/33/33
f 36/36/36 35/35/35 33/33/33
f 39/39/39 38/38/38 37/37/37
f 40/40/40 39/39/39 37/37/37
f 43/43/43 42/42/42 41/41/41
f 44/44/44 43/43/43 41/41/41
f 47/47/47 46/46/46 45/45/45
f 48/48/48 47/47/47 45/45/45
f 51/51/51 50/50/50 49/49/49
f 52/52/52 51/51/51 49/49/49
f 55/55/55 54/54/54 53/53/53
f 56/56/56 55/55/55 53/53/53
f 59/59/59 58/58/58 57/57/57
f 60/60/60 59/59/59 57/57/57
f 63/63/63 62/62/62 61/61/61
f 64/64/64 63/63/63 61/61/61
f 67/67/67 66/66/66 65/65/65
f 68/68/68 67/67/67 65/65/65
f 71/71/71 70/70/70 69/69/69
f 72/72/72 71/71/71 69/69/69
f 75/75/75 74/74/74 73/73/73
f 76/76/76 75/75/75 73/73/73
f 79/79/79 78/78/78 77/77/77
f 80/80/80 79/79/79 77/77/77
f 83/83/83 82/82/82 81/81/81
f 84/84/84 83/83/83 81/81/81
f 87/87/87 86/86/86 85/85/85
f 88/88/88 87/87/87 85/85/85
f 91/91/91 90/90/90 89/89/89
f 92/92/92 91/91/91 89/89/89
f 95/95/95 94/94/94 93/93/93
f 96/96/96 95/95/95 93/93/93
