g wall_conner_A.006
v 0 0 1.2
v -1 6 1.2
v -1 0 1.2
v 0 6 1.2
v 0 7 1.2
v -1 7 1.2
v 0 6 1.2
v 0 0 1.2
v 0 0 -10.8
v 0 6 -10.8
v 0 6 0.5999999
v 0 7 1.2
v 0 6 1.2
v 0 7 0.5999999
v 0 7.176792 0.8999996
v -0.7499995 7.176792 0.8999996
v -1 7 1.2
v 0 7 1.2
v 0 7.176792 0.8999996
v -0.5 6 -10.8
v 0 6 -10.8
v 0 0 -10.8
v -1 0 -10.8
v -1 6 -10.8
v -0.75 7.176792 -10.8
v -0.5 7 -10.8
v -1 7 -10.8
v -1 6 1.2
v -1 7 1.2
v -1 7 -10.8
v -1 6 -10.8
v -1 0 -10.8
v -1 0 1.2
v -1 0 1.2
v -1 0 -10.8
v 0 0 -10.8
v 0 0 1.2
v -0.5 7 0.5999999
v 0 7 0.5999999
v 0 6 0.5999999
v -0.01282048 6 0.5999999
v -0.5 6 0.5999999
v 0 7.176792 0.8999996
v 0 7 0.5999999
v -0.5 7 0.5999999
v -0.7499998 7.176792 0.8999991
v -0.7499995 7.176792 0.8999996
v 0 6 0.5999999
v 0 6 -10.8
v -0.5 6 -10.8
v -0.5 6 0.5999999
v -0.01282048 6 0.5999999
v -0.5 6 0.5999999
v -0.5 6 -10.8
v -0.5 7 -10.8
v -0.5 7 0.5999999
v -0.7499998 7.176792 0.8999991
v -0.75 7.176792 -10.8
v -1 7 -10.8
v -1 7 1.2
v -0.7499995 7.176792 0.8999996
v -0.5 7 0.5999999
v -0.5 7 -10.8
v -0.75 7.176792 -10.8
v -0.7499998 7.176792 0.8999991
vt 0.375 0
vt 0.625 0.25
vt 0.375 0.25
vt 0.625 0
vt 0.625 0
vt 0.625 0.25
vt 0.625 1
vt 0.375 1
vt 0.375 0.5
vt 0.625 0.5
vt 0.625 0.875
vt 0.625 1
vt 0.625 1
vt 0.625 0.875
vt 0.625 0.9375
vt 0.8125 0.5
vt 0.875 0.5
vt 0.875 0.75
vt 0.8125 0.75
vt 0.625 0.375
vt 0.625 0.5
vt 0.375 0.5
vt 0.375 0.25
vt 0.625 0.25
vt 0.625 0.3125
vt 0.625 0.375
vt 0.625 0.25
vt 0.625 0.25
vt 0.625 0.25
vt 0.625 0.25
vt 0.625 0.25
vt 0.375 0.25
vt 0.375 0.25
vt 0.125 0.5
vt 0.125 0.5
vt 0.375 0.5
vt 0.125 0.75
vt 0.75 0.5125
vt 0.75 0.75
vt 0.75 0.525
vt 0.75 0.5246795
vt 0.75 0.5125
vt 0.8125 0.75
vt 0.75 0.75
vt 0.75 0.5125
vt 0.8125 0.5
vt 0.8125 0.5
vt 0.7499999 0.525
vt 0.625 0.5
vt 0.75 0.5
vt 0.75 0.5125
vt 0.75 0.5246795
vt 0.7499999 0.7435897
vt 0.75 0.5
vt 0.75 0.5
vt 0.75 0.7435897
vt 0.625 0.3125
vt 0.8125 0.5
vt 0.875 0.5
vt 0.625 0.25
vt 0.625 0.3125
vt 0.7499999 0.7435897
vt 0.75 0.5
vt 0.8125 0.5
vt 0.8125 0.7499999
vn 0 0 -1
vn 0 0 -1
vn 0 0 -1
vn 0 0 -1
vn 0 0 -1
vn 0 0 -1
vn -1 0 0
vn -1 0 0
vn -1 0 0
vn -1 0 0
vn -1 0 0
vn -1 0 0
vn -1 0 0
vn -1 0 0
vn -1 0 0
vn 0 -0.8615305 -0.5077058
vn 0 -0.8615305 -0.5077058
vn 0 -0.8615305 -0.5077058
vn 0 -0.8615305 -0.5077058
vn 0 0 1
vn 0 0 1
vn 0 0 1
vn 0 0 1
vn 0 0 1
vn 0 0 1
vn 0 0 1
vn 0 0 1
vn 1 0 0
vn 1 0 0
vn 1 0 0
vn 1 0 0
vn 1 0 0
vn 1 0 0
vn 0 1 0
vn 0 1 0
vn 0 1 0
vn 0 1 0
vn 0 0 1
vn 0 0 1
vn 0 0 1
vn 0 0 1
vn 0 0 1
vn 0 -0.8615302 0.5077063
vn 0 -0.8615302 0.5077063
vn 0 -0.8615302 0.5077063
vn 0 -0.8615302 0.5077063
vn 0 -0.8615302 0.5077063
vn 0 -1 0
vn 0 -1 0
vn 0 -1 0
vn 0 -1 0
vn 0 -1 0
vn -1 0 0
vn -1 0 0
vn -1 0 0
vn -1 0 0
vn 0.5773821 -0.816474 0
vn 0.5773821 -0.816474 0
vn 0.5773821 -0.816474 0
vn 0.5773821 -0.816474 0
vn 0.5773821 -0.816474 0
vn -0.577385 -0.816472 0
vn -0.577385 -0.816472 0
vn -0.577385 -0.816472 0
vn -0.577385 -0.816472 0
g wall_conner_A.006_0
f 3/3/3 2/2/2 1/1/1
f 2/2/2 4/4/4 1/1/1
f 5/5/5 4/4/4 2/2/2
f 6/6/6 5/5/5 2/2/2
f 9/9/9 8/8/8 7/7/7
f 7/7/7 10/10/10 9/9/9
f 7/7/7 11/11/11 10/10/10
f 11/11/11 13/13/13 12/12/12
f 12/12/12 14/14/14 11/11/11
f 12/12/12 15/15/15 14/14/14
f 18/18/18 17/17/17 16/16/16
f 19/19/19 18/18/18 16/16/16
f 22/22/22 21/21/21 20/20/20
f 20/20/20 23/23/23 22/22/22
f 20/20/20 24/24/24 23/23/23
f 25/25/25 24/24/24 20/20/20
f 20/20/20 26/26/26 25/25/25
f 25/25/25 27/27/27 24/24/24
f 30/30/30 29/29/29 28/28/28
f 31/31/31 30/30/30 28/28/28
f 32/32/32 31/31/31 28/28/28
f 33/33/33 32/32/32 28/28/28
f 36/36/36 35/35/35 34/34/34
f 37/37/37 36/36/36 34/34/34
f 40/40/40 39/39/39 38/38/38
f 38/38/38 41/41/41 40/40/40
f 38/38/38 42/42/42 41/41/41
f 45/45/45 44/44/44 43/43/43
f 43/43/43 46/46/46 45/45/45
f 43/43/43 47/47/47 46/46/46
f 50/50/50 49/49/49 48/48/48
f 48/48/48 51/51/51 50/50/50
f 48/48/48 52/52/52 51/51/51
f 55/55/55 54/54/54 53/53/53
f 56/56/56 55/55/55 53/53/53
f 59/59/59 58/58/58 57/57/57
f 57/57/57 60/60/60 59/59/59
f 57/57/57 61/61/61 60/60/60
f 64/64/64 63/63/63 62/62/62
f 65/65/65 64/64/64 62/62/62
