g wall01.053
v 0 0 6
v 0 0 -6
v 0 6 -6
v 0 6 6
v 0 7 6
v 0 7 -6
v 0 0 -6
v 1 0 -6
v 1 6 -6
v 0.5 6 -6
v 0 6 -6
v 0.5 7 -6
v 0.25 7.176791 -6
v 0 7 -6
v 1 0 -6
v 1 0 6
v 1 6 6
v 1 6 -6
v 0.5 6 6
v 1 6 6
v 1 0 6
v 0 0 6
v 0 6 6
v 0.25 7.176791 6
v 0.5 7 6
v 0 7 6
v 0 0 -6
v 0 0 6
v 1 0 6
v 1 0 -6
v 0.5 6 6
v 0.5 7 6
v 0.5 7 -6
v 0.5 6 -6
v 1 6 -6
v 1 6 6
v 0.5 6 6
v 0.5 6 -6
v 0.25 7.176791 -6
v 0.25 7.176791 6
v 0 7 6
v 0 7 -6
v 0.5 7 -6
v 0.5 7 6
v 0.25 7.176791 6
v 0.25 7.176791 -6
vt 0.375 0
vt 0.375 0.25
vt 0.625 0.25
vt 0.625 0
vt 0.625 0
vt 0.625 0.25
vt 0.375 0.25
vt 0.375 0.5
vt 0.625 0.5
vt 0.625 0.375
vt 0.625 0.25
vt 0.625 0.375
vt 0.625 0.3125
vt 0.625 0.25
vt 0.375 0.5
vt 0.375 0.75
vt 0.625 0.75
vt 0.625 0.5
vt 0.625 0.875
vt 0.625 0.75
vt 0.375 0.75
vt 0.375 1
vt 0.625 1
vt 0.625 0.9375
vt 0.625 0.875
vt 0.625 1
vt 0.125 0.5
vt 0.125 0.75
vt 0.375 0.75
vt 0.375 0.5
vt 0.75 0.75
vt 0.75 0.75
vt 0.75 0.5
vt 0.75 0.5
vt 0.625 0.5
vt 0.625 0.75
vt 0.75 0.75
vt 0.75 0.5
vt 0.8125 0.5
vt 0.8125 0.75
vt 0.875 0.75
vt 0.875 0.5
vt 0.75 0.5
vt 0.75 0.75
vt 0.8125 0.75
vt 0.8125 0.5
vn -1 0 0
vn -1 0 0
vn -1 0 0
vn -1 0 0
vn -1 0 0
vn -1 0 0
vn 0 0 -1
vn 0 0 -1
vn 0 0 -1
vn 0 0 -1
vn 0 0 -1
vn 0 0 -1
vn 0 0 -1
vn 0 0 -1
vn 1 0 0
vn 1 0 0
vn 1 0 0
vn 1 0 0
vn 0 0 1
vn 0 0 1
vn 0 0 1
vn 0 0 1
vn 0 0 1
vn 0 0 1
vn 0 0 1
vn 0 0 1
vn 0 -1 0
vn 0 -1 0
vn 0 -1 0
vn 0 -1 0
vn 1 0 0
vn 1 0 0
vn 1 0 0
vn 1 0 0
vn 0 1 0
vn 0 1 0
vn 0 1 0
vn 0 1 0
vn -0.5773825 0.8164737 0
vn -0.5773825 0.8164737 0
vn -0.5773825 0.8164737 0
vn -0.5773825 0.8164737 0
vn 0.5773825 0.8164737 0
vn 0.5773825 0.8164737 0
vn 0.5773825 0.8164737 0
vn 0.5773825 0.8164737 0
g wall01.053_0
f 3/3/3 2/2/2 1/1/1
f 4/4/4 3/3/3 1/1/1
f 4/4/4 5/5/5 3/3/3
f 5/5/5 6/6/6 3/3/3
f 9/9/9 8/8/8 7/7/7
f 7/7/7 10/10/10 9/9/9
f 7/7/7 11/11/11 10/10/10
f 12/12/12 10/10/10 11/11/11
f 11/11/11 13/13/13 12/12/12
f 11/11/11 14/14/14 13/13/13
f 17/17/17 16/16/16 15/15/15
f 18/18/18 17/17/17 15/15/15
f 21/21/21 20/20/20 19/19/19
f 19/19/19 22/22/22 21/21/21
f 19/19/19 23/23/23 22/22/22
f 24/24/24 23/23/23 19/19/19
f 19/19/19 25/25/25 24/24/24
f 24/24/24 26/26/26 23/23/23
f 29/29/29 28/28/28 27/27/27
f 30/30/30 29/29/29 27/27/27
f 33/33/33 32/32/32 31/31/31
f 34/34/34 33/33/33 31/31/31
f 37/37/37 36/36/36 35/35/35
f 38/38/38 37/37/37 35/35/35
f 41/41/41 40/40/40 39/39/39
f 42/42/42 41/41/41 39/39/39
f 45/45/45 44/44/44 43/43/43
f 46/46/46 45/45/45 43/43/43
