g Wave_emitter
v 0.06180629 0.04171263 -0.08506932
v 0.06818732 -0.005919145 -0.09385181
v 0.09385177 -0.005919145 -0.06818732
v 0.08506931 0.04171263 -0.06180647
v -0.03249347 0.04171263 -0.1000051
v -0.03584815 -0.005919145 -0.1103296
v -1.380592E-09 -0.005919145 -0.1160074
v 2.760786E-09 0.04171263 -0.1051515
v -0.1051515 0.04171263 -1.085606E-08
v -0.1160074 -0.005919145 -4.153376E-09
v -0.1103296 -0.005919145 -0.03584814
v -0.1000052 0.04171263 -0.03249354
v -0.06180649 0.04171263 0.08506931
v -0.06818735 -0.005919145 0.09385183
v -0.09385182 -0.005919145 0.06818733
v -0.08506931 0.04171263 0.06180629
v 0.03249349 0.04171263 0.1000052
v 0.03584814 -0.005919145 0.1103296
v 2.076688E-09 -0.005919145 0.1160074
v 5.894555E-09 0.04171263 0.1051515
v 0.08506933 0.04171263 0.06180649
v 0.09385186 -0.005919145 0.06818735
v 0.06818736 -0.005919145 0.09385185
v 0.06180656 0.04171263 0.08506933
v 0.1051515 0.04171263 -1.085606E-08
v 0.1160074 -0.005919145 -4.153376E-09
v 0.1103296 -0.005919145 0.03584816
v 0.1000051 0.04171263 0.03249346
v -0.07813589 0.04171263 -0.07036757
v -0.08620276 -0.005919145 -0.07763236
v -0.05799404 -0.005919145 -0.1004707
v -0.05256696 0.04171263 -0.09106858
v 0.06175619 0.04217417 -0.08500011
v 0.1165655 0 -0.1604386
v 0.1604386 0 -0.1165655
v 0.08500011 0.04217417 -0.0617562
v -0.03246716 0.04217417 -0.09992364
v -0.06128211 0 -0.1886069
v -5.910189E-09 0 -0.1983131
v -2.562851E-09 0.04217417 -0.1050659
v -0.1050659 0.04217417 -8.525357E-10
v -0.1983131 0 2.201717E-17
v -0.188607 0 -0.06128211
v -0.09992365 0.04217417 -0.03246716
v -0.06175622 0.04217417 0.08500014
v -0.1165655 0 0.1604387
v -0.1604387 0 0.1165655
v -0.08500014 0.04217417 0.06175621
v 0.03246717 0.04217417 0.09992366
v 0.06128213 0 0.188607
v 0 0 0.1983131
v 5.683573E-10 0.04217417 0.105066
v 0.08500016 0.04217417 0.06175622
v 0.1604387 0 0.1165655
v 0.1165655 0 0.1604387
v 0.06175622 0.04217417 0.08500016
v 0.1050659 0.04217417 -8.525357E-10
v 0.198313 0 2.201717E-17
v 0.188607 0 0.06128213
v 0.09992368 0.04217417 0.03246717
v -0.0780725 0.04217417 -0.07031028
v -0.1473627 0 -0.1327114
v -0.09914018 0 -0.1717536
v -0.0525243 0.04217417 -0.09099478
vt 0.15 0.75
vt 0.15 0.5
vt 0.1 0.5
vt 0.1 0.75
vt 0.3 0.75
vt 0.3 0.5
vt 0.25 0.5
vt 0.25 0.75
vt 0.5000001 0.75
vt 0.5000001 0.5
vt 0.45 0.5
vt 0.45 0.75
vt 0.6500001 0.75
vt 0.6500001 0.5
vt 0.6000001 0.5
vt 0.6000001 0.75
vt 0.8000001 0.75
vt 0.8000001 0.5
vt 0.7500001 0.5
vt 0.7500001 0.75
vt 0.9000002 0.75
vt 0.9000002 0.5
vt 0.8500001 0.5
vt 0.8500001 0.75
vt 1 0.75
vt 1 0.5
vt 0.9500002 0.5
vt 0.9500002 0.75
vt 0.35 0.75
vt 0.35 0.5
vt 0.3 0.5
vt 0.3 0.75
vt 0.15 0.75
vt 0.15 0.5
vt 0.1 0.5
vt 0.1 0.75
vt 0.3 0.75
vt 0.3 0.5
vt 0.25 0.5
vt 0.25 0.75
vt 0.5000001 0.75
vt 0.5000001 0.5
vt 0.45 0.5
vt 0.45 0.75
vt 0.6500001 0.75
vt 0.6500001 0.5
vt 0.6000001 0.5
vt 0.6000001 0.75
vt 0.8000001 0.75
vt 0.8000001 0.5
vt 0.7500001 0.5
vt 0.7500001 0.75
vt 0.9000002 0.75
vt 0.9000002 0.5
vt 0.8500001 0.5
vt 0.8500001 0.75
vt 1 0.75
vt 1 0.5
vt 0.9500002 0.5
vt 0.9500002 0.75
vt 0.35 0.75
vt 0.35 0.5
vt 0.3 0.5
vt 0.3 0.75
vn 0.6898436 0.2196097 -0.6898458
vn 0.6898436 0.2196097 -0.6898459
vn 0.6898436 0.2196097 -0.6898458
vn 0.6898436 0.2196097 -0.6898459
vn -0.1526149 0.2196105 -0.9635766
vn -0.1526149 0.2196105 -0.9635766
vn -0.1526149 0.2196105 -0.9635766
vn -0.1526149 0.2196105 -0.9635766
vn -0.9635766 0.2196106 -0.1526147
vn -0.9635766 0.2196106 -0.1526147
vn -0.9635766 0.2196106 -0.1526147
vn -0.9635766 0.2196106 -0.1526147
vn -0.6898462 0.2196104 0.689843
vn -0.6898462 0.2196104 0.6898431
vn -0.6898462 0.2196104 0.6898431
vn -0.6898462 0.2196104 0.6898431
vn 0.1526145 0.2196106 0.9635767
vn 0.1526145 0.2196106 0.9635767
vn 0.1526145 0.2196105 0.9635767
vn 0.1526145 0.2196106 0.9635767
vn 0.6898453 0.219609 0.6898444
vn 0.6898454 0.219609 0.6898444
vn 0.6898454 0.219609 0.6898444
vn 0.6898454 0.219609 0.6898444
vn 0.9635766 0.2196106 0.1526146
vn 0.9635766 0.2196106 0.1526146
vn 0.9635766 0.2196106 0.1526146
vn 0.9635766 0.2196106 0.1526146
vn -0.6138808 0.219613 -0.7582352
vn -0.6138808 0.219613 -0.7582352
vn -0.6138808 0.219613 -0.7582352
vn -0.6138808 0.219613 -0.7582352
vn 0.2944006 0.9092066 -0.2944006
vn 0.2944006 0.9092066 -0.2944006
vn 0.2944007 0.9092066 -0.2944007
vn 0.2944007 0.9092066 -0.2944007
vn -0.06513067 0.9092066 -0.4112194
vn -0.06513067 0.9092066 -0.4112194
vn -0.06513067 0.9092066 -0.4112194
vn -0.06513067 0.9092066 -0.4112194
vn -0.4112194 0.9092067 -0.06513066
vn -0.4112194 0.9092067 -0.06513067
vn -0.4112194 0.9092066 -0.06513065
vn -0.4112194 0.9092066 -0.06513065
vn -0.2944007 0.9092066 0.2944004
vn -0.2944007 0.9092066 0.2944004
vn -0.2944007 0.9092066 0.2944004
vn -0.2944007 0.9092066 0.2944004
vn 0.06513064 0.9092067 0.4112193
vn 0.06513064 0.9092067 0.4112194
vn 0.06513063 0.9092067 0.4112194
vn 0.06513064 0.9092067 0.4112193
vn 0.2944005 0.9092067 0.2944005
vn 0.2944005 0.9092067 0.2944005
vn 0.2944005 0.9092067 0.2944005
vn 0.2944005 0.9092067 0.2944005
vn 0.4112194 0.9092066 0.06513
vn 0.4112194 0.9092066 0.06513
vn 0.4112194 0.9092066 0.06513001
vn 0.4112194 0.9092066 0.06513
vn -0.2619838 0.9092066 -0.3235861
vn -0.2619838 0.9092066 -0.3235861
vn -0.2619838 0.9092066 -0.3235861
vn -0.2619838 0.9092066 -0.3235861
g Wave_emitter_0
f 3/3/3 2/2/2 1/1/1
f 4/4/4 3/3/3 1/1/1
f 7/7/7 6/6/6 5/5/5
f 8/8/8 7/7/7 5/5/5
f 11/11/11 10/10/10 9/9/9
f 12/12/12 11/11/11 9/9/9
f 15/15/15 14/14/14 13/13/13
f 16/16/16 15/15/15 13/13/13
f 19/19/19 18/18/18 17/17/17
f 20/20/20 19/19/19 17/17/17
f 23/23/23 22/22/22 21/21/21
f 24/24/24 23/23/23 21/21/21
f 27/27/27 26/26/26 25/25/25
f 28/28/28 27/27/27 25/25/25
f 31/31/31 30/30/30 29/29/29
f 32/32/32 31/31/31 29/29/29
f 35/35/35 34/34/34 33/33/33
f 36/36/36 35/35/35 33/33/33
f 39/39/39 38/38/38 37/37/37
f 40/40/40 39/39/39 37/37/37
f 43/43/43 42/42/42 41/41/41
f 44/44/44 43/43/43 41/41/41
f 47/47/47 46/46/46 45/45/45
f 48/48/48 47/47/47 45/45/45
f 51/51/51 50/50/50 49/49/49
f 52/52/52 51/51/51 49/49/49
f 55/55/55 54/54/54 53/53/53
f 56/56/56 55/55/55 53/53/53
f 59/59/59 58/58/58 57/57/57
f 60/60/60 59/59/59 57/57/57
f 63/63/63 62/62/62 61/61/61
f 64/64/64 63/63/63 61/61/61
