g Weapon_GunA
v -0.004323693 -0.2696033 -0.01927869
v -0.02910921 -0.2696033 -0.02911265
v -0.01930573 -0.2696034 -0.004148549
v -0.01930573 -0.2696034 -0.004148549
v -0.02910921 -0.2696033 -0.02911265
v -0.0291092 -0.2696034 -0.004151091
v -0.004335113 -0.2696033 -0.02911493
v -0.02910921 -0.2696033 -0.02911265
v -0.004323693 -0.2696033 -0.01927869
v -0.02910919 -0.3153003 0.01499517
v -0.02911426 0.3095325 0.02332032
v -0.02910919 -0.3153003 0.02332417
v -0.0291092 -0.2696034 -0.004151091
v -0.02911426 0.3095325 0.02332032
v -0.02910919 -0.3153003 0.01499517
v 0.02323285 0.3095375 -0.02911624
v -0.004335113 -0.2696033 -0.02911493
v 0.01502041 -0.3153003 -0.02911494
v 0.02323285 0.3095375 -0.02911624
v 0.01502041 -0.3153003 -0.02911494
v 0.02331457 -0.3153003 -0.02911537
v -0.02911431 0.3095326 -0.02911721
v -0.004335113 -0.2696033 -0.02911493
v -0.02910921 -0.2696033 -0.02911265
v -0.01246083 -0.3095072 0.02911721
v -0.01252332 0.3095109 0.02911341
v 0.02905188 0.3095109 -0.01249848
v 0.02911439 -0.3095072 -0.01249468
v -0.01411302 0.3095326 0.0235425
v -0.02911426 0.3095325 0.02332032
v -0.02911431 0.3095326 -0.02911721
v 0.02348124 0.3095326 -0.01409044
v 0.02323285 0.3095375 -0.02911624
v 0.02911439 -0.3095072 -0.01249468
v 0.02905188 0.3095109 -0.01249848
v 0.02904454 0.3095109 -0.02596268
v 0.02910706 -0.3095072 -0.02595888
v -0.02643619 -0.3095072 0.02911721
v -0.02649868 0.3095109 0.02911341
v -0.01252332 0.3095109 0.02911341
v -0.01246083 -0.3095072 0.02911721
v -0.01246083 -0.3095072 0.02911721
v 0.02911439 -0.3095072 -0.01249468
v 0.02354404 -0.3153003 -0.01408349
v -0.01405024 -0.3153003 0.02354664
v -0.01411303 0.3153003 0.02360996
v 0.02354568 0.315249 -0.01409347
v 0.02905188 0.3095109 -0.01249848
v -0.01252332 0.3095109 0.02911341
v 0.02911439 -0.3095072 -0.01249468
v 0.02910706 -0.3095072 -0.02595888
v 0.02331457 -0.3153003 -0.02911537
v 0.02354404 -0.3153003 -0.01408349
v 0.02354568 0.315249 -0.01409347
v 0.02331533 0.3152491 -0.02911658
v 0.02904454 0.3095109 -0.02596268
v 0.02905188 0.3095109 -0.01249848
v -0.02911429 0.3153004 0.02338776
v -0.01411303 0.3153003 0.02360996
v -0.01252332 0.3095109 0.02911341
v -0.02649868 0.3095109 0.02911341
v -0.02643619 -0.3095072 0.02911721
v -0.01246083 -0.3095072 0.02911721
v -0.01405024 -0.3153003 0.02354664
v -0.02910919 -0.3153003 0.02332417
v -0.02649868 0.3095109 0.02911341
v -0.02643619 -0.3095072 0.02911721
v -0.02910919 -0.3153003 0.02332417
v -0.02911426 0.3095325 0.02332032
v -0.02911429 0.3153004 0.02338776
v 0.02331533 0.3152491 -0.02911658
v 0.02323285 0.3095375 -0.02911624
v 0.02904454 0.3095109 -0.02596268
v 0.02331457 -0.3153003 -0.02911537
v 0.02910706 -0.3095072 -0.02595888
v -0.01405024 -0.3153003 0.02354664
v -0.02910919 -0.3153003 0.01499517
v -0.02910919 -0.3153003 0.02332417
v -0.01930572 -0.3153003 0.01501799
v 0.02354404 -0.3153003 -0.01408349
v 0.0150321 -0.3153003 -0.01927871
v 0.02331457 -0.3153003 -0.02911537
v 0.01502041 -0.3153003 -0.02911494
v 0.01502041 -0.3153003 -0.02911494
v -0.004335113 -0.2696033 -0.02911493
v -0.004323693 -0.2696033 -0.01927869
v 0.0150321 -0.3153003 -0.01927871
v 0.0150321 -0.3153003 -0.01927871
v -0.004323693 -0.2696033 -0.01927869
v -0.01930572 -0.3153003 0.01501799
v -0.01930573 -0.2696034 -0.004148549
v -0.01930572 -0.3153003 0.01501799
v -0.01930573 -0.2696034 -0.004148549
v -0.0291092 -0.2696034 -0.004151091
v -0.02910919 -0.3153003 0.01499517
v -0.02910921 -0.2696033 -0.02911265
v -0.02911431 0.3095326 -0.02911721
v -0.0291092 -0.2696034 -0.004151091
v -0.02911426 0.3095325 0.02332032
v -0.01411303 0.3153003 0.02360996
v -0.01411302 0.3095326 0.0235425
v 0.02348124 0.3095326 -0.01409044
v 0.02354568 0.315249 -0.01409347
v 0.02354568 0.315249 -0.01409347
v 0.02348124 0.3095326 -0.01409044
v 0.02323285 0.3095375 -0.02911624
v 0.02331533 0.3152491 -0.02911658
v -0.02911429 0.3153004 0.02338776
v -0.02911426 0.3095325 0.02332032
v -0.01411302 0.3095326 0.0235425
v -0.01411303 0.3153003 0.02360996
vt 0.4615955 0.1164809
vt 0.4414803 0.1262606
vt 0.4615956 0.1347631
vt 0.4615956 0.1347631
vt 0.4414803 0.1262606
vt 0.4615956 0.1421923
vt 0.4615955 0.1090955
vt 0.4414803 0.1262606
vt 0.4615955 0.1164809
vt 0.980225 0.07556389
vt 0.9913236 0.6053901
vt 0.9913236 0.07556389
vt 0.9629006 0.1132786
vt 0.9913236 0.6100985
vt 0.980225 0.07556389
vt 0.9913236 0.6100985
vt 0.9629006 0.1132786
vt 0.980225 0.07556389
vt 0.9913236 0.6100985
vt 0.980225 0.07556389
vt 0.9913236 0.07556389
vt 0.9350826 0.6100985
vt 0.9629006 0.1132786
vt 0.9350826 0.1132786
vt 0.1741171 0.02434587
vt 0.1741171 0.4958529
vt 0.2161468 0.4958529
vt 0.2161468 0.02434587
vt 0.8050734 0.2811045
vt 0.820308 0.2814161
vt 0.820308 0.2305424
vt 0.7709428 0.2446012
vt 0.7709428 0.2305424
vt 0.2161468 0.02434587
vt 0.2161468 0.4958529
vt 0.2257946 0.4958529
vt 0.2257946 0.02434587
vt 0.1646744 0.02434587
vt 0.1636622 0.4958529
vt 0.1741171 0.4958529
vt 0.1741171 0.02434587
vt 0.1741171 0.02434587
vt 0.2161468 0.02434587
vt 0.2161468 0.01879347
vt 0.1741171 0.01879347
vt 0.1741171 0.5013118
vt 0.2161468 0.5013118
vt 0.2161468 0.4958529
vt 0.1741171 0.4958529
vt 0.2161468 0.02434587
vt 0.2257946 0.02434587
vt 0.2286643 0.01879347
vt 0.2161468 0.01879347
vt 0.2161468 0.5013118
vt 0.2286643 0.5013118
vt 0.2257946 0.4958529
vt 0.2161468 0.4958529
vt 0.1615807 0.5013118
vt 0.1741171 0.5013118
vt 0.1741171 0.4958529
vt 0.1636622 0.4958529
vt 0.1646744 0.02434587
vt 0.1741171 0.02434587
vt 0.1741171 0.01879347
vt 0.1615807 0.01879347
vt 0.1636622 0.4958529
vt 0.1646744 0.02434587
vt 0.1615807 0.01879347
vt 0.1615807 0.4958529
vt 0.1615807 0.5013118
vt 0.2286643 0.5013118
vt 0.2286643 0.4958529
vt 0.2257946 0.4958529
vt 0.2286643 0.01879347
vt 0.2257946 0.02434587
vt 0.1741171 0.01879347
vt 0.166224 0.0118365
vt 0.1615807 0.01879347
vt 0.1741171 0.0118365
vt 0.2161468 0.01879347
vt 0.2161468 0.0118365
vt 0.2286643 0.01879347
vt 0.2240281 0.0118365
vt 0.4741483 0.1058419
vt 0.4810327 0.1277827
vt 0.4846509 0.1277827
vt 0.4785527 0.1058419
vt 0.4785527 0.1058419
vt 0.4846509 0.1277827
vt 0.5011196 0.1058419
vt 0.4936074 0.1277827
vt 0.5011196 0.1058419
vt 0.4936074 0.1277827
vt 0.497247 0.1277827
vt 0.5053346 0.1058419
vt 0.9350826 0.1132786
vt 0.9350826 0.6100985
vt 0.9629006 0.1132786
vt 0.9913236 0.6100985
vt 0.1755846 0.5052634
vt 0.1756542 0.5094825
vt 0.2153838 0.5094825
vt 0.2153859 0.5052634
vt 0.2153859 0.5052634
vt 0.2153838 0.5094825
vt 0.2266113 0.5094825
vt 0.2266135 0.5052634
vt 0.1643976 0.5052634
vt 0.1643976 0.5094825
vt 0.1756542 0.5094825
vt 0.1755846 0.5052634
vn 0 -1 -5.960328E-06
vn 8.687295E-07 -1 -4.713258E-06
vn 0 -1 -5.960328E-06
vn 0 -1 -5.960328E-06
vn 0 -1 -5.030482E-06
vn 0 -1 -5.960328E-06
vn 0 -1 0
vn 0 -1 0
vn 0 -1 0
vn -1 0 0
vn -1 0 0
vn -1 0 0
vn -1 0 -1.788139E-05
vn -1 0 -2.384185E-05
vn -1 0 -2.384185E-05
vn 0 0 -1
vn -5.960463E-06 0 -1
vn 0 0 -1
vn 2.384185E-05 0 -1
vn -4.76837E-05 0 -1
vn -4.76837E-05 0 -1
vn 1.842727E-05 0 -1
vn 1.788139E-05 0 -1
vn -9.199282E-05 0 -1
vn 0.7074196 0 0.7067938
vn 0.7074196 0 0.7067938
vn 0.7074137 0 0.7067998
vn 0.7074137 0 0.7067998
vn 0 1 0
vn -1.293237E-05 1 0
vn 0 1 -2.900386E-06
vn 0 1 0
vn -9.538344E-05 1 0.0003379842
vn 0.9999999 0.000190735 -0.0005424027
vn 0.9999999 0 -0.0005424027
vn 0.9999999 0 -0.0005446379
vn 0.9999999 0.000190735 -0.0005446379
vn 7.450588E-07 0 1
vn 7.450588E-07 0 1
vn 0 0 1
vn 0 0 1
vn 0.5326867 -0.6580352 0.5321979
vn 0.5326765 -0.6580374 0.5322056
vn 0.5326594 -0.6580456 0.5322123
vn 0.5326867 -0.6580352 0.5321979
vn 0.5338286 0.6565797 0.532851
vn 0.5338252 0.6565754 0.5328596
vn 0.5338252 0.6565754 0.5328596
vn 0.5338286 0.6565797 0.532851
vn 0.7152017 -0.6988929 -0.005942926
vn 0.7152017 -0.6988929 -0.005942926
vn 0.71519 -0.6989048 -0.005943108
vn 0.71519 -0.6989048 -0.005943027
vn 0.7156948 0.6983877 -0.005965712
vn 0.7156947 0.6983876 -0.005968206
vn 0.7156947 0.6983876 -0.005967947
vn 0.7156948 0.6983877 -0.005965712
vn -0.005510292 0.6950858 0.7189056
vn -0.005507851 0.6950859 0.7189056
vn -0.005507851 0.6950859 0.7189056
vn -0.005509341 0.6950859 0.7189056
vn -0.005476725 -0.6992089 0.7148963
vn -0.00547747 -0.6992089 0.7148963
vn -0.00547747 -0.6992089 0.7148963
vn -0.005477671 -0.6992089 0.7148963
vn -0.9097048 0 0.4152557
vn -0.9097048 0 0.4152557
vn -0.9097049 0 0.4152553
vn -0.9097049 0 0.4152553
vn -0.9114019 -0.004959118 0.4114875
vn 0.4769083 -0.006866449 -0.8789262
vn 0.4769083 -0.00686645 -0.8789262
vn 0.4769085 -0.006866453 -0.8789261
vn 0.4776951 0 -0.8785256
vn 0.4776951 0 -0.8785256
vn 0 -1 0
vn 0 -1 0
vn 0 -1 0
vn 0 -1 0
vn -2.384131E-05 -1 0
vn 0 -1 0
vn -2.384131E-05 -1 0
vn 0 -1 0
vn -0.9207944 -0.3900469 0.001081511
vn -0.9207935 -0.390049 0.001081518
vn -0.9207935 -0.390049 0.001081814
vn -0.9207944 -0.3900469 0.001081808
vn -0.6770182 -0.2866816 -0.6778348
vn -0.6770182 -0.2866816 -0.6778348
vn -0.6770225 -0.2866822 -0.6778302
vn -0.6815177 -0.283051 -0.674845
vn 0.001192093 -0.3866194 -0.9222385
vn 0.001192086 -0.3866174 -0.9222395
vn 0.001192741 -0.3866174 -0.9222395
vn 0.001192749 -0.3866194 -0.9222385
vn -1 0 3.128661E-07
vn -1 0 3.125968E-07
vn -1 0 0
vn -1 0 0
vn -0.7074744 0.008010831 -0.7066936
vn -0.7074744 0.008010831 -0.7066936
vn -0.7074804 0.008010832 -0.7066876
vn -0.7074804 0.008010832 -0.7066876
vn -0.9997889 0.01297003 0.01593239
vn -0.9997889 0.01297003 0.01593239
vn -0.9997889 0.01297003 0.01593119
vn -0.9997889 0.01297003 0.01593119
vn 0.01480845 0.01182542 -0.9998204
vn 0.01480845 0.01182542 -0.9998204
vn 0.01480562 0.01182542 -0.9998205
vn 0.01480562 0.01182542 -0.9998205
g Weapon_GunA_0
f 3/3/3 2/2/2 1/1/1
f 6/6/6 5/5/5 4/4/4
f 9/9/9 8/8/8 7/7/7
f 12/12/12 11/11/11 10/10/10
f 15/15/15 14/14/14 13/13/13
f 18/18/18 17/17/17 16/16/16
f 21/21/21 20/20/20 19/19/19
f 23/23/23 22/22/22 19/19/19
f 24/24/24 22/22/22 23/23/23
f 27/27/27 26/26/26 25/25/25
f 28/28/28 27/27/27 25/25/25
f 31/31/31 30/30/30 29/29/29
f 32/32/32 31/31/31 29/29/29
f 32/32/32 33/33/33 31/31/31
f 36/36/36 35/35/35 34/34/34
f 37/37/37 36/36/36 34/34/34
f 40/40/40 39/39/39 38/38/38
f 41/41/41 40/40/40 38/38/38
f 44/44/44 43/43/43 42/42/42
f 45/45/45 44/44/44 42/42/42
f 48/48/48 47/47/47 46/46/46
f 49/49/49 48/48/48 46/46/46
f 52/52/52 51/51/51 50/50/50
f 53/53/53 52/52/52 50/50/50
f 56/56/56 55/55/55 54/54/54
f 57/57/57 56/56/56 54/54/54
f 60/60/60 59/59/59 58/58/58
f 61/61/61 60/60/60 58/58/58
f 64/64/64 63/63/63 62/62/62
f 65/65/65 64/64/64 62/62/62
f 68/68/68 67/67/67 66/66/66
f 69/69/69 68/68/68 66/66/66
f 70/70/70 69/69/69 66/66/66
f 73/73/73 72/72/72 71/71/71
f 74/74/74 72/72/72 73/73/73
f 75/75/75 74/74/74 73/73/73
f 78/78/78 77/77/77 76/76/76
f 77/77/77 79/79/79 76/76/76
f 76/76/76 79/79/79 80/80/80
f 79/79/79 81/81/81 80/80/80
f 80/80/80 81/81/81 82/82/82
f 81/81/81 83/83/83 82/82/82
f 86/86/86 85/85/85 84/84/84
f 87/87/87 86/86/86 84/84/84
f 90/90/90 89/89/89 88/88/88
f 91/91/91 89/89/89 90/90/90
f 94/94/94 93/93/93 92/92/92
f 95/95/95 94/94/94 92/92/92
f 98/98/98 97/97/97 96/96/96
f 99/99/99 97/97/97 98/98/98
f 102/102/102 101/101/101 100/100/100
f 103/103/103 102/102/102 100/100/100
f 106/106/106 105/105/105 104/104/104
f 107/107/107 106/106/106 104/104/104
f 110/110/110 109/109/109 108/108/108
f 111/111/111 110/110/110 108/108/108
