g Weapon_GunB
v 2.027042E-06 0.195993 0.01736708
v 2.078712E-08 0.4419901 0.02064469
v 2.027824E-06 0.195993 0.02064621
v 2.025291E-06 0.2139839 0.009829178
v 2.078712E-08 0.4419901 0.02064469
v 4.842877E-09 0.4419902 0
v 2.023056E-06 0.2139839 1.792908E-06
v 0.0065565 0.1982737 0.02292693
v 0.006531884 0.4419816 0.02292543
v 0.02290007 0.4419816 0.006542807
v 0.02292469 0.1982738 0.006544304
v 0.00590602 0.4419902 0.02073216
v 2.078712E-08 0.4419901 0.02064469
v 4.842877E-09 0.4419902 0
v 0.02070691 0.4419902 0.005916052
v 0.02060912 0.4419921 3.814697E-07
v 0.02292469 0.1982738 0.006544304
v 0.02290007 0.4419816 0.006542807
v 0.02289718 0.4419816 0.001241941
v 0.0229218 0.1982738 0.001243439
v 0.003861656 0.2139839 0.009830179
v 2.023056E-06 0.2139839 1.792908E-06
v 2.025291E-06 0.2139839 0.009829178
v 0.009760096 0.2139839 0.003873434
v 0.0097556 0.2139839 8.964539E-07
v 0.001054391 0.1982737 0.02292693
v 0.001029778 0.4419816 0.02292543
v 0.006531884 0.4419816 0.02292543
v 0.0065565 0.1982737 0.02292693
v 0.0065565 0.1982737 0.02292693
v 0.02292469 0.1982738 0.006544304
v 0.02073164 0.195993 0.005918789
v 0.005930748 0.195993 0.02073379
v 0.005906017 0.4442609 0.02075872
v 0.02073228 0.4442407 0.005914859
v 0.02290007 0.4419816 0.006542807
v 0.006531884 0.4419816 0.02292543
v 0.02292469 0.1982738 0.006544304
v 0.0229218 0.1982738 0.001243439
v 0.0206413 0.195993 7.247925E-07
v 0.02073164 0.195993 0.005918789
v 0.02073228 0.4442407 0.005914859
v 0.02064159 0.4442407 2.479553E-07
v 0.02289718 0.4419816 0.001241941
v 0.02290007 0.4419816 0.006542807
v 8.530915E-09 0.444261 0.02067124
v 0.005906017 0.4442609 0.02075872
v 0.006531884 0.4419816 0.02292543
v 0.001029778 0.4419816 0.02292543
v 0.001054391 0.1982737 0.02292693
v 0.0065565 0.1982737 0.02292693
v 0.005930748 0.195993 0.02073379
v 2.027824E-06 0.195993 0.02064621
v 0.001029778 0.4419816 0.02292543
v 0.001054391 0.1982737 0.02292693
v 2.027824E-06 0.195993 0.02064621
v 2.078712E-08 0.4419901 0.02064469
v 8.530915E-09 0.444261 0.02067124
v 0.02064159 0.4442407 2.479553E-07
v 0.02060912 0.4419921 3.814697E-07
v 0.02289718 0.4419816 0.001241941
v 0.0206413 0.195993 7.247925E-07
v 0.0229218 0.1982738 0.001243439
v 0.02073164 0.195993 0.005918789
v 0.01738049 0.195993 0.003873424
v 0.003861661 0.195993 0.01737606
v 0.005930748 0.195993 0.02073379
v 0.005930748 0.195993 0.02073379
v 0.003861661 0.195993 0.01737606
v 2.027042E-06 0.195993 0.01736708
v 2.027824E-06 0.195993 0.02064621
v 0.0206413 0.195993 7.247925E-07
v 0.01737588 0.195993 8.964539E-07
v 0.01738049 0.195993 0.003873424
v 0.02073164 0.195993 0.005918789
v 0.01737588 0.195993 8.964539E-07
v 0.0097556 0.2139839 8.964539E-07
v 0.009760096 0.2139839 0.003873434
v 0.01738049 0.195993 0.003873424
v 0.01738049 0.195993 0.003873424
v 0.009760096 0.2139839 0.003873434
v 0.003861661 0.195993 0.01737606
v 0.003861656 0.2139839 0.009830179
v 0.003861661 0.195993 0.01737606
v 0.003861656 0.2139839 0.009830179
v 2.025291E-06 0.2139839 0.009829178
v 2.027042E-06 0.195993 0.01736708
v 0.0097556 0.2139839 8.964539E-07
v 4.842877E-09 0.4419902 0
v 2.023056E-06 0.2139839 1.792908E-06
v 0.02060912 0.4419921 3.814697E-07
v 0.01737588 0.195993 8.964539E-07
v 0.0206413 0.195993 7.247925E-07
v 0.005906017 0.4442609 0.02075872
v 0.00590602 0.4419902 0.02073216
v 0.02070691 0.4419902 0.005916052
v 0.02073228 0.4442407 0.005914859
v 0.02073228 0.4442407 0.005914859
v 0.02070691 0.4419902 0.005916052
v 0.02060912 0.4419921 3.814697E-07
v 0.02064159 0.4442407 2.479553E-07
v 8.530915E-09 0.444261 0.02067124
v 2.078712E-08 0.4419901 0.02064469
v 0.00590602 0.4419902 0.02073216
v 0.005906017 0.4442609 0.02075872
vt 0.980225 0.07556389
vt 0.9913236 0.6053901
vt 0.9913236 0.07556389
vt 0.9629006 0.1132786
vt 0.9913236 0.6100985
vt 0.9350826 0.6100985
vt 0.9350826 0.1132786
vt 0.1741171 0.02434587
vt 0.1741171 0.4958529
vt 0.2161468 0.4958529
vt 0.2161468 0.02434587
vt 0.8050734 0.2811045
vt 0.820308 0.2814161
vt 0.820308 0.2305424
vt 0.7709428 0.2446012
vt 0.7709428 0.2305424
vt 0.2161468 0.02434587
vt 0.2161468 0.4958529
vt 0.2257946 0.4958529
vt 0.2257946 0.02434587
vt 0.4615956 0.1347631
vt 0.4414803 0.1262606
vt 0.4615956 0.1421923
vt 0.4615955 0.1164809
vt 0.4615955 0.1090955
vt 0.1646744 0.02434587
vt 0.1636622 0.4958529
vt 0.1741171 0.4958529
vt 0.1741171 0.02434587
vt 0.1741171 0.02434587
vt 0.2161468 0.02434587
vt 0.2161468 0.01879347
vt 0.1741171 0.01879347
vt 0.1741171 0.5013118
vt 0.2161468 0.5013118
vt 0.2161468 0.4958529
vt 0.1741171 0.4958529
vt 0.2161468 0.02434587
vt 0.2257946 0.02434587
vt 0.2286643 0.01879347
vt 0.2161468 0.01879347
vt 0.2161468 0.5013118
vt 0.2286643 0.5013118
vt 0.2257946 0.4958529
vt 0.2161468 0.4958529
vt 0.1615807 0.5013118
vt 0.1741171 0.5013118
vt 0.1741171 0.4958529
vt 0.1636622 0.4958529
vt 0.1646744 0.02434587
vt 0.1741171 0.02434587
vt 0.1741171 0.01879347
vt 0.1615807 0.01879347
vt 0.1636622 0.4958529
vt 0.1646744 0.02434587
vt 0.1615807 0.01879347
vt 0.1615807 0.4958529
vt 0.1615807 0.5013118
vt 0.2286643 0.5013118
vt 0.2286643 0.4958529
vt 0.2257946 0.4958529
vt 0.2286643 0.01879347
vt 0.2257946 0.02434587
vt 0.2161468 0.01879347
vt 0.2161468 0.0118365
vt 0.1741171 0.0118365
vt 0.1741171 0.01879347
vt 0.1741171 0.01879347
vt 0.1741171 0.0118365
vt 0.166224 0.0118365
vt 0.1615807 0.01879347
vt 0.2286643 0.01879347
vt 0.2240281 0.0118365
vt 0.2161468 0.0118365
vt 0.2161468 0.01879347
vt 0.4741483 0.1058419
vt 0.4810327 0.1277827
vt 0.4846509 0.1277827
vt 0.4785527 0.1058419
vt 0.4785527 0.1058419
vt 0.4846509 0.1277827
vt 0.5011196 0.1058419
vt 0.4936074 0.1277827
vt 0.5011196 0.1058419
vt 0.4936074 0.1277827
vt 0.497247 0.1277827
vt 0.5053346 0.1058419
vt 0.9629006 0.1132786
vt 0.9350826 0.6100985
vt 0.9350826 0.1132786
vt 0.9913236 0.6100985
vt 0.980225 0.07556389
vt 0.9913236 0.07556389
vt 0.1755846 0.5052634
vt 0.1756542 0.5094825
vt 0.2153838 0.5094825
vt 0.2153859 0.5052634
vt 0.2153859 0.5052634
vt 0.2153838 0.5094825
vt 0.2266113 0.5094825
vt 0.2266135 0.5052634
vt 0.1643976 0.5052634
vt 0.1643976 0.5094825
vt 0.1756542 0.5094825
vt 0.1755846 0.5052634
vn -1 -8.158781E-06 2.385291E-07
vn -1 -8.158782E-06 2.385291E-07
vn -1 -8.158781E-06 2.385291E-07
vn -1 -8.851567E-06 2.274372E-07
vn -1 -8.828079E-06 7.722837E-07
vn -1 -8.851568E-06 2.274372E-07
vn -1 -8.851568E-06 2.274372E-07
vn 0.7074185 7.579822E-05 0.706795
vn 0.7074184 7.579822E-05 0.706795
vn 0.7074185 7.579822E-05 0.706795
vn 0.7074184 7.579823E-05 0.706795
vn 0 1 -2.90195E-06
vn -1.297277E-05 1 3.128659E-06
vn 0 1 -2.90195E-06
vn 0 1 -2.90195E-06
vn -9.255482E-05 1 0.0003379254
vn 0.9999999 0.0001010176 -0.0005448995
vn 0.9999999 0.0001010176 -0.0005448995
vn 0.9999999 0.0001010176 -0.0005448995
vn 0.9999999 0.0001010176 -0.0005448995
vn 9.120919E-07 -1 -4.711655E-06
vn 9.120919E-07 -1 -4.711655E-06
vn 0 -1 -5.028592E-06
vn 9.120919E-07 -1 -4.711655E-06
vn 0 -1 0
vn 0 6.143701E-06 1
vn 0 6.143701E-06 1
vn 0 6.143701E-06 1
vn 0 6.143701E-06 1
vn 0.5326847 -0.6580312 0.5322046
vn 0.5326847 -0.6580312 0.5322047
vn 0.5326847 -0.6580313 0.5322046
vn 0.5326847 -0.6580312 0.5322046
vn 0.5337716 0.6566642 0.532804
vn 0.5337715 0.6566641 0.5328041
vn 0.5337715 0.6566642 0.5328039
vn 0.5337716 0.6566642 0.532804
vn 0.715159 -0.6989365 -0.005942599
vn 0.715159 -0.6989366 -0.0059426
vn 0.7151591 -0.6989365 -0.0059426
vn 0.715159 -0.6989366 -0.005942599
vn 0.7157823 0.698298 -0.005968858
vn 0.7157823 0.698298 -0.005968858
vn 0.7157823 0.698298 -0.005968859
vn 0.7157823 0.698298 -0.005968858
vn -0.005509999 0.6951441 0.7188494
vn -0.005509999 0.6951441 0.7188494
vn -0.005509998 0.6951441 0.7188494
vn -0.005509999 0.6951441 0.7188494
vn -0.005477899 -0.6991777 0.714927
vn -0.005477898 -0.6991777 0.714927
vn -0.005477898 -0.6991777 0.714927
vn -0.005477898 -0.6991777 0.714927
vn -0.9097009 -4.689547E-05 0.415264
vn -0.9097009 -4.689547E-05 0.415264
vn -0.9097009 -4.689547E-05 0.415264
vn -0.9097009 -4.689547E-05 0.415264
vn -0.9113997 -0.004815869 0.411494
vn 0.4769063 -0.006938871 -0.8789269
vn 0.4769063 -0.006938871 -0.8789268
vn 0.4769063 -0.00693887 -0.8789268
vn 0.4776943 5.211169E-05 -0.8785261
vn 0.4776944 5.211169E-05 -0.8785261
vn 6.724632E-07 -1 6.22294E-07
vn 6.724633E-07 -1 6.22294E-07
vn 6.724633E-07 -1 6.222941E-07
vn 6.724632E-07 -1 6.22294E-07
vn 0 -1 2.945066E-06
vn 0 -1 2.945066E-06
vn 0 -1 2.945066E-06
vn 0 -1 2.945066E-06
vn 0 -1 0
vn 0 -1 0
vn 0 -1 0
vn 0 -1 0
vn -0.9208051 -0.3900217 0.001081451
vn -0.9208051 -0.3900217 0.001081451
vn -0.9208051 -0.3900217 0.001081451
vn -0.9208051 -0.3900217 0.001081451
vn -0.677004 -0.2867573 -0.677817
vn -0.6770039 -0.2867573 -0.677817
vn -0.6770039 -0.2867573 -0.677817
vn -0.6815173 -0.2830498 -0.6748458
vn 0.00119284 -0.3866096 -0.9222427
vn 0.00119284 -0.3866095 -0.9222427
vn 0.00119284 -0.3866096 -0.9222427
vn 0.00119284 -0.3866096 -0.9222427
vn 1.851004E-05 -3.139726E-06 -1
vn 1.851005E-05 -3.139726E-06 -1
vn -9.191027E-05 -7.864228E-06 -1
vn 1.851005E-05 -3.139726E-06 -1
vn -4.793711E-06 -2.030434E-06 -1
vn -5.256954E-05 -1.402506E-06 -1
vn -0.7074782 0.00793379 -0.7066907
vn -0.7074782 0.00793379 -0.7066907
vn -0.7074781 0.007933789 -0.7066908
vn -0.7074782 0.00793379 -0.7066907
vn -0.9997905 0.01285831 0.01593103
vn -0.9997905 0.01285831 0.01593103
vn -0.9997905 0.01285831 0.01593103
vn -0.9997905 0.01285831 0.01593103
vn 0.0148087 0.01169222 -0.9998221
vn 0.0148087 0.01169222 -0.9998221
vn 0.01480871 0.01169222 -0.9998221
vn 0.01480871 0.01169222 -0.9998221
g Weapon_GunB_0
f 3/3/3 2/2/2 1/1/1
f 1/1/1 5/5/5 4/4/4
f 5/5/5 6/6/6 4/4/4
f 4/4/4 6/6/6 7/7/7
f 10/10/10 9/9/9 8/8/8
f 11/11/11 10/10/10 8/8/8
f 14/14/14 13/13/13 12/12/12
f 15/15/15 14/14/14 12/12/12
f 15/15/15 16/16/16 14/14/14
f 19/19/19 18/18/18 17/17/17
f 20/20/20 19/19/19 17/17/17
f 23/23/23 22/22/22 21/21/21
f 21/21/21 22/22/22 24/24/24
f 24/24/24 22/22/22 25/25/25
f 28/28/28 27/27/27 26/26/26
f 29/29/29 28/28/28 26/26/26
f 32/32/32 31/31/31 30/30/30
f 33/33/33 32/32/32 30/30/30
f 36/36/36 35/35/35 34/34/34
f 37/37/37 36/36/36 34/34/34
f 40/40/40 39/39/39 38/38/38
f 41/41/41 40/40/40 38/38/38
f 44/44/44 43/43/43 42/42/42
f 45/45/45 44/44/44 42/42/42
f 48/48/48 47/47/47 46/46/46
f 49/49/49 48/48/48 46/46/46
f 52/52/52 51/51/51 50/50/50
f 53/53/53 52/52/52 50/50/50
f 56/56/56 55/55/55 54/54/54
f 57/57/57 56/56/56 54/54/54
f 58/58/58 57/57/57 54/54/54
f 61/61/61 60/60/60 59/59/59
f 62/62/62 60/60/60 61/61/61
f 63/63/63 62/62/62 61/61/61
f 66/66/66 65/65/65 64/64/64
f 67/67/67 66/66/66 64/64/64
f 70/70/70 69/69/69 68/68/68
f 71/71/71 70/70/70 68/68/68
f 74/74/74 73/73/73 72/72/72
f 75/75/75 74/74/74 72/72/72
f 78/78/78 77/77/77 76/76/76
f 79/79/79 78/78/78 76/76/76
f 82/82/82 81/81/81 80/80/80
f 83/83/83 81/81/81 82/82/82
f 86/86/86 85/85/85 84/84/84
f 87/87/87 86/86/86 84/84/84
f 90/90/90 89/89/89 88/88/88
f 88/88/88 89/89/89 91/91/91
f 92/92/92 88/88/88 91/91/91
f 93/93/93 92/92/92 91/91/91
f 96/96/96 95/95/95 94/94/94
f 97/97/97 96/96/96 94/94/94
f 100/100/100 99/99/99 98/98/98
f 101/101/101 100/100/100 98/98/98
f 104/104/104 103/103/103 102/102/102
f 105/105/105 104/104/104 102/102/102
