g Weapon_Ball
v -0.02642172 -0.0311113 0.4236946
v -0.02027841 -0.03658478 0.4317712
v -0.01688562 -0.03540047 0.4188369
v -0.03079515 -0.02855965 0.4340528
v -0.0253055 -0.02664345 0.4131247
v -0.03390211 -0.02241562 0.4225286
v -0.009820804 -0.0400917 0.4272269
v -0.02388952 -0.03317268 0.4426169
v -0.01262606 -0.03926048 0.4399696
v -0.01490545 -0.0300367 0.4083669
v -0.006098728 -0.03698204 0.4150856
v -0.03766908 -0.01884132 0.4332686
v -0.03285902 -0.02382118 0.4443591
v -0.0321166 -0.01690323 0.4121009
v -0.02229757 -0.02013466 0.4040959
v -0.03883635 -0.01200081 0.422188
v -0.0009422874 -0.04154213 0.4358873
v 0.002205944 -0.04044319 0.4238853
v -0.0151079 -0.03457535 0.4513832
v -0.02486658 -0.02712875 0.4535004
v -0.004047184 -0.03893486 0.4476655
v -0.03874109 -0.01269882 0.4440875
v -0.04162405 -0.006997452 0.433394
v -0.03245611 -0.0172567 0.4538287
v -0.03603334 -0.005046081 0.4120807
v -0.04084887 -0.0006597138 0.4226983
v -0.02805643 -0.008969192 0.4033545
v -0.0145043 -0.0264788 0.4623328
v -0.005023441 -0.03229111 0.4592896
v -0.02291563 -0.018638 0.4631712
v -0.03653932 -0.004468918 0.4539285
v -0.04071459 0.0007809448 0.4445511
v -0.04182512 0.005984039 0.4343224
v -0.02961718 -0.009365768 0.461741
v -0.01240576 -0.01554695 0.4702004
v -0.0211025 -0.006703949 0.469045
v -0.02952238 0.00205307 0.4633327
v -0.03552126 0.008494186 0.4545182
v -0.002647037 -0.02299354 0.4680833
v -0.03840422 0.01419525 0.4438248
v -0.03978639 0.01074432 0.4240212
v -0.03791513 0.0186499 0.4322023
v -0.03633547 0.007900085 0.4133943
v -0.03452234 0.01983429 0.419268
v -0.03015318 0.004467468 0.4042879
v -0.02908983 0.01744652 0.4083156
v -0.03173449 0.02021996 0.4524937
v -0.03319219 0.0251487 0.4404722
v -0.03144533 0.02763207 0.4277554
v -0.02666487 0.02742714 0.4155882
v -0.02721483 0.01332832 0.4626434
v -0.02007574 0.005148392 0.4699275
v -0.01101599 -0.003519058 0.4736331
v -0.0009224128 -0.01182571 0.4733973
v -0.02584272 0.03319176 0.4367004
v -0.02515451 0.03015526 0.4487616
v -0.02227156 0.02445404 0.4594551
v -0.01745001 0.01659485 0.4678308
v -0.009030094 0.007837829 0.473543
v 0.0008439827 0.0004131317 0.4751373
v -0.02244997 0.03437607 0.4237662
v -0.01556089 0.0376207 0.4441084
v -0.01341112 0.03366936 0.4547242
v -0.01027506 0.02716782 0.4637146
v -0.00639143 0.01861084 0.4703949
v 0.003348636 0.01299866 0.4729571
v 0.002579212 0.02494522 0.4668829
v -0.0002890587 0.03361877 0.4584148
v -0.01656069 0.03872093 0.432675
v -0.003172016 0.03931991 0.4477212
v -0.005813541 0.04154213 0.4357524
v -0.01007124 0.03953689 0.4231802
v -0.01584013 0.03340645 0.4132525
v -0.01931879 0.02455376 0.4051616
v -0.02111292 0.01352341 0.3995895
v -0.02171011 0.0007073212 0.3973953
v -0.01762689 -0.01208054 0.3972955
v -0.01072668 -0.02219315 0.3995949
v -0.002913723 -0.03031891 0.4048955
v 0.005117779 -0.03573578 0.4127261
v -0.007863216 0.02948334 0.4045263
v -0.01012613 0.01929321 0.3974961
v -0.01130041 0.008413544 0.393865
v -0.011649 -0.003093872 0.3932413
v -0.004693623 -0.01227745 0.3937036
v 0.0025844 -0.02051392 0.3971855
v -0.0007836341 0.0003884125 0.3915835
v 1.321793E-05 0.01216057 0.3933424
v 0.007759189 -0.0085083 0.3933257
v 0.009631137 -0.02717583 0.4034219
v 0.0007719994 0.02295532 0.3983632
v 0.01010683 0.003853912 0.3931067
v 0.01557215 -0.01663399 0.3986264
v 0.01128874 0.01493027 0.3960817
v 0.01916655 -0.004813537 0.3968123
v 0.02100889 0.007451706 0.3982626
v 0.01591009 -0.03175636 0.411938
v 0.02196104 -0.02326691 0.407014
v 0.02630568 -0.01299347 0.4040963
v 0.01465826 -0.03711716 0.4220685
v 0.02506796 -0.02941093 0.4185383
v 0.01225595 -0.03963974 0.4330592
v 0.02882185 -0.0006741333 0.4035632
v 0.03082525 -0.0198851 0.4142461
v 0.02410173 -0.03350159 0.4302643
v 0.00888609 -0.03913193 0.4440736
v 0.03403341 -0.008725052 0.4115123
v 0.032283 -0.02481384 0.4262675
v 0.0209535 -0.03460037 0.4422662
v 0.004805164 -0.03563263 0.4542732
v 0.015903 -0.03261001 0.4534777
v 0.007306423 -0.02838219 0.4628816
v 0.03053617 -0.02729721 0.4389844
v 0.03714041 -0.01486908 0.4230365
v 0.02575567 -0.02709229 0.4511515
v 0.009216938 -0.01895836 0.4692436
v 0.01840959 -0.02421875 0.4615782
v 0.03735144 -0.01754158 0.435201
v 0.01060267 -0.007033539 0.4730202
v 0.03420324 -0.01864052 0.447203
v 0.02797544 -0.01806816 0.4579759
v 0.01937883 -0.01384041 0.4673799
v 0.01279917 0.006409683 0.4725059
v 0.02124082 -0.0006545258 0.4690756
v 0.02803091 -0.007656097 0.4629271
v 0.03515036 -0.00749527 0.4538597
v 0.03955946 -0.006751175 0.4432324
v 0.01358545 0.01918869 0.4678276
v 0.03098814 0.003267059 0.4607196
v 0.02334413 0.0117421 0.4657104
v 0.01131891 0.02939346 0.4608197
v 0.03750975 0.004775314 0.4502144
v 0.04092253 -0.005480423 0.4318545
v 0.03155188 0.01395416 0.4564302
v 0.02256189 0.02278053 0.4599246
v 0.008782329 0.03711174 0.4505761
v 0.04065794 0.005874328 0.4382124
v 0.03913587 -0.003779755 0.4205919
v 0.03663061 0.01586143 0.4445346
v 0.02967916 0.02359161 0.4503852
v 0.01916235 0.03161682 0.4526669
v 0.005341549 0.04121384 0.4386485
v 0.0401531 0.006466141 0.4257802
v 0.03807913 0.01623253 0.4315462
v 0.03307188 0.024776 0.437451
v 0.02551252 0.03144623 0.4430452
v 0.01605543 0.03776077 0.4411427
v 0.00241869 0.04127136 0.4264077
v 0.03589544 0.004460831 0.413208
v 0.024652 0.03353302 0.4317387
v 0.01433477 0.03904983 0.4294085
v -0.002849712 0.03735588 0.414461
v 0.03553831 0.01599853 0.4192226
v 0.02988791 0.01237457 0.4073588
v 0.0103956 0.03734833 0.4176817
v 0.004554157 0.0323439 0.4071814
v 0.03154593 0.02591652 0.4256747
v 0.02188032 0.03307991 0.4205564
v 0.02772535 0.02412445 0.4139221
v 0.02157061 0.01935913 0.4034896
v 0.01157671 0.02488266 0.4018951
v 0.01740839 0.03012146 0.4103496
vt 0.636384 0.174462
vt 0.643596 0.202414
vt 0.665187 0.176267
vt 0.612023 0.189936
vt 0.646985 0.147612
vt 0.61412 0.156092
vt 0.672798 0.204542
vt 0.619114 0.218404
vt 0.650583 0.229592
vt 0.676159 0.149136
vt 0.693174 0.177957
vt 0.589214 0.171553
vt 0.588453 0.205054
vt 0.624618 0.128751
vt 0.657367 0.121467
vt 0.592506 0.138248
vt 0.682493 0.234155
vt 0.703679 0.208487
vt 0.624782 0.249033
vt 0.593852 0.236756
vt 0.657556 0.256784
vt 0.561967 0.18654
vt 0.563985 0.153313
vt 0.564644 0.220025
vt 0.601901 0.107409
vt 0.570845 0.120365
vt 0.634108 0.099146
vt 0.597651 0.272424
vt 0.630536 0.281882
vt 0.567206 0.25683
vt 0.532438 0.202118
vt 0.531271 0.167949
vt 0.536658 0.134171
vt 0.539901 0.235779
vt 0.566519 0.293003
vt 0.532075 0.267651
vt 0.507727 0.22934
vt 0.499404 0.187394
vt 0.606315 0.308736
vt 0.502059 0.144696
vt 0.548236 0.10169
vt 0.515512 0.104099
vt 0.577943 0.084183
vt 0.544419 0.069099
vt 0.610089 0.072504
vt 0.58174 0.048213
vt 0.469426 0.164098
vt 0.481048 0.112895
vt 0.507679 0.068193
vt 0.546542 0.033592
vt 0.474617 0.216346
vt 0.495507 0.264001
vt 0.529783 0.30315
vt 0.57489 0.330039
vt 0.515512 0.104099
vt 0.502059 0.144696
vt 0.499404 0.187394
vt 0.507727 0.22934
vt 0.532075 0.267651
vt 0.566519 0.293003
vt 0.544419 0.069099
vt 0.536658 0.134171
vt 0.531271 0.167949
vt 0.532438 0.202118
vt 0.539901 0.235779
vt 0.567206 0.25683
vt 0.564644 0.220025
vt 0.561967 0.18654
vt 0.548236 0.10169
vt 0.563985 0.153313
vt 0.570845 0.120365
vt 0.577943 0.084183
vt 0.58174 0.048213
vt 0.594629 0.012499
vt 0.623171 0.037532
vt 0.643867 0.067184
vt 0.667571 0.095364
vt 0.689566 0.120991
vt 0.707389 0.149033
vt 0.721182 0.179757
vt 0.623171 0.037532
vt 0.646922 0.007719
vt 0.665943 0.037775
vt 0.678356 0.068136
vt 0.704197 0.090996
vt 0.725264 0.117964
vt 0.708178 0.05445
vt 0.697677 0.01923
vt 0.739584 0.083497
vt 0.740739 0.148478
vt 0.665943 0.037775
vt 0.742607 0.045502
vt 0.762546 0.119616
vt 0.708178 0.05445
vt 0.777533 0.08473
vt 0.739584 0.083497
vt 0.750455 0.181568
vt 0.775517 0.16038
vt 0.798232 0.133001
vt 0.73671 0.213198
vt 0.772698 0.205694
vt 0.717566 0.241548
vt 0.762546 0.119616
vt 0.802956 0.184831
vt 0.754774 0.244534
vt 0.693337 0.265705
vt 0.775517 0.16038
vt 0.791845 0.235674
vt 0.727519 0.277526
vt 0.664869 0.285178
vt 0.692762 0.302462
vt 0.648793 0.313785
vt 0.765328 0.281006
vt 0.772698 0.205694
vt 0.725817 0.315604
vt 0.626195 0.341256
vt 0.677985 0.336114
vt 0.754774 0.244534
vt 0.606315 0.308736
vt 0.727519 0.277526
vt 0.692762 0.302462
vt 0.648793 0.313785
vt 0.597651 0.272424
vt 0.630536 0.281882
vt 0.664869 0.285178
vt 0.693337 0.265705
vt 0.717566 0.241548
vt 0.593852 0.236756
vt 0.657556 0.256784
vt 0.624782 0.249033
vt 0.588453 0.205054
vt 0.682493 0.234155
vt 0.73671 0.213198
vt 0.650583 0.229592
vt 0.619114 0.218404
vt 0.589214 0.171553
vt 0.703679 0.208487
vt 0.750455 0.181568
vt 0.672798 0.204542
vt 0.643596 0.202414
vt 0.612023 0.189936
vt 0.592506 0.138248
vt 0.721182 0.179757
vt 0.693174 0.177957
vt 0.665187 0.176267
vt 0.636384 0.174462
vt 0.61412 0.156092
vt 0.601901 0.107409
vt 0.740739 0.148478
vt 0.646985 0.147612
vt 0.624618 0.128751
vt 0.610089 0.072504
vt 0.707389 0.149033
vt 0.725264 0.117964
vt 0.634108 0.099146
vt 0.643867 0.067184
vt 0.676159 0.149136
vt 0.657367 0.121467
vt 0.689566 0.120991
vt 0.704197 0.090996
vt 0.678356 0.068136
vt 0.667571 0.095364
vn -0.6213971 -0.7485042 -0.2315322
vn -0.4756189 -0.8787546 -0.03971061
vn -0.395012 -0.8506184 -0.3470073
vn -0.7254771 -0.6880937 0.01449562
vn -0.5950539 -0.642567 -0.4827199
vn -0.7992926 -0.5421213 -0.2592989
vn -0.2215453 -0.9640995 -0.1463887
vn -0.5600615 -0.7976153 0.2239217
vn -0.2918464 -0.9434312 0.1573634
vn -0.3438901 -0.7221593 -0.6001878
vn -0.1358516 -0.8889809 -0.4373296
vn -0.8916214 -0.4527805 -0.001015738
vn -0.775382 -0.5744557 0.2622654
vn -0.7580203 -0.4061472 -0.5103427
vn -0.5229817 -0.486355 -0.6999636
vn -0.918231 -0.2919677 -0.267594
vn -0.006933685 -0.9981861 0.05980276
vn 0.06758872 -0.9721737 -0.224299
vn -0.350226 -0.8293531 0.4353334
vn -0.5812244 -0.6530833 0.4854486
vn -0.08454911 -0.9354258 0.3432637
vn -0.9174617 -0.3033834 0.2573377
vn -0.9857044 -0.1684308 0.004209244
vn -0.7655357 -0.41578 0.4910011
vn -0.8502191 -0.1211393 -0.5123014
vn -0.9667158 -0.01793785 -0.2552229
vn -0.6613959 -0.2140046 -0.7188584
vn -0.3362105 -0.6376491 0.6930845
vn -0.1108401 -0.7760215 0.6208905
vn -0.5363156 -0.4513534 0.713194
vn -0.8643783 -0.1101541 0.4906284
vn -0.9634273 0.01468211 0.2675674
vn -0.9900739 0.1384142 0.02439736
vn -0.6978663 -0.2281295 0.6789252
vn -0.2874344 -0.3800189 0.8791855
vn -0.4949656 -0.1672166 0.8526709
vn -0.6975048 0.04343129 0.7152627
vn -0.841548 0.1962772 0.5032617
vn -0.05643464 -0.5562896 0.8290701
vn -0.909791 0.3312295 0.2501343
vn -0.941216 0.2531084 -0.2237155
vn -0.8978024 0.4395275 -0.02768328
vn -0.8578816 0.1845562 -0.4795605
vn -0.8161898 0.4680148 -0.3388161
vn -0.7106928 0.1028999 -0.6959364
vn -0.6865134 0.4091659 -0.6010678
vn -0.748533 0.4798605 0.4576377
vn -0.7834584 0.5965121 0.1742596
vn -0.7416136 0.657235 -0.1343556
vn -0.6251014 0.6517883 -0.4294418
vn -0.6423978 0.31756 0.6974818
vn -0.4695373 0.1191964 0.8748297
vn -0.2494028 -0.09116907 0.9640988
vn -0.0111941 -0.2869994 0.9578653
vn -0.6053581 0.7917922 0.08128147
vn -0.5872862 0.7197034 0.3702998
vn -0.5190439 0.5847507 0.6234261
vn -0.4050592 0.3956965 0.8242278
vn -0.202519 0.1850498 0.9616354
vn 0.03506852 0.008455026 0.9993492
vn -0.5237455 0.8202792 -0.2298533
vn -0.3612505 0.895865 0.2586966
vn -0.3100538 0.8017054 0.5110136
vn -0.2355558 0.647297 0.7249276
vn -0.1420699 0.4413514 0.8860164
vn 0.09250938 0.3060984 0.9474946
vn 0.07115234 0.5920531 0.8027518
vn -0.0007640976 0.8008256 0.5988972
vn -0.3854219 0.9225906 -0.0166277
vn -0.06900714 0.9357784 0.3457697
vn -0.1300269 0.9898978 0.05652684
vn -0.2290568 0.9420077 -0.2452641
vn -0.3640087 0.7976406 -0.4809026
vn -0.4514227 0.5835702 -0.6750284
vn -0.4976898 0.3163012 -0.8076252
vn -0.5100925 0.01351034 -0.8600134
vn -0.4100666 -0.2917032 -0.8641497
vn -0.2414255 -0.5344742 -0.8099697
vn -0.056482 -0.7268221 -0.6844994
vn 0.1351412 -0.8587421 -0.4942661
vn -0.1751857 0.7047769 -0.6874588
vn -0.2347995 0.4598332 -0.8564009
vn -0.2619797 0.1954516 -0.9450742
vn -0.2678836 -0.07804412 -0.9602851
vn -0.1003294 -0.2991688 -0.9489111
vn 0.0727254 -0.4949085 -0.8658964
vn -0.009003391 0.002411605 -0.9999566
vn 0.01119601 0.2869966 -0.9578662
vn 0.1944142 -0.2118271 -0.9577748
vn 0.2403101 -0.6534501 -0.7178119
vn 0.0304628 0.5477154 -0.8361099
vn 0.2560603 0.08526983 -0.9628927
vn 0.3793555 -0.4041744 -0.8323054
vn 0.2834407 0.3546744 -0.8909924
vn 0.469539 -0.1191967 -0.8748287
vn 0.516921 0.1766484 -0.8376085
vn 0.3916095 -0.7639429 -0.5128677
vn 0.5338145 -0.5621403 -0.6316963
vn 0.6383464 -0.3123174 -0.7035422
vn 0.361367 -0.8928401 -0.2687941
vn 0.608552 -0.7099346 -0.3544816
vn 0.3041663 -0.9525899 -0.00743431
vn 0.7018635 -0.01569862 -0.7121385
vn 0.7485337 -0.4798601 -0.4576371
vn 0.5838213 -0.8085116 -0.07390231
vn 0.2241075 -0.9407516 0.2544839
vn 0.8262581 -0.2098766 -0.5227327
vn 0.7833576 -0.5990888 -0.1656602
vn 0.5092992 -0.8345242 0.2101993
vn 0.1258685 -0.8567002 0.5002218
vn 0.3898231 -0.7862827 0.4793721
vn 0.1830336 -0.684583 0.7055811
vn 0.7416138 -0.6572348 0.1343555
vn 0.9009948 -0.3576715 -0.2455187
vn 0.6293176 -0.6528582 0.4215868
vn 0.228076 -0.4555266 0.8605097
vn 0.4514215 -0.5835704 0.6750292
vn 0.9063271 -0.4200369 0.04626374
vn 0.2660643 -0.1678163 0.9492352
vn 0.8318052 -0.4460495 0.3303634
vn 0.6822683 -0.4340192 0.5883343
vn 0.4754777 -0.3323187 0.814546
vn 0.317162 0.1493788 0.9365332
vn 0.517983 -0.01856828 0.8551894
vn 0.6816643 -0.1872161 0.7073076
vn 0.8529313 -0.1832983 0.4887842
vn 0.9575422 -0.165564 0.2360116
vn 0.3354709 0.4511245 0.8270102
vn 0.7521421 0.07240928 0.6550109
vn 0.5664717 0.2748557 0.776894
vn 0.2823356 0.6996216 0.6563659
vn 0.909763 0.1060224 0.4013609
vn 0.9901922 -0.1353872 -0.03449183
vn 0.7658722 0.3306432 0.5514661
vn 0.5499944 0.5395064 0.6375257
vn 0.218435 0.8843398 0.4125884
vn 0.9842846 0.1320359 0.1172612
vn 0.9474043 -0.09445929 -0.3057821
vn 0.8885111 0.3730199 0.2672158
vn 0.7205629 0.5621091 0.4059832
vn 0.4707031 0.7527702 0.4601911
vn 0.1394852 0.9821093 0.1265112
vn 0.9718326 0.149097 -0.1825144
vn 0.921864 0.3850954 -0.04322414
vn 0.8011693 0.5902445 0.0986875
vn 0.6213968 0.7485049 0.2315306
vn 0.3968884 0.8987411 0.1863978
vn 0.0664779 0.9830706 -0.1707422
vn 0.8691356 0.1040031 -0.4835149
vn 0.6011285 0.7982942 -0.03702385
vn 0.3520353 0.9309739 -0.09673919
vn -0.05731595 0.8899243 -0.4524927
vn 0.8602135 0.3773904 -0.3429419
vn 0.7261008 0.2921189 -0.6224501
vn 0.2553003 0.890206 -0.3772996
vn 0.1187325 0.7709643 -0.6257129
vn 0.7661658 0.6149611 -0.1865819
vn 0.5347374 0.7877213 -0.305861
vn 0.6752732 0.5697351 -0.4684103
vn 0.5284978 0.4582813 -0.7146106
vn 0.2879113 0.5914408 -0.7531964
vn 0.4266221 0.716133 -0.5524012
g Weapon_Ball_0
f 3/3/3 2/2/2 1/1/1
f 2/2/2 4/4/4 1/1/1
f 5/5/5 3/3/3 1/1/1
f 4/4/4 6/6/6 1/1/1
f 6/6/6 5/5/5 1/1/1
f 7/7/7 2/2/2 3/3/3
f 8/8/8 4/4/4 2/2/2
f 7/7/7 9/9/9 2/2/2
f 9/9/9 8/8/8 2/2/2
f 10/10/10 3/3/3 5/5/5
f 11/11/11 7/7/7 3/3/3
f 10/10/10 11/11/11 3/3/3
f 12/12/12 6/6/6 4/4/4
f 8/8/8 13/13/13 4/4/4
f 13/13/13 12/12/12 4/4/4
f 14/14/14 5/5/5 6/6/6
f 15/15/15 10/10/10 5/5/5
f 14/14/14 15/15/15 5/5/5
f 12/12/12 16/16/16 6/6/6
f 16/16/16 14/14/14 6/6/6
f 17/17/17 9/9/9 7/7/7
f 18/18/18 7/7/7 11/11/11
f 18/18/18 17/17/17 7/7/7
f 19/19/19 8/8/8 9/9/9
f 20/20/20 13/13/13 8/8/8
f 19/19/19 20/20/20 8/8/8
f 17/17/17 21/21/21 9/9/9
f 21/21/21 19/19/19 9/9/9
f 22/22/22 12/12/12 13/13/13
f 23/23/23 16/16/16 12/12/12
f 22/22/22 23/23/23 12/12/12
f 20/20/20 24/24/24 13/13/13
f 24/24/24 22/22/22 13/13/13
f 25/25/25 14/14/14 16/16/16
f 23/23/23 26/26/26 16/16/16
f 26/26/26 25/25/25 16/16/16
f 25/25/25 27/27/27 14/14/14
f 27/27/27 15/15/15 14/14/14
f 28/28/28 20/20/20 19/19/19
f 29/29/29 19/19/19 21/21/21
f 29/29/29 28/28/28 19/19/19
f 30/30/30 24/24/24 20/20/20
f 28/28/28 30/30/30 20/20/20
f 31/31/31 22/22/22 24/24/24
f 32/32/32 23/23/23 22/22/22
f 31/31/31 32/32/32 22/22/22
f 33/33/33 26/26/26 23/23/23
f 32/32/32 33/33/33 23/23/23
f 30/30/30 34/34/34 24/24/24
f 34/34/34 31/31/31 24/24/24
f 30/30/30 28/28/28 35/35/35
f 34/34/34 30/30/30 36/36/36
f 30/30/30 35/35/35 36/36/36
f 31/31/31 34/34/34 37/37/37
f 36/36/36 37/37/37 34/34/34
f 32/32/32 31/31/31 38/38/38
f 31/31/31 37/37/37 38/38/38
f 28/28/28 29/29/29 39/39/39
f 28/28/28 39/39/39 35/35/35
f 33/33/33 32/32/32 40/40/40
f 32/32/32 38/38/38 40/40/40
f 33/33/33 41/41/41 26/26/26
f 33/33/33 40/40/40 42/42/42
f 41/41/41 33/33/33 42/42/42
f 41/41/41 43/43/43 26/26/26
f 43/43/43 25/25/25 26/26/26
f 42/42/42 44/44/44 41/41/41
f 43/43/43 41/41/41 44/44/44
f 43/43/43 45/45/45 25/25/25
f 45/45/45 27/27/27 25/25/25
f 43/43/43 44/44/44 46/46/46
f 45/45/45 43/43/43 46/46/46
f 40/40/40 38/38/38 47/47/47
f 42/42/42 40/40/40 48/48/48
f 40/40/40 47/47/47 48/48/48
f 49/49/49 44/44/44 42/42/42
f 48/48/48 49/49/49 42/42/42
f 46/46/46 44/44/44 50/50/50
f 49/49/49 50/50/50 44/44/44
f 38/38/38 51/51/51 47/47/47
f 38/38/38 37/37/37 51/51/51
f 52/52/52 51/51/51 37/37/37
f 52/52/52 37/37/37 36/36/36
f 53/53/53 52/52/52 36/36/36
f 36/36/36 35/35/35 53/53/53
f 35/35/35 54/54/54 53/53/53
f 35/35/35 39/39/39 54/54/54
f 49/49/49 48/48/48 55/55/55
f 47/47/47 56/56/56 48/48/48
f 56/56/56 55/55/55 48/48/48
f 51/51/51 57/57/57 47/47/47
f 57/57/57 56/56/56 47/47/47
f 51/51/51 52/52/52 58/58/58
f 58/58/58 57/57/57 51/51/51
f 52/52/52 53/53/53 59/59/59
f 58/58/58 52/52/52 59/59/59
f 54/54/54 60/60/60 53/53/53
f 60/60/60 59/59/59 53/53/53
f 61/61/61 49/49/49 55/55/55
f 50/50/50 49/49/49 61/61/61
f 56/56/56 62/62/62 55/55/55
f 57/57/57 63/63/63 56/56/56
f 63/63/63 62/62/62 56/56/56
f 58/58/58 64/64/64 57/57/57
f 64/64/64 63/63/63 57/57/57
f 58/58/58 59/59/59 65/65/65
f 65/65/65 64/64/64 58/58/58
f 66/66/66 65/65/65 59/59/59
f 60/60/60 66/66/66 59/59/59
f 64/64/64 65/65/65 67/67/67
f 65/65/65 66/66/66 67/67/67
f 63/63/63 64/64/64 68/68/68
f 68/68/68 64/64/64 67/67/67
f 61/61/61 55/55/55 69/69/69
f 62/62/62 69/69/69 55/55/55
f 62/62/62 63/63/63 70/70/70
f 70/70/70 63/63/63 68/68/68
f 69/69/69 62/62/62 71/71/71
f 71/71/71 62/62/62 70/70/70
f 69/69/69 72/72/72 61/61/61
f 72/72/72 69/69/69 71/71/71
f 61/61/61 72/72/72 73/73/73
f 61/61/61 73/73/73 50/50/50
f 50/50/50 73/73/73 74/74/74
f 46/46/46 50/50/50 74/74/74
f 75/75/75 46/46/46 74/74/74
f 45/45/45 46/46/46 75/75/75
f 76/76/76 45/45/45 75/75/75
f 45/45/45 76/76/76 27/27/27
f 76/76/76 77/77/77 27/27/27
f 27/27/27 77/77/77 15/15/15
f 77/77/77 78/78/78 15/15/15
f 78/78/78 10/10/10 15/15/15
f 78/78/78 79/79/79 10/10/10
f 79/79/79 11/11/11 10/10/10
f 79/79/79 80/80/80 11/11/11
f 80/80/80 18/18/18 11/11/11
f 73/73/73 81/81/81 74/74/74
f 75/75/75 74/74/74 82/82/82
f 74/74/74 81/81/81 82/82/82
f 76/76/76 75/75/75 83/83/83
f 83/83/83 75/75/75 82/82/82
f 76/76/76 84/84/84 77/77/77
f 84/84/84 76/76/76 83/83/83
f 85/85/85 78/78/78 77/77/77
f 84/84/84 85/85/85 77/77/77
f 86/86/86 79/79/79 78/78/78
f 85/85/85 86/86/86 78/78/78
f 83/83/83 87/87/87 84/84/84
f 85/85/85 84/84/84 87/87/87
f 82/82/82 88/88/88 83/83/83
f 88/88/88 87/87/87 83/83/83
f 85/85/85 87/87/87 89/89/89
f 86/86/86 85/85/85 89/89/89
f 86/86/86 90/90/90 79/79/79
f 90/90/90 80/80/80 79/79/79
f 88/88/88 82/82/82 91/91/91
f 81/81/81 91/91/91 82/82/82
f 88/88/88 92/92/92 87/87/87
f 89/89/89 87/87/87 92/92/92
f 86/86/86 89/89/89 93/93/93
f 90/90/90 86/86/86 93/93/93
f 94/94/94 88/88/88 91/91/91
f 92/92/92 88/88/88 94/94/94
f 89/89/89 92/92/92 95/95/95
f 93/93/93 89/89/89 95/95/95
f 94/94/94 96/96/96 92/92/92
f 92/92/92 96/96/96 95/95/95
f 90/90/90 97/97/97 80/80/80
f 90/90/90 93/93/93 98/98/98
f 97/97/97 90/90/90 98/98/98
f 93/93/93 95/95/95 99/99/99
f 98/98/98 93/93/93 99/99/99
f 97/97/97 100/100/100 80/80/80
f 100/100/100 18/18/18 80/80/80
f 98/98/98 101/101/101 97/97/97
f 100/100/100 97/97/97 101/101/101
f 100/100/100 102/102/102 18/18/18
f 102/102/102 17/17/17 18/18/18
f 96/96/96 103/103/103 95/95/95
f 95/95/95 103/103/103 99/99/99
f 99/99/99 104/104/104 98/98/98
f 104/104/104 101/101/101 98/98/98
f 100/100/100 101/101/101 105/105/105
f 102/102/102 100/100/100 105/105/105
f 102/102/102 106/106/106 17/17/17
f 106/106/106 21/21/21 17/17/17
f 103/103/103 107/107/107 99/99/99
f 104/104/104 99/99/99 107/107/107
f 104/104/104 108/108/108 101/101/101
f 105/105/105 101/101/101 108/108/108
f 102/102/102 105/105/105 109/109/109
f 106/106/106 102/102/102 109/109/109
f 106/106/106 110/110/110 21/21/21
f 110/110/110 29/29/29 21/21/21
f 110/110/110 106/106/106 111/111/111
f 106/106/106 109/109/109 111/111/111
f 29/29/29 110/110/110 112/112/112
f 111/111/111 112/112/112 110/110/110
f 29/29/29 112/112/112 39/39/39
f 109/109/109 105/105/105 113/113/113
f 105/105/105 108/108/108 113/113/113
f 108/108/108 104/104/104 114/114/114
f 114/114/114 104/104/104 107/107/107
f 111/111/111 109/109/109 115/115/115
f 109/109/109 113/113/113 115/115/115
f 39/39/39 112/112/112 116/116/116
f 39/39/39 116/116/116 54/54/54
f 117/117/117 112/112/112 111/111/111
f 115/115/115 117/117/117 111/111/111
f 117/117/117 116/116/116 112/112/112
f 108/108/108 118/118/118 113/113/113
f 114/114/114 118/118/118 108/108/108
f 116/116/116 119/119/119 54/54/54
f 119/119/119 60/60/60 54/54/54
f 113/113/113 120/120/120 115/115/115
f 118/118/118 120/120/120 113/113/113
f 117/117/117 115/115/115 121/121/121
f 120/120/120 121/121/121 115/115/115
f 116/116/116 117/117/117 122/122/122
f 122/122/122 119/119/119 116/116/116
f 122/122/122 117/117/117 121/121/121
f 119/119/119 123/123/123 60/60/60
f 123/123/123 66/66/66 60/60/60
f 122/122/122 124/124/124 119/119/119
f 124/124/124 123/123/123 119/119/119
f 122/122/122 121/121/121 125/125/125
f 125/125/125 124/124/124 122/122/122
f 120/120/120 126/126/126 121/121/121
f 126/126/126 125/125/125 121/121/121
f 118/118/118 127/127/127 120/120/120
f 127/127/127 126/126/126 120/120/120
f 66/66/66 123/123/123 128/128/128
f 67/67/67 66/66/66 128/128/128
f 124/124/124 125/125/125 129/129/129
f 125/125/125 126/126/126 129/129/129
f 123/123/123 124/124/124 130/130/130
f 128/128/128 123/123/123 130/130/130
f 130/130/130 124/124/124 129/129/129
f 67/67/67 128/128/128 131/131/131
f 68/68/68 67/67/67 131/131/131
f 129/129/129 126/126/126 132/132/132
f 126/126/126 127/127/127 132/132/132
f 133/133/133 127/127/127 118/118/118
f 114/114/114 133/133/133 118/118/118
f 130/130/130 129/129/129 134/134/134
f 129/129/129 132/132/132 134/134/134
f 128/128/128 130/130/130 135/135/135
f 131/131/131 128/128/128 135/135/135
f 135/135/135 130/130/130 134/134/134
f 136/136/136 68/68/68 131/131/131
f 70/70/70 68/68/68 136/136/136
f 132/132/132 127/127/127 137/137/137
f 127/127/127 133/133/133 137/137/137
f 138/138/138 133/133/133 114/114/114
f 114/114/114 107/107/107 138/138/138
f 134/134/134 132/132/132 139/139/139
f 132/132/132 137/137/137 139/139/139
f 135/135/135 134/134/134 140/140/140
f 134/134/134 139/139/139 140/140/140
f 131/131/131 135/135/135 141/141/141
f 136/136/136 131/131/131 141/141/141
f 141/141/141 135/135/135 140/140/140
f 142/142/142 70/70/70 136/136/136
f 71/71/71 70/70/70 142/142/142
f 133/133/133 138/138/138 143/143/143
f 137/137/137 133/133/133 143/143/143
f 139/139/139 137/137/137 144/144/144
f 137/137/137 143/143/143 144/144/144
f 140/140/140 139/139/139 145/145/145
f 139/139/139 144/144/144 145/145/145
f 141/141/141 140/140/140 146/146/146
f 140/140/140 145/145/145 146/146/146
f 147/147/147 136/136/136 141/141/141
f 147/147/147 141/141/141 146/146/146
f 142/142/142 136/136/136 147/147/147
f 148/148/148 71/71/71 142/142/142
f 148/148/148 72/72/72 71/71/71
f 138/138/138 149/149/149 143/143/143
f 149/149/149 138/138/138 107/107/107
f 103/103/103 149/149/149 107/107/107
f 145/145/145 150/150/150 146/146/146
f 150/150/150 147/147/147 146/146/146
f 151/151/151 142/142/142 147/147/147
f 151/151/151 148/148/148 142/142/142
f 150/150/150 151/151/151 147/147/147
f 152/152/152 72/72/72 148/148/148
f 72/72/72 152/152/152 73/73/73
f 73/73/73 152/152/152 81/81/81
f 143/143/143 149/149/149 153/153/153
f 143/143/143 153/153/153 144/144/144
f 154/154/154 149/149/149 103/103/103
f 149/149/149 154/154/154 153/153/153
f 96/96/96 154/154/154 103/103/103
f 155/155/155 148/148/148 151/151/151
f 155/155/155 152/152/152 148/148/148
f 152/152/152 156/156/156 81/81/81
f 156/156/156 152/152/152 155/155/155
f 81/81/81 156/156/156 91/91/91
f 144/144/144 153/153/153 157/157/157
f 144/144/144 157/157/157 145/145/145
f 145/145/145 157/157/157 150/150/150
f 158/158/158 151/151/151 150/150/150
f 158/158/158 155/155/155 151/151/151
f 157/157/157 158/158/158 150/150/150
f 153/153/153 159/159/159 157/157/157
f 153/153/153 154/154/154 159/159/159
f 157/157/157 159/159/159 158/158/158
f 160/160/160 154/154/154 96/96/96
f 154/154/154 160/160/160 159/159/159
f 94/94/94 160/160/160 96/96/96
f 94/94/94 91/91/91 161/161/161
f 161/161/161 160/160/160 94/94/94
f 156/156/156 161/161/161 91/91/91
f 162/162/162 155/155/155 158/158/158
f 159/159/159 162/162/162 158/158/158
f 159/159/159 160/160/160 162/162/162
f 160/160/160 161/161/161 162/162/162
f 162/162/162 156/156/156 155/155/155
f 161/161/161 156/156/156 162/162/162
