g Weapon_Screen
v 0.0003576503 0.09396528 0.1150673
v 0.0003576243 0.2418701 0.137752
v 0.0003576411 0.1147539 0.137752
v 0.0003576224 0.2642983 0.1150531
v 0.0003576599 0.2642983 -0.115053
v 0.0003576878 0.09396528 -0.1150672
v 0.000357686 0.1147539 -0.1377519
v 0.0003576692 0.2418701 -0.1377519
v -0.0003576503 0.09396528 0.1150673
v -0.0003576411 0.1147539 0.137752
v -0.0003576243 0.2418701 0.137752
v -0.0003576224 0.2642983 0.1150531
v -0.0003576599 0.2642983 -0.115053
v -0.0003576878 0.09396528 -0.1150672
v -0.000357686 0.1147539 -0.1377519
v -0.0003576692 0.2418701 -0.1377519
v 0.0003576236 0.2437879 0.1397283
v 0.0003576224 0.2642983 0.1150531
v 0.0003576218 0.2664854 0.1162113
v 0.0003576597 0.2664854 -0.1162112
v 0.0003576243 0.2418701 0.137752
v 0.0003576599 0.2642983 -0.115053
v 0.0003576411 0.1128178 0.1397283
v 0.0003576692 0.2437879 -0.1397282
v 0.0003576411 0.1147539 0.137752
v 0.0003576692 0.2418701 -0.1377519
v 0.0003576866 0.1128178 -0.1397282
v 0.000357686 0.1147539 -0.1377519
v 0.0003576883 0.09177811 -0.1162241
v 0.0003576878 0.09396528 -0.1150672
v 0.0003576505 0.09177811 0.1162242
v 0.0003576503 0.09396528 0.1150673
v -0.0003576236 0.2437879 0.1397283
v -0.0003576218 0.2664854 0.1162113
v -0.0003576224 0.2642983 0.1150531
v -0.0003576597 0.2664854 -0.1162112
v -0.0003576243 0.2418701 0.137752
v -0.0003576599 0.2642983 -0.115053
v -0.0003576411 0.1128178 0.1397283
v -0.0003576692 0.2437879 -0.1397282
v -0.0003576411 0.1147539 0.137752
v -0.0003576692 0.2418701 -0.1377519
v -0.0003576866 0.1128178 -0.1397282
v -0.000357686 0.1147539 -0.1377519
v -0.0003576883 0.09177811 -0.1162241
v -0.0003576878 0.09396528 -0.1150672
v -0.0003576505 0.09177811 0.1162242
v -0.0003576503 0.09396528 0.1150673
vt 0.9035497 0.2574196
vt 0.9816343 0.7665265
vt 0.9816343 0.3289766
vt 0.9035007 0.8437271
vt 0.1114444 0.8437272
vt 0.1113954 0.2574196
vt 0.03331131 0.3289767
vt 0.03331131 0.7665267
vt 0.9035497 0.2574196
vt 0.9816343 0.3289766
vt 0.9816343 0.7665265
vt 0.9035007 0.8437271
vt 0.1114444 0.8437272
vt 0.1113954 0.2574196
vt 0.03331131 0.3289767
vt 0.03331131 0.7665267
vt 0.1325622 0.09385872
vt 0.1238171 0.1029813
vt 0.1242276 0.1039541
vt 0.04185306 0.1039541
vt 0.1318618 0.09300575
vt 0.04226356 0.1029813
vt 0.1325622 0.03560687
vt 0.03351825 0.09385878
vt 0.1318618 0.03646795
vt 0.03421866 0.09300582
vt 0.03351824 0.0356069
vt 0.03421865 0.03646798
vt 0.04184846 0.02624899
vt 0.04225849 0.02722178
vt 0.1242321 0.02624898
vt 0.1238221 0.02722177
vt 0.1325622 0.09385872
vt 0.1242276 0.1039541
vt 0.1238171 0.1029813
vt 0.04185306 0.1039541
vt 0.1318618 0.09300575
vt 0.04226356 0.1029813
vt 0.1325622 0.03560687
vt 0.03351825 0.09385878
vt 0.1318618 0.03646795
vt 0.03421866 0.09300582
vt 0.03351824 0.0356069
vt 0.03421865 0.03646798
vt 0.04184846 0.02624899
vt 0.04225849 0.02722178
vt 0.1242321 0.02624898
vt 0.1238221 0.02722177
vn -1 -1.593288E-07 -1.643361E-07
vn -1 -1.504227E-07 -1.671407E-07
vn -1 -1.504227E-07 -1.671407E-07
vn -1 -1.594715E-07 -1.642912E-07
vn -1 -1.594663E-07 -1.617504E-07
vn -1 -1.593234E-07 -1.617158E-07
vn -1 -1.504071E-07 -1.595559E-07
vn -1 -1.504071E-07 -1.595559E-07
vn 1 -1.593288E-07 -1.643361E-07
vn 1 -1.504227E-07 -1.671406E-07
vn 1 -1.504227E-07 -1.671406E-07
vn 1 -1.594715E-07 -1.642912E-07
vn 1 -1.594663E-07 -1.617504E-07
vn 1 -1.593234E-07 -1.617158E-07
vn 1 -1.504071E-07 -1.595559E-07
vn 1 -1.504071E-07 -1.595559E-07
vn -1 -1.780179E-07 -1.315227E-07
vn -1 -1.807304E-07 -1.40759E-07
vn -1 -1.834493E-07 -1.375722E-07
vn -1 -1.817551E-07 -1.898331E-07
vn -1 -1.605683E-07 -1.427993E-07
vn -1 -1.792491E-07 -1.864537E-07
vn -1 -1.786277E-07 -1.992116E-07
vn -1 -1.759675E-07 -1.9435E-07
vn -1 -1.61408E-07 -1.848404E-07
vn -1 -1.593066E-07 -1.809889E-07
vn -1 -1.807111E-07 -1.266527E-07
vn -1 -1.627111E-07 -1.389973E-07
vn -1 -1.861943E-07 -1.33369E-07
vn -1 -1.82643E-07 -1.376721E-07
vn -1 -1.844416E-07 -1.94056E-07
vn -1 -1.811455E-07 -1.895211E-07
vn 1 -1.780179E-07 -1.315227E-07
vn 1 -1.834493E-07 -1.375722E-07
vn 1 -1.807304E-07 -1.40759E-07
vn 1 -1.817551E-07 -1.898331E-07
vn 1 -1.605683E-07 -1.427993E-07
vn 1 -1.792491E-07 -1.864537E-07
vn 1 -1.786277E-07 -1.992116E-07
vn 1 -1.759675E-07 -1.943501E-07
vn 1 -1.61408E-07 -1.848404E-07
vn 1 -1.593066E-07 -1.80989E-07
vn 1 -1.807111E-07 -1.266527E-07
vn 1 -1.627111E-07 -1.389974E-07
vn 1 -1.861943E-07 -1.33369E-07
vn 1 -1.82643E-07 -1.376721E-07
vn 1 -1.844416E-07 -1.94056E-07
vn 1 -1.811455E-07 -1.895211E-07
g Weapon_Screen_0
f 3/3/3 2/2/2 1/1/1
f 2/2/2 4/4/4 1/1/1
f 4/4/4 5/5/5 1/1/1
f 5/5/5 6/6/6 1/1/1
f 7/7/7 6/6/6 5/5/5
f 8/8/8 7/7/7 5/5/5
f 11/11/11 10/10/10 9/9/9
f 12/12/12 11/11/11 9/9/9
f 13/13/13 12/12/12 9/9/9
f 14/14/14 13/13/13 9/9/9
f 14/14/14 15/15/15 13/13/13
f 15/15/15 16/16/16 13/13/13
f 19/19/19 18/18/18 17/17/17
f 18/18/18 19/19/19 20/20/20
f 18/18/18 21/21/21 17/17/17
f 22/22/22 18/18/18 20/20/20
f 17/17/17 21/21/21 23/23/23
f 22/22/22 20/20/20 24/24/24
f 21/21/21 25/25/25 23/23/23
f 26/26/26 22/22/22 24/24/24
f 26/26/26 24/24/24 27/27/27
f 28/28/28 26/26/26 27/27/27
f 28/28/28 27/27/27 29/29/29
f 30/30/30 28/28/28 29/29/29
f 23/23/23 25/25/25 31/31/31
f 30/30/30 29/29/29 31/31/31
f 25/25/25 32/32/32 31/31/31
f 32/32/32 30/30/30 31/31/31
f 35/35/35 34/34/34 33/33/33
f 34/34/34 35/35/35 36/36/36
f 37/37/37 35/35/35 33/33/33
f 35/35/35 38/38/38 36/36/36
f 37/37/37 33/33/33 39/39/39
f 36/36/36 38/38/38 40/40/40
f 41/41/41 37/37/37 39/39/39
f 38/38/38 42/42/42 40/40/40
f 40/40/40 42/42/42 43/43/43
f 42/42/42 44/44/44 43/43/43
f 43/43/43 44/44/44 45/45/45
f 44/44/44 46/46/46 45/45/45
f 41/41/41 39/39/39 47/47/47
f 45/45/45 46/46/46 47/47/47
f 48/48/48 41/41/41 47/47/47
f 46/46/46 48/48/48 47/47/47
