g å¹³é¢
v 0.02885284 0.02349695 0
v 0.02885284 0.03262871 -0.002983665
v 0.04029114 0.03262871 -0.002983665
v 0.04029114 0.02328306 0.001011639
v -0.01 0 0
v -0.01 0.01 -0.002983665
v 0.02885284 0.03262871 -0.002983665
v 0.02885284 0.02349695 0
v -0.01 -0.05 -0.01065649
v -0.01 -0.04 0
v 0.02885284 -0.006862072 0
v 0.02885284 -0.009272956 -0.004752507
v -0.01 -0.04 0
v -0.01 0 0
v 0.02885284 0.02349695 0
v 0.02885284 -0.006862072 0
v 0.02885284 -0.009272956 -0.004752507
v 0.02885284 -0.006862072 0
v 0.04029114 -0.002631428 0.001011639
v 0.04029114 -0.008545914 0
v 0.02885284 -0.006862072 0
v 0.02885284 0.02349695 0
v 0.04029114 0.02328306 0.001011639
v 0.04029114 -0.002631428 0.001011639
vt 0.5 0.6666667
vt 0.5 1
vt 1 1
vt 1 0.6666667
vt 0 0.6666666
vt 0 1
vt 0.5 1
vt 0.5 0.6666667
vt 0 0
vt 0 0.3333333
vt 0.5 0.3333333
vt 0.5 0
vt 0 0.3333333
vt 0 0.6666666
vt 0.5 0.6666667
vt 0.5 0.3333333
vt 0.5 0
vt 0.5 0.3333333
vt 1 0.3333333
vt 1 0
vt 0.5 0.3333333
vt 0.5 0.6666667
vt 1 0.6666667
vt 1 0.3333333
vn -0.03803789 0.3530835 0.9348182
vn -0.03803789 0.3530835 0.9348182
vn -0.03803789 0.3530835 0.9348182
vn -0.03803789 0.3530835 0.9348182
vn -0.1740504 0.2932144 0.94007
vn -0.1740504 0.2932144 0.94007
vn -0.1740504 0.2932144 0.94007
vn -0.1740504 0.2932144 0.94007
vn 0.5693994 -0.6402222 0.5156548
vn 0.5693994 -0.6402222 0.5156548
vn 0.5693994 -0.6402222 0.5156548
vn 0.5693994 -0.6402222 0.5156548
vn 0 0 1
vn 0 0 1
vn 0 0 1
vn 0 0 1
vn -0.08350544 -0.5672505 0.8193007
vn -0.08350544 -0.5672505 0.8193007
vn -0.08350544 -0.5672505 0.8193007
vn -0.08350544 -0.5672505 0.8193007
vn -0.08809924 0 0.9961117
vn -0.08809924 0 0.9961117
vn -0.08809924 0 0.9961117
vn -0.08809924 0 0.9961117
g å¹³é¢_0
f 3/3/3 2/2/2 1/1/1
f 4/4/4 3/3/3 1/1/1
f 7/7/7 6/6/6 5/5/5
f 8/8/8 7/7/7 5/5/5
f 11/11/11 10/10/10 9/9/9
f 12/12/12 11/11/11 9/9/9
f 15/15/15 14/14/14 13/13/13
f 16/16/16 15/15/15 13/13/13
f 19/19/19 18/18/18 17/17/17
f 20/20/20 19/19/19 17/17/17
f 23/23/23 22/22/22 21/21/21
f 24/24/24 23/23/23 21/21/21
