g 平面.033
v -0.3408847 0.04774988 0.05000001
v -0.3225834 0.1160512 0.05000002
v -0.3225834 0.1160512 0
v -0.3090294 0.1666353 0.05000002
v -0.3136858 0.1492572 0.02230785
v -0.3141908 0.1473727 0.0225
v -0.316779 0.1377135 3.799796E-09
v -0.3225834 0.1160512 0
v -0.3225834 0.1160512 0.05000002
v -0.4731089 -0.06323086 0.05000002
v -0.3501666 -0.09617315 0.05000002
v -0.3501666 -0.09617315 -0.09999999
v -0.4731089 -0.06323086 -0.09999999
v -0.5960512 -0.03028856 -0.09999999
v -0.5960512 -0.03028856 0.05000002
v -0.3501666 -0.09617315 0.05000002
v -0.3428461 -0.06885266 -0.09999999
v -0.3501666 -0.09617315 -0.09999999
v -0.3428462 -0.06885262 0.05000002
v -0.3245449 -0.0005513239 -0.04999999
v -0.3428461 -0.06885266 -0.09999999
v -0.3245449 -0.0005513239 0.05000002
v -0.3135641 0.04042938 -0.04999997
v -0.3135641 0.0404294 0.05000001
v -0.2952629 0.1087307 0
v -0.2679424 0.1014102 -0.09999999
v -0.3155257 -0.07617313 -0.09999999
v -0.2972244 -0.00787188 -0.04999999
v -0.2862436 0.03310888 -0.04999997
v -0.2679424 0.1014102 0
v -0.2276796 0.251673 -0.09999999
v -0.2276796 0.251673 0
v -0.3167292 0.1378991 0.01445091
v -0.3650256 0.15084 0.01445091
v -0.3650753 0.1506544 0.0125
v -0.316779 0.1377135 0.01249999
v -0.3116523 0.1568464 0.01445091
v -0.3599486 0.1697874 0.01445091
v -0.3600959 0.1692377 0.01632684
v -0.3117996 0.1562967 0.01632684
v -0.316779 0.1377135 0.01249999
v -0.3650753 0.1506544 0.0125
v -0.3650753 0.1506544 8.568168E-09
v -0.316779 0.1377135 3.799796E-09
v -0.316582 0.1384487 0.01632684
v -0.3648782 0.1513897 0.01632684
v -0.3650256 0.15084 0.01445091
v -0.3167292 0.1378991 0.01445091
v -0.3117996 0.1562967 0.01632684
v -0.3600959 0.1692377 0.01632684
v -0.3603351 0.1683451 0.01805571
v -0.3120388 0.1554041 0.0180557
v -0.3136858 0.1492572 0.02230785
v -0.3619822 0.1621982 0.02230786
v -0.3624871 0.1603137 0.0225
v -0.3141908 0.1473727 0.0225
v -0.3163428 0.1393414 0.0180557
v -0.364639 0.1522824 0.01805571
v -0.3648782 0.1513897 0.01632684
v -0.316582 0.1384487 0.01632684
v -0.3120388 0.1554041 0.0180557
v -0.3603351 0.1683451 0.01805571
v -0.3606569 0.1671439 0.01957107
v -0.3123607 0.1542029 0.01957107
v -0.3160209 0.1405426 0.01957107
v -0.3643172 0.1534836 0.01957107
v -0.364639 0.1522824 0.01805571
v -0.3163428 0.1393414 0.0180557
v -0.3123607 0.1542029 0.01957107
v -0.3606569 0.1671439 0.01957107
v -0.3610491 0.1656801 0.0208147
v -0.3127528 0.1527392 0.02081469
v -0.3156287 0.1420063 0.02081469
v -0.363925 0.1549473 0.0208147
v -0.3643172 0.1534836 0.01957107
v -0.3160209 0.1405426 0.01957107
v -0.3127528 0.1527392 0.02081469
v -0.3610491 0.1656801 0.0208147
v -0.3614967 0.1640101 0.0217388
v -0.3132003 0.1510692 0.0217388
v -0.3151813 0.1436763 0.0217388
v -0.3634776 0.1566173 0.0217388
v -0.363925 0.1549473 0.0208147
v -0.3156287 0.1420063 0.02081469
v -0.3132003 0.1510692 0.0217388
v -0.3614967 0.1640101 0.0217388
v -0.3619822 0.1621982 0.02230786
v -0.3136858 0.1492572 0.02230785
v -0.3146957 0.1454883 0.02230785
v -0.362992 0.1584293 0.02230786
v -0.3634776 0.1566173 0.0217388
v -0.3151813 0.1436763 0.0217388
v -0.3116026 0.157032 3.799796E-09
v -0.3598989 0.169973 8.568168E-09
v -0.3598989 0.169973 0.0125
v -0.3116026 0.157032 0.01249999
v -0.3116026 0.157032 0.01249999
v -0.3598989 0.169973 0.0125
v -0.3599486 0.1697874 0.01445091
v -0.3116523 0.1568464 0.01445091
v -0.3141908 0.1473727 0.0225
v -0.3624871 0.1603137 0.0225
v -0.362992 0.1584293 0.02230786
v -0.3146957 0.1454883 0.02230785
v -0.3598989 0.169973 8.568168E-09
v -0.3116026 0.157032 3.799796E-09
v -0.316779 0.1377135 3.799796E-09
v -0.3650753 0.1506544 8.568168E-09
v -0.3146957 0.1454883 0.02230785
v -0.3175071 0.1349959 0.05000002
v -0.3090294 0.1666353 0.05000002
v -0.3141908 0.1473727 0.0225
v -0.3225834 0.1160512 0.05000002
v -0.3175071 0.1349959 0.05000002
v -0.316779 0.1377135 3.799796E-09
v -0.316779 0.1377135 0.01249999
v -0.3167292 0.1378991 0.01445091
v -0.316582 0.1384487 0.01632684
v -0.3163428 0.1393414 0.0180557
v -0.3160209 0.1405426 0.01957107
v -0.3156287 0.1420063 0.02081469
v -0.3151813 0.1436763 0.0217388
v -0.3146957 0.1454883 0.02230785
v -0.2823206 0.266314 0
v -0.3116026 0.157032 3.799796E-09
v -0.3116026 0.157032 0.01249999
v -0.3090294 0.1666353 0.05000002
v -0.2823206 0.266314 0.05000002
v -0.3132003 0.1510692 0.0217388
v -0.3136858 0.1492572 0.02230785
v -0.3090294 0.1666353 0.05000002
v -0.3127528 0.1527392 0.02081469
v -0.3123607 0.1542029 0.01957107
v -0.3120388 0.1554041 0.0180557
v -0.3117996 0.1562967 0.01632684
v -0.3116523 0.1568464 0.01445091
v -0.3116026 0.157032 0.01249999
v -0.2952629 0.1087307 0
v -0.3225834 0.1160512 0
v -0.2823206 0.266314 0
v -0.3135641 0.0404294 0.05000001
v -0.3408847 0.04774988 0.05000001
v -0.3225834 0.1160512 0
v -0.2952629 0.1087307 0
v -0.3245449 -0.0005513239 -0.04999999
v -0.2972244 -0.00787188 -0.04999999
v -0.3155257 -0.07617313 -0.09999999
v -0.3428461 -0.06885266 -0.09999999
v -0.2823206 0.266314 0
v -0.2276796 0.251673 0
v -0.2679424 0.1014102 0
v -0.2952629 0.1087307 0
v -0.3155257 -0.07617313 -0.09999999
v -0.3228462 -0.1034937 -0.09999999
v -0.3501666 -0.09617315 -0.09999999
v -0.3428461 -0.06885266 -0.09999999
v -0.3779424 0.2919357 0.05000002
v -0.2823206 0.266314 0.05000002
v -0.3090294 0.1666353 0.05000002
v -0.3175071 0.1349959 0.05000002
v -0.3225834 0.1160512 0.05000002
v -0.3408847 0.04774988 0.05000001
v -0.4365064 0.07337168 0.05000002
v -0.3518654 0.006769137 0.05000001
v -0.4474872 0.03239094 0.05000002
v -0.4657884 -0.03591034 0.05000002
v -0.3518654 0.006769137 0.05000001
v -0.3428462 -0.06885262 0.05000002
v -0.3245449 -0.0005513239 0.05000002
v -0.2952629 0.1087307 0
v -0.2679424 0.1014102 0
v -0.2862436 0.03310888 -0.04999997
v -0.3135641 0.04042938 -0.04999997
v -0.3135641 0.04042938 -0.04999997
v -0.2862436 0.03310888 -0.04999997
v -0.2972244 -0.00787188 -0.04999999
v -0.3245449 -0.0005513239 -0.04999999
v -0.3135641 0.0404294 0.05000001
v -0.3245449 -0.0005513239 0.05000002
v -0.3518654 0.006769137 0.05000001
v -0.3408847 0.04774988 0.05000001
v -0.3501666 -0.09617315 0.05000002
v -0.4731089 -0.06323086 0.05000002
v -0.4657884 -0.03591034 0.05000002
v -0.3428462 -0.06885262 0.05000002
vt 0 0.6666666
vt 0.5 0
vt 0 1
vt 0 0
vt 0.28125 0.5
vt 0.25 0.5
vt 0.5 0.5
vt 0 1
vt 0.5 0
vt 0 0
vt 0 0
vt 0 0
vt 0 0
vt 0 0
vt 0 0
vt 0 0
vt 0 0
vt 0.5 0
vt 0.5 0
vt 1 0
vt 1 0
vt 0.25 0
vt 1 0
vt 0.8333333 0
vt 1 0
vt 1 1
vt 1 1
vt 0.8333333 1
vt 0.6666666 1
vt 0.5 1
vt 1 1
vt 0 1
vt 0.46875 0.5
vt 0.46875 0.5
vt 0.5 0.5
vt 0.5 0.5
vt 0.46875 0.5
vt 0.46875 0.5
vt 0.4375 0.5
vt 0.4375 0.5
vt 0.5 0.5
vt 0.5 0.5
vt 0.5 0.5
vt 0.5 0.5
vt 0.4375 0.5
vt 0.4375 0.5
vt 0.46875 0.5
vt 0.46875 0.5
vt 0.4375 0.5
vt 0.4375 0.5
vt 0.40625 0.5
vt 0.40625 0.5
vt 0.28125 0.5
vt 0.28125 0.5
vt 0.25 0.5
vt 0.25 0.5
vt 0.40625 0.5
vt 0.40625 0.5
vt 0.4375 0.5
vt 0.4375 0.5
vt 0.40625 0.5
vt 0.40625 0.5
vt 0.375 0.5
vt 0.375 0.5
vt 0.375 0.5
vt 0.375 0.5
vt 0.40625 0.5
vt 0.40625 0.5
vt 0.375 0.5
vt 0.375 0.5
vt 0.34375 0.5
vt 0.34375 0.5
vt 0.34375 0.5
vt 0.34375 0.5
vt 0.375 0.5
vt 0.375 0.5
vt 0.34375 0.5
vt 0.34375 0.5
vt 0.3125 0.5
vt 0.3125 0.5
vt 0.3125 0.5
vt 0.3125 0.5
vt 0.34375 0.5
vt 0.34375 0.5
vt 0.3125 0.5
vt 0.3125 0.5
vt 0.28125 0.5
vt 0.28125 0.5
vt 0.28125 0.5
vt 0.28125 0.5
vt 0.3125 0.5
vt 0.3125 0.5
vt 0.5 0.5
vt 0.5 0.5
vt 0.5 0.5
vt 0.5 0.5
vt 0.5 0.5
vt 0.5 0.5
vt 0.46875 0.5
vt 0.46875 0.5
vt 0.25 0.5
vt 0.25 0.5
vt 0.28125 0.5
vt 0.28125 0.5
vt 0.5 0.5
vt 0.5 0.5
vt 0.5 0.5
vt 0.5 0.5
vt 0.28125 0.5
vt 0.1810028 0.3217827
vt 0 0
vt 0.25 0.5
vt 0.5 0
vt 0.1810028 0.3217827
vt 0.5 0.5
vt 0.5 0.5
vt 0.46875 0.5
vt 0.4375 0.5
vt 0.40625 0.5
vt 0.375 0.5
vt 0.34375 0.5
vt 0.3125 0.5
vt 0.28125 0.5
vt 0 0
vt 0.5 0.5
vt 0.5 0.5
vt 0.8085847 0
vt 1 0
vt 0.3125 0.5
vt 0.28125 0.5
vt 0.8085847 0
vt 0.34375 0.5
vt 0.375 0.5
vt 0.40625 0.5
vt 0.4375 0.5
vt 0.46875 0.5
vt 0.5 0.5
vt 0.5 0
vt 0 1
vt 1 1
vt 0.8333333 0
vt 0.8333333 1
vt 1 1
vt 1 0
vt 0.8333333 0
vt 0.8333333 1
vt 1 1
vt 1 0
vt 1 1
vt 0 1
vt 0.5 1
vt 0.5 0
vt 1 1
vt 0.75 0.5
vt 0.5 0
vt 0 0
vt 1 1
vt 1 0
vt 0.8085847 0
vt 0.6155708 0
vt 0.5 0
vt 0.3437499 0
vt 0.75 1
vt 0.5833333 0.5
vt 0.5 1
vt 0 1
vt 0.3055555 0.222222
vt 0 0
vt 0.25 0
vt 0.5 0
vt 0.5 1
vt 0.6666666 1
vt 0.6666666 0
vt 0.6666666 0
vt 0.6666666 1
vt 0.8333333 1
vt 0.8333333 0
vt 0.8333333 0
vt 0.6666666 0
vt 0.5833333 0.5
vt 0.3437499 0
vt 0 0
vt 0 1
vt 1 1
vt 1 0
vn 0.9659261 -0.2588179 0
vn 0.9659261 -0.2588179 0
vn 0.9659261 -0.2588179 0
vn 0.9659263 -0.2588173 0
vn 0.9659263 -0.2588173 0
vn 0.9659263 -0.2588173 0
vn 0.9659256 -0.2588197 -2.749367E-07
vn 0.9659256 -0.2588197 -2.749367E-07
vn 0.9659256 -0.2588197 -2.749367E-07
vn -0.2588191 -0.9659258 0
vn -0.2588191 -0.9659258 0
vn -0.2588191 -0.9659258 0
vn -0.2588191 -0.9659258 0
vn -0.2588191 -0.9659258 0
vn -0.2588191 -0.9659258 0
vn 0.9659257 -0.2588193 1.676645E-07
vn 0.9659257 -0.2588193 1.498363E-07
vn 0.9659257 -0.2588193 1.676645E-07
vn 0.9659257 -0.2588192 1.440932E-07
vn 0.9659257 -0.2588191 1.20522E-07
vn 0.9659257 -0.2588193 1.498363E-07
vn 0.9659257 -0.2588191 1.20522E-07
vn 0.9659257 -0.2588191 1.20522E-07
vn 0.9659257 -0.2588191 1.20522E-07
vn 0.9659257 -0.2588191 1.20522E-07
vn 0.9659258 -0.258819 0
vn 0.9659258 -0.258819 0
vn 0.9659258 -0.258819 0
vn 0.9659258 -0.258819 0
vn 0.9659258 -0.258819 0
vn 0.9659258 -0.258819 0
vn 0.9659258 -0.258819 0
vn 0.2575727 0.9612737 -0.09802563
vn 0.2575727 0.9612737 -0.09802563
vn 0.2575727 0.9612737 -0.09802563
vn 0.2575727 0.9612737 -0.09802563
vn -0.2476761 -0.9243372 -0.290271
vn -0.2476761 -0.9243372 -0.290271
vn -0.2476761 -0.9243372 -0.290271
vn -0.2476761 -0.9243372 -0.290271
vn 0.2588187 0.9659258 0
vn 0.2588187 0.9659258 0
vn 0.2588187 0.9659258 0
vn 0.2588187 0.9659258 0
vn 0.247677 0.9243406 -0.2902596
vn 0.247677 0.9243406 -0.2902596
vn 0.247677 0.9243406 -0.2902596
vn 0.247677 0.9243406 -0.2902596
vn -0.2282572 -0.8518652 -0.4714068
vn -0.2282572 -0.8518652 -0.4714068
vn -0.2282572 -0.8518652 -0.4714068
vn -0.2282572 -0.8518652 -0.4714068
vn -0.02536829 -0.09467482 -0.995185
vn -0.02536829 -0.09467482 -0.995185
vn -0.02536829 -0.09467482 -0.995185
vn -0.02536829 -0.09467482 -0.995185
vn 0.2282525 0.8518478 -0.4714403
vn 0.2282525 0.8518478 -0.4714403
vn 0.2282525 0.8518478 -0.4714403
vn 0.2282525 0.8518478 -0.4714403
vn -0.2000718 -0.7466751 -0.6343876
vn -0.2000718 -0.7466751 -0.6343876
vn -0.2000718 -0.7466751 -0.6343876
vn -0.2000718 -0.7466751 -0.6343876
vn 0.2000768 0.746695 -0.6343625
vn 0.2000768 0.746695 -0.6343625
vn 0.2000768 0.746695 -0.6343625
vn 0.2000768 0.746695 -0.6343625
vn -0.1641956 -0.6127841 -0.7730041
vn -0.1641956 -0.6127841 -0.7730041
vn -0.1641956 -0.6127841 -0.7730041
vn -0.1641956 -0.6127841 -0.7730041
vn 0.1641929 0.6127755 -0.7730115
vn 0.1641929 0.6127755 -0.7730115
vn 0.1641929 0.6127755 -0.7730115
vn 0.1641929 0.6127755 -0.7730115
vn -0.1220044 -0.4553255 -0.8819261
vn -0.1220044 -0.4553255 -0.8819261
vn -0.1220044 -0.4553255 -0.8819261
vn -0.1220044 -0.4553255 -0.8819261
vn 0.1220056 0.4553311 -0.881923
vn 0.1220056 0.4553311 -0.881923
vn 0.1220056 0.4553311 -0.881923
vn 0.1220056 0.4553311 -0.881923
vn -0.07513214 -0.2803971 -0.9569393
vn -0.07513214 -0.2803971 -0.9569393
vn -0.07513214 -0.2803971 -0.9569393
vn -0.07513214 -0.2803971 -0.9569393
vn 0.07513022 0.2803898 -0.9569414
vn 0.07513022 0.2803898 -0.9569414
vn 0.07513022 0.2803898 -0.9569414
vn 0.07513022 0.2803898 -0.9569414
vn -0.2588195 -0.9659257 0
vn -0.2588195 -0.9659257 0
vn -0.2588195 -0.9659257 0
vn -0.2588195 -0.9659257 0
vn -0.2575735 -0.9612747 -0.09801371
vn -0.2575735 -0.9612747 -0.09801371
vn -0.2575735 -0.9612747 -0.09801371
vn -0.2575735 -0.9612747 -0.09801371
vn 0.0253689 0.09467857 -0.9951846
vn 0.0253689 0.09467857 -0.9951846
vn 0.0253689 0.09467857 -0.9951846
vn 0.0253689 0.09467857 -0.9951846
vn 0 0 1
vn 0 0 1
vn 0 0 1
vn 0 0 1
vn 0.9659263 -0.2588173 0
vn 0.9659263 -0.2588173 0
vn 0.9659263 -0.2588173 0
vn 0.9659263 -0.2588173 0
vn 0.9659256 -0.2588197 -2.749367E-07
vn 0.9659256 -0.2588197 -2.749367E-07
vn 0.9659256 -0.2588197 -2.749367E-07
vn 0.9659256 -0.2588197 -2.749367E-07
vn 0.9659256 -0.2588197 -2.749367E-07
vn 0.9659256 -0.2588197 -2.749367E-07
vn 0.9659256 -0.2588197 -2.749367E-07
vn 0.9659256 -0.2588197 -2.749367E-07
vn 0.9659256 -0.2588197 -2.749367E-07
vn 0.9659256 -0.2588197 -2.749367E-07
vn 0.9659256 -0.2588197 -2.749367E-07
vn 0.9659257 -0.2588192 0
vn 0.9659257 -0.2588192 0
vn 0.9659257 -0.2588192 0
vn 0.9659257 -0.2588192 0
vn 0.9659257 -0.2588192 0
vn 0.9659257 -0.2588192 0
vn 0.9659257 -0.2588192 0
vn 0.9659257 -0.2588192 0
vn 0.9659257 -0.2588192 0
vn 0.9659257 -0.2588192 0
vn 0.9659257 -0.2588192 0
vn 0.9659257 -0.2588192 0
vn 0.9659257 -0.2588192 0
vn 0.9659257 -0.2588192 0
vn 0 0 1
vn 0 0 1
vn 0 0 1
vn 0.1494292 0.5576771 0.8164968
vn 0.1494292 0.5576771 0.8164968
vn 0.1494292 0.5576771 0.8164968
vn 0.1494292 0.5576771 0.8164968
vn -0.1494296 -0.5576771 0.8164968
vn -0.1494296 -0.5576771 0.8164968
vn -0.1494296 -0.5576771 0.8164968
vn -0.1494296 -0.5576771 0.8164968
vn 0 0 1
vn 0 0 1
vn 0 0 1
vn 0 0 1
vn 0 0 1
vn 0 0 1
vn 0 0 1
vn 0 0 1
vn 0 0 1
vn 0 0 1
vn 0 0 1
vn 0 0 1
vn 0 0 1
vn 0 0 1
vn 0 0 1
vn 0 0 1
vn 0 0 1
vn 0 0 1
vn 0 0 1
vn 0 0 1
vn 0 0 1
vn -0.1494294 -0.5576771 0.8164968
vn -0.1494294 -0.5576771 0.8164968
vn -0.1494294 -0.5576771 0.8164968
vn -0.1494294 -0.5576771 0.8164968
vn -1.589457E-07 -2.820516E-07 1
vn -1.589457E-07 -2.820516E-07 1
vn -1.589457E-07 -2.820516E-07 1
vn -1.589457E-07 -2.820516E-07 1
vn 0 0 1
vn 0 0 1
vn 0 0 1
vn 0 0 1
vn 0 0 1
vn 0 0 1
vn 0 0 1
vn 0 0 1
g 平面.033_0
f 3/3/3 2/2/2 1/1/1
f 6/6/6 5/5/5 4/4/4
f 9/9/9 8/8/8 7/7/7
f 12/12/12 11/11/11 10/10/10
f 13/13/13 12/12/12 10/10/10
f 14/14/14 13/13/13 10/10/10
f 10/10/10 15/15/15 14/14/14
f 18/18/18 17/17/17 16/16/16
f 17/17/17 19/19/19 16/16/16
f 19/19/19 21/21/21 20/20/20
f 20/20/20 22/22/22 19/19/19
f 20/20/20 23/23/23 22/22/22
f 23/23/23 24/24/24 22/22/22
f 23/23/23 25/25/25 24/24/24
f 28/28/28 27/27/27 26/26/26
f 26/26/26 29/29/29 28/28/28
f 26/26/26 30/30/30 29/29/29
f 26/26/26 31/31/31 30/30/30
f 31/31/31 32/32/32 30/30/30
f 35/35/35 34/34/34 33/33/33
f 36/36/36 35/35/35 33/33/33
f 39/39/39 38/38/38 37/37/37
f 40/40/40 39/39/39 37/37/37
f 43/43/43 42/42/42 41/41/41
f 44/44/44 43/43/43 41/41/41
f 47/47/47 46/46/46 45/45/45
f 48/48/48 47/47/47 45/45/45
f 51/51/51 50/50/50 49/49/49
f 52/52/52 51/51/51 49/49/49
f 55/55/55 54/54/54 53/53/53
f 56/56/56 55/55/55 53/53/53
f 59/59/59 58/58/58 57/57/57
f 60/60/60 59/59/59 57/57/57
f 63/63/63 62/62/62 61/61/61
f 64/64/64 63/63/63 61/61/61
f 67/67/67 66/66/66 65/65/65
f 68/68/68 67/67/67 65/65/65
f 71/71/71 70/70/70 69/69/69
f 72/72/72 71/71/71 69/69/69
f 75/75/75 74/74/74 73/73/73
f 76/76/76 75/75/75 73/73/73
f 79/79/79 78/78/78 77/77/77
f 80/80/80 79/79/79 77/77/77
f 83/83/83 82/82/82 81/81/81
f 84/84/84 83/83/83 81/81/81
f 87/87/87 86/86/86 85/85/85
f 88/88/88 87/87/87 85/85/85
f 91/91/91 90/90/90 89/89/89
f 92/92/92 91/91/91 89/89/89
f 95/95/95 94/94/94 93/93/93
f 96/96/96 95/95/95 93/93/93
f 99/99/99 98/98/98 97/97/97
f 100/100/100 99/99/99 97/97/97
f 103/103/103 102/102/102 101/101/101
f 104/104/104 103/103/103 101/101/101
f 107/107/107 106/106/106 105/105/105
f 108/108/108 107/107/107 105/105/105
f 111/111/111 110/110/110 109/109/109
f 109/109/109 112/112/112 111/111/111
f 115/115/115 114/114/114 113/113/113
f 115/115/115 116/116/116 114/114/114
f 116/116/116 117/117/117 114/114/114
f 117/117/117 118/118/118 114/114/114
f 118/118/118 119/119/119 114/114/114
f 119/119/119 120/120/120 114/114/114
f 120/120/120 121/121/121 114/114/114
f 121/121/121 122/122/122 114/114/114
f 122/122/122 123/123/123 114/114/114
f 126/126/126 125/125/125 124/124/124
f 124/124/124 127/127/127 126/126/126
f 124/124/124 128/128/128 127/127/127
f 131/131/131 130/130/130 129/129/129
f 129/129/129 132/132/132 131/131/131
f 132/132/132 133/133/133 131/131/131
f 133/133/133 134/134/134 131/131/131
f 134/134/134 135/135/135 131/131/131
f 135/135/135 136/136/136 131/131/131
f 136/136/136 137/137/137 131/131/131
g 平面.033_1
f 140/140/140 139/139/139 138/138/138
f 143/143/143 142/142/142 141/141/141
f 144/144/144 143/143/143 141/141/141
f 147/147/147 146/146/146 145/145/145
f 148/148/148 147/147/147 145/145/145
f 151/151/151 150/150/150 149/149/149
f 149/149/149 152/152/152 151/151/151
f 155/155/155 154/154/154 153/153/153
f 156/156/156 155/155/155 153/153/153
f 159/159/159 158/158/158 157/157/157
f 157/157/157 160/160/160 159/159/159
f 157/157/157 161/161/161 160/160/160
f 157/157/157 162/162/162 161/161/161
f 157/157/157 163/163/163 162/162/162
f 162/162/162 163/163/163 164/164/164
f 163/163/163 165/165/165 164/164/164
f 167/167/167 165/165/165 166/166/166
f 167/167/167 166/166/166 168/168/168
f 168/168/168 169/169/169 167/167/167
f 172/172/172 171/171/171 170/170/170
f 173/173/173 172/172/172 170/170/170
f 176/176/176 175/175/175 174/174/174
f 177/177/177 176/176/176 174/174/174
f 180/180/180 179/179/179 178/178/178
f 181/181/181 180/180/180 178/178/178
f 184/184/184 183/183/183 182/182/182
f 185/185/185 184/184/184 182/182/182
