g å¹³é¢.002
v -0.008630799 0.04363432 -0.002863787
v -0.009315973 0.05828989 -0.007652582
v 0.03250006 0.05040568 -0.002983665
v 0.03250006 0.04106003 -0.001514912
v -0.05955758 0.04165316 -0.004228475
v -0.05921673 0.0445401 -0.006685066
v -0.009315973 0.05828989 -0.007652582
v -0.008630799 0.04363432 -0.002863787
v -0.05796397 -0.03488565 -0.02145348
v -0.05510157 -0.02714001 -0.003950458
v -0.01231129 -0.02777201 2.980232E-10
v -0.00501941 -0.04158235 -0.01578674
v -0.05510157 -0.02714001 -0.003950458
v -0.05955758 0.04165316 -0.004228475
v -0.008630799 0.04363432 -0.002863787
v -0.01231129 -0.02777201 2.980232E-10
v -0.00501941 -0.04158235 -0.01578674
v -0.01231129 -0.02777201 2.980232E-10
v 0.03044142 -0.02305888 -0.001514913
v 0.0307794 -0.03654616 -0.0120684
v -0.01231129 -0.02777201 2.980232E-10
v -0.008630799 0.04363432 -0.002863787
v 0.03250006 0.04106003 -0.001514912
v 0.03044142 -0.02305888 -0.001514913
vt 0.5 0.6666667
vt 0.5 1
vt 1 1
vt 1 0.6666667
vt 0 0.6666666
vt 0 1
vt 0.5 1
vt 0.5 0.6666667
vt 0 0
vt 0 0.3333333
vt 0.5 0.3333333
vt 0.5 0
vt 0 0.3333333
vt 0 0.6666666
vt 0.5 0.6666667
vt 0.5 0.3333333
vt 0.5 0
vt 0.5 0.3333333
vt 1 0.3333333
vt 1 0
vt 0.5 0.3333333
vt 0.5 0.6666667
vt 1 0.6666667
vt 1 0.3333333
vn -0.03851418 0.2510675 0.967203
vn -0.03851418 0.2510675 0.967203
vn -0.03851418 0.2510675 0.967203
vn -0.03851418 0.2510675 0.967203
vn -0.06291125 0.3799291 0.9228738
vn -0.06291125 0.3799291 0.9228738
vn -0.06291125 0.3799291 0.9228738
vn -0.06291125 0.3799291 0.9228738
vn -0.1174645 -0.8406382 0.5287055
vn -0.1174645 -0.8406382 0.5287055
vn -0.1174645 -0.8406382 0.5287055
vn -0.1174645 -0.8406382 0.5287055
vn -0.0569265 0.02205284 0.9981347
vn -0.0569265 0.02205284 0.9981347
vn -0.0569265 0.02205284 0.9981347
vn -0.0569265 0.02205284 0.9981347
vn 0.06444287 -0.6835454 0.7270576
vn 0.06444287 -0.6835454 0.7270576
vn 0.06444287 -0.6835454 0.7270576
vn 0.06444287 -0.6835454 0.7270576
vn 0.001441834 0.02106526 0.999777
vn 0.001441834 0.02106526 0.999777
vn 0.001441834 0.02106526 0.999777
vn 0.001441834 0.02106526 0.999777
g å¹³é¢.002_0
f 3/3/3 2/2/2 1/1/1
f 4/4/4 3/3/3 1/1/1
f 7/7/7 6/6/6 5/5/5
f 8/8/8 7/7/7 5/5/5
f 11/11/11 10/10/10 9/9/9
f 12/12/12 11/11/11 9/9/9
f 15/15/15 14/14/14 13/13/13
f 16/16/16 15/15/15 13/13/13
f 19/19/19 18/18/18 17/17/17
f 20/20/20 19/19/19 17/17/17
f 23/23/23 22/22/22 21/21/21
f 24/24/24 23/23/23 21/21/21
